G04 ================== begin FILE IDENTIFICATION RECORD ==================*
G04 Layout Name:  OC_CONNECT_1_FRONTEND_LIFE-3.brd*
G04 Film Name:    L2-GND1*
G04 File Format:  Gerber RS274X*
G04 File Origin:  Cadence Allegro 16.6-P004*
G04 Origin Date:  Fri Jan 13 14:48:25 2017*
G04 *
G04 Layer:  DRAWING FORMAT/L2*
G04 Layer:  DRAWING FORMAT/FILM_LABEL_OUTLINE*
G04 Layer:  VIA CLASS/L2-GND1*
G04 Layer:  PIN/L2-GND1*
G04 Layer:  ETCH/L2-GND1*
G04 Layer:  BOARD GEOMETRY/OUTLINE*
G04 *
G04 Offset:    (0.000 0.000)*
G04 Mirror:    No*
G04 Mode:      Positive*
G04 Rotation:  0*
G04 FullContactRelief:  No*
G04 UndefLineWidth:     6.000*
G04 ================== end FILE IDENTIFICATION RECORD ====================*
%FSLAX25Y25*MOIN*%
%IR0*IPPOS*OFA0.00000B0.00000*MIA0B0*SFA1.00000B1.00000*%
%ADD10C,.314961*%
%ADD13C,.02*%
%ADD11C,.022*%
%ADD12C,.016*%
%ADD19C,.028*%
%ADD18C,.065*%
%ADD17C,.023622*%
%ADD14C,.0197*%
%ADD16C,.07874*%
%ADD15C,.082677*%
%ADD20C,.01*%
%ADD21C,.04*%
%ADD22C,.05*%
%ADD23C,.025*%
%ADD24C,.006*%
%ADD30C,.18961*%
%ADD34O,.851654X.069004*%
%ADD27O,.779634X.069004*%
%ADD33C,.062004*%
%ADD31C,.044004*%
%ADD26C,.026004*%
%ADD32C,.081004*%
%ADD25C,.038004*%
%ADD28C,.094744*%
%ADD29C,.098682*%
G75*
%LPD*%
G75*
G36*
G01X445150Y-47880D02*
X255170D01*
X252300Y-45010D01*
Y-9510D01*
X252330Y-9480D01*
Y-3170D01*
X247160Y2000D01*
X4829D01*
X2000Y4829D01*
Y565171D01*
X4829Y568000D01*
X260171D01*
X263000Y565171D01*
Y543171D01*
X268171Y538000D01*
X431829D01*
X437000Y543171D01*
Y565171D01*
X439829Y568000D01*
X695171D01*
X698000Y565171D01*
Y4829D01*
X695171Y2000D01*
X452990D01*
X447910Y-3080D01*
Y-45120D01*
X445150Y-47880D01*
G37*
%LPC*%
G75*
G36*
G01X158746Y464733D02*
G03X159354I304J260D01*
G02Y462267I1446J-1233D01*
G03X158746I-304J-260D01*
G02Y464733I-1446J1233D01*
G37*
G36*
G01X341216Y380601D02*
G03X341769Y380595I279J286D01*
G02X341744Y377849I1301J-1385D01*
G03X341191Y377855I-279J-286D01*
G02X338444Y378007I-1301J1385D01*
G03X337836I-304J-260D01*
G02X334689Y378394I-1446J1233D01*
G03X334071Y378520I-358J-178D01*
G02X334537Y380810I-1235J1444D01*
G03X335155Y380684I358J178D01*
G02X337836Y380473I1235J-1444D01*
G03X338444I304J260D01*
G02X341216Y380601I1446J-1233D01*
G37*
G36*
G01X243596Y213283D02*
X250718Y206161D01*
G02X255150Y195461I-10700J-10701D01*
G01Y124055D01*
G02X248232Y107352I-23622J0D01*
G01X248231Y107352D01*
G02X238811Y103450I-9421J9420D01*
G01X229319D01*
G02Y110350I0J3450D01*
G01X238811D01*
G03X243352Y112231I0J6422D01*
G01X243352Y112232D01*
G03X248250Y124055I-11824J11824D01*
G01Y195461D01*
G03X245839Y201282I-8232J0D01*
G01X238717Y208404D01*
G03X235429Y209766I-3288J-3288D01*
G01X233370D01*
G02X231400Y210383I0J3450D01*
G02X229430Y209766I-1970J2833D01*
G01X218700D01*
G02X216900Y210272I0J3450D01*
G02X215100Y209766I-1800J2943D01*
G01X205378D01*
G02Y216666I0J3450D01*
G01X215100D01*
G02X216900Y216159I0J-3450D01*
G02X218700Y216666I1800J-2943D01*
G01X229430D01*
G02X231400Y216048I0J-3450D01*
G02X233370Y216666I1970J-2833D01*
G01X235429D01*
G02X243596Y213283I0J-11550D01*
G37*
G36*
G01X177300Y216666D02*
G02X179100Y216159I0J-3450D01*
G02X180900Y216666I1800J-2943D01*
G01X193422D01*
G02X194897Y216335I0J-3450D01*
G01X194937Y216316D01*
X195758D01*
G02Y210116I0J-3100D01*
G01X194937D01*
X194897Y210096D01*
G02X193422Y209766I-1474J3119D01*
G01X180900D01*
G02X179100Y210272I0J3450D01*
G02X177300Y209766I-1800J2943D01*
G01X172204D01*
G02X168365Y211356I0J5429D01*
G02X166350Y216221I4865J4865D01*
G01Y304365D01*
G03X166062Y305058I-981J0D01*
G01X162667Y308454D01*
G02X159550Y315979I7525J7525D01*
G01Y318926D01*
G02X159900Y320441I3450J0D01*
G01Y324336D01*
G02X166100I3100J0D01*
G01Y320441D01*
G02X166450Y318926I-3100J-1514D01*
G01Y315979D01*
G03X167546Y313333I3742J0D01*
G01X170942Y309938D01*
G02X173250Y304365I-5573J-5573D01*
G01Y216666D01*
X177300D01*
G37*
G36*
G01X596116Y207586D02*
Y115862D01*
G02X589216I-3450J0D01*
G01Y207586D01*
G03X588453Y209442I-2640J0D01*
G02X588443Y209452I2446J2433D01*
G03X587686Y209766I-756J-757D01*
G01X585070D01*
G02X583100Y210383I0J3450D01*
G02X581130Y209766I-1970J2833D01*
G01X570400D01*
G02X568600Y210272I0J3450D01*
G02X566800Y209766I-1800J2943D01*
G01X557578D01*
G02X556103Y210096I0J3450D01*
G01X556063Y210116D01*
X555242D01*
G02Y216316I0J3100D01*
G01X556063D01*
X556103Y216335D01*
G02X557578Y216666I1474J-3119D01*
G01X566800D01*
G02X568600Y216159I0J-3450D01*
G02X570400Y216666I1800J-2943D01*
G01X581130D01*
G02X583100Y216048I0J-3450D01*
G02X585070Y216666I1970J-2833D01*
G01X587686D01*
G02X593301Y214352I0J-7970D01*
G02X593322Y214331I-2423J-2456D01*
G02X596116Y207586I-6746J-6746D01*
G37*
G36*
G01X465556Y459154D02*
G03Y458546I260J-304D01*
G02X463090I-1233J-1446D01*
G03Y459154I-260J304D01*
G02X465556I1233J1446D01*
G37*
G36*
G01X342214Y357057D02*
G03X341606I-304J-260D01*
G02X338714I-1446J1233D01*
G03X338106I-304J-260D01*
G02Y359523I-1446J1233D01*
G03X338714I304J260D01*
G02X341606I1446J-1233D01*
G03X342214I304J260D01*
G02Y357057I1446J-1233D01*
G37*
G36*
G01X120654Y215967D02*
G03X120046I-304J-260D01*
G02X117661Y218852I-1446J1233D01*
G03Y219548I-198J348D01*
G02X120046Y222433I939J1652D01*
G03X120654I304J260D01*
G02X123753Y222137I1446J-1233D01*
G03X124448Y222139I347J199D01*
G02X127752I1652J-939D01*
G03X128448I348J198D01*
G02X131039Y219548I1652J-939D01*
G03Y218852I198J-348D01*
G02X128448Y216261I-939J-1652D01*
G03X127752I-348J-198D01*
G02X124448I-1652J939D01*
G03X123752I-348J-198D01*
G02X120654Y215967I-1652J939D01*
G37*
G36*
G01X191052Y347661D02*
G02X188461Y350252I-1652J939D01*
G03Y350948I-198J348D01*
G02X191052Y353539I939J1652D01*
G03X191748I348J198D01*
G02X194339Y350948I1652J-939D01*
G03Y350252I198J-348D01*
G02X191748Y347661I-939J-1652D01*
G03X191052I-348J-198D01*
G37*
G36*
G01X198774Y350965D02*
G03X198740Y350252I163J-365D01*
G02X197026Y350335I-939J-1652D01*
G03X197061Y351048I-163J365D01*
G02X198774Y350965I939J1652D01*
G37*
G36*
G01X544237Y351076D02*
G03X543663I-287J-279D01*
G02X541442Y354096I-1363J1324D01*
G03X541438Y354806I-185J354D01*
G02X541526Y358235I862J1694D01*
G03X541560Y358948I-163J365D01*
G02X543903Y361881I940J1652D01*
G03X544477Y361864I295J270D01*
G02X546739Y358848I1323J-1364D01*
G03Y358152I198J-348D01*
G02X546574Y354765I-939J-1652D01*
G03X546540Y354052I163J-365D01*
G02X544237Y351076I-939J-1652D01*
G37*
G36*
G01X474954Y217067D02*
G03X474346I-304J-260D01*
G02X471961Y219952I-1446J1233D01*
G03Y220648I-198J348D01*
G02X474346Y223533I939J1652D01*
G03X474954I304J260D01*
G02X478053Y223237I1446J-1233D01*
G03X478748Y223239I347J199D01*
G02X482052I1652J-939D01*
G03X482748I348J198D01*
G02X485339Y220648I1652J-939D01*
G03Y219952I198J-348D01*
G02X482748Y217361I-939J-1652D01*
G03X482052I-348J-198D01*
G02X478748I-1652J939D01*
G03X478052I-348J-198D01*
G02X474954Y217067I-1652J939D01*
G37*
G36*
G01X545687Y475842D02*
G03X546026Y475285I368J-158D01*
G02X544143Y474138I-136J-1895D01*
G03X543804Y474695I-368J158D01*
G02X542876Y475015I136J1895D01*
G02X543548Y478449I1064J1575D01*
G03X543844Y478971I-82J391D01*
G02X546032Y477731I1797J619D01*
G03X545735Y477214I83J-391D01*
G02X545687Y475842I-1795J-624D01*
G37*
G36*
G01X204639Y166552D02*
G02X202761I-939J-1652D01*
G03Y167248I-198J348D01*
G02X204639I939J1652D01*
G03Y166552I198J-348D01*
G37*
G36*
G01X44152Y178061D02*
G02Y179939I-1652J939D01*
G03X44848I348J198D01*
G02Y178061I1652J-939D01*
G03X44152I-348J-198D01*
G37*
G36*
G01X562649Y368636D02*
G02X561098Y370077I-1849J-437D01*
G03X561551Y370564I63J395D01*
G02X563102Y369123I1849J437D01*
G03X562649Y368636I-63J-395D01*
G37*
G36*
G01X205439Y391652D02*
G02X203561I-939J-1652D01*
G03Y392348I-198J348D01*
G02X205439I939J1652D01*
G03Y391652I198J-348D01*
G37*
G36*
G01X209939Y392348D02*
G03Y391652I198J-348D01*
G02X208061I-939J-1652D01*
G03Y392348I-198J348D01*
G02X209939I939J1652D01*
G37*
G36*
G01X90612Y390747D02*
G02X89388I-612J-1147D01*
G03Y391453I-188J353D01*
G02X90612I612J1147D01*
G03Y390747I188J-353D01*
G37*
G36*
G01X87112Y391453D02*
G03Y390747I188J-353D01*
G02X85888I-612J-1147D01*
G03Y391453I-188J353D01*
G02X87112I612J1147D01*
G37*
G36*
G01X172027Y476829D02*
G03X171556Y476335I-84J-391D01*
G02X169000Y475981I-1256J-335D01*
G03X168482Y476357I-400J-6D01*
G02X169400Y477619I-382J1243D01*
G03X169918Y477243I400J6D01*
G02X170573Y477271I382J-1243D01*
G03X171044Y477765I84J391D01*
G02X171058Y478486I1256J335D01*
G03X170705Y479003I-382J119D01*
G02X172042Y479914I95J1297D01*
G03X172395Y479397I382J-119D01*
G02X172027Y476829I-95J-1297D01*
G37*
G36*
G01X163369Y503144D02*
G02X163319Y504618I-1095J701D01*
G03X163978Y504641I322J238D01*
G02X164028Y503167I1095J-701D01*
G03X163369Y503144I-322J-238D01*
G37*
G36*
G01X166915Y506367D02*
G03X166256Y506344I-322J-238D01*
G02X166206Y507818I-1095J701D01*
G03X166865Y507841I322J238D01*
G02X166915Y506367I1095J-701D01*
G37*
G36*
G01X89322Y524700D02*
G03X89924I301J263D01*
G02X91881I979J-856D01*
G03X92483I301J263D01*
G02X94440I979J-856D01*
G03X95042I301J263D01*
G02X96999I979J-856D01*
G03X97601I301J263D01*
G02X99558I978J-856D01*
G03X100160I301J263D01*
G02X102117I978J-856D01*
G03X102719I301J263D01*
G02Y522987I979J-856D01*
G03X102117I-301J-263D01*
G02X100160I-979J856D01*
G03X99558I-301J-263D01*
G02X97601I-979J856D01*
G03X96999I-301J-263D01*
G02X95042I-978J856D01*
G03X94440I-301J-263D01*
G02X92483I-978J856D01*
G03X91881I-301J-263D01*
G02X89924I-978J856D01*
G03X89322I-301J-263D01*
G02Y524700I-978J856D01*
G37*
G36*
G01X228700Y521824D02*
G03Y521222I263J-301D01*
G02X226987I-856J-978D01*
G03Y521824I-263J301D01*
G02Y523781I856J979D01*
G03Y524383I-263J301D01*
G02Y526340I856J978D01*
G03Y526942I-263J301D01*
G02Y528899I856J978D01*
G03Y529501I-263J301D01*
G02Y531458I856J978D01*
G03Y532060I-263J301D01*
G02Y534017I856J979D01*
G03Y534619I-263J301D01*
G02Y536576I856J978D01*
G03Y537178I-263J301D01*
G02X228700I856J978D01*
G03Y536576I263J-301D01*
G02Y534619I-856J-979D01*
G03Y534017I263J-301D01*
G02Y532060I-856J-978D01*
G03Y531458I263J-301D01*
G02Y529501I-856J-978D01*
G03Y528899I263J-301D01*
G02Y526942I-856J-978D01*
G03Y526340I263J-301D01*
G02Y524383I-856J-979D01*
G03Y523781I263J-301D01*
G02Y521824I-856J-978D01*
G37*
G36*
G01X483513Y519624D02*
G03Y519022I263J-301D01*
G02X481801I-856J-978D01*
G03Y519624I-263J301D01*
G02Y521581I856J979D01*
G03Y522183I-263J301D01*
G02Y524140I856J978D01*
G03Y524742I-263J301D01*
G02Y526699I856J978D01*
G03Y527301I-263J301D01*
G02Y529258I856J978D01*
G03Y529860I-263J301D01*
G02Y531817I856J979D01*
G03Y532419I-263J301D01*
G02Y534376I856J978D01*
G03Y534978I-263J301D01*
G02X483513I856J978D01*
G03Y534376I263J-301D01*
G02Y532419I-856J-979D01*
G03Y531817I263J-301D01*
G02Y529860I-856J-978D01*
G03Y529258I263J-301D01*
G02Y527301I-856J-978D01*
G03Y526699I263J-301D01*
G02Y524742I-856J-978D01*
G03Y524140I263J-301D01*
G02Y522183I-856J-979D01*
G03Y521581I263J-301D01*
G02Y519624I-856J-978D01*
G37*
G36*
G01X527265Y511889D02*
G03X527239Y511298I256J-308D01*
G02X524685Y511411I-1339J-1348D01*
G03X524711Y512002I-256J308D01*
G02X527265Y511889I1339J1348D01*
G37*
G36*
G01X353970Y493896D02*
G03X353431Y493896I-269J-296D01*
G02X353430Y496704I-1281J1403D01*
G03X353969Y496704I269J296D01*
G02X353970Y493896I1281J-1403D01*
G37*
G36*
G01X503691Y490170D02*
G03X504176Y489864I391J83D01*
G02X503208Y488330I304J-1264D01*
G03X502723Y488636I-391J-83D01*
G02X503691Y490170I-304J1264D01*
G37*
G36*
G01X119733Y459154D02*
G03Y458546I260J-304D01*
G02X117267I-1233J-1446D01*
G03Y459154I-260J304D01*
G02X119733I1233J1446D01*
G37*
G36*
G01X236036Y455801D02*
G03Y455199I263J-301D01*
G02X234324I-856J-979D01*
G03Y455801I-263J301D01*
G02X236036I856J979D01*
G37*
G36*
G01X303754Y440368D02*
G03X303798Y439751I275J-291D01*
G02X301396Y439582I-1098J-1551D01*
G03X301352Y440199I-275J291D01*
G02X303754Y440368I1098J1551D01*
G37*
G36*
G01X264563Y404691D02*
G03Y404164I301J-264D01*
G02X261703I-1430J-1252D01*
G03Y404691I-301J263D01*
G02X264563I1430J1251D01*
G37*
G36*
G01X119412Y369311D02*
G03X119982Y369297I292J273D01*
G02X119938Y367474I905J-934D01*
G03X119368Y367488I-292J-273D01*
G02X119412Y369311I-905J934D01*
G37*
G36*
G01X243438Y360206D02*
G03Y359594I258J-306D01*
G02X241762I-838J-994D01*
G03Y360206I-258J306D01*
G02X243438I838J994D01*
G37*
G36*
G01X349358Y347732D02*
G03X349369Y347206I307J-256D01*
G02X346503Y347149I-1408J-1276D01*
G03X346492Y347674I-307J256D01*
G02X349358Y347732I1408J1276D01*
G37*
G36*
G01X538070Y345852D02*
G03X538089Y345252I274J-292D01*
G02X536370Y345198I-829J-1002D01*
G03X536351Y345798I-274J292D01*
G02X538070Y345852I829J1002D01*
G37*
G36*
G01X532505Y346421D02*
G03X532523Y345864I296J-269D01*
G02X529795Y345779I-1323J-1364D01*
G03X529777Y346336I-296J269D01*
G02X530456Y349488I1323J1364D01*
G03X530700Y349992I-136J376D01*
G02X533144Y348812I1800J608D01*
G03X532900Y348308I136J-376D01*
G02X532505Y346421I-1800J-608D01*
G37*
G36*
G01X477919Y341625D02*
G03X477814Y341119I246J-315D01*
G02X475871Y341525I-1143J-619D01*
G03X475977Y342031I-246J315D01*
G02X477919Y341625I1143J619D01*
G37*
G36*
G01X477487Y332261D02*
G03X476977Y332026I-136J-376D01*
G02X476350Y334213I-1777J674D01*
G03X476906Y334285I242J318D01*
G02X477487Y332261I1024J-802D01*
G37*
G36*
G01X443748Y324044D02*
G03X443146I-301J-263D01*
G02Y325756I-978J856D01*
G03X443748I301J263D01*
G02Y324044I979J-856D01*
G37*
G36*
G01X103248D02*
G03X102646I-301J-263D01*
G02Y325756I-978J856D01*
G03X103248I301J263D01*
G02Y324044I979J-856D01*
G37*
G36*
G01X137733Y323080D02*
G03X137142Y323062I-288J-278D01*
G02X137067Y325620I-1442J1238D01*
G03X137658Y325638I288J278D01*
G02X137733Y323080I1442J-1238D01*
G37*
G36*
G01X287002Y221531D02*
G03X286359Y221513I-315J-246D01*
G02X286298Y223769I-1559J1087D01*
G03X286941Y223787I315J246D01*
G02X287002Y221531I1559J-1087D01*
G37*
G36*
G01X183761Y191374D02*
G03X183744Y190835I287J-279D01*
G02X180939Y190926I-1444J-1235D01*
G03X180956Y191465I-287J279D01*
G02X183761Y191374I1444J1235D01*
G37*
G36*
G01X534033Y191354D02*
G03Y190746I260J-304D01*
G02X531567I-1233J-1446D01*
G03Y191354I-260J304D01*
G02X534033I1233J1446D01*
G37*
G36*
G01X554931Y164686D02*
G03X554396I-267J-298D01*
G02Y167514I-1269J1414D01*
G03X554931I267J298D01*
G02Y164686I1269J-1414D01*
G37*
G36*
G01X116950Y122297D02*
Y119500D01*
G02X110050I-3450J0D01*
G01Y122297D01*
X107300D01*
Y134000D01*
X119600D01*
Y122297D01*
X116950D01*
G37*
G36*
G01X180808Y122797D02*
Y117158D01*
G02X173908I-3450J0D01*
G01Y122797D01*
X171200D01*
Y134100D01*
X183500D01*
Y122797D01*
X180808D01*
G37*
G36*
G01X80545Y114950D02*
G02Y108050I0J-3450D01*
G01X57962D01*
G02X49471Y111567I0J12008D01*
G02X46192Y119484I7917J7917D01*
G01Y122297D01*
X43500D01*
Y134000D01*
X55800D01*
Y122297D01*
X53092D01*
Y119484D01*
G03X54350Y116446I4295J0D01*
G03X57962Y114950I3612J3612D01*
G01X80545D01*
G37*
G36*
G01X406633Y114850D02*
G02Y107950I0J-3450D01*
G01X399625D01*
G02X390850Y111585I0J12410D01*
G02X387192Y120416I8831J8832D01*
G01Y122797D01*
X384500D01*
Y134000D01*
X396700D01*
Y122797D01*
X394092D01*
Y120416D01*
G03X395729Y116464I5589J0D01*
G03X399625Y114850I3896J3896D01*
G01X406633D01*
G37*
G36*
G01X454341Y110882D02*
X453335Y111888D01*
G02X451050Y117405I5517J5517D01*
G01Y122797D01*
X448300D01*
Y134000D01*
X460500D01*
Y122797D01*
X457950D01*
Y117404D01*
G03X458214Y116767I902J0D01*
G01X459220Y115761D01*
G03X461680Y114742I2460J2460D01*
G01X470600D01*
G02Y107841I0J-3450D01*
G01X461681D01*
G02X454341Y110882I0J10380D01*
G37*
G36*
G01X548077Y106411D02*
G02Y99511I0J-3450D01*
G01X534863D01*
G02X520608Y105416I0J20159D01*
G02X514908Y119177I13761J13762D01*
G01Y122797D01*
X512200D01*
Y134000D01*
X524490D01*
Y122797D01*
X521808D01*
Y119177D01*
G03X525488Y110295I12561J0D01*
G03X534863Y106411I9376J9376D01*
G01X548077D01*
G37*
G36*
G01X612176Y95254D02*
X613324Y94105D01*
G02X616934Y85390I-8715J-8716D01*
G01Y76850D01*
X622300D01*
Y58700D01*
X604700D01*
Y76850D01*
X610034D01*
Y85390D01*
G03X608445Y89226I-5425J0D01*
G01X607296Y90375D01*
G03X605154Y91262I-2142J-2142D01*
G01X601079D01*
G02Y98162I0J3450D01*
G01X605154D01*
G02X612176Y95254I0J-9930D01*
G37*
G36*
G01X512800Y75850D02*
Y58600D01*
X495000D01*
Y75850D01*
X500506D01*
Y81343D01*
G02X507407I3450J0D01*
G01Y75850D01*
X512800D01*
G37*
G36*
G01X183800Y75350D02*
Y58600D01*
X166000D01*
Y75350D01*
X171506D01*
Y87782D01*
G02X178407I3450J0D01*
G01Y75350D01*
X183800D01*
G37*
G36*
G01X643416Y118598D02*
G02X642284Y117761I85J-1297D01*
G03X641884Y118303I-374J142D01*
G02X643016Y119139I-85J1297D01*
G03X643416Y118598I374J-142D01*
G37*
G36*
G01X661600Y117500D02*
G02X660300Y118800I-1300J0D01*
G03X660700Y119200I0J400D01*
G02X661173Y120203I1300J0D01*
G03X661149Y120838I-255J309D01*
G02X661025Y122862I751J1062D01*
G03X661002Y123474I-269J296D01*
G02X661188Y125647I798J1026D01*
G03Y126353I-188J353D01*
G02X661010Y128532I612J1147D01*
G03Y129168I-243J318D01*
G02X662590I790J1032D01*
G03Y128532I243J-318D01*
G02X662412Y126353I-790J-1032D01*
G03Y125647I188J-353D01*
G02X662675Y123538I-612J-1147D01*
G03X662698Y122926I269J-296D01*
G02X662727Y120897I-798J-1026D01*
G03X662751Y120262I255J-309D01*
G02X662000Y117900I-751J-1062D01*
G03X661600Y117500I0J-400D01*
G37*
G36*
G01X128652Y122161D02*
G02Y124039I-1652J939D01*
G03X129348I348J198D01*
G02Y122161I1652J-939D01*
G03X128652I-348J-198D01*
G37*
G36*
G01X485352Y122561D02*
G02Y124439I-1652J939D01*
G03X486048I348J198D01*
G02Y122561I1652J-939D01*
G03X485352I-348J-198D01*
G37*
G36*
G01X392552Y177461D02*
G02Y179339I-1652J939D01*
G03X393248I348J198D01*
G02Y177461I1652J-939D01*
G03X392552I-348J-198D01*
G37*
G36*
G01X167571Y188362D02*
G02Y189838I-1071J738D01*
G03X168229I329J227D01*
G02X170371I1071J-738D01*
G03X171029I329J227D01*
G02Y188362I1071J-738D01*
G03X170371I-329J-227D01*
G02X168229I-1071J738D01*
G03X167571I-329J-227D01*
G37*
G36*
G01X173688Y193571D02*
G02X173717Y191678I1662J-921D01*
G03X173074Y191738I-344J-205D01*
G02X171029Y191862I-974J861D01*
G03X170371I-329J-227D01*
G02X168229I-1071J738D01*
G03X167571I-329J-227D01*
G02Y193338I-1071J738D01*
G03X168229I329J227D01*
G02X170371I1071J-738D01*
G03X171029I329J227D01*
G02X173047Y193491I1071J-738D01*
G03X173688Y193571I291J274D01*
G37*
G36*
G01X305408Y203830D02*
G02Y205370I-1048J770D01*
G03X306052I322J237D01*
G02Y203830I1048J-770D01*
G03X305408I-322J-237D01*
G37*
G36*
G01Y207330D02*
G02Y208870I-1048J770D01*
G03X306052I322J237D01*
G02Y207330I1048J-770D01*
G03X305408I-322J-237D01*
G37*
G36*
G01X411352Y215861D02*
G02X408761Y218452I-1652J939D01*
G03Y219148I-198J348D01*
G02X411352Y221739I939J1652D01*
G03X412048I348J198D01*
G02X415352I1652J-939D01*
G03X416048I348J198D01*
G02X419352I1652J-939D01*
G03X420048I348J198D01*
G02X423146Y222033I1652J-939D01*
G03X423754I304J260D01*
G02X426139Y219148I1446J-1233D01*
G03Y218452I198J-348D01*
G02X423754Y215567I-939J-1652D01*
G03X423146I-304J-260D01*
G02X420048Y215861I-1446J1233D01*
G03X419352I-348J-198D01*
G02X416048I-1652J939D01*
G03X415352I-348J-198D01*
G02X412048I-1652J939D01*
G03X411352I-348J-198D01*
G37*
G36*
G01X173803Y320019D02*
G02X173723Y322664I-1403J1281D01*
G03X174297Y322681I278J287D01*
G02X174794Y323071I1403J-1281D01*
G03X174838Y323746I-191J352D01*
G02X176422Y323793I762J1054D01*
G03X176506Y323121I253J-310D01*
G02X174377Y320036I-806J-1721D01*
G03X173803Y320019I-278J-287D01*
G37*
G36*
G01X518602Y339719D02*
G02X518265Y338398I905J-934D01*
G03X517605Y338566I-382J-119D01*
G02X517941Y339887I-905J934D01*
G03X518602Y339719I382J119D01*
G37*
G36*
G01X39312Y363647D02*
G02X38088I-612J-1147D01*
G03Y364353I-188J353D01*
G02X39312I612J1147D01*
G03Y363647I188J-353D01*
G37*
G36*
G01X42812D02*
G02X41588I-612J-1147D01*
G03Y364353I-188J353D01*
G02X42812I612J1147D01*
G03Y363647I188J-353D01*
G37*
G36*
G01X28176Y376219D02*
G02X28150Y374342I1639J-961D01*
G03X27455Y374352I-350J-193D01*
G02X27480Y376228I-1639J961D01*
G03X28176Y376219I350J193D01*
G37*
G36*
G01X458734Y377997D02*
G02X457242Y378121I-834J-997D01*
G03X457296Y378773I-203J345D01*
G02X458788Y378649I834J997D01*
G03X458734Y377997I203J-345D01*
G37*
G36*
G01X468393Y385239D02*
G02X466995Y384825I-393J-1239D01*
G03X466807Y385461I-309J254D01*
G02X468205Y385875I393J1239D01*
G03X468393Y385239I309J-254D01*
G37*
G36*
G01X676200Y390620D02*
G02X675129Y391880I-1300J-20D01*
G03X675600Y392280I71J394D01*
G02X676671Y391020I1300J20D01*
G03X676200Y390620I-71J-394D01*
G37*
G36*
G01X482127Y394403D02*
G02X480549Y394462I-827J-1003D01*
G03X480573Y395097I-231J327D01*
G02X482151Y395038I827J1003D01*
G03X482127Y394403I231J-327D01*
G37*
G36*
G01X676298Y400936D02*
G02X675400Y399707I402J-1236D01*
G03X674876Y400090I-400J2D01*
G02X675774Y401319I-402J1236D01*
G03X676298Y400936I400J-2D01*
G37*
G36*
G01X323274Y435696D02*
G02X319932Y435422I-1744J754D01*
G03X319282Y435453I-336J-216D01*
G02X319388Y437658I-1492J1177D01*
G03X320038Y437627I336J216D01*
G02X323090Y437535I1492J-1177D01*
G03X323786Y437604I328J228D01*
G02X327182Y437789I1744J-754D01*
G03X327878I348J198D01*
G02Y435911I1652J-939D01*
G03X327182I-348J-198D01*
G02X323970Y435765I-1652J939D01*
G03X323274Y435696I-328J-228D01*
G37*
G36*
G01X57039Y446457D02*
G02X55802Y446490I-649J-1127D01*
G03X55821Y447193I-181J357D01*
G02X57058Y447160I649J1127D01*
G03X57039Y446457I181J-357D01*
G37*
G36*
G01X208326Y451739D02*
G02X206958Y451668I-627J-1139D01*
G03X206922Y452347I-228J328D01*
G02X208291Y452418I627J1139D01*
G03X208326Y451739I228J-328D01*
G37*
G36*
G01X199188Y453313D02*
G02X197828Y453307I-675J-1111D01*
G03X197825Y453989I-211J340D01*
G02X199185Y453995I675J1111D01*
G03X199188Y453313I211J-340D01*
G37*
G36*
G01X210701Y454700D02*
G02X210545Y457291I-1J1300D01*
G03X210720Y457516I-24J199D01*
G02X212164Y456394I1289J169D01*
G03X211989Y456169I24J-199D01*
G02X211398Y454903I-1289J-169D01*
G03X211505Y454534I107J-169D01*
G02X210808Y454331I1J-1300D01*
G03X210701Y454700I-107J169D01*
G37*
G36*
G01X551079Y489700D02*
G02X549748Y489135I21J-1900D01*
G03X549519Y489812I-285J281D01*
G02X550752Y490335I181J1288D01*
G03X551079Y489700I323J-235D01*
G37*
G36*
G01X102632Y507931D02*
G02Y509809I-1652J939D01*
G03X103328I348J198D01*
G02Y507931I1652J-939D01*
G03X102632I-348J-198D01*
G37*
G36*
G01X530106Y519512D02*
G02X528074Y519499I-1006J-1612D01*
G03X528070Y520175I-216J337D01*
G02X530102Y520188I1006J1612D01*
G03X530106Y519512I216J-337D01*
G37*
G36*
G01X114647Y521188D02*
G02Y522412I-1147J612D01*
G03X115353I353J188D01*
G02Y521188I1147J-612D01*
G03X114647I-353J-188D01*
G37*
G36*
G01X161439Y524752D02*
G02X159561I-939J-1652D01*
G03Y525448I-198J348D01*
G02X161439I939J1652D01*
G03Y524752I198J-348D01*
G37*
G36*
G01X530006Y537190D02*
G02X528083Y537153I-930J-1657D01*
G03X528070Y537843I-209J341D01*
G02X529993Y537880I930J1657D01*
G03X530006Y537190I209J-341D01*
G37*
G36*
G01X119556Y376296D02*
G02X119509Y377772I-1093J704D01*
G03X120167Y377794I322J238D01*
G02X120214Y376318I1093J-704D01*
G03X119556Y376296I-322J-238D01*
G37*
G36*
G01X178414Y474714D02*
G02X178144Y476010I-1231J420D01*
G03X178818Y476150I296J269D01*
G02X179088Y474854I1231J-420D01*
G03X178414Y474714I-296J-269D01*
G37*
G36*
G01X331743Y422014D02*
G03X331986Y421846I198J26D01*
G02X330565Y419575I432J-1851D01*
G03X330120Y419883I-390J-88D01*
G02X330175Y423639I-261J1882D01*
G03X330634Y424109I67J394D01*
G02X332184Y422596I1866J361D01*
G03X331725Y422126I-67J-394D01*
G02X331743Y422014I-1866J-361D01*
G37*
G36*
G01X377543Y419228D02*
G03X376837I-353J-188D01*
G02X375078Y420987I-1147J612D01*
G03Y421693I-188J353D01*
G02X376837Y423452I612J1147D01*
G03X377543I353J188D01*
G02X379302Y421693I1147J-612D01*
G03Y420987I188J-353D01*
G02X377543Y419228I-612J-1147D01*
G37*
G36*
G01X371589Y426342D02*
G02X368998Y423751I-939J-1652D01*
G03X368302I-348J-198D01*
G02X364998I-1652J939D01*
G03X364302I-348J-198D01*
G02X360998I-1652J939D01*
G03X360302I-348J-198D01*
G02X356998I-1652J939D01*
G03X356302I-348J-198D01*
G02X352998I-1652J939D01*
G03X352302I-348J-198D01*
G02X349711Y426342I-1652J939D01*
G03Y427038I-198J348D01*
G02X352302Y429629I939J1652D01*
G03X352998I348J198D01*
G02X356302I1652J-939D01*
G03X356998I348J198D01*
G02X360302I1652J-939D01*
G03X360998I348J198D01*
G02X364302I1652J-939D01*
G03X364998I348J198D01*
G02X368302I1652J-939D01*
G03X368998I348J198D01*
G02X371589Y427038I1652J-939D01*
G03Y426342I198J-348D01*
G37*
G36*
G01X566412Y230353D02*
G03Y229647I188J-353D01*
G02X565188I-612J-1147D01*
G03Y230353I-188J353D01*
G02X566412I612J1147D01*
G37*
G36*
G01X569912Y229647D02*
G02X568688I-612J-1147D01*
G03Y230353I-188J353D01*
G02X569912I612J1147D01*
G03Y229647I188J-353D01*
G37*
G36*
G01X558752Y396661D02*
G02X555448I-1652J939D01*
G03X554752I-348J-198D01*
G02X552161Y399252I-1652J939D01*
G03Y399948I-198J348D01*
G02X554752Y402539I939J1652D01*
G03X555448I348J198D01*
G02X558752I1652J-939D01*
G03X559448I348J198D01*
G02X562039Y399948I1652J-939D01*
G03Y399252I198J-348D01*
G02X559448Y396661I-939J-1652D01*
G03X558752I-348J-198D01*
G37*
G36*
G01X389304Y396197D02*
G03X388696I-304J-260D01*
G02X385804I-1446J1233D01*
G03X385196I-304J-260D01*
G02X383042Y395666I-1446J1233D01*
G02X382304Y396197I708J1764D01*
G03X381696I-304J-260D01*
G02X379311Y399082I-1446J1233D01*
G03Y399778I-198J348D01*
G02X381696Y402663I939J1652D01*
G03X382304I304J260D01*
G02X385196I1446J-1233D01*
G03X385804I304J260D01*
G02X388696I1446J-1233D01*
G03X389304I304J260D01*
G02X392196I1446J-1233D01*
G03X392804I304J260D01*
G02X395189Y399778I1446J-1233D01*
G03Y399082I198J-348D01*
G02X392804Y396197I-939J-1652D01*
G03X392196I-304J-260D01*
G02X389304I-1446J1233D01*
G37*
G36*
G01X214712Y230353D02*
G03Y229647I188J-353D01*
G02X213488I-612J-1147D01*
G03Y230353I-188J353D01*
G02X214712I612J1147D01*
G37*
G36*
G01X218212Y229647D02*
G02X216988I-612J-1147D01*
G03Y230353I-188J353D01*
G02X218212I612J1147D01*
G03Y229647I188J-353D01*
G37*
G36*
G01X525061Y406110D02*
G03X525384Y405616I388J-99D01*
G02X523239Y404210I-305J-1876D01*
G03X522915Y404704I-388J99D01*
G02X525061Y406110I305J1876D01*
G37*
G36*
G01X429053Y443188D02*
G03X428347I-353J-188D01*
G02Y444412I-1147J612D01*
G03X429053I353J188D01*
G02Y443188I1147J-612D01*
G37*
G36*
G01X428347Y446688D02*
G02Y447912I-1147J612D01*
G03X429053I353J188D01*
G02Y446688I1147J-612D01*
G03X428347I-353J-188D01*
G37*
G36*
G01X115679Y546114D02*
G03Y545418I198J-348D01*
G02X113801I-939J-1652D01*
G03Y546114I-198J348D01*
G02X115679I939J1652D01*
G37*
G36*
G01X191705Y359154D02*
X191071Y358520D01*
G02X189437Y357608I-2425J2425D01*
G02X188525Y355975I-3337J792D01*
G01X187241Y354690D01*
G02X175845Y349970I-11396J11396D01*
G01X166450D01*
Y348400D01*
G02X165943Y346600I-3450J0D01*
G02X166450Y344800I-2943J-1800D01*
G01Y341908D01*
G02X166119Y340434I-3450J0D01*
G01X166100Y340394D01*
Y338864D01*
G02X159900I-3100J0D01*
G01Y340394D01*
X159881Y340434D01*
G02X159550Y341908I3119J1474D01*
G01Y344800D01*
G02X160057Y346600I3450J0D01*
G02X159550Y348400I2943J1800D01*
G01Y349970D01*
X149962D01*
G02X138895Y354554I0J15652D01*
G01X137475Y355975D01*
G02X136563Y357608I2425J2425D01*
G02X134929Y358520I792J3337D01*
G01X133910Y359539D01*
G02X131424Y365541I6002J6002D01*
G01Y368000D01*
G02X132312Y370303I3430J0D01*
G03X132194Y370929I-296J269D01*
G02X130292Y374000I1529J3071D01*
G01Y376412D01*
G02X132527Y381806I7628J0D01*
G01X133797Y383076D01*
G02X135431Y383988I2425J-2425D01*
G02X136343Y385622I3337J-792D01*
G01X137074Y386354D01*
G02X149804Y391627I12730J-12730D01*
G01X158418D01*
Y394015D01*
G02X158706Y395395I3450J0D01*
G02X158418Y396775I3162J1380D01*
G01Y400732D01*
G02X165318I3450J0D01*
G01Y396775D01*
G02X165030Y395395I-3450J0D01*
G02X165318Y394015I-3162J-1380D01*
G01Y391627D01*
X173317D01*
G02X187096Y385919I0J-19487D01*
G01X187394Y385622D01*
G02X188306Y383988I-2425J-2425D01*
G02X189939Y383076I-792J-3337D01*
G01X191067Y381948D01*
G02X193444Y376211I-5738J-5738D01*
G01Y373900D01*
G02X192375Y371412I-3430J0D01*
G03X192494Y370754I275J-290D01*
G02X194576Y367600I-1348J-3154D01*
G01Y366085D01*
G02X191705Y359154I-9801J0D01*
G37*
G36*
G01X281034Y85205D02*
G03X277239Y94366I-12956J0D01*
G03X272451Y96350I-4788J-4789D01*
G01X268787D01*
X268779Y96342D01*
X264700D01*
G02Y103243I0J3450D01*
G01X265921D01*
X265928Y103250D01*
X272451D01*
G02X282119Y99246I0J-13672D01*
G02X287934Y85205I-14040J-14040D01*
G01Y74600D01*
X293400D01*
Y58800D01*
X275500D01*
Y74600D01*
X281034D01*
Y85205D01*
G37*
G36*
G01X265050Y123812D02*
G02X255475Y100696I-32692J0D01*
G02X255458Y100679I-2448J2431D01*
G02X239979Y94277I-15479J15512D01*
G01X201518D01*
G02X199112Y95254I0J3450D01*
G03X198833I-140J-143D01*
G02X196427Y94277I-2406J2473D01*
G01X118846D01*
G03X105741Y88849I0J-18532D01*
G03X101675Y79031I9818J-9818D01*
G01Y76350D01*
X107200D01*
Y58600D01*
X89300D01*
Y76350D01*
X94774D01*
Y79031D01*
G02X100862Y93728I20785J0D01*
G02X118846Y101177I17984J-17983D01*
G01X195523D01*
Y104500D01*
G02X202423I3450J0D01*
G01Y101177D01*
X239979D01*
G03X250596Y105575I0J15014D01*
G02X250610Y105590I2447J-2432D01*
G03X258150Y123812I-18252J18223D01*
G01Y139012D01*
G02X263988Y153105I19931J0D01*
G01X270157Y159275D01*
G02X275037Y154396I2440J-2440D01*
G01X268867Y148226D01*
G03X265050Y139012I9214J-9214D01*
G01Y123812D01*
G37*
G36*
G01X530439Y381576D02*
X531262Y380754D01*
G02X533944Y374279I-6474J-6474D01*
G01Y372200D01*
G02X532662Y369526I-3430J0D01*
G03X532781Y368837I251J-312D01*
G02X535076Y365600I-1135J-3237D01*
G01Y363656D01*
G02X532862Y358311I-7559J0D01*
G01X531571Y357020D01*
G02X529937Y356108I-2425J2425D01*
G02X529025Y354475I-3337J792D01*
G01X527798Y353247D01*
G02X516265Y348470I-11533J11532D01*
G01X506950D01*
Y346900D01*
G02X506443Y345100I-3450J0D01*
G02X506950Y343300I-2943J-1800D01*
G01Y340408D01*
G02X506619Y338934I-3450J0D01*
G01X506600Y338894D01*
Y337364D01*
G02X500440Y336869I-3100J0D01*
G03X499846Y337152I-395J-64D01*
G02X499519Y340596I-946J1648D01*
G03X500050Y340975I130J378D01*
G01Y343300D01*
G02X500557Y345100I3450J0D01*
G02X500050Y346900I2943J1800D01*
G01Y348470D01*
X491120D01*
G02X478930Y353519I0J17238D01*
G01X477975Y354475D01*
G02X477063Y356108I2425J2425D01*
G02X475429Y357020I792J3337D01*
G01X474603Y357846D01*
G02X471924Y364313I6466J6466D01*
G01Y365800D01*
G02X472869Y368164I3430J0D01*
G03X472751Y368801I-290J276D01*
G02X470792Y371900I1471J3099D01*
G01Y374720D01*
G02X473163Y380442I8093J0D01*
G01X474297Y381576D01*
G02X475931Y382488I2425J-2425D01*
G02X476843Y384122I3337J-792D01*
G01X477846Y385125D01*
G02X489921Y390127I12075J-12075D01*
G01X498918D01*
Y391522D01*
G02X499343Y393182I3450J0D01*
G01X499368Y393227D01*
Y393839D01*
G02X502608Y396829I3000J0D01*
G03X503039Y397260I32J399D01*
G02Y397740I2991J240D01*
G03X502608Y398171I-399J32D01*
G02X499368Y401161I-240J2991D01*
G01Y401896D01*
X499343Y401940D01*
G02X498918Y403600I3025J1659D01*
G01Y406200D01*
G02X499425Y408000I3450J0D01*
G02X498918Y409800I2943J1800D01*
G01Y410719D01*
G03X498343Y411078I-400J0D01*
G02X496004Y411632I-831J1709D01*
G03X495384Y411650I-318J-243D01*
G02X495212Y413516I-984J850D01*
G03X495818Y413647I250J313D01*
G02X498912Y414073I1695J-860D01*
G03X499240Y414124I147J135D01*
G02X499249Y414142I3127J-1458D01*
G01X499268Y414183D01*
Y414600D01*
G02X500253Y416867I3100J0D01*
G03Y417452I-273J292D01*
G02X499268Y419754I2115J2267D01*
G02X498918Y421268I3100J1515D01*
G01Y424700D01*
G02X499425Y426500I3450J0D01*
G02X498918Y428300I2943J1800D01*
G01Y432150D01*
G02X502368Y435600I3450J0D01*
G01X506031D01*
G02X507831Y435093I0J-3450D01*
G02X509631Y435600I1800J-2943D01*
G01X513596D01*
G02X514398Y435506I0J-3450D01*
G01X514421Y435500D01*
X517134D01*
G03X518170Y435844I0J1735D01*
G01Y436140D01*
G02X518340Y437193I3350J0D01*
G01X518350Y437224D01*
Y439166D01*
G02X524750I3200J0D01*
G01Y437029D01*
X524757Y437004D01*
G02X524870Y436140I-3237J-864D01*
G01Y435548D01*
G02X523099Y431271I-6048J0D01*
G01X523098Y431271D01*
G02X517134Y428800I-5965J5965D01*
G01X514421D01*
X514398Y428794D01*
G02X513596Y428700I-802J3356D01*
G01X509631D01*
G02X507831Y429207I0J3450D01*
G02X506031Y428700I-1800J2943D01*
G01X505818D01*
Y428300D01*
G02X505312Y426500I-3450J0D01*
G02X505818Y424700I-2943J-1800D01*
G01Y421268D01*
G02X505774Y420720I-3450J0D01*
G03X506185Y420257I395J-64D01*
G02X506305Y420259I119J-3098D01*
G01X506826D01*
X506867Y420278D01*
G02X508341Y420609I1474J-3119D01*
G01X510546D01*
G02X512346Y420102I0J-3450D01*
G02X514146Y420609I1800J-2943D01*
G01X519627D01*
G03X523958Y422403I0J6125D01*
G01X523959Y422404D01*
G03X527900Y431918I-9515J9515D01*
G01Y432097D01*
G02X531422Y440602I12027J0D01*
G02X531443Y440622I2444J-2436D01*
G02X537454Y443100I6012J-6052D01*
G01X542023D01*
Y450385D01*
G02X542640Y452353I3450J0D01*
G02X542023Y454322I2833J1968D01*
G01Y454713D01*
X541756D01*
X541702Y454672D01*
G02X539618Y453972I-2084J2750D01*
G01X525905D01*
G03X525232Y453693I0J-952D01*
G03X525000Y453133I560J-559D01*
G01Y449890D01*
G02X524764Y448635I-3450J0D01*
G01X524750Y448600D01*
Y446647D01*
G02X518350I-3200J0D01*
G01Y448600D01*
X518336Y448635D01*
G02X518100Y449890I3214J1255D01*
G01Y453133D01*
G02X520353Y458572I7692J0D01*
G02X525905Y460872I5553J-5552D01*
G01X539618D01*
G02X541415Y460367I0J-3450D01*
G03X542023Y460709I208J341D01*
G01Y462740D01*
G02X547223Y465714I3450J0D01*
G02X548973Y466190I1750J-2973D01*
G01X559992D01*
G02Y459290I0J-3450D01*
G01X548924D01*
Y454322D01*
G02X548307Y452353I-3450J0D01*
G02X548924Y450385I-2833J-1969D01*
G01Y442919D01*
G02X546904Y438042I-6896J0D01*
G02X542456Y436200I-4448J4448D01*
G01X537454D01*
G03X536302Y435723I0J-1630D01*
G02X536290Y435710I-2446J2434D01*
G03X534800Y432098I3637J-3613D01*
G01Y431918D01*
G02X528838Y417524I-20356J0D01*
G02X519627Y413709I-9211J9210D01*
G01X514146D01*
G02X512346Y414216I0J3450D01*
G02X510546Y413709I-1800J2943D01*
G01X508341D01*
G02X506867Y414040I0J3450D01*
G01X506826Y414059D01*
X506305D01*
G02X506112Y414065I-1J3100D01*
G03X505700Y413562I-25J-399D01*
G02X505818Y412668I-3332J-894D01*
G01Y409800D01*
G02X505312Y408000I-3450J0D01*
G02X505818Y406200I-2943J-1800D01*
G01Y403600D01*
G02X505393Y401940I-3450J0D01*
G01X505368Y401896D01*
Y401161D01*
G02X505359Y400921I-3000J0D01*
G03X505789Y400491I399J-32D01*
G02X506030Y400500I240J-2991D01*
G01X506641D01*
X506686Y400525D01*
G02X508346Y400950I1659J-3025D01*
G01X512068D01*
G02X513868Y400443I0J-3450D01*
G02X515668Y400950I1800J-2943D01*
G01X519000D01*
G02Y394050I0J-3450D01*
G01X515668D01*
G02X513868Y394557I0J3450D01*
G02X512068Y394050I-1800J2943D01*
G01X508346D01*
G02X506686Y394475I0J3450D01*
G01X506641Y394500D01*
X506030D01*
G02X505789Y394509I0J3000D01*
G03X505359Y394079I-32J-399D01*
G02X505368Y393839I-2991J-240D01*
G01Y393227D01*
X505393Y393182D01*
G02X505818Y391522I-3025J-1659D01*
G01Y390127D01*
X514938D01*
G02X526804Y385212I0J-16781D01*
G01X527894Y384122D01*
G02X528806Y382488I-2425J-2425D01*
G02X530439Y381576I-792J-3337D01*
G37*
G36*
G01X530600Y210272D02*
G02X528800Y209766I-1800J2943D01*
G01X524100D01*
G02X522350Y216189I0J3450D01*
G01Y303935D01*
G03X521971Y304850I-1293J0D01*
G03X521729Y304950I-242J-242D01*
G01X507516D01*
G02X502318Y307103I0J7351D01*
G02X500050Y312578I5475J5475D01*
G01Y317300D01*
G02X500400Y318814I3450J0D01*
G01Y322836D01*
G02X506600I3100J0D01*
G01Y318814D01*
G02X506950Y317300I-3100J-1514D01*
G01Y312578D01*
G03X507197Y311982I843J0D01*
G03X507516Y311850I319J319D01*
G01X521729D01*
G02X526850Y309729I0J-7242D01*
G02X529250Y303935I-5794J-5794D01*
G01Y216640D01*
X529415Y216611D01*
G02X530600Y216159I-615J-3395D01*
G02X532400Y216666I1800J-2943D01*
G01X545622D01*
G02X547137Y216316I0J-3450D01*
G01X547958D01*
G02Y210116I0J-3100D01*
G01X547137D01*
G02X545622Y209766I-1514J3100D01*
G01X532400D01*
G02X530600Y210272I0J3450D01*
G37*
G36*
G01X598803Y145887D02*
G02X605703I3450J0D01*
G01Y118174D01*
G02X597875Y99276I-26725J0D01*
G01X590528Y91928D01*
G02X585682Y91895I-2440J2440D01*
G03X585403I-139J-143D01*
G02X582997Y90918I-2406J2473D01*
G01X446944D01*
G03X433185Y85219I0J-19458D01*
G03X430675Y79159I6059J-6060D01*
G01Y76350D01*
X436000D01*
Y58850D01*
X418600D01*
Y76350D01*
X423774D01*
Y79159D01*
G02X428305Y90098I15470J0D01*
G02X446944Y97818I18638J-18638D01*
G01X582092D01*
Y100610D01*
G02X588966Y101038I3450J0D01*
G03X589646Y100805I397J50D01*
G01X592996Y104155D01*
G03X598803Y118174I-14018J14018D01*
G01Y145887D01*
G37*
G36*
G01X224061Y507859D02*
G03X223539I-261J-303D01*
G02Y510741I-1239J1441D01*
G03X224061I261J303D01*
G02Y507859I1239J-1441D01*
G37*
G54D30*
X291181Y513622D03*
G54D34*
X230232Y86831D03*
G54D27*
X555932Y85800D03*
G54D33*
X200707Y187000D03*
X554207Y186700D03*
G54D31*
X308504Y527992D03*
Y522677D03*
Y517362D03*
Y512047D03*
Y506732D03*
X315984Y527992D03*
Y522677D03*
Y517362D03*
Y512047D03*
Y506732D03*
X323464D03*
Y512047D03*
Y517362D03*
Y522677D03*
Y527992D03*
X308504Y533307D03*
X315984D03*
X323464D03*
X330945Y506732D03*
Y512047D03*
Y517362D03*
Y522677D03*
Y527992D03*
X338425Y506732D03*
Y512047D03*
Y517362D03*
Y522677D03*
Y527992D03*
X345905Y506732D03*
Y512047D03*
Y517362D03*
Y522677D03*
Y527992D03*
X353386Y506732D03*
Y522677D03*
Y527992D03*
Y517362D03*
Y512047D03*
X360866Y506732D03*
Y522677D03*
Y527992D03*
Y517362D03*
Y512047D03*
X420708Y506732D03*
X413228D03*
X420708Y512047D03*
X413228D03*
X368346Y517362D03*
X375827D03*
X368346Y522677D03*
X375827D03*
X368346Y527992D03*
X375827D03*
X383307D03*
X390787D03*
X398268D03*
X405748D03*
X413228D03*
X420708D03*
X383307Y522677D03*
X390787D03*
X398268D03*
X405748D03*
X413228D03*
X420708D03*
X383307Y517362D03*
X390787D03*
X398268D03*
X405748D03*
X413228D03*
X420708D03*
X405748Y512047D03*
X398268D03*
X390787D03*
X383307D03*
X375827D03*
X368346D03*
X405748Y506732D03*
X398268D03*
X390787D03*
X383307D03*
X375827D03*
X368346D03*
X330945Y533307D03*
X338425D03*
X345905D03*
X353386D03*
X360866D03*
X368346D03*
X375827D03*
X383307D03*
X390787D03*
X398268D03*
X405748D03*
X413228D03*
X420708D03*
G54D26*
X159400Y460100D03*
X189800D03*
X188400Y462900D03*
X511281Y468950D03*
X436642Y368405D03*
X440694Y368917D03*
X96338Y368507D03*
X100327Y368967D03*
X86684Y345934D03*
X87415Y350289D03*
X508600Y543700D03*
X512100D03*
Y547200D03*
X508600D03*
X490100Y414600D03*
X486600Y418100D03*
Y414600D03*
X490100Y418100D03*
X431200Y420900D03*
Y424400D03*
X427700D03*
Y420900D03*
X129700Y341200D03*
X133200D03*
Y344700D03*
X129700D03*
X26900Y355800D03*
Y352300D03*
X30400Y355800D03*
Y352300D03*
X182676Y340600D03*
X179006Y340762D03*
X397270Y360349D03*
X484500Y545100D03*
X480966Y545292D03*
X32199Y344408D03*
X32277Y336808D03*
X63100Y365762D03*
X56352Y383707D03*
X54550Y376350D03*
X64029Y382600D03*
X53793Y381100D03*
X58911D03*
X69148Y395234D03*
X30400Y359800D03*
X58800Y365779D03*
X67400Y365728D03*
X70900D03*
X67648Y373714D03*
X26900Y359800D03*
Y363300D03*
X30400D03*
X71168Y436956D03*
X49829Y428329D03*
X57168Y427698D03*
X45600Y425200D03*
X66568Y427698D03*
X71168D03*
X61768D03*
X145500Y318300D03*
X146218Y331600D03*
X137550Y343650D03*
X104148Y319952D03*
X146246Y343650D03*
X109345Y319500D03*
X185268Y333568D03*
X179500Y310500D03*
X124300Y331500D03*
X127800D03*
Y335000D03*
X109445Y368402D03*
X99108Y322000D03*
X82300Y373200D03*
X76074Y337388D03*
X81100Y388400D03*
X79250Y373250D03*
X146219Y327950D03*
X137560Y347380D03*
X146232Y347300D03*
X92700Y380900D03*
X86670Y342434D03*
X75200Y365745D03*
X86670Y338934D03*
X86698Y331934D03*
X96549Y319500D03*
X124300Y335000D03*
X137550Y331600D03*
X73561Y341984D03*
X83423Y397478D03*
X77600Y391900D03*
Y388400D03*
X81100Y391900D03*
X84200Y356300D03*
X111900Y315000D03*
X117667Y323833D03*
X89200Y377400D03*
X92700D03*
X137448Y335250D03*
X89358Y365956D03*
X148106Y454834D03*
X75868Y436956D03*
X140639Y499500D03*
X147090Y488260D03*
X151300Y497400D03*
X98770Y466000D03*
X185000Y526420D03*
Y522421D03*
Y518421D03*
X156866Y454834D03*
X194500Y485516D03*
X191000Y483547D03*
X173522Y454220D03*
X173000Y457800D03*
X161800Y492552D03*
X106257Y513700D03*
X132961Y521502D03*
X191000Y487484D03*
X160950Y484752D03*
X94995Y444095D03*
X155200Y499425D03*
X194000Y489453D03*
X89050Y460280D03*
X161947Y488652D03*
X148106Y450384D03*
X191900Y462900D03*
X196059Y443784D03*
X194900Y512500D03*
X194772Y509446D03*
X114000Y490900D03*
Y494400D03*
Y497900D03*
X117500D03*
Y494400D03*
Y490900D03*
X170400Y520200D03*
X166900D03*
X170400Y516700D03*
X166900D03*
X98377Y448790D03*
X75868Y427698D03*
X150590Y488260D03*
X170600Y496965D03*
X162000D03*
X156866Y450384D03*
X178047Y505572D03*
X176381Y509420D03*
X84250Y481000D03*
X80250D03*
X88949Y451349D03*
X153100Y544900D03*
X136900Y544642D03*
X157100D03*
X144900D03*
X128700D03*
X182300Y531900D03*
X182700Y538420D03*
X185000Y534420D03*
Y546250D03*
X182700Y542250D03*
X149000Y544900D03*
X116995Y537155D03*
X104200Y533700D03*
X100700D03*
Y537200D03*
X104200D03*
X323100Y224400D03*
X322000Y197600D03*
X322658Y183480D03*
X294678Y192600D03*
X323100Y227900D03*
X319600D03*
Y224400D03*
X322980Y396940D03*
X319988Y387790D03*
X241642Y317657D03*
X253942D03*
X258542D03*
X253905Y359020D03*
X302240Y402590D03*
X302494Y341540D03*
Y307876D03*
X262367Y368200D03*
X258367Y368000D03*
X306456Y345034D03*
X250058Y367642D03*
X198700Y465700D03*
X301910Y412371D03*
X207728Y492000D03*
X303228Y460922D03*
X270600Y450600D03*
X220134Y448784D03*
X270600Y455100D03*
X220134Y453234D03*
X240900Y499302D03*
X210600Y499500D03*
X261400Y455100D03*
X251400Y462900D03*
X254900D03*
X252800Y460100D03*
X261400Y450500D03*
Y445900D03*
X235700Y525700D03*
X239200D03*
X198400Y512500D03*
X201900D03*
X201772Y509446D03*
X198272D03*
X301760Y407530D03*
X303310Y428700D03*
X211506Y448784D03*
X200000Y481579D03*
X199572Y493152D03*
X207728Y483934D03*
X214200Y499300D03*
X235700Y529200D03*
X239200D03*
X326600Y227900D03*
X330100D03*
Y224400D03*
X326600D03*
X439608Y323200D03*
X434900Y382438D03*
X437049Y319500D03*
X446675Y318500D03*
X327988Y387790D03*
X353600Y337200D03*
X387900Y344900D03*
X392700Y346000D03*
X397200Y350559D03*
X350390Y355760D03*
X443900Y390958D03*
X448400D03*
X439400D03*
X434900D03*
X432842Y359930D03*
X439400Y382449D03*
X381293Y338800D03*
X351140Y352500D03*
X344480Y408510D03*
X433000Y431100D03*
X436500D03*
X429500Y434600D03*
X436500D03*
X433000D03*
X442400Y443442D03*
X446900D03*
X324980Y430810D03*
X336580Y462603D03*
X346329Y448499D03*
X438500Y452000D03*
X374993Y494800D03*
X329439Y461754D03*
X390504Y495096D03*
X517300Y192300D03*
X524300Y188800D03*
X520800D03*
X517300D03*
X501900Y190800D03*
X505400D03*
X524300Y192300D03*
X520800D03*
X449845Y319000D03*
X525768Y332068D03*
X486738Y329043D03*
X479900Y403100D03*
X517400Y323100D03*
X461150Y368450D03*
X465300Y334700D03*
X452900Y390958D03*
X537400Y325000D03*
X540900Y328500D03*
X537400D03*
X561000Y357000D03*
X541400Y342700D03*
Y339200D03*
X520726Y314296D03*
X478050Y329600D03*
X476400Y399600D03*
X479900D03*
X458100Y368400D03*
X453713Y368415D03*
Y376915D03*
X468800Y334700D03*
X462000D03*
X458500D03*
X486726Y317150D03*
X486740Y341105D03*
X470800Y348900D03*
X474300D03*
X474000Y345400D03*
X470800D03*
X454167Y306900D03*
X458167Y323833D03*
X467800Y351700D03*
X486734Y325450D03*
X456971Y390942D03*
X540900Y318000D03*
X537400D03*
Y321500D03*
X540900D03*
Y325000D03*
X570110Y379332D03*
X567669Y383695D03*
X541400Y346200D03*
X517450Y345750D03*
X560300Y505700D03*
X476400Y403100D03*
X551539Y519461D03*
X472482Y422209D03*
X451400Y443442D03*
X455512Y443441D03*
X461613Y412064D03*
X461313Y506413D03*
X501280Y471078D03*
X503780Y449900D03*
X505661Y477755D03*
X471145Y441255D03*
X473650Y453000D03*
X471845Y481155D03*
X472032Y492632D03*
X474255Y456872D03*
X473800Y470750D03*
X556800Y509200D03*
X560300D03*
X556800Y505700D03*
X483200Y407500D03*
X568300Y502900D03*
X565346Y501220D03*
X568300Y499800D03*
Y496300D03*
X483100Y418100D03*
X537988Y508830D03*
X544030Y506330D03*
X460704Y443441D03*
X461701Y422982D03*
X485500Y507900D03*
X500737Y463237D03*
X461372Y500513D03*
X464972Y477481D03*
X465159Y489450D03*
X474596Y465787D03*
Y460687D03*
X467208Y440517D03*
X464000Y449550D03*
X501000Y458500D03*
X568380Y433480D03*
X573181Y499449D03*
X510422Y480713D03*
Y485813D03*
X484236Y483263D03*
X511738Y456850D03*
X511582Y448191D03*
X484263Y443363D03*
X496319Y489900D03*
X505050Y442650D03*
X515600Y543700D03*
Y547200D03*
X468300Y530500D03*
Y534000D03*
X471800Y530500D03*
Y534000D03*
X672113Y114843D03*
X629850Y133350D03*
X641800Y114559D03*
X630934Y87134D03*
X640040Y91381D03*
X641900Y133200D03*
Y129700D03*
Y126200D03*
Y122700D03*
X625131Y130209D03*
X653000Y84400D03*
X658795Y83800D03*
X663903Y84425D03*
X672113Y102281D03*
X655900Y131200D03*
X652400D03*
X652981Y93987D03*
X661800Y112000D03*
X636700Y162500D03*
X640700Y166500D03*
X636700D03*
X631500Y213200D03*
X652600Y213000D03*
X656600D03*
X660600D03*
X664600D03*
X660600Y220000D03*
Y216500D03*
X664600Y220000D03*
Y216500D03*
X640700Y162500D03*
X602400Y167200D03*
Y175200D03*
Y171200D03*
X606400Y167200D03*
Y175200D03*
Y171200D03*
X628000Y209700D03*
Y206200D03*
Y202700D03*
X624500D03*
X628000Y213200D03*
X624500D03*
X672300Y388800D03*
X637074Y350450D03*
X670290Y386500D03*
X632743Y341828D03*
X667700Y390400D03*
X619581Y383281D03*
X625350D03*
X637074Y341828D03*
X643450Y383281D03*
X631250D03*
X576600Y397500D03*
Y394000D03*
X596642Y523200D03*
Y503000D03*
Y515200D03*
X596900Y507000D03*
X654100Y432100D03*
X584204Y413800D03*
X596900Y511100D03*
X602700Y516641D03*
X600822Y526953D03*
X589716Y486984D03*
X595228Y499449D03*
X661613Y454800D03*
X664978Y410378D03*
X650600Y432100D03*
Y435600D03*
Y439100D03*
X654100D03*
Y435600D03*
X665250Y446650D03*
X596642Y531400D03*
X113345Y377000D03*
X175400Y472700D03*
X183948Y506013D03*
X116520Y511523D03*
X308992Y400367D03*
X309665Y396367D03*
X148400Y186500D03*
X152000Y189600D03*
X148500D03*
X151900Y186500D03*
X501900Y183800D03*
X505400D03*
Y187300D03*
X501900D03*
X606400Y183200D03*
Y179200D03*
X602400D03*
Y183200D03*
X652600Y220000D03*
X656600D03*
Y216500D03*
X652600D03*
X597181Y543222D03*
X596574Y539252D03*
X583600Y394000D03*
X580100D03*
Y397500D03*
X492500Y507900D03*
Y504400D03*
X489000Y507900D03*
X223800Y462900D03*
X227200Y462700D03*
X220300Y462900D03*
X120500Y545190D03*
G54D32*
X359842Y-24040D03*
X350000D03*
X340158D03*
G54D25*
X150864Y469640D03*
X183953Y465828D03*
X331900Y358390D03*
X23700Y388100D03*
X204500Y385000D03*
X209000D03*
Y405000D03*
Y410000D03*
X204500Y380000D03*
X209000D03*
X209500Y375000D03*
X204500D03*
X272997Y438169D03*
X23389Y163117D03*
X23242Y158483D03*
X42200Y318900D03*
X51685Y395700D03*
X56900Y311100D03*
X64400Y311000D03*
X30500Y389000D03*
X31500Y329400D03*
X179300Y202500D03*
X74700Y314100D03*
X118970Y355950D03*
X93500Y311500D03*
X119100Y350000D03*
X149400Y516000D03*
X135700Y482556D03*
X150864Y482572D03*
X146200Y482556D03*
X130400D03*
X140424Y482566D03*
X125200Y482572D03*
X146200Y469670D03*
X140900Y469480D03*
X135700Y469330D03*
X130400Y469580D03*
X116100Y467941D03*
X99344Y547400D03*
X291200Y199800D03*
X254300Y312500D03*
X305458Y350092D03*
X232000Y388000D03*
X227500D03*
X302620Y375830D03*
X307510Y388010D03*
X209000Y400000D03*
X319000Y459900D03*
X272900Y419299D03*
X224640Y424700D03*
X302900Y455500D03*
X202600Y461700D03*
X270188Y444812D03*
X271600Y425700D03*
X365300Y163117D03*
Y158483D03*
X333800Y190298D03*
X363950Y337310D03*
X348061Y341420D03*
X448800Y311100D03*
X434470Y452580D03*
X393490Y462080D03*
X384445Y462890D03*
X376400Y462790D03*
X528600Y193400D03*
X533000Y201900D03*
X466500Y341158D03*
X476500Y390300D03*
X525937Y319175D03*
X546940Y526370D03*
Y521570D03*
Y516906D03*
X529076Y526469D03*
X539916Y428440D03*
X546940Y531070D03*
Y535870D03*
X529076Y530937D03*
X609900Y313700D03*
X668300Y331000D03*
X667885Y345450D03*
X672950Y345391D03*
X675500Y331700D03*
X637074Y359072D03*
X624600Y312200D03*
X663600Y382100D03*
X602700Y457763D03*
X584850Y444050D03*
X232000Y378000D03*
X227500D03*
X232000Y383000D03*
X227500D03*
X232000Y398000D03*
X227500Y403000D03*
X232000D03*
X227500Y398000D03*
X232000Y393000D03*
X227500D03*
X534619Y546780D03*
X539089Y540570D03*
G54D28*
X155200Y425344D03*
X135200D03*
G54D29*
X237000Y140000D03*
X217000D03*
X237000Y120000D03*
X217000D03*
X575000Y140000D03*
X555000D03*
X575000Y120000D03*
X555000D03*
%LPD*%
G75*
G36*
G01X145175Y358824D02*
X146026Y359675D01*
G03X148376Y365348I-5673J5673D01*
G01Y367500D01*
G03X146724Y370433I-3430J0D01*
G02X146606Y371008I207J342D01*
G03X147244Y373000I-2792J1993D01*
G01Y376324D01*
G03X144947Y381869I-7842J0D01*
G01X144164Y382652D01*
G02X144247Y383282I283J283D01*
G02X149804Y384766I5557J-9658D01*
G01X158268D01*
G03X160049Y385265I0J3430D01*
G03X163687I1819J2932D01*
G03X165468Y384766I1781J2932D01*
G01X173317D01*
G02X179401Y383204I0J-12627D01*
G02X179491Y382571I-193J-350D01*
G01X179135Y382214D01*
G03X176492Y375835I6379J-6380D01*
G01Y373300D01*
G03X178237Y370312I3430J0D01*
G02X178356Y369717I-196J-348D01*
G03X177624Y367600I2699J-2117D01*
G01Y365892D01*
G03X180359Y359290I9336J0D01*
G01X180802Y358847D01*
G02X180731Y358224I-283J-283D01*
G02X175845Y356830I-4885J7862D01*
G01X166600D01*
G03X164819Y356332I0J-3430D01*
G03X161181I-1819J-2932D01*
G03X159400Y356830I-1781J-2932D01*
G01X149962D01*
G02X145243Y358204I0J8791D01*
G02X145175Y358824I215J337D01*
G37*
G36*
G01X186100Y363251D02*
X185210Y364141D01*
G02X184485Y365892I1751J1750D01*
G01Y367600D01*
G03X182740Y370588I-3430J0D01*
G02X182621Y371183I196J348D01*
G03X183353Y373300I-2699J2117D01*
G01Y375835D01*
G02X183986Y377364I2162J0D01*
G01X184968Y378346D01*
X186216Y377098D01*
G02X186584Y376211I-887J-887D01*
G01Y373900D01*
G03X188666Y370746I3430J0D01*
G02X188784Y370088I-157J-368D01*
G03X187715Y367600I2362J-2488D01*
G01Y366084D01*
G02X186854Y364005I-2941J0D01*
G01X186100Y363251D01*
G37*
G36*
G01X139900D02*
X138761Y364390D01*
G02X138285Y365540I1151J1151D01*
G01Y368000D01*
G03X136383Y371071I-3430J0D01*
G02X136265Y371697I178J358D01*
G03X137153Y374000I-2542J2303D01*
G01Y376412D01*
G02X137378Y376955I768J0D01*
G01X138768Y378346D01*
X140096Y377018D01*
G02X140384Y376324I-694J-694D01*
G01Y373000D01*
G03X142035Y370067I3430J0D01*
G02X142153Y369493I-207J-342D01*
G03X141515Y367500I2792J-1993D01*
G01Y365348D01*
G02X141175Y364526I-1162J0D01*
G01X139900Y363251D01*
G37*
G36*
G01X514938Y383266D02*
G02X520060Y381842I0J-9921D01*
G02X520137Y381216I-206J-343D01*
G01X519635Y380714D01*
G03X516992Y374335I6379J-6380D01*
G01Y372200D01*
G03X519287Y368963I3430J0D01*
G02X519406Y368274I-132J-377D01*
G03X518124Y365600I2149J-2674D01*
G01Y363576D01*
G03X520282Y358368I7366J0D01*
G01X521293Y357357D01*
G02X521219Y356733I-283J-283D01*
G02X516265Y355330I-4954J8046D01*
G01X507100D01*
G03X505319Y354832I0J-3430D01*
G03X501681I-1819J-2932D01*
G03X499900Y355330I-1781J-2932D01*
G01X491119D01*
G02X485834Y356777I0J10378D01*
G02X485755Y357404I204J344D01*
G01X486390Y358039D01*
G03X488876Y364041I-6002J6002D01*
G01Y365700D01*
G03X486500Y368964I-3430J0D01*
G02X486382Y369664I123J381D01*
G03X487744Y372400I-2068J2736D01*
G01Y374631D01*
G03X485311Y380505I-8307J0D01*
G01X484615Y381201D01*
G02X484693Y381828I283J283D01*
G02X489920Y383266I5228J-8778D01*
G01X498768D01*
G03X500549Y383765I0J3430D01*
G03X504187I1819J2932D01*
G03X505968Y383266I1781J2932D01*
G01X514938D01*
G37*
G36*
G01X526600Y361751D02*
X525133Y363218D01*
G02X524985Y363576I357J357D01*
G01Y365600D01*
G03X522690Y368837I-3430J0D01*
G02X522571Y369526I132J377D01*
G03X523853Y372200I-2149J2674D01*
G01Y374335D01*
G02X524486Y375864I2162J0D01*
G01X525468Y376846D01*
X526411Y375903D01*
G02X527084Y374280I-1623J-1623D01*
G01Y372200D01*
G03X529379Y368963I3430J0D01*
G02X529497Y368274I-132J-377D01*
G03X528215Y365600I2149J-2674D01*
G01Y363656D01*
G02X528011Y363162I-699J0D01*
G01X526600Y361751D01*
G37*
G36*
G01X480400D02*
X479454Y362697D01*
G02X478785Y364312I1615J1615D01*
G01Y365800D01*
G03X476826Y368899I-3430J0D01*
G02X476708Y369536I172J361D01*
G03X477653Y371900I-2485J2364D01*
G01Y374720D01*
G02X478014Y375592I1233J0D01*
G01X479268Y376846D01*
X480460Y375654D01*
G02X480884Y374632I-1023J-1023D01*
G01Y372400D01*
G03X483259Y369136I3430J0D01*
G02X483377Y368436I-123J-381D01*
G03X482015Y365700I2068J-2736D01*
G01Y364040D01*
G02X481539Y362890I-1627J0D01*
G01X480400Y361751D01*
G37*
G54D10*
X21600Y21600D03*
Y476000D03*
X215000Y335000D03*
X350000Y21600D03*
Y260000D03*
X562500Y335000D03*
X678400Y21600D03*
Y476000D03*
G54D20*
G01X13400Y-196400D02*
X641300D01*
Y-176400D01*
G01X13400Y-136400D02*
X716000D01*
G01X13400Y-156400D02*
X716000D01*
G01X13400Y-176400D02*
X716000D01*
G01X641300Y-196400D02*
X716000D01*
Y-117200D01*
X13400D01*
Y-196400D01*
G01X641300Y-117200D02*
Y-136400D01*
G01Y-156400D02*
Y-136400D01*
G01Y-156400D02*
Y-176400D01*
G54D11*
X88900Y31100D03*
X73900D03*
Y41100D03*
X88900D03*
X53000Y5500D03*
X63000D03*
X73000D03*
X83000D03*
X93000D03*
X73900Y61100D03*
X88900Y51100D03*
X73900D03*
X5500Y161900D03*
Y151900D03*
Y141900D03*
Y131900D03*
Y121900D03*
Y111900D03*
Y101900D03*
Y91900D03*
Y81900D03*
Y71900D03*
Y61900D03*
Y51900D03*
X96300Y214000D03*
Y210000D03*
X92300D03*
X88300D03*
X5500Y261900D03*
Y251900D03*
Y241900D03*
Y231900D03*
Y221900D03*
Y211900D03*
Y201900D03*
Y191900D03*
Y181900D03*
Y171900D03*
Y291900D03*
Y281900D03*
Y271900D03*
X62500Y341000D03*
X65500Y344000D03*
X59500D03*
Y338000D03*
X65500D03*
X93098Y342500D03*
X89098Y346500D03*
X93098D03*
Y338500D03*
X5500Y421900D03*
Y411900D03*
Y401900D03*
Y391900D03*
Y381900D03*
Y371900D03*
Y361900D03*
Y351900D03*
Y341900D03*
Y331900D03*
Y321900D03*
Y311900D03*
Y301900D03*
X35900Y546700D03*
X20900D03*
X35900Y531700D03*
X20900D03*
X50000Y491800D03*
Y481800D03*
Y471800D03*
X70000Y531800D03*
Y541800D03*
X5500Y531900D03*
Y541900D03*
Y521900D03*
Y451900D03*
Y441900D03*
Y431900D03*
Y501900D03*
Y511900D03*
X70000Y551800D03*
Y561800D03*
X54700Y564500D03*
X94700D03*
X84700D03*
X74700D03*
X64700D03*
X44700D03*
X34700D03*
X24700D03*
X14700D03*
X5500Y551900D03*
Y561900D03*
X208900Y31100D03*
X193900D03*
X178900D03*
X163900D03*
X148900D03*
X133900D03*
X118900D03*
X103900D03*
X178900Y41100D03*
X193900D03*
X208900D03*
X103900D03*
X118900D03*
X133900D03*
X148900D03*
X163900D03*
X103000Y5500D03*
X113000D03*
X123000D03*
X133000D03*
X143000D03*
X153000D03*
X163000D03*
X173000D03*
X183000D03*
X193000D03*
X203000D03*
X213000D03*
X118900Y61100D03*
X133900D03*
X148900D03*
X193900D03*
X208900D03*
Y51100D03*
X193900D03*
X178900D03*
X163900D03*
X148900D03*
X133900D03*
X118900D03*
X103900D03*
X105700Y158500D03*
Y142500D03*
X109700Y146500D03*
Y150500D03*
Y154500D03*
X105700Y146500D03*
X101700D03*
Y150500D03*
X105700D03*
Y154500D03*
X101700D03*
X100300Y214000D03*
X213657Y175173D03*
X209657Y179173D03*
Y175173D03*
X205657Y179173D03*
Y175173D03*
X201657Y179173D03*
X199400Y212200D03*
Y216220D03*
X162468Y329100D03*
Y334100D03*
X101098Y342500D03*
X97098D03*
Y346500D03*
Y338500D03*
X114252Y381348D03*
X204700Y564500D03*
X194700D03*
X184700D03*
X174700D03*
X164700D03*
X154700D03*
X144700D03*
X134700D03*
X124700D03*
X114700D03*
X104700D03*
X307000Y42100D03*
X317000D03*
X327000D03*
X283900Y31100D03*
X268900D03*
X253900D03*
X238900D03*
X223900D03*
Y41100D03*
X238900D03*
X253900D03*
X268900D03*
X283900D03*
X223000Y5500D03*
X233000D03*
X243000D03*
X253000D03*
X263000D03*
X303000D03*
X293000D03*
X283000D03*
X273000D03*
X313000D03*
X323000D03*
X287000Y132100D03*
X297000Y162100D03*
Y102100D03*
Y87100D03*
Y147100D03*
Y132100D03*
Y117100D03*
X223900Y61100D03*
X238900D03*
X307000Y117100D03*
Y132100D03*
Y147100D03*
Y162100D03*
X317000D03*
Y147100D03*
Y132100D03*
Y117100D03*
X327000D03*
Y132100D03*
Y147100D03*
Y162100D03*
X307000Y57100D03*
Y87100D03*
Y102100D03*
X317000D03*
Y87100D03*
Y72100D03*
Y57100D03*
X327000D03*
Y72100D03*
Y87100D03*
Y102100D03*
X283900Y51100D03*
X268900D03*
X253900D03*
X238900D03*
X223900D03*
X317000Y172100D03*
X307000D03*
X297000D03*
X262000Y214000D03*
X258000Y210000D03*
X254000D03*
X250000D03*
X328280Y372030D03*
X341310Y364420D03*
X336920Y375040D03*
X328150Y410510D03*
X340550Y414070D03*
X337150D03*
X339930Y402990D03*
X336920D03*
X305010Y393800D03*
X325470Y407110D03*
X325450Y410350D03*
X328320Y406540D03*
X328390Y367760D03*
X342900Y336900D03*
X336660Y336550D03*
X329890D03*
X326700Y350990D03*
X275252Y363204D03*
Y381348D03*
X325580Y371910D03*
X287300Y354500D03*
Y362310D03*
Y374500D03*
Y384500D03*
Y394500D03*
Y404500D03*
Y414500D03*
X262098Y342500D03*
X246098D03*
X254098Y338500D03*
X250098D03*
X258098D03*
X254098Y346500D03*
X258098D03*
Y342500D03*
X250098D03*
X254098D03*
X346504Y335000D03*
X337500Y364550D03*
X339735Y374595D03*
X325520Y368840D03*
X240900Y546700D03*
X225900D03*
X240900Y531700D03*
X304804Y425596D03*
X332123Y464100D03*
X291300Y477500D03*
X301300D03*
X311300D03*
X321300D03*
X341300D03*
X331300D03*
X287300Y424500D03*
Y434500D03*
Y444500D03*
Y454500D03*
Y464500D03*
X327005Y464100D03*
X254700Y564500D03*
X244700D03*
X234700D03*
X224700D03*
X462900Y41100D03*
X447900D03*
X432900D03*
X417900D03*
X402900D03*
Y31100D03*
X417900D03*
X432900D03*
X447900D03*
X462900D03*
X463000Y5500D03*
X473000D03*
X373000D03*
X383000D03*
X393000D03*
X403000D03*
X413000D03*
X423000D03*
X433000D03*
X443000D03*
X453000D03*
X462900Y61100D03*
X447900D03*
X402900Y51100D03*
X417900D03*
X432900D03*
X447900D03*
X462900D03*
X350200Y165400D03*
Y155400D03*
Y145400D03*
Y135400D03*
Y125400D03*
Y115400D03*
Y105400D03*
Y95400D03*
Y85400D03*
Y75400D03*
Y65400D03*
X461600Y158500D03*
Y142500D03*
X465600Y146500D03*
Y150500D03*
Y154500D03*
X461600Y146500D03*
X457600D03*
Y150500D03*
X461600D03*
Y154500D03*
X457600D03*
X452200Y210000D03*
X448200D03*
Y214000D03*
X444200D03*
Y210000D03*
X440200Y214000D03*
X350200Y235400D03*
Y225400D03*
Y215400D03*
Y205400D03*
Y195400D03*
Y185400D03*
Y175400D03*
X401800Y339400D03*
Y346900D03*
Y376900D03*
Y369400D03*
Y361900D03*
Y354400D03*
Y421900D03*
Y414400D03*
Y406900D03*
Y399400D03*
Y391900D03*
Y384400D03*
X452998Y342500D03*
Y346500D03*
Y338500D03*
X456998Y342500D03*
X448998D03*
X444998D03*
Y346500D03*
X448998D03*
X444998Y338500D03*
X448998D03*
X440998Y342500D03*
X413100Y414800D03*
Y404800D03*
Y394800D03*
Y384800D03*
Y374800D03*
Y364800D03*
Y354800D03*
X449400Y416016D03*
X442640Y495490D03*
X473900Y546700D03*
X458900D03*
Y531700D03*
X401800Y429400D03*
Y436900D03*
X442500Y544800D03*
X413100Y464800D03*
Y454800D03*
Y444800D03*
Y434800D03*
Y424800D03*
X411300Y477500D03*
X401300D03*
X391300D03*
X381300D03*
X371300D03*
X361300D03*
X351300D03*
X401800Y444400D03*
X442500Y564800D03*
Y554800D03*
X474700Y564500D03*
X464700D03*
X454700D03*
X597900Y41100D03*
X582900D03*
X567900D03*
X552900D03*
X537900D03*
X522900D03*
X507900D03*
Y31100D03*
X522900D03*
X537900D03*
X552900D03*
X567900D03*
X582900D03*
X597900D03*
X492900Y41100D03*
X477900D03*
Y31100D03*
X492900D03*
X593000Y5500D03*
X583000D03*
X483000D03*
X493000D03*
X503000D03*
X513000D03*
X523000D03*
X533000D03*
X543000D03*
X553000D03*
X573000D03*
X563000D03*
X582900Y61100D03*
X567900D03*
X552900D03*
X537900D03*
X522900D03*
X477900D03*
X507900Y51100D03*
X522900D03*
X537900D03*
X552900D03*
X567900D03*
X582900D03*
X597900D03*
X477900D03*
X492900D03*
X599400Y214000D03*
X551600Y216220D03*
X555157Y179250D03*
X559157Y175250D03*
Y179250D03*
X563157Y175250D03*
Y179250D03*
X567157Y175250D03*
X551600Y212200D03*
X502368Y397500D03*
X507969Y332600D03*
X521550Y442907D03*
X560333Y502024D03*
X490000Y548900D03*
Y558900D03*
X594700Y564500D03*
X584700D03*
X574700D03*
X564700D03*
X554700D03*
X544700D03*
X534700D03*
X524700D03*
X514700D03*
X504700D03*
X494700D03*
X627900Y41100D03*
Y31100D03*
X612900Y41100D03*
Y31100D03*
X643000Y5500D03*
X653000D03*
X633000D03*
X623000D03*
X613000D03*
X603000D03*
X654030Y113080D03*
X670000Y74500D03*
X640000D03*
X660000D03*
X650000D03*
Y64500D03*
X660000D03*
X640000D03*
X670000D03*
Y54500D03*
X640000D03*
X660000D03*
X650000D03*
X612900Y51100D03*
X651100Y111500D03*
X694500Y136900D03*
Y146900D03*
Y156900D03*
Y166900D03*
Y126900D03*
Y66900D03*
Y76900D03*
Y86900D03*
Y96900D03*
Y106900D03*
Y116900D03*
Y46900D03*
Y56900D03*
X607400Y214000D03*
X603400D03*
Y210000D03*
X694500Y246900D03*
Y256900D03*
Y266900D03*
Y206900D03*
Y216900D03*
Y226900D03*
Y236900D03*
Y176900D03*
Y186900D03*
Y196900D03*
Y276900D03*
Y286900D03*
Y296900D03*
X643600Y196702D03*
X694500Y306900D03*
Y316900D03*
Y326900D03*
Y336900D03*
Y346900D03*
Y356900D03*
Y366900D03*
Y376900D03*
Y386900D03*
X628652Y380000D03*
X634000Y372276D03*
X694500Y416900D03*
Y406900D03*
Y396900D03*
X663900Y531700D03*
X678900D03*
X663900Y546700D03*
X678900D03*
X694500Y456900D03*
Y426900D03*
Y436900D03*
Y546900D03*
Y536900D03*
Y526900D03*
Y516900D03*
Y506900D03*
Y496900D03*
Y446900D03*
X694700Y564500D03*
X684700D03*
X674700D03*
X664700D03*
X654700D03*
X644700D03*
X634700D03*
X624700D03*
X614700D03*
X604700D03*
X694500Y556900D03*
G54D21*
G01X213170Y116170D02*
X217000Y120000D01*
G01D02*
X220830Y123830D01*
G01X213170D02*
X217000Y120000D01*
G01D02*
X220830Y116170D01*
G01X213170Y136170D02*
X217000Y140000D01*
G01D02*
X220830Y143830D01*
G01X213170D02*
X217000Y140000D01*
G01D02*
X220830Y136170D01*
G01X233170Y116170D02*
X237000Y120000D01*
G01D02*
X240830Y123830D01*
G01X233170D02*
X237000Y120000D01*
G01D02*
X240830Y116170D01*
G01X233170Y136170D02*
X237000Y140000D01*
G01D02*
X240830Y143830D01*
G01X233170D02*
X237000Y140000D01*
G01D02*
X240830Y136170D01*
G01X551170Y116170D02*
X555000Y120000D01*
G01D02*
X558830Y123830D01*
G01X551170D02*
X555000Y120000D01*
G01D02*
X558830Y116170D01*
G01X571170D02*
X575000Y120000D01*
G01D02*
X578830Y123830D01*
G01X571170D02*
X575000Y120000D01*
G01D02*
X578830Y116170D01*
G01X551170Y136170D02*
X555000Y140000D01*
G01D02*
X558830Y143830D01*
G01X551170D02*
X555000Y140000D01*
G01D02*
X558830Y136170D01*
G01X571170D02*
X575000Y140000D01*
G01D02*
X578830Y143830D01*
G01X571170D02*
X575000Y140000D01*
G01D02*
X578830Y136170D01*
G54D12*
X62900Y169100D03*
X77900D03*
X92900D03*
X32900D03*
X47900D03*
X62900Y129100D03*
X77900D03*
X92900D03*
Y159100D03*
Y139100D03*
Y149100D03*
X77900Y159100D03*
Y149100D03*
Y139100D03*
X62900Y159100D03*
Y139100D03*
Y149100D03*
X47900Y159100D03*
Y149100D03*
Y139100D03*
X32900Y159100D03*
Y149100D03*
Y139100D03*
Y129100D03*
X83486Y108182D03*
X84631Y113358D03*
X88112Y74886D03*
X88020Y69206D03*
X88157Y63664D03*
X91043Y57390D03*
X56693Y124121D03*
X56922Y129525D03*
X55135Y135342D03*
X48174Y135205D03*
X42265Y133373D03*
X42311Y127006D03*
X93953Y80151D03*
X95092Y86042D03*
X78268Y107200D03*
X72268D03*
X66268D03*
X60268D03*
X54292Y107735D03*
X49100Y110742D03*
X45911Y115824D03*
X45166Y121129D03*
X54105Y121265D03*
X56550Y116041D03*
X62545Y115800D03*
X68545D03*
X74545D03*
X80545D03*
X32246Y348392D03*
X32202Y340592D03*
X76408Y373658D03*
X72208D03*
X48700Y365412D03*
X73000Y335200D03*
X54200Y361842D03*
X61122Y376778D03*
X32202Y333000D03*
X86698Y335434D03*
X86656Y328434D03*
X67800Y311468D03*
X60800Y311618D03*
X53300Y311599D03*
X73053Y338047D03*
X53793Y406100D03*
X47258Y464500D03*
Y460500D03*
Y456500D03*
Y452500D03*
Y448500D03*
X89758Y466000D03*
X57068Y436698D03*
X61368D03*
X66468D03*
X85784Y512816D03*
X83225Y523725D03*
Y501675D03*
X107900Y169100D03*
X167900D03*
X182900D03*
X122900D03*
X137900D03*
X152900D03*
X137900Y129100D03*
X152900D03*
X182900Y159100D03*
Y139100D03*
Y149100D03*
X167900Y159100D03*
Y139100D03*
Y149100D03*
X152900Y159100D03*
Y139100D03*
Y149100D03*
X137900Y159100D03*
Y139100D03*
Y149100D03*
X122900Y159100D03*
Y149100D03*
Y139100D03*
X198765Y93481D03*
X204536Y93252D03*
X210444D03*
X216581Y93389D03*
X219925Y102183D03*
X214017Y102228D03*
X208841Y102274D03*
X198536Y109098D03*
X202567Y107587D03*
X203803Y102503D03*
X179570Y86500D03*
X170140Y86570D03*
X170232Y82122D03*
X179529Y82305D03*
X179621Y76580D03*
X169774D03*
X164781Y73374D03*
X164736Y68016D03*
X164781Y62520D03*
X184842Y74061D03*
X184979Y68153D03*
X185071Y61924D03*
X167987Y57253D03*
X181315Y57390D03*
X174445Y57436D03*
X108172Y72916D03*
X108310Y66733D03*
X108264Y61374D03*
X104829Y57207D03*
X97775Y57252D03*
X177331Y112579D03*
X181911Y118533D03*
X172567Y118945D03*
X169774Y129983D03*
X170003Y124029D03*
X184567Y124075D03*
X184521Y130396D03*
X180903Y135296D03*
X173300Y135434D03*
X120905Y132411D03*
Y126960D03*
X117973Y121235D03*
X116233Y115968D03*
X110233D03*
X108630Y121235D03*
X105974Y126777D03*
X106065Y131541D03*
X117653Y135434D03*
X109821Y135342D03*
X216432Y82531D03*
X210432D03*
X204432D03*
X198432D03*
X192432D03*
X187093Y85270D03*
X186800Y91263D03*
X195668Y91131D03*
X201668D03*
X207668D03*
X213668D03*
X219668D03*
X97804Y91394D03*
X101868Y95808D03*
X106861Y99136D03*
X112478Y101244D03*
X118427Y102024D03*
X124427Y102027D03*
X130427D03*
X136427D03*
X142427D03*
X148427D03*
X154427D03*
X160427D03*
X166427D03*
X172427D03*
X178427D03*
X184427D03*
X190427D03*
X190881Y93427D03*
X184881D03*
X178881D03*
X172881D03*
X166881D03*
X160881D03*
X154881D03*
X148881D03*
X142881D03*
X136881D03*
X130881D03*
X124881D03*
X118881D03*
X112966Y92421D03*
X107728Y89495D03*
X103905Y84870D03*
X102524Y79031D03*
X194357Y102006D03*
X192746Y107255D03*
X191300Y113079D03*
Y119079D03*
X191229Y124095D03*
X191300Y131078D03*
Y137078D03*
Y143079D03*
Y149078D03*
Y155078D03*
Y161078D03*
Y167079D03*
X196500Y165947D03*
Y159947D03*
Y153947D03*
Y147947D03*
Y141947D03*
Y135947D03*
Y129947D03*
Y123947D03*
Y117947D03*
Y111947D03*
X199912Y220383D03*
X165188Y296659D03*
Y290659D03*
Y284659D03*
Y278659D03*
Y272659D03*
Y266659D03*
X199956Y182310D03*
X202475Y190829D03*
X199498Y208668D03*
X169407Y209080D03*
X218351Y208762D03*
X211402Y208905D03*
X186720Y217880D03*
X180458Y217795D03*
X178742Y208616D03*
X165188Y212659D03*
Y218659D03*
Y224659D03*
Y230659D03*
Y236659D03*
Y242659D03*
Y248659D03*
Y254659D03*
Y260659D03*
X174149Y218694D03*
Y224694D03*
Y230694D03*
Y236694D03*
Y242694D03*
Y248694D03*
Y254694D03*
Y260694D03*
Y266694D03*
Y272694D03*
Y278694D03*
Y284694D03*
Y290694D03*
Y296694D03*
X191300Y173078D03*
X191806Y179057D03*
X194540Y184398D03*
X197619Y189746D03*
X204654Y187001D03*
X196893Y177934D03*
X196500Y171947D03*
X195942Y193108D03*
X205200Y208800D03*
X209400Y228428D03*
X221143Y218186D03*
X173400Y207173D03*
X196005Y203281D03*
X198500Y198400D03*
X193200Y218500D03*
X193900Y208800D03*
X204100Y219800D03*
X148400Y377190D03*
X149490Y363660D03*
X146870Y358830D03*
X152300Y358280D03*
X158770Y358230D03*
X165780Y358090D03*
X172590Y358190D03*
X179010Y358830D03*
X176640Y364750D03*
X175350Y376890D03*
X177620Y382720D03*
X169230Y383510D03*
X161930D03*
X154080Y383710D03*
X145780Y382720D03*
X143930Y350240D03*
X138530Y353640D03*
X133840Y358040D03*
X130480Y363710D03*
X129470Y373050D03*
X130040Y380200D03*
X134180Y384940D03*
X138580Y389230D03*
X144060Y392050D03*
X151120Y392940D03*
X173430Y392890D03*
X180540Y391600D03*
X186460Y388200D03*
X191740Y383060D03*
X194260Y377140D03*
X173230Y348900D03*
X179550Y349350D03*
X190410Y356560D03*
X185370Y351970D03*
X195440Y366180D03*
X138800Y376800D03*
X139300Y373100D03*
X139800Y365600D03*
X185000Y376700D03*
X185500Y373100D03*
X186000Y368700D03*
X186100Y364900D03*
X149500Y372383D03*
X195400Y372400D03*
X176000Y370400D03*
X165188Y302659D03*
X157362Y392465D03*
X157499Y396175D03*
X157453Y400846D03*
X160479Y405479D03*
X165606Y403045D03*
X166339Y397503D03*
X166980Y392648D03*
X158278Y349000D03*
X158369Y344924D03*
X167484Y348313D03*
X158140Y338650D03*
X155209Y320146D03*
X158644Y325001D03*
X174149Y302694D03*
X173749Y306826D03*
X163101Y306612D03*
X160327Y309958D03*
X168048Y314333D03*
X137550Y327950D03*
X190742Y318708D03*
X131667Y318763D03*
X121942Y321109D03*
X126242D03*
X118090Y315010D03*
X167468Y329100D03*
Y334100D03*
X164968Y331600D03*
X175000Y337000D03*
X146232Y335250D03*
X185119Y329632D03*
X175500Y310758D03*
X171568D03*
X157432D03*
X146226Y323300D03*
X104327Y368451D03*
X109445Y377208D03*
X146246Y340000D03*
X137550D03*
X192500Y322300D03*
Y325900D03*
X166937Y321000D03*
X167868Y343000D03*
X113345Y368417D03*
X96549Y357800D03*
X154700Y331600D03*
X138786Y370414D03*
X98242Y458000D03*
X116875Y481258D03*
X112875D03*
X185353Y511250D03*
X185258Y513625D03*
X178824Y516300D03*
X205675Y543275D03*
X216816Y540716D03*
X162000Y519631D03*
X152342Y516642D03*
X143200Y489561D03*
X124600Y544642D03*
X132800D03*
X140900D03*
X178000Y466258D03*
X187949Y466428D03*
X199572Y497048D03*
X199413Y477775D03*
X162087Y480152D03*
X187852Y505572D03*
X174243D03*
X213805Y459600D03*
X150805Y459500D03*
X198502Y460300D03*
X126059Y531963D03*
X120520Y510919D03*
X108095Y533243D03*
X112095D03*
X161000Y451660D03*
X222810Y93160D03*
X228306D03*
X234352Y93343D03*
X240627D03*
X248275Y94763D03*
X231146Y102320D03*
X275664Y160441D03*
X270901Y160990D03*
X289450Y75847D03*
X274198Y73328D03*
X274427Y69069D03*
X274336Y63161D03*
X294350Y73008D03*
X294396Y66733D03*
X294442Y61466D03*
X277725Y57619D03*
X291007Y57482D03*
X284183Y57665D03*
X273923Y85969D03*
X271940Y95500D03*
X266873Y157201D03*
X262526Y152969D03*
X259438Y149080D03*
X277053Y156858D03*
X273793Y151883D03*
X269046Y147250D03*
X266244Y141817D03*
X257722Y101394D03*
X263521Y110372D03*
X265417Y117454D03*
X266092Y123838D03*
X266093Y129838D03*
Y135838D03*
X224802Y102142D03*
X225132Y107881D03*
X230131Y111200D03*
X236131D03*
X242041Y112232D03*
X245728Y116965D03*
X247346Y122743D03*
X247400Y128743D03*
Y134743D03*
Y140743D03*
Y146743D03*
Y152743D03*
Y158743D03*
Y164743D03*
Y170743D03*
X256000Y165838D03*
Y159838D03*
Y153838D03*
Y147838D03*
Y141838D03*
Y135838D03*
Y129838D03*
X255999Y123838D03*
X255211Y117890D03*
X252999Y112313D03*
X249496Y107441D03*
X244675Y103870D03*
X238811Y102600D03*
X280031Y75760D03*
X280184Y81546D03*
X279980Y86750D03*
X277376Y92959D03*
X265940Y95492D03*
X259940D03*
X253940D03*
X263596Y104092D03*
X269596Y104100D03*
X275586Y103758D03*
X281050Y101280D03*
X285160Y96908D03*
X287798Y91519D03*
X288780Y85600D03*
X288784Y79600D03*
X270432Y82531D03*
X264432D03*
X258432D03*
X252432D03*
X246432D03*
X240432D03*
X234432D03*
X228432D03*
X222432D03*
X225668Y91131D03*
X231668D03*
X237668D03*
X243668D03*
X249668D03*
X255668D03*
X261668D03*
X267668D03*
X273668D03*
X231586Y217594D03*
X231872Y208730D03*
X225352Y208844D03*
X247400Y176743D03*
Y182743D03*
Y188743D03*
Y194743D03*
X245488Y200430D03*
X241246Y204673D03*
X237038Y208072D03*
X237905Y217516D03*
X243264Y214817D03*
X247507Y210574D03*
X251749Y206332D03*
X254961Y201578D03*
X256000Y195838D03*
Y189838D03*
Y183838D03*
Y177838D03*
Y171838D03*
X291408Y206400D03*
X230800Y225986D03*
X294658Y188500D03*
Y200550D03*
X294569Y196650D03*
X331142Y203880D03*
Y199650D03*
Y195750D03*
Y191591D03*
X322658Y179580D03*
X223900Y219258D03*
X303700Y188800D03*
X252100Y394800D03*
X251743Y410281D03*
X266592Y410290D03*
X251743Y421108D03*
X266592Y421117D03*
X324680Y387640D03*
X309676Y405344D03*
X301830Y416109D03*
X245558Y317657D03*
X249758D03*
X262658D03*
X245742Y367642D03*
X254042D03*
X260867Y327067D03*
X331911Y387790D03*
X266592Y439917D03*
Y429090D03*
X251743Y429081D03*
Y439908D03*
X342580Y495299D03*
X316778Y430880D03*
X320778Y430884D03*
X235350Y451050D03*
X237243Y518405D03*
Y514405D03*
X227725Y543275D03*
X261502Y460300D03*
X448900Y159100D03*
Y139100D03*
Y149100D03*
X463900Y139100D03*
Y169100D03*
X448900D03*
X433900Y129100D03*
X418900D03*
X403900D03*
Y159100D03*
X418900D03*
X433900D03*
Y169100D03*
X418900D03*
X403900D03*
Y149100D03*
Y139100D03*
X418900D03*
Y149100D03*
X433900D03*
Y139100D03*
X388900Y159100D03*
Y169100D03*
Y139100D03*
Y149100D03*
X373900Y159100D03*
Y169100D03*
Y149100D03*
Y139100D03*
Y129100D03*
X446918Y126963D03*
X447038Y132467D03*
X451659Y135280D03*
X458047Y135320D03*
X461905Y132949D03*
X461744Y128007D03*
X459052Y121699D03*
X461583Y124150D03*
X420399Y77461D03*
X417225Y70832D03*
X416984Y65327D03*
X417104Y60104D03*
X424136Y57372D03*
X431368D03*
X437355Y59742D03*
X437194Y66452D03*
X437154Y73082D03*
X431530Y77720D03*
X411047Y111461D03*
X407149Y107001D03*
X397828Y124238D03*
X397989Y130546D03*
X395337Y135488D03*
X387703Y135207D03*
X383283Y132957D03*
X383443Y126930D03*
X470286Y105525D03*
X464468Y106992D03*
X458486Y107456D03*
X453393Y110628D03*
X450350Y115799D03*
X450200Y121797D03*
X458856Y117327D03*
X464600Y115592D03*
X470600D03*
X423064Y81290D03*
X424928Y86993D03*
X428708Y91653D03*
X433577Y95158D03*
X439097Y97512D03*
X444997Y98598D03*
X450997Y98668D03*
X456997D03*
X462997D03*
X468997D03*
X474387Y90068D03*
X468387D03*
X462387D03*
X456387D03*
X450387D03*
X444389Y89892D03*
X436910Y87030D03*
X433785Y84618D03*
X401529Y107100D03*
X395563Y107737D03*
X390415Y110820D03*
X387147Y115852D03*
X386342Y121797D03*
X395337Y118520D03*
X400633Y115700D03*
X406633D03*
X474100Y357000D03*
X471700Y360600D03*
X469800Y365900D03*
Y370900D03*
Y375300D03*
X471200Y379500D03*
X381300Y343000D03*
X351000Y360650D03*
X465496Y418350D03*
Y414202D03*
X472667Y318263D03*
X458167Y315020D03*
X462742Y321158D03*
X467042D03*
X452900Y382458D03*
X448400D03*
X443900D03*
X449713Y376915D03*
Y368415D03*
X444694D03*
X437049Y357951D03*
X459433Y400981D03*
X364320Y495301D03*
X473819Y443657D03*
X474519Y483557D03*
X472258Y537795D03*
Y541795D03*
X437900Y443442D03*
X442400Y451942D03*
X446900D03*
X451400D03*
X455900D03*
X472110Y495520D03*
X523900Y159100D03*
Y149100D03*
Y139100D03*
X493900Y129100D03*
X478900D03*
X508900Y159100D03*
Y149100D03*
Y139100D03*
X478900Y159100D03*
X493900D03*
X478900Y149100D03*
Y139100D03*
X493900Y149100D03*
Y139100D03*
X523900Y169100D03*
X508900D03*
X493900D03*
X478900D03*
X580997Y100444D03*
X475144Y110951D03*
X552550Y104824D03*
X592649Y111132D03*
X597310Y97350D03*
X596587Y93533D03*
X596025Y85658D03*
X593654Y82002D03*
X510844Y127686D03*
X510964Y133070D03*
X515504Y135360D03*
X522014Y135320D03*
X525750Y132548D03*
X525710Y126842D03*
X523139Y121659D03*
X507629Y57412D03*
X499674Y57251D03*
X493566Y59099D03*
X493888Y66251D03*
X513978Y59823D03*
X513737Y66573D03*
X513817Y73001D03*
X493968Y73644D03*
X499437Y76882D03*
X499698Y82975D03*
X504259Y86201D03*
X508463Y82030D03*
X508300Y76979D03*
X523300Y81531D03*
X529300D03*
X535300D03*
X541300D03*
X547300D03*
X553300D03*
X559300D03*
X565300D03*
X571300D03*
X577300D03*
X583300D03*
X588459Y81541D03*
X599542Y90412D03*
X593542D03*
X587546Y90078D03*
X559370Y98730D03*
X529930Y99248D03*
X524359Y101476D03*
X519645Y105187D03*
X516200Y110099D03*
X514340Y115804D03*
X514058Y121797D03*
X522825Y117205D03*
X525317Y111747D03*
X530150Y108191D03*
X536077Y107261D03*
X542077D03*
X548077D03*
X474997Y98668D03*
X480997D03*
X486997D03*
X492997D03*
X498997D03*
X504997D03*
X510997D03*
X516997D03*
X522997D03*
X534957Y98637D03*
X540957D03*
X546957D03*
X552997Y98668D03*
X564997D03*
X570997D03*
X576997D03*
X582387Y90068D03*
X576387D03*
X570387D03*
X564387D03*
X558387D03*
X552387D03*
X546387D03*
X540387D03*
X534387D03*
X528387D03*
X522387D03*
X516387D03*
X510387D03*
X504387D03*
X498387D03*
X493000Y90000D03*
X486387Y90068D03*
X480387D03*
X597012Y166562D03*
X589931Y102649D03*
X594390Y107231D03*
X597108Y112521D03*
Y118521D03*
X588142Y106454D03*
Y112454D03*
X582884Y105061D03*
Y111061D03*
X588142Y118454D03*
X597108Y142521D03*
Y148521D03*
Y154521D03*
X597012Y160562D03*
X597108Y124521D03*
Y130521D03*
Y136521D03*
X585910Y166159D03*
X587721Y160439D03*
X588142Y154454D03*
Y148454D03*
Y142454D03*
Y136454D03*
Y130454D03*
Y124454D03*
X582884Y117061D03*
X582942Y122819D03*
Y128820D03*
Y134820D03*
Y140820D03*
Y146820D03*
Y152820D03*
X582723Y158816D03*
X580924Y164540D03*
X577472Y169447D03*
X548100Y220100D03*
X552500Y219900D03*
X521169Y295010D03*
Y289010D03*
Y283010D03*
Y277010D03*
Y271010D03*
X558657Y189482D03*
X553113Y190728D03*
X550139Y185946D03*
X553595Y182652D03*
X588142Y202454D03*
Y196454D03*
Y190454D03*
Y184454D03*
Y178454D03*
Y172454D03*
X597012Y196562D03*
Y190562D03*
Y184562D03*
Y178562D03*
Y172562D03*
X596953Y199560D03*
X597003Y206001D03*
X596458Y211103D03*
X593139Y216008D03*
X587541Y217741D03*
X580259Y217692D03*
X586847Y208428D03*
X580333Y208315D03*
X574512Y208676D03*
X568518Y208775D03*
X562870Y208725D03*
X551080Y208238D03*
X530482Y208932D03*
X521169Y265010D03*
X536502Y217698D03*
X542764Y217783D03*
X521232Y260562D03*
Y254562D03*
Y248562D03*
Y242562D03*
Y236562D03*
Y230562D03*
Y224562D03*
X519534Y218666D03*
X519880Y212077D03*
X530193Y272597D03*
Y266597D03*
Y260597D03*
Y254597D03*
Y248597D03*
Y242597D03*
Y236597D03*
Y230597D03*
Y224597D03*
Y218597D03*
Y296597D03*
Y290597D03*
Y284597D03*
Y278597D03*
X565426Y187798D03*
X570162Y184115D03*
X574405Y179872D03*
X578647Y175629D03*
X582775Y171275D03*
X573231Y173692D03*
X568989Y177934D03*
X564702Y182132D03*
X559034Y184100D03*
X545600Y208399D03*
X558000Y208700D03*
X556300Y219800D03*
X545300Y217900D03*
X547842Y192808D03*
X550200Y198400D03*
X582500Y225986D03*
X572842Y218186D03*
X575600Y219258D03*
X561100Y228428D03*
X547642Y203900D03*
X524186Y207222D03*
X509970Y391050D03*
X519100Y390800D03*
X526200Y387300D03*
X529610Y383710D03*
X532700Y380430D03*
X533600Y357800D03*
X528900Y353100D03*
X521600Y348400D03*
X515110Y347530D03*
X489900Y362100D03*
X489700Y366900D03*
X488500Y376500D03*
X485900Y381300D03*
X492000Y382200D03*
X498100D03*
X505300D03*
X512100D03*
X518600Y381400D03*
X516100Y375600D03*
X517300Y361800D03*
X519500Y357100D03*
X512600Y356400D03*
X506700Y356300D03*
X499600D03*
X493100D03*
X487400Y357400D03*
X491600Y347600D03*
X483900Y349100D03*
X479600Y351800D03*
X475000Y383400D03*
X478200Y386900D03*
X482500Y389500D03*
X487700Y391000D03*
X479300Y374700D03*
X480200Y367700D03*
X480400Y363600D03*
X525800Y371500D03*
X526300Y367600D03*
X526600Y363500D03*
X535500Y370900D03*
X516900Y368900D03*
X489000Y370900D03*
X507010Y304080D03*
X512500Y304140D03*
X517930Y304000D03*
X521169Y301010D03*
X533580Y422680D03*
X530630Y418220D03*
X525900Y414120D03*
X516380Y421570D03*
X521870Y422400D03*
X514098Y393073D03*
X521244Y393312D03*
X523138Y398778D03*
X517755Y402153D03*
X511607Y402113D03*
X518357Y412801D03*
X512170Y412922D03*
X512330Y421440D03*
X497906Y421721D03*
X506500Y407500D03*
X498991Y347529D03*
X498950Y343592D03*
X507991Y347087D03*
X497625Y336580D03*
X495857Y319222D03*
X498870Y322999D03*
X500981Y307293D03*
X525224Y311865D03*
X527757Y310290D03*
X529793Y306729D03*
X530193Y302597D03*
X508000Y314100D03*
X554563Y368207D03*
X532742Y316008D03*
X507400Y392834D03*
X497910Y391150D03*
X506503Y403003D03*
X506815Y411624D03*
X499064Y417159D03*
X548500Y364100D03*
X544200D03*
X536000Y364000D03*
X548500Y368100D03*
X544200D03*
X535600Y368000D03*
X553845Y421402D03*
X589716Y383734D03*
X583519Y383682D03*
X577655Y383695D03*
X483426Y403500D03*
Y399500D03*
X495200Y330100D03*
X505468D03*
X502969Y332600D03*
Y327600D03*
X507969D03*
X497932Y309258D03*
X533617Y324600D03*
X533567Y321000D03*
X508369Y341500D03*
X515500Y335500D03*
X507437Y319500D03*
X525735Y328132D03*
X486726Y320800D03*
X478050Y325950D03*
X486728Y332750D03*
X478050Y337000D03*
X486678Y338487D03*
X498500Y401800D03*
X583932Y379332D03*
X479800Y370883D03*
X525500Y375400D03*
X549350Y440120D03*
X542060Y435300D03*
X536530Y434310D03*
X535440Y428780D03*
X520960Y428730D03*
X525740Y427140D03*
X526930Y433390D03*
X530200Y440960D03*
X535370Y443860D03*
X540620Y448496D03*
X541030Y444300D03*
X540430Y453100D03*
X534970D03*
X528840Y453060D03*
X534460Y461980D03*
X527610Y461900D03*
X521320Y460540D03*
X517490Y455810D03*
X526490Y450012D03*
X526151Y436140D03*
X516724Y436604D03*
X549858Y454307D03*
X549979Y448621D03*
X540858Y461981D03*
X543992Y466883D03*
X551144Y467285D03*
X513736Y427828D03*
X508553Y436547D03*
X501135Y436482D03*
X497825Y428150D03*
X507067Y427748D03*
X506835Y423335D03*
X513596Y438192D03*
X551300Y458300D03*
X551416Y445772D03*
X585500Y500100D03*
X553845Y426913D03*
X567669Y486800D03*
X553845Y473764D03*
Y468252D03*
Y457228D03*
Y451717D03*
X496326Y432150D03*
X501437Y443363D03*
X483663Y463237D03*
X516742Y490831D03*
X546250Y482713D03*
X522143Y489900D03*
X511281Y462943D03*
X502681Y504254D03*
X544600Y497500D03*
X547058Y507158D03*
Y502858D03*
X537987Y513030D03*
X596642Y519200D03*
Y527300D03*
X596574Y535252D03*
X534119Y542780D03*
X525342Y542775D03*
Y546775D03*
X583707Y534812D03*
X482775Y512925D03*
X493684Y515484D03*
X504825Y512925D03*
X525073Y489273D03*
X501737Y483263D03*
X516380Y450350D03*
X615391Y57291D03*
X607516Y57452D03*
X602935Y61711D03*
X603096Y68059D03*
X623427Y60827D03*
X623266Y67979D03*
Y75452D03*
X603337Y75292D03*
X617785Y79195D03*
X609184Y79605D03*
X609179Y85605D03*
X605542Y90377D03*
X601412Y99012D03*
X607407Y98774D03*
X612694Y95937D03*
X616418Y91232D03*
X617784Y85390D03*
X602116Y150624D03*
X606575Y148423D03*
Y142423D03*
Y136423D03*
Y130423D03*
Y124423D03*
Y118423D03*
X606079Y113072D03*
X604445Y107475D03*
X601832Y102454D03*
X625100Y117938D03*
Y120676D03*
X679100Y120561D03*
Y123300D03*
X627595Y97400D03*
X657300Y124500D03*
X640660Y139250D03*
X632040Y106350D03*
Y100757D03*
X620095Y86940D03*
X625456Y87158D03*
X647045Y78987D03*
X674605Y108493D03*
X665800Y96550D03*
X645540Y124280D03*
X607750Y200368D03*
X639600Y196702D03*
X643017Y199973D03*
X646517D03*
X643017Y203473D03*
X639517Y199973D03*
Y203473D03*
X646517D03*
Y196473D03*
X657773Y192473D03*
X661881Y190519D03*
X671078Y395788D03*
X637354Y383695D03*
X666707Y438831D03*
X664768Y432543D03*
X637354Y486800D03*
G54D22*
G01X131509Y421653D02*
X135200Y425344D01*
G01D02*
X138891Y429035D01*
G01X131509D02*
X135200Y425344D01*
G01D02*
X138891Y421653D01*
G01X350018Y21582D02*
X350000Y21600D01*
G54D13*
X37554Y237854D03*
X40198Y237715D03*
X42954D03*
X45710D03*
X48466D03*
X37518Y245964D03*
Y248720D03*
X40198Y240471D03*
Y243227D03*
X37518Y292898D03*
Y290142D03*
X40198Y295654D03*
X85093Y268095D03*
X82337D03*
X79581D03*
X76825D03*
Y270850D03*
X79581D03*
X82337D03*
X85093D03*
Y273606D03*
X82337D03*
X79581D03*
X76825D03*
Y276362D03*
X79581D03*
X82337D03*
X85093D03*
Y279118D03*
X82337D03*
X79581D03*
X76825D03*
Y281874D03*
X79581D03*
X82337D03*
X85093D03*
X71313Y254250D03*
Y251495D03*
Y248739D03*
Y245983D03*
Y240471D03*
Y243227D03*
X68558Y245983D03*
Y248739D03*
Y251495D03*
Y254250D03*
Y243227D03*
Y240471D03*
X65802D03*
X63046D03*
X60290D03*
X57534Y243227D03*
X60290D03*
X63046D03*
X65802D03*
X42954Y240471D03*
X45710D03*
X48466D03*
Y243227D03*
X45710D03*
X42954D03*
X34687Y254250D03*
Y251495D03*
X37442D03*
Y254250D03*
X85093Y284630D03*
Y287386D03*
Y290142D03*
Y292898D03*
Y295654D03*
X82337D03*
Y292898D03*
Y290142D03*
Y287386D03*
Y284630D03*
X79581D03*
Y287386D03*
Y290142D03*
Y292898D03*
Y295654D03*
X76825D03*
Y292898D03*
Y290142D03*
Y287386D03*
Y284630D03*
X74069D03*
Y287386D03*
Y290142D03*
Y292898D03*
Y295654D03*
X71313D03*
Y292898D03*
Y290142D03*
Y287386D03*
Y284630D03*
X68558D03*
Y287386D03*
Y290142D03*
Y292898D03*
Y295654D03*
X40198Y292898D03*
Y290142D03*
X34687Y287386D03*
Y284630D03*
X37442D03*
Y287386D03*
X48466Y295654D03*
X45710D03*
X42954D03*
Y292898D03*
X45710D03*
X48466D03*
X63046Y295654D03*
X65802D03*
Y292898D03*
X63046D03*
X57534Y290142D03*
X60290D03*
X63046D03*
X65802D03*
X48466D03*
X45710D03*
X42954D03*
X40198Y287386D03*
X42954D03*
X45710D03*
X48466D03*
X65802D03*
X63046D03*
X60290D03*
X57534D03*
X40198Y284630D03*
X42954D03*
X45710D03*
X48466D03*
X65802D03*
X63046D03*
X60290D03*
X57534D03*
Y245983D03*
X60290D03*
X63046D03*
X65802D03*
X48466D03*
X45710D03*
X42954D03*
X40198D03*
Y248739D03*
X42954D03*
X45710D03*
X48466D03*
X65802D03*
X63046D03*
X60290D03*
X57534D03*
Y251495D03*
X60290D03*
X63046D03*
X65802D03*
X48466D03*
X45710D03*
X42954D03*
X40198D03*
Y254250D03*
X42954D03*
X45710D03*
X48466D03*
X65802D03*
X63046D03*
X60290D03*
X57534D03*
X51622Y270818D03*
Y268062D03*
Y265306D03*
Y262550D03*
Y273574D03*
Y276330D03*
X54378D03*
Y273574D03*
Y262550D03*
Y265306D03*
Y268062D03*
Y270818D03*
X57134Y276330D03*
Y273574D03*
Y262550D03*
Y265306D03*
Y268062D03*
Y270818D03*
X59890Y276330D03*
Y273574D03*
Y262550D03*
Y265306D03*
Y268062D03*
Y270818D03*
X62646Y276330D03*
Y273574D03*
Y262550D03*
Y265306D03*
Y268062D03*
Y270818D03*
X65402Y276330D03*
Y273574D03*
Y262550D03*
Y265306D03*
Y268062D03*
Y270818D03*
X68748Y269440D03*
X62646Y259795D03*
X59890D03*
X62646Y279086D03*
X59890D03*
X62646Y281842D03*
X59890D03*
Y257039D03*
X62646D03*
X68748Y258417D03*
Y280464D03*
X48866Y276330D03*
Y273574D03*
Y262550D03*
Y265306D03*
Y268062D03*
Y270818D03*
X46110Y276330D03*
Y273574D03*
Y262550D03*
Y265306D03*
Y268062D03*
Y270818D03*
X43354Y276330D03*
Y273574D03*
Y262550D03*
Y265306D03*
Y268062D03*
Y270818D03*
X40598Y276330D03*
Y273574D03*
Y262550D03*
Y265306D03*
Y268062D03*
Y270818D03*
X37252Y269440D03*
Y280464D03*
Y258417D03*
X43354Y279086D03*
X46110D03*
X43354Y281842D03*
X46110D03*
X43354Y259795D03*
X46110D03*
X43354Y257039D03*
X46110D03*
X37518Y303978D03*
X48466Y303921D03*
X45710D03*
X42954D03*
X40198D03*
X37518Y301222D03*
X40198Y301165D03*
X42954D03*
X45710D03*
X48466D03*
X60290Y298410D03*
X40198D03*
X85093D03*
X82337D03*
X79581D03*
X76825D03*
X74069D03*
X71294Y298380D03*
X68558Y298410D03*
X42954D03*
X45710D03*
X48466D03*
X65802D03*
X63046D03*
X154377Y203010D03*
Y206947D03*
X157377D03*
Y203010D03*
X160814Y206947D03*
Y203010D03*
X150940Y206947D03*
Y203010D03*
X154377Y199073D03*
X157377D03*
X160814D03*
X150940D03*
X203854Y234959D03*
X206610D03*
X209366D03*
X201098D03*
X198342D03*
X195587D03*
Y237715D03*
X198342D03*
X201098D03*
X209366D03*
X206610D03*
X203854D03*
X195587Y248739D03*
Y245983D03*
Y243227D03*
Y240471D03*
X198342Y245983D03*
Y248739D03*
Y240471D03*
Y243227D03*
X201098D03*
Y240471D03*
X151413Y234959D03*
X148658D03*
X145902D03*
X143146D03*
X140390D03*
X137634D03*
Y237715D03*
X140390D03*
X143146D03*
X145902D03*
X148658D03*
X151413D03*
X195587Y295654D03*
Y290142D03*
Y292898D03*
X198342D03*
Y290142D03*
Y295654D03*
X201098D03*
X218634Y245983D03*
X221390D03*
Y248739D03*
X218634D03*
Y251495D03*
X221390D03*
Y254250D03*
X218634D03*
X221390Y243227D03*
X218634D03*
Y240471D03*
X221390D03*
X203854Y243227D03*
X206610D03*
X209366D03*
Y240471D03*
X206610D03*
X203854D03*
X209366Y245983D03*
X206610D03*
X203854D03*
X201098D03*
Y248739D03*
X203854D03*
X206610D03*
X209366D03*
Y251495D03*
X206610D03*
X203854D03*
X201098D03*
Y254250D03*
X203854D03*
X206610D03*
X209366D03*
X198342D03*
Y251495D03*
X195587D03*
Y254250D03*
X221390Y284630D03*
X218634D03*
Y287386D03*
X221390D03*
Y290142D03*
X218634D03*
X201098D03*
Y292898D03*
X203854Y290142D03*
X206610D03*
X209366D03*
Y292898D03*
X206610D03*
X203854D03*
Y295654D03*
X206610D03*
X209366D03*
X201098Y284630D03*
X203854D03*
X206610D03*
X209366D03*
Y287386D03*
X206610D03*
X203854D03*
X201098D03*
X198342D03*
Y284630D03*
X195587D03*
Y287386D03*
X162437Y281874D03*
X159681D03*
X156925D03*
Y279118D03*
X159681D03*
X162437D03*
Y276362D03*
X159681D03*
X156925D03*
Y273606D03*
X159681D03*
X162437D03*
Y270850D03*
X159681D03*
X156925D03*
Y268095D03*
X159681D03*
X162437D03*
X114587Y295654D03*
Y290142D03*
Y292898D03*
X117342D03*
Y290142D03*
Y295654D03*
X120098D03*
X114587Y245983D03*
Y248739D03*
Y240471D03*
Y243227D03*
X117342Y248739D03*
Y245983D03*
Y243227D03*
Y240471D03*
X120098D03*
Y243227D03*
X137634Y245983D03*
X140390D03*
X143146D03*
X145902D03*
Y248739D03*
X143146D03*
X140390D03*
X137634D03*
Y251495D03*
X140390D03*
X143146D03*
X145902D03*
Y254250D03*
X143146D03*
X140390D03*
X137634D03*
X148658D03*
Y251495D03*
Y248739D03*
Y245983D03*
X151413D03*
Y248739D03*
Y251495D03*
Y254250D03*
X145902Y243227D03*
X143146D03*
X140390D03*
X137634D03*
Y240471D03*
X140390D03*
X143146D03*
X145902D03*
X148658D03*
Y243227D03*
X151413D03*
Y240471D03*
X122854Y243227D03*
X125610D03*
X128366D03*
X125610Y240471D03*
X122854D03*
X128366Y245983D03*
X125610D03*
X122854D03*
X120098D03*
Y248739D03*
X122854D03*
X125610D03*
X128366D03*
Y251495D03*
X125610D03*
X122854D03*
X120098D03*
Y254250D03*
X122854D03*
X125610D03*
X128366D03*
X117342D03*
Y251495D03*
X114587D03*
Y254250D03*
X117342Y287386D03*
Y284630D03*
X114587D03*
Y287386D03*
X120098Y284630D03*
Y287386D03*
Y290142D03*
Y292898D03*
X122854Y284630D03*
X125610D03*
X128366D03*
Y287386D03*
X125610D03*
X122854D03*
Y290142D03*
X125610D03*
X128366D03*
Y292898D03*
X125610D03*
X122854D03*
Y295654D03*
X125610D03*
X128366D03*
X143146Y292898D03*
X145902D03*
Y295654D03*
X143146D03*
X148658D03*
Y292898D03*
X151413D03*
Y295654D03*
X154169D03*
Y292898D03*
X156925D03*
Y295654D03*
X159681D03*
Y292898D03*
X162437D03*
Y295654D03*
X145902Y284630D03*
X143146D03*
X140390D03*
X137634D03*
Y287386D03*
X140390D03*
X143146D03*
X145902D03*
Y290142D03*
X143146D03*
X140390D03*
X137634D03*
X148658D03*
Y287386D03*
Y284630D03*
X151413D03*
Y287386D03*
Y290142D03*
X154169D03*
Y287386D03*
Y284630D03*
X156925D03*
Y287386D03*
Y290142D03*
X159681D03*
Y287386D03*
Y284630D03*
X162437D03*
Y287386D03*
Y290142D03*
X131622Y270818D03*
Y268062D03*
Y265306D03*
Y262550D03*
Y273574D03*
Y276330D03*
X134378D03*
Y273574D03*
Y262550D03*
Y265306D03*
Y268062D03*
Y270818D03*
X137134Y276330D03*
Y273574D03*
Y262550D03*
Y265306D03*
Y268062D03*
Y270818D03*
X139890Y276330D03*
Y273574D03*
Y262550D03*
Y265306D03*
Y268062D03*
Y270818D03*
X142646Y276330D03*
Y273574D03*
Y262550D03*
Y265306D03*
Y268062D03*
Y270818D03*
X145402Y276330D03*
Y273574D03*
Y262550D03*
Y265306D03*
Y268062D03*
Y270818D03*
X148748Y269440D03*
X142646Y259795D03*
X139890D03*
X142646Y279086D03*
X139890D03*
X142646Y281842D03*
X139890D03*
Y257039D03*
X142646D03*
X148748Y258417D03*
Y280464D03*
X128866Y276330D03*
Y273574D03*
Y262550D03*
Y265306D03*
Y268062D03*
Y270818D03*
X126110Y276330D03*
Y273574D03*
Y262550D03*
Y265306D03*
Y268062D03*
Y270818D03*
X123354Y276330D03*
Y273574D03*
Y262550D03*
Y265306D03*
Y268062D03*
Y270818D03*
X120598Y276330D03*
Y273574D03*
Y262550D03*
Y265306D03*
Y268062D03*
Y270818D03*
X117252Y269440D03*
Y280464D03*
Y258417D03*
X123354Y279086D03*
X126110D03*
X123354Y281842D03*
X126110D03*
X123354Y259795D03*
X126110D03*
X123354Y257039D03*
X126110D03*
X212622Y270818D03*
Y268062D03*
Y265306D03*
Y262550D03*
Y273574D03*
Y276330D03*
X215378D03*
Y273574D03*
Y262550D03*
Y265306D03*
Y268062D03*
Y270818D03*
X218134Y276330D03*
Y273574D03*
Y262550D03*
Y265306D03*
Y268062D03*
Y270818D03*
X220890Y276330D03*
Y273574D03*
Y262550D03*
Y265306D03*
Y268062D03*
Y270818D03*
Y259795D03*
Y279086D03*
Y281842D03*
Y257039D03*
X209866Y276330D03*
Y273574D03*
Y262550D03*
Y265306D03*
Y268062D03*
Y270818D03*
X207110Y276330D03*
Y273574D03*
Y262550D03*
Y265306D03*
Y268062D03*
Y270818D03*
X204354Y276330D03*
Y273574D03*
Y262550D03*
Y265306D03*
Y268062D03*
Y270818D03*
X201598Y276330D03*
Y273574D03*
Y262550D03*
Y265306D03*
Y268062D03*
Y270818D03*
X198252Y269440D03*
Y280464D03*
Y258417D03*
X204354Y279086D03*
X207110D03*
X204354Y281842D03*
X207110D03*
X204354Y259795D03*
X207110D03*
X204354Y257039D03*
X207110D03*
X164623Y369490D03*
Y373427D03*
Y365553D03*
X168060Y373427D03*
Y365553D03*
Y369490D03*
X161623Y373427D03*
Y369490D03*
X203854Y303921D03*
X206610D03*
X209366D03*
X201098D03*
X198342D03*
X195587D03*
Y301165D03*
X198342D03*
X201098D03*
X209366D03*
X206610D03*
X203854D03*
X137634Y303921D03*
Y301165D03*
X162437Y303921D03*
X159681D03*
X156925D03*
X154169D03*
X151413D03*
X148658D03*
X145902D03*
X143146D03*
X140390D03*
Y301165D03*
X143146D03*
X145902D03*
X148658D03*
X151413D03*
X154169D03*
X156925D03*
X159681D03*
X162437D03*
X221390Y298410D03*
X140390D03*
X195587D03*
X198342D03*
X201098D03*
X209366D03*
X206610D03*
X203854D03*
X114605Y298321D03*
X117342Y298410D03*
X120098D03*
X125610D03*
X122854D03*
X143146D03*
X145902D03*
X148658D03*
X151413D03*
X154169D03*
X156925D03*
X159681D03*
X162437D03*
X158186Y373427D03*
Y369490D03*
X161623Y365553D03*
X158186D03*
X298634Y234959D03*
X301390D03*
X304146D03*
X306902D03*
X309658D03*
X312413D03*
Y237715D03*
X309658D03*
X306902D03*
X304146D03*
X301390D03*
X298634D03*
X326193Y268095D03*
X323437D03*
X320681D03*
X317925D03*
Y270850D03*
X320681D03*
X323437D03*
X326193D03*
Y273606D03*
X323437D03*
X320681D03*
X317925D03*
Y276362D03*
X320681D03*
X323437D03*
X326193D03*
Y279118D03*
X323437D03*
X320681D03*
X317925D03*
Y281874D03*
X320681D03*
X323437D03*
X326193D03*
X298634Y290142D03*
X301390D03*
Y287386D03*
X298634D03*
Y284630D03*
X301390D03*
X326193D03*
Y287386D03*
Y290142D03*
X323437D03*
Y287386D03*
Y284630D03*
X320681D03*
Y287386D03*
Y290142D03*
X317925D03*
Y287386D03*
Y284630D03*
X315169D03*
Y287386D03*
Y290142D03*
X312413D03*
Y287386D03*
Y284630D03*
X309658D03*
Y287386D03*
Y290142D03*
X304146D03*
X306902D03*
Y287386D03*
X304146D03*
Y284630D03*
X306902D03*
X326193Y292898D03*
Y295654D03*
X323437D03*
Y292898D03*
X320681D03*
Y295654D03*
X317925D03*
Y292898D03*
X315169D03*
Y295654D03*
X312413D03*
Y292898D03*
X309658D03*
Y295654D03*
X304146D03*
X306902D03*
Y292898D03*
X304146D03*
X289366Y295654D03*
X286610D03*
X283854D03*
Y292898D03*
X286610D03*
X289366D03*
Y290142D03*
X286610D03*
X283854D03*
Y287386D03*
X286610D03*
X289366D03*
Y284630D03*
X286610D03*
X283854D03*
X281098Y292898D03*
Y290142D03*
Y287386D03*
Y284630D03*
X275587Y287386D03*
Y284630D03*
X278342D03*
Y287386D03*
X281098Y295654D03*
X278342D03*
Y290142D03*
Y292898D03*
X275587D03*
Y290142D03*
Y295654D03*
X312413Y254250D03*
Y251495D03*
Y248739D03*
Y245983D03*
X309658D03*
Y248739D03*
Y251495D03*
Y254250D03*
X298634D03*
X301390D03*
X304146D03*
X306902D03*
Y251495D03*
X304146D03*
X301390D03*
X298634D03*
Y248739D03*
X301390D03*
X304146D03*
X306902D03*
Y245983D03*
X304146D03*
X301390D03*
X298634D03*
X312413Y240471D03*
Y243227D03*
X309658D03*
Y240471D03*
X306902D03*
X304146D03*
X301390D03*
X298634D03*
Y243227D03*
X301390D03*
X304146D03*
X306902D03*
X275587Y254250D03*
Y251495D03*
X278342D03*
Y254250D03*
X289366D03*
X286610D03*
X283854D03*
X281098D03*
Y251495D03*
X283854D03*
X286610D03*
X289366D03*
Y248739D03*
X286610D03*
X283854D03*
X281098D03*
Y245983D03*
X283854D03*
X286610D03*
X289366D03*
X278342D03*
Y248739D03*
X275587D03*
Y245983D03*
X283854Y240471D03*
X286610D03*
X289366D03*
Y243227D03*
X286610D03*
X283854D03*
X281098D03*
Y240471D03*
X278342D03*
Y243227D03*
X275587D03*
Y240471D03*
X224146Y245983D03*
X226902D03*
Y248739D03*
X224146D03*
Y251495D03*
X226902D03*
Y254250D03*
X224146D03*
X229657D03*
Y251495D03*
Y248739D03*
Y245983D03*
X232413D03*
Y248739D03*
Y251495D03*
Y254250D03*
X226902Y243227D03*
X224146D03*
Y240471D03*
X226902D03*
X229657D03*
Y243227D03*
X232413D03*
Y240471D03*
X237925Y268095D03*
X240681D03*
X243437D03*
X246193D03*
Y281874D03*
X243437D03*
X240681D03*
X237925D03*
Y279118D03*
X240681D03*
X243437D03*
X246193D03*
Y276362D03*
X243437D03*
X240681D03*
X237925D03*
Y273606D03*
X240681D03*
X243437D03*
X246193D03*
Y270850D03*
X243437D03*
X240681D03*
X237925D03*
X224146Y292898D03*
X226902D03*
Y295654D03*
X224146D03*
X229657D03*
Y292898D03*
X232413D03*
Y295654D03*
X235169D03*
Y292898D03*
X237925D03*
Y295654D03*
X240681D03*
Y292898D03*
X243437D03*
Y295654D03*
X246193D03*
Y292898D03*
X226902Y284630D03*
X224146D03*
Y287386D03*
X226902D03*
Y290142D03*
X224146D03*
X229657D03*
Y287386D03*
Y284630D03*
X232413D03*
Y287386D03*
Y290142D03*
X235169D03*
Y287386D03*
Y284630D03*
X237925D03*
Y287386D03*
Y290142D03*
X240681D03*
Y287386D03*
Y284630D03*
X243437D03*
Y287386D03*
Y290142D03*
X246193D03*
Y287386D03*
Y284630D03*
X313875Y196368D03*
Y192432D03*
X310725D03*
Y196368D03*
X312300Y194400D03*
X223646Y276330D03*
Y273574D03*
Y262550D03*
Y265306D03*
Y268062D03*
Y270818D03*
X226402Y276330D03*
Y273574D03*
Y262550D03*
Y265306D03*
Y268062D03*
Y270818D03*
X229748Y269440D03*
X223646Y259795D03*
Y279086D03*
Y281842D03*
Y257039D03*
X229748Y258417D03*
Y280464D03*
X292622Y270818D03*
Y268062D03*
Y265306D03*
Y262550D03*
Y273574D03*
Y276330D03*
X295378D03*
Y273574D03*
Y262550D03*
Y265306D03*
Y268062D03*
Y270818D03*
X298134Y276330D03*
Y273574D03*
Y262550D03*
Y265306D03*
Y268062D03*
Y270818D03*
X300890Y276330D03*
Y273574D03*
Y262550D03*
Y265306D03*
Y268062D03*
Y270818D03*
X303646Y276330D03*
Y273574D03*
Y262550D03*
Y265306D03*
Y268062D03*
Y270818D03*
X306402Y276330D03*
Y273574D03*
Y262550D03*
Y265306D03*
Y268062D03*
Y270818D03*
X309748Y269440D03*
X303646Y259795D03*
X300890D03*
X303646Y279086D03*
X300890D03*
X303646Y281842D03*
X300890D03*
Y257039D03*
X303646D03*
X309748Y258417D03*
Y280464D03*
X289866Y276330D03*
Y273574D03*
Y262550D03*
Y265306D03*
Y268062D03*
Y270818D03*
X287110Y276330D03*
Y273574D03*
Y262550D03*
Y265306D03*
Y268062D03*
Y270818D03*
X284354Y276330D03*
Y273574D03*
Y262550D03*
Y265306D03*
Y268062D03*
Y270818D03*
X281598Y276330D03*
Y273574D03*
Y262550D03*
Y265306D03*
Y268062D03*
Y270818D03*
X278252Y269440D03*
Y280464D03*
Y258417D03*
X284354Y279086D03*
X287110D03*
X284354Y281842D03*
X287110D03*
X284354Y259795D03*
X287110D03*
X284354Y257039D03*
X287110D03*
X298634Y303921D03*
Y301165D03*
X304146Y303921D03*
X306902D03*
X309658D03*
X312413D03*
X315169D03*
X317925D03*
X320681D03*
X323437D03*
X326193D03*
X301390D03*
Y301165D03*
X326193D03*
X323437D03*
X320681D03*
X317925D03*
X315169D03*
X312413D03*
X309658D03*
X306902D03*
X304146D03*
X301390Y298410D03*
X326193D03*
X323437D03*
X320681D03*
X317925D03*
X315169D03*
X312413D03*
X309658D03*
X306902D03*
X304146D03*
X283854D03*
X286610D03*
X281098D03*
X278342D03*
X275570Y298277D03*
X224146Y298410D03*
X226902D03*
X229657D03*
X232451Y298294D03*
X235207D03*
X237992Y298255D03*
X240681Y298410D03*
X243437D03*
X246193D03*
X327186Y450490D03*
Y454427D03*
X337060Y450490D03*
Y454427D03*
X333623Y450490D03*
Y454427D03*
X330623D03*
Y450490D03*
X327186Y446553D03*
X337060D03*
X333623D03*
X330623D03*
X393242Y237715D03*
X395998D03*
X404266D03*
X401510D03*
X398754D03*
X393242Y245983D03*
Y248739D03*
X395998Y243227D03*
Y240471D03*
X393242Y295654D03*
X390487D03*
X395998D03*
X387731Y290142D03*
X390487Y292898D03*
X393242D03*
Y290142D03*
X390487D03*
X470487Y254250D03*
Y251495D03*
X473242D03*
Y254250D03*
Y245983D03*
Y248739D03*
X470487D03*
Y245983D03*
X473242Y240471D03*
Y243227D03*
X470487D03*
Y240471D03*
Y287386D03*
Y284630D03*
X473242D03*
Y287386D03*
Y295654D03*
Y290142D03*
Y292898D03*
X470487D03*
Y290142D03*
Y295654D03*
X432825Y268095D03*
X435581D03*
X438337D03*
X441093D03*
Y281874D03*
X438337D03*
X435581D03*
X432825D03*
Y279118D03*
X435581D03*
X438337D03*
X441093D03*
Y276362D03*
X438337D03*
X435581D03*
X432825D03*
Y273606D03*
X435581D03*
X438337D03*
X441093D03*
Y270850D03*
X438337D03*
X435581D03*
X432825D03*
X424557Y295654D03*
Y292898D03*
X427313D03*
Y295654D03*
X430069D03*
Y292898D03*
X432825D03*
Y295654D03*
X435581D03*
Y292898D03*
X438337D03*
Y295654D03*
X441093D03*
Y292898D03*
X424557Y290142D03*
Y287386D03*
Y284630D03*
X427313D03*
Y287386D03*
Y290142D03*
X430069D03*
Y287386D03*
Y284630D03*
X432825D03*
Y287386D03*
Y290142D03*
X435581D03*
Y287386D03*
Y284630D03*
X438337D03*
Y287386D03*
Y290142D03*
X441093D03*
Y287386D03*
Y284630D03*
X395998Y290142D03*
Y292898D03*
X398754Y290142D03*
X401510D03*
X404266D03*
Y292898D03*
X401510D03*
X398754D03*
Y295654D03*
X401510D03*
X404266D03*
X395998Y284630D03*
X398754D03*
X401510D03*
X404266D03*
Y287386D03*
X401510D03*
X398754D03*
X395998D03*
X393242D03*
Y284630D03*
X390487D03*
Y287386D03*
X419046Y292898D03*
X421802D03*
Y295654D03*
X419046D03*
X421802Y284630D03*
X419046D03*
X416290D03*
X413534D03*
Y287386D03*
X416290D03*
X419046D03*
X421802D03*
Y290142D03*
X419046D03*
X416290D03*
X413534D03*
X424557Y254250D03*
Y251495D03*
Y248739D03*
Y245983D03*
X427313D03*
Y248739D03*
Y251495D03*
Y254250D03*
X424557Y240471D03*
Y243227D03*
X427313D03*
Y240471D03*
X404266Y245983D03*
X401510D03*
X398754D03*
X395998D03*
Y248739D03*
X398754D03*
X401510D03*
X404266D03*
Y251495D03*
X401510D03*
X398754D03*
X395998D03*
Y254250D03*
X398754D03*
X401510D03*
X404266D03*
X393242D03*
Y251495D03*
X390487D03*
Y254250D03*
X413534Y245983D03*
X416290D03*
X419046D03*
X421802D03*
Y248739D03*
X419046D03*
X416290D03*
X413534D03*
Y251495D03*
X416290D03*
X419046D03*
X421802D03*
Y254250D03*
X419046D03*
X416290D03*
X413534D03*
X398754Y243227D03*
X401510D03*
X404266D03*
Y240471D03*
X401510D03*
X398754D03*
X421802Y243227D03*
X419046D03*
X416290D03*
X413534D03*
Y240471D03*
X416290D03*
X419046D03*
X421802D03*
X407522Y270818D03*
Y268062D03*
Y265306D03*
Y262550D03*
Y273574D03*
Y276330D03*
X410278D03*
Y273574D03*
Y262550D03*
Y265306D03*
Y268062D03*
Y270818D03*
X413034Y276330D03*
Y273574D03*
Y262550D03*
Y265306D03*
Y268062D03*
Y270818D03*
X415790Y276330D03*
Y273574D03*
Y262550D03*
Y265306D03*
Y268062D03*
Y270818D03*
X418546Y276330D03*
Y273574D03*
Y262550D03*
Y265306D03*
Y268062D03*
Y270818D03*
X421302Y276330D03*
Y273574D03*
Y262550D03*
Y265306D03*
Y268062D03*
Y270818D03*
X424648Y269440D03*
X418546Y259795D03*
X415790D03*
X418546Y279086D03*
X415790D03*
X418546Y281842D03*
X415790D03*
Y257039D03*
X418546D03*
X424648Y258417D03*
Y280464D03*
X404766Y276330D03*
Y273574D03*
Y262550D03*
Y265306D03*
Y268062D03*
Y270818D03*
X402010Y276330D03*
Y273574D03*
Y262550D03*
Y265306D03*
Y268062D03*
Y270818D03*
X399254Y276330D03*
Y273574D03*
Y262550D03*
Y265306D03*
Y268062D03*
Y270818D03*
X396498Y276330D03*
Y273574D03*
Y262550D03*
Y265306D03*
Y268062D03*
Y270818D03*
X393152Y269440D03*
Y280464D03*
Y258417D03*
X399254Y279086D03*
X402010D03*
X399254Y281842D03*
X402010D03*
X399254Y259795D03*
X402010D03*
X399254Y257039D03*
X402010D03*
X473152Y269440D03*
Y280464D03*
Y258417D03*
X398754Y303921D03*
X401510D03*
X404266D03*
Y301165D03*
X401510D03*
X398754D03*
X395998Y298410D03*
X390487D03*
X393242D03*
X416290D03*
X473242D03*
X470487D03*
X424557D03*
X427285Y298368D03*
X430041D03*
X432797D03*
X435581Y298410D03*
X438337D03*
X441093D03*
X404266D03*
X401510D03*
X398754D03*
X419046D03*
X421802D03*
X508877Y203010D03*
Y206947D03*
X511877D03*
Y203010D03*
X515314Y206947D03*
Y203010D03*
X505440Y206947D03*
Y203010D03*
X508877Y199073D03*
X511877D03*
X515314D03*
X505440D03*
X510069Y281874D03*
Y279118D03*
Y276362D03*
Y273606D03*
Y270850D03*
Y268095D03*
X591325Y243227D03*
Y240471D03*
X588569D03*
Y243227D03*
X562766Y234959D03*
X560010D03*
X557254D03*
X554498D03*
X551742D03*
X548987D03*
Y237715D03*
X551742D03*
X554498D03*
X557254D03*
X560010D03*
X562766D03*
X554498Y240471D03*
X551742D03*
X548987D03*
Y243227D03*
X551742D03*
X554498D03*
X548987Y245983D03*
Y248739D03*
X551742D03*
Y245983D03*
X493534Y234959D03*
X496290D03*
X499046D03*
X501802D03*
X504558D03*
X507313D03*
Y237715D03*
X504558D03*
X501802D03*
X499046D03*
X496290D03*
X493534D03*
X507313Y248739D03*
Y245983D03*
Y240471D03*
Y243227D03*
X504558D03*
Y240471D03*
X507313Y254250D03*
Y251495D03*
X504558Y245983D03*
Y248739D03*
Y251495D03*
Y254250D03*
X493534D03*
X496290D03*
X499046D03*
X501802D03*
Y251495D03*
X499046D03*
X496290D03*
X493534D03*
Y248739D03*
X496290D03*
X499046D03*
X501802D03*
Y245983D03*
X499046D03*
X496290D03*
X493534D03*
X484266Y254250D03*
X481510D03*
X478754D03*
X475998D03*
Y251495D03*
X478754D03*
X481510D03*
X484266D03*
Y248739D03*
X481510D03*
X478754D03*
X475998D03*
Y245983D03*
X478754D03*
X481510D03*
X484266D03*
X501802Y240471D03*
X499046D03*
X496290D03*
X493534D03*
Y243227D03*
X496290D03*
X499046D03*
X501802D03*
X478754Y240471D03*
X481510D03*
X484266Y243227D03*
X481510D03*
X478754D03*
X475998D03*
Y240471D03*
X518337Y268095D03*
X515581D03*
X512825D03*
Y270850D03*
X515581D03*
X518337D03*
Y273606D03*
X515581D03*
X512825D03*
Y276362D03*
X515581D03*
X518337D03*
Y279118D03*
X515581D03*
X512825D03*
Y281874D03*
X515581D03*
X518337D03*
X493534Y290142D03*
X496290D03*
Y287386D03*
X493534D03*
Y284630D03*
X496290D03*
X499046Y290142D03*
Y287386D03*
Y284630D03*
Y295654D03*
Y292898D03*
X518337Y290142D03*
Y287386D03*
Y284630D03*
X515581D03*
Y287386D03*
Y290142D03*
X512825D03*
Y287386D03*
Y284630D03*
X510069D03*
Y287386D03*
Y290142D03*
X507313D03*
Y287386D03*
Y284630D03*
X504558D03*
Y287386D03*
Y290142D03*
X501802D03*
Y287386D03*
Y284630D03*
X518337Y295654D03*
Y292898D03*
X515581D03*
Y295654D03*
X512825D03*
Y292898D03*
X510069D03*
Y295654D03*
X507313D03*
Y292898D03*
X504558D03*
Y295654D03*
X501802D03*
Y292898D03*
X484266Y295654D03*
X481510D03*
X478754D03*
Y292898D03*
X481510D03*
X484266D03*
Y290142D03*
X481510D03*
X478754D03*
Y287386D03*
X481510D03*
X484266D03*
Y284630D03*
X481510D03*
X478754D03*
X475998Y292898D03*
Y290142D03*
Y287386D03*
Y284630D03*
Y295654D03*
X585813Y254250D03*
Y251495D03*
Y248739D03*
Y245983D03*
X583058D03*
Y248739D03*
Y251495D03*
Y254250D03*
X572034D03*
X574790D03*
X577546D03*
X580302D03*
Y251495D03*
X577546D03*
X574790D03*
X572034D03*
Y248739D03*
X574790D03*
X577546D03*
X580302D03*
Y245983D03*
X577546D03*
X574790D03*
X572034D03*
X585813Y240471D03*
Y243227D03*
X583058D03*
Y240471D03*
X580302D03*
X577546D03*
X574790D03*
X572034D03*
Y243227D03*
X574790D03*
X577546D03*
X580302D03*
X548987Y254250D03*
Y251495D03*
X551742D03*
Y254250D03*
X562766D03*
X560010D03*
X557254D03*
X554498D03*
Y251495D03*
X557254D03*
X560010D03*
X562766D03*
Y248739D03*
X560010D03*
X557254D03*
X554498D03*
Y245983D03*
X557254D03*
X560010D03*
X562766D03*
X557254Y240471D03*
X560010D03*
X562766D03*
Y243227D03*
X560010D03*
X557254D03*
X591325Y270850D03*
X594081D03*
X596837D03*
X599593D03*
Y273606D03*
X596837D03*
X594081D03*
X591325D03*
Y276362D03*
X594081D03*
X596837D03*
X599593D03*
Y279118D03*
X596837D03*
X594081D03*
X591325D03*
Y281874D03*
X594081D03*
X596837D03*
X599593D03*
Y268095D03*
X596837D03*
X594081D03*
X591325D03*
X599593Y284630D03*
Y287386D03*
Y290142D03*
X596837D03*
Y287386D03*
Y284630D03*
X594081D03*
Y287386D03*
Y290142D03*
X591325D03*
Y287386D03*
Y284630D03*
X588569D03*
Y287386D03*
Y290142D03*
X585813D03*
Y287386D03*
Y284630D03*
X583058D03*
Y287386D03*
Y290142D03*
X572034D03*
X574790D03*
X577546D03*
X580302D03*
Y287386D03*
X577546D03*
X574790D03*
X572034D03*
Y284630D03*
X574790D03*
X577546D03*
X580302D03*
X599593Y292898D03*
Y295654D03*
X596837D03*
Y292898D03*
X594081D03*
Y295654D03*
X591325D03*
Y292898D03*
X588569D03*
Y295654D03*
X585813D03*
Y292898D03*
X583058D03*
Y295654D03*
X577546D03*
X580302D03*
Y292898D03*
X577546D03*
X548987Y287386D03*
Y284630D03*
X551742D03*
Y287386D03*
X554498D03*
X557254D03*
X560010D03*
X562766D03*
Y284630D03*
X560010D03*
X557254D03*
X554498D03*
X562766Y295654D03*
X560010D03*
X557254D03*
Y292898D03*
X560010D03*
X562766D03*
Y290142D03*
X560010D03*
X557254D03*
X554498Y292898D03*
Y290142D03*
Y295654D03*
X551742D03*
Y290142D03*
Y292898D03*
X548987D03*
Y290142D03*
Y295654D03*
X487522Y270818D03*
Y268062D03*
Y265306D03*
Y262550D03*
Y273574D03*
Y276330D03*
X490278D03*
Y273574D03*
Y262550D03*
Y265306D03*
Y268062D03*
Y270818D03*
X493034Y276330D03*
Y273574D03*
Y262550D03*
Y265306D03*
Y268062D03*
Y270818D03*
X495790Y276330D03*
Y273574D03*
Y262550D03*
Y265306D03*
Y268062D03*
Y270818D03*
X498546Y276330D03*
Y273574D03*
Y262550D03*
Y265306D03*
Y268062D03*
Y270818D03*
X501302Y276330D03*
Y273574D03*
Y262550D03*
Y265306D03*
Y268062D03*
Y270818D03*
X504648Y269440D03*
X498546Y259795D03*
X495790D03*
X498546Y279086D03*
X495790D03*
X498546Y281842D03*
X495790D03*
Y257039D03*
X498546D03*
X504648Y258417D03*
Y280464D03*
X484766Y276330D03*
Y273574D03*
Y262550D03*
Y265306D03*
Y268062D03*
Y270818D03*
X482010Y276330D03*
Y273574D03*
Y262550D03*
Y265306D03*
Y268062D03*
Y270818D03*
X479254Y276330D03*
Y273574D03*
Y262550D03*
Y265306D03*
Y268062D03*
Y270818D03*
X476498Y276330D03*
Y273574D03*
Y262550D03*
Y265306D03*
Y268062D03*
Y270818D03*
X479254Y279086D03*
X482010D03*
X479254Y281842D03*
X482010D03*
X479254Y259795D03*
X482010D03*
X479254Y257039D03*
X482010D03*
X566022Y270818D03*
Y268062D03*
Y265306D03*
Y262550D03*
Y273574D03*
Y276330D03*
X568778D03*
Y273574D03*
Y262550D03*
Y265306D03*
Y268062D03*
Y270818D03*
X571534Y276330D03*
Y273574D03*
Y262550D03*
Y265306D03*
Y268062D03*
Y270818D03*
X574290Y276330D03*
Y273574D03*
Y262550D03*
Y265306D03*
Y268062D03*
Y270818D03*
X577046Y276330D03*
Y273574D03*
Y262550D03*
Y265306D03*
Y268062D03*
Y270818D03*
X579802Y276330D03*
Y273574D03*
Y262550D03*
Y265306D03*
Y268062D03*
Y270818D03*
X583148Y269440D03*
X577046Y259795D03*
X574290D03*
X577046Y279086D03*
X574290D03*
X577046Y281842D03*
X574290D03*
Y257039D03*
X577046D03*
X583148Y258417D03*
Y280464D03*
X563266Y276330D03*
Y273574D03*
Y262550D03*
Y265306D03*
Y268062D03*
Y270818D03*
X560510Y276330D03*
Y273574D03*
Y262550D03*
Y265306D03*
Y268062D03*
Y270818D03*
X557754Y276330D03*
Y273574D03*
Y262550D03*
Y265306D03*
Y268062D03*
Y270818D03*
X554998Y276330D03*
Y273574D03*
Y262550D03*
Y265306D03*
Y268062D03*
Y270818D03*
X551652Y269440D03*
Y280464D03*
Y258417D03*
X557754Y279086D03*
X560510D03*
X557754Y281842D03*
X560510D03*
X557754Y259795D03*
X560510D03*
X557754Y257039D03*
X560510D03*
X497686Y371990D03*
Y375927D03*
X507560Y371990D03*
Y375927D03*
X504123Y371990D03*
Y375927D03*
X501123D03*
Y371990D03*
X497686Y368053D03*
X507560D03*
X504123D03*
X493534Y298410D03*
X548987Y303921D03*
X551742D03*
X554498D03*
X562766D03*
X560010D03*
X557254D03*
Y301165D03*
X560010D03*
X562766D03*
X554498D03*
X551742D03*
X548987D03*
X493534D03*
X496290D03*
X499046D03*
X518337D03*
X515581D03*
X512825D03*
X510069D03*
X507313D03*
X504558D03*
X501802D03*
X574790Y298410D03*
X496290D03*
X499046D03*
X518337D03*
X515581D03*
X512825D03*
X510069D03*
X507313D03*
X504558D03*
X501802D03*
X478754D03*
X481510D03*
X475998D03*
X599593D03*
X596837D03*
X594081D03*
X591370Y298274D03*
X588614D03*
X585858D03*
X583058Y298410D03*
X580302D03*
X577546D03*
X557254D03*
X560010D03*
X562766D03*
X554498D03*
X551742D03*
X548987D03*
X501123Y368053D03*
X663058Y234959D03*
Y237715D03*
X660302Y234959D03*
X657546D03*
X654790D03*
X652034D03*
Y237715D03*
X654790D03*
X657546D03*
X660302D03*
X628987Y245983D03*
Y248739D03*
X631742D03*
Y245983D03*
X642766D03*
X640010D03*
X637254D03*
X634498D03*
Y248739D03*
X637254D03*
X640010D03*
X642766D03*
Y251495D03*
X640010D03*
X637254D03*
X634498D03*
Y254250D03*
X637254D03*
X640010D03*
X642766D03*
X631742D03*
Y251495D03*
X628987D03*
Y254250D03*
X652034Y245983D03*
X654790D03*
X657546D03*
X660302D03*
Y248739D03*
X657546D03*
X654790D03*
X652034D03*
Y251495D03*
X654790D03*
X657546D03*
X660302D03*
Y254250D03*
X657546D03*
X654790D03*
X652034D03*
X663058D03*
Y251495D03*
Y248739D03*
Y245983D03*
X665813Y251495D03*
Y254250D03*
X628987Y240471D03*
Y243227D03*
X631742D03*
Y240471D03*
X634498D03*
Y243227D03*
X637254D03*
X640010D03*
X642766D03*
Y240471D03*
X640010D03*
X637254D03*
X660302Y243227D03*
X657546D03*
X654790D03*
X652034D03*
Y240471D03*
X654790D03*
X657546D03*
X660302D03*
X679593Y281874D03*
X676837D03*
X674081D03*
X671325D03*
Y279118D03*
X674081D03*
X676837D03*
X679593D03*
Y276362D03*
X676837D03*
X674081D03*
X671325D03*
Y273606D03*
X674081D03*
X676837D03*
X679593D03*
Y270850D03*
X676837D03*
X674081D03*
X671325D03*
Y268095D03*
X674081D03*
X676837D03*
X679593D03*
X660302Y292898D03*
Y295654D03*
X663058D03*
Y292898D03*
X665813D03*
Y295654D03*
X668569D03*
Y292898D03*
X671325D03*
Y295654D03*
X674081D03*
Y292898D03*
X676837D03*
Y295654D03*
X679593D03*
Y292898D03*
X660302Y284630D03*
Y287386D03*
Y290142D03*
X663058D03*
Y287386D03*
Y284630D03*
X665813D03*
Y287386D03*
Y290142D03*
X668569D03*
Y287386D03*
Y284630D03*
X671325D03*
Y287386D03*
Y290142D03*
X674081D03*
Y287386D03*
Y284630D03*
X676837D03*
Y287386D03*
Y290142D03*
X679593D03*
Y287386D03*
Y284630D03*
X628987Y295654D03*
Y290142D03*
Y292898D03*
X631742D03*
Y290142D03*
Y295654D03*
X634498D03*
X631742Y287386D03*
Y284630D03*
X628987D03*
Y287386D03*
X634498Y284630D03*
Y287386D03*
Y290142D03*
Y292898D03*
X637254Y284630D03*
X640010D03*
X642766D03*
Y287386D03*
X640010D03*
X637254D03*
Y290142D03*
X640010D03*
X642766D03*
Y292898D03*
X640010D03*
X637254D03*
Y295654D03*
X640010D03*
X642766D03*
X657546Y292898D03*
Y295654D03*
Y284630D03*
Y287386D03*
Y290142D03*
X654790Y284630D03*
X652034D03*
Y287386D03*
X654790D03*
Y290142D03*
X652034D03*
X646022Y270818D03*
Y268062D03*
Y265306D03*
Y262550D03*
Y273574D03*
Y276330D03*
X648778D03*
Y273574D03*
Y262550D03*
Y265306D03*
Y268062D03*
Y270818D03*
X651534Y276330D03*
Y273574D03*
Y262550D03*
Y265306D03*
Y268062D03*
Y270818D03*
X654290Y276330D03*
Y273574D03*
Y262550D03*
Y265306D03*
Y268062D03*
Y270818D03*
X657046Y276330D03*
Y273574D03*
Y262550D03*
Y265306D03*
Y268062D03*
Y270818D03*
X659802Y276330D03*
Y273574D03*
Y262550D03*
Y265306D03*
Y268062D03*
Y270818D03*
X663148Y269440D03*
X657046Y259795D03*
X654290D03*
X657046Y279086D03*
X654290D03*
X657046Y281842D03*
X654290D03*
Y257039D03*
X657046D03*
X663148Y258417D03*
Y280464D03*
X643266Y276330D03*
Y273574D03*
Y262550D03*
Y265306D03*
Y268062D03*
Y270818D03*
X640510Y276330D03*
Y273574D03*
Y262550D03*
Y265306D03*
Y268062D03*
Y270818D03*
X637754Y276330D03*
Y273574D03*
Y262550D03*
Y265306D03*
Y268062D03*
Y270818D03*
X634998Y276330D03*
Y273574D03*
Y262550D03*
Y265306D03*
Y268062D03*
Y270818D03*
X631652Y269440D03*
Y280464D03*
Y258417D03*
X637754Y279086D03*
X640510D03*
X637754Y281842D03*
X640510D03*
X637754Y259795D03*
X640510D03*
X637754Y257039D03*
X640510D03*
X652034Y303921D03*
Y301165D03*
X657546Y303921D03*
X679593D03*
X676837D03*
X674081D03*
X671325D03*
X668569D03*
X665813D03*
X663058D03*
X660302D03*
X654790D03*
Y301165D03*
X660302D03*
X663058D03*
X665813D03*
X668569D03*
X671325D03*
X674081D03*
X676837D03*
X679593D03*
X657546D03*
X654790Y298410D03*
X660302D03*
X663058D03*
X665813D03*
X668569D03*
X671325D03*
X674081D03*
X676837D03*
X679593D03*
X629010Y298342D03*
X631766D03*
X634498Y298410D03*
X642600Y298200D03*
X640010Y298410D03*
X637254D03*
X657546D03*
G54D23*
G01X346795Y-27245D02*
X350000Y-24040D01*
G01X346795Y-20835D02*
X350000Y-24040D01*
G01X344008Y531410D02*
X345905Y533307D01*
G01D02*
X347803Y535204D01*
G01X344008D02*
X345905Y533307D01*
G01D02*
X347803Y531410D01*
G01X329048D02*
X330945Y533307D01*
G01D02*
X332842Y535204D01*
G01X329048D02*
X330945Y533307D01*
G01D02*
X332842Y531410D01*
G01X344008Y515465D02*
X345905Y517362D01*
G01D02*
X347803Y519259D01*
G01X344008D02*
X345905Y517362D01*
G01D02*
X347803Y515465D01*
G01X336528Y520780D02*
X338425Y522677D01*
G01D02*
X340322Y524574D01*
G01X336528D02*
X338425Y522677D01*
G01D02*
X340322Y520780D01*
G01X336528Y504835D02*
X338425Y506732D01*
G01D02*
X340322Y508630D01*
G01X336528D02*
X338425Y506732D01*
G01D02*
X340322Y504835D01*
G01X329048Y526095D02*
X330945Y527992D01*
G01D02*
X332842Y529889D01*
G01X329048D02*
X330945Y527992D01*
G01D02*
X332842Y526095D01*
G01X314087Y531410D02*
X315984Y533307D01*
G01D02*
X317881Y535204D01*
G01X314087D02*
X315984Y533307D01*
G01D02*
X317881Y531410D01*
G01X306607D02*
X308504Y533307D01*
G01D02*
X310401Y535204D01*
G01X306607D02*
X308504Y533307D01*
G01D02*
X310401Y531410D01*
G01X321567Y526095D02*
X323464Y527992D01*
G01D02*
X325362Y529889D01*
G01X321567D02*
X323464Y527992D01*
G01D02*
X325362Y526095D01*
G01X321567Y520780D02*
X323464Y522677D01*
G01D02*
X325362Y524574D01*
G01X321567D02*
X323464Y522677D01*
G01D02*
X325362Y520780D01*
G01X321567Y504835D02*
X323464Y506732D01*
G01D02*
X325362Y508630D01*
G01X321567D02*
X323464Y506732D01*
G01D02*
X325362Y504835D01*
G01X314087Y515465D02*
X315984Y517362D01*
G01D02*
X317881Y519259D01*
G01X314087D02*
X315984Y517362D01*
G01D02*
X317881Y515465D01*
G01X306607Y504835D02*
X308504Y506732D01*
G01D02*
X310401Y508630D01*
G01X306607D02*
X308504Y506732D01*
G01D02*
X310401Y504835D01*
G01X306607Y520780D02*
X308504Y522677D01*
G01D02*
X310401Y524574D01*
G01X306607D02*
X308504Y522677D01*
G01D02*
X310401Y520780D01*
G01X306607Y526095D02*
X308504Y527992D01*
G01D02*
X310401Y529889D01*
G01X306607D02*
X308504Y527992D01*
G01D02*
X310401Y526095D01*
G01X350000Y-24040D02*
X353205Y-20835D01*
G01X350000Y-24040D02*
X353205Y-27245D01*
G01X418811Y531410D02*
X420708Y533307D01*
G01D02*
X422606Y535204D01*
G01X418811D02*
X420708Y533307D01*
G01D02*
X422606Y531410D01*
G01X403851D02*
X405748Y533307D01*
G01D02*
X407645Y535204D01*
G01X403851D02*
X405748Y533307D01*
G01D02*
X407645Y531410D01*
G01X388890D02*
X390787Y533307D01*
G01D02*
X392684Y535204D01*
G01X388890D02*
X390787Y533307D01*
G01D02*
X392684Y531410D01*
G01X373929D02*
X375827Y533307D01*
G01D02*
X377724Y535204D01*
G01X373929D02*
X375827Y533307D01*
G01D02*
X377724Y531410D01*
G01X358969D02*
X360866Y533307D01*
G01D02*
X362763Y535204D01*
G01X358969D02*
X360866Y533307D01*
G01D02*
X362763Y531410D01*
G01X366449Y504835D02*
X368346Y506732D01*
G01D02*
X370244Y508630D01*
G01X366449D02*
X368346Y506732D01*
G01D02*
X370244Y504835D01*
G01X381410D02*
X383307Y506732D01*
G01D02*
X385204Y508630D01*
G01X381410D02*
X383307Y506732D01*
G01D02*
X385204Y504835D01*
G01X396370D02*
X398268Y506732D01*
G01D02*
X400165Y508630D01*
G01X396370D02*
X398268Y506732D01*
G01D02*
X400165Y504835D01*
G01X418811Y515465D02*
X420708Y517362D01*
G01D02*
X422606Y519259D01*
G01X418811D02*
X420708Y517362D01*
G01D02*
X422606Y515465D01*
G01X403851D02*
X405748Y517362D01*
G01D02*
X407645Y519259D01*
G01X403851D02*
X405748Y517362D01*
G01D02*
X407645Y515465D01*
G01X388890D02*
X390787Y517362D01*
G01D02*
X392684Y519259D01*
G01X388890D02*
X390787Y517362D01*
G01D02*
X392684Y515465D01*
G01X411331Y520780D02*
X413228Y522677D01*
G01D02*
X415125Y524574D01*
G01X411331D02*
X413228Y522677D01*
G01D02*
X415125Y520780D01*
G01X396370D02*
X398268Y522677D01*
G01D02*
X400165Y524574D01*
G01X396370D02*
X398268Y522677D01*
G01D02*
X400165Y520780D01*
G01X381410D02*
X383307Y522677D01*
G01D02*
X385204Y524574D01*
G01X381410D02*
X383307Y522677D01*
G01D02*
X385204Y520780D01*
G01X411331Y504835D02*
X413228Y506732D01*
G01D02*
X415125Y508630D01*
G01X411331D02*
X413228Y506732D01*
G01D02*
X415125Y504835D01*
G01X418811D02*
X420708Y506732D01*
G01D02*
X422606Y508630D01*
G01X418811D02*
X420708Y506732D01*
G01D02*
X422606Y504835D01*
G54D14*
X86833Y419000D03*
X83424D03*
X85128Y417000D03*
X86833Y415095D03*
X83424D03*
X247833Y418500D03*
X244424D03*
X246128Y416500D03*
X247833Y414595D03*
X244424D03*
X442733Y419000D03*
X439324D03*
X441028Y417000D03*
X442733Y415095D03*
X439324D03*
X599528Y416500D03*
X601233Y414595D03*
Y418500D03*
X597824Y414595D03*
Y418500D03*
G54D24*
G01X19433Y-132500D02*
Y-122500D01*
X22767D01*
X24100Y-123000D01*
X25100Y-123667D01*
X25934Y-124666D01*
X26600Y-125834D01*
X26767Y-127500D01*
X26600Y-129167D01*
X25934Y-130334D01*
X25100Y-131334D01*
X24100Y-132000D01*
X22767Y-132500D01*
X19433D01*
G01X30433D02*
X34600Y-122500D01*
X38767Y-132500D01*
G01X37267Y-129000D02*
X31933D01*
G01X46100Y-122500D02*
Y-132500D01*
G01X42267Y-122500D02*
X49933D01*
G01X60933Y-132500D02*
X54267D01*
Y-122500D01*
X60933D01*
G01X58267Y-127333D02*
X54267D01*
G01X69100Y-132833D02*
X68767Y-132667D01*
Y-132333D01*
X69100Y-132167D01*
X69433Y-132333D01*
Y-132667D01*
X69100Y-132833D01*
G01Y-128334D02*
X68767Y-128167D01*
Y-127833D01*
X69100Y-127667D01*
X69433Y-127833D01*
Y-128167D01*
X69100Y-128334D01*
G01X80600Y-132500D02*
Y-122500D01*
X78600Y-124500D01*
G01Y-132500D02*
X82600D01*
G01X89933Y-129167D02*
X94267D01*
G01X103600Y-132500D02*
Y-122500D01*
X101600Y-124500D01*
G01Y-132500D02*
X105600D01*
G01X111433Y-130500D02*
X112433Y-131667D01*
X113766Y-132333D01*
X115267Y-132500D01*
X116600Y-132333D01*
X117934Y-131500D01*
X118767Y-130500D01*
X118933Y-129500D01*
X118600Y-128334D01*
X117433Y-127500D01*
X116267Y-127167D01*
X114767D01*
G01X116267D02*
X117267Y-126667D01*
X118100Y-125834D01*
X118433Y-124833D01*
X118100Y-123833D01*
X117267Y-123000D01*
X115767Y-122500D01*
X114267Y-122667D01*
X112767Y-123334D01*
G01X124433Y-129167D02*
X128767D01*
G01X134933Y-124167D02*
X135933Y-123167D01*
X137100Y-122667D01*
X138433Y-122500D01*
X140100Y-122833D01*
X141267Y-123667D01*
X141600Y-124666D01*
X141433Y-125667D01*
X140767Y-126500D01*
X137433Y-128167D01*
X135933Y-129333D01*
X134933Y-131000D01*
X134600Y-132500D01*
X141600D01*
G01X149600Y-122500D02*
X148266Y-122833D01*
X147267Y-123667D01*
X146600Y-124666D01*
X146100Y-126000D01*
X145933Y-127500D01*
X146100Y-129000D01*
X146600Y-130334D01*
X147267Y-131334D01*
X148266Y-132167D01*
X149600Y-132500D01*
X150933Y-132167D01*
X151933Y-131334D01*
X152600Y-130334D01*
X153100Y-129000D01*
X153267Y-127500D01*
X153100Y-126000D01*
X152600Y-124666D01*
X151933Y-123667D01*
X150933Y-122833D01*
X149600Y-122500D01*
G01X161100Y-132500D02*
Y-122500D01*
X159100Y-124500D01*
G01Y-132500D02*
X163100D01*
G01X172267D02*
X172600Y-130334D01*
X173100Y-128500D01*
X173767Y-126833D01*
X174600Y-125000D01*
X175933Y-122500D01*
X169267D01*
G01X19233Y-151700D02*
Y-141700D01*
X22567D01*
X23900Y-142200D01*
X24900Y-142867D01*
X25733Y-143866D01*
X26400Y-145034D01*
X26567Y-146700D01*
X26400Y-148367D01*
X25733Y-149534D01*
X24900Y-150534D01*
X23900Y-151200D01*
X22567Y-151700D01*
X19233D01*
G01X37733D02*
X31067D01*
Y-141700D01*
X37733D01*
G01X35067Y-146533D02*
X31067D01*
G01X42400Y-150367D02*
X43733Y-151200D01*
X45233Y-151700D01*
X46567D01*
X47900Y-151200D01*
X48900Y-150367D01*
X49400Y-149200D01*
X49067Y-148034D01*
X48233Y-147033D01*
X46733Y-146367D01*
X44733Y-146033D01*
X43567Y-145367D01*
X43066Y-144200D01*
X43400Y-143033D01*
X44233Y-142200D01*
X45400Y-141700D01*
X46567D01*
X47733Y-142033D01*
X48733Y-142867D01*
G01X55400Y-141700D02*
X59400D01*
G01X57400D02*
Y-151700D01*
G01X55400D02*
X59400D01*
G01X69900Y-146700D02*
X73234D01*
Y-149700D01*
X72233Y-150700D01*
X71067Y-151367D01*
X69400Y-151700D01*
X67733Y-151367D01*
X66567Y-150700D01*
X65567Y-149700D01*
X64900Y-148533D01*
X64566Y-147200D01*
Y-146033D01*
X64900Y-145034D01*
X65567Y-143866D01*
X66567Y-142867D01*
X67566Y-142200D01*
X68900Y-141700D01*
X70067D01*
X71400Y-142033D01*
X72400Y-142700D01*
G01X76567Y-151700D02*
Y-141700D01*
X84233Y-151700D01*
Y-141700D01*
G01X95233Y-151700D02*
X88567D01*
Y-141700D01*
X95233D01*
G01X92567Y-146533D02*
X88567D01*
G01X99733Y-151700D02*
Y-141700D01*
X103067D01*
X104400Y-142200D01*
X105400Y-142867D01*
X106234Y-143866D01*
X106900Y-145034D01*
X107067Y-146700D01*
X106900Y-148367D01*
X106234Y-149534D01*
X105400Y-150534D01*
X104400Y-151200D01*
X103067Y-151700D01*
X99733D01*
G01X122233D02*
X126400Y-141700D01*
X130567Y-151700D01*
G01X129067Y-148200D02*
X123733D01*
G01X137900Y-141700D02*
Y-151700D01*
G01X134067Y-141700D02*
X141733D01*
G01X149400Y-152033D02*
X149067Y-151867D01*
Y-151533D01*
X149400Y-151367D01*
X149733Y-151533D01*
Y-151867D01*
X149400Y-152033D01*
G01Y-147534D02*
X149067Y-147367D01*
Y-147033D01*
X149400Y-146867D01*
X149733Y-147033D01*
Y-147367D01*
X149400Y-147534D01*
G01X17433Y-192300D02*
Y-182300D01*
X23767D01*
G01X21433Y-187133D02*
X17433D01*
G01X30100Y-182300D02*
X34100D01*
G01X32100D02*
Y-192300D01*
G01X30100D02*
X34100D01*
G01X40267Y-182300D02*
Y-192300D01*
X46933D01*
G01X50766D02*
Y-182300D01*
X55100Y-190633D01*
X59434Y-182300D01*
Y-192300D01*
G01X74767Y-182300D02*
Y-192300D01*
X81433D01*
G01X85433D02*
X89600Y-182300D01*
X93767Y-192300D01*
G01X92267Y-188800D02*
X86933D01*
G01X101100Y-192300D02*
Y-187800D01*
X97767Y-182300D01*
G01X104433D02*
X101100Y-187800D01*
G01X115933Y-192300D02*
X109267D01*
Y-182300D01*
X115933D01*
G01X113267Y-187133D02*
X109267D01*
G01X120767Y-192300D02*
Y-182300D01*
X124933D01*
X126267Y-182800D01*
X127100Y-183467D01*
X127433Y-184800D01*
X127100Y-186133D01*
X126100Y-186967D01*
X124933Y-187467D01*
X120767D01*
G01X124933D02*
X127433Y-192300D01*
G01X135600Y-192633D02*
X135267Y-192467D01*
Y-192133D01*
X135600Y-191967D01*
X135933Y-192133D01*
Y-192467D01*
X135600Y-192633D01*
G01Y-188134D02*
X135267Y-187967D01*
Y-187633D01*
X135600Y-187467D01*
X135933Y-187633D01*
Y-187967D01*
X135600Y-188134D01*
G01X26567Y-162534D02*
X25567Y-162033D01*
X24400Y-161700D01*
X23067D01*
X21566Y-162200D01*
X20400Y-163033D01*
X19567Y-164033D01*
X18900Y-165700D01*
X18733Y-167200D01*
X19067Y-168700D01*
X19567Y-169700D01*
X20567Y-170700D01*
X21733Y-171367D01*
X22900Y-171700D01*
X24067D01*
X25233Y-171367D01*
X26233Y-170867D01*
X27067Y-170200D01*
G01X30233Y-171700D02*
X34400Y-161700D01*
X38567Y-171700D01*
G01X37067Y-168200D02*
X31733D01*
G01X42567Y-171700D02*
Y-161700D01*
X46733D01*
X48067Y-162200D01*
X48900Y-162867D01*
X49233Y-164200D01*
X48900Y-165533D01*
X47900Y-166367D01*
X46733Y-166867D01*
X42567D01*
G01X46733D02*
X49233Y-171700D01*
G01X53733D02*
Y-161700D01*
X57067D01*
X58400Y-162200D01*
X59400Y-162867D01*
X60234Y-163866D01*
X60900Y-165034D01*
X61067Y-166700D01*
X60900Y-168367D01*
X60234Y-169534D01*
X59400Y-170534D01*
X58400Y-171200D01*
X57067Y-171700D01*
X53733D01*
G01X77067D02*
Y-161700D01*
X81233D01*
X82567Y-162200D01*
X83400Y-162867D01*
X83733Y-164200D01*
X83400Y-165533D01*
X82400Y-166367D01*
X81233Y-166867D01*
X77067D01*
G01X81233D02*
X83733Y-171700D01*
G01X95233D02*
X88567D01*
Y-161700D01*
X95233D01*
G01X92567Y-166533D02*
X88567D01*
G01X100233Y-171700D02*
Y-161700D01*
X106567D01*
G01X104233Y-166533D02*
X100233D01*
G01X114900Y-172033D02*
X114567Y-171867D01*
Y-171533D01*
X114900Y-171367D01*
X115233Y-171533D01*
Y-171867D01*
X114900Y-172033D01*
G01Y-167534D02*
X114567Y-167367D01*
Y-167033D01*
X114900Y-166867D01*
X115233Y-167033D01*
Y-167367D01*
X114900Y-167534D01*
G01X126400Y-171700D02*
X125066Y-171533D01*
X123900Y-170867D01*
X122900Y-169867D01*
X122233Y-168700D01*
X121900Y-167367D01*
Y-166033D01*
X122233Y-164700D01*
X122900Y-163533D01*
X123900Y-162534D01*
X125066Y-161867D01*
X126400Y-161700D01*
X127733Y-161867D01*
X128900Y-162534D01*
X129900Y-163533D01*
X130567Y-164700D01*
X130900Y-166033D01*
Y-167367D01*
X130567Y-168700D01*
X129900Y-169867D01*
X128900Y-170867D01*
X127733Y-171533D01*
X126400Y-171700D01*
G01X134900Y-175033D02*
Y-165034D01*
G01Y-166533D02*
X135733Y-165700D01*
X136566Y-165200D01*
X137900Y-165034D01*
X139067Y-165200D01*
X140233Y-166033D01*
X140734Y-167200D01*
X140900Y-168367D01*
X140734Y-169534D01*
X140233Y-170700D01*
X139233Y-171367D01*
X137900Y-171700D01*
X136733Y-171533D01*
X135567Y-171034D01*
X134900Y-170367D01*
G01X146900Y-167200D02*
X152234D01*
X151733Y-166033D01*
X150900Y-165367D01*
X149733Y-165034D01*
X148567Y-165200D01*
X147567Y-165700D01*
X146900Y-166867D01*
X146566Y-167867D01*
Y-168867D01*
X146900Y-169867D01*
X147733Y-170867D01*
X148733Y-171533D01*
X149900Y-171700D01*
X151067Y-171367D01*
X152234Y-170367D01*
G01X158066Y-171700D02*
Y-165034D01*
G01Y-166700D02*
X158733Y-165867D01*
X159733Y-165200D01*
X161067Y-165034D01*
X162233Y-165200D01*
X163233Y-165867D01*
X163734Y-167033D01*
Y-171700D01*
G01X176067Y-162534D02*
X175067Y-162033D01*
X173900Y-161700D01*
X172567D01*
X171066Y-162200D01*
X169900Y-163033D01*
X169067Y-164033D01*
X168400Y-165700D01*
X168233Y-167200D01*
X168567Y-168700D01*
X169067Y-169700D01*
X170067Y-170700D01*
X171233Y-171367D01*
X172400Y-171700D01*
X173567D01*
X174733Y-171367D01*
X175733Y-170867D01*
X176567Y-170200D01*
G01X181400Y-167200D02*
X186734D01*
X186233Y-166033D01*
X185400Y-165367D01*
X184233Y-165034D01*
X183067Y-165200D01*
X182067Y-165700D01*
X181400Y-166867D01*
X181066Y-167867D01*
Y-168867D01*
X181400Y-169867D01*
X182233Y-170867D01*
X183233Y-171533D01*
X184400Y-171700D01*
X185567Y-171367D01*
X186734Y-170367D01*
G01X195400Y-171700D02*
Y-161700D01*
G01X206900Y-171700D02*
Y-161700D01*
G01X215566Y-165034D02*
Y-169700D01*
X216233Y-170867D01*
X217233Y-171533D01*
X218400Y-171700D01*
X219567Y-171533D01*
X220567Y-170867D01*
X221234Y-169700D01*
G01Y-171700D02*
Y-165034D01*
G01X229900Y-171700D02*
Y-161700D01*
G01X244400Y-171700D02*
Y-165034D01*
G01Y-166200D02*
X243733Y-165533D01*
X242733Y-165200D01*
X241567Y-165034D01*
X240400Y-165367D01*
X239400Y-166033D01*
X238733Y-167033D01*
X238400Y-168367D01*
X238733Y-169700D01*
X239400Y-170700D01*
X240400Y-171367D01*
X241567Y-171700D01*
X242733Y-171533D01*
X243733Y-171034D01*
X244400Y-170367D01*
G01X250567Y-171700D02*
Y-165034D01*
G01Y-166367D02*
X251400Y-165700D01*
X252233Y-165200D01*
X253400Y-165034D01*
X254233Y-165200D01*
X255233Y-165700D01*
G01X275900Y-171700D02*
Y-161700D01*
G01X291067Y-162534D02*
X290067Y-162033D01*
X288900Y-161700D01*
X287567D01*
X286066Y-162200D01*
X284900Y-163033D01*
X284067Y-164033D01*
X283400Y-165700D01*
X283233Y-167200D01*
X283567Y-168700D01*
X284067Y-169700D01*
X285067Y-170700D01*
X286233Y-171367D01*
X287400Y-171700D01*
X288567D01*
X289733Y-171367D01*
X290733Y-170867D01*
X291567Y-170200D01*
G01X298900Y-171700D02*
X297900Y-171533D01*
X296900Y-170867D01*
X296233Y-169700D01*
X295900Y-168367D01*
X296233Y-167033D01*
X296900Y-165867D01*
X297900Y-165200D01*
X298900Y-165034D01*
X299900Y-165200D01*
X300900Y-165867D01*
X301567Y-167033D01*
X301734Y-168367D01*
X301567Y-169700D01*
X300900Y-170867D01*
X299900Y-171533D01*
X298900Y-171700D01*
G01X307566D02*
Y-165034D01*
G01Y-166700D02*
X308233Y-165867D01*
X309233Y-165200D01*
X310567Y-165034D01*
X311733Y-165200D01*
X312733Y-165867D01*
X313234Y-167033D01*
Y-171700D01*
G01X319066D02*
Y-165034D01*
G01Y-166700D02*
X319733Y-165867D01*
X320733Y-165200D01*
X322067Y-165034D01*
X323233Y-165200D01*
X324233Y-165867D01*
X324734Y-167033D01*
Y-171700D01*
G01X330900Y-167200D02*
X336234D01*
X335733Y-166033D01*
X334900Y-165367D01*
X333733Y-165034D01*
X332567Y-165200D01*
X331567Y-165700D01*
X330900Y-166867D01*
X330566Y-167867D01*
Y-168867D01*
X330900Y-169867D01*
X331733Y-170867D01*
X332733Y-171533D01*
X333900Y-171700D01*
X335067Y-171367D01*
X336234Y-170367D01*
G01X347567Y-165867D02*
X346400Y-165200D01*
X345400Y-165034D01*
X344067Y-165367D01*
X343067Y-166033D01*
X342400Y-167200D01*
X342233Y-168367D01*
X342400Y-169534D01*
X343067Y-170534D01*
X344067Y-171367D01*
X345400Y-171700D01*
X346567Y-171367D01*
X347567Y-170700D01*
G01X356400Y-161700D02*
Y-171700D01*
G01X354067Y-165034D02*
X358733D01*
G01X365733Y-168367D02*
X370067D01*
G01X379400Y-171700D02*
Y-161700D01*
X377400Y-163700D01*
G01Y-171700D02*
X381400D01*
G01X402400D02*
Y-161700D01*
G01X410733Y-171700D02*
Y-161700D01*
X417067D01*
G01X414733Y-166533D02*
X410733D01*
G01X422067Y-171700D02*
Y-161700D01*
X426233D01*
X427567Y-162200D01*
X428400Y-162867D01*
X428733Y-164200D01*
X428400Y-165533D01*
X427400Y-166367D01*
X426233Y-166867D01*
X422067D01*
G01X426233D02*
X428733Y-171700D01*
G01X436900D02*
X435566Y-171533D01*
X434400Y-170867D01*
X433400Y-169867D01*
X432733Y-168700D01*
X432400Y-167367D01*
Y-166033D01*
X432733Y-164700D01*
X433400Y-163533D01*
X434400Y-162534D01*
X435566Y-161867D01*
X436900Y-161700D01*
X438233Y-161867D01*
X439400Y-162534D01*
X440400Y-163533D01*
X441067Y-164700D01*
X441400Y-166033D01*
Y-167367D01*
X441067Y-168700D01*
X440400Y-169867D01*
X439400Y-170867D01*
X438233Y-171533D01*
X436900Y-171700D01*
G01X444567D02*
Y-161700D01*
X452233Y-171700D01*
Y-161700D01*
G01X459900D02*
Y-171700D01*
G01X456067Y-161700D02*
X463733D01*
G01X474733Y-171700D02*
X468067D01*
Y-161700D01*
X474733D01*
G01X472067Y-166533D02*
X468067D01*
G01X479067Y-171700D02*
Y-161700D01*
X486733Y-171700D01*
Y-161700D01*
G01X490733Y-171700D02*
Y-161700D01*
X494067D01*
X495400Y-162200D01*
X496400Y-162867D01*
X497234Y-163866D01*
X497900Y-165034D01*
X498067Y-166700D01*
X497900Y-168367D01*
X497234Y-169534D01*
X496400Y-170534D01*
X495400Y-171200D01*
X494067Y-171700D01*
X490733D01*
G01X518733Y-166367D02*
X519400Y-165867D01*
X519900Y-165034D01*
X520234Y-163866D01*
X519900Y-162867D01*
X519233Y-162200D01*
X518067Y-161700D01*
X513567D01*
Y-171700D01*
X519067D01*
X520234Y-171034D01*
X520900Y-170033D01*
X521233Y-168867D01*
X520900Y-167700D01*
X519900Y-166700D01*
X518733Y-166367D01*
X513567D01*
G01X528900Y-171700D02*
X527900Y-171533D01*
X526900Y-170867D01*
X526233Y-169700D01*
X525900Y-168367D01*
X526233Y-167033D01*
X526900Y-165867D01*
X527900Y-165200D01*
X528900Y-165034D01*
X529900Y-165200D01*
X530900Y-165867D01*
X531567Y-167033D01*
X531734Y-168367D01*
X531567Y-169700D01*
X530900Y-170867D01*
X529900Y-171533D01*
X528900Y-171700D01*
G01X543400D02*
Y-165034D01*
G01Y-166200D02*
X542733Y-165533D01*
X541733Y-165200D01*
X540567Y-165034D01*
X539400Y-165367D01*
X538400Y-166033D01*
X537733Y-167033D01*
X537400Y-168367D01*
X537733Y-169700D01*
X538400Y-170700D01*
X539400Y-171367D01*
X540567Y-171700D01*
X541733Y-171533D01*
X542733Y-171034D01*
X543400Y-170367D01*
G01X549567Y-171700D02*
Y-165034D01*
G01Y-166367D02*
X550400Y-165700D01*
X551233Y-165200D01*
X552400Y-165034D01*
X553233Y-165200D01*
X554233Y-165700D01*
G01X566400Y-161700D02*
Y-171700D01*
G01Y-170200D02*
X565733Y-171034D01*
X564733Y-171533D01*
X563567Y-171700D01*
X562233Y-171367D01*
X561233Y-170534D01*
X560566Y-169534D01*
X560400Y-168367D01*
X560566Y-167200D01*
X561233Y-166200D01*
X562233Y-165367D01*
X563567Y-165034D01*
X564733Y-165200D01*
X565567Y-165533D01*
X566400Y-166200D01*
G01X446000Y-50000D02*
X450000Y-46000D01*
Y-4000D01*
X454000Y0D01*
X696000D01*
X700000Y4000D01*
Y566000D01*
X696000Y570000D01*
X439000D01*
X435000Y566000D01*
Y544000D01*
X431000Y540000D01*
X269000D01*
X265000Y544000D01*
Y566000D01*
X261000Y570000D01*
X4000D01*
X0Y566000D01*
Y4000D01*
X4000Y0D01*
X246000D01*
X250000Y-4000D01*
Y-46000D01*
X254000Y-50000D01*
X446000D01*
G01X155067Y-184000D02*
Y-194000D01*
X161733D01*
G01X165733D02*
X169900Y-184000D01*
X174067Y-194000D01*
G01X172567Y-190500D02*
X167233D01*
G01X181400Y-194000D02*
Y-189500D01*
X178067Y-184000D01*
G01X184733D02*
X181400Y-189500D01*
G01X196233Y-194000D02*
X189567D01*
Y-184000D01*
X196233D01*
G01X193567Y-188833D02*
X189567D01*
G01X201067Y-194000D02*
Y-184000D01*
X205233D01*
X206567Y-184500D01*
X207400Y-185167D01*
X207733Y-186500D01*
X207400Y-187833D01*
X206400Y-188667D01*
X205233Y-189167D01*
X201067D01*
G01X205233D02*
X207733Y-194000D01*
G01X212733Y-185667D02*
X213733Y-184667D01*
X214900Y-184167D01*
X216233Y-184000D01*
X217900Y-184333D01*
X219067Y-185167D01*
X219400Y-186166D01*
X219233Y-187167D01*
X218567Y-188000D01*
X215233Y-189667D01*
X213733Y-190833D01*
X212733Y-192500D01*
X212400Y-194000D01*
X219400D01*
G01X273767Y-132500D02*
Y-122500D01*
X277767D01*
X279100Y-123000D01*
X280100Y-124167D01*
X280433Y-125500D01*
X280100Y-126833D01*
X279267Y-127833D01*
X277767Y-128334D01*
X273767D01*
G01X284433Y-132500D02*
X288600Y-122500D01*
X292767Y-132500D01*
G01X291267Y-129000D02*
X285933D01*
G01X296767Y-132500D02*
Y-122500D01*
X300933D01*
X302267Y-123000D01*
X303100Y-123667D01*
X303433Y-125000D01*
X303100Y-126333D01*
X302100Y-127167D01*
X300933Y-127667D01*
X296767D01*
G01X300933D02*
X303433Y-132500D01*
G01X311600Y-122500D02*
Y-132500D01*
G01X307767Y-122500D02*
X315433D01*
G01X330767Y-132500D02*
Y-122500D01*
X338433Y-132500D01*
Y-122500D01*
G01X342433D02*
Y-129667D01*
X343100Y-131167D01*
X344433Y-132167D01*
X346100Y-132500D01*
X347767Y-132167D01*
X349100Y-131167D01*
X349767Y-129667D01*
Y-122500D01*
G01X353266Y-132500D02*
Y-122500D01*
X357600Y-130833D01*
X361934Y-122500D01*
Y-132500D01*
G01X370433Y-127167D02*
X371100Y-126667D01*
X371600Y-125834D01*
X371934Y-124666D01*
X371600Y-123667D01*
X370933Y-123000D01*
X369767Y-122500D01*
X365267D01*
Y-132500D01*
X370767D01*
X371934Y-131834D01*
X372600Y-130833D01*
X372933Y-129667D01*
X372600Y-128500D01*
X371600Y-127500D01*
X370433Y-127167D01*
X365267D01*
G01X383933Y-132500D02*
X377267D01*
Y-122500D01*
X383933D01*
G01X381267Y-127333D02*
X377267D01*
G01X388767Y-132500D02*
Y-122500D01*
X392933D01*
X394267Y-123000D01*
X395100Y-123667D01*
X395433Y-125000D01*
X395100Y-126333D01*
X394100Y-127167D01*
X392933Y-127667D01*
X388767D01*
G01X392933D02*
X395433Y-132500D01*
G01X403600Y-132833D02*
X403267Y-132667D01*
Y-132333D01*
X403600Y-132167D01*
X403933Y-132333D01*
Y-132667D01*
X403600Y-132833D01*
G01Y-128334D02*
X403267Y-128167D01*
Y-127833D01*
X403600Y-127667D01*
X403933Y-127833D01*
Y-128167D01*
X403600Y-128334D01*
G01X411933Y-124167D02*
X412933Y-123167D01*
X414100Y-122667D01*
X415433Y-122500D01*
X417100Y-122833D01*
X418267Y-123667D01*
X418600Y-124666D01*
X418433Y-125667D01*
X417767Y-126500D01*
X414433Y-128167D01*
X412933Y-129333D01*
X411933Y-131000D01*
X411600Y-132500D01*
X418600D01*
G01X422933Y-130500D02*
X423933Y-131667D01*
X425267Y-132333D01*
X426767Y-132500D01*
X428100Y-132333D01*
X429434Y-131500D01*
X430267Y-130500D01*
X430433Y-129500D01*
X430100Y-128334D01*
X428933Y-127500D01*
X427767Y-127167D01*
X426267D01*
G01X427767D02*
X428767Y-126667D01*
X429600Y-125834D01*
X429933Y-124833D01*
X429600Y-123833D01*
X428767Y-123000D01*
X427267Y-122500D01*
X425767Y-122667D01*
X424267Y-123334D01*
G01X438100Y-132500D02*
Y-122500D01*
X436100Y-124500D01*
G01Y-132500D02*
X440100D01*
G01X447433Y-129167D02*
X451767D01*
G01X461100Y-122500D02*
X459766Y-122833D01*
X458767Y-123667D01*
X458100Y-124666D01*
X457600Y-126000D01*
X457433Y-127500D01*
X457600Y-129000D01*
X458100Y-130334D01*
X458767Y-131334D01*
X459766Y-132167D01*
X461100Y-132500D01*
X462433Y-132167D01*
X463433Y-131334D01*
X464100Y-130334D01*
X464600Y-129000D01*
X464767Y-127500D01*
X464600Y-126000D01*
X464100Y-124666D01*
X463433Y-123667D01*
X462433Y-122833D01*
X461100Y-122500D01*
G01X472600D02*
X471267Y-122833D01*
X470267Y-123667D01*
X469600Y-124666D01*
X469100Y-126000D01*
X468933Y-127500D01*
X469100Y-129000D01*
X469600Y-130334D01*
X470267Y-131334D01*
X471267Y-132167D01*
X472600Y-132500D01*
X473933Y-132167D01*
X474933Y-131334D01*
X475600Y-130334D01*
X476100Y-129000D01*
X476267Y-127500D01*
X476100Y-126000D01*
X475600Y-124666D01*
X474933Y-123667D01*
X473933Y-122833D01*
X472600Y-122500D01*
G01X484100D02*
X482766Y-122833D01*
X481767Y-123667D01*
X481100Y-124666D01*
X480600Y-126000D01*
X480433Y-127500D01*
X480600Y-129000D01*
X481100Y-130334D01*
X481767Y-131334D01*
X482766Y-132167D01*
X484100Y-132500D01*
X485433Y-132167D01*
X486433Y-131334D01*
X487100Y-130334D01*
X487600Y-129000D01*
X487767Y-127500D01*
X487600Y-126000D01*
X487100Y-124666D01*
X486433Y-123667D01*
X485433Y-122833D01*
X484100Y-122500D01*
G01X495600D02*
X494266Y-122833D01*
X493267Y-123667D01*
X492600Y-124666D01*
X492100Y-126000D01*
X491933Y-127500D01*
X492100Y-129000D01*
X492600Y-130334D01*
X493267Y-131334D01*
X494266Y-132167D01*
X495600Y-132500D01*
X496933Y-132167D01*
X497933Y-131334D01*
X498600Y-130334D01*
X499100Y-129000D01*
X499267Y-127500D01*
X499100Y-126000D01*
X498600Y-124666D01*
X497933Y-123667D01*
X496933Y-122833D01*
X495600Y-122500D01*
G01X507100Y-132500D02*
X508267Y-132333D01*
X509600Y-131834D01*
X510433Y-131000D01*
X510767Y-129833D01*
X510433Y-128667D01*
X509433Y-127667D01*
X507933Y-127167D01*
X506267D01*
X505267Y-126833D01*
X504433Y-126000D01*
X504100Y-124833D01*
X504600Y-123667D01*
X505766Y-122833D01*
X507100Y-122500D01*
X508433Y-122833D01*
X509600Y-123667D01*
X510100Y-124833D01*
X509767Y-126000D01*
X508933Y-126833D01*
X507933Y-127167D01*
X506267D01*
X504767Y-127667D01*
X503767Y-128667D01*
X503433Y-129833D01*
X503767Y-131000D01*
X504600Y-131834D01*
X505933Y-132333D01*
X507100Y-132500D01*
G01X514933Y-131000D02*
X515933Y-131834D01*
X517100Y-132333D01*
X518600Y-132500D01*
X520100Y-132167D01*
X521267Y-131500D01*
X522100Y-130334D01*
X522267Y-129000D01*
X521933Y-127667D01*
X521100Y-126833D01*
X519933Y-126167D01*
X518767Y-126000D01*
X517600Y-126167D01*
X516100Y-126833D01*
X516600Y-122500D01*
X521100D01*
G01X645867Y-163300D02*
Y-173300D01*
X652533D01*
G01X660700Y-166634D02*
Y-173300D01*
G01Y-163967D02*
X660367Y-163800D01*
Y-163467D01*
X660700Y-163300D01*
X661033Y-163467D01*
Y-163800D01*
X660700Y-163967D01*
G01X671200Y-173300D02*
Y-164800D01*
X671533Y-163967D01*
X672200Y-163467D01*
X673200Y-163300D01*
X674200Y-163633D01*
X674700Y-164467D01*
G01X672700Y-167300D02*
X669366D01*
G01X681200Y-168800D02*
X686534D01*
X686033Y-167633D01*
X685200Y-166967D01*
X684033Y-166634D01*
X682867Y-166800D01*
X681867Y-167300D01*
X681200Y-168467D01*
X680866Y-169467D01*
Y-170467D01*
X681200Y-171467D01*
X682033Y-172467D01*
X683033Y-173133D01*
X684200Y-173300D01*
X685367Y-172967D01*
X686534Y-171967D01*
G01X693033Y-169967D02*
X697367D01*
G01X703033Y-171300D02*
X704033Y-172467D01*
X705366Y-173133D01*
X706867Y-173300D01*
X708200Y-173133D01*
X709534Y-172300D01*
X710367Y-171300D01*
X710533Y-170300D01*
X710200Y-169134D01*
X709033Y-168300D01*
X707867Y-167967D01*
X706367D01*
G01X707867D02*
X708867Y-167467D01*
X709700Y-166634D01*
X710033Y-165633D01*
X709700Y-164633D01*
X708867Y-163800D01*
X707367Y-163300D01*
X705867Y-163467D01*
X704367Y-164134D01*
G54D15*
X217000Y140000D03*
Y120000D03*
X237000Y140000D03*
Y120000D03*
X575000Y140000D03*
X555000D03*
X575000Y120000D03*
X555000D03*
G54D16*
X135200Y425344D03*
G54D17*
X179032Y484531D03*
Y488468D03*
X182968Y484531D03*
Y488468D03*
G54D18*
X350000Y-24040D03*
G54D19*
X308504Y527992D03*
Y522677D03*
Y506732D03*
Y533307D03*
X315984Y517362D03*
Y533307D03*
X323464Y506732D03*
Y522677D03*
Y527992D03*
X330945D03*
Y533307D03*
X338425Y506732D03*
Y522677D03*
X345905Y517362D03*
Y533307D03*
X360866D03*
X420708Y506732D03*
X413228D03*
X375827Y533307D03*
X390787D03*
X405748D03*
X420708D03*
X383307Y522677D03*
X398268D03*
X413228D03*
X390787Y517362D03*
X405748D03*
X420708D03*
X398268Y506732D03*
X383307D03*
X368346D03*
M02*
