G04 ================== begin FILE IDENTIFICATION RECORD ==================*
G04 Layout Name:  OC_CONNECT_1_FRONTEND_LIFE-3.brd*
G04 Film Name:    L8-SIG4*
G04 File Format:  Gerber RS274X*
G04 File Origin:  Cadence Allegro 16.6-P004*
G04 Origin Date:  Fri Jan 13 14:48:23 2017*
G04 *
G04 Layer:  DRAWING FORMAT/L8*
G04 Layer:  DRAWING FORMAT/FILM_LABEL_OUTLINE*
G04 Layer:  VIA CLASS/L8-SIG4*
G04 Layer:  PIN/L8-SIG4*
G04 Layer:  ETCH/L8-SIG4*
G04 Layer:  BOARD GEOMETRY/OUTLINE*
G04 *
G04 Offset:    (0.000 0.000)*
G04 Mirror:    No*
G04 Mode:      Positive*
G04 Rotation:  0*
G04 FullContactRelief:  No*
G04 UndefLineWidth:     6.000*
G04 ================== end FILE IDENTIFICATION RECORD ====================*
%FSLAX25Y25*MOIN*%
%IR0*IPPOS*OFA0.00000B0.00000*MIA0B0*SFA1.00000B1.00000*%
%ADD10C,.314961*%
%ADD13C,.02*%
%ADD11C,.022*%
%ADD12C,.016*%
%ADD19C,.028*%
%ADD18C,.065*%
%ADD17C,.023622*%
%ADD14C,.0197*%
%ADD16C,.07874*%
%ADD15C,.082677*%
%ADD20C,.005*%
%ADD21C,.01*%
%ADD22C,.04*%
%ADD23C,.05*%
%ADD24C,.025*%
%ADD25C,.006*%
%ADD37C,.18961*%
%ADD42R,.122004X.099318*%
%ADD40R,.125004X.120004*%
%ADD32R,.126004X.120004*%
%ADD29R,.124004X.131004*%
%ADD30R,.124422X.120004*%
%ADD41R,.123004X.120318*%
%ADD33R,.130004X.166004*%
%ADD38C,.044004*%
%ADD28C,.062004*%
%ADD27C,.026004*%
%ADD39C,.081004*%
%ADD35R,.126004X.168004*%
%ADD26C,.038004*%
%ADD44R,.167004X.195004*%
%ADD45R,.131784X.145004*%
%ADD34R,.168004X.195004*%
%ADD43R,.123284X.169004*%
%ADD31C,.094744*%
%ADD36C,.098682*%
G75*
%LPD*%
G75*
G36*
G01X445170Y-47990D02*
X254880D01*
X252050Y-45160D01*
Y-3090D01*
X246960Y2000D01*
X4829D01*
X2000Y4829D01*
Y565171D01*
X4829Y568000D01*
X260171D01*
X263000Y565171D01*
Y543171D01*
X268171Y538000D01*
X431829D01*
X437000Y543171D01*
Y565171D01*
X439829Y568000D01*
X695171D01*
X698000Y565171D01*
Y4829D01*
X695171Y2000D01*
X453060D01*
X447930Y-3130D01*
Y-45230D01*
X445170Y-47990D01*
G37*
%LPC*%
G75*
G36*
G01X158746Y464733D02*
G03X159354I304J260D01*
G02Y462267I1446J-1233D01*
G03X158746I-304J-260D01*
G02Y464733I-1446J1233D01*
G37*
G36*
G01X526750Y262818D02*
X538300Y251268D01*
Y198032D01*
X535969Y195701D01*
X532669D01*
X532345Y195377D01*
G03X532658Y194695I283J-283D01*
G02X534033Y191354I142J-1895D01*
G03Y190746I260J-304D01*
G02X531567I-1233J-1446D01*
G03Y191354I-260J304D01*
G02X530995Y193394I1233J1446D01*
G01X531043Y193538D01*
X530722Y193754D01*
X530496Y193528D01*
G02X528644Y195300I-1896J-128D01*
G01X528730Y195298D01*
X531633Y198201D01*
X534933D01*
X535800Y199068D01*
Y250232D01*
X525400Y260632D01*
X520150Y255382D01*
Y234282D01*
X511250Y225382D01*
Y220782D01*
X494018Y203550D01*
X487158D01*
X487133Y203543D01*
G02Y206057I-333J1257D01*
G01X487158Y206050D01*
X492982D01*
X508750Y221818D01*
Y226418D01*
X517650Y235318D01*
Y256418D01*
X522950Y261718D01*
Y303882D01*
X521572Y305260D01*
X499752D01*
X491162Y313850D01*
X480858D01*
X480833Y313843D01*
G02X479376Y314447I-333J1257D01*
G01X479363Y314469D01*
X476692Y317140D01*
Y330676D01*
G03X476102Y331028I-400J0D01*
G02Y334372I-902J1672D01*
G03X476692Y334724I190J352D01*
G01Y336700D01*
X476685Y336725D01*
G02X479199I1257J333D01*
G01X479192Y336700D01*
Y318176D01*
X481018Y316350D01*
X492198D01*
X492308Y316240D01*
G03X492650Y316381I141J141D01*
G01Y345274D01*
G03X492073Y345633I-400J0D01*
G02Y347967I-573J1167D01*
G03X492650Y348326I176J359D01*
G01Y348774D01*
G03X492073Y349133I-400J0D01*
G02Y351467I-573J1167D01*
G03X492650Y351826I176J359D01*
G01Y352274D01*
G03X492073Y352633I-400J0D01*
G02Y354967I-573J1167D01*
G03X492650Y355326I176J359D01*
G01Y355774D01*
G03X492073Y356133I-400J0D01*
G02Y358467I-573J1167D01*
G03X492650Y358826I176J359D01*
G01Y359274D01*
G03X492073Y359633I-400J0D01*
G02Y361967I-573J1167D01*
G03X492650Y362326I176J359D01*
G01Y363880D01*
X479618Y376913D01*
G02X481373Y378703I632J1137D01*
G01X481386Y378680D01*
X495150Y364916D01*
Y342982D01*
G03X495609Y342586I400J0D01*
G02Y340014I191J-1286D01*
G03X495150Y339618I-59J-396D01*
G01Y316428D01*
X502218Y309360D01*
X523708D01*
X526750Y306318D01*
Y304685D01*
G03X527375Y304354I400J0D01*
G02X528500Y304700I1125J-1654D01*
G01X530000D01*
Y317728D01*
X531500Y319228D01*
Y319749D01*
X531271D01*
G02Y323749I0J2000D01*
G01X533280D01*
X534914Y322114D01*
G02X535500Y320700I-1414J-1414D01*
G01Y317572D01*
X534000Y316072D01*
Y302700D01*
G02X532000Y300700I-2000J0D01*
G01X528500D01*
G02X527375Y301046I0J2000D01*
G03X526750Y300715I-225J-331D01*
G01Y262818D01*
G37*
G36*
G01X313202Y363924D02*
X301717D01*
G02Y367924I0J2000D01*
G01X311545D01*
X318628Y375007D01*
G03X318345Y375690I-283J283D01*
G01X305679D01*
X305202Y376166D01*
G03X304520Y375874I-283J-283D01*
G02X303193Y377642I-1900J-44D01*
G01X303309Y377605D01*
X303536Y377832D01*
X303320Y378049D01*
Y390781D01*
X317967Y405428D01*
X329307D01*
X334009Y410130D01*
X345556D01*
X365006Y390680D01*
Y383905D01*
X357549Y376448D01*
X352731D01*
X334728Y394451D01*
X334029D01*
G03X333747Y393768I0J-400D01*
G01X335140Y392375D01*
Y385451D01*
X334836Y385148D01*
Y381230D01*
G03X335437Y380884I400J0D01*
G02X337836Y380473I953J-1644D01*
G03X338444I304J260D01*
G02X341216Y380601I1446J-1233D01*
G03X341769Y380595I279J286D01*
G02X341744Y377849I1301J-1385D01*
G03X341191Y377855I-279J-286D01*
G02X338444Y378007I-1301J1385D01*
G03X337836I-304J-260D01*
G02X334728Y378319I-1446J1233D01*
G03X334121Y378431I-350J-194D01*
G02X331474Y378500I-1285J1533D01*
G03X330801Y378207I-272J-293D01*
G01Y377804D01*
X335395Y373210D01*
X340132D01*
X341322Y374400D01*
X344450D01*
G02X346450Y372400I0J-2000D01*
G01Y368900D01*
G02X342450I-2000J0D01*
G01Y368905D01*
G03X341790Y369210I-400J0D01*
G01X333738D01*
X326801Y376146D01*
Y376556D01*
G03X326118Y376839I-400J0D01*
G01X313202Y363924D01*
G37*
G36*
G01X527265Y511889D02*
G03X527239Y511298I256J-308D01*
G02X524685Y511411I-1339J-1348D01*
G03X524711Y512002I-256J308D01*
G02X527265Y511889I1339J1348D01*
G37*
G36*
G01X568785Y483783D02*
X572575D01*
X572600Y483790D01*
G02Y481276I333J-1257D01*
G01X572575Y481283D01*
X567749D01*
X562482Y486550D01*
X552531D01*
G02Y489050I-1431J1250D01*
G01X563518D01*
X568785Y483783D01*
G37*
G36*
G01X119733Y459154D02*
G03Y458546I260J-304D01*
G02X117267I-1233J-1446D01*
G03Y459154I-260J304D01*
G02X119733I1233J1446D01*
G37*
G36*
G01X532505Y346421D02*
G03X532523Y345864I296J-269D01*
G02X529795Y345779I-1323J-1364D01*
G03X529777Y346336I-296J269D01*
G02X530456Y349488I1323J1364D01*
G03X530700Y349992I-136J376D01*
G02X533144Y348812I1800J608D01*
G03X532900Y348308I136J-376D01*
G02X532505Y346421I-1800J-608D01*
G37*
G36*
G01X137733Y323080D02*
G03X137142Y323062I-288J-278D01*
G02X137067Y325620I-1442J1238D01*
G03X137658Y325638I288J278D01*
G02X137733Y323080I1442J-1238D01*
G37*
G36*
G01X185090Y312919D02*
X183864Y311693D01*
X183874Y311599D01*
G02X181935Y312599I-1294J-129D01*
G03X181918Y313302I-199J347D01*
G02X181760Y315522I592J1158D01*
G01Y316321D01*
X182560Y317121D01*
Y323105D01*
X161750Y343915D01*
Y349675D01*
X158170Y353255D01*
Y357395D01*
X154205Y361360D01*
Y379634D01*
X153623Y380216D01*
X153529Y380206D01*
G02X153257Y382792I-129J1294D01*
G03X153610Y383239I-44J398D01*
G02X156194Y383271I1290J161D01*
G01X156184Y383177D01*
X156746Y382615D01*
Y362355D01*
X160670Y358431D01*
Y354291D01*
X164250Y350711D01*
Y344951D01*
X185090Y324111D01*
Y312919D01*
G37*
G36*
G01X504623Y312584D02*
X506139Y314100D01*
X504323Y315916D01*
X504229Y315906D01*
G02X505394Y317071I-129J1294D01*
G01X505384Y316977D01*
X506781Y315580D01*
X509369D01*
X510135Y316346D01*
Y324296D01*
X516250Y330411D01*
Y334561D01*
X521650Y339961D01*
Y389511D01*
X540086Y407947D01*
X540076Y408041D01*
G02X541241Y406876I1294J129D01*
G01X541147Y406886D01*
X540448Y406187D01*
G03X540589Y405845I141J-141D01*
G01X540933D01*
G02Y404345I1062J-750D01*
G01X540020D01*
X524150Y388475D01*
Y338925D01*
X518750Y333525D01*
Y329375D01*
X512635Y323260D01*
Y315310D01*
X510405Y313080D01*
X507241D01*
X505684Y311523D01*
X505694Y311429D01*
G02X504529Y312594I-1294J-129D01*
G01X504623Y312584D01*
G37*
G36*
G01X397033Y307152D02*
X393535Y310650D01*
X380324D01*
X377437Y307763D01*
X377424Y307741D01*
G02X375647Y309518I-1124J653D01*
G01X375669Y309531D01*
X379288Y313150D01*
X394571D01*
X398801Y308920D01*
X398823Y308907D01*
G02X397046Y307130I-653J-1124D01*
G01X397033Y307152D01*
G37*
G36*
G01X287002Y221531D02*
G03X286359Y221513I-315J-246D01*
G02X286298Y223769I-1559J1087D01*
G03X286941Y223787I315J246D01*
G02X287002Y221531I1559J-1087D01*
G37*
G36*
G01X183761Y191374D02*
G03X183744Y190835I287J-279D01*
G02X180939Y190926I-1444J-1235D01*
G03X180956Y191465I-287J279D01*
G02X183761Y191374I1444J1235D01*
G37*
G36*
G01X554931Y164686D02*
G03X554396I-267J-298D01*
G02Y167514I-1269J1414D01*
G03X554931I267J298D01*
G02Y164686I1269J-1414D01*
G37*
G36*
G01X128652Y122161D02*
G02Y124039I-1652J939D01*
G03X129348I348J198D01*
G02Y122161I1652J-939D01*
G03X128652I-348J-198D01*
G37*
G36*
G01X485352Y122561D02*
G02Y124439I-1652J939D01*
G03X486048I348J198D01*
G02Y122561I1652J-939D01*
G03X485352I-348J-198D01*
G37*
G36*
G01X392552Y177461D02*
G02Y179339I-1652J939D01*
G03X393248I348J198D01*
G02Y177461I1652J-939D01*
G03X392552I-348J-198D01*
G37*
G36*
G01X411352Y215861D02*
G02X408761Y218452I-1652J939D01*
G03Y219148I-198J348D01*
G02X411352Y221739I939J1652D01*
G03X412048I348J198D01*
G02X415352I1652J-939D01*
G03X416048I348J198D01*
G02X419352I1652J-939D01*
G03X420048I348J198D01*
G02X423146Y222033I1652J-939D01*
G03X423754I304J260D01*
G02X426139Y219148I1446J-1233D01*
G03Y218452I198J-348D01*
G02X423754Y215567I-939J-1652D01*
G03X423146I-304J-260D01*
G02X420048Y215861I-1446J1233D01*
G03X419352I-348J-198D01*
G02X416048I-1652J939D01*
G03X415352I-348J-198D01*
G02X412048I-1652J939D01*
G03X411352I-348J-198D01*
G37*
G36*
G01X395812Y220847D02*
G02X394588I-612J-1147D01*
G03Y221553I-188J353D01*
G02Y223847I612J1147D01*
G03Y224553I-188J353D01*
G02X395812I612J1147D01*
G03Y223847I188J-353D01*
G02Y221553I-612J-1147D01*
G03Y220847I188J-353D01*
G37*
G36*
G01X399312D02*
G02X398088I-612J-1147D01*
G03Y221553I-188J353D01*
G02Y223847I612J1147D01*
G03Y224553I-188J353D01*
G02X399312I612J1147D01*
G03Y223847I188J-353D01*
G02Y221553I-612J-1147D01*
G03Y220847I188J-353D01*
G37*
G36*
G01X675847Y228688D02*
G02Y229912I-1147J612D01*
G03X676553I353J188D01*
G02Y228688I1147J-612D01*
G03X675847I-353J-188D01*
G37*
G36*
G01X95019Y236036D02*
G02X92531Y236627I-1299J65D01*
G03X92261Y237177I-366J162D01*
G02X92601Y239740I309J1263D01*
G03X93011Y240154I10J400D01*
G02X95272Y241075I1299J46D01*
G03X95884Y241098I296J269D01*
G02X97267Y239050I1026J-798D01*
G03X97067Y238412I110J-385D01*
G02X95569Y236386I-1007J-822D01*
G03X95019Y236036I-151J-370D01*
G37*
G36*
G01X189447Y243688D02*
G02Y244912I-1147J612D01*
G03X190153I353J188D01*
G02Y243688I1147J-612D01*
G03X189447I-353J-188D01*
G37*
G36*
G01X156147Y244488D02*
G02Y245712I-1147J612D01*
G03X156853I353J188D01*
G02Y244488I1147J-612D01*
G03X156147I-353J-188D01*
G37*
G36*
G01X317147D02*
G02Y245712I-1147J612D01*
G03X317853I353J188D01*
G02Y244488I1147J-612D01*
G03X317147I-353J-188D01*
G37*
G36*
G01X76347Y246488D02*
G02Y247712I-1147J612D01*
G03X77053I353J188D01*
G02Y246488I1147J-612D01*
G03X76347I-353J-188D01*
G37*
G36*
G01X590847Y246888D02*
G02Y248112I-1147J612D01*
G03X591553I353J188D01*
G02Y246888I1147J-612D01*
G03X590847I-353J-188D01*
G37*
G36*
G01X189447Y247188D02*
G02Y248412I-1147J612D01*
G03X190153I353J188D01*
G02Y247188I1147J-612D01*
G03X189447I-353J-188D01*
G37*
G36*
G01X156147Y247988D02*
G02Y249212I-1147J612D01*
G03X156853I353J188D01*
G02Y247988I1147J-612D01*
G03X156147I-353J-188D01*
G37*
G36*
G01X317147D02*
G02Y249212I-1147J612D01*
G03X317853I353J188D01*
G02Y247988I1147J-612D01*
G03X317147I-353J-188D01*
G37*
G36*
G01X76347Y249988D02*
G02Y251212I-1147J612D01*
G03X77053I353J188D01*
G02Y249988I1147J-612D01*
G03X76347I-353J-188D01*
G37*
G36*
G01X590847Y250388D02*
G02Y251612I-1147J612D01*
G03X591553I353J188D01*
G02Y250388I1147J-612D01*
G03X590847I-353J-188D01*
G37*
G36*
G01X189447Y250688D02*
G02Y251912I-1147J612D01*
G03X190153I353J188D01*
G02Y250688I1147J-612D01*
G03X189447I-353J-188D01*
G37*
G36*
G01X156147Y251488D02*
G02Y252712I-1147J612D01*
G03X156853I353J188D01*
G02Y251488I1147J-612D01*
G03X156147I-353J-188D01*
G37*
G36*
G01X511973Y251366D02*
G02Y252834I-1073J734D01*
G03X512634I330J226D01*
G02Y251366I1073J-734D01*
G03X511973I-330J-226D01*
G37*
G36*
G01X76347Y253488D02*
G02Y254712I-1147J612D01*
G03X77053I353J188D01*
G02Y253488I1147J-612D01*
G03X76347I-353J-188D01*
G37*
G36*
G01X237347D02*
G02Y254712I-1147J612D01*
G03X238053I353J188D01*
G02Y253488I1147J-612D01*
G03X237347I-353J-188D01*
G37*
G36*
G01X590847Y253888D02*
G02Y255112I-1147J612D01*
G03X591553I353J188D01*
G02Y253888I1147J-612D01*
G03X590847I-353J-188D01*
G37*
G36*
G01X189447Y254188D02*
G02Y255412I-1147J612D01*
G03X190153I353J188D01*
G02Y254188I1147J-612D01*
G03X189447I-353J-188D01*
G37*
G36*
G01X156147Y254988D02*
G02Y256212I-1147J612D01*
G03X156853I353J188D01*
G02Y254988I1147J-612D01*
G03X156147I-353J-188D01*
G37*
G36*
G01X511973Y254866D02*
G02Y256334I-1073J734D01*
G03X512634I330J226D01*
G02Y254866I1073J-734D01*
G03X511973I-330J-226D01*
G37*
G36*
G01X76347Y256988D02*
G02Y258212I-1147J612D01*
G03X77053I353J188D01*
G02Y256988I1147J-612D01*
G03X76347I-353J-188D01*
G37*
G36*
G01X237347D02*
G02Y258212I-1147J612D01*
G03X238053I353J188D01*
G02Y256988I1147J-612D01*
G03X237347I-353J-188D01*
G37*
G36*
G01X590847Y257388D02*
G02Y258612I-1147J612D01*
G03X591553I353J188D01*
G02Y257388I1147J-612D01*
G03X590847I-353J-188D01*
G37*
G36*
G01X391547Y303788D02*
G02Y305012I-1147J612D01*
G03X392253I353J188D01*
G02Y303788I1147J-612D01*
G03X391547I-353J-188D01*
G37*
G36*
G01Y307088D02*
G02Y308312I-1147J612D01*
G03X392253I353J188D01*
G02Y307088I1147J-612D01*
G03X391547I-353J-188D01*
G37*
G36*
G01X29997Y377150D02*
G02X28150Y374342I-182J-1891D01*
G03X27455Y374352I-350J-193D01*
G02X27480Y376228I-1639J961D01*
G03X28176Y376219I350J193D01*
G02X28534Y376661I1639J-961D01*
G03X28367Y377343I-270J295D01*
G02X29721Y377795I333J1257D01*
G03X29997Y377150I314J-248D01*
G37*
G36*
G01X389811Y420838D02*
G02X388218Y421033I-921J-918D01*
G03X388191Y421733I-207J342D01*
G02X389090Y425520I899J1787D01*
G01X392272D01*
X396350Y429598D01*
Y431891D01*
X393529Y434713D01*
Y442960D01*
X396118Y445548D01*
Y448225D01*
X396113Y448246D01*
G02X399482Y450084I1955J424D01*
G01X400118Y449448D01*
Y444720D01*
G02X399532Y443306I-2000J0D01*
G01X397529Y441302D01*
Y441205D01*
G03X397978Y440808I400J0D01*
G02X398894Y438461I158J-1291D01*
G03X398906Y437803I233J-325D01*
G02X398921Y435648I-720J-1083D01*
G03X398864Y435035I226J-330D01*
G01X399765Y434134D01*
G02X400351Y432720I-1414J-1414D01*
G01Y427942D01*
X393929Y421520D01*
X390095D01*
G03X389811Y420838I0J-400D01*
G37*
G36*
G01X323274Y435696D02*
G02X319932Y435422I-1744J754D01*
G03X319282Y435453I-336J-216D01*
G02X319388Y437658I-1492J1177D01*
G03X320038Y437627I336J216D01*
G02X323090Y437535I1492J-1177D01*
G03X323786Y437604I328J228D01*
G02X327182Y437789I1744J-754D01*
G03X327878I348J198D01*
G02Y435911I1652J-939D01*
G03X327182I-348J-198D01*
G02X323970Y435765I-1652J939D01*
G03X323274Y435696I-328J-228D01*
G37*
G36*
G01X562836Y452403D02*
G02X561277Y452357I-749J-1063D01*
G03X561258Y452997I-249J313D01*
G02X562817Y453043I749J1063D01*
G03X562836Y452403I249J-313D01*
G37*
G36*
G01X566876Y492115D02*
G02X566582Y490744I924J-915D01*
G03X565924Y490885I-375J-140D01*
G02X566218Y492256I-924J915D01*
G03X566876Y492115I375J140D01*
G37*
G36*
G01X102632Y507931D02*
G02Y509809I-1652J939D01*
G03X103328I348J198D01*
G02Y507931I1652J-939D01*
G03X102632I-348J-198D01*
G37*
G36*
G01X135339Y511032D02*
G02X133984Y510985I-639J-1132D01*
G03X133961Y511668I-220J334D01*
G02X135316Y511715I639J1132D01*
G03X135339Y511032I220J-334D01*
G37*
G36*
G01X144482Y514056D02*
G02X142718I-882J-956D01*
G03X142447Y514750I-271J294D01*
G01X132482D01*
X127269Y519963D01*
X127247Y519976D01*
G02X129024Y521753I653J1124D01*
G01X129037Y521731D01*
X133518Y517250D01*
X147969D01*
G02Y514750I1431J-1250D01*
G01X144753D01*
G03X144482Y514056I0J-400D01*
G37*
G36*
G01X530106Y519512D02*
G02X528074Y519499I-1006J-1612D01*
G03X528070Y520175I-216J337D01*
G02X530102Y520188I1006J1612D01*
G03X530106Y519512I216J-337D01*
G37*
G36*
G01X161439Y524752D02*
G02X159561I-939J-1652D01*
G03Y525448I-198J348D01*
G02X161439I939J1652D01*
G03Y524752I198J-348D01*
G37*
G36*
G01X530006Y537190D02*
G02X528083Y537153I-930J-1657D01*
G03X528070Y537843I-209J341D01*
G02X529993Y537880I930J1657D01*
G03X530006Y537190I209J-341D01*
G37*
G36*
G01X115679Y545418D02*
G02X113801I-939J-1652D01*
G03Y546114I-198J348D01*
G02X115679I939J1652D01*
G03Y545418I198J-348D01*
G37*
G36*
G01X331743Y422014D02*
G03X331986Y421846I198J26D01*
G02X330565Y419575I432J-1851D01*
G03X330120Y419883I-390J-88D01*
G02X330175Y423639I-261J1882D01*
G03X330634Y424109I67J394D01*
G02X332184Y422596I1866J361D01*
G03X331725Y422126I-67J-394D01*
G02X331743Y422014I-1866J-361D01*
G37*
G36*
G01X371589Y426342D02*
G02X368998Y423751I-939J-1652D01*
G03X368302I-348J-198D01*
G02X364998I-1652J939D01*
G03X364302I-348J-198D01*
G02X360998I-1652J939D01*
G03X360302I-348J-198D01*
G02X356998I-1652J939D01*
G03X356302I-348J-198D01*
G02X352998I-1652J939D01*
G03X352302I-348J-198D01*
G02X349711Y426342I-1652J939D01*
G03Y427038I-198J348D01*
G02X352302Y429629I939J1652D01*
G03X352998I348J198D01*
G02X356302I1652J-939D01*
G03X356998I348J198D01*
G02X360302I1652J-939D01*
G03X360998I348J198D01*
G02X364302I1652J-939D01*
G03X364998I348J198D01*
G02X368302I1652J-939D01*
G03X368998I348J198D01*
G02X371589Y427038I1652J-939D01*
G03Y426342I198J-348D01*
G37*
G36*
G01X558752Y396661D02*
G02X555448I-1652J939D01*
G03X554752I-348J-198D01*
G02X552161Y399252I-1652J939D01*
G03Y399948I-198J348D01*
G02X554752Y402539I939J1652D01*
G03X555448I348J198D01*
G02X558752I1652J-939D01*
G03X559448I348J198D01*
G02X562039Y399948I1652J-939D01*
G03Y399252I198J-348D01*
G02X559448Y396661I-939J-1652D01*
G03X558752I-348J-198D01*
G37*
G36*
G01X389304Y396197D02*
G03X388696I-304J-260D01*
G02X385804I-1446J1233D01*
G03X385196I-304J-260D01*
G02X383042Y395666I-1446J1233D01*
G02X382304Y396197I708J1764D01*
G03X381696I-304J-260D01*
G02X379311Y399082I-1446J1233D01*
G03Y399778I-198J348D01*
G02X381696Y402663I939J1652D01*
G03X382304I304J260D01*
G02X385196I1446J-1233D01*
G03X385804I304J260D01*
G02X388696I1446J-1233D01*
G03X389304I304J260D01*
G02X392196I1446J-1233D01*
G03X392804I304J260D01*
G02X395189Y399778I1446J-1233D01*
G03Y399082I198J-348D01*
G02X392804Y396197I-939J-1652D01*
G03X392196I-304J-260D01*
G02X389304I-1446J1233D01*
G37*
G36*
G01X525061Y406110D02*
G03X525384Y405616I388J-99D01*
G02X523239Y404210I-305J-1876D01*
G03X522915Y404704I-388J99D01*
G02X525061Y406110I305J1876D01*
G37*
G36*
G01X209939Y392348D02*
G03Y391652I198J-348D01*
G02X208061I-939J-1652D01*
G03Y392348I-198J348D01*
G02X209939I939J1652D01*
G37*
G36*
G01X205439Y391652D02*
G02X203561I-939J-1652D01*
G03Y392348I-198J348D01*
G02X205439I939J1652D01*
G03Y391652I198J-348D01*
G37*
G36*
G01X562649Y368636D02*
G02X561098Y370077I-1849J-437D01*
G03X561551Y370564I63J395D01*
G02X563102Y369123I1849J437D01*
G03X562649Y368636I-63J-395D01*
G37*
G36*
G01X44152Y178061D02*
G02Y179939I-1652J939D01*
G03X44848I348J198D01*
G02Y178061I1652J-939D01*
G03X44152I-348J-198D01*
G37*
G36*
G01X204639Y166552D02*
G02X202761I-939J-1652D01*
G03Y167248I-198J348D01*
G02X204639I939J1652D01*
G03Y166552I198J-348D01*
G37*
G36*
G01X545687Y475842D02*
G03X546026Y475285I368J-158D01*
G02X544143Y474138I-136J-1895D01*
G03X543804Y474695I-368J158D01*
G02X542876Y475015I136J1895D01*
G02X543548Y478449I1064J1575D01*
G03X543844Y478971I-82J391D01*
G02X546032Y477731I1797J619D01*
G03X545735Y477214I83J-391D01*
G02X545687Y475842I-1795J-624D01*
G37*
G36*
G01X451506Y238662D02*
G03X450894I-306J-258D01*
G02X450804Y238565I-994J838D01*
G03X450832Y237965I278J-288D01*
G02X449029Y236108I-812J-1015D01*
G03X448441Y236132I-305J-259D01*
G02X447410Y235754I-921J918D01*
G02X446617Y237985I110J1296D01*
G03X446588Y238585I-279J287D01*
G02X446322Y238874I812J1015D01*
G02X446700Y240696I1078J726D01*
G03X446790Y241281I-221J333D01*
G02X448504Y241007I1010J819D01*
G03X448410Y240419I217J-336D01*
G02X448423Y240403I-1010J-819D01*
G02X448512Y240274I-1023J-803D01*
G03X448845Y240260I171J104D01*
G02X450894Y240338I1055J-760D01*
G03X451506I306J258D01*
G02Y238662I994J-838D01*
G37*
G36*
G01X532741Y236547D02*
G02X533018Y235091I-911J-927D01*
G02X532758Y234709I-1188J529D01*
G03X532806Y234107I285J-280D01*
G02X531094Y232162I-771J-1047D01*
G03X530524Y232172I-289J-276D01*
G02X529730Y231805I-910J929D01*
G02X528653Y233976I-116J1295D01*
G03X528610Y234549I-299J266D01*
G02X528602Y236545I830J1001D01*
G03X528608Y237151I-258J306D01*
G02X530405Y239028I856J979D01*
G03X530974Y239018I289J276D01*
G02X532757Y237126I910J-928D01*
G03X532741Y236547I268J-297D01*
G37*
G36*
G01X474954Y217067D02*
G03X474346I-304J-260D01*
G02X471961Y219952I-1446J1233D01*
G03Y220648I-198J348D01*
G02X474346Y223533I939J1652D01*
G03X474954I304J260D01*
G02X478053Y223237I1446J-1233D01*
G03X478748Y223239I347J199D01*
G02X482052I1652J-939D01*
G03X482748I348J198D01*
G02X485339Y220648I1652J-939D01*
G03Y219952I198J-348D01*
G02X482748Y217361I-939J-1652D01*
G03X482052I-348J-198D01*
G02X478748I-1652J939D01*
G03X478052I-348J-198D01*
G02X474954Y217067I-1652J939D01*
G37*
G36*
G01X544237Y351076D02*
G03X543663I-287J-279D01*
G02X541442Y354096I-1363J1324D01*
G03X541438Y354806I-185J354D01*
G02X541526Y358235I862J1694D01*
G03X541560Y358948I-163J365D01*
G02X543903Y361881I940J1652D01*
G03X544477Y361864I295J270D01*
G02X546739Y358848I1323J-1364D01*
G03Y358152I198J-348D01*
G02X546574Y354765I-939J-1652D01*
G03X546540Y354052I163J-365D01*
G02X544237Y351076I-939J-1652D01*
G37*
G36*
G01X676553Y232188D02*
G03X675847I-353J-188D01*
G02Y233412I-1147J612D01*
G03X676553I353J188D01*
G02Y232188I1147J-612D01*
G37*
G36*
G01Y239188D02*
G03X675847I-353J-188D01*
G02Y240412I-1147J612D01*
G03X676553I353J188D01*
G02Y239188I1147J-612D01*
G37*
G36*
G01X675847Y235688D02*
G02Y236912I-1147J612D01*
G03X676553I353J188D01*
G02Y235688I1147J-612D01*
G03X675847I-353J-188D01*
G37*
G36*
G01X198774Y350965D02*
G03X198740Y350252I163J-365D01*
G02X197026Y350335I-939J-1652D01*
G03X197061Y351048I-163J365D01*
G02X198774Y350965I939J1652D01*
G37*
G36*
G01X191052Y347661D02*
G02X188461Y350252I-1652J939D01*
G03Y350948I-198J348D01*
G02X191052Y353539I939J1652D01*
G03X191748I348J198D01*
G02X194339Y350948I1652J-939D01*
G03Y350252I198J-348D01*
G02X191748Y347661I-939J-1652D01*
G03X191052I-348J-198D01*
G37*
G36*
G01X120654Y215967D02*
G03X120046I-304J-260D01*
G02X117661Y218852I-1446J1233D01*
G03Y219548I-198J348D01*
G02X120046Y222433I939J1652D01*
G03X120654I304J260D01*
G02X123753Y222137I1446J-1233D01*
G03X124448Y222139I347J199D01*
G02X127752I1652J-939D01*
G03X128448I348J198D01*
G02X131039Y219548I1652J-939D01*
G03Y218852I198J-348D01*
G02X128448Y216261I-939J-1652D01*
G03X127752I-348J-198D01*
G02X124448I-1652J939D01*
G03X123752I-348J-198D01*
G02X120654Y215967I-1652J939D01*
G37*
G36*
G01X41881Y223556D02*
G02Y221644I-881J-956D01*
G03Y221056I271J-294D01*
G02X40119I-881J-956D01*
G03Y221644I-271J294D01*
G02Y223556I881J956D01*
G03Y224144I-271J294D01*
G02X41881I881J956D01*
G03Y223556I271J-294D01*
G37*
G36*
G01X45378Y221641D02*
G03X45381Y221056I274J-291D01*
G02X43619I-881J-956D01*
G03X43622Y221641I-271J294D01*
G02X43619Y223556I878J959D01*
G03Y224144I-271J294D01*
G02X45381I881J956D01*
G03Y223556I271J-294D01*
G02X45378Y221641I-881J-956D01*
G37*
G36*
G01X123003Y339412D02*
G03X123343Y338800I339J-212D01*
G01X124532D01*
X126350Y340618D01*
Y364758D01*
X149582Y387990D01*
X159382D01*
X159407Y387997D01*
G02Y385483I333J-1257D01*
G01X159382Y385490D01*
X150618D01*
X128850Y363722D01*
Y342107D01*
G03X129356Y341721I400J0D01*
G02X128929Y339420I344J-1254D01*
G01X128790Y339522D01*
X125568Y336300D01*
X122068D01*
X111420Y325652D01*
Y325098D01*
G03X111839Y324699I400J0D01*
G02X113024Y324053I61J-1299D01*
G01X113037Y324031D01*
X121718Y315350D01*
X149616D01*
G03X149899Y316033I0J400D01*
G01X148969Y316963D01*
X148947Y316976D01*
G02X150724Y318753I653J1124D01*
G01X150737Y318731D01*
X152218Y317250D01*
X165718D01*
X173100Y309868D01*
Y307024D01*
G03X173600Y306637I400J0D01*
G02X174100Y306700I500J-1937D01*
G01X175600D01*
Y316072D01*
X173700Y317972D01*
Y319183D01*
G03X173143Y319551I-400J0D01*
G02X173662Y322720I-743J1749D01*
G03X174224Y322749I266J299D01*
G02X177700Y321400I1477J-1349D01*
G01Y319628D01*
X179600Y317728D01*
Y304700D01*
G02X179222Y303529I-2000J0D01*
G03X179546Y302895I324J-234D01*
G01X185027D01*
X195482Y313350D01*
X228082D01*
X230282Y315550D01*
X235518D01*
X236318Y314750D01*
X237642D01*
X237667Y314757D01*
G02Y312243I333J-1257D01*
G01X237642Y312250D01*
X235282D01*
X234482Y313050D01*
X231318D01*
X230251Y311983D01*
G03X230534Y311300I283J-283D01*
G01X236492D01*
X236517Y311307D01*
G02Y308793I333J-1257D01*
G01X236492Y308800D01*
X196868D01*
X187039Y298971D01*
X173198D01*
G03X172915Y298288I0J-400D01*
G01X181550Y289653D01*
Y222682D01*
X176600Y217732D01*
Y194081D01*
G02X174100I-1250J-1431D01*
G01Y218768D01*
X179050Y223718D01*
Y288617D01*
X169433Y298234D01*
G03X168750Y297951I-283J-283D01*
G01Y236832D01*
X135468Y203550D01*
X132758D01*
X132733Y203543D01*
G02Y206057I-333J1257D01*
G01X132758Y206050D01*
X134432D01*
X166250Y237868D01*
Y305782D01*
X162962Y309070D01*
X120162D01*
X107420Y321812D01*
Y327788D01*
X119886Y340254D01*
X120286D01*
X120763Y340731D01*
X120776Y340753D01*
G02X123003Y339412I1124J-653D01*
G37*
G36*
G01X170961Y235339D02*
G03X170944Y235908I-289J277D01*
G02X170952Y237819I886J952D01*
G03X170926Y238430I-270J295D01*
G02X170815Y240393I794J1029D01*
G03X170810Y240972I-278J287D01*
G02X172605Y240987I890J948D01*
G03X172610Y240408I278J-287D01*
G02X172598Y238501I-890J-948D01*
G03X172621Y237892I270J-295D01*
G02X172769Y235961I-791J-1032D01*
G03X172786Y235392I289J-277D01*
G02X170961Y235339I-886J-952D01*
G37*
G36*
G01X238053Y249988D02*
G03X237347I-353J-188D01*
G02Y251212I-1147J612D01*
G03X238053I353J188D01*
G02Y249988I1147J-612D01*
G37*
G36*
G01X237347Y246488D02*
G02Y247712I-1147J612D01*
G03X238053I353J188D01*
G02Y246488I1147J-612D01*
G03X237347I-353J-188D01*
G37*
G36*
G01X317853Y251488D02*
G03X317147I-353J-188D01*
G02Y252712I-1147J612D01*
G03X317853I353J188D01*
G02Y251488I1147J-612D01*
G37*
G36*
G01X317147Y254988D02*
G02Y256212I-1147J612D01*
G03X317853I353J188D01*
G02Y254988I1147J-612D01*
G03X317147I-353J-188D01*
G37*
G36*
G01X512566Y247808D02*
G03X511931I-317J-244D01*
G02Y249392I-1031J792D01*
G03X512566I317J244D01*
G02Y247808I1031J-792D01*
G37*
G36*
G01X511931Y244308D02*
G02Y245892I-1031J792D01*
G03X512566I317J244D01*
G02Y244308I1031J-792D01*
G03X511931I-317J-244D01*
G37*
G36*
G01X341408Y-20188D02*
G02X338907I-1250J-3852D01*
G01Y-6275D01*
X326250Y6382D01*
Y31718D01*
X338250Y43718D01*
Y228482D01*
X327750Y238982D01*
Y305482D01*
X288750Y344482D01*
Y405182D01*
X284382Y409550D01*
X281018D01*
X275611Y414957D01*
X274399D01*
G03X274116Y414274I0J-400D01*
G01X284030Y404359D01*
Y343419D01*
X280011Y339400D01*
X270845D01*
X267986Y342259D01*
Y349937D01*
X270427Y352378D01*
Y399499D01*
X265178Y404747D01*
G03X264589Y404721I-283J-283D01*
G02X264563Y404691I-1454J1223D01*
G03Y404164I301J-264D01*
G02X261703I-1430J-1252D01*
G03Y404691I-301J263D01*
G02X261912Y407398I1430J1252D01*
G03X261938Y407987I-257J307D01*
G01X259140Y410786D01*
Y434421D01*
X260999Y436280D01*
X268500D01*
G03X268783Y436963I0J400D01*
G01X265150Y440596D01*
Y471218D01*
X286282Y492350D01*
X303082D01*
X310150Y499418D01*
Y504450D01*
G03X309558Y504801I-400J0D01*
G02Y508663I-1054J1931D01*
G03X310150Y509015I192J351D01*
G01Y509765D01*
G03X309558Y510116I-400J0D01*
G02Y513978I-1054J1931D01*
G03X310150Y514330I192J351D01*
G01Y515080D01*
G03X309558Y515431I-400J0D01*
G02Y519293I-1054J1931D01*
G03X310150Y519644I192J351D01*
G01Y520395D01*
G03X309558Y520746I-400J0D01*
G02X309987Y524303I-1054J1931D01*
G03X310539Y524315I270J295D01*
G01X313818Y527594D01*
X313804Y527692D01*
G02X315684Y525812I2180J300D01*
G01X315586Y525826D01*
X315287Y525527D01*
G03X315634Y524849I283J-283D01*
G02X313812Y523028I351J-2172D01*
G03X313134Y523374I-395J64D01*
G01X312650Y522890D01*
Y499384D01*
G03X313333Y499101I400J0D01*
G01X318950Y504718D01*
Y530560D01*
X321298Y532909D01*
X321285Y533007D01*
G02X323165Y531127I2180J300D01*
G01X323066Y531141D01*
X322767Y530842D01*
G03X323114Y530164I283J-283D01*
G02X322098Y526267I351J-2172D01*
G03X321450Y525954I-248J-314D01*
G01Y524716D01*
G03X322098Y524402I400J0D01*
G02Y520952I1366J-1725D01*
G03X321450Y520639I-248J-314D01*
G01Y519401D01*
G03X322098Y519087I400J0D01*
G02Y515637I1366J-1725D01*
G03X321450Y515324I-248J-314D01*
G01Y514086D01*
G03X322098Y513772I400J0D01*
G02Y510322I1366J-1725D01*
G03X321450Y510009I-248J-314D01*
G01Y508771D01*
G03X322098Y508457I400J0D01*
G02Y505007I1366J-1725D01*
G03X321450Y504694I-248J-314D01*
G01Y503682D01*
X304518Y486750D01*
X288218D01*
X269937Y468469D01*
Y447108D01*
G03X270311Y446709I400J0D01*
G02X272083Y444685I-124J-1896D01*
G01X278850Y437918D01*
Y420218D01*
X292067Y407001D01*
G03X292750Y407284I283J283D01*
G01Y433818D01*
X300554Y441622D01*
G02X303754Y440368I1896J128D01*
G03X303798Y439751I275J-291D01*
G02X302572Y436304I-1098J-1551D01*
G01X296550Y430282D01*
Y411176D01*
G03X297233Y410893I400J0D01*
G01X318190Y431850D01*
X337482D01*
X347650Y442018D01*
Y504507D01*
G03X347043Y504849I-400J0D01*
G02X347415Y508333I-1138J1883D01*
G03X347973Y508341I275J291D01*
G01X350382Y510750D01*
X350945D01*
G03X351321Y511288I0J400D01*
G02X355451I2065J759D01*
G03X355826Y510750I375J-138D01*
G01X358426D01*
G03X358801Y511288I0J400D01*
G02X362931I2065J759D01*
G03X363306Y510750I375J-138D01*
G01X365906D01*
G03X366281Y511288I0J400D01*
G02X370501Y511600I2065J759D01*
G01X370716Y511384D01*
X371050Y511718D01*
Y524983D01*
X373660Y527594D01*
X373647Y527692D01*
G02X373798Y528845I2180J300D01*
G03X373430Y529400I-369J155D01*
G01X370743D01*
G03X370375Y528845I0J-400D01*
G02X366318I-2028J-853D01*
G03X365949Y529400I-369J155D01*
G01X363263D01*
G03X362894Y528845I0J-400D01*
G02X358838I-2028J-853D01*
G03X358469Y529400I-369J155D01*
G01X355783D01*
G03X355414Y528845I0J-400D01*
G02X353736Y530164I-2028J-853D01*
G03X354083Y530842I64J395D01*
G01X353784Y531141D01*
X353685Y531127D01*
G02X355565Y533007I-300J2180D01*
G01X355552Y532909D01*
X356561Y531900D01*
X358469D01*
G03X358838Y532455I0J400D01*
G02X362895I2028J852D01*
G03X363263Y531900I369J-155D01*
G01X365949D01*
G03X366318Y532455I0J400D01*
G02X370375I2029J852D01*
G03X370744Y531900I369J-155D01*
G01X373429D01*
G03X373798Y532455I0J400D01*
G02X377855I2028J852D01*
G03X378224Y531900I369J-155D01*
G01X380910D01*
G03X381278Y532455I0J400D01*
G02X385335I2028J852D01*
G03X385704Y531900I369J-155D01*
G01X388390D01*
G03X388759Y532455I0J400D01*
G02X392816I2028J852D01*
G03X393184Y531900I369J-155D01*
G01X395870D01*
G03X396239Y532455I0J400D01*
G02X400296I2028J852D01*
G03X400665Y531900I369J-155D01*
G01X403351D01*
G03X403719Y532455I0J400D01*
G02X407776I2028J852D01*
G03X408145Y531900I369J-155D01*
G01X410831D01*
G03X411200Y532455I0J400D01*
G02X415257I2028J852D01*
G03X415626Y531900I369J-155D01*
G01X418311D01*
G03X418680Y532455I0J400D01*
G02X422737I2029J852D01*
G03X423106Y531900I369J-155D01*
G01X431758D01*
X435720Y527938D01*
Y454011D01*
G02X433220I-1250J-1431D01*
G01Y526902D01*
X430722Y529400D01*
X423106D01*
G03X422737Y528845I0J-400D01*
G02X418680I-2028J-853D01*
G03X418312Y529400I-369J155D01*
G01X415625D01*
G03X415256Y528845I0J-400D01*
G02X411200I-2028J-853D01*
G03X410831Y529400I-369J155D01*
G01X408145D01*
G03X407776Y528845I0J-400D01*
G02X403720I-2028J-853D01*
G03X403351Y529400I-369J155D01*
G01X400665D01*
G03X400296Y528845I0J-400D01*
G02X396239I-2028J-853D01*
G03X395871Y529400I-369J155D01*
G01X393184D01*
G03X392816Y528845I0J-400D01*
G02X388759I-2028J-853D01*
G03X388390Y529400I-369J155D01*
G01X385704D01*
G03X385335Y528845I0J-400D01*
G02X381279I-2028J-853D01*
G03X380910Y529400I-369J155D01*
G01X378224D01*
G03X377855Y528845I0J-400D01*
G02X375527Y525812I-2028J-853D01*
G01X375428Y525826D01*
X375130Y525527D01*
G03X375476Y524849I283J-283D01*
G02X374239Y521154I351J-2172D01*
G03X373550Y520877I-289J-277D01*
G01Y519162D01*
G03X374239Y518885I400J0D01*
G02Y515839I1588J-1523D01*
G03X373550Y515562I-289J-277D01*
G01Y513847D01*
G03X374239Y513570I400J0D01*
G02X376706Y514064I1588J-1523D01*
G01X376744Y514048D01*
X382390D01*
G02Y510047I917J-2000D01*
G01X376743D01*
G02X373923Y510944I-917J2000D01*
G01X373550Y510843D01*
Y510682D01*
X371118Y508250D01*
X370694D01*
G03X370333Y507678I0J-400D01*
G02X366360I-1987J-946D01*
G03X365998Y508250I-361J172D01*
G01X363214D01*
G03X362853Y507678I0J-400D01*
G02X358879I-1987J-946D01*
G03X358518Y508250I-361J172D01*
G01X355734D01*
G03X355372Y507678I0J-400D01*
G02X355565Y506433I-1987J-946D01*
G01X355552Y506334D01*
X367850Y494036D01*
Y467718D01*
X373506Y462062D01*
X373528Y462049D01*
G02X371751Y460272I-653J-1124D01*
G01X371738Y460294D01*
X365350Y466682D01*
Y493000D01*
X353784Y504566D01*
X353685Y504553D01*
G02X351205Y507022I-300J2180D01*
G03X350525Y507357I-397J53D01*
G01X350150Y506982D01*
Y496952D01*
G03X350828Y496664I400J0D01*
G02X353430Y496704I1322J-1365D01*
G03X353969Y496704I269J296D01*
G02X353970Y493896I1281J-1403D01*
G03X353431Y493896I-269J-296D01*
G02X350828Y493934I-1281J1403D01*
G03X350150Y493646I-278J-287D01*
G01Y440982D01*
X338518Y429350D01*
X319226D01*
X298350Y408474D01*
Y358968D01*
X305328Y351990D01*
X305414Y351992D01*
G02X303558Y350136I44J-1900D01*
G01X303560Y350222D01*
X297233Y356549D01*
G03X296550Y356266I-283J-283D01*
G01Y351608D01*
X303238Y344920D01*
X345743D01*
G03X346129Y345426I0J400D01*
G02X346503Y347149I1832J504D01*
G03X346492Y347674I-307J256D01*
G02X349248Y347610I1408J1276D01*
G03X349254Y347323I142J-141D01*
G02X349392Y347180I-1292J-1393D01*
G01X363586D01*
X367440Y351034D01*
Y417838D01*
X381050Y431448D01*
Y451408D01*
X391594Y461952D01*
G02X394580Y463636I1896J128D01*
G03X395210Y463964I230J328D01*
G01Y464352D01*
X385650Y473912D01*
Y505004D01*
G03X384951Y505270I-400J0D01*
G02Y508194I-1644J1462D01*
G03X385650Y508460I299J266D01*
G01Y508678D01*
X388621Y511649D01*
X388608Y511748D01*
G02X390488Y509868I2180J300D01*
G01X390389Y509881D01*
X390090Y509582D01*
G03X390437Y508904I283J-283D01*
G02X392440Y508185I351J-2172D01*
G03X392790Y508317I150J132D01*
G01Y508338D01*
X396101Y511649D01*
X396088Y511748D01*
G02X397968Y509868I2180J300D01*
G01X397870Y509881D01*
X397570Y509582D01*
G03X397917Y508904I283J-283D01*
G02X400030Y508050I351J-2172D01*
G03X400750Y508290I320J240D01*
G01Y508817D01*
X403582Y511649D01*
X403568Y511748D01*
G02X405448Y509868I2180J300D01*
G01X405350Y509881D01*
X405051Y509582D01*
G03X405397Y508904I283J-283D01*
G02X403973Y505432I351J-2172D01*
G03X403250Y505196I-323J-236D01*
G01Y486082D01*
X398270Y481102D01*
Y472518D01*
X402340Y468448D01*
Y456692D01*
X398408Y452760D01*
X394343D01*
G03X393946Y452311I0J-400D01*
G02X391366I-1290J-160D01*
G03X390969Y452760I-397J49D01*
G01X389868D01*
X386540Y449432D01*
Y429142D01*
X373800Y416402D01*
Y300408D01*
X378370Y295838D01*
Y240622D01*
X371050Y233302D01*
Y173318D01*
X375918Y168450D01*
X378047D01*
G03X378318Y169144I0J400D01*
G02X380082I882J956D01*
G03X380353Y168450I271J-294D01*
G01X381547D01*
G03X381818Y169144I0J400D01*
G02X383582I881J956D01*
G03X383853Y168450I271J-294D01*
G01X398918D01*
X404518Y162850D01*
X440618D01*
X443650Y159818D01*
Y150682D01*
X443657Y150657D01*
G02X441143I-1257J-333D01*
G01X441150Y150682D01*
Y155831D01*
G03X440715Y156229I-400J0D01*
G02X439476Y156871I-115J1295D01*
G01X439463Y156893D01*
X437106Y159250D01*
X404974D01*
X404973Y159250D01*
X403027D01*
X402968Y159308D01*
X401650Y160626D01*
X397426Y164850D01*
X376374D01*
X376373Y164849D01*
X374427D01*
X374426Y164850D01*
X373982D01*
X367233Y171599D01*
G03X366550Y171316I-283J-283D01*
G01Y164548D01*
G02X365300Y161217I-1250J-1431D01*
G03X365017Y160534I0J-400D01*
G01X365172Y160379D01*
G02X363400Y158527I128J-1896D01*
G01X363402Y158613D01*
X361850Y160165D01*
Y237818D01*
X371260Y247228D01*
Y292272D01*
X366570Y296962D01*
Y329222D01*
X355622Y340170D01*
X349492D01*
G02X346630I-1431J1250D01*
G01X301132D01*
X293833Y347469D01*
G03X293150Y347186I-283J-283D01*
G01Y346318D01*
X332550Y306918D01*
Y240918D01*
X342650Y230818D01*
Y41482D01*
X330750Y29582D01*
Y8218D01*
X338868Y100D01*
X343668D01*
X361093Y-17325D01*
Y-20188D01*
G02X358592I-1250J-3852D01*
G01Y-18360D01*
X342632Y-2400D01*
X339534D01*
G03X339251Y-3083I0J-400D01*
G01X341408Y-5240D01*
Y-20188D01*
G37*
G36*
G01X325915Y352286D02*
X323702Y350074D01*
G02X320874Y352902I-1414J1414D01*
G01X321914Y353943D01*
Y354115D01*
X328190Y360390D01*
X335328D01*
X335428Y360290D01*
X343660D01*
G02Y356290I0J-2000D01*
G01X333772D01*
X333672Y356390D01*
X329846D01*
X325915Y352458D01*
Y352286D01*
G37*
G36*
G01X465556Y459154D02*
G03Y458546I260J-304D01*
G02X463090I-1233J-1446D01*
G03Y459154I-260J304D01*
G02X465556I1233J1446D01*
G37*
G36*
G01X515832Y403144D02*
X518427Y400548D01*
X518527Y400564D01*
G02X515936Y397973I473J-3064D01*
G01X515952Y398073D01*
X513356Y400668D01*
G02X506860Y416353I15684J15684D01*
G01Y460268D01*
G03X499727Y477488I-24353J0D01*
G01X468736Y508479D01*
G02X464750Y518102I9623J9623D01*
G01Y519857D01*
G02X468250I1750J2186D01*
G01Y518102D01*
G03X471211Y510954I10109J0D01*
G01X502202Y479963D01*
G02X510360Y460268I-19695J-19695D01*
G01Y416353D01*
G03X515832Y403144I18680J0D01*
G37*
G36*
G01X196980Y440907D02*
Y445308D01*
G02X199856Y452251I9819J0D01*
G01X221629Y474024D01*
G03X231750Y498458I-24433J24434D01*
G01Y519902D01*
G02X235250I1750J2186D01*
G01Y498458D01*
G02X224104Y471549I-38055J0D01*
G01X202331Y449776D01*
G03X200480Y445308I4468J-4468D01*
G01Y440907D01*
G02X197625Y434013I-9749J0D01*
G01X164916Y401305D01*
X164932Y401205D01*
G02X162341Y403796I-3064J-473D01*
G01X162441Y403780D01*
X195150Y436489D01*
G03X196980Y440907I-4418J4418D01*
G37*
G36*
G01X224061Y507859D02*
G03X223539I-261J-303D01*
G02Y510741I-1239J1441D01*
G03X224061I261J303D01*
G02Y507859I1239J-1441D01*
G37*
G54D37*
X291181Y513622D03*
G54D42*
X537400Y69566D03*
G54D40*
X409650Y70600D03*
G54D32*
X211300Y71600D03*
G54D29*
X83600Y72050D03*
G54D30*
X147521Y71600D03*
G54D41*
X473450Y70516D03*
G54D33*
X282997Y64138D03*
G54D38*
X308504Y527992D03*
X315984Y517362D03*
Y512047D03*
Y506732D03*
X308504Y533307D03*
X315984D03*
X330945Y506732D03*
Y512047D03*
Y517362D03*
Y522677D03*
Y527992D03*
X338425Y506732D03*
Y512047D03*
Y517362D03*
Y522677D03*
Y527992D03*
X345905Y512047D03*
Y517362D03*
Y522677D03*
Y527992D03*
X353386Y522677D03*
Y517362D03*
X360866Y522677D03*
Y517362D03*
X420708Y506732D03*
X413228D03*
X420708Y512047D03*
X413228D03*
X368346Y517362D03*
Y522677D03*
X383307D03*
X390787D03*
X398268D03*
X405748D03*
X413228D03*
X420708D03*
X383307Y517362D03*
X390787D03*
X398268D03*
X405748D03*
X413228D03*
X420708D03*
X375827Y506732D03*
X330945Y533307D03*
X338425D03*
X345905D03*
G54D28*
X174957Y87782D03*
X191100Y86831D03*
X177358Y117158D03*
X113500Y119500D03*
X80545Y111500D03*
X264700Y99792D03*
X229319Y106900D03*
X198973Y104500D03*
X269365Y86831D03*
X272597Y156836D03*
X200707Y187000D03*
X406633Y111400D03*
X520400Y85800D03*
X470600Y111292D03*
X503957Y81343D03*
X548077Y102961D03*
X554207Y186700D03*
X539618Y457422D03*
X592666Y115862D03*
X585542Y100610D03*
X601079Y94712D03*
X591463Y85800D03*
X602253Y145887D03*
G54D27*
X33305Y133883D03*
X34105Y149583D03*
X22600Y228800D03*
X26100D03*
X22600Y239300D03*
X26100D03*
Y235800D03*
X22600D03*
Y232300D03*
X26100D03*
X30200Y170100D03*
X33700D03*
X34105Y153983D03*
Y162983D03*
Y158383D03*
X25775Y358300D03*
X43415Y391385D03*
X39315D03*
X30800Y340700D03*
X47615Y387049D03*
X38700Y337940D03*
X32700Y378600D03*
X29775Y358300D03*
X68300Y423551D03*
X169150Y141550D03*
X125400Y148200D03*
X128900D03*
X91900Y150324D03*
X87576Y146724D03*
X92400Y242600D03*
X169163Y159500D03*
X159337Y154000D03*
X142337Y174673D03*
X168900Y211000D03*
X165400D03*
X110300Y254800D03*
X106800D03*
X110300Y251300D03*
X106800D03*
X91300Y157524D03*
X87576Y153924D03*
X131800Y359500D03*
X174000Y339000D03*
X186800Y367700D03*
X136700Y340378D03*
X151200Y330956D03*
X144700Y333137D03*
X167000Y335232D03*
X152200Y343400D03*
X152211Y346600D03*
X182100Y336637D03*
X188700Y332656D03*
X105500Y406400D03*
X109000D03*
X131300Y512900D03*
X271300Y251300D03*
Y254800D03*
X267800D03*
X297700Y187600D03*
X251800Y243000D03*
X248300D03*
X271300Y244300D03*
X267800D03*
X271300Y247800D03*
X267800D03*
Y251300D03*
X382305Y133883D03*
X436576Y146724D03*
X383184Y149483D03*
X375500Y223000D03*
X379000D03*
Y233500D03*
X383184Y153983D03*
X327300Y192600D03*
X333800Y224900D03*
Y200800D03*
X431000Y258000D03*
X434500Y254500D03*
X431000D03*
X433993Y257685D03*
X375500Y233500D03*
X379000Y230000D03*
X375500D03*
Y226500D03*
X379000D03*
X436576Y153924D03*
X379200Y177100D03*
X382700D03*
X383184Y158383D03*
Y162983D03*
X327300Y202600D03*
Y212600D03*
X428200Y425600D03*
X380445Y462226D03*
X525650Y141550D03*
X482100Y148400D03*
X485600D03*
X466200Y251300D03*
X462700Y254800D03*
X525450Y159500D03*
X513000Y154000D03*
X495750Y174750D03*
X523100Y210900D03*
X519100Y211000D03*
X466200Y254800D03*
Y244300D03*
X462700D03*
X466200Y247800D03*
X462700D03*
Y251300D03*
X544700Y254800D03*
Y244300D03*
X541200D03*
X544700Y247800D03*
X541200D03*
Y251300D03*
X544700D03*
X541200Y254800D03*
X512390Y331910D03*
X475100Y344500D03*
X464500Y325100D03*
X507600Y317480D03*
X525000Y334515D03*
X503338Y336562D03*
X540000Y330100D03*
X483348Y344752D03*
X532000Y334346D03*
X540000Y327037D03*
X526300Y370200D03*
X463600Y406300D03*
X467100D03*
X557500Y491600D03*
X558093Y458010D03*
X558140Y462060D03*
X554133Y481394D03*
X567900Y494400D03*
X558040Y466060D03*
X624700Y251300D03*
Y254800D03*
X611800Y238900D03*
X621200Y254800D03*
X624700Y244300D03*
X621200D03*
X624700Y247800D03*
X621200D03*
Y251300D03*
X655115Y385985D03*
X651215D03*
X672950Y362115D03*
X659500Y381660D03*
X667885Y362115D03*
X578520Y423120D03*
X622100Y432200D03*
X625600D03*
X618600D03*
Y428700D03*
X625600D03*
X622100D03*
X616900Y403800D03*
Y407300D03*
X587700Y478900D03*
X590900D03*
X597460Y493300D03*
X594240Y493190D03*
X30200Y177100D03*
X33700Y173600D03*
X30200D03*
X33700Y177100D03*
X521500Y217700D03*
Y214200D03*
X525000D03*
Y217700D03*
X518100Y215800D03*
X605200Y238800D03*
X607100Y242100D03*
X608700Y238800D03*
X605200Y235300D03*
X608700D03*
X488000Y357300D03*
Y360800D03*
X496900Y401600D03*
Y405100D03*
X493400D03*
X496900Y398100D03*
X493400D03*
Y401600D03*
X110300Y244300D03*
X106800D03*
Y247800D03*
X110300D03*
X167000Y217700D03*
Y214200D03*
X170500Y217700D03*
Y214200D03*
X163700Y214100D03*
X255300Y236000D03*
Y239500D03*
X251800D03*
Y236000D03*
X152211Y353600D03*
X152311Y356700D03*
X148711Y353600D03*
X148811Y356700D03*
X152211Y350100D03*
X141200Y402800D03*
Y406300D03*
X137700D03*
X141200Y399300D03*
X137700Y402800D03*
Y399300D03*
X431000Y247500D03*
X434112Y247623D03*
X434500Y251000D03*
X431000D03*
X382700Y173600D03*
X379200D03*
X670400Y341800D03*
X667200D03*
X650545Y332300D03*
X142600Y525900D03*
Y529400D03*
X146100D03*
X142600Y522200D03*
X146900Y522500D03*
X146100Y525900D03*
X561800Y477900D03*
X558333Y481394D03*
X558300Y477900D03*
Y474400D03*
X561800D03*
G54D39*
X350000Y-24040D03*
G54D35*
X283297Y156838D03*
G54D26*
X150864Y469640D03*
X183953Y465828D03*
X497512Y412788D03*
X23389Y163117D03*
X23242Y158483D03*
X42200Y318900D03*
X51685Y395700D03*
X56900Y311100D03*
X64400Y311000D03*
X30500Y389000D03*
X31500Y329400D03*
X179300Y202500D03*
X74700Y314100D03*
X118970Y355950D03*
X93500Y311500D03*
X119100Y350000D03*
X135700Y482556D03*
X150864Y482572D03*
X146200Y482556D03*
X130400D03*
X140424Y482566D03*
X125200Y482572D03*
X146200Y469670D03*
X140900Y469480D03*
X135700Y469330D03*
X130400Y469580D03*
X116100Y467941D03*
X99344Y547400D03*
X291200Y199800D03*
X254300Y312500D03*
X232000Y388000D03*
X227500D03*
X209000Y400000D03*
X319000Y459900D03*
X224640Y424700D03*
X302900Y455500D03*
X202600Y461700D03*
X333800Y190298D03*
X448800Y311100D03*
X384445Y462890D03*
X376400Y462790D03*
X533000Y201900D03*
X498900Y338800D03*
X466500Y341158D03*
X476500Y390300D03*
X525937Y319175D03*
X546940Y526370D03*
Y521570D03*
Y516906D03*
X529076Y526469D03*
X539916Y428440D03*
X546940Y531070D03*
Y535870D03*
X529076Y530937D03*
X609900Y313700D03*
X668300Y331000D03*
X675500Y331700D03*
X637074Y359072D03*
X624600Y312200D03*
X663600Y382100D03*
X602700Y457763D03*
X584850Y444050D03*
X232000Y378000D03*
X227500D03*
X232000Y383000D03*
X227500D03*
X232000Y398000D03*
X227500Y403000D03*
X232000D03*
X227500Y398000D03*
X232000Y393000D03*
X227500D03*
X204500Y375000D03*
X209500D03*
X209000Y380000D03*
X204500D03*
X209000Y410000D03*
Y405000D03*
Y385000D03*
X204500D03*
X672950Y345391D03*
X667885Y345450D03*
X23700Y388100D03*
X534619Y546780D03*
X539089Y540570D03*
G54D44*
X627633Y109578D03*
G54D45*
X626394Y164078D03*
G54D34*
X284297Y102336D03*
G54D43*
X626719Y71431D03*
G54D31*
X155200Y425344D03*
X135200D03*
G54D36*
X237000Y140000D03*
X217000D03*
X237000Y120000D03*
X217000D03*
X575000Y140000D03*
X555000D03*
X575000Y120000D03*
X555000D03*
%LPD*%
G75*
G36*
G01X330153Y382736D02*
X327468Y385420D01*
Y390738D01*
G03X327380Y391325I-2000J0D01*
G02X327929Y391806I382J117D01*
G03X328761Y391625I832J1819D01*
G01X330232D01*
X331139Y390718D01*
Y387108D01*
X330836Y386804D01*
Y383019D01*
G02X330153Y382736I-400J0D01*
G37*
G36*
G01X269704Y425572D02*
X269042Y424910D01*
Y423972D01*
X268800Y423730D01*
Y417468D01*
X282530Y403738D01*
Y344040D01*
X279390Y340900D01*
X271466D01*
X269486Y342880D01*
Y349316D01*
X271927Y351757D01*
Y400120D01*
X260640Y411407D01*
Y433800D01*
X261620Y434780D01*
X270966D01*
X273450Y432296D01*
Y428380D01*
X272463Y427393D01*
G03X269704Y425572I-863J-1693D01*
G37*
G36*
G01X306300Y377190D02*
X304820Y378670D01*
Y390160D01*
X318588Y403928D01*
X329928D01*
X334630Y408630D01*
X344935D01*
X363506Y390059D01*
Y384526D01*
X356928Y377948D01*
X353352D01*
X335349Y395951D01*
X326147D01*
X322086Y391890D01*
X321963Y391941D01*
G03X321574Y389443I-495J-1202D01*
G02X322007Y389044I33J-399D01*
G01Y380039D01*
X319158Y377190D01*
X306300D01*
G37*
G36*
G01X391104Y456960D02*
G02X390821Y457643I0J400D01*
G01X393360Y460182D01*
X393446Y460180D01*
G03X394864Y460768I44J1900D01*
G02X395461Y460748I289J-276D01*
G03X397717Y461913I999J832D01*
G01X397710Y461938D01*
Y465388D01*
X388150Y474948D01*
Y507642D01*
X388689Y508182D01*
X388938Y507933D01*
X388864Y507802D01*
G03X392143Y505000I1923J-1069D01*
G02X392790Y504685I247J-315D01*
G01Y497912D01*
X394570Y496132D01*
Y470412D01*
X398500Y466482D01*
Y458758D01*
X396702Y456960D01*
X391104D01*
G37*
G36*
G01X397753Y484121D02*
G02X397070Y484404I-283J283D01*
G01Y497168D01*
X395290Y498948D01*
Y507302D01*
X395418Y507429D01*
G02X396096Y507083I283J-283D01*
G03X400030Y505414I2172J-351D01*
G02X400750Y505175I320J-240D01*
G01Y487118D01*
X397753Y484121D01*
G37*
%LPC*%
G75*
G36*
G01X338687Y401553D02*
G03X338163I-262J-303D01*
G02Y404427I-1243J1437D01*
G03X338687I262J303D01*
G02Y401553I1243J-1437D01*
G37*
G54D26*
X275252Y381348D03*
Y363204D03*
X307510Y388010D03*
%LPD*%
G75*
G54D10*
X21600Y21600D03*
Y476000D03*
X215000Y335000D03*
X350000Y21600D03*
Y260000D03*
X562500Y335000D03*
X678400Y21600D03*
Y476000D03*
G54D20*
G01X132400Y204800D02*
X134950D01*
X167500Y237350D01*
Y306300D01*
X163480Y310320D01*
X120680D01*
X108670Y322330D01*
Y327270D01*
X120404Y339004D01*
X120804D01*
X121900Y340100D01*
G01X159740Y386740D02*
X150100D01*
X127600Y364240D01*
Y340100D01*
X125050Y337550D01*
X121550D01*
X110170Y326170D01*
Y322631D01*
X120801Y312000D01*
X163800D01*
X169000Y306800D01*
Y300435D01*
X180300Y289135D01*
Y223200D01*
X175350Y218250D01*
Y192650D01*
G01X233500Y522088D02*
Y498458D01*
G02X222867Y472787I-36304J0D01*
G01X201093Y451013D01*
G03X198730Y445308I5705J-5705D01*
G01Y440907D01*
G02X196387Y435251I-7999J0D01*
G01X161868Y400732D01*
G01X111900Y323400D02*
X121200Y314100D01*
X163800D01*
X170300Y307600D01*
Y301884D01*
X171963Y300221D01*
X186521D01*
X196350Y310050D01*
X236850D01*
G01X238000Y313500D02*
X235800D01*
X235000Y314300D01*
X230800D01*
X228600Y312100D01*
X196000D01*
X185545Y301645D01*
X173085D01*
X171850Y302880D01*
Y309350D01*
X165200Y316000D01*
X151700D01*
X149600Y318100D01*
G01X153400Y381500D02*
X154955Y379945D01*
Y361671D01*
X158920Y357706D01*
Y353566D01*
X162500Y349986D01*
Y344226D01*
X183310Y323416D01*
Y316810D01*
X182510Y316010D01*
Y314460D01*
G01X154900Y383400D02*
X155996Y382304D01*
Y362044D01*
X159920Y358120D01*
Y353980D01*
X163500Y350400D01*
Y344640D01*
X184340Y323800D01*
Y313230D01*
X182580Y311470D01*
G01X149400Y516000D02*
X133000D01*
X127900Y521100D01*
G01X270188Y444812D02*
X277600Y437400D01*
Y419700D01*
X291900Y405400D01*
Y345800D01*
X331300Y306400D01*
Y240400D01*
X341400Y230300D01*
Y42000D01*
X329500Y30100D01*
Y7700D01*
X338350Y-1150D01*
X343150D01*
X359842Y-17842D01*
Y-24040D01*
G01X271600Y425700D02*
X270292Y424392D01*
Y418508D01*
X272593Y416207D01*
X279493D01*
X290000Y405700D01*
Y345000D01*
X329000Y306000D01*
Y239500D01*
X339500Y229000D01*
Y43200D01*
X327500Y31200D01*
Y6900D01*
X340158Y-5758D01*
Y-24040D01*
G01X363950Y337310D02*
X357590Y343670D01*
X302720D01*
X295300Y351090D01*
Y430800D01*
X302700Y438200D01*
G01X348061Y341420D02*
X301650D01*
X294000Y349070D01*
Y433300D01*
X302450Y441750D01*
G01X305458Y350092D02*
X297100Y358450D01*
Y408992D01*
X318708Y430600D01*
X338000D01*
X348900Y441500D01*
Y507500D01*
X350900Y509500D01*
X370600D01*
X372300Y511200D01*
Y524466D01*
X375827Y527992D01*
G01X315984D02*
X311400Y523408D01*
Y498900D01*
X303600Y491100D01*
X286800D01*
X266400Y470700D01*
Y441114D01*
X274700Y432814D01*
Y421099D01*
X272900Y419299D01*
G01X272997Y438169D02*
X267800Y443366D01*
Y468100D01*
X287700Y488000D01*
X304000D01*
X320200Y504200D01*
Y530043D01*
X323464Y533307D01*
G01X398268Y512047D02*
X394040Y507820D01*
Y498430D01*
X395820Y496650D01*
Y470930D01*
X399750Y467000D01*
Y458240D01*
X397220Y455710D01*
X389120D01*
X383880Y450470D01*
Y430300D01*
X370910Y417330D01*
Y299050D01*
X375370Y294590D01*
Y241610D01*
X368100Y234340D01*
Y172500D01*
X374500Y166100D01*
X374944D01*
X374945Y166100D01*
X375855D01*
X375856Y166100D01*
X397944D01*
X402900Y161144D01*
X403544Y160500D01*
X403545Y160500D01*
X404455D01*
X404456Y160500D01*
X437624D01*
X440600Y157524D01*
G01X442400Y150324D02*
Y159300D01*
X440100Y161600D01*
X404000D01*
X398400Y167200D01*
X375400D01*
X369800Y172800D01*
Y233820D01*
X377120Y241140D01*
Y295320D01*
X372550Y299890D01*
Y416920D01*
X385290Y429660D01*
Y449950D01*
X389350Y454010D01*
X397890D01*
X401090Y457210D01*
Y467930D01*
X397020Y472000D01*
Y481620D01*
X402000Y486600D01*
Y508299D01*
X405748Y512047D01*
G01X365300Y163117D02*
Y236100D01*
X373610Y244410D01*
Y293890D01*
X369220Y298280D01*
Y332040D01*
X363950Y337310D01*
G01X365300Y158483D02*
X363100Y160683D01*
Y237300D01*
X372510Y246710D01*
Y292790D01*
X367820Y297480D01*
Y329740D01*
X356140Y341420D01*
X348061D01*
G01X347961Y345930D02*
X364104D01*
X368690Y350516D01*
Y417320D01*
X382300Y430930D01*
Y450890D01*
X393490Y462080D01*
G01X376300Y308394D02*
X379806Y311900D01*
X394053D01*
X398170Y307783D01*
G01X372875Y460925D02*
X366600Y467200D01*
Y493518D01*
X353386Y506732D01*
G01X466500Y522043D02*
Y518102D01*
G03X469973Y509717I11859J0D01*
G01X500965Y478726D01*
G02X508610Y460268I-18458J-18458D01*
G01Y416353D01*
G03X514594Y401906I20431J0D01*
G01X519000Y397500D01*
G01X396460Y461580D02*
Y464870D01*
X386900Y474430D01*
Y508160D01*
X390787Y512047D01*
G01X434470Y452580D02*
Y527420D01*
X431240Y530650D01*
X356043D01*
X353386Y533307D01*
G01X486800Y204800D02*
X493500D01*
X510000Y221300D01*
Y225900D01*
X518900Y234800D01*
Y255900D01*
X524200Y261200D01*
Y304400D01*
X522090Y306510D01*
X500270D01*
X491680Y315100D01*
X480500D01*
G01X528600Y193400D02*
X532151Y196951D01*
X535451D01*
X537050Y198550D01*
Y250750D01*
X525500Y262300D01*
Y305800D01*
X523190Y308110D01*
X501700D01*
X493900Y315910D01*
Y364398D01*
X480249Y378049D01*
G01X477942Y337058D02*
Y317658D01*
X480500Y315100D01*
G01X541370Y408170D02*
X522400Y389200D01*
Y339650D01*
X517000Y334250D01*
Y330100D01*
X510885Y323985D01*
Y316035D01*
X509680Y314830D01*
X506470D01*
X504100Y317200D01*
G01X504400Y311300D02*
X506930Y313830D01*
X510094D01*
X511885Y315620D01*
Y323570D01*
X518000Y329686D01*
Y333836D01*
X523400Y339236D01*
Y388786D01*
X539709Y405095D01*
X541995D01*
G01X572933Y482533D02*
X568267D01*
X563000Y487800D01*
X551100D01*
G54D11*
X88900Y31100D03*
X73900D03*
Y41100D03*
X88900D03*
X53000Y5500D03*
X63000D03*
X73000D03*
X83000D03*
X93000D03*
X73900Y61100D03*
X88900Y51100D03*
X73900D03*
X5500Y161900D03*
Y151900D03*
Y141900D03*
Y131900D03*
Y121900D03*
Y111900D03*
Y101900D03*
Y91900D03*
Y81900D03*
Y71900D03*
Y61900D03*
Y51900D03*
X96300Y214000D03*
Y210000D03*
X92300D03*
X88300D03*
X5500Y261900D03*
Y251900D03*
Y241900D03*
Y231900D03*
Y221900D03*
Y211900D03*
Y201900D03*
Y191900D03*
Y181900D03*
Y171900D03*
Y291900D03*
Y281900D03*
Y271900D03*
X62500Y341000D03*
X65500Y344000D03*
X59500D03*
Y338000D03*
X65500D03*
X93098Y342500D03*
X89098Y346500D03*
X93098D03*
Y338500D03*
X5500Y421900D03*
Y411900D03*
Y401900D03*
Y391900D03*
Y381900D03*
Y371900D03*
Y361900D03*
Y351900D03*
Y341900D03*
Y331900D03*
Y321900D03*
Y311900D03*
Y301900D03*
X35900Y546700D03*
X20900D03*
X35900Y531700D03*
X20900D03*
X50000Y491800D03*
Y481800D03*
Y471800D03*
X70000Y531800D03*
Y541800D03*
X5500Y531900D03*
Y541900D03*
Y521900D03*
Y451900D03*
Y441900D03*
Y431900D03*
Y501900D03*
Y511900D03*
X70000Y551800D03*
Y561800D03*
X54700Y564500D03*
X94700D03*
X84700D03*
X74700D03*
X64700D03*
X44700D03*
X34700D03*
X24700D03*
X14700D03*
X5500Y551900D03*
Y561900D03*
X208900Y31100D03*
X193900D03*
X178900D03*
X163900D03*
X148900D03*
X133900D03*
X118900D03*
X103900D03*
X178900Y41100D03*
X193900D03*
X208900D03*
X103900D03*
X118900D03*
X133900D03*
X148900D03*
X163900D03*
X103000Y5500D03*
X113000D03*
X123000D03*
X133000D03*
X143000D03*
X153000D03*
X163000D03*
X173000D03*
X183000D03*
X193000D03*
X203000D03*
X213000D03*
X118900Y61100D03*
X133900D03*
X148900D03*
X193900D03*
X208900D03*
Y51100D03*
X193900D03*
X178900D03*
X163900D03*
X148900D03*
X133900D03*
X118900D03*
X103900D03*
X105700Y158500D03*
Y142500D03*
X109700Y146500D03*
Y150500D03*
Y154500D03*
X105700Y146500D03*
X101700D03*
Y150500D03*
X105700D03*
Y154500D03*
X101700D03*
X100300Y214000D03*
X213657Y175173D03*
X209657Y179173D03*
Y175173D03*
X205657Y179173D03*
Y175173D03*
X201657Y179173D03*
X199400Y212200D03*
Y216220D03*
X175350Y192650D03*
X162468Y329100D03*
Y334100D03*
X101098Y342500D03*
X97098D03*
Y346500D03*
Y338500D03*
X114252Y381348D03*
X161868Y400732D03*
X175700Y321400D03*
X149400Y516000D03*
X204700Y564500D03*
X194700D03*
X184700D03*
X174700D03*
X164700D03*
X154700D03*
X144700D03*
X134700D03*
X124700D03*
X114700D03*
X104700D03*
X307000Y42100D03*
X317000D03*
X327000D03*
X283900Y31100D03*
X268900D03*
X253900D03*
X238900D03*
X223900D03*
Y41100D03*
X238900D03*
X253900D03*
X268900D03*
X283900D03*
X223000Y5500D03*
X233000D03*
X243000D03*
X253000D03*
X263000D03*
X303000D03*
X293000D03*
X283000D03*
X273000D03*
X313000D03*
X323000D03*
X287000Y132100D03*
X297000Y162100D03*
Y102100D03*
Y87100D03*
Y147100D03*
Y132100D03*
Y117100D03*
X223900Y61100D03*
X238900D03*
X307000Y117100D03*
Y132100D03*
Y147100D03*
Y162100D03*
X317000D03*
Y147100D03*
Y132100D03*
Y117100D03*
X327000D03*
Y132100D03*
Y147100D03*
Y162100D03*
X307000Y57100D03*
Y87100D03*
Y102100D03*
X317000D03*
Y87100D03*
Y72100D03*
Y57100D03*
X327000D03*
Y72100D03*
Y87100D03*
Y102100D03*
X283900Y51100D03*
X268900D03*
X253900D03*
X238900D03*
X223900D03*
X317000Y172100D03*
X307000D03*
X297000D03*
X262000Y214000D03*
X258000Y210000D03*
X254000D03*
X250000D03*
X332836Y379964D03*
X331900Y358390D03*
X336660Y358290D03*
X340160D03*
X343660D03*
X328280Y372030D03*
X341310Y364420D03*
X336920Y375040D03*
X328150Y410510D03*
X340550Y414070D03*
X337150D03*
X305010Y393800D03*
X325470Y407110D03*
X325450Y410350D03*
X328320Y406540D03*
X328390Y367760D03*
X342900Y336900D03*
X336660Y336550D03*
X329890D03*
X326700Y350990D03*
X325580Y371910D03*
X287300Y354500D03*
Y362310D03*
Y374500D03*
Y384500D03*
Y394500D03*
Y404500D03*
Y414500D03*
X262098Y342500D03*
X246098D03*
X254098Y338500D03*
X250098D03*
X258098D03*
X254098Y346500D03*
X258098D03*
Y342500D03*
X250098D03*
X254098D03*
X346504Y335000D03*
X337500Y364550D03*
X339735Y374595D03*
X325520Y368840D03*
X348061Y341420D03*
X305458Y350092D03*
X347961Y345930D03*
X272900Y419299D03*
X240900Y546700D03*
X225900D03*
X240900Y531700D03*
X304804Y425596D03*
X332123Y464100D03*
X291300Y477500D03*
X301300D03*
X311300D03*
X321300D03*
X341300D03*
X331300D03*
X287300Y424500D03*
Y434500D03*
Y444500D03*
Y454500D03*
Y464500D03*
X327005Y464100D03*
X302700Y438200D03*
X302450Y441750D03*
X272997Y438169D03*
X270188Y444812D03*
X271600Y425700D03*
X254700Y564500D03*
X244700D03*
X234700D03*
X224700D03*
X462900Y41100D03*
X447900D03*
X432900D03*
X417900D03*
X402900D03*
Y31100D03*
X417900D03*
X432900D03*
X447900D03*
X462900D03*
X463000Y5500D03*
X473000D03*
X373000D03*
X383000D03*
X393000D03*
X403000D03*
X413000D03*
X423000D03*
X433000D03*
X443000D03*
X453000D03*
X462900Y61100D03*
X447900D03*
X402900Y51100D03*
X417900D03*
X432900D03*
X447900D03*
X462900D03*
X350200Y165400D03*
Y155400D03*
Y145400D03*
Y135400D03*
Y125400D03*
Y115400D03*
Y105400D03*
Y95400D03*
Y85400D03*
Y75400D03*
Y65400D03*
X461600Y158500D03*
Y142500D03*
X465600Y146500D03*
Y150500D03*
Y154500D03*
X461600Y146500D03*
X457600D03*
Y150500D03*
X461600D03*
Y154500D03*
X457600D03*
X365300Y163117D03*
Y158483D03*
X452200Y210000D03*
X448200D03*
Y214000D03*
X444200D03*
Y210000D03*
X440200Y214000D03*
X350200Y235400D03*
Y225400D03*
Y215400D03*
Y205400D03*
Y195400D03*
Y185400D03*
Y175400D03*
X401800Y339400D03*
Y346900D03*
Y376900D03*
Y369400D03*
Y361900D03*
Y354400D03*
Y421900D03*
Y414400D03*
Y406900D03*
Y399400D03*
Y391900D03*
Y384400D03*
X452998Y342500D03*
Y346500D03*
Y338500D03*
X456998Y342500D03*
X448998D03*
X444998D03*
Y346500D03*
X448998D03*
X444998Y338500D03*
X448998D03*
X440998Y342500D03*
X413100Y414800D03*
Y404800D03*
Y394800D03*
Y384800D03*
Y374800D03*
Y364800D03*
Y354800D03*
X449400Y416016D03*
X363950Y337310D03*
X442640Y495490D03*
X473900Y546700D03*
X458900D03*
Y531700D03*
X401800Y429400D03*
Y436900D03*
X442500Y544800D03*
X413100Y464800D03*
Y454800D03*
Y444800D03*
Y434800D03*
Y424800D03*
X411300Y477500D03*
X401300D03*
X391300D03*
X381300D03*
X371300D03*
X361300D03*
X351300D03*
X401800Y444400D03*
X393490Y462080D03*
X434470Y452580D03*
X442500Y564800D03*
Y554800D03*
X474700Y564500D03*
X464700D03*
X454700D03*
X597900Y41100D03*
X582900D03*
X567900D03*
X552900D03*
X537900D03*
X522900D03*
X507900D03*
Y31100D03*
X522900D03*
X537900D03*
X552900D03*
X567900D03*
X582900D03*
X597900D03*
X492900Y41100D03*
X477900D03*
Y31100D03*
X492900D03*
X593000Y5500D03*
X583000D03*
X483000D03*
X493000D03*
X503000D03*
X513000D03*
X523000D03*
X533000D03*
X543000D03*
X553000D03*
X573000D03*
X563000D03*
X582900Y61100D03*
X567900D03*
X552900D03*
X537900D03*
X522900D03*
X477900D03*
X507900Y51100D03*
X522900D03*
X537900D03*
X552900D03*
X567900D03*
X582900D03*
X597900D03*
X477900D03*
X492900D03*
X599400Y214000D03*
X551600Y216220D03*
X555157Y179250D03*
X559157Y175250D03*
Y179250D03*
X563157Y175250D03*
Y179250D03*
X567157Y175250D03*
X551600Y212200D03*
X528600Y193400D03*
X502368Y397500D03*
X507969Y332600D03*
X519000Y397500D03*
X521550Y442907D03*
X560333Y502024D03*
X490000Y548900D03*
X551100Y487800D03*
X490000Y558900D03*
X594700Y564500D03*
X584700D03*
X574700D03*
X564700D03*
X554700D03*
X544700D03*
X534700D03*
X524700D03*
X514700D03*
X504700D03*
X494700D03*
X627900Y41100D03*
Y31100D03*
X612900Y41100D03*
Y31100D03*
X643000Y5500D03*
X653000D03*
X633000D03*
X623000D03*
X613000D03*
X603000D03*
X654030Y113080D03*
X670000Y74500D03*
X640000D03*
X660000D03*
X650000D03*
Y64500D03*
X660000D03*
X640000D03*
X670000D03*
Y54500D03*
X640000D03*
X660000D03*
X650000D03*
X612900Y51100D03*
X651100Y111500D03*
X694500Y136900D03*
Y146900D03*
Y156900D03*
Y166900D03*
Y126900D03*
Y66900D03*
Y76900D03*
Y86900D03*
Y96900D03*
Y106900D03*
Y116900D03*
Y46900D03*
Y56900D03*
X607400Y214000D03*
X603400D03*
Y210000D03*
X694500Y246900D03*
Y256900D03*
Y266900D03*
Y206900D03*
Y216900D03*
Y226900D03*
Y236900D03*
Y176900D03*
Y186900D03*
Y196900D03*
Y276900D03*
Y286900D03*
Y296900D03*
X643600Y196702D03*
X694500Y306900D03*
Y316900D03*
Y326900D03*
Y336900D03*
Y346900D03*
Y356900D03*
Y366900D03*
Y376900D03*
Y386900D03*
X628652Y380000D03*
X634000Y372276D03*
X694500Y416900D03*
Y406900D03*
Y396900D03*
X663900Y531700D03*
X678900D03*
X663900Y546700D03*
X678900D03*
X694500Y456900D03*
Y426900D03*
Y436900D03*
Y546900D03*
Y536900D03*
Y526900D03*
Y516900D03*
Y506900D03*
Y496900D03*
Y446900D03*
X694700Y564500D03*
X684700D03*
X674700D03*
X664700D03*
X654700D03*
X644700D03*
X634700D03*
X624700D03*
X614700D03*
X604700D03*
X694500Y556900D03*
G54D21*
G01X13400Y-196400D02*
X641300D01*
Y-176400D01*
G01X13400Y-136400D02*
X716000D01*
G01X13400Y-156400D02*
X716000D01*
G01X13400Y-176400D02*
X716000D01*
G01X641300Y-196400D02*
X716000D01*
Y-117200D01*
X13400D01*
Y-196400D01*
G01X641300Y-117200D02*
Y-136400D01*
G01Y-156400D02*
Y-136400D01*
G01Y-156400D02*
Y-176400D01*
G54D12*
X76087Y78303D03*
X76124Y72997D03*
X76087Y66875D03*
X82135Y64166D03*
X88777Y64315D03*
X91077Y70029D03*
X90929Y75706D03*
X88109Y79954D03*
X93303Y106465D03*
X88413Y114153D03*
X92551Y118497D03*
X95531Y123705D03*
X53606Y168050D03*
X87892Y100781D03*
Y95781D03*
Y90781D03*
Y85781D03*
X79300Y83600D03*
X79392Y88300D03*
Y93300D03*
Y98300D03*
X79214Y103326D03*
X56047Y142647D03*
X30195Y139383D03*
X87576Y142647D03*
X24805Y149483D03*
Y153883D03*
X34105Y144883D03*
X51636Y233692D03*
X73601Y231466D03*
X27519Y197591D03*
X29559Y202600D03*
X67467Y231700D03*
X61100Y231500D03*
X79100Y219582D03*
X78936Y225527D03*
X79100Y231582D03*
X80090Y240412D03*
X87700Y222500D03*
X87600Y203915D03*
X85852Y198175D03*
X81000Y194500D03*
X75152Y194167D03*
X68949Y194300D03*
X70400Y202900D03*
X79100Y203550D03*
Y209550D03*
X63462Y194129D03*
X57380Y194300D03*
X58816Y202972D03*
X65349Y202800D03*
X49836Y193971D03*
X43836D03*
X37800Y194300D03*
X31800D03*
X35880Y202800D03*
X53880D03*
X61433Y204856D03*
X72865D03*
X64300Y226512D03*
X45100Y215700D03*
X95350Y229950D03*
X89250D03*
X84300Y214000D03*
X92300Y218000D03*
X88300D03*
X92300Y214000D03*
X88300D03*
X74862Y363925D03*
X73280Y348567D03*
X90780Y422809D03*
X88628Y390900D03*
X79538Y347749D03*
X65587Y307603D03*
X79700Y312600D03*
X35000Y387600D03*
X88398Y310895D03*
X87456Y304969D03*
X83419Y300531D03*
X77068Y307200D03*
X58825D03*
X51600Y304400D03*
X88398Y395800D03*
X79898Y401000D03*
X79730Y406958D03*
X88634Y382656D03*
X79898Y386200D03*
Y392200D03*
X88495Y377529D03*
X88398Y371300D03*
X79645Y372881D03*
X79898Y379000D03*
X79800Y364000D03*
X88429Y361533D03*
X88532Y356338D03*
X88400Y333900D03*
X88661Y328473D03*
X79737Y329499D03*
X79898Y338050D03*
X88398Y322113D03*
X88504Y316097D03*
X79800Y318000D03*
X79898Y324800D03*
X93584Y416016D03*
X76800Y413500D03*
X70245Y414500D03*
X92754Y394944D03*
X90668Y407000D03*
X90454Y375000D03*
Y364000D03*
X77843Y332301D03*
X90894Y387500D03*
X59695Y350152D03*
X67569Y350015D03*
Y368762D03*
X59695Y368899D03*
X77843Y320701D03*
X71300Y312200D03*
X85098Y342500D03*
X89098D03*
Y338500D03*
X82736Y495805D03*
X76736D03*
X70736D03*
X64736D03*
X58736D03*
X52737Y495913D03*
X46817Y496889D03*
X41100Y498800D03*
X35892Y501746D03*
X31202Y505488D03*
X27300Y510100D03*
X25011Y515631D03*
X24250Y521583D03*
X24200Y526700D03*
X32750Y526106D03*
X32804Y520106D03*
X34900Y514500D03*
X38869Y510082D03*
X44000Y507000D03*
X49635Y504954D03*
X55600Y504305D03*
X61600D03*
X67600D03*
X73600D03*
X79600D03*
X85600D03*
X88406Y435202D03*
X84027Y430638D03*
X95200Y495300D03*
X89200Y495805D03*
X90095Y504305D03*
X94743Y441054D03*
X93584Y507916D03*
X92376Y526376D03*
X68300Y432506D03*
X94386Y425814D03*
X172840Y161720D03*
X183799Y160524D03*
X108775Y163827D03*
X171150Y145410D03*
X165810Y137260D03*
X143912Y135146D03*
X210513Y95000D03*
X196785Y121046D03*
X209548Y125554D03*
X203018Y125628D03*
X196822D03*
X207434Y134459D03*
X199994D03*
X216821Y87171D03*
X206877Y85909D03*
X206320Y79082D03*
X203538Y72886D03*
X203575Y67098D03*
X209697Y64241D03*
X216413Y64352D03*
X218676Y69695D03*
X218602Y75483D03*
X175042Y83201D03*
X154784Y76633D03*
X154821Y70623D03*
X153151Y64389D03*
X145879Y64426D03*
X140202Y66690D03*
Y72923D03*
X142911Y78971D03*
X152038Y80789D03*
X202082Y118950D03*
X207020Y115541D03*
X211283Y111318D03*
X215525Y107076D03*
X219768Y102833D03*
X210042Y100397D03*
X205799Y104640D03*
X201554Y108880D03*
X196450Y112033D03*
X190506Y112858D03*
X184507D03*
X178506D03*
X173278Y115801D03*
X173058Y121797D03*
X185668Y121458D03*
X191668D03*
X216432Y82531D03*
X204432D03*
X198432D03*
X192432D03*
X187093Y85270D03*
X186800Y91263D03*
Y97263D03*
X191147Y108117D03*
X194324Y103027D03*
X195400Y97125D03*
X195668Y91131D03*
X201668D03*
X207668D03*
X219668D03*
X179257Y97600D03*
Y91600D03*
Y85600D03*
X170657Y85261D03*
Y91261D03*
Y97261D03*
X156695Y113208D03*
X157643Y119133D03*
X160391Y124466D03*
X164615Y128728D03*
X169730Y131864D03*
X175425Y133752D03*
X181400Y134300D03*
X187400D03*
X193400D03*
X188974Y125700D03*
X182974D03*
X176988Y125292D03*
X167026Y118952D03*
X165295Y113207D03*
X151800Y99781D03*
Y93781D03*
Y87781D03*
X143200Y85261D03*
Y91261D03*
Y97261D03*
Y103261D03*
X117800Y125346D03*
X119493Y119590D03*
X125117Y117500D03*
X131118D03*
X137118D03*
X143084Y116870D03*
X148200Y113734D03*
X143874Y105897D03*
X138679Y108900D03*
X132679D03*
X126679D03*
X120700Y109398D03*
X115266Y111942D03*
X110881Y116038D03*
X109200Y121797D03*
Y127797D03*
X96883Y129550D03*
X96950Y135550D03*
Y141550D03*
X105554Y137572D03*
X105550Y132338D03*
X105142Y126352D03*
X103539Y120570D03*
X100788Y115238D03*
X97004Y110582D03*
X191190Y170473D03*
X185777Y170356D03*
X179680Y170473D03*
X170469Y170249D03*
X164766Y170227D03*
X158600Y170423D03*
X152600D03*
X148337D03*
X142337D03*
X105500Y165450D03*
X97000Y159700D03*
Y165700D03*
X114310Y163700D03*
X120342Y163945D03*
X129910Y155200D03*
X123910D03*
X125820Y163700D03*
X131791Y163817D03*
X140925Y163860D03*
X147000Y163750D03*
X152900D03*
X158900D03*
X158450Y137300D03*
X152887Y145800D03*
X158887D03*
X135107Y137300D03*
X142200Y146000D03*
X146950Y145800D03*
X129910Y137300D03*
X123910D03*
X110150D03*
X114310Y145800D03*
X120310D03*
X175600Y149750D03*
X169600D03*
X187471Y149602D03*
X182068Y149645D03*
X202629Y149602D03*
X196680Y149800D03*
X198590Y158300D03*
X204590D03*
X214185Y149666D03*
X208190Y149800D03*
X208825Y158607D03*
X214357Y162723D03*
Y168723D03*
X220505Y151995D03*
X152050Y137150D03*
X139567Y127181D03*
X127420Y135244D03*
X116810D03*
Y153144D03*
X127420D03*
X139880Y145927D03*
X145300Y168367D03*
X162300Y147694D03*
X166200Y165806D03*
X166187Y147856D03*
X201080Y160108D03*
X211690Y160356D03*
X135392Y127181D03*
X135892Y145851D03*
X192808Y167619D03*
X188620D03*
X152150Y155050D03*
X176700Y158500D03*
X96722Y169939D03*
X105778D03*
X189350Y196180D03*
X190020Y201670D03*
X137990Y174980D03*
X212517Y233655D03*
X110556Y231244D03*
X106104Y230353D03*
X181590Y178973D03*
X187590D03*
X163000Y181000D03*
X168500Y181200D03*
X175357Y179082D03*
X153072Y178923D03*
X157400Y179000D03*
X143000Y178923D03*
X149000D03*
X115900Y231708D03*
X132800Y233200D03*
X127070Y231708D03*
X105500Y224450D03*
Y218450D03*
X96900Y222500D03*
X101531Y238509D03*
X105500Y206000D03*
Y209300D03*
X97000Y197550D03*
Y203550D03*
X218700Y187873D03*
X211500Y194300D03*
X205500D03*
X199500D03*
X193500D03*
X197480Y202800D03*
X215480D03*
X219095Y194133D03*
X220600Y203000D03*
X221900Y231600D03*
X216100Y231800D03*
X155877Y216223D03*
X185383Y205628D03*
X179906Y216650D03*
X163050Y225606D03*
X158950D03*
X152850D03*
X148650D03*
X133064Y211264D03*
X132533Y208400D03*
X114915Y210982D03*
X122789Y210926D03*
X121500Y226587D03*
X206800Y215900D03*
X142857Y228934D03*
X188400Y224510D03*
X155877Y189277D03*
X194690Y181028D03*
X184080D03*
X114915Y192406D03*
X122789Y192256D03*
X175708Y188794D03*
X169100Y186200D03*
X159700Y179300D03*
X128953Y199510D03*
Y193010D03*
X105778Y193061D03*
X96722D03*
X96300Y218000D03*
X213657Y179173D03*
Y183173D03*
X209657D03*
X217657Y179173D03*
X205657Y183173D03*
X132400Y204800D03*
X166150Y346800D03*
X163300Y396650D03*
X158668Y397482D03*
X159320Y403920D03*
X164621Y407161D03*
X168863Y411404D03*
X173106Y415647D03*
X177349Y419889D03*
X186281Y421468D03*
X182039Y417226D03*
X177796Y412983D03*
X173553Y408740D03*
X169311Y404498D03*
X165860Y399990D03*
X102060Y390269D03*
X106401Y386299D03*
X106178Y340254D03*
X128910Y307032D03*
X134269Y304334D03*
X106401Y380437D03*
X106298Y359866D03*
X97659Y361704D03*
X97306Y367660D03*
X97447Y373841D03*
X97798Y379700D03*
Y385700D03*
X106298Y346950D03*
X97700Y351000D03*
X97798Y356266D03*
X106298Y334900D03*
Y328400D03*
X97709Y332137D03*
X106298Y323113D03*
Y316113D03*
X97558Y318859D03*
X97798Y324800D03*
X112200Y298600D03*
X99558Y302392D03*
X97798Y308129D03*
X108600Y307200D03*
X120600D03*
X214966Y305600D03*
X220749Y307200D03*
X130800Y348390D03*
X139394Y355850D03*
X118846Y329446D03*
X108354Y363282D03*
Y352850D03*
Y332301D03*
X107751Y392443D03*
X215000Y358487D03*
X220195Y373149D03*
X190047Y379490D03*
Y372990D03*
X185839Y361251D03*
X186310Y364100D03*
X176143Y343674D03*
X155950Y346894D03*
X160050D03*
X170350D03*
X133617Y366872D03*
X163123Y383223D03*
Y356277D03*
X190913Y387279D03*
X102751Y394944D03*
X97751Y392478D03*
X156146Y323446D03*
X108168Y319452D03*
X114903Y312156D03*
X151200Y321944D03*
X121900Y340100D03*
X159740Y386740D03*
X177600Y304700D03*
X174100D03*
X111900Y323400D03*
X149600Y318100D03*
X182510Y314460D03*
X153400Y381500D03*
X182580Y311470D03*
X154900Y383400D03*
X181591Y424132D03*
X185834Y428375D03*
X190077Y432617D03*
X194319Y436860D03*
X195160Y448630D03*
X199959Y453556D03*
X204201Y457798D03*
X208444Y462041D03*
X212687Y466284D03*
X216929Y470526D03*
X221171Y474769D03*
X221557Y467800D03*
X217314Y463558D03*
X213072Y459315D03*
X208829Y455072D03*
X204586Y450830D03*
X198968Y434237D03*
X194766Y429953D03*
X190524Y425711D03*
X189150Y447590D03*
X214600Y454200D03*
X218800Y458700D03*
X97273Y431380D03*
X184250Y438870D03*
X178604Y438801D03*
X150183Y447743D03*
X156713Y447780D03*
X163280Y447817D03*
X170033Y438763D03*
X163429Y438986D03*
X157010Y438912D03*
X150962Y438838D03*
X183400Y447590D03*
X167610Y447880D03*
X168554Y454127D03*
X178212Y449593D03*
X179158Y478923D03*
X166767Y494524D03*
X161879Y495391D03*
X156241Y495352D03*
X147332Y495746D03*
X133613Y495510D03*
X125839Y495737D03*
X140500Y502024D03*
X154150Y506361D03*
X96100Y504900D03*
X119993Y495806D03*
X113990Y495673D03*
X108000Y495200D03*
X105600Y505000D03*
X112200Y504306D03*
X125800Y504000D03*
X162072Y504306D03*
X169593Y504361D03*
X175054Y502571D03*
X178063Y496515D03*
X178000Y490900D03*
X169463Y485617D03*
Y491617D03*
X177963Y468380D03*
X178255Y462410D03*
X177963Y456380D03*
X169300Y468300D03*
X169463Y472594D03*
X218900Y437838D03*
X212300Y437888D03*
X208100D03*
X208700Y446388D03*
X131800Y440156D03*
X136900Y448656D03*
X142932Y448783D03*
X98994Y445288D03*
X104200Y448400D03*
X110197Y448903D03*
X116200Y448656D03*
X122200D03*
X128200D03*
X125320Y440156D03*
X107320D03*
X125200Y491510D03*
X138000Y499556D03*
Y504556D03*
X143000Y499556D03*
Y504556D03*
X159116Y481000D03*
X161616D03*
X167116D03*
X164616D03*
X157116Y477000D03*
Y480000D03*
X159116Y476000D03*
Y478500D03*
X161616Y476000D03*
Y478500D03*
X167116D03*
Y476000D03*
X164616D03*
Y478500D03*
X175616D03*
X173116D03*
X170616D03*
X110076Y516500D03*
Y511500D03*
X130400Y491477D03*
X135700Y491461D03*
X140767Y491533D03*
X146200Y491446D03*
X150864Y491498D03*
X121836Y506300D03*
Y510400D03*
X138508Y522064D03*
X133300Y526000D03*
X109411Y521000D03*
X99500Y487611D03*
Y485111D03*
Y490611D03*
Y493111D03*
X102000Y496611D03*
Y499111D03*
Y501611D03*
Y487611D03*
X104500D03*
X102000Y485111D03*
X104500D03*
X100500Y483111D03*
X103500D03*
X102000Y490611D03*
X104500D03*
Y493111D03*
X102000D03*
X142818Y439982D03*
X146500Y439400D03*
Y448000D03*
X201860Y447700D03*
X111500Y438100D03*
X138400Y438000D03*
X204800Y435832D03*
X151500Y451494D03*
X155600D03*
X160500Y452214D03*
X103450Y434450D03*
X146000Y512000D03*
X151000Y504800D03*
X127900Y521100D03*
X265500Y59510D03*
X256950Y60190D03*
X250390Y62500D03*
X244920Y66340D03*
X240710Y71500D03*
X238040Y78100D03*
X237550Y85250D03*
X266950Y68690D03*
X259030Y69240D03*
X252790Y71770D03*
X248400Y76160D03*
X246410Y82220D03*
X246320Y89140D03*
X273910Y68920D03*
X274320Y59200D03*
X280110Y54580D03*
X286940Y54540D03*
X290700Y58610D03*
X290740Y66070D03*
X288480Y73900D03*
X280430Y73760D03*
X277760Y91360D03*
X284050Y91080D03*
X291830Y91220D03*
X293730Y99590D03*
X293640Y107050D03*
X289290Y113520D03*
X280520Y113380D03*
X274320Y111670D03*
X269120Y153640D03*
X268980Y159930D03*
X274230Y161920D03*
X274320Y151790D03*
X277760Y147310D03*
X285270Y147260D03*
X290970Y149120D03*
X290790Y155040D03*
X290830Y162460D03*
X287350Y166530D03*
X280200Y166580D03*
X235966Y102457D03*
X265100Y94349D03*
X264871Y85942D03*
X268703Y82281D03*
X273507Y85141D03*
X273621Y90574D03*
X274994Y95664D03*
X273278Y106073D03*
X268703Y103728D03*
X259940Y95492D03*
X253940D03*
X247940D03*
X245596Y104092D03*
X251596D03*
X257596D03*
X263596D03*
X225111Y92615D03*
X231111D03*
X237111D03*
X222857Y169515D03*
Y163515D03*
X223000Y157600D03*
X235100Y240300D03*
X313500Y218400D03*
X258154Y192656D03*
X240419Y209278D03*
Y218332D03*
X295777Y233730D03*
X234742Y231503D03*
X267900Y231000D03*
X274000Y231600D03*
X228300Y179373D03*
X229396Y187873D03*
X224607Y179373D03*
X224700Y187873D03*
X257144Y179373D03*
X258588Y187873D03*
X267200Y192955D03*
Y187000D03*
X264500Y181500D03*
X267541Y206000D03*
X267200Y209300D03*
X258700Y197550D03*
Y203550D03*
X292200Y231900D03*
X286209Y231708D03*
X279200Y231700D03*
X267200Y224450D03*
Y218450D03*
X258900Y233700D03*
X262430Y238370D03*
X266000Y240100D03*
X225080Y194300D03*
X227049Y202800D03*
X249300Y204118D03*
X247600Y198300D03*
X242625Y194835D03*
X236590Y194133D03*
X230673Y194176D03*
X232200Y202800D03*
X239416D03*
X240800Y224316D03*
X240435Y230259D03*
X244000Y239200D03*
X247300Y236500D03*
X249400Y222500D03*
X228892Y231700D03*
X234565Y204856D03*
X276313Y211038D03*
X284187Y211188D03*
X282117Y226717D03*
X288494Y217600D03*
X336506Y207600D03*
Y217600D03*
X257050Y229950D03*
X250950D03*
X223133Y204856D03*
X225000Y226464D03*
X276313Y192443D03*
X284187Y192481D03*
X288494Y192600D03*
X336506Y197600D03*
X258000Y214000D03*
X254000D03*
X250000D03*
X246000D03*
X258000Y218000D03*
X254000D03*
X250000D03*
X327300Y187600D03*
X322288Y351488D03*
X328761Y393625D03*
X331700Y348880D03*
X232135Y350583D03*
X235846Y367920D03*
X298523Y297325D03*
X226802Y307584D03*
X267504Y310200D03*
X240159Y347303D03*
X241161Y313910D03*
X239936Y308159D03*
X249546Y351199D03*
X238300Y413500D03*
X240898Y361700D03*
X289913Y307070D03*
X295260Y304350D03*
X273000Y298600D03*
X261500Y301200D03*
X258798Y308129D03*
X269600Y307200D03*
X281600D03*
X267400Y323300D03*
X267298Y316113D03*
X258798Y318800D03*
X258646Y324680D03*
X267300Y335000D03*
X267298Y328400D03*
X258569Y332086D03*
X267319Y355304D03*
X267298Y346950D03*
X258600Y351200D03*
X258608Y356264D03*
X267298Y383866D03*
Y377866D03*
Y365866D03*
Y359866D03*
X258798Y361700D03*
X258224Y367738D03*
X258491Y373629D03*
X258798Y379700D03*
Y385700D03*
X249398Y310274D03*
X248166Y304402D03*
X244800Y300600D03*
X249398Y322113D03*
Y316113D03*
X240800Y318100D03*
X240898Y324800D03*
X249474Y333775D03*
X249398Y328400D03*
X240600Y329900D03*
X240898Y338050D03*
X249436Y361444D03*
X249398Y356300D03*
X240686Y367623D03*
X249438Y377612D03*
X249398Y371300D03*
X240898Y372530D03*
X240763Y378484D03*
X249398Y382130D03*
X240898Y386200D03*
Y392200D03*
X249398Y395800D03*
X240898Y401000D03*
X240686Y406940D03*
X254280Y415520D03*
X269354Y332301D03*
X238843D03*
X269354Y352850D03*
Y363282D03*
X251130Y365930D03*
X251454Y375000D03*
X253754Y393444D03*
X263751D03*
X251892Y407000D03*
X268751Y391033D03*
X258751Y390879D03*
X251894Y387500D03*
X228069Y354575D03*
Y373226D03*
X329391Y390738D03*
X301736Y361786D03*
X307274Y375053D03*
X311082Y354657D03*
X230300Y414414D03*
X269354Y320701D03*
X238843D03*
X233368Y312168D03*
X275903Y312246D03*
X250098Y346500D03*
X325550Y379100D03*
X301717Y365924D03*
X344450Y368900D03*
Y372400D03*
X325468Y390738D03*
X271003Y345047D03*
X272728Y342846D03*
Y346846D03*
X271003Y349047D03*
X307042Y383217D03*
Y379217D03*
X317468Y390738D03*
X236850Y310050D03*
X238000Y313500D03*
X337241Y464100D03*
X229090Y524680D03*
X237860Y521190D03*
X224992Y479396D03*
X227931Y484626D03*
X229897Y490295D03*
X230826Y496223D03*
X230900Y502223D03*
X230790Y511140D03*
X230860Y515980D03*
X229730Y519780D03*
X236100Y517480D03*
Y511480D03*
Y505480D03*
Y499480D03*
X235781Y493488D03*
X234558Y487614D03*
X232446Y481998D03*
X229496Y476773D03*
X225778Y472065D03*
X230260Y446460D03*
X224840Y446590D03*
X238007Y432307D03*
X250066Y431565D03*
X246880Y436130D03*
X237805Y524215D03*
X251500Y425600D03*
X234100Y436600D03*
X237100Y445800D03*
X241500Y441500D03*
X235587Y464913D03*
X227713Y464805D03*
X239214Y428714D03*
X307394Y440050D03*
X222500Y435738D03*
X228300Y430166D03*
X227842Y435492D03*
X325820Y426125D03*
X329320D03*
X268700Y428700D03*
X265700Y428900D03*
X262900Y429000D03*
X265700Y432400D03*
X268700Y432200D03*
X262900Y432500D03*
X233500Y522088D03*
X473845Y114424D03*
X467514Y115039D03*
X466715Y108708D03*
X468374Y63375D03*
X466192Y68662D03*
X466161Y74470D03*
X410287Y114609D03*
X405308Y116330D03*
X401620Y112580D03*
X403280Y107909D03*
X414651Y77882D03*
X417018Y71981D03*
X416987Y66080D03*
X411486Y63160D03*
X405001Y63252D03*
X402143Y68600D03*
X401960Y74700D03*
X469200Y79300D03*
Y85300D03*
Y91300D03*
Y97300D03*
Y103301D03*
X461430Y138100D03*
X461445Y132472D03*
X460161Y126611D03*
X456793Y121645D03*
X452472Y117482D03*
X447172Y114670D03*
X441222Y113895D03*
X435223D03*
X429225Y113720D03*
X423760Y111243D03*
X419470Y107048D03*
X415228Y102806D03*
X414972Y114712D03*
X419421Y118738D03*
X424776Y121444D03*
X430684Y122487D03*
X436684Y122495D03*
X442684Y122512D03*
X448094Y125108D03*
X452071Y129601D03*
X452850Y135550D03*
Y141550D03*
X413942Y100781D03*
Y94781D03*
Y88781D03*
Y82781D03*
X405342Y79300D03*
Y85300D03*
Y91300D03*
Y97300D03*
Y103301D03*
X402706Y168050D03*
X461400Y165450D03*
X452900Y159700D03*
Y165700D03*
X467040Y163700D03*
X473052Y163816D03*
X466050Y137300D03*
X470494Y145967D03*
X405047Y142647D03*
X472710Y135244D03*
Y153144D03*
X436316Y142647D03*
X374305Y153883D03*
Y149483D03*
X383184Y144883D03*
X379194Y139383D03*
X452622Y169939D03*
X461678D03*
X440600Y157524D03*
X442400Y150324D03*
X436700Y240100D03*
X384721Y202757D03*
X383123Y197225D03*
X405700Y194300D03*
X399700D03*
X393700D03*
X387700D03*
X391780Y202800D03*
X409780D03*
X419201Y193988D03*
X413380Y194300D03*
X414700Y202900D03*
X421249Y202800D03*
X424849Y194300D03*
X426300Y202900D03*
X433800Y202800D03*
X443500Y206994D03*
X443200Y200900D03*
X439800Y196100D03*
X433837Y194070D03*
X435000Y219582D03*
X434805Y225620D03*
X434639Y231480D03*
X443500Y222500D03*
X423368Y231700D03*
X416700D03*
X411200D03*
X471800Y231708D03*
X467271D03*
X461666Y230359D03*
X461400Y224450D03*
Y218450D03*
X452800Y222500D03*
X455900Y237500D03*
X461700Y206200D03*
X461400Y209300D03*
X452900Y197550D03*
Y203550D03*
X417333Y204856D03*
X428765D03*
X470815Y210924D03*
X420200Y226535D03*
X401000Y215800D03*
X451250Y229950D03*
X445150D03*
X470815Y192470D03*
X461678Y193061D03*
X452622D03*
X456200Y214000D03*
X452200D03*
Y218000D03*
X448200D03*
X444200D03*
X424425Y352734D03*
X428113Y356914D03*
X469300Y328600D03*
X444298Y395800D03*
X435798Y401000D03*
Y407000D03*
X444400Y390840D03*
X444298Y382600D03*
X435798Y386200D03*
Y392200D03*
X444351Y377514D03*
X444298Y371300D03*
X435798Y373000D03*
X435692Y379043D03*
X462198Y383866D03*
X462310Y379400D03*
X462198Y359866D03*
X453698Y361700D03*
X453188Y367388D03*
X453388Y373616D03*
X453698Y379700D03*
Y385700D03*
X435700Y364100D03*
X444355Y361555D03*
X444300Y356272D03*
X462300Y355200D03*
X462198Y346950D03*
X453500Y351200D03*
X453513Y356258D03*
X444489Y334045D03*
X444298Y328400D03*
X462300Y334900D03*
X462198Y328400D03*
X453568Y331982D03*
X462334Y323203D03*
X462198Y316113D03*
X453623Y318831D03*
X453698Y324800D03*
X444379Y322242D03*
X444298Y316113D03*
X435272Y318226D03*
X435798Y324800D03*
X414725Y307200D03*
X407300Y304300D03*
X444298Y310895D03*
X443356Y304969D03*
X439319Y300531D03*
X423300Y307500D03*
X432968Y307200D03*
X468100Y298700D03*
X455458Y302392D03*
X453698Y308129D03*
X464500Y307200D03*
X470100Y350490D03*
X432700Y413500D03*
X426721Y414188D03*
X433743Y332301D03*
X464254D03*
Y363282D03*
Y352850D03*
X446354Y364000D03*
Y375000D03*
X446910Y407145D03*
X448654Y394944D03*
X458651D03*
X446794Y387500D03*
X453651Y392536D03*
X463651Y392316D03*
X418967Y346469D03*
Y338595D03*
X433743Y320701D03*
X464156Y321288D03*
X427200Y312531D03*
X470803Y312283D03*
X473524Y414501D03*
X473551Y422375D03*
X354490Y386620D03*
Y383120D03*
X357990Y386620D03*
Y383120D03*
X376300Y308394D03*
X398170Y307783D03*
X461980Y524030D03*
X472893Y503120D03*
X468650Y507363D03*
X465145Y512233D03*
X463900Y518102D03*
X470810Y526800D03*
X470400Y520220D03*
X469740Y514720D03*
X473401Y509966D03*
X465000Y431500D03*
X459760Y431430D03*
X452640Y430600D03*
X452250Y439990D03*
X458140Y440530D03*
X465480Y440270D03*
X473120Y440320D03*
X440898Y432151D03*
X446676Y437621D03*
X359400Y453990D03*
Y460490D03*
X428200Y434506D03*
X450286Y425814D03*
X469206Y429160D03*
X362100Y441625D03*
X352470Y441035D03*
X389339Y428770D03*
Y448670D03*
X372875Y460925D03*
X398068Y448670D03*
X398118Y444720D03*
X395645Y426064D03*
X389090Y423520D03*
X398350Y432720D03*
X466500Y522043D03*
X396460Y461580D03*
X568075Y149584D03*
X499108Y153026D03*
X537279Y160525D03*
X593369Y120540D03*
X558978Y85657D03*
X569919Y87563D03*
X576066Y87440D03*
X544533Y74317D03*
Y68201D03*
X541705Y63314D03*
X534821Y63406D03*
X529934Y66080D03*
Y71520D03*
X503780Y76560D03*
X480650Y74440D03*
X480729Y66326D03*
X475320Y63345D03*
X597916Y116983D03*
X597953Y140983D03*
Y146983D03*
X598076Y152982D03*
X599969Y158675D03*
X596884Y67106D03*
X590884Y67175D03*
X585101Y68773D03*
X580249Y72302D03*
X577482Y77626D03*
X577242Y83621D03*
X585842Y85480D03*
X585882Y79480D03*
X590687Y75887D03*
X596684Y75706D03*
X599542Y90412D03*
X593542D03*
X587542D03*
X589412Y99012D03*
X595412D03*
X584066Y113343D03*
X588309Y117586D03*
X595158Y112272D03*
X590915Y108030D03*
X586672Y103787D03*
X566001Y101704D03*
X570155Y106034D03*
X575940Y107626D03*
X564872Y87867D03*
X555124Y101995D03*
X559367Y97753D03*
X547728Y97229D03*
X541902Y98661D03*
X535902D03*
X529930Y99248D03*
X514340Y115804D03*
X522658Y125703D03*
X522825Y117205D03*
X525317Y111747D03*
X530150Y108191D03*
X536077Y107261D03*
X542077D03*
X548077D03*
X541658Y76781D03*
X533058Y76005D03*
X534466Y87838D03*
X538574Y92210D03*
X544326Y93918D03*
X550326Y93921D03*
X550595Y85321D03*
X544595D03*
X545014Y125700D03*
X539014D03*
X533014D03*
X535000Y134300D03*
X541000D03*
X484345Y110940D03*
X487044Y116298D03*
X491273Y120554D03*
X495516Y124797D03*
X499890Y128960D03*
X505436Y133784D03*
X511414Y134300D03*
X517414D03*
X523414D03*
X529414D03*
X524878Y125700D03*
X518878D03*
X512860Y125380D03*
X506894Y122756D03*
X502070Y119189D03*
X497827Y114946D03*
X493584Y110703D03*
X599066Y81500D03*
X593066D03*
X587066D03*
X575066D03*
X569066D03*
X563066D03*
X557066D03*
X551066D03*
X545066D03*
X533066D03*
X527066D03*
X521066D03*
X516179Y84981D03*
X516100Y90980D03*
Y96980D03*
X504390Y112692D03*
X510389Y112610D03*
X516141Y110902D03*
X520867Y107206D03*
X523865Y102008D03*
X524700Y96067D03*
X525331Y90100D03*
X531331D03*
X591331D03*
X597331D03*
X508257Y97600D03*
Y91600D03*
Y85600D03*
Y79600D03*
X499657Y79300D03*
Y85300D03*
Y91300D03*
Y97300D03*
X498000Y101546D03*
X492000D03*
X482046D03*
X478800Y110146D03*
X477800Y100781D03*
Y94781D03*
Y88781D03*
Y82781D03*
X581485Y99503D03*
X577476Y98855D03*
X544690Y170550D03*
X539256Y170379D03*
X533180Y170550D03*
X524139Y170358D03*
X518195D03*
X512100Y170500D03*
X506100D03*
X501750D03*
X495750D03*
X561690Y149800D03*
X562800Y158500D03*
X567857Y162800D03*
Y168800D03*
X576357Y169190D03*
Y163190D03*
X575987Y157201D03*
X573005Y151995D03*
X556180Y149800D03*
X549982Y149664D03*
X552090Y158300D03*
X558090D03*
X541034Y149603D03*
X535063Y149317D03*
X519000Y149750D03*
X513000D03*
X529100D03*
X524000Y149700D03*
X519450Y163750D03*
X525450D03*
X509200D03*
X515200D03*
X496953Y163857D03*
X502947Y163750D03*
X485810Y155200D03*
X479810D03*
X481720Y163700D03*
X487883Y163939D03*
X524800Y137300D03*
X518800D03*
X519650Y145800D03*
X525650D03*
X514277Y137300D03*
X509200Y145800D03*
X513800D03*
X498300Y135300D03*
X491007Y137300D03*
X502897Y145800D03*
X485810Y137300D03*
X479810D03*
X476210Y145800D03*
X554580Y160356D03*
X565190D03*
X542120Y167906D03*
X522500Y165806D03*
Y147856D03*
X515800Y147800D03*
X495467Y127181D03*
X495780Y145967D03*
X483320Y135244D03*
Y153144D03*
X545908Y167906D03*
X491892Y145844D03*
X498800Y168444D03*
X491492Y127181D03*
X508050Y137050D03*
X508000Y155100D03*
X530050Y158250D03*
X573430Y96593D03*
X585286Y231213D03*
X572255Y188493D03*
X576557Y175154D03*
X520191Y181424D03*
X528582Y179304D03*
X541411Y198400D03*
X543979Y202323D03*
X588366Y207586D03*
X590131Y217170D03*
X595001Y213665D03*
X545800Y179200D03*
X535090Y179050D03*
X541090D03*
X506572Y179000D03*
X496500D03*
X502500D03*
X575100Y231400D03*
X569700Y231800D03*
X594200Y224316D03*
X593957Y230345D03*
X581600Y179450D03*
X580900Y188100D03*
X584049Y194300D03*
X594200Y203550D03*
Y209550D03*
X599390Y194830D03*
X593474Y194055D03*
X578480Y194300D03*
X572351Y194014D03*
X574100Y202900D03*
X580449Y202800D03*
X564900Y194300D03*
X558900D03*
X552900D03*
X546900D03*
X550880Y202800D03*
X568880D03*
X489447Y233766D03*
X483800Y231739D03*
X497857Y229004D03*
X503650Y225606D03*
X507850D03*
X512950D03*
X517050D03*
X560200Y215800D03*
X576533Y204856D03*
X587965D03*
X578400Y226544D03*
X487623Y211250D03*
X487185Y208400D03*
X539883Y205628D03*
X510377Y216223D03*
X534406Y216650D03*
X542900Y224510D03*
X478689Y210998D03*
X481025Y229581D03*
X583365Y189212D03*
Y178188D03*
X537580Y181106D03*
X548190D03*
X529000Y189006D03*
X525120D03*
X512725Y179325D03*
X483453Y193010D03*
X510377Y189277D03*
X478689Y192470D03*
X559157Y183250D03*
X571157Y179250D03*
X563157Y183250D03*
X567157D03*
Y179250D03*
X486800Y204800D03*
X516380Y394410D03*
X522630Y399040D03*
X521980Y394860D03*
X514100Y398400D03*
X512964Y408640D03*
X516432Y403744D03*
X510492Y402702D03*
X507595Y407957D03*
X506154Y413781D03*
X506010Y419779D03*
X511210Y422353D03*
Y416353D03*
X590388Y365397D03*
X593573Y347871D03*
X586252Y375319D03*
X594100Y312300D03*
X591700Y413200D03*
X506000Y322400D03*
X537280Y336250D03*
X594200Y318100D03*
X594298Y324800D03*
X594155Y329781D03*
X594298Y338050D03*
X594137Y367696D03*
X594298Y372530D03*
X594092Y378545D03*
X594298Y386200D03*
Y392200D03*
Y401000D03*
X594137Y407076D03*
X591468Y307200D03*
X568366Y305600D03*
X574149Y307200D03*
X476500D03*
X484810Y307032D03*
X490300Y304500D03*
X478894Y358350D03*
X495950Y349394D03*
X500050D03*
X505150D03*
X509350D03*
X515143Y346066D03*
X581700Y411914D03*
X592243Y332301D03*
X581054Y371772D03*
Y353201D03*
X573180D03*
X529547Y381990D03*
Y375490D03*
X525395Y363712D03*
X525810Y366600D03*
X475823Y372700D03*
X502623Y385723D03*
Y358777D03*
X515846Y323300D03*
X592243Y320701D03*
X585700Y312263D03*
X599498Y342500D03*
X492057Y414501D03*
Y422375D03*
X480500Y315100D03*
X477942Y337058D03*
X480249Y378049D03*
X531271Y321749D03*
X533500Y320700D03*
X532000Y302700D03*
X528500D03*
X541370Y408170D03*
X504100Y317200D03*
X541995Y405095D03*
X504400Y311300D03*
X571900Y468700D03*
X506010Y425779D03*
Y443779D03*
Y449779D03*
X504814Y467668D03*
X502214Y473075D03*
X498348Y477664D03*
X494106Y481907D03*
X489863Y486150D03*
X485621Y490392D03*
X481378Y494635D03*
X477135Y498878D03*
X477643Y505724D03*
X481886Y501481D03*
X486128Y497238D03*
X490371Y492996D03*
X494614Y488753D03*
X498856Y484510D03*
X503097Y480266D03*
X506805Y475548D03*
X509450Y470163D03*
X510919Y464346D03*
X511310Y450050D03*
X511210Y446353D03*
Y440353D03*
Y428353D03*
X596740Y499080D03*
X553910Y430200D03*
X541680Y462180D03*
X544140Y459550D03*
X544060Y454850D03*
X541520Y450030D03*
X531550Y504660D03*
X540100Y493130D03*
X539930Y486670D03*
X539230Y479990D03*
Y474400D03*
X539320Y468370D03*
X530630Y471170D03*
X530190Y467240D03*
X526310Y462520D03*
X522550Y458630D03*
X521240Y453610D03*
X521060Y447460D03*
X525170Y441560D03*
X556170Y439120D03*
X551960Y438850D03*
X545230Y438980D03*
X540480Y439140D03*
X586830Y438200D03*
X594300D03*
X588360Y429120D03*
X581540Y429030D03*
X550540Y429940D03*
X543250Y430290D03*
X535040Y430160D03*
X527440Y430210D03*
X520800Y430290D03*
X514860Y430340D03*
X496310Y431290D03*
X480500Y440360D03*
X487700Y440270D03*
X495260Y440230D03*
X502200Y440320D03*
X527330Y438960D03*
X520340Y439140D03*
X513880Y439090D03*
X531200Y441320D03*
X530740Y450380D03*
X531500Y455320D03*
X535190Y458740D03*
X538070Y461580D03*
X536018Y445804D03*
X543123Y508497D03*
X545582Y499277D03*
X539497Y499707D03*
X572136Y508866D03*
X600007Y436607D03*
X537368Y508243D03*
X546885Y510180D03*
X573500Y429200D03*
X568225Y429089D03*
X576800Y438200D03*
X564200Y429288D03*
X558200D03*
X560600Y437938D03*
X588500Y499200D03*
X579094Y508243D03*
X585072Y508438D03*
X591100Y509200D03*
X560333Y512867D03*
X549600Y499281D03*
X554800Y492100D03*
X555867Y516906D03*
X555929Y521570D03*
X556033Y526370D03*
X555846Y531070D03*
X555867Y535870D03*
X567516Y517820D03*
X598500Y520936D03*
X595500D03*
X599500Y518936D03*
X597000D03*
X594500D03*
Y510936D03*
X597000D03*
X599500D03*
Y513436D03*
X597000D03*
X594500D03*
X599500Y516436D03*
X597000D03*
X594500D03*
X597000Y502436D03*
Y507436D03*
Y504936D03*
X518418Y492890D03*
Y489890D03*
X520418Y493890D03*
Y491390D03*
Y488890D03*
X528418Y491390D03*
X525918D03*
X522918D03*
X534418D03*
X531918D03*
X536918D03*
X522918Y488890D03*
Y493890D03*
X525918Y488890D03*
Y493890D03*
X528418D03*
Y488890D03*
X576533Y490800D03*
X588549Y492500D03*
Y487500D03*
X562500Y481394D03*
X567533Y478300D03*
X589406Y483000D03*
X504978Y431432D03*
X500510Y429400D03*
X560700Y427232D03*
X579550Y425880D03*
X594444Y426804D03*
X581679Y440183D03*
X512900Y452294D03*
X517800Y453114D03*
X476110Y429500D03*
X557833Y504493D03*
X562833D03*
X557833Y499493D03*
X562833D03*
X566787Y461100D03*
Y446200D03*
X581454Y457584D03*
X581602Y449755D03*
X572933Y482533D03*
X670000Y159500D03*
X660000D03*
X650000D03*
X640000D03*
Y144500D03*
X650000D03*
X660000D03*
X670000D03*
Y129500D03*
X660000D03*
X650000D03*
X640000D03*
Y114500D03*
X660000D03*
X670000D03*
Y104500D03*
X660000D03*
X650000D03*
X640000D03*
X650000Y89500D03*
X660000D03*
X640000D03*
X670000D03*
X634521Y164275D03*
X634337Y157329D03*
X626899Y154809D03*
X620507Y155054D03*
X617925Y118543D03*
X624502Y121001D03*
X633169Y120817D03*
X637164Y115162D03*
X637226Y108646D03*
X637164Y100901D03*
X630772Y98258D03*
X623764D03*
X620814Y81293D03*
X629051Y80986D03*
X634275Y78589D03*
X634460Y71397D03*
X634337Y64820D03*
X627453Y61746D03*
X621121D03*
X606553Y146163D03*
Y140163D03*
X606480Y116163D03*
X605394Y110262D03*
X603057Y104736D03*
X603859Y163244D03*
X608934Y166444D03*
X614689Y168142D03*
X613666Y159077D03*
X608572Y155907D03*
X614884Y67106D03*
X608884D03*
X602884D03*
X602684Y75706D03*
X608684D03*
X614684D03*
X609184Y79605D03*
X605542Y90377D03*
X601412Y99012D03*
X617784Y85390D03*
X603331Y90100D03*
X607425Y94487D03*
Y100487D03*
X607582Y106484D03*
X610570Y111688D03*
X616180Y113816D03*
X617856Y105217D03*
X616025Y99503D03*
Y93503D03*
X614977Y87595D03*
X610954Y83144D03*
X605184Y81500D03*
X640000Y174500D03*
X650000D03*
X660000D03*
X670000D03*
X626961Y231397D03*
X620814Y229861D03*
X620322Y173249D03*
X627575Y173863D03*
X634275Y171712D03*
X645621Y231952D03*
X639800Y231600D03*
X632900D03*
X602700Y231500D03*
X620600Y224450D03*
Y218450D03*
X615820Y238390D03*
X620428Y211730D03*
X612100Y197550D03*
Y203550D03*
X621100Y206400D03*
X611050Y187950D03*
X620700Y192100D03*
X620194Y186245D03*
X616746Y181335D03*
X611800Y179300D03*
X602432Y201294D03*
X630213Y211185D03*
X638087Y211073D03*
X636400Y226563D03*
X610450Y229950D03*
X604350D03*
X630213Y192321D03*
X638087Y192470D03*
X609636Y178188D03*
X609400Y190500D03*
X615400Y214000D03*
X611400D03*
Y218000D03*
Y210000D03*
X607400D03*
Y218000D03*
X603400D03*
X663240Y332040D03*
X602798Y322113D03*
X602893Y316128D03*
X620700Y323400D03*
X620698Y316113D03*
X612198Y318800D03*
X612104Y324753D03*
X620700Y335100D03*
X620698Y328400D03*
X612104Y332003D03*
X602800Y333700D03*
X602893Y328440D03*
X620800Y355200D03*
X620698Y346950D03*
X612000Y351400D03*
X612075Y356170D03*
X620760Y384420D03*
X621030Y379220D03*
X620698Y359866D03*
X612198Y361700D03*
X611704Y367693D03*
X611845Y373768D03*
X612198Y379700D03*
Y385700D03*
X602900Y361300D03*
X602798Y356348D03*
X602803Y377532D03*
X602798Y371300D03*
Y382130D03*
Y395800D03*
X626573Y298525D03*
X613958Y302392D03*
X612198Y308129D03*
X623000Y307200D03*
X635000D03*
X602798Y310797D03*
X601813Y304878D03*
X643300Y307300D03*
X648700Y304900D03*
X622754Y352850D03*
X607680Y415520D03*
X622754Y363282D03*
X607154Y393444D03*
X617151D03*
X622754Y332301D03*
X605294Y387500D03*
X612151Y391015D03*
X622151Y390869D03*
X604854Y375000D03*
Y364000D03*
X604954Y407000D03*
X622754Y320701D03*
X629303Y312181D03*
X611498Y342500D03*
Y346500D03*
Y338500D03*
X615498Y342500D03*
X607498D03*
Y346500D03*
X603498Y338500D03*
X607498D03*
X637414Y499743D03*
X631414D03*
X625414D03*
X619414D03*
X613414D03*
X614373Y508243D03*
X620373D03*
X626373D03*
X632373D03*
X638373D03*
X644373Y508243D03*
X650400Y509100D03*
X656022Y510827D03*
X661180Y513892D03*
X665495Y518061D03*
X667100Y523800D03*
X675800Y522200D03*
X674225Y516391D03*
X671004Y511329D03*
X666557Y507301D03*
X661506Y504061D03*
X655998Y501683D03*
X650300Y500200D03*
X644196Y499743D03*
X604510Y431040D03*
X604800Y425600D03*
X608906Y499743D03*
X602890Y498770D03*
X603800Y508800D03*
X609814Y508243D03*
X606487Y476187D03*
X605260Y493960D03*
G54D22*
G01X213170Y116170D02*
X217000Y120000D01*
G01D02*
X220830Y123830D01*
G01X213170D02*
X217000Y120000D01*
G01D02*
X220830Y116170D01*
G01X213170Y136170D02*
X217000Y140000D01*
G01D02*
X220830Y143830D01*
G01X213170D02*
X217000Y140000D01*
G01D02*
X220830Y136170D01*
G01X233170Y116170D02*
X237000Y120000D01*
G01D02*
X240830Y123830D01*
G01X233170D02*
X237000Y120000D01*
G01D02*
X240830Y116170D01*
G01X233170Y136170D02*
X237000Y140000D01*
G01D02*
X240830Y143830D01*
G01X233170D02*
X237000Y140000D01*
G01D02*
X240830Y136170D01*
G01X551170Y116170D02*
X555000Y120000D01*
G01D02*
X558830Y123830D01*
G01X551170D02*
X555000Y120000D01*
G01D02*
X558830Y116170D01*
G01X571170D02*
X575000Y120000D01*
G01D02*
X578830Y123830D01*
G01X571170D02*
X575000Y120000D01*
G01D02*
X578830Y116170D01*
G01X551170Y136170D02*
X555000Y140000D01*
G01D02*
X558830Y143830D01*
G01X551170D02*
X555000Y140000D01*
G01D02*
X558830Y136170D01*
G01X571170D02*
X575000Y140000D01*
G01D02*
X578830Y143830D01*
G01X571170D02*
X575000Y140000D01*
G01D02*
X578830Y136170D01*
G54D13*
G01X174100Y304700D02*
X177600D01*
G01D02*
Y316900D01*
X175700Y318800D01*
Y321400D01*
G01X332836Y379964D02*
Y385976D01*
X333140Y386280D01*
Y391546D01*
X331061Y393625D01*
X328761D01*
G01X322288Y351488D02*
X323914Y353114D01*
Y353286D01*
X329018Y358390D01*
X331900D01*
G01D02*
X334500D01*
X334600Y358290D01*
X336660D01*
G01X343660D02*
X340160D01*
G01X336660D02*
X340160D01*
G01X301717Y365924D02*
X312374D01*
X325550Y379100D01*
G01X344450Y372400D02*
Y368900D01*
G01X325468Y390738D02*
Y384592D01*
X328801Y381259D01*
Y376975D01*
X334566Y371210D01*
X340960D01*
X342150Y372400D01*
X344450D01*
G01X389090Y423520D02*
X393100D01*
X395645Y426064D01*
G01D02*
X398350Y428770D01*
Y432720D01*
G01X398118Y444720D02*
Y448620D01*
X398068Y448670D01*
G01X398350Y432720D02*
X395529Y435541D01*
Y442131D01*
X398118Y444720D01*
G01X375827Y512047D02*
X383307D01*
G01X528500Y302700D02*
X532000D01*
G01X533500Y320700D02*
Y318400D01*
X532000Y316900D01*
Y302700D01*
G01X533500Y320700D02*
X532451Y321749D01*
X531271D01*
X37554Y237854D03*
X40198Y237715D03*
X42954D03*
X45710D03*
X48466D03*
X37518Y245964D03*
Y248720D03*
X40198Y240471D03*
Y243227D03*
X37518Y292898D03*
Y290142D03*
X40198Y295654D03*
X85093Y268095D03*
X82337D03*
X79581D03*
X76825D03*
Y270850D03*
X79581D03*
X82337D03*
X85093D03*
Y273606D03*
X82337D03*
X79581D03*
X76825D03*
Y276362D03*
X79581D03*
X82337D03*
X85093D03*
Y279118D03*
X82337D03*
X79581D03*
X76825D03*
Y281874D03*
X79581D03*
X82337D03*
X85093D03*
X71313Y254250D03*
Y251495D03*
Y248739D03*
Y245983D03*
Y240471D03*
Y243227D03*
X68558Y245983D03*
Y248739D03*
Y251495D03*
Y254250D03*
Y243227D03*
Y240471D03*
X65802D03*
X63046D03*
X60290D03*
X57534Y243227D03*
X60290D03*
X63046D03*
X65802D03*
X42954Y240471D03*
X45710D03*
X48466D03*
Y243227D03*
X45710D03*
X42954D03*
X34687Y254250D03*
Y251495D03*
X37442D03*
Y254250D03*
X85093Y284630D03*
Y287386D03*
Y290142D03*
Y292898D03*
Y295654D03*
X82337D03*
Y292898D03*
Y290142D03*
Y287386D03*
Y284630D03*
X79581D03*
Y287386D03*
Y290142D03*
Y292898D03*
Y295654D03*
X76825D03*
Y292898D03*
Y290142D03*
Y287386D03*
Y284630D03*
X74069D03*
Y287386D03*
Y290142D03*
Y292898D03*
Y295654D03*
X71313D03*
Y292898D03*
Y290142D03*
Y287386D03*
Y284630D03*
X68558D03*
Y287386D03*
Y290142D03*
Y292898D03*
Y295654D03*
X40198Y292898D03*
Y290142D03*
X34687Y287386D03*
Y284630D03*
X37442D03*
Y287386D03*
X48466Y295654D03*
X45710D03*
X42954D03*
Y292898D03*
X45710D03*
X48466D03*
X63046Y295654D03*
X65802D03*
Y292898D03*
X63046D03*
X57534Y290142D03*
X60290D03*
X63046D03*
X65802D03*
X48466D03*
X45710D03*
X42954D03*
X40198Y287386D03*
X42954D03*
X45710D03*
X48466D03*
X65802D03*
X63046D03*
X60290D03*
X57534D03*
X40198Y284630D03*
X42954D03*
X45710D03*
X48466D03*
X65802D03*
X63046D03*
X60290D03*
X57534D03*
Y245983D03*
X60290D03*
X63046D03*
X65802D03*
X48466D03*
X45710D03*
X42954D03*
X40198D03*
Y248739D03*
X42954D03*
X45710D03*
X48466D03*
X65802D03*
X63046D03*
X60290D03*
X57534D03*
Y251495D03*
X60290D03*
X63046D03*
X65802D03*
X48466D03*
X45710D03*
X42954D03*
X40198D03*
Y254250D03*
X42954D03*
X45710D03*
X48466D03*
X65802D03*
X63046D03*
X60290D03*
X57534D03*
X51622Y270818D03*
Y268062D03*
Y265306D03*
Y262550D03*
Y273574D03*
Y276330D03*
X54378D03*
Y273574D03*
Y262550D03*
Y265306D03*
Y268062D03*
Y270818D03*
X57134Y276330D03*
Y273574D03*
Y262550D03*
Y265306D03*
Y268062D03*
Y270818D03*
X59890Y276330D03*
Y273574D03*
Y262550D03*
Y265306D03*
Y268062D03*
Y270818D03*
X62646Y276330D03*
Y273574D03*
Y262550D03*
Y265306D03*
Y268062D03*
Y270818D03*
X65402Y276330D03*
Y273574D03*
Y262550D03*
Y265306D03*
Y268062D03*
Y270818D03*
X68748Y269440D03*
X62646Y259795D03*
X59890D03*
X62646Y279086D03*
X59890D03*
X62646Y281842D03*
X59890D03*
Y257039D03*
X62646D03*
X68748Y258417D03*
Y280464D03*
X48866Y276330D03*
Y273574D03*
Y262550D03*
Y265306D03*
Y268062D03*
Y270818D03*
X46110Y276330D03*
Y273574D03*
Y262550D03*
Y265306D03*
Y268062D03*
Y270818D03*
X43354Y276330D03*
Y273574D03*
Y262550D03*
Y265306D03*
Y268062D03*
Y270818D03*
X40598Y276330D03*
Y273574D03*
Y262550D03*
Y265306D03*
Y268062D03*
Y270818D03*
X37252Y269440D03*
Y280464D03*
Y258417D03*
X43354Y279086D03*
X46110D03*
X43354Y281842D03*
X46110D03*
X43354Y259795D03*
X46110D03*
X43354Y257039D03*
X46110D03*
X37518Y303978D03*
X48466Y303921D03*
X45710D03*
X42954D03*
X40198D03*
X37518Y301222D03*
X40198Y301165D03*
X42954D03*
X45710D03*
X48466D03*
X60290Y298410D03*
X40198D03*
X85093D03*
X82337D03*
X79581D03*
X76825D03*
X74069D03*
X71294Y298380D03*
X68558Y298410D03*
X42954D03*
X45710D03*
X48466D03*
X65802D03*
X63046D03*
X154377Y203010D03*
Y206947D03*
X157377D03*
Y203010D03*
X160814Y206947D03*
Y203010D03*
X150940Y206947D03*
Y203010D03*
X154377Y199073D03*
X157377D03*
X160814D03*
X150940D03*
X203854Y234959D03*
X206610D03*
X209366D03*
X201098D03*
X198342D03*
X195587D03*
Y237715D03*
X198342D03*
X201098D03*
X209366D03*
X206610D03*
X203854D03*
X195587Y248739D03*
Y245983D03*
Y243227D03*
Y240471D03*
X198342Y245983D03*
Y248739D03*
Y240471D03*
Y243227D03*
X201098D03*
Y240471D03*
X151413Y234959D03*
X148658D03*
X145902D03*
X143146D03*
X140390D03*
X137634D03*
Y237715D03*
X140390D03*
X143146D03*
X145902D03*
X148658D03*
X151413D03*
X195587Y295654D03*
Y290142D03*
Y292898D03*
X198342D03*
Y290142D03*
Y295654D03*
X201098D03*
X218634Y245983D03*
X221390D03*
Y248739D03*
X218634D03*
Y251495D03*
X221390D03*
Y254250D03*
X218634D03*
X221390Y243227D03*
X218634D03*
Y240471D03*
X221390D03*
X203854Y243227D03*
X206610D03*
X209366D03*
Y240471D03*
X206610D03*
X203854D03*
X209366Y245983D03*
X206610D03*
X203854D03*
X201098D03*
Y248739D03*
X203854D03*
X206610D03*
X209366D03*
Y251495D03*
X206610D03*
X203854D03*
X201098D03*
Y254250D03*
X203854D03*
X206610D03*
X209366D03*
X198342D03*
Y251495D03*
X195587D03*
Y254250D03*
X221390Y284630D03*
X218634D03*
Y287386D03*
X221390D03*
Y290142D03*
X218634D03*
X201098D03*
Y292898D03*
X203854Y290142D03*
X206610D03*
X209366D03*
Y292898D03*
X206610D03*
X203854D03*
Y295654D03*
X206610D03*
X209366D03*
X201098Y284630D03*
X203854D03*
X206610D03*
X209366D03*
Y287386D03*
X206610D03*
X203854D03*
X201098D03*
X198342D03*
Y284630D03*
X195587D03*
Y287386D03*
X162437Y281874D03*
X159681D03*
X156925D03*
Y279118D03*
X159681D03*
X162437D03*
Y276362D03*
X159681D03*
X156925D03*
Y273606D03*
X159681D03*
X162437D03*
Y270850D03*
X159681D03*
X156925D03*
Y268095D03*
X159681D03*
X162437D03*
X114587Y295654D03*
Y290142D03*
Y292898D03*
X117342D03*
Y290142D03*
Y295654D03*
X120098D03*
X114587Y245983D03*
Y248739D03*
Y240471D03*
Y243227D03*
X117342Y248739D03*
Y245983D03*
Y243227D03*
Y240471D03*
X120098D03*
Y243227D03*
X137634Y245983D03*
X140390D03*
X143146D03*
X145902D03*
Y248739D03*
X143146D03*
X140390D03*
X137634D03*
Y251495D03*
X140390D03*
X143146D03*
X145902D03*
Y254250D03*
X143146D03*
X140390D03*
X137634D03*
X148658D03*
Y251495D03*
Y248739D03*
Y245983D03*
X151413D03*
Y248739D03*
Y251495D03*
Y254250D03*
X145902Y243227D03*
X143146D03*
X140390D03*
X137634D03*
Y240471D03*
X140390D03*
X143146D03*
X145902D03*
X148658D03*
Y243227D03*
X151413D03*
Y240471D03*
X122854Y243227D03*
X125610D03*
X128366D03*
X125610Y240471D03*
X122854D03*
X128366Y245983D03*
X125610D03*
X122854D03*
X120098D03*
Y248739D03*
X122854D03*
X125610D03*
X128366D03*
Y251495D03*
X125610D03*
X122854D03*
X120098D03*
Y254250D03*
X122854D03*
X125610D03*
X128366D03*
X117342D03*
Y251495D03*
X114587D03*
Y254250D03*
X117342Y287386D03*
Y284630D03*
X114587D03*
Y287386D03*
X120098Y284630D03*
Y287386D03*
Y290142D03*
Y292898D03*
X122854Y284630D03*
X125610D03*
X128366D03*
Y287386D03*
X125610D03*
X122854D03*
Y290142D03*
X125610D03*
X128366D03*
Y292898D03*
X125610D03*
X122854D03*
Y295654D03*
X125610D03*
X128366D03*
X143146Y292898D03*
X145902D03*
Y295654D03*
X143146D03*
X148658D03*
Y292898D03*
X151413D03*
Y295654D03*
X154169D03*
Y292898D03*
X156925D03*
Y295654D03*
X159681D03*
Y292898D03*
X162437D03*
Y295654D03*
X145902Y284630D03*
X143146D03*
X140390D03*
X137634D03*
Y287386D03*
X140390D03*
X143146D03*
X145902D03*
Y290142D03*
X143146D03*
X140390D03*
X137634D03*
X148658D03*
Y287386D03*
Y284630D03*
X151413D03*
Y287386D03*
Y290142D03*
X154169D03*
Y287386D03*
Y284630D03*
X156925D03*
Y287386D03*
Y290142D03*
X159681D03*
Y287386D03*
Y284630D03*
X162437D03*
Y287386D03*
Y290142D03*
X131622Y270818D03*
Y268062D03*
Y265306D03*
Y262550D03*
Y273574D03*
Y276330D03*
X134378D03*
Y273574D03*
Y262550D03*
Y265306D03*
Y268062D03*
Y270818D03*
X137134Y276330D03*
Y273574D03*
Y262550D03*
Y265306D03*
Y268062D03*
Y270818D03*
X139890Y276330D03*
Y273574D03*
Y262550D03*
Y265306D03*
Y268062D03*
Y270818D03*
X142646Y276330D03*
Y273574D03*
Y262550D03*
Y265306D03*
Y268062D03*
Y270818D03*
X145402Y276330D03*
Y273574D03*
Y262550D03*
Y265306D03*
Y268062D03*
Y270818D03*
X148748Y269440D03*
X142646Y259795D03*
X139890D03*
X142646Y279086D03*
X139890D03*
X142646Y281842D03*
X139890D03*
Y257039D03*
X142646D03*
X148748Y258417D03*
Y280464D03*
X128866Y276330D03*
Y273574D03*
Y262550D03*
Y265306D03*
Y268062D03*
Y270818D03*
X126110Y276330D03*
Y273574D03*
Y262550D03*
Y265306D03*
Y268062D03*
Y270818D03*
X123354Y276330D03*
Y273574D03*
Y262550D03*
Y265306D03*
Y268062D03*
Y270818D03*
X120598Y276330D03*
Y273574D03*
Y262550D03*
Y265306D03*
Y268062D03*
Y270818D03*
X117252Y269440D03*
Y280464D03*
Y258417D03*
X123354Y279086D03*
X126110D03*
X123354Y281842D03*
X126110D03*
X123354Y259795D03*
X126110D03*
X123354Y257039D03*
X126110D03*
X212622Y270818D03*
Y268062D03*
Y265306D03*
Y262550D03*
Y273574D03*
Y276330D03*
X215378D03*
Y273574D03*
Y262550D03*
Y265306D03*
Y268062D03*
Y270818D03*
X218134Y276330D03*
Y273574D03*
Y262550D03*
Y265306D03*
Y268062D03*
Y270818D03*
X220890Y276330D03*
Y273574D03*
Y262550D03*
Y265306D03*
Y268062D03*
Y270818D03*
Y259795D03*
Y279086D03*
Y281842D03*
Y257039D03*
X209866Y276330D03*
Y273574D03*
Y262550D03*
Y265306D03*
Y268062D03*
Y270818D03*
X207110Y276330D03*
Y273574D03*
Y262550D03*
Y265306D03*
Y268062D03*
Y270818D03*
X204354Y276330D03*
Y273574D03*
Y262550D03*
Y265306D03*
Y268062D03*
Y270818D03*
X201598Y276330D03*
Y273574D03*
Y262550D03*
Y265306D03*
Y268062D03*
Y270818D03*
X198252Y269440D03*
Y280464D03*
Y258417D03*
X204354Y279086D03*
X207110D03*
X204354Y281842D03*
X207110D03*
X204354Y259795D03*
X207110D03*
X204354Y257039D03*
X207110D03*
X164623Y369490D03*
Y373427D03*
Y365553D03*
X168060Y373427D03*
Y365553D03*
Y369490D03*
X161623Y373427D03*
Y369490D03*
X203854Y303921D03*
X206610D03*
X209366D03*
X201098D03*
X198342D03*
X195587D03*
Y301165D03*
X198342D03*
X201098D03*
X209366D03*
X206610D03*
X203854D03*
X137634Y303921D03*
Y301165D03*
X162437Y303921D03*
X159681D03*
X156925D03*
X154169D03*
X151413D03*
X148658D03*
X145902D03*
X143146D03*
X140390D03*
Y301165D03*
X143146D03*
X145902D03*
X148658D03*
X151413D03*
X154169D03*
X156925D03*
X159681D03*
X162437D03*
X221390Y298410D03*
X140390D03*
X195587D03*
X198342D03*
X201098D03*
X209366D03*
X206610D03*
X203854D03*
X114605Y298321D03*
X117342Y298410D03*
X120098D03*
X125610D03*
X122854D03*
X143146D03*
X145902D03*
X148658D03*
X151413D03*
X154169D03*
X156925D03*
X159681D03*
X162437D03*
X158186Y373427D03*
Y369490D03*
X161623Y365553D03*
X158186D03*
X298634Y234959D03*
X301390D03*
X304146D03*
X306902D03*
X309658D03*
X312413D03*
Y237715D03*
X309658D03*
X306902D03*
X304146D03*
X301390D03*
X298634D03*
X326193Y268095D03*
X323437D03*
X320681D03*
X317925D03*
Y270850D03*
X320681D03*
X323437D03*
X326193D03*
Y273606D03*
X323437D03*
X320681D03*
X317925D03*
Y276362D03*
X320681D03*
X323437D03*
X326193D03*
Y279118D03*
X323437D03*
X320681D03*
X317925D03*
Y281874D03*
X320681D03*
X323437D03*
X326193D03*
X298634Y290142D03*
X301390D03*
Y287386D03*
X298634D03*
Y284630D03*
X301390D03*
X326193D03*
Y287386D03*
Y290142D03*
X323437D03*
Y287386D03*
Y284630D03*
X320681D03*
Y287386D03*
Y290142D03*
X317925D03*
Y287386D03*
Y284630D03*
X315169D03*
Y287386D03*
Y290142D03*
X312413D03*
Y287386D03*
Y284630D03*
X309658D03*
Y287386D03*
Y290142D03*
X304146D03*
X306902D03*
Y287386D03*
X304146D03*
Y284630D03*
X306902D03*
X326193Y292898D03*
Y295654D03*
X323437D03*
Y292898D03*
X320681D03*
Y295654D03*
X317925D03*
Y292898D03*
X315169D03*
Y295654D03*
X312413D03*
Y292898D03*
X309658D03*
Y295654D03*
X304146D03*
X306902D03*
Y292898D03*
X304146D03*
X289366Y295654D03*
X286610D03*
X283854D03*
Y292898D03*
X286610D03*
X289366D03*
Y290142D03*
X286610D03*
X283854D03*
Y287386D03*
X286610D03*
X289366D03*
Y284630D03*
X286610D03*
X283854D03*
X281098Y292898D03*
Y290142D03*
Y287386D03*
Y284630D03*
X275587Y287386D03*
Y284630D03*
X278342D03*
Y287386D03*
X281098Y295654D03*
X278342D03*
Y290142D03*
Y292898D03*
X275587D03*
Y290142D03*
Y295654D03*
X312413Y254250D03*
Y251495D03*
Y248739D03*
Y245983D03*
X309658D03*
Y248739D03*
Y251495D03*
Y254250D03*
X298634D03*
X301390D03*
X304146D03*
X306902D03*
Y251495D03*
X304146D03*
X301390D03*
X298634D03*
Y248739D03*
X301390D03*
X304146D03*
X306902D03*
Y245983D03*
X304146D03*
X301390D03*
X298634D03*
X312413Y240471D03*
Y243227D03*
X309658D03*
Y240471D03*
X306902D03*
X304146D03*
X301390D03*
X298634D03*
Y243227D03*
X301390D03*
X304146D03*
X306902D03*
X275587Y254250D03*
Y251495D03*
X278342D03*
Y254250D03*
X289366D03*
X286610D03*
X283854D03*
X281098D03*
Y251495D03*
X283854D03*
X286610D03*
X289366D03*
Y248739D03*
X286610D03*
X283854D03*
X281098D03*
Y245983D03*
X283854D03*
X286610D03*
X289366D03*
X278342D03*
Y248739D03*
X275587D03*
Y245983D03*
X283854Y240471D03*
X286610D03*
X289366D03*
Y243227D03*
X286610D03*
X283854D03*
X281098D03*
Y240471D03*
X278342D03*
Y243227D03*
X275587D03*
Y240471D03*
X224146Y245983D03*
X226902D03*
Y248739D03*
X224146D03*
Y251495D03*
X226902D03*
Y254250D03*
X224146D03*
X229657D03*
Y251495D03*
Y248739D03*
Y245983D03*
X232413D03*
Y248739D03*
Y251495D03*
Y254250D03*
X226902Y243227D03*
X224146D03*
Y240471D03*
X226902D03*
X229657D03*
Y243227D03*
X232413D03*
Y240471D03*
X237925Y268095D03*
X240681D03*
X243437D03*
X246193D03*
Y281874D03*
X243437D03*
X240681D03*
X237925D03*
Y279118D03*
X240681D03*
X243437D03*
X246193D03*
Y276362D03*
X243437D03*
X240681D03*
X237925D03*
Y273606D03*
X240681D03*
X243437D03*
X246193D03*
Y270850D03*
X243437D03*
X240681D03*
X237925D03*
X224146Y292898D03*
X226902D03*
Y295654D03*
X224146D03*
X229657D03*
Y292898D03*
X232413D03*
Y295654D03*
X235169D03*
Y292898D03*
X237925D03*
Y295654D03*
X240681D03*
Y292898D03*
X243437D03*
Y295654D03*
X246193D03*
Y292898D03*
X226902Y284630D03*
X224146D03*
Y287386D03*
X226902D03*
Y290142D03*
X224146D03*
X229657D03*
Y287386D03*
Y284630D03*
X232413D03*
Y287386D03*
Y290142D03*
X235169D03*
Y287386D03*
Y284630D03*
X237925D03*
Y287386D03*
Y290142D03*
X240681D03*
Y287386D03*
Y284630D03*
X243437D03*
Y287386D03*
Y290142D03*
X246193D03*
Y287386D03*
Y284630D03*
X313875Y196368D03*
Y192432D03*
X310725D03*
Y196368D03*
X312300Y194400D03*
X223646Y276330D03*
Y273574D03*
Y262550D03*
Y265306D03*
Y268062D03*
Y270818D03*
X226402Y276330D03*
Y273574D03*
Y262550D03*
Y265306D03*
Y268062D03*
Y270818D03*
X229748Y269440D03*
X223646Y259795D03*
Y279086D03*
Y281842D03*
Y257039D03*
X229748Y258417D03*
Y280464D03*
X292622Y270818D03*
Y268062D03*
Y265306D03*
Y262550D03*
Y273574D03*
Y276330D03*
X295378D03*
Y273574D03*
Y262550D03*
Y265306D03*
Y268062D03*
Y270818D03*
X298134Y276330D03*
Y273574D03*
Y262550D03*
Y265306D03*
Y268062D03*
Y270818D03*
X300890Y276330D03*
Y273574D03*
Y262550D03*
Y265306D03*
Y268062D03*
Y270818D03*
X303646Y276330D03*
Y273574D03*
Y262550D03*
Y265306D03*
Y268062D03*
Y270818D03*
X306402Y276330D03*
Y273574D03*
Y262550D03*
Y265306D03*
Y268062D03*
Y270818D03*
X309748Y269440D03*
X303646Y259795D03*
X300890D03*
X303646Y279086D03*
X300890D03*
X303646Y281842D03*
X300890D03*
Y257039D03*
X303646D03*
X309748Y258417D03*
Y280464D03*
X289866Y276330D03*
Y273574D03*
Y262550D03*
Y265306D03*
Y268062D03*
Y270818D03*
X287110Y276330D03*
Y273574D03*
Y262550D03*
Y265306D03*
Y268062D03*
Y270818D03*
X284354Y276330D03*
Y273574D03*
Y262550D03*
Y265306D03*
Y268062D03*
Y270818D03*
X281598Y276330D03*
Y273574D03*
Y262550D03*
Y265306D03*
Y268062D03*
Y270818D03*
X278252Y269440D03*
Y280464D03*
Y258417D03*
X284354Y279086D03*
X287110D03*
X284354Y281842D03*
X287110D03*
X284354Y259795D03*
X287110D03*
X284354Y257039D03*
X287110D03*
X298634Y303921D03*
Y301165D03*
X304146Y303921D03*
X306902D03*
X309658D03*
X312413D03*
X315169D03*
X317925D03*
X320681D03*
X323437D03*
X326193D03*
X301390D03*
Y301165D03*
X326193D03*
X323437D03*
X320681D03*
X317925D03*
X315169D03*
X312413D03*
X309658D03*
X306902D03*
X304146D03*
X301390Y298410D03*
X326193D03*
X323437D03*
X320681D03*
X317925D03*
X315169D03*
X312413D03*
X309658D03*
X306902D03*
X304146D03*
X283854D03*
X286610D03*
X281098D03*
X278342D03*
X275570Y298277D03*
X224146Y298410D03*
X226902D03*
X229657D03*
X232451Y298294D03*
X235207D03*
X237992Y298255D03*
X240681Y298410D03*
X243437D03*
X246193D03*
X327186Y450490D03*
Y454427D03*
X337060Y450490D03*
Y454427D03*
X333623Y450490D03*
Y454427D03*
X330623D03*
Y450490D03*
X327186Y446553D03*
X337060D03*
X333623D03*
X330623D03*
X393242Y237715D03*
X395998D03*
X404266D03*
X401510D03*
X398754D03*
X393242Y245983D03*
Y248739D03*
X395998Y243227D03*
Y240471D03*
X393242Y295654D03*
X390487D03*
X395998D03*
X387731Y290142D03*
X390487Y292898D03*
X393242D03*
Y290142D03*
X390487D03*
X470487Y254250D03*
Y251495D03*
X473242D03*
Y254250D03*
Y245983D03*
Y248739D03*
X470487D03*
Y245983D03*
X473242Y240471D03*
Y243227D03*
X470487D03*
Y240471D03*
Y287386D03*
Y284630D03*
X473242D03*
Y287386D03*
Y295654D03*
Y290142D03*
Y292898D03*
X470487D03*
Y290142D03*
Y295654D03*
X432825Y268095D03*
X435581D03*
X438337D03*
X441093D03*
Y281874D03*
X438337D03*
X435581D03*
X432825D03*
Y279118D03*
X435581D03*
X438337D03*
X441093D03*
Y276362D03*
X438337D03*
X435581D03*
X432825D03*
Y273606D03*
X435581D03*
X438337D03*
X441093D03*
Y270850D03*
X438337D03*
X435581D03*
X432825D03*
X424557Y295654D03*
Y292898D03*
X427313D03*
Y295654D03*
X430069D03*
Y292898D03*
X432825D03*
Y295654D03*
X435581D03*
Y292898D03*
X438337D03*
Y295654D03*
X441093D03*
Y292898D03*
X424557Y290142D03*
Y287386D03*
Y284630D03*
X427313D03*
Y287386D03*
Y290142D03*
X430069D03*
Y287386D03*
Y284630D03*
X432825D03*
Y287386D03*
Y290142D03*
X435581D03*
Y287386D03*
Y284630D03*
X438337D03*
Y287386D03*
Y290142D03*
X441093D03*
Y287386D03*
Y284630D03*
X395998Y290142D03*
Y292898D03*
X398754Y290142D03*
X401510D03*
X404266D03*
Y292898D03*
X401510D03*
X398754D03*
Y295654D03*
X401510D03*
X404266D03*
X395998Y284630D03*
X398754D03*
X401510D03*
X404266D03*
Y287386D03*
X401510D03*
X398754D03*
X395998D03*
X393242D03*
Y284630D03*
X390487D03*
Y287386D03*
X419046Y292898D03*
X421802D03*
Y295654D03*
X419046D03*
X421802Y284630D03*
X419046D03*
X416290D03*
X413534D03*
Y287386D03*
X416290D03*
X419046D03*
X421802D03*
Y290142D03*
X419046D03*
X416290D03*
X413534D03*
X424557Y254250D03*
Y251495D03*
Y248739D03*
Y245983D03*
X427313D03*
Y248739D03*
Y251495D03*
Y254250D03*
X424557Y240471D03*
Y243227D03*
X427313D03*
Y240471D03*
X404266Y245983D03*
X401510D03*
X398754D03*
X395998D03*
Y248739D03*
X398754D03*
X401510D03*
X404266D03*
Y251495D03*
X401510D03*
X398754D03*
X395998D03*
Y254250D03*
X398754D03*
X401510D03*
X404266D03*
X393242D03*
Y251495D03*
X390487D03*
Y254250D03*
X413534Y245983D03*
X416290D03*
X419046D03*
X421802D03*
Y248739D03*
X419046D03*
X416290D03*
X413534D03*
Y251495D03*
X416290D03*
X419046D03*
X421802D03*
Y254250D03*
X419046D03*
X416290D03*
X413534D03*
X398754Y243227D03*
X401510D03*
X404266D03*
Y240471D03*
X401510D03*
X398754D03*
X421802Y243227D03*
X419046D03*
X416290D03*
X413534D03*
Y240471D03*
X416290D03*
X419046D03*
X421802D03*
X407522Y270818D03*
Y268062D03*
Y265306D03*
Y262550D03*
Y273574D03*
Y276330D03*
X410278D03*
Y273574D03*
Y262550D03*
Y265306D03*
Y268062D03*
Y270818D03*
X413034Y276330D03*
Y273574D03*
Y262550D03*
Y265306D03*
Y268062D03*
Y270818D03*
X415790Y276330D03*
Y273574D03*
Y262550D03*
Y265306D03*
Y268062D03*
Y270818D03*
X418546Y276330D03*
Y273574D03*
Y262550D03*
Y265306D03*
Y268062D03*
Y270818D03*
X421302Y276330D03*
Y273574D03*
Y262550D03*
Y265306D03*
Y268062D03*
Y270818D03*
X424648Y269440D03*
X418546Y259795D03*
X415790D03*
X418546Y279086D03*
X415790D03*
X418546Y281842D03*
X415790D03*
Y257039D03*
X418546D03*
X424648Y258417D03*
Y280464D03*
X404766Y276330D03*
Y273574D03*
Y262550D03*
Y265306D03*
Y268062D03*
Y270818D03*
X402010Y276330D03*
Y273574D03*
Y262550D03*
Y265306D03*
Y268062D03*
Y270818D03*
X399254Y276330D03*
Y273574D03*
Y262550D03*
Y265306D03*
Y268062D03*
Y270818D03*
X396498Y276330D03*
Y273574D03*
Y262550D03*
Y265306D03*
Y268062D03*
Y270818D03*
X393152Y269440D03*
Y280464D03*
Y258417D03*
X399254Y279086D03*
X402010D03*
X399254Y281842D03*
X402010D03*
X399254Y259795D03*
X402010D03*
X399254Y257039D03*
X402010D03*
X473152Y269440D03*
Y280464D03*
Y258417D03*
X398754Y303921D03*
X401510D03*
X404266D03*
Y301165D03*
X401510D03*
X398754D03*
X395998Y298410D03*
X390487D03*
X393242D03*
X416290D03*
X473242D03*
X470487D03*
X424557D03*
X427285Y298368D03*
X430041D03*
X432797D03*
X435581Y298410D03*
X438337D03*
X441093D03*
X404266D03*
X401510D03*
X398754D03*
X419046D03*
X421802D03*
X508877Y203010D03*
Y206947D03*
X511877D03*
Y203010D03*
X515314Y206947D03*
Y203010D03*
X505440Y206947D03*
Y203010D03*
X508877Y199073D03*
X511877D03*
X515314D03*
X505440D03*
X510069Y281874D03*
Y279118D03*
Y276362D03*
Y273606D03*
Y270850D03*
Y268095D03*
X591325Y243227D03*
Y240471D03*
X588569D03*
Y243227D03*
X562766Y234959D03*
X560010D03*
X557254D03*
X554498D03*
X551742D03*
X548987D03*
Y237715D03*
X551742D03*
X554498D03*
X557254D03*
X560010D03*
X562766D03*
X554498Y240471D03*
X551742D03*
X548987D03*
Y243227D03*
X551742D03*
X554498D03*
X548987Y245983D03*
Y248739D03*
X551742D03*
Y245983D03*
X493534Y234959D03*
X496290D03*
X499046D03*
X501802D03*
X504558D03*
X507313D03*
Y237715D03*
X504558D03*
X501802D03*
X499046D03*
X496290D03*
X493534D03*
X507313Y248739D03*
Y245983D03*
Y240471D03*
Y243227D03*
X504558D03*
Y240471D03*
X507313Y254250D03*
Y251495D03*
X504558Y245983D03*
Y248739D03*
Y251495D03*
Y254250D03*
X493534D03*
X496290D03*
X499046D03*
X501802D03*
Y251495D03*
X499046D03*
X496290D03*
X493534D03*
Y248739D03*
X496290D03*
X499046D03*
X501802D03*
Y245983D03*
X499046D03*
X496290D03*
X493534D03*
X484266Y254250D03*
X481510D03*
X478754D03*
X475998D03*
Y251495D03*
X478754D03*
X481510D03*
X484266D03*
Y248739D03*
X481510D03*
X478754D03*
X475998D03*
Y245983D03*
X478754D03*
X481510D03*
X484266D03*
X501802Y240471D03*
X499046D03*
X496290D03*
X493534D03*
Y243227D03*
X496290D03*
X499046D03*
X501802D03*
X478754Y240471D03*
X481510D03*
X484266Y243227D03*
X481510D03*
X478754D03*
X475998D03*
Y240471D03*
X518337Y268095D03*
X515581D03*
X512825D03*
Y270850D03*
X515581D03*
X518337D03*
Y273606D03*
X515581D03*
X512825D03*
Y276362D03*
X515581D03*
X518337D03*
Y279118D03*
X515581D03*
X512825D03*
Y281874D03*
X515581D03*
X518337D03*
X493534Y290142D03*
X496290D03*
Y287386D03*
X493534D03*
Y284630D03*
X496290D03*
X499046Y290142D03*
Y287386D03*
Y284630D03*
Y295654D03*
Y292898D03*
X518337Y290142D03*
Y287386D03*
Y284630D03*
X515581D03*
Y287386D03*
Y290142D03*
X512825D03*
Y287386D03*
Y284630D03*
X510069D03*
Y287386D03*
Y290142D03*
X507313D03*
Y287386D03*
Y284630D03*
X504558D03*
Y287386D03*
Y290142D03*
X501802D03*
Y287386D03*
Y284630D03*
X518337Y295654D03*
Y292898D03*
X515581D03*
Y295654D03*
X512825D03*
Y292898D03*
X510069D03*
Y295654D03*
X507313D03*
Y292898D03*
X504558D03*
Y295654D03*
X501802D03*
Y292898D03*
X484266Y295654D03*
X481510D03*
X478754D03*
Y292898D03*
X481510D03*
X484266D03*
Y290142D03*
X481510D03*
X478754D03*
Y287386D03*
X481510D03*
X484266D03*
Y284630D03*
X481510D03*
X478754D03*
X475998Y292898D03*
Y290142D03*
Y287386D03*
Y284630D03*
Y295654D03*
X585813Y254250D03*
Y251495D03*
Y248739D03*
Y245983D03*
X583058D03*
Y248739D03*
Y251495D03*
Y254250D03*
X572034D03*
X574790D03*
X577546D03*
X580302D03*
Y251495D03*
X577546D03*
X574790D03*
X572034D03*
Y248739D03*
X574790D03*
X577546D03*
X580302D03*
Y245983D03*
X577546D03*
X574790D03*
X572034D03*
X585813Y240471D03*
Y243227D03*
X583058D03*
Y240471D03*
X580302D03*
X577546D03*
X574790D03*
X572034D03*
Y243227D03*
X574790D03*
X577546D03*
X580302D03*
X548987Y254250D03*
Y251495D03*
X551742D03*
Y254250D03*
X562766D03*
X560010D03*
X557254D03*
X554498D03*
Y251495D03*
X557254D03*
X560010D03*
X562766D03*
Y248739D03*
X560010D03*
X557254D03*
X554498D03*
Y245983D03*
X557254D03*
X560010D03*
X562766D03*
X557254Y240471D03*
X560010D03*
X562766D03*
Y243227D03*
X560010D03*
X557254D03*
X591325Y270850D03*
X594081D03*
X596837D03*
X599593D03*
Y273606D03*
X596837D03*
X594081D03*
X591325D03*
Y276362D03*
X594081D03*
X596837D03*
X599593D03*
Y279118D03*
X596837D03*
X594081D03*
X591325D03*
Y281874D03*
X594081D03*
X596837D03*
X599593D03*
Y268095D03*
X596837D03*
X594081D03*
X591325D03*
X599593Y284630D03*
Y287386D03*
Y290142D03*
X596837D03*
Y287386D03*
Y284630D03*
X594081D03*
Y287386D03*
Y290142D03*
X591325D03*
Y287386D03*
Y284630D03*
X588569D03*
Y287386D03*
Y290142D03*
X585813D03*
Y287386D03*
Y284630D03*
X583058D03*
Y287386D03*
Y290142D03*
X572034D03*
X574790D03*
X577546D03*
X580302D03*
Y287386D03*
X577546D03*
X574790D03*
X572034D03*
Y284630D03*
X574790D03*
X577546D03*
X580302D03*
X599593Y292898D03*
Y295654D03*
X596837D03*
Y292898D03*
X594081D03*
Y295654D03*
X591325D03*
Y292898D03*
X588569D03*
Y295654D03*
X585813D03*
Y292898D03*
X583058D03*
Y295654D03*
X577546D03*
X580302D03*
Y292898D03*
X577546D03*
X548987Y287386D03*
Y284630D03*
X551742D03*
Y287386D03*
X554498D03*
X557254D03*
X560010D03*
X562766D03*
Y284630D03*
X560010D03*
X557254D03*
X554498D03*
X562766Y295654D03*
X560010D03*
X557254D03*
Y292898D03*
X560010D03*
X562766D03*
Y290142D03*
X560010D03*
X557254D03*
X554498Y292898D03*
Y290142D03*
Y295654D03*
X551742D03*
Y290142D03*
Y292898D03*
X548987D03*
Y290142D03*
Y295654D03*
X487522Y270818D03*
Y268062D03*
Y265306D03*
Y262550D03*
Y273574D03*
Y276330D03*
X490278D03*
Y273574D03*
Y262550D03*
Y265306D03*
Y268062D03*
Y270818D03*
X493034Y276330D03*
Y273574D03*
Y262550D03*
Y265306D03*
Y268062D03*
Y270818D03*
X495790Y276330D03*
Y273574D03*
Y262550D03*
Y265306D03*
Y268062D03*
Y270818D03*
X498546Y276330D03*
Y273574D03*
Y262550D03*
Y265306D03*
Y268062D03*
Y270818D03*
X501302Y276330D03*
Y273574D03*
Y262550D03*
Y265306D03*
Y268062D03*
Y270818D03*
X504648Y269440D03*
X498546Y259795D03*
X495790D03*
X498546Y279086D03*
X495790D03*
X498546Y281842D03*
X495790D03*
Y257039D03*
X498546D03*
X504648Y258417D03*
Y280464D03*
X484766Y276330D03*
Y273574D03*
Y262550D03*
Y265306D03*
Y268062D03*
Y270818D03*
X482010Y276330D03*
Y273574D03*
Y262550D03*
Y265306D03*
Y268062D03*
Y270818D03*
X479254Y276330D03*
Y273574D03*
Y262550D03*
Y265306D03*
Y268062D03*
Y270818D03*
X476498Y276330D03*
Y273574D03*
Y262550D03*
Y265306D03*
Y268062D03*
Y270818D03*
X479254Y279086D03*
X482010D03*
X479254Y281842D03*
X482010D03*
X479254Y259795D03*
X482010D03*
X479254Y257039D03*
X482010D03*
X566022Y270818D03*
Y268062D03*
Y265306D03*
Y262550D03*
Y273574D03*
Y276330D03*
X568778D03*
Y273574D03*
Y262550D03*
Y265306D03*
Y268062D03*
Y270818D03*
X571534Y276330D03*
Y273574D03*
Y262550D03*
Y265306D03*
Y268062D03*
Y270818D03*
X574290Y276330D03*
Y273574D03*
Y262550D03*
Y265306D03*
Y268062D03*
Y270818D03*
X577046Y276330D03*
Y273574D03*
Y262550D03*
Y265306D03*
Y268062D03*
Y270818D03*
X579802Y276330D03*
Y273574D03*
Y262550D03*
Y265306D03*
Y268062D03*
Y270818D03*
X583148Y269440D03*
X577046Y259795D03*
X574290D03*
X577046Y279086D03*
X574290D03*
X577046Y281842D03*
X574290D03*
Y257039D03*
X577046D03*
X583148Y258417D03*
Y280464D03*
X563266Y276330D03*
Y273574D03*
Y262550D03*
Y265306D03*
Y268062D03*
Y270818D03*
X560510Y276330D03*
Y273574D03*
Y262550D03*
Y265306D03*
Y268062D03*
Y270818D03*
X557754Y276330D03*
Y273574D03*
Y262550D03*
Y265306D03*
Y268062D03*
Y270818D03*
X554998Y276330D03*
Y273574D03*
Y262550D03*
Y265306D03*
Y268062D03*
Y270818D03*
X551652Y269440D03*
Y280464D03*
Y258417D03*
X557754Y279086D03*
X560510D03*
X557754Y281842D03*
X560510D03*
X557754Y259795D03*
X560510D03*
X557754Y257039D03*
X560510D03*
X497686Y371990D03*
Y375927D03*
X507560Y371990D03*
Y375927D03*
X504123Y371990D03*
Y375927D03*
X501123D03*
Y371990D03*
X497686Y368053D03*
X507560D03*
X504123D03*
X493534Y298410D03*
X548987Y303921D03*
X551742D03*
X554498D03*
X562766D03*
X560010D03*
X557254D03*
Y301165D03*
X560010D03*
X562766D03*
X554498D03*
X551742D03*
X548987D03*
X493534D03*
X496290D03*
X499046D03*
X518337D03*
X515581D03*
X512825D03*
X510069D03*
X507313D03*
X504558D03*
X501802D03*
X574790Y298410D03*
X496290D03*
X499046D03*
X518337D03*
X515581D03*
X512825D03*
X510069D03*
X507313D03*
X504558D03*
X501802D03*
X478754D03*
X481510D03*
X475998D03*
X599593D03*
X596837D03*
X594081D03*
X591370Y298274D03*
X588614D03*
X585858D03*
X583058Y298410D03*
X580302D03*
X577546D03*
X557254D03*
X560010D03*
X562766D03*
X554498D03*
X551742D03*
X548987D03*
X501123Y368053D03*
X663058Y234959D03*
Y237715D03*
X660302Y234959D03*
X657546D03*
X654790D03*
X652034D03*
Y237715D03*
X654790D03*
X657546D03*
X660302D03*
X628987Y245983D03*
Y248739D03*
X631742D03*
Y245983D03*
X642766D03*
X640010D03*
X637254D03*
X634498D03*
Y248739D03*
X637254D03*
X640010D03*
X642766D03*
Y251495D03*
X640010D03*
X637254D03*
X634498D03*
Y254250D03*
X637254D03*
X640010D03*
X642766D03*
X631742D03*
Y251495D03*
X628987D03*
Y254250D03*
X652034Y245983D03*
X654790D03*
X657546D03*
X660302D03*
Y248739D03*
X657546D03*
X654790D03*
X652034D03*
Y251495D03*
X654790D03*
X657546D03*
X660302D03*
Y254250D03*
X657546D03*
X654790D03*
X652034D03*
X663058D03*
Y251495D03*
Y248739D03*
Y245983D03*
X665813Y251495D03*
Y254250D03*
X628987Y240471D03*
Y243227D03*
X631742D03*
Y240471D03*
X634498D03*
Y243227D03*
X637254D03*
X640010D03*
X642766D03*
Y240471D03*
X640010D03*
X637254D03*
X660302Y243227D03*
X657546D03*
X654790D03*
X652034D03*
Y240471D03*
X654790D03*
X657546D03*
X660302D03*
X679593Y281874D03*
X676837D03*
X674081D03*
X671325D03*
Y279118D03*
X674081D03*
X676837D03*
X679593D03*
Y276362D03*
X676837D03*
X674081D03*
X671325D03*
Y273606D03*
X674081D03*
X676837D03*
X679593D03*
Y270850D03*
X676837D03*
X674081D03*
X671325D03*
Y268095D03*
X674081D03*
X676837D03*
X679593D03*
X660302Y292898D03*
Y295654D03*
X663058D03*
Y292898D03*
X665813D03*
Y295654D03*
X668569D03*
Y292898D03*
X671325D03*
Y295654D03*
X674081D03*
Y292898D03*
X676837D03*
Y295654D03*
X679593D03*
Y292898D03*
X660302Y284630D03*
Y287386D03*
Y290142D03*
X663058D03*
Y287386D03*
Y284630D03*
X665813D03*
Y287386D03*
Y290142D03*
X668569D03*
Y287386D03*
Y284630D03*
X671325D03*
Y287386D03*
Y290142D03*
X674081D03*
Y287386D03*
Y284630D03*
X676837D03*
Y287386D03*
Y290142D03*
X679593D03*
Y287386D03*
Y284630D03*
X628987Y295654D03*
Y290142D03*
Y292898D03*
X631742D03*
Y290142D03*
Y295654D03*
X634498D03*
X631742Y287386D03*
Y284630D03*
X628987D03*
Y287386D03*
X634498Y284630D03*
Y287386D03*
Y290142D03*
Y292898D03*
X637254Y284630D03*
X640010D03*
X642766D03*
Y287386D03*
X640010D03*
X637254D03*
Y290142D03*
X640010D03*
X642766D03*
Y292898D03*
X640010D03*
X637254D03*
Y295654D03*
X640010D03*
X642766D03*
X657546Y292898D03*
Y295654D03*
Y284630D03*
Y287386D03*
Y290142D03*
X654790Y284630D03*
X652034D03*
Y287386D03*
X654790D03*
Y290142D03*
X652034D03*
X646022Y270818D03*
Y268062D03*
Y265306D03*
Y262550D03*
Y273574D03*
Y276330D03*
X648778D03*
Y273574D03*
Y262550D03*
Y265306D03*
Y268062D03*
Y270818D03*
X651534Y276330D03*
Y273574D03*
Y262550D03*
Y265306D03*
Y268062D03*
Y270818D03*
X654290Y276330D03*
Y273574D03*
Y262550D03*
Y265306D03*
Y268062D03*
Y270818D03*
X657046Y276330D03*
Y273574D03*
Y262550D03*
Y265306D03*
Y268062D03*
Y270818D03*
X659802Y276330D03*
Y273574D03*
Y262550D03*
Y265306D03*
Y268062D03*
Y270818D03*
X663148Y269440D03*
X657046Y259795D03*
X654290D03*
X657046Y279086D03*
X654290D03*
X657046Y281842D03*
X654290D03*
Y257039D03*
X657046D03*
X663148Y258417D03*
Y280464D03*
X643266Y276330D03*
Y273574D03*
Y262550D03*
Y265306D03*
Y268062D03*
Y270818D03*
X640510Y276330D03*
Y273574D03*
Y262550D03*
Y265306D03*
Y268062D03*
Y270818D03*
X637754Y276330D03*
Y273574D03*
Y262550D03*
Y265306D03*
Y268062D03*
Y270818D03*
X634998Y276330D03*
Y273574D03*
Y262550D03*
Y265306D03*
Y268062D03*
Y270818D03*
X631652Y269440D03*
Y280464D03*
Y258417D03*
X637754Y279086D03*
X640510D03*
X637754Y281842D03*
X640510D03*
X637754Y259795D03*
X640510D03*
X637754Y257039D03*
X640510D03*
X652034Y303921D03*
Y301165D03*
X657546Y303921D03*
X679593D03*
X676837D03*
X674081D03*
X671325D03*
X668569D03*
X665813D03*
X663058D03*
X660302D03*
X654790D03*
Y301165D03*
X660302D03*
X663058D03*
X665813D03*
X668569D03*
X671325D03*
X674081D03*
X676837D03*
X679593D03*
X657546D03*
X654790Y298410D03*
X660302D03*
X663058D03*
X665813D03*
X668569D03*
X671325D03*
X674081D03*
X676837D03*
X679593D03*
X629010Y298342D03*
X631766D03*
X634498Y298410D03*
X642600Y298200D03*
X640010Y298410D03*
X637254D03*
X657546D03*
G54D23*
G01X131509Y421653D02*
X135200Y425344D01*
G01D02*
X138891Y429035D01*
G01X131509D02*
X135200Y425344D01*
G01D02*
X138891Y421653D01*
G54D14*
X86833Y419000D03*
X83424D03*
X85128Y417000D03*
X86833Y415095D03*
X83424D03*
X247833Y418500D03*
X244424D03*
X246128Y416500D03*
X247833Y414595D03*
X244424D03*
X442733Y419000D03*
X439324D03*
X441028Y417000D03*
X442733Y415095D03*
X439324D03*
X599528Y416500D03*
X601233Y414595D03*
Y418500D03*
X597824Y414595D03*
Y418500D03*
G54D24*
G01X346795Y-27245D02*
X350000Y-24040D01*
G01X346795Y-20835D02*
X350000Y-24040D01*
G01X344008Y531410D02*
X345905Y533307D01*
G01D02*
X347803Y535204D01*
G01X344008D02*
X345905Y533307D01*
G01D02*
X347803Y531410D01*
G01X329048D02*
X330945Y533307D01*
G01D02*
X332842Y535204D01*
G01X329048D02*
X330945Y533307D01*
G01D02*
X332842Y531410D01*
G01X344008Y515465D02*
X345905Y517362D01*
G01D02*
X347803Y519259D01*
G01X344008D02*
X345905Y517362D01*
G01D02*
X347803Y515465D01*
G01X336528Y520780D02*
X338425Y522677D01*
G01D02*
X340322Y524574D01*
G01X336528D02*
X338425Y522677D01*
G01D02*
X340322Y520780D01*
G01X336528Y504835D02*
X338425Y506732D01*
G01D02*
X340322Y508630D01*
G01X336528D02*
X338425Y506732D01*
G01D02*
X340322Y504835D01*
G01X329048Y526095D02*
X330945Y527992D01*
G01D02*
X332842Y529889D01*
G01X329048D02*
X330945Y527992D01*
G01D02*
X332842Y526095D01*
G01X314087Y531410D02*
X315984Y533307D01*
G01D02*
X317881Y535204D01*
G01X314087D02*
X315984Y533307D01*
G01D02*
X317881Y531410D01*
G01X306607D02*
X308504Y533307D01*
G01D02*
X310401Y535204D01*
G01X306607D02*
X308504Y533307D01*
G01D02*
X310401Y531410D01*
G01X314087Y515465D02*
X315984Y517362D01*
G01X314087Y519259D02*
X315984Y517362D01*
G01X306607Y526095D02*
X308504Y527992D01*
G01D02*
X310401Y529889D01*
G01X306607D02*
X308504Y527992D01*
G01D02*
X310401Y526095D01*
G01X323464Y527992D02*
X325362Y529889D01*
G01X323464Y527992D02*
X325362Y526095D01*
G01X323464Y522677D02*
X325362Y524574D01*
G01X323464Y522677D02*
X325362Y520780D01*
G01X323464Y506732D02*
X325362Y508630D01*
G01X323464Y506732D02*
X325362Y504835D01*
G01X306607D02*
X308504Y506732D01*
G01X306607Y508630D02*
X308504Y506732D01*
G01X306607Y520780D02*
X308504Y522677D01*
G01X306607Y524574D02*
X308504Y522677D01*
G01X350000Y-24040D02*
X353205Y-20835D01*
G01X350000Y-24040D02*
X353205Y-27245D01*
G01X418811Y515465D02*
X420708Y517362D01*
G01D02*
X422606Y519259D01*
G01X418811D02*
X420708Y517362D01*
G01D02*
X422606Y515465D01*
G01X403851D02*
X405748Y517362D01*
G01D02*
X407645Y519259D01*
G01X403851D02*
X405748Y517362D01*
G01D02*
X407645Y515465D01*
G01X388890D02*
X390787Y517362D01*
G01D02*
X392684Y519259D01*
G01X388890D02*
X390787Y517362D01*
G01D02*
X392684Y515465D01*
G01X411331Y520780D02*
X413228Y522677D01*
G01D02*
X415125Y524574D01*
G01X411331D02*
X413228Y522677D01*
G01D02*
X415125Y520780D01*
G01X396370D02*
X398268Y522677D01*
G01D02*
X400165Y524574D01*
G01X396370D02*
X398268Y522677D01*
G01D02*
X400165Y520780D01*
G01X381410D02*
X383307Y522677D01*
G01D02*
X385204Y524574D01*
G01X381410D02*
X383307Y522677D01*
G01D02*
X385204Y520780D01*
G01X411331Y504835D02*
X413228Y506732D01*
G01D02*
X415125Y508630D01*
G01X411331D02*
X413228Y506732D01*
G01D02*
X415125Y504835D01*
G01X418811D02*
X420708Y506732D01*
G01D02*
X422606Y508630D01*
G01X418811D02*
X420708Y506732D01*
G01D02*
X422606Y504835D01*
G01X398268Y504332D02*
Y506732D01*
G01X397184Y504278D02*
X398268Y506732D01*
G01X366449Y504835D02*
X368346Y506732D01*
G01D02*
X370244Y504835D01*
G01X381410D02*
X383307Y506732D01*
G01X381410Y508630D02*
X383307Y506732D01*
G01X420708Y533307D02*
X422606Y535204D01*
G01X418811D02*
X420708Y533307D01*
G01X405748D02*
X407645Y535204D01*
G01X403851D02*
X405748Y533307D01*
G01X390787D02*
X392684Y535204D01*
G01X388890D02*
X390787Y533307D01*
G01X375827D02*
X377724Y535204D01*
G01X373929D02*
X375827Y533307D01*
G01X360866D02*
X362763Y535204D01*
G01X358969D02*
X360866Y533307D01*
G54D15*
X217000Y140000D03*
Y120000D03*
X237000Y140000D03*
Y120000D03*
X575000Y140000D03*
X555000D03*
X575000Y120000D03*
X555000D03*
G54D25*
G01X19433Y-132500D02*
Y-122500D01*
X22767D01*
X24100Y-123000D01*
X25100Y-123667D01*
X25934Y-124666D01*
X26600Y-125834D01*
X26767Y-127500D01*
X26600Y-129167D01*
X25934Y-130334D01*
X25100Y-131334D01*
X24100Y-132000D01*
X22767Y-132500D01*
X19433D01*
G01X30433D02*
X34600Y-122500D01*
X38767Y-132500D01*
G01X37267Y-129000D02*
X31933D01*
G01X46100Y-122500D02*
Y-132500D01*
G01X42267Y-122500D02*
X49933D01*
G01X60933Y-132500D02*
X54267D01*
Y-122500D01*
X60933D01*
G01X58267Y-127333D02*
X54267D01*
G01X69100Y-132833D02*
X68767Y-132667D01*
Y-132333D01*
X69100Y-132167D01*
X69433Y-132333D01*
Y-132667D01*
X69100Y-132833D01*
G01Y-128334D02*
X68767Y-128167D01*
Y-127833D01*
X69100Y-127667D01*
X69433Y-127833D01*
Y-128167D01*
X69100Y-128334D01*
G01X80600Y-132500D02*
Y-122500D01*
X78600Y-124500D01*
G01Y-132500D02*
X82600D01*
G01X89933Y-129167D02*
X94267D01*
G01X103600Y-132500D02*
Y-122500D01*
X101600Y-124500D01*
G01Y-132500D02*
X105600D01*
G01X111433Y-130500D02*
X112433Y-131667D01*
X113766Y-132333D01*
X115267Y-132500D01*
X116600Y-132333D01*
X117934Y-131500D01*
X118767Y-130500D01*
X118933Y-129500D01*
X118600Y-128334D01*
X117433Y-127500D01*
X116267Y-127167D01*
X114767D01*
G01X116267D02*
X117267Y-126667D01*
X118100Y-125834D01*
X118433Y-124833D01*
X118100Y-123833D01*
X117267Y-123000D01*
X115767Y-122500D01*
X114267Y-122667D01*
X112767Y-123334D01*
G01X124433Y-129167D02*
X128767D01*
G01X134933Y-124167D02*
X135933Y-123167D01*
X137100Y-122667D01*
X138433Y-122500D01*
X140100Y-122833D01*
X141267Y-123667D01*
X141600Y-124666D01*
X141433Y-125667D01*
X140767Y-126500D01*
X137433Y-128167D01*
X135933Y-129333D01*
X134933Y-131000D01*
X134600Y-132500D01*
X141600D01*
G01X149600Y-122500D02*
X148266Y-122833D01*
X147267Y-123667D01*
X146600Y-124666D01*
X146100Y-126000D01*
X145933Y-127500D01*
X146100Y-129000D01*
X146600Y-130334D01*
X147267Y-131334D01*
X148266Y-132167D01*
X149600Y-132500D01*
X150933Y-132167D01*
X151933Y-131334D01*
X152600Y-130334D01*
X153100Y-129000D01*
X153267Y-127500D01*
X153100Y-126000D01*
X152600Y-124666D01*
X151933Y-123667D01*
X150933Y-122833D01*
X149600Y-122500D01*
G01X161100Y-132500D02*
Y-122500D01*
X159100Y-124500D01*
G01Y-132500D02*
X163100D01*
G01X172267D02*
X172600Y-130334D01*
X173100Y-128500D01*
X173767Y-126833D01*
X174600Y-125000D01*
X175933Y-122500D01*
X169267D01*
G01X19233Y-151700D02*
Y-141700D01*
X22567D01*
X23900Y-142200D01*
X24900Y-142867D01*
X25733Y-143866D01*
X26400Y-145034D01*
X26567Y-146700D01*
X26400Y-148367D01*
X25733Y-149534D01*
X24900Y-150534D01*
X23900Y-151200D01*
X22567Y-151700D01*
X19233D01*
G01X37733D02*
X31067D01*
Y-141700D01*
X37733D01*
G01X35067Y-146533D02*
X31067D01*
G01X42400Y-150367D02*
X43733Y-151200D01*
X45233Y-151700D01*
X46567D01*
X47900Y-151200D01*
X48900Y-150367D01*
X49400Y-149200D01*
X49067Y-148034D01*
X48233Y-147033D01*
X46733Y-146367D01*
X44733Y-146033D01*
X43567Y-145367D01*
X43066Y-144200D01*
X43400Y-143033D01*
X44233Y-142200D01*
X45400Y-141700D01*
X46567D01*
X47733Y-142033D01*
X48733Y-142867D01*
G01X55400Y-141700D02*
X59400D01*
G01X57400D02*
Y-151700D01*
G01X55400D02*
X59400D01*
G01X69900Y-146700D02*
X73234D01*
Y-149700D01*
X72233Y-150700D01*
X71067Y-151367D01*
X69400Y-151700D01*
X67733Y-151367D01*
X66567Y-150700D01*
X65567Y-149700D01*
X64900Y-148533D01*
X64566Y-147200D01*
Y-146033D01*
X64900Y-145034D01*
X65567Y-143866D01*
X66567Y-142867D01*
X67566Y-142200D01*
X68900Y-141700D01*
X70067D01*
X71400Y-142033D01*
X72400Y-142700D01*
G01X76567Y-151700D02*
Y-141700D01*
X84233Y-151700D01*
Y-141700D01*
G01X95233Y-151700D02*
X88567D01*
Y-141700D01*
X95233D01*
G01X92567Y-146533D02*
X88567D01*
G01X99733Y-151700D02*
Y-141700D01*
X103067D01*
X104400Y-142200D01*
X105400Y-142867D01*
X106234Y-143866D01*
X106900Y-145034D01*
X107067Y-146700D01*
X106900Y-148367D01*
X106234Y-149534D01*
X105400Y-150534D01*
X104400Y-151200D01*
X103067Y-151700D01*
X99733D01*
G01X122233D02*
X126400Y-141700D01*
X130567Y-151700D01*
G01X129067Y-148200D02*
X123733D01*
G01X137900Y-141700D02*
Y-151700D01*
G01X134067Y-141700D02*
X141733D01*
G01X149400Y-152033D02*
X149067Y-151867D01*
Y-151533D01*
X149400Y-151367D01*
X149733Y-151533D01*
Y-151867D01*
X149400Y-152033D01*
G01Y-147534D02*
X149067Y-147367D01*
Y-147033D01*
X149400Y-146867D01*
X149733Y-147033D01*
Y-147367D01*
X149400Y-147534D01*
G01X17433Y-192300D02*
Y-182300D01*
X23767D01*
G01X21433Y-187133D02*
X17433D01*
G01X30100Y-182300D02*
X34100D01*
G01X32100D02*
Y-192300D01*
G01X30100D02*
X34100D01*
G01X40267Y-182300D02*
Y-192300D01*
X46933D01*
G01X50766D02*
Y-182300D01*
X55100Y-190633D01*
X59434Y-182300D01*
Y-192300D01*
G01X74767Y-182300D02*
Y-192300D01*
X81433D01*
G01X85433D02*
X89600Y-182300D01*
X93767Y-192300D01*
G01X92267Y-188800D02*
X86933D01*
G01X101100Y-192300D02*
Y-187800D01*
X97767Y-182300D01*
G01X104433D02*
X101100Y-187800D01*
G01X115933Y-192300D02*
X109267D01*
Y-182300D01*
X115933D01*
G01X113267Y-187133D02*
X109267D01*
G01X120767Y-192300D02*
Y-182300D01*
X124933D01*
X126267Y-182800D01*
X127100Y-183467D01*
X127433Y-184800D01*
X127100Y-186133D01*
X126100Y-186967D01*
X124933Y-187467D01*
X120767D01*
G01X124933D02*
X127433Y-192300D01*
G01X135600Y-192633D02*
X135267Y-192467D01*
Y-192133D01*
X135600Y-191967D01*
X135933Y-192133D01*
Y-192467D01*
X135600Y-192633D01*
G01Y-188134D02*
X135267Y-187967D01*
Y-187633D01*
X135600Y-187467D01*
X135933Y-187633D01*
Y-187967D01*
X135600Y-188134D01*
G01X26567Y-162534D02*
X25567Y-162033D01*
X24400Y-161700D01*
X23067D01*
X21566Y-162200D01*
X20400Y-163033D01*
X19567Y-164033D01*
X18900Y-165700D01*
X18733Y-167200D01*
X19067Y-168700D01*
X19567Y-169700D01*
X20567Y-170700D01*
X21733Y-171367D01*
X22900Y-171700D01*
X24067D01*
X25233Y-171367D01*
X26233Y-170867D01*
X27067Y-170200D01*
G01X30233Y-171700D02*
X34400Y-161700D01*
X38567Y-171700D01*
G01X37067Y-168200D02*
X31733D01*
G01X42567Y-171700D02*
Y-161700D01*
X46733D01*
X48067Y-162200D01*
X48900Y-162867D01*
X49233Y-164200D01*
X48900Y-165533D01*
X47900Y-166367D01*
X46733Y-166867D01*
X42567D01*
G01X46733D02*
X49233Y-171700D01*
G01X53733D02*
Y-161700D01*
X57067D01*
X58400Y-162200D01*
X59400Y-162867D01*
X60234Y-163866D01*
X60900Y-165034D01*
X61067Y-166700D01*
X60900Y-168367D01*
X60234Y-169534D01*
X59400Y-170534D01*
X58400Y-171200D01*
X57067Y-171700D01*
X53733D01*
G01X77067D02*
Y-161700D01*
X81233D01*
X82567Y-162200D01*
X83400Y-162867D01*
X83733Y-164200D01*
X83400Y-165533D01*
X82400Y-166367D01*
X81233Y-166867D01*
X77067D01*
G01X81233D02*
X83733Y-171700D01*
G01X95233D02*
X88567D01*
Y-161700D01*
X95233D01*
G01X92567Y-166533D02*
X88567D01*
G01X100233Y-171700D02*
Y-161700D01*
X106567D01*
G01X104233Y-166533D02*
X100233D01*
G01X114900Y-172033D02*
X114567Y-171867D01*
Y-171533D01*
X114900Y-171367D01*
X115233Y-171533D01*
Y-171867D01*
X114900Y-172033D01*
G01Y-167534D02*
X114567Y-167367D01*
Y-167033D01*
X114900Y-166867D01*
X115233Y-167033D01*
Y-167367D01*
X114900Y-167534D01*
G01X126400Y-171700D02*
X125066Y-171533D01*
X123900Y-170867D01*
X122900Y-169867D01*
X122233Y-168700D01*
X121900Y-167367D01*
Y-166033D01*
X122233Y-164700D01*
X122900Y-163533D01*
X123900Y-162534D01*
X125066Y-161867D01*
X126400Y-161700D01*
X127733Y-161867D01*
X128900Y-162534D01*
X129900Y-163533D01*
X130567Y-164700D01*
X130900Y-166033D01*
Y-167367D01*
X130567Y-168700D01*
X129900Y-169867D01*
X128900Y-170867D01*
X127733Y-171533D01*
X126400Y-171700D01*
G01X134900Y-175033D02*
Y-165034D01*
G01Y-166533D02*
X135733Y-165700D01*
X136566Y-165200D01*
X137900Y-165034D01*
X139067Y-165200D01*
X140233Y-166033D01*
X140734Y-167200D01*
X140900Y-168367D01*
X140734Y-169534D01*
X140233Y-170700D01*
X139233Y-171367D01*
X137900Y-171700D01*
X136733Y-171533D01*
X135567Y-171034D01*
X134900Y-170367D01*
G01X146900Y-167200D02*
X152234D01*
X151733Y-166033D01*
X150900Y-165367D01*
X149733Y-165034D01*
X148567Y-165200D01*
X147567Y-165700D01*
X146900Y-166867D01*
X146566Y-167867D01*
Y-168867D01*
X146900Y-169867D01*
X147733Y-170867D01*
X148733Y-171533D01*
X149900Y-171700D01*
X151067Y-171367D01*
X152234Y-170367D01*
G01X158066Y-171700D02*
Y-165034D01*
G01Y-166700D02*
X158733Y-165867D01*
X159733Y-165200D01*
X161067Y-165034D01*
X162233Y-165200D01*
X163233Y-165867D01*
X163734Y-167033D01*
Y-171700D01*
G01X176067Y-162534D02*
X175067Y-162033D01*
X173900Y-161700D01*
X172567D01*
X171066Y-162200D01*
X169900Y-163033D01*
X169067Y-164033D01*
X168400Y-165700D01*
X168233Y-167200D01*
X168567Y-168700D01*
X169067Y-169700D01*
X170067Y-170700D01*
X171233Y-171367D01*
X172400Y-171700D01*
X173567D01*
X174733Y-171367D01*
X175733Y-170867D01*
X176567Y-170200D01*
G01X181400Y-167200D02*
X186734D01*
X186233Y-166033D01*
X185400Y-165367D01*
X184233Y-165034D01*
X183067Y-165200D01*
X182067Y-165700D01*
X181400Y-166867D01*
X181066Y-167867D01*
Y-168867D01*
X181400Y-169867D01*
X182233Y-170867D01*
X183233Y-171533D01*
X184400Y-171700D01*
X185567Y-171367D01*
X186734Y-170367D01*
G01X195400Y-171700D02*
Y-161700D01*
G01X206900Y-171700D02*
Y-161700D01*
G01X215566Y-165034D02*
Y-169700D01*
X216233Y-170867D01*
X217233Y-171533D01*
X218400Y-171700D01*
X219567Y-171533D01*
X220567Y-170867D01*
X221234Y-169700D01*
G01Y-171700D02*
Y-165034D01*
G01X229900Y-171700D02*
Y-161700D01*
G01X244400Y-171700D02*
Y-165034D01*
G01Y-166200D02*
X243733Y-165533D01*
X242733Y-165200D01*
X241567Y-165034D01*
X240400Y-165367D01*
X239400Y-166033D01*
X238733Y-167033D01*
X238400Y-168367D01*
X238733Y-169700D01*
X239400Y-170700D01*
X240400Y-171367D01*
X241567Y-171700D01*
X242733Y-171533D01*
X243733Y-171034D01*
X244400Y-170367D01*
G01X250567Y-171700D02*
Y-165034D01*
G01Y-166367D02*
X251400Y-165700D01*
X252233Y-165200D01*
X253400Y-165034D01*
X254233Y-165200D01*
X255233Y-165700D01*
G01X275900Y-171700D02*
Y-161700D01*
G01X291067Y-162534D02*
X290067Y-162033D01*
X288900Y-161700D01*
X287567D01*
X286066Y-162200D01*
X284900Y-163033D01*
X284067Y-164033D01*
X283400Y-165700D01*
X283233Y-167200D01*
X283567Y-168700D01*
X284067Y-169700D01*
X285067Y-170700D01*
X286233Y-171367D01*
X287400Y-171700D01*
X288567D01*
X289733Y-171367D01*
X290733Y-170867D01*
X291567Y-170200D01*
G01X298900Y-171700D02*
X297900Y-171533D01*
X296900Y-170867D01*
X296233Y-169700D01*
X295900Y-168367D01*
X296233Y-167033D01*
X296900Y-165867D01*
X297900Y-165200D01*
X298900Y-165034D01*
X299900Y-165200D01*
X300900Y-165867D01*
X301567Y-167033D01*
X301734Y-168367D01*
X301567Y-169700D01*
X300900Y-170867D01*
X299900Y-171533D01*
X298900Y-171700D01*
G01X307566D02*
Y-165034D01*
G01Y-166700D02*
X308233Y-165867D01*
X309233Y-165200D01*
X310567Y-165034D01*
X311733Y-165200D01*
X312733Y-165867D01*
X313234Y-167033D01*
Y-171700D01*
G01X319066D02*
Y-165034D01*
G01Y-166700D02*
X319733Y-165867D01*
X320733Y-165200D01*
X322067Y-165034D01*
X323233Y-165200D01*
X324233Y-165867D01*
X324734Y-167033D01*
Y-171700D01*
G01X330900Y-167200D02*
X336234D01*
X335733Y-166033D01*
X334900Y-165367D01*
X333733Y-165034D01*
X332567Y-165200D01*
X331567Y-165700D01*
X330900Y-166867D01*
X330566Y-167867D01*
Y-168867D01*
X330900Y-169867D01*
X331733Y-170867D01*
X332733Y-171533D01*
X333900Y-171700D01*
X335067Y-171367D01*
X336234Y-170367D01*
G01X347567Y-165867D02*
X346400Y-165200D01*
X345400Y-165034D01*
X344067Y-165367D01*
X343067Y-166033D01*
X342400Y-167200D01*
X342233Y-168367D01*
X342400Y-169534D01*
X343067Y-170534D01*
X344067Y-171367D01*
X345400Y-171700D01*
X346567Y-171367D01*
X347567Y-170700D01*
G01X356400Y-161700D02*
Y-171700D01*
G01X354067Y-165034D02*
X358733D01*
G01X365733Y-168367D02*
X370067D01*
G01X379400Y-171700D02*
Y-161700D01*
X377400Y-163700D01*
G01Y-171700D02*
X381400D01*
G01X402400D02*
Y-161700D01*
G01X410733Y-171700D02*
Y-161700D01*
X417067D01*
G01X414733Y-166533D02*
X410733D01*
G01X422067Y-171700D02*
Y-161700D01*
X426233D01*
X427567Y-162200D01*
X428400Y-162867D01*
X428733Y-164200D01*
X428400Y-165533D01*
X427400Y-166367D01*
X426233Y-166867D01*
X422067D01*
G01X426233D02*
X428733Y-171700D01*
G01X436900D02*
X435566Y-171533D01*
X434400Y-170867D01*
X433400Y-169867D01*
X432733Y-168700D01*
X432400Y-167367D01*
Y-166033D01*
X432733Y-164700D01*
X433400Y-163533D01*
X434400Y-162534D01*
X435566Y-161867D01*
X436900Y-161700D01*
X438233Y-161867D01*
X439400Y-162534D01*
X440400Y-163533D01*
X441067Y-164700D01*
X441400Y-166033D01*
Y-167367D01*
X441067Y-168700D01*
X440400Y-169867D01*
X439400Y-170867D01*
X438233Y-171533D01*
X436900Y-171700D01*
G01X444567D02*
Y-161700D01*
X452233Y-171700D01*
Y-161700D01*
G01X459900D02*
Y-171700D01*
G01X456067Y-161700D02*
X463733D01*
G01X474733Y-171700D02*
X468067D01*
Y-161700D01*
X474733D01*
G01X472067Y-166533D02*
X468067D01*
G01X479067Y-171700D02*
Y-161700D01*
X486733Y-171700D01*
Y-161700D01*
G01X490733Y-171700D02*
Y-161700D01*
X494067D01*
X495400Y-162200D01*
X496400Y-162867D01*
X497234Y-163866D01*
X497900Y-165034D01*
X498067Y-166700D01*
X497900Y-168367D01*
X497234Y-169534D01*
X496400Y-170534D01*
X495400Y-171200D01*
X494067Y-171700D01*
X490733D01*
G01X518733Y-166367D02*
X519400Y-165867D01*
X519900Y-165034D01*
X520234Y-163866D01*
X519900Y-162867D01*
X519233Y-162200D01*
X518067Y-161700D01*
X513567D01*
Y-171700D01*
X519067D01*
X520234Y-171034D01*
X520900Y-170033D01*
X521233Y-168867D01*
X520900Y-167700D01*
X519900Y-166700D01*
X518733Y-166367D01*
X513567D01*
G01X528900Y-171700D02*
X527900Y-171533D01*
X526900Y-170867D01*
X526233Y-169700D01*
X525900Y-168367D01*
X526233Y-167033D01*
X526900Y-165867D01*
X527900Y-165200D01*
X528900Y-165034D01*
X529900Y-165200D01*
X530900Y-165867D01*
X531567Y-167033D01*
X531734Y-168367D01*
X531567Y-169700D01*
X530900Y-170867D01*
X529900Y-171533D01*
X528900Y-171700D01*
G01X543400D02*
Y-165034D01*
G01Y-166200D02*
X542733Y-165533D01*
X541733Y-165200D01*
X540567Y-165034D01*
X539400Y-165367D01*
X538400Y-166033D01*
X537733Y-167033D01*
X537400Y-168367D01*
X537733Y-169700D01*
X538400Y-170700D01*
X539400Y-171367D01*
X540567Y-171700D01*
X541733Y-171533D01*
X542733Y-171034D01*
X543400Y-170367D01*
G01X549567Y-171700D02*
Y-165034D01*
G01Y-166367D02*
X550400Y-165700D01*
X551233Y-165200D01*
X552400Y-165034D01*
X553233Y-165200D01*
X554233Y-165700D01*
G01X566400Y-161700D02*
Y-171700D01*
G01Y-170200D02*
X565733Y-171034D01*
X564733Y-171533D01*
X563567Y-171700D01*
X562233Y-171367D01*
X561233Y-170534D01*
X560566Y-169534D01*
X560400Y-168367D01*
X560566Y-167200D01*
X561233Y-166200D01*
X562233Y-165367D01*
X563567Y-165034D01*
X564733Y-165200D01*
X565567Y-165533D01*
X566400Y-166200D01*
G01X446000Y-50000D02*
X450000Y-46000D01*
Y-4000D01*
X454000Y0D01*
X696000D01*
X700000Y4000D01*
Y566000D01*
X696000Y570000D01*
X439000D01*
X435000Y566000D01*
Y544000D01*
X431000Y540000D01*
X269000D01*
X265000Y544000D01*
Y566000D01*
X261000Y570000D01*
X4000D01*
X0Y566000D01*
Y4000D01*
X4000Y0D01*
X246000D01*
X250000Y-4000D01*
Y-46000D01*
X254000Y-50000D01*
X446000D01*
G01X156767Y-182300D02*
Y-192300D01*
X163433D01*
G01X167433D02*
X171600Y-182300D01*
X175767Y-192300D01*
G01X174267Y-188800D02*
X168933D01*
G01X183100Y-192300D02*
Y-187800D01*
X179767Y-182300D01*
G01X186433D02*
X183100Y-187800D01*
G01X197933Y-192300D02*
X191267D01*
Y-182300D01*
X197933D01*
G01X195267Y-187133D02*
X191267D01*
G01X202767Y-192300D02*
Y-182300D01*
X206933D01*
X208267Y-182800D01*
X209100Y-183467D01*
X209433Y-184800D01*
X209100Y-186133D01*
X208100Y-186967D01*
X206933Y-187467D01*
X202767D01*
G01X206933D02*
X209433Y-192300D01*
G01X217600D02*
X218767Y-192133D01*
X220100Y-191634D01*
X220933Y-190800D01*
X221267Y-189633D01*
X220933Y-188467D01*
X219933Y-187467D01*
X218433Y-186967D01*
X216767D01*
X215767Y-186633D01*
X214933Y-185800D01*
X214600Y-184633D01*
X215100Y-183467D01*
X216266Y-182633D01*
X217600Y-182300D01*
X218933Y-182633D01*
X220100Y-183467D01*
X220600Y-184633D01*
X220267Y-185800D01*
X219433Y-186633D01*
X218433Y-186967D01*
X216767D01*
X215267Y-187467D01*
X214267Y-188467D01*
X213933Y-189633D01*
X214267Y-190800D01*
X215100Y-191634D01*
X216433Y-192133D01*
X217600Y-192300D01*
G01X273767Y-132500D02*
Y-122500D01*
X277767D01*
X279100Y-123000D01*
X280100Y-124167D01*
X280433Y-125500D01*
X280100Y-126833D01*
X279267Y-127833D01*
X277767Y-128334D01*
X273767D01*
G01X284433Y-132500D02*
X288600Y-122500D01*
X292767Y-132500D01*
G01X291267Y-129000D02*
X285933D01*
G01X296767Y-132500D02*
Y-122500D01*
X300933D01*
X302267Y-123000D01*
X303100Y-123667D01*
X303433Y-125000D01*
X303100Y-126333D01*
X302100Y-127167D01*
X300933Y-127667D01*
X296767D01*
G01X300933D02*
X303433Y-132500D01*
G01X311600Y-122500D02*
Y-132500D01*
G01X307767Y-122500D02*
X315433D01*
G01X330767Y-132500D02*
Y-122500D01*
X338433Y-132500D01*
Y-122500D01*
G01X342433D02*
Y-129667D01*
X343100Y-131167D01*
X344433Y-132167D01*
X346100Y-132500D01*
X347767Y-132167D01*
X349100Y-131167D01*
X349767Y-129667D01*
Y-122500D01*
G01X353266Y-132500D02*
Y-122500D01*
X357600Y-130833D01*
X361934Y-122500D01*
Y-132500D01*
G01X370433Y-127167D02*
X371100Y-126667D01*
X371600Y-125834D01*
X371934Y-124666D01*
X371600Y-123667D01*
X370933Y-123000D01*
X369767Y-122500D01*
X365267D01*
Y-132500D01*
X370767D01*
X371934Y-131834D01*
X372600Y-130833D01*
X372933Y-129667D01*
X372600Y-128500D01*
X371600Y-127500D01*
X370433Y-127167D01*
X365267D01*
G01X383933Y-132500D02*
X377267D01*
Y-122500D01*
X383933D01*
G01X381267Y-127333D02*
X377267D01*
G01X388767Y-132500D02*
Y-122500D01*
X392933D01*
X394267Y-123000D01*
X395100Y-123667D01*
X395433Y-125000D01*
X395100Y-126333D01*
X394100Y-127167D01*
X392933Y-127667D01*
X388767D01*
G01X392933D02*
X395433Y-132500D01*
G01X403600Y-132833D02*
X403267Y-132667D01*
Y-132333D01*
X403600Y-132167D01*
X403933Y-132333D01*
Y-132667D01*
X403600Y-132833D01*
G01Y-128334D02*
X403267Y-128167D01*
Y-127833D01*
X403600Y-127667D01*
X403933Y-127833D01*
Y-128167D01*
X403600Y-128334D01*
G01X411933Y-124167D02*
X412933Y-123167D01*
X414100Y-122667D01*
X415433Y-122500D01*
X417100Y-122833D01*
X418267Y-123667D01*
X418600Y-124666D01*
X418433Y-125667D01*
X417767Y-126500D01*
X414433Y-128167D01*
X412933Y-129333D01*
X411933Y-131000D01*
X411600Y-132500D01*
X418600D01*
G01X422933Y-130500D02*
X423933Y-131667D01*
X425267Y-132333D01*
X426767Y-132500D01*
X428100Y-132333D01*
X429434Y-131500D01*
X430267Y-130500D01*
X430433Y-129500D01*
X430100Y-128334D01*
X428933Y-127500D01*
X427767Y-127167D01*
X426267D01*
G01X427767D02*
X428767Y-126667D01*
X429600Y-125834D01*
X429933Y-124833D01*
X429600Y-123833D01*
X428767Y-123000D01*
X427267Y-122500D01*
X425767Y-122667D01*
X424267Y-123334D01*
G01X438100Y-132500D02*
Y-122500D01*
X436100Y-124500D01*
G01Y-132500D02*
X440100D01*
G01X447433Y-129167D02*
X451767D01*
G01X461100Y-122500D02*
X459766Y-122833D01*
X458767Y-123667D01*
X458100Y-124666D01*
X457600Y-126000D01*
X457433Y-127500D01*
X457600Y-129000D01*
X458100Y-130334D01*
X458767Y-131334D01*
X459766Y-132167D01*
X461100Y-132500D01*
X462433Y-132167D01*
X463433Y-131334D01*
X464100Y-130334D01*
X464600Y-129000D01*
X464767Y-127500D01*
X464600Y-126000D01*
X464100Y-124666D01*
X463433Y-123667D01*
X462433Y-122833D01*
X461100Y-122500D01*
G01X472600D02*
X471267Y-122833D01*
X470267Y-123667D01*
X469600Y-124666D01*
X469100Y-126000D01*
X468933Y-127500D01*
X469100Y-129000D01*
X469600Y-130334D01*
X470267Y-131334D01*
X471267Y-132167D01*
X472600Y-132500D01*
X473933Y-132167D01*
X474933Y-131334D01*
X475600Y-130334D01*
X476100Y-129000D01*
X476267Y-127500D01*
X476100Y-126000D01*
X475600Y-124666D01*
X474933Y-123667D01*
X473933Y-122833D01*
X472600Y-122500D01*
G01X484100D02*
X482766Y-122833D01*
X481767Y-123667D01*
X481100Y-124666D01*
X480600Y-126000D01*
X480433Y-127500D01*
X480600Y-129000D01*
X481100Y-130334D01*
X481767Y-131334D01*
X482766Y-132167D01*
X484100Y-132500D01*
X485433Y-132167D01*
X486433Y-131334D01*
X487100Y-130334D01*
X487600Y-129000D01*
X487767Y-127500D01*
X487600Y-126000D01*
X487100Y-124666D01*
X486433Y-123667D01*
X485433Y-122833D01*
X484100Y-122500D01*
G01X495600D02*
X494266Y-122833D01*
X493267Y-123667D01*
X492600Y-124666D01*
X492100Y-126000D01*
X491933Y-127500D01*
X492100Y-129000D01*
X492600Y-130334D01*
X493267Y-131334D01*
X494266Y-132167D01*
X495600Y-132500D01*
X496933Y-132167D01*
X497933Y-131334D01*
X498600Y-130334D01*
X499100Y-129000D01*
X499267Y-127500D01*
X499100Y-126000D01*
X498600Y-124666D01*
X497933Y-123667D01*
X496933Y-122833D01*
X495600Y-122500D01*
G01X507100Y-132500D02*
X508267Y-132333D01*
X509600Y-131834D01*
X510433Y-131000D01*
X510767Y-129833D01*
X510433Y-128667D01*
X509433Y-127667D01*
X507933Y-127167D01*
X506267D01*
X505267Y-126833D01*
X504433Y-126000D01*
X504100Y-124833D01*
X504600Y-123667D01*
X505766Y-122833D01*
X507100Y-122500D01*
X508433Y-122833D01*
X509600Y-123667D01*
X510100Y-124833D01*
X509767Y-126000D01*
X508933Y-126833D01*
X507933Y-127167D01*
X506267D01*
X504767Y-127667D01*
X503767Y-128667D01*
X503433Y-129833D01*
X503767Y-131000D01*
X504600Y-131834D01*
X505933Y-132333D01*
X507100Y-132500D01*
G01X514933Y-131000D02*
X515933Y-131834D01*
X517100Y-132333D01*
X518600Y-132500D01*
X520100Y-132167D01*
X521267Y-131500D01*
X522100Y-130334D01*
X522267Y-129000D01*
X521933Y-127667D01*
X521100Y-126833D01*
X519933Y-126167D01*
X518767Y-126000D01*
X517600Y-126167D01*
X516100Y-126833D01*
X516600Y-122500D01*
X521100D01*
G01X645867Y-163300D02*
Y-173300D01*
X652533D01*
G01X660700Y-166634D02*
Y-173300D01*
G01Y-163967D02*
X660367Y-163800D01*
Y-163467D01*
X660700Y-163300D01*
X661033Y-163467D01*
Y-163800D01*
X660700Y-163967D01*
G01X671200Y-173300D02*
Y-164800D01*
X671533Y-163967D01*
X672200Y-163467D01*
X673200Y-163300D01*
X674200Y-163633D01*
X674700Y-164467D01*
G01X672700Y-167300D02*
X669366D01*
G01X681200Y-168800D02*
X686534D01*
X686033Y-167633D01*
X685200Y-166967D01*
X684033Y-166634D01*
X682867Y-166800D01*
X681867Y-167300D01*
X681200Y-168467D01*
X680866Y-169467D01*
Y-170467D01*
X681200Y-171467D01*
X682033Y-172467D01*
X683033Y-173133D01*
X684200Y-173300D01*
X685367Y-172967D01*
X686534Y-171967D01*
G01X693033Y-169967D02*
X697367D01*
G01X703033Y-171300D02*
X704033Y-172467D01*
X705366Y-173133D01*
X706867Y-173300D01*
X708200Y-173133D01*
X709534Y-172300D01*
X710367Y-171300D01*
X710533Y-170300D01*
X710200Y-169134D01*
X709033Y-168300D01*
X707867Y-167967D01*
X706367D01*
G01X707867D02*
X708867Y-167467D01*
X709700Y-166634D01*
X710033Y-165633D01*
X709700Y-164633D01*
X708867Y-163800D01*
X707367Y-163300D01*
X705867Y-163467D01*
X704367Y-164134D01*
G54D16*
X135200Y425344D03*
G54D17*
X179032Y484531D03*
Y488468D03*
X182968Y484531D03*
Y488468D03*
G54D18*
X350000Y-24040D03*
X340158D03*
X359842D03*
G54D19*
X308504Y527992D03*
Y522677D03*
Y506732D03*
Y533307D03*
X315984Y527992D03*
Y517362D03*
Y533307D03*
X323464Y506732D03*
Y522677D03*
Y527992D03*
Y533307D03*
X330945Y527992D03*
Y533307D03*
X338425Y506732D03*
Y522677D03*
X345905Y517362D03*
Y533307D03*
X353386Y506732D03*
Y533307D03*
X360866D03*
X420708Y506732D03*
X413228D03*
X375827Y527992D03*
Y533307D03*
X390787D03*
X405748D03*
X420708D03*
X383307Y522677D03*
X398268D03*
X413228D03*
X390787Y517362D03*
X405748D03*
X420708D03*
X405748Y512047D03*
X398268D03*
X390787D03*
X383307D03*
X375827D03*
X398268Y506732D03*
X383307D03*
X368346D03*
M02*
