M48
INCH,TZ
T01C.008
T02C.01
T03C.015354
T04C.035433
T05C.055118
T06C.059055
T07C.145669
T08C.149606
;LEADER: 12 
;HEADER: 
;CODE  : ASCII 
;FILE  : OC_CONNECT_1_FRONTEND_LIFE-3-1-10.drl for  ... layers TOP and BOTTOM
;T02 Holesize 1. = 10.000000 Tolerance = +3.000000/-10.000000 PLATED MILS Quantity = 3302
;T03 Holesize 2. = 15.354000 Tolerance = +2.000000/-2.000000 PLATED MILS Quantity = 96
;T04 Holesize 3. = 35.433000 Tolerance = +3.000000/-3.000000 PLATED MILS Quantity = 3
;T05 Holesize 4. = 55.118000 Tolerance = +3.000000/-3.000000 PLATED MILS Quantity = 2
;T06 Holesize 5. = 59.055000 Tolerance = +3.000000/-3.000000 PLATED MILS Quantity = 8
;T07 Holesize 6. = 145.669000 Tolerance = +3.000000/-3.000000 PLATED MILS Quantity = 8
;T08 Holesize 7. = 149.606000 Tolerance = +2.000000/-2.000000 NON_PLATED MILS Quantity = 1
%
G90
T02
X5500Y561900
X5500Y511900
X5500Y501900
X5500Y521900
X5500Y541900
X5500Y551900
X14700Y564500
X24700Y564500
X34700Y564500
X44700Y564500
X64700Y564500
X74700Y564500
X84700Y564500
X5500Y531900
X54700Y564500
X70000Y561800
X70000Y551800
X70000Y541800
X70000Y531800
X50000Y481800
X50000Y491800
X20900Y531700
X35900Y531700
X20900Y546700
X35900Y546700
X51685Y395700
X23700Y388100
X30500Y389000
X5500Y381900
X5500Y391900
X5500Y401900
X5500Y411900
X5500Y421900
X5500Y431900
X5500Y441900
X5500Y451900
X50000Y471800
X83424Y415095
X86833Y415095
X85128Y417000
X83424Y419000
X86833Y419000
X25815Y375313
X29815Y375258
X93500Y311500
X42200Y318900
X31500Y329400
X74700Y314100
X64400Y311000
X56900Y311100
X46110Y281842
X43354Y281842
X46110Y279086
X43354Y279086
X37252Y280464
X40598Y276330
X43354Y276330
X46110Y276330
X48866Y276330
X68748Y280464
X59890Y281842
X62646Y281842
X59890Y279086
X62646Y279086
X65402Y276330
X62646Y276330
X59890Y276330
X57134Y276330
X54378Y276330
X51622Y276330
X5500Y281900
X5500Y291900
X5500Y301900
X5500Y311900
X5500Y321900
X5500Y331900
X5500Y341900
X5500Y351900
X5500Y361900
X5500Y371900
X93098Y338500
X93098Y346500
X89098Y346500
X93098Y342500
X57534Y284630
X60290Y284630
X63046Y284630
X65802Y284630
X48466Y284630
X45710Y284630
X42954Y284630
X40198Y284630
X57534Y287386
X60290Y287386
X63046Y287386
X65802Y287386
X48466Y287386
X45710Y287386
X42954Y287386
X40198Y287386
X42954Y290142
X45710Y290142
X48466Y290142
X65802Y290142
X63046Y290142
X60290Y290142
X57534Y290142
X63046Y292898
X65802Y292898
X65802Y295654
X63046Y295654
X63046Y298410
X65802Y298410
X48466Y292898
X45710Y292898
X42954Y292898
X42954Y295654
X45710Y295654
X48466Y295654
X48466Y298410
X45710Y298410
X42954Y298410
X37442Y287386
X37442Y284630
X34687Y284630
X34687Y287386
X40198Y290142
X40198Y292898
X68558Y298410
X68558Y295654
X68558Y292898
X68558Y290142
X68558Y287386
X68558Y284630
X71313Y284630
X71313Y287386
X71313Y290142
X71313Y292898
X71313Y295654
X71294Y298380
X74069Y298410
X74069Y295654
X74069Y292898
X74069Y290142
X74069Y287386
X74069Y284630
X76825Y284630
X76825Y287386
X76825Y290142
X76825Y292898
X76825Y295654
X76825Y298410
X79581Y298410
X79581Y295654
X79581Y292898
X79581Y290142
X79581Y287386
X79581Y284630
X82337Y284630
X82337Y287386
X82337Y290142
X82337Y292898
X82337Y295654
X82337Y298410
X85093Y298410
X85093Y295654
X85093Y292898
X85093Y290142
X85093Y287386
X85093Y284630
X85093Y281874
X82337Y281874
X79581Y281874
X76825Y281874
X76825Y279118
X79581Y279118
X82337Y279118
X85093Y279118
X85093Y276362
X82337Y276362
X79581Y276362
X76825Y276362
X65500Y338000
X59500Y338000
X59500Y344000
X65500Y344000
X62500Y341000
X40198Y295654
X40198Y298410
X37518Y290142
X37518Y292898
X60290Y298410
X48466Y301165
X45710Y301165
X42954Y301165
X40198Y301165
X37518Y301222
X40198Y303921
X42954Y303921
X45710Y303921
X48466Y303921
X37518Y303978
X42500Y179000
X46500Y179000
X46110Y257039
X43354Y257039
X46110Y259794
X43354Y259794
X37252Y258417
X37252Y269440
X40598Y270818
X40598Y268062
X40598Y265306
X40598Y262550
X40598Y273574
X43354Y270818
X43354Y268062
X43354Y265306
X43354Y262550
X43354Y273574
X46110Y270818
X46110Y268062
X46110Y265306
X46110Y262550
X46110Y273574
X48866Y270818
X48866Y268062
X48866Y265306
X48866Y262550
X48866Y273574
X68748Y258417
X62646Y257039
X59890Y257039
X59890Y259794
X62646Y259794
X68748Y269440
X65402Y270818
X65402Y268062
X65402Y265306
X65402Y262550
X65402Y273574
X62646Y270818
X62646Y268062
X62646Y265306
X62646Y262550
X62646Y273574
X59890Y270818
X59890Y268062
X59890Y265306
X59890Y262550
X59890Y273574
X57134Y270818
X57134Y268062
X57134Y265306
X57134Y262550
X57134Y273574
X54378Y270818
X54378Y268062
X54378Y265306
X54378Y262550
X54378Y273574
X51622Y273574
X51622Y262550
X51622Y265306
X51622Y268062
X51622Y270818
X5500Y271900
X5500Y181900
X5500Y191900
X5500Y201900
X5500Y211900
X5500Y221900
X5500Y231900
X5500Y241900
X5500Y251900
X5500Y261900
X88300Y210000
X92300Y210000
X57534Y254250
X60290Y254250
X63046Y254250
X65802Y254250
X48466Y254250
X45710Y254250
X42954Y254250
X40198Y254250
X40198Y251495
X42954Y251495
X45710Y251495
X48466Y251495
X65802Y251495
X63046Y251495
X60290Y251495
X57534Y251495
X57534Y248739
X60290Y248739
X63046Y248739
X65802Y248739
X48466Y248739
X45710Y248739
X42954Y248739
X40198Y248739
X40198Y245983
X42954Y245983
X45710Y245983
X48466Y245983
X65802Y245983
X63046Y245983
X60290Y245983
X57534Y245983
X37442Y254250
X37442Y251495
X34687Y251495
X34687Y254250
X42954Y243227
X45710Y243227
X48466Y243227
X48466Y240471
X45710Y240471
X42954Y240471
X65802Y243227
X63046Y243227
X60290Y243227
X57534Y243227
X60290Y240471
X63046Y240471
X65802Y240471
X68558Y240471
X68558Y243227
X68558Y254250
X68558Y251495
X68558Y248739
X68558Y245983
X71313Y243227
X71313Y240471
X71313Y245983
X71313Y248739
X71313Y251495
X71313Y254250
X76825Y273606
X79581Y273606
X82337Y273606
X85093Y273606
X85093Y270850
X82337Y270850
X79581Y270850
X76825Y270850
X76825Y268095
X79581Y268095
X82337Y268095
X85093Y268095
X40198Y243227
X40198Y240471
X37518Y248720
X37518Y245964
X48466Y237715
X45710Y237715
X42954Y237715
X40198Y237715
X37554Y237854
X23242Y158483
X23389Y163117
X80545Y111500
X5500Y81900
X5500Y91900
X5500Y101900
X5500Y111900
X5500Y121900
X5500Y131900
X5500Y141900
X5500Y151900
X5500Y161900
X5500Y171900
X93000Y5500
X83000Y5500
X73000Y5500
X63000Y5500
X53000Y5500
X5500Y51900
X5500Y61900
X5500Y71900
X73900Y51100
X88900Y51100
X88900Y41100
X73900Y41100
X73900Y31100
X88900Y31100
X73900Y61100
X193000Y5500
X183000Y5500
X173000Y5500
X163000Y5500
X153000Y5500
X143000Y5500
X133000Y5500
X123000Y5500
X113000Y5500
X103000Y5500
X103900Y51100
X118900Y51100
X133900Y51100
X148900Y51100
X163900Y51100
X178900Y51100
X193900Y51100
X163900Y41100
X148900Y41100
X133900Y41100
X118900Y41100
X103900Y41100
X193900Y41100
X178900Y41100
X103900Y31100
X118900Y31100
X133900Y31100
X148900Y31100
X163900Y31100
X178900Y31100
X193900Y31100
X193900Y61100
X148900Y61100
X133900Y61100
X118900Y61100
X127000Y123100
X131000Y123100
X113500Y119500
X177358Y117158
X191100Y86831
X174957Y87782
X101700Y154500
X105700Y154500
X105700Y150500
X101700Y150500
X101700Y146500
X105700Y146500
X109700Y154500
X109700Y150500
X109700Y146500
X105700Y142500
X105700Y158500
X175350Y192650
X179300Y202500
X130100Y221200
X130100Y217200
X126100Y221200
X126100Y217200
X122100Y221200
X122100Y217200
X118600Y217200
X118600Y221200
X182300Y189600
X182400Y192700
X126110Y257039
X123354Y257039
X126110Y259794
X123354Y259794
X117252Y258417
X117252Y269440
X120598Y270818
X120598Y268062
X120598Y265306
X120598Y262550
X120598Y273574
X123354Y270818
X123354Y268062
X123354Y265306
X123354Y262550
X123354Y273574
X126110Y270818
X126110Y268062
X126110Y265306
X126110Y262550
X126110Y273574
X128866Y270818
X128866Y268062
X128866Y265306
X128866Y262550
X128866Y273574
X148748Y258417
X142646Y257039
X139890Y257039
X139890Y259794
X142646Y259794
X148748Y269440
X145402Y270818
X145402Y268062
X145402Y265306
X145402Y262550
X145402Y273574
X142646Y270818
X142646Y268062
X142646Y265306
X142646Y262550
X142646Y273574
X139890Y270818
X139890Y268062
X139890Y265306
X139890Y262550
X139890Y273574
X137134Y270818
X137134Y268062
X137134Y265306
X137134Y262550
X137134Y273574
X134378Y270818
X134378Y268062
X134378Y265306
X134378Y262550
X134378Y273574
X131622Y273574
X131622Y262550
X131622Y265306
X131622Y268062
X131622Y270818
X96300Y210000
X96300Y214000
X100300Y214000
X114587Y254250
X114587Y251495
X117342Y251495
X117342Y254250
X128366Y254250
X125610Y254250
X122854Y254250
X120098Y254250
X120098Y251495
X122854Y251495
X125610Y251495
X128366Y251495
X128366Y248739
X125610Y248739
X122854Y248739
X120098Y248739
X120098Y245983
X122854Y245983
X125610Y245983
X128366Y245983
X122854Y240471
X125610Y240471
X128366Y243227
X125610Y243227
X122854Y243227
X151413Y240471
X151413Y243227
X148658Y243227
X148658Y240471
X145902Y240471
X143146Y240471
X140390Y240471
X137634Y240471
X137634Y243227
X140390Y243227
X143146Y243227
X145902Y243227
X151413Y254250
X151413Y251495
X151413Y248739
X151413Y245983
X148658Y245983
X148658Y248739
X148658Y251495
X148658Y254250
X137634Y254250
X140390Y254250
X143146Y254250
X145902Y254250
X145902Y251495
X143146Y251495
X140390Y251495
X137634Y251495
X137634Y248739
X140390Y248739
X143146Y248739
X145902Y248739
X145902Y245983
X143146Y245983
X140390Y245983
X137634Y245983
X120098Y243227
X120098Y240471
X117342Y240471
X117342Y243227
X117342Y245983
X117342Y248739
X114587Y243227
X114587Y240471
X114587Y248739
X114587Y245983
X162437Y268095
X159681Y268095
X156925Y268095
X156925Y270850
X159681Y270850
X162437Y270850
X162437Y273606
X159681Y273606
X156925Y273606
X151413Y237715
X148658Y237715
X145902Y237715
X143146Y237715
X140390Y237715
X137634Y237715
X137634Y234959
X140390Y234959
X143146Y234959
X145902Y234959
X148658Y234959
X151413Y234959
X150940Y199073
X160814Y199073
X157377Y199073
X154377Y199073
X150940Y203010
X150940Y206947
X160814Y203010
X160814Y206947
X157377Y203010
X157377Y206947
X154377Y206947
X154377Y203010
X119100Y350000
X139100Y324400
X172400Y321300
X135700Y324300
X175700Y321400
X118970Y355950
X189400Y348600
X193400Y348600
X193400Y352600
X189400Y352600
X126110Y281842
X123354Y281842
X126110Y279086
X123354Y279086
X117252Y280464
X120598Y276330
X123354Y276330
X126110Y276330
X128866Y276330
X148748Y280464
X139890Y281842
X142646Y281842
X139890Y279086
X142646Y279086
X145402Y276330
X142646Y276330
X139890Y276330
X137134Y276330
X134378Y276330
X131622Y276330
X158186Y365553
X97098Y338500
X97098Y346500
X97098Y342500
X101098Y342500
X161623Y365553
X158186Y369490
X158186Y373427
X162437Y290142
X162437Y287386
X162437Y284630
X159681Y284630
X159681Y287386
X159681Y290142
X156925Y290142
X156925Y287386
X156925Y284630
X154169Y284630
X154169Y287386
X154169Y290142
X151413Y290142
X151413Y287386
X151413Y284630
X148658Y284630
X148658Y287386
X148658Y290142
X137634Y290142
X140390Y290142
X143146Y290142
X145902Y290142
X145902Y287386
X143146Y287386
X140390Y287386
X137634Y287386
X137634Y284630
X140390Y284630
X143146Y284630
X145902Y284630
X162437Y298410
X162437Y295654
X162437Y292898
X159681Y292898
X159681Y295654
X159681Y298410
X156925Y298410
X156925Y295654
X156925Y292898
X154169Y292898
X154169Y295654
X154169Y298410
X151413Y298410
X151413Y295654
X151413Y292898
X148658Y292898
X148658Y295654
X148658Y298410
X145902Y298410
X143146Y298410
X143146Y295654
X145902Y295654
X145902Y292898
X143146Y292898
X122854Y298410
X125610Y298410
X128366Y295654
X125610Y295654
X122854Y295654
X122854Y292898
X125610Y292898
X128366Y292898
X128366Y290142
X125610Y290142
X122854Y290142
X122854Y287386
X125610Y287386
X128366Y287386
X128366Y284630
X125610Y284630
X122854Y284630
X120098Y292898
X120098Y290142
X120098Y287386
X120098Y284630
X114587Y287386
X114587Y284630
X117342Y284630
X117342Y287386
X120098Y295654
X120098Y298410
X117342Y298410
X117342Y295654
X117342Y290142
X117342Y292898
X114587Y292898
X114587Y290142
X114587Y295654
X114605Y298321
X156925Y276362
X159681Y276362
X162437Y276362
X162437Y279118
X159681Y279118
X156925Y279118
X156925Y281874
X159681Y281874
X162437Y281874
X162468Y334100
X162468Y329100
X140390Y298410
X162437Y301165
X159681Y301165
X156925Y301165
X154169Y301165
X151413Y301165
X148658Y301165
X145902Y301165
X143146Y301165
X140390Y301165
X140390Y303921
X143146Y303921
X145902Y303921
X148658Y303921
X151413Y303921
X154169Y303921
X156925Y303921
X159681Y303921
X162437Y303921
X137634Y301165
X137634Y303921
X161623Y369490
X161623Y373427
X168060Y369490
X168060Y365553
X168060Y373427
X164623Y365553
X164623Y373427
X164623Y369490
X183953Y465828
X160800Y463500
X157300Y463500
X116100Y467941
X130400Y469580
X135700Y469330
X140900Y469480
X146200Y469670
X150864Y469640
X161868Y400732
X118500Y460600
X118500Y457100
X114252Y381348
X125200Y482572
X99344Y547400
X100980Y508870
X160500Y523100
X160500Y527100
X104980Y508870
X114740Y543766
X114740Y547766
X140424Y482566
X130400Y482556
X146200Y482556
X150864Y482572
X135700Y482556
X149400Y516000
X182968Y488469
X182968Y484531
X179032Y488469
X179032Y484531
X94700Y564500
X104700Y564500
X114700Y564500
X124700Y564500
X134700Y564500
X144700Y564500
X154700Y564500
X164700Y564500
X174700Y564500
X184700Y564500
X225300Y509300
X222300Y509300
X194700Y564500
X204700Y564500
X224700Y564500
X234700Y564500
X244700Y564500
X254700Y564500
X291300Y477500
X240900Y531700
X225900Y546700
X240900Y546700
X271600Y425700
X270188Y444812
X272900Y419299
X272997Y438169
X209000Y405000
X209000Y410000
X209000Y400000
X209000Y394000
X204500Y394000
X209000Y390000
X204500Y390000
X209000Y385000
X204500Y385000
X209000Y380000
X204500Y380000
X202600Y461700
X263133Y402912
X263133Y405942
X224640Y424700
X287300Y464500
X287300Y454500
X287300Y444500
X287300Y434500
X287300Y424500
X287300Y414500
X287300Y404500
X287300Y394500
X287300Y384500
X275252Y381348
X244424Y414595
X247833Y414595
X246128Y416500
X244424Y418500
X247833Y418500
X227500Y403000
X232000Y403000
X227500Y398000
X232000Y398000
X232000Y393000
X227500Y393000
X227500Y388000
X232000Y388000
X232000Y383000
X227500Y383000
X227500Y378000
X232000Y378000
X209500Y375000
X204500Y375000
X254300Y312500
X198000Y352700
X197800Y348600
X287110Y281842
X284354Y281842
X287110Y279086
X284354Y279086
X278252Y280464
X281598Y276330
X284354Y276330
X287110Y276330
X289866Y276330
X292622Y276330
X207110Y281842
X204354Y281842
X207110Y279086
X204354Y279086
X198252Y280464
X201598Y276330
X204354Y276330
X207110Y276330
X209866Y276330
X229748Y280464
X220890Y281842
X223646Y281842
X220890Y279086
X223646Y279086
X226402Y276330
X223646Y276330
X220890Y276330
X218134Y276330
X215378Y276330
X212622Y276330
X254098Y342500
X250098Y342500
X258098Y342500
X258098Y346500
X254098Y346500
X258098Y338500
X250098Y338500
X254098Y338500
X246098Y342500
X262098Y342500
X287300Y374500
X287300Y362310
X287300Y354500
X195587Y287386
X195587Y284630
X198342Y284630
X198342Y287386
X201098Y287386
X203854Y287386
X206610Y287386
X209366Y287386
X209366Y284630
X206610Y284630
X203854Y284630
X201098Y284630
X203854Y298410
X206610Y298410
X209366Y298410
X209366Y295654
X206610Y295654
X203854Y295654
X203854Y292898
X206610Y292898
X209366Y292898
X209366Y290142
X206610Y290142
X203854Y290142
X201098Y292898
X201098Y290142
X246193Y284630
X246193Y287386
X246193Y290142
X243437Y290142
X243437Y287386
X243437Y284630
X240681Y284630
X240681Y287386
X240681Y290142
X237925Y290142
X237925Y287386
X237925Y284630
X235169Y284630
X235169Y287386
X235169Y290142
X232413Y290142
X232413Y287386
X232413Y284630
X229658Y284630
X229658Y287386
X229658Y290142
X218634Y290142
X221390Y290142
X224146Y290142
X226902Y290142
X226902Y287386
X224146Y287386
X221390Y287386
X218634Y287386
X218634Y284630
X221390Y284630
X224146Y284630
X226902Y284630
X246193Y292898
X246193Y295654
X246193Y298410
X243437Y298410
X243437Y295654
X243437Y292898
X240681Y292898
X240681Y295654
X240681Y298410
X237992Y298255
X237925Y295654
X237925Y292898
X235169Y292898
X235169Y295654
X235207Y298294
X232451Y298294
X232413Y295654
X232413Y292898
X229658Y292898
X229658Y295654
X229658Y298410
X226902Y298410
X224146Y298410
X224146Y295654
X226902Y295654
X226902Y292898
X224146Y292898
X237925Y276362
X240681Y276362
X243437Y276362
X246193Y276362
X246193Y279118
X243437Y279118
X240681Y279118
X237925Y279118
X237925Y281874
X240681Y281874
X243437Y281874
X246193Y281874
X275570Y298277
X275587Y295654
X275587Y290142
X275587Y292898
X278342Y292898
X278342Y290142
X278342Y295654
X278342Y298410
X281098Y298410
X281098Y295654
X278342Y287386
X278342Y284630
X275587Y284630
X275587Y287386
X281098Y284630
X281098Y287386
X281098Y290142
X281098Y292898
X283854Y284630
X286610Y284630
X289366Y284630
X289366Y287386
X286610Y287386
X283854Y287386
X283854Y290142
X286610Y290142
X289366Y290142
X289366Y292898
X286610Y292898
X283854Y292898
X283854Y295654
X286610Y295654
X289366Y295654
X286610Y298410
X283854Y298410
X201098Y295654
X201098Y298410
X198342Y298410
X198342Y295654
X198342Y290142
X198342Y292898
X195587Y292898
X195587Y290142
X195587Y295654
X195587Y298410
X221390Y298410
X203854Y301165
X206610Y301165
X209366Y301165
X201098Y301165
X198342Y301165
X195587Y301165
X195587Y303921
X198342Y303921
X201098Y303921
X209366Y303921
X206610Y303921
X203854Y303921
X275252Y363204
X291200Y199800
X200707Y187000
X288500Y222700
X284800Y222600
X287110Y257039
X284354Y257039
X287110Y259794
X284354Y259794
X278252Y258417
X278252Y269440
X281598Y270818
X281598Y268062
X281598Y265306
X281598Y262550
X281598Y273574
X284354Y270818
X284354Y268062
X284354Y265306
X284354Y262550
X284354Y273574
X287110Y270818
X287110Y268062
X287110Y265306
X287110Y262550
X287110Y273574
X289866Y270818
X289866Y268062
X289866Y265306
X289866Y262550
X289866Y273574
X292622Y273574
X292622Y262550
X292622Y265306
X292622Y268062
X292622Y270818
X207110Y257039
X204354Y257039
X207110Y259794
X204354Y259794
X198252Y258417
X198252Y269440
X201598Y270818
X201598Y268062
X201598Y265306
X201598Y262550
X201598Y273574
X204354Y270818
X204354Y268062
X204354Y265306
X204354Y262550
X204354Y273574
X207110Y270818
X207110Y268062
X207110Y265306
X207110Y262550
X207110Y273574
X209866Y270818
X209866Y268062
X209866Y265306
X209866Y262550
X209866Y273574
X229748Y258417
X223646Y257039
X220890Y257039
X220890Y259794
X223646Y259794
X229748Y269440
X226402Y270818
X226402Y268062
X226402Y265306
X226402Y262550
X226402Y273574
X223646Y270818
X223646Y268062
X223646Y265306
X223646Y262550
X223646Y273574
X220890Y270818
X220890Y268062
X220890Y265306
X220890Y262550
X220890Y273574
X218134Y270818
X218134Y268062
X218134Y265306
X218134Y262550
X218134Y273574
X215378Y270818
X215378Y268062
X215378Y265306
X215378Y262550
X215378Y273574
X212622Y273574
X212622Y262550
X212622Y265306
X212622Y268062
X212622Y270818
X199400Y216220
X199400Y212200
X201657Y179173
X205657Y179173
X209657Y179173
X250000Y210000
X254000Y210000
X258000Y210000
X262000Y214000
X237925Y270850
X240681Y270850
X243437Y270850
X246193Y270850
X246193Y273606
X243437Y273606
X240681Y273606
X237925Y273606
X246193Y268095
X243437Y268095
X240681Y268095
X237925Y268095
X195587Y254250
X195587Y251495
X198342Y251495
X198342Y254250
X209366Y254250
X206610Y254250
X203854Y254250
X201098Y254250
X201098Y251495
X203854Y251495
X206610Y251495
X209366Y251495
X209366Y248739
X206610Y248739
X203854Y248739
X201098Y248739
X201098Y245983
X203854Y245983
X206610Y245983
X209366Y245983
X203854Y240471
X206610Y240471
X209366Y240471
X209366Y243227
X206610Y243227
X203854Y243227
X232413Y240471
X232413Y243227
X229658Y243227
X229658Y240471
X226902Y240471
X224146Y240471
X221390Y240471
X218634Y240471
X218634Y243227
X221390Y243227
X224146Y243227
X226902Y243227
X232413Y254250
X232413Y251495
X232413Y248739
X232413Y245983
X229658Y245983
X229658Y248739
X229658Y251495
X229658Y254250
X218634Y254250
X221390Y254250
X224146Y254250
X226902Y254250
X226902Y251495
X224146Y251495
X221390Y251495
X218634Y251495
X218634Y248739
X221390Y248739
X224146Y248739
X226902Y248739
X226902Y245983
X224146Y245983
X221390Y245983
X218634Y245983
X275587Y240471
X275587Y243227
X278342Y243227
X278342Y240471
X281098Y240471
X281098Y243227
X283854Y243227
X286610Y243227
X289366Y243227
X289366Y240471
X286610Y240471
X283854Y240471
X275587Y245983
X275587Y248739
X278342Y248739
X278342Y245983
X289366Y245983
X286610Y245983
X283854Y245983
X281098Y245983
X281098Y248739
X283854Y248739
X286610Y248739
X289366Y248739
X289366Y251495
X286610Y251495
X283854Y251495
X281098Y251495
X281098Y254250
X283854Y254250
X286610Y254250
X289366Y254250
X278342Y254250
X278342Y251495
X275587Y251495
X275587Y254250
X201098Y240471
X201098Y243227
X198342Y243227
X198342Y240471
X198342Y248739
X198342Y245983
X195587Y240471
X195587Y243227
X195587Y245983
X195587Y248739
X203854Y237715
X206610Y237715
X209366Y237715
X201098Y237715
X198342Y237715
X195587Y237715
X195587Y234959
X198342Y234959
X201098Y234959
X209366Y234959
X206610Y234959
X203854Y234959
X198973Y104500
X272597Y156836
X229319Y106900
X203700Y168900
X203700Y164900
X264700Y99792
X269365Y86831
X205657Y175173
X209657Y175173
X213657Y175173
X287000Y132100
X213000Y5500
X203000Y5500
X273000Y5500
X283000Y5500
X293000Y5500
X263000Y5500
X253000Y5500
X243000Y5500
X233000Y5500
X223000Y5500
X208900Y51100
X223900Y51100
X238900Y51100
X253900Y51100
X268900Y51100
X283900Y51100
X283900Y41100
X268900Y41100
X253900Y41100
X238900Y41100
X223900Y41100
X208900Y41100
X208900Y31100
X223900Y31100
X238900Y31100
X253900Y31100
X268900Y31100
X283900Y31100
X238900Y61100
X223900Y61100
X208900Y61100
X323000Y5500
X313000Y5500
X303000Y5500
X393000Y5500
X383000Y5500
X373000Y5500
X350200Y65400
X350200Y75400
X327000Y72100
X327000Y57100
X327000Y42100
X317000Y42100
X317000Y57100
X317000Y72100
X307000Y57100
X307000Y42100
X365300Y158483
X365300Y163117
X350200Y85400
X350200Y95400
X350200Y105400
X350200Y115400
X350200Y125400
X350200Y135400
X350200Y145400
X350200Y155400
X350200Y165400
X350200Y175400
X327000Y102100
X327000Y87100
X317000Y87100
X317000Y102100
X307000Y102100
X307000Y87100
X327000Y162100
X327000Y147100
X327000Y132100
X327000Y117100
X317000Y117100
X317000Y132100
X317000Y147100
X317000Y162100
X307000Y162100
X307000Y147100
X307000Y132100
X307000Y117100
X297000Y117100
X297000Y132100
X297000Y147100
X297000Y87100
X297000Y102100
X297000Y162100
X297000Y172100
X307000Y172100
X317000Y172100
X333800Y190298
X390900Y178400
X393152Y258417
X393152Y269440
X309748Y258417
X303646Y257039
X300890Y257039
X300890Y259794
X303646Y259794
X309748Y269440
X306402Y270818
X306402Y268062
X306402Y265306
X306402Y262550
X306402Y273574
X303646Y270818
X303646Y268062
X303646Y265306
X303646Y262550
X303646Y273574
X300890Y270818
X300890Y268062
X300890Y265306
X300890Y262550
X300890Y273574
X298134Y270818
X298134Y268062
X298134Y265306
X298134Y262550
X298134Y273574
X295378Y270818
X295378Y268062
X295378Y265306
X295378Y262550
X295378Y273574
X312300Y194400
X350200Y185400
X350200Y195400
X350200Y205400
X350200Y215400
X350200Y225400
X350200Y235400
X310725Y196368
X310725Y192432
X313875Y192432
X313875Y196368
X306902Y243227
X304146Y243227
X301390Y243227
X298634Y243227
X298634Y240471
X301390Y240471
X304146Y240471
X306902Y240471
X309658Y240471
X309658Y243227
X312413Y243227
X312413Y240471
X298634Y245983
X301390Y245983
X304146Y245983
X306902Y245983
X306902Y248739
X304146Y248739
X301390Y248739
X298634Y248739
X298634Y251495
X301390Y251495
X304146Y251495
X306902Y251495
X306902Y254250
X304146Y254250
X301390Y254250
X298634Y254250
X309658Y254250
X309658Y251495
X309658Y248739
X309658Y245983
X312413Y245983
X312413Y248739
X312413Y251495
X312413Y254250
X317925Y273606
X320681Y273606
X323437Y273606
X326193Y273606
X326193Y270850
X323437Y270850
X320681Y270850
X317925Y270850
X317925Y268095
X320681Y268095
X323437Y268095
X326193Y268095
X390487Y254250
X390487Y251495
X393243Y251495
X393243Y254250
X298634Y237715
X301390Y237715
X304146Y237715
X306902Y237715
X309658Y237715
X312413Y237715
X312413Y234959
X309658Y234959
X306902Y234959
X304146Y234959
X301390Y234959
X298634Y234959
X393243Y248739
X393243Y245983
X393243Y237715
X347961Y345930
X305458Y350092
X348061Y341420
X363950Y337310
X347900Y348950
X302620Y375830
X393152Y280464
X309748Y280464
X300890Y281842
X303646Y281842
X300890Y279086
X303646Y279086
X306402Y276330
X303646Y276330
X300890Y276330
X298134Y276330
X295378Y276330
X325520Y368840
X339735Y374595
X337500Y364550
X346504Y335000
X304146Y292898
X306902Y292898
X306902Y295654
X304146Y295654
X304146Y298410
X306902Y298410
X309658Y298410
X309658Y295654
X309658Y292898
X312413Y292898
X312413Y295654
X312413Y298410
X315169Y298410
X315169Y295654
X315169Y292898
X317925Y292898
X317925Y295654
X317925Y298410
X320681Y298410
X320681Y295654
X320681Y292898
X323437Y292898
X323437Y295654
X323437Y298410
X326193Y298410
X326193Y295654
X326193Y292898
X306902Y284630
X304146Y284630
X304146Y287386
X306902Y287386
X306902Y290142
X304146Y290142
X309658Y290142
X309658Y287386
X309658Y284630
X312413Y284630
X312413Y287386
X312413Y290142
X315169Y290142
X315169Y287386
X315169Y284630
X317925Y284630
X317925Y287386
X317925Y290142
X320681Y290142
X320681Y287386
X320681Y284630
X323437Y284630
X323437Y287386
X323437Y290142
X326193Y290142
X326193Y287386
X326193Y284630
X301390Y284630
X298634Y284630
X298634Y287386
X301390Y287386
X301390Y290142
X298634Y290142
X326193Y281874
X323437Y281874
X320681Y281874
X317925Y281874
X317925Y279118
X320681Y279118
X323437Y279118
X326193Y279118
X326193Y276362
X323437Y276362
X320681Y276362
X317925Y276362
X390487Y287386
X390487Y284630
X393243Y284630
X393243Y287386
X301390Y298410
X304146Y301165
X306902Y301165
X309658Y301165
X312413Y301165
X315169Y301165
X317925Y301165
X320681Y301165
X323437Y301165
X326193Y301165
X301390Y301165
X301390Y303921
X326193Y303921
X323437Y303921
X320681Y303921
X317925Y303921
X315169Y303921
X312413Y303921
X309658Y303921
X306902Y303921
X304146Y303921
X298634Y301165
X298634Y303921
X390487Y290142
X393243Y290142
X393243Y292898
X390487Y292898
X387731Y290142
X390487Y295654
X393243Y295654
X393243Y298410
X390487Y298410
X325580Y371910
X326700Y350990
X329890Y336550
X336660Y336550
X342900Y336900
X328390Y367760
X336920Y375040
X341310Y364420
X328280Y372030
X343660Y358290
X340160Y358290
X336660Y358290
X331900Y358390
X376400Y462790
X384445Y462890
X319000Y459900
X393490Y462080
X302450Y441750
X302700Y438200
X307510Y388010
X302900Y455500
X370650Y428690
X366650Y428690
X362650Y428690
X358650Y428690
X354650Y428690
X350650Y428690
X370650Y424690
X366650Y424690
X362650Y424690
X358650Y424690
X354650Y424690
X350650Y424690
X380250Y401430
X380250Y397430
X383750Y401430
X383750Y397430
X387250Y397430
X387250Y401430
X390750Y401430
X390750Y397430
X394250Y397430
X394250Y401430
X321530Y436450
X325530Y436850
X329530Y436850
X317790Y436630
X327005Y464100
X332123Y464100
X304804Y425596
X330623Y446553
X333623Y446553
X337060Y446553
X327186Y446553
X330623Y450490
X330623Y454427
X333623Y454427
X333623Y450490
X337060Y454427
X337060Y450490
X327186Y454427
X327186Y450490
X328320Y406540
X325450Y410350
X325470Y407110
X305010Y393800
X336920Y402990
X339930Y402990
X337150Y414070
X340550Y414070
X328150Y410510
X332500Y424470
X336390Y379240
X339890Y379240
X343070Y379210
X332836Y379964
X329859Y421765
X332418Y419995
X352150Y495299
X355250Y495301
X331300Y477500
X341300Y477500
X351300Y477500
X361300Y477500
X371300Y477500
X381300Y477500
X321300Y477500
X311300Y477500
X301300Y477500
X391300Y477500
X454700Y564500
X464700Y564500
X474700Y564500
X490000Y558900
X490000Y548900
X401300Y477500
X411300Y477500
X442500Y544800
X442500Y554800
X442500Y564800
X458900Y531700
X458900Y546700
X473900Y546700
X442640Y495490
X434470Y452580
X476500Y390300
X464323Y457100
X464323Y460600
X449400Y416016
X401800Y444400
X413100Y384800
X413100Y394800
X413100Y404800
X413100Y414800
X413100Y424800
X413100Y434800
X413100Y444800
X413100Y454800
X413100Y464800
X401800Y436900
X401800Y429400
X401800Y384400
X401800Y391900
X401800Y399400
X401800Y406900
X401800Y414400
X401800Y421900
X401800Y376900
X439324Y415095
X442733Y415095
X441028Y417000
X439324Y419000
X442733Y419000
X466500Y341158
X448800Y311100
X475200Y332700
X482010Y281842
X479254Y281842
X482010Y279086
X479254Y279086
X473152Y280464
X476498Y276330
X479254Y276330
X482010Y276330
X484766Y276330
X493034Y276330
X490278Y276330
X487522Y276330
X402010Y281842
X399254Y281842
X402010Y279086
X399254Y279086
X396498Y276330
X399254Y276330
X402010Y276330
X404766Y276330
X424648Y280464
X415790Y281842
X418546Y281842
X415790Y279086
X418546Y279086
X421302Y276330
X418546Y276330
X415790Y276330
X413034Y276330
X410278Y276330
X407522Y276330
X413100Y354800
X413100Y364800
X413100Y374800
X413534Y290142
X416290Y290142
X419046Y290142
X421802Y290142
X421802Y287386
X419046Y287386
X416290Y287386
X413534Y287386
X413534Y284630
X416290Y284630
X419046Y284630
X421802Y284630
X421802Y298410
X419046Y298410
X419046Y295654
X421802Y295654
X421802Y292898
X419046Y292898
X395998Y287386
X398754Y287386
X401510Y287386
X404266Y287386
X404266Y284630
X401510Y284630
X398754Y284630
X395998Y284630
X398754Y298410
X401510Y298410
X404266Y298410
X404266Y295654
X401510Y295654
X398754Y295654
X398754Y292898
X401510Y292898
X404266Y292898
X404266Y290142
X401510Y290142
X398754Y290142
X395998Y292898
X395998Y290142
X441093Y284630
X441093Y287386
X441093Y290142
X438337Y290142
X438337Y287386
X438337Y284630
X435581Y284630
X435581Y287386
X435581Y290142
X432825Y290142
X432825Y287386
X432825Y284630
X430069Y284630
X430069Y287386
X430069Y290142
X427313Y290142
X427313Y287386
X427313Y284630
X424558Y284630
X424558Y287386
X424558Y290142
X441093Y292898
X441093Y295654
X441093Y298410
X438337Y298410
X438337Y295654
X438337Y292898
X435581Y292898
X435581Y295654
X435581Y298410
X432797Y298368
X432825Y295654
X432825Y292898
X430069Y292898
X430069Y295654
X430041Y298368
X427285Y298368
X427313Y295654
X427313Y292898
X424558Y292898
X424558Y295654
X424558Y298410
X432825Y276362
X435581Y276362
X438337Y276362
X441093Y276362
X441093Y279118
X438337Y279118
X435581Y279118
X432825Y279118
X432825Y281874
X435581Y281874
X438337Y281874
X441093Y281874
X470487Y298410
X470487Y295654
X470487Y290142
X470487Y292898
X473242Y292898
X473242Y290142
X473242Y295654
X473242Y298410
X475998Y298410
X475998Y295654
X473242Y287386
X473242Y284630
X470487Y284630
X470487Y287386
X475998Y284630
X475998Y287386
X475998Y290142
X475998Y292898
X478754Y284630
X481510Y284630
X484266Y284630
X484266Y287386
X481510Y287386
X478754Y287386
X478754Y290142
X481510Y290142
X484266Y290142
X484266Y292898
X481510Y292898
X478754Y292898
X478754Y295654
X481510Y295654
X484266Y295654
X481510Y298410
X478754Y298410
X493534Y284630
X493534Y287386
X493534Y290142
X440998Y342500
X448998Y338500
X444998Y338500
X448998Y346500
X444998Y346500
X444998Y342500
X448998Y342500
X456998Y342500
X452998Y338500
X452998Y346500
X452998Y342500
X416290Y298410
X395998Y295654
X395998Y298410
X398754Y301165
X401510Y301165
X404266Y301165
X404266Y303921
X401510Y303921
X398754Y303921
X493534Y301165
X401800Y354400
X401800Y361900
X401800Y369400
X401800Y346900
X401800Y339400
X493534Y298410
X484400Y222300
X480400Y222300
X480400Y218300
X484400Y218300
X476400Y222300
X476400Y218300
X472900Y222300
X472900Y218300
X394900Y178400
X482010Y257039
X479254Y257039
X482010Y259794
X479254Y259794
X473152Y258417
X473152Y269440
X476498Y270818
X476498Y268062
X476498Y265306
X476498Y262550
X476498Y273574
X479254Y270818
X479254Y268062
X479254Y265306
X479254Y262550
X479254Y273574
X482010Y270818
X482010Y268062
X482010Y265306
X482010Y262550
X482010Y273574
X484766Y270818
X484766Y268062
X484766Y265306
X484766Y262550
X484766Y273574
X493034Y270818
X493034Y268062
X493034Y265306
X493034Y262550
X493034Y273574
X490278Y270818
X490278Y268062
X490278Y265306
X490278Y262550
X490278Y273574
X487522Y273574
X487522Y262550
X487522Y265306
X487522Y268062
X487522Y270818
X402010Y257039
X399254Y257039
X402010Y259794
X399254Y259794
X396498Y270818
X396498Y268062
X396498Y265306
X396498Y262550
X396498Y273574
X399254Y270818
X399254Y268062
X399254Y265306
X399254Y262550
X399254Y273574
X402010Y270818
X402010Y268062
X402010Y265306
X402010Y262550
X402010Y273574
X404766Y270818
X404766Y268062
X404766Y265306
X404766Y262550
X404766Y273574
X424648Y258417
X418546Y257039
X415790Y257039
X415790Y259794
X418546Y259794
X424648Y269440
X421302Y270818
X421302Y268062
X421302Y265306
X421302Y262550
X421302Y273574
X418546Y270818
X418546Y268062
X418546Y265306
X418546Y262550
X418546Y273574
X415790Y270818
X415790Y268062
X415790Y265306
X415790Y262550
X415790Y273574
X413034Y270818
X413034Y268062
X413034Y265306
X413034Y262550
X413034Y273574
X410278Y270818
X410278Y268062
X410278Y265306
X410278Y262550
X410278Y273574
X407522Y273574
X407522Y262550
X407522Y265306
X407522Y268062
X407522Y270818
X421802Y240471
X419046Y240471
X416290Y240471
X413534Y240471
X413534Y243227
X416290Y243227
X419046Y243227
X421802Y243227
X398754Y240471
X401510Y240471
X404266Y240471
X404266Y243227
X401510Y243227
X398754Y243227
X413534Y254250
X416290Y254250
X419046Y254250
X421802Y254250
X421802Y251495
X419046Y251495
X416290Y251495
X413534Y251495
X413534Y248739
X416290Y248739
X419046Y248739
X421802Y248739
X421802Y245983
X419046Y245983
X416290Y245983
X413534Y245983
X404266Y254250
X401510Y254250
X398754Y254250
X395998Y254250
X395998Y251495
X398754Y251495
X401510Y251495
X404266Y251495
X404266Y248739
X401510Y248739
X398754Y248739
X395998Y248739
X395998Y245983
X398754Y245983
X401510Y245983
X404266Y245983
X427313Y240471
X427313Y243227
X424558Y243227
X424558Y240471
X427313Y254250
X427313Y251495
X427313Y248739
X427313Y245983
X424558Y245983
X424558Y248739
X424558Y251495
X424558Y254250
X432825Y270850
X435581Y270850
X438337Y270850
X441093Y270850
X441093Y273606
X438337Y273606
X435581Y273606
X432825Y273606
X441093Y268095
X438337Y268095
X435581Y268095
X432825Y268095
X470487Y240471
X470487Y243227
X473242Y243227
X473242Y240471
X475998Y240471
X475998Y243227
X478754Y243227
X481510Y243227
X484266Y243227
X481510Y240471
X478754Y240471
X493534Y243227
X493534Y240471
X470487Y245983
X470487Y248739
X473242Y248739
X473242Y245983
X484266Y245983
X481510Y245983
X478754Y245983
X475998Y245983
X475998Y248739
X478754Y248739
X481510Y248739
X484266Y248739
X484266Y251495
X481510Y251495
X478754Y251495
X475998Y251495
X475998Y254250
X478754Y254250
X481510Y254250
X484266Y254250
X473242Y254250
X473242Y251495
X470487Y251495
X470487Y254250
X493534Y245983
X493534Y248739
X493534Y251495
X493534Y254250
X440200Y214000
X444200Y210000
X444200Y214000
X448200Y214000
X448200Y210000
X452200Y210000
X395998Y240471
X395998Y243227
X398754Y237715
X401510Y237715
X404266Y237715
X395998Y237715
X493534Y237715
X493534Y234959
X409700Y220800
X413700Y220800
X417700Y220800
X417700Y216800
X413700Y216800
X409700Y216800
X421700Y216800
X421700Y220800
X425200Y216800
X425200Y220800
X470600Y111292
X487700Y123500
X483700Y123500
X406633Y111400
X457600Y154500
X461600Y154500
X461600Y150500
X457600Y150500
X457600Y146500
X461600Y146500
X465600Y154500
X465600Y150500
X465600Y146500
X461600Y142500
X461600Y158500
X453000Y5500
X443000Y5500
X433000Y5500
X423000Y5500
X413000Y5500
X403000Y5500
X493000Y5500
X483000Y5500
X473000Y5500
X463000Y5500
X492900Y31100
X477900Y31100
X462900Y31100
X447900Y31100
X432900Y31100
X417900Y31100
X402900Y31100
X402900Y41100
X417900Y41100
X432900Y41100
X447900Y41100
X462900Y41100
X477900Y41100
X492900Y41100
X492900Y51100
X477900Y51100
X462900Y51100
X447900Y51100
X432900Y51100
X417900Y51100
X402900Y51100
X447900Y61100
X462900Y61100
X477900Y61100
X563000Y5500
X573000Y5500
X553000Y5500
X543000Y5500
X533000Y5500
X523000Y5500
X513000Y5500
X503000Y5500
X583000Y5500
X593000Y5500
X582900Y31100
X567900Y31100
X552900Y31100
X537900Y31100
X522900Y31100
X507900Y31100
X507900Y41100
X522900Y41100
X537900Y41100
X552900Y41100
X567900Y41100
X582900Y41100
X582900Y51100
X567900Y51100
X552900Y51100
X537900Y51100
X522900Y51100
X507900Y51100
X522900Y61100
X537900Y61100
X552900Y61100
X567900Y61100
X582900Y61100
X548077Y102961
X503957Y81343
X520400Y85800
X591463Y85800
X585542Y100610
X556200Y166100
X553127Y166100
X592666Y115862
X567157Y175250
X563157Y175250
X559157Y175250
X528600Y193400
X533000Y201900
X554207Y186700
X532800Y192800
X532800Y189300
X560510Y257039
X557754Y257039
X560510Y259794
X557754Y259794
X551652Y258417
X551652Y269440
X554998Y270818
X554998Y268062
X554998Y265306
X554998Y262550
X554998Y273574
X557754Y270818
X557754Y268062
X557754Y265306
X557754Y262550
X557754Y273574
X560510Y270818
X560510Y268062
X560510Y265306
X560510Y262550
X560510Y273574
X563266Y270818
X563266Y268062
X563266Y265306
X563266Y262550
X563266Y273574
X583148Y258417
X577046Y257039
X574290Y257039
X574290Y259794
X577046Y259794
X583148Y269440
X579802Y270818
X579802Y268062
X579802Y265306
X579802Y262550
X579802Y273574
X577046Y270818
X577046Y268062
X577046Y265306
X577046Y262550
X577046Y273574
X574290Y270818
X574290Y268062
X574290Y265306
X574290Y262550
X574290Y273574
X571534Y270818
X571534Y268062
X571534Y265306
X571534Y262550
X571534Y273574
X568778Y270818
X568778Y268062
X568778Y265306
X568778Y262550
X568778Y273574
X566022Y273574
X566022Y262550
X566022Y265306
X566022Y268062
X566022Y270818
X504648Y258417
X498546Y257039
X495790Y257039
X495790Y259794
X498546Y259794
X504648Y269440
X501302Y270818
X501302Y268062
X501302Y265306
X501302Y262550
X501302Y273574
X498546Y270818
X498546Y268062
X498546Y265306
X498546Y262550
X498546Y273574
X495790Y270818
X495790Y268062
X495790Y265306
X495790Y262550
X495790Y273574
X551600Y212200
X563157Y179250
X559157Y179250
X555157Y179250
X551600Y216220
X591325Y268095
X594081Y268095
X591325Y273606
X594081Y273606
X594081Y270850
X591325Y270850
X557254Y243227
X560010Y243227
X562766Y243227
X562766Y240471
X560010Y240471
X557254Y240471
X562766Y245983
X560010Y245983
X557254Y245983
X554498Y245983
X554498Y248739
X557254Y248739
X560010Y248739
X562766Y248739
X562766Y251495
X560010Y251495
X557254Y251495
X554498Y251495
X554498Y254250
X557254Y254250
X560010Y254250
X562766Y254250
X551743Y254250
X551743Y251495
X548987Y251495
X548987Y254250
X580302Y243227
X577546Y243227
X574790Y243227
X572034Y243227
X572034Y240471
X574790Y240471
X577546Y240471
X580302Y240471
X583058Y240471
X583058Y243227
X585813Y243227
X585813Y240471
X572034Y245983
X574790Y245983
X577546Y245983
X580302Y245983
X580302Y248739
X577546Y248739
X574790Y248739
X572034Y248739
X572034Y251495
X574790Y251495
X577546Y251495
X580302Y251495
X580302Y254250
X577546Y254250
X574790Y254250
X572034Y254250
X583058Y254250
X583058Y251495
X583058Y248739
X583058Y245983
X585813Y245983
X585813Y248739
X585813Y251495
X585813Y254250
X512825Y273606
X515581Y273606
X518337Y273606
X518337Y270850
X515581Y270850
X512825Y270850
X512825Y268095
X515581Y268095
X518337Y268095
X501802Y243227
X499046Y243227
X496290Y243227
X496290Y240471
X499046Y240471
X501802Y240471
X496290Y245983
X499046Y245983
X501802Y245983
X501802Y248739
X499046Y248739
X496290Y248739
X496290Y251495
X499046Y251495
X501802Y251495
X501802Y254250
X499046Y254250
X496290Y254250
X504558Y254250
X504558Y251495
X504558Y248739
X504558Y245983
X507313Y251495
X507313Y254250
X504558Y240471
X504558Y243227
X507313Y243227
X507313Y240471
X507313Y245983
X507313Y248739
X496290Y237715
X499046Y237715
X501802Y237715
X504558Y237715
X507313Y237715
X507313Y234959
X504558Y234959
X501802Y234959
X499046Y234959
X496290Y234959
X551743Y245983
X551743Y248739
X548987Y248739
X548987Y245983
X554498Y243227
X551743Y243227
X548987Y243227
X548987Y240471
X551743Y240471
X554498Y240471
X562766Y237715
X560010Y237715
X557254Y237715
X554498Y237715
X551743Y237715
X548987Y237715
X548987Y234959
X551743Y234959
X554498Y234959
X557254Y234959
X560010Y234959
X562766Y234959
X588569Y243227
X588569Y240471
X591325Y240471
X591325Y243227
X510069Y268095
X510069Y270850
X510069Y273606
X505440Y199073
X515314Y199073
X511877Y199073
X508877Y199073
X505440Y203010
X505440Y206947
X515314Y203010
X515314Y206947
X511877Y203010
X511877Y206947
X508877Y206947
X508877Y203010
X531200Y344500
X531100Y347700
X563400Y371000
X560800Y368200
X532500Y350600
X498900Y338800
X525937Y319175
X542300Y352400
X542300Y356500
X542500Y360600
X545600Y352400
X545800Y360500
X545800Y356500
X560510Y281842
X557754Y281842
X560510Y279086
X557754Y279086
X551652Y280464
X554998Y276330
X557754Y276330
X560510Y276330
X563266Y276330
X583148Y280464
X574290Y281842
X577046Y281842
X574290Y279086
X577046Y279086
X579802Y276330
X577046Y276330
X574290Y276330
X571534Y276330
X568778Y276330
X566022Y276330
X504648Y280464
X495790Y281842
X498546Y281842
X495790Y279086
X498546Y279086
X501302Y276330
X498546Y276330
X495790Y276330
X501123Y368053
X548987Y298410
X548987Y295654
X548987Y290142
X548987Y292898
X551743Y292898
X551743Y290142
X551743Y295654
X551743Y298410
X554498Y298410
X554498Y295654
X554498Y290142
X554498Y292898
X557254Y290142
X560010Y290142
X562766Y290142
X562766Y292898
X560010Y292898
X557254Y292898
X557254Y295654
X560010Y295654
X562766Y295654
X562766Y298410
X560010Y298410
X557254Y298410
X554498Y284630
X557254Y284630
X560010Y284630
X562766Y284630
X562766Y287386
X560010Y287386
X557254Y287386
X554498Y287386
X551743Y287386
X551743Y284630
X548987Y284630
X548987Y287386
X577546Y292898
X580302Y292898
X580302Y295654
X577546Y295654
X577546Y298410
X580302Y298410
X583058Y298410
X583058Y295654
X583058Y292898
X585813Y292898
X585813Y295654
X585858Y298274
X588614Y298274
X588569Y295654
X588569Y292898
X591325Y292898
X591325Y295654
X591370Y298274
X594081Y298410
X594081Y295654
X594081Y292898
X580302Y284630
X577546Y284630
X574790Y284630
X572034Y284630
X572034Y287386
X574790Y287386
X577546Y287386
X580302Y287386
X580302Y290142
X577546Y290142
X574790Y290142
X572034Y290142
X583058Y290142
X583058Y287386
X583058Y284630
X585813Y284630
X585813Y287386
X585813Y290142
X588569Y290142
X588569Y287386
X588569Y284630
X591325Y284630
X591325Y287386
X591325Y290142
X594081Y290142
X594081Y287386
X594081Y284630
X594081Y281874
X591325Y281874
X591325Y279118
X594081Y279118
X594081Y276362
X591325Y276362
X501802Y292898
X501802Y295654
X501802Y298410
X504558Y298410
X504558Y295654
X504558Y292898
X507313Y292898
X507313Y295654
X507313Y298410
X510069Y298410
X510069Y295654
X510069Y292898
X512825Y292898
X512825Y295654
X512825Y298410
X515581Y298410
X515581Y295654
X515581Y292898
X518337Y292898
X518337Y295654
X518337Y298410
X501802Y284630
X501802Y287386
X501802Y290142
X504558Y290142
X504558Y287386
X504558Y284630
X507313Y284630
X507313Y287386
X507313Y290142
X510069Y290142
X510069Y287386
X510069Y284630
X512825Y284630
X512825Y287386
X512825Y290142
X515581Y290142
X515581Y287386
X515581Y284630
X518337Y284630
X518337Y287386
X518337Y290142
X499046Y292898
X499046Y295654
X499046Y298410
X499046Y284630
X499046Y287386
X499046Y290142
X496290Y284630
X496290Y287386
X496290Y290142
X518337Y281874
X515581Y281874
X512825Y281874
X512825Y279118
X515581Y279118
X518337Y279118
X518337Y276362
X515581Y276362
X512825Y276362
X507969Y332600
X496290Y298410
X574790Y298410
X501802Y301165
X504558Y301165
X507313Y301165
X510069Y301165
X512825Y301165
X515581Y301165
X518337Y301165
X499046Y301165
X496290Y301165
X548987Y301165
X551743Y301165
X554498Y301165
X562766Y301165
X560010Y301165
X557254Y301165
X557254Y303921
X560010Y303921
X562766Y303921
X554498Y303921
X551743Y303921
X548987Y303921
X510069Y276362
X510069Y279118
X510069Y281874
X504123Y368053
X507560Y368053
X497686Y368053
X501123Y371990
X501123Y375927
X504123Y375927
X504123Y371990
X507560Y375927
X507560Y371990
X497686Y375927
X497686Y371990
X584850Y444050
X553100Y397600
X557100Y397600
X561100Y397600
X553100Y401600
X557100Y401600
X561100Y401600
X539916Y428440
X497512Y412788
X539618Y457422
X519000Y397500
X545890Y473390
X523220Y406580
X525080Y403740
X502368Y397500
X521550Y442907
X525900Y509950
X526050Y513350
X534619Y546780
X529000Y539500
X529076Y535533
X529076Y530937
X529076Y526468
X529076Y521787
X529100Y517900
X539089Y540570
X545640Y479590
X543940Y476590
X546940Y516906
X546940Y521570
X546940Y535870
X546940Y531070
X551100Y487800
X546940Y526370
X494700Y564500
X504700Y564500
X514700Y564500
X524700Y564500
X534700Y564500
X544700Y564500
X554700Y564500
X564700Y564500
X574700Y564500
X584700Y564500
X560333Y502024
X694500Y496900
X694500Y506900
X694500Y516900
X694500Y526900
X694500Y536900
X694500Y546900
X694500Y556900
X594700Y564500
X604700Y564500
X614700Y564500
X624700Y564500
X634700Y564500
X644700Y564500
X654700Y564500
X664700Y564500
X674700Y564500
X684700Y564500
X678900Y546700
X663900Y546700
X678900Y531700
X663900Y531700
X663600Y382100
X602700Y457763
X597824Y418500
X694500Y446900
X694500Y396900
X694500Y436900
X694500Y406900
X694500Y416900
X694500Y426900
X597824Y414595
X601233Y418500
X601233Y414595
X694500Y456900
X628652Y380000
X599528Y416500
X694500Y386900
X694500Y376900
X624600Y312200
X637074Y359072
X675500Y331700
X672950Y345391
X667885Y345450
X609900Y313700
X668300Y331000
X640510Y281842
X637754Y281842
X640510Y279086
X637754Y279086
X631652Y280464
X634998Y276330
X637754Y276330
X640510Y276330
X643266Y276330
X663148Y280464
X654290Y281842
X657046Y281842
X654290Y279086
X657046Y279086
X659802Y276330
X657046Y276330
X654290Y276330
X651534Y276330
X648778Y276330
X646022Y276330
X694500Y296900
X694500Y286900
X694500Y276900
X596837Y292898
X596837Y295654
X596837Y298410
X599593Y298410
X599593Y295654
X599593Y292898
X596837Y284630
X596837Y287386
X596837Y290142
X599593Y290142
X599593Y287386
X599593Y284630
X599593Y281874
X596837Y281874
X596837Y279118
X599593Y279118
X599593Y276362
X596837Y276362
X652034Y290142
X654790Y290142
X654790Y287386
X652034Y287386
X652034Y284630
X654790Y284630
X657546Y290142
X657546Y287386
X657546Y284630
X657546Y298410
X657546Y295654
X657546Y292898
X637254Y298410
X640010Y298410
X642600Y298200
X642766Y295654
X640010Y295654
X637254Y295654
X637254Y292898
X640010Y292898
X642766Y292898
X642766Y290142
X640010Y290142
X637254Y290142
X637254Y287386
X640010Y287386
X642766Y287386
X642766Y284630
X640010Y284630
X637254Y284630
X634498Y292898
X634498Y290142
X634498Y287386
X634498Y284630
X628987Y287386
X628987Y284630
X631743Y284630
X631743Y287386
X634498Y295654
X634498Y298410
X631766Y298342
X631743Y295654
X631743Y290142
X631743Y292898
X628987Y292898
X628987Y290142
X628987Y295654
X629010Y298342
X679593Y284630
X679593Y287386
X679593Y290142
X676837Y290142
X676837Y287386
X676837Y284630
X674081Y284630
X674081Y287386
X674081Y290142
X671325Y290142
X671325Y287386
X671325Y284630
X668569Y284630
X668569Y287386
X668569Y290142
X665813Y290142
X665813Y287386
X665813Y284630
X663058Y284630
X663058Y287386
X663058Y290142
X660302Y290142
X660302Y287386
X660302Y284630
X679593Y292898
X679593Y295654
X679593Y298410
X676837Y298410
X676837Y295654
X676837Y292898
X674081Y292898
X674081Y295654
X674081Y298410
X671325Y298410
X671325Y295654
X671325Y292898
X668569Y292898
X668569Y295654
X668569Y298410
X665813Y298410
X665813Y295654
X665813Y292898
X663058Y292898
X663058Y295654
X663058Y298410
X660302Y298410
X660302Y295654
X660302Y292898
X671325Y276362
X674081Y276362
X676837Y276362
X679593Y276362
X679593Y279118
X676837Y279118
X674081Y279118
X671325Y279118
X671325Y281874
X674081Y281874
X676837Y281874
X679593Y281874
X654790Y298410
X657546Y301165
X679593Y301165
X676837Y301165
X674081Y301165
X671325Y301165
X668569Y301165
X665813Y301165
X663058Y301165
X660302Y301165
X654790Y301165
X654790Y303921
X660302Y303921
X663058Y303921
X665813Y303921
X668569Y303921
X671325Y303921
X674081Y303921
X676837Y303921
X679593Y303921
X657546Y303921
X652034Y301165
X652034Y303921
X634000Y372276
X694500Y366900
X694500Y356900
X694500Y346900
X694500Y336900
X694500Y326900
X694500Y316900
X694500Y306900
X640510Y257039
X637754Y257039
X640510Y259794
X637754Y259794
X631652Y258417
X631652Y269440
X634998Y270818
X634998Y268062
X634998Y265306
X634998Y262550
X634998Y273574
X637754Y270818
X637754Y268062
X637754Y265306
X637754Y262550
X637754Y273574
X640510Y270818
X640510Y268062
X640510Y265306
X640510Y262550
X640510Y273574
X643266Y270818
X643266Y268062
X643266Y265306
X643266Y262550
X643266Y273574
X663148Y258417
X657046Y257039
X654290Y257039
X654290Y259794
X657046Y259794
X663148Y269440
X659802Y270818
X659802Y268062
X659802Y265306
X659802Y262550
X659802Y273574
X657046Y270818
X657046Y268062
X657046Y265306
X657046Y262550
X657046Y273574
X654290Y270818
X654290Y268062
X654290Y265306
X654290Y262550
X654290Y273574
X651534Y270818
X651534Y268062
X651534Y265306
X651534Y262550
X651534Y273574
X648778Y270818
X648778Y268062
X648778Y265306
X648778Y262550
X648778Y273574
X646022Y273574
X646022Y262550
X646022Y265306
X646022Y268062
X646022Y270818
X643600Y196702
X694500Y196900
X694500Y186900
X694500Y176900
X694500Y236900
X694500Y226900
X694500Y216900
X694500Y206900
X694500Y266900
X694500Y256900
X694500Y246900
X596837Y268095
X599593Y268095
X596837Y273606
X599593Y273606
X599593Y270850
X596837Y270850
X679593Y268095
X676837Y268095
X674081Y268095
X671325Y268095
X671325Y270850
X674081Y270850
X676837Y270850
X679593Y270850
X679593Y273606
X676837Y273606
X674081Y273606
X671325Y273606
X660302Y240471
X657546Y240471
X654790Y240471
X652034Y240471
X652034Y243227
X654790Y243227
X657546Y243227
X660302Y243227
X637254Y240471
X640010Y240471
X642766Y240471
X642766Y243227
X640010Y243227
X637254Y243227
X634498Y243227
X634498Y240471
X631743Y240471
X631743Y243227
X628987Y243227
X628987Y240471
X665813Y254250
X665813Y251495
X663058Y245983
X663058Y248739
X663058Y251495
X663058Y254250
X652034Y254250
X654790Y254250
X657546Y254250
X660302Y254250
X660302Y251495
X657546Y251495
X654790Y251495
X652034Y251495
X652034Y248739
X654790Y248739
X657546Y248739
X660302Y248739
X660302Y245983
X657546Y245983
X654790Y245983
X652034Y245983
X628987Y254250
X628987Y251495
X631743Y251495
X631743Y254250
X642766Y254250
X640010Y254250
X637254Y254250
X634498Y254250
X634498Y251495
X637254Y251495
X640010Y251495
X642766Y251495
X642766Y248739
X640010Y248739
X637254Y248739
X634498Y248739
X634498Y245983
X637254Y245983
X640010Y245983
X642766Y245983
X631743Y245983
X631743Y248739
X628987Y248739
X628987Y245983
X599400Y214000
X603400Y210000
X603400Y214000
X607400Y214000
X660302Y237715
X657546Y237715
X654790Y237715
X652034Y237715
X652034Y234959
X654790Y234959
X657546Y234959
X660302Y234959
X663058Y237715
X663058Y234959
X601079Y94712
X602253Y145887
X694500Y116900
X694500Y106900
X694500Y96900
X694500Y86900
X694500Y76900
X694500Y126900
X694500Y166900
X694500Y156900
X694500Y146900
X694500Y136900
X651100Y111500
X654030Y113080
X603000Y5500
X613000Y5500
X623000Y5500
X633000Y5500
X653000Y5500
X643000Y5500
X694500Y56900
X694500Y46900
X694500Y66900
X612900Y31100
X597900Y31100
X597900Y41100
X612900Y41100
X612900Y51100
X597900Y51100
X627900Y31100
X627900Y41100
X650000Y54500
X660000Y54500
X640000Y54500
X670000Y54500
X670000Y64500
X640000Y64500
X660000Y64500
X650000Y64500
X650000Y74500
X660000Y74500
X640000Y74500
X670000Y74500
X694700Y564500
T03
X368346Y506732
X375827Y506732
X383307Y506732
X390787Y506732
X368346Y512047
X375827Y512047
X383307Y512047
X390787Y512047
X390787Y517362
X383307Y517362
X390787Y522677
X383307Y522677
X390787Y527992
X383307Y527992
X390787Y533307
X383307Y533307
X375827Y533307
X368346Y533307
X375827Y527992
X368346Y527992
X375827Y522677
X368346Y522677
X375827Y517362
X368346Y517362
X360866Y533307
X360866Y512047
X360866Y517362
X360866Y527992
X360866Y522677
X360866Y506732
X353386Y533307
X353386Y512047
X353386Y517362
X353386Y527992
X353386Y522677
X353386Y506732
X345905Y533307
X345905Y527992
X345905Y522677
X345905Y517362
X345905Y512047
X345905Y506732
X338425Y533307
X338425Y527992
X338425Y522677
X338425Y517362
X338425Y512047
X338425Y506732
X330945Y533307
X330945Y527992
X330945Y522677
X330945Y517362
X330945Y512047
X330945Y506732
X323464Y533307
X323464Y527992
X323464Y522677
X323464Y517362
X323464Y512047
X323464Y506732
X315984Y533307
X315984Y506732
X315984Y512047
X315984Y517362
X315984Y522677
X315984Y527992
X308504Y533307
X308504Y506732
X308504Y512047
X308504Y517362
X308504Y522677
X308504Y527992
X398268Y506732
X405748Y506732
X398268Y512047
X405748Y512047
X420708Y517362
X413228Y517362
X405748Y517362
X398268Y517362
X420708Y522677
X413228Y522677
X405748Y522677
X398268Y522677
X420708Y527992
X413228Y527992
X405748Y527992
X398268Y527992
X420708Y533307
X413228Y533307
X405748Y533307
X398268Y533307
X413228Y512047
X420708Y512047
X413228Y506732
X420708Y506732
T04
X340158Y-24040
X350000Y-24040
X359842Y-24040
T05
X135200Y425344
X155200Y425344
T06
X217000Y120000
X237000Y120000
X217000Y140000
X237000Y140000
X555000Y120000
X575000Y120000
X555000Y140000
X575000Y140000
T07
X21600Y476000
X21600Y21600
X215000Y335000
X350000Y21600
X350000Y260000
X562500Y335000
X678400Y476000
X678400Y21600
T08
X291181Y513622
M30
