G04 ================== begin FILE IDENTIFICATION RECORD ==================*
G04 Layout Name:  OC_CONNECT_1_FRONTEND_LIFE-3.brd*
G04 Film Name:    soldtop*
G04 File Format:  Gerber RS274X*
G04 File Origin:  Cadence Allegro 16.6-P004*
G04 Origin Date:  Fri Jan 13 14:48:27 2017*
G04 *
G04 Layer:  DRAWING FORMAT/SMPR*
G04 Layer:  DRAWING FORMAT/FILM_LABEL_OUTLINE*
G04 Layer:  VIA CLASS/SOLDERMASK_TOP*
G04 Layer:  PIN/SOLDERMASK_TOP*
G04 Layer:  PACKAGE GEOMETRY/SOLDERMASK_TOP*
G04 Layer:  BOARD GEOMETRY/OUTLINE*
G04 Layer:  BOARD GEOMETRY/SOLDERMASK_TOP*
G04 *
G04 Offset:    (0.000 0.000)*
G04 Mirror:    No*
G04 Mode:      Positive*
G04 Rotation:  0*
G04 FullContactRelief:  No*
G04 UndefLineWidth:     6.000*
G04 ================== end FILE IDENTIFICATION RECORD ====================*
%FSLAX25Y25*MOIN*%
%IR0*IPPOS*OFA0.00000B0.00000*MIA0B0*SFA1.00000B1.00000*%
%ADD93R,.066929X.07874*%
%ADD97R,.11X.055*%
%ADD67R,.055X.11*%
%ADD59R,.11X.059*%
%ADD58R,.059X.11*%
%AMMACRO42*
4,1,22,.005512,-.01122,
.005428,-.012177,
.00518,-.013105,
.004774,-.013976,
.004223,-.014763,
.003543,-.015443,
.002756,-.015994,
.001886,-.0164,
.000958,-.016649,
0.0,-.016732,
-.000957,-.016649,
-.001885,-.0164,
-.002756,-.015994,
-.003543,-.015443,
-.004222,-.014764,
-.004773,-.013977,
-.005179,-.013106,
-.005428,-.012178,
-.005512,-.011221,
-.005512,-.01122,
-.005512,.016732,
.005512,.016732,
.005512,-.01122,
0.0*
%
%ADD42MACRO42*%
%AMMACRO39*
4,1,22,.01122,.005512,
.012177,.005428,
.013105,.00518,
.013976,.004774,
.014763,.004223,
.015443,.003543,
.015994,.002756,
.0164,.001886,
.016649,.000958,
.016732,0.0,
.016649,-.000957,
.0164,-.001885,
.015994,-.002756,
.015443,-.003543,
.014764,-.004222,
.013977,-.004773,
.013106,-.005179,
.012178,-.005428,
.011221,-.005512,
.01122,-.005512,
-.016732,-.005512,
-.016732,.005512,
.01122,.005512,
0.0*
%
%ADD39MACRO39*%
%ADD63C,.16*%
%AMMACRO50*
4,1,22,.016732,-.00689,
.016732,.00689,
-.009842,.00689,
-.011038,.006785,
-.012199,.006475,
-.013287,.005967,
-.014271,.005278,
-.01512,.004429,
-.015809,.003445,
-.016317,.002357,
-.016628,.001197,
-.016733,.000001,
-.016628,-.001196,
-.016317,-.002356,
-.01581,-.003445,
-.015121,-.004428,
-.014272,-.005278,
-.013288,-.005967,
-.0122,-.006474,
-.011039,-.006785,
-.009843,-.00689,
-.009842,-.00689,
.016732,-.00689,
0.0*
%
%ADD50MACRO50*%
%AMMACRO86*
4,1,44,.014961,-.007087,
.014961,.012992,
.014931,.013334,
.014842,.013665,
.014697,.013976,
.0145,.014258,
.014258,.0145,
.013977,.014697,
.013666,.014842,
.013334,.014931,
.012992,.014961,
.012992,.014961,
-.012992,.014961,
-.013334,.014931,
-.013665,.014842,
-.013976,.014697,
-.014258,.0145,
-.0145,.014258,
-.014697,.013977,
-.014842,.013666,
-.014931,.013334,
-.014961,.012992,
-.014961,.012992,
-.014961,-.012992,
-.014931,-.013334,
-.014842,-.013665,
-.014697,-.013976,
-.0145,-.014258,
-.014258,-.0145,
-.013977,-.014697,
-.013666,-.014842,
-.013334,-.014931,
-.012992,-.014961,
-.012992,-.014961,
.007087,-.014961,
.007207,-.013594,
.007562,-.012268,
.008142,-.011024,
.008929,-.0099,
.009899,-.008929,
.011023,-.008142,
.012267,-.007562,
.013593,-.007207,
.01496,-.007087,
.014961,-.007087,
0.0*
%
%ADD86MACRO86*%
%ADD57R,.07205X.13504*%
%ADD19R,.102362X.102362*%
%AMMACRO89*
4,1,5,-.024606,-.012795,
-.024606,.012795,
.012795,.012795,
.024606,.000984,
.024606,-.012795,
-.024606,-.012795,
0.0*
%
%ADD89MACRO89*%
%ADD10C,.334646*%
%ADD43R,.080709X.100394*%
%ADD105R,.008X.019685*%
%ADD95R,.008661X.014173*%
%ADD56R,.014173X.008661*%
%ADD18R,.009843X.023622*%
%AMMACRO82*
4,1,21,0.0,.008661,
-.000684,.008601,
-.001347,.008424,
-.001968,.008134,
-.002531,.00774,
-.003016,.007255,
-.00341,.006693,
-.0037,.006071,
-.003877,.005408,
-.003937,.004724,
-.003937,-.008662,
.003937,-.008662,
.003937,.004724,
.003877,.005408,
.0037,.006071,
.00341,.006692,
.003016,.007255,
.002531,.00774,
.001969,.008134,
.001347,.008424,
.000684,.008601,
0.0,.008661,
0.0*
%
%ADD82MACRO82*%
%ADD17R,.023622X.009843*%
%AMMACRO85*
4,1,21,.008661,0.0,
.008601,.000684,
.008424,.001347,
.008134,.001968,
.00774,.002531,
.007255,.003016,
.006693,.00341,
.006071,.0037,
.005408,.003877,
.004724,.003937,
-.008662,.003937,
-.008662,-.003937,
.004724,-.003937,
.005408,-.003877,
.006071,-.0037,
.006692,-.00341,
.007255,-.003016,
.00774,-.002531,
.008134,-.001969,
.008424,-.001347,
.008601,-.000684,
.008661,0.0,
0.0*
%
%ADD85MACRO85*%
%ADD77R,.009843X.01378*%
%ADD31R,.03189X.009843*%
%ADD94R,.008661X.015748*%
%ADD30R,.009843X.03189*%
%ADD55R,.015748X.008661*%
%ADD27R,.017717X.009843*%
%ADD78R,.15748X.098425*%
%ADD69R,.145669X.086614*%
%ADD54R,.027559X.009843*%
%ADD35R,.094488X.129921*%
%ADD53R,.009843X.027559*%
%ADD37R,.015X.012*%
%ADD91R,.05X.017*%
%ADD38R,.063X.014*%
%ADD87R,.074X.013*%
%ADD23R,.014X.063*%
%ADD16R,.013X.074*%
%ADD15C,.02*%
%ADD71R,.024X.028*%
%ADD36R,.016X.019*%
%ADD49C,.04*%
%ADD11C,.022*%
%ADD44R,.075X.015*%
%ADD21R,.036X.037*%
%AMMACRO40*
4,1,22,-.01122,-.005512,
-.012177,-.005428,
-.013105,-.00518,
-.013976,-.004774,
-.014763,-.004223,
-.015443,-.003543,
-.015994,-.002756,
-.0164,-.001886,
-.016649,-.000958,
-.016732,0.0,
-.016649,.000957,
-.0164,.001885,
-.015994,.002756,
-.015443,.003543,
-.014764,.004222,
-.013977,.004773,
-.013106,.005179,
-.012178,.005428,
-.011221,.005512,
-.01122,.005512,
.016732,.005512,
.016732,-.005512,
-.01122,-.005512,
0.0*
%
%ADD40MACRO40*%
%ADD29R,.037X.036*%
%ADD98R,.051X.059*%
%ADD64C,.034*%
%AMMACRO41*
4,1,22,-.005512,.01122,
-.005428,.012177,
-.00518,.013105,
-.004774,.013976,
-.004223,.014763,
-.003543,.015443,
-.002756,.015994,
-.001886,.0164,
-.000958,.016649,
0.0,.016732,
.000957,.016649,
.001885,.0164,
.002756,.015994,
.003543,.015443,
.004222,.014764,
.004773,.013977,
.005179,.013106,
.005428,.012178,
.005512,.011221,
.005512,.01122,
.005512,-.016732,
-.005512,-.016732,
-.005512,.01122,
0.0*
%
%ADD41MACRO41*%
%ADD14C,.025*%
%ADD88R,.055X.039*%
%AMMACRO51*
4,1,22,-.016732,.00689,
-.016732,-.00689,
.009842,-.00689,
.011038,-.006785,
.012199,-.006475,
.013287,-.005967,
.014271,-.005278,
.01512,-.004429,
.015809,-.003445,
.016317,-.002357,
.016628,-.001197,
.016733,-.000001,
.016628,.001196,
.016317,.002356,
.01581,.003445,
.015121,.004428,
.014272,.005278,
.013288,.005967,
.0122,.006474,
.011039,.006785,
.009843,.00689,
.009842,.00689,
-.016732,.00689,
0.0*
%
%ADD51MACRO51*%
%ADD72R,.039X.028*%
%ADD62R,.039X.055*%
%ADD46R,.02X.02*%
%ADD48C,.075*%
%AMMACRO26*
21,1,.025,.025,0.0,0.0,45.*%
%ADD26MACRO26*%
%ADD70R,.034X.034*%
%ADD20R,.025X.025*%
%ADD47C,.023622*%
%AMMACRO52*
4,1,20,.018307,.074803,
.018307,.034449,
.029528,.034449,
.029528,-.034449,
.018307,-.034449,
.018307,-.074803,
.007284,-.074803,
.007284,-.034449,
-.007284,-.034449,
-.007284,-.074803,
-.018307,-.074803,
-.018307,-.034449,
-.029528,-.034449,
-.029528,.034449,
-.018307,.034449,
-.018307,.074803,
-.007284,.074803,
-.007284,.034449,
.007284,.034449,
.007284,.074803,
.018307,.074803,
0.0*
%
%ADD52MACRO52*%
%ADD22C,.0197*%
%ADD65R,.075X.075*%
%ADD32R,.081102X.081102*%
%ADD92R,.055118X.023622*%
%ADD90R,.011811X.031496*%
%ADD34C,.08374*%
%ADD45R,.104409X.135906*%
%ADD103R,.043307X.03937*%
%ADD81R,.09252X.047244*%
%ADD25C,.086614*%
%AMMACRO84*
4,1,21,0.0,-.008661,
.000684,-.008601,
.001347,-.008424,
.001968,-.008134,
.002531,-.00774,
.003016,-.007255,
.00341,-.006693,
.0037,-.006071,
.003877,-.005408,
.003937,-.004724,
.003937,.008662,
-.003937,.008662,
-.003937,-.004724,
-.003877,-.005408,
-.0037,-.006071,
-.00341,-.006692,
-.003016,-.007255,
-.002531,-.00774,
-.001969,-.008134,
-.001347,-.008424,
-.000684,-.008601,
0.0,-.008661,
0.0*
%
%ADD84MACRO84*%
%AMMACRO83*
4,1,21,-.008661,0.0,
-.008601,-.000684,
-.008424,-.001347,
-.008134,-.001968,
-.00774,-.002531,
-.007255,-.003016,
-.006693,-.00341,
-.006071,-.0037,
-.005408,-.003877,
-.004724,-.003937,
.008662,-.003937,
.008662,.003937,
-.004724,.003937,
-.005408,.003877,
-.006071,.0037,
-.006692,.00341,
-.007255,.003016,
-.00774,.002531,
-.008134,.001969,
-.008424,.001347,
-.008601,.000684,
-.008661,0.0,
0.0*
%
%ADD83MACRO83*%
%ADD66R,.057087X.011811*%
%ADD12C,.07874*%
%ADD102R,.055118X.047244*%
%ADD75R,.045276X.043307*%
%ADD61R,.03937X.03937*%
%ADD33R,.08374X.08374*%
%ADD104R,.031496X.047244*%
%ADD100R,.059252X.031575*%
%ADD80R,.025591X.03937*%
%ADD60R,.023622X.059843*%
%ADD13R,.034646X.034646*%
%ADD106R,.055118X.015748*%
%ADD76R,.029528X.01378*%
%ADD101R,.102874X.137874*%
%ADD96R,.070866X.055118*%
%ADD24R,.062992X.01378*%
%ADD74R,.035433X.066929*%
%ADD68R,.047244X.062992*%
%ADD73R,.066929X.035433*%
%ADD28R,.035433X.066929*%
%ADD99R,.045276X.057087*%
%ADD79R,.051181X.068898*%
%ADD107C,.01*%
%ADD108C,.006*%
G75*
%LPD*%
G75*
G36*
G01X0Y566000D02*
X4000Y570000D01*
X261000D01*
X265000Y566000D01*
Y495000D01*
G03X275000Y485000I10000J0D01*
G01X425000D01*
G03X435000Y495000I0J10000D01*
G01Y566000D01*
X439000Y570000D01*
X696000D01*
X700000Y566000D01*
Y4000D01*
X696000Y0D01*
X4000D01*
X0Y4000D01*
Y399500D01*
X15000D01*
Y48667D01*
G03X23754Y38745I10000J0D01*
G02X38745Y23754I-2154J-17145D01*
G03X48667Y15000I9922J1246D01*
G01X322933D01*
G03X332855Y23754I0J10000D01*
G02X338915Y34856I17145J-2154D01*
G03X342500Y42527I-6415J7671D01*
G01Y239073D01*
G03X338915Y246744I-10000J0D01*
G02X332720Y260000I11085J13256D01*
G01Y305000D01*
G03X322720Y315000I-10000J0D01*
G01X300000D01*
G02X280000Y335000I0J20000D01*
G01Y399500D01*
X295000D01*
Y340000D01*
G03X305000Y330000I10000J0D01*
G01X395000D01*
G03X405000Y340000I0J10000D01*
G01Y399500D01*
X420000D01*
Y335000D01*
G02X400000Y315000I-20000J0D01*
G01X377280D01*
G03X367280Y305000I0J-10000D01*
G01Y260000D01*
G02X361085Y246744I-17280J0D01*
G03X357500Y239073I6415J-7671D01*
G01Y42527D01*
G03X361085Y34856I10000J0D01*
G02X367145Y23754I-11085J-13256D01*
G03X377067Y15000I9922J1246D01*
G01X651333D01*
G03X661255Y23754I0J10000D01*
G02X676246Y38745I17145J-2154D01*
G03X685000Y48667I-1246J9922D01*
G01Y448933D01*
G03X676246Y458855I-10000J0D01*
G02Y493145I2154J17145D01*
G03X685000Y503067I-1246J9922D01*
G01Y545000D01*
G03X675000Y555000I-10000J0D01*
G01X460000D01*
G03X450000Y545000I0J-10000D01*
G01Y489000D01*
G02X431000Y470000I-19000J0D01*
G01X430000D01*
G03X420000Y460000I0J-10000D01*
G01Y400500D01*
X405000D01*
Y460000D01*
G03X395000Y470000I-10000J0D01*
G01X305000D01*
G03X295000Y460000I0J-10000D01*
G01Y400500D01*
X280000D01*
Y461000D01*
G03X271000Y470000I-9000J0D01*
G01X270000D01*
G02X250000Y490000I0J20000D01*
G01Y545000D01*
G03X240000Y555000I-10000J0D01*
G01X25000D01*
G03X15000Y545000I0J-10000D01*
G01Y503067D01*
G03X23754Y493145I10000J0D01*
G02Y458855I-2154J-17145D01*
G03X15000Y448933I1246J-9922D01*
G01Y400500D01*
X0D01*
Y566000D01*
G37*
G36*
G01X91689Y28880D02*
X100587D01*
Y35415D01*
X91689D01*
Y28880D01*
G37*
G36*
G01Y37423D02*
X100587D01*
Y43998D01*
X91689D01*
Y37423D01*
G37*
G36*
G01X80823D02*
X89681D01*
Y43998D01*
X80823D01*
Y37423D01*
G37*
G36*
G01Y28880D02*
X89681D01*
Y35415D01*
X80823D01*
Y28880D01*
G37*
G36*
G01X69917D02*
X78815D01*
Y35415D01*
X69917D01*
Y28880D01*
G37*
G36*
G01Y37423D02*
X78815D01*
Y43998D01*
X69917D01*
Y37423D01*
G37*
G36*
G01X42870Y126616D02*
Y134648D01*
X56413D01*
Y126616D01*
X63106D01*
Y142089D01*
X35468D01*
Y126616D01*
X42870D01*
G37*
G36*
G01X98028Y135356D02*
X94760D01*
Y126616D01*
X98028D01*
Y135356D01*
G37*
G36*
G01Y142089D02*
X94760D01*
Y137364D01*
X98028D01*
Y142089D01*
G37*
G36*
G01X102634Y155160D02*
X94760D01*
Y144096D01*
X102634D01*
Y155160D01*
G37*
G36*
G01Y165041D02*
X94760D01*
Y157167D01*
X102634D01*
Y165041D01*
G37*
G36*
G01Y174923D02*
X94760D01*
Y167049D01*
X102634D01*
Y174923D01*
G37*
G36*
G01X92752Y135356D02*
X84878D01*
Y126616D01*
X92752D01*
Y135356D01*
G37*
G36*
G01Y145278D02*
X84878D01*
Y137404D01*
X92752D01*
Y145278D01*
G37*
G36*
G01Y155160D02*
X84878D01*
Y147285D01*
X92752D01*
Y155160D01*
G37*
G36*
G01Y165041D02*
X84878D01*
Y157167D01*
X92752D01*
Y165041D01*
G37*
G36*
G01Y174923D02*
X84878D01*
Y167049D01*
X92752D01*
Y174923D01*
G37*
G36*
G01X82870Y135356D02*
X74996D01*
Y126616D01*
X82870D01*
Y135356D01*
G37*
G36*
G01Y145278D02*
X74996D01*
Y137404D01*
X82870D01*
Y145278D01*
G37*
G36*
G01Y155160D02*
X74996D01*
Y147285D01*
X82870D01*
Y155160D01*
G37*
G36*
G01Y165041D02*
X74996D01*
Y157167D01*
X82870D01*
Y165041D01*
G37*
G36*
G01Y174923D02*
X74996D01*
Y167049D01*
X82870D01*
Y174923D01*
G37*
G36*
G01X72988Y135356D02*
X65114D01*
Y126616D01*
X72988D01*
Y135356D01*
G37*
G36*
G01Y145278D02*
X65114D01*
Y137404D01*
X72988D01*
Y145278D01*
G37*
G36*
G01Y155160D02*
X65114D01*
Y147285D01*
X72988D01*
Y155160D01*
G37*
G36*
G01Y165041D02*
X65114D01*
Y157167D01*
X72988D01*
Y165041D01*
G37*
G36*
G01Y174923D02*
X65114D01*
Y167049D01*
X72988D01*
Y174923D01*
G37*
G36*
G01X63106Y155160D02*
X55232D01*
Y144096D01*
X63106D01*
Y155160D01*
G37*
G36*
G01Y165041D02*
X55232D01*
Y157167D01*
X63106D01*
Y165041D01*
G37*
G36*
G01Y174923D02*
X55232D01*
Y167049D01*
X63106D01*
Y174923D01*
G37*
G36*
G01X53224Y155160D02*
X45350D01*
Y144096D01*
X53224D01*
Y155160D01*
G37*
G36*
G01Y165041D02*
X45350D01*
Y157167D01*
X53224D01*
Y165041D01*
G37*
G36*
G01Y174923D02*
X45350D01*
Y167049D01*
X53224D01*
Y174923D01*
G37*
G36*
G01X43342Y155160D02*
X35468D01*
Y144096D01*
X43342D01*
Y155160D01*
G37*
G36*
G01Y165041D02*
X35468D01*
Y157167D01*
X43342D01*
Y165041D01*
G37*
G36*
G01Y174923D02*
X35468D01*
Y167049D01*
X43342D01*
Y174923D01*
G37*
G36*
G01X33461Y133348D02*
X27476D01*
Y126616D01*
X33461D01*
Y133348D01*
G37*
G36*
G01Y142089D02*
X27476D01*
Y135356D01*
X33461D01*
Y142089D01*
G37*
G36*
G01Y155160D02*
X27476D01*
Y144096D01*
X33461D01*
Y155160D01*
G37*
G36*
G01Y165041D02*
X27476D01*
Y157167D01*
X33461D01*
Y165041D01*
G37*
G36*
G01Y174923D02*
X27476D01*
Y167049D01*
X33461D01*
Y174923D01*
G37*
G36*
G01X94740Y72580D02*
Y64116D01*
X101709D01*
Y72580D01*
X94740D01*
G37*
G36*
G01X91689Y46006D02*
X100587D01*
Y52541D01*
X91689D01*
Y46006D01*
G37*
G36*
G01X80823D02*
X89681D01*
Y52541D01*
X80823D01*
Y46006D01*
G37*
G36*
G01X69917D02*
X78815D01*
Y52541D01*
X69917D01*
Y46006D01*
G37*
G36*
G01Y54549D02*
X83146D01*
Y58564D01*
X69917D01*
Y54549D01*
G37*
G36*
G01Y60572D02*
X83146D01*
Y64588D01*
X69917D01*
Y60572D01*
G37*
G36*
G01Y66596D02*
X83146D01*
Y70612D01*
X69917D01*
Y66596D01*
G37*
G36*
G01X85154Y70612D02*
Y54549D01*
X111177D01*
X111256Y54627D01*
Y70612D01*
X107713D01*
Y58092D01*
X88697D01*
Y70612D01*
X85154D01*
G37*
G36*
G01X33057Y236500D02*
X86500D01*
Y305494D01*
X33057D01*
Y236500D01*
G37*
G36*
G01X211492Y28880D02*
X220390D01*
Y35415D01*
X211492D01*
Y28880D01*
G37*
G36*
G01Y37423D02*
X220390D01*
Y43998D01*
X211492D01*
Y37423D01*
G37*
G36*
G01X200626D02*
X209484D01*
Y43998D01*
X200626D01*
Y37423D01*
G37*
G36*
G01Y28880D02*
X209484D01*
Y35415D01*
X200626D01*
Y28880D01*
G37*
G36*
G01X189720D02*
X198618D01*
Y35415D01*
X189720D01*
Y28880D01*
G37*
G36*
G01Y37423D02*
X198618D01*
Y43998D01*
X189720D01*
Y37423D01*
G37*
G36*
G01X178815D02*
X187713D01*
Y43998D01*
X178815D01*
Y37423D01*
G37*
G36*
G01Y28880D02*
X187713D01*
Y35415D01*
X178815D01*
Y28880D01*
G37*
G36*
G01X167949D02*
X176807D01*
Y35415D01*
X167949D01*
Y28880D01*
G37*
G36*
G01Y37423D02*
X176807D01*
Y43998D01*
X167949D01*
Y37423D01*
G37*
G36*
G01X157043Y28880D02*
X165941D01*
Y35415D01*
X157043D01*
Y28880D01*
G37*
G36*
G01Y37423D02*
X165941D01*
Y43998D01*
X157043D01*
Y37423D01*
G37*
G36*
G01X146138Y28880D02*
X155035D01*
Y35415D01*
X146138D01*
Y28880D01*
G37*
G36*
G01Y37423D02*
X155035D01*
Y43998D01*
X146138D01*
Y37423D01*
G37*
G36*
G01X135272D02*
X144130D01*
Y43998D01*
X135272D01*
Y37423D01*
G37*
G36*
G01Y28880D02*
X144130D01*
Y35415D01*
X135272D01*
Y28880D01*
G37*
G36*
G01X124366D02*
X133264D01*
Y35415D01*
X124366D01*
Y28880D01*
G37*
G36*
G01Y37423D02*
X133264D01*
Y43998D01*
X124366D01*
Y37423D01*
G37*
G36*
G01X113500D02*
X122358D01*
Y43998D01*
X113500D01*
Y37423D01*
G37*
G36*
G01Y28880D02*
X122358D01*
Y35415D01*
X113500D01*
Y28880D01*
G37*
G36*
G01X102594Y37423D02*
X111492D01*
Y43998D01*
X102594D01*
Y37423D01*
G37*
G36*
G01Y28880D02*
X111492D01*
Y35415D01*
X102594D01*
Y28880D01*
G37*
G36*
G01X106728Y126616D02*
Y134648D01*
X120272D01*
Y126616D01*
X126964D01*
Y142089D01*
X100035D01*
Y126616D01*
X106728D01*
G37*
G36*
G01X191571D02*
X184130D01*
Y134648D01*
X170587D01*
Y126616D01*
X163933D01*
Y142089D01*
X191571D01*
Y126616D01*
G37*
G36*
G01X199524Y155160D02*
X193579D01*
Y144096D01*
X199524D01*
Y155160D01*
G37*
G36*
G01Y133348D02*
X193579D01*
Y126616D01*
X199524D01*
Y133348D01*
G37*
G36*
G01Y142089D02*
X193579D01*
Y135356D01*
X199524D01*
Y142089D01*
G37*
G36*
G01Y165041D02*
X193579D01*
Y157167D01*
X199524D01*
Y165041D01*
G37*
G36*
G01Y174923D02*
X193579D01*
Y167049D01*
X199524D01*
Y174923D01*
G37*
G36*
G01X191571D02*
X183697D01*
Y167049D01*
X191571D01*
Y174923D01*
G37*
G36*
G01Y165041D02*
X183697D01*
Y157167D01*
X191571D01*
Y165041D01*
G37*
G36*
G01Y155160D02*
X183697D01*
Y144096D01*
X191571D01*
Y155160D01*
G37*
G36*
G01X181689D02*
X173815D01*
Y144096D01*
X181689D01*
Y155160D01*
G37*
G36*
G01Y165041D02*
X173815D01*
Y157167D01*
X181689D01*
Y165041D01*
G37*
G36*
G01Y174923D02*
X173815D01*
Y167049D01*
X181689D01*
Y174923D01*
G37*
G36*
G01X171807D02*
X163933D01*
Y167049D01*
X171807D01*
Y174923D01*
G37*
G36*
G01Y165041D02*
X163933D01*
Y157167D01*
X171807D01*
Y165041D01*
G37*
G36*
G01Y155160D02*
X163933D01*
Y144096D01*
X171807D01*
Y155160D01*
G37*
G36*
G01X161925Y135356D02*
X154051D01*
Y126616D01*
X161925D01*
Y135356D01*
G37*
G36*
G01Y145278D02*
X154051D01*
Y137404D01*
X161925D01*
Y145278D01*
G37*
G36*
G01Y155160D02*
X154051D01*
Y147285D01*
X161925D01*
Y155160D01*
G37*
G36*
G01Y165041D02*
X154051D01*
Y157167D01*
X161925D01*
Y165041D01*
G37*
G36*
G01Y174923D02*
X154051D01*
Y167049D01*
X161925D01*
Y174923D01*
G37*
G36*
G01X152043Y135356D02*
X144169D01*
Y126616D01*
X152043D01*
Y135356D01*
G37*
G36*
G01Y145278D02*
X144169D01*
Y137404D01*
X152043D01*
Y145278D01*
G37*
G36*
G01Y155160D02*
X144169D01*
Y147285D01*
X152043D01*
Y155160D01*
G37*
G36*
G01Y165041D02*
X144169D01*
Y157167D01*
X152043D01*
Y165041D01*
G37*
G36*
G01Y174923D02*
X144169D01*
Y167049D01*
X152043D01*
Y174923D01*
G37*
G36*
G01X142161Y135356D02*
X134287D01*
Y126616D01*
X142161D01*
Y135356D01*
G37*
G36*
G01Y145278D02*
X134287D01*
Y137404D01*
X142161D01*
Y145278D01*
G37*
G36*
G01Y155160D02*
X134287D01*
Y147285D01*
X142161D01*
Y155160D01*
G37*
G36*
G01Y165041D02*
X134287D01*
Y157167D01*
X142161D01*
Y165041D01*
G37*
G36*
G01Y174923D02*
X134287D01*
Y167049D01*
X142161D01*
Y174923D01*
G37*
G36*
G01X132280Y135356D02*
X129012D01*
Y126616D01*
X132280D01*
Y135356D01*
G37*
G36*
G01Y142089D02*
X129012D01*
Y137364D01*
X132280D01*
Y142089D01*
G37*
G36*
G01Y155160D02*
X124406D01*
Y144096D01*
X132280D01*
Y155160D01*
G37*
G36*
G01Y165041D02*
X124406D01*
Y157167D01*
X132280D01*
Y165041D01*
G37*
G36*
G01Y174923D02*
X124406D01*
Y167049D01*
X132280D01*
Y174923D01*
G37*
G36*
G01X122398Y155160D02*
X114524D01*
Y144096D01*
X122398D01*
Y155160D01*
G37*
G36*
G01Y165041D02*
X114524D01*
Y157167D01*
X122398D01*
Y165041D01*
G37*
G36*
G01Y174923D02*
X114524D01*
Y167049D01*
X122398D01*
Y174923D01*
G37*
G36*
G01X112516Y155160D02*
X104642D01*
Y144096D01*
X112516D01*
Y155160D01*
G37*
G36*
G01Y165041D02*
X104642D01*
Y157167D01*
X112516D01*
Y165041D01*
G37*
G36*
G01Y174923D02*
X104642D01*
Y167049D01*
X112516D01*
Y174923D01*
G37*
G36*
G01X171472Y72580D02*
Y64116D01*
X178441D01*
Y72580D01*
X171472D01*
G37*
G36*
G01X220547Y63604D02*
X228697D01*
Y70612D01*
X220547D01*
Y63604D01*
G37*
G36*
G01Y54549D02*
X228697D01*
Y61596D01*
X220547D01*
Y54549D01*
G37*
G36*
G01X211492Y46006D02*
X220390D01*
Y52541D01*
X211492D01*
Y46006D01*
G37*
G36*
G01X210350Y54549D02*
X218539D01*
Y61596D01*
X210350D01*
Y54549D01*
G37*
G36*
G01Y63604D02*
X218539D01*
Y70612D01*
X210350D01*
Y63604D01*
G37*
G36*
G01X200193D02*
X208342D01*
Y70612D01*
X200193D01*
Y63604D01*
G37*
G36*
G01Y54549D02*
X208342D01*
Y61596D01*
X200193D01*
Y54549D01*
G37*
G36*
G01X200626Y46006D02*
X209484D01*
Y52541D01*
X200626D01*
Y46006D01*
G37*
G36*
G01X189720D02*
X198618D01*
Y52541D01*
X189720D01*
Y46006D01*
G37*
G36*
G01X189996Y54549D02*
X198185D01*
Y61596D01*
X189996D01*
Y54549D01*
G37*
G36*
G01X178815Y46006D02*
X187713D01*
Y52541D01*
X178815D01*
Y46006D01*
G37*
G36*
G01X167949D02*
X176807D01*
Y52541D01*
X167949D01*
Y46006D01*
G37*
G36*
G01X157043D02*
X165941D01*
Y52541D01*
X157043D01*
Y46006D01*
G37*
G36*
G01X146138D02*
X155035D01*
Y52541D01*
X146138D01*
Y46006D01*
G37*
G36*
G01X142437Y54549D02*
X150154D01*
Y61596D01*
X142437D01*
Y54549D01*
G37*
G36*
G01Y63604D02*
X150154D01*
Y70612D01*
X142437D01*
Y63604D01*
G37*
G36*
G01X132713D02*
X140429D01*
Y70612D01*
X132713D01*
Y63604D01*
G37*
G36*
G01Y54549D02*
X140429D01*
Y61596D01*
X132713D01*
Y54549D01*
G37*
G36*
G01X135272Y46006D02*
X144130D01*
Y52541D01*
X135272D01*
Y46006D01*
G37*
G36*
G01X124366D02*
X133264D01*
Y52541D01*
X124366D01*
Y46006D01*
G37*
G36*
G01X122988Y54549D02*
X130705D01*
Y61596D01*
X122988D01*
Y54549D01*
G37*
G36*
G01Y63604D02*
X130705D01*
Y70612D01*
X122988D01*
Y63604D01*
G37*
G36*
G01X113264Y54549D02*
X120980D01*
Y61596D01*
X113264D01*
Y54549D01*
G37*
G36*
G01X113500Y46006D02*
X122358D01*
Y52541D01*
X113500D01*
Y46006D01*
G37*
G36*
G01X102594D02*
X111492D01*
Y52541D01*
X102594D01*
Y46006D01*
G37*
G36*
G01X152161Y54549D02*
X159878D01*
Y61596D01*
X152161D01*
Y54549D01*
G37*
G36*
G01X113264Y63604D02*
X120980D01*
Y70612D01*
X113264D01*
Y63604D01*
G37*
G36*
G01X152161D02*
X159878D01*
Y70612D01*
X152161D01*
Y63604D01*
G37*
G36*
G01X189996D02*
X198185D01*
Y70612D01*
X189996D01*
Y63604D01*
G37*
G36*
G01X161886Y70612D02*
Y54549D01*
X187909D01*
X187988Y54627D01*
Y70612D01*
X184445D01*
Y58092D01*
X165429D01*
Y70612D01*
X161886D01*
G37*
G36*
G01X113057Y233247D02*
X163510D01*
Y305090D01*
X113057D01*
Y233247D01*
G37*
G36*
G01X194057Y233847D02*
X247753D01*
Y305494D01*
X194057D01*
Y233847D01*
G37*
G36*
G01X143790Y215940D02*
X163790D01*
Y195940D01*
X143790D01*
Y215940D01*
G37*
G36*
G01X153690Y380030D02*
X173690D01*
Y360030D01*
X153690D01*
Y380030D01*
G37*
G36*
G01X298618Y37423D02*
X307516D01*
Y43998D01*
X298618D01*
Y37423D01*
G37*
G36*
G01Y28880D02*
X307516D01*
Y35415D01*
X298618D01*
Y28880D01*
G37*
G36*
G01X287752Y37423D02*
X296610D01*
Y43998D01*
X287752D01*
Y37423D01*
G37*
G36*
G01Y28880D02*
X296610D01*
Y35415D01*
X287752D01*
Y28880D01*
G37*
G36*
G01X276846D02*
X285744D01*
Y35415D01*
X276846D01*
Y28880D01*
G37*
G36*
G01Y37423D02*
X285744D01*
Y43998D01*
X276846D01*
Y37423D01*
G37*
G36*
G01X265941D02*
X274839D01*
Y43998D01*
X265941D01*
Y37423D01*
G37*
G36*
G01Y28880D02*
X274839D01*
Y35415D01*
X265941D01*
Y28880D01*
G37*
G36*
G01X255075Y37423D02*
X263933D01*
Y43998D01*
X255075D01*
Y37423D01*
G37*
G36*
G01Y28880D02*
X263933D01*
Y35415D01*
X255075D01*
Y28880D01*
G37*
G36*
G01X244169Y37423D02*
X253067D01*
Y43998D01*
X244169D01*
Y37423D01*
G37*
G36*
G01Y28880D02*
X253067D01*
Y35415D01*
X244169D01*
Y28880D01*
G37*
G36*
G01X233303D02*
X242161D01*
Y35415D01*
X233303D01*
Y28880D01*
G37*
G36*
G01Y37423D02*
X242161D01*
Y43998D01*
X233303D01*
Y37423D01*
G37*
G36*
G01X222398D02*
X231295D01*
Y43998D01*
X222398D01*
Y37423D01*
G37*
G36*
G01Y28880D02*
X231295D01*
Y35415D01*
X222398D01*
Y28880D01*
G37*
G36*
G01X281000Y72580D02*
Y64116D01*
X287968D01*
Y72580D01*
X281000D01*
G37*
G36*
G01X299524Y54549D02*
X307516D01*
Y61596D01*
X299524D01*
Y54549D01*
G37*
G36*
G01X298618Y46006D02*
X307516D01*
Y52541D01*
X298618D01*
Y46006D01*
G37*
G36*
G01X287752D02*
X296610D01*
Y52541D01*
X287752D01*
Y46006D01*
G37*
G36*
G01X276846D02*
X285744D01*
Y52541D01*
X276846D01*
Y46006D01*
G37*
G36*
G01X265941D02*
X274839D01*
Y52541D01*
X265941D01*
Y46006D01*
G37*
G36*
G01X255075D02*
X263933D01*
Y52541D01*
X255075D01*
Y46006D01*
G37*
G36*
G01X251059Y54549D02*
X259248D01*
Y61596D01*
X251059D01*
Y54549D01*
G37*
G36*
G01Y63604D02*
X259248D01*
Y70612D01*
X251059D01*
Y63604D01*
G37*
G36*
G01X240902D02*
X249051D01*
Y70612D01*
X240902D01*
Y63604D01*
G37*
G36*
G01Y54549D02*
X249051D01*
Y61596D01*
X240902D01*
Y54549D01*
G37*
G36*
G01X244169Y46006D02*
X253067D01*
Y52541D01*
X244169D01*
Y46006D01*
G37*
G36*
G01X233303D02*
X242161D01*
Y52541D01*
X233303D01*
Y46006D01*
G37*
G36*
G01X230705Y54549D02*
X238894D01*
Y61596D01*
X230705D01*
Y54549D01*
G37*
G36*
G01Y63604D02*
X238894D01*
Y70612D01*
X230705D01*
Y63604D01*
G37*
G36*
G01X222398Y46006D02*
X231295D01*
Y52541D01*
X222398D01*
Y46006D01*
G37*
G36*
G01X261256Y63604D02*
X269445D01*
Y70612D01*
X261256D01*
Y63604D01*
G37*
G36*
G01X299524D02*
X307516D01*
Y70612D01*
X299524D01*
Y63604D01*
G37*
G36*
G01X271453Y70612D02*
Y54549D01*
X297516D01*
Y70612D01*
X293972D01*
Y58092D01*
X274996D01*
Y70612D01*
X271453D01*
G37*
G36*
G01X274057Y233247D02*
X327753D01*
Y305494D01*
X274057D01*
Y233247D01*
G37*
G36*
G01X319760Y376213D02*
X343366D01*
Y360576D01*
X319760D01*
Y376213D01*
G37*
G36*
G01X322730Y460018D02*
X342730D01*
Y441943D01*
X322730D01*
Y460018D01*
G37*
G36*
G01X464272Y37423D02*
X473130D01*
Y43998D01*
X464272D01*
Y37423D01*
G37*
G36*
G01Y28880D02*
X473130D01*
Y35415D01*
X464272D01*
Y28880D01*
G37*
G36*
G01X453366D02*
X462264D01*
Y35415D01*
X453366D01*
Y28880D01*
G37*
G36*
G01Y37423D02*
X462264D01*
Y43998D01*
X453366D01*
Y37423D01*
G37*
G36*
G01X442500D02*
X451358D01*
Y43998D01*
X442500D01*
Y37423D01*
G37*
G36*
G01Y28880D02*
X451358D01*
Y35415D01*
X442500D01*
Y28880D01*
G37*
G36*
G01X431594Y37423D02*
X440492D01*
Y43998D01*
X431594D01*
Y37423D01*
G37*
G36*
G01Y28880D02*
X440492D01*
Y35415D01*
X431594D01*
Y28880D01*
G37*
G36*
G01X420689D02*
X429587D01*
Y35415D01*
X420689D01*
Y28880D01*
G37*
G36*
G01Y37423D02*
X429587D01*
Y43998D01*
X420689D01*
Y37423D01*
G37*
G36*
G01X409823D02*
X418681D01*
Y43998D01*
X409823D01*
Y37423D01*
G37*
G36*
G01Y28880D02*
X418681D01*
Y35415D01*
X409823D01*
Y28880D01*
G37*
G36*
G01X398917D02*
X407815D01*
Y35415D01*
X398917D01*
Y28880D01*
G37*
G36*
G01Y37423D02*
X407815D01*
Y43998D01*
X398917D01*
Y37423D01*
G37*
G36*
G01X383870Y126616D02*
Y134648D01*
X397413D01*
Y126616D01*
X404106D01*
Y142089D01*
X376468D01*
Y126616D01*
X383870D01*
G37*
G36*
G01X447728D02*
Y134648D01*
X461272D01*
Y126616D01*
X467965D01*
Y142089D01*
X441035D01*
Y126616D01*
X447728D01*
G37*
G36*
G01X473280Y135356D02*
X470012D01*
Y126616D01*
X473280D01*
Y135356D01*
G37*
G36*
G01Y142089D02*
X470012D01*
Y137364D01*
X473280D01*
Y142089D01*
G37*
G36*
G01Y155160D02*
X465406D01*
Y144096D01*
X473280D01*
Y155160D01*
G37*
G36*
G01Y165041D02*
X465406D01*
Y157167D01*
X473280D01*
Y165041D01*
G37*
G36*
G01Y174923D02*
X465406D01*
Y167049D01*
X473280D01*
Y174923D01*
G37*
G36*
G01X463398Y155160D02*
X455524D01*
Y144096D01*
X463398D01*
Y155160D01*
G37*
G36*
G01Y165041D02*
X455524D01*
Y157167D01*
X463398D01*
Y165041D01*
G37*
G36*
G01Y174923D02*
X455524D01*
Y167049D01*
X463398D01*
Y174923D01*
G37*
G36*
G01X453516Y155160D02*
X445642D01*
Y144096D01*
X453516D01*
Y155160D01*
G37*
G36*
G01Y165041D02*
X445642D01*
Y157167D01*
X453516D01*
Y165041D01*
G37*
G36*
G01Y174923D02*
X445642D01*
Y167049D01*
X453516D01*
Y174923D01*
G37*
G36*
G01X439028Y135356D02*
X435760D01*
Y126616D01*
X439028D01*
Y135356D01*
G37*
G36*
G01Y142089D02*
X435760D01*
Y137364D01*
X439028D01*
Y142089D01*
G37*
G36*
G01X443634Y155160D02*
X435760D01*
Y144096D01*
X443634D01*
Y155160D01*
G37*
G36*
G01Y165041D02*
X435760D01*
Y157167D01*
X443634D01*
Y165041D01*
G37*
G36*
G01Y174923D02*
X435760D01*
Y167049D01*
X443634D01*
Y174923D01*
G37*
G36*
G01X433752Y135356D02*
X425878D01*
Y126616D01*
X433752D01*
Y135356D01*
G37*
G36*
G01Y145278D02*
X425878D01*
Y137404D01*
X433752D01*
Y145278D01*
G37*
G36*
G01Y155160D02*
X425878D01*
Y147285D01*
X433752D01*
Y155160D01*
G37*
G36*
G01Y165041D02*
X425878D01*
Y157167D01*
X433752D01*
Y165041D01*
G37*
G36*
G01Y174923D02*
X425878D01*
Y167049D01*
X433752D01*
Y174923D01*
G37*
G36*
G01X423870Y135356D02*
X415996D01*
Y126616D01*
X423870D01*
Y135356D01*
G37*
G36*
G01Y145278D02*
X415996D01*
Y137404D01*
X423870D01*
Y145278D01*
G37*
G36*
G01Y155160D02*
X415996D01*
Y147285D01*
X423870D01*
Y155160D01*
G37*
G36*
G01Y165041D02*
X415996D01*
Y157167D01*
X423870D01*
Y165041D01*
G37*
G36*
G01Y174923D02*
X415996D01*
Y167049D01*
X423870D01*
Y174923D01*
G37*
G36*
G01X413988Y135356D02*
X406114D01*
Y126616D01*
X413988D01*
Y135356D01*
G37*
G36*
G01Y145278D02*
X406114D01*
Y137404D01*
X413988D01*
Y145278D01*
G37*
G36*
G01Y155160D02*
X406114D01*
Y147285D01*
X413988D01*
Y155160D01*
G37*
G36*
G01Y165041D02*
X406114D01*
Y157167D01*
X413988D01*
Y165041D01*
G37*
G36*
G01Y174923D02*
X406114D01*
Y167049D01*
X413988D01*
Y174923D01*
G37*
G36*
G01X404106Y155160D02*
X396232D01*
Y144096D01*
X404106D01*
Y155160D01*
G37*
G36*
G01Y165041D02*
X396232D01*
Y157167D01*
X404106D01*
Y165041D01*
G37*
G36*
G01Y174923D02*
X396232D01*
Y167049D01*
X404106D01*
Y174923D01*
G37*
G36*
G01X394224Y155160D02*
X386350D01*
Y144096D01*
X394224D01*
Y155160D01*
G37*
G36*
G01Y165041D02*
X386350D01*
Y157167D01*
X394224D01*
Y165041D01*
G37*
G36*
G01Y174923D02*
X386350D01*
Y167049D01*
X394224D01*
Y174923D01*
G37*
G36*
G01X384343Y155160D02*
X376468D01*
Y144096D01*
X384343D01*
Y155160D01*
G37*
G36*
G01Y165041D02*
X376468D01*
Y157167D01*
X384343D01*
Y165041D01*
G37*
G36*
G01Y174923D02*
X376468D01*
Y167049D01*
X384343D01*
Y174923D01*
G37*
G36*
G01X374461Y133348D02*
X368476D01*
Y126616D01*
X374461D01*
Y133348D01*
G37*
G36*
G01Y142089D02*
X368476D01*
Y135356D01*
X374461D01*
Y142089D01*
G37*
G36*
G01Y155160D02*
X368476D01*
Y144096D01*
X374461D01*
Y155160D01*
G37*
G36*
G01Y165041D02*
X368476D01*
Y157167D01*
X374461D01*
Y165041D01*
G37*
G36*
G01Y174923D02*
X368476D01*
Y167049D01*
X374461D01*
Y174923D01*
G37*
G36*
G01X423740Y72580D02*
Y64116D01*
X430709D01*
Y72580D01*
X423740D01*
G37*
G36*
G01X471437Y54549D02*
X479153D01*
Y61596D01*
X471437D01*
Y54549D01*
G37*
G36*
G01Y63604D02*
X479153D01*
Y70612D01*
X471437D01*
Y63604D01*
G37*
G36*
G01X461713D02*
X469429D01*
Y70612D01*
X461713D01*
Y63604D01*
G37*
G36*
G01Y54549D02*
X469429D01*
Y61596D01*
X461713D01*
Y54549D01*
G37*
G36*
G01X464272Y46006D02*
X473130D01*
Y52541D01*
X464272D01*
Y46006D01*
G37*
G36*
G01X453366D02*
X462264D01*
Y52541D01*
X453366D01*
Y46006D01*
G37*
G36*
G01X451988Y54549D02*
X459705D01*
Y61596D01*
X451988D01*
Y54549D01*
G37*
G36*
G01Y63604D02*
X459705D01*
Y70612D01*
X451988D01*
Y63604D01*
G37*
G36*
G01X442264Y54549D02*
X449980D01*
Y61596D01*
X442264D01*
Y54549D01*
G37*
G36*
G01X442500Y46006D02*
X451358D01*
Y52541D01*
X442500D01*
Y46006D01*
G37*
G36*
G01X431594D02*
X440492D01*
Y52541D01*
X431594D01*
Y46006D01*
G37*
G36*
G01X420689D02*
X429587D01*
Y52541D01*
X420689D01*
Y46006D01*
G37*
G36*
G01X409823D02*
X418681D01*
Y52541D01*
X409823D01*
Y46006D01*
G37*
G36*
G01X398917D02*
X407815D01*
Y52541D01*
X398917D01*
Y46006D01*
G37*
G36*
G01Y54549D02*
X412146D01*
Y58564D01*
X398917D01*
Y54549D01*
G37*
G36*
G01Y60572D02*
X412146D01*
Y64588D01*
X398917D01*
Y60572D01*
G37*
G36*
G01X442264Y63604D02*
X449980D01*
Y70612D01*
X442264D01*
Y63604D01*
G37*
G36*
G01X398917Y66596D02*
X412146D01*
Y70612D01*
X398917D01*
Y66596D01*
G37*
G36*
G01X414154Y70612D02*
Y54549D01*
X440177D01*
X440256Y54627D01*
Y70612D01*
X436713D01*
Y58092D01*
X417697D01*
Y70612D01*
X414154D01*
G37*
G36*
G01X385956Y236500D02*
X442653D01*
Y305494D01*
X385956D01*
Y236500D01*
G37*
G36*
G01X468957Y233247D02*
X519530D01*
Y302340D01*
X468957D01*
Y233247D01*
G37*
G36*
G01X594941Y37423D02*
X603839D01*
Y43998D01*
X594941D01*
Y37423D01*
G37*
G36*
G01Y28880D02*
X603839D01*
Y35415D01*
X594941D01*
Y28880D01*
G37*
G36*
G01X584075Y37423D02*
X592933D01*
Y43998D01*
X584075D01*
Y37423D01*
G37*
G36*
G01Y28880D02*
X592933D01*
Y35415D01*
X584075D01*
Y28880D01*
G37*
G36*
G01X573169Y37423D02*
X582067D01*
Y43998D01*
X573169D01*
Y37423D01*
G37*
G36*
G01Y28880D02*
X582067D01*
Y35415D01*
X573169D01*
Y28880D01*
G37*
G36*
G01X562303D02*
X571161D01*
Y35415D01*
X562303D01*
Y28880D01*
G37*
G36*
G01Y37423D02*
X571161D01*
Y43998D01*
X562303D01*
Y37423D01*
G37*
G36*
G01X551398D02*
X560295D01*
Y43998D01*
X551398D01*
Y37423D01*
G37*
G36*
G01Y28880D02*
X560295D01*
Y35415D01*
X551398D01*
Y28880D01*
G37*
G36*
G01X540492D02*
X549390D01*
Y35415D01*
X540492D01*
Y28880D01*
G37*
G36*
G01Y37423D02*
X549390D01*
Y43998D01*
X540492D01*
Y37423D01*
G37*
G36*
G01X529626D02*
X538484D01*
Y43998D01*
X529626D01*
Y37423D01*
G37*
G36*
G01Y28880D02*
X538484D01*
Y35415D01*
X529626D01*
Y28880D01*
G37*
G36*
G01X518720D02*
X527618D01*
Y35415D01*
X518720D01*
Y28880D01*
G37*
G36*
G01Y37423D02*
X527618D01*
Y43998D01*
X518720D01*
Y37423D01*
G37*
G36*
G01X507815D02*
X516713D01*
Y43998D01*
X507815D01*
Y37423D01*
G37*
G36*
G01Y28880D02*
X516713D01*
Y35415D01*
X507815D01*
Y28880D01*
G37*
G36*
G01X496949D02*
X505807D01*
Y35415D01*
X496949D01*
Y28880D01*
G37*
G36*
G01Y37423D02*
X505807D01*
Y43998D01*
X496949D01*
Y37423D01*
G37*
G36*
G01X486043Y28880D02*
X494941D01*
Y35415D01*
X486043D01*
Y28880D01*
G37*
G36*
G01Y37423D02*
X494941D01*
Y43998D01*
X486043D01*
Y37423D01*
G37*
G36*
G01X475138Y28880D02*
X484035D01*
Y35415D01*
X475138D01*
Y28880D01*
G37*
G36*
G01Y37423D02*
X484035D01*
Y43998D01*
X475138D01*
Y37423D01*
G37*
G36*
G01X532571Y126616D02*
X525130D01*
Y134648D01*
X511587D01*
Y126616D01*
X504933D01*
Y142089D01*
X532571D01*
Y126616D01*
G37*
G36*
G01X540524Y155160D02*
X534579D01*
Y144096D01*
X540524D01*
Y155160D01*
G37*
G36*
G01Y133348D02*
X534579D01*
Y126616D01*
X540524D01*
Y133348D01*
G37*
G36*
G01Y142089D02*
X534579D01*
Y135356D01*
X540524D01*
Y142089D01*
G37*
G36*
G01Y165041D02*
X534579D01*
Y157167D01*
X540524D01*
Y165041D01*
G37*
G36*
G01Y174923D02*
X534579D01*
Y167049D01*
X540524D01*
Y174923D01*
G37*
G36*
G01X532571D02*
X524697D01*
Y167049D01*
X532571D01*
Y174923D01*
G37*
G36*
G01Y165041D02*
X524697D01*
Y157167D01*
X532571D01*
Y165041D01*
G37*
G36*
G01Y155160D02*
X524697D01*
Y144096D01*
X532571D01*
Y155160D01*
G37*
G36*
G01X522689D02*
X514815D01*
Y144096D01*
X522689D01*
Y155160D01*
G37*
G36*
G01Y165041D02*
X514815D01*
Y157167D01*
X522689D01*
Y165041D01*
G37*
G36*
G01Y174923D02*
X514815D01*
Y167049D01*
X522689D01*
Y174923D01*
G37*
G36*
G01X512807D02*
X504933D01*
Y167049D01*
X512807D01*
Y174923D01*
G37*
G36*
G01Y165041D02*
X504933D01*
Y157167D01*
X512807D01*
Y165041D01*
G37*
G36*
G01Y155160D02*
X504933D01*
Y144096D01*
X512807D01*
Y155160D01*
G37*
G36*
G01X502925Y135356D02*
X495051D01*
Y126616D01*
X502925D01*
Y135356D01*
G37*
G36*
G01Y145278D02*
X495051D01*
Y137404D01*
X502925D01*
Y145278D01*
G37*
G36*
G01Y155160D02*
X495051D01*
Y147285D01*
X502925D01*
Y155160D01*
G37*
G36*
G01Y165041D02*
X495051D01*
Y157167D01*
X502925D01*
Y165041D01*
G37*
G36*
G01Y174923D02*
X495051D01*
Y167049D01*
X502925D01*
Y174923D01*
G37*
G36*
G01X493043Y135356D02*
X485169D01*
Y126616D01*
X493043D01*
Y135356D01*
G37*
G36*
G01Y145278D02*
X485169D01*
Y137404D01*
X493043D01*
Y145278D01*
G37*
G36*
G01Y155160D02*
X485169D01*
Y147285D01*
X493043D01*
Y155160D01*
G37*
G36*
G01Y165041D02*
X485169D01*
Y157167D01*
X493043D01*
Y165041D01*
G37*
G36*
G01Y174923D02*
X485169D01*
Y167049D01*
X493043D01*
Y174923D01*
G37*
G36*
G01X483161Y135356D02*
X475287D01*
Y126616D01*
X483161D01*
Y135356D01*
G37*
G36*
G01Y145278D02*
X475287D01*
Y137404D01*
X483161D01*
Y145278D01*
G37*
G36*
G01Y155160D02*
X475287D01*
Y147285D01*
X483161D01*
Y155160D01*
G37*
G36*
G01Y165041D02*
X475287D01*
Y157167D01*
X483161D01*
Y165041D01*
G37*
G36*
G01Y174923D02*
X475287D01*
Y167049D01*
X483161D01*
Y174923D01*
G37*
G36*
G01X500472Y72580D02*
Y64116D01*
X507441D01*
Y72580D01*
X500472D01*
G37*
G36*
G01X594941Y46006D02*
X603839D01*
Y52541D01*
X594941D01*
Y46006D01*
G37*
G36*
G01X584075D02*
X592933D01*
Y52541D01*
X584075D01*
Y46006D01*
G37*
G36*
G01X580059Y54549D02*
X588248D01*
Y61596D01*
X580059D01*
Y54549D01*
G37*
G36*
G01Y63604D02*
X588248D01*
Y70612D01*
X580059D01*
Y63604D01*
G37*
G36*
G01X569902D02*
X578051D01*
Y70612D01*
X569902D01*
Y63604D01*
G37*
G36*
G01Y54549D02*
X578051D01*
Y61596D01*
X569902D01*
Y54549D01*
G37*
G36*
G01X573169Y46006D02*
X582067D01*
Y52541D01*
X573169D01*
Y46006D01*
G37*
G36*
G01X562303D02*
X571161D01*
Y52541D01*
X562303D01*
Y46006D01*
G37*
G36*
G01X559705Y54549D02*
X567894D01*
Y61596D01*
X559705D01*
Y54549D01*
G37*
G36*
G01Y63604D02*
X567894D01*
Y70612D01*
X559705D01*
Y63604D01*
G37*
G36*
G01X549547D02*
X557697D01*
Y70612D01*
X549547D01*
Y63604D01*
G37*
G36*
G01Y54549D02*
X557697D01*
Y61596D01*
X549547D01*
Y54549D01*
G37*
G36*
G01X551398Y46006D02*
X560295D01*
Y52541D01*
X551398D01*
Y46006D01*
G37*
G36*
G01X540492D02*
X549390D01*
Y52541D01*
X540492D01*
Y46006D01*
G37*
G36*
G01X539350Y54549D02*
X547539D01*
Y61596D01*
X539350D01*
Y54549D01*
G37*
G36*
G01Y63604D02*
X547539D01*
Y70612D01*
X539350D01*
Y63604D01*
G37*
G36*
G01X529193D02*
X537342D01*
Y70612D01*
X529193D01*
Y63604D01*
G37*
G36*
G01Y54549D02*
X537342D01*
Y61596D01*
X529193D01*
Y54549D01*
G37*
G36*
G01X529626Y46006D02*
X538484D01*
Y52541D01*
X529626D01*
Y46006D01*
G37*
G36*
G01X518720D02*
X527618D01*
Y52541D01*
X518720D01*
Y46006D01*
G37*
G36*
G01X518996Y54549D02*
X527185D01*
Y61596D01*
X518996D01*
Y54549D01*
G37*
G36*
G01X507815Y46006D02*
X516713D01*
Y52541D01*
X507815D01*
Y46006D01*
G37*
G36*
G01X496949D02*
X505807D01*
Y52541D01*
X496949D01*
Y46006D01*
G37*
G36*
G01X486043D02*
X494941D01*
Y52541D01*
X486043D01*
Y46006D01*
G37*
G36*
G01X475138D02*
X484035D01*
Y52541D01*
X475138D01*
Y46006D01*
G37*
G36*
G01X481161Y54549D02*
X488878D01*
Y61596D01*
X481161D01*
Y54549D01*
G37*
G36*
G01Y63604D02*
X488878D01*
Y70612D01*
X481161D01*
Y63604D01*
G37*
G36*
G01X518996D02*
X527185D01*
Y70612D01*
X518996D01*
Y63604D01*
G37*
G36*
G01X590256D02*
X598445D01*
Y70612D01*
X590256D01*
Y63604D01*
G37*
G36*
G01X490886Y70612D02*
Y54549D01*
X516909D01*
X516988Y54627D01*
Y70612D01*
X513445D01*
Y58092D01*
X494429D01*
Y70612D01*
X490886D01*
G37*
G36*
G01X547457Y233247D02*
X601153D01*
Y305494D01*
X547457D01*
Y233247D01*
G37*
G36*
G01X498300Y215750D02*
X518300D01*
Y196400D01*
X498300D01*
Y215750D01*
G37*
G36*
G01X492890Y380560D02*
X512890D01*
Y360560D01*
X492890D01*
Y380560D01*
G37*
G36*
G01X627618Y37423D02*
X636516D01*
Y43998D01*
X627618D01*
Y37423D01*
G37*
G36*
G01Y28880D02*
X636516D01*
Y35415D01*
X627618D01*
Y28880D01*
G37*
G36*
G01X616752Y37423D02*
X625610D01*
Y43998D01*
X616752D01*
Y37423D01*
G37*
G36*
G01Y28880D02*
X625610D01*
Y35415D01*
X616752D01*
Y28880D01*
G37*
G36*
G01X605846D02*
X614744D01*
Y35415D01*
X605846D01*
Y28880D01*
G37*
G36*
G01Y37423D02*
X614744D01*
Y43998D01*
X605846D01*
Y37423D01*
G37*
G36*
G01X610000Y72580D02*
Y64116D01*
X616968D01*
Y72580D01*
X610000D01*
G37*
G36*
G01X628524Y54549D02*
X636516D01*
Y61596D01*
X628524D01*
Y54549D01*
G37*
G36*
G01X627618Y46006D02*
X636516D01*
Y52541D01*
X627618D01*
Y46006D01*
G37*
G36*
G01X616752D02*
X625610D01*
Y52541D01*
X616752D01*
Y46006D01*
G37*
G36*
G01X605846D02*
X614744D01*
Y52541D01*
X605846D01*
Y46006D01*
G37*
G36*
G01X628524Y63604D02*
X636516D01*
Y70612D01*
X628524D01*
Y63604D01*
G37*
G36*
G01X600453Y70612D02*
Y54549D01*
X626516D01*
Y70612D01*
X622972D01*
Y58092D01*
X603996D01*
Y70612D01*
X600453D01*
G37*
G36*
G01X627457Y233247D02*
X681153D01*
Y305494D01*
X627457D01*
Y233247D01*
G37*
G36*
G01X261256Y54549D02*
Y61596D01*
X269445D01*
Y54549D01*
X261256D01*
G37*
G36*
G01X590256D02*
Y61596D01*
X598445D01*
Y54549D01*
X590256D01*
G37*
G54D100*
X652850Y207473D03*
Y202473D03*
Y197473D03*
Y192473D03*
X633184Y207473D03*
Y202473D03*
Y197473D03*
Y192473D03*
G54D101*
X643017Y199973D03*
G54D102*
X650499Y321828D03*
G54D103*
X651090Y375765D03*
G54D10*
X21600Y21600D03*
Y476000D03*
X215000Y335000D03*
X350000Y21600D03*
Y260000D03*
X562500Y335000D03*
X678400Y21600D03*
Y476000D03*
G54D104*
X632743Y350450D03*
Y359072D03*
Y341828D03*
X637074Y359072D03*
Y350450D03*
Y341828D03*
G54D20*
X76408Y376030D03*
Y379770D03*
X72208Y376030D03*
Y379770D03*
X54200Y359470D03*
Y355730D03*
X77228Y397478D03*
X80968D03*
X84270Y353550D03*
X80530D03*
X83150Y370470D03*
Y366730D03*
X79250Y370470D03*
Y366730D03*
X58450Y373670D03*
Y369930D03*
X54550Y373670D03*
Y369930D03*
X96338Y362309D03*
Y366049D03*
X34630Y340592D03*
X38370D03*
X41992Y340570D03*
Y336830D03*
X38370Y336808D03*
X34630D03*
Y348392D03*
X38370D03*
X41992Y348070D03*
Y344330D03*
X38370Y344408D03*
X34630D03*
X48900Y421530D03*
X92358Y366026D03*
Y362286D03*
X52958Y421530D03*
X33210Y355000D03*
X36950D03*
X85314Y385300D03*
X81574D03*
X75868Y421586D03*
X43200Y356350D03*
Y360090D03*
X63100Y359630D03*
Y363370D03*
X58800Y359630D03*
Y363370D03*
X67400Y359630D03*
Y363370D03*
X75200Y359630D03*
Y363370D03*
X70900Y359630D03*
Y363370D03*
X80530Y349434D03*
X84270D03*
X63548Y376086D03*
Y379826D03*
X67648D03*
Y376086D03*
X66568Y421586D03*
X71168D03*
X34630Y333000D03*
X38370D03*
X80530Y342434D03*
X84270D03*
X80530Y338934D03*
X84270D03*
Y335434D03*
X80530D03*
X84270Y345934D03*
X80530D03*
X61768Y421586D03*
X57168D03*
X42000Y333070D03*
Y329330D03*
X38370Y329400D03*
X34630D03*
X53230Y321900D03*
X56970D03*
X60730D03*
X64470D03*
X67730D03*
X71470D03*
X80530Y331934D03*
X84270D03*
Y328434D03*
X80530D03*
X53300Y314030D03*
Y317770D03*
X56900D03*
Y314030D03*
X60800D03*
Y317770D03*
X67800Y314030D03*
Y317770D03*
X64400D03*
Y314030D03*
X71400Y317770D03*
Y314030D03*
X33210Y360050D03*
X36950D03*
X85314Y381050D03*
X81574D03*
X49630Y448500D03*
X53370D03*
X95870Y462000D03*
X92130D03*
X95870Y453000D03*
X92130D03*
Y466000D03*
X95870D03*
Y458000D03*
X92130D03*
Y448790D03*
X95870D03*
X49630Y464500D03*
X53370D03*
X49630Y456500D03*
X53370D03*
X49630Y452500D03*
X53370D03*
X49630Y460500D03*
X53370D03*
X48900Y425270D03*
X52958D03*
X75868Y425326D03*
X71168Y434326D03*
Y430586D03*
X75868Y434326D03*
Y430586D03*
X66568Y425326D03*
X66468Y434326D03*
Y430586D03*
X71168Y425326D03*
X57068Y434326D03*
Y430586D03*
X61768Y425326D03*
X57168D03*
X61368Y434326D03*
Y430586D03*
X96080Y487370D03*
Y483630D03*
X92080Y487370D03*
Y483630D03*
X88080Y487370D03*
Y483630D03*
X84250Y487370D03*
Y483630D03*
X80250Y487370D03*
Y483630D03*
X193570Y193108D03*
X189830D03*
X173400Y209546D03*
Y213286D03*
X180970Y213216D03*
X177230D03*
X189830Y203900D03*
X193570D03*
X218770Y218186D03*
X215030D03*
X218770Y213216D03*
X215030D03*
X209400Y226056D03*
Y222316D03*
X189400Y213116D03*
Y209376D03*
X209400Y217056D03*
Y213316D03*
X184900Y213286D03*
Y209546D03*
X214900Y222316D03*
Y226056D03*
X188370Y318708D03*
X184630D03*
X126242Y323530D03*
Y327270D03*
X166670Y353400D03*
X162930D03*
X159330D03*
X163070D03*
X161798Y388197D03*
X165538D03*
X161938D03*
X158198D03*
X121942Y323530D03*
Y327270D03*
X163000Y344730D03*
Y348470D03*
X182746Y337737D03*
X179006D03*
X182746Y329632D03*
X179006D03*
X182746Y333968D03*
X179006D03*
X171568Y313130D03*
Y316870D03*
X175500Y313130D03*
Y316870D03*
X122363Y366042D03*
Y362302D03*
X157432Y313130D03*
Y316870D03*
X117667Y317393D03*
Y321133D03*
X113667D03*
Y317393D03*
X131667Y338684D03*
Y334944D03*
X152339Y343650D03*
X148598D03*
X143663D03*
X139922D03*
X152339Y331600D03*
X148598D03*
X143663D03*
X139922D03*
X152339Y319650D03*
X148598D03*
X118463Y362302D03*
Y366042D03*
Y370802D03*
Y374542D03*
X122363D03*
Y370802D03*
X113345Y366042D03*
Y362302D03*
X100327D03*
Y366042D03*
X109445Y374542D03*
Y370802D03*
X113345D03*
Y374542D03*
X109445Y362302D03*
Y366042D03*
X104327D03*
Y362302D03*
X148598Y340000D03*
X152339D03*
X139922D03*
X143663D03*
X148598Y335250D03*
X152339D03*
X139922Y327950D03*
X143663D03*
X148598Y323300D03*
X152339D03*
X179500Y313130D03*
Y316870D03*
X152339Y347300D03*
X148598D03*
X143663D03*
X139922D03*
X152339Y327950D03*
X148598D03*
X143663Y335250D03*
X139922D03*
X156642Y514270D03*
Y510530D03*
X152342Y514270D03*
Y510530D03*
X187630Y513625D03*
X191370D03*
X112875Y483630D03*
Y487370D03*
X112095Y530870D03*
Y527130D03*
X187630Y509625D03*
X191370D03*
X116875Y483630D03*
Y487370D03*
X178000Y468630D03*
Y472370D03*
X164459Y480152D03*
X168200D03*
X155130Y497000D03*
X158870D03*
X120735Y534607D03*
X116995D03*
X214270Y487900D03*
X210530D03*
X214270Y492000D03*
X210530D03*
X214270Y496100D03*
X210530D03*
X136900Y538530D03*
Y542270D03*
X153100D03*
Y538530D03*
X149000Y542270D03*
Y538530D03*
X140900Y542270D03*
Y538530D03*
X144900D03*
Y542270D03*
X157100Y538530D03*
Y542270D03*
X128700Y538530D03*
Y542270D03*
X124600D03*
Y538530D03*
X132800Y542270D03*
Y538530D03*
X120500D03*
Y542270D03*
X168200Y514170D03*
Y510430D03*
X143200Y492330D03*
Y496070D03*
X148200Y496070D03*
Y492330D03*
X214270Y479728D03*
X210530D03*
X164459Y496965D03*
X168200D03*
X187949Y468801D03*
Y472541D03*
X197041Y477775D03*
X193300D03*
X197200Y497048D03*
X193459D03*
X187852Y503200D03*
Y499459D03*
X164459Y484752D03*
X168200D03*
X164459Y488652D03*
X168200D03*
X164459Y492552D03*
X168200D03*
X183953Y472541D03*
Y468801D03*
X193300Y481579D03*
X197041D03*
X193459Y493152D03*
X197200D03*
X183948Y499459D03*
Y503200D03*
X178047Y499459D03*
Y503200D03*
X174243D03*
Y499459D03*
X178754Y509420D03*
X182494D03*
X178754Y513420D03*
X182494D03*
X104095Y530870D03*
Y527130D03*
X108095Y530870D03*
Y527130D03*
X116520Y508546D03*
Y504806D03*
X120520Y508546D03*
Y504806D03*
X191370Y518421D03*
X187630D03*
X191370Y522421D03*
X187630D03*
X191370Y526420D03*
X187630D03*
X191370Y530420D03*
X187630D03*
X191370Y534420D03*
X187630D03*
X108080Y487370D03*
Y483630D03*
X104080Y487370D03*
Y483630D03*
X100079Y487370D03*
Y483630D03*
X191370Y542250D03*
X187630D03*
X191370Y546250D03*
X187630D03*
X191370Y538420D03*
X187630D03*
X154270Y454834D03*
X150530D03*
X154270Y450384D03*
X150530D03*
X217670Y453234D03*
X213930D03*
X217670Y448784D03*
X213930D03*
X204779Y450600D03*
X201039D03*
X204779Y455100D03*
X201039D03*
X214270Y483934D03*
X210530D03*
X297030Y200550D03*
X300770D03*
X297030Y196650D03*
X300770D03*
X328770Y195750D03*
X325030D03*
X328770Y199650D03*
X325030D03*
X223900Y216886D03*
Y213146D03*
X328770Y203880D03*
X325030D03*
X328770Y191591D03*
X325030D03*
X233270Y213216D03*
X229530D03*
X328770Y183480D03*
X325030D03*
Y187591D03*
X328770D03*
Y179580D03*
X325030D03*
X300770Y188500D03*
X297030D03*
X300791Y192600D03*
X297050D03*
X270188Y422969D03*
Y419229D03*
Y415629D03*
Y419369D03*
X245742Y365270D03*
Y361530D03*
X345930Y338300D03*
X327988Y390162D03*
Y393902D03*
X323988Y390162D03*
Y393902D03*
X312037Y396367D03*
X315778D03*
X331911Y390162D03*
Y393902D03*
X258367Y365270D03*
Y361530D03*
X262367Y365270D03*
Y361530D03*
X250058D03*
Y365270D03*
X249758Y320030D03*
Y323770D03*
X262658Y320030D03*
Y323770D03*
X245558Y320030D03*
Y323770D03*
X254042Y365270D03*
Y361530D03*
X253942Y323770D03*
Y320030D03*
X258542Y323770D03*
Y320030D03*
X241642Y323770D03*
Y320030D03*
X347900Y351630D03*
Y355370D03*
X307942Y408371D03*
X304202D03*
X312037Y400367D03*
X315778D03*
X315858Y412371D03*
X312118D03*
Y408371D03*
X315858D03*
X304202Y416109D03*
X307942D03*
X312037Y404532D03*
X315778D03*
X319988Y390162D03*
Y393902D03*
X308023Y412371D03*
X304282D03*
X270188Y441769D03*
Y438029D03*
Y434429D03*
Y438169D03*
X234870Y514405D03*
X231130D03*
X345245Y495299D03*
X316778Y428508D03*
Y424767D03*
X329749Y428368D03*
Y424628D03*
X309498Y460922D03*
X305758D03*
X324980Y424680D03*
Y428420D03*
X320778Y428511D03*
Y424771D03*
X309348Y438822D03*
X305608D03*
X234870Y522405D03*
X231130D03*
X234870Y518405D03*
X231130D03*
X267779Y450600D03*
X264039D03*
X267779Y455100D03*
X264039D03*
X467042Y323530D03*
Y327270D03*
X462742Y323530D03*
Y327270D03*
X349670Y338300D03*
X378850Y342470D03*
Y338730D03*
X467869Y418350D03*
X471609D03*
X389400Y353630D03*
Y357370D03*
X439500Y375630D03*
Y379370D03*
X435000Y375630D03*
Y379370D03*
X462877Y418342D03*
Y414602D03*
X456971Y397055D03*
Y393315D03*
X461093Y397055D03*
Y393315D03*
X436642Y366042D03*
Y362302D03*
X432842Y366042D03*
Y362302D03*
X458167Y317393D03*
Y321133D03*
X454167D03*
Y317393D03*
X472667Y338684D03*
Y334944D03*
X458963Y362302D03*
Y366042D03*
X462863Y374542D03*
Y370802D03*
X458963D03*
Y374542D03*
X462863Y366042D03*
Y362302D03*
X449713Y366042D03*
Y362302D03*
Y374542D03*
Y370802D03*
X453713D03*
Y374542D03*
Y362302D03*
Y366042D03*
X440694Y362302D03*
Y366042D03*
X357270Y352500D03*
X353530D03*
X353570Y356650D03*
X357310D03*
X353570Y360650D03*
X357310D03*
X353530Y348500D03*
X357270D03*
X397270Y353500D03*
X393530D03*
X397270Y357500D03*
X393530D03*
X370900Y338730D03*
Y342470D03*
X374900D03*
Y338730D03*
X392770Y348500D03*
X389030D03*
X353530Y344500D03*
X357270D03*
Y340500D03*
X353530D03*
X444694Y366042D03*
Y362302D03*
X471609Y414202D03*
X467869D03*
X434900Y384830D03*
Y388570D03*
X439400Y384830D03*
Y388570D03*
X443900Y397070D03*
Y393330D03*
X448400Y397070D03*
Y393330D03*
X452900Y384830D03*
Y388570D03*
X439400Y397070D03*
Y393330D03*
X434900Y397070D03*
Y393330D03*
X452900Y397070D03*
Y393330D03*
X443900Y384830D03*
Y388570D03*
X448400Y384830D03*
Y388570D03*
X433792Y441070D03*
Y437330D03*
X437900Y441070D03*
Y437330D03*
X474630Y541795D03*
X348985Y495299D03*
X361655Y495301D03*
X357915D03*
X434470Y445790D03*
Y449530D03*
X438500Y445830D03*
Y449570D03*
X462830Y429760D03*
Y426020D03*
X474630Y532795D03*
Y537795D03*
X446900Y449570D03*
Y445830D03*
X451400Y449570D03*
Y445830D03*
X455900Y449570D03*
Y445830D03*
X460400Y449570D03*
Y445830D03*
X442400Y437330D03*
Y441070D03*
Y449570D03*
Y445830D03*
X429350Y427016D03*
Y430756D03*
Y441070D03*
Y437330D03*
X446900D03*
Y441070D03*
X451400Y437330D03*
Y441070D03*
X455900Y437330D03*
Y441070D03*
X460400Y437330D03*
Y441070D03*
X471747Y477481D03*
X468007D03*
X471933Y489450D03*
X468193D03*
X471233Y449550D03*
X467493D03*
X468147Y500513D03*
X464407D03*
X471047Y437581D03*
X467307D03*
X468147Y506413D03*
X464407D03*
X545470Y192808D03*
X541730D03*
X525800Y209546D03*
Y213286D03*
X561100Y226056D03*
Y222316D03*
X570470Y218186D03*
X566730D03*
X575600Y216886D03*
Y213146D03*
X570470Y213216D03*
X566730D03*
X533470D03*
X529730D03*
X541530Y203900D03*
X545270D03*
X561100Y217056D03*
Y213316D03*
X584970Y213216D03*
X581230D03*
X542100Y213116D03*
Y209376D03*
X537300Y213286D03*
Y209546D03*
X566600Y222316D03*
Y226056D03*
X485798Y399500D03*
X489538D03*
X530370Y316008D03*
X526630D03*
X499830Y351900D03*
X503570D03*
X507170D03*
X503430D03*
X502298Y386697D03*
X506038D03*
X502438D03*
X498698D03*
X511998Y397500D03*
X515738D03*
X503500Y343230D03*
Y346970D03*
X502368Y406130D03*
Y409870D03*
X514216Y417159D03*
X510476D03*
X485798Y403500D03*
X489538D03*
X548679Y421783D03*
X583519Y390470D03*
Y386730D03*
X577655Y390470D03*
Y386730D03*
X537503Y421783D03*
X543103D03*
X485738Y394707D03*
X489478D03*
X523247Y328132D03*
X519506D03*
X523247Y332468D03*
X519506D03*
X514300Y314230D03*
Y317970D03*
X523247Y336237D03*
X519506D03*
X510369Y314230D03*
Y317970D03*
X492839Y341150D03*
X489098D03*
X497932Y311630D03*
Y315370D03*
X484163Y340650D03*
X480422D03*
X492839Y329100D03*
X489098D03*
X492839Y317150D03*
X489098D03*
Y337500D03*
X492839D03*
X480422Y337000D03*
X484163D03*
X480422Y325950D03*
X484163D03*
X489098Y320800D03*
X492839D03*
X489098Y332750D03*
X492839D03*
X518300Y314230D03*
Y317970D03*
X477800Y409432D03*
Y405691D03*
X492839Y344800D03*
X489098D03*
X484163Y344300D03*
X480422D03*
X492839Y325450D03*
X489098D03*
X484163Y333250D03*
X480422D03*
X484163Y329600D03*
X480422D03*
X477730Y414302D03*
X481470D03*
X498400Y409902D03*
Y406162D03*
X494400D03*
Y409902D03*
X489538Y407500D03*
X485798D03*
X554563Y364248D03*
Y360507D03*
X580071Y379233D03*
Y375493D03*
X560363Y360507D03*
Y364248D03*
X573971Y375493D03*
Y379233D03*
X567669Y390470D03*
Y386730D03*
X589716D03*
Y390470D03*
X549430Y502858D03*
X553170D03*
X549430Y507158D03*
X553170D03*
X502368Y424630D03*
Y428370D03*
X522970Y542775D03*
X519230D03*
X478370Y541795D03*
X522970Y546775D03*
X519230D03*
X548679Y425523D03*
X499647Y504254D03*
X495907D03*
X537503Y425523D03*
X522143Y492935D03*
Y496675D03*
X476853Y443657D03*
X480593D03*
X508247Y462943D03*
X504507D03*
X544853Y432557D03*
X548593D03*
X477553Y483557D03*
X481293D03*
X543103Y425523D03*
X590459Y543222D03*
X594199D03*
X594270Y507000D03*
X590530D03*
Y503000D03*
X594270D03*
X590530Y523200D03*
X594270D03*
Y511100D03*
X590530D03*
Y531400D03*
X594270D03*
Y527300D03*
X590530D03*
X594270Y519200D03*
X590530D03*
Y515200D03*
X594270D03*
X590461Y539252D03*
X594201D03*
Y535252D03*
X590461D03*
X544100Y508830D03*
X540360D03*
X540360Y513030D03*
X544100D03*
X564714Y497487D03*
X560973D03*
X478370Y532795D03*
Y537795D03*
X531746Y546780D03*
X528006D03*
X531746Y542780D03*
X528006D03*
X519130Y537780D03*
X522870D03*
X519130Y533780D03*
X522870D03*
X519130Y529780D03*
X522870D03*
X519130Y525780D03*
X522870D03*
X519130Y521780D03*
X522870D03*
X519130Y517780D03*
X522870D03*
X505961Y432150D03*
X509702D03*
X513596Y432080D03*
Y435820D03*
X502438Y432150D03*
X498698D03*
X519130Y513950D03*
X522870D03*
X519130Y509950D03*
X522870D03*
X546250Y485748D03*
Y489488D03*
X480933Y470750D03*
X477193D03*
X480933Y455850D03*
X477193D03*
X477553Y489450D03*
X481293D03*
X477553Y477481D03*
X481293D03*
X476853Y449550D03*
X480593D03*
X476853Y437581D03*
X480593D03*
X504507Y468950D03*
X508247D03*
X504507Y456850D03*
X508247D03*
X584204Y496633D03*
Y492893D03*
X511833Y496773D03*
X508093D03*
X502419Y496675D03*
Y492935D03*
X496319Y496675D03*
Y492935D03*
X545473Y450483D03*
Y454223D03*
X620095Y90107D03*
Y93847D03*
X635207Y100757D03*
X638947D03*
X668947Y114843D03*
X665207D03*
X653000Y90770D03*
Y87030D03*
X635207Y106350D03*
X638947D03*
X633753Y139250D03*
X637493D03*
Y133850D03*
X633753D03*
X658795Y86967D03*
Y90707D03*
X662633Y96550D03*
X658893D03*
X646947Y91381D03*
X643207D03*
X647045Y82153D03*
Y85893D03*
X630934Y93847D03*
Y90107D03*
X668947Y102281D03*
X665207D03*
X646919Y100847D03*
Y97107D03*
X638947Y112281D03*
X635207D03*
X652981Y97153D03*
Y100893D03*
X611853Y179957D03*
X615593D03*
X623733Y198650D03*
X619993D03*
X607750Y197333D03*
Y193593D03*
X614050Y193567D03*
Y197307D03*
X661881Y203367D03*
Y207107D03*
Y193553D03*
Y197293D03*
X623733Y192481D03*
X619993D03*
X637354Y390470D03*
Y386730D03*
X631250D03*
Y390470D03*
X625350Y386730D03*
Y390470D03*
X643450Y386730D03*
Y390470D03*
X661733Y410378D03*
X657993D03*
X619581Y386730D03*
Y390470D03*
X661733Y432543D03*
X657993D03*
X658212Y446650D03*
X661952D03*
G54D11*
X88900Y31100D03*
X73900D03*
Y41100D03*
X88900D03*
X53000Y5500D03*
X63000D03*
X73000D03*
X83000D03*
X93000D03*
X73900Y61100D03*
X88900Y51100D03*
X73900D03*
X5500Y161900D03*
Y151900D03*
Y141900D03*
Y131900D03*
Y121900D03*
Y111900D03*
Y101900D03*
Y91900D03*
Y81900D03*
Y71900D03*
Y61900D03*
Y51900D03*
X23389Y163117D03*
X23242Y158483D03*
X96300Y214000D03*
Y210000D03*
X92300D03*
X88300D03*
X5500Y261900D03*
Y251900D03*
Y241900D03*
Y231900D03*
Y221900D03*
Y211900D03*
Y201900D03*
Y191900D03*
Y181900D03*
Y171900D03*
Y291900D03*
Y281900D03*
Y271900D03*
X62500Y341000D03*
X65500Y344000D03*
X59500D03*
Y338000D03*
X65500D03*
X93098Y342500D03*
X89098Y346500D03*
X93098D03*
Y338500D03*
X5500Y421900D03*
Y411900D03*
Y401900D03*
Y391900D03*
Y381900D03*
Y371900D03*
Y361900D03*
Y351900D03*
Y341900D03*
Y331900D03*
Y321900D03*
Y311900D03*
Y301900D03*
X56900Y311100D03*
X64400Y311000D03*
X30500Y389000D03*
X74700Y314100D03*
X31500Y329400D03*
X93500Y311500D03*
X35900Y546700D03*
X20900D03*
X35900Y531700D03*
X20900D03*
X50000Y491800D03*
Y471800D03*
X70000Y531800D03*
X5500Y531900D03*
Y541900D03*
Y521900D03*
Y451900D03*
Y441900D03*
Y431900D03*
Y501900D03*
Y511900D03*
X70000Y551800D03*
Y561800D03*
X54700Y564500D03*
X94700D03*
X84700D03*
X74700D03*
X64700D03*
X44700D03*
X34700D03*
X24700D03*
X14700D03*
X5500Y551900D03*
Y561900D03*
X208900Y31100D03*
X193900D03*
X178900D03*
X163900D03*
X148900D03*
X133900D03*
X118900D03*
X103900D03*
X178900Y41100D03*
X193900D03*
X208900D03*
X103900D03*
X118900D03*
X133900D03*
X148900D03*
X163900D03*
X103000Y5500D03*
X113000D03*
X123000D03*
X133000D03*
X143000D03*
X153000D03*
X163000D03*
X173000D03*
X183000D03*
X193000D03*
X203000D03*
X213000D03*
X118900Y61100D03*
X133900D03*
X148900D03*
X193900D03*
X208900D03*
Y51100D03*
X193900D03*
X178900D03*
X163900D03*
X148900D03*
X133900D03*
X118900D03*
X103900D03*
X105700Y158500D03*
Y142500D03*
X109700Y146500D03*
Y150500D03*
Y154500D03*
X105700Y146500D03*
X101700D03*
Y150500D03*
X105700D03*
Y154500D03*
X101700D03*
X131000Y123100D03*
X127000D03*
X203700Y168900D03*
X100300Y214000D03*
X213657Y175173D03*
X209657Y179173D03*
Y175173D03*
X205657Y179173D03*
Y175173D03*
X201657Y179173D03*
X199400Y212200D03*
Y216220D03*
X182400Y192700D03*
X182300Y189600D03*
X118600Y217200D03*
X122100D03*
Y221200D03*
X126100Y217200D03*
Y221200D03*
X130100Y217200D03*
Y221200D03*
X200707Y187000D03*
X179300Y202500D03*
X175350Y192650D03*
X162468Y329100D03*
Y334100D03*
X101098Y342500D03*
X97098D03*
Y346500D03*
Y338500D03*
X197800Y348600D03*
X189400Y352600D03*
X193400Y348600D03*
X189400D03*
X198000Y352700D03*
X161868Y400732D03*
X118970Y355950D03*
X175700Y321400D03*
X135700Y324300D03*
X172400Y321300D03*
X204500Y380000D03*
X209000D03*
X204500Y385000D03*
X209000D03*
Y390000D03*
X204500Y394000D03*
X209000D03*
Y400000D03*
Y405000D03*
X209500Y375000D03*
X119100Y350000D03*
X118500Y457100D03*
X114740Y547766D03*
Y543766D03*
X104980Y508870D03*
X160500Y527100D03*
Y523100D03*
X100980Y508870D03*
X202600Y461700D03*
X204700Y564500D03*
X194700D03*
X184700D03*
X174700D03*
X164700D03*
X154700D03*
X144700D03*
X134700D03*
X124700D03*
X114700D03*
X104700D03*
X307000Y42100D03*
X317000D03*
X327000D03*
X283900Y31100D03*
X268900D03*
X253900D03*
X238900D03*
X223900D03*
Y41100D03*
X238900D03*
X253900D03*
X268900D03*
X283900D03*
X223000Y5500D03*
X233000D03*
X243000D03*
X253000D03*
X263000D03*
X303000D03*
X293000D03*
X283000D03*
X273000D03*
X313000D03*
X323000D03*
X287000Y132100D03*
X297000Y162100D03*
Y102100D03*
Y87100D03*
Y147100D03*
Y132100D03*
Y117100D03*
X223900Y61100D03*
X238900D03*
X307000Y117100D03*
Y132100D03*
Y147100D03*
Y162100D03*
X317000D03*
Y147100D03*
Y132100D03*
Y117100D03*
X327000D03*
Y132100D03*
Y147100D03*
Y162100D03*
X307000Y57100D03*
Y87100D03*
Y102100D03*
X317000D03*
Y87100D03*
Y72100D03*
Y57100D03*
X327000D03*
Y72100D03*
Y87100D03*
Y102100D03*
X283900Y51100D03*
X268900D03*
X253900D03*
X238900D03*
X223900D03*
X269365Y86831D03*
X272597Y156836D03*
X317000Y172100D03*
X307000D03*
X297000D03*
X262000Y214000D03*
X258000Y210000D03*
X254000D03*
X250000D03*
X284800Y222600D03*
X288500Y222700D03*
X332418Y419995D03*
X343070Y379210D03*
X339890Y379240D03*
X336390D03*
X331900Y358390D03*
X340160Y358290D03*
X343660D03*
X227500Y378000D03*
Y383000D03*
X232000D03*
Y388000D03*
X227500D03*
Y393000D03*
X232000D03*
X227500Y398000D03*
X232000Y403000D03*
X227500D03*
X328280Y372030D03*
X341310Y364420D03*
X336920Y375040D03*
X328150Y410510D03*
X340550Y414070D03*
X337150D03*
X339930Y402990D03*
X336920D03*
X305010Y393800D03*
X325470Y407110D03*
X325450Y410350D03*
X328320Y406540D03*
X328390Y367760D03*
X342900Y336900D03*
X336660Y336550D03*
X329890D03*
X326700Y350990D03*
X275252Y363204D03*
Y381348D03*
X325580Y371910D03*
X287300Y354500D03*
Y362310D03*
Y374500D03*
Y384500D03*
Y394500D03*
Y404500D03*
X262098Y342500D03*
X246098D03*
X254098Y338500D03*
X250098D03*
X258098D03*
X254098Y346500D03*
X258098D03*
Y342500D03*
X250098D03*
X254098D03*
X346504Y335000D03*
X337500Y364550D03*
X339735Y374595D03*
X325520Y368840D03*
X263133Y405942D03*
Y402912D03*
X302620Y375830D03*
X347900Y348950D03*
X307510Y388010D03*
X348061Y341420D03*
X347961Y345930D03*
X272900Y419299D03*
X332500Y424470D03*
X240900Y546700D03*
X225900D03*
X240900Y531700D03*
X304804Y425596D03*
X332123Y464100D03*
X291300Y477500D03*
X301300D03*
X311300D03*
X321300D03*
X341300D03*
X331300D03*
X287300Y424500D03*
Y434500D03*
Y444500D03*
Y454500D03*
Y464500D03*
X327005Y464100D03*
X224640Y424700D03*
X317790Y436630D03*
X329530Y436850D03*
X325530D03*
X321530Y436450D03*
X302900Y455500D03*
X302700Y438200D03*
X302450Y441750D03*
X319000Y459900D03*
X270188Y444812D03*
X271600Y425700D03*
X254700Y564500D03*
X244700D03*
X234700D03*
X224700D03*
X462900Y41100D03*
X447900D03*
X432900D03*
X417900D03*
X402900D03*
Y31100D03*
X417900D03*
X432900D03*
X447900D03*
X462900D03*
X463000Y5500D03*
X473000D03*
X373000D03*
X383000D03*
X393000D03*
X403000D03*
X413000D03*
X423000D03*
X433000D03*
X443000D03*
X453000D03*
X462900Y61100D03*
X447900D03*
X402900Y51100D03*
X417900D03*
X432900D03*
X447900D03*
X462900D03*
X350200Y165400D03*
Y155400D03*
Y145400D03*
Y135400D03*
Y125400D03*
Y115400D03*
Y105400D03*
Y95400D03*
Y85400D03*
Y75400D03*
X461600Y158500D03*
Y142500D03*
X465600Y146500D03*
Y150500D03*
Y154500D03*
X461600Y146500D03*
X457600D03*
Y150500D03*
X461600D03*
Y154500D03*
X457600D03*
X425200Y220800D03*
Y216800D03*
X421700Y220800D03*
Y216800D03*
X409700D03*
X413700D03*
X417700D03*
Y220800D03*
X413700D03*
X409700D03*
X452200Y210000D03*
X448200D03*
Y214000D03*
X444200D03*
Y210000D03*
X440200Y214000D03*
X350200Y235400D03*
Y225400D03*
Y215400D03*
Y205400D03*
Y195400D03*
Y185400D03*
Y175400D03*
X394900Y178400D03*
X390900D03*
X472900Y218300D03*
X401800Y339400D03*
Y346900D03*
Y376900D03*
Y369400D03*
Y361900D03*
Y354400D03*
Y421900D03*
Y414400D03*
Y406900D03*
Y399400D03*
Y391900D03*
Y384400D03*
X452998Y342500D03*
Y346500D03*
Y338500D03*
X456998Y342500D03*
X448998D03*
X444998D03*
Y346500D03*
X448998D03*
X444998Y338500D03*
X448998D03*
X440998Y342500D03*
X413100Y414800D03*
Y404800D03*
Y394800D03*
Y384800D03*
Y374800D03*
Y364800D03*
Y354800D03*
X449400Y416016D03*
X394250Y401430D03*
X390750Y397430D03*
Y401430D03*
X387250D03*
Y397430D03*
X383750D03*
Y401430D03*
X380250D03*
X363950Y337310D03*
X475200Y332700D03*
X448800Y311100D03*
X442640Y495490D03*
X473900Y546700D03*
X458900D03*
Y531700D03*
X401800Y429400D03*
Y436900D03*
X442500Y544800D03*
X413100Y464800D03*
Y454800D03*
Y444800D03*
Y434800D03*
Y424800D03*
X411300Y477500D03*
X401300D03*
X391300D03*
X381300D03*
X371300D03*
X351300D03*
X401800Y444400D03*
X464323Y457100D03*
X350650Y424690D03*
X354650D03*
X358650D03*
X362650D03*
X366650D03*
X354650Y428690D03*
X358650D03*
X362650D03*
X366650D03*
X370650D03*
X355250Y495301D03*
X393490Y462080D03*
X384445Y462890D03*
X376400Y462790D03*
X442500Y564800D03*
Y554800D03*
X474700Y564500D03*
X464700D03*
X454700D03*
X597900Y41100D03*
X582900D03*
X567900D03*
X552900D03*
X537900D03*
X522900D03*
X507900D03*
Y31100D03*
X522900D03*
X537900D03*
X552900D03*
X567900D03*
X582900D03*
X597900D03*
X492900Y41100D03*
X477900D03*
Y31100D03*
X492900D03*
X593000Y5500D03*
X583000D03*
X483000D03*
X493000D03*
X503000D03*
X513000D03*
X523000D03*
X533000D03*
X543000D03*
X553000D03*
X573000D03*
X563000D03*
X582900Y61100D03*
X567900D03*
X552900D03*
X537900D03*
X522900D03*
X477900D03*
X507900Y51100D03*
X522900D03*
X537900D03*
X552900D03*
X567900D03*
X582900D03*
X597900D03*
X477900D03*
X492900D03*
X553127Y166100D03*
X556200D03*
X483700Y123500D03*
X487700D03*
X591463Y85800D03*
X503957Y81343D03*
X599400Y214000D03*
X551600Y216220D03*
X555157Y179250D03*
X559157Y175250D03*
Y179250D03*
X563157Y175250D03*
Y179250D03*
X567157Y175250D03*
X551600Y212200D03*
X532800Y189300D03*
Y192800D03*
X476400Y218300D03*
Y222300D03*
X484400Y218300D03*
X480400D03*
Y222300D03*
X484400D03*
X554207Y186700D03*
X533000Y201900D03*
X502368Y397500D03*
X507969Y332600D03*
X523220Y406580D03*
X545800Y356500D03*
Y360500D03*
X542500Y360600D03*
X542300Y356500D03*
Y352400D03*
X519000Y397500D03*
X476500Y390300D03*
X525937Y319175D03*
X532500Y350600D03*
X560800Y368200D03*
X531100Y347700D03*
X561100Y401600D03*
X557100D03*
X553100D03*
X561100Y397600D03*
X553100D03*
X521550Y442907D03*
X560333Y502024D03*
X490000Y548900D03*
X551100Y487800D03*
X543940Y476590D03*
X545640Y479590D03*
X526050Y513350D03*
X525900Y509950D03*
X490000Y558900D03*
X594700Y564500D03*
X584700D03*
X574700D03*
X564700D03*
X554700D03*
X544700D03*
X534700D03*
X524700D03*
X514700D03*
X504700D03*
X494700D03*
X627900Y41100D03*
Y31100D03*
X612900Y41100D03*
Y31100D03*
X643000Y5500D03*
X653000D03*
X633000D03*
X623000D03*
X613000D03*
X603000D03*
X654030Y113080D03*
X670000Y74500D03*
X640000D03*
X660000D03*
X650000D03*
Y64500D03*
X660000D03*
X640000D03*
X670000D03*
Y54500D03*
X640000D03*
X660000D03*
X650000D03*
X612900Y51100D03*
X651100Y111500D03*
X694500Y136900D03*
Y146900D03*
Y156900D03*
Y166900D03*
Y126900D03*
Y66900D03*
Y76900D03*
Y86900D03*
Y96900D03*
Y106900D03*
Y116900D03*
Y46900D03*
Y56900D03*
X607400Y214000D03*
X603400D03*
Y210000D03*
X694500Y246900D03*
Y256900D03*
Y266900D03*
Y206900D03*
Y216900D03*
Y226900D03*
Y236900D03*
Y176900D03*
Y186900D03*
Y196900D03*
Y276900D03*
Y286900D03*
Y296900D03*
X643600Y196702D03*
X694500Y306900D03*
Y316900D03*
Y326900D03*
Y336900D03*
Y346900D03*
Y356900D03*
Y366900D03*
Y376900D03*
Y386900D03*
X628652Y380000D03*
X634000Y372276D03*
X694500Y416900D03*
Y406900D03*
Y396900D03*
X668300Y331000D03*
X667885Y345450D03*
X672950Y345391D03*
X675500Y331700D03*
X637074Y359072D03*
X624600Y312200D03*
X663600Y382100D03*
X663900Y531700D03*
X678900D03*
X663900Y546700D03*
X678900D03*
X694500Y456900D03*
Y426900D03*
Y436900D03*
Y546900D03*
Y536900D03*
Y526900D03*
Y516900D03*
Y506900D03*
Y496900D03*
Y446900D03*
X694700Y564500D03*
X684700D03*
X674700D03*
X664700D03*
X654700D03*
X644700D03*
X634700D03*
X624700D03*
X614700D03*
X604700D03*
X694500Y556900D03*
G54D12*
X25000Y55000D03*
X73561Y352061D03*
X51439Y329939D03*
X30300Y443140D03*
X650860Y37570D03*
G54D21*
X48700Y361962D03*
Y355862D03*
X131667Y322213D03*
Y328313D03*
X162000Y515550D03*
Y509450D03*
X324809Y218488D03*
Y212388D03*
X240900Y509650D03*
Y503550D03*
X472667Y321713D03*
Y327813D03*
G54D30*
X161032Y324336D03*
X163000D03*
X164968D03*
X166937D03*
X168906D03*
Y338864D03*
X166937D03*
X164968D03*
X163000D03*
X161032D03*
X501531Y322836D03*
X503500D03*
X505468D03*
X507437D03*
X509406D03*
Y337364D03*
X507437D03*
X505468D03*
X503500D03*
X501531D03*
G54D105*
X668715Y393268D03*
Y398308D03*
X670290Y393268D03*
Y398308D03*
X671865Y393268D03*
Y398308D03*
X673440Y393268D03*
Y398308D03*
G54D106*
X671078Y395788D03*
G54D13*
X49642Y127797D03*
X177358D03*
X113500D03*
X454500D03*
X390642D03*
X518358D03*
G54D22*
X86833Y419000D03*
X83424D03*
X85128Y417000D03*
X86833Y415095D03*
X83424D03*
X247833Y418500D03*
X244424D03*
X246128Y416500D03*
X247833Y414595D03*
X244424D03*
X442733Y419000D03*
X439324D03*
X441028Y417000D03*
X442733Y415095D03*
X439324D03*
X599528Y416500D03*
X601233Y414595D03*
Y418500D03*
X597824Y414595D03*
Y418500D03*
G54D40*
X187791Y481579D03*
Y483547D03*
Y485516D03*
Y487484D03*
Y489453D03*
Y491421D03*
G54D31*
X172232Y327663D03*
Y329632D03*
Y331600D03*
Y333568D03*
Y335537D03*
X157705D03*
Y333568D03*
Y331600D03*
Y329632D03*
Y327663D03*
X512732Y326163D03*
Y328132D03*
Y330100D03*
Y332068D03*
Y334037D03*
X498205D03*
Y332068D03*
Y330100D03*
Y328132D03*
Y326163D03*
G54D107*
G01X13400Y-196400D02*
X641300D01*
Y-176400D01*
G01X13400Y-136400D02*
X716000D01*
G01X13400Y-156400D02*
X716000D01*
G01X13400Y-176400D02*
X716000D01*
G01X641300Y-196400D02*
X716000D01*
Y-117200D01*
X13400D01*
Y-196400D01*
G01X641300Y-117200D02*
Y-136400D01*
G01Y-156400D02*
Y-136400D01*
G01Y-156400D02*
Y-176400D01*
G54D32*
X164968Y331600D03*
X505468Y330100D03*
G54D14*
X80545Y111500D03*
X46500Y179000D03*
X42500D03*
X87415Y350289D03*
X38700Y365500D03*
X30400Y352300D03*
X90000Y392600D03*
X76074Y337388D03*
X81100Y388400D03*
X53793Y381100D03*
X58911D03*
X42200Y318900D03*
X29815Y375258D03*
X25815Y375313D03*
X92700Y380900D03*
X23700Y388100D03*
X30400Y359800D03*
X51685Y395700D03*
X50000Y481800D03*
X70000Y541800D03*
X49829Y428329D03*
X45600Y425200D03*
X94995Y444095D03*
X174957Y87782D03*
X191100Y86831D03*
X177358Y117158D03*
X113500Y119500D03*
X203700Y164900D03*
X198973Y104500D03*
X199912Y220383D03*
X165188Y212659D03*
X194540Y184398D03*
X148400Y186500D03*
X217600Y231500D03*
X172100Y189100D03*
X118600Y221200D03*
X160479Y405479D03*
X114252Y381348D03*
X145500Y318300D03*
X104148Y319952D03*
X109345Y319500D03*
X124300Y331500D03*
X100327Y368967D03*
X129700Y344700D03*
X179006Y340762D03*
X99108Y322000D03*
X193400Y352600D03*
X139100Y324400D03*
X204500Y390000D03*
X209000Y410000D03*
X204500Y375000D03*
X118500Y460600D03*
X198700Y465700D03*
X167960Y507140D03*
X120500Y545190D03*
X149400Y516000D03*
X135700Y482556D03*
X150864Y482572D03*
X146200Y482556D03*
X130400D03*
X140424Y482566D03*
X147090Y488260D03*
X151300Y497400D03*
X207728Y492000D03*
X98770Y466000D03*
X99344Y547400D03*
X125200Y482572D03*
X150864Y469640D03*
X146200Y469670D03*
X140900Y469480D03*
X135700Y469330D03*
X130400Y469580D03*
X116100Y467941D03*
X182300Y531900D03*
X182700Y538420D03*
X188900Y447867D03*
X207700Y450600D03*
X170306Y502582D03*
X194500Y485516D03*
X157300Y463500D03*
X160800D03*
X183953Y465828D03*
X183948Y506013D03*
X194598Y518426D03*
X121232Y501439D03*
X116520Y511523D03*
X222300Y509300D03*
X182700Y542250D03*
X210600Y499500D03*
X160950Y484752D03*
X194000Y489453D03*
X253940Y95492D03*
X273668Y91131D03*
X264700Y99792D03*
X229319Y106900D03*
X323100Y224400D03*
X333800Y190298D03*
X291200Y199800D03*
X329859Y421765D03*
X332836Y379964D03*
X336660Y358290D03*
X232000Y378000D03*
Y398000D03*
X287300Y414500D03*
X322980Y396940D03*
X308992Y400367D03*
X254300Y312500D03*
X305458Y350092D03*
X270600Y450600D03*
Y455100D03*
X252258Y446642D03*
X225300Y509300D03*
X223800Y462900D03*
X272997Y438169D03*
X350200Y65400D03*
X406633Y111400D03*
X470600Y111292D03*
X365300Y163117D03*
Y158483D03*
X472900Y222300D03*
X449845Y319000D03*
X439608Y323200D03*
X440694Y368917D03*
X465300Y334700D03*
X458130Y379770D03*
X437049Y319500D03*
X446675Y318500D03*
X472482Y422209D03*
X353600Y337200D03*
X427700Y420900D03*
X394250Y397430D03*
X380250D03*
X397200Y350559D03*
X397270Y360349D03*
X466500Y341158D03*
X361300Y477500D03*
X464323Y460600D03*
X370650Y424690D03*
X350650Y428690D03*
X352150Y495299D03*
X433000Y431100D03*
X427200Y447300D03*
X461313Y506413D03*
X471145Y441255D03*
X473650Y453000D03*
X471845Y481155D03*
X472032Y492632D03*
X474255Y456872D03*
X473800Y470750D03*
X434470Y452580D03*
X588142Y106454D03*
X592666Y115862D03*
X585542Y100610D03*
X520400Y85800D03*
X601079Y94712D03*
X548077Y102961D03*
X558657Y189482D03*
X580333Y208315D03*
X519880Y212077D03*
X501900Y183800D03*
X569300Y231500D03*
X517300Y192300D03*
X528600Y193400D03*
X521244Y393312D03*
X525080Y403740D03*
X479900Y403100D03*
X490100Y418100D03*
X545600Y352400D03*
X498900Y338800D03*
X497512Y412788D03*
X537400Y325000D03*
X563400Y371000D03*
X531200Y344500D03*
X557100Y397600D03*
X561000Y357000D03*
X583600Y394000D03*
X537180Y346800D03*
X540620Y448496D03*
X597181Y543222D03*
X560300Y505700D03*
X546940Y526370D03*
Y531070D03*
Y535870D03*
Y521570D03*
Y516906D03*
X545890Y473390D03*
X508600Y547200D03*
X539089Y540570D03*
X529100Y517900D03*
X529076Y521787D03*
Y526469D03*
Y530937D03*
Y535533D03*
X529000Y539500D03*
X534619Y546780D03*
X480966Y545292D03*
X515997Y538522D03*
X539618Y457422D03*
X492500Y507900D03*
X501280Y471078D03*
X539916Y428440D03*
X511281Y468950D03*
X503780Y449900D03*
X584850Y444050D03*
X505661Y477755D03*
X549700Y491100D03*
X602253Y145887D03*
X636700Y162500D03*
X672113Y114843D03*
X630934Y87134D03*
X640040Y91381D03*
X652600Y220000D03*
X606400Y183200D03*
X631500Y213200D03*
X609900Y313700D03*
X672300Y388800D03*
X670290Y386500D03*
X619581Y383281D03*
X625350D03*
X602700Y457763D03*
X654100Y432100D03*
G54D41*
X178047Y478724D03*
X183953D03*
G54D23*
X83225Y496576D03*
X85784D03*
X88343D03*
X90902D03*
X93461D03*
X96021D03*
X83225Y518624D03*
X85784D03*
X88343D03*
X90902D03*
X93461D03*
X96021D03*
X98580Y496576D03*
X101139D03*
X103698D03*
X106257D03*
X108816D03*
X111375D03*
X98580Y518624D03*
X101139D03*
X103698D03*
X106257D03*
X108816D03*
X111375D03*
G54D50*
X318107Y198239D03*
Y195680D03*
Y193120D03*
Y190561D03*
G54D108*
G01X19433Y-132500D02*
Y-122500D01*
X22767D01*
X24100Y-123000D01*
X25100Y-123667D01*
X25934Y-124666D01*
X26600Y-125834D01*
X26767Y-127500D01*
X26600Y-129167D01*
X25934Y-130334D01*
X25100Y-131334D01*
X24100Y-132000D01*
X22767Y-132500D01*
X19433D01*
G01X30433D02*
X34600Y-122500D01*
X38767Y-132500D01*
G01X37267Y-129000D02*
X31933D01*
G01X46100Y-122500D02*
Y-132500D01*
G01X42267Y-122500D02*
X49933D01*
G01X60933Y-132500D02*
X54267D01*
Y-122500D01*
X60933D01*
G01X58267Y-127333D02*
X54267D01*
G01X69100Y-132833D02*
X68767Y-132667D01*
Y-132333D01*
X69100Y-132167D01*
X69433Y-132333D01*
Y-132667D01*
X69100Y-132833D01*
G01Y-128334D02*
X68767Y-128167D01*
Y-127833D01*
X69100Y-127667D01*
X69433Y-127833D01*
Y-128167D01*
X69100Y-128334D01*
G01X80600Y-132500D02*
Y-122500D01*
X78600Y-124500D01*
G01Y-132500D02*
X82600D01*
G01X89933Y-129167D02*
X94267D01*
G01X103600Y-132500D02*
Y-122500D01*
X101600Y-124500D01*
G01Y-132500D02*
X105600D01*
G01X111433Y-130500D02*
X112433Y-131667D01*
X113766Y-132333D01*
X115267Y-132500D01*
X116600Y-132333D01*
X117934Y-131500D01*
X118767Y-130500D01*
X118933Y-129500D01*
X118600Y-128334D01*
X117433Y-127500D01*
X116267Y-127167D01*
X114767D01*
G01X116267D02*
X117267Y-126667D01*
X118100Y-125834D01*
X118433Y-124833D01*
X118100Y-123833D01*
X117267Y-123000D01*
X115767Y-122500D01*
X114267Y-122667D01*
X112767Y-123334D01*
G01X124433Y-129167D02*
X128767D01*
G01X134933Y-124167D02*
X135933Y-123167D01*
X137100Y-122667D01*
X138433Y-122500D01*
X140100Y-122833D01*
X141267Y-123667D01*
X141600Y-124666D01*
X141433Y-125667D01*
X140767Y-126500D01*
X137433Y-128167D01*
X135933Y-129333D01*
X134933Y-131000D01*
X134600Y-132500D01*
X141600D01*
G01X149600Y-122500D02*
X148266Y-122833D01*
X147267Y-123667D01*
X146600Y-124666D01*
X146100Y-126000D01*
X145933Y-127500D01*
X146100Y-129000D01*
X146600Y-130334D01*
X147267Y-131334D01*
X148266Y-132167D01*
X149600Y-132500D01*
X150933Y-132167D01*
X151933Y-131334D01*
X152600Y-130334D01*
X153100Y-129000D01*
X153267Y-127500D01*
X153100Y-126000D01*
X152600Y-124666D01*
X151933Y-123667D01*
X150933Y-122833D01*
X149600Y-122500D01*
G01X161100Y-132500D02*
Y-122500D01*
X159100Y-124500D01*
G01Y-132500D02*
X163100D01*
G01X172267D02*
X172600Y-130334D01*
X173100Y-128500D01*
X173767Y-126833D01*
X174600Y-125000D01*
X175933Y-122500D01*
X169267D01*
G01X19233Y-151700D02*
Y-141700D01*
X22567D01*
X23900Y-142200D01*
X24900Y-142867D01*
X25733Y-143866D01*
X26400Y-145034D01*
X26567Y-146700D01*
X26400Y-148367D01*
X25733Y-149534D01*
X24900Y-150534D01*
X23900Y-151200D01*
X22567Y-151700D01*
X19233D01*
G01X37733D02*
X31067D01*
Y-141700D01*
X37733D01*
G01X35067Y-146533D02*
X31067D01*
G01X42400Y-150367D02*
X43733Y-151200D01*
X45233Y-151700D01*
X46567D01*
X47900Y-151200D01*
X48900Y-150367D01*
X49400Y-149200D01*
X49067Y-148034D01*
X48233Y-147033D01*
X46733Y-146367D01*
X44733Y-146033D01*
X43567Y-145367D01*
X43066Y-144200D01*
X43400Y-143033D01*
X44233Y-142200D01*
X45400Y-141700D01*
X46567D01*
X47733Y-142033D01*
X48733Y-142867D01*
G01X55400Y-141700D02*
X59400D01*
G01X57400D02*
Y-151700D01*
G01X55400D02*
X59400D01*
G01X69900Y-146700D02*
X73234D01*
Y-149700D01*
X72233Y-150700D01*
X71067Y-151367D01*
X69400Y-151700D01*
X67733Y-151367D01*
X66567Y-150700D01*
X65567Y-149700D01*
X64900Y-148533D01*
X64566Y-147200D01*
Y-146033D01*
X64900Y-145034D01*
X65567Y-143866D01*
X66567Y-142867D01*
X67566Y-142200D01*
X68900Y-141700D01*
X70067D01*
X71400Y-142033D01*
X72400Y-142700D01*
G01X76567Y-151700D02*
Y-141700D01*
X84233Y-151700D01*
Y-141700D01*
G01X95233Y-151700D02*
X88567D01*
Y-141700D01*
X95233D01*
G01X92567Y-146533D02*
X88567D01*
G01X99733Y-151700D02*
Y-141700D01*
X103067D01*
X104400Y-142200D01*
X105400Y-142867D01*
X106234Y-143866D01*
X106900Y-145034D01*
X107067Y-146700D01*
X106900Y-148367D01*
X106234Y-149534D01*
X105400Y-150534D01*
X104400Y-151200D01*
X103067Y-151700D01*
X99733D01*
G01X122233D02*
X126400Y-141700D01*
X130567Y-151700D01*
G01X129067Y-148200D02*
X123733D01*
G01X137900Y-141700D02*
Y-151700D01*
G01X134067Y-141700D02*
X141733D01*
G01X149400Y-152033D02*
X149067Y-151867D01*
Y-151533D01*
X149400Y-151367D01*
X149733Y-151533D01*
Y-151867D01*
X149400Y-152033D01*
G01Y-147534D02*
X149067Y-147367D01*
Y-147033D01*
X149400Y-146867D01*
X149733Y-147033D01*
Y-147367D01*
X149400Y-147534D01*
G01X17433Y-192300D02*
Y-182300D01*
X23767D01*
G01X21433Y-187133D02*
X17433D01*
G01X30100Y-182300D02*
X34100D01*
G01X32100D02*
Y-192300D01*
G01X30100D02*
X34100D01*
G01X40267Y-182300D02*
Y-192300D01*
X46933D01*
G01X50766D02*
Y-182300D01*
X55100Y-190633D01*
X59434Y-182300D01*
Y-192300D01*
G01X74767Y-182300D02*
Y-192300D01*
X81433D01*
G01X85433D02*
X89600Y-182300D01*
X93767Y-192300D01*
G01X92267Y-188800D02*
X86933D01*
G01X101100Y-192300D02*
Y-187800D01*
X97767Y-182300D01*
G01X104433D02*
X101100Y-187800D01*
G01X115933Y-192300D02*
X109267D01*
Y-182300D01*
X115933D01*
G01X113267Y-187133D02*
X109267D01*
G01X120767Y-192300D02*
Y-182300D01*
X124933D01*
X126267Y-182800D01*
X127100Y-183467D01*
X127433Y-184800D01*
X127100Y-186133D01*
X126100Y-186967D01*
X124933Y-187467D01*
X120767D01*
G01X124933D02*
X127433Y-192300D01*
G01X135600Y-192633D02*
X135267Y-192467D01*
Y-192133D01*
X135600Y-191967D01*
X135933Y-192133D01*
Y-192467D01*
X135600Y-192633D01*
G01Y-188134D02*
X135267Y-187967D01*
Y-187633D01*
X135600Y-187467D01*
X135933Y-187633D01*
Y-187967D01*
X135600Y-188134D01*
G01X26567Y-162534D02*
X25567Y-162033D01*
X24400Y-161700D01*
X23067D01*
X21566Y-162200D01*
X20400Y-163033D01*
X19567Y-164033D01*
X18900Y-165700D01*
X18733Y-167200D01*
X19067Y-168700D01*
X19567Y-169700D01*
X20567Y-170700D01*
X21733Y-171367D01*
X22900Y-171700D01*
X24067D01*
X25233Y-171367D01*
X26233Y-170867D01*
X27067Y-170200D01*
G01X30233Y-171700D02*
X34400Y-161700D01*
X38567Y-171700D01*
G01X37067Y-168200D02*
X31733D01*
G01X42567Y-171700D02*
Y-161700D01*
X46733D01*
X48067Y-162200D01*
X48900Y-162867D01*
X49233Y-164200D01*
X48900Y-165533D01*
X47900Y-166367D01*
X46733Y-166867D01*
X42567D01*
G01X46733D02*
X49233Y-171700D01*
G01X53733D02*
Y-161700D01*
X57067D01*
X58400Y-162200D01*
X59400Y-162867D01*
X60234Y-163866D01*
X60900Y-165034D01*
X61067Y-166700D01*
X60900Y-168367D01*
X60234Y-169534D01*
X59400Y-170534D01*
X58400Y-171200D01*
X57067Y-171700D01*
X53733D01*
G01X77067D02*
Y-161700D01*
X81233D01*
X82567Y-162200D01*
X83400Y-162867D01*
X83733Y-164200D01*
X83400Y-165533D01*
X82400Y-166367D01*
X81233Y-166867D01*
X77067D01*
G01X81233D02*
X83733Y-171700D01*
G01X95233D02*
X88567D01*
Y-161700D01*
X95233D01*
G01X92567Y-166533D02*
X88567D01*
G01X100233Y-171700D02*
Y-161700D01*
X106567D01*
G01X104233Y-166533D02*
X100233D01*
G01X114900Y-172033D02*
X114567Y-171867D01*
Y-171533D01*
X114900Y-171367D01*
X115233Y-171533D01*
Y-171867D01*
X114900Y-172033D01*
G01Y-167534D02*
X114567Y-167367D01*
Y-167033D01*
X114900Y-166867D01*
X115233Y-167033D01*
Y-167367D01*
X114900Y-167534D01*
G01X126400Y-171700D02*
X125066Y-171533D01*
X123900Y-170867D01*
X122900Y-169867D01*
X122233Y-168700D01*
X121900Y-167367D01*
Y-166033D01*
X122233Y-164700D01*
X122900Y-163533D01*
X123900Y-162534D01*
X125066Y-161867D01*
X126400Y-161700D01*
X127733Y-161867D01*
X128900Y-162534D01*
X129900Y-163533D01*
X130567Y-164700D01*
X130900Y-166033D01*
Y-167367D01*
X130567Y-168700D01*
X129900Y-169867D01*
X128900Y-170867D01*
X127733Y-171533D01*
X126400Y-171700D01*
G01X134900Y-175033D02*
Y-165034D01*
G01Y-166533D02*
X135733Y-165700D01*
X136566Y-165200D01*
X137900Y-165034D01*
X139067Y-165200D01*
X140233Y-166033D01*
X140734Y-167200D01*
X140900Y-168367D01*
X140734Y-169534D01*
X140233Y-170700D01*
X139233Y-171367D01*
X137900Y-171700D01*
X136733Y-171533D01*
X135567Y-171034D01*
X134900Y-170367D01*
G01X146900Y-167200D02*
X152234D01*
X151733Y-166033D01*
X150900Y-165367D01*
X149733Y-165034D01*
X148567Y-165200D01*
X147567Y-165700D01*
X146900Y-166867D01*
X146566Y-167867D01*
Y-168867D01*
X146900Y-169867D01*
X147733Y-170867D01*
X148733Y-171533D01*
X149900Y-171700D01*
X151067Y-171367D01*
X152234Y-170367D01*
G01X158066Y-171700D02*
Y-165034D01*
G01Y-166700D02*
X158733Y-165867D01*
X159733Y-165200D01*
X161067Y-165034D01*
X162233Y-165200D01*
X163233Y-165867D01*
X163734Y-167033D01*
Y-171700D01*
G01X176067Y-162534D02*
X175067Y-162033D01*
X173900Y-161700D01*
X172567D01*
X171066Y-162200D01*
X169900Y-163033D01*
X169067Y-164033D01*
X168400Y-165700D01*
X168233Y-167200D01*
X168567Y-168700D01*
X169067Y-169700D01*
X170067Y-170700D01*
X171233Y-171367D01*
X172400Y-171700D01*
X173567D01*
X174733Y-171367D01*
X175733Y-170867D01*
X176567Y-170200D01*
G01X181400Y-167200D02*
X186734D01*
X186233Y-166033D01*
X185400Y-165367D01*
X184233Y-165034D01*
X183067Y-165200D01*
X182067Y-165700D01*
X181400Y-166867D01*
X181066Y-167867D01*
Y-168867D01*
X181400Y-169867D01*
X182233Y-170867D01*
X183233Y-171533D01*
X184400Y-171700D01*
X185567Y-171367D01*
X186734Y-170367D01*
G01X195400Y-171700D02*
Y-161700D01*
G01X206900Y-171700D02*
Y-161700D01*
G01X215566Y-165034D02*
Y-169700D01*
X216233Y-170867D01*
X217233Y-171533D01*
X218400Y-171700D01*
X219567Y-171533D01*
X220567Y-170867D01*
X221234Y-169700D01*
G01Y-171700D02*
Y-165034D01*
G01X229900Y-171700D02*
Y-161700D01*
G01X244400Y-171700D02*
Y-165034D01*
G01Y-166200D02*
X243733Y-165533D01*
X242733Y-165200D01*
X241567Y-165034D01*
X240400Y-165367D01*
X239400Y-166033D01*
X238733Y-167033D01*
X238400Y-168367D01*
X238733Y-169700D01*
X239400Y-170700D01*
X240400Y-171367D01*
X241567Y-171700D01*
X242733Y-171533D01*
X243733Y-171034D01*
X244400Y-170367D01*
G01X250567Y-171700D02*
Y-165034D01*
G01Y-166367D02*
X251400Y-165700D01*
X252233Y-165200D01*
X253400Y-165034D01*
X254233Y-165200D01*
X255233Y-165700D01*
G01X275900Y-171700D02*
Y-161700D01*
G01X291067Y-162534D02*
X290067Y-162033D01*
X288900Y-161700D01*
X287567D01*
X286066Y-162200D01*
X284900Y-163033D01*
X284067Y-164033D01*
X283400Y-165700D01*
X283233Y-167200D01*
X283567Y-168700D01*
X284067Y-169700D01*
X285067Y-170700D01*
X286233Y-171367D01*
X287400Y-171700D01*
X288567D01*
X289733Y-171367D01*
X290733Y-170867D01*
X291567Y-170200D01*
G01X298900Y-171700D02*
X297900Y-171533D01*
X296900Y-170867D01*
X296233Y-169700D01*
X295900Y-168367D01*
X296233Y-167033D01*
X296900Y-165867D01*
X297900Y-165200D01*
X298900Y-165034D01*
X299900Y-165200D01*
X300900Y-165867D01*
X301567Y-167033D01*
X301734Y-168367D01*
X301567Y-169700D01*
X300900Y-170867D01*
X299900Y-171533D01*
X298900Y-171700D01*
G01X307566D02*
Y-165034D01*
G01Y-166700D02*
X308233Y-165867D01*
X309233Y-165200D01*
X310567Y-165034D01*
X311733Y-165200D01*
X312733Y-165867D01*
X313234Y-167033D01*
Y-171700D01*
G01X319066D02*
Y-165034D01*
G01Y-166700D02*
X319733Y-165867D01*
X320733Y-165200D01*
X322067Y-165034D01*
X323233Y-165200D01*
X324233Y-165867D01*
X324734Y-167033D01*
Y-171700D01*
G01X330900Y-167200D02*
X336234D01*
X335733Y-166033D01*
X334900Y-165367D01*
X333733Y-165034D01*
X332567Y-165200D01*
X331567Y-165700D01*
X330900Y-166867D01*
X330566Y-167867D01*
Y-168867D01*
X330900Y-169867D01*
X331733Y-170867D01*
X332733Y-171533D01*
X333900Y-171700D01*
X335067Y-171367D01*
X336234Y-170367D01*
G01X347567Y-165867D02*
X346400Y-165200D01*
X345400Y-165034D01*
X344067Y-165367D01*
X343067Y-166033D01*
X342400Y-167200D01*
X342233Y-168367D01*
X342400Y-169534D01*
X343067Y-170534D01*
X344067Y-171367D01*
X345400Y-171700D01*
X346567Y-171367D01*
X347567Y-170700D01*
G01X356400Y-161700D02*
Y-171700D01*
G01X354067Y-165034D02*
X358733D01*
G01X365733Y-168367D02*
X370067D01*
G01X379400Y-171700D02*
Y-161700D01*
X377400Y-163700D01*
G01Y-171700D02*
X381400D01*
G01X402400D02*
Y-161700D01*
G01X410733Y-171700D02*
Y-161700D01*
X417067D01*
G01X414733Y-166533D02*
X410733D01*
G01X422067Y-171700D02*
Y-161700D01*
X426233D01*
X427567Y-162200D01*
X428400Y-162867D01*
X428733Y-164200D01*
X428400Y-165533D01*
X427400Y-166367D01*
X426233Y-166867D01*
X422067D01*
G01X426233D02*
X428733Y-171700D01*
G01X436900D02*
X435566Y-171533D01*
X434400Y-170867D01*
X433400Y-169867D01*
X432733Y-168700D01*
X432400Y-167367D01*
Y-166033D01*
X432733Y-164700D01*
X433400Y-163533D01*
X434400Y-162534D01*
X435566Y-161867D01*
X436900Y-161700D01*
X438233Y-161867D01*
X439400Y-162534D01*
X440400Y-163533D01*
X441067Y-164700D01*
X441400Y-166033D01*
Y-167367D01*
X441067Y-168700D01*
X440400Y-169867D01*
X439400Y-170867D01*
X438233Y-171533D01*
X436900Y-171700D01*
G01X444567D02*
Y-161700D01*
X452233Y-171700D01*
Y-161700D01*
G01X459900D02*
Y-171700D01*
G01X456067Y-161700D02*
X463733D01*
G01X474733Y-171700D02*
X468067D01*
Y-161700D01*
X474733D01*
G01X472067Y-166533D02*
X468067D01*
G01X479067Y-171700D02*
Y-161700D01*
X486733Y-171700D01*
Y-161700D01*
G01X490733Y-171700D02*
Y-161700D01*
X494067D01*
X495400Y-162200D01*
X496400Y-162867D01*
X497234Y-163866D01*
X497900Y-165034D01*
X498067Y-166700D01*
X497900Y-168367D01*
X497234Y-169534D01*
X496400Y-170534D01*
X495400Y-171200D01*
X494067Y-171700D01*
X490733D01*
G01X518733Y-166367D02*
X519400Y-165867D01*
X519900Y-165034D01*
X520234Y-163866D01*
X519900Y-162867D01*
X519233Y-162200D01*
X518067Y-161700D01*
X513567D01*
Y-171700D01*
X519067D01*
X520234Y-171034D01*
X520900Y-170033D01*
X521233Y-168867D01*
X520900Y-167700D01*
X519900Y-166700D01*
X518733Y-166367D01*
X513567D01*
G01X528900Y-171700D02*
X527900Y-171533D01*
X526900Y-170867D01*
X526233Y-169700D01*
X525900Y-168367D01*
X526233Y-167033D01*
X526900Y-165867D01*
X527900Y-165200D01*
X528900Y-165034D01*
X529900Y-165200D01*
X530900Y-165867D01*
X531567Y-167033D01*
X531734Y-168367D01*
X531567Y-169700D01*
X530900Y-170867D01*
X529900Y-171533D01*
X528900Y-171700D01*
G01X543400D02*
Y-165034D01*
G01Y-166200D02*
X542733Y-165533D01*
X541733Y-165200D01*
X540567Y-165034D01*
X539400Y-165367D01*
X538400Y-166033D01*
X537733Y-167033D01*
X537400Y-168367D01*
X537733Y-169700D01*
X538400Y-170700D01*
X539400Y-171367D01*
X540567Y-171700D01*
X541733Y-171533D01*
X542733Y-171034D01*
X543400Y-170367D01*
G01X549567Y-171700D02*
Y-165034D01*
G01Y-166367D02*
X550400Y-165700D01*
X551233Y-165200D01*
X552400Y-165034D01*
X553233Y-165200D01*
X554233Y-165700D01*
G01X566400Y-161700D02*
Y-171700D01*
G01Y-170200D02*
X565733Y-171034D01*
X564733Y-171533D01*
X563567Y-171700D01*
X562233Y-171367D01*
X561233Y-170534D01*
X560566Y-169534D01*
X560400Y-168367D01*
X560566Y-167200D01*
X561233Y-166200D01*
X562233Y-165367D01*
X563567Y-165034D01*
X564733Y-165200D01*
X565567Y-165533D01*
X566400Y-166200D01*
G01X446000Y-50000D02*
X450000Y-46000D01*
Y-4000D01*
X454000Y0D01*
X696000D01*
X700000Y4000D01*
Y566000D01*
X696000Y570000D01*
X439000D01*
X435000Y566000D01*
Y544000D01*
X431000Y540000D01*
X269000D01*
X265000Y544000D01*
Y566000D01*
X261000Y570000D01*
X4000D01*
X0Y566000D01*
Y4000D01*
X4000Y0D01*
X246000D01*
X250000Y-4000D01*
Y-46000D01*
X254000Y-50000D01*
X446000D01*
G01X154100Y-190867D02*
X155433Y-191700D01*
X156933Y-192200D01*
X158267D01*
X159600Y-191700D01*
X160600Y-190867D01*
X161100Y-189700D01*
X160767Y-188534D01*
X159933Y-187533D01*
X158433Y-186867D01*
X156433Y-186533D01*
X155267Y-185867D01*
X154766Y-184700D01*
X155100Y-183533D01*
X155933Y-182700D01*
X157100Y-182200D01*
X158267D01*
X159433Y-182533D01*
X160434Y-183367D01*
G01X169100Y-192200D02*
X167766Y-192033D01*
X166600Y-191367D01*
X165600Y-190367D01*
X164933Y-189200D01*
X164600Y-187867D01*
Y-186533D01*
X164933Y-185200D01*
X165600Y-184033D01*
X166600Y-183034D01*
X167766Y-182367D01*
X169100Y-182200D01*
X170433Y-182367D01*
X171600Y-183034D01*
X172600Y-184033D01*
X173267Y-185200D01*
X173600Y-186533D01*
Y-187867D01*
X173267Y-189200D01*
X172600Y-190367D01*
X171600Y-191367D01*
X170433Y-192033D01*
X169100Y-192200D01*
G01X177267Y-182200D02*
Y-192200D01*
X183933D01*
G01X188433D02*
Y-182200D01*
X191767D01*
X193100Y-182700D01*
X194100Y-183367D01*
X194934Y-184366D01*
X195600Y-185534D01*
X195767Y-187200D01*
X195600Y-188867D01*
X194934Y-190034D01*
X194100Y-191034D01*
X193100Y-191700D01*
X191767Y-192200D01*
X188433D01*
G01X206933D02*
X200267D01*
Y-182200D01*
X206933D01*
G01X204267Y-187033D02*
X200267D01*
G01X211767Y-192200D02*
Y-182200D01*
X215933D01*
X217267Y-182700D01*
X218100Y-183367D01*
X218433Y-184700D01*
X218100Y-186033D01*
X217100Y-186867D01*
X215933Y-187367D01*
X211767D01*
G01X215933D02*
X218433Y-192200D01*
G01X222266D02*
Y-182200D01*
X226600Y-190533D01*
X230934Y-182200D01*
Y-192200D01*
G01X233933D02*
X238100Y-182200D01*
X242267Y-192200D01*
G01X240767Y-188700D02*
X235433D01*
G01X246100Y-190867D02*
X247433Y-191700D01*
X248933Y-192200D01*
X250267D01*
X251600Y-191700D01*
X252600Y-190867D01*
X253100Y-189700D01*
X252767Y-188534D01*
X251933Y-187533D01*
X250433Y-186867D01*
X248433Y-186533D01*
X247267Y-185867D01*
X246767Y-184700D01*
X247100Y-183533D01*
X247933Y-182700D01*
X249100Y-182200D01*
X250267D01*
X251433Y-182533D01*
X252434Y-183367D01*
G01X257433Y-192200D02*
Y-182200D01*
G01X263767D02*
X257433Y-188367D01*
G01X264767Y-192200D02*
X260267Y-185534D01*
G01X284100Y-182200D02*
Y-192200D01*
G01X280267Y-182200D02*
X287933D01*
G01X295600Y-192200D02*
X294266Y-192033D01*
X293100Y-191367D01*
X292100Y-190367D01*
X291433Y-189200D01*
X291100Y-187867D01*
Y-186533D01*
X291433Y-185200D01*
X292100Y-184033D01*
X293100Y-183034D01*
X294266Y-182367D01*
X295600Y-182200D01*
X296933Y-182367D01*
X298100Y-183034D01*
X299100Y-184033D01*
X299767Y-185200D01*
X300100Y-186533D01*
Y-187867D01*
X299767Y-189200D01*
X299100Y-190367D01*
X298100Y-191367D01*
X296933Y-192033D01*
X295600Y-192200D01*
G01X303767D02*
Y-182200D01*
X307767D01*
X309100Y-182700D01*
X310100Y-183867D01*
X310433Y-185200D01*
X310100Y-186533D01*
X309267Y-187533D01*
X307767Y-188034D01*
X303767D01*
G01X273767Y-132500D02*
Y-122500D01*
X277767D01*
X279100Y-123000D01*
X280100Y-124167D01*
X280433Y-125500D01*
X280100Y-126833D01*
X279267Y-127833D01*
X277767Y-128334D01*
X273767D01*
G01X284433Y-132500D02*
X288600Y-122500D01*
X292767Y-132500D01*
G01X291267Y-129000D02*
X285933D01*
G01X296767Y-132500D02*
Y-122500D01*
X300933D01*
X302267Y-123000D01*
X303100Y-123667D01*
X303433Y-125000D01*
X303100Y-126333D01*
X302100Y-127167D01*
X300933Y-127667D01*
X296767D01*
G01X300933D02*
X303433Y-132500D01*
G01X311600Y-122500D02*
Y-132500D01*
G01X307767Y-122500D02*
X315433D01*
G01X330767Y-132500D02*
Y-122500D01*
X338433Y-132500D01*
Y-122500D01*
G01X342433D02*
Y-129667D01*
X343100Y-131167D01*
X344433Y-132167D01*
X346100Y-132500D01*
X347767Y-132167D01*
X349100Y-131167D01*
X349767Y-129667D01*
Y-122500D01*
G01X353266Y-132500D02*
Y-122500D01*
X357600Y-130833D01*
X361934Y-122500D01*
Y-132500D01*
G01X370433Y-127167D02*
X371100Y-126667D01*
X371600Y-125834D01*
X371934Y-124666D01*
X371600Y-123667D01*
X370933Y-123000D01*
X369767Y-122500D01*
X365267D01*
Y-132500D01*
X370767D01*
X371934Y-131834D01*
X372600Y-130833D01*
X372933Y-129667D01*
X372600Y-128500D01*
X371600Y-127500D01*
X370433Y-127167D01*
X365267D01*
G01X383933Y-132500D02*
X377267D01*
Y-122500D01*
X383933D01*
G01X381267Y-127333D02*
X377267D01*
G01X388767Y-132500D02*
Y-122500D01*
X392933D01*
X394267Y-123000D01*
X395100Y-123667D01*
X395433Y-125000D01*
X395100Y-126333D01*
X394100Y-127167D01*
X392933Y-127667D01*
X388767D01*
G01X392933D02*
X395433Y-132500D01*
G01X403600Y-132833D02*
X403267Y-132667D01*
Y-132333D01*
X403600Y-132167D01*
X403933Y-132333D01*
Y-132667D01*
X403600Y-132833D01*
G01Y-128334D02*
X403267Y-128167D01*
Y-127833D01*
X403600Y-127667D01*
X403933Y-127833D01*
Y-128167D01*
X403600Y-128334D01*
G01X411933Y-124167D02*
X412933Y-123167D01*
X414100Y-122667D01*
X415433Y-122500D01*
X417100Y-122833D01*
X418267Y-123667D01*
X418600Y-124666D01*
X418433Y-125667D01*
X417767Y-126500D01*
X414433Y-128167D01*
X412933Y-129333D01*
X411933Y-131000D01*
X411600Y-132500D01*
X418600D01*
G01X422933Y-130500D02*
X423933Y-131667D01*
X425267Y-132333D01*
X426767Y-132500D01*
X428100Y-132333D01*
X429434Y-131500D01*
X430267Y-130500D01*
X430433Y-129500D01*
X430100Y-128334D01*
X428933Y-127500D01*
X427767Y-127167D01*
X426267D01*
G01X427767D02*
X428767Y-126667D01*
X429600Y-125834D01*
X429933Y-124833D01*
X429600Y-123833D01*
X428767Y-123000D01*
X427267Y-122500D01*
X425767Y-122667D01*
X424267Y-123334D01*
G01X438100Y-132500D02*
Y-122500D01*
X436100Y-124500D01*
G01Y-132500D02*
X440100D01*
G01X447433Y-129167D02*
X451767D01*
G01X461100Y-122500D02*
X459766Y-122833D01*
X458767Y-123667D01*
X458100Y-124666D01*
X457600Y-126000D01*
X457433Y-127500D01*
X457600Y-129000D01*
X458100Y-130334D01*
X458767Y-131334D01*
X459766Y-132167D01*
X461100Y-132500D01*
X462433Y-132167D01*
X463433Y-131334D01*
X464100Y-130334D01*
X464600Y-129000D01*
X464767Y-127500D01*
X464600Y-126000D01*
X464100Y-124666D01*
X463433Y-123667D01*
X462433Y-122833D01*
X461100Y-122500D01*
G01X472600D02*
X471267Y-122833D01*
X470267Y-123667D01*
X469600Y-124666D01*
X469100Y-126000D01*
X468933Y-127500D01*
X469100Y-129000D01*
X469600Y-130334D01*
X470267Y-131334D01*
X471267Y-132167D01*
X472600Y-132500D01*
X473933Y-132167D01*
X474933Y-131334D01*
X475600Y-130334D01*
X476100Y-129000D01*
X476267Y-127500D01*
X476100Y-126000D01*
X475600Y-124666D01*
X474933Y-123667D01*
X473933Y-122833D01*
X472600Y-122500D01*
G01X484100D02*
X482766Y-122833D01*
X481767Y-123667D01*
X481100Y-124666D01*
X480600Y-126000D01*
X480433Y-127500D01*
X480600Y-129000D01*
X481100Y-130334D01*
X481767Y-131334D01*
X482766Y-132167D01*
X484100Y-132500D01*
X485433Y-132167D01*
X486433Y-131334D01*
X487100Y-130334D01*
X487600Y-129000D01*
X487767Y-127500D01*
X487600Y-126000D01*
X487100Y-124666D01*
X486433Y-123667D01*
X485433Y-122833D01*
X484100Y-122500D01*
G01X495600D02*
X494266Y-122833D01*
X493267Y-123667D01*
X492600Y-124666D01*
X492100Y-126000D01*
X491933Y-127500D01*
X492100Y-129000D01*
X492600Y-130334D01*
X493267Y-131334D01*
X494266Y-132167D01*
X495600Y-132500D01*
X496933Y-132167D01*
X497933Y-131334D01*
X498600Y-130334D01*
X499100Y-129000D01*
X499267Y-127500D01*
X499100Y-126000D01*
X498600Y-124666D01*
X497933Y-123667D01*
X496933Y-122833D01*
X495600Y-122500D01*
G01X507100Y-132500D02*
X508267Y-132333D01*
X509600Y-131834D01*
X510433Y-131000D01*
X510767Y-129833D01*
X510433Y-128667D01*
X509433Y-127667D01*
X507933Y-127167D01*
X506267D01*
X505267Y-126833D01*
X504433Y-126000D01*
X504100Y-124833D01*
X504600Y-123667D01*
X505766Y-122833D01*
X507100Y-122500D01*
X508433Y-122833D01*
X509600Y-123667D01*
X510100Y-124833D01*
X509767Y-126000D01*
X508933Y-126833D01*
X507933Y-127167D01*
X506267D01*
X504767Y-127667D01*
X503767Y-128667D01*
X503433Y-129833D01*
X503767Y-131000D01*
X504600Y-131834D01*
X505933Y-132333D01*
X507100Y-132500D01*
G01X514933Y-131000D02*
X515933Y-131834D01*
X517100Y-132333D01*
X518600Y-132500D01*
X520100Y-132167D01*
X521267Y-131500D01*
X522100Y-130334D01*
X522267Y-129000D01*
X521933Y-127667D01*
X521100Y-126833D01*
X519933Y-126167D01*
X518767Y-126000D01*
X517600Y-126167D01*
X516100Y-126833D01*
X516600Y-122500D01*
X521100D01*
G01X645867Y-163300D02*
Y-173300D01*
X652533D01*
G01X660700Y-166634D02*
Y-173300D01*
G01Y-163967D02*
X660367Y-163800D01*
Y-163467D01*
X660700Y-163300D01*
X661033Y-163467D01*
Y-163800D01*
X660700Y-163967D01*
G01X671200Y-173300D02*
Y-164800D01*
X671533Y-163967D01*
X672200Y-163467D01*
X673200Y-163300D01*
X674200Y-163633D01*
X674700Y-164467D01*
G01X672700Y-167300D02*
X669366D01*
G01X681200Y-168800D02*
X686534D01*
X686033Y-167633D01*
X685200Y-166967D01*
X684033Y-166634D01*
X682867Y-166800D01*
X681867Y-167300D01*
X681200Y-168467D01*
X680866Y-169467D01*
Y-170467D01*
X681200Y-171467D01*
X682033Y-172467D01*
X683033Y-173133D01*
X684200Y-173300D01*
X685367Y-172967D01*
X686534Y-171967D01*
G01X693033Y-169967D02*
X697367D01*
G01X703033Y-171300D02*
X704033Y-172467D01*
X705366Y-173133D01*
X706867Y-173300D01*
X708200Y-173133D01*
X709534Y-172300D01*
X710367Y-171300D01*
X710533Y-170300D01*
X710200Y-169134D01*
X709033Y-168300D01*
X707867Y-167967D01*
X706367D01*
G01X707867D02*
X708867Y-167467D01*
X709700Y-166634D01*
X710033Y-165633D01*
X709700Y-164633D01*
X708867Y-163800D01*
X707367Y-163300D01*
X705867Y-163467D01*
X704367Y-164134D01*
G54D24*
X83815Y448790D03*
X61767D03*
X83815Y451349D03*
X61767D03*
X83815Y453908D03*
X61767D03*
X83815Y456467D03*
X61767D03*
X83815Y459026D03*
X61767D03*
X83815Y461585D03*
X61767D03*
X83815Y464144D03*
X61767D03*
G54D60*
X245867Y332626D03*
Y353101D03*
X250867Y332626D03*
Y353101D03*
X255867Y332626D03*
Y353101D03*
X260867Y332626D03*
Y353101D03*
G54D33*
X155200Y425344D03*
G54D51*
X306493Y198239D03*
Y195680D03*
Y193120D03*
Y190561D03*
G54D15*
X37554Y237854D03*
X40198Y237715D03*
X42954D03*
X45710D03*
X48466D03*
X37518Y245964D03*
Y248720D03*
X40198Y240471D03*
Y243227D03*
X37518Y292898D03*
Y290142D03*
X40198Y295654D03*
X85093Y268095D03*
X82337D03*
X79581D03*
X76825D03*
Y270850D03*
X79581D03*
X82337D03*
X85093D03*
Y273606D03*
X82337D03*
X79581D03*
X76825D03*
Y276362D03*
X79581D03*
X82337D03*
X85093D03*
Y279118D03*
X82337D03*
X79581D03*
X76825D03*
Y281874D03*
X79581D03*
X82337D03*
X85093D03*
X71313Y254250D03*
Y251495D03*
Y248739D03*
Y245983D03*
Y240471D03*
Y243227D03*
X68558Y245983D03*
Y248739D03*
Y251495D03*
Y254250D03*
Y243227D03*
Y240471D03*
X65802D03*
X63046D03*
X60290D03*
X57534Y243227D03*
X60290D03*
X63046D03*
X65802D03*
X42954Y240471D03*
X45710D03*
X48466D03*
Y243227D03*
X45710D03*
X42954D03*
X34687Y254250D03*
Y251495D03*
X37442D03*
Y254250D03*
X85093Y284630D03*
Y287386D03*
Y290142D03*
Y292898D03*
Y295654D03*
X82337D03*
Y292898D03*
Y290142D03*
Y287386D03*
Y284630D03*
X79581D03*
Y287386D03*
Y290142D03*
Y292898D03*
Y295654D03*
X76825D03*
Y292898D03*
Y290142D03*
Y287386D03*
Y284630D03*
X74069D03*
Y287386D03*
Y290142D03*
Y292898D03*
Y295654D03*
X71313D03*
Y292898D03*
Y290142D03*
Y287386D03*
Y284630D03*
X68558D03*
Y287386D03*
Y290142D03*
Y292898D03*
Y295654D03*
X40198Y292898D03*
Y290142D03*
X34687Y287386D03*
Y284630D03*
X37442D03*
Y287386D03*
X48466Y295654D03*
X45710D03*
X42954D03*
Y292898D03*
X45710D03*
X48466D03*
X63046Y295654D03*
X65802D03*
Y292898D03*
X63046D03*
X57534Y290142D03*
X60290D03*
X63046D03*
X65802D03*
X48466D03*
X45710D03*
X42954D03*
X40198Y287386D03*
X42954D03*
X45710D03*
X48466D03*
X65802D03*
X63046D03*
X60290D03*
X57534D03*
X40198Y284630D03*
X42954D03*
X45710D03*
X48466D03*
X65802D03*
X63046D03*
X60290D03*
X57534D03*
Y245983D03*
X60290D03*
X63046D03*
X65802D03*
X48466D03*
X45710D03*
X42954D03*
X40198D03*
Y248739D03*
X42954D03*
X45710D03*
X48466D03*
X65802D03*
X63046D03*
X60290D03*
X57534D03*
Y251495D03*
X60290D03*
X63046D03*
X65802D03*
X48466D03*
X45710D03*
X42954D03*
X40198D03*
Y254250D03*
X42954D03*
X45710D03*
X48466D03*
X65802D03*
X63046D03*
X60290D03*
X57534D03*
X51622Y270818D03*
Y268062D03*
Y265306D03*
Y262550D03*
Y273574D03*
Y276330D03*
X54378D03*
Y273574D03*
Y262550D03*
Y265306D03*
Y268062D03*
Y270818D03*
X57134Y276330D03*
Y273574D03*
Y262550D03*
Y265306D03*
Y268062D03*
Y270818D03*
X59890Y276330D03*
Y273574D03*
Y262550D03*
Y265306D03*
Y268062D03*
Y270818D03*
X62646Y276330D03*
Y273574D03*
Y262550D03*
Y265306D03*
Y268062D03*
Y270818D03*
X65402Y276330D03*
Y273574D03*
Y262550D03*
Y265306D03*
Y268062D03*
Y270818D03*
X68748Y269440D03*
X62646Y259795D03*
X59890D03*
X62646Y279086D03*
X59890D03*
X62646Y281842D03*
X59890D03*
Y257039D03*
X62646D03*
X68748Y258417D03*
Y280464D03*
X48866Y276330D03*
Y273574D03*
Y262550D03*
Y265306D03*
Y268062D03*
Y270818D03*
X46110Y276330D03*
Y273574D03*
Y262550D03*
Y265306D03*
Y268062D03*
Y270818D03*
X43354Y276330D03*
Y273574D03*
Y262550D03*
Y265306D03*
Y268062D03*
Y270818D03*
X40598Y276330D03*
Y273574D03*
Y262550D03*
Y265306D03*
Y268062D03*
Y270818D03*
X37252Y269440D03*
Y280464D03*
Y258417D03*
X43354Y279086D03*
X46110D03*
X43354Y281842D03*
X46110D03*
X43354Y259795D03*
X46110D03*
X43354Y257039D03*
X46110D03*
X37518Y303978D03*
X48466Y303921D03*
X45710D03*
X42954D03*
X40198D03*
X37518Y301222D03*
X40198Y301165D03*
X42954D03*
X45710D03*
X48466D03*
X60290Y298410D03*
X40198D03*
X85093D03*
X82337D03*
X79581D03*
X76825D03*
X74069D03*
X71294Y298380D03*
X68558Y298410D03*
X42954D03*
X45710D03*
X48466D03*
X65802D03*
X63046D03*
X154377Y203010D03*
Y206947D03*
X157377D03*
Y203010D03*
X160814Y206947D03*
Y203010D03*
X150940Y206947D03*
Y203010D03*
X154377Y199073D03*
X157377D03*
X160814D03*
X150940D03*
X203854Y234959D03*
X206610D03*
X209366D03*
X201098D03*
X198342D03*
X195587D03*
Y237715D03*
X198342D03*
X201098D03*
X209366D03*
X206610D03*
X203854D03*
X195587Y248739D03*
Y245983D03*
Y243227D03*
Y240471D03*
X198342Y245983D03*
Y248739D03*
Y240471D03*
Y243227D03*
X201098D03*
Y240471D03*
X151413Y234959D03*
X148658D03*
X145902D03*
X143146D03*
X140390D03*
X137634D03*
Y237715D03*
X140390D03*
X143146D03*
X145902D03*
X148658D03*
X151413D03*
X195587Y295654D03*
Y290142D03*
Y292898D03*
X198342D03*
Y290142D03*
Y295654D03*
X201098D03*
X218634Y245983D03*
X221390D03*
Y248739D03*
X218634D03*
Y251495D03*
X221390D03*
Y254250D03*
X218634D03*
X221390Y243227D03*
X218634D03*
Y240471D03*
X221390D03*
X203854Y243227D03*
X206610D03*
X209366D03*
Y240471D03*
X206610D03*
X203854D03*
X209366Y245983D03*
X206610D03*
X203854D03*
X201098D03*
Y248739D03*
X203854D03*
X206610D03*
X209366D03*
Y251495D03*
X206610D03*
X203854D03*
X201098D03*
Y254250D03*
X203854D03*
X206610D03*
X209366D03*
X198342D03*
Y251495D03*
X195587D03*
Y254250D03*
X221390Y284630D03*
X218634D03*
Y287386D03*
X221390D03*
Y290142D03*
X218634D03*
X201098D03*
Y292898D03*
X203854Y290142D03*
X206610D03*
X209366D03*
Y292898D03*
X206610D03*
X203854D03*
Y295654D03*
X206610D03*
X209366D03*
X201098Y284630D03*
X203854D03*
X206610D03*
X209366D03*
Y287386D03*
X206610D03*
X203854D03*
X201098D03*
X198342D03*
Y284630D03*
X195587D03*
Y287386D03*
X162437Y281874D03*
X159681D03*
X156925D03*
Y279118D03*
X159681D03*
X162437D03*
Y276362D03*
X159681D03*
X156925D03*
Y273606D03*
X159681D03*
X162437D03*
Y270850D03*
X159681D03*
X156925D03*
Y268095D03*
X159681D03*
X162437D03*
X114587Y295654D03*
Y290142D03*
Y292898D03*
X117342D03*
Y290142D03*
Y295654D03*
X120098D03*
X114587Y245983D03*
Y248739D03*
Y240471D03*
Y243227D03*
X117342Y248739D03*
Y245983D03*
Y243227D03*
Y240471D03*
X120098D03*
Y243227D03*
X137634Y245983D03*
X140390D03*
X143146D03*
X145902D03*
Y248739D03*
X143146D03*
X140390D03*
X137634D03*
Y251495D03*
X140390D03*
X143146D03*
X145902D03*
Y254250D03*
X143146D03*
X140390D03*
X137634D03*
X148658D03*
Y251495D03*
Y248739D03*
Y245983D03*
X151413D03*
Y248739D03*
Y251495D03*
Y254250D03*
X145902Y243227D03*
X143146D03*
X140390D03*
X137634D03*
Y240471D03*
X140390D03*
X143146D03*
X145902D03*
X148658D03*
Y243227D03*
X151413D03*
Y240471D03*
X122854Y243227D03*
X125610D03*
X128366D03*
X125610Y240471D03*
X122854D03*
X128366Y245983D03*
X125610D03*
X122854D03*
X120098D03*
Y248739D03*
X122854D03*
X125610D03*
X128366D03*
Y251495D03*
X125610D03*
X122854D03*
X120098D03*
Y254250D03*
X122854D03*
X125610D03*
X128366D03*
X117342D03*
Y251495D03*
X114587D03*
Y254250D03*
X117342Y287386D03*
Y284630D03*
X114587D03*
Y287386D03*
X120098Y284630D03*
Y287386D03*
Y290142D03*
Y292898D03*
X122854Y284630D03*
X125610D03*
X128366D03*
Y287386D03*
X125610D03*
X122854D03*
Y290142D03*
X125610D03*
X128366D03*
Y292898D03*
X125610D03*
X122854D03*
Y295654D03*
X125610D03*
X128366D03*
X143146Y292898D03*
X145902D03*
Y295654D03*
X143146D03*
X148658D03*
Y292898D03*
X151413D03*
Y295654D03*
X154169D03*
Y292898D03*
X156925D03*
Y295654D03*
X159681D03*
Y292898D03*
X162437D03*
Y295654D03*
X145902Y284630D03*
X143146D03*
X140390D03*
X137634D03*
Y287386D03*
X140390D03*
X143146D03*
X145902D03*
Y290142D03*
X143146D03*
X140390D03*
X137634D03*
X148658D03*
Y287386D03*
Y284630D03*
X151413D03*
Y287386D03*
Y290142D03*
X154169D03*
Y287386D03*
Y284630D03*
X156925D03*
Y287386D03*
Y290142D03*
X159681D03*
Y287386D03*
Y284630D03*
X162437D03*
Y287386D03*
Y290142D03*
X131622Y270818D03*
Y268062D03*
Y265306D03*
Y262550D03*
Y273574D03*
Y276330D03*
X134378D03*
Y273574D03*
Y262550D03*
Y265306D03*
Y268062D03*
Y270818D03*
X137134Y276330D03*
Y273574D03*
Y262550D03*
Y265306D03*
Y268062D03*
Y270818D03*
X139890Y276330D03*
Y273574D03*
Y262550D03*
Y265306D03*
Y268062D03*
Y270818D03*
X142646Y276330D03*
Y273574D03*
Y262550D03*
Y265306D03*
Y268062D03*
Y270818D03*
X145402Y276330D03*
Y273574D03*
Y262550D03*
Y265306D03*
Y268062D03*
Y270818D03*
X148748Y269440D03*
X142646Y259795D03*
X139890D03*
X142646Y279086D03*
X139890D03*
X142646Y281842D03*
X139890D03*
Y257039D03*
X142646D03*
X148748Y258417D03*
Y280464D03*
X128866Y276330D03*
Y273574D03*
Y262550D03*
Y265306D03*
Y268062D03*
Y270818D03*
X126110Y276330D03*
Y273574D03*
Y262550D03*
Y265306D03*
Y268062D03*
Y270818D03*
X123354Y276330D03*
Y273574D03*
Y262550D03*
Y265306D03*
Y268062D03*
Y270818D03*
X120598Y276330D03*
Y273574D03*
Y262550D03*
Y265306D03*
Y268062D03*
Y270818D03*
X117252Y269440D03*
Y280464D03*
Y258417D03*
X123354Y279086D03*
X126110D03*
X123354Y281842D03*
X126110D03*
X123354Y259795D03*
X126110D03*
X123354Y257039D03*
X126110D03*
X212622Y270818D03*
Y268062D03*
Y265306D03*
Y262550D03*
Y273574D03*
Y276330D03*
X215378D03*
Y273574D03*
Y262550D03*
Y265306D03*
Y268062D03*
Y270818D03*
X218134Y276330D03*
Y273574D03*
Y262550D03*
Y265306D03*
Y268062D03*
Y270818D03*
X220890Y276330D03*
Y273574D03*
Y262550D03*
Y265306D03*
Y268062D03*
Y270818D03*
Y259795D03*
Y279086D03*
Y281842D03*
Y257039D03*
X209866Y276330D03*
Y273574D03*
Y262550D03*
Y265306D03*
Y268062D03*
Y270818D03*
X207110Y276330D03*
Y273574D03*
Y262550D03*
Y265306D03*
Y268062D03*
Y270818D03*
X204354Y276330D03*
Y273574D03*
Y262550D03*
Y265306D03*
Y268062D03*
Y270818D03*
X201598Y276330D03*
Y273574D03*
Y262550D03*
Y265306D03*
Y268062D03*
Y270818D03*
X198252Y269440D03*
Y280464D03*
Y258417D03*
X204354Y279086D03*
X207110D03*
X204354Y281842D03*
X207110D03*
X204354Y259795D03*
X207110D03*
X204354Y257039D03*
X207110D03*
X164623Y369490D03*
Y373427D03*
Y365553D03*
X168060Y373427D03*
Y365553D03*
Y369490D03*
X161623Y373427D03*
Y369490D03*
X203854Y303921D03*
X206610D03*
X209366D03*
X201098D03*
X198342D03*
X195587D03*
Y301165D03*
X198342D03*
X201098D03*
X209366D03*
X206610D03*
X203854D03*
X137634Y303921D03*
Y301165D03*
X162437Y303921D03*
X159681D03*
X156925D03*
X154169D03*
X151413D03*
X148658D03*
X145902D03*
X143146D03*
X140390D03*
Y301165D03*
X143146D03*
X145902D03*
X148658D03*
X151413D03*
X154169D03*
X156925D03*
X159681D03*
X162437D03*
X221390Y298410D03*
X140390D03*
X195587D03*
X198342D03*
X201098D03*
X209366D03*
X206610D03*
X203854D03*
X114605Y298321D03*
X117342Y298410D03*
X120098D03*
X125610D03*
X122854D03*
X143146D03*
X145902D03*
X148658D03*
X151413D03*
X154169D03*
X156925D03*
X159681D03*
X162437D03*
X158186Y373427D03*
Y369490D03*
X161623Y365553D03*
X158186D03*
X298634Y234959D03*
X301390D03*
X304146D03*
X306902D03*
X309658D03*
X312413D03*
Y237715D03*
X309658D03*
X306902D03*
X304146D03*
X301390D03*
X298634D03*
X326193Y268095D03*
X323437D03*
X320681D03*
X317925D03*
Y270850D03*
X320681D03*
X323437D03*
X326193D03*
Y273606D03*
X323437D03*
X320681D03*
X317925D03*
Y276362D03*
X320681D03*
X323437D03*
X326193D03*
Y279118D03*
X323437D03*
X320681D03*
X317925D03*
Y281874D03*
X320681D03*
X323437D03*
X326193D03*
X298634Y290142D03*
X301390D03*
Y287386D03*
X298634D03*
Y284630D03*
X301390D03*
X326193D03*
Y287386D03*
Y290142D03*
X323437D03*
Y287386D03*
Y284630D03*
X320681D03*
Y287386D03*
Y290142D03*
X317925D03*
Y287386D03*
Y284630D03*
X315169D03*
Y287386D03*
Y290142D03*
X312413D03*
Y287386D03*
Y284630D03*
X309658D03*
Y287386D03*
Y290142D03*
X304146D03*
X306902D03*
Y287386D03*
X304146D03*
Y284630D03*
X306902D03*
X326193Y292898D03*
Y295654D03*
X323437D03*
Y292898D03*
X320681D03*
Y295654D03*
X317925D03*
Y292898D03*
X315169D03*
Y295654D03*
X312413D03*
Y292898D03*
X309658D03*
Y295654D03*
X304146D03*
X306902D03*
Y292898D03*
X304146D03*
X289366Y295654D03*
X286610D03*
X283854D03*
Y292898D03*
X286610D03*
X289366D03*
Y290142D03*
X286610D03*
X283854D03*
Y287386D03*
X286610D03*
X289366D03*
Y284630D03*
X286610D03*
X283854D03*
X281098Y292898D03*
Y290142D03*
Y287386D03*
Y284630D03*
X275587Y287386D03*
Y284630D03*
X278342D03*
Y287386D03*
X281098Y295654D03*
X278342D03*
Y290142D03*
Y292898D03*
X275587D03*
Y290142D03*
Y295654D03*
X312413Y254250D03*
Y251495D03*
Y248739D03*
Y245983D03*
X309658D03*
Y248739D03*
Y251495D03*
Y254250D03*
X298634D03*
X301390D03*
X304146D03*
X306902D03*
Y251495D03*
X304146D03*
X301390D03*
X298634D03*
Y248739D03*
X301390D03*
X304146D03*
X306902D03*
Y245983D03*
X304146D03*
X301390D03*
X298634D03*
X312413Y240471D03*
Y243227D03*
X309658D03*
Y240471D03*
X306902D03*
X304146D03*
X301390D03*
X298634D03*
Y243227D03*
X301390D03*
X304146D03*
X306902D03*
X275587Y254250D03*
Y251495D03*
X278342D03*
Y254250D03*
X289366D03*
X286610D03*
X283854D03*
X281098D03*
Y251495D03*
X283854D03*
X286610D03*
X289366D03*
Y248739D03*
X286610D03*
X283854D03*
X281098D03*
Y245983D03*
X283854D03*
X286610D03*
X289366D03*
X278342D03*
Y248739D03*
X275587D03*
Y245983D03*
X283854Y240471D03*
X286610D03*
X289366D03*
Y243227D03*
X286610D03*
X283854D03*
X281098D03*
Y240471D03*
X278342D03*
Y243227D03*
X275587D03*
Y240471D03*
X224146Y245983D03*
X226902D03*
Y248739D03*
X224146D03*
Y251495D03*
X226902D03*
Y254250D03*
X224146D03*
X229657D03*
Y251495D03*
Y248739D03*
Y245983D03*
X232413D03*
Y248739D03*
Y251495D03*
Y254250D03*
X226902Y243227D03*
X224146D03*
Y240471D03*
X226902D03*
X229657D03*
Y243227D03*
X232413D03*
Y240471D03*
X237925Y268095D03*
X240681D03*
X243437D03*
X246193D03*
Y281874D03*
X243437D03*
X240681D03*
X237925D03*
Y279118D03*
X240681D03*
X243437D03*
X246193D03*
Y276362D03*
X243437D03*
X240681D03*
X237925D03*
Y273606D03*
X240681D03*
X243437D03*
X246193D03*
Y270850D03*
X243437D03*
X240681D03*
X237925D03*
X224146Y292898D03*
X226902D03*
Y295654D03*
X224146D03*
X229657D03*
Y292898D03*
X232413D03*
Y295654D03*
X235169D03*
Y292898D03*
X237925D03*
Y295654D03*
X240681D03*
Y292898D03*
X243437D03*
Y295654D03*
X246193D03*
Y292898D03*
X226902Y284630D03*
X224146D03*
Y287386D03*
X226902D03*
Y290142D03*
X224146D03*
X229657D03*
Y287386D03*
Y284630D03*
X232413D03*
Y287386D03*
Y290142D03*
X235169D03*
Y287386D03*
Y284630D03*
X237925D03*
Y287386D03*
Y290142D03*
X240681D03*
Y287386D03*
Y284630D03*
X243437D03*
Y287386D03*
Y290142D03*
X246193D03*
Y287386D03*
Y284630D03*
X313875Y196368D03*
Y192432D03*
X310725D03*
Y196368D03*
X312300Y194400D03*
X223646Y276330D03*
Y273574D03*
Y262550D03*
Y265306D03*
Y268062D03*
Y270818D03*
X226402Y276330D03*
Y273574D03*
Y262550D03*
Y265306D03*
Y268062D03*
Y270818D03*
X229748Y269440D03*
X223646Y259795D03*
Y279086D03*
Y281842D03*
Y257039D03*
X229748Y258417D03*
Y280464D03*
X292622Y270818D03*
Y268062D03*
Y265306D03*
Y262550D03*
Y273574D03*
Y276330D03*
X295378D03*
Y273574D03*
Y262550D03*
Y265306D03*
Y268062D03*
Y270818D03*
X298134Y276330D03*
Y273574D03*
Y262550D03*
Y265306D03*
Y268062D03*
Y270818D03*
X300890Y276330D03*
Y273574D03*
Y262550D03*
Y265306D03*
Y268062D03*
Y270818D03*
X303646Y276330D03*
Y273574D03*
Y262550D03*
Y265306D03*
Y268062D03*
Y270818D03*
X306402Y276330D03*
Y273574D03*
Y262550D03*
Y265306D03*
Y268062D03*
Y270818D03*
X309748Y269440D03*
X303646Y259795D03*
X300890D03*
X303646Y279086D03*
X300890D03*
X303646Y281842D03*
X300890D03*
Y257039D03*
X303646D03*
X309748Y258417D03*
Y280464D03*
X289866Y276330D03*
Y273574D03*
Y262550D03*
Y265306D03*
Y268062D03*
Y270818D03*
X287110Y276330D03*
Y273574D03*
Y262550D03*
Y265306D03*
Y268062D03*
Y270818D03*
X284354Y276330D03*
Y273574D03*
Y262550D03*
Y265306D03*
Y268062D03*
Y270818D03*
X281598Y276330D03*
Y273574D03*
Y262550D03*
Y265306D03*
Y268062D03*
Y270818D03*
X278252Y269440D03*
Y280464D03*
Y258417D03*
X284354Y279086D03*
X287110D03*
X284354Y281842D03*
X287110D03*
X284354Y259795D03*
X287110D03*
X284354Y257039D03*
X287110D03*
X298634Y303921D03*
Y301165D03*
X304146Y303921D03*
X306902D03*
X309658D03*
X312413D03*
X315169D03*
X317925D03*
X320681D03*
X323437D03*
X326193D03*
X301390D03*
Y301165D03*
X326193D03*
X323437D03*
X320681D03*
X317925D03*
X315169D03*
X312413D03*
X309658D03*
X306902D03*
X304146D03*
X301390Y298410D03*
X326193D03*
X323437D03*
X320681D03*
X317925D03*
X315169D03*
X312413D03*
X309658D03*
X306902D03*
X304146D03*
X283854D03*
X286610D03*
X281098D03*
X278342D03*
X275570Y298277D03*
X224146Y298410D03*
X226902D03*
X229657D03*
X232451Y298294D03*
X235207D03*
X237992Y298255D03*
X240681Y298410D03*
X243437D03*
X246193D03*
X327186Y450490D03*
Y454427D03*
X337060Y450490D03*
Y454427D03*
X333623Y450490D03*
Y454427D03*
X330623D03*
Y450490D03*
X327186Y446553D03*
X337060D03*
X333623D03*
X330623D03*
X393242Y237715D03*
X395998D03*
X404266D03*
X401510D03*
X398754D03*
X393242Y245983D03*
Y248739D03*
X395998Y243227D03*
Y240471D03*
X393242Y295654D03*
X390487D03*
X395998D03*
X387731Y290142D03*
X390487Y292898D03*
X393242D03*
Y290142D03*
X390487D03*
X470487Y254250D03*
Y251495D03*
X473242D03*
Y254250D03*
Y245983D03*
Y248739D03*
X470487D03*
Y245983D03*
X473242Y240471D03*
Y243227D03*
X470487D03*
Y240471D03*
Y287386D03*
Y284630D03*
X473242D03*
Y287386D03*
Y295654D03*
Y290142D03*
Y292898D03*
X470487D03*
Y290142D03*
Y295654D03*
X432825Y268095D03*
X435581D03*
X438337D03*
X441093D03*
Y281874D03*
X438337D03*
X435581D03*
X432825D03*
Y279118D03*
X435581D03*
X438337D03*
X441093D03*
Y276362D03*
X438337D03*
X435581D03*
X432825D03*
Y273606D03*
X435581D03*
X438337D03*
X441093D03*
Y270850D03*
X438337D03*
X435581D03*
X432825D03*
X424557Y295654D03*
Y292898D03*
X427313D03*
Y295654D03*
X430069D03*
Y292898D03*
X432825D03*
Y295654D03*
X435581D03*
Y292898D03*
X438337D03*
Y295654D03*
X441093D03*
Y292898D03*
X424557Y290142D03*
Y287386D03*
Y284630D03*
X427313D03*
Y287386D03*
Y290142D03*
X430069D03*
Y287386D03*
Y284630D03*
X432825D03*
Y287386D03*
Y290142D03*
X435581D03*
Y287386D03*
Y284630D03*
X438337D03*
Y287386D03*
Y290142D03*
X441093D03*
Y287386D03*
Y284630D03*
X395998Y290142D03*
Y292898D03*
X398754Y290142D03*
X401510D03*
X404266D03*
Y292898D03*
X401510D03*
X398754D03*
Y295654D03*
X401510D03*
X404266D03*
X395998Y284630D03*
X398754D03*
X401510D03*
X404266D03*
Y287386D03*
X401510D03*
X398754D03*
X395998D03*
X393242D03*
Y284630D03*
X390487D03*
Y287386D03*
X419046Y292898D03*
X421802D03*
Y295654D03*
X419046D03*
X421802Y284630D03*
X419046D03*
X416290D03*
X413534D03*
Y287386D03*
X416290D03*
X419046D03*
X421802D03*
Y290142D03*
X419046D03*
X416290D03*
X413534D03*
X424557Y254250D03*
Y251495D03*
Y248739D03*
Y245983D03*
X427313D03*
Y248739D03*
Y251495D03*
Y254250D03*
X424557Y240471D03*
Y243227D03*
X427313D03*
Y240471D03*
X404266Y245983D03*
X401510D03*
X398754D03*
X395998D03*
Y248739D03*
X398754D03*
X401510D03*
X404266D03*
Y251495D03*
X401510D03*
X398754D03*
X395998D03*
Y254250D03*
X398754D03*
X401510D03*
X404266D03*
X393242D03*
Y251495D03*
X390487D03*
Y254250D03*
X413534Y245983D03*
X416290D03*
X419046D03*
X421802D03*
Y248739D03*
X419046D03*
X416290D03*
X413534D03*
Y251495D03*
X416290D03*
X419046D03*
X421802D03*
Y254250D03*
X419046D03*
X416290D03*
X413534D03*
X398754Y243227D03*
X401510D03*
X404266D03*
Y240471D03*
X401510D03*
X398754D03*
X421802Y243227D03*
X419046D03*
X416290D03*
X413534D03*
Y240471D03*
X416290D03*
X419046D03*
X421802D03*
X407522Y270818D03*
Y268062D03*
Y265306D03*
Y262550D03*
Y273574D03*
Y276330D03*
X410278D03*
Y273574D03*
Y262550D03*
Y265306D03*
Y268062D03*
Y270818D03*
X413034Y276330D03*
Y273574D03*
Y262550D03*
Y265306D03*
Y268062D03*
Y270818D03*
X415790Y276330D03*
Y273574D03*
Y262550D03*
Y265306D03*
Y268062D03*
Y270818D03*
X418546Y276330D03*
Y273574D03*
Y262550D03*
Y265306D03*
Y268062D03*
Y270818D03*
X421302Y276330D03*
Y273574D03*
Y262550D03*
Y265306D03*
Y268062D03*
Y270818D03*
X424648Y269440D03*
X418546Y259795D03*
X415790D03*
X418546Y279086D03*
X415790D03*
X418546Y281842D03*
X415790D03*
Y257039D03*
X418546D03*
X424648Y258417D03*
Y280464D03*
X404766Y276330D03*
Y273574D03*
Y262550D03*
Y265306D03*
Y268062D03*
Y270818D03*
X402010Y276330D03*
Y273574D03*
Y262550D03*
Y265306D03*
Y268062D03*
Y270818D03*
X399254Y276330D03*
Y273574D03*
Y262550D03*
Y265306D03*
Y268062D03*
Y270818D03*
X396498Y276330D03*
Y273574D03*
Y262550D03*
Y265306D03*
Y268062D03*
Y270818D03*
X393152Y269440D03*
Y280464D03*
Y258417D03*
X399254Y279086D03*
X402010D03*
X399254Y281842D03*
X402010D03*
X399254Y259795D03*
X402010D03*
X399254Y257039D03*
X402010D03*
X473152Y269440D03*
Y280464D03*
Y258417D03*
X398754Y303921D03*
X401510D03*
X404266D03*
Y301165D03*
X401510D03*
X398754D03*
X395998Y298410D03*
X390487D03*
X393242D03*
X416290D03*
X473242D03*
X470487D03*
X424557D03*
X427285Y298368D03*
X430041D03*
X432797D03*
X435581Y298410D03*
X438337D03*
X441093D03*
X404266D03*
X401510D03*
X398754D03*
X419046D03*
X421802D03*
X508877Y203010D03*
Y206947D03*
X511877D03*
Y203010D03*
X515314Y206947D03*
Y203010D03*
X505440Y206947D03*
Y203010D03*
X508877Y199073D03*
X511877D03*
X515314D03*
X505440D03*
X510069Y281874D03*
Y279118D03*
Y276362D03*
Y273606D03*
Y270850D03*
Y268095D03*
X591325Y243227D03*
Y240471D03*
X588569D03*
Y243227D03*
X562766Y234959D03*
X560010D03*
X557254D03*
X554498D03*
X551742D03*
X548987D03*
Y237715D03*
X551742D03*
X554498D03*
X557254D03*
X560010D03*
X562766D03*
X554498Y240471D03*
X551742D03*
X548987D03*
Y243227D03*
X551742D03*
X554498D03*
X548987Y245983D03*
Y248739D03*
X551742D03*
Y245983D03*
X493534Y234959D03*
X496290D03*
X499046D03*
X501802D03*
X504558D03*
X507313D03*
Y237715D03*
X504558D03*
X501802D03*
X499046D03*
X496290D03*
X493534D03*
X507313Y248739D03*
Y245983D03*
Y240471D03*
Y243227D03*
X504558D03*
Y240471D03*
X507313Y254250D03*
Y251495D03*
X504558Y245983D03*
Y248739D03*
Y251495D03*
Y254250D03*
X493534D03*
X496290D03*
X499046D03*
X501802D03*
Y251495D03*
X499046D03*
X496290D03*
X493534D03*
Y248739D03*
X496290D03*
X499046D03*
X501802D03*
Y245983D03*
X499046D03*
X496290D03*
X493534D03*
X484266Y254250D03*
X481510D03*
X478754D03*
X475998D03*
Y251495D03*
X478754D03*
X481510D03*
X484266D03*
Y248739D03*
X481510D03*
X478754D03*
X475998D03*
Y245983D03*
X478754D03*
X481510D03*
X484266D03*
X501802Y240471D03*
X499046D03*
X496290D03*
X493534D03*
Y243227D03*
X496290D03*
X499046D03*
X501802D03*
X478754Y240471D03*
X481510D03*
X484266Y243227D03*
X481510D03*
X478754D03*
X475998D03*
Y240471D03*
X518337Y268095D03*
X515581D03*
X512825D03*
Y270850D03*
X515581D03*
X518337D03*
Y273606D03*
X515581D03*
X512825D03*
Y276362D03*
X515581D03*
X518337D03*
Y279118D03*
X515581D03*
X512825D03*
Y281874D03*
X515581D03*
X518337D03*
X493534Y290142D03*
X496290D03*
Y287386D03*
X493534D03*
Y284630D03*
X496290D03*
X499046Y290142D03*
Y287386D03*
Y284630D03*
Y295654D03*
Y292898D03*
X518337Y290142D03*
Y287386D03*
Y284630D03*
X515581D03*
Y287386D03*
Y290142D03*
X512825D03*
Y287386D03*
Y284630D03*
X510069D03*
Y287386D03*
Y290142D03*
X507313D03*
Y287386D03*
Y284630D03*
X504558D03*
Y287386D03*
Y290142D03*
X501802D03*
Y287386D03*
Y284630D03*
X518337Y295654D03*
Y292898D03*
X515581D03*
Y295654D03*
X512825D03*
Y292898D03*
X510069D03*
Y295654D03*
X507313D03*
Y292898D03*
X504558D03*
Y295654D03*
X501802D03*
Y292898D03*
X484266Y295654D03*
X481510D03*
X478754D03*
Y292898D03*
X481510D03*
X484266D03*
Y290142D03*
X481510D03*
X478754D03*
Y287386D03*
X481510D03*
X484266D03*
Y284630D03*
X481510D03*
X478754D03*
X475998Y292898D03*
Y290142D03*
Y287386D03*
Y284630D03*
Y295654D03*
X585813Y254250D03*
Y251495D03*
Y248739D03*
Y245983D03*
X583058D03*
Y248739D03*
Y251495D03*
Y254250D03*
X572034D03*
X574790D03*
X577546D03*
X580302D03*
Y251495D03*
X577546D03*
X574790D03*
X572034D03*
Y248739D03*
X574790D03*
X577546D03*
X580302D03*
Y245983D03*
X577546D03*
X574790D03*
X572034D03*
X585813Y240471D03*
Y243227D03*
X583058D03*
Y240471D03*
X580302D03*
X577546D03*
X574790D03*
X572034D03*
Y243227D03*
X574790D03*
X577546D03*
X580302D03*
X548987Y254250D03*
Y251495D03*
X551742D03*
Y254250D03*
X562766D03*
X560010D03*
X557254D03*
X554498D03*
Y251495D03*
X557254D03*
X560010D03*
X562766D03*
Y248739D03*
X560010D03*
X557254D03*
X554498D03*
Y245983D03*
X557254D03*
X560010D03*
X562766D03*
X557254Y240471D03*
X560010D03*
X562766D03*
Y243227D03*
X560010D03*
X557254D03*
X591325Y270850D03*
X594081D03*
X596837D03*
X599593D03*
Y273606D03*
X596837D03*
X594081D03*
X591325D03*
Y276362D03*
X594081D03*
X596837D03*
X599593D03*
Y279118D03*
X596837D03*
X594081D03*
X591325D03*
Y281874D03*
X594081D03*
X596837D03*
X599593D03*
Y268095D03*
X596837D03*
X594081D03*
X591325D03*
X599593Y284630D03*
Y287386D03*
Y290142D03*
X596837D03*
Y287386D03*
Y284630D03*
X594081D03*
Y287386D03*
Y290142D03*
X591325D03*
Y287386D03*
Y284630D03*
X588569D03*
Y287386D03*
Y290142D03*
X585813D03*
Y287386D03*
Y284630D03*
X583058D03*
Y287386D03*
Y290142D03*
X572034D03*
X574790D03*
X577546D03*
X580302D03*
Y287386D03*
X577546D03*
X574790D03*
X572034D03*
Y284630D03*
X574790D03*
X577546D03*
X580302D03*
X599593Y292898D03*
Y295654D03*
X596837D03*
Y292898D03*
X594081D03*
Y295654D03*
X591325D03*
Y292898D03*
X588569D03*
Y295654D03*
X585813D03*
Y292898D03*
X583058D03*
Y295654D03*
X577546D03*
X580302D03*
Y292898D03*
X577546D03*
X548987Y287386D03*
Y284630D03*
X551742D03*
Y287386D03*
X554498D03*
X557254D03*
X560010D03*
X562766D03*
Y284630D03*
X560010D03*
X557254D03*
X554498D03*
X562766Y295654D03*
X560010D03*
X557254D03*
Y292898D03*
X560010D03*
X562766D03*
Y290142D03*
X560010D03*
X557254D03*
X554498Y292898D03*
Y290142D03*
Y295654D03*
X551742D03*
Y290142D03*
Y292898D03*
X548987D03*
Y290142D03*
Y295654D03*
X487522Y270818D03*
Y268062D03*
Y265306D03*
Y262550D03*
Y273574D03*
Y276330D03*
X490278D03*
Y273574D03*
Y262550D03*
Y265306D03*
Y268062D03*
Y270818D03*
X493034Y276330D03*
Y273574D03*
Y262550D03*
Y265306D03*
Y268062D03*
Y270818D03*
X495790Y276330D03*
Y273574D03*
Y262550D03*
Y265306D03*
Y268062D03*
Y270818D03*
X498546Y276330D03*
Y273574D03*
Y262550D03*
Y265306D03*
Y268062D03*
Y270818D03*
X501302Y276330D03*
Y273574D03*
Y262550D03*
Y265306D03*
Y268062D03*
Y270818D03*
X504648Y269440D03*
X498546Y259795D03*
X495790D03*
X498546Y279086D03*
X495790D03*
X498546Y281842D03*
X495790D03*
Y257039D03*
X498546D03*
X504648Y258417D03*
Y280464D03*
X484766Y276330D03*
Y273574D03*
Y262550D03*
Y265306D03*
Y268062D03*
Y270818D03*
X482010Y276330D03*
Y273574D03*
Y262550D03*
Y265306D03*
Y268062D03*
Y270818D03*
X479254Y276330D03*
Y273574D03*
Y262550D03*
Y265306D03*
Y268062D03*
Y270818D03*
X476498Y276330D03*
Y273574D03*
Y262550D03*
Y265306D03*
Y268062D03*
Y270818D03*
X479254Y279086D03*
X482010D03*
X479254Y281842D03*
X482010D03*
X479254Y259795D03*
X482010D03*
X479254Y257039D03*
X482010D03*
X566022Y270818D03*
Y268062D03*
Y265306D03*
Y262550D03*
Y273574D03*
Y276330D03*
X568778D03*
Y273574D03*
Y262550D03*
Y265306D03*
Y268062D03*
Y270818D03*
X571534Y276330D03*
Y273574D03*
Y262550D03*
Y265306D03*
Y268062D03*
Y270818D03*
X574290Y276330D03*
Y273574D03*
Y262550D03*
Y265306D03*
Y268062D03*
Y270818D03*
X577046Y276330D03*
Y273574D03*
Y262550D03*
Y265306D03*
Y268062D03*
Y270818D03*
X579802Y276330D03*
Y273574D03*
Y262550D03*
Y265306D03*
Y268062D03*
Y270818D03*
X583148Y269440D03*
X577046Y259795D03*
X574290D03*
X577046Y279086D03*
X574290D03*
X577046Y281842D03*
X574290D03*
Y257039D03*
X577046D03*
X583148Y258417D03*
Y280464D03*
X563266Y276330D03*
Y273574D03*
Y262550D03*
Y265306D03*
Y268062D03*
Y270818D03*
X560510Y276330D03*
Y273574D03*
Y262550D03*
Y265306D03*
Y268062D03*
Y270818D03*
X557754Y276330D03*
Y273574D03*
Y262550D03*
Y265306D03*
Y268062D03*
Y270818D03*
X554998Y276330D03*
Y273574D03*
Y262550D03*
Y265306D03*
Y268062D03*
Y270818D03*
X551652Y269440D03*
Y280464D03*
Y258417D03*
X557754Y279086D03*
X560510D03*
X557754Y281842D03*
X560510D03*
X557754Y259795D03*
X560510D03*
X557754Y257039D03*
X560510D03*
X497686Y371990D03*
Y375927D03*
X507560Y371990D03*
Y375927D03*
X504123Y371990D03*
Y375927D03*
X501123D03*
Y371990D03*
X497686Y368053D03*
X507560D03*
X504123D03*
X493534Y298410D03*
X548987Y303921D03*
X551742D03*
X554498D03*
X562766D03*
X560010D03*
X557254D03*
Y301165D03*
X560010D03*
X562766D03*
X554498D03*
X551742D03*
X548987D03*
X493534D03*
X496290D03*
X499046D03*
X518337D03*
X515581D03*
X512825D03*
X510069D03*
X507313D03*
X504558D03*
X501802D03*
X574790Y298410D03*
X496290D03*
X499046D03*
X518337D03*
X515581D03*
X512825D03*
X510069D03*
X507313D03*
X504558D03*
X501802D03*
X478754D03*
X481510D03*
X475998D03*
X599593D03*
X596837D03*
X594081D03*
X591370Y298274D03*
X588614D03*
X585858D03*
X583058Y298410D03*
X580302D03*
X577546D03*
X557254D03*
X560010D03*
X562766D03*
X554498D03*
X551742D03*
X548987D03*
X501123Y368053D03*
X663058Y234959D03*
Y237715D03*
X660302Y234959D03*
X657546D03*
X654790D03*
X652034D03*
Y237715D03*
X654790D03*
X657546D03*
X660302D03*
X628987Y245983D03*
Y248739D03*
X631742D03*
Y245983D03*
X642766D03*
X640010D03*
X637254D03*
X634498D03*
Y248739D03*
X637254D03*
X640010D03*
X642766D03*
Y251495D03*
X640010D03*
X637254D03*
X634498D03*
Y254250D03*
X637254D03*
X640010D03*
X642766D03*
X631742D03*
Y251495D03*
X628987D03*
Y254250D03*
X652034Y245983D03*
X654790D03*
X657546D03*
X660302D03*
Y248739D03*
X657546D03*
X654790D03*
X652034D03*
Y251495D03*
X654790D03*
X657546D03*
X660302D03*
Y254250D03*
X657546D03*
X654790D03*
X652034D03*
X663058D03*
Y251495D03*
Y248739D03*
Y245983D03*
X665813Y251495D03*
Y254250D03*
X628987Y240471D03*
Y243227D03*
X631742D03*
Y240471D03*
X634498D03*
Y243227D03*
X637254D03*
X640010D03*
X642766D03*
Y240471D03*
X640010D03*
X637254D03*
X660302Y243227D03*
X657546D03*
X654790D03*
X652034D03*
Y240471D03*
X654790D03*
X657546D03*
X660302D03*
X679593Y281874D03*
X676837D03*
X674081D03*
X671325D03*
Y279118D03*
X674081D03*
X676837D03*
X679593D03*
Y276362D03*
X676837D03*
X674081D03*
X671325D03*
Y273606D03*
X674081D03*
X676837D03*
X679593D03*
Y270850D03*
X676837D03*
X674081D03*
X671325D03*
Y268095D03*
X674081D03*
X676837D03*
X679593D03*
X660302Y292898D03*
Y295654D03*
X663058D03*
Y292898D03*
X665813D03*
Y295654D03*
X668569D03*
Y292898D03*
X671325D03*
Y295654D03*
X674081D03*
Y292898D03*
X676837D03*
Y295654D03*
X679593D03*
Y292898D03*
X660302Y284630D03*
Y287386D03*
Y290142D03*
X663058D03*
Y287386D03*
Y284630D03*
X665813D03*
Y287386D03*
Y290142D03*
X668569D03*
Y287386D03*
Y284630D03*
X671325D03*
Y287386D03*
Y290142D03*
X674081D03*
Y287386D03*
Y284630D03*
X676837D03*
Y287386D03*
Y290142D03*
X679593D03*
Y287386D03*
Y284630D03*
X628987Y295654D03*
Y290142D03*
Y292898D03*
X631742D03*
Y290142D03*
Y295654D03*
X634498D03*
X631742Y287386D03*
Y284630D03*
X628987D03*
Y287386D03*
X634498Y284630D03*
Y287386D03*
Y290142D03*
Y292898D03*
X637254Y284630D03*
X640010D03*
X642766D03*
Y287386D03*
X640010D03*
X637254D03*
Y290142D03*
X640010D03*
X642766D03*
Y292898D03*
X640010D03*
X637254D03*
Y295654D03*
X640010D03*
X642766D03*
X657546Y292898D03*
Y295654D03*
Y284630D03*
Y287386D03*
Y290142D03*
X654790Y284630D03*
X652034D03*
Y287386D03*
X654790D03*
Y290142D03*
X652034D03*
X646022Y270818D03*
Y268062D03*
Y265306D03*
Y262550D03*
Y273574D03*
Y276330D03*
X648778D03*
Y273574D03*
Y262550D03*
Y265306D03*
Y268062D03*
Y270818D03*
X651534Y276330D03*
Y273574D03*
Y262550D03*
Y265306D03*
Y268062D03*
Y270818D03*
X654290Y276330D03*
Y273574D03*
Y262550D03*
Y265306D03*
Y268062D03*
Y270818D03*
X657046Y276330D03*
Y273574D03*
Y262550D03*
Y265306D03*
Y268062D03*
Y270818D03*
X659802Y276330D03*
Y273574D03*
Y262550D03*
Y265306D03*
Y268062D03*
Y270818D03*
X663148Y269440D03*
X657046Y259795D03*
X654290D03*
X657046Y279086D03*
X654290D03*
X657046Y281842D03*
X654290D03*
Y257039D03*
X657046D03*
X663148Y258417D03*
Y280464D03*
X643266Y276330D03*
Y273574D03*
Y262550D03*
Y265306D03*
Y268062D03*
Y270818D03*
X640510Y276330D03*
Y273574D03*
Y262550D03*
Y265306D03*
Y268062D03*
Y270818D03*
X637754Y276330D03*
Y273574D03*
Y262550D03*
Y265306D03*
Y268062D03*
Y270818D03*
X634998Y276330D03*
Y273574D03*
Y262550D03*
Y265306D03*
Y268062D03*
Y270818D03*
X631652Y269440D03*
Y280464D03*
Y258417D03*
X637754Y279086D03*
X640510D03*
X637754Y281842D03*
X640510D03*
X637754Y259795D03*
X640510D03*
X637754Y257039D03*
X640510D03*
X652034Y303921D03*
Y301165D03*
X657546Y303921D03*
X679593D03*
X676837D03*
X674081D03*
X671325D03*
X668569D03*
X665813D03*
X663058D03*
X660302D03*
X654790D03*
Y301165D03*
X660302D03*
X663058D03*
X665813D03*
X668569D03*
X671325D03*
X674081D03*
X676837D03*
X679593D03*
X657546D03*
X654790Y298410D03*
X660302D03*
X663058D03*
X665813D03*
X668569D03*
X671325D03*
X674081D03*
X676837D03*
X679593D03*
X629010Y298342D03*
X631766D03*
X634498Y298410D03*
X642600Y298200D03*
X640010Y298410D03*
X637254D03*
X657546D03*
G54D42*
X178047Y494276D03*
X183953D03*
G54D61*
X263105Y409793D03*
X255231D03*
X263105Y421604D03*
X255231D03*
X265270Y415699D03*
X253065D03*
X263105Y428593D03*
X255231D03*
X263105Y440404D03*
X255231D03*
X265270Y434499D03*
X253065D03*
G54D25*
X217000Y140000D03*
Y120000D03*
X237000Y140000D03*
Y120000D03*
X575000Y140000D03*
X555000D03*
X575000Y120000D03*
X555000D03*
G54D34*
X135200Y425344D03*
G54D52*
X312300Y194400D03*
G54D70*
X420708Y533307D03*
G54D16*
X71707Y389527D03*
X69148D03*
X66589D03*
X64029D03*
X61471D03*
X58911D03*
X56352D03*
X53793D03*
Y411385D03*
X56352D03*
X58911D03*
X61471D03*
X64029D03*
X66589D03*
X69148D03*
X71707D03*
X114463Y330514D03*
X111904D03*
X109345D03*
X106786D03*
X104227D03*
X101667D03*
X99108D03*
X96549D03*
Y352372D03*
X99108D03*
X101667D03*
X104227D03*
X106786D03*
X109345D03*
X111904D03*
X114463D03*
X145757Y505271D03*
X143198D03*
X140639D03*
X138080D03*
X135520D03*
X132961D03*
X130402D03*
X127843D03*
Y527129D03*
X130402D03*
X132961D03*
X135520D03*
X138080D03*
X140639D03*
X143198D03*
X145757D03*
X454963Y330514D03*
X452404D03*
X449845D03*
X447286D03*
X444727D03*
X442167D03*
X439608D03*
X437049D03*
Y352372D03*
X439608D03*
X442167D03*
X444727D03*
X447286D03*
X449845D03*
X452404D03*
X454963D03*
X457357Y405771D03*
X454798D03*
X452239D03*
X449680D03*
X447121D03*
X444561D03*
X442002D03*
X439443D03*
Y427629D03*
X442002D03*
X444561D03*
X447121D03*
X449680D03*
X452239D03*
X454798D03*
X457357D03*
G54D43*
X181000Y486500D03*
G54D80*
X590755Y352537D03*
G54D26*
X201667Y97678D03*
X199022Y100322D03*
X196378Y97678D03*
X199022Y100322D03*
X186050Y358350D03*
X188695Y360995D03*
X139950Y358350D03*
X137305Y360995D03*
X187563Y380602D03*
X184918Y383246D03*
X136173Y380602D03*
X138818Y383246D03*
X141363Y380602D03*
X138718Y383246D03*
X139850Y358350D03*
X142495Y360995D03*
X186150Y358350D03*
X183505Y360995D03*
X182373Y380602D03*
X185018Y383246D03*
X588237Y94318D03*
X585592Y96963D03*
X582947Y94318D03*
X585592Y96963D03*
X481863Y379102D03*
X479219Y381746D03*
X476673Y379102D03*
X479318Y381746D03*
X528063Y379102D03*
X525418Y381746D03*
X480350Y356850D03*
X482995Y359495D03*
X480450Y356850D03*
X477805Y359495D03*
X526550Y356850D03*
X529195Y359495D03*
X526650Y356850D03*
X524005Y359495D03*
X522873Y379102D03*
X525518Y381746D03*
G54D62*
X309428Y454514D03*
X313178Y445814D03*
X305678D03*
X623845Y110891D03*
X627595Y102191D03*
X620095D03*
G54D44*
X183750Y459340D03*
Y456780D03*
Y454220D03*
Y451660D03*
X166250D03*
Y454220D03*
Y456780D03*
Y459340D03*
X246750D03*
Y456780D03*
Y454220D03*
Y451660D03*
X229250D03*
Y454220D03*
Y456780D03*
Y459340D03*
G54D71*
X576240Y360363D03*
X568760D03*
Y368237D03*
G54D53*
X334409Y402859D03*
X330472D03*
X328504D03*
X326535D03*
X324567D03*
X334409Y413883D03*
X330472D03*
X328504D03*
X326535D03*
X324567D03*
X655024Y123038D03*
Y108077D03*
X653056Y123038D03*
Y108077D03*
X651087Y123038D03*
Y108077D03*
X649118Y123038D03*
Y108077D03*
G54D35*
X200230Y405889D03*
X174246D03*
G54D17*
X55020Y345921D03*
Y343953D03*
Y341984D03*
Y340016D03*
Y338047D03*
Y336079D03*
X69980D03*
Y338047D03*
Y340016D03*
Y341984D03*
Y343953D03*
Y345921D03*
G54D81*
X595873Y323403D03*
G54D45*
X186904Y431621D03*
X214070D03*
G54D90*
X524109Y439166D03*
X521550D03*
X518991D03*
X524109Y446647D03*
X521550D03*
X518991D03*
G54D72*
X575453Y368237D03*
G54D36*
X161868Y394195D03*
Y396595D03*
G54D54*
X336968Y405418D03*
X322008D03*
X336968Y407387D03*
X322008D03*
X336968Y409355D03*
X322008D03*
X336968Y411324D03*
X322008D03*
X657583Y120479D03*
Y116542D03*
Y114573D03*
Y112605D03*
Y110636D03*
X646559Y120479D03*
Y116542D03*
Y114573D03*
Y112605D03*
Y110636D03*
G54D27*
X203042Y211247D03*
Y213216D03*
Y215184D03*
Y217153D03*
X195758D03*
Y215184D03*
Y213216D03*
Y211247D03*
X555242D03*
Y213216D03*
Y215184D03*
Y217153D03*
X547958D03*
Y215184D03*
Y213216D03*
Y211247D03*
G54D18*
X57579Y333520D03*
X59547D03*
X61516D03*
X63484D03*
X65453D03*
X67421D03*
Y348480D03*
X65453D03*
X63484D03*
X61516D03*
X59547D03*
X57579D03*
G54D63*
X291181Y513622D03*
G54D28*
X199400Y214200D03*
X551600D03*
G54D73*
X559992Y421402D03*
Y415890D03*
Y410378D03*
Y473764D03*
Y468252D03*
Y462740D03*
Y457228D03*
Y451717D03*
Y432425D03*
Y426913D03*
X645031Y410378D03*
Y415890D03*
Y421402D03*
Y426913D03*
Y432425D03*
Y451717D03*
Y457228D03*
Y462740D03*
Y468252D03*
Y473764D03*
G54D46*
X216248Y459600D03*
X219748D03*
X192559Y460300D03*
X196059D03*
X153248Y459500D03*
X156748D03*
X192559Y455100D03*
X196059D03*
X192559Y450900D03*
X196059D03*
Y446300D03*
X192559D03*
X255559Y460300D03*
X259059D03*
X255559Y450500D03*
X259059D03*
X255559Y455100D03*
X259059D03*
Y445900D03*
X255559D03*
X548973Y445772D03*
X545473D03*
X548973Y458740D03*
X545473D03*
X548973Y462740D03*
X545473D03*
X481032Y465787D03*
X477532D03*
X503780Y445913D03*
X507280D03*
X595228Y493013D03*
Y496513D03*
X481032Y460687D03*
X477532D03*
X504480Y480713D03*
X507980D03*
X504480Y485813D03*
X507980D03*
X573181Y493013D03*
Y496513D03*
X516742Y493273D03*
Y496773D03*
X663903Y90993D03*
Y87493D03*
X625456Y90227D03*
Y93727D03*
X658113Y451717D03*
X661613D03*
G54D64*
X308504Y527992D03*
Y522677D03*
Y517362D03*
Y512047D03*
Y506732D03*
Y533307D03*
X315984Y527992D03*
Y522677D03*
Y517362D03*
Y512047D03*
Y506732D03*
Y533307D03*
X323464Y506732D03*
Y512047D03*
Y517362D03*
Y522677D03*
Y527992D03*
Y533307D03*
X330945Y506732D03*
Y512047D03*
Y517362D03*
Y522677D03*
Y527992D03*
Y533307D03*
X338425Y506732D03*
Y512047D03*
Y517362D03*
Y522677D03*
Y527992D03*
Y533307D03*
X345905Y506732D03*
Y512047D03*
Y517362D03*
Y522677D03*
Y527992D03*
Y533307D03*
X353386Y506732D03*
Y522677D03*
Y527992D03*
Y517362D03*
Y512047D03*
Y533307D03*
X360866Y506732D03*
Y522677D03*
Y527992D03*
Y517362D03*
Y512047D03*
Y533307D03*
X420708Y506732D03*
X413228D03*
X420708Y512047D03*
X413228D03*
X368346Y517362D03*
X375827D03*
X368346Y522677D03*
X375827D03*
X368346Y527992D03*
X375827D03*
X368346Y533307D03*
X375827D03*
X383307D03*
X390787D03*
X398268D03*
X405748D03*
X413228D03*
X383307Y527992D03*
X390787D03*
X398268D03*
X405748D03*
X413228D03*
X420708D03*
X383307Y522677D03*
X390787D03*
X398268D03*
X405748D03*
X413228D03*
X420708D03*
X383307Y517362D03*
X390787D03*
X398268D03*
X405748D03*
X413228D03*
X420708D03*
X405748Y512047D03*
X398268D03*
X390787D03*
X383307D03*
X375827D03*
X368346D03*
X405748Y506732D03*
X398268D03*
X390787D03*
X383307D03*
X375827D03*
X368346D03*
G54D91*
X489100Y443363D03*
Y440813D03*
Y445913D03*
X496600D03*
Y443363D03*
Y440813D03*
X496000Y463237D03*
Y465787D03*
Y460687D03*
X488500D03*
Y463237D03*
Y465787D03*
X489400Y483263D03*
Y480713D03*
Y485813D03*
X496900D03*
Y483263D03*
Y480713D03*
G54D37*
X144946Y368446D03*
X143814Y370414D03*
X146078D03*
Y372383D03*
X143814D03*
X191146Y368446D03*
X190014Y370414D03*
X192278D03*
Y372383D03*
X190014D03*
X181054Y368446D03*
X179922Y370414D03*
X182186D03*
Y372383D03*
X179922D03*
X133722Y370414D03*
Y372383D03*
X135986D03*
Y370414D03*
X134854Y368446D03*
X474223Y368914D03*
Y370883D03*
X521554Y366946D03*
X520422Y368914D03*
X522686D03*
Y370883D03*
X520422D03*
X485446Y366946D03*
X484314Y368914D03*
X486577D03*
Y370883D03*
X484314D03*
X531646Y366946D03*
X530514Y368914D03*
X532778D03*
Y370883D03*
X530514D03*
X476486D03*
Y368914D03*
X475354Y366946D03*
G54D55*
X333720Y408371D03*
G54D82*
X502368Y393839D03*
X504337D03*
X500400D03*
G54D19*
X62500Y341000D03*
G54D74*
X567669Y403488D03*
X573181D03*
X578692D03*
X584204D03*
X589716D03*
X595228D03*
Y480654D03*
X589716D03*
X584204D03*
X578692D03*
X573181D03*
X567669D03*
X615307Y403488D03*
X620818D03*
X626330D03*
X631842D03*
X637354D03*
Y480654D03*
X631842D03*
X626330D03*
X620818D03*
X615307D03*
G54D83*
X506030Y395532D03*
Y397500D03*
Y399468D03*
G54D92*
X487110Y504254D03*
Y496773D03*
X476874D03*
Y500513D03*
Y504254D03*
G54D65*
X359842Y-24040D03*
G54D47*
X179032Y484531D03*
Y488468D03*
X182968Y484531D03*
Y488468D03*
G54D29*
X221250Y225986D03*
X195050Y198400D03*
X188950D03*
X158093Y184745D03*
X164193D03*
X184250D03*
X178150D03*
X189350Y324100D03*
X183250D03*
X221550Y376719D03*
X215450D03*
X221550Y386468D03*
X215450D03*
X221550Y396500D03*
X215450D03*
X221550Y406165D03*
X215450D03*
X227350Y225986D03*
X294858Y206400D03*
X300958D03*
X401089Y495096D03*
X394989D03*
X385350Y494800D03*
X379250D03*
X579050Y225986D03*
X572950D03*
X546750Y198400D03*
X540650D03*
X511293Y184545D03*
X517393D03*
X535950D03*
X529850D03*
X530350Y322800D03*
X524250D03*
X548050Y497500D03*
X554150D03*
X671311Y108493D03*
X665211D03*
X617103Y170743D03*
X611003D03*
X623911Y209393D03*
X617811D03*
X663413Y438831D03*
X657313D03*
G54D38*
X200576Y543275D03*
Y540716D03*
Y538157D03*
Y535598D03*
Y533039D03*
Y530480D03*
Y527920D03*
Y525361D03*
Y522802D03*
Y520243D03*
Y517684D03*
Y515125D03*
X222624Y543275D03*
Y540716D03*
Y538157D03*
Y535598D03*
Y533039D03*
Y530480D03*
Y527920D03*
Y525361D03*
Y522802D03*
Y520243D03*
Y517684D03*
Y515125D03*
X509924Y512925D03*
Y515484D03*
Y518043D03*
Y520602D03*
Y523161D03*
Y525720D03*
Y528280D03*
Y530839D03*
Y533398D03*
Y535957D03*
Y538516D03*
Y541075D03*
X487876Y512925D03*
Y515484D03*
Y518043D03*
Y520602D03*
Y523161D03*
Y525720D03*
Y528280D03*
Y530839D03*
Y533398D03*
Y535957D03*
Y538516D03*
Y541075D03*
G54D56*
X330689Y408371D03*
G54D75*
X530406Y332644D03*
X537099D03*
X530401Y340155D03*
X537094D03*
G54D66*
X365239Y356437D03*
X382561D03*
X365239Y354468D03*
X382561D03*
X365239Y352500D03*
X382561D03*
X365239Y350532D03*
X382561D03*
X365239Y348563D03*
X382561D03*
G54D84*
X504337Y401161D03*
X502368D03*
X500400D03*
G54D48*
X350000Y-24040D03*
X340158D03*
G54D57*
X350850Y407680D03*
X372650D03*
G54D39*
X174209Y481579D03*
Y483547D03*
Y485516D03*
Y487484D03*
Y489453D03*
Y491421D03*
G54D93*
X656998Y138726D03*
Y162348D03*
G54D76*
X503352Y417159D03*
G54D49*
X328700Y171053D03*
X313032Y212070D03*
X300900Y216100D03*
X313840Y383790D03*
X234800Y356100D03*
X254341Y376050D03*
X267240Y375900D03*
X308230Y430540D03*
X469050Y404250D03*
X349980Y454380D03*
X349815Y441702D03*
X557700Y373800D03*
X557645Y386744D03*
X620450Y130209D03*
X610629Y159017D03*
X633655Y149155D03*
X671909Y217650D03*
X608211Y207372D03*
X672420Y445160D03*
G54D94*
X652071Y119790D03*
G54D85*
X498707Y399468D03*
Y397500D03*
Y395532D03*
G54D58*
X341022Y386470D03*
X351258D03*
G54D67*
X394822Y411090D03*
X382618D03*
X394575Y454678D03*
X382370D03*
G54D68*
X383533Y422747D03*
X394163D03*
X383698Y432828D03*
X394328D03*
X383698Y442828D03*
X394328D03*
G54D77*
X506305Y417159D03*
X504337Y414600D03*
X502368D03*
X506305D03*
X502368Y419718D03*
X504337D03*
X506305D03*
G54D95*
X652071Y116758D03*
G54D86*
X502368Y397500D03*
G54D59*
X339473Y423030D03*
Y433266D03*
G54D96*
X641002Y171985D03*
X650654D03*
X660406D03*
X641002Y182221D03*
X650654D03*
X660406D03*
G54D87*
X557271Y514343D03*
Y516902D03*
Y519461D03*
Y522020D03*
Y524580D03*
Y527139D03*
Y529698D03*
Y532257D03*
X579129D03*
Y529698D03*
Y527139D03*
Y524580D03*
Y522020D03*
Y519461D03*
Y516902D03*
Y514343D03*
G54D69*
X364400Y458333D03*
Y437467D03*
G54D78*
X541060Y413002D03*
Y388198D03*
G54D79*
X592035Y359899D03*
G54D88*
X538393Y493023D03*
X529693Y489273D03*
Y496773D03*
G54D97*
X629126Y170745D03*
X672026Y172245D03*
X671943Y194637D03*
Y206842D03*
X629126Y182950D03*
X672026Y184450D03*
G54D98*
X629868Y119307D03*
X637742D03*
X674332Y121931D03*
X666458D03*
G54D89*
X521550Y442907D03*
G54D99*
X630080Y127557D03*
X637167D03*
X673620Y130043D03*
X666533D03*
M02*
