M48
INCH,TZ
T01C.008
T02C.01
T03C.015354
T04C.035433
T05C.055118
T06C.059055
T07C.145669
T08C.149606
;LEADER: 12 
;HEADER: 
;CODE  : ASCII 
;FILE  : OC_CONNECT_1_FRONTEND_LIFE-3-1-6.drl for  ... layers TOP and L6-GND2
;T01 Holesize 1. = 8.000000 Tolerance = +3.000000/-8.000000 PLATED MILS Quantity = 1727
%
G90
T01
X88343Y523843
X90902Y523843
X80250Y481000
X84250Y481000
X93461Y523843
X83225Y501675
X83225Y523725
X85784Y512816
X89050Y460280
X88949Y451349
X45600Y425200
X92700Y380900
X92700Y377400
X89200Y377400
X69148Y395234
X58911Y381100
X53793Y381100
X64030Y382600
X54550Y376350
X57168Y427698
X81100Y388400
X81100Y391900
X77600Y388400
X77600Y391900
X75868Y427698
X61768Y427698
X71168Y427698
X66568Y427698
X83423Y397478
X49829Y428329
X56352Y383707
X86500Y389600
X90000Y389600
X86500Y392600
X90000Y392600
X56390Y445330
X56470Y448320
X71168Y436956
X75868Y436956
X53793Y406100
X61122Y376778
X66468Y436698
X61368Y436698
X57068Y436698
X89758Y466000
X47258Y448500
X47258Y452500
X47258Y456500
X47258Y460500
X47258Y464500
X89358Y365956
X30400Y359800
X30400Y363300
X26900Y363300
X26900Y359800
X86684Y345934
X67648Y373714
X79250Y373250
X84200Y356300
X76074Y337388
X73561Y341984
X82300Y373200
X30400Y355800
X30400Y352300
X26900Y352300
X26900Y355800
X63100Y365762
X32277Y336808
X32199Y344408
X38700Y365500
X42200Y365500
X38700Y362500
X42200Y362500
X86698Y331934
X86670Y338934
X87415Y350289
X70900Y365728
X75200Y365745
X67400Y365728
X58800Y365779
X86670Y342434
X73053Y338047
X53300Y311599
X60800Y311618
X67800Y311468
X86656Y328434
X86698Y335434
X32202Y333000
X54200Y361843
X73000Y335200
X48700Y365412
X72208Y373658
X76408Y373658
X32202Y340592
X32246Y348392
X80545Y115800
X74545Y115800
X68545Y115800
X62545Y115800
X56549Y116041
X54105Y121265
X45166Y121129
X45911Y115824
X49100Y110742
X54292Y107735
X60268Y107200
X66268Y107200
X72268Y107200
X78268Y107200
X93953Y80151
X42311Y127006
X42265Y133373
X48174Y135205
X55135Y135342
X56922Y129525
X56693Y124121
X84631Y113358
X83486Y108182
X32900Y129100
X32900Y139100
X32900Y149100
X32900Y159100
X47900Y139100
X47900Y149100
X47900Y159100
X62900Y149100
X62900Y139100
X62900Y159100
X77900Y139100
X77900Y149100
X77900Y159100
X92900Y149100
X92900Y139100
X92900Y159100
X92900Y129100
X77900Y129100
X62900Y129100
X47900Y169100
X32900Y169100
X92900Y169100
X77900Y169100
X62900Y169100
X91043Y57390
X88157Y63664
X88020Y69206
X88112Y74886
X97775Y57252
X104829Y57207
X108264Y61374
X108310Y66733
X108172Y72916
X174445Y57436
X181315Y57390
X167987Y57253
X185071Y61924
X184979Y68153
X184842Y74061
X164781Y62520
X164736Y68016
X164781Y73374
X191300Y173079
X191300Y167079
X191300Y161079
X191300Y155079
X191300Y149078
X191300Y143079
X191300Y137079
X191300Y131079
X191229Y124095
X191300Y119079
X191300Y113079
X192746Y107255
X194357Y102006
X102524Y79031
X103905Y84870
X107728Y89495
X112966Y92421
X118881Y93427
X124881Y93427
X130881Y93427
X136881Y93427
X142881Y93427
X148881Y93427
X154881Y93427
X160881Y93427
X166881Y93427
X172881Y93427
X178881Y93427
X184881Y93427
X190881Y93427
X190427Y102027
X184427Y102027
X178427Y102027
X172427Y102027
X166427Y102027
X160427Y102027
X154427Y102027
X148427Y102027
X142427Y102027
X136427Y102027
X130427Y102027
X124427Y102027
X118427Y102024
X112478Y101244
X106861Y99136
X101868Y95808
X97804Y91394
X95092Y86042
X186800Y91263
X187093Y85270
X192432Y82531
X109821Y135342
X117653Y135434
X106065Y131541
X105974Y126777
X108630Y121235
X110233Y115968
X116233Y115968
X117973Y121235
X120905Y126960
X120905Y132411
X173300Y135434
X180903Y135296
X184521Y130396
X184567Y124075
X170003Y124029
X169774Y129983
X172567Y118945
X181911Y118533
X177331Y112579
X169774Y76580
X179621Y76580
X179529Y82305
X170232Y82122
X170140Y86570
X179570Y86500
X122900Y139100
X122900Y149100
X122900Y159100
X137900Y149100
X137900Y139100
X137900Y159100
X152900Y149100
X152900Y139100
X152900Y159100
X167900Y149100
X167900Y139100
X167900Y159100
X182900Y149100
X182900Y139100
X182900Y159100
X152900Y129100
X137900Y129100
X152900Y169100
X137900Y169100
X122900Y169100
X182900Y169100
X167900Y169100
X107900Y169100
X166500Y189100
X169300Y189100
X172100Y189100
X172100Y192600
X169300Y192600
X166500Y192600
X148400Y186500
X152000Y189600
X148500Y189600
X151900Y186500
X193900Y208800
X193200Y218500
X173400Y207173
X194540Y184398
X191806Y179057
X174149Y272694
X174149Y266694
X174149Y260694
X174149Y254694
X174149Y248694
X174149Y242694
X174149Y236694
X174149Y230694
X174149Y224694
X174149Y218694
X165188Y260659
X165188Y254659
X165188Y248659
X165188Y242659
X165188Y236659
X165188Y230659
X165188Y224659
X165188Y218659
X165188Y212659
X178742Y208616
X180458Y217795
X186720Y217880
X169407Y209080
X165188Y266659
X165188Y272659
X137448Y335250
X146232Y347300
X137560Y347380
X146219Y327950
X117667Y323833
X111900Y315000
X99108Y322000
X137550Y331600
X179006Y340762
X175600Y324800
X129700Y344700
X133200Y344700
X133200Y341200
X129700Y341200
X182676Y340600
X96338Y368507
X100327Y368967
X109445Y368402
X118463Y368422
X127800Y335000
X127800Y331500
X124300Y331500
X124300Y335000
X179500Y310500
X185268Y333569
X109345Y319500
X146246Y343650
X104148Y319952
X137550Y343650
X104227Y324900
X101667Y324900
X146218Y331600
X145500Y318300
X96549Y319500
X120887Y368363
X138786Y370414
X154700Y331600
X96549Y357800
X113345Y368417
X167869Y343000
X166937Y321000
X192500Y325900
X192500Y322300
X137550Y340000
X146246Y340000
X104327Y368451
X146226Y323300
X157432Y310758
X171568Y310758
X175500Y310758
X185119Y329632
X146232Y335250
X175000Y337000
X164968Y331600
X167468Y334100
X167468Y329100
X118090Y315010
X126242Y321109
X121942Y321109
X131667Y318763
X190742Y318708
X137550Y327950
X168048Y314333
X160327Y309958
X163101Y306612
X173749Y306826
X174149Y302694
X174149Y296694
X174149Y290694
X174149Y284694
X174149Y278694
X158644Y325001
X155209Y320146
X158140Y338650
X167484Y348313
X158369Y344924
X158278Y349000
X165188Y278659
X165188Y284659
X165188Y290659
X165188Y296659
X165188Y302659
X176000Y370400
X149500Y372383
X186100Y364900
X186000Y368700
X185500Y373100
X139800Y365600
X139300Y373100
X185370Y351970
X190410Y356560
X179550Y349350
X173230Y348900
X129470Y373050
X130480Y363710
X133840Y358040
X138530Y353640
X143930Y350240
X176640Y364750
X179010Y358830
X172590Y358190
X165780Y358090
X158770Y358230
X152300Y358280
X146870Y358830
X149490Y363660
X94995Y444095
X177183Y475134
X180049Y475730
X175400Y472700
X159400Y460100
X173000Y457800
X173522Y454220
X156866Y450384
X156866Y454834
X98770Y466000
X98377Y448790
X170300Y476000
X188400Y462900
X191900Y462900
X189800Y460100
X113345Y377000
X118463Y377000
X121260Y377090
X148106Y450384
X148106Y454834
X161000Y451660
X150805Y459500
X187949Y466428
X178000Y466258
X109445Y377208
X166980Y392648
X166339Y397503
X165606Y403045
X160479Y405479
X157453Y400846
X157499Y396175
X157362Y392465
X98242Y458000
X185000Y376700
X138800Y376800
X194260Y377140
X191740Y383060
X186460Y388200
X180540Y391600
X173430Y392890
X151120Y392940
X144060Y392050
X138580Y389230
X134180Y384940
X130040Y380200
X145780Y382720
X154080Y383710
X161930Y383510
X169230Y383510
X177620Y382720
X175350Y376890
X148400Y377190
X161947Y488652
X194000Y489453
X155200Y499425
X160950Y484752
X191000Y487484
X132961Y521502
X182700Y542250
X185000Y546250
X176381Y509420
X116521Y511523
X113500Y521800
X116500Y521800
X96020Y523843
X98579Y523843
X101139Y523843
X103698Y523843
X106257Y513700
X161800Y492552
X178047Y505572
X183948Y506013
X191000Y483547
X194500Y485516
X185000Y534420
X182700Y538420
X185000Y518420
X185000Y522421
X182300Y531900
X185000Y526421
X162000Y496965
X151300Y497400
X170600Y496965
X147090Y488260
X150590Y488260
X104200Y537200
X100700Y537200
X100700Y533700
X104200Y533700
X166900Y516700
X170400Y516700
X166900Y520200
X170400Y520200
X170800Y480300
X168100Y477600
X172300Y478100
X117500Y490900
X117500Y494400
X117500Y497900
X114000Y497900
X114000Y494400
X114000Y490900
X140639Y499500
X128700Y544642
X144900Y544642
X157100Y544642
X120500Y545190
X136900Y544642
X167960Y507140
X165073Y503940
X165161Y507045
X162274Y503845
X116995Y537155
X149000Y544900
X153100Y544900
X112095Y533243
X108095Y533243
X120520Y510919
X126059Y531963
X174243Y505572
X187852Y505572
X162087Y480152
X140900Y544642
X132800Y544642
X124600Y544642
X143200Y489561
X152342Y516642
X162000Y519631
X178824Y516300
X185258Y513625
X185353Y511250
X112875Y481257
X116875Y481257
X214200Y499300
X210600Y499500
X207728Y483934
X227843Y538157
X227843Y535598
X227843Y533039
X227843Y530480
X227843Y527921
X227843Y525361
X227843Y522802
X227843Y520243
X240900Y499302
X199572Y493152
X200000Y481579
X207728Y492000
X194772Y509446
X198272Y509446
X201772Y509446
X201900Y512500
X198400Y512500
X194900Y512500
X239200Y525700
X239200Y529200
X235700Y529200
X235700Y525700
X199413Y477775
X199572Y497048
X216816Y540716
X227725Y543275
X205675Y543275
X237242Y514405
X237242Y518405
X227200Y462700
X223800Y462900
X220300Y462900
X235180Y456780
X235180Y454220
X212009Y457685
X210700Y456000
X207700Y450600
X207549Y453486
X220134Y453234
X270600Y455100
X220134Y448784
X270600Y450600
X211506Y453234
X211506Y448784
X198513Y452202
X196059Y443784
X198500Y455100
X261400Y445900
X261400Y450500
X252800Y460100
X254900Y462900
X251400Y462900
X261400Y455100
X198700Y465700
X198502Y460300
X261502Y460300
X213805Y459600
X235350Y451050
X251743Y439908
X251743Y429081
X266592Y429090
X266592Y439917
X266592Y421117
X251743Y421108
X266592Y410290
X251743Y410281
X252100Y394800
X253905Y359020
X258542Y317658
X253942Y317658
X241642Y317658
X242600Y361200
X242600Y358600
X250058Y367642
X258367Y368000
X262367Y368200
X260867Y327067
X254042Y367642
X245742Y367642
X262658Y317658
X249758Y317658
X245558Y317658
X195400Y372400
X195440Y366180
X217600Y231500
X214100Y231500
X214100Y228500
X217600Y228500
X204100Y219800
X198500Y198400
X196005Y203281
X223900Y219258
X221142Y218186
X209400Y228428
X294569Y196650
X230800Y225986
X205200Y208800
X291408Y206400
X195942Y193108
X196893Y177935
X204654Y187001
X197619Y189746
X256000Y177838
X256000Y183838
X256000Y189838
X256000Y195838
X254961Y201578
X251749Y206332
X247507Y210574
X243264Y214817
X237905Y217516
X237038Y208072
X241246Y204673
X245488Y200430
X247400Y194743
X247400Y188743
X247400Y182743
X247400Y176743
X211402Y208905
X218351Y208762
X225352Y208844
X231872Y208730
X231586Y217594
X199498Y208668
X202475Y190829
X199956Y182310
X199912Y220383
X196500Y111947
X196500Y117947
X196500Y123947
X196500Y129947
X196500Y135947
X196500Y141947
X196500Y147947
X196500Y153947
X196500Y159947
X196500Y165947
X196500Y171947
X273668Y91131
X267668Y91131
X261668Y91131
X255668Y91131
X249668Y91131
X243668Y91131
X237668Y91131
X231668Y91131
X225668Y91131
X219668Y91131
X213668Y91131
X207668Y91131
X201668Y91131
X195668Y91131
X198432Y82531
X204432Y82531
X210432Y82531
X216432Y82531
X222432Y82531
X228432Y82531
X234432Y82531
X240432Y82531
X246431Y82531
X252432Y82531
X258432Y82531
X264432Y82531
X270432Y82531
X288784Y79600
X288780Y85600
X287798Y91519
X285160Y96908
X281050Y101280
X275586Y103758
X269596Y104100
X263596Y104092
X253940Y95492
X259940Y95492
X265940Y95492
X277376Y92959
X279980Y86750
X280184Y81546
X238811Y102600
X244675Y103870
X249496Y107442
X252999Y112313
X255211Y117890
X255999Y123838
X256000Y129838
X256000Y135838
X256000Y141838
X256000Y147838
X256000Y153838
X256000Y159838
X256000Y165838
X256000Y171838
X247400Y170743
X247400Y164743
X247400Y158743
X247400Y152743
X247400Y146743
X247400Y140743
X247400Y134743
X247400Y128743
X247346Y122743
X245728Y116965
X242041Y112232
X236131Y111200
X230131Y111200
X225132Y107881
X224802Y102142
X266093Y135838
X266093Y129838
X266092Y123838
X265417Y117454
X263521Y110372
X257722Y101394
X266244Y141817
X269046Y147250
X273793Y151883
X277053Y156858
X259438Y149080
X262526Y152969
X266873Y157201
X271940Y95500
X273923Y85969
X270901Y160990
X275664Y160441
X203803Y102503
X202567Y107587
X198536Y109098
X208841Y102274
X214017Y102228
X219925Y102183
X231146Y102320
X248275Y94763
X240627Y93343
X234352Y93343
X228306Y93160
X222810Y93160
X216581Y93389
X210444Y93252
X204536Y93252
X198765Y93481
X280031Y75760
X284183Y57665
X291007Y57482
X277725Y57619
X294442Y61466
X294396Y66733
X294350Y73008
X274336Y63161
X274427Y69069
X274198Y73328
X289450Y75847
X386342Y121797
X387147Y115852
X390415Y110820
X383443Y126930
X383283Y132957
X387703Y135207
X373900Y129100
X373900Y139100
X373900Y149100
X373900Y169100
X373900Y159100
X388900Y149100
X388900Y139100
X388900Y169100
X388900Y159100
X322658Y183480
X322000Y197600
X323100Y224400
X326600Y224400
X330100Y224400
X319600Y224400
X319600Y227900
X330100Y227900
X326600Y227900
X323100Y227900
X294678Y192600
X304360Y208100
X304360Y204600
X307100Y208100
X307100Y204600
X303700Y188800
X322658Y179580
X331142Y191591
X331142Y195750
X331142Y199650
X331142Y203880
X294658Y200550
X294658Y188500
X351140Y352500
X306456Y345034
X350390Y355760
X302494Y307876
X302494Y341540
X392700Y346000
X387900Y344900
X353600Y337200
X381293Y338800
X351000Y360650
X381300Y343000
X329439Y461754
X303228Y460922
X303310Y428700
X375690Y419840
X378690Y419840
X378690Y422840
X375690Y422840
X309665Y396367
X308992Y400367
X319988Y387790
X301760Y407530
X301910Y412371
X322980Y396940
X346329Y448499
X336580Y462603
X344480Y408510
X327988Y387790
X302240Y402590
X331911Y387790
X320778Y430884
X316778Y430880
X301830Y416109
X309676Y405344
X324680Y387640
X324980Y430810
X390504Y495096
X374993Y494800
X364320Y495301
X342580Y495299
X472032Y492632
X471845Y481155
X484236Y483263
X461313Y506413
X465159Y489450
X464972Y477481
X461372Y500513
X492500Y504400
X492500Y507900
X489000Y507900
X485500Y507900
X482657Y518043
X482657Y520602
X480966Y545292
X484500Y545100
X482657Y523161
X482657Y525720
X482657Y528280
X482657Y530839
X482657Y533398
X482657Y535957
X471800Y534000
X471800Y530500
X468300Y534000
X468300Y530500
X472110Y495520
X493684Y515484
X482775Y512925
X472258Y541795
X472258Y537795
X474519Y483557
X473800Y470750
X474255Y456872
X473650Y453000
X471145Y441255
X484263Y443363
X427200Y443800
X430200Y443800
X427200Y447300
X430200Y447300
X464000Y449550
X467208Y440517
X474596Y460687
X474596Y465787
X461613Y412064
X434900Y390958
X439400Y390958
X452900Y390958
X448400Y390958
X443900Y390958
X455512Y443441
X451400Y443442
X446900Y443442
X442400Y443442
X433000Y434600
X436500Y434600
X429500Y434600
X436500Y431100
X433000Y431100
X456971Y390942
X461701Y422982
X460704Y443441
X467200Y386700
X468000Y384000
X438500Y452000
X427700Y424400
X431200Y424400
X431200Y420900
X427700Y420900
X486600Y414600
X486600Y418100
X483100Y418100
X490100Y414600
X490100Y418100
X481400Y396100
X481300Y393400
X472482Y422209
X458130Y379770
X439400Y382449
X453713Y376915
X457900Y377000
X434900Y382438
X476400Y403100
X479900Y403100
X479900Y399600
X476400Y399600
X483200Y407500
X494400Y412500
X459433Y400981
X449713Y376915
X443900Y382458
X448400Y382458
X452900Y382458
X455900Y451942
X451400Y451942
X446900Y451942
X442400Y451942
X437900Y443442
X473819Y443657
X483663Y463237
X483426Y399500
X483426Y403500
X465496Y414202
X465496Y418350
X487700Y391000
X482500Y389500
X478200Y386900
X475000Y383400
X471200Y379500
X492000Y382200
X485900Y381300
X488500Y376500
X436642Y368405
X477930Y333483
X477120Y342650
X486734Y325450
X467800Y351700
X458167Y323833
X454167Y306900
X397270Y360349
X397200Y350559
X470800Y345400
X474000Y345400
X474300Y348900
X470800Y348900
X446675Y318500
X486740Y341105
X437049Y319500
X486726Y317150
X465300Y334700
X458500Y334700
X462000Y334700
X468800Y334700
X440694Y368917
X453713Y368415
X458100Y368400
X432842Y359930
X461150Y368450
X439608Y323200
X478050Y329600
X442167Y324900
X486738Y329043
X449845Y319000
X444727Y324900
X476670Y340500
X479800Y370883
X486678Y338487
X478050Y337000
X486728Y332750
X478050Y325950
X486726Y320800
X437049Y357951
X444694Y368415
X449713Y368415
X467042Y321158
X462742Y321158
X458167Y315020
X472667Y318263
X489000Y370900
X480400Y363600
X480200Y367700
X479300Y374700
X469800Y375300
X469800Y370900
X469800Y365900
X471700Y360600
X474100Y357000
X479600Y351800
X483900Y349100
X491600Y347600
X487400Y357400
X493100Y356300
X489700Y366900
X489900Y362100
X406633Y115700
X400633Y115700
X395337Y118520
X395563Y107737
X401529Y107100
X433785Y84618
X436910Y87030
X444389Y89892
X450387Y90068
X456387Y90068
X462387Y90068
X468387Y90068
X474387Y90068
X480387Y90068
X486387Y90068
X493000Y90000
X492997Y98668
X486997Y98668
X480997Y98668
X474997Y98668
X468997Y98668
X462997Y98668
X456997Y98668
X450997Y98668
X444997Y98598
X439096Y97512
X433577Y95158
X428708Y91653
X424928Y86993
X423064Y81290
X470600Y115592
X464600Y115592
X458856Y117327
X450200Y121797
X450350Y115799
X453393Y110628
X458486Y107456
X464468Y106992
X470286Y105525
X395337Y135488
X397989Y130546
X397828Y124238
X407149Y107001
X411047Y111461
X431530Y77720
X420399Y77461
X461583Y124150
X459052Y121699
X461744Y128007
X461905Y132949
X458047Y135320
X451659Y135280
X447038Y132467
X446918Y126963
X475144Y110951
X433900Y139100
X433900Y149100
X418900Y149100
X418900Y139100
X403900Y139100
X403900Y149100
X403900Y169100
X418900Y169100
X433900Y169100
X433900Y159100
X418900Y159100
X403900Y159100
X403900Y129100
X418900Y129100
X433900Y129100
X448900Y169100
X463900Y169100
X478900Y169100
X493900Y169100
X493900Y139100
X493900Y149100
X478900Y139100
X478900Y149100
X463900Y139100
X493900Y159100
X478900Y159100
X478900Y129100
X493900Y129100
X448900Y149100
X448900Y139100
X448900Y159100
X437154Y73082
X437194Y66452
X437355Y59742
X431368Y57372
X424136Y57372
X417104Y60104
X416984Y65327
X417225Y70832
X493968Y73644
X493888Y66251
X493566Y59099
X513817Y73001
X513737Y66573
X513978Y59823
X499674Y57251
X507629Y57412
X573231Y173692
X577472Y169447
X580924Y164539
X582723Y158816
X582943Y152820
X582943Y146819
X582943Y140820
X582943Y134820
X582943Y128820
X582943Y122819
X582884Y117061
X588142Y124454
X588142Y130454
X588142Y136454
X588142Y142454
X588142Y148454
X588142Y154454
X587721Y160439
X585910Y166159
X582775Y171275
X578647Y175629
X588142Y118454
X582884Y111061
X582884Y105061
X588142Y112454
X588142Y106454
X594390Y107231
X589931Y102649
X588142Y172454
X498387Y90068
X504387Y90068
X510387Y90068
X516387Y90068
X522387Y90068
X528387Y90068
X534387Y90068
X540387Y90068
X546387Y90068
X552387Y90068
X558387Y90068
X564387Y90068
X570387Y90068
X576387Y90068
X582387Y90068
X576997Y98668
X570997Y98668
X564997Y98668
X552997Y98668
X546957Y98637
X540957Y98637
X534957Y98637
X522997Y98668
X516997Y98668
X510997Y98668
X504997Y98668
X498997Y98668
X548077Y107261
X542077Y107261
X536077Y107261
X530150Y108191
X525317Y111747
X522825Y117205
X514058Y121797
X514340Y115804
X516200Y110099
X519645Y105187
X524359Y101476
X529930Y99249
X559370Y98730
X587546Y90078
X593542Y90412
X588459Y81541
X583300Y81531
X577300Y81531
X571300Y81531
X565300Y81531
X559300Y81531
X553300Y81531
X547300Y81531
X541300Y81531
X535300Y81531
X529300Y81531
X523300Y81531
X508300Y76979
X508463Y82030
X504259Y86201
X499698Y82975
X499437Y76882
X523139Y121659
X525710Y126842
X525750Y132548
X522014Y135320
X515504Y135360
X510964Y133070
X510844Y127686
X593654Y82002
X592649Y111132
X552550Y104824
X580997Y100444
X508900Y169100
X523900Y169100
X508900Y139100
X508900Y149100
X508900Y159100
X523900Y139100
X523900Y149100
X523900Y159100
X517300Y188800
X520800Y188800
X524300Y188800
X517300Y192300
X520800Y192300
X524300Y192300
X569300Y228500
X569300Y231500
X565800Y228500
X565800Y231500
X505400Y183800
X505400Y187300
X505400Y190800
X501900Y190800
X501900Y187300
X501900Y183800
X524186Y207222
X547642Y203900
X561100Y228428
X575600Y219258
X572843Y218186
X582500Y225986
X550200Y198400
X547843Y192808
X545300Y217900
X556300Y219800
X558000Y208700
X545600Y208399
X559034Y184100
X564702Y182132
X568989Y177934
X574405Y179872
X570162Y184115
X565425Y187798
X530193Y218597
X530193Y224597
X530193Y230597
X530193Y236597
X530193Y242597
X530193Y248597
X530193Y254597
X530193Y260597
X530193Y266597
X530193Y272597
X519880Y212077
X519534Y218666
X521232Y224562
X521232Y230562
X521232Y236562
X521232Y242562
X521232Y248562
X521232Y254562
X521232Y260562
X542764Y217783
X536502Y217698
X521169Y265010
X530482Y208932
X551080Y208238
X562870Y208725
X568518Y208775
X574512Y208676
X580333Y208315
X586847Y208428
X580259Y217692
X587541Y217741
X593139Y216008
X588142Y178454
X588142Y184454
X588142Y190454
X588142Y196454
X588142Y202454
X553595Y182652
X550139Y185946
X553113Y190728
X558657Y189482
X521169Y271010
X552500Y219900
X548100Y220100
X517450Y345750
X537260Y344250
X541400Y339200
X541400Y342700
X537180Y346800
X541400Y346200
X561000Y357000
X537400Y328500
X540900Y328500
X537400Y325000
X540900Y325000
X540900Y321500
X537400Y321500
X537400Y318000
X540900Y318000
X516700Y339500
X519506Y338785
X517400Y323100
X525769Y332069
X520726Y314296
X525500Y375400
X525735Y328132
X507437Y319500
X515500Y335500
X508369Y341500
X533567Y321000
X533617Y324600
X497931Y309258
X507969Y327600
X502969Y327600
X502969Y332600
X505469Y330100
X495200Y330100
X535600Y368000
X544200Y368100
X548500Y368100
X536000Y364000
X544200Y364100
X548500Y364100
X532742Y316008
X554563Y368207
X508000Y314100
X530193Y278597
X530193Y284597
X530193Y290597
X530193Y296597
X530193Y302597
X529793Y306729
X527757Y310290
X525224Y311865
X500981Y307293
X498870Y322999
X495857Y319222
X497625Y336580
X507991Y347087
X498950Y343592
X498991Y347529
X521169Y277010
X521169Y283010
X521169Y289010
X521169Y295010
X521169Y301010
X517930Y304000
X512500Y304140
X507010Y304080
X516900Y368900
X535500Y370900
X526600Y363500
X526300Y367600
X525800Y371500
X499600Y356300
X506700Y356300
X512600Y356400
X519500Y357100
X517300Y361800
X516100Y375600
X515110Y347530
X521600Y348400
X528900Y353100
X533600Y357800
X584204Y413800
X576600Y394000
X580100Y394000
X583600Y394000
X576600Y397500
X580100Y397500
X505050Y442650
X503780Y449900
X511582Y448191
X567669Y383695
X511738Y456850
X511281Y468950
X570110Y379332
X568380Y433480
X501000Y458500
X501280Y471078
X500737Y463237
X516380Y450350
X583932Y379332
X498500Y401800
X511281Y462943
X501437Y443363
X496326Y432150
X577655Y383695
X583519Y383682
X589716Y383734
X553845Y451717
X553845Y457228
X553845Y468252
X553845Y473764
X553845Y426913
X553845Y421402
X551416Y445772
X551300Y458300
X513596Y438192
X506835Y423335
X499064Y417159
X506815Y411624
X506503Y403003
X497910Y391150
X507400Y392834
X506500Y407500
X507067Y427748
X497906Y421721
X497825Y428150
X501135Y436482
X508553Y436547
X513736Y427828
X512330Y421440
X512170Y412922
X518357Y412801
X511607Y402113
X517755Y402153
X523138Y398778
X521244Y393312
X514098Y393073
X551144Y467285
X543992Y466883
X540858Y461981
X549979Y448621
X549858Y454307
X516724Y436604
X526151Y436140
X526490Y450012
X517490Y455810
X521320Y460540
X527610Y461900
X534460Y461980
X528840Y453060
X534970Y453100
X540430Y453100
X541030Y444300
X540620Y448496
X535370Y443860
X530200Y440960
X526930Y433390
X525740Y427140
X521870Y422400
X516380Y421570
X520960Y428730
X525900Y414120
X530630Y418220
X533580Y422680
X535440Y428780
X536530Y434310
X542060Y435300
X549350Y440120
X518600Y381400
X512100Y382200
X505300Y382200
X498100Y382200
X532700Y380430
X529610Y383710
X526200Y387300
X519100Y390800
X509970Y391050
X549700Y491100
X505661Y477755
X496319Y489900
X510422Y485813
X510422Y480713
X573181Y499450
X589716Y486984
X504480Y488600
X502419Y489900
X544030Y506330
X537988Y508830
X568300Y496300
X568300Y499800
X565346Y501220
X568300Y502900
X515600Y547200
X512100Y547200
X508600Y547200
X515600Y543700
X512100Y543700
X508600Y543700
X551539Y519461
X560300Y505700
X556800Y505700
X560300Y509200
X556800Y509200
X501737Y483263
X525073Y489273
X504825Y512925
X583707Y534812
X525342Y546775
X525342Y542775
X534119Y542780
X537987Y513030
X547058Y502858
X547058Y507158
X544600Y497500
X502681Y504254
X522143Y489900
X546250Y482713
X516742Y490831
X567669Y486800
X585500Y500100
X595228Y499450
X600822Y526953
X602700Y516641
X596900Y511100
X596900Y507000
X596642Y515200
X596642Y531400
X596642Y503000
X596642Y523200
X596574Y539252
X597181Y543222
X637354Y486800
X596574Y535252
X596642Y527300
X596642Y519200
X631250Y383281
X665250Y446650
X674900Y390600
X676900Y392300
X674474Y401326
X676700Y399700
X654100Y432100
X654100Y435600
X654100Y439100
X650600Y439100
X650600Y435600
X650600Y432100
X664978Y410378
X661613Y454800
X625350Y383281
X619581Y383281
X643450Y383281
X667700Y390400
X670290Y386500
X672300Y388800
X637354Y383695
X664768Y432543
X666707Y438831
X671078Y395788
X632743Y341828
X637074Y341828
X637074Y350450
X631500Y213200
X624500Y213200
X628000Y213200
X624500Y202700
X628000Y202700
X628000Y206200
X628000Y209700
X606400Y179200
X606400Y183200
X602400Y179200
X602400Y183200
X664600Y216500
X664600Y220000
X660600Y216500
X660600Y220000
X656600Y220000
X656600Y216500
X652600Y216500
X652600Y220000
X664600Y213000
X660600Y213000
X656600Y213000
X652600Y213000
X661881Y190519
X657773Y192473
X646517Y196473
X646517Y203473
X639517Y203473
X639517Y199973
X643017Y203473
X646517Y199973
X643017Y199973
X639600Y196702
X607750Y200368
X596458Y211103
X597003Y206001
X596953Y199560
X597012Y178562
X597012Y184562
X597012Y190562
X597012Y196562
X606400Y171200
X606400Y175200
X606400Y167200
X602400Y171200
X602400Y175200
X602400Y167200
X640040Y91381
X661800Y112000
X630934Y87134
X652981Y93987
X641800Y114559
X629850Y133350
X672113Y114843
X652400Y131200
X655900Y131200
X636700Y166500
X640700Y166500
X636700Y162500
X640700Y162500
X672113Y102281
X663903Y84425
X658795Y83800
X653000Y84400
X645540Y124280
X665800Y96550
X674605Y108493
X647045Y78987
X625456Y87158
X620095Y86940
X632040Y100757
X632040Y106350
X640660Y139250
X657300Y124500
X627595Y97400
X679100Y123300
X679100Y120561
X625100Y120676
X625100Y117938
X597108Y136521
X597108Y130521
X597108Y124521
X597012Y160562
X597108Y154521
X597108Y148521
X597108Y142521
X597108Y118521
X597108Y112521
X597012Y166562
X597012Y172562
X601832Y102454
X604445Y107475
X606079Y113072
X606575Y118423
X606575Y124423
X606575Y130423
X606575Y136423
X606575Y142423
X606575Y148423
X602116Y150624
X617784Y85390
X616418Y91232
X612694Y95937
X607407Y98774
X601412Y99012
X599542Y90412
X605542Y90377
X609179Y85605
X609184Y79605
X617785Y79195
X596025Y85658
X596587Y93533
X597310Y97350
X661900Y121900
X661800Y124500
X661800Y127500
X661800Y130200
X625131Y130209
X641900Y122700
X641900Y126200
X641900Y129700
X641900Y133200
X662000Y119200
X660300Y117500
X641800Y119600
X643500Y117300
X603337Y75292
X623266Y75452
X623266Y67979
X623427Y60827
X603096Y68059
X602935Y61711
X607516Y57452
X615391Y57291
M30
