M48
INCH,TZ
T01C.008
T02C.01
T03C.015354
T04C.035433
T05C.055118
T06C.059055
T07C.145669
T08C.149606
;LEADER: 12 
;HEADER: 
;CODE  : ASCII 
;FILE  : OC_CONNECT_1_FRONTEND_LIFE-3-7-10.drl for  ... layers L7-SIG3 and BOTTOM
;T01 Holesize 1. = 8.000000 Tolerance = +3.000000/-8.000000 PLATED MILS Quantity = 2219
%
G90
T01
X92376Y526376
X93585Y507915
X90094Y504305
X89200Y495805
X85600Y504305
X79600Y504305
X73600Y504305
X67600Y504305
X61600Y504305
X55600Y504305
X49635Y504954
X44000Y507000
X38869Y510082
X34900Y514500
X32804Y520106
X32750Y526106
X24200Y526700
X24250Y521583
X25011Y515631
X27300Y510100
X31201Y505488
X35892Y501746
X41100Y498800
X46817Y496889
X52737Y495913
X58736Y495805
X64736Y495805
X70736Y495805
X76736Y495805
X82736Y495805
X39315Y391385
X43415Y391385
X28700Y378600
X32700Y378600
X47615Y387049
X68300Y423551
X90894Y387500
X94386Y425814
X90668Y407000
X68300Y432506
X92754Y394944
X70245Y414500
X76800Y413500
X93584Y416016
X79898Y379000
X88495Y377529
X79898Y392200
X79898Y386200
X88634Y382656
X79730Y406958
X79898Y401000
X88398Y395800
X35000Y387600
X88628Y390900
X90780Y422809
X84027Y430638
X88406Y435202
X30800Y340700
X25775Y358300
X29775Y358300
X38700Y337940
X89098Y338500
X89098Y342500
X85098Y342500
X71300Y312200
X77843Y320701
X59695Y368899
X67569Y368762
X67569Y350015
X59695Y350152
X77843Y332301
X90454Y364000
X90454Y375000
X79898Y324800
X79800Y318000
X88504Y316097
X88398Y322113
X79898Y338050
X79737Y329499
X88661Y328473
X88400Y333900
X88532Y356338
X88429Y361533
X79800Y364000
X79645Y372881
X88398Y371300
X51600Y304400
X58825Y307200
X77068Y307200
X83419Y300531
X87456Y304969
X88398Y310895
X79700Y312600
X65587Y307603
X79538Y347749
X73280Y348567
X74862Y363925
X30200Y177100
X33700Y177100
X41000Y225100
X41000Y222600
X41000Y220100
X44500Y220100
X44500Y222600
X44500Y225100
X26100Y228800
X22600Y228800
X26100Y232300
X22600Y232300
X22600Y235800
X26100Y235800
X26100Y239300
X22600Y239300
X78200Y247100
X75200Y247100
X78200Y250600
X75200Y250600
X75200Y254100
X78200Y254100
X78200Y257600
X75200Y257600
X92400Y242600
X92570Y238440
X93720Y236100
X94310Y240200
X88300Y214000
X92300Y214000
X88300Y218000
X92300Y218000
X84300Y214000
X89250Y229950
X45100Y215700
X64300Y226512
X72865Y204856
X61433Y204856
X53880Y202800
X35880Y202800
X31800Y194300
X37800Y194300
X43836Y193971
X49836Y193971
X65349Y202800
X58816Y202972
X57380Y194300
X63462Y194129
X79100Y209550
X79100Y203550
X70400Y202900
X68949Y194300
X75152Y194167
X81000Y194500
X85852Y198175
X87600Y203915
X87700Y222500
X80090Y240412
X79100Y231582
X78936Y225527
X79100Y219582
X61100Y231500
X67467Y231700
X29559Y202600
X27519Y197591
X73601Y231466
X51636Y233692
X33305Y133883
X34105Y158383
X34105Y162983
X34105Y149583
X34105Y153983
X33700Y173600
X33700Y170100
X30200Y170100
X30200Y173600
X87576Y146724
X91900Y150324
X87576Y153924
X91300Y157524
X34105Y144883
X24805Y153883
X24805Y149483
X87576Y142647
X30194Y139383
X56047Y142647
X79214Y103326
X79392Y98300
X79392Y93300
X79392Y88300
X79300Y83600
X87892Y85781
X87892Y90781
X87892Y95781
X87892Y100781
X53606Y168050
X92551Y118497
X88413Y114152
X93303Y106465
X88109Y79954
X76087Y78303
X90929Y75706
X91077Y70029
X88777Y64315
X82135Y64166
X76087Y66875
X76124Y72997
X140202Y72923
X140202Y66690
X145879Y64426
X153151Y64389
X154821Y70623
X142337Y174673
X159337Y154000
X128900Y148200
X125400Y148200
X169150Y141550
X169163Y159500
X105778Y169939
X96722Y169939
X176700Y158500
X152150Y155050
X188620Y167619
X192808Y167619
X135892Y145851
X135392Y127181
X166187Y147856
X166200Y165806
X162300Y147694
X145300Y168367
X139880Y145927
X127420Y153144
X116810Y153144
X116810Y135244
X127420Y135244
X139567Y127181
X152050Y137150
X182068Y149645
X187471Y149602
X169600Y149750
X175600Y149750
X120310Y145800
X114310Y145800
X110150Y137300
X123910Y137300
X129910Y137300
X146950Y145800
X142200Y146000
X135107Y137300
X158887Y145800
X152887Y145800
X158450Y137300
X158900Y163750
X152900Y163750
X147000Y163750
X140925Y163860
X131791Y163817
X125820Y163700
X123910Y155200
X129910Y155200
X120342Y163945
X114310Y163700
X97000Y165700
X97000Y159700
X105500Y165450
X142337Y170423
X148337Y170423
X152600Y170423
X158600Y170423
X164766Y170227
X170469Y170249
X179680Y170473
X185777Y170356
X191190Y170473
X97004Y110581
X100788Y115238
X103539Y120570
X105142Y126352
X105550Y132338
X105554Y137572
X96950Y141550
X96950Y135550
X96883Y129550
X95531Y123705
X109200Y127797
X109200Y121797
X110881Y116038
X115266Y111942
X120700Y109398
X126679Y108900
X132679Y108900
X138679Y108900
X143874Y105897
X148200Y113734
X143084Y116870
X137118Y117500
X131118Y117500
X125118Y117500
X119493Y119590
X117800Y125346
X143200Y103261
X143200Y97261
X143200Y91261
X143200Y85261
X151800Y87781
X151800Y93781
X151800Y99781
X165295Y113207
X167026Y118952
X176988Y125292
X182974Y125700
X188974Y125700
X193400Y134300
X187400Y134300
X181400Y134300
X175425Y133752
X169730Y131864
X164615Y128728
X160391Y124466
X157643Y119133
X156695Y113208
X170657Y97261
X170657Y91261
X170657Y85261
X179257Y85600
X179257Y91600
X179257Y97600
X194324Y103027
X191147Y108117
X186800Y97263
X186800Y91263
X187093Y85270
X192432Y82531
X191668Y121458
X185668Y121458
X173058Y121797
X173278Y115801
X178506Y112858
X184506Y112858
X190506Y112858
X152038Y80789
X142911Y78971
X154784Y76633
X175042Y83201
X143912Y135146
X165810Y137260
X171150Y145410
X108775Y163827
X183799Y160524
X172840Y161720
X137990Y174980
X188300Y254800
X191300Y254800
X191300Y251300
X188300Y251300
X188300Y247800
X191300Y247800
X188300Y244300
X191300Y244300
X171700Y241920
X171900Y234440
X171720Y239460
X171830Y236860
X155000Y248600
X158000Y248600
X158000Y252100
X155000Y252100
X158000Y245100
X155000Y245100
X155000Y255600
X158000Y255600
X106800Y244300
X106800Y247800
X106800Y251300
X110300Y251300
X110300Y247800
X110300Y244300
X106800Y254800
X110300Y254800
X96910Y240300
X96060Y237590
X167000Y217700
X170500Y217700
X165400Y211000
X167000Y214200
X170500Y214200
X163700Y214100
X168900Y211000
X132400Y204800
X96300Y218000
X96722Y193061
X105778Y193061
X128953Y193010
X128953Y199510
X159700Y179300
X169100Y186200
X175708Y188794
X122789Y192256
X114915Y192406
X184080Y181028
X155877Y189277
X95350Y229950
X188400Y224510
X142857Y228934
X121500Y226587
X122789Y210926
X114915Y210982
X132533Y208400
X133064Y211264
X148650Y225606
X152850Y225606
X158950Y225606
X163050Y225606
X179906Y216650
X185383Y205628
X155877Y216223
X193500Y194300
X97000Y203550
X97000Y197550
X105500Y209300
X105500Y206000
X101531Y238509
X96900Y222500
X105500Y218450
X105500Y224450
X127070Y231708
X132800Y233200
X115900Y231708
X149000Y178923
X143000Y178923
X157400Y179000
X153072Y178923
X175357Y179082
X168500Y181200
X163000Y181000
X187590Y178973
X181590Y178973
X106104Y230353
X110556Y231244
X190020Y201670
X189350Y196180
X182580Y311470
X182510Y314460
X149600Y318100
X111900Y323400
X174100Y304700
X177600Y304700
X174000Y339000
X188700Y332656
X182100Y336637
X129700Y340467
X148711Y353600
X152211Y353600
X152211Y350100
X152211Y346600
X152200Y343400
X148811Y356700
X152311Y356700
X167000Y335231
X144700Y333137
X151200Y330956
X136700Y340378
X131800Y359500
X186800Y367700
X121900Y340100
X151200Y321944
X114903Y312156
X108168Y319452
X156146Y323446
X163123Y356277
X133617Y366872
X170350Y346894
X160050Y346894
X155950Y346894
X176143Y343674
X186311Y364100
X185839Y361251
X190047Y372990
X108354Y332301
X108354Y352850
X108354Y363282
X118846Y329446
X139394Y355850
X130800Y348390
X120600Y307200
X108600Y307200
X97798Y308129
X99558Y302392
X112200Y298600
X97798Y324800
X97558Y318859
X106298Y316113
X106298Y323113
X97709Y332137
X106298Y328400
X106298Y334900
X97798Y356266
X97700Y351000
X106298Y346950
X97447Y373841
X97306Y367660
X97659Y361704
X106298Y359866
X134269Y304334
X128910Y307032
X106178Y340254
X166150Y346800
X154900Y383400
X153400Y381500
X159740Y386740
X109000Y406400
X105500Y406400
X141200Y399300
X141200Y402800
X141200Y406300
X137700Y406300
X137700Y402800
X137700Y399300
X97751Y392478
X103450Y434450
X102751Y394944
X190913Y387279
X163123Y383223
X190047Y379490
X107751Y392443
X160500Y452214
X155600Y451494
X151500Y451494
X138400Y438000
X111500Y438100
X146500Y448000
X146500Y439400
X142818Y439982
X164616Y476000
X167116Y476000
X161616Y476000
X159116Y476000
X107320Y440156
X125320Y440156
X128200Y448656
X122200Y448656
X116200Y448656
X110197Y448903
X104200Y448400
X98994Y445288
X94743Y441054
X142932Y448783
X136900Y448656
X131800Y440156
X97798Y385700
X97798Y379700
X106401Y380437
X169463Y472594
X169300Y468300
X177963Y456380
X178255Y462410
X177963Y468380
X178212Y449593
X168554Y454127
X167610Y447880
X183400Y447590
X150962Y438838
X157010Y438912
X163429Y438986
X170033Y438763
X163280Y447817
X156713Y447780
X150183Y447743
X178604Y438801
X184250Y438870
X106401Y386299
X102060Y390269
X97273Y431380
X189150Y447590
X165860Y399990
X169311Y404498
X173553Y408740
X177796Y412983
X182039Y417226
X186281Y421468
X190524Y425711
X194319Y436860
X190077Y432617
X185834Y428375
X181591Y424132
X177349Y419889
X173106Y415647
X168863Y411404
X164621Y407161
X159320Y403920
X158668Y397482
X163300Y396650
X143600Y513100
X131300Y512900
X134600Y512800
X134700Y509900
X142600Y522200
X146900Y522500
X142600Y525900
X142600Y529400
X146100Y525900
X146100Y529400
X127900Y521100
X151000Y504800
X146000Y512000
X102000Y493111
X104500Y493111
X104500Y490611
X102000Y490611
X103500Y483111
X100500Y483111
X104500Y485111
X102000Y485111
X104500Y487611
X102000Y487611
X102000Y501611
X102000Y499111
X102000Y496611
X99500Y493111
X99500Y490611
X99500Y485111
X99500Y487611
X109411Y521000
X133300Y526000
X138508Y522064
X121836Y510400
X121836Y506300
X150864Y491498
X146200Y491446
X140767Y491533
X135700Y491461
X130400Y491477
X110076Y511500
X110076Y516500
X170616Y478500
X173116Y478500
X175616Y478500
X164616Y478500
X167116Y478500
X161616Y478500
X159116Y478500
X157116Y480000
X157116Y477000
X164616Y481000
X167116Y481000
X161616Y481000
X159116Y481000
X143000Y504556
X143000Y499556
X138000Y504556
X138000Y499556
X125200Y491510
X169463Y491617
X169463Y485617
X178000Y490900
X178063Y496515
X175054Y502571
X169593Y504361
X162072Y504306
X125800Y504000
X112200Y504306
X105600Y505000
X108000Y495200
X113990Y495673
X119993Y495806
X96100Y504900
X95200Y495300
X154150Y506361
X140500Y502024
X125839Y495737
X133613Y495510
X147332Y495746
X156241Y495352
X161879Y495391
X166767Y494524
X179158Y478923
X233500Y522088
X237805Y524215
X229496Y476773
X232446Y481998
X234558Y487614
X235781Y493488
X236100Y499480
X236100Y505480
X236100Y511480
X236100Y517480
X229730Y519780
X230860Y515980
X230790Y511140
X230900Y502222
X230826Y496223
X229897Y490295
X227931Y484626
X224992Y479396
X237860Y521190
X229090Y524680
X262900Y432500
X268700Y432200
X265700Y432400
X262900Y429000
X265700Y428900
X268700Y428700
X227842Y435492
X204800Y435832
X228300Y430166
X230300Y414414
X222500Y435738
X201860Y447700
X251894Y387500
X258751Y390879
X268751Y391033
X239214Y428714
X251892Y407000
X263751Y393444
X253754Y393444
X254280Y415520
X227713Y464805
X235587Y464913
X208700Y446388
X208100Y437888
X241500Y441500
X237100Y445800
X212300Y437888
X218900Y437838
X234100Y436600
X251500Y425600
X240686Y406940
X240898Y401000
X249398Y395800
X240898Y392200
X240898Y386200
X249398Y382130
X240763Y378484
X249438Y377612
X258798Y385700
X258798Y379700
X267298Y377866
X267298Y383866
X238300Y413500
X246880Y436130
X250066Y431565
X238007Y432307
X218800Y458700
X214600Y454200
X224840Y446590
X230260Y446460
X194766Y429953
X198968Y434237
X204586Y450830
X208829Y455072
X213072Y459315
X217314Y463558
X221557Y467800
X225778Y472065
X221171Y474769
X216929Y470526
X212687Y466284
X208444Y462041
X204201Y457798
X199959Y453556
X195160Y448630
X238000Y313500
X236850Y310050
X271003Y349047
X272728Y346846
X272728Y342846
X271003Y345047
X250098Y346500
X275903Y312246
X233368Y312168
X238843Y320701
X269354Y320701
X220195Y373149
X215000Y358487
X228069Y373226
X228069Y354575
X251454Y375000
X251130Y365930
X269354Y363282
X269354Y352850
X238843Y332301
X269354Y332301
X240898Y372530
X249398Y371300
X240686Y367623
X249398Y356300
X249436Y361444
X240898Y338050
X240600Y329900
X249398Y328400
X249474Y333775
X240898Y324800
X240800Y318100
X249398Y316113
X249398Y322113
X244800Y300600
X248166Y304402
X249398Y310274
X220749Y307200
X214966Y305600
X258491Y373629
X258224Y367738
X258798Y361700
X267298Y359866
X267298Y365866
X258608Y356264
X258600Y351200
X267298Y346950
X267319Y355304
X258569Y332086
X267298Y328400
X267300Y335000
X258646Y324680
X258798Y318800
X267298Y316113
X267400Y323300
X281600Y307200
X269600Y307200
X258798Y308129
X261500Y301200
X273000Y298600
X289913Y307070
X240898Y361700
X249546Y351199
X239936Y308159
X241161Y313910
X240159Y347303
X267504Y310200
X226802Y307584
X235846Y367920
X232135Y350583
X236200Y257600
X239200Y247100
X236200Y247100
X236200Y250600
X239200Y250600
X239200Y254100
X236200Y254100
X239200Y257600
X267800Y254800
X271300Y254800
X271300Y251300
X267800Y251300
X267800Y247800
X271300Y247800
X267800Y244300
X271300Y244300
X248300Y243000
X251800Y243000
X251800Y239500
X255300Y239500
X251800Y236000
X255300Y236000
X205657Y183173
X217657Y179173
X209657Y183173
X213657Y183173
X213657Y179173
X250000Y218000
X254000Y218000
X258000Y218000
X246000Y214000
X250000Y214000
X254000Y214000
X258000Y214000
X194690Y181028
X288494Y192600
X284187Y192481
X276313Y192443
X206800Y215900
X225000Y226464
X223133Y204856
X250950Y229950
X257050Y229950
X288494Y217600
X282117Y226717
X284187Y211188
X276313Y211038
X234565Y204856
X216100Y231800
X221900Y231600
X228892Y231700
X249400Y222500
X247300Y236500
X244000Y239200
X240435Y230259
X240800Y224316
X239417Y202800
X232200Y202800
X230673Y194176
X236590Y194133
X242625Y194835
X247600Y198300
X249300Y204119
X227049Y202800
X220600Y203000
X219095Y194133
X225080Y194300
X215480Y202800
X197480Y202800
X199500Y194300
X205500Y194300
X211500Y194300
X266000Y240100
X262430Y238370
X258900Y233700
X267200Y218450
X267200Y224450
X279200Y231700
X286209Y231708
X292200Y231900
X258700Y203550
X258700Y197550
X267200Y209300
X267541Y206000
X264500Y181500
X267200Y187000
X267200Y192955
X258588Y187873
X257144Y179373
X224700Y187873
X218700Y187873
X224607Y179373
X229396Y187873
X228300Y179373
X274000Y231600
X267900Y231000
X212517Y233655
X234742Y231503
X240419Y218332
X240419Y209278
X258154Y192656
X235100Y240300
X211690Y160356
X201080Y160108
X220505Y151995
X223000Y157600
X222857Y163515
X222857Y169515
X214357Y168723
X214357Y162723
X208825Y158607
X208190Y149800
X214185Y149666
X204590Y158300
X198590Y158300
X196680Y149800
X202629Y149602
X237111Y92615
X231111Y92615
X225111Y92615
X219668Y91131
X207668Y91131
X201668Y91131
X195668Y91131
X195400Y97125
X198432Y82531
X204432Y82531
X216432Y82531
X196449Y112033
X201554Y108880
X205799Y104640
X210042Y100397
X219768Y102833
X215525Y107076
X211283Y111318
X207020Y115541
X202082Y118950
X263596Y104092
X257596Y104092
X251596Y104092
X245596Y104092
X247940Y95492
X253940Y95492
X259940Y95492
X268703Y103728
X273278Y106073
X274994Y95664
X273621Y90574
X273507Y85141
X268703Y82281
X264871Y85942
X265100Y94349
X206320Y79082
X206877Y85909
X216821Y87171
X235966Y102457
X199994Y134459
X207434Y134459
X196822Y125628
X203018Y125628
X209548Y125554
X196785Y121046
X210513Y95000
X280200Y166580
X287350Y166530
X290830Y162460
X290790Y155040
X290970Y149120
X285270Y147260
X277760Y147310
X274320Y151790
X274230Y161920
X268980Y159930
X269120Y153640
X274320Y111670
X280520Y113380
X289290Y113520
X293640Y107050
X293730Y99590
X291830Y91220
X284050Y91080
X277760Y91360
X246320Y89140
X246410Y82220
X248400Y76160
X237550Y85250
X238040Y78100
X218602Y75483
X218676Y69695
X216413Y64352
X209697Y64241
X203575Y67098
X203538Y72886
X280430Y73760
X288480Y73900
X290740Y66070
X290700Y58610
X286940Y54540
X280110Y54580
X274320Y59200
X273910Y68920
X252790Y71770
X259030Y69240
X266950Y68690
X240710Y71500
X244920Y66340
X250390Y62500
X256950Y60190
X265500Y59510
X383184Y153983
X382305Y133883
X383184Y162983
X383184Y158383
X383184Y149483
X382700Y173600
X382700Y170100
X379200Y173600
X379200Y170100
X379194Y139383
X383184Y144883
X374305Y149483
X374305Y153883
X333800Y200800
X333800Y224900
X327300Y212600
X327300Y192600
X327300Y202600
X297700Y187600
X382700Y177100
X379200Y177100
X316000Y255600
X319000Y245100
X316000Y245100
X316000Y248600
X319000Y248600
X319000Y252100
X316000Y252100
X319000Y255600
X379000Y233500
X379000Y223000
X375500Y223000
X379000Y226500
X375500Y226500
X375500Y230000
X379000Y230000
X375500Y233500
X327300Y187600
X336506Y197600
X336506Y217600
X336506Y207600
X391780Y202800
X387700Y194300
X393700Y194300
X295777Y233730
X383123Y197225
X384721Y202757
X313500Y218400
X376300Y308394
X390400Y304400
X390400Y307700
X393400Y304400
X393400Y307700
X344450Y372400
X344450Y368900
X301717Y365924
X311082Y354657
X307274Y375053
X301736Y361786
X295260Y304350
X298523Y297325
X331700Y348880
X322288Y351488
X392656Y452151
X389090Y423520
X380445Y462226
X357990Y383120
X357990Y386620
X354490Y383120
X354490Y386620
X317468Y390738
X307042Y379217
X307042Y383217
X388890Y419920
X372875Y460925
X325468Y390738
X325550Y379100
X389339Y448670
X389339Y428770
X329320Y426125
X325820Y426125
X329391Y390738
X352470Y441035
X307394Y440050
X362100Y441625
X359400Y460490
X359400Y453990
X321468Y390738
X337241Y464100
X328761Y393625
X466500Y522043
X494614Y488753
X490371Y492996
X486128Y497238
X481886Y501481
X477643Y505724
X473401Y509966
X469740Y514720
X470400Y520220
X470810Y526800
X463900Y518102
X465145Y512233
X468650Y507363
X472893Y503120
X477135Y498878
X481378Y494635
X485621Y490392
X489863Y486150
X494106Y481907
X461980Y524030
X396460Y461580
X398136Y439517
X398186Y436720
X480249Y378049
X398350Y432720
X395645Y426064
X398118Y444720
X398068Y448670
X493400Y398100
X493400Y405100
X493400Y401600
X467100Y406300
X463600Y406300
X428200Y425600
X473551Y422375
X473524Y414501
X492057Y422375
X492057Y414501
X463651Y392316
X453651Y392536
X446794Y387500
X469206Y429160
X450286Y425814
X458651Y394944
X448654Y394944
X428200Y434506
X446910Y407145
X476110Y429500
X426721Y414188
X432700Y413500
X453698Y385700
X453698Y379700
X462310Y379400
X462198Y383866
X435692Y379043
X444351Y377514
X435798Y392200
X435798Y386200
X444298Y382600
X444400Y390840
X435798Y407000
X435798Y401000
X444298Y395800
X446676Y437621
X440898Y432151
X487700Y440270
X480500Y440360
X473120Y440320
X465480Y440270
X458140Y440530
X452250Y439990
X452640Y430600
X459760Y431430
X465000Y431500
X398170Y307783
X464500Y325100
X477942Y337058
X480500Y315100
X475100Y344500
X483348Y344752
X488000Y357300
X491500Y357300
X491500Y353800
X491500Y350300
X491500Y346800
X488000Y360800
X491500Y360800
X470803Y312283
X427200Y312531
X464156Y321288
X433743Y320701
X418967Y338595
X418967Y346469
X446354Y375000
X446354Y364000
X464254Y352850
X464254Y363282
X464254Y332301
X433743Y332301
X470100Y350490
X475823Y372700
X478894Y358350
X490300Y304500
X484810Y307032
X476500Y307200
X464500Y307200
X453698Y308129
X455458Y302392
X468100Y298700
X432968Y307200
X423300Y307500
X439319Y300531
X443356Y304969
X444298Y310895
X407300Y304300
X414725Y307200
X435798Y324800
X435272Y318226
X444298Y316113
X444379Y322242
X453698Y324800
X453623Y318831
X462198Y316113
X462334Y323203
X453568Y331982
X462198Y328400
X462300Y334900
X444298Y328400
X444489Y334045
X453513Y356258
X453500Y351200
X462198Y346950
X462300Y355200
X444300Y356272
X444355Y361555
X435700Y364100
X453388Y373616
X453188Y367388
X453698Y361700
X462198Y359866
X435798Y373000
X444298Y371300
X469300Y328600
X428113Y356914
X424425Y352734
X486800Y204800
X398700Y225700
X398700Y219700
X398700Y222700
X395200Y225700
X395200Y222700
X395200Y219700
X433993Y257685
X434112Y247623
X431000Y247500
X434500Y251000
X431000Y251000
X431000Y254500
X434500Y254500
X431000Y258000
X462700Y254800
X466200Y251300
X462700Y251300
X462700Y247800
X466200Y247800
X462700Y244300
X466200Y244300
X466200Y254800
X447800Y242100
X447400Y239600
X449900Y239500
X447520Y237050
X450020Y236950
X452500Y239500
X444200Y218000
X448200Y218000
X452200Y218000
X452200Y214000
X456200Y214000
X452622Y193061
X461678Y193061
X478689Y192470
X470815Y192470
X483453Y193010
X445150Y229950
X451250Y229950
X401000Y215800
X420200Y226535
X481025Y229581
X470815Y210924
X478689Y210998
X428765Y204856
X417333Y204856
X487185Y208400
X487623Y211250
X452900Y203550
X452900Y197550
X461400Y209300
X461700Y206200
X455900Y237500
X452800Y222500
X461400Y218450
X461400Y224450
X461666Y230359
X467271Y231708
X471800Y231708
X483800Y231739
X489447Y233766
X411200Y231700
X416700Y231700
X423367Y231700
X443500Y222500
X434639Y231480
X434805Y225620
X435000Y219582
X433837Y194070
X439800Y196100
X443200Y200900
X443500Y206994
X433800Y202800
X426300Y202900
X424849Y194300
X421249Y202800
X414700Y202900
X413380Y194300
X419201Y193988
X409780Y202800
X399700Y194300
X405700Y194300
X436700Y240100
X436576Y146724
X442400Y150324
X485600Y148400
X482100Y148400
X440600Y157524
X436576Y153924
X461678Y169939
X452622Y169939
X436316Y142647
X472710Y153144
X472710Y135244
X405047Y142647
X491492Y127181
X491892Y145844
X483320Y153144
X483320Y135244
X476210Y145800
X470494Y145967
X466050Y137300
X479810Y137300
X485810Y137300
X491007Y137300
X473052Y163816
X467040Y163700
X487883Y163939
X481720Y163700
X479810Y155200
X485810Y155200
X452900Y165700
X452900Y159700
X461400Y165450
X402706Y168050
X405342Y103301
X405342Y97300
X405342Y91300
X405342Y85300
X405342Y79300
X413942Y82781
X413942Y88781
X413942Y94781
X413942Y100781
X452850Y141550
X452850Y135550
X452071Y129601
X448094Y125108
X442684Y122512
X436684Y122495
X430684Y122487
X424776Y121444
X419421Y118738
X414972Y114712
X415228Y102806
X419470Y107048
X423760Y111243
X429225Y113720
X435222Y113895
X441222Y113895
X447172Y114670
X452472Y117482
X456793Y121645
X460161Y126611
X461445Y132472
X461430Y138100
X469200Y103301
X469200Y97300
X469200Y91300
X469200Y85300
X469200Y79300
X477800Y82781
X477800Y88781
X477800Y94781
X477800Y100781
X478800Y110146
X482046Y101546
X492000Y101546
X493584Y110703
X491273Y120554
X487044Y116298
X484345Y110940
X414651Y77882
X403280Y107909
X401620Y112580
X405308Y116330
X410287Y114609
X466715Y108708
X467514Y115039
X473845Y114424
X401960Y74700
X402143Y68600
X405001Y63252
X411486Y63160
X416987Y66080
X417018Y71981
X466161Y74470
X466192Y68662
X468374Y63375
X475320Y63345
X480729Y66326
X480650Y74440
X533058Y76005
X590687Y75887
X580249Y72302
X585101Y68773
X590884Y67175
X529934Y71520
X529934Y66080
X534821Y63406
X541705Y63314
X544533Y68201
X544533Y74317
X495750Y174750
X513000Y154000
X525450Y159500
X525650Y141550
X573430Y96593
X530050Y158250
X508000Y155100
X508050Y137050
X498800Y168444
X545908Y167906
X495780Y145967
X495467Y127181
X515800Y147800
X522500Y147856
X522500Y165806
X542120Y167906
X565190Y160356
X554580Y160356
X502897Y145800
X498300Y135300
X513800Y145800
X509200Y145800
X514277Y137300
X525650Y145800
X519650Y145800
X518800Y137300
X524800Y137300
X502947Y163750
X496953Y163857
X515200Y163750
X509200Y163750
X525450Y163750
X519450Y163750
X524000Y149700
X529100Y149750
X513000Y149750
X519000Y149750
X535063Y149317
X541034Y149603
X558090Y158300
X552090Y158300
X549982Y149664
X556180Y149800
X573005Y151995
X575987Y157201
X576357Y163190
X576357Y169190
X567857Y168800
X567857Y162800
X562800Y158500
X561690Y149800
X495750Y170500
X501750Y170500
X506100Y170500
X512100Y170500
X518195Y170358
X524139Y170358
X533180Y170550
X539256Y170379
X544690Y170550
X577476Y98855
X581485Y99503
X498000Y101546
X499657Y97300
X499657Y91300
X499657Y85300
X499657Y79300
X508257Y79600
X508257Y85600
X508257Y91600
X508257Y97600
X591331Y90100
X531331Y90100
X525331Y90100
X524700Y96067
X523865Y102008
X520867Y107206
X516141Y110902
X510389Y112610
X504390Y112692
X516100Y96980
X516100Y90980
X516179Y84981
X521066Y81500
X527066Y81500
X533066Y81500
X545066Y81500
X551066Y81500
X557066Y81500
X563066Y81500
X569066Y81500
X575066Y81500
X587066Y81500
X593066Y81500
X497827Y114946
X502070Y119189
X506894Y122756
X512860Y125380
X518878Y125700
X524878Y125700
X529414Y134300
X523414Y134300
X517414Y134300
X511414Y134300
X505436Y133784
X499890Y128960
X495516Y124797
X541000Y134300
X535000Y134300
X533014Y125700
X539014Y125700
X545014Y125700
X544595Y85321
X550595Y85321
X550326Y93921
X544326Y93918
X538574Y92210
X534466Y87838
X541658Y76781
X548077Y107261
X542077Y107261
X536077Y107261
X530150Y108191
X525317Y111747
X522825Y117205
X522658Y125703
X514340Y115804
X529930Y99249
X535902Y98661
X541902Y98661
X547728Y97229
X559367Y97753
X555124Y101995
X564872Y87867
X575940Y107626
X570155Y106034
X566001Y101704
X586672Y103787
X590915Y108030
X588309Y117586
X584066Y113343
X589412Y99012
X587542Y90412
X593542Y90412
X585882Y79480
X585843Y85480
X577242Y83621
X577482Y77626
X503780Y76560
X576066Y87440
X569919Y87563
X558978Y85657
X593369Y120540
X537279Y160525
X499108Y153026
X568075Y149584
X576557Y175154
X531830Y235620
X532034Y233060
X529614Y233100
X531884Y238090
X529464Y238130
X529440Y235550
X589700Y258000
X592700Y247500
X589700Y247500
X589700Y251000
X592700Y251000
X592700Y254500
X589700Y254500
X592700Y258000
X541200Y254800
X544700Y251300
X541200Y251300
X541200Y247800
X544700Y247800
X541200Y244300
X544700Y244300
X544700Y254800
X510900Y255600
X513597Y245100
X510900Y245100
X510900Y248600
X513597Y248600
X513707Y252100
X510900Y252100
X513707Y255600
X521500Y217700
X525000Y214200
X521500Y214200
X525000Y217700
X519100Y211000
X523100Y210900
X518100Y215800
X567157Y179250
X567157Y183250
X563157Y183250
X571157Y179250
X559157Y183250
X510377Y189277
X512725Y179325
X525120Y189006
X529000Y189006
X548190Y181106
X537580Y181106
X583364Y178188
X583364Y189212
X542900Y224510
X534406Y216650
X510377Y216223
X539883Y205628
X578400Y226544
X587965Y204856
X576533Y204856
X560200Y215800
X517050Y225606
X512950Y225606
X507850Y225606
X503650Y225606
X497857Y229004
X568880Y202800
X550880Y202800
X546900Y194300
X552900Y194300
X558900Y194300
X564900Y194300
X580449Y202800
X574100Y202900
X572351Y194014
X578480Y194300
X593474Y194055
X594200Y209550
X594200Y203550
X584049Y194300
X580900Y188100
X581600Y179450
X593957Y230345
X594200Y224316
X569700Y231800
X575100Y231400
X502500Y179000
X496500Y179000
X506572Y179000
X541090Y179050
X535090Y179050
X545800Y179200
X590131Y217170
X588366Y207586
X543979Y202323
X541411Y198400
X528582Y179304
X520191Y181424
X572255Y188493
X585286Y231213
X504400Y311300
X504100Y317200
X507600Y317480
X528500Y302700
X532000Y302700
X533500Y320700
X531271Y321749
X526300Y370200
X540000Y327037
X532000Y334346
X540000Y330100
X495800Y341300
X512390Y331910
X503338Y336562
X525000Y334515
X585700Y312263
X592243Y320701
X515846Y323300
X502623Y358777
X525810Y366600
X525395Y363712
X529547Y375490
X573180Y353201
X581054Y353201
X581054Y371772
X592243Y332301
X515143Y346066
X509350Y349394
X505150Y349394
X500050Y349394
X495950Y349394
X574149Y307200
X568366Y305600
X591468Y307200
X594298Y372530
X594137Y367696
X594298Y338050
X594155Y329781
X594298Y324800
X594200Y318100
X537280Y336250
X506000Y322400
X594100Y312300
X586252Y375319
X593573Y347871
X590388Y365397
X541995Y405095
X541370Y408170
X558040Y466060
X562087Y451340
X562007Y454060
X578520Y423120
X558300Y474400
X561800Y474400
X496900Y401600
X496900Y405100
X496900Y398100
X558140Y462060
X558093Y458010
X581602Y449755
X581454Y457584
X566787Y446200
X566787Y461100
X502623Y385723
X529547Y381990
X517800Y453114
X512900Y452294
X581679Y440183
X594444Y426804
X581700Y411914
X579550Y425880
X560700Y427232
X500510Y429400
X504978Y431432
X560600Y437938
X558200Y429288
X564200Y429288
X576800Y438200
X568225Y429089
X573500Y429200
X594137Y407076
X594298Y401000
X594298Y392200
X594298Y386200
X594092Y378545
X591700Y413200
X536018Y445804
X538070Y461580
X535190Y458740
X531500Y455320
X530740Y450380
X531200Y441320
X513880Y439090
X520340Y439140
X527330Y438960
X502200Y440320
X495260Y440230
X496310Y431290
X514860Y430340
X520800Y430290
X527440Y430210
X535040Y430160
X543250Y430290
X550540Y429940
X581540Y429030
X588360Y429120
X594300Y438200
X586830Y438200
X540480Y439140
X545230Y438980
X551960Y438850
X556170Y439120
X525170Y441560
X521060Y447460
X521240Y453610
X522550Y458630
X526310Y462520
X530190Y467240
X530630Y471170
X539320Y468370
X539230Y474400
X541520Y450030
X544060Y454850
X544140Y459550
X541680Y462180
X553910Y430200
X511210Y416353
X511210Y422353
X511210Y428353
X511210Y440353
X511210Y446353
X511310Y450050
X510919Y464346
X509450Y470163
X506805Y475548
X502214Y473075
X504814Y467668
X506010Y449779
X506010Y443779
X506010Y425779
X506010Y419779
X506154Y413781
X507595Y407957
X510492Y402702
X516432Y403744
X512964Y408640
X514100Y398400
X521980Y394860
X522630Y399040
X516380Y394410
X571900Y468700
X594240Y493190
X590900Y478900
X587700Y478900
X557500Y491600
X567800Y491200
X567900Y494400
X565000Y491800
X554133Y481394
X558333Y481394
X558300Y477900
X561800Y477900
X572933Y482533
X562833Y499493
X557833Y499493
X562833Y504493
X557833Y504493
X589406Y483000
X567533Y478300
X562500Y481394
X588549Y487500
X588549Y492500
X576533Y490800
X528418Y488890
X528418Y493890
X525918Y493890
X525918Y488890
X522918Y493890
X522918Y488890
X536918Y491390
X531918Y491390
X534418Y491390
X522918Y491390
X525918Y491390
X528418Y491390
X520418Y488890
X520418Y491390
X520418Y493890
X518418Y489890
X518418Y492890
X594500Y516436
X594500Y513436
X594500Y510936
X594500Y518936
X567516Y517820
X555867Y535870
X555846Y531070
X556033Y526370
X555929Y521570
X555867Y516906
X554800Y492100
X549600Y499281
X560333Y512867
X591100Y509200
X585072Y508438
X579094Y508243
X588500Y499200
X546885Y510180
X537368Y508243
X572136Y508866
X539497Y499707
X545582Y499277
X543123Y508497
X539230Y479990
X539930Y486670
X540100Y493130
X531550Y504660
X503097Y480266
X498856Y484510
X498349Y477665
X597460Y493300
X597000Y504936
X597000Y507436
X597000Y502436
X597000Y516436
X599500Y516436
X597000Y513436
X599500Y513436
X599500Y510936
X597000Y510936
X597000Y518936
X599500Y518936
X595500Y520936
X598500Y520936
X605260Y493960
X606487Y476187
X609814Y508243
X603800Y508800
X602890Y498770
X608906Y499743
X596740Y499080
X644196Y499743
X650300Y500200
X655998Y501683
X661506Y504061
X666557Y507301
X671004Y511329
X674225Y516391
X675800Y522200
X667100Y523800
X665495Y518061
X661180Y513892
X656022Y510827
X650400Y509100
X644373Y508243
X638373Y508243
X632373Y508243
X626373Y508243
X620373Y508243
X614373Y508243
X613414Y499743
X619414Y499743
X625414Y499743
X631414Y499743
X637414Y499743
X659500Y381660
X651215Y385985
X655115Y385985
X616900Y407300
X616900Y403800
X622100Y428700
X625600Y428700
X618600Y428700
X618600Y432200
X625600Y432200
X622100Y432200
X604954Y407000
X622151Y390869
X612151Y391015
X605294Y387500
X617151Y393444
X607154Y393444
X607680Y415520
X604800Y425600
X602798Y395800
X602798Y382130
X602803Y377532
X612198Y385700
X612198Y379700
X621030Y379220
X620760Y384420
X600007Y436607
X604510Y431040
X672950Y362115
X667885Y362115
X667200Y341800
X670400Y341800
X650545Y332300
X599498Y342500
X607498Y338500
X603498Y338500
X607498Y346500
X607498Y342500
X615498Y342500
X611498Y338500
X611498Y346500
X611498Y342500
X629303Y312181
X622754Y320701
X604854Y364000
X604854Y375000
X622754Y332301
X622754Y363282
X622754Y352850
X648700Y304900
X643300Y307300
X601813Y304878
X602798Y310797
X635000Y307200
X623000Y307200
X612198Y308129
X613958Y302392
X626573Y298525
X602798Y371300
X602798Y356348
X602900Y361300
X611845Y373768
X611704Y367693
X612198Y361700
X620698Y359866
X612075Y356170
X612000Y351400
X620698Y346950
X620800Y355200
X602893Y328440
X602800Y333700
X612104Y332003
X620698Y328400
X620700Y335100
X612104Y324753
X612198Y318800
X620698Y316113
X620700Y323400
X602893Y316128
X602798Y322113
X663240Y332040
X624700Y254800
X624700Y251300
X621200Y251300
X621200Y247800
X624700Y247800
X621200Y244300
X624700Y244300
X621200Y254800
X674700Y232800
X674700Y239800
X677700Y239800
X674700Y236300
X677700Y236300
X677700Y232800
X674700Y229300
X677700Y229300
X607100Y242100
X605200Y238800
X608700Y238800
X605200Y235300
X608700Y235300
X611800Y238900
X603400Y218000
X607400Y218000
X607400Y210000
X611400Y210000
X611400Y218000
X611400Y214000
X615400Y214000
X609400Y190500
X609636Y178188
X638087Y192470
X630213Y192321
X604350Y229950
X610450Y229950
X636400Y226563
X638087Y211073
X630213Y211185
X599390Y194830
X602432Y201294
X611800Y179300
X616746Y181335
X620194Y186245
X620700Y192100
X611050Y187950
X621100Y206400
X612100Y203550
X612100Y197550
X620428Y211730
X615820Y238390
X620600Y218450
X620600Y224450
X602700Y231500
X632900Y231600
X639800Y231600
X645621Y231952
X595001Y213665
X620814Y229861
X626961Y231397
X605184Y81500
X610954Y83144
X614977Y87595
X616025Y93503
X616025Y99503
X617856Y105217
X616180Y113816
X610570Y111688
X607582Y106484
X607425Y100487
X607425Y94487
X603331Y90100
X597331Y90100
X599066Y81500
X595158Y112272
X617784Y85390
X601412Y99012
X595412Y99012
X599542Y90412
X605542Y90377
X609184Y79605
X608572Y155907
X613666Y159077
X614689Y168142
X608934Y166444
X603859Y163244
X599969Y158675
X598076Y152982
X597953Y146983
X597953Y140983
X597916Y116983
X603057Y104736
X605394Y110262
X606480Y116163
X606553Y140163
X606553Y146163
X634275Y78589
X629051Y80986
X620814Y81293
X623764Y98258
X630772Y98258
X637164Y100901
X637226Y108646
X637164Y115162
X633169Y120817
X624502Y121001
X617925Y118543
X620507Y155054
X626899Y154809
X634337Y157329
X634521Y164275
X634275Y171712
X627575Y173863
X620322Y173249
X670000Y89500
X640000Y89500
X660000Y89500
X650000Y89500
X640000Y104500
X650000Y104500
X660000Y104500
X670000Y104500
X670000Y114500
X660000Y114500
X640000Y114500
X640000Y129500
X650000Y129500
X660000Y129500
X670000Y129500
X670000Y144500
X660000Y144500
X650000Y144500
X640000Y144500
X640000Y159500
X650000Y159500
X660000Y159500
X670000Y159500
X670000Y174500
X660000Y174500
X650000Y174500
X640000Y174500
X614684Y75706
X608684Y75706
X602684Y75706
X596684Y75706
X596884Y67106
X602884Y67106
X608884Y67106
X614884Y67106
X621121Y61746
X627453Y61746
X634337Y64820
X634460Y71397
M30
