G04 ================== begin FILE IDENTIFICATION RECORD ==================*
G04 Layout Name:  OC_CONNECT_1_FRONTEND_LIFE-3.brd*
G04 Film Name:    pastbot*
G04 File Format:  Gerber RS274X*
G04 File Origin:  Cadence Allegro 16.6-P004*
G04 Origin Date:  Fri Jan 13 14:48:27 2017*
G04 *
G04 Layer:  DRAWING FORMAT/SPSE*
G04 Layer:  DRAWING FORMAT/FILM_LABEL_OUTLINE*
G04 Layer:  PACKAGE GEOMETRY/PASTEMASK_BOTTOM*
G04 Layer:  PIN/PASTEMASK_BOTTOM*
G04 Layer:  BOARD GEOMETRY/OUTLINE*
G04 *
G04 Offset:    (0.000 0.000)*
G04 Mirror:    No*
G04 Mode:      Positive*
G04 Rotation:  0*
G04 FullContactRelief:  No*
G04 UndefLineWidth:     6.000*
G04 ================== end FILE IDENTIFICATION RECORD ====================*
%FSLAX25Y25*MOIN*%
%IR0*IPPOS*OFA0.00000B0.00000*MIA0B0*SFA1.00000B1.00000*%
%ADD16R,.11X.055*%
%ADD55R,.055X.11*%
%ADD76R,.106X.055*%
%AMMACRO32*
4,1,22,-.00689,.004134,
.005906,.004134,
.006077,.004119,
.006243,.004075,
.006398,.004002,
.006539,.003903,
.00666,.003782,
.006758,.003642,
.006831,.003486,
.006875,.00332,
.00689,.00315,
.00689,-.00315,
.006875,-.003321,
.006831,-.003487,
.006758,-.003642,
.006659,-.003783,
.006538,-.003904,
.006398,-.004002,
.006242,-.004075,
.006076,-.004119,
.005906,-.004134,
-.00689,-.004134,
-.00689,.004134,
0.0*
%
%ADD32MACRO32*%
%AMMACRO29*
4,1,22,-.004134,-.00689,
-.004134,.005906,
-.004119,.006077,
-.004075,.006243,
-.004002,.006398,
-.003903,.006539,
-.003782,.00666,
-.003642,.006758,
-.003486,.006831,
-.00332,.006875,
-.00315,.00689,
.00315,.00689,
.003321,.006875,
.003487,.006831,
.003642,.006758,
.003783,.006659,
.003904,.006538,
.004002,.006398,
.004075,.006242,
.004119,.006076,
.004134,.005906,
.004134,-.00689,
-.004134,-.00689,
0.0*
%
%ADD29MACRO29*%
%AMMACRO46*
4,1,23,-.005984,.019016,
-.005984,-.012992,
-.0059,-.014032,
-.005637,-.015041,
-.005202,-.015989,
-.00461,-.016848,
-.003877,-.01759,
-.003027,-.018194,
-.002084,-.018641,
-.001078,-.018918,
-.00004,-.019016,
0.0,-.019016,
.001039,-.018925,
.002047,-.018655,
.002992,-.018214,
.003847,-.017616,
.004584,-.016878,
.005182,-.016024,
.005623,-.015079,
.005893,-.014071,
.005984,-.013032,
.005984,-.012992,
.005984,.019016,
-.005984,.019016,
0.0*
%
%ADD46MACRO46*%
%AMMACRO49*
4,1,23,.019016,.005984,
-.012992,.005984,
-.014032,.0059,
-.015041,.005637,
-.015989,.005202,
-.016848,.00461,
-.01759,.003877,
-.018194,.003027,
-.018641,.002084,
-.018918,.001078,
-.019016,.00004,
-.019016,0.0,
-.018925,-.001039,
-.018655,-.002047,
-.018214,-.002992,
-.017616,-.003847,
-.016878,-.004584,
-.016024,-.005182,
-.015079,-.005623,
-.014071,-.005893,
-.013032,-.005984,
-.012992,-.005984,
.019016,-.005984,
.019016,.005984,
0.0*
%
%ADD49MACRO49*%
%ADD78R,.13504X.07205*%
%AMMACRO86*
4,1,44,-.014961,-.007087,
-.014961,.012992,
-.014931,.013334,
-.014842,.013665,
-.014697,.013976,
-.0145,.014258,
-.014258,.0145,
-.013977,.014697,
-.013666,.014842,
-.013334,.014931,
-.012992,.014961,
-.012992,.014961,
.012992,.014961,
.013334,.014931,
.013665,.014842,
.013976,.014697,
.014258,.0145,
.0145,.014258,
.014697,.013977,
.014842,.013666,
.014931,.013334,
.014961,.012992,
.014961,.012992,
.014961,-.012992,
.014931,-.013334,
.014842,-.013665,
.014697,-.013976,
.0145,-.014258,
.014258,-.0145,
.013977,-.014697,
.013666,-.014842,
.013334,-.014931,
.012992,-.014961,
.012992,-.014961,
-.007087,-.014961,
-.007207,-.013594,
-.007562,-.012268,
-.008142,-.011024,
-.008929,-.0099,
-.009899,-.008929,
-.011023,-.008142,
-.012267,-.007562,
-.013593,-.007207,
-.01496,-.007087,
-.014961,-.007087,
0.0*
%
%ADD86MACRO86*%
%ADD43C,.009055*%
%AMMACRO35*
4,1,15,.004134,.00689,
-.004134,.00689,
-.004134,-.006299,
-.004125,-.006402,
-.004098,-.006501,
-.004055,-.006594,
-.003996,-.006679,
-.003923,-.006752,
-.003839,-.006811,
-.003746,-.006854,
-.003646,-.006881,
-.003544,-.00689,
-.003543,-.00689,
.002004,-.00689,
.004134,-.00476,
.004134,.00689,
0.0*
%
%ADD35MACRO35*%
%AMMACRO27*
4,1,15,.00689,-.004134,
.00689,.004134,
-.006299,.004134,
-.006402,.004125,
-.006501,.004098,
-.006594,.004055,
-.006679,.003996,
-.006752,.003923,
-.006811,.003839,
-.006854,.003746,
-.006881,.003646,
-.00689,.003544,
-.00689,.003543,
-.00689,-.002004,
-.00476,-.004134,
.00689,-.004134,
0.0*
%
%ADD27MACRO27*%
%AMMACRO81*
4,1,10,.0181,-.1051,
-.0181,-.1051,
-.0181,-.0296,
-.0376,-.0101,
-.0376,.0856,
-.0181,.1051,
.0181,.1051,
.0376,.0856,
.0376,-.0101,
.0181,-.0296,
.0181,-.1051,
0.0*
%
%ADD81MACRO81*%
%ADD75R,.014173X.008661*%
%AMMACRO45*
4,1,12,.007677,.045276,
.007677,.109055,
-.007677,.109055,
-.007677,.045276,
-.06752,.045276,
-.06752,-.045276,
-.007677,-.045276,
-.007677,-.109055,
.007677,-.109055,
.007677,-.045276,
.06752,-.045276,
.06752,.045276,
.007677,.045276,
0.0*
%
%ADD45MACRO45*%
%AMMACRO18*
4,1,12,.045276,-.007677,
.109055,-.007677,
.109055,.007677,
.045276,.007677,
.045276,.06752,
-.045276,.06752,
-.045276,.007677,
-.109055,.007677,
-.109055,-.007677,
-.045276,-.007677,
-.045276,-.06752,
.045276,-.06752,
.045276,-.007677,
0.0*
%
%ADD18MACRO18*%
%AMMACRO84*
4,1,21,0.0,-.008661,
-.000684,-.008601,
-.001347,-.008424,
-.001968,-.008134,
-.002531,-.00774,
-.003016,-.007255,
-.00341,-.006693,
-.0037,-.006071,
-.003877,-.005408,
-.003937,-.004724,
-.003937,.008662,
.003937,.008662,
.003937,-.004724,
.003877,-.005408,
.0037,-.006071,
.00341,-.006692,
.003016,-.007255,
.002531,-.00774,
.001969,-.008134,
.001347,-.008424,
.000684,-.008601,
0.0,-.008661,
0.0*
%
%ADD84MACRO84*%
%AMMACRO85*
4,1,21,-.008661,0.0,
-.008601,.000684,
-.008424,.001347,
-.008134,.001968,
-.00774,.002531,
-.007255,.003016,
-.006693,.00341,
-.006071,.0037,
-.005408,.003877,
-.004724,.003937,
.008662,.003937,
.008662,-.003937,
-.004724,-.003937,
-.005408,-.003877,
-.006071,-.0037,
-.006692,-.00341,
-.007255,-.003016,
-.00774,-.002531,
-.008134,-.001969,
-.008424,-.001347,
-.008601,-.000684,
-.008661,0.0,
0.0*
%
%ADD85MACRO85*%
%AMMACRO41*
4,1,38,.102362,-.102362,
.102362,.102362,
-.102362,.102362,
-.102362,-.102362,
-.03937,-.102362,
-.03937,-.068193,
-.050613,-.06032,
-.060319,-.050615,
-.068192,-.039372,
-.073993,-.026932,
-.077545,-.013674,
-.078742,-.000001,
-.077546,.013672,
-.073994,.02693,
-.068193,.03937,
-.06032,.050613,
-.050615,.060319,
-.039372,.068192,
-.026932,.073993,
-.013674,.077545,
-.000001,.078742,
.013672,.077546,
.02693,.073994,
.03937,.068193,
.050613,.06032,
.060319,.050615,
.068192,.039372,
.073993,.026932,
.077545,.013674,
.078742,.000001,
.077546,-.013672,
.073994,-.02693,
.068193,-.03937,
.06032,-.050613,
.050615,-.060319,
.039372,-.068192,
.03937,-.068193,
.03937,-.102362,
.102362,-.102362,
0.0*
%
%ADD41MACRO41*%
%ADD65R,.009843X.009843*%
%AMMACRO34*
4,1,35,.023425,.024409,
-.01685,.024409,
-.024409,.01685,
-.024409,-.023425,
-.024394,-.023596,
-.02435,-.023761,
-.024277,-.023917,
-.024179,-.024057,
-.024058,-.024179,
-.023917,-.024277,
-.023762,-.02435,
-.023596,-.024394,
-.023425,-.024409,
-.023425,-.024409,
.023425,-.024409,
.023596,-.024394,
.023761,-.02435,
.023917,-.024277,
.024057,-.024179,
.024179,-.024058,
.024277,-.023917,
.02435,-.023762,
.024394,-.023596,
.024409,-.023425,
.024409,-.023425,
.024409,.023425,
.024394,.023596,
.02435,.023761,
.024277,.023917,
.024179,.024057,
.024058,.024179,
.023917,.024277,
.023762,.02435,
.023596,.024394,
.023425,.024409,
.023425,.024409,
0.0*
%
%ADD34MACRO34*%
%ADD74R,.015748X.008661*%
%ADD61R,.009843X.031496*%
%ADD64R,.009843X.012795*%
%ADD62R,.031496X.009843*%
%ADD63R,.007874X.012795*%
%ADD77R,.145669X.086614*%
%ADD73R,.027559X.009843*%
%ADD72R,.009843X.027559*%
%AMMACRO23*
4,1,15,.004134,.00689,
-.004134,.00689,
-.004134,-.00476,
-.002004,-.00689,
.003543,-.00689,
.003646,-.006881,
.003745,-.006854,
.003838,-.006811,
.003923,-.006752,
.003996,-.006679,
.004055,-.006595,
.004098,-.006502,
.004125,-.006402,
.004134,-.0063,
.004134,-.006299,
.004134,.00689,
0.0*
%
%ADD23MACRO23*%
%AMMACRO25*
4,1,15,.00689,-.004134,
.00689,.004134,
-.00476,.004134,
-.00689,.002004,
-.00689,-.003543,
-.006881,-.003646,
-.006854,-.003745,
-.006811,-.003838,
-.006752,-.003923,
-.006679,-.003996,
-.006595,-.004055,
-.006502,-.004098,
-.006402,-.004125,
-.0063,-.004134,
-.006299,-.004134,
.00689,-.004134,
0.0*
%
%ADD25MACRO25*%
%ADD67R,.012X.015*%
%ADD68R,.015X.012*%
%ADD36R,.012X.08*%
%ADD10R,.074X.013*%
%ADD59R,.058X.032*%
%AMMACRO48*
4,1,23,.005984,-.019016,
.005984,.012992,
.0059,.014032,
.005637,.015041,
.005202,.015989,
.00461,.016848,
.003877,.01759,
.003027,.018194,
.002084,.018641,
.001078,.018918,
.00004,.019016,
0.0,.019016,
-.001039,.018925,
-.002047,.018655,
-.002992,.018214,
-.003847,.017616,
-.004584,.016878,
-.005182,.016024,
-.005623,.015079,
-.005893,.014071,
-.005984,.013032,
-.005984,.012992,
-.005984,-.019016,
.005984,-.019016,
0.0*
%
%ADD48MACRO48*%
%AMMACRO47*
4,1,23,-.019016,-.005984,
.012992,-.005984,
.014032,-.0059,
.015041,-.005637,
.015989,-.005202,
.016848,-.00461,
.01759,-.003877,
.018194,-.003027,
.018641,-.002084,
.018918,-.001078,
.019016,-.00004,
.019016,0.0,
.018925,.001039,
.018655,.002047,
.018214,.002992,
.017616,.003847,
.016878,.004584,
.016024,.005182,
.015079,.005623,
.014071,.005893,
.013032,.005984,
.012992,.005984,
-.019016,.005984,
-.019016,-.005984,
0.0*
%
%ADD47MACRO47*%
%ADD19R,.036X.037*%
%ADD54R,.059X.051*%
%ADD15R,.037X.036*%
%ADD53R,.051X.059*%
%ADD66R,.059X.044*%
%ADD52R,.055X.039*%
%AMMACRO24*
4,1,22,.004134,.00689,
.004134,-.005906,
.004119,-.006077,
.004075,-.006243,
.004002,-.006398,
.003903,-.006539,
.003782,-.00666,
.003642,-.006758,
.003486,-.006831,
.00332,-.006875,
.00315,-.00689,
-.00315,-.00689,
-.003321,-.006875,
-.003487,-.006831,
-.003642,-.006758,
-.003783,-.006659,
-.003904,-.006538,
-.004002,-.006398,
-.004075,-.006242,
-.004119,-.006076,
-.004134,-.005906,
-.004134,.00689,
.004134,.00689,
0.0*
%
%ADD24MACRO24*%
%AMMACRO26*
4,1,22,.00689,-.004134,
-.005906,-.004134,
-.006077,-.004119,
-.006243,-.004075,
-.006398,-.004002,
-.006539,-.003903,
-.00666,-.003782,
-.006758,-.003642,
-.006831,-.003486,
-.006875,-.00332,
-.00689,-.00315,
-.00689,.00315,
-.006875,.003321,
-.006831,.003487,
-.006758,.003642,
-.006659,.003783,
-.006538,.003904,
-.006398,.004002,
-.006242,.004075,
-.006076,.004119,
-.005906,.004134,
.00689,.004134,
.00689,-.004134,
0.0*
%
%ADD26MACRO26*%
%ADD22R,.039X.055*%
%AMMACRO14*
21,1,.021,.021,0.0,0.0,45.*%
%ADD14MACRO14*%
%ADD13R,.021X.021*%
%ADD56R,.031X.031*%
%ADD70R,.051181X.023622*%
%ADD44R,.024X.03898*%
%AMMACRO33*
4,1,15,-.00689,.004134,
-.00689,-.004134,
.006299,-.004134,
.006402,-.004125,
.006501,-.004098,
.006594,-.004055,
.006679,-.003996,
.006752,-.003923,
.006811,-.003839,
.006854,-.003746,
.006881,-.003646,
.00689,-.003544,
.00689,-.003543,
.00689,.002004,
.00476,.004134,
-.00689,.004134,
0.0*
%
%ADD33MACRO33*%
%AMMACRO30*
4,1,15,-.004134,-.00689,
.004134,-.00689,
.004134,.006299,
.004125,.006402,
.004098,.006501,
.004055,.006594,
.003996,.006679,
.003923,.006752,
.003839,.006811,
.003746,.006854,
.003646,.006881,
.003544,.00689,
.003543,.00689,
-.002004,.00689,
-.004134,.00476,
-.004134,-.00689,
0.0*
%
%ADD30MACRO30*%
%ADD71R,.051181X.035433*%
%ADD17R,.03898X.024*%
%ADD11C,.03937*%
%AMMACRO58*
4,1,10,.106299,.019685,
.106299,-.019685,
.031496,-.019685,
.011811,-.03937,
-.074803,-.03937,
-.106299,-.007874,
-.106299,.007874,
-.074803,.03937,
.011811,.03937,
.031496,.019685,
.106299,.019685,
0.0*
%
%ADD58MACRO58*%
%AMMACRO57*
4,1,10,-.0181,.1051,
.0181,.1051,
.0181,.0296,
.0376,.0101,
.0376,-.0856,
.0181,-.1051,
-.0181,-.1051,
-.0376,-.0856,
-.0376,.0101,
-.0181,.0296,
-.0181,.1051,
0.0*
%
%ADD57MACRO57*%
%ADD69C,.059055*%
%ADD79R,.011811X.057087*%
%AMMACRO83*
4,1,21,.008661,0.0,
.008601,-.000684,
.008424,-.001347,
.008134,-.001968,
.00774,-.002531,
.007255,-.003016,
.006693,-.00341,
.006071,-.0037,
.005408,-.003877,
.004724,-.003937,
-.008662,-.003937,
-.008662,.003937,
.004724,.003937,
.005408,.003877,
.006071,.0037,
.006693,.00341,
.007255,.003016,
.00774,.002531,
.008134,.001968,
.008424,.001347,
.008601,.000684,
.008661,0.0,
0.0*
%
%ADD83MACRO83*%
%AMMACRO82*
4,1,21,0.0,.008661,
.000684,.008601,
.001347,.008424,
.001969,.008134,
.002531,.00774,
.003016,.007255,
.00341,.006692,
.0037,.006071,
.003877,.005408,
.003937,.004724,
.003937,-.008662,
-.003937,-.008662,
-.003937,.004724,
-.003877,.005408,
-.0037,.006071,
-.00341,.006692,
-.003016,.007255,
-.002531,.00774,
-.001969,.008134,
-.001347,.008424,
-.000684,.008601,
0.0,.008661,
0.0*
%
%ADD82MACRO82*%
%ADD39R,.021654X.031496*%
%ADD20R,.03189X.03189*%
%ADD37R,.03937X.03937*%
%ADD12R,.034646X.034646*%
%ADD80R,.019685X.023622*%
%ADD60R,.084646X.084646*%
%ADD42R,.019685X.055118*%
%ADD51R,.047244X.062992*%
%ADD50R,.027559X.03937*%
%ADD40R,.057087X.045276*%
%ADD38R,.027953X.059055*%
%AMMACRO31*
4,1,15,-.00689,.004134,
-.00689,-.004134,
.00476,-.004134,
.00689,-.002004,
.00689,.003543,
.006881,.003646,
.006854,.003745,
.006811,.003838,
.006752,.003923,
.006679,.003996,
.006595,.004055,
.006502,.004098,
.006402,.004125,
.0063,.004134,
.006299,.004134,
-.00689,.004134,
0.0*
%
%ADD31MACRO31*%
%AMMACRO28*
4,1,15,-.004134,-.00689,
.004134,-.00689,
.004134,.00476,
.002004,.00689,
-.003543,.00689,
-.003646,.006881,
-.003745,.006854,
-.003838,.006811,
-.003923,.006752,
-.003996,.006679,
-.004055,.006595,
-.004098,.006502,
-.004125,.006402,
-.004134,.0063,
-.004134,.006299,
-.004134,-.00689,
0.0*
%
%ADD28MACRO28*%
%ADD21R,.038976X.03189*%
%ADD87C,.01*%
%ADD88C,.006*%
G75*
%LPD*%
G75*
G36*
G01X97106Y34537D02*
X89232D01*
Y42411D01*
X97106D01*
Y34537D01*
G37*
G36*
G01Y24656D02*
X89232D01*
Y32530D01*
X97106D01*
Y24656D01*
G37*
G36*
G01X87224Y34537D02*
X79350D01*
Y42411D01*
X87224D01*
Y34537D01*
G37*
G36*
G01Y24656D02*
X79350D01*
Y32530D01*
X87224D01*
Y24656D01*
G37*
G36*
G01X77342Y34537D02*
X69468D01*
Y42411D01*
X77342D01*
Y34537D01*
G37*
G36*
G01Y24656D02*
X69468D01*
Y32530D01*
X77342D01*
Y24656D01*
G37*
G36*
G01X67461Y34537D02*
X61476D01*
Y42411D01*
X67461D01*
Y34537D01*
G37*
G36*
G01Y24656D02*
X61476D01*
Y32530D01*
X67461D01*
Y24656D01*
G37*
G36*
G01X76870Y72962D02*
Y64931D01*
X90413D01*
Y72962D01*
X97106D01*
Y57490D01*
X69468D01*
Y72962D01*
X76870D01*
G37*
G36*
G01X97106Y44419D02*
X89232D01*
Y55482D01*
X97106D01*
Y44419D01*
G37*
G36*
G01X87224D02*
X79350D01*
Y55482D01*
X87224D01*
Y44419D01*
G37*
G36*
G01X77342D02*
X69468D01*
Y55482D01*
X77342D01*
Y44419D01*
G37*
G36*
G01X67461Y66230D02*
X61476D01*
Y72962D01*
X67461D01*
Y66230D01*
G37*
G36*
G01Y57490D02*
X61476D01*
Y64222D01*
X67461D01*
Y57490D01*
G37*
G36*
G01Y44419D02*
X61476D01*
Y55482D01*
X67461D01*
Y44419D01*
G37*
G36*
G01X35697Y282649D02*
X34516Y281468D01*
Y278397D01*
X48846D01*
Y282649D01*
X35697D01*
G37*
G36*
G01X72114Y271920D02*
X67744D01*
Y266960D01*
X72114D01*
Y271920D01*
G37*
G36*
G01X38256D02*
X33886D01*
Y266960D01*
X38256D01*
Y271920D01*
G37*
G36*
G01X52016Y277236D02*
X40087D01*
Y261645D01*
X52016D01*
Y277236D01*
G37*
G36*
G01X65913D02*
X53984D01*
Y261645D01*
X65913D01*
Y277236D01*
G37*
G36*
G01X48846Y260484D02*
X34516D01*
Y256232D01*
X48846D01*
Y260484D01*
G37*
G36*
G01X71484D02*
X57154D01*
Y256232D01*
X71484D01*
Y260484D01*
G37*
G36*
G01Y282649D02*
X57154D01*
Y278397D01*
X71484D01*
Y282649D01*
G37*
G36*
G01X225571Y24656D02*
X217697D01*
Y32530D01*
X225571D01*
Y24656D01*
G37*
G36*
G01Y34537D02*
X217697D01*
Y42411D01*
X225571D01*
Y34537D01*
G37*
G36*
G01X215689D02*
X207815D01*
Y42411D01*
X215689D01*
Y34537D01*
G37*
G36*
G01Y24656D02*
X207815D01*
Y32530D01*
X215689D01*
Y24656D01*
G37*
G36*
G01X205807Y34537D02*
X197933D01*
Y42411D01*
X205807D01*
Y34537D01*
G37*
G36*
G01Y24656D02*
X197933D01*
Y32530D01*
X205807D01*
Y24656D01*
G37*
G36*
G01X195925Y34537D02*
X188051D01*
Y42411D01*
X195925D01*
Y34537D01*
G37*
G36*
G01Y24656D02*
X188051D01*
Y32530D01*
X195925D01*
Y24656D01*
G37*
G36*
G01X186043Y34537D02*
X178169D01*
Y42411D01*
X186043D01*
Y34537D01*
G37*
G36*
G01Y24656D02*
X178169D01*
Y32530D01*
X186043D01*
Y24656D01*
G37*
G36*
G01X176161Y34537D02*
X168287D01*
Y42411D01*
X176161D01*
Y34537D01*
G37*
G36*
G01Y24656D02*
X168287D01*
Y32530D01*
X176161D01*
Y24656D01*
G37*
G36*
G01X166280Y34537D02*
X158406D01*
Y42411D01*
X166280D01*
Y34537D01*
G37*
G36*
G01Y24656D02*
X158406D01*
Y32530D01*
X166280D01*
Y24656D01*
G37*
G36*
G01X156398Y34537D02*
X148524D01*
Y42411D01*
X156398D01*
Y34537D01*
G37*
G36*
G01Y24656D02*
X148524D01*
Y32530D01*
X156398D01*
Y24656D01*
G37*
G36*
G01X146516D02*
X138642D01*
Y32530D01*
X146516D01*
Y24656D01*
G37*
G36*
G01Y34537D02*
X138642D01*
Y42411D01*
X146516D01*
Y34537D01*
G37*
G36*
G01X136634D02*
X128760D01*
Y42411D01*
X136634D01*
Y34537D01*
G37*
G36*
G01Y24656D02*
X128760D01*
Y32530D01*
X136634D01*
Y24656D01*
G37*
G36*
G01X126752Y34537D02*
X118878D01*
Y42411D01*
X126752D01*
Y34537D01*
G37*
G36*
G01Y24656D02*
X118878D01*
Y32530D01*
X126752D01*
Y24656D01*
G37*
G36*
G01X116870Y34537D02*
X108996D01*
Y42411D01*
X116870D01*
Y34537D01*
G37*
G36*
G01Y24656D02*
X108996D01*
Y32530D01*
X116870D01*
Y24656D01*
G37*
G36*
G01X106988Y34537D02*
X99114D01*
Y42411D01*
X106988D01*
Y34537D01*
G37*
G36*
G01Y24656D02*
X99114D01*
Y32530D01*
X106988D01*
Y24656D01*
G37*
G36*
G01X225571Y72962D02*
X218130D01*
Y64931D01*
X204587D01*
Y72962D01*
X197933D01*
Y57490D01*
X225571D01*
Y72962D01*
G37*
G36*
G01X140728D02*
Y64931D01*
X154272D01*
Y72962D01*
X160964D01*
Y57490D01*
X134035D01*
Y72962D01*
X140728D01*
G37*
G36*
G01X225571Y44419D02*
X217697D01*
Y55482D01*
X225571D01*
Y44419D01*
G37*
G36*
G01X215689D02*
X207815D01*
Y55482D01*
X215689D01*
Y44419D01*
G37*
G36*
G01X205807D02*
X197933D01*
Y55482D01*
X205807D01*
Y44419D01*
G37*
G36*
G01X195925Y64222D02*
X188051D01*
Y72962D01*
X195925D01*
Y64222D01*
G37*
G36*
G01Y54301D02*
X188051D01*
Y62175D01*
X195925D01*
Y54301D01*
G37*
G36*
G01Y44419D02*
X188051D01*
Y52293D01*
X195925D01*
Y44419D01*
G37*
G36*
G01X186043Y64222D02*
X178169D01*
Y72962D01*
X186043D01*
Y64222D01*
G37*
G36*
G01Y54301D02*
X178169D01*
Y62175D01*
X186043D01*
Y54301D01*
G37*
G36*
G01Y44419D02*
X178169D01*
Y52293D01*
X186043D01*
Y44419D01*
G37*
G36*
G01X176161Y64222D02*
X168287D01*
Y72962D01*
X176161D01*
Y64222D01*
G37*
G36*
G01Y54301D02*
X168287D01*
Y62175D01*
X176161D01*
Y54301D01*
G37*
G36*
G01Y44419D02*
X168287D01*
Y52293D01*
X176161D01*
Y44419D01*
G37*
G36*
G01X166280Y64222D02*
X163012D01*
Y72962D01*
X166280D01*
Y64222D01*
G37*
G36*
G01Y57490D02*
X163012D01*
Y62214D01*
X166280D01*
Y57490D01*
G37*
G36*
G01Y44419D02*
X158406D01*
Y55482D01*
X166280D01*
Y44419D01*
G37*
G36*
G01X156398D02*
X148524D01*
Y55482D01*
X156398D01*
Y44419D01*
G37*
G36*
G01X146516D02*
X138642D01*
Y55482D01*
X146516D01*
Y44419D01*
G37*
G36*
G01X136634D02*
X128760D01*
Y55482D01*
X136634D01*
Y44419D01*
G37*
G36*
G01X132028Y64222D02*
X128760D01*
Y72962D01*
X132028D01*
Y64222D01*
G37*
G36*
G01Y57490D02*
X128760D01*
Y62214D01*
X132028D01*
Y57490D01*
G37*
G36*
G01X126752Y64222D02*
X118878D01*
Y72962D01*
X126752D01*
Y64222D01*
G37*
G36*
G01Y54301D02*
X118878D01*
Y62175D01*
X126752D01*
Y54301D01*
G37*
G36*
G01Y44419D02*
X118878D01*
Y52293D01*
X126752D01*
Y44419D01*
G37*
G36*
G01X116870Y64222D02*
X108996D01*
Y72962D01*
X116870D01*
Y64222D01*
G37*
G36*
G01Y54301D02*
X108996D01*
Y62175D01*
X116870D01*
Y54301D01*
G37*
G36*
G01Y44419D02*
X108996D01*
Y52293D01*
X116870D01*
Y44419D01*
G37*
G36*
G01X106988Y64222D02*
X99114D01*
Y72962D01*
X106988D01*
Y64222D01*
G37*
G36*
G01Y54301D02*
X99114D01*
Y62175D01*
X106988D01*
Y54301D01*
G37*
G36*
G01Y44419D02*
X99114D01*
Y52293D01*
X106988D01*
Y44419D01*
G37*
G36*
G01X161586Y197301D02*
Y202419D01*
X156468D01*
Y197301D01*
X161586D01*
G37*
G36*
G01X155286D02*
Y202419D01*
X150168D01*
Y197301D01*
X155286D01*
G37*
G36*
G01Y203601D02*
Y208719D01*
X150168D01*
Y203601D01*
X155286D01*
G37*
G36*
G01X161586D02*
Y208719D01*
X156468D01*
Y203601D01*
X161586D01*
G37*
G36*
G01X115697Y282649D02*
X114516Y281468D01*
Y278397D01*
X128846D01*
Y282649D01*
X115697D01*
G37*
G36*
G01X152114Y271920D02*
X147744D01*
Y266960D01*
X152114D01*
Y271920D01*
G37*
G36*
G01X118256D02*
X113886D01*
Y266960D01*
X118256D01*
Y271920D01*
G37*
G36*
G01X132016Y277236D02*
X120087D01*
Y261645D01*
X132016D01*
Y277236D01*
G37*
G36*
G01X145913D02*
X133984D01*
Y261645D01*
X145913D01*
Y277236D01*
G37*
G36*
G01X128846Y260484D02*
X114516D01*
Y256232D01*
X128846D01*
Y260484D01*
G37*
G36*
G01X151484D02*
X137154D01*
Y256232D01*
X151484D01*
Y260484D01*
G37*
G36*
G01Y282649D02*
X137154D01*
Y278397D01*
X151484D01*
Y282649D01*
G37*
G36*
G01X196697D02*
X195516Y281468D01*
Y278397D01*
X209846D01*
Y282649D01*
X196697D01*
G37*
G36*
G01X199256Y271920D02*
X194886D01*
Y266960D01*
X199256D01*
Y271920D01*
G37*
G36*
G01X213016Y277236D02*
X201087D01*
Y261645D01*
X213016D01*
Y277236D01*
G37*
G36*
G01X226913D02*
X214984D01*
Y261645D01*
X226913D01*
Y277236D01*
G37*
G36*
G01X209846Y260484D02*
X195516D01*
Y256232D01*
X209846D01*
Y260484D01*
G37*
G36*
G01X232484D02*
X218153D01*
Y256232D01*
X232484D01*
Y260484D01*
G37*
G36*
G01Y282649D02*
X218153D01*
Y278397D01*
X232484D01*
Y282649D01*
G37*
G36*
G01X157414Y375199D02*
Y370081D01*
X162532D01*
Y375199D01*
X157414D01*
G37*
G36*
G01X163714D02*
Y370081D01*
X168832D01*
Y375199D01*
X163714D01*
G37*
G36*
G01Y368899D02*
Y363781D01*
X168832D01*
Y368899D01*
X163714D01*
G37*
G36*
G01X157414D02*
Y363781D01*
X162532D01*
Y368899D01*
X157414D01*
G37*
G36*
G01X140000Y501524D02*
Y498024D01*
X136500D01*
Y501524D01*
X140000D01*
G37*
G36*
G01Y502524D02*
Y506024D01*
X136500D01*
Y502524D01*
X140000D01*
G37*
G36*
G01X141000D02*
Y506024D01*
X144500D01*
Y502524D01*
X141000D01*
G37*
G36*
G01Y501524D02*
Y498024D01*
X144500D01*
Y501524D01*
X141000D01*
G37*
G36*
G01X233524Y34537D02*
X227579D01*
Y42411D01*
X233524D01*
Y34537D01*
G37*
G36*
G01Y24656D02*
X227579D01*
Y32530D01*
X233524D01*
Y24656D01*
G37*
G36*
G01Y66230D02*
X227579D01*
Y72962D01*
X233524D01*
Y66230D01*
G37*
G36*
G01Y57490D02*
X227579D01*
Y64222D01*
X233524D01*
Y57490D01*
G37*
G36*
G01Y44419D02*
X227579D01*
Y55482D01*
X233524D01*
Y44419D01*
G37*
G36*
G01X278386Y105812D02*
Y98725D01*
X280354D01*
Y99572D01*
X288189D01*
Y104966D01*
X280354D01*
Y105812D01*
X278386D01*
G37*
G36*
G01X292952Y54277D02*
X279173D01*
Y44434D01*
X292952D01*
Y54277D01*
G37*
G36*
G01Y87741D02*
X279173D01*
Y75930D01*
X292952D01*
Y87741D01*
G37*
G36*
G01Y144788D02*
X279173D01*
Y113450D01*
X292952D01*
Y144788D01*
G37*
G36*
G01Y176442D02*
X279173D01*
Y166599D01*
X292952D01*
Y176442D01*
G37*
G36*
G01X309370Y129198D02*
X297559D01*
Y91678D01*
X309370D01*
Y129198D01*
G37*
G36*
G01Y87741D02*
X297559D01*
Y44434D01*
X309370D01*
Y87741D01*
G37*
G36*
G01Y176442D02*
X297559D01*
Y133135D01*
X309370D01*
Y176442D01*
G37*
G36*
G01X317244Y87741D02*
Y44434D01*
X331023D01*
Y52308D01*
X329055D01*
Y87741D01*
X317244D01*
G37*
G36*
G01X329055Y129198D02*
Y91678D01*
X317244D01*
Y129198D01*
X329055D01*
G37*
G36*
G01X317244Y133135D02*
Y176442D01*
X331023D01*
Y168568D01*
X329055D01*
Y133135D01*
X317244D01*
G37*
G36*
G01X233114Y271920D02*
X228744D01*
Y266960D01*
X233114D01*
Y271920D01*
G37*
G36*
G01X276697Y282649D02*
X275516Y281468D01*
Y278397D01*
X289846D01*
Y282649D01*
X276697D01*
G37*
G36*
G01X313114Y271920D02*
X308744D01*
Y266960D01*
X313114D01*
Y271920D01*
G37*
G36*
G01X279256D02*
X274886D01*
Y266960D01*
X279256D01*
Y271920D01*
G37*
G36*
G01X293016Y277236D02*
X281087D01*
Y261645D01*
X293016D01*
Y277236D01*
G37*
G36*
G01X306913D02*
X294984D01*
Y261645D01*
X306913D01*
Y277236D01*
G37*
G36*
G01X289846Y260484D02*
X275516D01*
Y256232D01*
X289846D01*
Y260484D01*
G37*
G36*
G01X312484D02*
X298154D01*
Y256232D01*
X312484D01*
Y260484D01*
G37*
G36*
G01Y282649D02*
X298154D01*
Y278397D01*
X312484D01*
Y282649D01*
G37*
G36*
G01X326414Y456199D02*
Y451081D01*
X331532D01*
Y456199D01*
X326414D01*
G37*
G36*
G01X332714D02*
Y451081D01*
X337832D01*
Y456199D01*
X332714D01*
G37*
G36*
G01Y449899D02*
Y444781D01*
X337832D01*
Y449899D01*
X332714D01*
G37*
G36*
G01X326414D02*
Y444781D01*
X331532D01*
Y449899D01*
X326414D01*
G37*
G36*
G01X472516Y23656D02*
X464642D01*
Y31530D01*
X472516D01*
Y23656D01*
G37*
G36*
G01Y33537D02*
X464642D01*
Y41411D01*
X472516D01*
Y33537D01*
G37*
G36*
G01Y43419D02*
X464642D01*
Y54482D01*
X472516D01*
Y43419D01*
G37*
G36*
G01X462634D02*
X454760D01*
Y54482D01*
X462634D01*
Y43419D01*
G37*
G36*
G01Y33537D02*
X454760D01*
Y41411D01*
X462634D01*
Y33537D01*
G37*
G36*
G01Y23656D02*
X454760D01*
Y31530D01*
X462634D01*
Y23656D01*
G37*
G36*
G01X452752Y43419D02*
X444878D01*
Y51293D01*
X452752D01*
Y43419D01*
G37*
G36*
G01Y33537D02*
X444878D01*
Y41411D01*
X452752D01*
Y33537D01*
G37*
G36*
G01Y23656D02*
X444878D01*
Y31530D01*
X452752D01*
Y23656D01*
G37*
G36*
G01X442870Y43419D02*
X434996D01*
Y51293D01*
X442870D01*
Y43419D01*
G37*
G36*
G01Y33537D02*
X434996D01*
Y41411D01*
X442870D01*
Y33537D01*
G37*
G36*
G01Y23656D02*
X434996D01*
Y31530D01*
X442870D01*
Y23656D01*
G37*
G36*
G01X432988Y43419D02*
X425114D01*
Y51293D01*
X432988D01*
Y43419D01*
G37*
G36*
G01Y33537D02*
X425114D01*
Y41411D01*
X432988D01*
Y33537D01*
G37*
G36*
G01Y23656D02*
X425114D01*
Y31530D01*
X432988D01*
Y23656D01*
G37*
G36*
G01X423106Y43419D02*
X415232D01*
Y54482D01*
X423106D01*
Y43419D01*
G37*
G36*
G01Y33537D02*
X415232D01*
Y41411D01*
X423106D01*
Y33537D01*
G37*
G36*
G01Y23656D02*
X415232D01*
Y31530D01*
X423106D01*
Y23656D01*
G37*
G36*
G01X413224Y43419D02*
X405350D01*
Y54482D01*
X413224D01*
Y43419D01*
G37*
G36*
G01Y33537D02*
X405350D01*
Y41411D01*
X413224D01*
Y33537D01*
G37*
G36*
G01Y23656D02*
X405350D01*
Y31530D01*
X413224D01*
Y23656D01*
G37*
G36*
G01X403342Y43419D02*
X395468D01*
Y54482D01*
X403342D01*
Y43419D01*
G37*
G36*
G01Y33537D02*
X395468D01*
Y41411D01*
X403342D01*
Y33537D01*
G37*
G36*
G01Y23656D02*
X395468D01*
Y31530D01*
X403342D01*
Y23656D01*
G37*
G36*
G01X393461Y43419D02*
X387476D01*
Y54482D01*
X393461D01*
Y43419D01*
G37*
G36*
G01Y33537D02*
X387476D01*
Y41411D01*
X393461D01*
Y33537D01*
G37*
G36*
G01Y23656D02*
X387476D01*
Y31530D01*
X393461D01*
Y23656D01*
G37*
G36*
G01X466728Y71962D02*
Y63931D01*
X480272D01*
Y71962D01*
X486964D01*
Y56490D01*
X460035D01*
Y71962D01*
X466728D01*
G37*
G36*
G01X402870D02*
Y63931D01*
X416413D01*
Y71962D01*
X423106D01*
Y56490D01*
X395468D01*
Y71962D01*
X402870D01*
G37*
G36*
G01X458027Y63222D02*
X454760D01*
Y71962D01*
X458027D01*
Y63222D01*
G37*
G36*
G01Y56490D02*
X454760D01*
Y61214D01*
X458027D01*
Y56490D01*
G37*
G36*
G01X452752Y63222D02*
X444878D01*
Y71962D01*
X452752D01*
Y63222D01*
G37*
G36*
G01Y53301D02*
X444878D01*
Y61175D01*
X452752D01*
Y53301D01*
G37*
G36*
G01X442870Y63222D02*
X434996D01*
Y71962D01*
X442870D01*
Y63222D01*
G37*
G36*
G01Y53301D02*
X434996D01*
Y61175D01*
X442870D01*
Y53301D01*
G37*
G36*
G01X432988Y63222D02*
X425114D01*
Y71962D01*
X432988D01*
Y63222D01*
G37*
G36*
G01Y53301D02*
X425114D01*
Y61175D01*
X432988D01*
Y53301D01*
G37*
G36*
G01X393461Y65230D02*
X387476D01*
Y71962D01*
X393461D01*
Y65230D01*
G37*
G36*
G01Y56490D02*
X387476D01*
Y63222D01*
X393461D01*
Y56490D01*
G37*
G36*
G01X391597Y282649D02*
X390416Y281468D01*
Y278397D01*
X404746D01*
Y282649D01*
X391597D01*
G37*
G36*
G01X428014Y271920D02*
X423644D01*
Y266960D01*
X428014D01*
Y271920D01*
G37*
G36*
G01X394156D02*
X389786D01*
Y266960D01*
X394156D01*
Y271920D01*
G37*
G36*
G01X407916Y277236D02*
X395987D01*
Y261645D01*
X407916D01*
Y277236D01*
G37*
G36*
G01X421813D02*
X409884D01*
Y261645D01*
X421813D01*
Y277236D01*
G37*
G36*
G01X404746Y260484D02*
X390416D01*
Y256232D01*
X404746D01*
Y260484D01*
G37*
G36*
G01X427384D02*
X413054D01*
Y256232D01*
X427384D01*
Y260484D01*
G37*
G36*
G01Y282649D02*
X413054D01*
Y278397D01*
X427384D01*
Y282649D01*
G37*
G36*
G01X471597D02*
X470416Y281468D01*
Y278397D01*
X484747D01*
Y282649D01*
X471597D01*
G37*
G36*
G01X474156Y271920D02*
X469786D01*
Y266960D01*
X474156D01*
Y271920D01*
G37*
G36*
G01X484747Y260484D02*
X470416D01*
Y256232D01*
X484747D01*
Y260484D01*
G37*
G36*
G01X559524Y43419D02*
X553579D01*
Y54482D01*
X559524D01*
Y43419D01*
G37*
G36*
G01Y33537D02*
X553579D01*
Y41411D01*
X559524D01*
Y33537D01*
G37*
G36*
G01Y23656D02*
X553579D01*
Y31530D01*
X559524D01*
Y23656D01*
G37*
G36*
G01X551571D02*
X543697D01*
Y31530D01*
X551571D01*
Y23656D01*
G37*
G36*
G01Y33537D02*
X543697D01*
Y41411D01*
X551571D01*
Y33537D01*
G37*
G36*
G01Y43419D02*
X543697D01*
Y54482D01*
X551571D01*
Y43419D01*
G37*
G36*
G01X541689D02*
X533815D01*
Y54482D01*
X541689D01*
Y43419D01*
G37*
G36*
G01Y33537D02*
X533815D01*
Y41411D01*
X541689D01*
Y33537D01*
G37*
G36*
G01Y23656D02*
X533815D01*
Y31530D01*
X541689D01*
Y23656D01*
G37*
G36*
G01X531807Y43419D02*
X523933D01*
Y54482D01*
X531807D01*
Y43419D01*
G37*
G36*
G01Y33537D02*
X523933D01*
Y41411D01*
X531807D01*
Y33537D01*
G37*
G36*
G01Y23656D02*
X523933D01*
Y31530D01*
X531807D01*
Y23656D01*
G37*
G36*
G01X521925Y43419D02*
X514051D01*
Y51293D01*
X521925D01*
Y43419D01*
G37*
G36*
G01Y33537D02*
X514051D01*
Y41411D01*
X521925D01*
Y33537D01*
G37*
G36*
G01Y23656D02*
X514051D01*
Y31530D01*
X521925D01*
Y23656D01*
G37*
G36*
G01X512043Y43419D02*
X504169D01*
Y51293D01*
X512043D01*
Y43419D01*
G37*
G36*
G01Y33537D02*
X504169D01*
Y41411D01*
X512043D01*
Y33537D01*
G37*
G36*
G01Y23656D02*
X504169D01*
Y31530D01*
X512043D01*
Y23656D01*
G37*
G36*
G01X502161Y43419D02*
X494287D01*
Y51293D01*
X502161D01*
Y43419D01*
G37*
G36*
G01Y33537D02*
X494287D01*
Y41411D01*
X502161D01*
Y33537D01*
G37*
G36*
G01Y23656D02*
X494287D01*
Y31530D01*
X502161D01*
Y23656D01*
G37*
G36*
G01X492280Y43419D02*
X484406D01*
Y54482D01*
X492280D01*
Y43419D01*
G37*
G36*
G01Y33537D02*
X484406D01*
Y41411D01*
X492280D01*
Y33537D01*
G37*
G36*
G01Y23656D02*
X484406D01*
Y31530D01*
X492280D01*
Y23656D01*
G37*
G36*
G01X482398Y43419D02*
X474524D01*
Y54482D01*
X482398D01*
Y43419D01*
G37*
G36*
G01Y33537D02*
X474524D01*
Y41411D01*
X482398D01*
Y33537D01*
G37*
G36*
G01Y23656D02*
X474524D01*
Y31530D01*
X482398D01*
Y23656D01*
G37*
G36*
G01X551571Y71962D02*
X544130D01*
Y63931D01*
X530587D01*
Y71962D01*
X523933D01*
Y56490D01*
X551571D01*
Y71962D01*
G37*
G36*
G01X559524Y65230D02*
X553579D01*
Y71962D01*
X559524D01*
Y65230D01*
G37*
G36*
G01Y56490D02*
X553579D01*
Y63222D01*
X559524D01*
Y56490D01*
G37*
G36*
G01X521925Y63222D02*
X514051D01*
Y71962D01*
X521925D01*
Y63222D01*
G37*
G36*
G01Y53301D02*
X514051D01*
Y61175D01*
X521925D01*
Y53301D01*
G37*
G36*
G01X512043Y63222D02*
X504169D01*
Y71962D01*
X512043D01*
Y63222D01*
G37*
G36*
G01Y53301D02*
X504169D01*
Y61175D01*
X512043D01*
Y53301D01*
G37*
G36*
G01X502161Y63222D02*
X494287D01*
Y71962D01*
X502161D01*
Y63222D01*
G37*
G36*
G01Y53301D02*
X494287D01*
Y61175D01*
X502161D01*
Y53301D01*
G37*
G36*
G01X492280Y63222D02*
X489012D01*
Y71962D01*
X492280D01*
Y63222D01*
G37*
G36*
G01Y56490D02*
X489012D01*
Y61214D01*
X492280D01*
Y56490D01*
G37*
G36*
G01X516086Y197301D02*
Y202419D01*
X510968D01*
Y197301D01*
X516086D01*
G37*
G36*
G01X509786D02*
Y202419D01*
X504668D01*
Y197301D01*
X509786D01*
G37*
G36*
G01Y203601D02*
Y208719D01*
X504668D01*
Y203601D01*
X509786D01*
G37*
G36*
G01X516086D02*
Y208719D01*
X510968D01*
Y203601D01*
X516086D01*
G37*
G36*
G01X508014Y271920D02*
X503644D01*
Y266960D01*
X508014D01*
Y271920D01*
G37*
G36*
G01X487916Y277236D02*
X475987D01*
Y261645D01*
X487916D01*
Y277236D01*
G37*
G36*
G01X501813D02*
X489884D01*
Y261645D01*
X501813D01*
Y277236D01*
G37*
G36*
G01X507384Y260484D02*
X493054D01*
Y256232D01*
X507384D01*
Y260484D01*
G37*
G36*
G01Y282649D02*
X493054D01*
Y278397D01*
X507384D01*
Y282649D01*
G37*
G36*
G01X550097D02*
X548916Y281468D01*
Y278397D01*
X563246D01*
Y282649D01*
X550097D01*
G37*
G36*
G01X586514Y271920D02*
X582144D01*
Y266960D01*
X586514D01*
Y271920D01*
G37*
G36*
G01X552656D02*
X548286D01*
Y266960D01*
X552656D01*
Y271920D01*
G37*
G36*
G01X566416Y277236D02*
X554487D01*
Y261645D01*
X566416D01*
Y277236D01*
G37*
G36*
G01X580313D02*
X568384D01*
Y261645D01*
X580313D01*
Y277236D01*
G37*
G36*
G01X563246Y260484D02*
X548916D01*
Y256232D01*
X563246D01*
Y260484D01*
G37*
G36*
G01X585884D02*
X571554D01*
Y256232D01*
X585884D01*
Y260484D01*
G37*
G36*
G01Y282649D02*
X571554D01*
Y278397D01*
X585884D01*
Y282649D01*
G37*
G36*
G01X496914Y377699D02*
Y372581D01*
X502032D01*
Y377699D01*
X496914D01*
G37*
G36*
G01X503214D02*
Y372581D01*
X508332D01*
Y377699D01*
X503214D01*
G37*
G36*
G01Y371399D02*
Y366281D01*
X508332D01*
Y371399D01*
X503214D01*
G37*
G36*
G01X496914D02*
Y366281D01*
X502032D01*
Y371399D01*
X496914D01*
G37*
G36*
G01X560833Y502524D02*
Y506024D01*
X564333D01*
Y502524D01*
X560833D01*
G37*
G36*
G01Y501524D02*
Y498024D01*
X564333D01*
Y501524D01*
X560833D01*
G37*
G36*
G01X559833D02*
Y498024D01*
X556333D01*
Y501524D01*
X559833D01*
G37*
G36*
G01Y502524D02*
Y506024D01*
X556333D01*
Y502524D01*
X559833D01*
G37*
G36*
G01X621900Y113060D02*
Y105973D01*
X623869D01*
Y106820D01*
X631704D01*
Y112214D01*
X623869D01*
Y113060D01*
X621900D01*
G37*
G36*
G01X636468Y61525D02*
X622688D01*
Y51682D01*
X636468D01*
Y61525D01*
G37*
G36*
G01Y94989D02*
X622688D01*
Y83178D01*
X636468D01*
Y94989D01*
G37*
G36*
G01Y152036D02*
X622688D01*
Y120698D01*
X636468D01*
Y152036D01*
G37*
G36*
G01X652885Y136446D02*
X641074D01*
Y98926D01*
X652885D01*
Y136446D01*
G37*
G36*
G01Y94989D02*
X641074D01*
Y51682D01*
X652885D01*
Y94989D01*
G37*
G36*
G01Y183690D02*
X641074D01*
Y140383D01*
X652885D01*
Y183690D01*
G37*
G36*
G01X660759Y94989D02*
Y51682D01*
X674538D01*
Y59556D01*
X672570D01*
Y94989D01*
X660759D01*
G37*
G36*
G01X672570Y136446D02*
Y98926D01*
X660759D01*
Y136446D01*
X672570D01*
G37*
G36*
G01X660759Y140383D02*
Y183690D01*
X674538D01*
Y175816D01*
X672570D01*
Y140383D01*
X660759D01*
G37*
G36*
G01X636468Y183690D02*
X622688D01*
Y173847D01*
X636468D01*
Y183690D01*
G37*
G36*
G01X630097Y282649D02*
X628916Y281468D01*
Y278397D01*
X643246D01*
Y282649D01*
X630097D01*
G37*
G36*
G01X666514Y271920D02*
X662144D01*
Y266960D01*
X666514D01*
Y271920D01*
G37*
G36*
G01X632656D02*
X628286D01*
Y266960D01*
X632656D01*
Y271920D01*
G37*
G36*
G01X646416Y277236D02*
X634487D01*
Y261645D01*
X646416D01*
Y277236D01*
G37*
G36*
G01X660313D02*
X648384D01*
Y261645D01*
X660313D01*
Y277236D01*
G37*
G36*
G01X643246Y260484D02*
X628916D01*
Y256232D01*
X643246D01*
Y260484D01*
G37*
G36*
G01X665884D02*
X651554D01*
Y256232D01*
X665884D01*
Y260484D01*
G37*
G36*
G01Y282649D02*
X651554D01*
Y278397D01*
X665884D01*
Y282649D01*
G37*
G36*
G01X285197Y66206D02*
Y62111D01*
X278386D01*
Y66206D01*
X285197D01*
G37*
G36*
G01Y158883D02*
Y154788D01*
X278386D01*
Y158883D01*
X285197D01*
G37*
G36*
G01X628712Y73454D02*
Y69359D01*
X621900D01*
Y73454D01*
X628712D01*
G37*
G36*
G01Y166131D02*
Y162036D01*
X621900D01*
Y166131D01*
X628712D01*
G37*
G54D10*
X49881Y160560D03*
Y158001D03*
Y155442D03*
Y152883D03*
Y150324D03*
Y147765D03*
Y145206D03*
Y142647D03*
X71739D03*
Y145206D03*
Y147765D03*
Y150324D03*
Y152883D03*
Y155442D03*
Y158001D03*
Y160560D03*
X398881D03*
Y158001D03*
Y155442D03*
Y152883D03*
Y150324D03*
Y147765D03*
Y145206D03*
Y142647D03*
X420739D03*
Y145206D03*
Y147765D03*
Y150324D03*
Y152883D03*
Y155442D03*
Y158001D03*
Y160560D03*
G54D20*
X35480Y275149D03*
Y263732D03*
X70520Y275149D03*
Y263732D03*
X115480Y275149D03*
Y263732D03*
X150520Y275149D03*
Y263732D03*
X196480Y275149D03*
Y263732D03*
X231520Y275149D03*
Y263732D03*
X276480Y275149D03*
Y263732D03*
X311520Y275149D03*
Y263732D03*
X391380Y275149D03*
Y263732D03*
X426420Y275149D03*
Y263732D03*
X471380Y275149D03*
Y263732D03*
X506420Y275149D03*
Y263732D03*
X549880Y275149D03*
Y263732D03*
X584920Y275149D03*
Y263732D03*
X629880Y275149D03*
Y263732D03*
X664920Y275149D03*
Y263732D03*
G54D11*
X25000Y55000D03*
X30300Y443140D03*
X650860Y37570D03*
G54D21*
X53000Y281054D03*
Y257826D03*
X133000Y281054D03*
Y257826D03*
X214000Y281054D03*
Y257826D03*
X294000Y281054D03*
Y257826D03*
X408900Y281054D03*
Y257826D03*
X488900Y281054D03*
Y257826D03*
X567400Y281054D03*
Y257826D03*
X647400Y281054D03*
Y257826D03*
G54D12*
X83642Y71781D03*
X211358D03*
X147500D03*
X473500Y70781D03*
X409642D03*
X537358D03*
G54D30*
X82176Y411941D03*
X243176Y411441D03*
X438076Y411941D03*
X596576Y411441D03*
G54D31*
X80069Y414047D03*
X241069Y413547D03*
X435969Y414047D03*
X594469Y413547D03*
G54D40*
X93584Y512557D03*
Y519643D03*
X605260Y482520D03*
Y489606D03*
G54D13*
X50970Y168050D03*
X47230D03*
X27440Y163117D03*
X31180D03*
X27440Y158483D03*
X31180D03*
X27440Y153883D03*
X31180D03*
X27440Y149483D03*
X31180D03*
X36740Y168083D03*
X40480D03*
Y162983D03*
X36740D03*
X40480Y153983D03*
X36740D03*
X40480Y158383D03*
X36740D03*
X35940Y133883D03*
X39680D03*
X36740Y144883D03*
X40480D03*
Y149583D03*
X36740D03*
X80940Y138747D03*
X84680D03*
Y142647D03*
X80940D03*
Y153924D03*
X84680D03*
X80940Y157524D03*
X84680D03*
X80940Y146724D03*
X84680D03*
X80940Y150324D03*
X84680D03*
X53810Y198550D03*
X57550D03*
X34913Y247900D03*
X31173D03*
X34913Y236800D03*
X31173D03*
X34913Y291100D03*
X31173D03*
X73270Y235950D03*
X69530D03*
X86870Y263500D03*
X83130D03*
X86870Y252500D03*
X83130D03*
X40480Y174417D03*
X36740D03*
X53000Y244300D03*
Y248040D03*
X65279Y198550D03*
X69019D03*
X72865Y198480D03*
Y202220D03*
X61433Y198480D03*
Y202220D03*
X80478Y356300D03*
X84218D03*
X34960Y384870D03*
Y381130D03*
X46970Y344185D03*
X43230D03*
X43170Y380985D03*
X39430D03*
X84148Y352630D03*
Y356370D03*
X80478Y352700D03*
X84218D03*
X34913Y302200D03*
X31173D03*
X62030Y302950D03*
X65770D03*
X92754Y397580D03*
Y401320D03*
X70245Y416905D03*
Y420645D03*
X84148Y378930D03*
Y382670D03*
Y392130D03*
Y395870D03*
X87818Y407000D03*
X84078D03*
X84148Y312272D03*
Y316013D03*
X74800Y417130D03*
Y420870D03*
X87988Y387500D03*
X84248D03*
Y401750D03*
X87988D03*
X77093Y356389D03*
Y352649D03*
X29815Y364770D03*
Y361030D03*
X25815Y364770D03*
Y361030D03*
X38700Y344370D03*
Y340630D03*
X34600D03*
Y344370D03*
X25050Y384870D03*
Y381130D03*
X30150Y384870D03*
Y381130D03*
X47615Y380830D03*
Y384570D03*
X29815Y372570D03*
Y368830D03*
X25815Y372570D03*
Y368830D03*
X46985Y336230D03*
Y339970D03*
X43085Y336230D03*
Y339970D03*
X43415Y388770D03*
Y385030D03*
X39315Y388770D03*
Y385030D03*
X51685Y384570D03*
Y380830D03*
X87818Y375000D03*
X84078D03*
X84148Y371370D03*
Y367630D03*
X87818Y364000D03*
X84078D03*
X80478Y332301D03*
X84218D03*
X80478Y320701D03*
X84218D03*
X84148Y324730D03*
Y328470D03*
X85530Y500055D03*
X89270D03*
X68300Y429870D03*
Y426130D03*
X71800Y429870D03*
Y426130D03*
X89844Y530230D03*
Y533970D03*
X192808Y165170D03*
Y161430D03*
X135892Y148300D03*
Y152040D03*
X135392Y129630D03*
Y133370D03*
X197070Y130000D03*
X193330D03*
X135490Y159450D03*
X131750D03*
X135177Y141550D03*
X131437D03*
X193010Y154050D03*
X196750D03*
X101250Y165630D03*
Y169370D03*
X139880Y148300D03*
Y152040D03*
X166200Y163170D03*
Y159430D03*
X139567Y129630D03*
Y133370D03*
X166187Y145220D03*
Y141480D03*
X162300Y150330D03*
Y154070D03*
X188620Y165170D03*
Y161430D03*
X145300Y171003D03*
X188620Y153930D03*
Y157670D03*
X197504Y165170D03*
Y161430D03*
X165930Y154000D03*
X169670D03*
X131500Y148300D03*
Y152040D03*
X162557Y141550D03*
X158817D03*
X130800Y129630D03*
Y133370D03*
X162570Y159500D03*
X158830D03*
X139880Y159570D03*
Y155830D03*
X139567Y141620D03*
Y137880D03*
X204520Y154050D03*
X208260D03*
X211690Y157720D03*
Y153980D03*
X201080Y157720D03*
Y153980D03*
X123980Y141550D03*
X120240D03*
X116810Y137880D03*
Y141620D03*
X127420Y137880D03*
Y141620D03*
X123980Y159450D03*
X120240D03*
X116810Y155780D03*
Y159520D03*
X127420Y155780D03*
Y159520D03*
X104920Y198150D03*
X101180D03*
X175708Y186270D03*
Y182530D03*
X177270Y216650D03*
X173530D03*
X163050Y222970D03*
Y219230D03*
X158950Y222970D03*
Y219230D03*
X148650Y222970D03*
Y219230D03*
X135530Y212550D03*
X139270D03*
X152850Y222970D03*
Y219230D03*
X176010Y174723D03*
X179750D03*
X215410Y198550D03*
X219150D03*
X101250Y198080D03*
Y201820D03*
X214000Y244300D03*
Y248040D03*
X104920Y201750D03*
X101180D03*
X112230Y235958D03*
X115970D03*
X97473Y267000D03*
X101213D03*
X97473Y256900D03*
X101213D03*
X97787Y271500D03*
X101527D03*
X97853Y282073D03*
X101593D03*
X166370Y263500D03*
X162630D03*
X166370Y252500D03*
X162630D03*
X179787Y266500D03*
X183527D03*
X179787Y255400D03*
X183527D03*
X178787Y286600D03*
X182527D03*
X178787Y275500D03*
X182527D03*
X171620Y186270D03*
Y182530D03*
X145300Y174743D03*
X108337Y198066D03*
Y201806D03*
X180000Y186270D03*
Y182530D03*
X148930Y174673D03*
X152670D03*
X171620Y174603D03*
Y178343D03*
X182747Y205628D03*
X179007D03*
X171815Y200451D03*
X175555D03*
Y196951D03*
X171815D03*
X175555Y205628D03*
X171815D03*
X135395Y208470D03*
Y204730D03*
X139372D03*
Y208470D03*
X133130Y219500D03*
X136870D03*
X133000Y243960D03*
Y247700D03*
X187520Y174723D03*
X191260D03*
X194690Y178393D03*
Y174653D03*
X184080Y178393D03*
Y174653D03*
X155950Y349530D03*
Y353270D03*
X160050Y349530D03*
Y353270D03*
X142030Y355850D03*
X145770D03*
X166150Y349530D03*
Y353270D03*
X170350Y349530D03*
Y353270D03*
X183470Y359950D03*
X179730D03*
X188700Y326280D03*
Y330020D03*
X151200Y324580D03*
Y328320D03*
X102751Y397580D03*
Y401320D03*
X124270Y302950D03*
X120530D03*
X102048Y312272D03*
Y316013D03*
X121970Y342858D03*
X118230D03*
X121970Y346958D03*
X118230D03*
X130716Y401649D03*
X134456D03*
X143445Y375549D03*
X147185D03*
X143445Y366872D03*
X147185D03*
Y372049D03*
X143445D03*
X136253Y366872D03*
X139993D03*
X186174Y353023D03*
X182434D03*
X183605Y364030D03*
Y367770D03*
X179628D03*
Y364030D03*
X102048Y359936D03*
Y356196D03*
X101978Y352850D03*
X105718D03*
X101978Y363282D03*
X105718D03*
Y332301D03*
X101978D03*
X105718Y320701D03*
X101978D03*
X102048Y324730D03*
Y328470D03*
X175500Y318020D03*
Y314280D03*
X171500Y318020D03*
Y314280D03*
X134200Y321320D03*
Y317580D03*
X138200Y321320D03*
Y317580D03*
X149600Y311530D03*
Y315270D03*
X111900Y316830D03*
Y320570D03*
X214200Y445808D03*
Y442068D03*
X119800Y444476D03*
Y440736D03*
X170042Y448700D03*
X173783D03*
X166650Y503726D03*
Y499986D03*
X138508Y519670D03*
Y515930D03*
X111806Y521000D03*
X115546D03*
X173713Y452530D03*
Y456270D03*
Y491327D03*
Y495067D03*
X217800Y445808D03*
Y442068D03*
X116200Y440736D03*
Y444476D03*
X170042Y443272D03*
X173783D03*
X173642D03*
X177383D03*
X127870Y500056D03*
X124130D03*
X155600Y454230D03*
Y457970D03*
X151500Y454230D03*
Y457970D03*
X117976Y527930D03*
Y531670D03*
X155130Y526707D03*
X151390D03*
X217933Y449366D03*
X214193D03*
X116153Y436900D03*
X119893D03*
X146700Y519670D03*
Y515930D03*
X126230Y457900D03*
X129970D03*
X124230Y506300D03*
X127970D03*
X140900Y476154D03*
Y479894D03*
X150864Y476154D03*
Y479894D03*
X146200Y476154D03*
Y479894D03*
X135700Y476154D03*
Y479894D03*
X130400Y476154D03*
Y479894D03*
X124230Y510400D03*
X127970D03*
X222500Y438468D03*
Y442208D03*
X214130Y442138D03*
X217870D03*
X204800Y438468D03*
Y442208D03*
X138400Y440736D03*
Y444476D03*
X119870Y444406D03*
X116130D03*
X111500Y440736D03*
Y444476D03*
X99344Y540730D03*
Y544470D03*
X150864Y489076D03*
Y485336D03*
X146200Y489076D03*
Y485336D03*
X140900Y489076D03*
Y485336D03*
X135700Y489076D03*
Y485336D03*
X130400Y489076D03*
Y485336D03*
X127900Y514630D03*
Y518370D03*
X125200Y489076D03*
Y485336D03*
X142500Y515930D03*
Y519670D03*
X125200Y476154D03*
Y479894D03*
X150864Y476294D03*
Y472554D03*
X146200Y476294D03*
Y472554D03*
X140900Y476294D03*
Y472554D03*
X135700Y476294D03*
Y472554D03*
X130400Y476294D03*
Y472554D03*
X125200Y476294D03*
Y472554D03*
X103084Y544470D03*
Y540730D03*
X117976Y542146D03*
Y538406D03*
X266620Y198150D03*
X262880D03*
X291130Y217600D03*
X294870D03*
X262950Y198080D03*
Y201820D03*
X224630Y183623D03*
X228370D03*
X266620Y201750D03*
X262880D03*
X234070Y235950D03*
X230330D03*
X273930D03*
X277670D03*
X294000Y243796D03*
Y247536D03*
X247870Y264000D03*
X244130D03*
X247870Y253000D03*
X244130D03*
X258773Y267400D03*
X262513D03*
X258773Y257000D03*
X262513D03*
X258787Y271500D03*
X262527D03*
X258743Y281986D03*
X262483D03*
X327164Y247732D03*
X323424D03*
X327164Y236732D03*
X323424D03*
X270062Y198070D03*
Y201810D03*
X226979Y198550D03*
X230719D03*
X234565Y198480D03*
Y202220D03*
X223133Y198480D03*
Y202220D03*
X333870Y197600D03*
X330130D03*
X333870Y207600D03*
X330130D03*
X291130Y192600D03*
X294870D03*
X333870Y217600D03*
X330130D03*
X291216Y222650D03*
X294956D03*
X330130Y193600D03*
X333870D03*
X294870Y196600D03*
X291130D03*
X330130Y203600D03*
X333870D03*
X330130Y222100D03*
X333870D03*
X241478Y356300D03*
X245218D03*
X245148Y352630D03*
Y356370D03*
X241478Y352700D03*
X245218D03*
X245148Y378460D03*
Y382200D03*
Y392130D03*
Y395870D03*
X222930Y302950D03*
X226670D03*
X263751Y396080D03*
Y399820D03*
X253754Y396080D03*
Y399820D03*
X248988Y407000D03*
X245248D03*
X285270Y302950D03*
X281530D03*
X309677Y383217D03*
X313418D03*
X313788Y354587D03*
Y358328D03*
X325468Y388103D03*
Y384363D03*
X321468Y388103D03*
Y384363D03*
X329391Y388103D03*
Y384363D03*
X331719Y351777D03*
Y355517D03*
X245148Y312272D03*
Y316013D03*
X245248Y400250D03*
X248988D03*
X235300Y416630D03*
Y420370D03*
X263048Y312272D03*
Y316013D03*
X248988Y387500D03*
X245248D03*
X238075Y356381D03*
Y352641D03*
X322288Y357614D03*
Y353874D03*
X330698Y343957D03*
X326958D03*
X308093Y365924D03*
X304352D03*
X317788Y354584D03*
Y358324D03*
X308012Y369924D03*
X304272D03*
X304372Y361786D03*
X308112D03*
X309677Y379217D03*
X313418D03*
X309677Y375053D03*
X313418D03*
X317468Y388103D03*
Y384363D03*
X315928Y365924D03*
X312188D03*
Y369924D03*
X315928D03*
X248818Y375000D03*
X245078D03*
X245148Y371370D03*
Y367630D03*
X248818Y364000D03*
X245078D03*
X268751Y421816D03*
X305458Y343597D03*
Y347337D03*
X263048Y359936D03*
Y356196D03*
X262978Y352850D03*
X266718D03*
X262978Y363282D03*
X266718D03*
X241478Y320701D03*
X245218D03*
X266718Y332301D03*
X262978D03*
X241478D03*
X245218D03*
X266718Y320701D03*
X262978D03*
X263048Y324730D03*
Y328470D03*
X245148Y324730D03*
Y328470D03*
X329550Y428530D03*
Y432270D03*
X325450Y428530D03*
Y432270D03*
X310030Y440050D03*
X313770D03*
X338850Y428530D03*
Y432270D03*
X334650Y428530D03*
Y432270D03*
X348730Y443450D03*
X227842Y438298D03*
Y442038D03*
X232800Y428370D03*
Y424630D03*
X268751Y425556D03*
X348530Y447931D03*
X316185Y454049D03*
X312445D03*
X400070Y168050D03*
X396330D03*
X457150Y165630D03*
Y169370D03*
X385820Y168083D03*
X389560D03*
Y162983D03*
X385820D03*
X376940Y163117D03*
X380680D03*
X389560Y153983D03*
X385820D03*
X389560Y158383D03*
X385820D03*
X376940Y158483D03*
X380680D03*
X376940Y153883D03*
X380680D03*
X385820Y144883D03*
X389560D03*
X384940Y133883D03*
X388680D03*
X376940Y149483D03*
X380680D03*
X389560D03*
X385820D03*
X429940Y139047D03*
X433680D03*
Y142647D03*
X429940D03*
Y153924D03*
X433680D03*
X429940Y157524D03*
X433680D03*
X429940Y150324D03*
X433680D03*
X429940Y146724D03*
X433680D03*
X472710Y137880D03*
Y141620D03*
Y155780D03*
Y159520D03*
X460820Y198150D03*
X457080D03*
X409710Y198550D03*
X413450D03*
X457150Y198080D03*
Y201820D03*
X460820Y201750D03*
X457080D03*
X389113Y248000D03*
X385373D03*
X442270Y252500D03*
X438530D03*
X375887Y275500D03*
X379627D03*
X384627Y290600D03*
X380887D03*
X429170Y235950D03*
X425430D03*
X442270Y263500D03*
X438530D03*
X389113Y236900D03*
X385373D03*
X468130Y235958D03*
X471870D03*
X453687Y271500D03*
X457427D03*
X453687Y282029D03*
X457427D03*
X453373Y267000D03*
X457113D03*
X453373Y256700D03*
X457113D03*
X464222Y198081D03*
Y201821D03*
X389560Y174417D03*
X385820D03*
X408900Y244300D03*
Y248040D03*
X421179Y198550D03*
X424919D03*
X428765Y198480D03*
Y202220D03*
X417333Y198480D03*
Y202220D03*
X436378Y356300D03*
X440119D03*
X440048Y352630D03*
Y356370D03*
X436378Y352700D03*
X440119D03*
X380815Y423220D03*
X377075D03*
X417930Y302950D03*
X421670D03*
X458651Y397580D03*
Y401320D03*
X426645Y416905D03*
Y420645D03*
X440048Y378930D03*
Y382670D03*
Y392130D03*
Y395870D03*
X448654Y397580D03*
Y401320D03*
X443888Y407000D03*
X440148D03*
X440048Y312272D03*
Y316013D03*
X457948Y312272D03*
Y316013D03*
X443888Y387500D03*
X440148D03*
Y401750D03*
X443888D03*
X431200Y417130D03*
Y420870D03*
X432736Y352684D03*
Y356424D03*
X471430Y337058D03*
Y341158D03*
X443719Y375000D03*
X439978D03*
X440048Y371370D03*
Y367630D03*
X443719Y364000D03*
X439978D03*
X376945Y415350D03*
Y419090D03*
X380945Y415350D03*
Y419090D03*
X385945Y419850D03*
Y423590D03*
X457948Y359936D03*
Y356196D03*
X457878Y352850D03*
X461619D03*
X457878Y363282D03*
X461619D03*
Y332301D03*
X457878D03*
X436378D03*
X440119D03*
X461619Y320701D03*
X457878D03*
X436378D03*
X440119D03*
X440048Y324730D03*
Y328470D03*
X457948Y324730D03*
Y328470D03*
X467100Y321030D03*
Y324770D03*
X391975Y428770D03*
X395715D03*
X391975Y448670D03*
X395715D03*
X352470Y443450D03*
X428200Y431870D03*
Y428130D03*
X459876Y435806D03*
X463616D03*
X469206Y431966D03*
Y435706D03*
X396430Y454510D03*
X392690D03*
X396530Y458490D03*
X392790D03*
X431700Y431870D03*
Y428130D03*
X380445Y455850D03*
Y459590D03*
X384445Y455850D03*
Y459590D03*
X388445D03*
Y455850D03*
X376295Y459550D03*
Y455810D03*
X391975Y432720D03*
X395715D03*
Y436720D03*
X391975D03*
X395715Y440720D03*
X391975D03*
Y444720D03*
X395715D03*
X357900Y448001D03*
Y444261D03*
X352270Y447931D03*
X362100Y444261D03*
Y448001D03*
X491892Y148480D03*
Y152220D03*
X491492Y129817D03*
Y133557D03*
X545908Y165270D03*
Y161530D03*
X488470Y105846D03*
X484730D03*
X488330D03*
X492070D03*
X491390Y159450D03*
X487650D03*
X491077Y141550D03*
X487337D03*
X546510Y154050D03*
X550250D03*
X533084Y130000D03*
X529344D03*
X522500Y163170D03*
Y159430D03*
X495467Y129817D03*
Y133557D03*
X522500Y145220D03*
Y141480D03*
X495780Y148480D03*
Y152220D03*
X515800Y150330D03*
Y154070D03*
X542120Y165270D03*
Y161530D03*
X498800Y171080D03*
X542120Y153930D03*
Y157670D03*
X550000Y165270D03*
Y161530D03*
X519430Y154000D03*
X523170D03*
X488000Y148480D03*
Y152220D03*
X518870Y141550D03*
X515130D03*
X487304Y129817D03*
Y133557D03*
X518870Y159500D03*
X515130D03*
X495780Y159570D03*
Y155830D03*
X495467Y141620D03*
Y137880D03*
X558020Y154050D03*
X561760D03*
X565190Y157720D03*
Y153980D03*
X554580Y157720D03*
Y153980D03*
X479880Y141550D03*
X476140D03*
X483320Y137880D03*
Y141620D03*
X479880Y159450D03*
X476140D03*
X483320Y155780D03*
Y159520D03*
X529000Y186370D03*
Y182630D03*
X531770Y216650D03*
X528030D03*
X512950Y222970D03*
Y219230D03*
X517050Y222970D03*
Y219230D03*
X503650Y222970D03*
Y219230D03*
X507850Y222970D03*
Y219230D03*
X490030Y212550D03*
X493770D03*
X529510Y174800D03*
X533250D03*
X568810Y198550D03*
X572550D03*
X577930Y183700D03*
X581670D03*
X567400Y244300D03*
Y248040D03*
X521770Y263500D03*
X518030D03*
X521770Y252500D03*
X518030D03*
X532687Y254900D03*
X536427D03*
X533187Y284600D03*
X536927D03*
X532687Y266000D03*
X536427D03*
X533187Y273500D03*
X536927D03*
X597530Y264000D03*
Y253000D03*
X587470Y235950D03*
X583730D03*
X525120Y186370D03*
Y182630D03*
X498800Y174820D03*
X533000Y186370D03*
Y182630D03*
X525120Y174680D03*
Y178420D03*
X502430Y174750D03*
X506170D03*
X487693Y219358D03*
X491433D03*
X493872Y204730D03*
Y208470D03*
X489895D03*
Y204730D03*
X530055Y205628D03*
X526315D03*
Y200451D03*
X530055D03*
X537247Y205628D03*
X533507D03*
X530055Y196951D03*
X526315D03*
X488900Y243960D03*
Y247700D03*
X580379Y198550D03*
X584119D03*
X587965Y198480D03*
Y202220D03*
X576533Y198480D03*
Y202220D03*
X541020Y174800D03*
X544760D03*
X548190Y178470D03*
Y174730D03*
X537580Y178470D03*
Y174730D03*
X594878Y356450D03*
X598619D03*
X522970Y362450D03*
X519230D03*
X505150Y352030D03*
Y355770D03*
X509350Y352030D03*
Y355770D03*
X481530Y358350D03*
X485270D03*
X495950Y352030D03*
Y355770D03*
X500050Y352030D03*
Y355770D03*
X506000Y325180D03*
Y328920D03*
X540000Y336320D03*
Y332580D03*
X598548Y352780D03*
Y356520D03*
Y378460D03*
Y382200D03*
Y392130D03*
Y395870D03*
X594878Y352850D03*
X598619D03*
X480170Y302950D03*
X476430D03*
X576330D03*
X580070D03*
X598648Y407000D03*
X539870Y347300D03*
X536130D03*
X539870Y341500D03*
X536130D03*
X598548Y312272D03*
Y316013D03*
X598648Y400250D03*
X586700Y414130D03*
Y417870D03*
X598648Y387500D03*
X591471Y352792D03*
Y356532D03*
X568913Y411052D03*
Y407312D03*
X475170Y337058D03*
Y341158D03*
X598478Y375000D03*
X598548Y371370D03*
Y367630D03*
X598478Y364000D03*
X586200Y422630D03*
X486616Y401649D03*
X490356D03*
X482945Y378049D03*
X486685D03*
Y374549D03*
X482945D03*
X475753Y369372D03*
X479493D03*
X523105Y366530D03*
Y370270D03*
X519128D03*
Y366530D03*
X482945Y369372D03*
X486685D03*
X525370Y356800D03*
X521630D03*
X598548Y324730D03*
Y328470D03*
X594878Y320701D03*
X598619D03*
X594878Y332301D03*
X598619D03*
X533500Y318220D03*
Y314480D03*
X529500Y318220D03*
Y314480D03*
X489000Y328520D03*
Y324780D03*
X493000Y328520D03*
Y324780D03*
X507600Y310730D03*
Y314470D03*
X568583Y375295D03*
X564843D03*
X539916Y420347D03*
X568600Y437208D03*
Y433468D03*
X486410Y435876D03*
Y432135D03*
X538473Y464690D03*
X534732D03*
X546885Y507663D03*
Y503923D03*
X556510Y443442D03*
X552770D03*
X562500Y484130D03*
Y487870D03*
X586670Y483000D03*
X582930D03*
X534803Y468420D03*
Y472160D03*
X539543Y503993D03*
X543283D03*
X535948Y454278D03*
X539688D03*
X572200Y437208D03*
Y433468D03*
X482810Y432135D03*
Y435876D03*
X556520Y447540D03*
X552780D03*
X532348Y434672D03*
X536088D03*
X539688D03*
X535948D03*
X591719Y433538D03*
X587979D03*
X576703Y503993D03*
X572963D03*
X512900Y455030D03*
Y458770D03*
X508800Y455030D03*
Y458770D03*
X557280Y452780D03*
X553540D03*
X549570Y476630D03*
X553310D03*
X582530Y476430D03*
Y472690D03*
X581679Y437378D03*
Y433638D03*
X572270Y440659D03*
X568530D03*
X482733Y428735D03*
X486473D03*
X576603Y493648D03*
X572863D03*
X540543Y516906D03*
X544283D03*
X554133Y484130D03*
Y487870D03*
X540543Y521570D03*
X544283D03*
X540543Y535870D03*
X544283D03*
X540543Y531070D03*
X544283D03*
X540543Y526370D03*
X544283D03*
X483530Y458700D03*
X487270D03*
X576603Y497748D03*
X572863D03*
X586200Y426370D03*
X575900Y429868D03*
Y433608D03*
X568530Y433538D03*
X572270D03*
X560700Y429868D03*
Y433608D03*
X500510Y432135D03*
Y435876D03*
X476110Y432135D03*
Y435876D03*
X486480Y435806D03*
X482740D03*
X551860Y458010D03*
X555600D03*
X555620Y466060D03*
X551880D03*
Y462060D03*
X555620D03*
X599156Y457693D03*
Y461433D03*
X553464Y535870D03*
X549724D03*
X553464Y531070D03*
X549724D03*
X553464Y516906D03*
X549724D03*
X553464Y521570D03*
X549724D03*
X553464Y526370D03*
X549724D03*
X572933Y489418D03*
Y485678D03*
X567446Y515150D03*
X571186D03*
X558333Y487870D03*
Y484130D03*
X571090Y523377D03*
Y519637D03*
X540683Y516906D03*
X536943D03*
X540683Y521570D03*
X536943D03*
X540683Y526370D03*
X536943D03*
X540683Y531070D03*
X536943D03*
X540683Y535870D03*
X536943D03*
X571090Y523237D03*
Y526977D03*
X595416Y461433D03*
Y457693D03*
X588450Y476381D03*
Y472641D03*
X539916Y424087D03*
X620020Y198150D03*
X616280D03*
X616350Y198080D03*
Y201820D03*
X627330Y235950D03*
X631070D03*
X647400Y243796D03*
Y247536D03*
X620020Y201750D03*
X616280D03*
X601270Y264000D03*
Y253000D03*
X611873Y267300D03*
X615613D03*
X611873Y256400D03*
X615613D03*
X612187Y271500D03*
X615927D03*
X612275Y281788D03*
X616015D03*
X665830Y247200D03*
X669570D03*
X665830Y235600D03*
X669570D03*
X623497Y198099D03*
Y201839D03*
X663240Y334730D03*
Y338470D03*
X655030Y338615D03*
X658770D03*
X651230Y375415D03*
X654970D03*
X638670Y302950D03*
X634930D03*
X617151Y396080D03*
Y399820D03*
X607154Y396080D03*
Y399820D03*
X602388Y407000D03*
X633130Y354200D03*
X636870D03*
X602388Y400250D03*
X616448Y312272D03*
Y316013D03*
X602388Y387500D03*
X667885Y355730D03*
Y359470D03*
X672950Y355730D03*
Y359470D03*
X659500Y375230D03*
Y378970D03*
X663600D03*
Y375230D03*
X650585Y338770D03*
Y335030D03*
X667885Y348130D03*
Y351870D03*
X672950Y348130D03*
Y351870D03*
X651215Y383370D03*
Y379630D03*
X655115Y383370D03*
Y379630D03*
X654785Y330830D03*
Y334570D03*
X658885Y330830D03*
Y334570D03*
X646515Y335030D03*
Y338770D03*
X602218Y375000D03*
Y364000D03*
X622151Y421816D03*
X669750Y334730D03*
Y338470D03*
X616448Y359936D03*
Y356196D03*
X616378Y352850D03*
X620119D03*
X616378Y363282D03*
X620119D03*
Y320701D03*
X616378D03*
X620119Y332301D03*
X616378D03*
X616448Y324730D03*
Y328470D03*
X674950Y334730D03*
Y338470D03*
X609744Y503993D03*
X613484D03*
X622151Y425556D03*
X608500Y468193D03*
Y471933D03*
G54D22*
X65050Y317509D03*
X68800Y326209D03*
X61300D03*
X641650Y314017D03*
X645400Y322717D03*
X637900D03*
G54D50*
X105384Y174610D03*
Y188390D03*
X101250Y174610D03*
Y188390D03*
X97116Y174610D03*
Y188390D03*
X461284Y174610D03*
Y188390D03*
X457150Y174610D03*
Y188390D03*
X453016Y174610D03*
Y188390D03*
G54D14*
X83592Y103251D03*
X86237Y105896D03*
X83642Y108402D03*
X86287Y105757D03*
X92522Y427678D03*
X89878Y430322D03*
X92878Y433178D03*
X95522Y435822D03*
X161045Y108402D03*
X158400Y105757D03*
X163590D03*
X160946Y108402D03*
X150095Y105757D03*
X147450Y108402D03*
X150095Y105857D03*
X147450Y103212D03*
X172362Y105757D03*
X175006Y108402D03*
X172362Y105857D03*
X175006Y103212D03*
X216678Y99842D03*
X219323Y97197D03*
X216678Y94652D03*
X219323Y97297D03*
X101522Y436378D03*
X98878Y439022D03*
X226724Y97197D03*
X229368Y99842D03*
X231914Y97197D03*
X229269Y99842D03*
X241990D03*
X239345Y97197D03*
X241990Y94652D03*
X239345Y97297D03*
X241122Y435678D03*
X238478Y438322D03*
X241078Y430578D03*
X243722Y433222D03*
X473450Y108441D03*
Y103251D03*
X409592Y108441D03*
X412237Y105796D03*
X409592Y103251D03*
X412237Y105896D03*
X448422Y427678D03*
X445778Y430322D03*
X571540Y92117D03*
X568896Y94762D03*
X566350Y92117D03*
X568995Y94762D03*
X581592D03*
X578947Y92117D03*
X556277Y94762D03*
X558921Y92117D03*
X556277Y89572D03*
X558921Y92216D03*
X581592Y89572D03*
X578947Y92216D03*
X476095Y105796D03*
Y105896D03*
X501362Y105796D03*
X504006Y108441D03*
X501362Y105896D03*
X504006Y103251D03*
X596308Y428668D03*
X598952Y431312D03*
G54D23*
X82176Y422059D03*
X243176Y421559D03*
X438076Y422059D03*
X596576Y421559D03*
G54D41*
X28500Y539000D03*
X233500D03*
X466500D03*
X671500D03*
G54D32*
X80069Y416016D03*
Y417984D03*
X241069Y415516D03*
Y417484D03*
X435969Y416016D03*
Y417984D03*
X594469Y415516D03*
Y417484D03*
G54D51*
X172475Y224510D03*
X183105D03*
X146525Y348390D03*
X135895D03*
X316025Y430990D03*
X305395D03*
X384908Y355517D03*
X395538D03*
X384968Y365237D03*
X395598D03*
X385013Y374577D03*
X395643D03*
X475395Y350490D03*
X526975Y224510D03*
X537605D03*
X486025Y350490D03*
G54D42*
X28500Y527583D03*
X233500D03*
X466500D03*
X671500D03*
G54D60*
X140500Y502024D03*
X560333D03*
G54D33*
X80069Y419953D03*
X241069Y419453D03*
X435969Y419953D03*
X594469Y419453D03*
G54D24*
X84144Y422059D03*
X86113D03*
X245144Y421559D03*
X247113D03*
X440044Y422059D03*
X442013D03*
X598544Y421559D03*
X600513D03*
G54D15*
X33568Y139383D03*
X39668D03*
X36093Y231300D03*
X29993D03*
X36093Y242400D03*
X29993D03*
X36093Y296600D03*
X29993D03*
X59042Y293500D03*
X52942D03*
X88050Y247000D03*
X81950D03*
X88050Y258000D03*
X81950D03*
X96293Y251700D03*
Y262000D03*
X96650Y287332D03*
X96629Y276780D03*
X96607Y295035D03*
X96293Y244055D03*
X29993Y223355D03*
X36093D03*
X89350Y226000D03*
X83250D03*
X95250D03*
X36093Y307700D03*
X29993D03*
Y315645D03*
X36093D03*
X167550Y247000D03*
X161450D03*
X102393Y251700D03*
Y262000D03*
X102750Y287332D03*
X102729Y276780D03*
X139042Y293500D03*
X132942D03*
X179135Y211060D03*
X173035D03*
X132327Y199510D03*
X138427D03*
X132327Y193010D03*
X138427D03*
X167550Y258000D03*
X161450D03*
X177607Y261000D03*
X183707D03*
X177607Y249900D03*
X183707D03*
X177607Y292100D03*
X183707D03*
X177607Y281000D03*
X183707D03*
X220042Y293500D03*
X213942D03*
X102707Y295035D03*
X183707Y241955D03*
X177607D03*
X102393Y244055D03*
X101350Y226000D03*
X140073Y361440D03*
X146173D03*
X186673Y372990D03*
X180573D03*
X186673Y379490D03*
X180573D03*
X183707Y300045D03*
X177607D03*
X117093Y401649D03*
X123193D03*
X137750Y457900D03*
X143850D03*
X173813Y462500D03*
X167713D03*
X249050Y247500D03*
X242950D03*
X249050Y258500D03*
X242950D03*
X257651Y276759D03*
X263751D03*
X257607Y287223D03*
X263707D03*
X257593Y251900D03*
X263693D03*
X257593Y262200D03*
X263693D03*
X300042Y293500D03*
X293942D03*
X328344Y231010D03*
X322244D03*
X328344Y242110D03*
X322244D03*
X263663Y294860D03*
X257563D03*
X263693Y244255D03*
X257593D03*
X251050Y226000D03*
X244950D03*
X256950D03*
X263050D03*
X308273Y445540D03*
X314373D03*
X382568Y139383D03*
X388668D03*
X385807Y296100D03*
X379707D03*
X374707Y281000D03*
X380807D03*
X443450Y247000D03*
X437350D03*
X443450Y258000D03*
X437350D03*
X414942Y293500D03*
X408842D03*
X390293Y231400D03*
X384193D03*
X390293Y242500D03*
X384193D03*
X451693Y251400D03*
X457793D03*
X451693Y261800D03*
X457793D03*
X452094Y287223D03*
X458194D03*
X452007Y276781D03*
X458107D03*
X458238Y294860D03*
X452138D03*
X457793Y243555D03*
X451693D03*
X384193Y223455D03*
X390293D03*
X445250Y226000D03*
X439150D03*
X451150D03*
X457250D03*
X379707Y304045D03*
X385807D03*
X472993Y401649D03*
X355673Y460490D03*
X349573D03*
X355673Y453990D03*
X349573D03*
X354930Y435560D03*
X361030D03*
X494942Y293500D03*
X488842D03*
X522950Y247000D03*
X516850D03*
X522950Y258000D03*
X516850D03*
X531507Y260500D03*
X537607D03*
X531507Y249400D03*
X537607D03*
X532007Y290100D03*
X538107D03*
X532007Y279000D03*
X538107D03*
X486827Y193010D03*
X492927D03*
X573442Y293500D03*
X567342D03*
X533427Y211060D03*
X527327D03*
X486827Y199510D03*
X492927D03*
X596350Y247500D03*
Y258500D03*
X538107Y298045D03*
X532007D03*
X537607Y241455D03*
X531507D03*
X598350Y226000D03*
X479573Y363940D03*
X485673D03*
X526173Y375490D03*
X520073D03*
X526173Y381990D03*
X520073D03*
X479093Y401649D03*
X495050Y458700D03*
X501150D03*
X534903Y477390D03*
X528803D03*
X602450Y247500D03*
Y258500D03*
X610693Y251200D03*
X616793D03*
X610693Y261800D03*
X616793D03*
X611007Y276649D03*
X617107D03*
X610985Y287003D03*
X617085D03*
X653442Y293500D03*
X647342D03*
X664650Y241300D03*
X670750D03*
X664650Y229800D03*
X670750D03*
X617239Y294685D03*
X611139D03*
X617293Y243555D03*
X611193D03*
X604450Y226000D03*
X610350D03*
X616450D03*
G54D70*
X302067Y217600D03*
Y212600D03*
Y207600D03*
Y202600D03*
Y197600D03*
Y192600D03*
X322933Y217600D03*
Y212600D03*
Y207600D03*
Y202600D03*
Y197600D03*
Y192600D03*
X302067Y187600D03*
X322933D03*
G54D52*
X127546Y320650D03*
X118846Y324400D03*
Y316900D03*
X164846Y315350D03*
X156146Y319100D03*
Y311600D03*
X195983Y312950D03*
X187283Y316700D03*
Y309200D03*
X311866Y343667D03*
X320566Y339917D03*
Y347417D03*
X473646Y328600D03*
Y321100D03*
X482346Y324850D03*
X522846Y314550D03*
X514146Y318300D03*
Y310800D03*
X490809Y313450D03*
X499509Y309700D03*
Y317200D03*
G54D25*
X90188Y419953D03*
X251188Y419453D03*
X446087Y419953D03*
X604588Y419453D03*
G54D61*
X136563Y494741D03*
X138532D03*
X140500D03*
X142468D03*
X144437D03*
Y509308D03*
X142468D03*
X140500D03*
X138532D03*
X136563D03*
X564270D03*
X562302D03*
X560333D03*
X558365D03*
X556396D03*
Y494741D03*
X558365D03*
X560333D03*
X562302D03*
X564270D03*
G54D34*
X85128Y417000D03*
X246128Y416500D03*
X441028Y417000D03*
X599528Y416500D03*
G54D43*
X179550Y155575D03*
X177975D03*
X179550Y154000D03*
X177975D03*
X148950Y157925D03*
X150525D03*
X148950Y159500D03*
X150525D03*
X148900Y139975D03*
X150474D03*
X148900Y141550D03*
X150474D03*
X162550Y176248D03*
X160975D03*
X162550Y174673D03*
X160975D03*
X533050Y155575D03*
X531475D03*
X533050Y154000D03*
X531475D03*
X504850Y157925D03*
X506425D03*
X504850Y159500D03*
X506425D03*
X504800Y139975D03*
X506374D03*
X504800Y141550D03*
X506374D03*
X516050Y176325D03*
X514475D03*
X516050Y174750D03*
X514475D03*
G54D16*
X45100Y210754D03*
Y198550D03*
X206800Y210754D03*
Y198550D03*
X401000Y210754D03*
Y198550D03*
X560200Y210754D03*
Y198550D03*
G54D80*
X551526Y412422D03*
X547786Y420296D03*
X555267D03*
G54D17*
X83350Y209550D03*
Y218450D03*
X84148Y338050D03*
Y346950D03*
X101250Y209550D03*
Y218450D03*
X218607Y174723D03*
X200707D03*
X218607Y183623D03*
X200707D03*
X102048Y338050D03*
Y346950D03*
X262950Y209550D03*
X245050D03*
X262950Y218450D03*
X245050D03*
X263048Y338050D03*
X245148D03*
X263048Y346950D03*
X245148D03*
X457150Y209550D03*
X439250D03*
X457150Y218450D03*
X439250D03*
X457948Y338050D03*
X440048D03*
X457948Y346950D03*
X440048D03*
X572107Y174800D03*
X554207D03*
X572107Y183700D03*
X554207D03*
X598450Y209550D03*
Y218450D03*
X598548Y338050D03*
Y346950D03*
X616350Y209550D03*
Y218450D03*
X616448Y338050D03*
Y346950D03*
G54D71*
X251341Y189135D03*
X235199D03*
X251341Y183623D03*
X235199D03*
X251341Y178111D03*
X235199D03*
X588429Y189212D03*
Y183700D03*
Y178188D03*
X604571Y189212D03*
Y183700D03*
Y178188D03*
G54D44*
X110150Y159450D03*
Y141550D03*
X101250Y159450D03*
Y141550D03*
X466050Y159450D03*
Y141550D03*
X457150Y159450D03*
Y141550D03*
G54D26*
X90188Y417984D03*
Y416016D03*
X251188Y417484D03*
Y415516D03*
X446087Y417984D03*
Y416016D03*
X604588Y417484D03*
Y415516D03*
G54D53*
X190913Y406165D03*
X198787D03*
G54D62*
X147784Y498087D03*
Y500056D03*
Y502024D03*
Y503993D03*
Y505961D03*
X133216D03*
Y503993D03*
Y502024D03*
Y500056D03*
Y498087D03*
X553050Y505961D03*
Y503993D03*
Y502024D03*
Y500056D03*
Y498087D03*
X567616D03*
Y500056D03*
Y502024D03*
Y503993D03*
Y505961D03*
G54D35*
X88081Y422059D03*
X249081Y421559D03*
X443981Y422059D03*
X602481Y421559D03*
G54D54*
X182100Y324150D03*
Y332024D03*
X144700Y320650D03*
Y328524D03*
X540000Y314550D03*
Y322424D03*
X499500Y324850D03*
Y332724D03*
G54D36*
X45830Y371500D03*
X43870D03*
X41900D03*
X39930D03*
X37960D03*
X45830Y353500D03*
X43870D03*
X41900D03*
X39930D03*
X37960D03*
X652370Y348100D03*
X654330D03*
X656300D03*
X658270D03*
X660240D03*
X652370Y366100D03*
X654330D03*
X656300D03*
X658270D03*
X660240D03*
G54D72*
X334479Y375436D03*
X330542D03*
X328574D03*
X326605D03*
X324637D03*
X334479Y364412D03*
X330542D03*
X328574D03*
X326605D03*
X324637D03*
G54D63*
X198724Y442138D03*
Y444406D03*
X146500D03*
Y442138D03*
X554624Y433538D03*
Y435806D03*
X508610D03*
Y433538D03*
G54D18*
X92300Y214000D03*
X93098Y342500D03*
X209657Y179173D03*
X254000Y214000D03*
X254098Y342500D03*
X448200Y214000D03*
X448998Y342500D03*
X563157Y179250D03*
X607400Y214000D03*
X607498Y342500D03*
G54D45*
X105700Y150500D03*
X461600D03*
G54D81*
X597000Y511552D03*
G54D27*
X90188Y414047D03*
X251188Y413547D03*
X446087Y414047D03*
X604588Y413547D03*
G54D28*
X88081Y411941D03*
X249081Y411441D03*
X443981Y411941D03*
X602481Y411441D03*
G54D37*
X67569Y365406D03*
X59695D03*
X67569Y353595D03*
X59695D03*
X69735Y359500D03*
X57530D03*
X114915Y195844D03*
X122789D03*
X114915Y207656D03*
X122789D03*
X112750Y201750D03*
X124955D03*
X220195Y369806D03*
Y357995D03*
X218030Y363900D03*
X104294Y418901D03*
X116106D03*
X110200Y416735D03*
X104294Y426775D03*
X116106D03*
X110200Y428940D03*
X276313Y195844D03*
X284187D03*
X276313Y207656D03*
X284187D03*
X274148Y201750D03*
X286352D03*
X228069Y369806D03*
Y357995D03*
X230235Y363900D03*
X227713Y449650D03*
X235587D03*
X227713Y461461D03*
X235587D03*
X225548Y455555D03*
X237753D03*
X470815Y195844D03*
Y207656D03*
X468650Y201750D03*
X422344Y346469D03*
Y338595D03*
X434155Y346469D03*
Y338595D03*
X428249Y348635D03*
Y336430D03*
X478689Y195844D03*
Y207656D03*
X480855Y201750D03*
X476904Y422375D03*
Y414501D03*
X488716Y422375D03*
Y414501D03*
X482810Y412335D03*
X581054Y368354D03*
X573180D03*
X581054Y356542D03*
X573180D03*
X583219Y362448D03*
X571015D03*
X578106Y449684D03*
Y457558D03*
X566294Y449684D03*
Y457558D03*
X572200Y447518D03*
Y459723D03*
X482810Y424540D03*
X630213Y195844D03*
X638087D03*
X630213Y207656D03*
X638087D03*
X628048Y201750D03*
X640252D03*
G54D82*
X536018Y442143D03*
X534050D03*
X537987D03*
G54D19*
X64300Y229908D03*
Y236008D03*
X71300Y308950D03*
Y302850D03*
X121500Y229916D03*
Y236016D03*
X142857Y225560D03*
Y219460D03*
X176143Y346940D03*
Y353040D03*
X107751Y395708D03*
Y401808D03*
X97751Y395708D03*
Y401808D03*
X114903Y308950D03*
Y302850D03*
X136700Y331100D03*
Y337200D03*
X129700Y331100D03*
Y337200D03*
X167000Y325800D03*
Y331900D03*
X174000Y325800D03*
Y331900D03*
X133300Y522350D03*
Y516250D03*
X117000Y499956D03*
Y506056D03*
X225000Y229916D03*
Y236016D03*
X283000Y229916D03*
Y236016D03*
X268751Y394208D03*
Y400308D03*
X258751Y394208D03*
Y400308D03*
X268751Y408193D03*
Y414293D03*
X232300Y308950D03*
Y302850D03*
X275903Y308950D03*
Y302850D03*
X344643Y427140D03*
Y433240D03*
X420200Y229908D03*
Y236008D03*
X463651Y395708D03*
Y401808D03*
X453651Y395708D03*
Y401808D03*
X427200Y308950D03*
Y302850D03*
X470803Y308950D03*
Y302850D03*
X477400Y229916D03*
Y236016D03*
X578400Y229916D03*
Y236016D03*
X497857Y225560D03*
Y219460D03*
X515143Y349440D03*
Y355540D03*
X585700Y308950D03*
Y302850D03*
X491500Y335300D03*
Y341400D03*
X484500Y335300D03*
Y341400D03*
X525000Y325000D03*
Y331100D03*
X532000Y325000D03*
Y331100D03*
X567533Y481698D03*
Y487798D03*
X582632Y504093D03*
Y497993D03*
X636400Y229916D03*
Y236016D03*
X622151Y394208D03*
Y400308D03*
X612151Y394208D03*
Y400308D03*
X622151Y408193D03*
Y414293D03*
X629303Y308950D03*
Y302850D03*
G54D73*
X337038Y372877D03*
X322078D03*
X337038Y370908D03*
X322078D03*
X337038Y368940D03*
X322078D03*
X337038Y366971D03*
X322078D03*
G54D64*
X200397Y442138D03*
Y444406D03*
X144827D03*
Y442138D03*
X556297Y433538D03*
Y435806D03*
X506937D03*
Y433538D03*
G54D46*
X160995Y212490D03*
X158436D03*
X155877D03*
X153318D03*
X150759D03*
X168241Y378970D03*
X165682D03*
X163123D03*
X160564D03*
X158005D03*
X337241Y459970D03*
X334682D03*
X332123D03*
X329564D03*
X327005D03*
X515495Y212490D03*
X512936D03*
X510377D03*
X507818D03*
X505259D03*
X507741Y381470D03*
X505182D03*
X502623D03*
X500064D03*
X497505D03*
G54D55*
X114252Y372276D03*
X102048D03*
X275252D03*
X263048D03*
X470152D03*
X457948D03*
X395990Y386297D03*
X383786D03*
X396265Y343797D03*
X384060D03*
X628652Y372276D03*
X616448D03*
G54D38*
X96094Y500055D03*
X107906D03*
X591094Y503993D03*
X602906D03*
G54D83*
X532357Y443836D03*
Y445804D03*
Y447773D03*
G54D56*
X190913Y390710D03*
Y396616D03*
X563080Y420293D03*
X568985D03*
X581894Y375295D03*
X575988D03*
G54D47*
X146397Y208128D03*
Y205569D03*
Y203010D03*
Y200451D03*
Y197892D03*
X153643Y374608D03*
Y372049D03*
Y369490D03*
Y366931D03*
Y364372D03*
X322643Y455608D03*
Y453049D03*
Y450490D03*
Y447931D03*
Y445372D03*
X500897Y208128D03*
Y205569D03*
Y203010D03*
Y200451D03*
Y197892D03*
X493143Y377108D03*
Y374549D03*
Y371990D03*
Y369431D03*
Y366872D03*
G54D74*
X333790Y369924D03*
G54D65*
X197051Y443272D03*
X148173D03*
X552951Y434672D03*
X510283D03*
G54D29*
X86113Y411941D03*
X84144D03*
X247113Y411441D03*
X245144D03*
X442013Y411941D03*
X440044D03*
X598544Y411441D03*
X600513D03*
G54D39*
X95604Y526376D03*
Y535824D03*
X99344Y526376D03*
X103084D03*
X99344Y535824D03*
X103084D03*
X599156Y476187D03*
X595416D03*
X599156Y466739D03*
X595416D03*
X602896Y476187D03*
Y466739D03*
G54D57*
X102000Y492496D03*
G54D66*
X101850Y519646D03*
Y512954D03*
X596940Y482534D03*
Y489226D03*
G54D48*
X150759Y193530D03*
X153318D03*
X155877D03*
X158436D03*
X160995D03*
X158005Y360010D03*
X160564D03*
X163123D03*
X165682D03*
X168241D03*
X327005Y441010D03*
X329564D03*
X332123D03*
X334682D03*
X337241D03*
X505259Y193530D03*
X507818D03*
X510377D03*
X512936D03*
X515495D03*
X497505Y362510D03*
X500064D03*
X502623D03*
X505182D03*
X507741D03*
G54D84*
X534050Y449466D03*
X536018D03*
X537987D03*
G54D75*
X330759Y369924D03*
G54D58*
X166035Y478500D03*
X527125Y491390D03*
G54D67*
X160500Y455200D03*
Y457600D03*
X230300Y417300D03*
Y419700D03*
X228300Y427280D03*
Y424880D03*
X581700Y414800D03*
Y417200D03*
X582200Y423300D03*
Y425700D03*
X517800Y456100D03*
Y458500D03*
G54D85*
X539680Y447773D03*
Y445804D03*
Y443836D03*
G54D49*
X165357Y197892D03*
Y200451D03*
Y203010D03*
Y205569D03*
Y208128D03*
X172603Y364372D03*
Y366931D03*
Y369490D03*
Y372049D03*
Y374608D03*
X341603Y445372D03*
Y447931D03*
Y450490D03*
Y453049D03*
Y455608D03*
X519857Y197892D03*
Y200451D03*
Y203010D03*
Y205569D03*
Y208128D03*
X512103Y366872D03*
Y369431D03*
Y371990D03*
Y374549D03*
Y377108D03*
G54D76*
X338087Y394851D03*
Y384615D03*
X340223Y342529D03*
Y352765D03*
G54D59*
X173713Y484406D03*
Y472594D03*
X534803Y497296D03*
Y485484D03*
G54D68*
X112720Y511500D03*
X115120D03*
X112720Y516500D03*
X115120D03*
X585563Y487500D03*
X583163D03*
X585563Y492500D03*
X583163D03*
G54D77*
X367970Y386252D03*
Y407118D03*
G54D86*
X536018Y445804D03*
G54D87*
G01X13400Y-196400D02*
X641300D01*
Y-176400D01*
G01X13400Y-136400D02*
X716000D01*
G01X13400Y-156400D02*
X716000D01*
G01X13400Y-176400D02*
X716000D01*
G01X641300Y-196400D02*
X716000D01*
Y-117200D01*
X13400D01*
Y-196400D01*
G01X641300Y-117200D02*
Y-136400D01*
G01Y-156400D02*
Y-136400D01*
G01Y-156400D02*
Y-176400D01*
G54D69*
X227000Y130000D03*
X565000D03*
G54D78*
X362500Y344210D03*
Y366010D03*
G54D88*
G01X19433Y-132500D02*
Y-122500D01*
X22767D01*
X24100Y-123000D01*
X25100Y-123667D01*
X25934Y-124666D01*
X26600Y-125834D01*
X26767Y-127500D01*
X26600Y-129167D01*
X25934Y-130334D01*
X25100Y-131334D01*
X24100Y-132000D01*
X22767Y-132500D01*
X19433D01*
G01X30433D02*
X34600Y-122500D01*
X38767Y-132500D01*
G01X37267Y-129000D02*
X31933D01*
G01X46100Y-122500D02*
Y-132500D01*
G01X42267Y-122500D02*
X49933D01*
G01X60933Y-132500D02*
X54267D01*
Y-122500D01*
X60933D01*
G01X58267Y-127333D02*
X54267D01*
G01X69100Y-132833D02*
X68767Y-132667D01*
Y-132333D01*
X69100Y-132167D01*
X69433Y-132333D01*
Y-132667D01*
X69100Y-132833D01*
G01Y-128334D02*
X68767Y-128167D01*
Y-127833D01*
X69100Y-127667D01*
X69433Y-127833D01*
Y-128167D01*
X69100Y-128334D01*
G01X80600Y-132500D02*
Y-122500D01*
X78600Y-124500D01*
G01Y-132500D02*
X82600D01*
G01X89933Y-129167D02*
X94267D01*
G01X103600Y-132500D02*
Y-122500D01*
X101600Y-124500D01*
G01Y-132500D02*
X105600D01*
G01X111433Y-130500D02*
X112433Y-131667D01*
X113766Y-132333D01*
X115267Y-132500D01*
X116600Y-132333D01*
X117934Y-131500D01*
X118767Y-130500D01*
X118933Y-129500D01*
X118600Y-128334D01*
X117433Y-127500D01*
X116267Y-127167D01*
X114767D01*
G01X116267D02*
X117267Y-126667D01*
X118100Y-125834D01*
X118433Y-124833D01*
X118100Y-123833D01*
X117267Y-123000D01*
X115767Y-122500D01*
X114267Y-122667D01*
X112767Y-123334D01*
G01X124433Y-129167D02*
X128767D01*
G01X134933Y-124167D02*
X135933Y-123167D01*
X137100Y-122667D01*
X138433Y-122500D01*
X140100Y-122833D01*
X141267Y-123667D01*
X141600Y-124666D01*
X141433Y-125667D01*
X140767Y-126500D01*
X137433Y-128167D01*
X135933Y-129333D01*
X134933Y-131000D01*
X134600Y-132500D01*
X141600D01*
G01X149600Y-122500D02*
X148266Y-122833D01*
X147267Y-123667D01*
X146600Y-124666D01*
X146100Y-126000D01*
X145933Y-127500D01*
X146100Y-129000D01*
X146600Y-130334D01*
X147267Y-131334D01*
X148266Y-132167D01*
X149600Y-132500D01*
X150933Y-132167D01*
X151933Y-131334D01*
X152600Y-130334D01*
X153100Y-129000D01*
X153267Y-127500D01*
X153100Y-126000D01*
X152600Y-124666D01*
X151933Y-123667D01*
X150933Y-122833D01*
X149600Y-122500D01*
G01X161100Y-132500D02*
Y-122500D01*
X159100Y-124500D01*
G01Y-132500D02*
X163100D01*
G01X172267D02*
X172600Y-130334D01*
X173100Y-128500D01*
X173767Y-126833D01*
X174600Y-125000D01*
X175933Y-122500D01*
X169267D01*
G01X19233Y-151700D02*
Y-141700D01*
X22567D01*
X23900Y-142200D01*
X24900Y-142867D01*
X25733Y-143866D01*
X26400Y-145034D01*
X26567Y-146700D01*
X26400Y-148367D01*
X25733Y-149534D01*
X24900Y-150534D01*
X23900Y-151200D01*
X22567Y-151700D01*
X19233D01*
G01X37733D02*
X31067D01*
Y-141700D01*
X37733D01*
G01X35067Y-146533D02*
X31067D01*
G01X42400Y-150367D02*
X43733Y-151200D01*
X45233Y-151700D01*
X46567D01*
X47900Y-151200D01*
X48900Y-150367D01*
X49400Y-149200D01*
X49067Y-148034D01*
X48233Y-147033D01*
X46733Y-146367D01*
X44733Y-146033D01*
X43567Y-145367D01*
X43066Y-144200D01*
X43400Y-143033D01*
X44233Y-142200D01*
X45400Y-141700D01*
X46567D01*
X47733Y-142033D01*
X48733Y-142867D01*
G01X55400Y-141700D02*
X59400D01*
G01X57400D02*
Y-151700D01*
G01X55400D02*
X59400D01*
G01X69900Y-146700D02*
X73234D01*
Y-149700D01*
X72233Y-150700D01*
X71067Y-151367D01*
X69400Y-151700D01*
X67733Y-151367D01*
X66567Y-150700D01*
X65567Y-149700D01*
X64900Y-148533D01*
X64566Y-147200D01*
Y-146033D01*
X64900Y-145034D01*
X65567Y-143866D01*
X66567Y-142867D01*
X67566Y-142200D01*
X68900Y-141700D01*
X70067D01*
X71400Y-142033D01*
X72400Y-142700D01*
G01X76567Y-151700D02*
Y-141700D01*
X84233Y-151700D01*
Y-141700D01*
G01X95233Y-151700D02*
X88567D01*
Y-141700D01*
X95233D01*
G01X92567Y-146533D02*
X88567D01*
G01X99733Y-151700D02*
Y-141700D01*
X103067D01*
X104400Y-142200D01*
X105400Y-142867D01*
X106234Y-143866D01*
X106900Y-145034D01*
X107067Y-146700D01*
X106900Y-148367D01*
X106234Y-149534D01*
X105400Y-150534D01*
X104400Y-151200D01*
X103067Y-151700D01*
X99733D01*
G01X122233D02*
X126400Y-141700D01*
X130567Y-151700D01*
G01X129067Y-148200D02*
X123733D01*
G01X137900Y-141700D02*
Y-151700D01*
G01X134067Y-141700D02*
X141733D01*
G01X149400Y-152033D02*
X149067Y-151867D01*
Y-151533D01*
X149400Y-151367D01*
X149733Y-151533D01*
Y-151867D01*
X149400Y-152033D01*
G01Y-147534D02*
X149067Y-147367D01*
Y-147033D01*
X149400Y-146867D01*
X149733Y-147033D01*
Y-147367D01*
X149400Y-147534D01*
G01X17433Y-192300D02*
Y-182300D01*
X23767D01*
G01X21433Y-187133D02*
X17433D01*
G01X30100Y-182300D02*
X34100D01*
G01X32100D02*
Y-192300D01*
G01X30100D02*
X34100D01*
G01X40267Y-182300D02*
Y-192300D01*
X46933D01*
G01X50766D02*
Y-182300D01*
X55100Y-190633D01*
X59434Y-182300D01*
Y-192300D01*
G01X74767Y-182300D02*
Y-192300D01*
X81433D01*
G01X85433D02*
X89600Y-182300D01*
X93767Y-192300D01*
G01X92267Y-188800D02*
X86933D01*
G01X101100Y-192300D02*
Y-187800D01*
X97767Y-182300D01*
G01X104433D02*
X101100Y-187800D01*
G01X115933Y-192300D02*
X109267D01*
Y-182300D01*
X115933D01*
G01X113267Y-187133D02*
X109267D01*
G01X120767Y-192300D02*
Y-182300D01*
X124933D01*
X126267Y-182800D01*
X127100Y-183467D01*
X127433Y-184800D01*
X127100Y-186133D01*
X126100Y-186967D01*
X124933Y-187467D01*
X120767D01*
G01X124933D02*
X127433Y-192300D01*
G01X135600Y-192633D02*
X135267Y-192467D01*
Y-192133D01*
X135600Y-191967D01*
X135933Y-192133D01*
Y-192467D01*
X135600Y-192633D01*
G01Y-188134D02*
X135267Y-187967D01*
Y-187633D01*
X135600Y-187467D01*
X135933Y-187633D01*
Y-187967D01*
X135600Y-188134D01*
G01X26567Y-162534D02*
X25567Y-162033D01*
X24400Y-161700D01*
X23067D01*
X21566Y-162200D01*
X20400Y-163033D01*
X19567Y-164033D01*
X18900Y-165700D01*
X18733Y-167200D01*
X19067Y-168700D01*
X19567Y-169700D01*
X20567Y-170700D01*
X21733Y-171367D01*
X22900Y-171700D01*
X24067D01*
X25233Y-171367D01*
X26233Y-170867D01*
X27067Y-170200D01*
G01X30233Y-171700D02*
X34400Y-161700D01*
X38567Y-171700D01*
G01X37067Y-168200D02*
X31733D01*
G01X42567Y-171700D02*
Y-161700D01*
X46733D01*
X48067Y-162200D01*
X48900Y-162867D01*
X49233Y-164200D01*
X48900Y-165533D01*
X47900Y-166367D01*
X46733Y-166867D01*
X42567D01*
G01X46733D02*
X49233Y-171700D01*
G01X53733D02*
Y-161700D01*
X57067D01*
X58400Y-162200D01*
X59400Y-162867D01*
X60234Y-163866D01*
X60900Y-165034D01*
X61067Y-166700D01*
X60900Y-168367D01*
X60234Y-169534D01*
X59400Y-170534D01*
X58400Y-171200D01*
X57067Y-171700D01*
X53733D01*
G01X77067D02*
Y-161700D01*
X81233D01*
X82567Y-162200D01*
X83400Y-162867D01*
X83733Y-164200D01*
X83400Y-165533D01*
X82400Y-166367D01*
X81233Y-166867D01*
X77067D01*
G01X81233D02*
X83733Y-171700D01*
G01X95233D02*
X88567D01*
Y-161700D01*
X95233D01*
G01X92567Y-166533D02*
X88567D01*
G01X100233Y-171700D02*
Y-161700D01*
X106567D01*
G01X104233Y-166533D02*
X100233D01*
G01X114900Y-172033D02*
X114567Y-171867D01*
Y-171533D01*
X114900Y-171367D01*
X115233Y-171533D01*
Y-171867D01*
X114900Y-172033D01*
G01Y-167534D02*
X114567Y-167367D01*
Y-167033D01*
X114900Y-166867D01*
X115233Y-167033D01*
Y-167367D01*
X114900Y-167534D01*
G01X126400Y-171700D02*
X125066Y-171533D01*
X123900Y-170867D01*
X122900Y-169867D01*
X122233Y-168700D01*
X121900Y-167367D01*
Y-166033D01*
X122233Y-164700D01*
X122900Y-163533D01*
X123900Y-162534D01*
X125066Y-161867D01*
X126400Y-161700D01*
X127733Y-161867D01*
X128900Y-162534D01*
X129900Y-163533D01*
X130567Y-164700D01*
X130900Y-166033D01*
Y-167367D01*
X130567Y-168700D01*
X129900Y-169867D01*
X128900Y-170867D01*
X127733Y-171533D01*
X126400Y-171700D01*
G01X134900Y-175033D02*
Y-165034D01*
G01Y-166533D02*
X135733Y-165700D01*
X136566Y-165200D01*
X137900Y-165034D01*
X139067Y-165200D01*
X140233Y-166033D01*
X140734Y-167200D01*
X140900Y-168367D01*
X140734Y-169534D01*
X140233Y-170700D01*
X139233Y-171367D01*
X137900Y-171700D01*
X136733Y-171533D01*
X135567Y-171034D01*
X134900Y-170367D01*
G01X146900Y-167200D02*
X152234D01*
X151733Y-166033D01*
X150900Y-165367D01*
X149733Y-165034D01*
X148567Y-165200D01*
X147567Y-165700D01*
X146900Y-166867D01*
X146566Y-167867D01*
Y-168867D01*
X146900Y-169867D01*
X147733Y-170867D01*
X148733Y-171533D01*
X149900Y-171700D01*
X151067Y-171367D01*
X152234Y-170367D01*
G01X158066Y-171700D02*
Y-165034D01*
G01Y-166700D02*
X158733Y-165867D01*
X159733Y-165200D01*
X161067Y-165034D01*
X162233Y-165200D01*
X163233Y-165867D01*
X163734Y-167033D01*
Y-171700D01*
G01X176067Y-162534D02*
X175067Y-162033D01*
X173900Y-161700D01*
X172567D01*
X171066Y-162200D01*
X169900Y-163033D01*
X169067Y-164033D01*
X168400Y-165700D01*
X168233Y-167200D01*
X168567Y-168700D01*
X169067Y-169700D01*
X170067Y-170700D01*
X171233Y-171367D01*
X172400Y-171700D01*
X173567D01*
X174733Y-171367D01*
X175733Y-170867D01*
X176567Y-170200D01*
G01X181400Y-167200D02*
X186734D01*
X186233Y-166033D01*
X185400Y-165367D01*
X184233Y-165034D01*
X183067Y-165200D01*
X182067Y-165700D01*
X181400Y-166867D01*
X181066Y-167867D01*
Y-168867D01*
X181400Y-169867D01*
X182233Y-170867D01*
X183233Y-171533D01*
X184400Y-171700D01*
X185567Y-171367D01*
X186734Y-170367D01*
G01X195400Y-171700D02*
Y-161700D01*
G01X206900Y-171700D02*
Y-161700D01*
G01X215566Y-165034D02*
Y-169700D01*
X216233Y-170867D01*
X217233Y-171533D01*
X218400Y-171700D01*
X219567Y-171533D01*
X220567Y-170867D01*
X221234Y-169700D01*
G01Y-171700D02*
Y-165034D01*
G01X229900Y-171700D02*
Y-161700D01*
G01X244400Y-171700D02*
Y-165034D01*
G01Y-166200D02*
X243733Y-165533D01*
X242733Y-165200D01*
X241567Y-165034D01*
X240400Y-165367D01*
X239400Y-166033D01*
X238733Y-167033D01*
X238400Y-168367D01*
X238733Y-169700D01*
X239400Y-170700D01*
X240400Y-171367D01*
X241567Y-171700D01*
X242733Y-171533D01*
X243733Y-171034D01*
X244400Y-170367D01*
G01X250567Y-171700D02*
Y-165034D01*
G01Y-166367D02*
X251400Y-165700D01*
X252233Y-165200D01*
X253400Y-165034D01*
X254233Y-165200D01*
X255233Y-165700D01*
G01X275900Y-171700D02*
Y-161700D01*
G01X291067Y-162534D02*
X290067Y-162033D01*
X288900Y-161700D01*
X287567D01*
X286066Y-162200D01*
X284900Y-163033D01*
X284067Y-164033D01*
X283400Y-165700D01*
X283233Y-167200D01*
X283567Y-168700D01*
X284067Y-169700D01*
X285067Y-170700D01*
X286233Y-171367D01*
X287400Y-171700D01*
X288567D01*
X289733Y-171367D01*
X290733Y-170867D01*
X291567Y-170200D01*
G01X298900Y-171700D02*
X297900Y-171533D01*
X296900Y-170867D01*
X296233Y-169700D01*
X295900Y-168367D01*
X296233Y-167033D01*
X296900Y-165867D01*
X297900Y-165200D01*
X298900Y-165034D01*
X299900Y-165200D01*
X300900Y-165867D01*
X301567Y-167033D01*
X301734Y-168367D01*
X301567Y-169700D01*
X300900Y-170867D01*
X299900Y-171533D01*
X298900Y-171700D01*
G01X307566D02*
Y-165034D01*
G01Y-166700D02*
X308233Y-165867D01*
X309233Y-165200D01*
X310567Y-165034D01*
X311733Y-165200D01*
X312733Y-165867D01*
X313234Y-167033D01*
Y-171700D01*
G01X319066D02*
Y-165034D01*
G01Y-166700D02*
X319733Y-165867D01*
X320733Y-165200D01*
X322067Y-165034D01*
X323233Y-165200D01*
X324233Y-165867D01*
X324734Y-167033D01*
Y-171700D01*
G01X330900Y-167200D02*
X336234D01*
X335733Y-166033D01*
X334900Y-165367D01*
X333733Y-165034D01*
X332567Y-165200D01*
X331567Y-165700D01*
X330900Y-166867D01*
X330566Y-167867D01*
Y-168867D01*
X330900Y-169867D01*
X331733Y-170867D01*
X332733Y-171533D01*
X333900Y-171700D01*
X335067Y-171367D01*
X336234Y-170367D01*
G01X347567Y-165867D02*
X346400Y-165200D01*
X345400Y-165034D01*
X344067Y-165367D01*
X343067Y-166033D01*
X342400Y-167200D01*
X342233Y-168367D01*
X342400Y-169534D01*
X343067Y-170534D01*
X344067Y-171367D01*
X345400Y-171700D01*
X346567Y-171367D01*
X347567Y-170700D01*
G01X356400Y-161700D02*
Y-171700D01*
G01X354067Y-165034D02*
X358733D01*
G01X365733Y-168367D02*
X370067D01*
G01X379400Y-171700D02*
Y-161700D01*
X377400Y-163700D01*
G01Y-171700D02*
X381400D01*
G01X402400D02*
Y-161700D01*
G01X410733Y-171700D02*
Y-161700D01*
X417067D01*
G01X414733Y-166533D02*
X410733D01*
G01X422067Y-171700D02*
Y-161700D01*
X426233D01*
X427567Y-162200D01*
X428400Y-162867D01*
X428733Y-164200D01*
X428400Y-165533D01*
X427400Y-166367D01*
X426233Y-166867D01*
X422067D01*
G01X426233D02*
X428733Y-171700D01*
G01X436900D02*
X435566Y-171533D01*
X434400Y-170867D01*
X433400Y-169867D01*
X432733Y-168700D01*
X432400Y-167367D01*
Y-166033D01*
X432733Y-164700D01*
X433400Y-163533D01*
X434400Y-162534D01*
X435566Y-161867D01*
X436900Y-161700D01*
X438233Y-161867D01*
X439400Y-162534D01*
X440400Y-163533D01*
X441067Y-164700D01*
X441400Y-166033D01*
Y-167367D01*
X441067Y-168700D01*
X440400Y-169867D01*
X439400Y-170867D01*
X438233Y-171533D01*
X436900Y-171700D01*
G01X444567D02*
Y-161700D01*
X452233Y-171700D01*
Y-161700D01*
G01X459900D02*
Y-171700D01*
G01X456067Y-161700D02*
X463733D01*
G01X474733Y-171700D02*
X468067D01*
Y-161700D01*
X474733D01*
G01X472067Y-166533D02*
X468067D01*
G01X479067Y-171700D02*
Y-161700D01*
X486733Y-171700D01*
Y-161700D01*
G01X490733Y-171700D02*
Y-161700D01*
X494067D01*
X495400Y-162200D01*
X496400Y-162867D01*
X497234Y-163866D01*
X497900Y-165034D01*
X498067Y-166700D01*
X497900Y-168367D01*
X497234Y-169534D01*
X496400Y-170534D01*
X495400Y-171200D01*
X494067Y-171700D01*
X490733D01*
G01X518733Y-166367D02*
X519400Y-165867D01*
X519900Y-165034D01*
X520234Y-163866D01*
X519900Y-162867D01*
X519233Y-162200D01*
X518067Y-161700D01*
X513567D01*
Y-171700D01*
X519067D01*
X520234Y-171034D01*
X520900Y-170033D01*
X521233Y-168867D01*
X520900Y-167700D01*
X519900Y-166700D01*
X518733Y-166367D01*
X513567D01*
G01X528900Y-171700D02*
X527900Y-171533D01*
X526900Y-170867D01*
X526233Y-169700D01*
X525900Y-168367D01*
X526233Y-167033D01*
X526900Y-165867D01*
X527900Y-165200D01*
X528900Y-165034D01*
X529900Y-165200D01*
X530900Y-165867D01*
X531567Y-167033D01*
X531734Y-168367D01*
X531567Y-169700D01*
X530900Y-170867D01*
X529900Y-171533D01*
X528900Y-171700D01*
G01X543400D02*
Y-165034D01*
G01Y-166200D02*
X542733Y-165533D01*
X541733Y-165200D01*
X540567Y-165034D01*
X539400Y-165367D01*
X538400Y-166033D01*
X537733Y-167033D01*
X537400Y-168367D01*
X537733Y-169700D01*
X538400Y-170700D01*
X539400Y-171367D01*
X540567Y-171700D01*
X541733Y-171533D01*
X542733Y-171034D01*
X543400Y-170367D01*
G01X549567Y-171700D02*
Y-165034D01*
G01Y-166367D02*
X550400Y-165700D01*
X551233Y-165200D01*
X552400Y-165034D01*
X553233Y-165200D01*
X554233Y-165700D01*
G01X566400Y-161700D02*
Y-171700D01*
G01Y-170200D02*
X565733Y-171034D01*
X564733Y-171533D01*
X563567Y-171700D01*
X562233Y-171367D01*
X561233Y-170534D01*
X560566Y-169534D01*
X560400Y-168367D01*
X560566Y-167200D01*
X561233Y-166200D01*
X562233Y-165367D01*
X563567Y-165034D01*
X564733Y-165200D01*
X565567Y-165533D01*
X566400Y-166200D01*
G01X446000Y-50000D02*
X450000Y-46000D01*
Y-4000D01*
X454000Y0D01*
X696000D01*
X700000Y4000D01*
Y566000D01*
X696000Y570000D01*
X439000D01*
X435000Y566000D01*
Y544000D01*
X431000Y540000D01*
X269000D01*
X265000Y544000D01*
Y566000D01*
X261000Y570000D01*
X4000D01*
X0Y566000D01*
Y4000D01*
X4000Y0D01*
X246000D01*
X250000Y-4000D01*
Y-46000D01*
X254000Y-50000D01*
X446000D01*
G01X148800Y-190367D02*
X150133Y-191200D01*
X151633Y-191700D01*
X152967D01*
X154300Y-191200D01*
X155300Y-190367D01*
X155800Y-189200D01*
X155467Y-188034D01*
X154633Y-187033D01*
X153133Y-186367D01*
X151133Y-186033D01*
X149967Y-185367D01*
X149466Y-184200D01*
X149800Y-183033D01*
X150633Y-182200D01*
X151800Y-181700D01*
X152967D01*
X154133Y-182033D01*
X155134Y-182867D01*
G01X163800Y-191700D02*
X162466Y-191533D01*
X161300Y-190867D01*
X160300Y-189867D01*
X159633Y-188700D01*
X159300Y-187367D01*
Y-186033D01*
X159633Y-184700D01*
X160300Y-183533D01*
X161300Y-182534D01*
X162466Y-181867D01*
X163800Y-181700D01*
X165133Y-181867D01*
X166300Y-182534D01*
X167300Y-183533D01*
X167967Y-184700D01*
X168300Y-186033D01*
Y-187367D01*
X167967Y-188700D01*
X167300Y-189867D01*
X166300Y-190867D01*
X165133Y-191533D01*
X163800Y-191700D01*
G01X171967Y-181700D02*
Y-191700D01*
X178633D01*
G01X183133D02*
Y-181700D01*
X186467D01*
X187800Y-182200D01*
X188800Y-182867D01*
X189634Y-183866D01*
X190300Y-185034D01*
X190467Y-186700D01*
X190300Y-188367D01*
X189634Y-189534D01*
X188800Y-190534D01*
X187800Y-191200D01*
X186467Y-191700D01*
X183133D01*
G01X201633D02*
X194967D01*
Y-181700D01*
X201633D01*
G01X198967Y-186533D02*
X194967D01*
G01X206467Y-191700D02*
Y-181700D01*
X210633D01*
X211967Y-182200D01*
X212800Y-182867D01*
X213133Y-184200D01*
X212800Y-185533D01*
X211800Y-186367D01*
X210633Y-186867D01*
X206467D01*
G01X210633D02*
X213133Y-191700D01*
G01X229467D02*
Y-181700D01*
X233467D01*
X234800Y-182200D01*
X235800Y-183367D01*
X236133Y-184700D01*
X235800Y-186033D01*
X234967Y-187033D01*
X233467Y-187534D01*
X229467D01*
G01X240133Y-191700D02*
X244300Y-181700D01*
X248467Y-191700D01*
G01X246967Y-188200D02*
X241633D01*
G01X252300Y-190367D02*
X253633Y-191200D01*
X255133Y-191700D01*
X256467D01*
X257800Y-191200D01*
X258800Y-190367D01*
X259300Y-189200D01*
X258967Y-188034D01*
X258133Y-187033D01*
X256633Y-186367D01*
X254633Y-186033D01*
X253467Y-185367D01*
X252966Y-184200D01*
X253300Y-183033D01*
X254133Y-182200D01*
X255300Y-181700D01*
X256467D01*
X257633Y-182033D01*
X258634Y-182867D01*
G01X267300Y-181700D02*
Y-191700D01*
G01X263467Y-181700D02*
X271133D01*
G01X282133Y-191700D02*
X275467D01*
Y-181700D01*
X282133D01*
G01X279467Y-186533D02*
X275467D01*
G01X303133Y-186367D02*
X303800Y-185867D01*
X304300Y-185034D01*
X304634Y-183866D01*
X304300Y-182867D01*
X303633Y-182200D01*
X302467Y-181700D01*
X297967D01*
Y-191700D01*
X303467D01*
X304634Y-191034D01*
X305300Y-190033D01*
X305633Y-188867D01*
X305300Y-187700D01*
X304300Y-186700D01*
X303133Y-186367D01*
X297967D01*
G01X313300Y-191700D02*
X311966Y-191533D01*
X310800Y-190867D01*
X309800Y-189867D01*
X309133Y-188700D01*
X308800Y-187367D01*
Y-186033D01*
X309133Y-184700D01*
X309800Y-183533D01*
X310800Y-182534D01*
X311966Y-181867D01*
X313300Y-181700D01*
X314633Y-181867D01*
X315800Y-182534D01*
X316800Y-183533D01*
X317467Y-184700D01*
X317800Y-186033D01*
Y-187367D01*
X317467Y-188700D01*
X316800Y-189867D01*
X315800Y-190867D01*
X314633Y-191533D01*
X313300Y-191700D01*
G01X324800Y-181700D02*
Y-191700D01*
G01X320967Y-181700D02*
X328633D01*
G01X336300D02*
Y-191700D01*
G01X332467Y-181700D02*
X340133D01*
G01X347800Y-191700D02*
X346466Y-191533D01*
X345300Y-190867D01*
X344300Y-189867D01*
X343633Y-188700D01*
X343300Y-187367D01*
Y-186033D01*
X343633Y-184700D01*
X344300Y-183533D01*
X345300Y-182534D01*
X346466Y-181867D01*
X347800Y-181700D01*
X349133Y-181867D01*
X350300Y-182534D01*
X351300Y-183533D01*
X351967Y-184700D01*
X352300Y-186033D01*
Y-187367D01*
X351967Y-188700D01*
X351300Y-189867D01*
X350300Y-190867D01*
X349133Y-191533D01*
X347800Y-191700D01*
G01X354966D02*
Y-181700D01*
X359300Y-190033D01*
X363634Y-181700D01*
Y-191700D01*
G01X273767Y-132500D02*
Y-122500D01*
X277767D01*
X279100Y-123000D01*
X280100Y-124167D01*
X280433Y-125500D01*
X280100Y-126833D01*
X279267Y-127833D01*
X277767Y-128334D01*
X273767D01*
G01X284433Y-132500D02*
X288600Y-122500D01*
X292767Y-132500D01*
G01X291267Y-129000D02*
X285933D01*
G01X296767Y-132500D02*
Y-122500D01*
X300933D01*
X302267Y-123000D01*
X303100Y-123667D01*
X303433Y-125000D01*
X303100Y-126333D01*
X302100Y-127167D01*
X300933Y-127667D01*
X296767D01*
G01X300933D02*
X303433Y-132500D01*
G01X311600Y-122500D02*
Y-132500D01*
G01X307767Y-122500D02*
X315433D01*
G01X330767Y-132500D02*
Y-122500D01*
X338433Y-132500D01*
Y-122500D01*
G01X342433D02*
Y-129667D01*
X343100Y-131167D01*
X344433Y-132167D01*
X346100Y-132500D01*
X347767Y-132167D01*
X349100Y-131167D01*
X349767Y-129667D01*
Y-122500D01*
G01X353266Y-132500D02*
Y-122500D01*
X357600Y-130833D01*
X361934Y-122500D01*
Y-132500D01*
G01X370433Y-127167D02*
X371100Y-126667D01*
X371600Y-125834D01*
X371934Y-124666D01*
X371600Y-123667D01*
X370933Y-123000D01*
X369767Y-122500D01*
X365267D01*
Y-132500D01*
X370767D01*
X371934Y-131834D01*
X372600Y-130833D01*
X372933Y-129667D01*
X372600Y-128500D01*
X371600Y-127500D01*
X370433Y-127167D01*
X365267D01*
G01X383933Y-132500D02*
X377267D01*
Y-122500D01*
X383933D01*
G01X381267Y-127333D02*
X377267D01*
G01X388767Y-132500D02*
Y-122500D01*
X392933D01*
X394267Y-123000D01*
X395100Y-123667D01*
X395433Y-125000D01*
X395100Y-126333D01*
X394100Y-127167D01*
X392933Y-127667D01*
X388767D01*
G01X392933D02*
X395433Y-132500D01*
G01X403600Y-132833D02*
X403267Y-132667D01*
Y-132333D01*
X403600Y-132167D01*
X403933Y-132333D01*
Y-132667D01*
X403600Y-132833D01*
G01Y-128334D02*
X403267Y-128167D01*
Y-127833D01*
X403600Y-127667D01*
X403933Y-127833D01*
Y-128167D01*
X403600Y-128334D01*
G01X411933Y-124167D02*
X412933Y-123167D01*
X414100Y-122667D01*
X415433Y-122500D01*
X417100Y-122833D01*
X418267Y-123667D01*
X418600Y-124666D01*
X418433Y-125667D01*
X417767Y-126500D01*
X414433Y-128167D01*
X412933Y-129333D01*
X411933Y-131000D01*
X411600Y-132500D01*
X418600D01*
G01X422933Y-130500D02*
X423933Y-131667D01*
X425267Y-132333D01*
X426767Y-132500D01*
X428100Y-132333D01*
X429434Y-131500D01*
X430267Y-130500D01*
X430433Y-129500D01*
X430100Y-128334D01*
X428933Y-127500D01*
X427767Y-127167D01*
X426267D01*
G01X427767D02*
X428767Y-126667D01*
X429600Y-125834D01*
X429933Y-124833D01*
X429600Y-123833D01*
X428767Y-123000D01*
X427267Y-122500D01*
X425767Y-122667D01*
X424267Y-123334D01*
G01X438100Y-132500D02*
Y-122500D01*
X436100Y-124500D01*
G01Y-132500D02*
X440100D01*
G01X447433Y-129167D02*
X451767D01*
G01X461100Y-122500D02*
X459766Y-122833D01*
X458767Y-123667D01*
X458100Y-124666D01*
X457600Y-126000D01*
X457433Y-127500D01*
X457600Y-129000D01*
X458100Y-130334D01*
X458767Y-131334D01*
X459766Y-132167D01*
X461100Y-132500D01*
X462433Y-132167D01*
X463433Y-131334D01*
X464100Y-130334D01*
X464600Y-129000D01*
X464767Y-127500D01*
X464600Y-126000D01*
X464100Y-124666D01*
X463433Y-123667D01*
X462433Y-122833D01*
X461100Y-122500D01*
G01X472600D02*
X471267Y-122833D01*
X470267Y-123667D01*
X469600Y-124666D01*
X469100Y-126000D01*
X468933Y-127500D01*
X469100Y-129000D01*
X469600Y-130334D01*
X470267Y-131334D01*
X471267Y-132167D01*
X472600Y-132500D01*
X473933Y-132167D01*
X474933Y-131334D01*
X475600Y-130334D01*
X476100Y-129000D01*
X476267Y-127500D01*
X476100Y-126000D01*
X475600Y-124666D01*
X474933Y-123667D01*
X473933Y-122833D01*
X472600Y-122500D01*
G01X484100D02*
X482766Y-122833D01*
X481767Y-123667D01*
X481100Y-124666D01*
X480600Y-126000D01*
X480433Y-127500D01*
X480600Y-129000D01*
X481100Y-130334D01*
X481767Y-131334D01*
X482766Y-132167D01*
X484100Y-132500D01*
X485433Y-132167D01*
X486433Y-131334D01*
X487100Y-130334D01*
X487600Y-129000D01*
X487767Y-127500D01*
X487600Y-126000D01*
X487100Y-124666D01*
X486433Y-123667D01*
X485433Y-122833D01*
X484100Y-122500D01*
G01X495600D02*
X494266Y-122833D01*
X493267Y-123667D01*
X492600Y-124666D01*
X492100Y-126000D01*
X491933Y-127500D01*
X492100Y-129000D01*
X492600Y-130334D01*
X493267Y-131334D01*
X494266Y-132167D01*
X495600Y-132500D01*
X496933Y-132167D01*
X497933Y-131334D01*
X498600Y-130334D01*
X499100Y-129000D01*
X499267Y-127500D01*
X499100Y-126000D01*
X498600Y-124666D01*
X497933Y-123667D01*
X496933Y-122833D01*
X495600Y-122500D01*
G01X507100Y-132500D02*
X508267Y-132333D01*
X509600Y-131834D01*
X510433Y-131000D01*
X510767Y-129833D01*
X510433Y-128667D01*
X509433Y-127667D01*
X507933Y-127167D01*
X506267D01*
X505267Y-126833D01*
X504433Y-126000D01*
X504100Y-124833D01*
X504600Y-123667D01*
X505766Y-122833D01*
X507100Y-122500D01*
X508433Y-122833D01*
X509600Y-123667D01*
X510100Y-124833D01*
X509767Y-126000D01*
X508933Y-126833D01*
X507933Y-127167D01*
X506267D01*
X504767Y-127667D01*
X503767Y-128667D01*
X503433Y-129833D01*
X503767Y-131000D01*
X504600Y-131834D01*
X505933Y-132333D01*
X507100Y-132500D01*
G01X514933Y-131000D02*
X515933Y-131834D01*
X517100Y-132333D01*
X518600Y-132500D01*
X520100Y-132167D01*
X521267Y-131500D01*
X522100Y-130334D01*
X522267Y-129000D01*
X521933Y-127667D01*
X521100Y-126833D01*
X519933Y-126167D01*
X518767Y-126000D01*
X517600Y-126167D01*
X516100Y-126833D01*
X516600Y-122500D01*
X521100D01*
G01X645867Y-163300D02*
Y-173300D01*
X652533D01*
G01X660700Y-166634D02*
Y-173300D01*
G01Y-163967D02*
X660367Y-163800D01*
Y-163467D01*
X660700Y-163300D01*
X661033Y-163467D01*
Y-163800D01*
X660700Y-163967D01*
G01X671200Y-173300D02*
Y-164800D01*
X671533Y-163967D01*
X672200Y-163467D01*
X673200Y-163300D01*
X674200Y-163633D01*
X674700Y-164467D01*
G01X672700Y-167300D02*
X669366D01*
G01X681200Y-168800D02*
X686534D01*
X686033Y-167633D01*
X685200Y-166967D01*
X684033Y-166634D01*
X682867Y-166800D01*
X681867Y-167300D01*
X681200Y-168467D01*
X680866Y-169467D01*
Y-170467D01*
X681200Y-171467D01*
X682033Y-172467D01*
X683033Y-173133D01*
X684200Y-173300D01*
X685367Y-172967D01*
X686534Y-171967D01*
G01X693033Y-169967D02*
X697367D01*
G01X703033Y-171300D02*
X704033Y-172467D01*
X705366Y-173133D01*
X706867Y-173300D01*
X708200Y-173133D01*
X709534Y-172300D01*
X710367Y-171300D01*
X710533Y-170300D01*
X710200Y-169134D01*
X709033Y-168300D01*
X707867Y-167967D01*
X706367D01*
G01X707867D02*
X708867Y-167467D01*
X709700Y-166634D01*
X710033Y-165633D01*
X709700Y-164633D01*
X708867Y-163800D01*
X707367Y-163300D01*
X705867Y-163467D01*
X704367Y-164134D01*
G54D79*
X378008Y447381D03*
Y430059D03*
X379976Y447381D03*
Y430059D03*
X381945Y447381D03*
Y430059D03*
X383913Y447381D03*
Y430059D03*
X385882Y447381D03*
Y430059D03*
M02*
