G04 ================== begin FILE IDENTIFICATION RECORD ==================*
G04 Layout Name:  OpenCellular_Connect-1_GBC_Life-3_Board_v1.1.brd*
G04 Film Name:    PMB*
G04 File Format:  Gerber RS274X*
G04 File Origin:  Cadence Allegro 16.6-2015-S065*
G04 Origin Date:  Fri Jan 20 16:40:46 2017*
G04 *
G04 Layer:  DRAWING FORMAT/SPSE*
G04 Layer:  DRAWING FORMAT/FILM_LABEL_OUTLINE*
G04 Layer:  PIN/PASTEMASK_BOTTOM*
G04 Layer:  PACKAGE GEOMETRY/PASTEMASK_BOTTOM*
G04 Layer:  BOARD GEOMETRY/TOOLING_CORNERS*
G04 *
G04 Offset:    (0.000 0.000)*
G04 Mirror:    No*
G04 Mode:      Positive*
G04 Rotation:  0*
G04 FullContactRelief:  No*
G04 UndefLineWidth:     6.000*
G04 ================== end FILE IDENTIFICATION RECORD ====================*
%FSLAX25Y25*MOIN*%
%IR0*IPPOS*OFA0.00000B0.00000*MIA0B0*SFA1.00000B1.00000*%
%ADD85R,.015748X.018898*%
%ADD75R,.018898X.015748*%
%ADD19R,.11X.055*%
%ADD94R,.09X.102*%
%ADD22R,.055X.11*%
%AMMACRO105*
4,1,22,-.004528,.015748,
.004528,.015748,
.004528,-.01122,
.004459,-.012006,
.004255,-.012769,
.003922,-.013484,
.003469,-.014131,
.002911,-.014689,
.002264,-.015142,
.001549,-.015475,
.000787,-.01568,
0.0,-.015748,
-.000786,-.01568,
-.001548,-.015476,
-.002264,-.015142,
-.00291,-.014689,
-.003468,-.014131,
-.003921,-.013485,
-.004255,-.01277,
-.004459,-.012007,
-.004528,-.011221,
-.004528,-.01122,
-.004528,.015748,
0.0*
%
%ADD105MACRO105*%
%AMMACRO102*
4,1,22,-.015748,-.004528,
-.015748,.004528,
.01122,.004528,
.012006,.004459,
.012769,.004255,
.013484,.003922,
.014131,.003469,
.014689,.002911,
.015142,.002264,
.015475,.001549,
.01568,.000787,
.015748,0.0,
.01568,-.000786,
.015476,-.001548,
.015142,-.002264,
.014689,-.00291,
.014131,-.003468,
.013485,-.003921,
.01277,-.004255,
.012007,-.004459,
.011221,-.004528,
.01122,-.004528,
-.015748,-.004528,
0.0*
%
%ADD102MACRO102*%
%ADD63R,.15X.065*%
%AMMACRO106*
4,1,22,.004528,.015748,
-.004528,.015748,
-.004528,-.01122,
-.004459,-.012006,
-.004255,-.012769,
-.003922,-.013484,
-.003469,-.014131,
-.002911,-.014689,
-.002264,-.015142,
-.001549,-.015475,
-.000787,-.01568,
0.0,-.015748,
.000786,-.01568,
.001548,-.015476,
.002264,-.015142,
.00291,-.014689,
.003468,-.014131,
.003921,-.013485,
.004255,-.01277,
.004459,-.012007,
.004528,-.011221,
.004528,-.01122,
.004528,.015748,
0.0*
%
%ADD106MACRO106*%
%AMMACRO108*
4,1,22,.015748,-.004528,
.015748,.004528,
-.01122,.004528,
-.012006,.004459,
-.012769,.004255,
-.013484,.003922,
-.014131,.003469,
-.014689,.002911,
-.015142,.002264,
-.015475,.001549,
-.01568,.000787,
-.015748,0.0,
-.01568,-.000786,
-.015476,-.001548,
-.015142,-.002264,
-.014689,-.00291,
-.014131,-.003468,
-.013485,-.003921,
-.01277,-.004255,
-.012007,-.004459,
-.011221,-.004528,
-.01122,-.004528,
.015748,-.004528,
0.0*
%
%ADD108MACRO108*%
%ADD86R,.138X.059*%
%ADD55R,.126X.098*%
%ADD111R,.181102X.05315*%
%ADD65R,.059X.138*%
%ADD15R,.016929X.1*%
%ADD38R,.220472X.090551*%
%ADD90R,.11811X.062992*%
%ADD77R,.125197X.040157*%
%ADD66R,.107992X.085*%
%ADD40R,.040157X.125197*%
%ADD78R,.216535X.03937*%
%ADD76R,.190157X.044882*%
%ADD39R,.044882X.190157*%
%ADD47R,.094488X.114173*%
%ADD117R,.07874X.15748*%
%ADD53R,.12X.1*%
%ADD16R,.016929X.185039*%
%ADD89R,.008661X.019685*%
%ADD99R,.019685X.008661*%
%ADD71R,.009843X.027559*%
%ADD72R,.027559X.009843*%
%ADD37R,.094488X.129921*%
%ADD27R,.04X.03*%
%ADD61R,.05X.03*%
%ADD26R,.03X.04*%
%ADD57R,.03X.05*%
%ADD46R,.06X.05*%
%ADD33R,.027X.011*%
%ADD64R,.05X.024*%
%ADD56R,.011X.027*%
%ADD31R,.05X.06*%
%ADD29R,.07X.06*%
%AMMACRO103*
4,1,22,.015748,.004528,
.015748,-.004528,
-.01122,-.004528,
-.012006,-.004459,
-.012769,-.004255,
-.013484,-.003922,
-.014131,-.003469,
-.014689,-.002911,
-.015142,-.002264,
-.015475,-.001549,
-.01568,-.000787,
-.015748,0.0,
-.01568,.000786,
-.015476,.001548,
-.015142,.002264,
-.014689,.00291,
-.014131,.003468,
-.013485,.003921,
-.01277,.004255,
-.012007,.004459,
-.011221,.004528,
-.01122,.004528,
.015748,.004528,
0.0*
%
%ADD103MACRO103*%
%ADD95R,.105X.138*%
%ADD67R,.05X.017*%
%ADD25R,.06X.07*%
%AMMACRO107*
4,1,22,-.004528,-.015748,
.004528,-.015748,
.004528,.01122,
.004459,.012006,
.004255,.012769,
.003922,.013484,
.003469,.014131,
.002911,.014689,
.002264,.015142,
.001549,.015475,
.000787,.01568,
0.0,.015748,
-.000786,.01568,
-.001548,.015476,
-.002264,.015142,
-.00291,.014689,
-.003468,.014131,
-.003921,.013485,
-.004255,.01277,
-.004459,.012007,
-.004528,.011221,
-.004528,.01122,
-.004528,-.015748,
0.0*
%
%ADD107MACRO107*%
%AMMACRO104*
4,1,22,.004528,-.015748,
-.004528,-.015748,
-.004528,.01122,
-.004459,.012006,
-.004255,.012769,
-.003922,.013484,
-.003469,.014131,
-.002911,.014689,
-.002264,.015142,
-.001549,.015475,
-.000787,.01568,
0.0,.015748,
.000786,.01568,
.001548,.015476,
.002264,.015142,
.00291,.014689,
.003468,.014131,
.003921,.013485,
.004255,.01277,
.004459,.012007,
.004528,.011221,
.004528,.01122,
.004528,-.015748,
0.0*
%
%ADD104MACRO104*%
%AMMACRO97*
4,1,22,-.015748,.004528,
-.015748,-.004528,
.01122,-.004528,
.012006,-.004459,
.012769,-.004255,
.013484,-.003922,
.014131,-.003469,
.014689,-.002911,
.015142,-.002264,
.015475,-.001549,
.01568,-.000787,
.015748,0.0,
.01568,.000786,
.015476,.001548,
.015142,.002264,
.014689,.00291,
.014131,.003468,
.013485,.003921,
.01277,.004255,
.012007,.004459,
.011221,.004528,
.01122,.004528,
-.015748,.004528,
0.0*
%
%ADD97MACRO97*%
%ADD52R,.02X.087*%
%ADD21R,.043X.028*%
%ADD73R,.024016X.05*%
%ADD35R,.028X.043*%
%ADD28R,.138X.181*%
%ADD10C,.04*%
%ADD51R,.059X.051*%
%ADD48R,.09X.065*%
%ADD101R,.076X.08*%
%ADD49R,.091X.047*%
%ADD41R,.051X.059*%
%ADD30R,.065X.09*%
%ADD93R,.055X.039*%
%ADD54R,.079X.024*%
%ADD45R,.014X.079*%
%ADD32R,.047X.091*%
%ADD11R,.075X.055*%
%ADD44R,.055X.075*%
%ADD23R,.039X.055*%
%ADD13R,.02X.02*%
%ADD12R,.021X.021*%
%ADD116R,.061024X.011811*%
%ADD43R,.061811X.06122*%
%ADD82R,.011024X.033465*%
%ADD83R,.033465X.011024*%
%ADD74R,.024016X.040157*%
%ADD42R,.011024X.017717*%
%ADD119R,.023622X.043307*%
%ADD118R,.017717X.011024*%
%ADD112R,.055118X.011811*%
%ADD69R,.075X.029921*%
%ADD115R,.043307X.043307*%
%ADD58R,.023622X.031496*%
%ADD96R,.011811X.057087*%
%ADD60R,.057087X.011811*%
%ADD91R,.043307X.045276*%
%ADD88R,.019685X.011811*%
%ADD68R,.03937X.021654*%
%ADD20R,.035433X.031496*%
%ADD14R,.08937X.016142*%
%ADD98R,.011811X.019685*%
%ADD80R,.055118X.03937*%
%ADD100O,.03937X.031496*%
%ADD36R,.116142X.137795*%
%ADD17R,.015748X.021654*%
%ADD113R,.023622X.059843*%
%ADD92R,.047244X.031496*%
%ADD18R,.021654X.015748*%
%ADD114R,.059843X.023622*%
%ADD79R,.019685X.023622*%
%ADD70R,.064961X.064961*%
%ADD62R,.055118X.027559*%
%ADD110R,.027559X.047244*%
%ADD109R,.019685X.019685*%
%ADD24R,.047244X.027559*%
%ADD59R,.019685X.031496*%
%ADD50R,.027559X.015748*%
%ADD87R,.015748X.027559*%
%ADD81R,.019685X.015748*%
%ADD34R,.062992X.015748*%
%ADD84R,.015748X.019685*%
%ADD120C,.006*%
%ADD121C,.01*%
G75*
%LPD*%
G75*
G36*
G01X320654Y789074D02*
G03Y781298I4445J-3888D01*
G01X317449Y778092D01*
G02Y792280I7650J7094D01*
G01X320654Y789074D01*
G37*
G36*
G01X328988Y789631D02*
G03X321211I-3888J-4445D01*
G01X318006Y792836D01*
G02X332193I7094J-7650D01*
G01X328988Y789631D01*
G37*
G36*
G01X321211Y780741D02*
G03X328988I3888J4445D01*
G01X332193Y777536D01*
G02X318006I-7094J7650D01*
G01X321211Y780741D01*
G37*
G36*
G01X329544Y781298D02*
G03Y789074I-4445J3888D01*
G01X332750Y792280D01*
G02Y778092I-7650J-7094D01*
G01X329544Y781298D01*
G37*
G36*
G01X398181Y526000D02*
Y522063D01*
X402118D01*
Y526000D01*
X398181D01*
G37*
G36*
G01X403181D02*
Y522063D01*
X407118D01*
Y526000D01*
X403181D01*
G37*
G36*
G01Y521000D02*
Y517063D01*
X407118D01*
Y521000D01*
X403181D01*
G37*
G36*
G01X398181D02*
Y517063D01*
X402118D01*
Y521000D01*
X398181D01*
G37*
G36*
G01X405913Y941185D02*
Y945732D01*
X410657D01*
Y941185D01*
X405913D01*
G37*
G36*
G01X381984D02*
Y945732D01*
X386728D01*
Y941185D01*
X381984D01*
G37*
G36*
G01X542110Y826551D02*
Y806866D01*
G02X535236Y799992I-6874J0D01*
G02X528362Y806866I0J6874D01*
G01Y826551D01*
G02X535236Y833425I6874J0D01*
G02X542110Y826551I0J-6874D01*
G37*
G36*
G01X610709Y250898D02*
X601024D01*
Y242748D01*
X610709D01*
Y250898D01*
G37*
G36*
G01X599055D02*
X589370D01*
Y242748D01*
X599055D01*
Y250898D01*
G37*
G36*
G01X587402D02*
X577716D01*
Y242748D01*
X587402D01*
Y250898D01*
G37*
G36*
G01X610709Y309016D02*
X601024D01*
Y300866D01*
X610709D01*
Y309016D01*
G37*
G36*
G01Y298898D02*
X601024D01*
Y290748D01*
X610709D01*
Y298898D01*
G37*
G36*
G01X599055D02*
X589370D01*
Y290748D01*
X599055D01*
Y298898D01*
G37*
G36*
G01Y309016D02*
X589370D01*
Y300866D01*
X599055D01*
Y309016D01*
G37*
G36*
G01X587402Y298898D02*
X577716D01*
Y290748D01*
X587402D01*
Y298898D01*
G37*
G36*
G01Y309016D02*
X577716D01*
Y300866D01*
X587402D01*
Y309016D01*
G37*
G36*
G01X610709Y281252D02*
X601024D01*
Y273102D01*
X610709D01*
Y281252D01*
G37*
G36*
G01Y271134D02*
X601024D01*
Y262984D01*
X610709D01*
Y271134D01*
G37*
G36*
G01Y261016D02*
X601024D01*
Y252866D01*
X610709D01*
Y261016D01*
G37*
G36*
G01X599055D02*
X589370D01*
Y252866D01*
X599055D01*
Y261016D01*
G37*
G36*
G01Y271134D02*
X589370D01*
Y262984D01*
X599055D01*
Y271134D01*
G37*
G36*
G01Y281252D02*
X589370D01*
Y273102D01*
X599055D01*
Y281252D01*
G37*
G36*
G01X587402Y261016D02*
X577716D01*
Y252866D01*
X587402D01*
Y261016D01*
G37*
G36*
G01Y271134D02*
X577716D01*
Y262984D01*
X587402D01*
Y271134D01*
G37*
G36*
G01Y281252D02*
X577716D01*
Y273102D01*
X587402D01*
Y281252D01*
G37*
G36*
G01X610709Y329252D02*
X601024D01*
Y321102D01*
X610709D01*
Y329252D01*
G37*
G36*
G01Y319134D02*
X601024D01*
Y310984D01*
X610709D01*
Y319134D01*
G37*
G36*
G01X599055D02*
X589370D01*
Y310984D01*
X599055D01*
Y319134D01*
G37*
G36*
G01Y329252D02*
X589370D01*
Y321102D01*
X599055D01*
Y329252D01*
G37*
G36*
G01X587402Y319134D02*
X577716D01*
Y310984D01*
X587402D01*
Y319134D01*
G37*
G36*
G01Y329252D02*
X577716D01*
Y321102D01*
X587402D01*
Y329252D01*
G37*
G36*
G01X566703Y511409D02*
Y508181D01*
X562491D01*
Y511409D01*
X566703D01*
G37*
G36*
G01Y515819D02*
Y512591D01*
X562491D01*
Y515819D01*
X566703D01*
G37*
G36*
G01X561309D02*
Y512591D01*
X557097D01*
Y515819D01*
X561309D01*
G37*
G36*
G01Y511409D02*
Y508181D01*
X557097D01*
Y511409D01*
X561309D01*
G37*
G36*
G01X553409Y712591D02*
Y715819D01*
X548213D01*
Y712591D01*
X553409D01*
G37*
G36*
G01Y708181D02*
Y711409D01*
X548213D01*
Y708181D01*
X553409D01*
G37*
G36*
G01X559787D02*
Y711409D01*
X554591D01*
Y708181D01*
X559787D01*
G37*
G36*
G01Y712591D02*
Y715819D01*
X554591D01*
Y712591D01*
X559787D01*
G37*
G36*
G01X644472Y826551D02*
Y806866D01*
G02X637598Y799992I-6874J0D01*
G02X630724Y806866I0J6874D01*
G01Y826551D01*
G02X637598Y833425I6874J0D01*
G02X644472Y826551I0J-6874D01*
G37*
G36*
G01X375272Y947701D02*
Y952248D01*
X380016D01*
Y947701D01*
X375272D01*
G37*
G36*
G01Y941185D02*
Y945732D01*
X380016D01*
Y941185D01*
X375272D01*
G37*
G36*
G01X405913Y947701D02*
Y952248D01*
X410657D01*
Y947701D01*
X405913D01*
G37*
G36*
G01X399201D02*
Y952248D01*
X403945D01*
Y947701D01*
X399201D01*
G37*
G36*
G01Y941185D02*
Y945732D01*
X403945D01*
Y941185D01*
X399201D01*
G37*
G36*
G01X381984Y947701D02*
Y952248D01*
X386728D01*
Y947701D01*
X381984D01*
G37*
G54D100*
X547047Y788362D03*
Y793087D03*
Y797811D03*
Y802535D03*
Y807260D03*
Y811984D03*
Y816709D03*
Y821433D03*
Y826158D03*
Y830882D03*
Y835606D03*
Y840331D03*
Y845055D03*
X554921Y788362D03*
X562795D03*
X570669D03*
X578543D03*
X586417D03*
X594291D03*
X602165D03*
X554921Y793087D03*
X562795D03*
X570669D03*
X578543D03*
X586417D03*
X594291D03*
X602165D03*
X554921Y797811D03*
X562795D03*
X570669D03*
X578543D03*
X586417D03*
X594291D03*
X602165D03*
X554921Y802535D03*
X562795D03*
X570669D03*
X578543D03*
X586417D03*
X594291D03*
X602165D03*
X554921Y807260D03*
X562795D03*
X570669D03*
X578543D03*
X586417D03*
X594291D03*
X602165D03*
X554921Y811984D03*
X562795D03*
X570669D03*
X578543D03*
X586417D03*
X594291D03*
X602165D03*
X554921Y816709D03*
X562795D03*
X570669D03*
X578543D03*
X586417D03*
X594291D03*
X602165D03*
X554921Y821433D03*
X562795D03*
X570669D03*
X578543D03*
X586417D03*
X594291D03*
X602165D03*
X554921Y826158D03*
X562795D03*
X570669D03*
X578543D03*
X586417D03*
X594291D03*
X602165D03*
X554921Y830882D03*
X562795D03*
X570669D03*
X578543D03*
X586417D03*
X594291D03*
X602165D03*
X554921Y835606D03*
X562795D03*
X570669D03*
X578543D03*
X586417D03*
X594291D03*
X602165D03*
X554921Y840331D03*
X562795D03*
X570669D03*
X578543D03*
X586417D03*
X594291D03*
X602165D03*
X554921Y845055D03*
X562795D03*
X570669D03*
X578543D03*
X586417D03*
X594291D03*
X602165D03*
X610039Y788362D03*
X617913D03*
X625787D03*
X610039Y793087D03*
X617913D03*
X625787D03*
X610039Y797811D03*
X617913D03*
X625787D03*
X610039Y802535D03*
X617913D03*
X625787D03*
X610039Y807260D03*
X617913D03*
X625787D03*
X610039Y811984D03*
X617913D03*
X625787D03*
X610039Y816709D03*
X617913D03*
X625787D03*
X610039Y821433D03*
X617913D03*
X625787D03*
X610039Y826158D03*
X617913D03*
X625787D03*
X610039Y830882D03*
X617913D03*
X625787D03*
X610039Y835606D03*
X617913D03*
X625787D03*
X610039Y840331D03*
X617913D03*
X625787D03*
X610039Y845055D03*
X617913D03*
X625787D03*
G54D110*
X608000Y144216D03*
Y158784D03*
G54D101*
X529800Y914600D03*
Y929400D03*
X573000Y959600D03*
Y974400D03*
G54D120*
G01X42875Y-439300D02*
Y-429300D01*
X47625D01*
G01X45875Y-434133D02*
X42875D01*
G01X53750Y-429300D02*
X56750D01*
G01X55250D02*
Y-439300D01*
G01X53750D02*
X56750D01*
G01X62750Y-429300D02*
Y-439300D01*
X67750D01*
G01X72000D02*
Y-429300D01*
X75250Y-437633D01*
X78500Y-429300D01*
Y-439300D01*
G01X92750Y-429300D02*
Y-439300D01*
X97750D01*
G01X102125D02*
X105250Y-429300D01*
X108375Y-439300D01*
G01X107250Y-435800D02*
X103250D01*
G01X115250Y-439300D02*
Y-434800D01*
X112750Y-429300D01*
G01X117750D02*
X115250Y-434800D01*
G01X127750Y-439300D02*
X122750D01*
Y-429300D01*
X127750D01*
G01X125750Y-434133D02*
X122750D01*
G01X132750Y-439300D02*
Y-429300D01*
X135875D01*
X136875Y-429800D01*
X137500Y-430467D01*
X137750Y-431800D01*
X137500Y-433133D01*
X136750Y-433967D01*
X135875Y-434467D01*
X132750D01*
G01X135875D02*
X137750Y-439300D01*
G01X145250Y-439633D02*
X145000Y-439467D01*
Y-439133D01*
X145250Y-438967D01*
X145500Y-439133D01*
Y-439467D01*
X145250Y-439633D01*
G01Y-435134D02*
X145000Y-434967D01*
Y-434633D01*
X145250Y-434467D01*
X145500Y-434633D01*
Y-434967D01*
X145250Y-435134D01*
G01X48000Y-411634D02*
X47250Y-411133D01*
X46375Y-410800D01*
X45375D01*
X44250Y-411300D01*
X43375Y-412133D01*
X42750Y-413133D01*
X42250Y-414800D01*
X42125Y-416300D01*
X42375Y-417800D01*
X42750Y-418800D01*
X43500Y-419800D01*
X44375Y-420467D01*
X45250Y-420800D01*
X46125D01*
X47000Y-420467D01*
X47750Y-419967D01*
X48375Y-419300D01*
G01X52125Y-420800D02*
X55250Y-410800D01*
X58375Y-420800D01*
G01X57250Y-417300D02*
X53250D01*
G01X62750Y-420800D02*
Y-410800D01*
X65875D01*
X66875Y-411300D01*
X67500Y-411967D01*
X67750Y-413300D01*
X67500Y-414633D01*
X66750Y-415467D01*
X65875Y-415967D01*
X62750D01*
G01X65875D02*
X67750Y-420800D01*
G01X72500D02*
Y-410800D01*
X75000D01*
X76000Y-411300D01*
X76750Y-411967D01*
X77375Y-412966D01*
X77875Y-414134D01*
X78000Y-415800D01*
X77875Y-417467D01*
X77375Y-418633D01*
X76750Y-419634D01*
X76000Y-420300D01*
X75000Y-420800D01*
X72500D01*
G01X92750D02*
Y-410800D01*
X95875D01*
X96875Y-411300D01*
X97500Y-411967D01*
X97750Y-413300D01*
X97500Y-414633D01*
X96750Y-415467D01*
X95875Y-415967D01*
X92750D01*
G01X95875D02*
X97750Y-420800D01*
G01X107750D02*
X102750D01*
Y-410800D01*
X107750D01*
G01X105750Y-415633D02*
X102750D01*
G01X112875Y-420800D02*
Y-410800D01*
X117625D01*
G01X115875Y-415633D02*
X112875D01*
G01X125250Y-421133D02*
X125000Y-420967D01*
Y-420633D01*
X125250Y-420467D01*
X125500Y-420633D01*
Y-420967D01*
X125250Y-421133D01*
G01Y-416634D02*
X125000Y-416467D01*
Y-416133D01*
X125250Y-415967D01*
X125500Y-416133D01*
Y-416467D01*
X125250Y-416634D01*
G01X135250Y-420800D02*
X134250Y-420633D01*
X133375Y-419967D01*
X132625Y-418967D01*
X132125Y-417800D01*
X131875Y-416467D01*
Y-415133D01*
X132125Y-413800D01*
X132625Y-412633D01*
X133375Y-411634D01*
X134250Y-410967D01*
X135250Y-410800D01*
X136250Y-410967D01*
X137125Y-411634D01*
X137875Y-412633D01*
X138375Y-413800D01*
X138625Y-415133D01*
Y-416467D01*
X138375Y-417800D01*
X137875Y-418967D01*
X137125Y-419967D01*
X136250Y-420633D01*
X135250Y-420800D01*
G01X143000Y-424133D02*
Y-414134D01*
G01Y-415633D02*
X143625Y-414800D01*
X144250Y-414300D01*
X145250Y-414134D01*
X146125Y-414300D01*
X147000Y-415133D01*
X147375Y-416300D01*
X147500Y-417467D01*
X147375Y-418633D01*
X147000Y-419800D01*
X146250Y-420467D01*
X145250Y-420800D01*
X144375Y-420633D01*
X143500Y-420134D01*
X143000Y-419467D01*
G01X153375Y-416300D02*
X157375D01*
X157000Y-415133D01*
X156375Y-414467D01*
X155500Y-414134D01*
X154625Y-414300D01*
X153875Y-414800D01*
X153375Y-415967D01*
X153125Y-416967D01*
Y-417967D01*
X153375Y-418967D01*
X154000Y-419967D01*
X154750Y-420633D01*
X155625Y-420800D01*
X156500Y-420467D01*
X157375Y-419467D01*
G01X163125Y-420800D02*
Y-414134D01*
G01Y-415800D02*
X163625Y-414967D01*
X164375Y-414300D01*
X165375Y-414134D01*
X166250Y-414300D01*
X167000Y-414967D01*
X167375Y-416133D01*
Y-420800D01*
G01X178000Y-411634D02*
X177250Y-411133D01*
X176375Y-410800D01*
X175375D01*
X174250Y-411300D01*
X173375Y-412133D01*
X172750Y-413133D01*
X172250Y-414800D01*
X172125Y-416300D01*
X172375Y-417800D01*
X172750Y-418800D01*
X173500Y-419800D01*
X174375Y-420467D01*
X175250Y-420800D01*
X176125D01*
X177000Y-420467D01*
X177750Y-419967D01*
X178375Y-419300D01*
G01X183375Y-416300D02*
X187375D01*
X187000Y-415133D01*
X186375Y-414467D01*
X185500Y-414134D01*
X184625Y-414300D01*
X183875Y-414800D01*
X183375Y-415967D01*
X183125Y-416967D01*
Y-417967D01*
X183375Y-418967D01*
X184000Y-419967D01*
X184750Y-420633D01*
X185625Y-420800D01*
X186500Y-420467D01*
X187375Y-419467D01*
G01X195250Y-420800D02*
Y-410800D01*
G01X205250Y-420800D02*
Y-410800D01*
G01X213125Y-414134D02*
Y-418800D01*
X213625Y-419967D01*
X214375Y-420633D01*
X215250Y-420800D01*
X216125Y-420633D01*
X216875Y-419967D01*
X217375Y-418800D01*
G01Y-420800D02*
Y-414134D01*
G01X225250Y-420800D02*
Y-410800D01*
G01X237500Y-420800D02*
Y-414134D01*
G01Y-415300D02*
X237000Y-414633D01*
X236250Y-414300D01*
X235375Y-414134D01*
X234500Y-414467D01*
X233750Y-415133D01*
X233250Y-416133D01*
X233000Y-417467D01*
X233250Y-418800D01*
X233750Y-419800D01*
X234500Y-420467D01*
X235375Y-420800D01*
X236250Y-420633D01*
X237000Y-420134D01*
X237500Y-419467D01*
G01X243500Y-420800D02*
Y-414134D01*
G01Y-415467D02*
X244125Y-414800D01*
X244750Y-414300D01*
X245625Y-414134D01*
X246250Y-414300D01*
X247000Y-414800D01*
G01X265250Y-420800D02*
Y-410800D01*
G01X278000Y-411634D02*
X277250Y-411133D01*
X276375Y-410800D01*
X275375D01*
X274250Y-411300D01*
X273375Y-412133D01*
X272750Y-413133D01*
X272250Y-414800D01*
X272125Y-416300D01*
X272375Y-417800D01*
X272750Y-418800D01*
X273500Y-419800D01*
X274375Y-420467D01*
X275250Y-420800D01*
X276125D01*
X277000Y-420467D01*
X277750Y-419967D01*
X278375Y-419300D01*
G01X285250Y-420800D02*
X284500Y-420633D01*
X283750Y-419967D01*
X283250Y-418800D01*
X283000Y-417467D01*
X283250Y-416133D01*
X283750Y-414967D01*
X284500Y-414300D01*
X285250Y-414134D01*
X286000Y-414300D01*
X286750Y-414967D01*
X287250Y-416133D01*
X287375Y-417467D01*
X287250Y-418800D01*
X286750Y-419967D01*
X286000Y-420633D01*
X285250Y-420800D01*
G01X293125D02*
Y-414134D01*
G01Y-415800D02*
X293625Y-414967D01*
X294375Y-414300D01*
X295375Y-414134D01*
X296250Y-414300D01*
X297000Y-414967D01*
X297375Y-416133D01*
Y-420800D01*
G01X303125D02*
Y-414134D01*
G01Y-415800D02*
X303625Y-414967D01*
X304375Y-414300D01*
X305375Y-414134D01*
X306250Y-414300D01*
X307000Y-414967D01*
X307375Y-416133D01*
Y-420800D01*
G01X313375Y-416300D02*
X317375D01*
X317000Y-415133D01*
X316375Y-414467D01*
X315500Y-414134D01*
X314625Y-414300D01*
X313875Y-414800D01*
X313375Y-415967D01*
X313125Y-416967D01*
Y-417967D01*
X313375Y-418967D01*
X314000Y-419967D01*
X314750Y-420633D01*
X315625Y-420800D01*
X316500Y-420467D01*
X317375Y-419467D01*
G01X327250Y-414967D02*
X326375Y-414300D01*
X325625Y-414134D01*
X324625Y-414467D01*
X323875Y-415133D01*
X323375Y-416300D01*
X323250Y-417467D01*
X323375Y-418633D01*
X323875Y-419634D01*
X324625Y-420467D01*
X325625Y-420800D01*
X326500Y-420467D01*
X327250Y-419800D01*
G01X335250Y-410800D02*
Y-420800D01*
G01X333500Y-414134D02*
X337000D01*
G01X343625Y-417467D02*
X346875D01*
G01X355250Y-420800D02*
Y-410800D01*
X353750Y-412800D01*
G01Y-420800D02*
X356750D01*
G01X375250D02*
Y-410800D01*
G01X396000Y-415800D02*
X398500D01*
Y-418800D01*
X397750Y-419800D01*
X396875Y-420467D01*
X395625Y-420800D01*
X394375Y-420467D01*
X393500Y-419800D01*
X392750Y-418800D01*
X392250Y-417633D01*
X392000Y-416300D01*
Y-415133D01*
X392250Y-414134D01*
X392750Y-412966D01*
X393500Y-411967D01*
X394250Y-411300D01*
X395250Y-410800D01*
X396125D01*
X397125Y-411133D01*
X397875Y-411800D01*
G01X406250Y-415467D02*
X406750Y-414967D01*
X407125Y-414134D01*
X407375Y-412966D01*
X407125Y-411967D01*
X406625Y-411300D01*
X405750Y-410800D01*
X402375D01*
Y-420800D01*
X406500D01*
X407375Y-420134D01*
X407875Y-419133D01*
X408125Y-417967D01*
X407875Y-416800D01*
X407125Y-415800D01*
X406250Y-415467D01*
X402375D01*
G01X418000Y-411634D02*
X417250Y-411133D01*
X416375Y-410800D01*
X415375D01*
X414250Y-411300D01*
X413375Y-412133D01*
X412750Y-413133D01*
X412250Y-414800D01*
X412125Y-416300D01*
X412375Y-417800D01*
X412750Y-418800D01*
X413500Y-419800D01*
X414375Y-420467D01*
X415250Y-420800D01*
X416125D01*
X417000Y-420467D01*
X417750Y-419967D01*
X418375Y-419300D01*
G01X436250Y-415467D02*
X436750Y-414967D01*
X437125Y-414134D01*
X437375Y-412966D01*
X437125Y-411967D01*
X436625Y-411300D01*
X435750Y-410800D01*
X432375D01*
Y-420800D01*
X436500D01*
X437375Y-420134D01*
X437875Y-419133D01*
X438125Y-417967D01*
X437875Y-416800D01*
X437125Y-415800D01*
X436250Y-415467D01*
X432375D01*
G01X445250Y-420800D02*
X444500Y-420633D01*
X443750Y-419967D01*
X443250Y-418800D01*
X443000Y-417467D01*
X443250Y-416133D01*
X443750Y-414967D01*
X444500Y-414300D01*
X445250Y-414134D01*
X446000Y-414300D01*
X446750Y-414967D01*
X447250Y-416133D01*
X447375Y-417467D01*
X447250Y-418800D01*
X446750Y-419967D01*
X446000Y-420633D01*
X445250Y-420800D01*
G01X457500D02*
Y-414134D01*
G01Y-415300D02*
X457000Y-414633D01*
X456250Y-414300D01*
X455375Y-414134D01*
X454500Y-414467D01*
X453750Y-415133D01*
X453250Y-416133D01*
X453000Y-417467D01*
X453250Y-418800D01*
X453750Y-419800D01*
X454500Y-420467D01*
X455375Y-420800D01*
X456250Y-420633D01*
X457000Y-420134D01*
X457500Y-419467D01*
G01X463500Y-420800D02*
Y-414134D01*
G01Y-415467D02*
X464125Y-414800D01*
X464750Y-414300D01*
X465625Y-414134D01*
X466250Y-414300D01*
X467000Y-414800D01*
G01X477500Y-410800D02*
Y-420800D01*
G01Y-419300D02*
X477000Y-420134D01*
X476250Y-420633D01*
X475375Y-420800D01*
X474375Y-420467D01*
X473625Y-419634D01*
X473125Y-418633D01*
X473000Y-417467D01*
X473125Y-416300D01*
X473625Y-415300D01*
X474375Y-414467D01*
X475375Y-414134D01*
X476250Y-414300D01*
X476875Y-414633D01*
X477500Y-415300D01*
G01X42500Y-380800D02*
Y-370800D01*
X45000D01*
X46000Y-371300D01*
X46750Y-371967D01*
X47375Y-372966D01*
X47875Y-374134D01*
X48000Y-375800D01*
X47875Y-377467D01*
X47375Y-378634D01*
X46750Y-379634D01*
X46000Y-380300D01*
X45000Y-380800D01*
X42500D01*
G01X52125D02*
X55250Y-370800D01*
X58375Y-380800D01*
G01X57250Y-377300D02*
X53250D01*
G01X65250Y-370800D02*
Y-380800D01*
G01X62375Y-370800D02*
X68125D01*
G01X77750Y-380800D02*
X72750D01*
Y-370800D01*
X77750D01*
G01X75750Y-375633D02*
X72750D01*
G01X85250Y-381133D02*
X85000Y-380967D01*
Y-380633D01*
X85250Y-380467D01*
X85500Y-380633D01*
Y-380967D01*
X85250Y-381133D01*
G01Y-376634D02*
X85000Y-376467D01*
Y-376133D01*
X85250Y-375967D01*
X85500Y-376133D01*
Y-376467D01*
X85250Y-376634D01*
G01X95250Y-370800D02*
X94250Y-371133D01*
X93500Y-371967D01*
X93000Y-372966D01*
X92625Y-374300D01*
X92500Y-375800D01*
X92625Y-377300D01*
X93000Y-378634D01*
X93500Y-379634D01*
X94250Y-380467D01*
X95250Y-380800D01*
X96250Y-380467D01*
X97000Y-379634D01*
X97500Y-378634D01*
X97875Y-377300D01*
X98000Y-375800D01*
X97875Y-374300D01*
X97500Y-372966D01*
X97000Y-371967D01*
X96250Y-371133D01*
X95250Y-370800D01*
G01X105250Y-380800D02*
Y-370800D01*
X103750Y-372800D01*
G01Y-380800D02*
X106750D01*
G01X113625Y-377467D02*
X116875D01*
G01X122875Y-372467D02*
X123625Y-371467D01*
X124500Y-370967D01*
X125500Y-370800D01*
X126750Y-371133D01*
X127625Y-371967D01*
X127875Y-372966D01*
X127750Y-373967D01*
X127250Y-374800D01*
X124750Y-376467D01*
X123625Y-377633D01*
X122875Y-379300D01*
X122625Y-380800D01*
X127875D01*
G01X135250Y-370800D02*
X134250Y-371133D01*
X133500Y-371967D01*
X133000Y-372966D01*
X132625Y-374300D01*
X132500Y-375800D01*
X132625Y-377300D01*
X133000Y-378634D01*
X133500Y-379634D01*
X134250Y-380467D01*
X135250Y-380800D01*
X136250Y-380467D01*
X137000Y-379634D01*
X137500Y-378634D01*
X137875Y-377300D01*
X138000Y-375800D01*
X137875Y-374300D01*
X137500Y-372966D01*
X137000Y-371967D01*
X136250Y-371133D01*
X135250Y-370800D01*
G01X143625Y-377467D02*
X146875D01*
G01X152875Y-372467D02*
X153625Y-371467D01*
X154500Y-370967D01*
X155500Y-370800D01*
X156750Y-371133D01*
X157625Y-371967D01*
X157875Y-372966D01*
X157750Y-373967D01*
X157250Y-374800D01*
X154750Y-376467D01*
X153625Y-377633D01*
X152875Y-379300D01*
X152625Y-380800D01*
X157875D01*
G01X165250Y-370800D02*
X164250Y-371133D01*
X163500Y-371967D01*
X163000Y-372966D01*
X162625Y-374300D01*
X162500Y-375800D01*
X162625Y-377300D01*
X163000Y-378634D01*
X163500Y-379634D01*
X164250Y-380467D01*
X165250Y-380800D01*
X166250Y-380467D01*
X167000Y-379634D01*
X167500Y-378634D01*
X167875Y-377300D01*
X168000Y-375800D01*
X167875Y-374300D01*
X167500Y-372966D01*
X167000Y-371967D01*
X166250Y-371133D01*
X165250Y-370800D01*
G01X175250Y-380800D02*
Y-370800D01*
X173750Y-372800D01*
G01Y-380800D02*
X176750D01*
G01X185000D02*
X185250Y-378634D01*
X185625Y-376800D01*
X186125Y-375133D01*
X186750Y-373300D01*
X187750Y-370800D01*
X182750D01*
G01X42500Y-400800D02*
Y-390800D01*
X45000D01*
X46000Y-391300D01*
X46750Y-391967D01*
X47375Y-392966D01*
X47875Y-394134D01*
X48000Y-395800D01*
X47875Y-397467D01*
X47375Y-398634D01*
X46750Y-399634D01*
X46000Y-400300D01*
X45000Y-400800D01*
X42500D01*
G01X57750D02*
X52750D01*
Y-390800D01*
X57750D01*
G01X55750Y-395633D02*
X52750D01*
G01X62625Y-399467D02*
X63625Y-400300D01*
X64750Y-400800D01*
X65750D01*
X66750Y-400300D01*
X67500Y-399467D01*
X67875Y-398300D01*
X67625Y-397134D01*
X67000Y-396133D01*
X65875Y-395467D01*
X64375Y-395133D01*
X63500Y-394467D01*
X63125Y-393300D01*
X63375Y-392133D01*
X64000Y-391300D01*
X64875Y-390800D01*
X65750D01*
X66625Y-391133D01*
X67375Y-391967D01*
G01X73750Y-390800D02*
X76750D01*
G01X75250D02*
Y-400800D01*
G01X73750D02*
X76750D01*
G01X86000Y-395800D02*
X88500D01*
Y-398800D01*
X87750Y-399800D01*
X86875Y-400467D01*
X85625Y-400800D01*
X84375Y-400467D01*
X83500Y-399800D01*
X82750Y-398800D01*
X82250Y-397633D01*
X82000Y-396300D01*
Y-395133D01*
X82250Y-394134D01*
X82750Y-392966D01*
X83500Y-391967D01*
X84250Y-391300D01*
X85250Y-390800D01*
X86125D01*
X87125Y-391133D01*
X87875Y-391800D01*
G01X92375Y-400800D02*
Y-390800D01*
X98125Y-400800D01*
Y-390800D01*
G01X107750Y-400800D02*
X102750D01*
Y-390800D01*
X107750D01*
G01X105750Y-395633D02*
X102750D01*
G01X112500Y-400800D02*
Y-390800D01*
X115000D01*
X116000Y-391300D01*
X116750Y-391967D01*
X117375Y-392966D01*
X117875Y-394134D01*
X118000Y-395800D01*
X117875Y-397467D01*
X117375Y-398634D01*
X116750Y-399634D01*
X116000Y-400300D01*
X115000Y-400800D01*
X112500D01*
G01X132125D02*
X135250Y-390800D01*
X138375Y-400800D01*
G01X137250Y-397300D02*
X133250D01*
G01X145250Y-390800D02*
Y-400800D01*
G01X142375Y-390800D02*
X148125D01*
G01X155250Y-401133D02*
X155000Y-400967D01*
Y-400633D01*
X155250Y-400467D01*
X155500Y-400633D01*
Y-400967D01*
X155250Y-401133D01*
G01Y-396634D02*
X155000Y-396467D01*
Y-396133D01*
X155250Y-395967D01*
X155500Y-396133D01*
Y-396467D01*
X155250Y-396634D01*
G01X154125Y-437567D02*
X155125Y-438400D01*
X156250Y-438900D01*
X157250D01*
X158250Y-438400D01*
X159000Y-437567D01*
X159375Y-436400D01*
X159125Y-435234D01*
X158500Y-434233D01*
X157375Y-433567D01*
X155875Y-433233D01*
X155000Y-432567D01*
X154625Y-431400D01*
X154875Y-430233D01*
X155500Y-429400D01*
X156375Y-428900D01*
X157250D01*
X158125Y-429233D01*
X158875Y-430067D01*
G01X166750Y-438900D02*
X165750Y-438733D01*
X164875Y-438067D01*
X164125Y-437067D01*
X163625Y-435900D01*
X163375Y-434567D01*
Y-433233D01*
X163625Y-431900D01*
X164125Y-430733D01*
X164875Y-429734D01*
X165750Y-429067D01*
X166750Y-428900D01*
X167750Y-429067D01*
X168625Y-429734D01*
X169375Y-430733D01*
X169875Y-431900D01*
X170125Y-433233D01*
Y-434567D01*
X169875Y-435900D01*
X169375Y-437067D01*
X168625Y-438067D01*
X167750Y-438733D01*
X166750Y-438900D01*
G01X174250Y-428900D02*
Y-438900D01*
X179250D01*
G01X184000D02*
Y-428900D01*
X186500D01*
X187500Y-429400D01*
X188250Y-430067D01*
X188875Y-431066D01*
X189375Y-432234D01*
X189500Y-433900D01*
X189375Y-435567D01*
X188875Y-436734D01*
X188250Y-437734D01*
X187500Y-438400D01*
X186500Y-438900D01*
X184000D01*
G01X199250D02*
X194250D01*
Y-428900D01*
X199250D01*
G01X197250Y-433733D02*
X194250D01*
G01X204250Y-438900D02*
Y-428900D01*
X207375D01*
X208375Y-429400D01*
X209000Y-430067D01*
X209250Y-431400D01*
X209000Y-432733D01*
X208250Y-433567D01*
X207375Y-434067D01*
X204250D01*
G01X207375D02*
X209250Y-438900D01*
G01X224250D02*
Y-428900D01*
X227250D01*
X228250Y-429400D01*
X229000Y-430567D01*
X229250Y-431900D01*
X229000Y-433233D01*
X228375Y-434233D01*
X227250Y-434734D01*
X224250D01*
G01X233625Y-438900D02*
X236750Y-428900D01*
X239875Y-438900D01*
G01X238750Y-435400D02*
X234750D01*
G01X244125Y-437567D02*
X245125Y-438400D01*
X246250Y-438900D01*
X247250D01*
X248250Y-438400D01*
X249000Y-437567D01*
X249375Y-436400D01*
X249125Y-435234D01*
X248500Y-434233D01*
X247375Y-433567D01*
X245875Y-433233D01*
X245000Y-432567D01*
X244625Y-431400D01*
X244875Y-430233D01*
X245500Y-429400D01*
X246375Y-428900D01*
X247250D01*
X248125Y-429233D01*
X248875Y-430067D01*
G01X256750Y-428900D02*
Y-438900D01*
G01X253875Y-428900D02*
X259625D01*
G01X269250Y-438900D02*
X264250D01*
Y-428900D01*
X269250D01*
G01X267250Y-433733D02*
X264250D01*
G01X287750Y-433567D02*
X288250Y-433067D01*
X288625Y-432234D01*
X288875Y-431066D01*
X288625Y-430067D01*
X288125Y-429400D01*
X287250Y-428900D01*
X283875D01*
Y-438900D01*
X288000D01*
X288875Y-438234D01*
X289375Y-437233D01*
X289625Y-436067D01*
X289375Y-434900D01*
X288625Y-433900D01*
X287750Y-433567D01*
X283875D01*
G01X296750Y-438900D02*
X295750Y-438733D01*
X294875Y-438067D01*
X294125Y-437067D01*
X293625Y-435900D01*
X293375Y-434567D01*
Y-433233D01*
X293625Y-431900D01*
X294125Y-430733D01*
X294875Y-429734D01*
X295750Y-429067D01*
X296750Y-428900D01*
X297750Y-429067D01*
X298625Y-429734D01*
X299375Y-430733D01*
X299875Y-431900D01*
X300125Y-433233D01*
Y-434567D01*
X299875Y-435900D01*
X299375Y-437067D01*
X298625Y-438067D01*
X297750Y-438733D01*
X296750Y-438900D01*
G01X306750Y-428900D02*
Y-438900D01*
G01X303875Y-428900D02*
X309625D01*
G01X316750D02*
Y-438900D01*
G01X313875Y-428900D02*
X319625D01*
G01X326750Y-438900D02*
X325750Y-438733D01*
X324875Y-438067D01*
X324125Y-437067D01*
X323625Y-435900D01*
X323375Y-434567D01*
Y-433233D01*
X323625Y-431900D01*
X324125Y-430733D01*
X324875Y-429734D01*
X325750Y-429067D01*
X326750Y-428900D01*
X327750Y-429067D01*
X328625Y-429734D01*
X329375Y-430733D01*
X329875Y-431900D01*
X330125Y-433233D01*
Y-434567D01*
X329875Y-435900D01*
X329375Y-437067D01*
X328625Y-438067D01*
X327750Y-438733D01*
X326750Y-438900D01*
G01X333500D02*
Y-428900D01*
X336750Y-437233D01*
X340000Y-428900D01*
Y-438900D01*
G01X237750Y-380800D02*
Y-370800D01*
X240750D01*
X241750Y-371300D01*
X242500Y-372467D01*
X242750Y-373800D01*
X242500Y-375133D01*
X241875Y-376133D01*
X240750Y-376634D01*
X237750D01*
G01X247125Y-380800D02*
X250250Y-370800D01*
X253375Y-380800D01*
G01X252250Y-377300D02*
X248250D01*
G01X257750Y-380800D02*
Y-370800D01*
X260875D01*
X261875Y-371300D01*
X262500Y-371967D01*
X262750Y-373300D01*
X262500Y-374633D01*
X261750Y-375467D01*
X260875Y-375967D01*
X257750D01*
G01X260875D02*
X262750Y-380800D01*
G01X270250Y-370800D02*
Y-380800D01*
G01X267375Y-370800D02*
X273125D01*
G01X287375Y-380800D02*
Y-370800D01*
X293125Y-380800D01*
Y-370800D01*
G01X297500D02*
Y-377967D01*
X298000Y-379467D01*
X299000Y-380467D01*
X300250Y-380800D01*
X301500Y-380467D01*
X302500Y-379467D01*
X303000Y-377967D01*
Y-370800D01*
G01X307000Y-380800D02*
Y-370800D01*
X310250Y-379133D01*
X313500Y-370800D01*
Y-380800D01*
G01X321250Y-375467D02*
X321750Y-374967D01*
X322125Y-374134D01*
X322375Y-372966D01*
X322125Y-371967D01*
X321625Y-371300D01*
X320750Y-370800D01*
X317375D01*
Y-380800D01*
X321500D01*
X322375Y-380134D01*
X322875Y-379133D01*
X323125Y-377967D01*
X322875Y-376800D01*
X322125Y-375800D01*
X321250Y-375467D01*
X317375D01*
G01X332750Y-380800D02*
X327750D01*
Y-370800D01*
X332750D01*
G01X330750Y-375633D02*
X327750D01*
G01X337750Y-380800D02*
Y-370800D01*
X340875D01*
X341875Y-371300D01*
X342500Y-371967D01*
X342750Y-373300D01*
X342500Y-374633D01*
X341750Y-375467D01*
X340875Y-375967D01*
X337750D01*
G01X340875D02*
X342750Y-380800D01*
G01X350250Y-381133D02*
X350000Y-380967D01*
Y-380633D01*
X350250Y-380467D01*
X350500Y-380633D01*
Y-380967D01*
X350250Y-381133D01*
G01Y-376634D02*
X350000Y-376467D01*
Y-376133D01*
X350250Y-375967D01*
X350500Y-376133D01*
Y-376467D01*
X350250Y-376634D01*
G01X357875Y-372467D02*
X358625Y-371467D01*
X359500Y-370967D01*
X360500Y-370800D01*
X361750Y-371133D01*
X362625Y-371967D01*
X362875Y-372966D01*
X362750Y-373967D01*
X362250Y-374800D01*
X359750Y-376467D01*
X358625Y-377633D01*
X357875Y-379300D01*
X357625Y-380800D01*
X362875D01*
G01X367500Y-378800D02*
X368250Y-379967D01*
X369250Y-380633D01*
X370375Y-380800D01*
X371375Y-380633D01*
X372375Y-379800D01*
X373000Y-378800D01*
X373125Y-377800D01*
X372875Y-376634D01*
X372000Y-375800D01*
X371125Y-375467D01*
X370000D01*
G01X371125D02*
X371875Y-374967D01*
X372500Y-374134D01*
X372750Y-373133D01*
X372500Y-372133D01*
X371875Y-371300D01*
X370750Y-370800D01*
X369625Y-370967D01*
X368500Y-371634D01*
G01X377875Y-372467D02*
X378625Y-371467D01*
X379500Y-370967D01*
X380500Y-370800D01*
X381750Y-371133D01*
X382625Y-371967D01*
X382875Y-372966D01*
X382750Y-373967D01*
X382250Y-374800D01*
X379750Y-376467D01*
X378625Y-377633D01*
X377875Y-379300D01*
X377625Y-380800D01*
X382875D01*
G01X388625Y-377467D02*
X391875D01*
G01X400250Y-370800D02*
X399250Y-371133D01*
X398500Y-371967D01*
X398000Y-372966D01*
X397625Y-374300D01*
X397500Y-375800D01*
X397625Y-377300D01*
X398000Y-378634D01*
X398500Y-379634D01*
X399250Y-380467D01*
X400250Y-380800D01*
X401250Y-380467D01*
X402000Y-379634D01*
X402500Y-378634D01*
X402875Y-377300D01*
X403000Y-375800D01*
X402875Y-374300D01*
X402500Y-372966D01*
X402000Y-371967D01*
X401250Y-371133D01*
X400250Y-370800D01*
G01X410250D02*
X409250Y-371133D01*
X408500Y-371967D01*
X408000Y-372966D01*
X407625Y-374300D01*
X407500Y-375800D01*
X407625Y-377300D01*
X408000Y-378634D01*
X408500Y-379634D01*
X409250Y-380467D01*
X410250Y-380800D01*
X411250Y-380467D01*
X412000Y-379634D01*
X412500Y-378634D01*
X412875Y-377300D01*
X413000Y-375800D01*
X412875Y-374300D01*
X412500Y-372966D01*
X412000Y-371967D01*
X411250Y-371133D01*
X410250Y-370800D01*
G01X420250D02*
X419250Y-371133D01*
X418500Y-371967D01*
X418000Y-372966D01*
X417625Y-374300D01*
X417500Y-375800D01*
X417625Y-377300D01*
X418000Y-378634D01*
X418500Y-379634D01*
X419250Y-380467D01*
X420250Y-380800D01*
X421250Y-380467D01*
X422000Y-379634D01*
X422500Y-378634D01*
X422875Y-377300D01*
X423000Y-375800D01*
X422875Y-374300D01*
X422500Y-372966D01*
X422000Y-371967D01*
X421250Y-371133D01*
X420250Y-370800D01*
G01X430250D02*
X429250Y-371133D01*
X428500Y-371967D01*
X428000Y-372966D01*
X427625Y-374300D01*
X427500Y-375800D01*
X427625Y-377300D01*
X428000Y-378634D01*
X428500Y-379634D01*
X429250Y-380467D01*
X430250Y-380800D01*
X431250Y-380467D01*
X432000Y-379634D01*
X432500Y-378634D01*
X432875Y-377300D01*
X433000Y-375800D01*
X432875Y-374300D01*
X432500Y-372966D01*
X432000Y-371967D01*
X431250Y-371133D01*
X430250Y-370800D01*
G01X437500Y-378800D02*
X438250Y-379967D01*
X439250Y-380633D01*
X440375Y-380800D01*
X441375Y-380633D01*
X442375Y-379800D01*
X443000Y-378800D01*
X443125Y-377800D01*
X442875Y-376634D01*
X442000Y-375800D01*
X441125Y-375467D01*
X440000D01*
G01X441125D02*
X441875Y-374967D01*
X442500Y-374134D01*
X442750Y-373133D01*
X442500Y-372133D01*
X441875Y-371300D01*
X440750Y-370800D01*
X439625Y-370967D01*
X438500Y-371634D01*
G01X447875Y-376634D02*
X448750Y-375467D01*
X449500Y-374800D01*
X450500Y-374467D01*
X451375Y-374800D01*
X452000Y-375467D01*
X452500Y-376467D01*
X452625Y-377633D01*
X452500Y-378634D01*
X452000Y-379634D01*
X451250Y-380467D01*
X450375Y-380800D01*
X449375Y-380467D01*
X448500Y-379467D01*
X448000Y-377967D01*
X447875Y-376300D01*
X448125Y-374134D01*
X448500Y-372966D01*
X449125Y-371800D01*
X450000Y-370967D01*
X450875Y-370800D01*
X451750Y-371133D01*
X452375Y-371967D01*
G01X467750Y-370800D02*
Y-380800D01*
X472750D01*
G01X480250Y-374134D02*
Y-380800D01*
G01Y-371467D02*
X480000Y-371300D01*
Y-370967D01*
X480250Y-370800D01*
X480500Y-370967D01*
Y-371300D01*
X480250Y-371467D01*
G01X489500Y-380800D02*
Y-372300D01*
X489750Y-371467D01*
X490250Y-370967D01*
X491000Y-370800D01*
X491750Y-371133D01*
X492125Y-371967D01*
G01X490625Y-374800D02*
X488125D01*
G01X498375Y-376300D02*
X502375D01*
X502000Y-375133D01*
X501375Y-374467D01*
X500500Y-374134D01*
X499625Y-374300D01*
X498875Y-374800D01*
X498375Y-375967D01*
X498125Y-376967D01*
Y-377967D01*
X498375Y-378967D01*
X499000Y-379967D01*
X499750Y-380633D01*
X500625Y-380800D01*
X501500Y-380467D01*
X502375Y-379467D01*
G01X508625Y-377467D02*
X511875D01*
G01X517500Y-378800D02*
X518250Y-379967D01*
X519250Y-380633D01*
X520375Y-380800D01*
X521375Y-380633D01*
X522375Y-379800D01*
X523000Y-378800D01*
X523125Y-377800D01*
X522875Y-376634D01*
X522000Y-375800D01*
X521125Y-375467D01*
X520000D01*
G01X521125D02*
X521875Y-374967D01*
X522500Y-374134D01*
X522750Y-373133D01*
X522500Y-372133D01*
X521875Y-371300D01*
X520750Y-370800D01*
X519625Y-370967D01*
X518500Y-371634D01*
G01X534750Y-410550D02*
Y-420550D01*
X539750D01*
G01X547250Y-413884D02*
Y-420550D01*
G01Y-411217D02*
X547000Y-411050D01*
Y-410717D01*
X547250Y-410550D01*
X547500Y-410717D01*
Y-411050D01*
X547250Y-411217D01*
G01X556500Y-420550D02*
Y-412050D01*
X556750Y-411217D01*
X557250Y-410717D01*
X558000Y-410550D01*
X558750Y-410883D01*
X559125Y-411717D01*
G01X557625Y-414550D02*
X555125D01*
G01X565375Y-416050D02*
X569375D01*
X569000Y-414883D01*
X568375Y-414217D01*
X567500Y-413884D01*
X566625Y-414050D01*
X565875Y-414550D01*
X565375Y-415717D01*
X565125Y-416717D01*
Y-417717D01*
X565375Y-418717D01*
X566000Y-419717D01*
X566750Y-420383D01*
X567625Y-420550D01*
X568500Y-420217D01*
X569375Y-419217D01*
G01X575625Y-417217D02*
X578875D01*
G01X584500Y-418550D02*
X585250Y-419717D01*
X586250Y-420383D01*
X587375Y-420550D01*
X588375Y-420383D01*
X589375Y-419550D01*
X590000Y-418550D01*
X590125Y-417550D01*
X589875Y-416384D01*
X589000Y-415550D01*
X588125Y-415217D01*
X587000D01*
G01X588125D02*
X588875Y-414717D01*
X589500Y-413884D01*
X589750Y-412883D01*
X589500Y-411883D01*
X588875Y-411050D01*
X587750Y-410550D01*
X586625Y-410717D01*
X585500Y-411384D01*
G54D111*
X630236Y252000D03*
Y300000D03*
Y272000D03*
Y320000D03*
G54D102*
X554124Y509047D03*
Y514953D03*
G54D121*
G01X37000Y-425500D02*
X602500D01*
Y-425350D01*
G01X37000Y-366169D02*
Y-445500D01*
G01X602500Y-366264D02*
Y-445500D01*
X37000D01*
G01Y-405500D02*
X602350D01*
G01X37000Y-366300D02*
X602500D01*
G01X37000Y-385500D02*
X602450D01*
G54D112*
X648661Y357937D03*
X631339D03*
X648661Y355968D03*
X631339D03*
X648661Y354000D03*
X631339D03*
X648661Y352032D03*
X631339D03*
X648661Y350063D03*
X631339D03*
G54D10*
X34600Y57200D03*
X58600Y975200D03*
X141300Y416300D03*
X377900Y423300D03*
X640600Y24700D03*
G54D103*
X569676Y509047D03*
Y514953D03*
G54D113*
X629700Y572613D03*
X634700D03*
X639700D03*
X644700D03*
X629700Y594187D03*
X634700D03*
X639700D03*
X644700D03*
X627500Y675213D03*
X622500D03*
X617500D03*
X612500D03*
X627500Y696787D03*
X622500D03*
X617500D03*
X612500D03*
G54D20*
X99563Y301760D03*
Y309240D03*
X107437Y305500D03*
G54D11*
X20000Y58295D03*
Y70500D03*
X146900Y140302D03*
Y128098D03*
X145500Y185705D03*
Y173500D03*
X218400Y12102D03*
Y-102D03*
X200300Y129702D03*
Y117498D03*
X235300Y-29202D03*
X264000Y29502D03*
Y17298D03*
X235300Y-16998D03*
X223000Y177705D03*
Y165500D03*
X269500Y195398D03*
Y207602D03*
X606500Y24398D03*
X606000Y62102D03*
Y49898D03*
Y82602D03*
Y70398D03*
X606500Y36602D03*
X606000Y104102D03*
Y91898D03*
X678200Y224502D03*
Y212298D03*
G54D104*
X556979Y505209D03*
X558947D03*
X560916D03*
X562884D03*
X564853D03*
X566821D03*
G54D114*
X636013Y604400D03*
X657587D03*
X636013Y609400D03*
X657587D03*
X636013Y614400D03*
X657587D03*
X636013Y619400D03*
X657587D03*
G54D12*
X20650Y328000D03*
X24350D03*
X48500Y340350D03*
Y336650D03*
X20100Y337850D03*
Y341550D03*
X43000Y344150D03*
Y347850D03*
X51150Y326000D03*
X50150Y449300D03*
X23500Y460450D03*
Y464150D03*
Y469450D03*
X49150Y456300D03*
X44500Y458950D03*
Y462650D03*
X34100Y477850D03*
Y481550D03*
X23500Y473150D03*
X45300Y481550D03*
Y477850D03*
X39700Y481550D03*
Y477850D03*
X16000Y555650D03*
Y559350D03*
Y568850D03*
Y565150D03*
X21650Y565000D03*
X25350D03*
X21650Y559500D03*
X25350D03*
X19150Y617000D03*
X22850D03*
X19150Y611500D03*
X22850D03*
Y624500D03*
X19150D03*
X22850Y630500D03*
X19150D03*
X19000Y659850D03*
Y656150D03*
X16500Y682350D03*
Y678650D03*
X25200Y747150D03*
X14400Y745150D03*
X18800Y745000D03*
X25200Y750850D03*
X40000Y772150D03*
Y775850D03*
X14400Y748850D03*
X25900Y769450D03*
Y773150D03*
X20182Y788200D03*
X16482D03*
X17050Y767100D03*
X20750D03*
X22250Y761600D03*
X18550D03*
X46000Y772150D03*
Y775850D03*
X29282Y788200D03*
X25582D03*
X46000Y782950D03*
Y786650D03*
X40000Y782950D03*
Y786650D03*
X22350Y756200D03*
X18650D03*
X18800Y748700D03*
X14300Y778850D03*
Y782550D03*
X32300Y778850D03*
Y782550D03*
X23382Y827600D03*
X19682D03*
X19650Y821500D03*
X23350D03*
X92500Y329350D03*
Y325650D03*
Y316650D03*
Y320350D03*
X54850Y326000D03*
X65650Y452800D03*
X69350D03*
X53850Y449300D03*
X65650Y458300D03*
X69350D03*
X52850Y456300D03*
X54000Y477450D03*
Y481150D03*
X59500Y477450D03*
Y481150D03*
X83600Y514850D03*
Y511150D03*
X67150Y632000D03*
X70850D03*
X67150Y627000D03*
X70850D03*
X67150Y622000D03*
X70850D03*
X67150Y617000D03*
X70850D03*
X69150Y611500D03*
X72850D03*
X96400Y650050D03*
Y646350D03*
X88800Y689050D03*
X74600Y701450D03*
Y705150D03*
X78500Y714350D03*
Y710650D03*
X76150Y693900D03*
X72450D03*
X84950Y699900D03*
X88650D03*
X88800Y692750D03*
X72700Y714350D03*
Y710650D03*
X52000Y775850D03*
Y772150D03*
Y786650D03*
Y782950D03*
X57500Y786650D03*
Y782950D03*
X98000Y855050D03*
Y858750D03*
X160050Y131400D03*
X159150Y106500D03*
X156600Y140150D03*
Y136450D03*
X159150Y101000D03*
X145150Y161300D03*
X141450D03*
X145050Y166800D03*
X141350D03*
X152200Y176950D03*
Y180650D03*
X137300Y172150D03*
Y175850D03*
X143450Y155700D03*
X139750D03*
X143450Y150200D03*
X139750D03*
X150750Y196700D03*
X147050D03*
X159850Y197000D03*
X156150D03*
X110700Y521250D03*
Y517550D03*
X156900Y581250D03*
Y577550D03*
X153950Y798600D03*
X157650D03*
X115600Y813850D03*
Y810150D03*
X131950Y839200D03*
X128250D03*
X131950Y833700D03*
X128250D03*
X155400Y846450D03*
Y850150D03*
X142500Y844650D03*
Y848350D03*
X148750Y855300D03*
X145050D03*
X134550Y855400D03*
X130850D03*
X151650Y886900D03*
X155350D03*
X154250Y893700D03*
X157950D03*
X146500Y910650D03*
X148850Y894100D03*
X145150D03*
X146500Y914350D03*
X190300Y120150D03*
Y116450D03*
X184800Y120150D03*
Y116450D03*
X192400Y139250D03*
X186100Y139450D03*
X192650Y109100D03*
X196350D03*
X170732Y126218D03*
Y122518D03*
X163750Y131400D03*
X162850Y106500D03*
X201050Y140100D03*
X197350D03*
X162850Y101000D03*
X213350Y165500D03*
X209650D03*
X213350Y160000D03*
X209650D03*
X213350Y154500D03*
X209650D03*
X213350Y148000D03*
X209650D03*
X192400Y142950D03*
X186100Y143150D03*
X179350Y143100D03*
X175650D03*
X211650Y173500D03*
X207950D03*
X164450Y158700D03*
X168150D03*
X196950Y170300D03*
X193250D03*
X164350Y164400D03*
X168050D03*
X164350Y170100D03*
X168050D03*
X196950Y159300D03*
X193250D03*
X184400Y150150D03*
Y153850D03*
X178900Y150150D03*
Y153850D03*
X173400Y150150D03*
Y153850D03*
X196950Y164800D03*
X193250D03*
X191400Y150150D03*
Y153850D03*
X169700Y180450D03*
Y176750D03*
X201050Y145600D03*
X197350D03*
X175200Y180450D03*
Y176750D03*
X180700Y180450D03*
Y176750D03*
X186200Y180450D03*
Y176750D03*
X167900Y150150D03*
Y153850D03*
X164200Y179450D03*
Y175750D03*
X207950Y179000D03*
X211650D03*
X182850Y367000D03*
X179150D03*
X162600Y581250D03*
Y577550D03*
X169450Y624300D03*
X165750D03*
X170150Y618200D03*
X166450D03*
X205550Y736600D03*
X201850D03*
X205550Y742100D03*
X201850D03*
X203500Y788150D03*
Y784450D03*
X205550Y748600D03*
X201850D03*
X205550Y754100D03*
X201850D03*
X181100Y840868D03*
Y837168D03*
X171550Y823150D03*
Y826850D03*
X177150Y889500D03*
X180850D03*
X203150Y858500D03*
X206850D03*
X180850Y900800D03*
X177150D03*
Y895100D03*
X180850D03*
X169900Y892650D03*
Y888950D03*
X163600D03*
Y892650D03*
X166500Y931150D03*
Y934850D03*
X180900Y917950D03*
X177200D03*
X172000Y924150D03*
Y927850D03*
X220650Y448100D03*
X224350D03*
X258250Y682142D03*
Y685842D03*
X221850Y662600D03*
X218150D03*
X264950Y674300D03*
X268650D03*
X223350Y816500D03*
X219650D03*
X223350Y822500D03*
X219650D03*
X239150Y847500D03*
X242850D03*
X239850Y825000D03*
X236150D03*
X250500Y834850D03*
Y831150D03*
X269150Y968300D03*
Y979300D03*
X324650Y96100D03*
X317850Y95000D03*
X314150D03*
X299000Y170682D03*
Y174382D03*
X325782Y630300D03*
Y624700D03*
X276450Y679700D03*
X280150D03*
X285500Y759650D03*
Y763350D03*
X287350Y772000D03*
X283650D03*
X299139Y806782D03*
X295439D03*
X306000Y808150D03*
Y811850D03*
X323450Y893900D03*
X319750D03*
X272850Y968300D03*
Y979300D03*
X296700Y976850D03*
Y973150D03*
X284150Y972000D03*
X287850D03*
X328350Y96100D03*
X352700Y170850D03*
Y174550D03*
X341650Y215500D03*
X345350D03*
X332650Y248500D03*
X336350D03*
X347350D03*
X343650D03*
X335550Y297500D03*
X331850D03*
X335950Y273900D03*
X332250D03*
X373650Y283000D03*
X377350D03*
X373650Y288500D03*
X377350D03*
X332150D03*
X335850D03*
X366850Y293000D03*
X363150D03*
X341150D03*
X344850D03*
X381000Y448150D03*
Y451850D03*
X329482Y630300D03*
Y624700D03*
X353000Y608650D03*
Y612350D03*
X371362Y594943D03*
X375062D03*
X331850Y760500D03*
X328150D03*
X331850Y766000D03*
X328150D03*
X355950Y853500D03*
X352250D03*
X364750Y851700D03*
X361050D03*
X333650Y884000D03*
X337350D03*
X347700Y907450D03*
Y911150D03*
X353600Y907350D03*
Y911050D03*
X352500Y884650D03*
Y888350D03*
X359400Y907350D03*
Y911050D03*
X380350Y878600D03*
X374950Y897300D03*
X378650D03*
Y891800D03*
X374950D03*
X365600Y907050D03*
Y903350D03*
X427583Y-36150D03*
X431283D03*
X409000Y-30150D03*
Y-33850D03*
X427550Y-41850D03*
X431250D03*
X427550Y-47500D03*
X431250D03*
X409000Y-20650D03*
Y-24350D03*
X420750Y-10430D03*
Y-6730D03*
X420900Y139650D03*
X415200D03*
X434650Y182500D03*
X424650Y162500D03*
X428350D03*
X425500Y171850D03*
Y168150D03*
X434650Y176500D03*
X420900Y143350D03*
X415200D03*
X427100Y347650D03*
Y351350D03*
X404100Y348650D03*
Y344950D03*
X419000Y358850D03*
Y355150D03*
X420000Y364650D03*
Y368350D03*
X414350Y371000D03*
X410650D03*
X405000Y367150D03*
Y370850D03*
X389350Y466000D03*
X385650D03*
X420550Y416900D03*
X416850D03*
X387550Y524400D03*
X383850D03*
X387550Y518900D03*
X383850D03*
X387550Y513400D03*
X383850D03*
X418450Y523600D03*
X422150D03*
X387550Y530000D03*
X383850D03*
X405750Y541000D03*
X409450D03*
X393700Y601768D03*
Y605468D03*
X388100Y601731D03*
Y605431D03*
X400551Y587543D03*
X404251D03*
X412350Y706500D03*
X408650D03*
X422626Y746464D03*
X426326D03*
X406500Y712150D03*
Y715850D03*
X401000Y708150D03*
Y711850D03*
X412000Y712150D03*
Y715850D03*
X426350Y774500D03*
X422650D03*
X426650Y819500D03*
X430350D03*
X390150Y827150D03*
X393850D03*
X392150Y809300D03*
X395850D03*
X390150Y821650D03*
X393850D03*
X392050Y804100D03*
X395750D03*
X434769Y846750D03*
X427150Y831000D03*
X430850D03*
X426150Y825000D03*
X429850D03*
X426650Y814000D03*
X430350D03*
X426750Y805100D03*
X430450D03*
X437000Y833350D03*
Y829650D03*
X384050Y878600D03*
X399800Y892150D03*
Y888450D03*
X390250Y884100D03*
X393950D03*
X438350Y182500D03*
X452500Y181650D03*
Y185350D03*
Y176350D03*
Y172650D03*
X438350Y176500D03*
X471500Y192150D03*
Y195850D03*
X452500Y191650D03*
Y195350D03*
X477000Y291650D03*
Y295350D03*
X468900Y269850D03*
Y273550D03*
X443850Y352000D03*
X440150D03*
X444250Y358700D03*
X440550D03*
X442350Y379500D03*
X438650D03*
X442350Y369500D03*
X438650D03*
X470000Y616150D03*
Y619850D03*
Y599850D03*
Y596150D03*
X491000Y619850D03*
Y616150D03*
Y596150D03*
Y599850D03*
Y635150D03*
Y625650D03*
Y629350D03*
X470000Y635650D03*
Y629850D03*
Y626150D03*
X478000Y619850D03*
Y616150D03*
X483500Y619850D03*
Y616150D03*
X477500Y599850D03*
Y596150D03*
X483000Y599850D03*
Y596150D03*
X483586Y635448D03*
X478086D03*
X483414Y625852D03*
Y629552D03*
X477914Y625852D03*
Y629552D03*
X491000Y638850D03*
X470000Y639350D03*
X483586Y639148D03*
X478086D03*
X438500Y744650D03*
X492150Y740000D03*
X471150Y744500D03*
X474850D03*
X471150Y720000D03*
X474850D03*
X471150Y714500D03*
X474850D03*
X457150Y737500D03*
X460850D03*
X492150Y745500D03*
X486800Y740350D03*
Y744050D03*
X474850Y739000D03*
X471150D03*
X492150Y729000D03*
Y718000D03*
X480150Y714500D03*
X483850D03*
X444000Y708850D03*
Y705150D03*
X449500Y708850D03*
Y705150D03*
X441850Y718500D03*
X438150D03*
X446000Y726650D03*
Y730350D03*
X441350Y736000D03*
X437650D03*
X492150Y734500D03*
X438500Y748350D03*
X438650Y776500D03*
X442350D03*
X492150Y751000D03*
Y756500D03*
X471150Y750000D03*
X474850D03*
X471150Y761000D03*
X474850D03*
X437700Y795250D03*
Y798950D03*
X442350Y770500D03*
X438650D03*
X448500Y766850D03*
Y763150D03*
X492150Y762000D03*
X448500Y846650D03*
Y850350D03*
X454000D03*
Y846650D03*
X466100Y854350D03*
Y850650D03*
X438469Y846750D03*
X443850Y817500D03*
X440150D03*
X443850Y812000D03*
X440150D03*
X481000Y840150D03*
Y843850D03*
X475500Y840150D03*
Y843850D03*
X480000Y850150D03*
Y853850D03*
X474500Y850150D03*
Y853850D03*
X443350Y910500D03*
X439650D03*
X531500Y354650D03*
Y358350D03*
X541500Y377850D03*
Y374150D03*
X545000Y425550D03*
Y421850D03*
X544500Y457150D03*
Y460850D03*
X545250Y502800D03*
X541550D03*
X541600Y495550D03*
Y491850D03*
X503300Y485150D03*
Y488850D03*
X541550Y508500D03*
X545250D03*
X501650Y541500D03*
X505350D03*
X539500Y625850D03*
Y622150D03*
X527000Y635350D03*
Y631650D03*
X532500Y635350D03*
Y631650D03*
X498200Y636250D03*
X503800D03*
X512200Y636050D03*
X517800D03*
X497900Y627250D03*
Y630950D03*
X512200Y627050D03*
Y630750D03*
X503400Y630950D03*
Y627250D03*
X517800Y630750D03*
Y627050D03*
X509500Y612650D03*
Y616350D03*
X532500Y617650D03*
Y621350D03*
X509850Y672500D03*
X506150D03*
X509850Y678000D03*
X506150D03*
X509850Y683500D03*
X506150D03*
X509850Y689000D03*
X506150D03*
X536550Y670358D03*
Y666658D03*
X542000Y654650D03*
Y658350D03*
X498200Y639950D03*
X503800D03*
X512200Y639750D03*
X517800D03*
X536500Y683650D03*
Y687350D03*
X531000Y670350D03*
Y666650D03*
Y683650D03*
Y687350D03*
X509850Y731000D03*
X506150D03*
X509850Y725500D03*
X506150D03*
X538350Y723500D03*
X534650D03*
X538500Y729150D03*
Y732850D03*
X521150Y723000D03*
X524850D03*
X506150Y700000D03*
X509850D03*
X521150Y734000D03*
X524850D03*
Y739500D03*
X521150D03*
X495850Y740000D03*
X545150Y694500D03*
X539500Y712650D03*
Y716350D03*
X544000Y729150D03*
Y732850D03*
X495850Y745500D03*
Y729000D03*
Y718000D03*
X521150Y717500D03*
X524850D03*
X539000Y746850D03*
Y743150D03*
X533500Y746850D03*
Y743150D03*
X521150Y728500D03*
X524850D03*
X522900Y712150D03*
Y708450D03*
Y703250D03*
Y699550D03*
X495850Y734500D03*
X496850Y794500D03*
X493150D03*
X496850Y773000D03*
X493150D03*
X496850Y788500D03*
X493150D03*
X495850Y751000D03*
Y756500D03*
X530500Y759650D03*
Y763350D03*
X495850Y762000D03*
X596350Y24500D03*
X592650D03*
X597350Y70500D03*
X593650D03*
X597350Y50000D03*
X593650D03*
X597350Y92000D03*
X593650D03*
X602053Y359250D03*
X581250Y359128D03*
X573400Y413250D03*
X581450Y407800D03*
X577750D03*
X548000Y376350D03*
Y372650D03*
X581250Y362828D03*
X585500Y438850D03*
Y435150D03*
X573400Y416950D03*
X550500Y425550D03*
Y421850D03*
X568150Y429500D03*
X571850D03*
X550000Y457150D03*
Y460850D03*
X560900Y435750D03*
Y432050D03*
X575650Y509400D03*
X579350D03*
X576200Y495550D03*
Y491850D03*
X560900Y526850D03*
X566600D03*
X559000Y495450D03*
Y491750D03*
X553300Y495450D03*
Y491750D03*
X581800Y491850D03*
Y495550D03*
X579250Y503800D03*
X575550D03*
X547400Y491850D03*
Y495550D03*
X575650Y515100D03*
X579350D03*
X560900Y530550D03*
X566600D03*
X572700Y526950D03*
Y530650D03*
X598000Y611650D03*
Y615350D03*
X592000Y611650D03*
Y615350D03*
X598000Y622650D03*
Y626350D03*
X590500Y622650D03*
Y626350D03*
X598000Y634150D03*
X590500D03*
X576500Y673350D03*
Y669650D03*
X553000Y670350D03*
Y666650D03*
X547500Y670350D03*
Y666650D03*
X552600Y654750D03*
Y658450D03*
X555500Y686850D03*
Y683150D03*
X547600Y658450D03*
Y654750D03*
X598000Y637850D03*
X590500D03*
X587000Y662350D03*
Y658650D03*
X600000Y665850D03*
Y662150D03*
X549500Y683150D03*
Y686850D03*
X569000Y683150D03*
Y686850D03*
X563500Y683150D03*
Y686850D03*
X573365Y725594D03*
Y729294D03*
X595680Y729650D03*
X599380D03*
X581750Y726134D03*
X585450D03*
X599394Y705450D03*
X595694D03*
X563650Y698500D03*
X567350D03*
X548850Y694500D03*
X549500Y729150D03*
Y732850D03*
X555000Y729150D03*
Y732850D03*
X560500Y729150D03*
Y732850D03*
X576384Y746147D03*
Y742447D03*
X559650Y746378D03*
Y742678D03*
X569500Y704050D03*
Y707750D03*
X588660Y733691D03*
X584960D03*
X565100Y746250D03*
Y742550D03*
X584850Y715000D03*
X581150D03*
X570800Y746150D03*
Y742450D03*
X585786Y696527D03*
X582086D03*
X554000Y746350D03*
Y742650D03*
X584850Y720500D03*
X581150D03*
X569150Y714500D03*
X572850D03*
X587000Y759150D03*
Y762850D03*
X592500Y759150D03*
Y762850D03*
X588550Y885900D03*
X584850D03*
X589950Y896500D03*
X593650D03*
X577150Y943900D03*
X580850D03*
X605753Y359250D03*
X606900Y519050D03*
Y515350D03*
X654950Y579000D03*
X651250D03*
X633600Y561850D03*
Y565550D03*
X639300Y561850D03*
Y565550D03*
X651450Y572600D03*
X655150D03*
X635050Y548700D03*
X638750D03*
X627900Y565550D03*
Y561850D03*
X645000Y565550D03*
Y561850D03*
X617300Y591750D03*
Y595450D03*
X623100Y614650D03*
Y618350D03*
X604000Y615350D03*
Y611650D03*
Y626350D03*
Y622650D03*
Y634150D03*
X623000Y595450D03*
Y591750D03*
X628700Y618450D03*
Y614750D03*
X609500Y626350D03*
Y622650D03*
Y634150D03*
X636250Y626400D03*
X639950D03*
X651050Y597600D03*
X654750D03*
X617000Y666350D03*
Y662650D03*
X604000Y637850D03*
X654000Y686650D03*
Y690350D03*
X609500Y637850D03*
X611500Y662650D03*
Y666350D03*
X628000Y662650D03*
Y666350D03*
X622500Y662650D03*
Y666350D03*
X650450Y667900D03*
X646750D03*
X648850Y674100D03*
X645150D03*
X635500Y661450D03*
Y665150D03*
X639150Y713608D03*
X642850D03*
X639150Y706734D03*
X642850D03*
X612727Y744250D03*
X609027D03*
X612000Y705150D03*
Y708850D03*
X623000D03*
Y705150D03*
X617500Y708850D03*
Y705150D03*
Y725850D03*
Y722150D03*
X628500Y725850D03*
Y722150D03*
X612000Y725850D03*
Y722150D03*
X623000Y725850D03*
Y722150D03*
X639150Y722000D03*
X642850D03*
X633050Y715400D03*
X629350D03*
X617000Y758350D03*
Y754650D03*
X629000Y758350D03*
Y754650D03*
X622500Y758350D03*
Y754650D03*
X611800Y765100D03*
X615500D03*
X611500Y758350D03*
Y754650D03*
X622800Y884350D03*
Y880650D03*
X641550Y887300D03*
X637850D03*
X641396Y904150D03*
X637696D03*
X633950Y898550D03*
X637650D03*
X635972Y892964D03*
X639672D03*
X639750Y880800D03*
X643450D03*
X612650Y886100D03*
X608950D03*
X606150Y918500D03*
X602450D03*
X659500Y227150D03*
Y230850D03*
X657600Y629850D03*
Y626150D03*
X664500Y605450D03*
Y609150D03*
Y618550D03*
Y614850D03*
X663300Y626150D03*
Y629850D03*
X670100Y609150D03*
Y605450D03*
Y614850D03*
Y618550D03*
X666000Y690350D03*
Y686650D03*
X671000Y691800D03*
Y688100D03*
X660000Y686650D03*
Y690350D03*
X679179Y772998D03*
Y776698D03*
X673028Y776800D03*
Y773100D03*
X674112Y802495D03*
Y806195D03*
X685333Y806204D03*
Y802504D03*
X673550Y842300D03*
Y838600D03*
X679400Y842300D03*
Y838600D03*
X677650Y823000D03*
X681350D03*
X672850Y830000D03*
X676550D03*
X676600Y852650D03*
X672900D03*
X679750Y802504D03*
Y806204D03*
X681100Y895750D03*
Y899450D03*
X686700Y886550D03*
Y890250D03*
X681100Y904650D03*
Y908350D03*
X680900Y890350D03*
Y886650D03*
X672650Y879500D03*
X676350D03*
G54D30*
X106104Y686600D03*
X119096D03*
X162104Y700800D03*
X112704Y738200D03*
X125696D03*
X154604Y742800D03*
X109104Y765300D03*
X122096D03*
X175096Y700800D03*
X196296D03*
X183304D03*
X188796Y748400D03*
X175804D03*
X167596Y742800D03*
G54D21*
X92500Y305047D03*
Y310953D03*
X99900Y668403D03*
Y662497D03*
X83000Y977453D03*
Y971547D03*
X104000Y977453D03*
Y971547D03*
X153500Y222947D03*
Y228853D03*
X111500Y977453D03*
Y971547D03*
X201000Y16953D03*
Y11047D03*
X186000Y19953D03*
Y14047D03*
X173000Y19453D03*
Y13547D03*
X235500Y25953D03*
Y20047D03*
X258000Y816947D03*
Y822853D03*
X219000Y843547D03*
Y849453D03*
X291750Y40947D03*
Y46853D03*
X302500Y96547D03*
Y102453D03*
X437000Y188047D03*
Y193953D03*
X409000Y188047D03*
Y193953D03*
X409400Y985753D03*
Y979847D03*
X471000Y181753D03*
Y175847D03*
X534500Y379953D03*
Y374047D03*
X599500Y152547D03*
Y158453D03*
X556500Y370547D03*
Y376453D03*
X564000Y758547D03*
Y764453D03*
X633000Y226453D03*
Y220547D03*
X648000Y225047D03*
Y230953D03*
X640000Y220547D03*
Y226453D03*
X616500Y359547D03*
X623500D03*
X616500Y365453D03*
X623500D03*
X603700Y882447D03*
Y888353D03*
X624800Y891947D03*
Y897853D03*
X613500Y937753D03*
Y931847D03*
G54D105*
X556979Y518791D03*
X558947D03*
X560916D03*
X562884D03*
X564853D03*
X566821D03*
G54D115*
X641177Y746630D03*
Y757654D03*
G54D13*
X31000Y339500D03*
Y336000D03*
X48000Y855950D03*
X47800Y851650D03*
Y848150D03*
X41700Y855850D03*
Y851550D03*
Y848050D03*
X48000Y859450D03*
X41700Y859350D03*
X58800Y416500D03*
X83000Y416200D03*
X86500D03*
X63800Y415100D03*
X67300D03*
X58800Y420000D03*
X89700Y436900D03*
X93200D03*
X79200Y575500D03*
Y579000D03*
X89050Y586300D03*
X85550D03*
X89100Y582300D03*
X85600D03*
X93100Y582400D03*
X96600D03*
X105500Y658400D03*
Y661900D03*
X79000Y742900D03*
Y746400D03*
X72650Y786300D03*
X69150D03*
X70500Y778500D03*
Y775000D03*
X65500Y778500D03*
Y775000D03*
X59600Y851550D03*
Y848050D03*
X77900Y855850D03*
Y851650D03*
Y848150D03*
X65700Y855950D03*
X53900D03*
X71700Y855850D03*
X65700Y851650D03*
Y848150D03*
X53800Y851650D03*
Y848150D03*
X59600Y855850D03*
X71700Y851600D03*
Y848100D03*
X77900Y859350D03*
X65700Y859450D03*
X53900D03*
X71700Y859350D03*
X59600D03*
X128000Y320000D03*
Y323500D03*
X132000Y320000D03*
Y323500D03*
X119200Y436900D03*
X115700D03*
X117900Y431700D03*
Y428200D03*
X122200Y431800D03*
Y428300D03*
X119200Y441000D03*
X115700D03*
X117600Y464800D03*
X114100D03*
X117600Y460800D03*
X114100D03*
X112300Y422100D03*
X108800D03*
X117600Y456800D03*
X114100D03*
X112300Y418000D03*
X108800D03*
X112300Y426200D03*
X108800D03*
X120100Y452700D03*
X123600D03*
X123300Y435800D03*
X126800D03*
X126500Y444500D03*
X130000D03*
X120300Y445000D03*
Y448500D03*
X115900Y516600D03*
Y520100D03*
X120000Y516600D03*
Y520100D03*
X128400D03*
Y516600D03*
X124600Y634500D03*
X121100D03*
X117000Y634000D03*
X113500D03*
X126900Y684400D03*
Y687900D03*
X112600Y658600D03*
X116100D03*
X132100Y642100D03*
Y638600D03*
X120900Y639200D03*
Y642700D03*
X116300Y646600D03*
X112800D03*
X112700Y642600D03*
Y639100D03*
X128000Y638600D03*
Y642100D03*
X116900Y643100D03*
Y639600D03*
X116100Y652300D03*
X112600D03*
X120800Y674800D03*
X117300D03*
X112600Y662700D03*
X116100D03*
X131000Y701100D03*
Y704600D03*
X135000Y701100D03*
Y704600D03*
X152600Y719100D03*
Y722600D03*
X124800Y699100D03*
Y702600D03*
X130600Y695200D03*
X127100D03*
X148600Y738350D03*
Y741850D03*
X120600Y702600D03*
Y699100D03*
X156900Y793600D03*
X153400D03*
X153800Y789200D03*
X150300D03*
X152300Y764050D03*
Y767550D03*
X106500Y777400D03*
X110000D03*
X142150Y769200D03*
X145650D03*
X160900Y793600D03*
X157900Y789200D03*
X141400Y781400D03*
X144900D03*
X149000D03*
X152500D03*
X138050Y760600D03*
X141550D03*
X138150Y764800D03*
X141650D03*
X210200Y431500D03*
Y435000D03*
X206200Y431500D03*
Y435000D03*
X215000Y466900D03*
Y462800D03*
X215100Y459300D03*
X214300Y431600D03*
Y435100D03*
X211000Y450800D03*
Y447300D03*
X203900Y464300D03*
Y460800D03*
X215100Y450800D03*
Y447300D03*
X197900Y434800D03*
Y438300D03*
X198900Y464400D03*
Y460900D03*
X202400Y515100D03*
X198900D03*
X194700Y561300D03*
Y564800D03*
X185300Y571800D03*
Y575300D03*
X201700Y565800D03*
Y562300D03*
X190700Y567900D03*
X187200D03*
X194100Y530000D03*
X190600D03*
X187200Y564300D03*
X190700D03*
X187200Y560800D03*
X190700D03*
X186700Y608400D03*
X183200D03*
X194900Y591800D03*
Y595300D03*
X188000Y617500D03*
X184500D03*
X215800Y606900D03*
Y610400D03*
X173300Y633200D03*
X169800D03*
X173300Y629200D03*
X169800D03*
X209400Y619700D03*
Y623200D03*
X181900Y636500D03*
X185400D03*
X177000Y614200D03*
Y617700D03*
X177100Y621700D03*
Y625200D03*
X165800Y608000D03*
X169300D03*
X188000Y613500D03*
X184500D03*
X171300Y612700D03*
X167800D03*
X201800Y625300D03*
Y621800D03*
X202000Y633900D03*
X173300Y641200D03*
X169800D03*
X173300Y637200D03*
X169800D03*
X188300Y689000D03*
X184800D03*
X182400Y645802D03*
X185900D03*
X182400Y640624D03*
X185900D03*
X182850Y668600D03*
X186350D03*
Y672800D03*
X182850D03*
X202000Y637400D03*
X204600Y724250D03*
Y720750D03*
X187800Y784600D03*
X191300D03*
X173300Y789600D03*
Y793100D03*
X164400Y793600D03*
X169200Y789600D03*
Y793100D03*
X169000Y775300D03*
Y778800D03*
X161400Y789200D03*
X168900Y768900D03*
Y765400D03*
X176200Y777450D03*
Y773950D03*
X239900Y452400D03*
Y448900D03*
X230100Y462700D03*
X233600D03*
X218500Y466900D03*
Y462800D03*
X226200Y466900D03*
X222700D03*
X226100Y462800D03*
X222600D03*
X247500Y426900D03*
Y430400D03*
X230200Y466800D03*
X233700D03*
X218600Y459300D03*
X265000Y420700D03*
Y417200D03*
X218400Y431700D03*
Y435200D03*
X233100Y452500D03*
Y449000D03*
X243400Y427000D03*
Y430500D03*
X244000Y434600D03*
X247500D03*
X267700Y446300D03*
X271200D03*
X259800Y546200D03*
X263300D03*
X259700Y554600D03*
X263200D03*
X245900Y571900D03*
Y575400D03*
X259700Y551100D03*
X263200D03*
X232700Y580500D03*
X229200D03*
X255700Y580700D03*
Y577200D03*
X248100Y581700D03*
X251600D03*
X245500Y567900D03*
Y564400D03*
X245400Y560400D03*
Y556900D03*
X253700Y553900D03*
X250200D03*
X249400Y549900D03*
Y546400D03*
X253400Y549900D03*
Y546400D03*
X241500Y552500D03*
X245000D03*
X237500D03*
X234000D03*
X234900Y545700D03*
X231400D03*
X238900D03*
X242400D03*
X258100Y584800D03*
Y588300D03*
X271100Y589300D03*
Y592800D03*
X245900Y587900D03*
Y591400D03*
X249700Y620200D03*
Y616700D03*
X245700Y615200D03*
Y618700D03*
X233300Y604200D03*
Y600700D03*
X235000Y591100D03*
X231500D03*
X263900Y585200D03*
X267400D03*
X246900Y628900D03*
Y632400D03*
X224300Y610100D03*
X220800D03*
X260700Y628200D03*
X264200D03*
X261700Y614600D03*
X265200D03*
X234300Y612200D03*
X237800D03*
X260700Y624200D03*
X264200D03*
X255200Y616600D03*
Y613100D03*
X254100Y587400D03*
X250600D03*
X237000Y619700D03*
Y616200D03*
X221300Y584900D03*
X217800D03*
X265200Y618100D03*
X261700D03*
X249300Y598800D03*
Y595300D03*
X239800Y594000D03*
Y590500D03*
X262400Y599800D03*
Y596300D03*
X258300Y597800D03*
Y594300D03*
X250200Y606300D03*
X253700D03*
X246000Y606900D03*
Y603400D03*
X239700Y606700D03*
Y603200D03*
X229400Y631500D03*
Y635000D03*
X225400Y585000D03*
X228900D03*
X240900Y622600D03*
Y626100D03*
X268600Y600500D03*
X265700Y636600D03*
X229100Y624000D03*
Y627500D03*
X237000Y660400D03*
Y663900D03*
X231200Y645000D03*
Y648500D03*
X229400Y639200D03*
X225900D03*
X261600Y664400D03*
Y667900D03*
X241600Y663800D03*
Y660300D03*
X266300Y644100D03*
X262800D03*
X265700Y640100D03*
X257700Y664300D03*
Y667800D03*
X266200Y665800D03*
Y669300D03*
X269900Y694300D03*
Y697800D03*
X305000Y174000D03*
Y170500D03*
X294000Y174000D03*
Y170500D03*
X299000Y461800D03*
Y458300D03*
X294200Y466900D03*
X290700D03*
X303200Y461800D03*
Y458300D03*
X283100Y552400D03*
X286600D03*
X291000Y562800D03*
Y566300D03*
X290000Y557800D03*
X293500D03*
X291000Y570300D03*
Y573800D03*
X279400Y568100D03*
X282900D03*
X295400Y635800D03*
X291900D03*
X276300Y589300D03*
Y592800D03*
X308500Y603000D03*
X305000D03*
X305100Y607100D03*
X308600D03*
X291800Y627800D03*
Y631300D03*
X279800Y636800D03*
X308800Y633900D03*
X295800Y627800D03*
Y631300D03*
X290722Y590250D03*
Y593750D03*
X285900Y597978D03*
X289400D03*
X282800Y586728D03*
X286300D03*
X274600Y633300D03*
Y629800D03*
X272100Y600500D03*
X305100Y611200D03*
X308600D03*
X308400Y599000D03*
X304900D03*
X305300Y637000D03*
X280500Y616100D03*
X277000D03*
X322600Y599700D03*
Y596200D03*
X279800Y640300D03*
X291900Y651800D03*
X295400D03*
X291900Y643800D03*
X295400D03*
X291900Y647800D03*
X295400D03*
X312600Y690750D03*
Y687250D03*
X308800Y637400D03*
Y644500D03*
Y641000D03*
X291900Y639800D03*
X295400D03*
X274100Y643700D03*
Y647200D03*
X272500Y665800D03*
Y669300D03*
X292150Y685200D03*
X295650D03*
X292150Y689300D03*
X295650D03*
X282600Y688150D03*
Y691650D03*
X278400Y688150D03*
Y691650D03*
X286800Y688150D03*
Y691650D03*
X291900Y659800D03*
X295400D03*
X291900Y655800D03*
X295400D03*
X305300Y640500D03*
X279000Y667750D03*
Y671250D03*
X283000Y667750D03*
Y671250D03*
X282050Y718100D03*
X285550D03*
X294600Y736050D03*
Y732550D03*
X316650Y723700D03*
X313150D03*
X305000Y702150D03*
Y705650D03*
X282050Y710000D03*
X285550D03*
X316750Y713900D03*
X313250D03*
X292600Y702150D03*
Y705650D03*
X282050Y714000D03*
X285550D03*
X296800Y702150D03*
Y705650D03*
X300900Y702150D03*
Y705650D03*
X311700Y701450D03*
Y704950D03*
X282650Y704100D03*
X286150D03*
X316650Y717900D03*
X313150D03*
X316750Y709900D03*
X313250D03*
X282350Y723500D03*
X285850D03*
X285950Y729800D03*
X282450D03*
X309200Y736050D03*
Y732550D03*
X312800Y735950D03*
Y732450D03*
X302400Y735850D03*
Y732350D03*
X318000Y743750D03*
Y740250D03*
X315900Y701450D03*
Y704950D03*
X280400Y795300D03*
Y791800D03*
X289500Y791400D03*
Y794900D03*
X304600Y832350D03*
Y835850D03*
X308300Y832250D03*
Y835750D03*
X315750Y842000D03*
X312250D03*
X315750Y838000D03*
X312250D03*
Y846000D03*
X315750D03*
X347700Y173950D03*
Y170450D03*
X358300Y174050D03*
Y170550D03*
X362100Y450600D03*
Y454100D03*
X358000Y450600D03*
Y454100D03*
X352700Y467000D03*
X349200D03*
X352700Y463000D03*
X349200D03*
X350500Y455000D03*
X347000D03*
X356700Y461400D03*
X360200D03*
X356700Y465400D03*
X360200D03*
X350500Y459000D03*
X347000D03*
X356400Y525200D03*
X352900D03*
X355000Y516400D03*
X358500D03*
X348700Y523100D03*
Y526600D03*
X356400Y521200D03*
X352900D03*
X360500Y520400D03*
Y523900D03*
X351000Y531200D03*
X347500D03*
X351000Y535300D03*
X347500D03*
X346650Y552500D03*
X350150D03*
X350200Y548400D03*
X346700D03*
Y600000D03*
Y596500D03*
X365350Y592393D03*
Y588893D03*
X343700Y609400D03*
Y612900D03*
X348100Y609200D03*
Y612700D03*
X352700Y636000D03*
X357700D03*
X358000Y609300D03*
X361500D03*
X343300Y636200D03*
X352700Y639500D03*
X357700D03*
X343300Y639700D03*
X359000Y802250D03*
Y798750D03*
X363000Y802250D03*
Y798750D03*
X367000Y802250D03*
Y798750D03*
X370000Y851250D03*
Y854750D03*
X329250Y811000D03*
X332750D03*
X344000Y842750D03*
Y839250D03*
X372250Y827000D03*
X375750D03*
X350300Y808250D03*
Y811750D03*
X341400Y808550D03*
Y812050D03*
X362750Y831000D03*
X359250D03*
X328250Y821000D03*
X331750D03*
X329250Y831000D03*
X332750D03*
X362750Y827000D03*
X359250D03*
X340000Y842750D03*
Y839250D03*
X345500Y808350D03*
Y811850D03*
X332750Y837000D03*
X329250D03*
X334800Y854500D03*
Y851000D03*
X337000Y805550D03*
Y809050D03*
X330700Y854500D03*
Y851000D03*
X369100Y808000D03*
X365600D03*
X432300Y347750D03*
Y351250D03*
X396900Y441600D03*
X393400D03*
X399800Y455100D03*
Y458600D03*
X403800D03*
Y455100D03*
X386000Y448000D03*
X389500D03*
X391600Y459900D03*
Y456400D03*
X395600Y455000D03*
Y458500D03*
X386500Y472500D03*
X383000D03*
X400300Y502850D03*
Y506350D03*
X396300Y502850D03*
Y506350D03*
X421350Y518600D03*
X417850D03*
X404300Y506350D03*
Y502850D03*
X396500Y540809D03*
X400000D03*
X387500Y793250D03*
Y796750D03*
X383500Y793250D03*
Y796750D03*
X412750Y751500D03*
X416250D03*
X412750Y747500D03*
X416250D03*
X412250Y783000D03*
X415750D03*
X412250Y768000D03*
X415750D03*
X434917Y851559D03*
X489250Y657500D03*
X473750Y656000D03*
X470250D03*
Y664000D03*
X473750D03*
X470250Y660000D03*
X473750D03*
Y668000D03*
X470250D03*
X438417Y851559D03*
X500000Y610760D03*
Y614260D03*
X492750Y657500D03*
X576104Y359417D03*
Y362917D03*
X571750Y424500D03*
X568250D03*
X639745Y763508D03*
X636245D03*
X607600Y896800D03*
X616800Y885750D03*
Y882250D03*
X679045Y812830D03*
X675545D03*
X679245Y817530D03*
X675745D03*
G54D31*
X98200Y681100D03*
Y690100D03*
X88500Y676800D03*
Y667800D03*
X149500Y683400D03*
Y674400D03*
X133900Y679700D03*
Y688700D03*
X141700Y674300D03*
Y683300D03*
X193500Y660600D03*
Y669600D03*
X201000Y660600D03*
Y669600D03*
G54D40*
X139796Y9500D03*
X156804D03*
X139796Y41000D03*
X156804D03*
X268704Y-67200D03*
X251696D03*
X269104Y-23200D03*
X252096D03*
X568504Y59500D03*
X551496D03*
G54D106*
X560890Y718791D03*
X558921D03*
X556953D03*
X554984D03*
X553016D03*
X551047D03*
X549079D03*
X547110D03*
G54D22*
X63398Y319000D03*
X75602D03*
X204202Y190300D03*
X191998D03*
X323102Y244500D03*
X310898D03*
X322198Y693400D03*
X324298Y707000D03*
X334402Y693400D03*
X336502Y707000D03*
X373102Y818000D03*
X360898D03*
X376898Y853000D03*
Y839000D03*
X389102Y853000D03*
Y839000D03*
X510702Y242700D03*
X498498D03*
X510702Y284700D03*
X498498D03*
X510702Y256700D03*
X498498D03*
X510702Y270700D03*
X498498D03*
X515402Y883000D03*
X503198D03*
X515402Y910000D03*
X503198D03*
X515402Y896500D03*
X503198D03*
X515402Y923500D03*
X503198D03*
X515402Y937000D03*
X503198D03*
X600898Y428500D03*
X635102D03*
X622898D03*
X613102D03*
G54D50*
X152000Y911122D03*
Y913878D03*
G54D14*
X35420Y524488D03*
Y521339D03*
Y581181D03*
Y578032D03*
Y574882D03*
Y571732D03*
Y568583D03*
Y565433D03*
Y562284D03*
Y559134D03*
Y555984D03*
Y552835D03*
Y549685D03*
Y546535D03*
Y543386D03*
Y540236D03*
Y537087D03*
Y533937D03*
Y530787D03*
Y527638D03*
Y634724D03*
Y631575D03*
Y628425D03*
Y625276D03*
Y622126D03*
Y618976D03*
Y615827D03*
Y612677D03*
Y609528D03*
Y606378D03*
Y603228D03*
Y600079D03*
Y691417D03*
Y688268D03*
Y685118D03*
Y681969D03*
Y678819D03*
Y659921D03*
Y656772D03*
Y653622D03*
Y650472D03*
Y647323D03*
Y644173D03*
Y641024D03*
Y637874D03*
Y738661D03*
Y735512D03*
Y732362D03*
Y729213D03*
Y726063D03*
Y722913D03*
Y719764D03*
Y716614D03*
Y713465D03*
Y710315D03*
Y707165D03*
Y704016D03*
Y700866D03*
Y697716D03*
Y694567D03*
X57979Y524488D03*
Y521339D03*
Y581181D03*
Y578032D03*
Y574882D03*
Y571732D03*
Y568583D03*
Y565433D03*
Y562284D03*
Y559134D03*
Y555984D03*
Y552835D03*
Y549685D03*
Y546535D03*
Y543386D03*
Y540236D03*
Y537087D03*
Y533937D03*
Y530787D03*
Y527638D03*
Y634724D03*
Y631575D03*
Y628425D03*
Y625276D03*
Y622126D03*
Y618976D03*
Y615827D03*
Y612677D03*
Y609528D03*
Y606378D03*
Y603228D03*
Y600079D03*
Y691417D03*
Y688268D03*
Y685118D03*
Y681969D03*
Y678819D03*
Y659921D03*
Y656772D03*
Y653622D03*
Y650472D03*
Y647323D03*
Y644173D03*
Y641024D03*
Y637874D03*
Y738661D03*
Y735512D03*
Y732362D03*
Y729213D03*
Y726063D03*
Y722913D03*
Y719764D03*
Y716614D03*
Y713465D03*
Y710315D03*
Y707165D03*
Y704016D03*
Y700866D03*
Y697716D03*
Y694567D03*
G54D116*
X651476Y901277D03*
Y898718D03*
Y896159D03*
Y893600D03*
Y891041D03*
Y888482D03*
Y885923D03*
X673524Y901277D03*
Y898718D03*
Y896159D03*
Y893600D03*
Y891041D03*
Y888482D03*
Y885923D03*
G54D23*
X106650Y319046D03*
X99150D03*
X102900Y327746D03*
X591602Y355800D03*
X587852Y364500D03*
X595352D03*
G54D32*
X93400Y747200D03*
Y771100D03*
X117800Y716400D03*
G54D41*
X132537Y16400D03*
X124663D03*
X132237Y36000D03*
X124363D03*
X191437Y35800D03*
X183563D03*
X207137D03*
X199263D03*
X167863D03*
X175737D03*
X268763Y-94200D03*
X276637D03*
X307937Y26400D03*
X300063D03*
X315663Y887400D03*
X323537D03*
X288137Y960400D03*
X280263D03*
X339763Y26850D03*
X347637D03*
X363337Y26550D03*
X355463D03*
X359737Y896000D03*
X351863D03*
X420587Y-43300D03*
X412713D03*
X426237Y893700D03*
X418363D03*
X595863Y410300D03*
X603737D03*
X632937Y439500D03*
X625063D03*
G54D107*
X547110Y705209D03*
X549079D03*
X551047D03*
X553016D03*
X554984D03*
X556953D03*
X558921D03*
X560890D03*
G54D24*
X62716Y333500D03*
X77284D03*
X648716Y215000D03*
X663284D03*
G54D60*
X243661Y839937D03*
X226339D03*
X243661Y837968D03*
X226339D03*
X243661Y836000D03*
X226339D03*
X243661Y834032D03*
X226339D03*
X243661Y832063D03*
X226339D03*
G54D42*
X141120Y23900D03*
X143680D03*
X141120Y54000D03*
X143680D03*
X155080D03*
X152520D03*
X267434Y-131884D03*
X264875D03*
X267084Y-123184D03*
X264525D03*
X267284Y-117284D03*
X264725D03*
G54D51*
X150000Y922063D03*
Y929937D03*
X164300Y3563D03*
Y11437D03*
X252100Y-44563D03*
Y-52437D03*
X251800Y-563D03*
Y-8437D03*
X235500Y34063D03*
Y41937D03*
X291750Y26463D03*
Y34337D03*
X412850Y-3974D03*
Y-11848D03*
X481500Y194563D03*
Y202437D03*
X592500Y435063D03*
Y442937D03*
G54D33*
X99141Y746216D03*
Y744247D03*
Y742279D03*
X87659D03*
Y744247D03*
Y746216D03*
X99141Y776021D03*
Y774053D03*
Y772084D03*
Y770116D03*
Y768147D03*
Y766179D03*
X87659D03*
Y768147D03*
Y770116D03*
Y772084D03*
Y774053D03*
Y776021D03*
X99141Y752121D03*
Y750153D03*
Y748184D03*
X87659D03*
Y750153D03*
Y752121D03*
X123541Y721321D03*
Y719353D03*
Y717384D03*
Y715416D03*
Y713447D03*
Y711479D03*
X112059D03*
Y713447D03*
Y715416D03*
Y717384D03*
Y719353D03*
Y721321D03*
G54D117*
X609000Y949624D03*
Y977576D03*
G54D15*
X46680Y519488D03*
Y582992D03*
Y598228D03*
Y661732D03*
Y676969D03*
Y740473D03*
G54D108*
X562760Y709047D03*
Y714953D03*
G54D34*
X97870Y832250D03*
Y834750D03*
Y837250D03*
Y839750D03*
Y842250D03*
Y844750D03*
Y847250D03*
Y849750D03*
X119130Y832250D03*
Y834750D03*
Y837250D03*
Y839750D03*
Y842250D03*
Y844750D03*
Y847250D03*
Y849750D03*
G54D109*
X592000Y936731D03*
Y928069D03*
G54D70*
X335500Y897500D03*
X425500Y-22700D03*
G54D118*
X679500Y87720D03*
Y90280D03*
Y100780D03*
Y98221D03*
G54D43*
X119000Y304461D03*
Y319539D03*
G54D52*
X208500Y-31150D03*
X213500D03*
X208500Y-10650D03*
X213500D03*
X218500Y-31150D03*
X223500D03*
X218500Y-10650D03*
X223500D03*
G54D25*
X75000Y418300D03*
X84000Y459300D03*
Y445300D03*
X75000Y432300D03*
X100100Y419100D03*
Y433100D03*
X72000Y729000D03*
Y743000D03*
X159400Y767100D03*
Y781100D03*
X134600Y789700D03*
Y803700D03*
X131100Y770100D03*
Y756100D03*
X330800Y616600D03*
Y602600D03*
G54D61*
X269000Y821000D03*
Y816000D03*
X299000Y821000D03*
Y816000D03*
G54D16*
X46680Y538740D03*
Y563740D03*
Y617480D03*
Y642480D03*
Y696220D03*
Y721220D03*
G54D62*
X314600Y636347D03*
Y642253D03*
G54D17*
X24068Y668242D03*
Y673558D03*
X22100Y668242D03*
Y673558D03*
X20132Y668242D03*
Y673558D03*
G54D80*
X419931Y347640D03*
Y340160D03*
X411269Y343900D03*
G54D119*
X673604Y793563D03*
Y783327D03*
X677344Y793563D03*
X681084D03*
Y783327D03*
G54D44*
X131402Y280500D03*
X119198D03*
X209795Y140500D03*
X222000D03*
X235898Y284000D03*
X248102D03*
X292102Y16500D03*
X279898D03*
X322198Y10100D03*
X334402D03*
X476700Y956800D03*
X488905D03*
G54D35*
X89953Y832500D03*
X84047D03*
X89953Y847000D03*
X84047D03*
X89953Y839500D03*
X84047D03*
X121953Y327500D03*
X116047D03*
X113547Y855500D03*
X119453D03*
X128547Y848500D03*
X134453D03*
X157047Y912000D03*
X212953Y111000D03*
X207047D03*
X184953Y359500D03*
X179047D03*
X184597Y817350D03*
X190503D03*
X195853Y848600D03*
X189947D03*
X162953Y912000D03*
X182753Y911900D03*
X176847D03*
X268453Y834500D03*
X262547D03*
X314547Y26500D03*
X320453D03*
X326847Y27050D03*
X326547Y754500D03*
X332753Y27050D03*
X370147Y26750D03*
X376053D03*
X332453Y754500D03*
X414047Y173000D03*
X419953D03*
X435547Y342000D03*
X418453Y378500D03*
X412547D03*
X421047Y783000D03*
X426953D03*
X400553Y982300D03*
X394647D03*
X462547Y166500D03*
X468453D03*
X441453Y342000D03*
X511047Y380500D03*
X516953D03*
X511047Y373500D03*
X516953D03*
X579953Y378000D03*
X574047D03*
X594547Y723000D03*
X600453D03*
X633047Y234000D03*
X638953D03*
X624453Y353000D03*
X618547D03*
X607447D03*
X613353D03*
X618047Y345500D03*
X623953D03*
G54D26*
X52200Y414000D03*
Y420000D03*
X92300Y443700D03*
Y449700D03*
X78200Y775900D03*
Y781900D03*
X78100Y754100D03*
Y760100D03*
X147500Y704200D03*
Y698200D03*
X154600Y704200D03*
Y698200D03*
X140700Y704000D03*
Y698000D03*
X147000Y756400D03*
Y762400D03*
X143500Y788400D03*
Y794400D03*
X122100Y784900D03*
Y778900D03*
X209300Y459500D03*
Y465500D03*
X185200Y580600D03*
Y586600D03*
X168300Y657100D03*
Y663100D03*
X196800Y784500D03*
Y790500D03*
X176100Y768300D03*
Y762300D03*
X230700Y413500D03*
X244300Y413400D03*
X237400Y413600D03*
X251000Y413400D03*
X258200Y413300D03*
X230700Y419500D03*
X244300Y419400D03*
X237400Y419600D03*
X251000Y419400D03*
X258200Y419300D03*
X259800Y434300D03*
Y440300D03*
X268800Y433500D03*
Y439500D03*
X245300Y445200D03*
Y451200D03*
X253100Y434300D03*
Y440300D03*
X225200Y435000D03*
Y441000D03*
X230000Y661500D03*
Y667500D03*
X323100Y962200D03*
Y956200D03*
G54D71*
X337468Y903012D03*
X335500D03*
X333532D03*
Y891988D03*
X335500D03*
X337468D03*
X423532Y-28212D03*
X425500D03*
X427469D03*
Y-17188D03*
X425500D03*
X423532D03*
G54D53*
X219100Y418400D03*
X191100D03*
X256000Y458600D03*
X284000D03*
G54D81*
X402244Y499489D03*
Y493977D03*
X592350Y374144D03*
Y379656D03*
G54D18*
X25958Y782668D03*
X20643D03*
X25958Y780700D03*
X20643D03*
X25958Y778732D03*
X20643D03*
G54D36*
X93428Y904200D03*
X71972D03*
G54D45*
X110394Y509237D03*
X112756D03*
X115118D03*
X117480D03*
X119843D03*
X122205D03*
X124567D03*
X126929D03*
X129291D03*
X131654D03*
X134016D03*
X136378D03*
X138740D03*
X141102D03*
X143465D03*
X145827D03*
X148189D03*
X150551D03*
X152913D03*
X155276D03*
X157638D03*
X160000D03*
X111575Y476953D03*
X113937D03*
X116299D03*
X118661D03*
X121024D03*
X123386D03*
X125748D03*
X128110D03*
X130472D03*
X132835D03*
X135197D03*
X137559D03*
X139921D03*
X142283D03*
X144646D03*
X147008D03*
X149370D03*
X151732D03*
X154094D03*
X156457D03*
X158819D03*
X162362Y509237D03*
X164724D03*
X167087D03*
X169449D03*
X171811D03*
X174173D03*
X176535D03*
X178898D03*
X181260D03*
X183622D03*
X185984D03*
X188346D03*
X190709D03*
X193071D03*
X161181Y476953D03*
X163543D03*
X165906D03*
X168268D03*
X170630D03*
X172992D03*
X175354D03*
X177717D03*
X180079D03*
X182441D03*
X184803D03*
X187165D03*
X189528D03*
X191890D03*
X194252D03*
X204882Y509237D03*
X207244D03*
X209606D03*
X211969D03*
X214331D03*
X206063Y476953D03*
X208425D03*
X210787D03*
X213150D03*
X215512D03*
X216693Y509237D03*
X219055D03*
X221417D03*
X223780D03*
X226142D03*
X228504D03*
X230866D03*
X233228D03*
X235591D03*
X237953D03*
X240315D03*
X242677D03*
X245039D03*
X247402D03*
X249764D03*
X252126D03*
X254488D03*
X256850D03*
X259213D03*
X261575D03*
X263937D03*
X266299D03*
X268661D03*
X271024D03*
X217874Y476953D03*
X220236D03*
X222598D03*
X224961D03*
X227323D03*
X229685D03*
X232047D03*
X234409D03*
X236772D03*
X239134D03*
X241496D03*
X243858D03*
X246220D03*
X248583D03*
X250945D03*
X253307D03*
X255669D03*
X258031D03*
X260394D03*
X262756D03*
X265118D03*
X267480D03*
X269843D03*
X273386Y509237D03*
X275748D03*
X278110D03*
X280472D03*
X282835D03*
X285197D03*
X287559D03*
X289921D03*
X292283D03*
X294646D03*
X297008D03*
X299370D03*
X301732D03*
X304094D03*
X306457D03*
X308819D03*
X311181D03*
X313543D03*
X315906D03*
X318268D03*
X320630D03*
X322992D03*
X325354D03*
X272205Y476953D03*
X274567D03*
X276929D03*
X279291D03*
X281654D03*
X284016D03*
X286378D03*
X288740D03*
X291102D03*
X293465D03*
X295827D03*
X298189D03*
X300551D03*
X302913D03*
X305276D03*
X307638D03*
X310000D03*
X312362D03*
X314724D03*
X317087D03*
X319449D03*
X321811D03*
X324173D03*
X327717Y509237D03*
X330079D03*
X332441D03*
X334803D03*
X337165D03*
X339528D03*
X341890D03*
X344252D03*
X346614D03*
X348976D03*
X351339D03*
X353701D03*
X356063D03*
X358425D03*
X326535Y476953D03*
X328898D03*
X331260D03*
X333622D03*
X335984D03*
X338346D03*
X340709D03*
X343071D03*
X345433D03*
X347795D03*
X350157D03*
X352520D03*
X354882D03*
X357244D03*
X359606D03*
G54D54*
X214863Y691091D03*
Y694240D03*
Y697390D03*
Y700540D03*
Y703689D03*
Y706839D03*
Y709988D03*
Y713138D03*
Y728886D03*
Y732036D03*
Y735185D03*
Y738335D03*
Y741484D03*
Y744634D03*
Y747784D03*
Y750933D03*
Y754083D03*
Y757233D03*
Y760382D03*
Y763532D03*
Y766681D03*
Y769831D03*
Y772981D03*
Y776130D03*
Y779280D03*
Y782429D03*
X247147Y692666D03*
Y695815D03*
Y698965D03*
Y702114D03*
Y705264D03*
Y708414D03*
Y711563D03*
Y714713D03*
Y730461D03*
Y733610D03*
Y736760D03*
Y739910D03*
Y743059D03*
Y746209D03*
Y749359D03*
Y752508D03*
Y755658D03*
Y758807D03*
Y761957D03*
Y765107D03*
Y768256D03*
Y771406D03*
Y774555D03*
Y777705D03*
Y780855D03*
Y784004D03*
G54D27*
X90000Y422100D03*
X84000D03*
X101900Y721000D03*
X95900D03*
X156300Y638300D03*
X162300D03*
X139500Y739900D03*
X133500D03*
X151000Y774600D03*
X145000D03*
X162200Y756000D03*
X116400Y751700D03*
X122400D03*
X197800Y581300D03*
X191800D03*
X196600Y574700D03*
X190600D03*
X165600Y669600D03*
X171600D03*
X175200Y735000D03*
X181200D03*
X194000D03*
X188000D03*
X168200Y756000D03*
X272400Y417700D03*
X271400Y518500D03*
X265400D03*
X278400Y417700D03*
X280000Y786000D03*
X286000D03*
X343800Y541000D03*
X349800D03*
X346000Y798600D03*
X340000D03*
G54D72*
X329988Y899468D03*
Y897500D03*
Y895532D03*
X341012D03*
Y897500D03*
Y899468D03*
X431012Y-24668D03*
Y-22700D03*
Y-20732D03*
X419988D03*
Y-22700D03*
Y-24668D03*
G54D90*
X451358Y268303D03*
Y318697D03*
X453058Y947051D03*
Y981697D03*
G54D63*
X298600Y931300D03*
Y922400D03*
X446500Y61700D03*
Y52800D03*
G54D91*
X475100Y276946D03*
Y270254D03*
G54D82*
X397760Y513724D03*
X399728D03*
X401697D03*
X403665D03*
X405634D03*
X407602D03*
Y529276D03*
X405634D03*
X403665D03*
X401697D03*
X399728D03*
X397760D03*
G54D28*
X105866Y540339D03*
X364134D03*
G54D73*
X373500Y933488D03*
X378500D03*
X397429D03*
X402429D03*
X407429D03*
X412429D03*
X383500D03*
X388500D03*
G54D64*
X306400Y919350D03*
Y924350D03*
Y929350D03*
Y934350D03*
X285400D03*
Y929350D03*
Y924350D03*
Y919350D03*
X433300Y64750D03*
Y59750D03*
Y54750D03*
Y49750D03*
X454300D03*
Y54750D03*
Y59750D03*
Y64750D03*
G54D46*
X147600Y637000D03*
X138600D03*
X118700Y668600D03*
X109700D03*
X162200Y677000D03*
X143000Y732500D03*
X134000D03*
X143500Y747300D03*
X134500D03*
X176000Y662500D03*
X185000D03*
X171200Y677000D03*
G54D37*
X153308Y-20700D03*
X179292D03*
X314492Y-15300D03*
X288508D03*
X341708Y-16200D03*
X367692D03*
X480958Y-34700D03*
X506942D03*
X533142Y33550D03*
X507158D03*
G54D55*
X217213Y679870D03*
Y795225D03*
G54D19*
X40500Y900602D03*
Y888398D03*
X56000Y900602D03*
Y888398D03*
X125500Y902102D03*
Y889898D03*
X112000Y902102D03*
Y889898D03*
X260050Y900302D03*
Y888098D03*
X273550Y900302D03*
Y888098D03*
X259950Y910948D03*
Y923152D03*
X320000Y350398D03*
Y362602D03*
X327700Y726498D03*
Y738702D03*
X287650Y900352D03*
Y888148D03*
X337500Y350398D03*
Y362602D03*
X351500Y350398D03*
Y362602D03*
X487800Y943602D03*
Y931398D03*
X474300Y943602D03*
Y931398D03*
X585300Y905898D03*
Y918102D03*
G54D92*
X463402Y415000D03*
Y410000D03*
X438598Y415000D03*
Y410000D03*
X463402Y445000D03*
Y440000D03*
Y435000D03*
Y430000D03*
Y425000D03*
Y420000D03*
X438598Y445000D03*
Y440000D03*
Y435000D03*
Y430000D03*
Y425000D03*
Y420000D03*
G54D74*
X373500Y955004D03*
X378500D03*
X397429D03*
X402429D03*
X407429D03*
X412429D03*
X383500D03*
X388500D03*
G54D83*
X410457Y516579D03*
Y518547D03*
Y520516D03*
Y522484D03*
Y524453D03*
Y526421D03*
X394905D03*
Y524453D03*
Y522484D03*
Y520516D03*
Y518547D03*
Y516579D03*
G54D29*
X106700Y626900D03*
X100700Y712400D03*
X86700D03*
X84700Y729700D03*
X98700D03*
X120700Y626900D03*
X152400Y594300D03*
X162700Y685900D03*
X166400Y594300D03*
X176700Y685900D03*
X189500Y801300D03*
X175500D03*
X272700Y804800D03*
X321000Y669900D03*
Y660000D03*
X298800Y765300D03*
X312800D03*
X286700Y804800D03*
X335000Y669900D03*
Y660000D03*
G54D56*
X171021Y714559D03*
X169053D03*
X167084D03*
X165116D03*
X163147D03*
X161179D03*
Y726041D03*
X163147D03*
X165116D03*
X167084D03*
X169053D03*
X171021D03*
X194921Y714559D03*
X192953D03*
X190984D03*
X189016D03*
X187047D03*
X185079D03*
Y726041D03*
X187047D03*
X189016D03*
X190984D03*
X192953D03*
X194921D03*
X196921Y763759D03*
X194953D03*
X192984D03*
X191016D03*
X189047D03*
X187079D03*
Y775241D03*
X189047D03*
X191016D03*
X192984D03*
X194953D03*
X196921D03*
G54D47*
X132600Y623000D03*
X156616D03*
G54D38*
X149200Y-43733D03*
Y-72867D03*
X203100Y-72067D03*
Y-42933D03*
X177400Y-72167D03*
Y-43033D03*
X229300Y-72067D03*
Y-42933D03*
X315500Y-35233D03*
Y-64367D03*
X287100Y-35033D03*
Y-64167D03*
X343200Y-36633D03*
Y-65767D03*
X370600Y-37533D03*
Y-66667D03*
G54D65*
X316492Y919500D03*
X340508D03*
G54D84*
X394488Y545900D03*
X400000D03*
X491071Y723456D03*
X491144Y712400D03*
X470157Y755500D03*
X475669D03*
X496583Y723456D03*
X496656Y712400D03*
X633056Y886500D03*
X627544D03*
G54D93*
X460450Y756650D03*
Y749150D03*
X451750Y752900D03*
G54D48*
X133400Y661196D03*
Y648204D03*
X153100Y661196D03*
Y648204D03*
X138700Y711704D03*
Y724696D03*
X301800Y799096D03*
Y786104D03*
G54D57*
X209500Y848000D03*
X204500D03*
X209500Y818000D03*
X204500D03*
G54D39*
X148300Y9500D03*
Y41000D03*
X260200Y-67200D03*
X260600Y-23200D03*
X560000Y59500D03*
G54D66*
X368000Y348399D03*
Y365801D03*
G54D75*
X410610Y80950D03*
X414390D03*
G54D58*
X179000Y928665D03*
X417000Y166665D03*
G54D49*
X166100Y720300D03*
X190000D03*
X192000Y769500D03*
G54D67*
X345850Y622550D03*
Y625100D03*
Y627650D03*
X353350D03*
Y622550D03*
Y625100D03*
G54D76*
X411000Y97000D03*
X491000D03*
X666500Y94000D03*
G54D94*
X441100Y930500D03*
X456600D03*
X495200Y974450D03*
X479700D03*
G54D85*
X430600Y931790D03*
Y928010D03*
G54D59*
X177032Y924335D03*
X180968D03*
X415032Y162335D03*
X418969D03*
G54D68*
X381801Y594947D03*
Y591207D03*
Y587466D03*
X392431D03*
Y591207D03*
Y594947D03*
G54D95*
X534492Y411000D03*
X558508D03*
G54D77*
X411000Y105504D03*
Y88496D03*
X491000Y105504D03*
Y88496D03*
X666500Y85496D03*
Y102504D03*
G54D86*
X448050Y-33538D03*
Y-9522D03*
X541800Y880992D03*
Y905008D03*
X648100Y405392D03*
Y429408D03*
G54D87*
X472878Y187100D03*
X470122D03*
G54D96*
X546563Y433339D03*
Y450661D03*
X554437Y433339D03*
Y450661D03*
X552469Y433339D03*
Y450661D03*
X550500Y433339D03*
Y450661D03*
X548532Y433339D03*
Y450661D03*
G54D69*
X346250Y728000D03*
Y733000D03*
Y738000D03*
Y743000D03*
Y748000D03*
Y753000D03*
Y758000D03*
Y763000D03*
Y768000D03*
Y773000D03*
Y778000D03*
Y783000D03*
X403750Y743000D03*
Y738000D03*
Y733000D03*
Y728000D03*
Y783000D03*
Y778000D03*
Y773000D03*
Y768000D03*
Y763000D03*
Y758000D03*
Y753000D03*
Y748000D03*
G54D78*
X442500Y301374D03*
Y293500D03*
Y285626D03*
Y277752D03*
Y309248D03*
X444200Y964374D03*
Y956500D03*
Y972248D03*
G54D79*
X404760Y354063D03*
X412240D03*
X408500Y361937D03*
X421960Y422163D03*
X429440D03*
X425700Y430037D03*
G54D88*
X472500Y303000D03*
X657000Y702000D03*
X657500Y727000D03*
X658000Y751000D03*
X675800Y765600D03*
G54D97*
X545240Y714953D03*
Y709047D03*
G54D98*
X495000Y780500D03*
G54D89*
X470138Y305520D03*
Y300480D03*
X471713Y305520D03*
Y300480D03*
X473287Y305520D03*
Y300480D03*
X474862Y305520D03*
Y300480D03*
X656213Y699480D03*
Y704520D03*
X654638Y699480D03*
Y704520D03*
X655138Y729520D03*
Y724480D03*
X656713Y729520D03*
Y724480D03*
X655638Y748480D03*
Y753520D03*
X659362Y699480D03*
Y704520D03*
X657787Y699480D03*
Y704520D03*
X658287Y729520D03*
Y724480D03*
X659862Y729520D03*
Y724480D03*
X673438Y768120D03*
Y763080D03*
X675013Y768120D03*
Y763080D03*
X676587Y768120D03*
Y763080D03*
X678162Y768120D03*
Y763080D03*
X660362Y748480D03*
Y753520D03*
X658787Y748480D03*
Y753520D03*
X657213Y748480D03*
Y753520D03*
G54D99*
X497520Y782862D03*
X492480D03*
X497520Y781287D03*
X492480D03*
X497520Y779713D03*
X492480D03*
X497520Y778138D03*
X492480D03*
M02*
