M48
INCH,LZ
VER,1
FMAT,2
T01C0.008F1B1S6H2000
T02C0.0118F1B1S6H2000
T03C0.012F1B1S6H2000
T04C0.016F1B1S6H2000
T05C0.0197F1B1S6H2000
T06C0.0256F1B1S6H2000
T07C0.0276F1B1S6H2000
T08C0.0315F1B1S6H2000
T09C0.035F1B1S6H2000
T10C0.0354F1B1S6H2000
T11C0.042F1B1S6H2000
T12C0.0433F1B1S6H2000
T13C0.045F1B1S6H2000
T14C0.0453F1B1S6H2000
T15C0.0472F1B1S6H2000
T16C0.0512F1B1S6H2000
T17C0.063F1B1S6H2000
T18C0.1063F1B1S6H2000
T19C0.1181F1B1S6H2000
DETECT,ON
ATC,ON
%
T01
X0592381Y0314462
Y0310543
X05924Y03233
Y0319374
X02346Y01382
X0069417Y0189964
X0107147Y019608
X006875Y026502
X043925Y021425
X04345Y00578
X02682Y00819
X063877Y012492
X04035Y02145
X02346Y01331
X0139157Y0210204
X0072266Y0190982
X06505Y0306
X04982Y01344
X040625Y018025
X0428105Y0154578
X048425Y018625
X06557Y03083
X0646Y03069
X06544Y02724
X06432Y02761
X06524Y02786
X06479Y0305
X04215Y01452
X0476303Y02459
X021Y00162
X0452Y00505
X04465
X01965Y00168
X0114Y00255
X01602Y00675
X01555Y005825
X020475Y003575
X0495Y006475
X04995Y0065
X0508Y006475
X048725
X020825Y003875
X049725Y002125
X04965Y00255
X04822Y00473
X0503Y002175
X049575Y007125
X050075
X050675
X05322Y00629
X05345Y00612
X05367Y00589
X05394Y0056
X0472Y00525
X04998Y00288
X0502Y00255
X03795Y011825
X05305Y00656
X0384Y010575
X02375Y00485
X02415Y00492
X024725Y004975
X0513Y0065
X05212Y0061
X05228Y00629
X05203Y00642
X05177Y0062
X05173Y00651
X06085Y00595
X028375Y00665
X06085Y0056
X02745Y00495
X060875Y00635
X02706Y00495
X05945Y006475
X05265Y00665
X059825Y006625
X05239Y00674
X05208Y00689
X0603Y00635
X05177Y00695
X0608Y00745
X059525Y0075
X06195Y006975
X020625Y002175
X0623Y0069
X0224Y0035
X062375Y00645
X0224Y00305
X02825Y0108
X0647Y00585
X0429125Y0065956
X02135Y007075
X064375Y00535
X0644Y00575
X02583Y00498
X02532
X0654Y0058
X02538Y00618
X065825Y005375
X0252Y00549
X066325Y005375
X0246Y0055
X02583Y00549
X02691Y00558
X030675Y012575
X051325Y007125
X04415Y00505
X04374Y00504
X0276Y007425
X02775Y00925
X028Y009
X028425Y0086
X02838Y01062
X021975Y00505
X036875Y00835
X067725Y00535
X0214Y003725
X067325Y005375
X021025Y003425
X06685Y005375
X020775Y003125
X02055Y00275
X067975Y005175
X02005Y002725
X068Y0044
X019975Y002225
X06795Y0039
X022975Y0048
X068425Y004225
X02305Y004475
X068475Y00345
X023Y00415
X02277Y00381
X02115Y004225
X021675Y004825
X021425Y00455
X067975Y004775
X048975Y007125
X02292Y00672
X02325Y00685
X028675Y0066
X062375Y006025
X043425Y007775
X0427879Y0064138
X023125Y007325
X02365Y007075
X022775Y007225
X02238Y00714
X0235Y007475
X024575Y0074
X064575Y002975
X0243Y00725
X064075Y001525
X02694Y00936
X06405Y0019
X0273Y009
X02442Y00636
X0641Y00105
X02475Y006675
X01675Y006
X0645Y0009
X01705Y0057
X0654Y0009
X02275Y0025
X06495Y000875
X0227Y0018
X06575Y0011
X024675Y002575
X0658Y001525
X02425Y0023
X0658Y0019
X0241Y00255
X064525Y0026
X02244Y00267
X06795Y00225
X022Y002575
X0678Y0018
X022425Y004775
X02215Y004475
X068475Y0023
X02346Y0063
X066875Y004725
X018225Y006675
X065925Y00395
X01825Y00595
X0659Y003225
X065625Y0038
X023825Y004225
X06535Y003475
X02425Y0039
X065325Y003025
X037375Y0082
X065325Y002575
X06635Y00225
X0659Y002475
X0223Y005275
X066525Y001825
X0472Y00265
X02647Y00852
X065375Y004675
X05425Y00555
X02193Y00708
X05476Y00617
X028975Y01005
X05452Y00583
X02875Y0103
X05538Y00668
X0245Y0079
X05509Y0064
X0288Y0118
X05359Y0049
X028775Y012025
X05323Y00495
X02385Y0076
X05725Y00405
X0242Y007775
X05725Y00225
X029375Y0066
X05653Y00238
X02643Y00555
X05685Y00225
X02649Y00495
X056175Y002725
X035825Y00595
X05615Y002275
X062075Y0048
X055925Y00275
X036425Y005925
X0557Y002825
X03745Y010875
X033175Y006525
X02394Y00636
X02395Y007175
X024025Y00675
X06365Y00575
X05596Y00576
X062375Y005475
X05623Y00596
X023925Y0018
X05577Y00552
X05565Y00507
X04745Y00425
X05526Y00498
X0475Y00285
X05508Y0048
X05485Y00454
X04789Y00429
X05414Y00426
X04864Y00432
X0533Y0024
X043175Y005675
X05335Y00279
X053275Y002075
X053825Y002125
X0377Y008825
X05372Y00464
X037875Y00905
X05397Y00528
X0378Y0085
X0576Y00225
X037475Y008575
X05391Y00446
X0319Y0097
X05227Y00494
X032025Y0099
X0526Y00526
X02895Y00805
X05287Y00558
X029125Y00785
X05229Y00584
X02948Y0075
X0468Y00265
X02965Y006175
X0464Y00265
X02901Y00615
X046Y00265
X043025Y007775
X027975Y00705
X0428Y00835
X0432Y0083
X04365Y008275
X0441Y008225
X037175Y01095
X037675Y0104
X038225
X037825Y011475
X0484Y00705
X048525Y00725
X0487Y0071
X02301Y0063
X022745Y006175
X06635Y0039
X065525Y00445
X01985Y007075
X041625Y0058
X066675Y004475
X041175Y006
X04265Y005025
X065075Y00585
X042225Y00555
X030125Y006175
X0306Y006675
X0301
X03035Y0075
Y006675
X0394Y006575
X0464Y0056
X04615Y004175
X04625Y004525
X0463Y004925
X040325Y006625
X020225Y003175
X040725Y006225
X0408Y005675
X040325Y005975
X030325Y010275
X039925Y0063
X0243Y00345
X03955Y00725
X02315Y0025
X040175Y007075
X0237Y00245
X046025Y00565
X0243Y0029
X04545Y005425
X024675Y0036
X04555Y005725
X045725Y00505
X0238Y00455
X04575Y005525
X024075Y0055
X06545Y0054
X04314Y00504
X0124Y00195
X042925Y005425
X0126Y0024
X0419Y008025
X01245Y00275
X0228Y00583
X022605Y005555
X015175Y003225
X03025Y012175
X014875Y003075
X047025Y004575
X018625Y0062
X0471Y00435
X013Y0024
X042275Y007975
X01305Y0042
X048325Y006475
X01347Y00413
X0126Y0042
X048Y0065
X0124Y0038
X02875Y008275
X020375Y007075
X0304Y01065
X0178Y005375
X018125Y005625
X01347Y00238
X036325Y010475
X0114Y00395
X0458Y00285
X01515Y0039
X04775Y00505
X0144Y003625
X04742Y00461
X014775Y003625
X06765Y0043
X014Y00375
X01385Y0025
X01985Y006025
X016475Y0022
X0383Y00915
X016975Y00225
X0209Y00635
X030625Y0075
X017375Y004875
X030925Y0075
X0175Y005225
X039025Y011225
X017125Y004575
X06265Y00585
X0152Y004525
X062775Y005475
X02085Y007075
X038875Y011075
X021175Y006025
X0215Y0063
X063975Y00535
X016425Y003475
X016225Y003875
X0538Y0025
X016375Y0026
X045275Y007
X0143Y00195
X024875Y00755
X04305Y006325
X016175Y002975
X0614Y007475
X016325Y004975
X06195Y00745
X016525Y0054
X060225Y006675
X016075Y0052
X060125Y0075
X0158Y0055
X0386Y01075
X017625Y006425
X038775Y010925
X017325Y00625
X033575Y006525
X017925Y00645
X03405Y008125
X018925Y007075
X040225Y010175
X018525Y00695
X04385Y007775
X019325Y007075
X040325Y0107
X0156Y00335
X038775Y009875
X013975Y0028
X038975Y010075
X01905Y006325
X05765Y00405
X016875Y0027
X040125Y007625
X01595Y003275
X014425Y00295
X036825Y01275
X0124Y0033
X03705Y0125
X016675Y003125
X037175Y012275
X016775Y00445
X0375Y011775
X031075Y01275
X0205Y006375
X0423Y0069
X01945Y0063
X0425333Y0066306
X0219Y00635
X0399Y0104
X020175Y006275
X03955Y010025
X0165Y0042
X04275Y007775
X044925Y007
X044275Y00775
X04495Y007575
X04245Y00775
X04815Y007325
X040149Y0104311
X04225Y008425
X04545Y009675
X044925
X044375Y0097
X04385
X043275
X0427
X0422
X0418Y009925
X040475Y01035
X0481Y00705
X047225Y007325
X047525Y007225
X04785Y00715
X05398Y00409
X0469Y007425
X0466Y00745
X0463Y0071
X046025Y0072
X0102Y00195
X04565Y007
X0457Y007325
X047175Y006825
X047475Y006725
X058625Y00285
X047725Y0066
X044875Y008125
X045175Y008
X0595Y00285
X045725Y007775
X045425Y00785
X04535Y0075
X040425Y008325
X04095Y0084
X0407Y00825
X04135Y0084
X041575Y0081
X041767Y0077929
X046575Y007
X0469Y006925
X042125Y00775
X06015Y00285
X047025Y005625
X04735Y00565
X047625Y005725
X06225Y00285
X06155
X03249Y03089
X0443155Y0304918
X0328982
X0332919Y0300981
X0336856Y0297044
X034473
X0356541
Y0293107
X0364415
X0360478Y028917
X0368352
X0431344
X042347Y0281296
X0427407Y0277359
X0431344
X0419Y03945
X04224Y03975
X029775Y00975
X057851Y002849
X05785Y00255
X04724Y03975
X0469Y03945
X06456Y02777
X065898Y027023
X038625Y009525
X0384006Y0122002
X0324315Y0111959
Y0124558
Y0130857
X0329706Y0140302
X0333763Y010881
Y0130857
Y0137156
X0340063Y0134007
X0339306Y0141502
X0340131Y0124676
X0343212Y0130857
Y0134007
X0352661Y010881
Y0127707
Y0130857
Y0134007
X0361327Y0337903
X0389673Y0347352
X0364476
X0386524Y0350502
X0364476
Y0356801
X0361327
X0386524Y03631
X0364476
X0411327Y0337903
X0439673Y0347352
X0414476
X0436524Y0350502
X0414476
Y0356801
X0411327
X0436524Y03631
X0414476
X0439673Y0388297
X0461327Y0337903
X0489673Y0347352
X0464476
X0486524Y0350502
X0464476
Y0356801
X0461327
X0486524Y03631
X0464476
X0461327Y0388297
X0489673Y0381998
X06155Y03334
X0359706Y0147502
X06505Y02755
X0396Y036
X04461
X031125Y01125
X04221Y0357
X03105Y024975
X04719Y03573
X03716Y03574
X0372606Y0125302
X0225Y0143
X044925Y00675
X031Y00315
X0485Y0037
X016349Y0064043
X0495Y0034
X0482Y004
X0491Y0031
X0488Y0034
X0489Y004
X0492Y0037
X02884Y03416
X03229Y03975
X03195Y03945
X03696
X03734Y03975
X0311327Y0337903
X0333374Y0341053
X0339673Y0347352
X0314476
X0336524Y0350502
X0314476
Y0356801
X0311327
X0336524Y03631
X0314476
X0311327Y0381998
X0265093Y028848
X029029Y029163
X0287141
X0265093
Y0297929
X0287141Y0304228
X0265093Y0307378
X0261944Y0316826
Y0323126
Y0329425
X029029Y0323126
X02805Y02785
X03459Y036
X0273Y0297
X03225Y03579
X006175Y01935
X0435281Y0300981
X0340793Y0293107
X03841
X0376226Y028917
X0372289Y0293107
X0391974Y028917
X0399848
X0407722
X0427407Y0222241
X0348667Y0293107
X03761Y001981
X06423Y0305
X0318015Y0111959
Y0118259
X0324315Y010566
Y0127707
Y0134007
X0352661Y0124558
X0339673Y0341053
X0311327
X0339673Y0350502
X0311327Y0353651
X0339673Y0356801
X0311327Y0375698
X0339673Y0388297
X0311327
X0339673Y0375698
Y0381998
X0361327
X0389673Y0341053
X0383374
X0361327
X0389673Y0350502
X0361327Y0353651
Y0375698
X0389673Y0388297
X0361327
X0389673Y0375698
X0439673Y0341053
X0433374
X0411327
X0439673Y0350502
X0411327Y0353651
Y0375698
Y0381998
X0389673
X0411327Y0388297
X0439673Y0375698
Y0381998
X0461327
X0489673Y0341053
X0483374
X0461327
X0489673Y0350502
X0461327Y0353651
Y0375698
X0489673Y0388297
Y0375698
X0261944Y0279031
X029029Y0282181
X0283991
X0261944
X029029Y028848
X0261944Y0294779
X029029Y0297929
X0261944
X029029Y0329425
Y0316826
X042347Y0273422
X0352604Y028917
X0639Y0056
X03672Y0133
X0379Y01328
X027175Y007825
X058225Y004075
X0524
X0595
X052875
X056375Y00405
X06085Y00285
X05595Y00405
X0556
X06015Y004075
X0533Y00405
X05527Y0041
X0537Y00405
X053875Y002875
X0609Y004075
X05506Y00436
X05631Y0044
X05885Y004075
X044925Y0054
X0569Y00405
X04765Y006025
X04525Y0057
X0444Y0054
X044575Y0057
Y0062
X04422Y00647
X04085Y006575
X035875Y011775
X06255Y0048
X0352661Y0137156
X0349511Y0140306
X0335006Y0100502
X0352661Y010566
X0396306Y0116902
X02606Y00895
X044325Y02145
X0389673Y0356801
X0439673
X0489673
X0333763Y0124558
X042175Y006075
X042475Y005775
X045425Y00635
X046
X0173Y00845
X0198Y00815
X01539Y0042
X0203Y00815
X0276827Y0086473
X0459465Y0200267
X00609Y03984
X034473Y0300981
X0356541
X03841Y0297044
X0395911
X0411659Y0300981
X042347
X0332919Y0297044
X0435281
X0352604Y0293107
X0360478
X0376226
X0435281Y028917
X0427407Y0273422
X02885Y03355
X03291Y03975
X03329Y03945
X0432
X04286Y03975
X0482Y03945
X04785Y03975
X03796
X0383Y03945
X0339673Y0337903
X0314476
X0336524Y0341053
Y0347352
X0311327
X0317626Y0356801
X0336524Y035995
Y0369399
X0314476
X0389673Y0337903
X0364476
X0386524Y0341053
Y0347352
X0361327
X0367626Y0356801
X0386524Y035995
Y0369399
X0364476
X0439673Y0337903
X0414476
X0436524Y0341053
Y0347352
X0411327
X0417626Y0356801
X0436524Y035995
Y0369399
X0414476
X0489673Y0337903
X0464476
X0486524Y0341053
Y0347352
X0461327
X0467626Y0356801
X0486524Y035995
Y0369399
X0464476
X0287141Y0282181
Y028848
X0261944Y029163
X0287141Y0301078
Y0310527
X0265093
X0261944Y0319976
Y0326275
X03084Y03132
X0336856Y0300981
X0312Y03105
Y03132
X034473Y0293107
X03841Y028917
X0380163
X0427407Y0281296
X042347Y0277359
X0435281
X0306Y0261
X0339673Y0344202
X0311327
Y0350502
X0339673Y0353651
X0311327Y035995
X0339673Y0378848
Y0385147
X0311327Y0378848
Y0385147
X0389673Y0344202
X0361327
Y0350502
X0389673Y0353651
X0361327Y035995
X0389673Y0378848
Y0385147
X0361327Y0378848
Y0385147
X0439673Y0344202
X0411327
Y0350502
X0439673Y0353651
X0411327Y035995
X0439673Y0378848
Y0385147
X0411327Y0378848
Y0385147
X0489673Y0344202
X0461327
Y0350502
X0489673Y0353651
X0461327Y035995
X0489673Y0378848
Y0385147
X0461327Y0378848
Y0385147
X029029Y0279031
X0265093
X029029Y028533
X0261944
Y028848
X029029Y0294779
X0268243Y0297929
X0261944Y0301078
X029029Y0319976
Y0326275
X0372289Y028917
X0364415
X0356541
X0388037
X0395911
X0403785
X0411659
X0372289Y0297044
X0216Y01035
X0219
X0213
X029275Y0181
X030175Y01785
X03251Y02202
X0339673Y035995
X0314476Y0375698
X0364476
X03018Y03042
Y03072
X03051
Y03042
X0414476Y0375698
X0389673Y035995
X0464476Y0375698
X0439673Y035995
X0489673
X0265093Y0316826
X029029Y0301078
X0439218Y0300981
X0433374Y0337903
X0348667Y0308855
X0336524Y0337903
X03834Y03225
X0483374Y0375698
X0433374
X0383374
X0333374
X0283991Y0316826
X0246Y030305
X04368Y03252
X0433374Y035995
X04488Y03177
X04221Y03417
X0255325Y0284075
X0265093Y0301078
X0188859Y0334241
X0443155Y0300981
X0436524Y0337903
X043186Y031871
X0414476Y0344202
X0191009Y0334241
X0265093Y0282181
X04395Y0331
X0433374Y0344202
X0405Y03195
X0483374Y0372549
X0433374
X0383374
X0333374
X0283991Y0313677
X0246Y02931
X0444Y033125
X0436524Y0344202
X03Y029475
X0287141Y028533
X0265093
X0336856Y0304918
X0336524Y0353651
X04611Y03204
X0483374Y0353651
X0330614Y0127707
Y0137156
X03045Y0291
X0283991Y0279031
X0333763Y0127707
X0356541Y0304918
X0383374Y0356801
X0327464Y0124558
X0325045Y0304918
X0333374Y0356801
X0327464Y0134007
X0431344Y0285233
X0467626Y035995
X0327464Y0130857
X0427407Y0297044
X0436524Y0356801
X0330614Y0124558
X0356541Y0308855
X0383374Y0353651
X0330614Y0130857
X0431344Y0273422
X0483374Y0344202
X0330614Y0134007
X04446Y03177
X04221Y03465
X0327464Y0127707
X0435281Y0273422
X0483374Y0337903
X045925Y028425
X0472
X0443155Y0273422
X0486524Y0344202
X0435281Y0281296
X046453Y034431
X0427407Y0304918
X0433374Y0350502
X0435281Y0293107
X0464476Y035995
X040275Y0324
X0414476Y035995
X046825Y033025
X0486524Y0353651
X0439218Y0273422
X0486524Y0337903
X041625Y03264
X0417626Y035995
X0333374Y0347352
X05917Y02243
X0397806Y0101002
X048045Y00677
X0328982Y0308855
X0333374Y0353651
X0325045Y0297044
X0314476Y035995
X05983Y02299
X0317626Y0350502
X0343206Y0115102
X053837Y01467
X027735Y03012
Y03129
X0346506Y0118402
X04925Y012697
X0417626Y0350502
X0474109Y0245986
X0349511Y0115109
X0268243Y029163
X048425Y018925
Y01915
X0283991Y028848
X009225Y02352
Y023175
X04443Y02216
X02866Y010575
X02251Y00672
X044425Y022455
X0526346Y0146553
X047025Y0198909
X0493857Y0118944
X06486Y0313
X06529Y02756
X06542Y02957
X01754Y00572
X04185Y0187
X017035Y005203
X045825Y0226
X04899Y02337
X04945Y02644
X0576722Y0293659
X032375Y0217
X052833Y006028
X05334Y005508
X048275Y020825
X052576Y017956
X0606Y0231
X05934Y02221
X0402301Y0184499
X01715Y034225
X0198319Y0310351
X046025Y00525
X0397826Y0068076
X055475Y02645
X067Y02904
X008425Y023825
X0084Y023285
X0349511Y0124558
X0346362Y0127707
Y0111959
X0340063Y0127707
X0346362Y0115109
X06465Y02958
X0333763Y0134007
X0340793Y0300981
X0314476Y0344202
X0185Y0081
X0332919Y0293107
X0287141Y0279031
X06552Y02782
X0486524Y0381998
X0380163Y0304918
X0436524Y0381998
X0386524
X0336524
X0287141Y0323126
X024875Y03205
X04608Y03249
X0483374Y0356801
X0349511Y0118259
X0317626Y0372549
X0367626
X0268243Y0313677
X0417626Y0372549
X0467626
X0403785Y0308855
X0489673Y0369399
X03894Y03099
X0439673Y0369399
X0389673
X0339673
X029029Y0310527
X0246Y0278
X03835Y0189
X0431344Y0281296
X0464476Y0341053
X0337Y01087
X0467626Y0388297
X0364415Y0297044
X0417626Y0388297
X0367626
X0317626
X0268243Y0329425
X0340063Y0118259
X0483374Y0378848
X03987Y03123
X0433374Y0378848
X0383374
X0333374
X0283991Y0319976
X024575Y0313
X0464476Y0381998
X03841Y0300981
X0414476Y0381998
X0364476
X0314476
X0265093Y0323126
X040925Y032625
X0417626Y0353651
X0486524Y0372549
X0395911Y0300981
X0436524Y0372549
X0386524
X0336524
X0287141Y0313677
X024825Y02855
X0352618Y0118302
X0328982Y0297044
X0317626Y0353651
X0380163Y0293107
X0486524Y0378848
X0436524
X0386524
X0336524
X0287141Y0319976
X0246Y0298
X0346362Y0124558
X0336856Y0293107
X0283991Y028533
X03759Y03162
X0483374Y0385147
X0433374
X0383374
X0333374
X0283991Y0326275
X024575Y0328
X0343212Y0127707
X0486524Y0388297
X0368352Y0297044
X0436524Y0388297
X0386524
X0336524
X0287141Y0329425
X02489Y03407
X0464476Y0378848
X0403785Y0297044
X0414476Y0378848
X0364476
X0314476
X0265093Y0319976
X02458Y03082
X0419533Y0300981
X0414476Y0353651
X0349511Y0137156
X0346362Y0140306
X0321165Y0130857
Y0134007
X0483374Y0381998
X03942Y03099
X0433374Y0381998
X0383374
X0333374
X0283991Y0323126
X0246Y031805
X0349511Y0134007
X03685Y01352
X0379807
X0355811Y0130857
X038675Y01326
X04074Y03219
X0483374Y0369399
X0433374
X0383374
X0333374
X0283991Y0310527
X0246Y0288
X0349511Y0111959
X0327464Y0115109
X038025Y030875
X0464476Y0388297
X0414476
X0364476
X0314476
X0265093Y0329425
X02458Y03331
X0467626Y0381998
X0388037Y0297044
X0417626Y0381998
X0367626
X0317626
X0268243Y0323126
X0346362Y0137156
X03342Y03171
X0336524Y0356801
X0268243Y0301078
X0349511Y0130857
X03195Y0282
X0268243Y028848
X0346362Y0134007
X0349511Y0127707
X03789Y03207
X0486524Y0385147
X0436524
X0386524
X0336524
X0287141Y0326275
X02488Y03305
X0346362Y0130857
X0658694Y0044134
X043675Y03162
X0417626Y0347352
X0336913Y0115109
X0472026Y0364675
X03906Y03183
X0422026Y0364675
X0372026
X0322026
X0272643Y0305803
X0328982Y0300981
X0317626Y035995
X0357906Y0110902
X04165Y016125
X0427407Y0300981
X0436524Y0353651
X0333763Y0140306
X041875Y016148
X0375403Y0127897
X0340063Y0115109
X0380163Y0300981
X0464476Y0385147
X0414476
X0364476
X0314476
X0265093Y0326275
X024595Y032305
X0332919Y0304918
X0333374Y0350502
X02556Y02874
X0268243Y0294779
X03125Y01258
X03987Y0179
X0283991Y0297929
X03146Y01225
X0380163Y0297044
X0268243Y0282181
X0343206Y0124702
X0332919Y0308855
X0333374Y035995
X0283991Y0294779
X0324315Y0115109
X03955Y032675
X0383374Y0350502
X0330614Y0115109
X0325045Y0300981
X0314476Y0353651
X0486524Y0375698
X0403785Y0300981
X0436524Y0375698
X0386524
X0336524
X0287141Y0316826
X02485Y02905
X0352604Y0300981
X0364476Y035995
X0330614Y0118259
X0467626Y0385147
X0368352Y0293107
X0417626Y0385147
X0367626
X0317626
X0268243Y0326275
X0383374Y0388297
X0333374
X0433374
X0283991Y0329425
X024575Y0338
X0483374Y0388297
X04122Y03093
X0287141Y0297929
X0467626Y0375698
X03813Y0318
X0417626Y0375698
X0367626
X0317626
X0268243Y0316826
X03595Y010325
X0383374Y0347352
X0327464Y0111959
X0360478Y0297044
X0386524Y0356801
X0352604Y0304918
X0367626Y035995
X0377913Y0130615
X0287141Y0294779
X0360478Y0300981
X0386524Y0353651
X0483374Y03631
X04026Y03207
X0433374Y03631
X0383374
X0333374
X0283991Y0304228
X024575Y0283
X0346362Y010881
X0472026Y0367824
X03864Y03183
X0422026Y0367824
X0372026
X0322026
X0272643Y0308952
X0360006Y0100702
X0340793Y0297044
X0314476Y0341053
X03645Y031225
X0383374Y035995
X0339Y031
X0317626Y0347352
X03747Y03129
X0461327Y0369399
X0411327
X0361327
X0311327
X0261944Y0310527
X024875Y02805
X0324315Y0118259
X0352604Y0297044
X0364476Y0353651
X0327464Y010566
X0348667Y0304918
X0333374Y0344202
X0330614Y010566
X0268Y02765
X0283991Y0301078
X0433374Y0347352
X0330614Y0111959
X0431344Y0293107
X0464476Y0353651
X0327464Y0118259
X02558Y02785
X0265093Y0294779
X0333763Y0111959
X0352604Y0308855
X0367626Y0353651
X0333763Y0118259
X0483374Y0347352
X0336906Y0124402
X04572Y03288
X0467626Y0353651
X0349511Y010881
X0348667Y0297044
X0336524Y0344202
X0321106Y0105602
X0367626Y0350502
X0467626Y0378848
X03762Y03198
X0417626Y0378848
X0367626
X0317626
X0268243Y0319976
X0467626Y0350502
X0435281Y0285233
X0486524Y0356801
X0434Y031725
X0420776Y0337903
X0468Y033325
X0483374Y0350502
X0348667Y0300981
X0333374Y0337903
X0272Y0277
X0283991Y029163
X047125Y03325
X0483374Y035995
X04299Y03174
X0414476Y0341053
X0226525Y0051537
X04729Y00492
X03181Y010005
X03161Y010135
X0464Y01586
X04393Y00573
X0432Y0060062
X046765Y006025
X02336Y005775
X0267Y0059738
X0386Y00815
X0245Y0052
X0297Y006575
X04045Y017775
X02995Y01765
X029875Y018
X0297Y018075
X029575Y018225
X0321165Y0121408
Y0118259
Y0115109
Y0111959
X035825Y0045
X013159Y0112891
X0138228Y0332379
X0111494Y035221
X0148655Y0330313
X0165947Y0337456
X010625Y030725
Y030525
T02
X0116641Y0301289
Y0307194
Y03131
Y0319006
Y0324911
X011861Y0304242
Y0310147
Y0316053
Y0321958
X0120579Y0301289
Y0307194
Y03131
Y0319006
Y0324911
X0196265Y032545
Y0328402
Y0331355
X0199218Y032545
Y0328402
Y0331355
X0202171Y032545
Y0328402
Y0331355
X0205124Y032545
Y0328402
Y0331355
X0208076Y032545
Y0328402
Y0331355
X0211029Y032545
Y0328402
Y0331355
X0213982Y032545
Y0328402
Y0331355
T03
X0592024Y0284631
Y0281881
X0589814Y029747
Y029507
X0122857Y0219653
X0114983
X0130731Y0214928
X0173706Y0192502
X0224706Y0219502
X0173706Y0188002
X0168906Y0192502
X0057884Y0241827
X0168906Y0188002
X0057907Y0238367
X048298Y0153
X0483126Y0157606
X04802Y016596
X0108077Y022691
X011348Y026047
X0129Y02944
X060389Y004594
X0475661Y0166235
X046095Y010688
X047844Y012088
X04895Y01085
X018016Y024288
X064009Y003093
X038989Y002087
X027712Y014075
X05206Y01634
Y01722
Y01694
X04592Y01542
X022545Y01331
X028874Y012786
X0389535Y0147981
X027215Y014825
X028444Y014767
X00106Y0045
Y00148
X0055686Y0052416
X00534Y002625
X00412Y00546
X0043Y00565
X01314Y03024
X01268Y0337
X01332Y0332
X01324Y03098
X038421Y017585
X03718Y017077
X038985Y003431
X025884Y014525
X02611Y012153
X025807Y011189
X049932Y009081
X0457Y01698
X044834Y017426
X052014Y016
X022529Y01382
X046801Y008532
X046048Y01203
X025588Y01479
X005302Y003528
X005343Y0016
X006925Y020179
X01132Y03356
X011394Y029479
X01052Y03132
X047927Y0138505
X0409126Y0097882
X01255Y0195
X0399848Y0198619
X039375Y0093
X061811Y022243
X0630306Y0346702
X062382Y02601
X0294854Y0097746
X0257106Y0169402
X00933Y02704
X014822Y034133
X009225Y021975
X0100191Y0220059
X0107109Y0224377
X0637806Y0326302
X0340793Y021043
X0348667
X0352604Y0198619
X0372289
X0332919Y0194682
X0499375Y0238012
X018662Y034043
X018122Y027863
X018392Y028193
X0495268Y01971
X06063Y02061
X0593746Y0227209
X06101Y01977
X0632406Y0164002
X064631Y012818
X06176Y02161
X06357Y022453
X0608706Y0189502
X0587106Y0096802
X038Y02025
X0200425Y0302691
X00504Y03807
X05712Y02154
X0227106Y0186202
X0647406Y0095752
X05454Y01932
X0617706Y0188002
X05475Y0180004
X05998Y01843
X06123Y01836
X06195Y01756
X05475Y0170004
X059425Y03515
X06375Y03435
X0631806Y0316702
X0619206Y0170302
X05529Y01629
X064395Y034345
X065405Y03435
X0663306Y0340402
Y0346402
X0664506Y0349702
X0669906
X05355Y01818
X02871Y01797
X02649Y01827
X0645Y0374302
X0555306Y0309502
X06325Y0374301
X0619806Y0374302
X0621Y00915
X0068601Y0236821
X008325Y01695
X007825Y018675
X056525Y0086
X056925
X029025Y017675
X0221506Y0361002
X0595505Y0286481
X0244Y02085
X0395911Y0214367
X0391974Y0202556
X04245Y019075
X061429Y0304653
X04962Y02406
X0499348Y0240393
X04984Y02729
X04963Y02378
X014705Y028808
X0413565Y0151134
X0221506Y0364502
X0590706Y0326302
X0593606Y0217902
X0616506Y0169102
X04008Y01707
X02493Y0192
X0273006Y0193702
X0399848Y0214367
X0388037
X0380163Y021043
X0372289
X0364415
X0356541
X0528906Y0299002
X058833Y023762
X061621Y023373
X0681906Y0326002
X064544Y026892
X029925Y0233
X028675Y02375
X0276006Y0238252
X025525Y024325
X02495Y023825
X0244Y02055
X023025Y0246
X02769Y01797
X02589Y01839
X01386Y01818
X0150006Y0182002
X0147Y01794
X014Y012875
X01345Y011425
X0398Y01885
X0415596Y0202556
X0416706Y0216502
X043075Y017325
X0425Y017
X0051518Y0168801
X06035Y02755
X0500948Y0131204
X04737Y01926
X0419533Y0202556
X0476348Y0138586
X0411347Y009586
X048472Y011743
X0482283Y014097
X0184806Y0187702
X0226406Y0195602
X06297Y02769
X0179406Y0187702
X06454Y0293
X06397Y03046
X0184806Y0184402
X042347Y0202556
X0520903Y013937
X0372289Y0206493
X0525891Y0138544
X05Y01532
X0368352Y0206493
X043125Y016825
X04737Y0198
X0407722Y0206493
X0496Y01106
X0462297Y0175011
X049075Y01227
X0460357Y0172163
X048501Y012045
X0488629Y0153794
X00776Y02703
X02522Y01403
X035437Y0087675
X0376226Y0202556
X013852Y034233
X0376226Y0198619
X0344Y0052
X0403785Y0194682
X0389Y00611
X0131406Y0246502
X0124206Y0270352
X00609Y01834
X0033822Y0062982
X035275Y006075
X034473Y0218304
X0344706Y0249802
X02964Y02592
X0244206Y0180502
X0542125Y0144882
X036825Y0155
X0360478Y0198619
X0558Y02154
X06455Y0196102
X03905Y01865
X0416207Y009641
X0281Y0118702
X0484962Y0174412
X049773Y010665
X046842Y017822
X0352806Y0188302
X05616Y02151
X06425Y0195652
X03775Y0175
X0564339Y0263588
X0500508Y0157643
X0475547Y0149604
X03815Y01695
X057105Y0264231
X0489309Y0158894
X03574Y01683
X023474Y016601
X0473006Y0086302
X0189606Y0240202
X0426608Y0032832
X010875Y0083
X00533Y003961
X002901Y006278
X0443048Y0177332
X044928Y01474
X0427407Y0202556
X0454223Y0158637
X0499637Y0163869
X0485417Y0127448
X0460191Y0134284
X05018Y008969
X0368352Y0202556
X0568529Y0261583
X00448Y0173
X0497569Y0179311
X050103Y010737
X0607806Y0320002
X0105Y0073
X0062Y0059
X016592Y031853
X0178774Y0334057
X016862Y031553
X016232Y030323
X017102Y030623
X017342Y030323
X017582Y030623
X017552Y031853
X01345Y01115
X016862Y030953
X0649206Y0040552
X02875Y04125
X02975Y04025
X021Y03925
X02575Y04025
X06975Y03225
X02375Y04025
X02675Y04125
X016Y0365
X02475Y04125
X017Y03575
X02175Y04025
X01975
X01875Y04125
X017102Y031853
X02075Y04125
X02275
X03075
X0159006Y0109402
X03075Y0395
X01825Y0365
X016322Y030953
X0185Y03925
Y03725
X0223506Y0376702
X0227406
X016322Y031553
X0225506Y0373302
X0223506Y0370102
X013Y03575
X0227406Y0370102
X01375Y0365
X01475Y03575
X04275Y04125
X04475
X04075
X04375Y04025
X04575
X0115Y035
X03675Y04125
X0115Y03625
X03475Y04125
X01125Y03925
X03275Y04125
X012Y03825
X03375Y04025
X012
X04175
X01125Y04125
X0217506Y0332302
X008375Y037875
X01025Y04025
X04675Y04125
X01125Y03725
X04875Y04125
X05075
X04975Y04025
X04775
X0546606Y0276202
X06575Y01625
X0541206Y0320602
X02575Y03425
X0534606Y0320602
X0537906
Y0316702
X0515Y038
X0534606Y0316702
X0541806Y0281302
X0546606
X00925Y04125
X0544206Y0278602
X00725Y04125
X05067Y02721
X00825Y04025
X0515Y02807
X0556506Y0236902
X0561606
X0556506Y0232102
X0558906Y0234502
X0561306Y0232102
X0195Y03825
X06753Y02695
X01875Y03575
X06775Y02825
X0159006Y0104602
X06875Y03525
X03575Y04025
X06075Y04125
X06275
X06475
X06675
X06875
X03975Y04025
X06975Y03825
X03775Y04025
X06975
X03875Y04125
X056Y0355
X03175Y04025
X05725Y0345
X02475Y03575
X054Y0355
X052
X00625Y04025
X053Y0365
X055
X057
X05875Y03725
X058175Y038325
X05975Y03825
X05875Y04125
X058175Y040325
X06175Y04025
X05975
X06375
X06575Y03825
X05875Y03925
X0159006Y0114502
X06575Y04025
X0153906Y0114502
X06975Y03425
X06875Y03325
X06775Y03025
X06975
X06675Y03125
X06575Y03225
X06875Y03125
X06975Y02825
X06875Y02925
Y02725
X0669Y02325
X0474Y010925
X0478Y0108
X048125Y01045
X05925Y00525
X00025Y03625
X00125Y03725
X06575Y02425
X06475Y00725
X06575Y00625
X05725Y00125
X05875Y02725
X06125Y00125
X05975Y02625
X06875Y02325
X06775Y02425
X06975
X06675Y02525
X06775Y00625
X06975
X06875Y00525
X06975Y00425
X06475Y01525
X06675
X0645Y01825
X06975Y00825
X0655Y01825
X06975Y01425
Y01625
X06875Y01725
X06975Y01825
X06875Y02125
X06975Y02225
Y02025
X06325Y00125
X06425Y00025
X06625
X02325Y00125
X06975Y00225
X06725Y00125
X04325Y0015
X02725Y00325
X0164106Y0104602
X05525Y00125
X06025Y00025
X06225
X05825
X0259806Y0133102
X04425Y00025
X06775Y01425
X05025Y00025
X04825
X05225
X04625
X02625Y00425
X06775Y01225
X06975Y01025
Y01225
X00125Y02725
X00288Y00424
X0198906Y0107002
X0196506Y0105202
X0194106Y0107002
X0264006Y0129202
X05825Y00625
X0264006Y0133102
X05725Y00525
X0255906Y0133102
X0259806Y0137302
X0264006
X0255906
X0164106Y0114502
X0167406Y0159502
Y0154402
X0162306
X0157206Y0159502
X02225Y00025
X0157206Y0154402
X02025Y00025
X0157206Y0149302
X0167406
X0164106Y0109402
X0153906
Y0104602
X00825Y01025
X00725Y00925
X02525Y00325
X01225Y00025
X01025
X02425
X05925Y00125
X06225Y00225
X06025
X0638Y024275
X06475Y02525
X01625Y00025
X06575Y02625
X01425Y00025
X01825
X0198906Y0103402
X0259806Y0129202
X00265Y03717
X00025Y03425
X00125Y03525
Y03325
X06575Y01425
X00025Y03225
X04735Y01045
X00125Y03125
X00025Y03025
Y02825
Y02625
Y02225
Y02025
Y01625
Y01825
Y01425
X00425Y03825
Y04025
X00025Y01225
Y01025
Y00425
Y00625
X00244Y004224
X00425Y00825
Y00625
X00825Y00825
X00625
X00125Y02525
X00025Y02425
Y00825
X00425Y00025
X06975Y02625
X00625Y00025
X003879Y010813
X003843Y011463
X047555Y018026
X0542Y01575
X0530001Y0162
X0593706Y0336802
X06017Y0369
X06112Y03686
X06332Y03699
X0641106Y0337702
X06427Y03697
X06458Y03696
X0653706Y0337702
X06537Y03702
X0663006Y0337102
X0678906Y0337702
X05875Y02925
X0077331Y0243275
X0336856Y0277359
X0450906Y0258
X034473Y0241926
X0439218
X034473Y0234052
X0411659
X0427219Y0233969
X0336856Y0230115
X034473Y0226178
X0356541Y0222241
X0364415
X0372289
X0380163
X0388037
X0391974
X0399848
X0328982Y0218304
X0352604Y021043
X0360478
X0368352
X0376226
X0372289Y0202556
X0411659
X0356541Y0194682
X0399848
X04232Y02303
X05268Y02676
X0530706Y0264502
X0534Y026175
X0528906Y0275602
X0573006Y0284002
X0645156Y0101752
X0674706Y0215002
X0636756Y0102352
X017102Y031283
X033Y008625
X0223Y0121
Y011775
X021725Y008125
X022425Y00875
X029925Y001875
X042325Y004375
X00625Y01025
X00825Y00625
X00025Y03825
X0092198Y0243829
X06374Y03004
X00316Y00476
X0104376Y0062465
X0007677Y017393
X00136Y0142076
X0010918Y0147106
X0008012Y0159624
X00292Y00228
X00336Y00274
X00278Y00326
X00688Y007
X00312Y00358
X00628Y0075
X00248Y00294
X063381Y027636
X063387Y027227
X06595Y02125
X06625Y02375
X0668Y01765
X063492Y023064
X0588156Y0081652
X06595Y009975
X060375Y039325
X05988Y02095
X05754Y01302
X016592Y031283
X027025Y020775
X0541206Y0316702
X05979Y0201
X06541Y01107
X02625Y02043
X0274206Y0203002
X02742Y02235
X057533Y023027
X062457Y023721
X05917Y02126
X06129Y01779
X0602Y01926
X06525Y022525
X06225Y01179
X0618Y00783
X0589506Y0086152
X0618Y01419
X0645306Y0032902
X060825Y00498
X037425Y010075
X0300606Y0105802
X029725Y010925
X02975Y00875
X047525Y01065
X0518338Y0119919
X047495Y0161512
X0485189Y0132911
X0162306Y0159202
Y0149302
X06825Y011525
X029Y018
X04598Y017989
X05245Y030475
X0523506Y0320302
X0555306Y0330202
X0585106Y0241248
X0535Y0292
X0558006Y0258202
X064911Y013522
X063825Y010725
X06138Y02161
X059787Y023762
X0575371Y0222702
X0616206Y0224202
X0612306Y0189802
X0672006Y0209602
X0611106Y0346392
X0634356Y0185602
X063175Y034925
X0582466Y0327848
X0638106Y0317002
X0681906
X0659406Y0348802
X0675606Y0317002
X0644106
X0675006Y0349702
X0587106Y0105602
X0642306Y0099952
X0636306Y0031102
X049175Y0061
X050475
X0668Y02841
X0449433Y0163086
X02305Y00925
X03005Y023675
X05649Y0216
X0552906Y0258202
X0575306Y0213102
X0643806Y0168502
X0628806Y0154702
X05475Y01533
X05451Y02031
X06675Y02925
X0491306Y0132855
X0255906Y0129202
X0461Y00875
X0521Y008025
X0455Y014718
X04455Y014728
X04373
X028725Y014725
X02845Y014425
X029Y0035
X0302Y00345
X036485Y00321
X03925Y00325
X0395Y00195
X03985Y003275
Y00195
X042475Y0025
X027525Y00055
X0285
X04145
X042475
X03175Y00325
X0375Y005725
X036825Y005825
X03Y004725
X0305Y00565
X031
X0354Y005725
X036075Y005825
X0375Y00615
X040025Y004875
X04125Y004825
X03295Y00535
X00266Y0039
X0024Y00236
X00334Y00326
X00228Y00496
X00222Y0014
X00796Y00706
X00296Y00162
X00534Y00702
X00286Y00268
X0083Y00668
X00782Y00824
X00736
X00618Y0067
X00566Y00668
X00598Y00706
X00692Y00824
X00582Y00826
X00574Y0075
X00666Y0067
X00712
X00762
X00532Y00754
X00344Y00168
X0033Y00222
X0024Y00354
X0053Y00832
X0092281Y0252425
X0094197Y0250343
X0093872Y0245627
X00906Y0250343
X0092251Y0248216
X0598135Y0307246
X060325Y0269
X0639Y01425
X00254Y002
X0500373Y0142654
X0484156Y0171012
X00882Y02616
X0100954Y0257448
X0122857
X0138606
X01041Y01971
X0069457Y0219653
X0083979Y0220144
X0206706Y0354502
X0088Y03755
X015475Y01775
X01083Y01989
X02295Y0332
Y03445
X0204606Y0362302
X0239406Y0394802
X0233606Y0394702
X0227706Y0394802
X0168476Y0351882
X0228Y03033
X02409Y02034
X02526
X02505Y02238
X024075Y022425
X023825Y025725
X0275606Y0248302
X00741Y01652
X0249606Y0188002
X02495Y0242
X0159326Y0276432
X014425Y031725
X016802Y034553
X0228606Y0353902
X0209406Y0380202
X0226206Y0361402
X0207306Y0383802
X018975Y02955
X0223506Y0191102
X0236106Y0183502
X0147Y01608
X003Y03495
X00454Y0265
X00542Y02652
X00512Y0265
X00482
X00572Y02652
X00604
X00602Y02678
X006026Y027051
X003625Y03645
X00315Y0358
X003625Y035025
X02099Y02103
X02097Y02066
X0225686Y0164141
X009775Y017275
X00885Y01795
X0075Y0184
X012507Y0278414
X0143325Y032858
X0143116Y029775
X0065396Y0211058
X0077Y025475
X008425Y022675
X0059Y024875
X00906Y0245537
X0119732Y0289703
X0100294Y031347
X0124271Y0333808
X0132758Y0316888
X00134Y02149
X00136Y02118
X00178Y02117
X00227Y02116
X0016448Y0183676
X0077331Y0247999
X0099235Y0233826
X0114983
X0069457Y0229102
X034473Y0273422
X0376226Y0277359
X0380163
X0388037
X0395911
X0380163Y0265548
X0376226Y0269485
X0368352Y0277359
X0391974Y0265548
X0395911Y0269485
X0403785Y0277359
X034473Y0261611
X0407722Y0257674
X0328982
X0380163
X0360478Y0277359
X0368352Y0253737
X0364415Y0257674
X0376226Y0253737
X0372289Y0257674
X0360478Y0269485
X0388037Y0253737
X0391974Y0257674
X0403785Y0269485
X0395911Y0253737
X0399848Y0257674
X0411659Y0269485
X0435281Y0253737
X0407722Y0245863
X0399848
X0360478Y0234052
X0372289Y0245863
X0368352Y0234052
X0380163Y0245863
X0376226Y0234052
X0388037
Y021043
X0340793Y0206493
X0336856Y0202556
X034473Y021043
X019712Y0270781
X0192874Y0270824
X0213383Y0270736
X0203473Y0270732
X0218509Y0270749
X022236Y0270713
X0219206Y0354502
X0225606
X0091Y0386
X0095
X0091Y0391
X0095
Y0396
X0091
X04982Y02652
X0573006Y0290002
X0175676Y0278682
X03755Y011175
X0390392Y01535
X03939Y01485
X0372606Y0146002
X038775Y01695
X0405606Y0130702
X01002Y0207
X01206Y01962
X01119
X003836Y012091
X042347Y0194682
X02531Y03752
X06516Y02929
X0632556Y0181702
X0163226Y0354732
X0245106Y0106702
X0541806Y0276202
X02625Y023425
X0599Y02251
X06033Y00897
X0299406Y0111502
X0301Y008425
X04128Y0133
X04805Y011125
X04935Y011529
X01962Y02586
X0356541Y0245863
X0427407Y021043
X0403785
X0332919Y0241926
X0403785Y0222241
X0395911Y0234052
X0352Y027225
X041225Y022166
X0407722Y0230115
X0403785Y0234052
X0391974Y0245863
X005875Y035625
X0482Y02465
X0474Y0267
X04745Y02595
X0560106Y0224602
X0208506Y0217002
X02211Y01749
X06633Y00432
X0644856Y0045352
X0629Y0048
X06156Y00483
X03739Y0168
X0654606Y0021202
X02703Y01881
X04745Y028075
X0540606Y0262402
X0386Y0019
X01685Y02197
X01649Y02269
X027525Y002325
X0284
X06825Y00025
X05625
X00825
X00325Y00125
X00225Y00025
X00025Y00225
X0034Y00384
X00725Y00725
X063675Y0155
X00125Y02925
X00525Y04125
X00325
X06775Y02625
X00125Y04125
X00025Y04025
X04324Y016402
X04642Y0128
X04688
X02625Y014625
X0257106Y0121702
X0265Y010825
X0143706Y0182302
X049575Y008425
X0435281Y0214367
X0443155Y0241926
X0628506Y0337102
X0619Y03011
X0185576Y0352032
X0399848Y021043
X05499Y02157
X0222606Y0236302
X0212706Y0186802
X0305542Y013025
X02985Y013725
X01476Y01992
X00885Y018475
X008525Y02075
X0068Y0373
X007975Y037
X0074Y0373
Y0379
X0068
X0062
X0071Y0376
X0062Y0373
X0065Y0376
X0295Y001875
X0305Y002025
X0345Y0031513
X035Y001925
X0355Y0017
X036
X04135Y002825
X03195Y005525
X029Y004725
X0334Y005375
X00146Y015012
X0172206Y0116902
X015Y01344
Y01383
Y0123
Y012
X009436Y000926
X00985Y00435
X0120503Y0096
X0143706Y0083602
X01645Y00855
X00691Y01652
X00641
X00591
X00541
X00741Y01602
X00691
X00641
X00591
X00541
X00741Y01552
X00691
X00641
X00591
X00541
X01041Y01502
X00991
X00941
X00891
X00791
X00741
X00691
X00641
X00591
X00541
X01091Y01452
X01041
X00991
X00941
X00891
X00791
X00741
X00691
X00641
X00591
X00541
X01041Y01402
X00991
X00941
X00891
X00791
X00741
X00691
X00641
X00991Y01302
X00941
X00891
X00791
X00741
X00691
X00641
X01041Y01252
X00991
X00941
X00891
X00791
X00741
X00691
X00641
X00991Y01202
X00941
X00891
X00791
X00741
X00691
X00641
X00991Y01152
X00941
X00891
X00791
X00741
X00691
X00641
X01091Y01102
X00841
X00791
X00741
X00691
X01575Y009075
X0167106Y0127102
X009074Y00396
X011725Y0101
X0150006Y0086002
X0159Y008825
X011875Y007
X014525Y0113
X014Y01205
X0114Y014325
X010075Y01075
X0084Y00084
X00622Y005239
X011875Y0075
X0118Y00648
X01839Y01032
X0161106Y0129502
X0087906Y0105202
X0194106Y0103402
X015062Y027983
X01713Y01227
X0155426Y0281382
X00975Y00318
X00939Y00363
X0054Y039425
X005875
X01572Y02341
X005338Y003049
X00711Y00309
X005343Y0021
X012Y0348973
X00224Y02161
X00223Y0222
Y02196
X06156Y00915
X027425Y014425
X037375Y015425
X06072Y01434
X0388037Y0202556
X0499366Y01245
X05703Y01386
X0431344Y0198619
X04415Y0146745
X04737Y01953
X05475Y0302
X042347Y0198619
X0603Y0259
X00925Y036575
X0223956Y0344752
X02175Y01365
X0232806Y0113902
X0172506Y0128302
X02175Y01325
X0223956Y0341152
Y0337702
X0220356Y0344752
Y0341152
Y0337702
X0201756Y0342652
X00925Y036175
X0089
X00855
Y0358
X0089
X00925
X044575Y0084
X0575306Y0217902
X057351Y023893
X056733
X056736Y023607
X0528906Y0281002
Y0284302
Y0287602
X0555306Y0313102
X05955Y03435
X0628206Y0183202
X0604331Y0377471
X0627Y034875
X0680106Y0349702
X0082Y03925
Y03955
X00855Y03865
Y03895
Y03925
Y03955
X0082Y03865
Y03895
X0224556Y0314602
X022474Y0327019
X0224633Y0322884
X0224706Y0318652
X022298Y0325018
X0220758Y0326073
X0220813Y0329205
X0218175Y0327776
X021854Y0324528
X0364415Y0277359
X0376226Y0273422
X0372289Y0277359
X0388037Y0273422
X0380163Y0261611
X0376226Y0257674
X0356541Y0277359
X0399848
X0388037Y0257674
X0380163Y0253737
X0391974Y0261611
X0407722Y0253737
X0403785
X0364415Y0245863
X0376226
X0380163Y0241926
X021825Y029275
X0228Y02895
X02245Y02865
X0228Y028375
Y029275
X02245Y02895
X0228Y02865
X02245Y02835
X0195302Y0285028
X0195Y0293
X02215Y029275
X02035Y0293
X0195302Y0289028
X0199302
X02245Y029275
X0391974Y0253737
X0395911Y0257674
X0399848Y0253737
X0403785Y0257674
X0372289Y0241926
X0360478Y0222241
X019775Y0293
X020075
X0199302Y0285028
X021Y029325
X0368352Y0257674
X0372289Y0253737
X0360478Y0257674
X0364415Y0253737
X0391974Y0277359
X0368352Y0222241
X0376226
X0391974Y0226178
X0407722
X0391974Y0241926
X0364415
X0368352Y0245863
X0356541Y0241926
X0360478Y0245863
X0399848Y0241926
X0388037Y0245863
X0395911
X0403785
X0407722Y0241926
X0555606Y0296902
X0249306Y0366802
X025375Y036675
X025425Y0371
X0245406Y0366802
X03515Y02774
X034473Y0277359
X0336856Y0273422
X0340793
X0559506Y0293302
Y0296902
X0555606Y0293302
X0555306Y0269302
X025025Y0371
X0567306Y0272602
X0563406
X0559506
X0555606
X0556Y027725
X0550206Y0299002
X023925Y03305
Y034075
Y03255
Y03205
Y03155
Y031025
Y03055
Y03005
Y02955
Y02905
Y02855
X0236Y0382
X0247906Y0385702
Y0382402
X02455Y0384
X0243206Y0382402
Y0385802
X02395Y0382
X0237Y0375
X023925Y03355
X0195Y0215
X01915
X004925Y036425
X00505Y0367
X02145Y0216
X008Y00525
X004525Y0364
X00435Y036575
X004675Y036625
X0048Y036875
X00445
X0205806Y0180502
X00541Y01152
Y01252
Y01302
Y01352
X0103506Y0097402
Y0104902
X0084Y005275
Y005
X008Y004975
X00591Y01352
Y01302
Y01252
Y01202
X00541
X00591Y01152
X00541Y01102
X00591
X00641
X0103506Y0101302
X0107406
Y0104902
Y0097402
X0136506Y0085702
X0132906
X0136506Y0089902
X0132906
X01725Y00895
X027775Y0046
X0180906Y0108802
X027775Y00425
X02815
X0305Y003125
X02815Y0046
X03955Y00355
X01755Y00895
X0162906Y0125302
X0155706Y0125002
X0159306Y0125302
X028625Y0139
X03365Y008275
X037075Y011575
X03895Y01305
X02985Y012725
X0368Y003525
X03275
X0314Y00355
X0367Y0044
X037Y002
X0173406Y0137002
X0170106
X0405Y00355
X04035Y00155
Y0012
X0407
Y00155
X0295Y0033863
X0127206Y0150202
X0123006
X01091Y01502
X0118506Y0150202
Y0145702
Y0142102
X0123006
X0127206
X0123006Y0145702
X0127206
X00891Y01552
X00941
X00991
X01041
X01091
X00891Y01602
Y01652
X00941
X00991
X01041
X01091
Y01602
X01041
X00991
X00941
X00791Y01652
Y01602
Y01552
X024275Y00875
X0246
X063125Y00345
Y003075
X0643056Y0089602
X0638106Y0089302
X0140324Y0224377
Y0219653
X0147Y02244
Y02149
Y02197
X0203606Y0186202
X0198006Y0187702
X034473Y0257674
X0325045
X034473Y0245863
Y0237989
Y0222241
Y0230115
X0332919
X030025Y02415
X03945Y01895
X0474289Y0230162
X0479661Y0230328
X0484134Y0231519
X048196Y0230356
X0328982Y0241926
X03005Y023025
X04796Y02718
X04773Y02733
X0489Y02545
X04889Y02498
Y02632
X05739Y02778
X00758Y00488
X036Y003225
X0355
X00758Y00518
X00696Y00516
X035Y0032
X0082Y0019
Y00218
X00848
X00876
X00904
X00935Y002188
X00582Y00104
X0067
X0064
X03605Y0142102
X03891Y01506
X0182Y012
X0185Y01165
X02145Y01215
X021825
Y011825
X02145
X0211206Y0179902
X0463796Y0273202
X04349Y01015
X04164Y01482
X042Y01345
X039Y0138802
X0419533Y0206493
X0463796Y0268602
X0332919Y0281296
X0336856
X02197Y01889
X04715Y0213
X0107109Y023855
X04715Y021575
X0107109Y0233826
X0316806Y0257302
X0332919Y0253737
X0336856Y0261611
X05971Y01782
X02495Y01465
X0069Y0214928
X0332919Y0261611
X0336856Y0253737
Y0257674
X0340793Y0261611
X0218406Y0243802
X0340793Y0257674
X0217806Y0225802
X032175Y025075
X032925Y016225
X0221338Y0226034
X0332919Y0257674
X032Y0257
X0197732Y0237202
X0205806Y0236602
X031775Y025075
X0325486Y0164442
X022037Y0254
X0612906Y0326302
X0627006Y0358402
X0630006Y0358102
X0669306Y0337102
X05002Y01601
X0606306Y0336502
X0609606Y0336802
X062475Y0044
X025975Y00935
X0634806Y0336802
X0646806Y0337702
X0578398Y0311136
Y0313886
X0388037Y0190745
X0469836Y0187046
X05775Y02765
X05937Y03474
X05967Y03261
X06014Y03256
X0644106Y0326002
X0675606
X0249306Y0143002
X0083706Y0214928
X05967Y0215
X0592506Y0355402
X0661506Y0358102
X0664806
X0367Y014375
X0362Y01205
X0482005Y0201755
X0411659Y0198619
X0377Y015475
X0631506Y0325702
X0407722Y0198619
X0650406Y0337102
X00923Y02149
X052054Y0145
X0431344Y0214367
X036375Y0143
X028775Y0124
X0391974Y0198619
X0192661Y00905
X0677406Y0358702
X0680406
X0545Y01869
X0403785Y0202556
X021525Y0377181
X0543Y0177
X0403785Y0206493
X020463Y0378
X0622206Y0102502
X0247206Y0144802
X00924Y02082
X0332919Y0222241
X062425Y00975
X02383Y014655
X0107106Y0208794
X0332919Y0218304
X0533462Y0153993
X0340793Y0218304
X0328982Y021043
X04464Y02067
X042347Y0206493
X042025Y01885
X0446Y01958
X0431344Y0257674
X03408Y02301
X0435281Y0257674
X04632Y02517
X0388037Y0198619
X04632Y024735
X043135Y023425
X0332919Y0226178
X0336856
X044385Y023505
X0427407Y0214367
X0431344Y0226178
X0190801Y0319819
X04635Y0264
X0450555Y0159649
X0431344Y0222241
X0468006Y0246502
X0639906Y0356902
X0187943Y0319954
X04635Y02598
X0388037Y0206493
X0468006Y0242302
X0636006Y0357202
X065275Y0358
X064875
X0395911Y0198619
X0622506Y0343402
X045Y022025
X036636Y022052
X0395911Y0202556
X0427407Y0198619
X0479739Y0181268
X0415596Y0206493
X0419533Y0257674
X0418206Y0243502
X0419533Y0230115
X0427407Y0257674
Y0237989
X0411659Y0206493
X051939Y014281
X04155Y02604
X0413106Y0254392
X047225Y0097
X0399848Y0202556
X0336856Y0218304
X046975Y009925
X05004Y01144
X0444906Y0216802
X0463506Y0096802
X05014Y01108
X0395911Y0206493
X0448806Y0216802
X046Y009175
X05018Y0105
X0545Y01675
X048275Y020525
X0407722Y0202556
X0376226Y0206493
X034725Y0089664
X0219Y01539
X045775Y00965
X04986Y01024
X0462Y025725
X0578157Y0322718
X0165306Y02304
X0123Y0156
X0455406Y00995
X050091Y009988
X026775Y024825
X0340806Y0188302
X01618Y02273
X01197Y01554
X01389Y02149
X0246Y024875
X028575Y02485
X02859Y01866
X026375Y024825
X034473Y0202556
X0462Y025425
X0578157Y0319968
X0347406Y0182002
X025975Y02475
X06185Y02803
X0138606Y0233826
X0279306Y0170602
X00804Y01971
X0490448Y0171623
X0380163Y0198619
X00843Y02022
X02568Y02046
X0123Y022575
X0254Y024825
X0276306Y0242602
X0340793Y0198619
X02808Y02352
X0122857Y023855
X0260706Y01887
X025Y024825
X02885Y024475
X034473Y0206493
X06145Y02824
X0068483Y020548
X0467044Y0187767
X0552906Y0301102
X0605Y025675
X0336856Y0198619
X0288306Y0221602
X0276606Y0169402
X05Y01498
X06435Y0219
X05211Y02256
X0340793Y0214367
X03516Y01665
X022661Y016843
X0534006Y0298702
X0265806Y0171202
X024211Y0248
X02875Y02505
X0340793Y0202556
X0332919Y0206493
X028625Y023275
X044875Y023325
X05239Y02296
X0645Y0214
X0252306Y0189202
X0547524Y0213875
X06152Y0201
X023925Y010275
X0193133Y030661
X01947Y0252
X0521106Y0314902
X02838Y0242
X0523506Y0316402
X0582306Y02156
X02665Y020475
X02364Y0213
X0232506Y0181102
X0523506Y0329002
X0551606Y0318802
X0542106Y0292402
X0578606Y0229602
X0083487Y0210204
X04748Y0144503
X027175Y0245752
X034473Y0198619
X06093Y01692
X06061Y01814
X0618Y01915
X04648Y0155
X02472Y022275
X02958Y0251302
X0348667Y0206493
X0539106Y0298702
X057486Y025744
X05943Y0205
X04738Y01576
X02754Y02193
X03486Y0198552
X0526806Y0316102
X0547806Y0327677
X047592Y01191
X0332919Y0202556
X02901Y02265
X0269706Y0171202
X0200364Y0296774
X0216931Y029764
X0138606Y0252724
X02415Y0189802
X060504Y023796
X063759Y023824
X02875Y016975
X0364415Y0190745
X0615606Y0181402
X063435Y023573
X0072536Y01977
X0380163Y0206493
X049625Y0124275
X05979Y01296
X0499285Y0144872
X0325045Y021043
X0537Y02199
X0637Y0203
X065836Y012556
X0138606Y023855
X0474Y0153
X0567606Y0214702
X06052Y02138
X0336856Y0214367
X03515Y021575
X02538Y02064
X0199218Y034425
X03702Y01865
X05454Y01968
X05Y01474
X0346206Y0189502
X02742Y0234606
X0122857Y0233826
X0392Y00595
X04137Y01401
X0118956Y0274102
X0131706Y0250702
X0053715Y0184112
X00106Y00342
X047875Y009575
X0336856Y0206493
X028775Y02295
X02715Y0169
X02436Y0192202
X0170876Y0299082
X0276Y01893
X05241Y02262
X06415Y0214
X048175Y00965
X02778Y02241
X0352604Y0206493
X0161426Y0330282
X0263036Y0169632
X0175676Y0299082
X0364415Y0194682
X028675Y017275
X02445Y021875
X064Y0206
X05313Y02217
X0332919Y021043
X0234306Y0179302
X02915Y0234
X029975Y022425
X0340793Y0222241
X0374406Y0181102
X007425Y02635
X03725Y0183
X0561763Y0261701
X0207306Y0371002
X0538806Y0291502
X029775Y02355
X02997Y02496
X0273606Y0171202
X03018Y02583
X03447Y02538
X0348667Y0214367
X029825Y0239
X0336856Y0222241
X0160226Y0323532
X0186176Y0315882
X0186326Y0309882
X0154354Y0247999
X017125Y0132
X029725Y024225
X0340793Y0226178
X0170126Y0330432
X0181976Y0295632
X0154354Y0252724
X0276906Y0245902
X0138606Y0247999
X06415Y02105
X05259Y02241
X0324906Y0200602
X02766Y01866
X023625Y0096302
X0166076Y0298782
X01576Y02404
X02589Y02208
X0354306Y0181102
X05544Y01374
X06027Y01209
X0257406Y0192502
X06365Y02065
X05342Y02205
X0328982Y0206493
X026675Y02075
X0543306Y0270202
X015532Y031293
X0155126Y0306732
X0108606Y0212094
X0235206Y0143602
X04887Y00804
X0519283Y01547
X0243906Y0128002
X0364415Y0206493
X0463846Y0237302
X0075613Y023855
X0155126Y0301482
X0155276Y0318582
X0176276Y0330282
X0172941Y0292182
X0284Y013475
X025575Y021925
X0352806Y0179002
X0463836Y0241402
X0075613Y0233826
X0551Y023125
X02364Y02091
X026925Y020325
X06325Y038372
X0356541Y0202556
X0638Y0211
X05286Y02229
X032525Y02045
X0277506Y0193702
X0127656Y0263002
X062Y038411
X0240727Y0117645
X0269106Y0120802
X0364415Y0202556
X0311Y024125
X0666306Y0168502
X0143Y033325
X014625Y032375
X0156616Y034262
X02613Y02187
X0352604Y0202556
X03125Y023825
X0154676Y0321732
X0328982Y0230115
X06345Y0201202
X0662Y0220402
X02367Y02043
X0622206Y016375
X0250506Y0170602
X0364415Y0198619
X0096156Y0262552
X026745Y021915
X0353106Y0185602
X0340793Y0253737
X03246Y0247831
X0337Y01625
X0283449Y024525
X0325045Y0226178
X0489899Y0168128
X0388037Y0194682
X0435281Y021043
X0336856Y0245863
X039202Y014115
X0260106Y0191602
X0238778Y0265979
X018275Y034075
X0253806Y0170602
X023474Y0264815
X0166076Y0329832
X0623406Y0209002
X06625Y019275
X0186411Y0265521
X0622806Y0206302
X06625Y01885
X0118956Y0262852
X0332919Y0214367
X06325Y0203902
X0662Y0225202
X0399076Y0130685
X0286Y013175
X0454069Y0089969
X0579Y008175
X02919Y0252502
X0328982Y0226178
X036425Y01185
X063925Y0196
X066225Y019775
X0328982Y02498
X0333Y0162
X063575Y01985
X06625Y02025
X03435Y006175
X030925Y024575
X0340793Y0245863
X0636286Y017075
X0325045Y0230115
X04179Y01401
X0611705Y0105802
X0332919Y0234052
X0390475Y01822
X03966Y01302
X0418Y0144
X06108Y01128
X0336856Y0234052
X06585Y0203902
X0650706Y0178102
X031775Y0246
X0336856Y0241926
X0098204Y0028751
X00916Y0099202
X0340793Y0241926
X02159Y03715
X05943Y0095002
Y01209
X0313Y024325
X0608106Y0089152
X0332919Y0273422
X0328982Y0237989
X0332919
X0336856
X0340793
X0603006Y0130552
X0628056Y0130252
X0628Y0121
X0435281Y0206493
X0407722Y0194682
X031575Y0048
X0138Y010625
X0328982Y0277359
X0340793Y0281296
X0647406Y0047902
X029975Y01345
X0325045Y0277359
X01607Y02423
X039Y0057
X0649206Y0032902
X0080406Y0262702
X0598056Y0089452
X0311106Y013075
X0332919Y0277359
X0613056Y0130252
X01641Y02418
X0385Y0057
X0395207Y01785
X031375Y005
X014025Y010225
X0608106Y0130402
X0340793Y0277359
X035975Y017
X023435Y0169
X0478206Y0086302
X0206106Y0239602
X0424356Y003567
X01195Y008725
X00534Y00442
X0014Y0061
X06528Y03495
X0447Y023679
X0215644Y0374356
X02055Y008789
X0173988Y0110512
X0435281Y0241926
X0431344
X0217806Y017975
X02103Y02005
X06489Y03495
X0447Y024015
X0209106Y0189202
X0385Y018375
X035025Y0086442
X02535Y014425
X00768Y0195
X0368352Y0198619
X0352506Y0243802
X0198906Y02598
X036875Y0169
X0075613Y0224377
X044841Y01584
X04388Y016728
X043726Y016038
X01947Y0249
X00941Y01102
X01865Y01245
X013625Y01855
X0127Y009375
X0089932Y003425
X0134Y010675
X007Y01835
X03445Y004875
X036325Y017575
X034425Y0083049
X03605Y018975
X035Y0062
X032625Y00565
X0067Y017575
X01195Y010425
X0397Y00495
X0123Y01005
X0295Y00475
X012525Y01025
X039525Y004725
X012775Y009825
X0628Y0143
X031525Y00605
X0315Y005725
X03385Y00475
X03545Y0045
X032775Y006075
X03625Y017325
X03395Y005375
X03195Y0058
X03295Y005625
X032375Y006125
X029Y0018
X0302Y0017
X03675Y004739
X0375Y004675
X037975Y0047
X060275Y026325
X060675Y0259
X062535Y027108
X030325Y001
X0293
X062542Y026459
X019778Y00905
X01025Y01725
X0622561Y0272869
X01083Y02214
X015575Y023825
X00245Y006269
X01485Y02365
X002Y0061
X0029Y005081
X0021Y024766
X001755Y024778
X001752Y024429
X001767Y024086
X002117Y024432
X002122Y02409
X0492475Y0089054
X0184Y01655
X007375Y0195
X005475Y01875
Y019275
X0056Y019575
X0104709Y0341151
X00915Y0299998
X01445Y032625
X013075Y0329
X0097969Y0281719
X0109332Y0281711
X003352Y005076
T04
X0035412Y0200835
X010742Y0270202
X00546Y0199
T05
X0509695Y02
X05219Y0187795
Y0212205
X0534105Y02
X0530168Y0190945
Y0209055
X0513632
Y0190945
X05404Y0127205
X0528195Y0115
X0552605
X05404Y0102795
X0531345Y0106732
X0549455
Y0123268
X0531345
X0009395Y03934
X00216Y0381195
Y0405605
X0033805Y03934
X0029868Y0384345
Y0402455
X0013332
Y0384345
X0666095Y00857
X06783Y0073495
Y0097905
X0690505Y00857
X0686568Y0076645
Y0094755
X0670032
Y0076645
X0263395Y03934
X02756Y0381195
Y0405605
X0287805Y03934
X0283868Y0384345
Y0402455
X0267332
Y0384345
X0666295Y03934
X06785Y0381195
Y0405605
X0690705Y03934
X0686768Y0384345
Y0402455
X0670232
Y0384345
X0187715Y015003
X019992Y0137825
Y0162235
X0212125Y015003
X0208188Y0140975
Y0159085
X0191652
Y0140975
X0009395Y00856
X00216Y0073395
Y0097805
X0033805Y00856
X0029868Y0076545
Y0094655
X0013332
Y0076545
T06
X0557857Y0347947G85X0557857Y0341057
X0529117Y0347947G85X0529117Y0341057
T07
X0549786Y0339384
X0546636Y034962
X0543487Y0339384
X0540337Y034962
X0537188Y0339384
T08
X002804Y020503
Y0182195
X0041032Y020503
Y0182195
T09
X05385Y01685
X05285
T10
X002225Y03385
Y03285
Y03185
Y03085
Y02985
X003225Y03335
Y03235
Y03135
Y03035
Y02935
T11
X0556Y0147
X0566
X0556Y0157
X0566
X0556Y0167
X0566
X0556Y0177
X0566
X0556Y0187
X0566
X0556Y0197
X0566
X0556Y0207
X0566
T12
X0098431Y0342122
Y0332122
Y0299878
Y0289878
T13
X0568Y0327
Y0317
Y0307
T14
X0048422Y0203511
X004841Y0254555
X0175575Y0203759
T15
X0175489Y0255578G85X0175489Y0253807
X05Y0015748
X0202756
X0535433
X0167323
T16
X0508858Y0024606
Y000689
X0491142
Y0024606
X0211614
Y000689
X0193898
Y0024606
X0544291
Y000689
X0526575
Y0024606
X0176181
Y000689
X0158465
Y0024606
T17
X00317Y024485
Y0263354
Y0281858
X0066935Y0347004
Y0285035
T18
X0683213Y0158173
X0587937
X0683094Y0253449
X0587819
T19
X05219Y02
X0177949Y0229102
X0045863
X05404Y0115
X00216Y03934
X06783Y00857
X02756Y03934
X06785
X019992Y015003
X00216Y00856
X0588021Y0191167
X0686446
M30
