  0
SECTION
  2
HEADER
  9
$EXTMIN
 10
-8.5061
 20
-1.00066
 30
0.0000
  9
$EXTMAX
 10
16.925992
 20
6.7096
 30
0.0000
  0
ENDSEC
  0
SECTION
  2
TABLES
  0
TABLE
  2
LTYPE
 70
3
  0
LTYPE
  2
BYBLOCK
 70
0
  3

 72
65
 73
0
 40
0.0000
  0
LTYPE
  2
BYLAYER
 70
0
  3

 72
65
 73
0
 40
0.0000
  0
LTYPE
  2
CONTINUOUS
 70
0
  3
Solid line
 72
65
 73
0
 40
0.0000
  0
ENDTAB
  0
TABLE
  2
LAYER
 70
20
  0
LAYER
  2
0
 70
0
 62
7
  6
CONTINUOUS
  0
LAYER
  2
SLPR
 70
0
 62
7
  6
CONTINUOUS
  0
LAYER
  2
SMPR
 70
0
 62
11
  6
CONTINUOUS
  0
LAYER
  2
L1
 70
0
 62
9
  6
CONTINUOUS
  0
LAYER
  2
L2P
 70
0
 62
6
  6
CONTINUOUS
  0
LAYER
  2
L3S
 70
0
 62
1
  6
CONTINUOUS
  0
LAYER
  2
L4P
 70
0
 62
4
  6
CONTINUOUS
  0
LAYER
  2
L5P
 70
0
 62
3
  6
CONTINUOUS
  0
LAYER
  2
L6S
 70
0
 62
5
  6
CONTINUOUS
  0
LAYER
  2
L7P
 70
0
 62
10
  6
CONTINUOUS
  0
LAYER
  2
L8
 70
0
 62
14
  6
CONTINUOUS
  0
LAYER
  2
SMSE
 70
0
 62
12
  6
CONTINUOUS
  0
LAYER
  2
SLSE
 70
0
 62
7
  6
CONTINUOUS
  0
LAYER
  2
ROUT
 70
0
 62
7
  6
CONTINUOUS
  0
LAYER
  2
PTH
 70
0
 62
7
  6
CONTINUOUS
  0
LAYER
  2
NPTH
 70
0
 62
2
  6
CONTINUOUS
  0
LAYER
  2
SPPR
 70
0
 62
8
  6
CONTINUOUS
  0
LAYER
  2
SPSE
 70
0
 62
13
  6
CONTINUOUS
  0
LAYER
  2
FAB
 70
0
 62
7
  6
CONTINUOUS
  0
LAYER
  2
SSB_GBR
 70
0
 62
2
  6
CONTINUOUS
  0
LAYER
  2
SST_GBR
 70
0
 62
2
  6
CONTINUOUS
  0
ENDTAB
  0
TABLE
  2
STYLE
 70
0
  0
ENDTAB
  0
ENDSEC
  0
SECTION
  2
BLOCKS
  0
BLOCK
  2
ROUND_1
  3
ROUND_1
 70
64
 10
0.0000
 20
0.0000
 30
0.0000
  0
POLYLINE
  8
0
 66
1
 10
0.0000
 20
0.0000
 30
0.0000
 70
1
 40
0.0020
 41
0.0020
  0
VERTEX
  8
0
 10
-0.0010
 20
0.0000
 30
0.0000
 42
1
  0
VERTEX
  8
0
 10
0.0010
 20
0.0000
 30
0.0000
 42
1
  0
SEQEND
  0
ENDBLK
  0
BLOCK
  2
ROUND_2
  3
ROUND_2
 70
64
 10
0.0000
 20
0.0000
 30
0.0000
  0
POLYLINE
  8
0
 66
1
 10
0.0000
 20
0.0000
 30
0.0000
 70
1
 40
0.0040
 41
0.0040
  0
VERTEX
  8
0
 10
-0.0020
 20
0.0000
 30
0.0000
 42
1
  0
VERTEX
  8
0
 10
0.0020
 20
0.0000
 30
0.0000
 42
1
  0
SEQEND
  0
ENDBLK
  0
BLOCK
  2
ROUND_3
  3
ROUND_3
 70
64
 10
0.0000
 20
0.0000
 30
0.0000
  0
POLYLINE
  8
0
 66
1
 10
0.0000
 20
0.0000
 30
0.0000
 70
1
 40
0.0050
 41
0.0050
  0
VERTEX
  8
0
 10
-0.0025
 20
0.0000
 30
0.0000
 42
1
  0
VERTEX
  8
0
 10
0.0025
 20
0.0000
 30
0.0000
 42
1
  0
SEQEND
  0
ENDBLK
  0
BLOCK
  2
ROUND_4
  3
ROUND_4
 70
64
 10
0.0000
 20
0.0000
 30
0.0000
  0
POLYLINE
  8
0
 66
1
 10
0.0000
 20
0.0000
 30
0.0000
 70
1
 40
0.0025
 41
0.0025
  0
VERTEX
  8
0
 10
-0.00125
 20
0.0000
 30
0.0000
 42
1
  0
VERTEX
  8
0
 10
0.00125
 20
0.0000
 30
0.0000
 42
1
  0
SEQEND
  0
ENDBLK
  0
BLOCK
  2
ROUND_5
  3
ROUND_5
 70
64
 10
0.0000
 20
0.0000
 30
0.0000
  0
POLYLINE
  8
0
 66
1
 10
0.0000
 20
0.0000
 30
0.0000
 70
1
 40
0.0060
 41
0.0060
  0
VERTEX
  8
0
 10
-0.0030
 20
0.0000
 30
0.0000
 42
1
  0
VERTEX
  8
0
 10
0.0030
 20
0.0000
 30
0.0000
 42
1
  0
SEQEND
  0
ENDBLK
  0
BLOCK
  2
ROUND_6
  3
ROUND_6
 70
64
 10
0.0000
 20
0.0000
 30
0.0000
  0
POLYLINE
  8
0
 66
1
 10
0.0000
 20
0.0000
 30
0.0000
 70
1
 40
0.0100
 41
0.0100
  0
VERTEX
  8
0
 10
-0.0050
 20
0.0000
 30
0.0000
 42
1
  0
VERTEX
  8
0
 10
0.0050
 20
0.0000
 30
0.0000
 42
1
  0
SEQEND
  0
ENDBLK
  0
BLOCK
  2
ROUND_7
  3
ROUND_7
 70
64
 10
0.0000
 20
0.0000
 30
0.0000
  0
POLYLINE
  8
0
 66
1
 10
0.0000
 20
0.0000
 30
0.0000
 70
1
 40
0.0200
 41
0.0200
  0
VERTEX
  8
0
 10
-0.0100
 20
0.0000
 30
0.0000
 42
1
  0
VERTEX
  8
0
 10
0.0100
 20
0.0000
 30
0.0000
 42
1
  0
SEQEND
  0
ENDBLK
  0
BLOCK
  2
ROUND_8
  3
ROUND_8
 70
64
 10
0.0000
 20
0.0000
 30
0.0000
  0
POLYLINE
  8
0
 66
1
 10
0.0000
 20
0.0000
 30
0.0000
 70
1
 40
0.0035
 41
0.0035
  0
VERTEX
  8
0
 10
-0.00175
 20
0.0000
 30
0.0000
 42
1
  0
VERTEX
  8
0
 10
0.00175
 20
0.0000
 30
0.0000
 42
1
  0
SEQEND
  0
ENDBLK
  0
BLOCK
  2
ROUND_9
  3
ROUND_9
 70
64
 10
0.0000
 20
0.0000
 30
0.0000
  0
POLYLINE
  8
0
 66
1
 10
0.0000
 20
0.0000
 30
0.0000
 70
1
 40
0.0030
 41
0.0030
  0
VERTEX
  8
0
 10
-0.0015
 20
0.0000
 30
0.0000
 42
1
  0
VERTEX
  8
0
 10
0.0015
 20
0.0000
 30
0.0000
 42
1
  0
SEQEND
  0
ENDBLK
  0
BLOCK
  2
ROUND_10
  3
ROUND_10
 70
64
 10
0.0000
 20
0.0000
 30
0.0000
  0
POLYLINE
  8
0
 66
1
 10
0.0000
 20
0.0000
 30
0.0000
 70
1
 40
0.0150
 41
0.0150
  0
VERTEX
  8
0
 10
-0.0075
 20
0.0000
 30
0.0000
 42
1
  0
VERTEX
  8
0
 10
0.0075
 20
0.0000
 30
0.0000
 42
1
  0
SEQEND
  0
ENDBLK
  0
BLOCK
  2
ROUND_11
  3
ROUND_11
 70
64
 10
0.0000
 20
0.0000
 30
0.0000
  0
POLYLINE
  8
0
 66
1
 10
0.0000
 20
0.0000
 30
0.0000
 70
1
 40
0.0070
 41
0.0070
  0
VERTEX
  8
0
 10
-0.0035
 20
0.0000
 30
0.0000
 42
1
  0
VERTEX
  8
0
 10
0.0035
 20
0.0000
 30
0.0000
 42
1
  0
SEQEND
  0
ENDBLK
  0
BLOCK
  2
ROUND_12
  3
ROUND_12
 70
64
 10
0.0000
 20
0.0000
 30
0.0000
  0
POLYLINE
  8
0
 66
1
 10
0.0000
 20
0.0000
 30
0.0000
 70
1
 40
0.0075
 41
0.0075
  0
VERTEX
  8
0
 10
-0.00375
 20
0.0000
 30
0.0000
 42
1
  0
VERTEX
  8
0
 10
0.00375
 20
0.0000
 30
0.0000
 42
1
  0
SEQEND
  0
ENDBLK
  0
BLOCK
  2
ROUND_13
  3
ROUND_13
 70
64
 10
0.0000
 20
0.0000
 30
0.0000
  0
POLYLINE
  8
0
 66
1
 10
0.0000
 20
0.0000
 30
0.0000
 70
1
 40
0.0118109
 41
0.0118109
  0
VERTEX
  8
0
 10
-0.0059055
 20
0.0000
 30
0.0000
 42
1
  0
VERTEX
  8
0
 10
0.0059055
 20
0.0000
 30
0.0000
 42
1
  0
SEQEND
  0
ENDBLK
  0
BLOCK
  2
SQUARE_14
  3
SQUARE_14
 70
64
 10
0.0000
 20
0.0000
 30
0.0000
  0
SOLID
  8
0
 10
0.114173
 20
0.114173
 30
0.0000
 11
0.114173
 21
-0.114173
 31
0.0000
 12
-0.114173
 22
0.114173
 32
0.0000
 13
-0.114173
 23
-0.114173
 33
0.0000
  0
ENDBLK
  0
BLOCK
  2
ROUND_15
  3
ROUND_15
 70
64
 10
0.0000
 20
0.0000
 30
0.0000
  0
POLYLINE
  8
0
 66
1
 10
0.0000
 20
0.0000
 30
0.0000
 70
1
 40
0.1574805
 41
0.1574805
  0
VERTEX
  8
0
 10
-0.0787402
 20
0.0000
 30
0.0000
 42
1
  0
VERTEX
  8
0
 10
0.0787402
 20
0.0000
 30
0.0000
 42
1
  0
SEQEND
  0
ENDBLK
  0
BLOCK
  2
ROUND_16
  3
ROUND_16
 70
64
 10
0.0000
 20
0.0000
 30
0.0000
  0
POLYLINE
  8
0
 66
1
 10
0.0000
 20
0.0000
 30
0.0000
 70
1
 40
0.019685
 41
0.019685
  0
VERTEX
  8
0
 10
-0.0098425
 20
0.0000
 30
0.0000
 42
1
  0
VERTEX
  8
0
 10
0.0098425
 20
0.0000
 30
0.0000
 42
1
  0
SEQEND
  0
ENDBLK
  0
BLOCK
  2
ROUND_17
  3
ROUND_17
 70
64
 10
0.0000
 20
0.0000
 30
0.0000
  0
POLYLINE
  8
0
 66
1
 10
0.0000
 20
0.0000
 30
0.0000
 70
1
 40
0.0310
 41
0.0310
  0
VERTEX
  8
0
 10
-0.0155
 20
0.0000
 30
0.0000
 42
1
  0
VERTEX
  8
0
 10
0.0155
 20
0.0000
 30
0.0000
 42
1
  0
SEQEND
  0
ENDBLK
  0
BLOCK
  2
ROUND_18
  3
ROUND_18
 70
64
 10
0.0000
 20
0.0000
 30
0.0000
  0
POLYLINE
  8
0
 66
1
 10
0.0000
 20
0.0000
 30
0.0000
 70
1
 40
0.0276
 41
0.0276
  0
VERTEX
  8
0
 10
-0.0138
 20
0.0000
 30
0.0000
 42
1
  0
VERTEX
  8
0
 10
0.0138
 20
0.0000
 30
0.0000
 42
1
  0
SEQEND
  0
ENDBLK
  0
BLOCK
  2
ROUND_19
  3
ROUND_19
 70
64
 10
0.0000
 20
0.0000
 30
0.0000
  0
POLYLINE
  8
0
 66
1
 10
0.0000
 20
0.0000
 30
0.0000
 70
1
 40
0.03937
 41
0.03937
  0
VERTEX
  8
0
 10
-0.019685
 20
0.0000
 30
0.0000
 42
1
  0
VERTEX
  8
0
 10
0.019685
 20
0.0000
 30
0.0000
 42
1
  0
SEQEND
  0
ENDBLK
  0
BLOCK
  2
ROUND_20
  3
ROUND_20
 70
64
 10
0.0000
 20
0.0000
 30
0.0000
  0
POLYLINE
  8
0
 66
1
 10
0.0000
 20
0.0000
 30
0.0000
 70
1
 40
0.0295275
 41
0.0295275
  0
VERTEX
  8
0
 10
-0.0147638
 20
0.0000
 30
0.0000
 42
1
  0
VERTEX
  8
0
 10
0.0147638
 20
0.0000
 30
0.0000
 42
1
  0
SEQEND
  0
ENDBLK
  0
BLOCK
  2
ROUND_21
  3
ROUND_21
 70
64
 10
0.0000
 20
0.0000
 30
0.0000
  0
POLYLINE
  8
0
 66
1
 10
0.0000
 20
0.0000
 30
0.0000
 70
1
 40
0.0334645
 41
0.0334645
  0
VERTEX
  8
0
 10
-0.0167322
 20
0.0000
 30
0.0000
 42
1
  0
VERTEX
  8
0
 10
0.0167322
 20
0.0000
 30
0.0000
 42
1
  0
SEQEND
  0
ENDBLK
  0
BLOCK
  2
ROUND_22
  3
ROUND_22
 70
64
 10
0.0000
 20
0.0000
 30
0.0000
  0
POLYLINE
  8
0
 66
1
 10
0.0000
 20
0.0000
 30
0.0000
 70
1
 40
0.0216535
 41
0.0216535
  0
VERTEX
  8
0
 10
-0.0108268
 20
0.0000
 30
0.0000
 42
1
  0
VERTEX
  8
0
 10
0.0108268
 20
0.0000
 30
0.0000
 42
1
  0
SEQEND
  0
ENDBLK
  0
BLOCK
  2
ROUND_23
  3
ROUND_23
 70
64
 10
0.0000
 20
0.0000
 30
0.0000
  0
POLYLINE
  8
0
 66
1
 10
0.0000
 20
0.0000
 30
0.0000
 70
1
 40
0.027559
 41
0.027559
  0
VERTEX
  8
0
 10
-0.0137795
 20
0.0000
 30
0.0000
 42
1
  0
VERTEX
  8
0
 10
0.0137795
 20
0.0000
 30
0.0000
 42
1
  0
SEQEND
  0
ENDBLK
  0
BLOCK
  2
ROUND_25
  3
ROUND_25
 70
64
 10
0.0000
 20
0.0000
 30
0.0000
  0
POLYLINE
  8
0
 66
1
 10
0.0000
 20
0.0000
 30
0.0000
 70
1
 40
0.0125
 41
0.0125
  0
VERTEX
  8
0
 10
-0.00625
 20
0.0000
 30
0.0000
 42
1
  0
VERTEX
  8
0
 10
0.00625
 20
0.0000
 30
0.0000
 42
1
  0
SEQEND
  0
ENDBLK
  0
BLOCK
  2
ROUND_26
  3
ROUND_26
 70
64
 10
0.0000
 20
0.0000
 30
0.0000
  0
POLYLINE
  8
0
 66
1
 10
0.0000
 20
0.0000
 30
0.0000
 70
1
 40
0.00315
 41
0.00315
  0
VERTEX
  8
0
 10
-0.001575
 20
0.0000
 30
0.0000
 42
1
  0
VERTEX
  8
0
 10
0.001575
 20
0.0000
 30
0.0000
 42
1
  0
SEQEND
  0
ENDBLK
  0
BLOCK
  2
ROUND_27
  3
ROUND_27
 70
64
 10
0.0000
 20
0.0000
 30
0.0000
  0
POLYLINE
  8
0
 66
1
 10
0.0000
 20
0.0000
 30
0.0000
 70
1
 40
0.00225
 41
0.00225
  0
VERTEX
  8
0
 10
-0.001125
 20
0.0000
 30
0.0000
 42
1
  0
VERTEX
  8
0
 10
0.001125
 20
0.0000
 30
0.0000
 42
1
  0
SEQEND
  0
ENDBLK
  0
BLOCK
  2
ROUND_28
  3
ROUND_28
 70
64
 10
0.0000
 20
0.0000
 30
0.0000
  0
POLYLINE
  8
0
 66
1
 10
0.0000
 20
0.0000
 30
0.0000
 70
1
 40
0.043307
 41
0.043307
  0
VERTEX
  8
0
 10
-0.0216535
 20
0.0000
 30
0.0000
 42
1
  0
VERTEX
  8
0
 10
0.0216535
 20
0.0000
 30
0.0000
 42
1
  0
SEQEND
  0
ENDBLK
  0
BLOCK
  2
ROUND_29
  3
ROUND_29
 70
64
 10
0.0000
 20
0.0000
 30
0.0000
  0
POLYLINE
  8
0
 66
1
 10
0.0000
 20
0.0000
 30
0.0000
 70
1
 40
0.0324805
 41
0.0324805
  0
VERTEX
  8
0
 10
-0.0162402
 20
0.0000
 30
0.0000
 42
1
  0
VERTEX
  8
0
 10
0.0162402
 20
0.0000
 30
0.0000
 42
1
  0
SEQEND
  0
ENDBLK
  0
BLOCK
  2
ROUND_30
  3
ROUND_30
 70
64
 10
0.0000
 20
0.0000
 30
0.0000
  0
POLYLINE
  8
0
 66
1
 10
0.0000
 20
0.0000
 30
0.0000
 70
1
 40
0.022638
 41
0.022638
  0
VERTEX
  8
0
 10
-0.011319
 20
0.0000
 30
0.0000
 42
1
  0
VERTEX
  8
0
 10
0.011319
 20
0.0000
 30
0.0000
 42
1
  0
SEQEND
  0
ENDBLK
  0
BLOCK
  2
ROUND_31
  3
ROUND_31
 70
64
 10
0.0000
 20
0.0000
 30
0.0000
  0
POLYLINE
  8
0
 66
1
 10
0.0000
 20
0.0000
 30
0.0000
 70
1
 40
0.0885825
 41
0.0885825
  0
VERTEX
  8
0
 10
-0.0442913
 20
0.0000
 30
0.0000
 42
1
  0
VERTEX
  8
0
 10
0.0442913
 20
0.0000
 30
0.0000
 42
1
  0
SEQEND
  0
ENDBLK
  0
BLOCK
  2
ROUND_32
  3
ROUND_32
 70
64
 10
0.0000
 20
0.0000
 30
0.0000
  0
POLYLINE
  8
0
 66
1
 10
0.0000
 20
0.0000
 30
0.0000
 70
1
 40
0.042323
 41
0.042323
  0
VERTEX
  8
0
 10
-0.0211615
 20
0.0000
 30
0.0000
 42
1
  0
VERTEX
  8
0
 10
0.0211615
 20
0.0000
 30
0.0000
 42
1
  0
SEQEND
  0
ENDBLK
  0
BLOCK
  2
SQUARE_33
  3
SQUARE_33
 70
64
 10
0.0000
 20
0.0000
 30
0.0000
  0
SOLID
  8
0
 10
0.0310
 20
0.0310
 30
0.0000
 11
0.0310
 21
-0.0310
 31
0.0000
 12
-0.0310
 22
0.0310
 32
0.0000
 13
-0.0310
 23
-0.0310
 33
0.0000
  0
ENDBLK
  0
BLOCK
  2
ROUND_34
  3
ROUND_34
 70
64
 10
0.0000
 20
0.0000
 30
0.0000
  0
POLYLINE
  8
0
 66
1
 10
0.0000
 20
0.0000
 30
0.0000
 70
1
 40
0.0300
 41
0.0300
  0
VERTEX
  8
0
 10
-0.0150
 20
0.0000
 30
0.0000
 42
1
  0
VERTEX
  8
0
 10
0.0150
 20
0.0000
 30
0.0000
 42
1
  0
SEQEND
  0
ENDBLK
  0
BLOCK
  2
SQUARE_35
  3
SQUARE_35
 70
64
 10
0.0000
 20
0.0000
 30
0.0000
  0
SOLID
  8
0
 10
0.0295275
 20
0.0295275
 30
0.0000
 11
0.0295275
 21
-0.0295275
 31
0.0000
 12
-0.0295275
 22
0.0295275
 32
0.0000
 13
-0.0295275
 23
-0.0295275
 33
0.0000
  0
ENDBLK
  0
BLOCK
  2
ROUND_36
  3
ROUND_36
 70
64
 10
0.0000
 20
0.0000
 30
0.0000
  0
POLYLINE
  8
0
 66
1
 10
0.0000
 20
0.0000
 30
0.0000
 70
1
 40
0.0492125
 41
0.0492125
  0
VERTEX
  8
0
 10
-0.0246062
 20
0.0000
 30
0.0000
 42
1
  0
VERTEX
  8
0
 10
0.0246062
 20
0.0000
 30
0.0000
 42
1
  0
SEQEND
  0
ENDBLK
  0
BLOCK
  2
ROUND_37
  3
ROUND_37
 70
64
 10
0.0000
 20
0.0000
 30
0.0000
  0
POLYLINE
  8
0
 66
1
 10
0.0000
 20
0.0000
 30
0.0000
 70
1
 40
0.0639765
 41
0.0639765
  0
VERTEX
  8
0
 10
-0.0319883
 20
0.0000
 30
0.0000
 42
1
  0
VERTEX
  8
0
 10
0.0319883
 20
0.0000
 30
0.0000
 42
1
  0
SEQEND
  0
ENDBLK
  0
BLOCK
  2
ROUND_38
  3
ROUND_38
 70
64
 10
0.0000
 20
0.0000
 30
0.0000
  0
POLYLINE
  8
0
 66
1
 10
0.0000
 20
0.0000
 30
0.0000
 70
1
 40
0.031496
 41
0.031496
  0
VERTEX
  8
0
 10
-0.015748
 20
0.0000
 30
0.0000
 42
1
  0
VERTEX
  8
0
 10
0.015748
 20
0.0000
 30
0.0000
 42
1
  0
SEQEND
  0
ENDBLK
  0
BLOCK
  2
ROUND_39
  3
ROUND_39
 70
64
 10
0.0000
 20
0.0000
 30
0.0000
  0
POLYLINE
  8
0
 66
1
 10
0.0000
 20
0.0000
 30
0.0000
 70
1
 40
0.10433
 41
0.10433
  0
VERTEX
  8
0
 10
-0.052165
 20
0.0000
 30
0.0000
 42
1
  0
VERTEX
  8
0
 10
0.052165
 20
0.0000
 30
0.0000
 42
1
  0
SEQEND
  0
ENDBLK
  0
BLOCK
  2
ROUND_40
  3
ROUND_40
 70
64
 10
0.0000
 20
0.0000
 30
0.0000
  0
POLYLINE
  8
0
 66
1
 10
0.0000
 20
0.0000
 30
0.0000
 70
1
 40
0.027559
 41
0.027559
  0
VERTEX
  8
0
 10
-0.0137795
 20
0.0000
 30
0.0000
 42
1
  0
VERTEX
  8
0
 10
0.0137795
 20
0.0000
 30
0.0000
 42
1
  0
SEQEND
  0
ENDBLK
  0
BLOCK
  2
ROUND_41
  3
ROUND_41
 70
64
 10
0.0000
 20
0.0000
 30
0.0000
  0
POLYLINE
  8
0
 66
1
 10
0.0000
 20
0.0000
 30
0.0000
 70
1
 40
0.0250
 41
0.0250
  0
VERTEX
  8
0
 10
-0.0125
 20
0.0000
 30
0.0000
 42
1
  0
VERTEX
  8
0
 10
0.0125
 20
0.0000
 30
0.0000
 42
1
  0
SEQEND
  0
ENDBLK
  0
BLOCK
  2
ROUND_42
  3
ROUND_42
 70
64
 10
0.0000
 20
0.0000
 30
0.0000
  0
POLYLINE
  8
0
 66
1
 10
0.0000
 20
0.0000
 30
0.0000
 70
1
 40
0.002375
 41
0.002375
  0
VERTEX
  8
0
 10
-0.0011875
 20
0.0000
 30
0.0000
 42
1
  0
VERTEX
  8
0
 10
0.0011875
 20
0.0000
 30
0.0000
 42
1
  0
SEQEND
  0
ENDBLK
  0
BLOCK
  2
ROUND_43
  3
ROUND_43
 70
64
 10
0.0000
 20
0.0000
 30
0.0000
  0
POLYLINE
  8
0
 66
1
 10
0.0000
 20
0.0000
 30
0.0000
 70
1
 40
0.0065
 41
0.0065
  0
VERTEX
  8
0
 10
-0.00325
 20
0.0000
 30
0.0000
 42
1
  0
VERTEX
  8
0
 10
0.00325
 20
0.0000
 30
0.0000
 42
1
  0
SEQEND
  0
ENDBLK
  0
BLOCK
  2
ROUND_44
  3
ROUND_44
 70
64
 10
0.0000
 20
0.0000
 30
0.0000
  0
POLYLINE
  8
0
 66
1
 10
0.0000
 20
0.0000
 30
0.0000
 70
1
 40
0.0450
 41
0.0450
  0
VERTEX
  8
0
 10
-0.0225
 20
0.0000
 30
0.0000
 42
1
  0
VERTEX
  8
0
 10
0.0225
 20
0.0000
 30
0.0000
 42
1
  0
SEQEND
  0
ENDBLK
  0
BLOCK
  2
ROUND_45
  3
ROUND_45
 70
64
 10
0.0000
 20
0.0000
 30
0.0000
  0
POLYLINE
  8
0
 66
1
 10
0.0000
 20
0.0000
 30
0.0000
 70
1
 40
0.00275
 41
0.00275
  0
VERTEX
  8
0
 10
-0.001375
 20
0.0000
 30
0.0000
 42
1
  0
VERTEX
  8
0
 10
0.001375
 20
0.0000
 30
0.0000
 42
1
  0
SEQEND
  0
ENDBLK
  0
BLOCK
  2
SQUARE_46
  3
SQUARE_46
 70
64
 10
0.0000
 20
0.0000
 30
0.0000
  0
SOLID
  8
0
 10
0.0110
 20
0.0110
 30
0.0000
 11
0.0110
 21
-0.0110
 31
0.0000
 12
-0.0110
 22
0.0110
 32
0.0000
 13
-0.0110
 23
-0.0110
 33
0.0000
  0
ENDBLK
  0
BLOCK
  2
SQUARE_47
  3
SQUARE_47
 70
64
 10
0.0000
 20
0.0000
 30
0.0000
  0
SOLID
  8
0
 10
0.023622
 20
0.023622
 30
0.0000
 11
0.023622
 21
-0.023622
 31
0.0000
 12
-0.023622
 22
0.023622
 32
0.0000
 13
-0.023622
 23
-0.023622
 33
0.0000
  0
ENDBLK
  0
BLOCK
  2
SQUARE_48
  3
SQUARE_48
 70
64
 10
0.0000
 20
0.0000
 30
0.0000
  0
SOLID
  8
0
 10
0.019685
 20
0.019685
 30
0.0000
 11
0.019685
 21
-0.019685
 31
0.0000
 12
-0.019685
 22
0.019685
 32
0.0000
 13
-0.019685
 23
-0.019685
 33
0.0000
  0
ENDBLK
  0
BLOCK
  2
SQUARE_49
  3
SQUARE_49
 70
64
 10
0.0000
 20
0.0000
 30
0.0000
  0
SOLID
  8
0
 10
0.031496
 20
0.031496
 30
0.0000
 11
0.031496
 21
-0.031496
 31
0.0000
 12
-0.031496
 22
0.031496
 32
0.0000
 13
-0.031496
 23
-0.031496
 33
0.0000
  0
ENDBLK
  0
BLOCK
  2
SQUARE_50
  3
SQUARE_50
 70
64
 10
0.0000
 20
0.0000
 30
0.0000
  0
SOLID
  8
0
 10
0.043307
 20
0.043307
 30
0.0000
 11
0.043307
 21
-0.043307
 31
0.0000
 12
-0.043307
 22
0.043307
 32
0.0000
 13
-0.043307
 23
-0.043307
 33
0.0000
  0
ENDBLK
  0
BLOCK
  2
SQUARE_51
  3
SQUARE_51
 70
64
 10
0.0000
 20
0.0000
 30
0.0000
  0
SOLID
  8
0
 10
0.01811
 20
0.01811
 30
0.0000
 11
0.01811
 21
-0.01811
 31
0.0000
 12
-0.01811
 22
0.01811
 32
0.0000
 13
-0.01811
 23
-0.01811
 33
0.0000
  0
ENDBLK
  0
BLOCK
  2
SQUARE_52
  3
SQUARE_52
 70
64
 10
0.0000
 20
0.0000
 30
0.0000
  0
SOLID
  8
0
 10
0.0200
 20
0.0200
 30
0.0000
 11
0.0200
 21
-0.0200
 31
0.0000
 12
-0.0200
 22
0.0200
 32
0.0000
 13
-0.0200
 23
-0.0200
 33
0.0000
  0
ENDBLK
  0
BLOCK
  2
SQUARE_53
  3
SQUARE_53
 70
64
 10
0.0000
 20
0.0000
 30
0.0000
  0
SOLID
  8
0
 10
0.0170
 20
0.0170
 30
0.0000
 11
0.0170
 21
-0.0170
 31
0.0000
 12
-0.0170
 22
0.0170
 32
0.0000
 13
-0.0170
 23
-0.0170
 33
0.0000
  0
ENDBLK
  0
BLOCK
  2
SQUARE_54
  3
SQUARE_54
 70
64
 10
0.0000
 20
0.0000
 30
0.0000
  0
SOLID
  8
0
 10
0.0118109
 20
0.0118109
 30
0.0000
 11
0.0118109
 21
-0.0118109
 31
0.0000
 12
-0.0118109
 22
0.0118109
 32
0.0000
 13
-0.0118109
 23
-0.0118109
 33
0.0000
  0
ENDBLK
  0
BLOCK
  2
SQUARE_55
  3
SQUARE_55
 70
64
 10
0.0000
 20
0.0000
 30
0.0000
  0
SOLID
  8
0
 10
0.0452755
 20
0.0452755
 30
0.0000
 11
0.0452755
 21
-0.0452755
 31
0.0000
 12
-0.0452755
 22
0.0452755
 32
0.0000
 13
-0.0452755
 23
-0.0452755
 33
0.0000
  0
ENDBLK
  0
BLOCK
  2
ROUND_56
  3
ROUND_56
 70
64
 10
0.0000
 20
0.0000
 30
0.0000
  0
POLYLINE
  8
0
 66
1
 10
0.0000
 20
0.0000
 30
0.0000
 70
1
 40
0.015748
 41
0.015748
  0
VERTEX
  8
0
 10
-0.007874
 20
0.0000
 30
0.0000
 42
1
  0
VERTEX
  8
0
 10
0.007874
 20
0.0000
 30
0.0000
 42
1
  0
SEQEND
  0
ENDBLK
  0
BLOCK
  2
SQUARE_57
  3
SQUARE_57
 70
64
 10
0.0000
 20
0.0000
 30
0.0000
  0
SOLID
  8
0
 10
0.03937
 20
0.03937
 30
0.0000
 11
0.03937
 21
-0.03937
 31
0.0000
 12
-0.03937
 22
0.03937
 32
0.0000
 13
-0.03937
 23
-0.03937
 33
0.0000
  0
ENDBLK
  0
BLOCK
  2
SQUARE_58
  3
SQUARE_58
 70
64
 10
0.0000
 20
0.0000
 30
0.0000
  0
SOLID
  8
0
 10
0.0475
 20
0.0475
 30
0.0000
 11
0.0475
 21
-0.0475
 31
0.0000
 12
-0.0475
 22
0.0475
 32
0.0000
 13
-0.0475
 23
-0.0475
 33
0.0000
  0
ENDBLK
  0
BLOCK
  2
SQUARE_59
  3
SQUARE_59
 70
64
 10
0.0000
 20
0.0000
 30
0.0000
  0
SOLID
  8
0
 10
0.0216535
 20
0.0216535
 30
0.0000
 11
0.0216535
 21
-0.0216535
 31
0.0000
 12
-0.0216535
 22
0.0216535
 32
0.0000
 13
-0.0216535
 23
-0.0216535
 33
0.0000
  0
ENDBLK
  0
BLOCK
  2
SQUARE_60
  3
SQUARE_60
 70
64
 10
0.0000
 20
0.0000
 30
0.0000
  0
SOLID
  8
0
 10
0.0300
 20
0.0300
 30
0.0000
 11
0.0300
 21
-0.0300
 31
0.0000
 12
-0.0300
 22
0.0300
 32
0.0000
 13
-0.0300
 23
-0.0300
 33
0.0000
  0
ENDBLK
  0
BLOCK
  2
SQUARE_61
  3
SQUARE_61
 70
64
 10
0.0000
 20
0.0000
 30
0.0000
  0
SOLID
  8
0
 10
0.003937
 20
0.003937
 30
0.0000
 11
0.003937
 21
-0.003937
 31
0.0000
 12
-0.003937
 22
0.003937
 32
0.0000
 13
-0.003937
 23
-0.003937
 33
0.0000
  0
ENDBLK
  0
BLOCK
  2
SQUARE_62
  3
SQUARE_62
 70
64
 10
0.0000
 20
0.0000
 30
0.0000
  0
SOLID
  8
0
 10
0.015748
 20
0.015748
 30
0.0000
 11
0.015748
 21
-0.015748
 31
0.0000
 12
-0.015748
 22
0.015748
 32
0.0000
 13
-0.015748
 23
-0.015748
 33
0.0000
  0
ENDBLK
  0
BLOCK
  2
SQUARE_63
  3
SQUARE_63
 70
64
 10
0.0000
 20
0.0000
 30
0.0000
  0
SOLID
  8
0
 10
0.0285435
 20
0.0285435
 30
0.0000
 11
0.0285435
 21
-0.0285435
 31
0.0000
 12
-0.0285435
 22
0.0285435
 32
0.0000
 13
-0.0285435
 23
-0.0285435
 33
0.0000
  0
ENDBLK
  0
BLOCK
  2
SQUARE_64
  3
SQUARE_64
 70
64
 10
0.0000
 20
0.0000
 30
0.0000
  0
SOLID
  8
0
 10
0.059055
 20
0.059055
 30
0.0000
 11
0.059055
 21
-0.059055
 31
0.0000
 12
-0.059055
 22
0.059055
 32
0.0000
 13
-0.059055
 23
-0.059055
 33
0.0000
  0
ENDBLK
  0
BLOCK
  2
SQUARE_65
  3
SQUARE_65
 70
64
 10
0.0000
 20
0.0000
 30
0.0000
  0
SOLID
  8
0
 10
0.027559
 20
0.027559
 30
0.0000
 11
0.027559
 21
-0.027559
 31
0.0000
 12
-0.027559
 22
0.027559
 32
0.0000
 13
-0.027559
 23
-0.027559
 33
0.0000
  0
ENDBLK
  0
BLOCK
  2
SQUARE_66
  3
SQUARE_66
 70
64
 10
0.0000
 20
0.0000
 30
0.0000
  0
SOLID
  8
0
 10
0.00689
 20
0.00689
 30
0.0000
 11
0.00689
 21
-0.00689
 31
0.0000
 12
-0.00689
 22
0.00689
 32
0.0000
 13
-0.00689
 23
-0.00689
 33
0.0000
  0
ENDBLK
  0
BLOCK
  2
SQUARE_67
  3
SQUARE_67
 70
64
 10
0.0000
 20
0.0000
 30
0.0000
  0
SOLID
  8
0
 10
0.0049215
 20
0.0049215
 30
0.0000
 11
0.0049215
 21
-0.0049215
 31
0.0000
 12
-0.0049215
 22
0.0049215
 32
0.0000
 13
-0.0049215
 23
-0.0049215
 33
0.0000
  0
ENDBLK
  0
BLOCK
  2
ROUND_68
  3
ROUND_68
 70
64
 10
0.0000
 20
0.0000
 30
0.0000
  0
POLYLINE
  8
0
 66
1
 10
0.0000
 20
0.0000
 30
0.0000
 70
1
 40
0.00492
 41
0.00492
  0
VERTEX
  8
0
 10
-0.00246
 20
0.0000
 30
0.0000
 42
1
  0
VERTEX
  8
0
 10
0.00246
 20
0.0000
 30
0.0000
 42
1
  0
SEQEND
  0
ENDBLK
  0
BLOCK
  2
SQUARE_69
  3
SQUARE_69
 70
64
 10
0.0000
 20
0.0000
 30
0.0000
  0
SOLID
  8
0
 10
0.0059055
 20
0.0059055
 30
0.0000
 11
0.0059055
 21
-0.0059055
 31
0.0000
 12
-0.0059055
 22
0.0059055
 32
0.0000
 13
-0.0059055
 23
-0.0059055
 33
0.0000
  0
ENDBLK
  0
BLOCK
  2
SQUARE_70
  3
SQUARE_70
 70
64
 10
0.0000
 20
0.0000
 30
0.0000
  0
SOLID
  8
0
 10
0.0137794
 20
0.0137794
 30
0.0000
 11
0.0137794
 21
-0.0137794
 31
0.0000
 12
-0.0137794
 22
0.0137794
 32
0.0000
 13
-0.0137794
 23
-0.0137794
 33
0.0000
  0
ENDBLK
  0
BLOCK
  2
SQUARE_71
  3
SQUARE_71
 70
64
 10
0.0000
 20
0.0000
 30
0.0000
  0
SOLID
  8
0
 10
0.035433
 20
0.035433
 30
0.0000
 11
0.035433
 21
-0.035433
 31
0.0000
 12
-0.035433
 22
0.035433
 32
0.0000
 13
-0.035433
 23
-0.035433
 33
0.0000
  0
ENDBLK
  0
BLOCK
  2
ROUND_72
  3
ROUND_72
 70
64
 10
0.0000
 20
0.0000
 30
0.0000
  0
POLYLINE
  8
0
 66
1
 10
0.0000
 20
0.0000
 30
0.0000
 70
1
 40
0.0153545
 41
0.0153545
  0
VERTEX
  8
0
 10
-0.0076772
 20
0.0000
 30
0.0000
 42
1
  0
VERTEX
  8
0
 10
0.0076772
 20
0.0000
 30
0.0000
 42
1
  0
SEQEND
  0
ENDBLK
  0
BLOCK
  2
SQUARE_73
  3
SQUARE_73
 70
64
 10
0.0000
 20
0.0000
 30
0.0000
  0
SOLID
  8
0
 10
0.0175194
 20
0.0175194
 30
0.0000
 11
0.0175194
 21
-0.0175194
 31
0.0000
 12
-0.0175194
 22
0.0175194
 32
0.0000
 13
-0.0175194
 23
-0.0175194
 33
0.0000
  0
ENDBLK
  0
BLOCK
  2
SQUARE_74
  3
SQUARE_74
 70
64
 10
0.0000
 20
0.0000
 30
0.0000
  0
SOLID
  8
0
 10
0.105315
 20
0.105315
 30
0.0000
 11
0.105315
 21
-0.105315
 31
0.0000
 12
-0.105315
 22
0.105315
 32
0.0000
 13
-0.105315
 23
-0.105315
 33
0.0000
  0
ENDBLK
  0
BLOCK
  2
SQUARE_75
  3
SQUARE_75
 70
64
 10
0.0000
 20
0.0000
 30
0.0000
  0
SOLID
  8
0
 10
0.0521655
 20
0.0521655
 30
0.0000
 11
0.0521655
 21
-0.0521655
 31
0.0000
 12
-0.0521655
 22
0.0521655
 32
0.0000
 13
-0.0521655
 23
-0.0521655
 33
0.0000
  0
ENDBLK
  0
BLOCK
  2
SQUARE_76
  3
SQUARE_76
 70
64
 10
0.0000
 20
0.0000
 30
0.0000
  0
SOLID
  8
0
 10
0.007874
 20
0.007874
 30
0.0000
 11
0.007874
 21
-0.007874
 31
0.0000
 12
-0.007874
 22
0.007874
 32
0.0000
 13
-0.007874
 23
-0.007874
 33
0.0000
  0
ENDBLK
  0
BLOCK
  2
ROUND_77
  3
ROUND_77
 70
64
 10
0.0000
 20
0.0000
 30
0.0000
  0
POLYLINE
  8
0
 66
1
 10
0.0000
 20
0.0000
 30
0.0000
 70
1
 40
0.0120
 41
0.0120
  0
VERTEX
  8
0
 10
-0.0060
 20
0.0000
 30
0.0000
 42
1
  0
VERTEX
  8
0
 10
0.0060
 20
0.0000
 30
0.0000
 42
1
  0
SEQEND
  0
ENDBLK
  0
BLOCK
  2
SQUARE_78
  3
SQUARE_78
 70
64
 10
0.0000
 20
0.0000
 30
0.0000
  0
SOLID
  8
0
 10
0.002362
 20
0.002362
 30
0.0000
 11
0.002362
 21
-0.002362
 31
0.0000
 12
-0.002362
 22
0.002362
 32
0.0000
 13
-0.002362
 23
-0.002362
 33
0.0000
  0
ENDBLK
  0
BLOCK
  2
SQUARE_79
  3
SQUARE_79
 70
64
 10
0.0000
 20
0.0000
 30
0.0000
  0
SOLID
  8
0
 10
0.0122045
 20
0.0122045
 30
0.0000
 11
0.0122045
 21
-0.0122045
 31
0.0000
 12
-0.0122045
 22
0.0122045
 32
0.0000
 13
-0.0122045
 23
-0.0122045
 33
0.0000
  0
ENDBLK
  0
BLOCK
  2
SQUARE_80
  3
SQUARE_80
 70
64
 10
0.0000
 20
0.0000
 30
0.0000
  0
SOLID
  8
0
 10
0.0403545
 20
0.0403545
 30
0.0000
 11
0.0403545
 21
-0.0403545
 31
0.0000
 12
-0.0403545
 22
0.0403545
 32
0.0000
 13
-0.0403545
 23
-0.0403545
 33
0.0000
  0
ENDBLK
  0
BLOCK
  2
ROUND_81
  3
ROUND_81
 70
64
 10
0.0000
 20
0.0000
 30
0.0000
  0
POLYLINE
  8
0
 66
1
 10
0.0000
 20
0.0000
 30
0.0000
 70
1
 40
0.007874
 41
0.007874
  0
VERTEX
  8
0
 10
-0.003937
 20
0.0000
 30
0.0000
 42
1
  0
VERTEX
  8
0
 10
0.003937
 20
0.0000
 30
0.0000
 42
1
  0
SEQEND
  0
ENDBLK
  0
BLOCK
  2
SQUARE_82
  3
SQUARE_82
 70
64
 10
0.0000
 20
0.0000
 30
0.0000
  0
SOLID
  8
0
 10
0.0124015
 20
0.0124015
 30
0.0000
 11
0.0124015
 21
-0.0124015
 31
0.0000
 12
-0.0124015
 22
0.0124015
 32
0.0000
 13
-0.0124015
 23
-0.0124015
 33
0.0000
  0
ENDBLK
  0
BLOCK
  2
ROUND_83
  3
ROUND_83
 70
64
 10
0.0000
 20
0.0000
 30
0.0000
  0
POLYLINE
  8
0
 66
1
 10
0.0000
 20
0.0000
 30
0.0000
 70
1
 40
0.009449
 41
0.009449
  0
VERTEX
  8
0
 10
-0.0047245
 20
0.0000
 30
0.0000
 42
1
  0
VERTEX
  8
0
 10
0.0047245
 20
0.0000
 30
0.0000
 42
1
  0
SEQEND
  0
ENDBLK
  0
BLOCK
  2
SQUARE_84
  3
SQUARE_84
 70
64
 10
0.0000
 20
0.0000
 30
0.0000
  0
SOLID
  8
0
 10
0.0140
 20
0.0140
 30
0.0000
 11
0.0140
 21
-0.0140
 31
0.0000
 12
-0.0140
 22
0.0140
 32
0.0000
 13
-0.0140
 23
-0.0140
 33
0.0000
  0
ENDBLK
  0
BLOCK
  2
SQUARE_85
  3
SQUARE_85
 70
64
 10
0.0000
 20
0.0000
 30
0.0000
  0
SOLID
  8
0
 10
0.0177165
 20
0.0177165
 30
0.0000
 11
0.0177165
 21
-0.0177165
 31
0.0000
 12
-0.0177165
 22
0.0177165
 32
0.0000
 13
-0.0177165
 23
-0.0177165
 33
0.0000
  0
ENDBLK
  0
BLOCK
  2
SQUARE_86
  3
SQUARE_86
 70
64
 10
0.0000
 20
0.0000
 30
0.0000
  0
SOLID
  8
0
 10
0.0043305
 20
0.0043305
 30
0.0000
 11
0.0043305
 21
-0.0043305
 31
0.0000
 12
-0.0043305
 22
0.0043305
 32
0.0000
 13
-0.0043305
 23
-0.0043305
 33
0.0000
  0
ENDBLK
  0
BLOCK
  2
ROUND_87
  3
ROUND_87
 70
64
 10
0.0000
 20
0.0000
 30
0.0000
  0
POLYLINE
  8
0
 66
1
 10
0.0000
 20
0.0000
 30
0.0000
 70
1
 40
0.005512
 41
0.005512
  0
VERTEX
  8
0
 10
-0.002756
 20
0.0000
 30
0.0000
 42
1
  0
VERTEX
  8
0
 10
0.002756
 20
0.0000
 30
0.0000
 42
1
  0
SEQEND
  0
ENDBLK
  0
BLOCK
  2
SQUARE_88
  3
SQUARE_88
 70
64
 10
0.0000
 20
0.0000
 30
0.0000
  0
SOLID
  8
0
 10
0.010827
 20
0.010827
 30
0.0000
 11
0.010827
 21
-0.010827
 31
0.0000
 12
-0.010827
 22
0.010827
 32
0.0000
 13
-0.010827
 23
-0.010827
 33
0.0000
  0
ENDBLK
  0
BLOCK
  2
SQUARE_89
  3
SQUARE_89
 70
64
 10
0.0000
 20
0.0000
 30
0.0000
  0
SOLID
  8
0
 10
0.0060
 20
0.0060
 30
0.0000
 11
0.0060
 21
-0.0060
 31
0.0000
 12
-0.0060
 22
0.0060
 32
0.0000
 13
-0.0060
 23
-0.0060
 33
0.0000
  0
ENDBLK
  0
BLOCK
  2
SQUARE_90
  3
SQUARE_90
 70
64
 10
0.0000
 20
0.0000
 30
0.0000
  0
SOLID
  8
0
 10
0.0149605
 20
0.0149605
 30
0.0000
 11
0.0149605
 21
-0.0149605
 31
0.0000
 12
-0.0149605
 22
0.0149605
 32
0.0000
 13
-0.0149605
 23
-0.0149605
 33
0.0000
  0
ENDBLK
  0
BLOCK
  2
SQUARE_91
  3
SQUARE_91
 70
64
 10
0.0000
 20
0.0000
 30
0.0000
  0
SOLID
  8
0
 10
0.098425
 20
0.098425
 30
0.0000
 11
0.098425
 21
-0.098425
 31
0.0000
 12
-0.098425
 22
0.098425
 32
0.0000
 13
-0.098425
 23
-0.098425
 33
0.0000
  0
ENDBLK
  0
BLOCK
  2
ROUND_92
  3
ROUND_92
 70
64
 10
0.0000
 20
0.0000
 30
0.0000
  0
POLYLINE
  8
0
 66
1
 10
0.0000
 20
0.0000
 30
0.0000
 70
1
 40
0.0074805
 41
0.0074805
  0
VERTEX
  8
0
 10
-0.0037402
 20
0.0000
 30
0.0000
 42
1
  0
VERTEX
  8
0
 10
0.0037402
 20
0.0000
 30
0.0000
 42
1
  0
SEQEND
  0
ENDBLK
  0
BLOCK
  2
SQUARE_93
  3
SQUARE_93
 70
64
 10
0.0000
 20
0.0000
 30
0.0000
  0
SOLID
  8
0
 10
0.062008
 20
0.062008
 30
0.0000
 11
0.062008
 21
-0.062008
 31
0.0000
 12
-0.062008
 22
0.062008
 32
0.0000
 13
-0.062008
 23
-0.062008
 33
0.0000
  0
ENDBLK
  0
BLOCK
  2
ROUND_94
  3
ROUND_94
 70
64
 10
0.0000
 20
0.0000
 30
0.0000
  0
POLYLINE
  8
0
 66
1
 10
0.0000
 20
0.0000
 30
0.0000
 70
1
 40
0.023622
 41
0.023622
  0
VERTEX
  8
0
 10
-0.011811
 20
0.0000
 30
0.0000
 42
1
  0
VERTEX
  8
0
 10
0.011811
 20
0.0000
 30
0.0000
 42
1
  0
SEQEND
  0
ENDBLK
  0
BLOCK
  2
ROUND_95
  3
ROUND_95
 70
64
 10
0.0000
 20
0.0000
 30
0.0000
  0
POLYLINE
  8
0
 66
1
 10
0.0000
 20
0.0000
 30
0.0000
 70
1
 40
0.0059055
 41
0.0059055
  0
VERTEX
  8
0
 10
-0.0029528
 20
0.0000
 30
0.0000
 42
1
  0
VERTEX
  8
0
 10
0.0029528
 20
0.0000
 30
0.0000
 42
1
  0
SEQEND
  0
ENDBLK
  0
BLOCK
  2
SQUARE_96
  3
SQUARE_96
 70
64
 10
0.0000
 20
0.0000
 30
0.0000
  0
SOLID
  8
0
 10
0.0413385
 20
0.0413385
 30
0.0000
 11
0.0413385
 21
-0.0413385
 31
0.0000
 12
-0.0413385
 22
0.0413385
 32
0.0000
 13
-0.0413385
 23
-0.0413385
 33
0.0000
  0
ENDBLK
  0
BLOCK
  2
SQUARE_97
  3
SQUARE_97
 70
64
 10
0.0000
 20
0.0000
 30
0.0000
  0
SOLID
  8
0
 10
0.0120
 20
0.0120
 30
0.0000
 11
0.0120
 21
-0.0120
 31
0.0000
 12
-0.0120
 22
0.0120
 32
0.0000
 13
-0.0120
 23
-0.0120
 33
0.0000
  0
ENDBLK
  0
BLOCK
  2
SQUARE_98
  3
SQUARE_98
 70
64
 10
0.0000
 20
0.0000
 30
0.0000
  0
SOLID
  8
0
 10
0.0160
 20
0.0160
 30
0.0000
 11
0.0160
 21
-0.0160
 31
0.0000
 12
-0.0160
 22
0.0160
 32
0.0000
 13
-0.0160
 23
-0.0160
 33
0.0000
  0
ENDBLK
  0
BLOCK
  2
SQUARE_99
  3
SQUARE_99
 70
64
 10
0.0000
 20
0.0000
 30
0.0000
  0
SOLID
  8
0
 10
0.0100
 20
0.0100
 30
0.0000
 11
0.0100
 21
-0.0100
 31
0.0000
 12
-0.0100
 22
0.0100
 32
0.0000
 13
-0.0100
 23
-0.0100
 33
0.0000
  0
ENDBLK
  0
BLOCK
  2
SQUARE_100
  3
SQUARE_100
 70
64
 10
0.0000
 20
0.0000
 30
0.0000
  0
SOLID
  8
0
 10
0.006004
 20
0.006004
 30
0.0000
 11
0.006004
 21
-0.006004
 31
0.0000
 12
-0.006004
 22
0.006004
 32
0.0000
 13
-0.006004
 23
-0.006004
 33
0.0000
  0
ENDBLK
  0
BLOCK
  2
SQUARE_101
  3
SQUARE_101
 70
64
 10
0.0000
 20
0.0000
 30
0.0000
  0
SOLID
  8
0
 10
0.0325
 20
0.0325
 30
0.0000
 11
0.0325
 21
-0.0325
 31
0.0000
 12
-0.0325
 22
0.0325
 32
0.0000
 13
-0.0325
 23
-0.0325
 33
0.0000
  0
ENDBLK
  0
BLOCK
  2
SQUARE_102
  3
SQUARE_102
 70
64
 10
0.0000
 20
0.0000
 30
0.0000
  0
SOLID
  8
0
 10
0.005512
 20
0.005512
 30
0.0000
 11
0.005512
 21
-0.005512
 31
0.0000
 12
-0.005512
 22
0.005512
 32
0.0000
 13
-0.005512
 23
-0.005512
 33
0.0000
  0
ENDBLK
  0
BLOCK
  2
SQUARE_103
  3
SQUARE_103
 70
64
 10
0.0000
 20
0.0000
 30
0.0000
  0
SOLID
  8
0
 10
0.0637794
 20
0.0637794
 30
0.0000
 11
0.0637794
 21
-0.0637794
 31
0.0000
 12
-0.0637794
 22
0.0637794
 32
0.0000
 13
-0.0637794
 23
-0.0637794
 33
0.0000
  0
ENDBLK
  0
BLOCK
  2
SQUARE_104
  3
SQUARE_104
 70
64
 10
0.0000
 20
0.0000
 30
0.0000
  0
SOLID
  8
0
 10
0.0330
 20
0.0330
 30
0.0000
 11
0.0330
 21
-0.0330
 31
0.0000
 12
-0.0330
 22
0.0330
 32
0.0000
 13
-0.0330
 23
-0.0330
 33
0.0000
  0
ENDBLK
  0
BLOCK
  2
ROUND_105
  3
ROUND_105
 70
64
 10
0.0000
 20
0.0000
 30
0.0000
  0
POLYLINE
  8
0
 66
1
 10
0.0000
 20
0.0000
 30
0.0000
 70
1
 40
0.0330
 41
0.0330
  0
VERTEX
  8
0
 10
-0.0165
 20
0.0000
 30
0.0000
 42
1
  0
VERTEX
  8
0
 10
0.0165
 20
0.0000
 30
0.0000
 42
1
  0
SEQEND
  0
ENDBLK
  0
BLOCK
  2
ROUND_106
  3
ROUND_106
 70
64
 10
0.0000
 20
0.0000
 30
0.0000
  0
POLYLINE
  8
0
 66
1
 10
0.0000
 20
0.0000
 30
0.0000
 70
1
 40
0.0370
 41
0.0370
  0
VERTEX
  8
0
 10
-0.0185
 20
0.0000
 30
0.0000
 42
1
  0
VERTEX
  8
0
 10
0.0185
 20
0.0000
 30
0.0000
 42
1
  0
SEQEND
  0
ENDBLK
  0
BLOCK
  2
SQUARE_107
  3
SQUARE_107
 70
64
 10
0.0000
 20
0.0000
 30
0.0000
  0
SOLID
  8
0
 10
0.0433
 20
0.0433
 30
0.0000
 11
0.0433
 21
-0.0433
 31
0.0000
 12
-0.0433
 22
0.0433
 32
0.0000
 13
-0.0433
 23
-0.0433
 33
0.0000
  0
ENDBLK
  0
BLOCK
  2
ROUND_108
  3
ROUND_108
 70
64
 10
0.0000
 20
0.0000
 30
0.0000
  0
POLYLINE
  8
0
 66
1
 10
0.0000
 20
0.0000
 30
0.0000
 70
1
 40
0.0433
 41
0.0433
  0
VERTEX
  8
0
 10
-0.02165
 20
0.0000
 30
0.0000
 42
1
  0
VERTEX
  8
0
 10
0.02165
 20
0.0000
 30
0.0000
 42
1
  0
SEQEND
  0
ENDBLK
  0
BLOCK
  2
SQUARE_109
  3
SQUARE_109
 70
64
 10
0.0000
 20
0.0000
 30
0.0000
  0
SOLID
  8
0
 10
0.00591
 20
0.00591
 30
0.0000
 11
0.00591
 21
-0.00591
 31
0.0000
 12
-0.00591
 22
0.00591
 32
0.0000
 13
-0.00591
 23
-0.00591
 33
0.0000
  0
ENDBLK
  0
BLOCK
  2
SQUARE_110
  3
SQUARE_110
 70
64
 10
0.0000
 20
0.0000
 30
0.0000
  0
SOLID
  8
0
 10
0.040355
 20
0.040355
 30
0.0000
 11
0.040355
 21
-0.040355
 31
0.0000
 12
-0.040355
 22
0.040355
 32
0.0000
 13
-0.040355
 23
-0.040355
 33
0.0000
  0
ENDBLK
  0
BLOCK
  2
ROUND_111
  3
ROUND_111
 70
64
 10
0.0000
 20
0.0000
 30
0.0000
  0
POLYLINE
  8
0
 66
1
 10
0.0000
 20
0.0000
 30
0.0000
 70
1
 40
0.01181
 41
0.01181
  0
VERTEX
  8
0
 10
-0.005905
 20
0.0000
 30
0.0000
 42
1
  0
VERTEX
  8
0
 10
0.005905
 20
0.0000
 30
0.0000
 42
1
  0
SEQEND
  0
ENDBLK
  0
BLOCK
  2
SQUARE_112
  3
SQUARE_112
 70
64
 10
0.0000
 20
0.0000
 30
0.0000
  0
SOLID
  8
0
 10
0.012005
 20
0.012005
 30
0.0000
 11
0.012005
 21
-0.012005
 31
0.0000
 12
-0.012005
 22
0.012005
 32
0.0000
 13
-0.012005
 23
-0.012005
 33
0.0000
  0
ENDBLK
  0
BLOCK
  2
SQUARE_113
  3
SQUARE_113
 70
64
 10
0.0000
 20
0.0000
 30
0.0000
  0
SOLID
  8
0
 10
0.012205
 20
0.012205
 30
0.0000
 11
0.012205
 21
-0.012205
 31
0.0000
 12
-0.012205
 22
0.012205
 32
0.0000
 13
-0.012205
 23
-0.012205
 33
0.0000
  0
ENDBLK
  0
BLOCK
  2
SQUARE_114
  3
SQUARE_114
 70
64
 10
0.0000
 20
0.0000
 30
0.0000
  0
SOLID
  8
0
 10
0.010015
 20
0.010015
 30
0.0000
 11
0.010015
 21
-0.010015
 31
0.0000
 12
-0.010015
 22
0.010015
 32
0.0000
 13
-0.010015
 23
-0.010015
 33
0.0000
  0
ENDBLK
  0
BLOCK
  2
SQUARE_115
  3
SQUARE_115
 70
64
 10
0.0000
 20
0.0000
 30
0.0000
  0
SOLID
  8
0
 10
0.006005
 20
0.006005
 30
0.0000
 11
0.006005
 21
-0.006005
 31
0.0000
 12
-0.006005
 22
0.006005
 32
0.0000
 13
-0.006005
 23
-0.006005
 33
0.0000
  0
ENDBLK
  0
BLOCK
  2
SQUARE_116
  3
SQUARE_116
 70
64
 10
0.0000
 20
0.0000
 30
0.0000
  0
SOLID
  8
0
 10
0.01182
 20
0.01182
 30
0.0000
 11
0.01182
 21
-0.01182
 31
0.0000
 12
-0.01182
 22
0.01182
 32
0.0000
 13
-0.01182
 23
-0.01182
 33
0.0000
  0
ENDBLK
  0
BLOCK
  2
ROUND_117
  3
ROUND_117
 70
64
 10
0.0000
 20
0.0000
 30
0.0000
  0
POLYLINE
  8
0
 66
1
 10
0.0000
 20
0.0000
 30
0.0000
 70
1
 40
0.104325
 41
0.104325
  0
VERTEX
  8
0
 10
-0.0521625
 20
0.0000
 30
0.0000
 42
1
  0
VERTEX
  8
0
 10
0.0521625
 20
0.0000
 30
0.0000
 42
1
  0
SEQEND
  0
ENDBLK
  0
BLOCK
  2
SQUARE_118
  3
SQUARE_118
 70
64
 10
0.0000
 20
0.0000
 30
0.0000
  0
SOLID
  8
0
 10
0.00551
 20
0.00551
 30
0.0000
 11
0.00551
 21
-0.00551
 31
0.0000
 12
-0.00551
 22
0.00551
 32
0.0000
 13
-0.00551
 23
-0.00551
 33
0.0000
  0
ENDBLK
  0
BLOCK
  2
SQUARE_119
  3
SQUARE_119
 70
64
 10
0.0000
 20
0.0000
 30
0.0000
  0
SOLID
  8
0
 10
0.06379
 20
0.06379
 30
0.0000
 11
0.06379
 21
-0.06379
 31
0.0000
 12
-0.06379
 22
0.06379
 32
0.0000
 13
-0.06379
 23
-0.06379
 33
0.0000
  0
ENDBLK
  0
BLOCK
  2
SQUARE_120
  3
SQUARE_120
 70
64
 10
0.0000
 20
0.0000
 30
0.0000
  0
SOLID
  8
0
 10
0.02756
 20
0.02756
 30
0.0000
 11
0.02756
 21
-0.02756
 31
0.0000
 12
-0.02756
 22
0.02756
 32
0.0000
 13
-0.02756
 23
-0.02756
 33
0.0000
  0
ENDBLK
  0
BLOCK
  2
ROUND_121
  3
ROUND_121
 70
64
 10
0.0000
 20
0.0000
 30
0.0000
  0
POLYLINE
  8
0
 66
1
 10
0.0000
 20
0.0000
 30
0.0000
 70
1
 40
0.02756
 41
0.02756
  0
VERTEX
  8
0
 10
-0.01378
 20
0.0000
 30
0.0000
 42
1
  0
VERTEX
  8
0
 10
0.01378
 20
0.0000
 30
0.0000
 42
1
  0
SEQEND
  0
ENDBLK
  0
BLOCK
  2
ROUND_122
  3
ROUND_122
 70
64
 10
0.0000
 20
0.0000
 30
0.0000
  0
POLYLINE
  8
0
 66
1
 10
0.0000
 20
0.0000
 30
0.0000
 70
1
 40
0.025595
 41
0.025595
  0
VERTEX
  8
0
 10
-0.0127975
 20
0.0000
 30
0.0000
 42
1
  0
VERTEX
  8
0
 10
0.0127975
 20
0.0000
 30
0.0000
 42
1
  0
SEQEND
  0
ENDBLK
  0
BLOCK
  2
SQUARE_123
  3
SQUARE_123
 70
64
 10
0.0000
 20
0.0000
 30
0.0000
  0
SOLID
  8
0
 10
0.004325
 20
0.004325
 30
0.0000
 11
0.004325
 21
-0.004325
 31
0.0000
 12
-0.004325
 22
0.004325
 32
0.0000
 13
-0.004325
 23
-0.004325
 33
0.0000
  0
ENDBLK
  0
BLOCK
  2
SQUARE_124
  3
SQUARE_124
 70
64
 10
0.0000
 20
0.0000
 30
0.0000
  0
SOLID
  8
0
 10
0.009845
 20
0.009845
 30
0.0000
 11
0.009845
 21
-0.009845
 31
0.0000
 12
-0.009845
 22
0.009845
 32
0.0000
 13
-0.009845
 23
-0.009845
 33
0.0000
  0
ENDBLK
  0
BLOCK
  2
ROUND_125
  3
ROUND_125
 70
64
 10
0.0000
 20
0.0000
 30
0.0000
  0
POLYLINE
  8
0
 66
1
 10
0.0000
 20
0.0000
 30
0.0000
 70
1
 40
0.037005
 41
0.037005
  0
VERTEX
  8
0
 10
-0.0185025
 20
0.0000
 30
0.0000
 42
1
  0
VERTEX
  8
0
 10
0.0185025
 20
0.0000
 30
0.0000
 42
1
  0
SEQEND
  0
ENDBLK
  0
BLOCK
  2
SQUARE_126
  3
SQUARE_126
 70
64
 10
0.0000
 20
0.0000
 30
0.0000
  0
SOLID
  8
0
 10
0.0180
 20
0.0180
 30
0.0000
 11
0.0180
 21
-0.0180
 31
0.0000
 12
-0.0180
 22
0.0180
 32
0.0000
 13
-0.0180
 23
-0.0180
 33
0.0000
  0
ENDBLK
  0
BLOCK
  2
SQUARE_127
  3
SQUARE_127
 70
64
 10
0.0000
 20
0.0000
 30
0.0000
  0
SOLID
  8
0
 10
0.004915
 20
0.004915
 30
0.0000
 11
0.004915
 21
-0.004915
 31
0.0000
 12
-0.004915
 22
0.004915
 32
0.0000
 13
-0.004915
 23
-0.004915
 33
0.0000
  0
ENDBLK
  0
BLOCK
  2
SQUARE_128
  3
SQUARE_128
 70
64
 10
0.0000
 20
0.0000
 30
0.0000
  0
SOLID
  8
0
 10
0.018005
 20
0.018005
 30
0.0000
 11
0.018005
 21
-0.018005
 31
0.0000
 12
-0.018005
 22
0.018005
 32
0.0000
 13
-0.018005
 23
-0.018005
 33
0.0000
  0
ENDBLK
  0
BLOCK
  2
SQUARE_129
  3
SQUARE_129
 70
64
 10
0.0000
 20
0.0000
 30
0.0000
  0
SOLID
  8
0
 10
0.0130
 20
0.0130
 30
0.0000
 11
0.0130
 21
-0.0130
 31
0.0000
 12
-0.0130
 22
0.0130
 32
0.0000
 13
-0.0130
 23
-0.0130
 33
0.0000
  0
ENDBLK
  0
BLOCK
  2
SQUARE_130
  3
SQUARE_130
 70
64
 10
0.0000
 20
0.0000
 30
0.0000
  0
SOLID
  8
0
 10
0.004525
 20
0.004525
 30
0.0000
 11
0.004525
 21
-0.004525
 31
0.0000
 12
-0.004525
 22
0.004525
 32
0.0000
 13
-0.004525
 23
-0.004525
 33
0.0000
  0
ENDBLK
  0
BLOCK
  2
SQUARE_131
  3
SQUARE_131
 70
64
 10
0.0000
 20
0.0000
 30
0.0000
  0
SOLID
  8
0
 10
0.005905
 20
0.005905
 30
0.0000
 11
0.005905
 21
-0.005905
 31
0.0000
 12
-0.005905
 22
0.005905
 32
0.0000
 13
-0.005905
 23
-0.005905
 33
0.0000
  0
ENDBLK
  0
BLOCK
  2
ROUND_132
  3
ROUND_132
 70
64
 10
0.0000
 20
0.0000
 30
0.0000
  0
POLYLINE
  8
0
 66
1
 10
0.0000
 20
0.0000
 30
0.0000
 70
1
 40
0.0010
 41
0.0010
  0
VERTEX
  8
0
 10
-0.0005
 20
0.0000
 30
0.0000
 42
1
  0
VERTEX
  8
0
 10
0.0005
 20
0.0000
 30
0.0000
 42
1
  0
SEQEND
  0
ENDBLK
  0
BLOCK
  2
ROUND_133
  3
ROUND_133
 70
64
 10
0.0000
 20
0.0000
 30
0.0000
  0
POLYLINE
  8
0
 66
1
 10
0.0000
 20
0.0000
 30
0.0000
 70
1
 40
0.003937
 41
0.003937
  0
VERTEX
  8
0
 10
-0.0019685
 20
0.0000
 30
0.0000
 42
1
  0
VERTEX
  8
0
 10
0.0019685
 20
0.0000
 30
0.0000
 42
1
  0
SEQEND
  0
ENDBLK
  0
BLOCK
  2
ROUND_134
  3
ROUND_134
 70
64
 10
0.0000
 20
0.0000
 30
0.0000
  0
POLYLINE
  8
0
 66
1
 10
0.0000
 20
0.0000
 30
0.0000
 70
1
 40
0.0213155
 41
0.0213155
  0
VERTEX
  8
0
 10
-0.0106577
 20
0.0000
 30
0.0000
 42
1
  0
VERTEX
  8
0
 10
0.0106577
 20
0.0000
 30
0.0000
 42
1
  0
SEQEND
  0
ENDBLK
  0
BLOCK
  2
ROUND_135
  3
ROUND_135
 70
64
 10
0.0000
 20
0.0000
 30
0.0000
  0
POLYLINE
  8
0
 66
1
 10
0.0000
 20
0.0000
 30
0.0000
 70
1
 40
0.002953
 41
0.002953
  0
VERTEX
  8
0
 10
-0.0014765
 20
0.0000
 30
0.0000
 42
1
  0
VERTEX
  8
0
 10
0.0014765
 20
0.0000
 30
0.0000
 42
1
  0
SEQEND
  0
ENDBLK
  0
BLOCK
  2
ROUND_136
  3
ROUND_136
 70
64
 10
0.0000
 20
0.0000
 30
0.0000
  0
POLYLINE
  8
0
 66
1
 10
0.0000
 20
0.0000
 30
0.0000
 70
1
 40
0.0003935
 41
0.0003935
  0
VERTEX
  8
0
 10
-0.0001968
 20
0.0000
 30
0.0000
 42
1
  0
VERTEX
  8
0
 10
0.0001968
 20
0.0000
 30
0.0000
 42
1
  0
SEQEND
  0
ENDBLK
  0
BLOCK
  2
ROUND_137
  3
ROUND_137
 70
64
 10
0.0000
 20
0.0000
 30
0.0000
  0
POLYLINE
  8
0
 66
1
 10
0.0000
 20
0.0000
 30
0.0000
 70
1
 40
0.003935
 41
0.003935
  0
VERTEX
  8
0
 10
-0.0019675
 20
0.0000
 30
0.0000
 42
1
  0
VERTEX
  8
0
 10
0.0019675
 20
0.0000
 30
0.0000
 42
1
  0
SEQEND
  0
ENDBLK
  0
BLOCK
  2
ROUND_138
  3
ROUND_138
 70
64
 10
0.0000
 20
0.0000
 30
0.0000
  0
POLYLINE
  8
0
 66
1
 10
0.0000
 20
0.0000
 30
0.0000
 70
1
 40
0.002955
 41
0.002955
  0
VERTEX
  8
0
 10
-0.0014775
 20
0.0000
 30
0.0000
 42
1
  0
VERTEX
  8
0
 10
0.0014775
 20
0.0000
 30
0.0000
 42
1
  0
SEQEND
  0
ENDBLK
  0
BLOCK
  2
ROUND_139
  3
ROUND_139
 70
64
 10
0.0000
 20
0.0000
 30
0.0000
  0
POLYLINE
  8
0
 66
1
 10
0.0000
 20
0.0000
 30
0.0000
 70
1
 40
0.0019685
 41
0.0019685
  0
VERTEX
  8
0
 10
-0.0009843
 20
0.0000
 30
0.0000
 42
1
  0
VERTEX
  8
0
 10
0.0009843
 20
0.0000
 30
0.0000
 42
1
  0
SEQEND
  0
ENDBLK
  0
BLOCK
  2
ROUND_140
  3
ROUND_140
 70
64
 10
0.0000
 20
0.0000
 30
0.0000
  0
POLYLINE
  8
0
 66
1
 10
0.0000
 20
0.0000
 30
0.0000
 70
1
 40
0.006737
 41
0.006737
  0
VERTEX
  8
0
 10
-0.0033685
 20
0.0000
 30
0.0000
 42
1
  0
VERTEX
  8
0
 10
0.0033685
 20
0.0000
 30
0.0000
 42
1
  0
SEQEND
  0
ENDBLK
  0
BLOCK
  2
ROUND_141
  3
ROUND_141
 70
64
 10
0.0000
 20
0.0000
 30
0.0000
  0
POLYLINE
  8
0
 66
1
 10
0.0000
 20
0.0000
 30
0.0000
 70
1
 40
0.002382
 41
0.002382
  0
VERTEX
  8
0
 10
-0.001191
 20
0.0000
 30
0.0000
 42
1
  0
VERTEX
  8
0
 10
0.001191
 20
0.0000
 30
0.0000
 42
1
  0
SEQEND
  0
ENDBLK
  0
BLOCK
  2
ROUND_142
  3
ROUND_142
 70
64
 10
0.0000
 20
0.0000
 30
0.0000
  0
POLYLINE
  8
0
 66
1
 10
0.0000
 20
0.0000
 30
0.0000
 70
1
 40
0.0019
 41
0.0019
  0
VERTEX
  8
0
 10
-0.00095
 20
0.0000
 30
0.0000
 42
1
  0
VERTEX
  8
0
 10
0.00095
 20
0.0000
 30
0.0000
 42
1
  0
SEQEND
  0
ENDBLK
  0
BLOCK
  2
ROUND_143
  3
ROUND_143
 70
64
 10
0.0000
 20
0.0000
 30
0.0000
  0
POLYLINE
  8
0
 66
1
 10
0.0000
 20
0.0000
 30
0.0000
 70
1
 40
0.003996
 41
0.003996
  0
VERTEX
  8
0
 10
-0.001998
 20
0.0000
 30
0.0000
 42
1
  0
VERTEX
  8
0
 10
0.001998
 20
0.0000
 30
0.0000
 42
1
  0
SEQEND
  0
ENDBLK
  0
BLOCK
  2
ROUND_144
  3
ROUND_144
 70
64
 10
0.0000
 20
0.0000
 30
0.0000
  0
POLYLINE
  8
0
 66
1
 10
0.0000
 20
0.0000
 30
0.0000
 70
1
 40
0.0005
 41
0.0005
  0
VERTEX
  8
0
 10
-0.00025
 20
0.0000
 30
0.0000
 42
1
  0
VERTEX
  8
0
 10
0.00025
 20
0.0000
 30
0.0000
 42
1
  0
SEQEND
  0
ENDBLK
  0
BLOCK
  2
ROUND_145
  3
ROUND_145
 70
64
 10
0.0000
 20
0.0000
 30
0.0000
  0
POLYLINE
  8
0
 66
1
 10
0.0000
 20
0.0000
 30
0.0000
 70
1
 40
0.002362
 41
0.002362
  0
VERTEX
  8
0
 10
-0.001181
 20
0.0000
 30
0.0000
 42
1
  0
VERTEX
  8
0
 10
0.001181
 20
0.0000
 30
0.0000
 42
1
  0
SEQEND
  0
ENDBLK
  0
BLOCK
  2
ROUND_146
  3
ROUND_146
 70
64
 10
0.0000
 20
0.0000
 30
0.0000
  0
POLYLINE
  8
0
 66
1
 10
0.0000
 20
0.0000
 30
0.0000
 70
1
 40
0.003393
 41
0.003393
  0
VERTEX
  8
0
 10
-0.0016965
 20
0.0000
 30
0.0000
 42
1
  0
VERTEX
  8
0
 10
0.0016965
 20
0.0000
 30
0.0000
 42
1
  0
SEQEND
  0
ENDBLK
  0
BLOCK
  2
ROUND_147
  3
ROUND_147
 70
64
 10
0.0000
 20
0.0000
 30
0.0000
  0
POLYLINE
  8
0
 66
1
 10
0.0000
 20
0.0000
 30
0.0000
 70
1
 40
0.00518
 41
0.00518
  0
VERTEX
  8
0
 10
-0.00259
 20
0.0000
 30
0.0000
 42
1
  0
VERTEX
  8
0
 10
0.00259
 20
0.0000
 30
0.0000
 42
1
  0
SEQEND
  0
ENDBLK
  0
BLOCK
  2
ROUND_148
  3
ROUND_148
 70
64
 10
0.0000
 20
0.0000
 30
0.0000
  0
POLYLINE
  8
0
 66
1
 10
0.0000
 20
0.0000
 30
0.0000
 70
1
 40
0.0144885
 41
0.0144885
  0
VERTEX
  8
0
 10
-0.0072443
 20
0.0000
 30
0.0000
 42
1
  0
VERTEX
  8
0
 10
0.0072443
 20
0.0000
 30
0.0000
 42
1
  0
SEQEND
  0
ENDBLK
  0
BLOCK
  2
ROUND_149
  3
ROUND_149
 70
64
 10
0.0000
 20
0.0000
 30
0.0000
  0
POLYLINE
  8
0
 66
1
 10
0.0000
 20
0.0000
 30
0.0000
 70
1
 40
0.011287
 41
0.011287
  0
VERTEX
  8
0
 10
-0.0056435
 20
0.0000
 30
0.0000
 42
1
  0
VERTEX
  8
0
 10
0.0056435
 20
0.0000
 30
0.0000
 42
1
  0
SEQEND
  0
ENDBLK
  0
BLOCK
  2
ROUND_150
  3
ROUND_150
 70
64
 10
0.0000
 20
0.0000
 30
0.0000
  0
POLYLINE
  8
0
 66
1
 10
0.0000
 20
0.0000
 30
0.0000
 70
1
 40
0.00295
 41
0.00295
  0
VERTEX
  8
0
 10
-0.001475
 20
0.0000
 30
0.0000
 42
1
  0
VERTEX
  8
0
 10
0.001475
 20
0.0000
 30
0.0000
 42
1
  0
SEQEND
  0
ENDBLK
  0
BLOCK
  2
ROUND_151
  3
ROUND_151
 70
64
 10
0.0000
 20
0.0000
 30
0.0000
  0
POLYLINE
  8
0
 66
1
 10
0.0000
 20
0.0000
 30
0.0000
 70
1
 40
0.0049215
 41
0.0049215
  0
VERTEX
  8
0
 10
-0.0024607
 20
0.0000
 30
0.0000
 42
1
  0
VERTEX
  8
0
 10
0.0024607
 20
0.0000
 30
0.0000
 42
1
  0
SEQEND
  0
ENDBLK
  0
BLOCK
  2
ROUND_152
  3
ROUND_152
 70
64
 10
0.0000
 20
0.0000
 30
0.0000
  0
POLYLINE
  8
0
 66
1
 10
0.0000
 20
0.0000
 30
0.0000
 70
1
 40
0.0080835
 41
0.0080835
  0
VERTEX
  8
0
 10
-0.0040417
 20
0.0000
 30
0.0000
 42
1
  0
VERTEX
  8
0
 10
0.0040417
 20
0.0000
 30
0.0000
 42
1
  0
SEQEND
  0
ENDBLK
  0
BLOCK
  2
ROUND_153
  3
ROUND_153
 70
64
 10
0.0000
 20
0.0000
 30
0.0000
  0
POLYLINE
  8
0
 66
1
 10
0.0000
 20
0.0000
 30
0.0000
 70
1
 40
0.004134
 41
0.004134
  0
VERTEX
  8
0
 10
-0.002067
 20
0.0000
 30
0.0000
 42
1
  0
VERTEX
  8
0
 10
0.002067
 20
0.0000
 30
0.0000
 42
1
  0
SEQEND
  0
ENDBLK
  0
BLOCK
  2
ROUND_154
  3
ROUND_154
 70
64
 10
0.0000
 20
0.0000
 30
0.0000
  0
POLYLINE
  8
0
 66
1
 10
0.0000
 20
0.0000
 30
0.0000
 70
1
 40
0.0400
 41
0.0400
  0
VERTEX
  8
0
 10
-0.0200
 20
0.0000
 30
0.0000
 42
1
  0
VERTEX
  8
0
 10
0.0200
 20
0.0000
 30
0.0000
 42
1
  0
SEQEND
  0
ENDBLK
  0
BLOCK
  2
ROUND_155
  3
ROUND_155
 70
64
 10
0.0000
 20
0.0000
 30
0.0000
  0
POLYLINE
  8
0
 66
1
 10
0.0000
 20
0.0000
 30
0.0000
 70
1
 40
0.0202675
 41
0.0202675
  0
VERTEX
  8
0
 10
-0.0101338
 20
0.0000
 30
0.0000
 42
1
  0
VERTEX
  8
0
 10
0.0101338
 20
0.0000
 30
0.0000
 42
1
  0
SEQEND
  0
ENDBLK
  0
BLOCK
  2
ROUND_214
  3
ROUND_214
 70
64
 10
0.0000
 20
0.0000
 30
0.0000
  0
POLYLINE
  8
0
 66
1
 10
0.0000
 20
0.0000
 30
0.0000
 70
1
 40
0.01181
 41
0.01181
  0
VERTEX
  8
0
 10
-0.005905
 20
0.0000
 30
0.0000
 42
1
  0
VERTEX
  8
0
 10
0.005905
 20
0.0000
 30
0.0000
 42
1
  0
SEQEND
  0
ENDBLK
  0
BLOCK
  2
ROUND_280
  3
ROUND_280
 70
64
 10
0.0000
 20
0.0000
 30
0.0000
  0
POLYLINE
  8
0
 66
1
 10
0.0000
 20
0.0000
 30
0.0000
 70
1
 40
0.0005
 41
0.0005
  0
VERTEX
  8
0
 10
-0.00025
 20
0.0000
 30
0.0000
 42
1
  0
VERTEX
  8
0
 10
0.00025
 20
0.0000
 30
0.0000
 42
1
  0
SEQEND
  0
ENDBLK
  0
BLOCK
  2
ROUND_281
  3
ROUND_281
 70
64
 10
0.0000
 20
0.0000
 30
0.0000
  0
POLYLINE
  8
0
 66
1
 10
0.0000
 20
0.0000
 30
0.0000
 70
1
 40
0.00197
 41
0.00197
  0
VERTEX
  8
0
 10
-0.000985
 20
0.0000
 30
0.0000
 42
1
  0
VERTEX
  8
0
 10
0.000985
 20
0.0000
 30
0.0000
 42
1
  0
SEQEND
  0
ENDBLK
  0
BLOCK
  2
ROUND_282
  3
ROUND_282
 70
64
 10
0.0000
 20
0.0000
 30
0.0000
  0
POLYLINE
  8
0
 66
1
 10
0.0000
 20
0.0000
 30
0.0000
 70
1
 40
0.003935
 41
0.003935
  0
VERTEX
  8
0
 10
-0.0019675
 20
0.0000
 30
0.0000
 42
1
  0
VERTEX
  8
0
 10
0.0019675
 20
0.0000
 30
0.0000
 42
1
  0
SEQEND
  0
ENDBLK
  0
BLOCK
  2
ROUND_283
  3
ROUND_283
 70
64
 10
0.0000
 20
0.0000
 30
0.0000
  0
POLYLINE
  8
0
 66
1
 10
0.0000
 20
0.0000
 30
0.0000
 70
1
 40
0.006735
 41
0.006735
  0
VERTEX
  8
0
 10
-0.0033675
 20
0.0000
 30
0.0000
 42
1
  0
VERTEX
  8
0
 10
0.0033675
 20
0.0000
 30
0.0000
 42
1
  0
SEQEND
  0
ENDBLK
  0
BLOCK
  2
ROUND_284
  3
ROUND_284
 70
64
 10
0.0000
 20
0.0000
 30
0.0000
  0
POLYLINE
  8
0
 66
1
 10
0.0000
 20
0.0000
 30
0.0000
 70
1
 40
0.007865
 41
0.007865
  0
VERTEX
  8
0
 10
-0.0039325
 20
0.0000
 30
0.0000
 42
1
  0
VERTEX
  8
0
 10
0.0039325
 20
0.0000
 30
0.0000
 42
1
  0
SEQEND
  0
ENDBLK
  0
BLOCK
  2
ROUND_285
  3
ROUND_285
 70
64
 10
0.0000
 20
0.0000
 30
0.0000
  0
POLYLINE
  8
0
 66
1
 10
0.0000
 20
0.0000
 30
0.0000
 70
1
 40
0.0010
 41
0.0010
  0
VERTEX
  8
0
 10
-0.0005
 20
0.0000
 30
0.0000
 42
1
  0
VERTEX
  8
0
 10
0.0005
 20
0.0000
 30
0.0000
 42
1
  0
SEQEND
  0
ENDBLK
  0
BLOCK
  2
ROUND_286
  3
ROUND_286
 70
64
 10
0.0000
 20
0.0000
 30
0.0000
  0
POLYLINE
  8
0
 66
1
 10
0.0000
 20
0.0000
 30
0.0000
 70
1
 40
0.002955
 41
0.002955
  0
VERTEX
  8
0
 10
-0.0014775
 20
0.0000
 30
0.0000
 42
1
  0
VERTEX
  8
0
 10
0.0014775
 20
0.0000
 30
0.0000
 42
1
  0
SEQEND
  0
ENDBLK
  0
BLOCK
  2
ROUND_287
  3
ROUND_287
 70
64
 10
0.0000
 20
0.0000
 30
0.0000
  0
POLYLINE
  8
0
 66
1
 10
0.0000
 20
0.0000
 30
0.0000
 70
1
 40
0.003395
 41
0.003395
  0
VERTEX
  8
0
 10
-0.0016975
 20
0.0000
 30
0.0000
 42
1
  0
VERTEX
  8
0
 10
0.0016975
 20
0.0000
 30
0.0000
 42
1
  0
SEQEND
  0
ENDBLK
  0
BLOCK
  2
ROUND_288
  3
ROUND_288
 70
64
 10
0.0000
 20
0.0000
 30
0.0000
  0
POLYLINE
  8
0
 66
1
 10
0.0000
 20
0.0000
 30
0.0000
 70
1
 40
0.005175
 41
0.005175
  0
VERTEX
  8
0
 10
-0.0025875
 20
0.0000
 30
0.0000
 42
1
  0
VERTEX
  8
0
 10
0.0025875
 20
0.0000
 30
0.0000
 42
1
  0
SEQEND
  0
ENDBLK
  0
BLOCK
  2
ROUND_289
  3
ROUND_289
 70
64
 10
0.0000
 20
0.0000
 30
0.0000
  0
POLYLINE
  8
0
 66
1
 10
0.0000
 20
0.0000
 30
0.0000
 70
1
 40
0.005185
 41
0.005185
  0
VERTEX
  8
0
 10
-0.0025925
 20
0.0000
 30
0.0000
 42
1
  0
VERTEX
  8
0
 10
0.0025925
 20
0.0000
 30
0.0000
 42
1
  0
SEQEND
  0
ENDBLK
  0
BLOCK
  2
ROUND_290
  3
ROUND_290
 70
64
 10
0.0000
 20
0.0000
 30
0.0000
  0
POLYLINE
  8
0
 66
1
 10
0.0000
 20
0.0000
 30
0.0000
 70
1
 40
0.003995
 41
0.003995
  0
VERTEX
  8
0
 10
-0.0019975
 20
0.0000
 30
0.0000
 42
1
  0
VERTEX
  8
0
 10
0.0019975
 20
0.0000
 30
0.0000
 42
1
  0
SEQEND
  0
ENDBLK
  0
BLOCK
  2
ROUND_291
  3
ROUND_291
 70
64
 10
0.0000
 20
0.0000
 30
0.0000
  0
POLYLINE
  8
0
 66
1
 10
0.0000
 20
0.0000
 30
0.0000
 70
1
 40
0.000395
 41
0.000395
  0
VERTEX
  8
0
 10
-0.0001975
 20
0.0000
 30
0.0000
 42
1
  0
VERTEX
  8
0
 10
0.0001975
 20
0.0000
 30
0.0000
 42
1
  0
SEQEND
  0
ENDBLK
  0
BLOCK
  2
ROUND_292
  3
ROUND_292
 70
64
 10
0.0000
 20
0.0000
 30
0.0000
  0
POLYLINE
  8
0
 66
1
 10
0.0000
 20
0.0000
 30
0.0000
 70
1
 40
0.02132
 41
0.02132
  0
VERTEX
  8
0
 10
-0.01066
 20
0.0000
 30
0.0000
 42
1
  0
VERTEX
  8
0
 10
0.01066
 20
0.0000
 30
0.0000
 42
1
  0
SEQEND
  0
ENDBLK
  0
BLOCK
  2
ROUND_293
  3
ROUND_293
 70
64
 10
0.0000
 20
0.0000
 30
0.0000
  0
POLYLINE
  8
0
 66
1
 10
0.0000
 20
0.0000
 30
0.0000
 70
1
 40
0.00238
 41
0.00238
  0
VERTEX
  8
0
 10
-0.00119
 20
0.0000
 30
0.0000
 42
1
  0
VERTEX
  8
0
 10
0.00119
 20
0.0000
 30
0.0000
 42
1
  0
SEQEND
  0
ENDBLK
  0
BLOCK
  2
ROUND_294
  3
ROUND_294
 70
64
 10
0.0000
 20
0.0000
 30
0.0000
  0
POLYLINE
  8
0
 66
1
 10
0.0000
 20
0.0000
 30
0.0000
 70
1
 40
0.0019
 41
0.0019
  0
VERTEX
  8
0
 10
-0.00095
 20
0.0000
 30
0.0000
 42
1
  0
VERTEX
  8
0
 10
0.00095
 20
0.0000
 30
0.0000
 42
1
  0
SEQEND
  0
ENDBLK
  0
BLOCK
  2
ROUND_295
  3
ROUND_295
 70
64
 10
0.0000
 20
0.0000
 30
0.0000
  0
POLYLINE
  8
0
 66
1
 10
0.0000
 20
0.0000
 30
0.0000
 70
1
 40
0.00236
 41
0.00236
  0
VERTEX
  8
0
 10
-0.00118
 20
0.0000
 30
0.0000
 42
1
  0
VERTEX
  8
0
 10
0.00118
 20
0.0000
 30
0.0000
 42
1
  0
SEQEND
  0
ENDBLK
  0
BLOCK
  2
ROUND_296
  3
ROUND_296
 70
64
 10
0.0000
 20
0.0000
 30
0.0000
  0
POLYLINE
  8
0
 66
1
 10
0.0000
 20
0.0000
 30
0.0000
 70
1
 40
0.01449
 41
0.01449
  0
VERTEX
  8
0
 10
-0.007245
 20
0.0000
 30
0.0000
 42
1
  0
VERTEX
  8
0
 10
0.007245
 20
0.0000
 30
0.0000
 42
1
  0
SEQEND
  0
ENDBLK
  0
BLOCK
  2
ROUND_297
  3
ROUND_297
 70
64
 10
0.0000
 20
0.0000
 30
0.0000
  0
POLYLINE
  8
0
 66
1
 10
0.0000
 20
0.0000
 30
0.0000
 70
1
 40
0.01129
 41
0.01129
  0
VERTEX
  8
0
 10
-0.005645
 20
0.0000
 30
0.0000
 42
1
  0
VERTEX
  8
0
 10
0.005645
 20
0.0000
 30
0.0000
 42
1
  0
SEQEND
  0
ENDBLK
  0
BLOCK
  2
ROUND_298
  3
ROUND_298
 70
64
 10
0.0000
 20
0.0000
 30
0.0000
  0
POLYLINE
  8
0
 66
1
 10
0.0000
 20
0.0000
 30
0.0000
 70
1
 40
0.01128
 41
0.01128
  0
VERTEX
  8
0
 10
-0.00564
 20
0.0000
 30
0.0000
 42
1
  0
VERTEX
  8
0
 10
0.00564
 20
0.0000
 30
0.0000
 42
1
  0
SEQEND
  0
ENDBLK
  0
BLOCK
  2
ROUND_299
  3
ROUND_299
 70
64
 10
0.0000
 20
0.0000
 30
0.0000
  0
POLYLINE
  8
0
 66
1
 10
0.0000
 20
0.0000
 30
0.0000
 70
1
 40
0.00295
 41
0.00295
  0
VERTEX
  8
0
 10
-0.001475
 20
0.0000
 30
0.0000
 42
1
  0
VERTEX
  8
0
 10
0.001475
 20
0.0000
 30
0.0000
 42
1
  0
SEQEND
  0
ENDBLK
  0
BLOCK
  2
ROUND_300
  3
ROUND_300
 70
64
 10
0.0000
 20
0.0000
 30
0.0000
  0
POLYLINE
  8
0
 66
1
 10
0.0000
 20
0.0000
 30
0.0000
 70
1
 40
0.00492
 41
0.00492
  0
VERTEX
  8
0
 10
-0.00246
 20
0.0000
 30
0.0000
 42
1
  0
VERTEX
  8
0
 10
0.00246
 20
0.0000
 30
0.0000
 42
1
  0
SEQEND
  0
ENDBLK
  0
BLOCK
  2
ROUND_301
  3
ROUND_301
 70
64
 10
0.0000
 20
0.0000
 30
0.0000
  0
POLYLINE
  8
0
 66
1
 10
0.0000
 20
0.0000
 30
0.0000
 70
1
 40
0.00808
 41
0.00808
  0
VERTEX
  8
0
 10
-0.00404
 20
0.0000
 30
0.0000
 42
1
  0
VERTEX
  8
0
 10
0.00404
 20
0.0000
 30
0.0000
 42
1
  0
SEQEND
  0
ENDBLK
  0
BLOCK
  2
ROUND_302
  3
ROUND_302
 70
64
 10
0.0000
 20
0.0000
 30
0.0000
  0
POLYLINE
  8
0
 66
1
 10
0.0000
 20
0.0000
 30
0.0000
 70
1
 40
0.004135
 41
0.004135
  0
VERTEX
  8
0
 10
-0.0020675
 20
0.0000
 30
0.0000
 42
1
  0
VERTEX
  8
0
 10
0.0020675
 20
0.0000
 30
0.0000
 42
1
  0
SEQEND
  0
ENDBLK
  0
ENDSEC
  0
SECTION
  2
ENTITIES
  0
INSERT
  2
ROUND_3
  8
ROUT
 10
0.0000
 20
0.0400
 30
0.0000
 41
1.0000
 42
1.0000
 50
0.0000
  0
POLYLINE
  8
ROUT
 66
1
 10
0.0000
 20
0.0000
 30
0.0000
 40
0.0100
 41
0.0100
  0
VERTEX
  8
ROUT
 10
0.0000
 20
0.0400
 30
0.0000
  0
VERTEX
  8
ROUT
 10
0.0000
 20
4.1100
 30
0.0000
  0
SEQEND
  0
INSERT
  2
ROUND_3
  8
ROUT
 10
0.0000
 20
4.1100
 30
0.0000
 41
1.0000
 42
1.0000
 50
0.0000
  0
POLYLINE
  8
ROUT
 66
1
 10
0.0000
 20
0.0000
 30
0.0000
 40
0.0100
 41
0.0100
  0
VERTEX
  8
ROUT
 10
0.0000
 20
4.1100
 30
0.0000
  0
VERTEX
  8
ROUT
 10
0.0400
 20
4.1500
 30
0.0000
  0
SEQEND
  0
INSERT
  2
ROUND_3
  8
ROUT
 10
0.0400
 20
4.1500
 30
0.0000
 41
1.0000
 42
1.0000
 50
0.0000
  0
POLYLINE
  8
ROUT
 66
1
 10
0.0000
 20
0.0000
 30
0.0000
 40
0.0100
 41
0.0100
  0
VERTEX
  8
ROUT
 10
0.0400
 20
4.1500
 30
0.0000
  0
VERTEX
  8
ROUT
 10
1.1800
 20
4.1500
 30
0.0000
  0
SEQEND
  0
INSERT
  2
ROUND_3
  8
ROUT
 10
1.1800
 20
4.1500
 30
0.0000
 41
1.0000
 42
1.0000
 50
0.0000
  0
POLYLINE
  8
ROUT
 66
1
 10
0.0000
 20
0.0000
 30
0.0000
 40
0.0100
 41
0.0100
  0
VERTEX
  8
ROUT
 10
1.1800
 20
4.1500
 30
0.0000
  0
VERTEX
  8
ROUT
 10
1.2200
 20
4.1100
 30
0.0000
  0
SEQEND
  0
INSERT
  2
ROUND_3
  8
ROUT
 10
1.2200
 20
4.1100
 30
0.0000
 41
1.0000
 42
1.0000
 50
0.0000
  0
POLYLINE
  8
ROUT
 66
1
 10
0.0000
 20
0.0000
 30
0.0000
 40
0.0100
 41
0.0100
  0
VERTEX
  8
ROUT
 10
1.2200
 20
4.1100
 30
0.0000
  0
VERTEX
  8
ROUT
 10
1.2200
 20
3.7400
 30
0.0000
  0
SEQEND
  0
INSERT
  2
ROUND_3
  8
ROUT
 10
1.2200
 20
3.7400
 30
0.0000
 41
1.0000
 42
1.0000
 50
0.0000
  0
POLYLINE
  8
ROUT
 66
1
 10
0.0000
 20
0.0000
 30
0.0000
 40
0.0100
 41
0.0100
  0
VERTEX
  8
ROUT
 10
1.2200
 20
3.7400
 30
0.0000
  0
VERTEX
  8
ROUT
 10
1.2600
 20
3.7000
 30
0.0000
  0
SEQEND
  0
INSERT
  2
ROUND_3
  8
ROUT
 10
1.2600
 20
3.7000
 30
0.0000
 41
1.0000
 42
1.0000
 50
0.0000
  0
POLYLINE
  8
ROUT
 66
1
 10
0.0000
 20
0.0000
 30
0.0000
 40
0.0100
 41
0.0100
  0
VERTEX
  8
ROUT
 10
1.2600
 20
3.7000
 30
0.0000
  0
VERTEX
  8
ROUT
 10
1.7800
 20
3.7000
 30
0.0000
  0
SEQEND
  0
INSERT
  2
ROUND_3
  8
ROUT
 10
1.7800
 20
3.7000
 30
0.0000
 41
1.0000
 42
1.0000
 50
0.0000
  0
POLYLINE
  8
ROUT
 66
1
 10
0.0000
 20
0.0000
 30
0.0000
 40
0.0100
 41
0.0100
  0
VERTEX
  8
ROUT
 10
1.7800
 20
3.7000
 30
0.0000
  0
VERTEX
  8
ROUT
 10
1.8200
 20
3.7400
 30
0.0000
  0
SEQEND
  0
INSERT
  2
ROUND_3
  8
ROUT
 10
1.8200
 20
3.7400
 30
0.0000
 41
1.0000
 42
1.0000
 50
0.0000
  0
POLYLINE
  8
ROUT
 66
1
 10
0.0000
 20
0.0000
 30
0.0000
 40
0.0100
 41
0.0100
  0
VERTEX
  8
ROUT
 10
1.8200
 20
3.7400
 30
0.0000
  0
VERTEX
  8
ROUT
 10
1.8200
 20
4.1100
 30
0.0000
  0
SEQEND
  0
INSERT
  2
ROUND_3
  8
ROUT
 10
1.8200
 20
4.1100
 30
0.0000
 41
1.0000
 42
1.0000
 50
0.0000
  0
POLYLINE
  8
ROUT
 66
1
 10
0.0000
 20
0.0000
 30
0.0000
 40
0.0100
 41
0.0100
  0
VERTEX
  8
ROUT
 10
1.8200
 20
4.1100
 30
0.0000
  0
VERTEX
  8
ROUT
 10
1.8600
 20
4.1500
 30
0.0000
  0
SEQEND
  0
INSERT
  2
ROUND_3
  8
ROUT
 10
1.8600
 20
4.1500
 30
0.0000
 41
1.0000
 42
1.0000
 50
0.0000
  0
POLYLINE
  8
ROUT
 66
1
 10
0.0000
 20
0.0000
 30
0.0000
 40
0.0100
 41
0.0100
  0
VERTEX
  8
ROUT
 10
1.8600
 20
4.1500
 30
0.0000
  0
VERTEX
  8
ROUT
 10
5.1400
 20
4.1500
 30
0.0000
  0
SEQEND
  0
INSERT
  2
ROUND_3
  8
ROUT
 10
5.1400
 20
4.1500
 30
0.0000
 41
1.0000
 42
1.0000
 50
0.0000
  0
POLYLINE
  8
ROUT
 66
1
 10
0.0000
 20
0.0000
 30
0.0000
 40
0.0100
 41
0.0100
  0
VERTEX
  8
ROUT
 10
5.1400
 20
4.1500
 30
0.0000
  0
VERTEX
  8
ROUT
 10
5.1800
 20
4.1100
 30
0.0000
  0
SEQEND
  0
INSERT
  2
ROUND_3
  8
ROUT
 10
5.1800
 20
4.1100
 30
0.0000
 41
1.0000
 42
1.0000
 50
0.0000
  0
POLYLINE
  8
ROUT
 66
1
 10
0.0000
 20
0.0000
 30
0.0000
 40
0.0100
 41
0.0100
  0
VERTEX
  8
ROUT
 10
5.1800
 20
4.1100
 30
0.0000
  0
VERTEX
  8
ROUT
 10
5.1800
 20
3.7400
 30
0.0000
  0
SEQEND
  0
INSERT
  2
ROUND_3
  8
ROUT
 10
5.1800
 20
3.7400
 30
0.0000
 41
1.0000
 42
1.0000
 50
0.0000
  0
POLYLINE
  8
ROUT
 66
1
 10
0.0000
 20
0.0000
 30
0.0000
 40
0.0100
 41
0.0100
  0
VERTEX
  8
ROUT
 10
5.1800
 20
3.7400
 30
0.0000
  0
VERTEX
  8
ROUT
 10
5.2200
 20
3.7000
 30
0.0000
  0
SEQEND
  0
INSERT
  2
ROUND_3
  8
ROUT
 10
5.2200
 20
3.7000
 30
0.0000
 41
1.0000
 42
1.0000
 50
0.0000
  0
POLYLINE
  8
ROUT
 66
1
 10
0.0000
 20
0.0000
 30
0.0000
 40
0.0100
 41
0.0100
  0
VERTEX
  8
ROUT
 10
5.2200
 20
3.7000
 30
0.0000
  0
VERTEX
  8
ROUT
 10
5.7400
 20
3.7000
 30
0.0000
  0
SEQEND
  0
INSERT
  2
ROUND_3
  8
ROUT
 10
5.7400
 20
3.7000
 30
0.0000
 41
1.0000
 42
1.0000
 50
0.0000
  0
POLYLINE
  8
ROUT
 66
1
 10
0.0000
 20
0.0000
 30
0.0000
 40
0.0100
 41
0.0100
  0
VERTEX
  8
ROUT
 10
5.7400
 20
3.7000
 30
0.0000
  0
VERTEX
  8
ROUT
 10
5.7800
 20
3.7400
 30
0.0000
  0
SEQEND
  0
INSERT
  2
ROUND_3
  8
ROUT
 10
5.7800
 20
3.7400
 30
0.0000
 41
1.0000
 42
1.0000
 50
0.0000
  0
POLYLINE
  8
ROUT
 66
1
 10
0.0000
 20
0.0000
 30
0.0000
 40
0.0100
 41
0.0100
  0
VERTEX
  8
ROUT
 10
5.7800
 20
3.7400
 30
0.0000
  0
VERTEX
  8
ROUT
 10
5.7800
 20
4.1100
 30
0.0000
  0
SEQEND
  0
INSERT
  2
ROUND_3
  8
ROUT
 10
5.7800
 20
4.1100
 30
0.0000
 41
1.0000
 42
1.0000
 50
0.0000
  0
POLYLINE
  8
ROUT
 66
1
 10
0.0000
 20
0.0000
 30
0.0000
 40
0.0100
 41
0.0100
  0
VERTEX
  8
ROUT
 10
5.7800
 20
4.1100
 30
0.0000
  0
VERTEX
  8
ROUT
 10
5.8200
 20
4.1500
 30
0.0000
  0
SEQEND
  0
INSERT
  2
ROUND_3
  8
ROUT
 10
5.8200
 20
4.1500
 30
0.0000
 41
1.0000
 42
1.0000
 50
0.0000
  0
POLYLINE
  8
ROUT
 66
1
 10
0.0000
 20
0.0000
 30
0.0000
 40
0.0100
 41
0.0100
  0
VERTEX
  8
ROUT
 10
5.8200
 20
4.1500
 30
0.0000
  0
VERTEX
  8
ROUT
 10
6.9600
 20
4.1500
 30
0.0000
  0
SEQEND
  0
INSERT
  2
ROUND_3
  8
ROUT
 10
6.9600
 20
4.1500
 30
0.0000
 41
1.0000
 42
1.0000
 50
0.0000
  0
POLYLINE
  8
ROUT
 66
1
 10
0.0000
 20
0.0000
 30
0.0000
 40
0.0100
 41
0.0100
  0
VERTEX
  8
ROUT
 10
6.9600
 20
4.1500
 30
0.0000
  0
VERTEX
  8
ROUT
 10
7.0000
 20
4.1100
 30
0.0000
  0
SEQEND
  0
INSERT
  2
ROUND_3
  8
ROUT
 10
7.0000
 20
4.1100
 30
0.0000
 41
1.0000
 42
1.0000
 50
0.0000
  0
POLYLINE
  8
ROUT
 66
1
 10
0.0000
 20
0.0000
 30
0.0000
 40
0.0100
 41
0.0100
  0
VERTEX
  8
ROUT
 10
7.0000
 20
4.1100
 30
0.0000
  0
VERTEX
  8
ROUT
 10
7.0000
 20
0.0400
 30
0.0000
  0
SEQEND
  0
INSERT
  2
ROUND_3
  8
ROUT
 10
7.0000
 20
0.0400
 30
0.0000
 41
1.0000
 42
1.0000
 50
0.0000
  0
POLYLINE
  8
ROUT
 66
1
 10
0.0000
 20
0.0000
 30
0.0000
 40
0.0100
 41
0.0100
  0
VERTEX
  8
ROUT
 10
7.0000
 20
0.0400
 30
0.0000
  0
VERTEX
  8
ROUT
 10
6.9600
 20
0.0000
 30
0.0000
  0
SEQEND
  0
INSERT
  2
ROUND_3
  8
ROUT
 10
6.9600
 20
0.0000
 30
0.0000
 41
1.0000
 42
1.0000
 50
0.0000
  0
POLYLINE
  8
ROUT
 66
1
 10
0.0000
 20
0.0000
 30
0.0000
 40
0.0100
 41
0.0100
  0
VERTEX
  8
ROUT
 10
6.9600
 20
0.0000
 30
0.0000
  0
VERTEX
  8
ROUT
 10
0.0400
 20
0.0000
 30
0.0000
  0
SEQEND
  0
INSERT
  2
ROUND_3
  8
ROUT
 10
0.0400
 20
0.0000
 30
0.0000
 41
1.0000
 42
1.0000
 50
0.0000
  0
POLYLINE
  8
ROUT
 66
1
 10
0.0000
 20
0.0000
 30
0.0000
 40
0.0100
 41
0.0100
  0
VERTEX
  8
ROUT
 10
0.0400
 20
0.0000
 30
0.0000
  0
VERTEX
  8
ROUT
 10
0.0000
 20
0.0400
 30
0.0000
  0
SEQEND
  0
INSERT
  2
ROUND_3
  8
ROUT
 10
0.0000
 20
0.0400
 30
0.0000
 41
1.0000
 42
1.0000
 50
0.0000
  0
ENDSEC
  0
EOF
