G04 CAM350 V10.0.1 (Build 314) Date:  Fri Jul 27 19:02:47 2018 *
G04 Database: (Untitled) *
G04 Layer 2: SMPR *
%FSLAX25Y25*%
%MOIN*%
%SFA1.000B1.000*%

%MIA0B0*%
%IPPOS*%
%ADD11C,0.00800*%
%ADD12C,0.01000*%
%ADD13C,0.00500*%
%ADD15C,0.02000*%
%ADD16C,0.04000*%
%ADD17C,0.00700*%
%ADD21R,0.22835X0.22835*%
%ADD22C,0.31496*%
%ADD23C,0.03937*%
%ADD24C,0.06200*%
%ADD26C,0.07874*%
%ADD27C,0.05906*%
%ADD28C,0.06693*%
%ADD33C,0.08661*%
%ADD34C,0.06496*%
%ADD35C,0.04528*%
%ADD36C,0.17717*%
%ADD37C,0.08465*%
%ADD38R,0.06200X0.06200*%
%ADD39C,0.06000*%
%ADD40R,0.05905X0.05905*%
%ADD41C,0.09843*%
%ADD42C,0.12795*%
%ADD43C,0.06299*%
%ADD51R,0.02200X0.02200*%
%ADD52R,0.04724X0.04724*%
%ADD53R,0.03937X0.03937*%
%ADD55R,0.08661X0.08661*%
%ADD56R,0.03622X0.03622*%
%ADD57R,0.04000X0.04000*%
%ADD58R,0.03400X0.03400*%
%ADD64R,0.04331X0.04331*%
%ADD65R,0.06000X0.06000*%
%ADD66R,0.00787X0.00787*%
%ADD67R,0.03150X0.03150*%
%ADD75R,0.01378X0.01378*%
%ADD76R,0.00984X0.00984*%
%ADD78R,0.01181X0.01181*%
%ADD84R,0.10433X0.10433*%
%ADD85R,0.01575X0.01575*%
%ADD86C,0.02400*%
%ADD90C,0.01575*%
%ADD91R,0.02480X0.02480*%
%ADD92C,0.01890*%
%ADD93R,0.02800X0.02800*%
%ADD94R,0.03543X0.03543*%
%ADD95R,0.00866X0.00866*%
%ADD96C,0.01102*%
%ADD97R,0.02165X0.02165*%
%ADD98R,0.01200X0.01200*%
%ADD99R,0.02992X0.02992*%
%ADD100R,0.19685X0.19685*%
%ADD101C,0.01496*%
%ADD102R,0.12402X0.12402*%
%ADD103C,0.04724*%
%ADD104C,0.01181*%
%ADD105R,0.08268X0.08268*%
%ADD106R,0.02400X0.02400*%
%ADD107R,0.03200X0.03200*%
%ADD110R,0.06500X0.06500*%
%ADD113R,0.06600X0.06600*%
%ADD114C,0.06600*%
%ADD116R,0.08660X0.08660*%
%ADD117C,0.08660*%
%ADD118R,0.01182X0.01182*%
%ADD119R,0.08071X0.08071*%
%ADD120C,0.02362*%
%ADD121R,0.02401X0.02401*%
%ADD122R,0.02441X0.02441*%
%ADD123R,0.02003X0.02003*%
%ADD124R,0.01201X0.01201*%
%ADD125R,0.02364X0.02364*%
%ADD126C,0.20865*%
%ADD127R,0.01102X0.01102*%
%ADD128R,0.12758X0.12758*%
%ADD129R,0.05512X0.05512*%
%ADD130C,0.05512*%
%ADD131C,0.05119*%
%ADD132R,0.00865X0.00865*%
%ADD133R,0.01969X0.01969*%
%ADD134C,0.07401*%
%LNSMPR*%
%LPD*%
G36*
X172781Y55836D02*
G01X174336Y57392D01*
X175892Y55836*
X174336Y54281*
X172781Y55836*
G37*
G36*
X170101Y53157D02*
G01X171656Y54712D01*
X173212Y53156*
X171656Y51601*
X170101Y53157*
G37*
G36*
X527958Y59036D02*
G01X529514Y60592D01*
X531069Y59036*
X529514Y57481*
X527958Y59036*
G37*
G36*
X530638Y56357D02*
G01X532194Y57912D01*
X533749Y56356*
X532193Y54801*
X530638Y56357*
G37*
G36*
X0Y64500D02*
G01Y351400D01*
X8Y351487*
X30Y351571*
X67Y351650*
X30Y351729*
X8Y351813*
X0Y351900*
Y410793*
X8Y410880*
X30Y410964*
X67Y411043*
X117Y411114*
X146Y411146*
X3854Y414854*
X3920Y414910*
X3996Y414953*
X4078Y414983*
X4164Y414998*
X4207Y415000*
X117793*
X117880Y414992*
X117964Y414970*
X118043Y414933*
X118114Y414883*
X118146Y414854*
X121854Y411146*
X121910Y411080*
X121953Y411004*
X121983Y410922*
X121998Y410836*
X122000Y410793*
Y374000*
X126000Y370000*
X178000*
X182000Y374000*
Y410793*
X182008Y410880*
X182030Y410964*
X182067Y411043*
X182117Y411114*
X182146Y411146*
X185854Y414854*
X185920Y414910*
X185996Y414953*
X186078Y414983*
X186164Y414998*
X186207Y415000*
X359000*
X359087Y414992*
X359171Y414970*
X359250Y414933*
X359252Y414932*
X359289Y414953*
X359371Y414983*
X359456Y414998*
X359503Y415000*
X513788*
X513874Y414993*
X513959Y414972*
X514038Y414936*
X514110Y414886*
X514147Y414854*
X517851Y411149*
X517907Y411083*
X517952Y411008*
X517982Y410926*
X517998Y410840*
X518000Y410793*
Y374000*
X522000Y370000*
X574100*
X578100Y374000*
Y410793*
X578108Y410880*
X578130Y410964*
X578167Y411043*
X578217Y411114*
X578247Y411147*
X581953Y414853*
X582020Y414909*
X582095Y414953*
X582177Y414983*
X582263Y414998*
X582307Y415000*
X695790*
X695877Y414993*
X695961Y414971*
X696040Y414935*
X696112Y414885*
X696147Y414854*
X699851Y411149*
X699907Y411083*
X699952Y411008*
X699982Y410926*
X699998Y410840*
X700000Y410793*
Y164620*
X699992Y164533*
X699970Y164449*
X699933Y164370*
X699883Y164299*
X699854Y164266*
X699787Y164210*
X699711Y164167*
X699629Y164137*
X699544Y164122*
X699500Y164120*
X685513*
X685426Y164127*
X685342Y164149*
X685263Y164185*
X685191Y164235*
X685129Y164296*
X685079Y164367*
X685041Y164446*
X685018Y164530*
X685010Y164620*
Y230001*
X684962Y230898*
X684834Y231788*
X684627Y232662*
X684344Y233515*
X683986Y234339*
X683556Y235128*
X683057Y235875*
X682495Y236575*
X681872Y237223*
X681194Y237812*
X680466Y238339*
X679694Y238799*
X678885Y239189*
X678044Y239505*
X677178Y239745*
X676294Y239908*
X675400Y239991*
X675136Y240000*
X526825*
X525924Y239810*
X525042Y239542*
X524188Y239199*
X523366Y238783*
X522583Y238298*
X521845Y237747*
X521158Y237133*
X520527Y236462*
X519956Y235740*
X519451Y234970*
X519013Y234159*
X518648Y233314*
X518358Y232440*
X518144Y231544*
X518009Y230633*
X517953Y229713*
X517978Y228793*
X518082Y227877*
X518265Y226975*
X518526Y226092*
X518862Y225234*
X519272Y224409*
X519751Y223623*
X520297Y222881*
X520906Y222189*
X521571Y221553*
X522290Y220977*
X523056Y220465*
X523863Y220022*
X524706Y219650*
X525578Y219353*
X526246Y219181*
X526250Y219180*
X527463Y218867*
X528653Y218478*
X529817Y218014*
X530948Y217476*
X532042Y216867*
X533096Y216189*
X534104Y215446*
X535062Y214640*
X535967Y213774*
X536815Y212852*
X537603Y211878*
X538327Y210856*
X538984Y209790*
X539571Y208684*
X540087Y207542*
X540529Y206370*
X540895Y205173*
X541184Y203954*
X541395Y202719*
X541526Y201474*
X541578Y200222*
X541549Y198970*
X541441Y197722*
X541253Y196484*
X540987Y195260*
X540643Y194056*
X540223Y192876*
X539729Y191725*
X539162Y190608*
X538525Y189530*
X537820Y188494*
X537051Y187506*
X536220Y186569*
X535332Y185686*
X534388Y184862*
X533394Y184100*
X532354Y183403*
X531271Y182774*
X530150Y182216*
X528995Y181729*
X527812Y181318*
X526605Y180983*
X526250Y180900*
X525298Y180599*
X524442Y180294*
X523615Y179915*
X522826Y179465*
X522078Y178947*
X521380Y178366*
X520735Y177725*
X520149Y177030*
X519626Y176286*
X519170Y175499*
X518786Y174676*
X518475Y173821*
X518240Y172943*
X518084Y172047*
X518007Y171141*
X518000Y170904*
Y144695*
X518031Y143801*
X518143Y142914*
X518333Y142040*
X518600Y141187*
X518942Y140361*
X519357Y139569*
X519841Y138817*
X520391Y138111*
X521001Y137457*
X521667Y136860*
X522383Y136326*
X523145Y135857*
X523945Y135458*
X524778Y135133*
X525637Y134883*
X526514Y134710*
X527404Y134617*
X528095Y134600*
X539700*
X540956Y134604*
X542209Y134528*
X543455Y134373*
X544689Y134138*
X545905Y133825*
X547099Y133436*
X548265Y132971*
X549400Y132433*
X550498Y131824*
X551555Y131147*
X552567Y130403*
X553529Y129596*
X554439Y128730*
X555291Y127808*
X556082Y126833*
X556810Y125810*
X557472Y124743*
X558064Y123635*
X558584Y122493*
X559031Y121319*
X559402Y120119*
X559696Y118898*
X559912Y117661*
X560048Y116413*
X560100Y115410*
Y98600*
X560092Y98513*
X560070Y98429*
X560033Y98350*
X559983Y98279*
X559954Y98246*
X559887Y98190*
X559811Y98147*
X559729Y98117*
X559644Y98102*
X559601Y98100*
X559687Y98092*
X559771Y98070*
X559850Y98033*
X559921Y97983*
X559983Y97921*
X560033Y97850*
X560070Y97771*
X560092Y97687*
X560100Y97600*
Y89097*
X560129Y88205*
X560237Y87318*
X560424Y86445*
X560689Y85592*
X561029Y84767*
X561441Y83975*
X561923Y83223*
X562470Y82517*
X563077Y81863*
X563741Y81266*
X564456Y80731*
X565216Y80261*
X566014Y79862*
X566845Y79536*
X567702Y79285*
X568578Y79112*
X569466Y79018*
X569999Y79000*
X649403*
X650292Y79085*
X651170Y79248*
X652030Y79490*
X652865Y79807*
X653668Y80198*
X654433Y80659*
X655153Y81187*
X655824Y81777*
X656439Y82424*
X656993Y83124*
X657483Y83871*
X657904Y84659*
X658253Y85481*
X658527Y86331*
X658724Y87202*
X658800Y87698*
Y87702*
X658979Y88948*
X659236Y90180*
X659571Y91394*
X659982Y92583*
X660468Y93744*
X661027Y94872*
X661656Y95962*
X662353Y97010*
X663115Y98011*
X663940Y98962*
X664823Y99859*
X665761Y100698*
X666751Y101475*
X667788Y102188*
X668868Y102834*
X669988Y103410*
X671141Y103914*
X672324Y104343*
X673532Y104697*
X674400Y104900*
X674742Y104985*
X674828Y104999*
X674856Y105001*
X675763Y105057*
X676662Y105193*
X677545Y105407*
X678407Y105698*
X679239Y106064*
X680035Y106501*
X680791Y107007*
X681499Y107577*
X682154Y108207*
X682751Y108892*
X683286Y109627*
X683753Y110406*
X684151Y111224*
X684475Y112073*
X684724Y112947*
X684894Y113840*
X684986Y114744*
X685000Y115094*
Y163600*
X685008Y163687*
X685030Y163771*
X685067Y163850*
X685117Y163921*
X685179Y163983*
X685250Y164033*
X685329Y164070*
X685413Y164092*
X685500Y164100*
X699500*
X699587Y164092*
X699671Y164070*
X699750Y164033*
X699821Y163983*
X699883Y163921*
X699933Y163850*
X699970Y163771*
X699992Y163687*
X700000Y163600*
Y64500*
X699992Y64413*
X699970Y64329*
X699933Y64250*
X699883Y64179*
X699821Y64117*
X699750Y64067*
X699671Y64030*
X699587Y64008*
X699500Y64000*
X615096*
X614006Y63977*
X612921Y63874*
X611846Y63692*
X610787Y63432*
X609750Y63095*
X608741Y62682*
X607764Y62197*
X606826Y61641*
X605931Y61019*
X605084Y60332*
X604290Y59585*
X603552Y58782*
X602876Y57927*
X602264Y57024*
X601719Y56079*
X601246Y55097*
X600845Y54083*
X600521Y53042*
X600273Y51980*
X600104Y50903*
X600014Y49817*
X600000Y48904*
Y500*
X599992Y413*
X599970Y329*
X599933Y250*
X599883Y179*
X599821Y117*
X599750Y67*
X599671Y30*
X599587Y8*
X599500Y0*
X550500*
X550413Y8*
X550329Y30*
X550250Y67*
X550179Y117*
X550117Y179*
X550067Y250*
X550030Y329*
X550008Y413*
X550000Y500*
Y48904*
X549976Y49994*
X549872Y51080*
X549689Y52156*
X549427Y53215*
X549089Y54252*
X548676Y55261*
X548189Y56238*
X547633Y57176*
X547009Y58071*
X546322Y58918*
X545574Y59712*
X544770Y60450*
X543914Y61126*
X543011Y61738*
X542065Y62282*
X541082Y62755*
X540068Y63155*
X539026Y63480*
X537964Y63728*
X536886Y63897*
X535799Y63986*
X534904Y64000*
X488737*
X488652Y63981*
X488586Y63977*
X483336*
X483249Y63985*
X483165Y64007*
X483086Y64044*
X483015Y64094*
X482953Y64156*
X482903Y64227*
X482866Y64306*
X482844Y64390*
X482836Y64477*
Y69879*
X478252*
Y64509*
X478244Y64422*
X478222Y64338*
X478185Y64259*
X478135Y64188*
X478073Y64126*
X478002Y64076*
X477923Y64039*
X477839Y64017*
X477752Y64009*
X400593*
X400506Y64017*
X400422Y64039*
X400343Y64076*
X400272Y64126*
X400210Y64188*
X400160Y64259*
X400123Y64338*
X400101Y64422*
X400093Y64509*
Y69750*
X396250*
Y64500*
X396242Y64413*
X396220Y64329*
X396183Y64250*
X396133Y64179*
X396071Y64117*
X396000Y64067*
X395921Y64030*
X395837Y64008*
X395750Y64000*
X299500*
X299413Y64008*
X299329Y64030*
X299250Y64067*
X299179Y64117*
X299117Y64179*
X299067Y64250*
X299030Y64329*
X299008Y64413*
X299000Y64500*
Y67500*
X295000*
Y64500*
X294992Y64413*
X294970Y64329*
X294933Y64250*
X294883Y64179*
X294821Y64117*
X294750Y64067*
X294671Y64030*
X294587Y64008*
X294500Y64000*
X227750*
X227663Y64008*
X227579Y64030*
X227500Y64067*
X227429Y64117*
X227367Y64179*
X227317Y64250*
X227280Y64329*
X227258Y64413*
X227250Y64500*
Y69000*
X223250*
Y64500*
X223242Y64413*
X223220Y64329*
X223183Y64250*
X223133Y64179*
X223071Y64117*
X223000Y64067*
X222921Y64030*
X222837Y64008*
X222750Y64000*
X164699*
X163611Y63952*
X162531Y63825*
X161462Y63619*
X160412Y63334*
X159385Y62974*
X158387Y62539*
X157425Y62032*
X156502Y61455*
X155623Y60812*
X154795Y60107*
X154020Y59342*
X153304Y58523*
X152650Y57653*
X152061Y56738*
X151541Y55782*
X151093Y54790*
X150719Y53768*
X150421Y52722*
X150201Y51656*
X150059Y50577*
X150000Y49607*
Y0*
X149992Y-87*
X149970Y-171*
X149933Y-250*
X149883Y-321*
X149821Y-383*
X149750Y-433*
X149671Y-470*
X149587Y-492*
X149500Y-500*
X100500*
X100413Y-492*
X100329Y-470*
X100250Y-433*
X100179Y-383*
X100117Y-321*
X100067Y-250*
X100030Y-171*
X100008Y-87*
X100000Y0*
Y49004*
X99965Y50097*
X99850Y51185*
X99656Y52261*
X99384Y53320*
X99035Y54356*
X98611Y55365*
X98115Y56339*
X97549Y57275*
X96916Y58166*
X96219Y59010*
X95463Y59799*
X94651Y60532*
X93788Y61203*
X92878Y61810*
X91926Y62348*
X90937Y62815*
X89917Y63209*
X88871Y63527*
X87804Y63768*
X86723Y63930*
X85900Y64000*
X500*
X413Y64008*
X329Y64030*
X250Y64067*
X179Y64117*
X117Y64179*
X67Y64250*
X30Y64329*
X8Y64413*
X0Y64500*
G37*
%LPC*%
G36*
X14970Y351571D02*
G01X14992Y351487D01*
X15000Y351400*
Y115098*
X15047Y114200*
X15174Y113309*
X15379Y112434*
X15662Y111580*
X16019Y110755*
X16448Y109965*
X16945Y109216*
X17507Y108514*
X18129Y107865*
X18807Y107273*
X19534Y106745*
X20305Y106282*
X21115Y105891*
X21956Y105572*
X22822Y105330*
X23706Y105166*
X24286Y105101*
X24317Y105098*
X25554Y104884*
X26774Y104592*
X27973Y104223*
X29146Y103778*
X30289Y103259*
X31396Y102669*
X32463Y102009*
X33486Y101283*
X34461Y100493*
X35384Y99642*
X36250Y98734*
X37057Y97773*
X37801Y96763*
X38479Y95707*
X39088Y94610*
X39626Y93477*
X40091Y92312*
X40481Y91119*
X40794Y89904*
X40900Y89402*
X40993Y88933*
X41002Y88867*
X41102Y87951*
X41280Y87047*
X41536Y86162*
X41868Y85303*
X42273Y84476*
X42749Y83687*
X43291Y82942*
X43896Y82248*
X44558Y81608*
X45274Y81028*
X46037Y80512*
X46842Y80064*
X47683Y79688*
X48553Y79387*
X49446Y79162*
X50356Y79015*
X50699Y78980*
X50700*
X492571*
X492591*
X493487Y78989*
X494380Y79078*
X495261Y79246*
X496123Y79491*
X496960Y79813*
X497765Y80208*
X498532Y80673*
X499255Y81205*
X499927Y81798*
X500543Y82450*
X501099Y83153*
X501591Y83904*
X502013Y84695*
X502363Y85520*
X502639Y86374*
X502837Y87248*
X502956Y88137*
X502996Y89033*
X502990Y89380*
Y89399*
Y97600*
X502998Y97687*
X503020Y97771*
X503057Y97850*
X503107Y97921*
X503169Y97983*
X503240Y98033*
X503319Y98070*
X503403Y98092*
X503490Y98100*
X503502*
X503416Y98107*
X503332Y98129*
X503253Y98165*
X503181Y98215*
X503119Y98276*
X503069Y98347*
X503031Y98426*
X503008Y98510*
X503000Y98600*
X502990Y264947*
X502992Y279300*
X502999Y279387*
X503022Y279471*
X503059Y279550*
X503109Y279621*
X503138Y279654*
X503205Y279710*
X503280Y279753*
X503362Y279783*
X503448Y279798*
X503492Y279800*
X517495*
X517582Y279793*
X517666Y279771*
X517746Y279734*
X517817Y279685*
X517879Y279623*
X517929Y279552*
X517967Y279473*
X517990Y279389*
X517998Y279298*
X517930Y264945*
X517987Y264042*
X518123Y263148*
X518338Y262270*
X518629Y261414*
X518995Y260586*
X519432Y259795*
X519938Y259045*
X520508Y258343*
X521138Y257694*
X521822Y257103*
X522556Y256574*
X523334Y256113*
X524150Y255722*
X524997Y255405*
X525869Y255164*
X526838Y254990*
X675135*
X676031Y255049*
X676918Y255187*
X677789Y255403*
X678637Y255697*
X679456Y256064*
X680239Y256503*
X680980Y257010*
X681672Y257581*
X682311Y258211*
X682892Y258895*
X683409Y259629*
X683859Y260405*
X684238Y261219*
X684543Y262063*
X684772Y262931*
X684923Y263816*
X684994Y264711*
X685000Y264997*
Y361505*
X684943Y362395*
X684806Y363277*
X684591Y364143*
X684299Y364986*
X683933Y365800*
X683495Y366577*
X682990Y367312*
X682421Y368000*
X681793Y368633*
X681110Y369207*
X680379Y369719*
X679605Y370162*
X678794Y370535*
X677953Y370833*
X677089Y371055*
X676206Y371199*
X676190Y371202*
X675496Y371301*
X674181Y371512*
X672882Y371803*
X671602Y372171*
X670347Y372615*
X669121Y373133*
X667928Y373725*
X666772Y374387*
X665659Y375117*
X664591Y375912*
X663573Y376771*
X662609Y377688*
X661701Y378663*
X660854Y379689*
X660069Y380765*
X659351Y381886*
X658701Y383048*
X658122Y384248*
X657617Y385479*
X657186Y386739*
X656831Y388022*
X656554Y389325*
X656400Y390300*
X656306Y390773*
X656298Y390823*
X656165Y391718*
X655954Y392598*
X655667Y393455*
X655305Y394284*
X654871Y395077*
X654368Y395830*
X653801Y396534*
X653174Y397186*
X652492Y397780*
X651760Y398312*
X650984Y398777*
X650170Y399171*
X649325Y399492*
X648454Y399737*
X647565Y399904*
X646665Y399993*
X646503Y400000*
X646500*
X602400*
X602397*
X601501Y399890*
X600619Y399701*
X599756Y399435*
X598920Y399093*
X598118Y398679*
X597356Y398196*
X596640Y397647*
X595975Y397036*
X595366Y396370*
X594819Y395652*
X594338Y394888*
X593926Y394085*
X593587Y393248*
X593323Y392385*
X593136Y391502*
X593029Y390606*
X593000Y389802*
Y365000*
X592960Y364107*
X592840Y363220*
X592641Y362348*
X592366Y361498*
X592015Y360675*
X591593Y359887*
X591101Y359139*
X590545Y358439*
X589929Y357791*
X589257Y357201*
X588535Y356673*
X587769Y356211*
X586965Y355820*
X586129Y355503*
X585268Y355261*
X584389Y355097*
X583498Y355013*
X583003Y355000*
X527200*
X526302Y354869*
X525420Y354659*
X524559Y354373*
X523727Y354011*
X522930Y353578*
X522175Y353077*
X521466Y352510*
X520810Y351884*
X520212Y351202*
X519676Y350470*
X519206Y349694*
X518807Y348880*
X518481Y348033*
X518231Y347161*
X518059Y346271*
X518000Y345800*
Y280333*
X517993Y280246*
X517971Y280162*
X517935Y280083*
X517885Y280011*
X517854Y279976*
X517787Y279920*
X517711Y279877*
X517629Y279847*
X517544Y279832*
X517497Y279830*
X503500*
X503413Y279838*
X503329Y279860*
X503250Y279897*
X503179Y279947*
X503117Y280009*
X503067Y280080*
X503030Y280159*
X503008Y280243*
X503000Y280333*
Y389796*
Y389808*
X502974Y390704*
X502869Y391594*
X502684Y392471*
X502422Y393328*
X502085Y394159*
X501675Y394956*
X501195Y395714*
X500650Y396425*
X500044Y397086*
X499381Y397689*
X498667Y398231*
X497908Y398708*
X497109Y399115*
X496277Y399449*
X495419Y399707*
X494541Y399889*
X493651Y399991*
X493503Y400000*
X493500*
X359503*
X359416Y400007*
X359332Y400029*
X359253Y400065*
X359250Y400067*
X359171Y400030*
X359087Y400008*
X359000Y400000*
X307000*
X306103Y399881*
X305220Y399684*
X304359Y399410*
X303524Y399060*
X302724Y398638*
X301964Y398147*
X301251Y397591*
X300589Y396974*
X299985Y396301*
X299442Y395578*
X298965Y394809*
X298558Y394001*
X298224Y393161*
X297966Y392294*
X297800Y391500*
X297700Y390500*
X297492Y389181*
X297206Y387877*
X296843Y386593*
X296403Y385332*
X295888Y384100*
X295300Y382902*
X294642Y381740*
X293916Y380620*
X293123Y379546*
X292268Y378521*
X291353Y377549*
X290381Y376633*
X289356Y375778*
X288282Y374985*
X287162Y374258*
X286001Y373599*
X284802Y373012*
X283571Y372496*
X282310Y372056*
X281026Y371692*
X279722Y371405*
X278403Y371198*
X277075Y371069*
X275740Y371020*
X274406Y371051*
X273075Y371162*
X271754Y371353*
X270446Y371622*
X269157Y371969*
X267891Y372393*
X266653Y372892*
X265447Y373464*
X264277Y374107*
X263148Y374819*
X262063Y375598*
X261027Y376440*
X260043Y377342*
X259116Y378302*
X258247Y379316*
X257440Y380380*
X256699Y381490*
X256025Y382643*
X255422Y383834*
X254891Y385059*
X254435Y386313*
X254054Y387593*
X253751Y388893*
X253526Y390209*
X253500Y390400*
X253400Y391400*
X253228Y392283*
X252978Y393146*
X252652Y393984*
X252253Y394790*
X251784Y395558*
X251248Y396280*
X250651Y396952*
X249996Y397569*
X249289Y398125*
X248536Y398615*
X247742Y399037*
X246913Y399387*
X246057Y399662*
X245180Y399860*
X244289Y399979*
X244000Y400000*
X206500*
X205608Y399912*
X204728Y399744*
X203866Y399499*
X203029Y399177*
X202225Y398783*
X201458Y398318*
X200736Y397787*
X200065Y397194*
X199449Y396543*
X198893Y395839*
X198402Y395090*
X197981Y394299*
X197631Y393474*
X197356Y392621*
X197158Y391747*
X197039Y390858*
X197000Y390000*
Y365000*
X196952Y364103*
X196825Y363214*
X196619Y362340*
X196336Y361487*
X195978Y360663*
X195549Y359875*
X195051Y359127*
X194488Y358427*
X193866Y357779*
X193188Y357190*
X192461Y356663*
X191689Y356203*
X190880Y355813*
X190040Y355497*
X189174Y355257*
X188291Y355094*
X187396Y355011*
X187000Y355000*
X116900*
X116008Y355047*
X115124Y355174*
X114254Y355379*
X113407Y355662*
X112588Y356019*
X111804Y356447*
X111061Y356944*
X110367Y357506*
X109725Y358127*
X109141Y358804*
X108620Y359529*
X108166Y360299*
X107783Y361106*
X107473Y361944*
X107240Y362806*
X107084Y363686*
X107008Y364576*
X107000Y364900*
Y390300*
X106924Y391196*
X106769Y392081*
X106536Y392949*
X106227Y393794*
X105844Y394607*
X105390Y395383*
X104869Y396115*
X104285Y396799*
X103643Y397428*
X102947Y397997*
X102204Y398502*
X101418Y398939*
X100597Y399305*
X99746Y399596*
X98873Y399810*
X97985Y399946*
X97200Y400000*
X53100*
X52204Y399901*
X51320Y399723*
X50455Y399468*
X49617Y399137*
X48811Y398733*
X48044Y398259*
X47322Y397719*
X46651Y397117*
X46035Y396458*
X45481Y395747*
X44991Y394990*
X44571Y394192*
X44223Y393361*
X43950Y392501*
X43754Y391621*
X43637Y390727*
X43600Y389900*
X43200Y388000*
X42851Y386718*
X42425Y385460*
X41924Y384230*
X41350Y383032*
X40705Y381870*
X39991Y380750*
X39211Y379674*
X38368Y378648*
X37465Y377674*
X36504Y376756*
X35490Y375898*
X34427Y375102*
X33317Y374372*
X32165Y373709*
X30976Y373118*
X29753Y372598*
X28501Y372154*
X27225Y371786*
X25929Y371495*
X24617Y371282*
X23900Y371200*
X23700*
X22818Y371040*
X21953Y370802*
X21114Y370487*
X20305Y370100*
X19535Y369641*
X18808Y369116*
X18131Y368529*
X17509Y367883*
X16947Y367184*
X16449Y366438*
X16020Y365651*
X15663Y364829*
X15380Y363978*
X15175Y363105*
X15048Y362218*
X15000Y361300*
Y351900*
X14992Y351813*
X14970Y351729*
X14933Y351650*
X14970Y351571*
G37*
%LPD*%
G36*
X305108Y120764D02*
G01X306664Y122319D01*
X308219Y120764*
X306664Y119208*
X305108Y120764*
G37*
G36*
X371031Y104164D02*
G01X372586Y105719D01*
X374142Y104164*
X372586Y102608*
X371031Y104164*
G37*
G36*
X307788Y123444D02*
G01X309344Y124999D01*
X310899Y123443*
X309343Y121888*
X307788Y123444*
G37*
G36*
X368351Y106844D02*
G01X369907Y108399D01*
X371462Y106843*
X369906Y105288*
X368351Y106844*
G37*
G36*
X310544Y120688D02*
G01X312099Y122243D01*
X313655Y120688*
X312099Y119132*
X310544Y120688*
G37*
G36*
X307864Y118008D02*
G01X309420Y119563D01*
X310975Y118008*
X309419Y116452*
X307864Y118008*
G37*
G36*
X365456Y103845D02*
G01X367012Y105401D01*
X368568Y103845*
X367012Y102289*
X365456Y103845*
G37*
G36*
X368136Y101165D02*
G01X369692Y102721D01*
X371248Y101165*
X369692Y99610*
X368136Y101165*
G37*
G36*
X378606Y129008D02*
G01X380162Y130564D01*
X381717Y129008*
X380162Y127453*
X378606Y129008*
G37*
G36*
X375850Y126253D02*
G01X377406Y127808D01*
X378961Y126252*
X377406Y124697*
X375850Y126253*
G37*
G36*
X378530Y123573D02*
G01X380086Y125128D01*
X381641Y123573*
X380086Y122017*
X378530Y123573*
G37*
G36*
X381506Y131945D02*
G01X383062Y133501D01*
X384618Y131945*
X383062Y130389*
X381506Y131945*
G37*
G36*
X384186Y129265D02*
G01X385742Y130821D01*
X387298Y129265*
X385742Y127710*
X384186Y129265*
G37*
G36*
X381286Y126329D02*
G01X382842Y127884D01*
X384397Y126328*
X382841Y124773*
X381286Y126329*
G37*
G36*
X547621Y340563D02*
G01X547653Y340939D01*
X547750Y341304*
X547909Y341646*
X548125Y341956*
X548391Y342223*
X548700Y342440*
X549042Y342600*
X549406Y342698*
X549782Y342732*
X550158Y342700*
X550523Y342602*
X550865Y342444*
X551175Y342228*
X551442Y341961*
X551659Y341652*
X551819Y341311*
X551918Y340946*
X551951Y340600*
Y338205*
X551919Y337829*
X551822Y337465*
X551663Y337122*
X551446Y336813*
X551180Y336546*
X550871Y336329*
X550529Y336169*
X550165Y336071*
X549789Y336038*
X549403Y336072*
X549054Y336165*
X548727Y336314*
X548424Y336520*
X548153Y336781*
X547931Y337086*
X547764Y337428*
X547660Y337795*
X547621Y338168*
Y340563*
G37*
G36*
X544471Y350799D02*
G01X544503Y351175D01*
X544600Y351540*
X544759Y351882*
X544975Y352192*
X545242Y352459*
X545550Y352676*
X545892Y352836*
X546257Y352935*
X546633Y352968*
X547009Y352936*
X547373Y352839*
X547716Y352680*
X548025Y352464*
X548293Y352197*
X548510Y351889*
X548670Y351547*
X548768Y351183*
X548801Y350837*
X548802Y348442*
X548769Y348066*
X548672Y347701*
X548513Y347359*
X548297Y347049*
X548030Y346782*
X547721Y346565*
X547379Y346405*
X547015Y346307*
X546639Y346274*
X546253Y346308*
X545904Y346401*
X545577Y346551*
X545274Y346756*
X545004Y347017*
X544782Y347322*
X544615Y347664*
X544510Y348031*
X544472Y348404*
X544471Y350799*
G37*
G36*
X535022Y340563D02*
G01X535054Y340939D01*
X535152Y341304*
X535310Y341646*
X535526Y341956*
X535793Y342223*
X536102Y342440*
X536443Y342600*
X536808Y342698*
X537184Y342732*
X537560Y342700*
X537924Y342602*
X538267Y342444*
X538576Y342228*
X538844Y341961*
X539061Y341652*
X539221Y341311*
X539319Y340946*
X539352Y340600*
X539353Y338205*
X539320Y337829*
X539223Y337465*
X539064Y337122*
X538848Y336813*
X538581Y336546*
X538273Y336329*
X537931Y336169*
X537566Y336071*
X537190Y336038*
X536804Y336072*
X536455Y336165*
X536128Y336314*
X535826Y336520*
X535555Y336781*
X535333Y337086*
X535166Y337428*
X535061Y337795*
X535023Y338168*
X535022Y340563*
G37*
G36*
X541321D02*
G01X541354Y340939D01*
X541451Y341304*
X541610Y341646*
X541826Y341956*
X542092Y342223*
X542401Y342440*
X542743Y342600*
X543107Y342698*
X543483Y342732*
X543859Y342700*
X544224Y342602*
X544566Y342444*
X544876Y342228*
X545143Y341961*
X545360Y341652*
X545520Y341311*
X545618Y340946*
X545652Y340600*
Y338205*
X545620Y337829*
X545522Y337465*
X545363Y337122*
X545147Y336813*
X544881Y336546*
X544572Y336329*
X544230Y336169*
X543865Y336071*
X543489Y336038*
X543103Y336072*
X542755Y336165*
X542427Y336314*
X542125Y336520*
X541854Y336781*
X541632Y337086*
X541465Y337428*
X541360Y337795*
X541322Y338168*
X541321Y340563*
G37*
G36*
X538172Y350799D02*
G01X538204Y351175D01*
X538301Y351540*
X538460Y351882*
X538676Y352192*
X538942Y352459*
X539251Y352676*
X539593Y352836*
X539957Y352935*
X540333Y352968*
X540709Y352936*
X541074Y352839*
X541416Y352680*
X541726Y352464*
X541993Y352197*
X542210Y351889*
X542370Y351547*
X542469Y351183*
X542502Y350837*
X542503Y348442*
X542470Y348066*
X542373Y347701*
X542214Y347359*
X541998Y347049*
X541731Y346782*
X541422Y346565*
X541080Y346405*
X540716Y346307*
X540340Y346274*
X539954Y346308*
X539605Y346401*
X539278Y346551*
X538975Y346756*
X538704Y347017*
X538482Y347322*
X538315Y347664*
X538211Y348031*
X538172Y348404*
Y350799*
G37*
G36*
X373705Y98846D02*
G01X375654Y100795D01*
X380386Y96062*
X378438Y94114*
X373705Y98846*
G37*
G36*
X382614Y89938D02*
G01X384562Y91886D01*
X389295Y87154*
X387346Y85205*
X382614Y89938*
G37*
G36*
X286827Y107978D02*
G01X291560Y112711D01*
X293508Y110762*
X288776Y106030*
X286827Y107978*
G37*
G36*
X396455Y114675D02*
G01X398403Y116623D01*
X403136Y111891*
X401187Y109942*
X396455Y114675*
G37*
G36*
X387546Y123583D02*
G01X389495Y125532D01*
X394227Y120799*
X392279Y118851*
X387546Y123583*
G37*
G36*
X293898Y100907D02*
G01X298631Y105640D01*
X300579Y103691*
X295847Y98959*
X293898Y100907*
G37*
G36*
X384011Y120048D02*
G01X385959Y121996D01*
X390692Y117264*
X388743Y115315*
X384011Y120048*
G37*
G36*
X389384Y107604D02*
G01X391332Y109552D01*
X396065Y104820*
X394116Y102871*
X389384Y107604*
G37*
G36*
X295736Y116887D02*
G01X300468Y121619D01*
X302417Y119671*
X297684Y114938*
X295736Y116887*
G37*
G36*
X290363Y104443D02*
G01X295095Y109175D01*
X297044Y107227*
X292311Y102494*
X290363Y104443*
G37*
G36*
X299271Y113351D02*
G01X304004Y118084D01*
X305952Y116135*
X301220Y111403*
X299271Y113351*
G37*
G36*
X302807Y109816D02*
G01X307539Y114548D01*
X309488Y112600*
X304755Y107867*
X302807Y109816*
G37*
G36*
X380475Y116512D02*
G01X382424Y118461D01*
X387156Y113728*
X385208Y111780*
X380475Y116512*
G37*
G36*
X377241Y102382D02*
G01X379189Y104330D01*
X383922Y99598*
X381973Y97649*
X377241Y102382*
G37*
G36*
X370170Y95311D02*
G01X372118Y97259D01*
X376851Y92527*
X374902Y90578*
X370170Y95311*
G37*
G36*
X392919Y111139D02*
G01X394868Y113088D01*
X399600Y108355*
X397652Y106407*
X392919Y111139*
G37*
G36*
X386149Y93473D02*
G01X388098Y95422D01*
X392830Y90689*
X390882Y88741*
X386149Y93473*
G37*
G36*
X379078Y86402D02*
G01X381027Y88351D01*
X385759Y83618*
X383811Y81670*
X379078Y86402*
G37*
G36*
X540766Y275410D02*
G01Y280809D01*
X540770Y280846*
X540790Y280921*
X540807Y280958*
X540845Y281020*
X541849Y282028*
X541909Y282072*
X541976Y282103*
X542049Y282121*
X547518*
X547572Y282109*
X547635Y282084*
X547695Y282047*
X547749Y281997*
X547795Y281935*
X547828Y281866*
X547839Y281829*
X547851Y281754*
Y275478*
X547853Y275409*
X547842Y275341*
X547820Y275275*
X547786Y275215*
X547742Y275161*
X547684Y275111*
X547618Y275074*
X547587Y275061*
X547543Y275049*
X547507Y275043*
X541109*
X541049Y275055*
X540985Y275080*
X540924Y275117*
X540868Y275167*
X540822Y275229*
X540789Y275298*
X540777Y275335*
X540766Y275410*
G37*
G36*
X555107Y349599D02*
G01X555176Y350063D01*
X555324Y350508*
X555545Y350922*
X555833Y351292*
X556179Y351608*
X556574Y351861*
X557007Y352043*
X557464Y352150*
X557932Y352177*
X558398Y352124*
X558849Y351993*
X559270Y351788*
X559651Y351514*
X559980Y351179*
X560247Y350794*
X560445Y350368*
X560568Y349916*
X560612Y349505*
X560607Y339403*
X560537Y338939*
X560390Y338494*
X560169Y338080*
X559881Y337710*
X559534Y337394*
X559139Y337141*
X558706Y336959*
X558249Y336853*
X557781Y336826*
X557424Y336859*
X557028Y336953*
X556615Y337120*
X556247Y337344*
X555916Y337624*
X555628Y337960*
X555393Y338346*
X555225Y338763*
X555127Y339204*
X555107Y349599*
G37*
G36*
X526366D02*
G01X526436Y350063D01*
X526584Y350508*
X526805Y350922*
X527092Y351292*
X527439Y351608*
X527834Y351861*
X528266Y352043*
X528723Y352150*
X529192Y352177*
X529658Y352124*
X530108Y351993*
X530530Y351788*
X530911Y351514*
X531240Y351179*
X531507Y350794*
X531705Y350368*
X531828Y349916*
X531872Y349505*
X531867Y339403*
X531797Y338939*
X531649Y338494*
X531428Y338080*
X531140Y337710*
X530794Y337394*
X530399Y337141*
X529966Y336959*
X529509Y336853*
X529041Y336826*
X528684Y336859*
X528288Y336953*
X527875Y337120*
X527506Y337344*
X527176Y337624*
X526888Y337960*
X526653Y338346*
X526485Y338763*
X526387Y339204*
X526366Y349599*
G37*
G36*
X222248Y368716D02*
G01Y377785D01*
X222254Y377819*
X222265Y377851*
X222281Y377881*
X222303Y377908*
X222329Y377931*
X222358Y377948*
X222390Y377961*
X222409Y377965*
X223961Y377972*
Y380541*
X223981Y380615*
X224038Y380684*
X224121Y380721*
X224903*
X224927Y380715*
X224959Y380701*
X224988Y380683*
X225013Y380659*
X225033Y380632*
X225049Y380601*
X225059Y380568*
X225063Y380540*
Y377972*
X225929*
X225930Y380541*
X225950Y380615*
X226006Y380684*
X226089Y380721*
X226872*
X226896Y380715*
X226927Y380701*
X226956Y380683*
X226981Y380659*
X227002Y380632*
X227017Y380601*
X227027Y380568*
X227031Y380540*
X227032Y377972*
X228583Y377965*
X228616Y377956*
X228647Y377941*
X228675Y377921*
X228700Y377897*
X228719Y377868*
X228733Y377837*
X228742Y377804*
X228745Y377769*
X228744Y377754*
Y368703*
X228740Y368678*
X228734Y368653*
X228720Y368622*
X228701Y368593*
X228677Y368568*
X228649Y368548*
X228618Y368533*
X228585Y368523*
X228581*
X227032Y368516*
X227031Y365947*
X227014Y365879*
X226962Y365810*
X226894Y365773*
X226869Y365767*
X226091*
X226058Y365776*
X226027Y365791*
X225999Y365810*
X225974Y365835*
X225955Y365863*
X225940Y365894*
X225931Y365928*
X225928Y365962*
X225929Y365978*
Y368519*
X225063*
Y365947*
X225045Y365879*
X224993Y365810*
X224926Y365773*
X224901Y365767*
X224123*
X224098Y365773*
X224081Y365779*
X224056Y365792*
X224028Y365812*
X224004Y365837*
X223985Y365865*
X223971Y365897*
X223962Y365930*
X223960Y365964*
X223961Y365978*
Y368516*
X222411Y368523*
X222378Y368531*
X222347Y368546*
X222319Y368565*
X222294Y368590*
X222274Y368618*
X222260Y368649*
X222251Y368682*
X222248Y368716*
G37*
G54D15*
X119215Y216990D03*
X624350Y228510D03*
X125270Y189320D03*
X96160Y274960D03*
X80410Y275450D03*
X127492Y250363D03*
X528500Y174000D03*
X659490Y192190D03*
X625810Y381130D03*
X622690Y312657D03*
X237930Y162820D03*
X473000Y89300D03*
X435980Y184240D03*
X420960Y181160D03*
X638410Y380100D03*
X191800Y344000D03*
X195500Y344200D03*
X207119Y270741D03*
X449750Y188500D03*
X613500Y86200D03*
X618780Y149280D03*
X573100Y171000D03*
X192480Y284780D03*
X563500Y280000D03*
X555250D03*
X235260Y280500D03*
X50220Y110060D03*
X631250Y38890D03*
X143000Y215000D03*
X205750Y188000D03*
X392000Y169100D03*
X578700Y327900D03*
X59660Y285030D03*
X393500Y152250D03*
X218000Y177000D03*
X417500Y134500D03*
X245260Y362290D03*
X600012Y179187D03*
X193000Y239500D03*
X208250Y250750D03*
X450800Y195010D03*
X451080Y201550D03*
X666840Y334640D03*
X596580Y339700D03*
X625320Y334850D03*
X644620Y334020D03*
X680200Y344860D03*
X600300Y347400D03*
X649550Y323390D03*
X316500Y261500D03*
X597950Y232310D03*
X606500Y355390D03*
X622340Y323390D03*
X652760Y333230D03*
X318250Y266250D03*
X371750Y149000D03*
X543000Y181000D03*
X425780Y182910D03*
X451160Y206700D03*
X447750Y192750D03*
X433310Y181060D03*
X431200Y183960D03*
X315750Y227250D03*
X316250Y223500D03*
X622770Y348270D03*
X660730Y130030D03*
X467680Y97620D03*
X608400Y304500D03*
X117690Y170510D03*
X463570Y91750D03*
X547000Y165000D03*
X123940Y169360D03*
X459900Y98600D03*
X559250Y323250D03*
X451970Y99500D03*
X264610Y245490D03*
X136250Y197500D03*
X132400Y168330D03*
X327750Y186000D03*
X238750Y239310D03*
X128430Y169870D03*
X254880Y237720D03*
X633580Y301110D03*
X649230Y381260D03*
X644160Y283940D03*
X258800Y243700D03*
X134750Y233750D03*
X320750Y189000D03*
X85270Y197100D03*
X88250Y202200D03*
X251280Y245530D03*
X628020Y301170D03*
X134000Y242000D03*
X617300Y284900D03*
X242750Y241700D03*
X77900Y205480D03*
X212643Y302894D03*
X659540Y216630D03*
X520900Y227900D03*
X232260Y162780D03*
X314750Y194750D03*
X236830Y242730D03*
X191881Y315111D03*
X642500Y113250D03*
X464600Y162800D03*
X524200Y232500D03*
X604600Y174200D03*
X80500Y214500D03*
X258520Y235290D03*
X229041Y306710D03*
X597700Y207200D03*
X182000Y89500D03*
X216425Y302142D03*
X597155Y203528D03*
X142000Y257000D03*
X549500Y332400D03*
X247780Y166930D03*
X614600Y171100D03*
X77220Y199800D03*
X644990Y145650D03*
X659590Y196430D03*
X658360Y122460D03*
X146750Y242750D03*
X605200Y220300D03*
X204500Y342000D03*
X277200Y234600D03*
X607700Y232700D03*
X126500Y230000D03*
X408300Y169900D03*
X131710Y260810D03*
X477400Y99400D03*
X195997Y314375D03*
X660320Y208940D03*
X245750Y137250D03*
X316750Y198000D03*
X559250Y269000D03*
X245500Y133250D03*
X244830Y173270D03*
X272250Y127500D03*
X301500Y220750D03*
X145430Y285440D03*
X616510Y371410D03*
X297340Y226840D03*
X309700Y236600D03*
X295350Y231880D03*
X151750Y256250D03*
X293500Y238450D03*
X494400Y280200D03*
X158000Y257000D03*
X278200Y250200D03*
X142000Y243750D03*
X315000Y200500D03*
X538500Y258700D03*
X244700Y113600D03*
X160196Y269430D03*
X602050Y387050D03*
X659350Y200200D03*
X534200Y223200D03*
X318000Y208250D03*
X551000Y229000D03*
X563750Y312750D03*
X285250Y203750D03*
X529000Y225600D03*
X316000Y205750D03*
X125350Y260700D03*
X245250Y125000D03*
X659150Y223250D03*
X251890Y174220D03*
X91330Y266510D03*
X262750Y192750D03*
X306840Y239990D03*
X255930Y175090D03*
X304870Y235870D03*
X117250Y259750D03*
X658970Y228230D03*
X302500Y239240D03*
X668900Y277500D03*
X621520Y197080D03*
X619450Y202100D03*
X132250Y130500D03*
X405500Y172000D03*
X410600Y174000D03*
X417500Y152500D03*
X624000Y114000D03*
X662560Y178480D03*
X658400Y234400D03*
X134990Y171210D03*
X593000Y86000D03*
X619430Y123920D03*
X608100Y85600D03*
X336750Y97250D03*
X587110Y92250D03*
X617250Y131000D03*
X594000Y127750D03*
X628110Y135160D03*
X376300Y134740D03*
X359120Y138730D03*
X311970Y139600D03*
X75020Y266510D03*
X598200Y85400D03*
X313990Y130510D03*
X621500Y130500D03*
X605500Y133000D03*
X359250Y120000D03*
X195750Y178500D03*
X244080Y163570D03*
X476460Y84560D03*
X372510Y134560D03*
X333250Y85000D03*
X251500Y116250D03*
X59112Y55329D03*
X307310Y148700D03*
X229774Y170760D03*
X92380Y352210D03*
X139480Y262080D03*
X623140Y87030D03*
X437260Y157880D03*
X376900Y151290D03*
X190269Y248644D03*
X106250Y115750D03*
X123750Y122750D03*
X622060Y212510D03*
X621610Y216970D03*
X622670Y221110D03*
X628150Y221550D03*
X75500Y189000D03*
X112000Y116000D03*
X114500Y122500D03*
X117000Y128500D03*
X119750Y118750D03*
X630500Y109500D03*
G54D51*
X612906Y323692D03*
Y319902D03*
G54D116*
X31700Y244849D03*
G54D117*
Y263353D03*
Y281857D03*
G54D51*
X442259Y165963D03*
X446049D03*
G54D120*
X116642Y301290D03*
Y307195D03*
Y313101D03*
Y319006D03*
Y324912D03*
X118610Y304242D03*
Y310148D03*
Y316053D03*
Y321959D03*
X120579Y301290D03*
Y307195D03*
Y313101D03*
Y319006D03*
Y324912D03*
G54D34*
X586362Y347543D03*
G54D35*
X684787D03*
G54D21*
X683213Y158173D03*
X587937D03*
G54D36*
X683095Y253449D03*
X587819D03*
G54D51*
X589963Y310543D03*
X586173D03*
X595466Y289569D03*
X591676D03*
X589954Y323311D03*
X586164D03*
G54D22*
X521900Y200000D03*
G54D23*
X509695D03*
X521900Y187795D03*
Y212205D03*
X534105Y200000D03*
X530168Y190945D03*
Y209055D03*
X513632D03*
Y190945D03*
G54D36*
X177949Y229102D03*
X45863D03*
G54D37*
X48422Y203511D03*
X48410Y254555D03*
X175575Y203760D03*
G54D92*
X327013Y306887D03*
X330950D03*
X334887D03*
X338824D03*
X342761D03*
X346698D03*
X350635D03*
X354572D03*
X358509D03*
X362447D03*
X366384D03*
X370321D03*
X374258D03*
X378195D03*
X382132D03*
X386069D03*
X390006D03*
X393943D03*
X397880D03*
X401817D03*
X405753D03*
X409691D03*
X413628D03*
X417565D03*
X421502D03*
X425439D03*
X429376D03*
X433313D03*
X437250D03*
X441187D03*
X327013Y228147D03*
X330950D03*
X334887D03*
X338824D03*
X342761D03*
X346698D03*
X358509D03*
X362447D03*
X366384D03*
X370321D03*
X374258D03*
X378195D03*
X382132D03*
X386069D03*
X390006D03*
X393943D03*
X397880D03*
X401817D03*
X405753D03*
X409691D03*
X421502D03*
X425439D03*
X429376D03*
X433313D03*
X437250D03*
X441187D03*
X327013Y224209D03*
X330950D03*
X334887D03*
X338824D03*
X342761D03*
X346698D03*
X358509D03*
X362447D03*
X366384D03*
X370321D03*
X374258D03*
X378195D03*
X382132D03*
X386069D03*
X390006D03*
X393943D03*
X397880D03*
X401817D03*
X405753D03*
X409691D03*
X421502D03*
X425439D03*
X429376D03*
X433313D03*
X437250D03*
X441187D03*
X327013Y220272D03*
X330950D03*
X334887D03*
X338824D03*
X342761D03*
X346698D03*
X421502D03*
X425439D03*
X429376D03*
X433313D03*
X437250D03*
X441187D03*
X327013Y216335D03*
X330950D03*
X334887D03*
X338824D03*
X342761D03*
X346698D03*
X421502D03*
X425439D03*
X429376D03*
X433313D03*
X437250D03*
X441187D03*
X327013Y212398D03*
X330950D03*
X334887D03*
X338824D03*
X342761D03*
X346698D03*
X350635D03*
X354572D03*
X358509D03*
X362447D03*
X366384D03*
X370321D03*
X374258D03*
X378195D03*
X382132D03*
X386069D03*
X390006D03*
X393943D03*
X397880D03*
X401817D03*
X405753D03*
X409691D03*
X413628D03*
X417565D03*
X421502D03*
X425439D03*
X429376D03*
X433313D03*
X437250D03*
X441187D03*
X327013Y208461D03*
X330950D03*
X334887D03*
X338824D03*
X342761D03*
X346698D03*
X350635D03*
X354572D03*
X358509D03*
X362447D03*
X366384D03*
X370321D03*
X374258D03*
X378195D03*
X382132D03*
X386069D03*
X390006D03*
X393943D03*
X397880D03*
X401817D03*
X405753D03*
X409691D03*
X413628D03*
X417565D03*
X421502D03*
X425439D03*
X429376D03*
X433313D03*
X437250D03*
X441187D03*
X327013Y204524D03*
X330950D03*
X334887D03*
X338824D03*
X342761D03*
X346698D03*
X350635D03*
X354572D03*
X358509D03*
X362447D03*
X366384D03*
X370321D03*
X374258D03*
X378195D03*
X382132D03*
X386069D03*
X390006D03*
X393943D03*
X397880D03*
X401817D03*
X405753D03*
X409691D03*
X413628D03*
X417565D03*
X421502D03*
X425439D03*
X429376D03*
X433313D03*
X437250D03*
X441187D03*
X327013Y200587D03*
X330950D03*
X334887D03*
X338824D03*
X342761D03*
X346698D03*
X350635D03*
X354572D03*
X358509D03*
X362447D03*
X366384D03*
X370321D03*
X374258D03*
X378195D03*
X382132D03*
X386069D03*
X390006D03*
X393943D03*
X397880D03*
X401817D03*
X405753D03*
X409691D03*
X413628D03*
X417565D03*
X421502D03*
X425439D03*
X429376D03*
X433313D03*
X437250D03*
X441187D03*
X327013Y196650D03*
X330950D03*
X334887D03*
X338824D03*
X342761D03*
X346698D03*
X350635D03*
X354572D03*
X358509D03*
X362447D03*
X366384D03*
X370321D03*
X374258D03*
X378195D03*
X382132D03*
X386069D03*
X390006D03*
X393943D03*
X397880D03*
X401817D03*
X405753D03*
X409691D03*
X413628D03*
X417565D03*
X421502D03*
X425439D03*
X429376D03*
X433313D03*
X437250D03*
X441187D03*
X327013Y192713D03*
X330950D03*
X334887D03*
X338824D03*
X342761D03*
X346698D03*
X350635D03*
X354572D03*
X358509D03*
X362447D03*
X366384D03*
X370321D03*
X374258D03*
X378195D03*
X382132D03*
X386069D03*
X390006D03*
X393943D03*
X397880D03*
X401817D03*
X405753D03*
X409691D03*
X413628D03*
X417565D03*
X421502D03*
X425439D03*
X429376D03*
X433313D03*
X437250D03*
X441187D03*
X327013Y302950D03*
X330950D03*
X334887D03*
X338824D03*
X342761D03*
X346698D03*
X350635D03*
X354572D03*
X358509D03*
X362447D03*
X366384D03*
X370321D03*
X374258D03*
X378195D03*
X382132D03*
X386069D03*
X390006D03*
X393943D03*
X397880D03*
X401817D03*
X405753D03*
X409691D03*
X413628D03*
X417565D03*
X421502D03*
X425439D03*
X429376D03*
X433313D03*
X437250D03*
X441187D03*
X327013Y299013D03*
X330950D03*
X334887D03*
X338824D03*
X342761D03*
X346698D03*
X350635D03*
X354572D03*
X358509D03*
X362447D03*
X366384D03*
X370321D03*
X374258D03*
X378195D03*
X382132D03*
X386069D03*
X390006D03*
X393943D03*
X397880D03*
X401817D03*
X405753D03*
X409691D03*
X413628D03*
X417565D03*
X421502D03*
X425439D03*
X429376D03*
X433313D03*
X437250D03*
X441187D03*
X327013Y295076D03*
X330950D03*
X334887D03*
X338824D03*
X342761D03*
X346698D03*
X350635D03*
X354572D03*
X358509D03*
X362447D03*
X366384D03*
X370321D03*
X374258D03*
X378195D03*
X382132D03*
X386069D03*
X390006D03*
X393943D03*
X397880D03*
X401817D03*
X405753D03*
X409691D03*
X413628D03*
X417565D03*
X421502D03*
X425439D03*
X429376D03*
X433313D03*
X437250D03*
X441187D03*
X327013Y291139D03*
X330950D03*
X334887D03*
X338824D03*
X342761D03*
X346698D03*
X350635D03*
X354572D03*
X358509D03*
X362447D03*
X366384D03*
X370321D03*
X374258D03*
X378195D03*
X382132D03*
X386069D03*
X390006D03*
X393943D03*
X397880D03*
X401817D03*
X405753D03*
X409691D03*
X413628D03*
X417565D03*
X421502D03*
X425439D03*
X429376D03*
X433313D03*
X437250D03*
X441187D03*
X327013Y287202D03*
X330950D03*
X334887D03*
X338824D03*
X342761D03*
X346698D03*
X350635D03*
X354572D03*
X358509D03*
X362447D03*
X366384D03*
X370321D03*
X374258D03*
X378195D03*
X382132D03*
X386069D03*
X390006D03*
X393943D03*
X397880D03*
X401817D03*
X405753D03*
X409691D03*
X413628D03*
X417565D03*
X421502D03*
X425439D03*
X429376D03*
X433313D03*
X437250D03*
X441187D03*
X327013Y283265D03*
X330950D03*
X334887D03*
X338824D03*
X342761D03*
X346698D03*
X421502D03*
X425439D03*
X429376D03*
X433313D03*
X437250D03*
X441187D03*
X327013Y279328D03*
X330950D03*
X334887D03*
X338824D03*
X342761D03*
X346698D03*
X421502D03*
X425439D03*
X429376D03*
X433313D03*
X437250D03*
X441187D03*
X327013Y275391D03*
X330950D03*
X334887D03*
X338824D03*
X342761D03*
X346698D03*
X358509D03*
X362447D03*
X366384D03*
X370321D03*
X374258D03*
X378195D03*
X382132D03*
X386069D03*
X390006D03*
X393943D03*
X397880D03*
X401817D03*
X405753D03*
X409691D03*
X421502D03*
X425439D03*
X429376D03*
X433313D03*
X437250D03*
X441187D03*
X327013Y271454D03*
X330950D03*
X334887D03*
X338824D03*
X342761D03*
X346698D03*
X358509D03*
X362447D03*
X366384D03*
X370321D03*
X374258D03*
X378195D03*
X382132D03*
X386069D03*
X390006D03*
X393943D03*
X397880D03*
X401817D03*
X405753D03*
X409691D03*
X421502D03*
X425439D03*
X429376D03*
X433313D03*
X437250D03*
X441187D03*
X327013Y267517D03*
X330950D03*
X334887D03*
X338824D03*
X342761D03*
X346698D03*
X358509D03*
X362447D03*
X366384D03*
X370321D03*
X374258D03*
X378195D03*
X382132D03*
X386069D03*
X390006D03*
X393943D03*
X397880D03*
X401817D03*
X405753D03*
X409691D03*
X421502D03*
X425439D03*
X429376D03*
X433313D03*
X437250D03*
X441187D03*
X327013Y263580D03*
X330950D03*
X334887D03*
X338824D03*
X342761D03*
X346698D03*
X358509D03*
X362447D03*
X366384D03*
X370321D03*
X374258D03*
X378195D03*
X382132D03*
X386069D03*
X390006D03*
X393943D03*
X397880D03*
X401817D03*
X405753D03*
X409691D03*
X421502D03*
X425439D03*
X429376D03*
X433313D03*
X437250D03*
X441187D03*
X327013Y259643D03*
X330950D03*
X334887D03*
X338824D03*
X342761D03*
X346698D03*
X358509D03*
X362447D03*
X366384D03*
X370321D03*
X374258D03*
X378195D03*
X382132D03*
X386069D03*
X390006D03*
X393943D03*
X397880D03*
X401817D03*
X405753D03*
X409691D03*
X421502D03*
X425439D03*
X429376D03*
X433313D03*
X437250D03*
X441187D03*
X327013Y255706D03*
X330950D03*
X334887D03*
X338824D03*
X342761D03*
X346698D03*
X358509D03*
X362447D03*
X366384D03*
X370321D03*
X374258D03*
X378195D03*
X382132D03*
X386069D03*
X390006D03*
X393943D03*
X397880D03*
X401817D03*
X405753D03*
X409691D03*
X421502D03*
X425439D03*
X429376D03*
X433313D03*
X437250D03*
X441187D03*
X327013Y251769D03*
X330950D03*
X334887D03*
X338824D03*
X342761D03*
X346698D03*
X358509D03*
X362447D03*
X366384D03*
X370321D03*
X374258D03*
X378195D03*
X382132D03*
X386069D03*
X390006D03*
X393943D03*
X397880D03*
X401817D03*
X405753D03*
X409691D03*
X421502D03*
X425439D03*
X429376D03*
X433313D03*
X437250D03*
X441187D03*
X327013Y247831D03*
X330950D03*
X334887D03*
X338824D03*
X342761D03*
X346698D03*
X358509D03*
X362447D03*
X366384D03*
X370321D03*
X374258D03*
X378195D03*
X382132D03*
X386069D03*
X390006D03*
X393943D03*
X397880D03*
X401817D03*
X405753D03*
X409691D03*
X421502D03*
X425439D03*
X429376D03*
X433313D03*
X437250D03*
X441187D03*
X327013Y243895D03*
X330950D03*
X334887D03*
X338824D03*
X342761D03*
X346698D03*
X358509D03*
X362447D03*
X366384D03*
X370321D03*
X374258D03*
X378195D03*
X382132D03*
X386069D03*
X390006D03*
X393943D03*
X397880D03*
X401817D03*
X405753D03*
X409691D03*
X421502D03*
X425439D03*
X429376D03*
X433313D03*
X437250D03*
X441187D03*
X327013Y239958D03*
X330950D03*
X334887D03*
X338824D03*
X342761D03*
X346698D03*
X358509D03*
X362447D03*
X366384D03*
X370321D03*
X374258D03*
X378195D03*
X382132D03*
X386069D03*
X390006D03*
X393943D03*
X397880D03*
X401817D03*
X405753D03*
X409691D03*
X421502D03*
X425439D03*
X429376D03*
X433313D03*
X437250D03*
X441187D03*
X327013Y236021D03*
X330950D03*
X334887D03*
X338824D03*
X342761D03*
X346698D03*
X358509D03*
X362447D03*
X366384D03*
X370321D03*
X374258D03*
X378195D03*
X382132D03*
X386069D03*
X390006D03*
X393943D03*
X397880D03*
X401817D03*
X405753D03*
X409691D03*
X421502D03*
X425439D03*
X429376D03*
X433313D03*
X437250D03*
X441187D03*
X327013Y232084D03*
X330950D03*
X334887D03*
X338824D03*
X342761D03*
X346698D03*
X358509D03*
X362447D03*
X366384D03*
X370321D03*
X374258D03*
X378195D03*
X382132D03*
X386069D03*
X390006D03*
X393943D03*
X397880D03*
X401817D03*
X405753D03*
X409691D03*
X421502D03*
X425439D03*
X429376D03*
X433313D03*
X437250D03*
X441187D03*
G54D38*
X556000Y147000D03*
G54D24*
X566000D03*
X556000Y157000D03*
X566000D03*
X556000Y167000D03*
X566000D03*
X556000Y177000D03*
X566000D03*
X556000Y187000D03*
X566000D03*
X556000Y197000D03*
X566000D03*
X556000Y207000D03*
X566000D03*
G54D57*
X177105Y344232D03*
G54D65*
X538500Y168500D03*
G54D39*
X528500D03*
G54D67*
X645000Y387047D03*
Y392953D03*
X675306Y346355D03*
Y340449D03*
X163226Y346079D03*
Y351985D03*
X156616Y346044D03*
Y351950D03*
X181953Y84500D03*
X176047D03*
X664890Y273821D03*
X658984D03*
X632500Y387047D03*
Y392953D03*
X620000Y387047D03*
Y392953D03*
X204236Y368323D03*
Y374229D03*
X607500Y387047D03*
Y392953D03*
X608859Y210902D03*
X602953D03*
X621440Y231663D03*
Y225757D03*
X662953Y168500D03*
X657047D03*
G54D15*
X617231Y195314D03*
X158284Y330996D03*
X119106Y224602D03*
G54D99*
X649213Y40551D03*
G54D100*
X167120Y310930D03*
G54D101*
X319590Y104085D03*
Y107235D03*
Y110385D03*
Y113534D03*
Y116684D03*
Y119834D03*
Y122983D03*
Y126133D03*
Y129282D03*
Y132432D03*
Y135582D03*
Y138731D03*
X322740Y104085D03*
Y107235D03*
Y110385D03*
Y113534D03*
Y116684D03*
Y119834D03*
Y122983D03*
Y126133D03*
Y129282D03*
Y132432D03*
Y135582D03*
Y138731D03*
X325889Y104085D03*
Y107235D03*
Y110385D03*
Y113534D03*
Y116684D03*
Y119834D03*
Y122983D03*
Y126133D03*
Y129282D03*
Y132432D03*
Y135582D03*
Y138731D03*
X329039Y104085D03*
Y107235D03*
Y110385D03*
Y113534D03*
Y116684D03*
Y119834D03*
Y122983D03*
Y126133D03*
Y129282D03*
Y132432D03*
Y135582D03*
Y138731D03*
X332189Y104085D03*
Y107235D03*
Y110385D03*
Y113534D03*
Y116684D03*
Y119834D03*
Y122983D03*
Y126133D03*
Y129282D03*
Y132432D03*
Y135582D03*
Y138731D03*
X335338Y104085D03*
Y107235D03*
Y110385D03*
Y113534D03*
Y116684D03*
Y119834D03*
Y122983D03*
Y126133D03*
Y129282D03*
Y132432D03*
Y135582D03*
Y138731D03*
X338488Y104085D03*
Y107235D03*
Y110385D03*
Y113534D03*
Y116684D03*
Y119834D03*
Y122983D03*
Y126133D03*
Y129282D03*
Y132432D03*
Y135582D03*
Y138731D03*
X341637Y104085D03*
Y107235D03*
Y110385D03*
Y113534D03*
Y116684D03*
Y119834D03*
Y122983D03*
Y126133D03*
Y129282D03*
Y132432D03*
Y135582D03*
Y138731D03*
X344787Y104085D03*
Y107235D03*
Y110385D03*
Y113534D03*
Y116684D03*
Y119834D03*
Y122983D03*
Y126133D03*
Y129282D03*
Y132432D03*
Y135582D03*
Y138731D03*
X347937Y104085D03*
Y107235D03*
Y110385D03*
Y113534D03*
Y116684D03*
Y119834D03*
Y122983D03*
Y126133D03*
Y129282D03*
Y132432D03*
Y135582D03*
Y138731D03*
X351086Y104085D03*
Y107235D03*
Y110385D03*
Y113534D03*
Y116684D03*
Y119834D03*
Y122983D03*
Y126133D03*
Y129282D03*
Y132432D03*
Y135582D03*
Y138731D03*
X354236Y104085D03*
Y107235D03*
Y110385D03*
Y113534D03*
Y116684D03*
Y119834D03*
Y122983D03*
Y126133D03*
Y129282D03*
Y132432D03*
Y135582D03*
Y138731D03*
G54D102*
X73600Y30800D03*
X159000Y109500D03*
G54D84*
X259954Y133139D03*
G54D113*
X568000Y327000D03*
G54D114*
Y317000D03*
Y307000D03*
G54D102*
X162430Y154410D03*
G54D26*
X500000Y15748D03*
X508858Y24606D03*
Y6890D03*
X491142D03*
Y24606D03*
X202756Y15748D03*
X211614Y24606D03*
Y6890D03*
X193898D03*
Y24606D03*
X535433Y15748D03*
X544291Y24606D03*
Y6890D03*
X526575D03*
Y24606D03*
X167323Y15748D03*
X176181Y24606D03*
Y6890D03*
X158465D03*
Y24606D03*
G54D57*
X144026Y344232D03*
G54D40*
X22250Y338500D03*
G54D27*
Y328500D03*
Y318500D03*
Y308500D03*
Y298500D03*
X32250Y333500D03*
Y323500D03*
Y313500D03*
Y303500D03*
Y293500D03*
G54D28*
X98431Y342122D03*
Y332122D03*
Y299878D03*
Y289878D03*
G54D41*
X66935Y347004D03*
Y285035D03*
G54D42*
X82250Y338500D03*
Y293500D03*
G54D90*
X338098Y339478D03*
X334949D03*
X331799D03*
X319201D03*
X316051D03*
X312902D03*
X338098Y342628D03*
X334949D03*
X331799D03*
X319201D03*
X316051D03*
X312902D03*
X338098Y345777D03*
X334949D03*
X331799D03*
X319201D03*
X316051D03*
X312902D03*
X338098Y348927D03*
X334949D03*
X331799D03*
X319201D03*
X316051D03*
X312902D03*
X338098Y352076D03*
X334949D03*
X331799D03*
X319201D03*
X316051D03*
X312902D03*
X338098Y355226D03*
X334949D03*
X331799D03*
X319201D03*
X316051D03*
X312902D03*
X338098Y358376D03*
X334949D03*
X331799D03*
X319201D03*
X316051D03*
X312902D03*
X338098Y361525D03*
X334949D03*
X331799D03*
X319201D03*
X316051D03*
X312902D03*
X338098Y364675D03*
X334949D03*
X331799D03*
X319201D03*
X316051D03*
X312902D03*
X338098Y367824D03*
X334949D03*
X331799D03*
X319201D03*
X316051D03*
X312902D03*
X338098Y370974D03*
X334949D03*
X331799D03*
X319201D03*
X316051D03*
X312902D03*
X338098Y374124D03*
X334949D03*
X331799D03*
X319201D03*
X316051D03*
X312902D03*
X338098Y377273D03*
X334949D03*
X331799D03*
X319201D03*
X316051D03*
X312902D03*
X338098Y380423D03*
X334949D03*
X331799D03*
X319201D03*
X316051D03*
X312902D03*
X338098Y383572D03*
X334949D03*
X331799D03*
X319201D03*
X316051D03*
X312902D03*
X338098Y386722D03*
X334949D03*
X331799D03*
X319201D03*
X316051D03*
X312902D03*
X388098Y339478D03*
X384949D03*
X381799D03*
X369201D03*
X366051D03*
X362902D03*
X388098Y342628D03*
X384949D03*
X381799D03*
X369201D03*
X366051D03*
X362902D03*
X388098Y345777D03*
X384949D03*
X381799D03*
X369201D03*
X366051D03*
X362902D03*
X388098Y348927D03*
X384949D03*
X381799D03*
X369201D03*
X366051D03*
X362902D03*
X388098Y352076D03*
X384949D03*
X381799D03*
X369201D03*
X366051D03*
X362902D03*
X388098Y355226D03*
X384949D03*
X381799D03*
X369201D03*
X366051D03*
X362902D03*
X388098Y358376D03*
X384949D03*
X381799D03*
X369201D03*
X366051D03*
X362902D03*
X388098Y361525D03*
X384949D03*
X381799D03*
X369201D03*
X366051D03*
X362902D03*
X388098Y364675D03*
X384949D03*
X381799D03*
X369201D03*
X366051D03*
X362902D03*
X388098Y367824D03*
X384949D03*
X381799D03*
X369201D03*
X366051D03*
X362902D03*
X388098Y370974D03*
X384949D03*
X381799D03*
X369201D03*
X366051D03*
X362902D03*
X388098Y374124D03*
X384949D03*
X381799D03*
X369201D03*
X366051D03*
X362902D03*
X388098Y377273D03*
X384949D03*
X381799D03*
X369201D03*
X366051D03*
X362902D03*
X388098Y380423D03*
X384949D03*
X381799D03*
X369201D03*
X366051D03*
X362902D03*
X388098Y383572D03*
X384949D03*
X381799D03*
X369201D03*
X366051D03*
X362902D03*
X388098Y386722D03*
X384949D03*
X381799D03*
X369201D03*
X366051D03*
X362902D03*
X438098Y339478D03*
X434949D03*
X431799D03*
X419201D03*
X416051D03*
X412902D03*
X438098Y342628D03*
X434949D03*
X431799D03*
X419201D03*
X416051D03*
X412902D03*
X438098Y345777D03*
X434949D03*
X431799D03*
X419201D03*
X416051D03*
X412902D03*
X438098Y348927D03*
X434949D03*
X431799D03*
X419201D03*
X416051D03*
X412902D03*
X438098Y352076D03*
X434949D03*
X431799D03*
X419201D03*
X416051D03*
X412902D03*
X438098Y355226D03*
X434949D03*
X431799D03*
X419201D03*
X416051D03*
X412902D03*
X438098Y358376D03*
X434949D03*
X431799D03*
X419201D03*
X416051D03*
X412902D03*
X438098Y361525D03*
X434949D03*
X431799D03*
X419201D03*
X416051D03*
X412902D03*
X438098Y364675D03*
X434949D03*
X431799D03*
X419201D03*
X416051D03*
X412902D03*
X438098Y367824D03*
X434949D03*
X431799D03*
X419201D03*
X416051D03*
X412902D03*
X438098Y370974D03*
X434949D03*
X431799D03*
X419201D03*
X416051D03*
X412902D03*
X438098Y374124D03*
X434949D03*
X431799D03*
X419201D03*
X416051D03*
X412902D03*
X438098Y377273D03*
X434949D03*
X431799D03*
X419201D03*
X416051D03*
X412902D03*
X438098Y380423D03*
X434949D03*
X431799D03*
X419201D03*
X416051D03*
X412902D03*
X438098Y383572D03*
X434949D03*
X431799D03*
X419201D03*
X416051D03*
X412902D03*
X438098Y386722D03*
X434949D03*
X431799D03*
X419201D03*
X416051D03*
X412902D03*
X488098Y339478D03*
X484949D03*
X481799D03*
X469201D03*
X466051D03*
X462902D03*
X488098Y342628D03*
X484949D03*
X481799D03*
X469201D03*
X466051D03*
X462902D03*
X488098Y345777D03*
X484949D03*
X481799D03*
X469201D03*
X466051D03*
X462902D03*
X488098Y348927D03*
X484949D03*
X481799D03*
X469201D03*
X466051D03*
X462902D03*
X488098Y352076D03*
X484949D03*
X481799D03*
X469201D03*
X466051D03*
X462902D03*
X488098Y355226D03*
X484949D03*
X481799D03*
X469201D03*
X466051D03*
X462902D03*
X488098Y358376D03*
X484949D03*
X481799D03*
X469201D03*
X466051D03*
X462902D03*
X488098Y361525D03*
X484949D03*
X481799D03*
X469201D03*
X466051D03*
X462902D03*
X488098Y364675D03*
X484949D03*
X481799D03*
X469201D03*
X466051D03*
X462902D03*
X488098Y367824D03*
X484949D03*
X481799D03*
X469201D03*
X466051D03*
X462902D03*
X488098Y370974D03*
X484949D03*
X481799D03*
X469201D03*
X466051D03*
X462902D03*
X488098Y374124D03*
X484949D03*
X481799D03*
X469201D03*
X466051D03*
X462902D03*
X488098Y377273D03*
X484949D03*
X481799D03*
X469201D03*
X466051D03*
X462902D03*
X488098Y380423D03*
X484949D03*
X481799D03*
X469201D03*
X466051D03*
X462902D03*
X488098Y383572D03*
X484949D03*
X481799D03*
X469201D03*
X466051D03*
X462902D03*
X488098Y386722D03*
X484949D03*
X481799D03*
X469201D03*
X466051D03*
X462902D03*
X288715Y280606D03*
X285566D03*
X282416D03*
X269818D03*
X266668D03*
X263519D03*
X288715Y283756D03*
X285566D03*
X282416D03*
X269818D03*
X266668D03*
X263519D03*
X288715Y286905D03*
X285566D03*
X282416D03*
X269818D03*
X266668D03*
X263519D03*
X288715Y290055D03*
X285566D03*
X282416D03*
X269818D03*
X266668D03*
X263519D03*
X288715Y293204D03*
X285566D03*
X282416D03*
X269818D03*
X266668D03*
X263519D03*
X288715Y296354D03*
X285566D03*
X282416D03*
X269818D03*
X266668D03*
X263519D03*
X288715Y299504D03*
X285566D03*
X282416D03*
X269818D03*
X266668D03*
X263519D03*
X288715Y302653D03*
X285566D03*
X282416D03*
X269818D03*
X266668D03*
X263519D03*
X288715Y305803D03*
X285566D03*
X282416D03*
X269818D03*
X266668D03*
X263519D03*
X288715Y308952D03*
X285566D03*
X282416D03*
X269818D03*
X266668D03*
X263519D03*
X288715Y312102D03*
X285566D03*
X282416D03*
X269818D03*
X266668D03*
X263519D03*
X288715Y315252D03*
X285566D03*
X282416D03*
X269818D03*
X266668D03*
X263519D03*
X288715Y318401D03*
X285566D03*
X282416D03*
X269818D03*
X266668D03*
X263519D03*
X288715Y321551D03*
X285566D03*
X282416D03*
X269818D03*
X266668D03*
X263519D03*
X288715Y324700D03*
X285566D03*
X282416D03*
X269818D03*
X266668D03*
X263519D03*
X288715Y327850D03*
X285566D03*
X282416D03*
X269818D03*
X266668D03*
X263519D03*
G54D22*
X540400Y115000D03*
G54D23*
Y127205D03*
X528195Y115000D03*
X552605D03*
X540400Y102795D03*
X531345Y106732D03*
X549455D03*
Y123268D03*
X531345D03*
G54D22*
X21600Y393400D03*
G54D23*
X9395D03*
X21600Y381195D03*
Y405605D03*
X33805Y393400D03*
X29868Y384345D03*
Y402455D03*
X13332D03*
Y384345D03*
G54D22*
X678300Y85700D03*
G54D23*
X666095D03*
X678300Y73495D03*
Y97905D03*
X690505Y85700D03*
X686568Y76645D03*
Y94755D03*
X670032D03*
Y76645D03*
G54D22*
X275600Y393400D03*
G54D23*
X263395D03*
X275600Y381195D03*
Y405605D03*
X287805Y393400D03*
X283868Y384345D03*
Y402455D03*
X267332D03*
Y384345D03*
G54D22*
X678500Y393400D03*
G54D23*
X666295D03*
X678500Y381195D03*
Y405605D03*
X690705Y393400D03*
X686768Y384345D03*
Y402455D03*
X670232D03*
Y384345D03*
G54D22*
X199920Y150030D03*
G54D23*
X187715D03*
X199920Y137825D03*
Y162235D03*
X212125Y150030D03*
X208188Y140975D03*
Y159085D03*
X191652D03*
Y140975D03*
G54D22*
X21600Y85600D03*
G54D23*
X9395D03*
X21600Y73395D03*
Y97805D03*
X33805Y85600D03*
X29868Y76545D03*
Y94655D03*
X13332D03*
Y76545D03*
G54D51*
X246870Y191874D03*
Y188084D03*
X89640Y231000D03*
X85850D03*
X652750Y352110D03*
Y355900D03*
X648750Y352110D03*
Y355900D03*
X306510Y221400D03*
X310300D03*
X273000Y191790D03*
Y188000D03*
X273413Y238354D03*
Y242144D03*
X246750Y238360D03*
Y242150D03*
X384210Y172500D03*
X388000D03*
X469206Y191512D03*
Y195302D03*
X463590Y182700D03*
X459800D03*
X589963Y314480D03*
X586173D03*
X589954Y319374D03*
X586164D03*
X639096Y278602D03*
X635306D03*
X633579Y296248D03*
X637369D03*
X224550Y306710D03*
Y310500D03*
X213550Y306710D03*
Y310500D03*
X213500Y297640D03*
Y293850D03*
X197000Y301890D03*
Y298100D03*
X203600Y345910D03*
Y349700D03*
X523500Y322610D03*
Y326400D03*
X62750Y361640D03*
Y357850D03*
X75750Y390360D03*
Y394150D03*
X67750Y357860D03*
Y361650D03*
X56500Y394140D03*
Y390350D03*
X242496Y96202D03*
X238706D03*
X249216Y96502D03*
X253006D03*
X478206Y234112D03*
Y237902D03*
X473400Y233910D03*
Y237700D03*
X468600Y233910D03*
Y237700D03*
X488106Y271912D03*
Y275702D03*
X485596Y250102D03*
X481806D03*
X485596Y254902D03*
X481806D03*
X532500Y288110D03*
Y291900D03*
X550224Y292312D03*
Y296102D03*
X547296Y267202D03*
X543506D03*
X558006Y260812D03*
Y264602D03*
X542706Y258712D03*
Y262502D03*
X206890Y198300D03*
X203100D03*
X208506Y223192D03*
Y219402D03*
X185106Y180592D03*
Y176802D03*
X213306Y223192D03*
Y219402D03*
X213869Y199315D03*
Y203105D03*
X214785Y177292D03*
Y173502D03*
X222310Y203000D03*
X226100D03*
X617439Y207991D03*
X613649D03*
X649110Y128180D03*
Y131970D03*
X585875Y208358D03*
X582085D03*
X644835Y107250D03*
X641045D03*
X617593Y212729D03*
X613803D03*
X591030Y237620D03*
X594820D03*
X582296Y222702D03*
X578506D03*
X616206Y230892D03*
Y227102D03*
X571296Y226383D03*
X567506D03*
X631490Y224530D03*
X627700D03*
X601205Y217648D03*
Y221438D03*
X608616Y186802D03*
X612406D03*
X665016Y209454D03*
X668806D03*
X606306Y339712D03*
Y343502D03*
X611030Y339712D03*
Y343502D03*
X628116Y185602D03*
X631906D03*
X631750Y355890D03*
Y352100D03*
X303000Y385110D03*
Y388900D03*
X590238Y329498D03*
X586448D03*
X638040Y323540D03*
Y319750D03*
X681890Y323544D03*
Y319754D03*
X659406Y355792D03*
Y352002D03*
X675591Y323544D03*
Y319754D03*
X644106Y323392D03*
Y319602D03*
X601389Y329621D03*
Y333411D03*
X675006Y355792D03*
Y352002D03*
X603300Y95490D03*
Y91700D03*
X303000Y379290D03*
Y375500D03*
X587106Y99112D03*
Y102902D03*
X642456Y93112D03*
Y96902D03*
X640079Y33465D03*
X636289D03*
X303090Y360000D03*
X299300D03*
X166166Y276432D03*
X162376D03*
X155426Y288522D03*
Y284732D03*
X303000Y350010D03*
Y353800D03*
X170600Y288395D03*
Y284605D03*
X303000Y344190D03*
Y340400D03*
X399516Y151102D03*
X403306D03*
X405606Y133612D03*
Y137402D03*
X348000Y385110D03*
Y388900D03*
X346346Y145082D03*
X350136D03*
X363696Y145402D03*
X359906D03*
X348000Y379290D03*
Y375500D03*
X367296Y138802D03*
X363506D03*
X307206Y135292D03*
Y131502D03*
X348000Y353790D03*
Y350000D03*
Y344190D03*
Y340400D03*
X181896Y122602D03*
X178106D03*
X646610Y272000D03*
X650400D03*
X198000Y84110D03*
Y87900D03*
X298416Y139602D03*
X302206D03*
X302196Y143602D03*
X298406D03*
X328296Y89302D03*
X324506D03*
X328296Y94102D03*
X324506D03*
X440966Y106852D03*
X444756D03*
X403200Y385110D03*
Y388900D03*
X422250Y153390D03*
Y149600D03*
X403200Y379290D03*
Y375500D03*
X402390Y360000D03*
X398600D03*
X87250Y217140D03*
Y213350D03*
X136296Y219802D03*
X132506D03*
X127506Y219712D03*
Y223502D03*
X403200Y350010D03*
Y353800D03*
X136296Y224602D03*
X132506D03*
X142100Y224610D03*
Y228400D03*
X332610Y27250D03*
X336400D03*
X350000Y26890D03*
Y23100D03*
X403200Y344190D03*
Y340400D03*
X305000Y28390D03*
Y24600D03*
X294750Y37110D03*
Y40900D03*
X389890Y23750D03*
X386100D03*
X370110Y31500D03*
X373900D03*
X448200Y385110D03*
Y388900D03*
Y379290D03*
Y375500D03*
X88500Y26610D03*
Y30400D03*
X67000Y49290D03*
Y45500D03*
X87184Y43254D03*
X90974D03*
X69870Y15950D03*
X66080D03*
X448200Y353790D03*
Y350000D03*
X149999Y92677D03*
Y88887D03*
X181020Y111130D03*
X177230D03*
X161700Y91890D03*
Y88100D03*
X143106Y109312D03*
Y113102D03*
X448200Y344190D03*
Y340400D03*
X639685Y308452D03*
X643475D03*
X660381Y284132D03*
X664171D03*
X463400Y134290D03*
Y130500D03*
X468000Y134290D03*
Y130500D03*
X277116Y138502D03*
X280906D03*
X261306Y111892D03*
Y108102D03*
X261605Y101692D03*
Y97902D03*
X140000Y122610D03*
Y126400D03*
X143700Y178890D03*
Y175100D03*
X469750Y108610D03*
Y112400D03*
X452400Y166890D03*
Y163100D03*
X232504Y356709D03*
X228714D03*
X213213Y377575D03*
X209423D03*
X452700Y385110D03*
Y388900D03*
Y379290D03*
Y375500D03*
X452490Y360000D03*
X448700D03*
X476750Y196640D03*
Y192850D03*
X452700Y350010D03*
Y353800D03*
Y344190D03*
Y340400D03*
X498300Y385110D03*
Y388900D03*
Y379290D03*
Y375500D03*
Y353790D03*
Y350000D03*
Y344190D03*
Y340400D03*
X352800Y385110D03*
Y388900D03*
Y379290D03*
Y375500D03*
X352290Y360000D03*
X348500D03*
X268413Y238354D03*
Y242144D03*
X352800Y350010D03*
Y353800D03*
Y344190D03*
Y340400D03*
X398400Y385110D03*
Y388900D03*
Y379290D03*
Y375500D03*
Y353790D03*
Y350000D03*
Y344190D03*
Y340400D03*
X268130Y191874D03*
Y188084D03*
X460896Y273202D03*
X457106D03*
X187354Y324456D03*
Y328246D03*
X460896Y268702D03*
X457106D03*
X191354Y324456D03*
Y328246D03*
X460896Y237202D03*
X457106D03*
X89640Y235500D03*
X85850D03*
X460896Y241702D03*
X457106D03*
X598169Y91634D03*
Y95424D03*
X350196Y155302D03*
X346406D03*
X302406Y131512D03*
Y135302D03*
X437706Y173212D03*
Y177002D03*
X245890Y280500D03*
X242100D03*
X238095Y366079D03*
Y362289D03*
X232504Y361433D03*
X228714D03*
X213213Y368126D03*
X209423D03*
X204630Y383796D03*
Y380006D03*
X213213Y372850D03*
X209423D03*
X310290Y226800D03*
X306500D03*
X310290Y231000D03*
X306500D03*
X433505Y173212D03*
Y177002D03*
X629573Y280231D03*
Y284021D03*
X624045Y304405D03*
Y300615D03*
X418206Y173212D03*
Y177002D03*
X633860Y305024D03*
X630070D03*
X608479Y301103D03*
X612269D03*
X219050Y310490D03*
Y306700D03*
X423306Y176992D03*
Y173202D03*
X206500Y297640D03*
Y293850D03*
X195750Y306610D03*
Y310400D03*
X192250Y298110D03*
Y301900D03*
X198600Y345910D03*
Y349700D03*
X200428Y306561D03*
Y310351D03*
X189330Y346756D03*
Y350546D03*
X194000Y346710D03*
Y350500D03*
X551000Y323110D03*
Y326900D03*
X607500Y381261D03*
Y377471D03*
X66250Y394140D03*
Y390350D03*
X50250Y377390D03*
Y373600D03*
X51750Y394140D03*
Y390350D03*
X61500Y394140D03*
Y390350D03*
X242496Y91084D03*
X238706D03*
X232806Y92512D03*
Y96302D03*
X483006Y234112D03*
Y237902D03*
X483016Y243202D03*
X486806D03*
X483706Y271912D03*
Y275702D03*
X498196Y275602D03*
X494406D03*
X545106Y296092D03*
Y292302D03*
X547506Y262492D03*
Y258702D03*
X552906Y260812D03*
Y264602D03*
X201006Y173512D03*
Y177302D03*
X222905Y223192D03*
Y219402D03*
X197732Y230842D03*
Y234632D03*
X202850Y230842D03*
Y234632D03*
X216306Y259792D03*
Y256002D03*
X221045Y259819D03*
Y256029D03*
X221016Y177726D03*
X224806D03*
X205730Y177292D03*
Y173502D03*
X211506Y259792D03*
Y256002D03*
X218181Y223192D03*
Y219402D03*
X221016Y182450D03*
X224806D03*
X224796Y187175D03*
X221006D03*
X218199Y203095D03*
Y199305D03*
X202850Y243284D03*
Y239494D03*
X197732Y243284D03*
Y239494D03*
X210454Y177292D03*
Y173502D03*
X224796Y173002D03*
X221006D03*
X226090Y198276D03*
X222300D03*
X219816Y193553D03*
X223606D03*
X650185Y95717D03*
X653975D03*
X594296Y208326D03*
X590506D03*
X653890Y107250D03*
X650100D03*
X654080Y132020D03*
Y128230D03*
X594810Y232220D03*
X591020D03*
X578516Y227426D03*
X582306D03*
X567516Y221302D03*
X571306D03*
X608963Y216827D03*
X605173D03*
X578516Y217977D03*
X582306D03*
X621230Y236860D03*
X617440D03*
X578516Y213253D03*
X582306D03*
X617706Y181312D03*
Y185102D03*
X602988Y188114D03*
Y184324D03*
X608616Y181402D03*
X612406D03*
X591932Y174209D03*
X588142D03*
X603764Y169551D03*
Y165761D03*
X600883Y174244D03*
X597093D03*
X622206Y179392D03*
Y175602D03*
X665039Y188189D03*
X668829D03*
X665039Y192913D03*
X668829D03*
X665039Y197638D03*
X668829D03*
X665039Y202362D03*
X668829D03*
X665016Y220477D03*
X668806D03*
X665016Y225202D03*
X668806D03*
X597000Y355390D03*
Y351600D03*
X601724Y355390D03*
Y351600D03*
X634770Y339712D03*
Y343502D03*
X627081Y323392D03*
Y319602D03*
X631806Y323392D03*
Y319602D03*
X622206Y170392D03*
Y166602D03*
X630046Y339712D03*
Y343502D03*
X622206Y157312D03*
Y161102D03*
X625321Y339712D03*
Y343502D03*
X646581Y339712D03*
Y343502D03*
X628806Y157312D03*
Y161102D03*
X651306Y339712D03*
Y343502D03*
X669260Y340402D03*
X665470D03*
X669560Y346402D03*
X665770D03*
X601581Y343492D03*
Y339702D03*
X627026Y352110D03*
Y355900D03*
X664506Y352012D03*
Y355802D03*
X596706Y333292D03*
Y329502D03*
X680106Y352012D03*
Y355802D03*
X669854Y352047D03*
Y355837D03*
X602890Y123930D03*
X599100D03*
X594311Y91555D03*
X598101D03*
X602894Y123917D03*
Y127707D03*
X608106Y123862D03*
Y127652D03*
X608406Y91634D03*
Y95424D03*
X613130Y123917D03*
Y127707D03*
X628091Y123917D03*
Y127707D03*
X636299Y37520D03*
X640089D03*
X636299Y41850D03*
X640089D03*
X640079Y46575D03*
X636289D03*
X465396Y202102D03*
X461606D03*
X150476Y284742D03*
Y288532D03*
X151226Y339222D03*
Y335432D03*
X255906Y180112D03*
Y183902D03*
X161726Y335442D03*
Y339232D03*
X156604Y335357D03*
Y339147D03*
X359916Y150502D03*
X363706D03*
X385296Y143902D03*
X381506D03*
X236106Y187912D03*
Y191702D03*
X376296Y138802D03*
X372506D03*
X362616Y115102D03*
X366406D03*
X376296Y143902D03*
X372506D03*
X279156Y245842D03*
Y242052D03*
X207724Y87890D03*
Y84100D03*
X307306Y139712D03*
Y143502D03*
X193000Y84110D03*
Y87900D03*
X203000Y84110D03*
Y87900D03*
X188000Y84110D03*
Y87900D03*
X251706Y180112D03*
Y183902D03*
X333306Y93592D03*
Y89802D03*
X385296Y138802D03*
X381506D03*
X126516Y233752D03*
X130306D03*
X126516Y238552D03*
X130306D03*
X142116Y233902D03*
X145906D03*
X142116Y252502D03*
X145906D03*
X142116Y248002D03*
X145906D03*
X142116Y238402D03*
X145906D03*
X158016Y252802D03*
X161806D03*
X158016Y248002D03*
X161806D03*
X136206Y193192D03*
Y189402D03*
X128200Y178890D03*
Y175100D03*
X118200Y178890D03*
Y175100D03*
X80390Y210000D03*
X76600D03*
X123200Y178890D03*
Y175100D03*
X113100Y178890D03*
Y175100D03*
X284206Y175912D03*
Y179702D03*
X71900Y49390D03*
Y45600D03*
X100640Y100000D03*
X96850D03*
X100640Y105000D03*
X96850D03*
X62200Y49290D03*
Y45500D03*
X181020Y106406D03*
X177230D03*
X279406Y175912D03*
Y179702D03*
X181020Y101681D03*
X177230D03*
X457000Y163110D03*
Y166900D03*
X461600Y163110D03*
Y166900D03*
X274606Y175912D03*
Y179702D03*
X643480Y312971D03*
X639690D03*
X648562Y308335D03*
X652352D03*
X462200Y150510D03*
Y154300D03*
X658000Y294190D03*
Y290400D03*
X269806Y175912D03*
Y179702D03*
X664238Y279229D03*
X660448D03*
X662852Y294192D03*
Y290402D03*
X462200Y143290D03*
Y139500D03*
X491310Y135600D03*
X495100D03*
X240996Y128002D03*
X237206D03*
X277018Y128713D03*
X280808D03*
X240996Y123500D03*
X237206D03*
X280798Y133438D03*
X277008D03*
X260106Y175912D03*
Y179702D03*
X231996Y138202D03*
X228206D03*
X231996Y133102D03*
X228206D03*
X285601Y124068D03*
Y127858D03*
X231996Y143602D03*
X228206D03*
X237215Y138202D03*
X241005D03*
X237215Y133102D03*
X241005D03*
X280798Y123989D03*
X277008D03*
X237215Y143602D03*
X241005D03*
X133500Y122610D03*
Y126400D03*
X138500Y178890D03*
Y175100D03*
X264906Y175912D03*
Y179702D03*
X150006Y178792D03*
Y175002D03*
X475110Y114400D03*
X478900D03*
X241206Y180112D03*
Y183902D03*
X460896Y208102D03*
X457106D03*
X460896Y212802D03*
X457106D03*
X645000Y381261D03*
Y377471D03*
X555216Y306502D03*
X559006D03*
X559206Y315892D03*
Y312102D03*
X558996Y301102D03*
X555206D03*
X632500Y381260D03*
Y377470D03*
X619806Y381261D03*
Y377471D03*
X253500Y317390D03*
Y313600D03*
X299310Y371100D03*
X303100D03*
X398610Y370800D03*
X402400D03*
X307116Y258802D03*
X310906D03*
X307116Y253802D03*
X310906D03*
X245890Y315500D03*
X242100D03*
X245890Y320500D03*
X242100D03*
X245890Y300500D03*
X242100D03*
X245890Y325500D03*
X242100D03*
X245890Y335500D03*
X242100D03*
X245890Y330500D03*
X242100D03*
X428406Y173212D03*
Y177002D03*
X245890Y340750D03*
X242100D03*
X245890Y310500D03*
X242100D03*
X245890Y305500D03*
X242100D03*
X245890Y285500D03*
X242100D03*
X245890Y290500D03*
X242100D03*
X245890Y295500D03*
X242100D03*
X448410Y370500D03*
X452200D03*
X348810Y370800D03*
X352600D03*
X154800Y230310D03*
Y234100D03*
X161190Y136630D03*
Y132840D03*
X147006Y154312D03*
Y158102D03*
X133500Y178890D03*
Y175100D03*
X174516Y134902D03*
X178306D03*
X178206Y158392D03*
Y154602D03*
X80406Y266512D03*
Y270302D03*
X96156Y266512D03*
Y270302D03*
X118956Y266610D03*
Y270400D03*
X127656Y266512D03*
Y270302D03*
X371796Y173602D03*
X368006D03*
X455000Y154090D03*
Y150300D03*
X449290Y150400D03*
X445500D03*
X441090D03*
X437300D03*
X246906Y180112D03*
Y183902D03*
X174516Y140002D03*
X178306D03*
X22610Y349500D03*
X26400D03*
X61070Y279330D03*
Y275540D03*
X140430Y323540D03*
X136640D03*
X140390Y289000D03*
X136600D03*
X140430Y319440D03*
X136640D03*
X140390Y293000D03*
X136600D03*
X140430Y315040D03*
X136640D03*
X140430Y302790D03*
X136640D03*
X140430Y311040D03*
X136640D03*
X140430Y306790D03*
X136640D03*
X91500Y292610D03*
Y296400D03*
X98370Y352210D03*
X102160D03*
X201905Y259792D03*
Y256002D03*
X206706Y259792D03*
Y256002D03*
X545890Y141400D03*
X542100D03*
X618600Y91410D03*
Y95200D03*
X613500Y91410D03*
Y95200D03*
X461490Y158600D03*
X457700D03*
X445510Y155000D03*
X449300D03*
X437310D03*
X441100D03*
X436400Y167290D03*
Y163500D03*
X381510Y153600D03*
X385300D03*
X381510Y148800D03*
X385300D03*
X186510Y251400D03*
X190300D03*
X186510Y246000D03*
X190300D03*
X652500Y230610D03*
Y234400D03*
X647500Y230610D03*
Y234400D03*
X642500Y230610D03*
Y234400D03*
X637500Y230610D03*
Y234400D03*
X100640Y110250D03*
X96850D03*
X47600Y167890D03*
Y164100D03*
X71000Y394140D03*
Y390350D03*
X465640Y60250D03*
X461850D03*
X233610Y59750D03*
X237400D03*
X17000Y57110D03*
Y60900D03*
X72390Y240800D03*
X68600D03*
X241140Y149750D03*
X237350D03*
X241140Y154500D03*
X237350D03*
X250110Y151750D03*
X253900D03*
X262140D03*
X258350D03*
X268360Y153750D03*
X272150D03*
X277110Y148750D03*
X280900D03*
X228110Y149750D03*
X231900D03*
X228110Y154500D03*
X231900D03*
X245500Y155140D03*
Y151350D03*
X258360Y156500D03*
X262150D03*
X280890Y153750D03*
X277100D03*
X280890Y144250D03*
X277100D03*
X129000Y126390D03*
Y122600D03*
X42800Y167890D03*
Y164100D03*
X95140Y172750D03*
X91350D03*
X86140D03*
X82350D03*
X86140Y179500D03*
X82350D03*
X95140D03*
X91350D03*
X86140Y184750D03*
X82350D03*
X95140D03*
X91350D03*
X434560Y60150D03*
X438350D03*
X265290Y59700D03*
X261500D03*
X438290Y55400D03*
X434500D03*
G54D43*
X281323Y15453D03*
X418724D03*
G54D51*
X322640Y27250D03*
X318850D03*
X635140Y142500D03*
X631350D03*
X335100Y46810D03*
Y50600D03*
X329500Y46860D03*
Y50650D03*
X324500Y46860D03*
Y50650D03*
X319500Y46860D03*
Y50650D03*
G54D105*
X196500Y104500D03*
G54D51*
X603360Y272000D03*
X607150D03*
X290000Y13890D03*
Y10100D03*
X300000Y13890D03*
Y10100D03*
X108000Y175110D03*
Y178900D03*
X603360Y266500D03*
X607150D03*
X638890Y137000D03*
X635100D03*
X111900Y222210D03*
Y226000D03*
X85250Y266512D03*
Y270302D03*
X101000Y266360D03*
Y270150D03*
X114000Y266610D03*
Y270400D03*
X132500Y266512D03*
Y270302D03*
X190390Y258750D03*
X186600D03*
X39000Y59890D03*
Y56100D03*
X10600Y37910D03*
Y41700D03*
X10500Y21890D03*
Y18100D03*
Y27110D03*
Y30900D03*
X50990Y44200D03*
X47200D03*
X50990Y39600D03*
X47200D03*
X55610D03*
X59400D03*
X55700Y44710D03*
Y48500D03*
X47210Y49200D03*
X51000D03*
X11000Y57110D03*
Y60900D03*
X50890Y30500D03*
X47100D03*
X50890Y26250D03*
X47100D03*
X50890Y21000D03*
X47100D03*
X50890Y16000D03*
X47100D03*
X36610Y10500D03*
X40400D03*
X48390D03*
X44600D03*
G54D15*
X111621Y246052D03*
X111696Y250425D03*
G54D51*
X20020Y228010D03*
Y224220D03*
G54D126*
X588021Y191166D03*
X686446D03*
G54D120*
X196265Y325450D03*
Y328403D03*
Y331356D03*
X199218Y325450D03*
Y328403D03*
Y331356D03*
X202171Y325450D03*
Y328403D03*
Y331356D03*
X205124Y325450D03*
Y328403D03*
Y331356D03*
X208076Y325450D03*
Y328403D03*
Y331356D03*
X211029Y325450D03*
Y328403D03*
Y331356D03*
X213982Y325450D03*
Y328403D03*
Y331356D03*
G54D129*
X28040Y205030D03*
G54D130*
Y182195D03*
X41032Y205030D03*
Y182195D03*
G54D131*
X21938Y193613D03*
G54D134*
X21550Y362251D03*
X687402Y12993D03*
X656693Y375592D03*
G54D12*
X0Y4000D02*
G01Y411000D01*
X4000Y415000*
X118000*
X122000Y411000*
Y374000*
X126000Y370000*
X178000*
X182000Y374000*
Y411000*
X186000Y415000*
X514000*
X518000Y411000*
Y374000*
X522000Y370000*
X574000*
X578000Y374000*
Y411000*
X582000Y415000*
X696000*
X700000Y411000*
Y4000*
X696000Y0*
X4000*
X0Y4000*
G54D13*
X2000Y0D02*
G01X-4000D01*
X0Y2000D02*
G01Y-4000D01*
G54D11*
X235480Y-77323D02*
G01X340598D01*
G54D15*
X340775Y-27066D02*
G01Y-99066D01*
X-7469*
Y-27066*
X340775*
G54D11*
X235531Y-63766D02*
G01X340775D01*
X2775Y-11766D02*
G75*
G03X2775Y-11766I-12500D01*
X-29725D02*
G01X10275D01*
X-9725Y8234D02*
G01Y-31766D01*
G54D15*
X-6725Y-11766D02*
G03X-6725Y-11766I-3000D01*
G54D16*
X-1663D02*
G03X-1663Y-11766I-8062D01*
G54D11*
X62775Y-27266D02*
G01Y-99066D01*
X13275Y-98974D02*
G01X57775D01*
X235531Y-26766D02*
G01Y-99066D01*
X278531Y-63701D02*
G01Y-77323D01*
X63031Y-77353D02*
G01X235086D01*
G54D12*
X42491Y-48674D02*
G01Y-51234D01*
X49211*
X48251Y-53794*
X43451*
Y-70114*
X47611*
X45371Y-72034*
X42171Y-73954*
X44091Y-76194*
X47621Y-73954*
X50171Y-71394*
X48571Y-70114*
X57531*
Y-53794*
X51131*
X52091Y-51234*
X58811*
Y-48674*
X42491*
X53691Y-70754D02*
G01X52091Y-72674D01*
X57531Y-76194*
X59131Y-73954*
X56631Y-72394*
X53691Y-70754*
X46331Y-56354D02*
G01X54651D01*
Y-58274*
X46331*
Y-56354*
Y-60834D02*
G01X54651D01*
Y-62754*
X46331*
Y-60834*
Y-65314D02*
G01X54651D01*
Y-67554*
X46331*
Y-65314*
X42851Y-49424D02*
G01X58421D01*
X58511Y-50224D02*
G01X42911D01*
X49241Y-50934D02*
G01X51871D01*
X42781Y-50744D02*
G01X58591D01*
X49451Y-51644D02*
G01X51571D01*
X49141Y-52394D02*
G01X51301D01*
X48861Y-53124D02*
G01X51091D01*
X48371Y-53894D02*
G01X51111D01*
X43841Y-54524D02*
G01X57121D01*
X43841Y-55264D02*
G01X57141D01*
X43781Y-55944D02*
G01X57241D01*
X43871Y-56684D02*
G01X45961D01*
X43821Y-57334D02*
G01X45971D01*
X43771Y-58064D02*
G01X46021D01*
X43741Y-58814D02*
G01X57271D01*
X54961Y-56654D02*
G01X57211D01*
X55041Y-57384D02*
G01X57201D01*
X54971Y-58094D02*
G01X57231D01*
X43821Y-59514D02*
G01X57241D01*
X43841Y-60194D02*
G01X57141D01*
X43811Y-60924D02*
G01X45991D01*
X43801Y-61634D02*
G01X45971D01*
Y-61644*
X43711Y-62354D02*
G01X46021D01*
X43671Y-63244D02*
G01X57311D01*
X55031Y-60874D02*
G01X57141D01*
X55031Y-61504D02*
G01X57191D01*
X55011Y-62174D02*
G01X57171D01*
X54971Y-62714D02*
G01X57151D01*
X43761Y-63954D02*
G01X57141D01*
X43801Y-64714D02*
G01X57171D01*
X43851Y-65384D02*
G01X45941D01*
X45991Y-66114D02*
G01X43791D01*
X43841Y-66844D02*
G01X46031D01*
Y-67574D02*
G01X43731D01*
X55061Y-65464D02*
G01X57151D01*
X55011Y-66224D02*
G01X57261D01*
X54981Y-66924D02*
G01X57271D01*
X54931Y-67564D02*
G01X57181D01*
X43791Y-68154D02*
G01X57181D01*
X43841Y-68814D02*
G01X57171D01*
X57191Y-69484D02*
G01X43781D01*
X47521Y-70544D02*
G01X48571D01*
X46961Y-71164D02*
G01X49191D01*
X46211Y-71834D02*
G01X49201D01*
X48511Y-72604D02*
G01X45101D01*
X47791Y-73344D02*
G01X44061D01*
X46791Y-74094D02*
G01X42901D01*
X45581Y-74914D02*
G01X43421D01*
X44511Y-75494D02*
G01X43961D01*
X53461Y-71564D02*
G01X54291D01*
X52941Y-72204D02*
G01X55471D01*
X53021Y-72814D02*
G01X56581D01*
X54081Y-73494D02*
G01X57591D01*
X55041Y-74174D02*
G01X58481D01*
X56211Y-74924D02*
G01X57981D01*
X57101Y-75484D02*
G01X57711D01*
X10291Y-47914D02*
G01X4531Y-49194D01*
X-2189Y-49834*
X-909Y-52394*
X1341*
X3891Y-52074*
Y-55594*
X-2509*
Y-58474*
X3571*
X2291Y-61034*
X691Y-63274*
X-899Y-65824*
X-3149Y-68074*
X-1869Y-70634*
X1011Y-67434*
X3891Y-62954*
Y-76074*
X6771*
Y-62634*
X9011Y-64554*
X10931Y-67114*
X12531Y-64554*
X6771Y-59434*
Y-58474*
X11891*
Y-55594*
X6771*
Y-51754*
X9561Y-51134*
X11891Y-50474*
X10291Y-47914*
X16051Y-70634D02*
G01Y-53994D01*
X21491*
Y-70634*
X16051*
X13171Y-76074D02*
G01Y-51114D01*
X24371*
Y-76074*
X21491*
Y-73514*
X16051*
Y-76074*
X13171*
X30971Y-48994D02*
G01Y-51874D01*
X35131*
X34491Y-55074*
X33531Y-57954*
X32251Y-60194*
X30651Y-62434*
X31931Y-65314*
X33211Y-63714*
Y-75234*
X36091*
Y-72994*
X38651*
Y-74594*
X41211*
Y-58274*
X36091*
X37051Y-55394*
X38011Y-51874*
X41531*
Y-48994*
X30971*
X36091Y-70434D02*
G01Y-60834D01*
X38651*
Y-70434*
X36091*
X-1179Y-49924D02*
G01Y-51094D01*
X-639Y-52054D02*
G01Y-50024D01*
X41Y-52054D02*
G01Y-49964D01*
X681Y-52074D02*
G01Y-49864D01*
X1291Y-52054D02*
G01Y-49804D01*
X1971Y-51994D02*
G01Y-49804D01*
X2651Y-51894D02*
G01Y-49754D01*
X3361Y-51774D02*
G01Y-49644D01*
X3961Y-51794D02*
G01Y-49604D01*
X4491Y-49534D02*
G01Y-75694D01*
X5091Y-75814D02*
G01Y-49514D01*
X5731Y-49254D02*
G01Y-75814D01*
X6251Y-75864D02*
G01Y-49114D01*
X6981Y-49074D02*
G01Y-51314D01*
X7661Y-48884D02*
G01Y-51234D01*
X8441Y-48704D02*
G01Y-51034D01*
X9241Y-48544D02*
G01Y-50834D01*
X9951Y-48374D02*
G01Y-50674D01*
X10701Y-49154D02*
G01Y-50514D01*
X-1729Y-55954D02*
G01Y-58114D01*
X-1019Y-58034D02*
G01Y-56024D01*
X-229Y-55994D02*
G01Y-58094D01*
X471Y-58074D02*
G01Y-56004D01*
X1161Y-58074D02*
G01Y-55994D01*
X1861Y-58134D02*
G01Y-55984D01*
X2601Y-58124D02*
G01Y-55964D01*
X3351Y-58134D02*
G01Y-55964D01*
X3941Y-55794D02*
G01Y-62654D01*
X3301Y-59944D02*
G01Y-63114D01*
X2781Y-64044D02*
G01Y-60974D01*
X2081Y-61964D02*
G01Y-65064D01*
X1271Y-63134D02*
G01Y-66294D01*
X561Y-64224D02*
G01Y-67414D01*
X-189Y-65424D02*
G01Y-68234D01*
X-949Y-66434D02*
G01Y-69194D01*
X-1719Y-67054D02*
G01Y-69924D01*
X-2349Y-67754D02*
G01Y-68974D01*
X7011Y-58134D02*
G01Y-55974D01*
X7821Y-58104D02*
G01Y-55974D01*
X8681Y-58114D02*
G01Y-55964D01*
X9531Y-58114D02*
G01Y-55974D01*
X10331Y-58124D02*
G01Y-55934D01*
X11111Y-58154D02*
G01Y-55944D01*
X6911Y-60014D02*
G01Y-62334D01*
X7651Y-60724D02*
G01Y-62854D01*
X8351Y-61264D02*
G01Y-63554D01*
X9051Y-61944D02*
G01Y-64124D01*
X9701Y-62494D02*
G01Y-64804D01*
X10351Y-62984D02*
G01Y-65784D01*
X11041Y-63624D02*
G01Y-66354D01*
X11691Y-64244D02*
G01Y-65374D01*
X13861Y-51494D02*
G01Y-75794D01*
X14601Y-75704D02*
G01Y-51514D01*
X15321Y-51464D02*
G01Y-75804D01*
X16051Y-70934D02*
G01Y-73194D01*
X16761D02*
G01Y-70904D01*
X17511Y-71004D02*
G01Y-73224D01*
X18291Y-73184D02*
G01Y-70974D01*
X19161D02*
G01Y-73254D01*
X19891Y-73144D02*
G01Y-70984D01*
X20611Y-73184D02*
G01Y-70984D01*
X21381Y-73254D02*
G01Y-70874D01*
X15731Y-51824D02*
G01X24121D01*
X15661Y-52524D02*
G01X24011D01*
X15611Y-53194D02*
G01X24121D01*
X22091Y-53514D02*
G01Y-75804D01*
X22901Y-53334D02*
G01Y-75764D01*
X23621Y-75704D02*
G01Y-53424D01*
X31291Y-49774D02*
G01X41211D01*
X41151Y-50524D02*
G01X31391D01*
X31351Y-51224D02*
G01X41151D01*
X35491Y-51904D02*
G01X37571D01*
X37481Y-52664D02*
G01X35361D01*
X35191Y-53404D02*
G01X37261D01*
X35051Y-54154D02*
G01X37011D01*
X34911Y-54814D02*
G01X36811D01*
X36591Y-55544D02*
G01X34721D01*
X34501Y-56254D02*
G01X36401D01*
X36161Y-56924D02*
G01X34251D01*
X34041Y-57584D02*
G01X36041D01*
X33761Y-58204D02*
G01X35731D01*
X33411Y-58854D02*
G01X40861D01*
X40831Y-59494D02*
G01X33101D01*
X32691Y-60154D02*
G01X40871D01*
X32111Y-60954D02*
G01X35711D01*
X35701Y-61904D02*
G01X31521D01*
X31101Y-62674D02*
G01X35811D01*
X31471Y-63424D02*
G01X35681D01*
X31731Y-64114D02*
G01X32381D01*
X33891Y-63854D02*
G01Y-74824D01*
X34581Y-74834D02*
G01Y-63814D01*
X35261Y-63844D02*
G01Y-74854D01*
X35331*
X35991Y-70734D02*
G01Y-72724D01*
X36731Y-70794D02*
G01Y-72694D01*
X37401Y-72684D02*
G01Y-70814D01*
X38081D02*
G01Y-72704D01*
X38791Y-72784D02*
G01Y-70644D01*
X38811*
X39271Y-74254D02*
G01Y-60224D01*
X39961Y-60504D02*
G01Y-74264D01*
X40601Y-74324D02*
G01Y-60434D01*
X-3469Y-81074D02*
G01X59531D01*
Y-83074*
X-3469*
Y-81074*
X-2969Y-81574D02*
G01X59031D01*
Y-82574*
X-2969*
Y-81574*
Y-82074D02*
G01X58531D01*
Y-83074*
X-2969*
Y-82074*
G54D17*
X305648Y-67129D02*
G01X304966Y-67442D01*
X304739Y-68067*
Y-68692*
X304966Y-69317*
X305420Y-69629*
X306330Y-69942*
X307011Y-70254*
X307466Y-70879*
X307693Y-71504*
Y-72442*
X307466Y-73067*
X307239Y-73379*
X306557Y-73692*
X305648*
X304966Y-73379*
X304739Y-73067*
X304511Y-72442*
Y-71504*
X304739Y-70879*
X305193Y-70254*
X305875Y-69942*
X306784Y-69629*
X307239Y-69317*
X307466Y-68692*
Y-68067*
X307239Y-67442*
X306557Y-67129*
X305648*
G54D12*
X253947Y-43908D02*
G01Y-43440D01*
X254288Y-42502*
X254629Y-42033*
X255310Y-41565*
X256674*
X257356Y-42033*
X257697Y-42502*
X258038Y-43440*
Y-44377*
X257697Y-45315*
X257015Y-46721*
X253606Y-51408*
X258379*
X263492Y-41565D02*
G01X262469Y-42033D01*
X261788Y-43440*
X261447Y-45783*
Y-47190*
X261788Y-49533*
X262469Y-50940*
X263492Y-51408*
X264174*
X265197Y-50940*
X265879Y-49533*
X266219Y-47190*
Y-45783*
X265879Y-43440*
X265197Y-42033*
X264174Y-41565*
X263492*
X269288Y-43440D02*
G01X269969Y-42971D01*
X270992Y-41565*
Y-51408*
X275765Y-41565D02*
G01X274742Y-42033D01*
X274401Y-42971*
Y-43908*
X274742Y-44846*
X275424Y-45315*
X276788Y-45783*
X277810Y-46252*
X278492Y-47190*
X278833Y-48127*
Y-49533*
X278492Y-50471*
X278151Y-50940*
X277129Y-51408*
X275765*
X274742Y-50940*
X274401Y-50471*
X274060Y-49533*
Y-48127*
X274401Y-47190*
X275083Y-46252*
X276106Y-45783*
X277469Y-45315*
X278151Y-44846*
X278492Y-43908*
Y-42971*
X278151Y-42033*
X277129Y-41565*
X275765*
X281901Y-47190D02*
G01X288038D01*
X293151Y-41565D02*
G01X292129Y-42033D01*
X291447Y-43440*
X291106Y-45783*
Y-47190*
X291447Y-49533*
X292129Y-50940*
X293151Y-51408*
X293833*
X294856Y-50940*
X295538Y-49533*
X295879Y-47190*
Y-45783*
X295538Y-43440*
X294856Y-42033*
X293833Y-41565*
X293151*
X303719D02*
G01X300310Y-51408D01*
X298947Y-41565D02*
G01X303719D01*
X306788Y-47190D02*
G01X312924D01*
X316333Y-43908D02*
G01Y-43440D01*
X316674Y-42502*
X317015Y-42033*
X317697Y-41565*
X319060*
X319742Y-42033*
X320083Y-42502*
X320424Y-43440*
Y-44377*
X320083Y-45315*
X319401Y-46721*
X315992Y-51408*
X320765*
X327242Y-41565D02*
G01X323833Y-48127D01*
X328947*
X327242Y-41565D02*
G01Y-51408D01*
G54D11*
X244314Y-67602D02*
G01Y-74164D01*
X247042*
X250905Y-67602D02*
G01X249087Y-74164D01*
X250905Y-67602D02*
G01X252724Y-74164D01*
X249769Y-71977D02*
G01X252042D01*
X254769Y-67602D02*
G01X256587Y-70727D01*
Y-74164*
X258405Y-67602D02*
G01X256587Y-70727D01*
X260451Y-67602D02*
G01Y-74164D01*
Y-67602D02*
G01X263405D01*
X260451Y-70727D02*
G01X262269D01*
X260451Y-74164D02*
G01X263405D01*
X265451Y-67602D02*
G01Y-74164D01*
Y-67602D02*
G01X267496D01*
X268178Y-67914*
X268405Y-68227*
X268633Y-68852*
Y-69477*
X268405Y-70102*
X268178Y-70414*
X267496Y-70727*
X265451*
X267042D02*
G01X268633Y-74164D01*
G54D12*
X129782Y-83014D02*
G01Y-92858D01*
Y-83014D02*
G01X132509Y-92858D01*
X135236Y-83014D02*
G01X132509Y-92858D01*
X135236Y-83014D02*
G01Y-92858D01*
X141032Y-83014D02*
G01X138304Y-92858D01*
X141032Y-83014D02*
G01X143759Y-92858D01*
X139327Y-89577D02*
G01X142736D01*
X151600Y-84421D02*
G01X150918Y-83483D01*
X149895Y-83014*
X148532*
X147509Y-83483*
X146827Y-84421*
Y-85358*
X147168Y-86296*
X147509Y-86764*
X148191Y-87233*
X150236Y-88171*
X150918Y-88639*
X151259Y-89108*
X151600Y-90046*
Y-91452*
X150918Y-92389*
X149895Y-92858*
X148532*
X147509Y-92389*
X146827Y-91452*
X154668Y-83014D02*
G01Y-92858D01*
X159441Y-83014D02*
G01X154668Y-89577D01*
X156373Y-87233D02*
G01X159441Y-92858D01*
X162509Y-88639D02*
G01X168645D01*
X174100Y-83014D02*
G01Y-92858D01*
X171714Y-83014D02*
G01X176486D01*
X181600D02*
G01X180918Y-83483D01*
X180236Y-84421*
X179895Y-85358*
X179554Y-86764*
Y-89108*
X179895Y-90514*
X180236Y-91452*
X180918Y-92389*
X181600Y-92858*
X182964*
X183645Y-92389*
X184327Y-91452*
X184668Y-90514*
X185009Y-89108*
Y-86764*
X184668Y-85358*
X184327Y-84421*
X183645Y-83483*
X182964Y-83014*
X181600*
X188077D02*
G01Y-92858D01*
Y-83014D02*
G01X191145D01*
X192168Y-83483*
X192509Y-83952*
X192850Y-84889*
Y-86296*
X192509Y-87233*
X192168Y-87702*
X191145Y-88171*
X188077*
X71548Y-50937D02*
G01X71025Y-51296D01*
X70503Y-52015*
X70241Y-52734*
X69980Y-53812*
Y-55609*
X70241Y-56687*
X70503Y-57406*
X71025Y-58125*
X71548Y-58484*
X72593*
X73116Y-58125*
X73639Y-57406*
X73900Y-56687*
X74162Y-55609*
Y-53812*
X73900Y-52734*
X73639Y-52015*
X73116Y-51296*
X72593Y-50937*
X71548*
X80434Y-52734D02*
G01X80173Y-52015D01*
X79650Y-51296*
X79128Y-50937*
X78082*
X77559Y-51296*
X77037Y-52015*
X76775Y-52734*
X76514Y-53812*
Y-55609*
X76775Y-56687*
X77037Y-57406*
X77559Y-58125*
X78082Y-58484*
X79128*
X79650Y-58125*
X80173Y-57406*
X80434Y-56687*
X88798Y-50937D02*
G01Y-58484D01*
X91934*
X96116Y-50937D02*
G01Y-58484D01*
X94287Y-50937D02*
G01X97946D01*
X100298D02*
G01Y-58484D01*
Y-50937D02*
G01X103696D01*
X100298Y-54531D02*
G01X102389D01*
X100298Y-58484D02*
G01X103696D01*
X112059Y-50937D02*
G01Y-58484D01*
Y-50937D02*
G01X114412D01*
X115196Y-51296*
X115457Y-51656*
X115718Y-52375*
Y-53093*
X115457Y-53812*
X115196Y-54171*
X114412Y-54531*
X112059D02*
G01X114412D01*
X115196Y-54890*
X115457Y-55250*
X115718Y-55968*
Y-57046*
X115457Y-57765*
X115196Y-58125*
X114412Y-58484*
X112059*
X120162Y-50937D02*
G01X118071Y-58484D01*
X120162Y-50937D02*
G01X122253Y-58484D01*
X118855Y-55968D02*
G01X121468D01*
X128264Y-52015D02*
G01X127741Y-51296D01*
X126957Y-50937*
X125912*
X125127Y-51296*
X124605Y-52015*
Y-52734*
X124866Y-53453*
X125127Y-53812*
X125650Y-54171*
X127218Y-54890*
X127741Y-55250*
X128003Y-55609*
X128264Y-56328*
Y-57406*
X127741Y-58125*
X126957Y-58484*
X125912*
X125127Y-58125*
X124605Y-57406*
X130616Y-50937D02*
G01Y-58484D01*
Y-50937D02*
G01X134014D01*
X130616Y-54531D02*
G01X132707D01*
X130616Y-58484D02*
G01X134014D01*
X136366Y-50937D02*
G01Y-58484D01*
Y-50937D02*
G01X138718D01*
X139503Y-51296*
X139764Y-51656*
X140025Y-52375*
Y-53093*
X139764Y-53812*
X139503Y-54171*
X138718Y-54531*
X136366D02*
G01X138718D01*
X139503Y-54890*
X139764Y-55250*
X140025Y-55968*
Y-57046*
X139764Y-57765*
X139503Y-58125*
X138718Y-58484*
X136366*
X144468Y-50937D02*
G01X142378Y-58484D01*
X144468Y-50937D02*
G01X146559Y-58484D01*
X143162Y-55968D02*
G01X145775D01*
X148912Y-50937D02*
G01Y-58484D01*
Y-50937D02*
G01X152571Y-58484D01*
Y-50937D02*
G01Y-58484D01*
X154923Y-50937D02*
G01Y-58484D01*
Y-50937D02*
G01X156753D01*
X157537Y-51296*
X158059Y-52015*
X158321Y-52734*
X158582Y-53812*
Y-55609*
X158321Y-56687*
X158059Y-57406*
X157537Y-58125*
X156753Y-58484*
X154923*
X166946Y-50937D02*
G01Y-58484D01*
Y-50937D02*
G01X169298D01*
X170082Y-51296*
X170343Y-51656*
X170605Y-52375*
Y-53093*
X170343Y-53812*
X170082Y-54171*
X169298Y-54531*
X166946D02*
G01X169298D01*
X170082Y-54890*
X170343Y-55250*
X170605Y-55968*
Y-57046*
X170343Y-57765*
X170082Y-58125*
X169298Y-58484*
X166946*
X174525Y-50937D02*
G01X174003Y-51296D01*
X173480Y-52015*
X173218Y-52734*
X172957Y-53812*
Y-55609*
X173218Y-56687*
X173480Y-57406*
X174003Y-58125*
X174525Y-58484*
X175571*
X176093Y-58125*
X176616Y-57406*
X176878Y-56687*
X177139Y-55609*
Y-53812*
X176878Y-52734*
X176616Y-52015*
X176093Y-51296*
X175571Y-50937*
X174525*
X181582D02*
G01X179491Y-58484D01*
X181582Y-50937D02*
G01X183673Y-58484D01*
X180275Y-55968D02*
G01X182889D01*
X186025Y-50937D02*
G01Y-58484D01*
Y-50937D02*
G01X188378D01*
X189162Y-51296*
X189423Y-51656*
X189684Y-52375*
Y-53093*
X189423Y-53812*
X189162Y-54171*
X188378Y-54531*
X186025*
X187855D02*
G01X189684Y-58484D01*
X192037Y-50937D02*
G01Y-58484D01*
Y-50937D02*
G01X193866D01*
X194650Y-51296*
X195173Y-52015*
X195434Y-52734*
X195696Y-53812*
Y-55609*
X195434Y-56687*
X195173Y-57406*
X194650Y-58125*
X193866Y-58484*
X192037*
X204059Y-50937D02*
G01Y-58484D01*
Y-50937D02*
G01X206412D01*
X207196Y-51296*
X207457Y-51656*
X207718Y-52375*
Y-53093*
X207457Y-53812*
X207196Y-54171*
X206412Y-54531*
X204059*
X205889D02*
G01X207718Y-58484D01*
X210071Y-55609D02*
G01X213207D01*
Y-54890*
X212946Y-54171*
X212684Y-53812*
X212162Y-53453*
X211378*
X210855Y-53812*
X210332Y-54531*
X210071Y-55609*
Y-56328*
X210332Y-57406*
X210855Y-58125*
X211378Y-58484*
X212162*
X212684Y-58125*
X213207Y-57406*
X215559Y-53453D02*
G01X217128Y-58484D01*
X218696Y-53453D02*
G01X217128Y-58484D01*
X230980Y-52734D02*
G01X230718Y-52015D01*
X230196Y-51296*
X229673Y-50937*
X228627*
X228105Y-51296*
X227582Y-52015*
X227321Y-52734*
X227059Y-53812*
Y-55609*
X227321Y-56687*
X227582Y-57406*
X228105Y-58125*
X228627Y-58484*
X229673*
X230196Y-58125*
X230718Y-57406*
X230980Y-56687*
G54D11*
X241849Y-86171D02*
G01Y-92078D01*
X240417Y-86171D02*
G01X243280D01*
X245121D02*
G01Y-92078D01*
Y-86171D02*
G01X247780D01*
X245121Y-88984D02*
G01X246758D01*
X245121Y-92078D02*
G01X247780D01*
X249621Y-86171D02*
G01Y-92078D01*
X252076*
X254121Y-88140D02*
G01X253917Y-88421D01*
X254121Y-88703*
X254326Y-88421*
X254121Y-88140*
Y-91515D02*
G01X253917Y-91796D01*
X254121Y-92078*
X254326Y-91796*
X254121Y-91515*
X257599Y-85046D02*
G01X257190Y-85609D01*
X256780Y-86453*
X256371Y-87578*
X256167Y-88984*
Y-90109*
X256371Y-91515*
X256780Y-92640*
X257190Y-93484*
X257599Y-94046*
X260667Y-86171D02*
G01X260053Y-86453D01*
X259644Y-87296*
X259440Y-88703*
Y-89546*
X259644Y-90953*
X260053Y-91796*
X260667Y-92078*
X261076*
X261690Y-91796*
X262099Y-90953*
X262303Y-89546*
Y-88703*
X262099Y-87296*
X261690Y-86453*
X261076Y-86171*
X260667*
X264553D02*
G01X266803D01*
X265576Y-88421*
X266190*
X266599Y-88703*
X266803Y-88984*
X267008Y-89828*
Y-90390*
X266803Y-91234*
X266394Y-91796*
X265780Y-92078*
X265167*
X264553Y-91796*
X264349Y-91515*
X264144Y-90953*
X268849Y-85046D02*
G01X269258Y-85609D01*
X269667Y-86453*
X270076Y-87578*
X270280Y-88984*
Y-90109*
X270076Y-91515*
X269667Y-92640*
X269258Y-93484*
X268849Y-94046*
X274780Y-86171D02*
G01X272735D01*
X272530Y-88703*
X272735Y-88421*
X273349Y-88140*
X273962*
X274576Y-88421*
X274985Y-88984*
X275190Y-89828*
X274985Y-90390*
X274780Y-91234*
X274371Y-91796*
X273758Y-92078*
X273144*
X272530Y-91796*
X272326Y-91515*
X272121Y-90953*
X279894Y-86171D02*
G01X277849Y-92078D01*
X277030Y-86171D02*
G01X279894D01*
X281940Y-87578D02*
G01Y-87296D01*
X282144Y-86734*
X282349Y-86453*
X282758Y-86171*
X283576*
X283985Y-86453*
X284190Y-86734*
X284394Y-87296*
Y-87859*
X284190Y-88421*
X283780Y-89265*
X281735Y-92078*
X284599*
X286644Y-87578D02*
G01Y-87296D01*
X286849Y-86734*
X287053Y-86453*
X287462Y-86171*
X288280*
X288690Y-86453*
X288894Y-86734*
X289099Y-87296*
Y-87859*
X288894Y-88421*
X288485Y-89265*
X286440Y-92078*
X289303*
X294008Y-86171D02*
G01X291962Y-92078D01*
X291144Y-86171D02*
G01X294008D01*
X295849Y-87296D02*
G01X296258Y-87015D01*
X296871Y-86171*
Y-92078*
X299735Y-86171D02*
G01X299121Y-86453D01*
X298917Y-87015*
Y-87578*
X299121Y-88140*
X299530Y-88421*
X300349Y-88703*
X300962Y-88984*
X301371Y-89546*
X301576Y-90109*
Y-90953*
X301371Y-91515*
X301167Y-91796*
X300553Y-92078*
X299735*
X299121Y-91796*
X298917Y-91515*
X298712Y-90953*
Y-90109*
X298917Y-89546*
X299326Y-88984*
X299940Y-88703*
X300758Y-88421*
X301167Y-88140*
X301371Y-87578*
Y-87015*
X301167Y-86453*
X300553Y-86171*
X299735*
G54D118*
X126483Y297352D02*
G01X124319D01*
X126483Y299321D02*
G01X124319D01*
X126483Y301289D02*
G01X124319D01*
X126483Y303258D02*
G01X124319D01*
X126483Y305226D02*
G01X124319D01*
X126483Y307195D02*
G01X124319D01*
X126483Y309163D02*
G01X124319D01*
X126483Y311132D02*
G01X124319D01*
X126483Y313100D02*
G01X124319D01*
X126483Y315069D02*
G01X124319D01*
X126483Y317037D02*
G01X124319D01*
X126483Y319006D02*
G01X124319D01*
X126483Y320974D02*
G01X124319D01*
X126483Y322943D02*
G01X124319D01*
X126483Y324911D02*
G01X124319D01*
X126483Y326880D02*
G01X124319D01*
X126483Y328848D02*
G01X124319D01*
G54D78*
X121563Y329635D02*
G01Y331801D01*
X119594Y329635D02*
G01Y331801D01*
X117626Y329635D02*
G01Y331801D01*
X115657Y329635D02*
G01Y331801D01*
G54D118*
X112901Y328848D02*
G01X110737D01*
X112901Y326880D02*
G01X110737D01*
X112901Y324911D02*
G01X110737D01*
X112901Y322943D02*
G01X110737D01*
X112901Y320974D02*
G01X110737D01*
X112901Y319006D02*
G01X110737D01*
X112901Y317037D02*
G01X110737D01*
X112901Y315069D02*
G01X110737D01*
X112901Y313100D02*
G01X110737D01*
X112901Y311132D02*
G01X110737D01*
X112901Y309163D02*
G01X110737D01*
X112901Y307195D02*
G01X110737D01*
X112901Y305226D02*
G01X110737D01*
X112901Y303258D02*
G01X110737D01*
X112901Y301289D02*
G01X110737D01*
X112901Y299321D02*
G01X110737D01*
X112901Y297352D02*
G01X110737D01*
G54D78*
X115657Y294399D02*
G01Y296565D01*
X117626Y294399D02*
G01Y296565D01*
X119594Y294399D02*
G01Y296565D01*
X121563Y294399D02*
G01Y296565D01*
G54D119*
X118610Y302274D02*
G01Y323924D01*
G54D90*
X626413Y279417D02*
G01X621689D01*
X626413Y281976D02*
G01X621689D01*
X626413Y284535D02*
G01X621689D01*
X626413Y287095D02*
G01X621689D01*
X626413Y289654D02*
G01X621689D01*
X626413Y292213D02*
G01X621689D01*
X626413Y294772D02*
G01X621689D01*
X626413Y297331D02*
G01X621689D01*
X603579D02*
G01X598854D01*
X603579Y294772D02*
G01X598854D01*
X603579Y292213D02*
G01X598854D01*
X603579Y289654D02*
G01X598854D01*
X603579Y287095D02*
G01X598854D01*
X603579Y284535D02*
G01X598854D01*
X603579Y281976D02*
G01X598854D01*
X603579Y279417D02*
G01X598854D01*
G54D91*
X492866Y233343D02*
G01Y234012D01*
X496606Y233343D02*
G01Y234012D01*
X500346Y233343D02*
G01Y234012D01*
Y242792D02*
G01Y243461D01*
X492866Y242792D02*
G01Y243461D01*
G54D33*
X175489Y253807D02*
G01Y255578D01*
G54D56*
X216089Y348300D02*
G01X215911D01*
X216089Y354500D02*
G01X215911D01*
X222395Y348402D02*
G01X222217D01*
X222395Y354602D02*
G01X222217D01*
G54D64*
X225416Y279498D02*
G01X226597D01*
X225416Y266506D02*
G01X226597D01*
X195416Y279498D02*
G01X196597D01*
X195416Y266506D02*
G01X196597D01*
X205416Y279498D02*
G01X206597D01*
X205416Y266506D02*
G01X206597D01*
X215415Y279498D02*
G01X216597D01*
X215415Y266506D02*
G01X216597D01*
G54D56*
X210089Y348300D02*
G01X209911D01*
X210089Y354500D02*
G01X209911D01*
X88089Y365650D02*
G01X87911D01*
X88089Y371850D02*
G01X87911D01*
X248829Y90901D02*
G01Y91079D01*
X255029Y90901D02*
G01Y91079D01*
X484661Y225850D02*
G01X484839D01*
X484661Y219650D02*
G01X484839D01*
X478661Y225850D02*
G01X478839D01*
X478661Y219650D02*
G01X478839D01*
X485606Y260691D02*
G01Y260513D01*
X479406Y260691D02*
G01Y260513D01*
X485606Y266391D02*
G01Y266213D01*
X479406Y266391D02*
G01Y266213D01*
X532411Y281683D02*
G01X532589D01*
X532411Y275483D02*
G01X532589D01*
X563606Y289913D02*
G01Y290091D01*
X569806Y289913D02*
G01Y290091D01*
X563511Y283932D02*
G01Y284110D01*
X569711Y283932D02*
G01Y284110D01*
X563606Y295913D02*
G01Y296091D01*
X569806Y295913D02*
G01Y296091D01*
X195995Y219402D02*
G01X195817D01*
X195995Y225602D02*
G01X195817D01*
X201995Y219402D02*
G01X201817D01*
X201995Y225602D02*
G01X201817D01*
X179317Y180602D02*
G01X179495D01*
X179317Y174402D02*
G01X179495D01*
X173017Y180302D02*
G01X173195D01*
X173017Y174102D02*
G01X173195D01*
X654175Y101806D02*
G01Y101628D01*
X647975Y101806D02*
G01Y101628D01*
X670793Y215054D02*
G01Y214876D01*
X664593Y215054D02*
G01Y214876D01*
X636841Y92786D02*
G01X636663D01*
X636841Y98986D02*
G01X636663D01*
X187725Y287930D02*
G01X187903D01*
X187725Y281730D02*
G01X187903D01*
X175629Y288424D02*
G01X175807D01*
X175629Y282224D02*
G01X175807D01*
X346317Y150111D02*
G01Y150289D01*
X352517Y150111D02*
G01Y150289D01*
X181906Y116991D02*
G01Y116813D01*
X175706Y116991D02*
G01Y116813D01*
X216900Y113911D02*
G01Y114089D01*
X223100Y113911D02*
G01Y114089D01*
X216900Y108006D02*
G01Y108184D01*
X223100Y108006D02*
G01Y108184D01*
G54D64*
X216615Y99698D02*
G01X217796D01*
X216615Y86706D02*
G01X217796D01*
G54D56*
X391911Y163100D02*
G01X392089D01*
X391911Y156900D02*
G01X392089D01*
X440900Y101411D02*
G01Y101589D01*
X447100Y101411D02*
G01Y101589D01*
G54D64*
X105509Y216096D02*
G01X106691D01*
X105509Y203104D02*
G01X106691D01*
G54D56*
X98617Y216602D02*
G01X98795D01*
X98617Y210402D02*
G01X98795D01*
G54D64*
X115815Y209198D02*
G01X116996D01*
X115815Y196206D02*
G01X116996D01*
G54D56*
X124117Y208802D02*
G01X124295D01*
X124117Y202602D02*
G01X124295D01*
X361911Y27100D02*
G01X362089D01*
X361911Y20900D02*
G01X362089D01*
X355911Y27100D02*
G01X356089D01*
X355911Y20900D02*
G01X356089D01*
X292911Y28850D02*
G01X293089D01*
X292911Y22650D02*
G01X293089D01*
X299161Y28850D02*
G01X299339D01*
X299161Y22650D02*
G01X299339D01*
G54D65*
X405000Y26250D02*
G01Y30250D01*
X418500Y26250D02*
G01Y30250D01*
X405000Y41750D02*
G01Y45750D01*
X418500Y41750D02*
G01Y45750D01*
G54D56*
X389850Y29339D02*
G01Y29161D01*
X383650Y29339D02*
G01Y29161D01*
X369900Y25911D02*
G01Y26089D01*
X376100Y25911D02*
G01Y26089D01*
G54D64*
X81364Y13709D02*
G01Y14891D01*
X94356Y13709D02*
G01Y14891D01*
G54D56*
X93589Y25900D02*
G01X93411D01*
X93589Y32100D02*
G01X93411D01*
X87647Y47850D02*
G01Y48028D01*
X93847Y47850D02*
G01Y48028D01*
X143611Y93100D02*
G01X143789D01*
X143611Y86900D02*
G01X143789D01*
X167611Y91900D02*
G01X167789D01*
X167611Y85700D02*
G01X167789D01*
X645410Y288394D02*
G01Y288572D01*
X651610Y288394D02*
G01Y288572D01*
X235600Y335589D02*
G01Y335411D01*
X229400Y335589D02*
G01Y335411D01*
X235600Y341089D02*
G01Y340911D01*
X229400Y341089D02*
G01Y340911D01*
X246695Y371802D02*
G01X246516D01*
X246695Y378002D02*
G01X246516D01*
X241183Y371802D02*
G01X241005D01*
X241183Y378002D02*
G01X241005D01*
X214029Y362310D02*
G01Y362132D01*
X207829Y362310D02*
G01Y362132D01*
X239495Y385302D02*
G01X239317D01*
X239495Y391502D02*
G01X239317D01*
X233683Y385302D02*
G01X233505D01*
X233683Y391502D02*
G01X233505D01*
X227795Y385302D02*
G01X227617D01*
X227795Y391502D02*
G01X227617D01*
G54D58*
X171705Y347532D02*
G01Y352932D01*
X182505Y347532D02*
G01Y352932D01*
G54D93*
X252956Y101602D02*
G01X247456D01*
X252956Y110602D02*
G01X247456D01*
X491506Y223652D02*
G01Y229152D01*
X500506Y223652D02*
G01Y229152D01*
X491806Y248552D02*
G01Y254052D01*
X500806Y248552D02*
G01Y254052D01*
G54D56*
X630364Y98986D02*
G01X630542D01*
X630364Y92786D02*
G01X630542D01*
X181141Y288030D02*
G01X181319D01*
X181141Y281830D02*
G01X181319D01*
X484400Y197011D02*
G01Y197189D01*
X490600Y197011D02*
G01Y197189D01*
X181906Y128391D02*
G01Y128213D01*
X175706Y128391D02*
G01Y128213D01*
X397595Y157002D02*
G01X397417D01*
X397595Y163202D02*
G01X397417D01*
G54D53*
X227949Y300042D02*
G01Y298861D01*
X220862Y300042D02*
G01Y298861D01*
X206341Y310142D02*
G01X207523D01*
X206341Y303056D02*
G01X207523D01*
G54D78*
X232976Y369307D02*
G01X230220D01*
X232976Y371276D02*
G01X230220D01*
X232976Y373244D02*
G01X230220D01*
X232976Y375213D02*
G01X230220D01*
X232976Y377181D02*
G01X230220D01*
X220772D02*
G01X218016D01*
X220772Y375213D02*
G01X218016D01*
X220772Y373244D02*
G01X218016D01*
X220772Y371276D02*
G01X218016D01*
X220772Y369307D02*
G01X218016D01*
G54D85*
X308057Y211070D02*
G01Y215795D01*
X305498Y211070D02*
G01Y215795D01*
X302939Y211070D02*
G01Y215795D01*
X300380Y211070D02*
G01Y215795D01*
X297821Y211070D02*
G01Y215795D01*
X295262Y211070D02*
G01Y215795D01*
X292703Y211070D02*
G01Y215795D01*
Y186267D02*
G01Y190992D01*
X295262Y186267D02*
G01Y190992D01*
X297821Y186267D02*
G01Y190992D01*
X300380Y186267D02*
G01Y190992D01*
X302939Y186267D02*
G01Y190992D01*
X305498Y186267D02*
G01Y190992D01*
X308057Y186267D02*
G01Y190992D01*
G54D86*
X529037Y301473D02*
G01Y306473D01*
X534037Y301473D02*
G01Y306473D01*
X539037Y301473D02*
G01Y306473D01*
X544037Y301473D02*
G01Y306473D01*
Y324073D02*
G01Y329073D01*
X539037Y324073D02*
G01Y329073D01*
X534037Y324073D02*
G01Y329073D01*
X529037Y324073D02*
G01Y329073D01*
G54D91*
X242597Y102932D02*
G01X241928D01*
X242597Y106672D02*
G01X241928D01*
X242597Y110412D02*
G01X241928D01*
X233148D02*
G01X232479D01*
X233148Y102932D02*
G01X232479D01*
G54D94*
X477844Y208153D02*
G01X477450D01*
X470561D02*
G01X470167D01*
X470561Y202050D02*
G01X470167D01*
X477844D02*
G01X477450D01*
G54D91*
X492277Y260100D02*
G01Y260769D01*
X496017Y260100D02*
G01Y260769D01*
X499757Y260100D02*
G01Y260769D01*
Y269549D02*
G01Y270218D01*
X492277Y269549D02*
G01Y270218D01*
G54D76*
X537717Y281535D02*
G01X539488D01*
X537717Y279567D02*
G01X539488D01*
X537717Y277598D02*
G01X539488D01*
X537717Y275630D02*
G01X539488D01*
X541358Y271988D02*
G01Y273760D01*
X543327Y271988D02*
G01Y273760D01*
X545295Y271988D02*
G01Y273760D01*
X547264Y271988D02*
G01Y273760D01*
X549134Y275630D02*
G01X550906D01*
X549134Y277598D02*
G01X550906D01*
X549134Y279567D02*
G01X550906D01*
X549134Y281535D02*
G01X550906D01*
X547264Y283406D02*
G01Y285177D01*
X545295Y283406D02*
G01Y285177D01*
X543327Y283406D02*
G01Y285177D01*
X541358Y283406D02*
G01Y285177D01*
X213146Y194219D02*
G01Y192447D01*
X211177Y194219D02*
G01Y192447D01*
X209209Y194219D02*
G01Y192447D01*
X207240Y194219D02*
G01Y192447D01*
X203303Y194219D02*
G01Y192447D01*
X199858Y190774D02*
G01X201630D01*
X199858Y188805D02*
G01X201630D01*
X199858Y186837D02*
G01X201630D01*
X199858Y184868D02*
G01X201630D01*
X203303Y183195D02*
G01Y181423D01*
X207240Y183195D02*
G01Y181423D01*
X209209Y183195D02*
G01Y181423D01*
X211177Y183195D02*
G01Y181423D01*
X213146Y183195D02*
G01Y181423D01*
X214819Y184868D02*
G01X216591D01*
X214819Y186837D02*
G01X216591D01*
X214819Y188805D02*
G01X216591D01*
X214819Y190774D02*
G01X216591D01*
G54D95*
X203638Y187821D02*
G01X204347D01*
X206756D02*
G01X207291D01*
G54D78*
X220370Y251335D02*
G01Y246413D01*
X218402Y251335D02*
G01Y246413D01*
X216433Y251335D02*
G01Y246413D01*
X214465Y251335D02*
G01Y246413D01*
X212496Y251335D02*
G01Y246413D01*
Y234012D02*
G01Y229091D01*
X214465Y234012D02*
G01Y229091D01*
X216433Y234012D02*
G01Y229091D01*
X218402Y234012D02*
G01Y229091D01*
X220370Y234012D02*
G01Y229091D01*
G54D75*
X600113Y206087D02*
G01X602081D01*
X600113Y203528D02*
G01X602081D01*
X600113Y200969D02*
G01X602081D01*
X608774D02*
G01X610743D01*
X608774Y206087D02*
G01X610743D01*
X649016Y112402D02*
G01Y114370D01*
X651575Y112402D02*
G01Y114370D01*
X654134Y112402D02*
G01Y114370D01*
Y121063D02*
G01Y123032D01*
X649016Y121063D02*
G01Y123032D01*
G54D96*
X234862Y196244D02*
G01Y201047D01*
X236831Y196244D02*
G01Y201047D01*
X238799Y196244D02*
G01Y201047D01*
X240768Y196244D02*
G01Y201047D01*
X242736Y196244D02*
G01Y201047D01*
X244705Y196244D02*
G01Y201047D01*
X246673Y196244D02*
G01Y201047D01*
X248642Y196244D02*
G01Y201047D01*
X250610Y196244D02*
G01Y201047D01*
X252579Y196244D02*
G01Y201047D01*
X254547Y196244D02*
G01Y201047D01*
X256516Y196244D02*
G01Y201047D01*
X258484Y196244D02*
G01Y201047D01*
X260453Y196244D02*
G01Y201047D01*
X262421Y196244D02*
G01Y201047D01*
X264390Y196244D02*
G01Y201047D01*
X266358Y196244D02*
G01Y201047D01*
X268327Y196244D02*
G01Y201047D01*
X270295Y196244D02*
G01Y201047D01*
X272264Y196244D02*
G01Y201047D01*
X274232Y196244D02*
G01Y201047D01*
X276201Y196244D02*
G01Y201047D01*
X278169Y196244D02*
G01Y201047D01*
X280138Y196244D02*
G01Y201047D01*
Y226953D02*
G01Y231756D01*
X278169Y226953D02*
G01Y231756D01*
X276201Y226953D02*
G01Y231756D01*
X274232Y226953D02*
G01Y231756D01*
X272264Y226953D02*
G01Y231756D01*
X270295Y226953D02*
G01Y231756D01*
X268327Y226953D02*
G01Y231756D01*
X266358Y226953D02*
G01Y231756D01*
X264390Y226953D02*
G01Y231756D01*
X262421Y226953D02*
G01Y231756D01*
X260453Y226953D02*
G01Y231756D01*
X258484Y226953D02*
G01Y231756D01*
X256516Y226953D02*
G01Y231756D01*
X254547Y226953D02*
G01Y231756D01*
X252579Y226953D02*
G01Y231756D01*
X250610Y226953D02*
G01Y231756D01*
X248642Y226953D02*
G01Y231756D01*
X246673Y226953D02*
G01Y231756D01*
X244705Y226953D02*
G01Y231756D01*
X242736Y226953D02*
G01Y231756D01*
X240768Y226953D02*
G01Y231756D01*
X238799Y226953D02*
G01Y231756D01*
X236831Y226953D02*
G01Y231756D01*
X234862Y226953D02*
G01Y231756D01*
G54D75*
X587091Y227209D02*
G01X589059D01*
X587091Y224650D02*
G01X589059D01*
X587091Y222091D02*
G01X589059D01*
X595752D02*
G01X597721D01*
X595752Y227209D02*
G01X597721D01*
X575535Y237549D02*
G01X577504D01*
X575535Y234990D02*
G01X577504D01*
X575535Y232431D02*
G01X577504D01*
X584197D02*
G01X586165D01*
X584197Y237549D02*
G01X586165D01*
X601591Y230961D02*
G01X603559D01*
X601591Y228402D02*
G01X603559D01*
X601591Y225843D02*
G01X603559D01*
X610252D02*
G01X612221D01*
X610252Y230961D02*
G01X612221D01*
X631729Y238185D02*
G01Y236217D01*
X629170Y238185D02*
G01Y236217D01*
X626611Y238185D02*
G01Y236217D01*
Y229524D02*
G01Y227555D01*
X631729Y229524D02*
G01Y227555D01*
X587091Y217761D02*
G01X589059D01*
X587091Y215202D02*
G01X589059D01*
X587091Y212642D02*
G01X589059D01*
X595752D02*
G01X597721D01*
X595752Y217761D02*
G01X597721D01*
G54D91*
X616646Y175061D02*
G01Y174391D01*
X612906Y175061D02*
G01Y174391D01*
X609165Y175061D02*
G01Y174391D01*
Y165612D02*
G01Y164943D01*
X616646Y165612D02*
G01Y164943D01*
G54D75*
X603899Y197693D02*
G01X605868D01*
X603899Y195134D02*
G01X605868D01*
X603899Y192575D02*
G01X605868D01*
X612561D02*
G01X614529D01*
X612561Y197693D02*
G01X614529D01*
G54D97*
X628806Y166819D02*
G01Y168984D01*
X632546Y166819D02*
G01Y168984D01*
X636286Y166819D02*
G01Y168984D01*
Y177055D02*
G01Y179220D01*
X632546Y177055D02*
G01Y179220D01*
X628806Y177055D02*
G01Y179220D01*
G54D98*
X656145Y191044D02*
G01X651345D01*
X656145Y193603D02*
G01X651345D01*
X656145Y196162D02*
G01X651345D01*
X656145Y198721D02*
G01X651345D01*
X656145Y201280D02*
G01X651345D01*
X656145Y203839D02*
G01X651345D01*
X656145Y206398D02*
G01X651345D01*
X656145Y208957D02*
G01X651345D01*
X656145Y211516D02*
G01X651345D01*
X656145Y214075D02*
G01X651345D01*
X656145Y216634D02*
G01X651345D01*
X656145Y219193D02*
G01X651345D01*
X630545D02*
G01X625745D01*
X630545Y216634D02*
G01X625745D01*
X630545Y214075D02*
G01X625745D01*
X630545Y211516D02*
G01X625745D01*
X630545Y208957D02*
G01X625745D01*
X630545Y206398D02*
G01X625745D01*
X630545Y203839D02*
G01X625745D01*
X630545Y201280D02*
G01X625745D01*
X630545Y198721D02*
G01X625745D01*
X630545Y196162D02*
G01X625745D01*
X630545Y193603D02*
G01X625745D01*
X630545Y191044D02*
G01X625745D01*
G54D90*
X620217Y99921D02*
G01X615492D01*
X620217Y102480D02*
G01X615492D01*
X620217Y105039D02*
G01X615492D01*
X620217Y107598D02*
G01X615492D01*
X620217Y110158D02*
G01X615492D01*
X620217Y112717D02*
G01X615492D01*
X620217Y115276D02*
G01X615492D01*
X620217Y117835D02*
G01X615492D01*
X597382D02*
G01X592658D01*
X597382Y115276D02*
G01X592658D01*
X597382Y112717D02*
G01X592658D01*
X597382Y110158D02*
G01X592658D01*
X597382Y107598D02*
G01X592658D01*
X597382Y105039D02*
G01X592658D01*
X597382Y102480D02*
G01X592658D01*
X597382Y99921D02*
G01X592658D01*
G54D66*
X653937Y38583D02*
G01X652362D01*
X653937Y40551D02*
G01X652362D01*
X653937Y42520D02*
G01X652362D01*
X651181Y45276D02*
G01Y43701D01*
X649213Y45276D02*
G01Y43701D01*
X647244Y45276D02*
G01Y43701D01*
X646063Y42520D02*
G01X644488D01*
X646063Y40551D02*
G01X644488D01*
X646063Y38583D02*
G01X644488D01*
X647244Y37402D02*
G01Y35827D01*
X649213Y37402D02*
G01Y35827D01*
X651181Y37402D02*
G01Y35827D01*
G54D78*
X179915Y327268D02*
G01Y325300D01*
X177946Y327268D02*
G01Y325300D01*
X175978Y327268D02*
G01Y325300D01*
X174009Y327268D02*
G01Y325300D01*
X172041Y327268D02*
G01Y325300D01*
X170072Y327268D02*
G01Y325300D01*
X168104Y327268D02*
G01Y325300D01*
X166135Y327268D02*
G01Y325300D01*
X164167Y327268D02*
G01Y325300D01*
X162198Y327268D02*
G01Y325300D01*
X160230Y327268D02*
G01Y325300D01*
X158261Y327268D02*
G01Y325300D01*
X156293Y327268D02*
G01Y325300D01*
X154324Y327268D02*
G01Y325300D01*
X150781Y323725D02*
G01X152749D01*
X150781Y321756D02*
G01X152749D01*
X150781Y319788D02*
G01X152749D01*
X150781Y317819D02*
G01X152749D01*
X150781Y315851D02*
G01X152749D01*
X150781Y313882D02*
G01X152749D01*
X150781Y311914D02*
G01X152749D01*
X150781Y309945D02*
G01X152749D01*
X150781Y307977D02*
G01X152749D01*
X150781Y306008D02*
G01X152749D01*
X150781Y304040D02*
G01X152749D01*
X150781Y302071D02*
G01X152749D01*
X150781Y300103D02*
G01X152749D01*
X150781Y298134D02*
G01X152749D01*
X154324Y296560D02*
G01Y294591D01*
X156293Y296560D02*
G01Y294591D01*
X158261Y296560D02*
G01Y294591D01*
X160230Y296560D02*
G01Y294591D01*
X162198Y296560D02*
G01Y294591D01*
X164167Y296560D02*
G01Y294591D01*
X166135Y296560D02*
G01Y294591D01*
X168104Y296560D02*
G01Y294591D01*
X170072Y296560D02*
G01Y294591D01*
X172041Y296560D02*
G01Y294591D01*
X174009Y296560D02*
G01Y294591D01*
X175978Y296560D02*
G01Y294591D01*
X177946Y296560D02*
G01Y294591D01*
X179915Y296560D02*
G01Y294591D01*
X181490Y298134D02*
G01X183458D01*
X181490Y300103D02*
G01X183458D01*
X181490Y302071D02*
G01X183458D01*
X181490Y304040D02*
G01X183458D01*
X181490Y306008D02*
G01X183458D01*
X181490Y307977D02*
G01X183458D01*
X181490Y309945D02*
G01X183458D01*
X181490Y311914D02*
G01X183458D01*
X181490Y313882D02*
G01X183458D01*
X181490Y315851D02*
G01X183458D01*
X181490Y317819D02*
G01X183458D01*
X181490Y319788D02*
G01X183458D01*
X181490Y321756D02*
G01X183458D01*
X181490Y323725D02*
G01X183458D01*
G54D97*
X399497Y145819D02*
G01Y143653D01*
X395757Y145819D02*
G01Y143653D01*
X392017Y145819D02*
G01Y143653D01*
Y135582D02*
G01Y133417D01*
X395757Y135582D02*
G01Y133417D01*
X399497Y135582D02*
G01Y133417D01*
G54D85*
X360513Y166940D02*
G01X365238D01*
X360513Y164381D02*
G01X365238D01*
X360513Y161822D02*
G01X365238D01*
X360513Y159263D02*
G01X365238D01*
X381773D02*
G01X386498D01*
X381773Y161822D02*
G01X386498D01*
X381773Y164381D02*
G01X386498D01*
X381773Y166940D02*
G01X386498D01*
X425166Y158902D02*
G01X421032D01*
X425166Y161461D02*
G01X421032D01*
X425166Y164020D02*
G01X421032D01*
X425166Y166579D02*
G01X421032D01*
X407843D02*
G01X403709D01*
X407843Y164020D02*
G01X403709D01*
X407843Y161461D02*
G01X403709D01*
X407843Y158902D02*
G01X403709D01*
G54D75*
X78718Y38674D02*
G01Y41430D01*
X76159Y38674D02*
G01Y41430D01*
X73600Y38674D02*
G01Y41430D01*
X71041Y38674D02*
G01Y41430D01*
X68482Y38674D02*
G01Y41430D01*
X65726Y35918D02*
G01X62970D01*
X65726Y33359D02*
G01X62970D01*
X65726Y30800D02*
G01X62970D01*
X65726Y28241D02*
G01X62970D01*
X65726Y25682D02*
G01X62970D01*
X68482Y20170D02*
G01Y22926D01*
X71041Y20170D02*
G01Y22926D01*
X73600Y20170D02*
G01Y22926D01*
X76159Y20170D02*
G01Y22926D01*
X78718Y20170D02*
G01Y22926D01*
X84230Y25682D02*
G01X81474D01*
X84230Y28241D02*
G01X81474D01*
X84230Y30800D02*
G01X81474D01*
X84230Y33359D02*
G01X81474D01*
X84230Y35918D02*
G01X81474D01*
X166874Y104382D02*
G01X169630D01*
X166874Y106941D02*
G01X169630D01*
X166874Y109500D02*
G01X169630D01*
X166874Y112059D02*
G01X169630D01*
X166874Y114618D02*
G01X169630D01*
X164118Y117374D02*
G01Y120130D01*
X161559Y117374D02*
G01Y120130D01*
X159000Y117374D02*
G01Y120130D01*
X156441Y117374D02*
G01Y120130D01*
X153882Y117374D02*
G01Y120130D01*
X148370Y114618D02*
G01X151126D01*
X148370Y112059D02*
G01X151126D01*
X148370Y109500D02*
G01X151126D01*
X148370Y106941D02*
G01X151126D01*
X148370Y104382D02*
G01X151126D01*
X153882Y98870D02*
G01Y101626D01*
X156441Y98870D02*
G01Y101626D01*
X159000Y98870D02*
G01Y101626D01*
X161559Y98870D02*
G01Y101626D01*
X164118Y98870D02*
G01Y101626D01*
G54D98*
X466800Y167875D02*
G01X471600D01*
X466800Y165316D02*
G01X471600D01*
X466800Y162757D02*
G01X471600D01*
X466800Y160198D02*
G01X471600D01*
X466800Y157639D02*
G01X471600D01*
X466800Y155080D02*
G01X471600D01*
X466800Y152521D02*
G01X471600D01*
X466800Y149962D02*
G01X471600D01*
X466800Y147403D02*
G01X471600D01*
X466800Y144844D02*
G01X471600D01*
X466800Y142285D02*
G01X471600D01*
X466800Y139726D02*
G01X471600D01*
X492400D02*
G01X497200D01*
X492400Y142285D02*
G01X497200D01*
X492400Y144844D02*
G01X497200D01*
X492400Y147403D02*
G01X497200D01*
X492400Y149962D02*
G01X497200D01*
X492400Y152521D02*
G01X497200D01*
X492400Y155080D02*
G01X497200D01*
X492400Y157639D02*
G01X497200D01*
X492400Y160198D02*
G01X497200D01*
X492400Y162757D02*
G01X497200D01*
X492400Y165316D02*
G01X497200D01*
X492400Y167875D02*
G01X497200D01*
G54D97*
X268506Y100819D02*
G01Y102984D01*
X272246Y100819D02*
G01Y102984D01*
X275986Y100819D02*
G01Y102984D01*
Y111055D02*
G01Y113220D01*
X272246Y111055D02*
G01Y113220D01*
X268506Y111055D02*
G01Y113220D01*
G54D66*
X255229Y124083D02*
G01Y126642D01*
X256804Y124083D02*
G01Y126642D01*
X258379Y124083D02*
G01Y126642D01*
X259954Y124083D02*
G01Y126642D01*
X261528Y124083D02*
G01Y126642D01*
X263103Y124083D02*
G01Y126642D01*
X264678Y124083D02*
G01Y126642D01*
X269009Y128414D02*
G01X266450D01*
X269009Y129989D02*
G01X266450D01*
X269009Y131564D02*
G01X266450D01*
X269009Y133139D02*
G01X266450D01*
X269009Y134713D02*
G01X266450D01*
X269009Y136288D02*
G01X266450D01*
X269009Y137863D02*
G01X266450D01*
X264678Y139635D02*
G01Y142194D01*
X263103Y139635D02*
G01Y142194D01*
X261528Y139635D02*
G01Y142194D01*
X259954Y139635D02*
G01Y142194D01*
X258379Y139635D02*
G01Y142194D01*
X256804Y139635D02*
G01Y142194D01*
X255229Y139635D02*
G01Y142194D01*
X253457Y137863D02*
G01X250898D01*
X253457Y136288D02*
G01X250898D01*
X253457Y134713D02*
G01X250898D01*
X253457Y133139D02*
G01X250898D01*
X253457Y131564D02*
G01X250898D01*
X253457Y129989D02*
G01X250898D01*
X253457Y128414D02*
G01X250898D01*
G54D98*
X140075Y163700D02*
G01Y158900D01*
X137516Y163700D02*
G01Y158900D01*
X134957Y163700D02*
G01Y158900D01*
X132398Y163700D02*
G01Y158900D01*
X129838Y163700D02*
G01Y158900D01*
X127279Y163700D02*
G01Y158900D01*
X124720Y163700D02*
G01Y158900D01*
X122161Y163700D02*
G01Y158900D01*
X119602Y163700D02*
G01Y158900D01*
X117043Y163700D02*
G01Y158900D01*
X114484Y163700D02*
G01Y158900D01*
X111926Y163700D02*
G01Y158900D01*
Y138100D02*
G01Y133300D01*
X114484Y138100D02*
G01Y133300D01*
X117043Y138100D02*
G01Y133300D01*
X119602Y138100D02*
G01Y133300D01*
X122161Y138100D02*
G01Y133300D01*
X124720Y138100D02*
G01Y133300D01*
X127279Y138100D02*
G01Y133300D01*
X129838Y138100D02*
G01Y133300D01*
X132398Y138100D02*
G01Y133300D01*
X134957Y138100D02*
G01Y133300D01*
X137516Y138100D02*
G01Y133300D01*
X140075Y138100D02*
G01Y133300D01*
G54D94*
X463557Y188363D02*
G01Y188757D01*
Y195647D02*
G01Y196040D01*
X457454Y195647D02*
G01Y196040D01*
Y188363D02*
G01Y188757D01*
X633905Y291426D02*
G01Y291032D01*
Y284142D02*
G01Y283748D01*
X640007Y284142D02*
G01Y283748D01*
Y291426D02*
G01Y291032D01*
X160024Y288670D02*
G01Y288277D01*
Y281387D02*
G01Y280993D01*
X166127Y281387D02*
G01Y280993D01*
Y288670D02*
G01Y288277D01*
G54D53*
X130815Y208945D02*
G01X131996D01*
X130815Y201858D02*
G01X131996D01*
G54D103*
X481150Y124072D02*
G01Y124466D01*
G54D52*
Y132734D02*
G01Y133128D01*
X474850Y132734D02*
G01Y133128D01*
Y124072D02*
G01Y124466D01*
G54D75*
X170304Y149292D02*
G01X173060D01*
X170304Y151851D02*
G01X173060D01*
X170304Y154410D02*
G01X173060D01*
X170304Y156969D02*
G01X173060D01*
X170304Y159528D02*
G01X173060D01*
X167548Y162284D02*
G01Y165040D01*
X164989Y162284D02*
G01Y165040D01*
X162430Y162284D02*
G01Y165040D01*
X159871Y162284D02*
G01Y165040D01*
X157312Y162284D02*
G01Y165040D01*
X151800Y159528D02*
G01X154556D01*
X151800Y156969D02*
G01X154556D01*
X151800Y154410D02*
G01X154556D01*
X151800Y151851D02*
G01X154556D01*
X151800Y149292D02*
G01X154556D01*
X157312Y143780D02*
G01Y146536D01*
X159871Y143780D02*
G01Y146536D01*
X162430Y143780D02*
G01Y146536D01*
X164989Y143780D02*
G01Y146536D01*
X167548Y143780D02*
G01Y146536D01*
G54D56*
X167085Y136541D02*
G01X167263D01*
X167085Y130341D02*
G01X167263D01*
G54D65*
X54190Y271450D02*
G01X50190D01*
X54190Y284950D02*
G01X50190D01*
G54D58*
X138626Y347532D02*
G01Y352932D01*
X149426Y347532D02*
G01Y352932D01*
G54D65*
X49750Y360000D02*
G01Y356000D01*
X36250Y360000D02*
G01Y356000D01*
X191150Y206700D02*
G01Y210700D01*
X204650Y206700D02*
G01Y210700D01*
X143900Y205750D02*
G01X147900D01*
X143900Y192250D02*
G01X147900D01*
X150650Y217700D02*
G01Y221700D01*
X164150Y217700D02*
G01Y221700D01*
G54D76*
X77843Y384760D02*
G01Y382201D01*
X75874Y384760D02*
G01Y382201D01*
X73906Y384760D02*
G01Y382201D01*
X71937Y384760D02*
G01Y382201D01*
X69969Y384760D02*
G01Y382201D01*
X68000Y384760D02*
G01Y382201D01*
X66032Y384760D02*
G01Y382201D01*
X64063Y384760D02*
G01Y382201D01*
X62095Y384760D02*
G01Y382201D01*
X60126Y384760D02*
G01Y382201D01*
X58157Y384760D02*
G01Y382201D01*
X55106Y378953D02*
G01X57272D01*
X55106Y376984D02*
G01X57272D01*
X55106Y375016D02*
G01X57272D01*
X55106Y373047D02*
G01X57272D01*
X58157Y369799D02*
G01Y367240D01*
X60126Y369799D02*
G01Y367240D01*
X62095Y369799D02*
G01Y367240D01*
X64063Y369799D02*
G01Y367240D01*
X66032Y369799D02*
G01Y367240D01*
X68000Y369799D02*
G01Y367240D01*
X69969Y369799D02*
G01Y367240D01*
X71937Y369799D02*
G01Y367240D01*
X73906Y369799D02*
G01Y367240D01*
X75874Y369799D02*
G01Y367240D01*
X77843Y369799D02*
G01Y367240D01*
X78728Y373047D02*
G01X80894D01*
X78728Y375016D02*
G01X80894D01*
X78728Y376984D02*
G01X80894D01*
X78728Y378953D02*
G01X80894D01*
G54D55*
X63276Y376000D02*
G01X72724D01*
G54D85*
X77492Y173411D02*
G01X72768D01*
X77492Y175971D02*
G01X72768D01*
X77492Y178530D02*
G01X72768D01*
X77492Y181089D02*
G01X72768D01*
X56232D02*
G01X51508D01*
X56232Y178530D02*
G01X51508D01*
X56232Y175971D02*
G01X51508D01*
X56232Y173411D02*
G01X51508D01*
G54D75*
X335059Y41691D02*
G01Y39526D01*
X332500Y41691D02*
G01Y39526D01*
X329941Y41691D02*
G01Y39526D01*
Y33974D02*
G01Y31809D01*
X332500Y33974D02*
G01Y31809D01*
X335059Y33974D02*
G01Y31809D01*
X325059Y41691D02*
G01Y39526D01*
X322500Y41691D02*
G01Y39526D01*
X319941Y41691D02*
G01Y39526D01*
Y33974D02*
G01Y31809D01*
X322500Y33974D02*
G01Y31809D01*
X325059Y33974D02*
G01Y31809D01*
G54D104*
X187642Y108339D02*
G01X190595D01*
X187642Y105780D02*
G01X190595D01*
X187642Y103221D02*
G01X190595D01*
X187642Y100661D02*
G01X190595D01*
X192661Y95642D02*
G01Y98595D01*
X195221Y95642D02*
G01Y98595D01*
X197780Y95642D02*
G01Y98595D01*
X200339Y95642D02*
G01Y98595D01*
X202406Y100661D02*
G01X205358D01*
X202406Y103221D02*
G01X205358D01*
X202406Y105780D02*
G01X205358D01*
X202406Y108339D02*
G01X205358D01*
X200339Y110406D02*
G01Y113358D01*
X197780Y110406D02*
G01Y113358D01*
X195221Y110406D02*
G01Y113358D01*
X192661Y110406D02*
G01Y113358D01*
G54D90*
X613801Y274827D02*
G01X618525D01*
X613801Y272268D02*
G01X618525D01*
X613801Y269709D02*
G01X618525D01*
X613801Y267150D02*
G01X618525D01*
X613801Y264591D02*
G01X618525D01*
X613801Y262031D02*
G01X618525D01*
X613801Y259472D02*
G01X618525D01*
X613801Y256913D02*
G01X618525D01*
X636635D02*
G01X641360D01*
X636635Y259472D02*
G01X641360D01*
X636635Y262031D02*
G01X641360D01*
X636635Y264591D02*
G01X641360D01*
X636635Y267150D02*
G01X641360D01*
X636635Y269709D02*
G01X641360D01*
X636635Y272268D02*
G01X641360D01*
X636635Y274827D02*
G01X641360D01*
G54D97*
X642510Y130443D02*
G01Y128277D01*
X638770Y130443D02*
G01Y128277D01*
X635030Y130443D02*
G01Y128277D01*
Y120206D02*
G01Y118041D01*
X638770Y120206D02*
G01Y118041D01*
X642510Y120206D02*
G01Y118041D01*
G54D121*
X124771Y285749D02*
G01X125370D01*
X124771Y281812D02*
G01X125370D01*
G54D106*
X48969Y331548D02*
G01Y330950D01*
X45032Y331548D02*
G01Y330950D01*
X60469Y316798D02*
G01Y316200D01*
X56532Y316798D02*
G01Y316200D01*
X70719Y322548D02*
G01Y321950D01*
X66782Y322548D02*
G01Y321950D01*
X60469Y311298D02*
G01Y310700D01*
X56532Y311298D02*
G01Y310700D01*
X70719Y317048D02*
G01Y316450D01*
X66782Y317048D02*
G01Y316450D01*
X60469Y329048D02*
G01Y328450D01*
X56532Y329048D02*
G01Y328450D01*
X48969Y337048D02*
G01Y336450D01*
X45032Y337048D02*
G01Y336450D01*
X60469Y323548D02*
G01Y322950D01*
X56532Y323548D02*
G01Y322950D01*
X136642Y328280D02*
G01Y328878D01*
X140579Y328280D02*
G01Y328878D01*
X136532Y297450D02*
G01Y298048D01*
X140469Y297450D02*
G01Y298048D01*
G54D121*
X100451Y281719D02*
G01X101049D01*
X100451Y277782D02*
G01X101049D01*
X105950Y281719D02*
G01X106550D01*
X105950Y277782D02*
G01X106550D01*
X113701Y285719D02*
G01X114300D01*
X113701Y281782D02*
G01X114300D01*
X119201Y285719D02*
G01X119799D01*
X119201Y281782D02*
G01X119799D01*
G54D106*
X70719Y310048D02*
G01Y309450D01*
X66782Y310048D02*
G01Y309450D01*
X70719Y304548D02*
G01Y303950D01*
X66782Y304548D02*
G01Y303950D01*
X60469Y304048D02*
G01Y303450D01*
X56532Y304048D02*
G01Y303450D01*
X60469Y298548D02*
G01Y297950D01*
X56532Y298548D02*
G01Y297950D01*
G54D93*
X57297Y214250D02*
G01Y215748D01*
X63203Y214250D02*
G01Y215748D01*
G54D122*
X57200Y202809D02*
G01Y202925D01*
Y206273D02*
G01Y206389D01*
G54D107*
X71850Y259703D02*
G01X72150D01*
X71850Y253797D02*
G01X72150D01*
X110951Y238361D02*
G01X111251D01*
X110951Y232455D02*
G01X111251D01*
X107781Y259416D02*
G01X107481D01*
X107781Y265323D02*
G01X107481D01*
X80350Y236703D02*
G01X80650D01*
X80350Y230797D02*
G01X80650D01*
G54D123*
X69349Y195402D02*
G01X69152D01*
X69349Y198602D02*
G01X69152D01*
X66902Y259602D02*
G01X67099D01*
X66902Y256402D02*
G01X67099D01*
X72599Y245802D02*
G01X72402D01*
X72599Y249002D02*
G01X72402D01*
X107846Y242946D02*
G01X107649D01*
X107846Y246146D02*
G01X107649D01*
X107563Y253753D02*
G01X107760D01*
X107563Y250553D02*
G01X107760D01*
X68602Y248802D02*
G01X68799D01*
X68602Y245601D02*
G01X68799D01*
G54D121*
X64550Y200645D02*
G01X63051D01*
X64550Y206157D02*
G01X63051D01*
G54D124*
X82555Y255140D02*
G01X84854D01*
X82555Y253171D02*
G01X84854D01*
X82555Y251203D02*
G01X84854D01*
X82555Y249234D02*
G01X84854D01*
X82555Y247266D02*
G01X84854D01*
X82555Y245297D02*
G01X84854D01*
X82555Y243329D02*
G01X84854D01*
X82555Y241419D02*
G01X84854D01*
X99646Y241360D02*
G01X101945D01*
X99646Y243329D02*
G01X101945D01*
X99646Y245297D02*
G01X101945D01*
X99646Y247266D02*
G01X101945D01*
X99646Y249234D02*
G01X101945D01*
X99646Y251203D02*
G01X101945D01*
X99646Y253171D02*
G01X101945D01*
X99646Y255140D02*
G01X101945D01*
G54D110*
X92250Y250603D02*
G01Y245900D01*
G54D125*
X16501Y52101D02*
G01X20239D01*
X16501Y47101D02*
G01X20239D01*
X16501Y42101D02*
G01X20239D01*
X16501Y37101D02*
G01X20239D01*
X16501Y32101D02*
G01X20239D01*
X16501Y27101D02*
G01X20239D01*
X16501Y22101D02*
G01X20239D01*
X16501Y17101D02*
G01X20239D01*
X37761D02*
G01X41499D01*
X37761Y22101D02*
G01X41499D01*
X37761Y27101D02*
G01X41499D01*
X37761Y32101D02*
G01X41499D01*
X37761Y37101D02*
G01X41499D01*
X37761Y42101D02*
G01X41499D01*
X37761Y47101D02*
G01X41499D01*
X37761Y52101D02*
G01X41499D01*
G54D122*
X133750Y339959D02*
G01Y340075D01*
Y343423D02*
G01Y343539D01*
X120000Y339959D02*
G01Y340075D01*
Y343423D02*
G01Y343539D01*
X126750Y339959D02*
G01Y340075D01*
Y343423D02*
G01Y343539D01*
G54D127*
X195281Y317536D02*
G01Y319781D01*
X197250Y317536D02*
G01Y319781D01*
X199218Y317536D02*
G01Y319781D01*
X201187Y317536D02*
G01Y319781D01*
X203155Y317536D02*
G01Y319781D01*
X205124Y317536D02*
G01Y319781D01*
X207092Y317536D02*
G01Y319781D01*
X209061Y317536D02*
G01Y319781D01*
X211029Y317536D02*
G01Y319781D01*
X212998Y317536D02*
G01Y319781D01*
X214966Y317536D02*
G01Y319781D01*
Y337024D02*
G01Y339269D01*
X212998Y337024D02*
G01Y339269D01*
X211029Y337024D02*
G01Y339269D01*
X209061Y337024D02*
G01Y339269D01*
X207092Y337024D02*
G01Y339269D01*
X205124Y337024D02*
G01Y339269D01*
X203155Y337024D02*
G01Y339269D01*
X201187Y337024D02*
G01Y339269D01*
X199218Y337024D02*
G01Y339269D01*
X197250Y337024D02*
G01Y339269D01*
X195281Y337024D02*
G01Y339269D01*
G54D128*
X209532Y328404D02*
G01X200715D01*
G54D132*
X64822Y191137D02*
G01X63718D01*
X64822Y192712D02*
G01X63718D01*
X64822Y194287D02*
G01X63718D01*
X64822Y195862D02*
G01X63718D01*
X59782D02*
G01X58678D01*
X59782Y194287D02*
G01X58678D01*
X59782Y192712D02*
G01X58678D01*
X59782Y191137D02*
G01X58678D01*
G54D133*
X61750Y191532D02*
G01Y195466D01*
M02*
