G04 ================== begin FILE IDENTIFICATION RECORD ==================*
G04 Layout Name:  OC_CONNECT_1_SDR_LIFE-3.brd*
G04 Film Name:    L5-PWR*
G04 File Format:  Gerber RS274X*
G04 File Origin:  Cadence Allegro 16.6-2015-S065*
G04 Origin Date:  Mon Jan 16 17:19:46 2017*
G04 *
G04 Layer:  DRAWING FORMAT/L5*
G04 Layer:  DRAWING FORMAT/FILM_LABEL_OUTLINE*
G04 Layer:  VIA CLASS/L5-PWR*
G04 Layer:  PIN/L5-PWR*
G04 Layer:  ETCH/L5-PWR*
G04 Layer:  BOARD GEOMETRY/OUTLINE*
G04 *
G04 Offset:    (0.000 0.000)*
G04 Mirror:    No*
G04 Mode:      Positive*
G04 Rotation:  0*
G04 FullContactRelief:  No*
G04 UndefLineWidth:     6.000*
G04 ================== end FILE IDENTIFICATION RECORD ====================*
%FSLAX25Y25*MOIN*%
%IR0*IPPOS*OFA0.00000B0.00000*MIA0B0*SFA1.00000B1.00000*%
%ADD13C,.02*%
%ADD10C,.022*%
%ADD11C,.016*%
%ADD14C,.018*%
%ADD12C,.0315*%
%ADD15C,.005*%
%ADD16C,.01*%
%ADD17C,.025*%
%ADD18C,.006*%
%ADD40C,.128004*%
%ADD25C,.245004*%
%ADD31C,.114492*%
%ADD27C,.236227*%
%ADD22C,.354966*%
%ADD35C,.030004*%
%ADD24C,.042004*%
%ADD39C,.071004*%
%ADD19C,.026004*%
%ADD38C,.036004*%
%ADD36C,.073004*%
%ADD20C,.038004*%
%ADD21C,.066004*%
%ADD23C,.047504*%
%ADD30C,.092523*%
%ADD33C,.07906*%
%ADD26C,.071186*%
%ADD32C,.045438*%
%ADD34C,.039626*%
%ADD28C,.072838*%
%ADD29C,.072839*%
%ADD37C,.082994*%
G75*
%LPD*%
G75*
G36*
G01X42400Y263396D02*
G02X43099Y263661I400J0D01*
G03Y266185I1421J1262D01*
G02X42400Y266450I-299J266D01*
G01Y292350D01*
G03Y305248I-1849J6449D01*
G01Y339752D01*
G03Y352650I-1849J6449D01*
G01Y368000D01*
X54800Y380400D01*
X110800D01*
X115200Y376000D01*
Y361700D01*
X118200Y358700D01*
X142000D01*
X152000Y348700D01*
Y332253D01*
G02X151322Y331965I-400J0D01*
G03X151322Y329235I-1322J-1365D01*
G02X152000Y328948I278J-287D01*
G01Y328000D01*
X160105Y319895D01*
Y308307D01*
X140569Y288770D01*
X140426Y288913D01*
G03X138587Y287074I-926J-913D01*
G01X138730Y286931D01*
X134600Y282801D01*
Y273876D01*
G03Y270644I1000J-1616D01*
G01Y236191D01*
G02X134078Y235810I-400J0D01*
G03Y232190I-578J-1810D01*
G02X134600Y231809I122J-381D01*
G01Y200421D01*
X134199Y200020D01*
X133873D01*
G02X133678Y200264I0J200D01*
G01X133688Y200305D01*
X133696Y200324D01*
G03X130158Y200541I-1727J793D01*
G02X129777Y200020I-381J-121D01*
G01X126287D01*
G02X125906Y200541I0J400D01*
G03X122284I-1811J576D01*
G02X121903Y200020I-381J-121D01*
G01X118413D01*
G02X118032Y200541I0J400D01*
G03X114411I-1811J576D01*
G02X114029Y200020I-381J-121D01*
G01X111549D01*
X110828Y199300D01*
X110300D01*
X97700Y186700D01*
Y144600D01*
X103650Y138650D01*
X137150D01*
X143500Y145000D01*
X177000D01*
X178606Y143394D01*
G02X178614Y142838I-283J-283D01*
G03X181300Y140152I1386J-1300D01*
G02X181857Y140143I274J-292D01*
G01X200300Y121700D01*
X231367D01*
G03X234393I1513J1150D01*
G01X244246D01*
G02X244617Y121152I0J-400D01*
G03X275383I15383J-6151D01*
G02X275754Y121700I371J148D01*
G01X292800D01*
X293948Y120552D01*
G02X293600Y119875I-283J-283D01*
G03X295165Y118310I-310J-1875D01*
G02X295842Y118658I395J65D01*
G01X297000Y117500D01*
Y114206D01*
X296893Y114150D01*
G03Y111850I607J-1150D01*
G01X297000Y111794D01*
Y99379D01*
X297250Y99128D01*
Y98750D01*
X305000Y91000D01*
X307480D01*
G02X307831Y90409I0J-400D01*
G03X307778Y88697I1669J-909D01*
G02X307604Y88176I-363J-169D01*
G03X307261Y87941I896J-1676D01*
G02X306739I-261J303D01*
G03Y85059I-1239J-1441D01*
G02X307261I261J-303D01*
G03X310222Y87303I1239J1441D01*
G02X310396Y87824I363J169D01*
G03X311169Y90409I-896J1676D01*
G02X311520Y91000I351J191D01*
G01X340000D01*
X340085Y90915D01*
X340970Y91800D01*
X353800D01*
X360140Y98140D01*
Y107711D01*
G03Y111289I-640J1789D01*
G01Y122180D01*
X361030Y123070D01*
G02X361710Y122838I283J-283D01*
G03X363162Y124290I1290J162D01*
G02X362930Y124970I50J397D01*
G01X364730Y126770D01*
X371720D01*
G03X374280I1280J230D01*
G01X435432D01*
G02X435717Y126090I0J-400D01*
G03X440930I2607J-2555D01*
G02X441216Y126770I286J280D01*
G01X443602D01*
G03X447061I1730J3773D01*
G01X449447D01*
G02X449733Y126090I0J-400D01*
G03X454946I2607J-2555D01*
G02X455232Y126770I286J280D01*
G01X464540D01*
X465625Y127855D01*
G03X467245Y129475I375J1245D01*
G01X476850Y139080D01*
Y174612D01*
G02X477562Y174861I400J0D01*
G03X480383Y174696I1485J1186D01*
G02X480664I141J-142D01*
G03X483336I1336J1351D01*
G02X483617I141J-142D01*
G03X486304Y177383I1336J1351D01*
G02Y177664I142J141D01*
G03Y180336I-1351J1336D01*
G02Y180617I142J141D01*
G03X483617Y183304I-1351J1336D01*
G02X483336I-141J142D01*
G03X480664I-1336J-1351D01*
G02X480383I-141J142D01*
G03X477562Y183139I-1336J-1351D01*
G02X476850Y183388I-313J250D01*
G01Y209600D01*
X476630Y209820D01*
Y222590D01*
X479878Y225838D01*
G03X480005Y229532I-378J1862D01*
G01X479954Y229546D01*
X479650Y229850D01*
G02X479857Y230526I283J283D01*
G03X477635Y232749I-356J1867D01*
G02X476960Y232541I-393J75D01*
G01X476000Y233500D01*
Y234134D01*
G02X476494Y234523I400J0D01*
G03X476644Y238247I446J1847D01*
G01X476556Y238233D01*
X476361Y238392D01*
X476344Y238457D01*
G03X476000Y239167I-1844J-457D01*
G01Y245350D01*
X509150Y278500D01*
X509106Y278606D01*
X517000Y286500D01*
Y286580D01*
X519263Y288843D01*
X519322Y288854D01*
G03X520346Y289878I-252J1276D01*
G01X520357Y289937D01*
X526390Y295970D01*
Y296480D01*
X535822Y305912D01*
X535934Y305881D01*
G03X538269Y308216I503J1832D01*
G01X538239Y308329D01*
X545387Y315477D01*
X545509Y315430D01*
G03X547970Y317891I691J1770D01*
G01X547923Y318013D01*
X555590Y325680D01*
X584641D01*
G03X588019I1689J870D01*
G01X604543D01*
G02X604796Y324970I0J-400D01*
G03X607204I1204J-1471D01*
G02X607457Y325680I253J310D01*
G01X618736D01*
X618756Y325502D01*
G03X621340I1292J146D01*
G01X621360Y325680D01*
X630090D01*
X644745Y340335D01*
X655565D01*
X662690Y333210D01*
Y280259D01*
X663480Y279468D01*
Y279410D01*
X674000Y268890D01*
Y187500D01*
X672000Y185500D01*
Y154000D01*
X679000Y147000D01*
Y103747D01*
G02X678596Y103347I-400J0D01*
G03Y67853I-196J-17747D01*
G02X679000Y67453I4J-400D01*
G01Y42500D01*
X651415Y14915D01*
X586376Y15050D01*
X277950D01*
X260367Y32633D01*
X260381Y32732D01*
G03X258232Y34881I-1881J268D01*
G01X258133Y34867D01*
X257464Y35536D01*
G02X257820Y36212I283J283D01*
G03X259165Y39699I350J1868D01*
G02Y40381I209J341D01*
G03X257176I-995J1619D01*
G02Y39699I-209J-341D01*
G03X256302Y37730I995J-1619D01*
G02X255626Y37374I-393J-74D01*
G01X254000Y39000D01*
Y57900D01*
X251500Y60400D01*
X65800D01*
X42400Y83800D01*
Y227829D01*
G02X43110Y228083I400J0D01*
G03Y235334I4430J3626D01*
G02X42400Y235588I-310J253D01*
G01Y263396D01*
G37*
G36*
G01X107900Y142000D02*
X102500Y147400D01*
Y162696D01*
G02X103150Y163008I400J0D01*
G03Y165972I1190J1482D01*
G02X102500Y166284I-250J312D01*
G01Y173784D01*
G03Y175570I-1677J893D01*
G01Y178334D01*
G03Y180666I-1500J1166D01*
G01Y188850D01*
X112170Y198520D01*
X134820D01*
X136100Y199800D01*
Y270421D01*
X136233Y270468D01*
G03Y274052I-633J1791D01*
G01X136100Y274099D01*
Y282180D01*
X148354Y294434D01*
G02X148961Y294386I283J-283D01*
G03X151614Y297039I1539J1114D01*
G02X151566Y297646I235J324D01*
G01X161700Y307780D01*
Y322500D01*
X157380Y326820D01*
X157434Y326945D01*
G03X154935Y329444I-1744J755D01*
G01X154810Y329390D01*
X154204Y329996D01*
X154241Y330111D01*
G03X153607Y331650I-1241J389D01*
G01X153500Y331706D01*
Y359000D01*
X160500Y366000D01*
X182290D01*
X190220Y373930D01*
Y392220D01*
X203920Y405920D01*
X252080D01*
X258812Y399188D01*
G03X293300Y394574I16778J-5788D01*
G02X293699Y395000I399J26D01*
G01X295800D01*
X298800Y398000D01*
Y398800D01*
X304500Y404500D01*
X352500D01*
X355300Y401700D01*
Y357000D01*
X353600Y355300D01*
X339890D01*
X339340Y354750D01*
X335610D01*
X320250Y339390D01*
X311418D01*
G02X311119Y340056I0J400D01*
G03X308281I-1419J1264D01*
G02X307982Y339390I-299J-266D01*
G01X297510D01*
X296920Y338800D01*
Y318400D01*
X293553Y315033D01*
G02X292886Y315206I-283J283D01*
G03X291162Y316578I-1826J-525D01*
G02X290804Y317103I21J399D01*
G03X290712Y318525I-1804J597D01*
G02X291107Y319097I360J174D01*
G03X289558Y320165I163J1893D01*
G02X289163Y319593I-360J-174D01*
G03X288898Y315803I-163J-1893D01*
G02X289256Y315277I-21J-399D01*
G03X290534Y312854I1804J-597D01*
G02X290707Y312187I-111J-384D01*
G01X277205Y298685D01*
X275069D01*
G03X243491Y293183I-15069J-6885D01*
G01X243475Y293000D01*
X239491D01*
G02X239104Y293504I0J400D01*
G03X235436I-1834J496D01*
G02X235049Y293000I-386J-104D01*
G01X205153D01*
G02X204865Y293678I0J400D01*
G03X201961Y296115I-1365J1322D01*
G02X201266Y296202I-324J235D01*
G03X201039Y294385I-1766J-702D01*
G02X201734Y294298I324J-235D01*
G03X202599Y293327I1766J702D01*
G02X202692Y292692I-190J-352D01*
G01X200700Y290700D01*
Y286618D01*
G02X200498Y286418I-200J0D01*
G03Y282618I-16J-1900D01*
G02X200700Y282418I2J-200D01*
G01Y240149D01*
G03Y237051I1100J-1549D01*
G01Y213200D01*
X193771Y206271D01*
X193652Y206315D01*
G03X191215Y203879I-652J-1785D01*
G01X191259Y203759D01*
X180851Y193351D01*
X180754Y193363D01*
G03X178637Y191246I-231J-1886D01*
G01X178649Y191149D01*
X163419Y175919D01*
G02X162803Y175981I-283J283D01*
G03X160169Y173347I-1583J-1051D01*
G02X160231Y172731I-221J-333D01*
G01X160029Y172529D01*
X160024Y172524D01*
G03X159831Y172331I1246J-1434D01*
G01X158960Y171460D01*
G02X158298Y171614I-283J283D01*
G03X157487Y172624I-1798J-613D01*
G02X157478Y173302I208J342D01*
G03X155463Y173276I-1028J1598D01*
G02X155472Y172598I-208J-342D01*
G03X155886Y169202I1028J-1598D01*
G02X156040Y168540I-129J-379D01*
G01X141200Y153700D01*
Y146200D01*
X138075Y143075D01*
X137942Y143150D01*
G03X135208Y142133I-942J-1650D01*
G01X135161Y142000D01*
X107900D01*
G37*
G36*
G01X271700Y219280D02*
G02X271248Y218884I-400J0D01*
G03X269477Y215864I-248J-1884D01*
G02X269420Y215323I-321J-239D01*
G03X271220Y211682I1380J-1583D01*
G02X271700Y211290I80J-392D01*
G01Y209154D01*
G03Y209106I1900J-24D01*
G01Y151100D01*
X269473Y148873D01*
X269414Y148861D01*
G03X267939Y147386I386J-1861D01*
G01X267927Y147327D01*
X245100Y124500D01*
X233822D01*
G03X231980Y124524I-942J-1650D01*
G01X231936Y124500D01*
X230925D01*
X230873Y124623D01*
G03X227367I-1753J-733D01*
G01X227315Y124500D01*
X223530D01*
G02X223285Y125216I0J400D01*
G03X220700Y127979I-1162J1503D01*
G02X220000Y128244I-300J265D01*
G01Y140000D01*
X216511Y143489D01*
G03X182371Y147946I-16511J6511D01*
G02X181974Y147500I-397J-46D01*
G01X151560D01*
X149955Y149105D01*
Y158855D01*
X160464Y169364D01*
X160586Y169317D01*
G03X163043Y171774I684J1773D01*
G01X162996Y171896D01*
X176214Y185114D01*
G03X178886Y187786I1196J1476D01*
G01X180682Y189582D01*
X180751Y189590D01*
G03X182410Y191249I-228J1887D01*
G01X182418Y191318D01*
X194039Y202939D01*
G03X194591Y203491I-1039J1591D01*
G01X194942Y203842D01*
G02X195621Y203619I283J-283D01*
G03X197781Y205779I1879J281D01*
G02X197558Y206458I59J396D01*
G01X203900Y212800D01*
Y242849D01*
G02X204422Y243230I400J0D01*
G03X206810Y244463I578J1810D01*
G02X207529Y244557I381J-122D01*
G03X210590Y244364I1601J1023D01*
G02X211228Y244332I307J-256D01*
G03X211340Y246616I1572J1068D01*
G02X210702Y246648I-307J256D01*
G03X207319Y246157I-1572J-1068D01*
G02X206601Y246063I-381J122D01*
G03X204422Y246850I-1601J-1023D01*
G02X203900Y247231I-122J381D01*
G01Y280500D01*
X202200Y282200D01*
Y283707D01*
G03Y285330I-1718J811D01*
G01Y287800D01*
X205400Y291000D01*
X235126D01*
G02X235523Y290553I0J-400D01*
G03X239297I1887J-223D01*
G02X239694Y291000I397J47D01*
G01X243451D01*
X243462Y290812D01*
G03X275836Y296668I16538J988D01*
G02X276218Y297185I382J117D01*
G01X277827D01*
X278252Y297610D01*
X278310D01*
X298070Y317370D01*
Y317428D01*
X298420Y317779D01*
Y337890D01*
X320871D01*
X322762Y339780D01*
X322910D01*
X323280Y339410D01*
Y331960D01*
X320790Y329470D01*
Y329112D01*
X320780Y329101D01*
Y306191D01*
X313740Y299151D01*
Y293610D01*
X305500Y285370D01*
Y285072D01*
X305350Y284921D01*
Y267192D01*
X305214Y267146D01*
G03X304521Y266717I576J-1705D01*
G02X303923Y266756I-282J284D01*
G03X303769Y264376I-1423J-1102D01*
G02X304367Y264338I282J-284D01*
G03X305214Y263734I1423J1102D01*
G01X305350Y263689D01*
Y235850D01*
X302500Y233000D01*
X298409D01*
X298392Y233181D01*
G03X294608I-1892J-181D01*
G01X294591Y233000D01*
X292775D01*
X292729Y233135D01*
G03X290271I-1229J-425D01*
G01X290225Y233000D01*
X279605D01*
G02X279369Y233723I0J400D01*
G03X276986Y233832I-1124J1532D01*
G02X276784Y233137I-265J-300D01*
G03X276352Y233015I296J-1877D01*
G01X276315Y233000D01*
X274000D01*
X271700Y230700D01*
Y227754D01*
G02X271270Y227355I-400J0D01*
G03X269703Y224205I-140J-1895D01*
G02X269657Y223632I-300J-264D01*
G03X271224Y220299I1208J-1467D01*
G02X271700Y219906I76J-393D01*
G01Y219280D01*
G37*
G36*
G01X305000Y93500D02*
X298500Y100000D01*
Y112169D01*
G03Y113831I-1000J831D01*
G01Y126480D01*
G02X299091Y126831I400J0D01*
G03X300259Y126618I909J1669D01*
G02X300481Y126463I27J-198D01*
G03X302036Y128018I1268J286D01*
G02X301882Y128240I44J195D01*
G03X299091Y130169I-1882J260D01*
G02X298500Y130520I-191J351D01*
G01Y135690D01*
X299630Y136820D01*
X319898D01*
X319946Y136690D01*
G03X322382I1218J455D01*
G01X322430Y136820D01*
X323048D01*
X323096Y136690D01*
G03X325532I1218J455D01*
G01X325580Y136820D01*
X326198D01*
X326246Y136690D01*
G03X328489Y136346I1218J455D01*
G02X329088Y136382I315J-246D01*
G01X329500Y135970D01*
Y134667D01*
X329475Y134622D01*
G03Y133367I1139J-627D01*
G01X329500Y133322D01*
Y131518D01*
X329475Y131473D01*
G03Y130217I1138J-628D01*
G01X329500Y130172D01*
Y128354D01*
X329476Y128309D01*
G03Y127070I1143J-619D01*
G01X329500Y127026D01*
Y126600D01*
X329902Y126198D01*
G02X329854Y125592I-283J-283D01*
G03X331671Y123776I765J-1052D01*
G02X332277Y123823I323J-235D01*
G01X333900Y122200D01*
X334100Y122400D01*
X355500D01*
X356700Y121200D01*
Y119885D01*
G02X356182Y119503I-400J0D01*
G03Y117018I-383J-1242D01*
G02X356700Y116635I118J-382D01*
G01Y116234D01*
X356451D01*
X356407Y116257D01*
G03X356183Y113862I-603J-1152D01*
G02X356700Y113479I117J-383D01*
G01Y113084D01*
X356451D01*
X356407Y113107D01*
G03X356183Y110712I-603J-1152D01*
G02X356700Y110329I117J-383D01*
G01Y97900D01*
X353743Y94943D01*
G02X353067Y95152I-283J283D01*
G03X349796Y96080I-1867J-352D01*
G02X349204I-296J269D01*
G03X346051Y94057I-1404J-1280D01*
G02X345683Y93500I-368J-157D01*
G01X340096D01*
G02X339871Y94230I0J400D01*
G03X337729I-1071J1570D01*
G02X337504Y93500I-225J-330D01*
G01X331087D01*
X331056Y93662D01*
G03X327325I-1865J-362D01*
G01X327293Y93500D01*
X318771D01*
X318733Y93651D01*
G03X315047I-1843J-461D01*
G01X315009Y93500D01*
X305000D01*
G37*
G36*
G01X282000Y160500D02*
X284500Y163000D01*
X292000D01*
X294000Y161000D01*
Y130500D01*
X293000Y129500D01*
X283500D01*
X282000Y131000D01*
Y160500D01*
G37*
G36*
G01X280931Y223031D02*
G02X281516Y223009I283J-283D01*
G03X283350Y224843I984J850D01*
G02X283329Y225429I261J303D01*
G01X289400Y231500D01*
X291025D01*
G03X291110Y231470I475J1210D01*
G02X291235Y231205I-60J-191D01*
G03X291256Y229745I1765J-705D01*
G02X291033Y229213I-367J-159D01*
G03Y226787I467J-1213D01*
G02X291256Y226255I-144J-373D01*
G03X292492Y223669I1744J-755D01*
G02X292647Y222982I-107J-385D01*
G03X294044Y223181I853J-982D01*
G02X294000Y223884I167J363D01*
G03X294446Y224267I-1000J1616D01*
G02X295054I304J-260D01*
G03X297255Y227244I1446J1233D01*
G02X297246Y227974I159J367D01*
G03X297958Y230856I-796J1725D01*
G02X298275Y231500I317J244D01*
G01X303121D01*
X303522Y231900D01*
X316540D01*
X316572Y231889D01*
G03X317814I621J1796D01*
G01X317845Y231900D01*
X329595D01*
G03X332539I1472J289D01*
G01X341406D01*
G03X344350I1472J289D01*
G01X345343D01*
G03X348287I1472J289D01*
G01X348900D01*
X350455Y230345D01*
G02X350295Y229681I-283J-283D01*
G03X350633Y226757I457J-1429D01*
G01X350708Y226751D01*
X350900Y226553D01*
Y226014D01*
X350708Y225816D01*
X350633Y225810D01*
G03Y222820I119J-1496D01*
G01X350708Y222814D01*
X350900Y222616D01*
Y222077D01*
X350708Y221879D01*
X350633Y221873D01*
G03Y218882I119J-1496D01*
G01X350708Y218876D01*
X350900Y218678D01*
Y218199D01*
X350708Y218002D01*
X350633Y217996D01*
G03Y215004I119J-1496D01*
G01X350708Y214998D01*
X350900Y214801D01*
Y214272D01*
G02X350526Y213873I-400J0D01*
G03Y210879I98J-1497D01*
G02X350900Y210480I-26J-399D01*
G01Y210266D01*
X350708Y210068D01*
X350633Y210062D01*
G03Y207071I119J-1496D01*
G01X350708Y207065D01*
X350900Y206868D01*
Y206329D01*
X350708Y206131D01*
X350633Y206125D01*
G03Y203134I119J-1496D01*
G01X350708Y203128D01*
X350900Y202930D01*
Y202392D01*
X350708Y202194D01*
X350633Y202188D01*
G03Y199197I119J-1496D01*
G01X350708Y199191D01*
X350900Y198994D01*
Y168900D01*
X351150Y168650D01*
Y158850D01*
X353460Y156540D01*
G02X353280Y155871I-283J-283D01*
G03X354871Y154280I335J-1256D01*
G02X355541Y154460I386J-103D01*
G01X356000Y154000D01*
X359716D01*
X359760Y153860D01*
G03X361725Y153171I1240J390D01*
G02X362294Y153039I223J-332D01*
G03X364718Y153621I1126J651D01*
G02X365118Y154000I399J-21D01*
G01X367260D01*
Y153796D01*
G03X369860I1300J-16D01*
G01Y154000D01*
X373028D01*
G02X373374Y153400I0J-400D01*
G03X375626I1126J-650D01*
G02X375972Y154000I346J200D01*
G01X402980D01*
G02X403331Y153409I0J-400D01*
G03X406669I1669J-909D01*
G02X407020Y154000I351J191D01*
G01X418500D01*
X423375Y158875D01*
G02X423978Y158832I283J-283D01*
G03X426638Y161492I1522J1138D01*
G02X426595Y162095I240J320D01*
G01X432800Y168300D01*
Y222674D01*
G03Y225966I-950J1646D01*
G01Y231350D01*
G02X433496Y231620I400J0D01*
G03Y234180I1404J1280D01*
G02X432800Y234449I-296J269D01*
G01Y265300D01*
X431700Y266400D01*
X429622D01*
X429421Y266600D01*
X407666D01*
G02X407288Y267131I0J400D01*
G03X404452I-1418J491D01*
G02X404074Y266600I-378J-131D01*
G01X403729D01*
G02X403351Y267131I0J400D01*
G03X400516I-1418J491D01*
G02X400138Y266600I-378J-131D01*
G01X399792D01*
G02X399414Y267131I0J400D01*
G03X396578I-1418J491D01*
G02X396200Y266600I-378J-131D01*
G01X395855D01*
G02X395477Y267131I0J400D01*
G03X392642I-1418J491D01*
G02X392264Y266600I-378J-131D01*
G01X391918D01*
G02X391540Y267131I0J400D01*
G03X388704I-1418J491D01*
G02X388326Y266600I-378J-131D01*
G01X387981D01*
G02X387603Y267131I0J400D01*
G03X384767I-1418J491D01*
G02X384389Y266600I-378J-131D01*
G01X384044D01*
G02X383666Y267131I0J400D01*
G03X380830I-1418J491D01*
G02X380452Y266600I-378J-131D01*
G01X380107D01*
G02X379729Y267131I0J400D01*
G03X376831Y267865I-1418J491D01*
G02X376153Y267647I-395J65D01*
G01X375900Y267900D01*
Y299390D01*
X393010Y316500D01*
X429121D01*
X429122Y316500D01*
X490000D01*
X495000Y321500D01*
Y343391D01*
G03Y344609I-1800J609D01*
G01Y348453D01*
X495008Y348480D01*
G03Y349520I-1828J520D01*
G01X495000Y349547D01*
Y351500D01*
X509000Y365500D01*
X575000D01*
X583250Y373750D01*
X683750D01*
X696750Y360750D01*
Y218080D01*
X693860Y215190D01*
Y151860D01*
X691000Y149000D01*
X680000D01*
X673950Y155050D01*
Y183460D01*
X676000Y185510D01*
Y269070D01*
X664190Y280880D01*
Y333910D01*
X656150Y341950D01*
X643080D01*
X629940Y328810D01*
X601904D01*
G02X601573Y329434I0J400D01*
G03X600808Y332220I-1573J1066D01*
G02X600802Y332942I170J362D01*
G03X599162Y332930I-832J1708D01*
G02X599168Y332208I-170J-362D01*
G03X598427Y329434I832J-1708D01*
G02X598096Y328810I-331J-224D01*
G01X592220D01*
G03X588720I-1750J-740D01*
G01X553890D01*
X553390Y328310D01*
X553249Y328432D01*
G03X550568Y325751I-1249J-1432D01*
G01X550690Y325610D01*
X522267Y297187D01*
G02X521699Y297190I-283J283D01*
G03X519860Y295351I-929J-910D01*
G02X519863Y294783I-280J-286D01*
G01X513557Y288477D01*
X513500Y288500D01*
X477485Y252485D01*
G03X474798Y249798I-1344J-1344D01*
G01X473300Y248300D01*
Y239473D01*
G03X472672Y238517I1200J-1473D01*
G02X472199Y238236I-385J109D01*
G03X472706Y234721I-417J-1854D01*
G02X473300Y234372I194J-350D01*
G01Y233067D01*
G03Y229533I700J-1767D01*
G01Y210515D01*
G03Y206884I560J-1816D01*
G01Y204267D01*
G03Y200733I700J-1767D01*
G01Y197551D01*
X473133Y197523D01*
G03Y193776I316J-1874D01*
G01X473300Y193748D01*
Y189796D01*
G02X472570Y189571I-400J0D01*
G03Y187429I-1570J-1071D01*
G02X473300Y187204I330J-225D01*
G01Y181590D01*
G02X472650Y181277I-400J0D01*
G03Y179246I-812J-1016D01*
G02X473300Y178933I250J-312D01*
G01Y162296D01*
G02X472570Y162071I-400J0D01*
G03X469106Y161156I-1570J-1071D01*
G02X468585Y160808I-399J33D01*
G03X467416I-585J-1808D01*
G02X466894Y161156I-123J381D01*
G03X463676Y159637I-1894J-156D01*
G02Y159063I-279J-287D01*
G03X466771Y157010I1324J-1363D01*
G02X467292Y157236I373J-145D01*
G03X468708I708J1764D01*
G02X469229Y157010I149J-371D01*
G03X472570Y156629I1771J690D01*
G02X473300Y156404I330J-225D01*
G01Y149617D01*
G02X472744Y149249I-400J0D01*
G03Y145751I-744J-1749D01*
G02X473300Y145383I157J-368D01*
G01Y139700D01*
X463100Y129500D01*
X449836D01*
G02X449440Y129957I0J400D01*
G03X441223I-4109J586D01*
G02X440827Y129500I-396J-56D01*
G01X374296D01*
G02X373991Y130159I0J400D01*
G03X372009I-991J841D01*
G02X371704Y129500I-305J-259D01*
G01X365197D01*
G02X364798Y129923I0J400D01*
G03X362202I-1298J77D01*
G02X361803Y129500I-399J-23D01*
G01X354067D01*
G02X353735Y130122I0J400D01*
G03X351573I-1081J723D01*
G02X351241Y129500I-333J-222D01*
G01X350917D01*
G02X350584Y130122I0J400D01*
G03X348423I-1081J723D01*
G02X348090Y129500I-333J-222D01*
G01X347767D01*
G02X347435Y130122I0J400D01*
G03X345273I-1081J723D01*
G02X344941Y129500I-333J-222D01*
G01X344617D01*
G02X344285Y130122I0J400D01*
G03X342364Y129853I-1081J723D01*
G02X342235Y129500I-129J-153D01*
G01X342100D01*
X341259Y130341D01*
X341295Y130456D01*
G03X339666Y132086I-1241J388D01*
G01X339551Y132049D01*
X334971Y136629D01*
X335008Y136745D01*
G03X333220Y138319I-1239J395D01*
G01X333180Y138300D01*
X331258D01*
X331172Y138319D01*
G03X330055I-558J-1174D01*
G01X330015Y138300D01*
X328108D01*
X328022Y138319D01*
G03X326906I-558J-1174D01*
G01X326865Y138300D01*
X324958D01*
X324872Y138319D01*
G03X323756I-558J-1174D01*
G01X323715Y138300D01*
X321808D01*
X321722Y138319D01*
G03X320606I-558J-1174D01*
G01X320565Y138300D01*
X302190D01*
X295960Y144530D01*
Y162340D01*
X293700Y164600D01*
X288600D01*
X276900Y176300D01*
Y184809D01*
G02X277422Y185190I400J0D01*
G03Y188810I578J1810D01*
G02X276900Y189191I-122J381D01*
G01Y202902D01*
G02X277091Y203102I200J0D01*
G03Y206898I-91J1898D01*
G02X276900Y207098I10J200D01*
G01Y219000D01*
X280931Y223031D01*
G37*
G36*
G01X396386Y167202D02*
G02X396540Y166540I-129J-379D01*
G01X395900Y165900D01*
X385258D01*
G02X384922Y166518I0J400D01*
G03X384934Y166536I-1760J1145D01*
G02X385469Y166670I338J-214D01*
G03X384726Y169624I1031J1830D01*
G02X384191Y169490I-338J214D01*
G03X383856Y169642I-1031J-1829D01*
G02X383615Y170162I133J377D01*
G03X382714Y172527I-1775J678D01*
G02X382742Y173251I184J355D01*
G03X381126Y173313I-742J1749D01*
G02X381098Y172589I-184J-355D01*
G03X381067Y169104I742J-1749D01*
G02X381265Y168566I-163J-365D01*
G03X381398Y166518I1895J-906D01*
G02X381062Y165900I-336J-218D01*
G01X365500D01*
X364410Y166990D01*
Y175400D01*
X361570Y178240D01*
X358796D01*
G02X358397Y178616I0J400D01*
G03X354907Y179536I-1897J-116D01*
G02X354289Y179471I-335J218D01*
G01X352500Y181260D01*
Y181904D01*
G02X353230Y182129I400J0D01*
G03X356138Y181851I1570J1071D01*
G02X356702I282J-284D01*
G03Y184549I1338J1349D01*
G02X356138I-282J284D01*
G03X353230Y184271I-1338J-1349D01*
G02X352500Y184496I-330J225D01*
G01Y193458D01*
G02X353100Y193804I400J0D01*
G03Y197096I950J1646D01*
G02X352500Y197442I-200J346D01*
G01Y233000D01*
X351900Y233600D01*
X351263D01*
X351232Y233610D01*
G03X350272I-480J-1422D01*
G01X350241Y233600D01*
X347326D01*
X347294Y233610D01*
G03X346336I-480J-1422D01*
G01X346304Y233600D01*
X343389D01*
X343358Y233610D01*
G03X342398I-479J-1422D01*
G01X342367Y233600D01*
X331578D01*
X331546Y233610D01*
G03X330587I-480J-1422D01*
G01X330556Y233600D01*
X319101D01*
X319090Y233789D01*
G03X315296I-1897J-104D01*
G01X315285Y233600D01*
X308750D01*
X306850Y235500D01*
Y263985D01*
G03Y266895I-1060J1455D01*
G01Y284300D01*
X315240Y292690D01*
Y298530D01*
X317284Y300574D01*
G02X317862Y300561I283J-283D01*
G03X319699Y302398I958J879D01*
G02X319686Y302976I270J295D01*
G01X322280Y305570D01*
Y328480D01*
X324780Y330980D01*
Y339460D01*
X326800Y341480D01*
Y341700D01*
X337300Y352200D01*
X415343D01*
G02X415718Y351661I0J-400D01*
G03X419282I1782J-661D01*
G02X419657Y352200I375J139D01*
G01X425343D01*
G02X425718Y351661I0J-400D01*
G03X428937Y349757I1782J-661D01*
G02X429522Y349778I303J-262D01*
G01X430500Y348800D01*
Y320000D01*
X428500Y318000D01*
X391760D01*
X372900Y299140D01*
Y279713D01*
G03Y279153I1474J-280D01*
G01Y275776D01*
G03Y275216I1474J-280D01*
G01Y271839D01*
G03Y271279I1474J-280D01*
G01Y267902D01*
G03Y267342I1474J-280D01*
G01Y267000D01*
X373162Y266738D01*
G03X373490Y266410I1212J884D01*
G01X374112Y265788D01*
G02X373944Y265122I-283J-283D01*
G03X375642Y264486I430J-1437D01*
G02X375980Y265100I338J214D01*
G01X376705D01*
G02X377043Y264486I0J-400D01*
G03X379579I1268J-801D01*
G02X379917Y265100I338J214D01*
G01X380642D01*
G02X380980Y264486I0J-400D01*
G03X383516I1268J-801D01*
G02X383854Y265100I338J214D01*
G01X384579D01*
G02X384917Y264486I0J-400D01*
G03X387453I1268J-801D01*
G02X387791Y265100I338J214D01*
G01X388516D01*
G02X388854Y264486I0J-400D01*
G03X391390I1268J-801D01*
G02X391728Y265100I338J214D01*
G01X392453D01*
G02X392791Y264486I0J-400D01*
G03X395327I1268J-801D01*
G02X395665Y265100I338J214D01*
G01X400327D01*
G02X400665Y264486I0J-400D01*
G03X403201I1268J-801D01*
G02X403539Y265100I338J214D01*
G01X404264D01*
G02X404602Y264486I0J-400D01*
G03X407138I1268J-801D01*
G02X407476Y265100I338J214D01*
G01X408201D01*
G02X408539Y264486I0J-400D01*
G03X411075I1268J-801D01*
G02X411413Y265100I338J214D01*
G01X412809D01*
G02X413190Y264578I0J-400D01*
G03X416810I1810J-578D01*
G02X417191Y265100I381J122D01*
G01X428800D01*
X430500Y263400D01*
Y225657D01*
G03Y222983I1350J-1337D01*
G01Y220676D01*
G02X430032Y220282I-400J0D01*
G03Y217719I-220J-1282D01*
G02X430500Y217324I68J-394D01*
G01Y176500D01*
X428133Y174133D01*
G02X427450Y174422I-283J283D01*
G03X423705Y173996I-1900J28D01*
G02X423316Y173500I-388J-96D01*
G01X418298D01*
G02X417898Y173917I0J400D01*
G03X414102I-1898J83D01*
G02X413702Y173500I-400J-17D01*
G01X408583D01*
X408546Y173652D01*
G03X404854I-1846J-452D01*
G01X404817Y173500D01*
X403500D01*
X399460Y169460D01*
G02X398798Y169614I-283J283D01*
G03X396386Y167202I-1798J-614D01*
G37*
G36*
G01X355622Y156500D02*
X352650Y159471D01*
Y169271D01*
X352500Y169422D01*
Y175500D01*
X353500Y176500D01*
X361188D01*
X362910Y174779D01*
Y166369D01*
X364000Y165278D01*
Y165000D01*
X364278D01*
X364879Y164400D01*
X396521D01*
X397372Y165250D01*
X398250D01*
X405000Y172000D01*
X405224D01*
X405284Y171933D01*
G03X408173Y172000I1416J1267D01*
G01X419000D01*
X421000Y170000D01*
Y158622D01*
X418878Y156500D01*
X355622D01*
G37*
G36*
G01X435300Y322300D02*
X432600Y325000D01*
Y354100D01*
X431887Y354813D01*
X431989Y354952D01*
G03X429507Y356967I-1289J948D01*
G01X429448Y356900D01*
X429177D01*
X429119Y356995D01*
G03X425827Y356900I-1619J-995D01*
G01X419173D01*
G03X415826I-1673J-900D01*
G01X362500D01*
X357500Y361900D01*
Y392500D01*
X359800Y394800D01*
X478900D01*
X486900Y386800D01*
Y369734D01*
G02X486389Y369350I-400J0D01*
G03Y366850I-359J-1249D01*
G02X486900Y366466I111J-384D01*
G01Y357925D01*
G03Y355875I1600J-1025D01*
G01Y326200D01*
X483000Y322300D01*
X435300D01*
G37*
%LPC*%
G75*
G36*
G01X372100Y34657D02*
G02X368249Y36499I-2375J-19D01*
G03X368283Y37095I-249J313D01*
G01X367000Y38379D01*
Y62771D01*
X382604Y78375D01*
X556274D01*
X556376Y78622D01*
X556300Y78699D01*
Y106580D01*
G03X555555Y106783I-400J0D01*
G02X540178Y101739I-10555J6217D01*
G01X530985Y105675D01*
G02X540629Y128198I4822J11261D01*
G01X549822Y124262D01*
G02X555555Y119218I-4822J-11261D01*
G03X556300Y119421I345J203D01*
G01Y192734D01*
G02X555348Y193561I700J1766D01*
G03X554652I-348J-198D01*
G02X551348I-1652J939D01*
G03X550652I-348J-198D01*
G02Y195439I-1652J939D01*
G03X551348I348J198D01*
G02X554652I1652J-939D01*
G03X555348I348J198D01*
G02X556300Y196266I1652J-939D01*
G01Y197734D01*
G02X555461Y198385I700J1766D01*
G03X554766Y198298I-324J-235D01*
G02X551348Y198061I-1766J702D01*
G03X550652I-348J-198D01*
G02Y199939I-1652J939D01*
G03X551348I348J198D01*
G02X554539Y200115I1652J-939D01*
G03X555234Y200202I324J235D01*
G02X556300Y201267I1766J-702D01*
G01Y218700D01*
G03X556100Y218900I-200J0D01*
G02X554489Y219792I0J1900D01*
G03X553811I-339J-212D01*
G02X550589I-1611J1008D01*
G03X549911I-339J-212D01*
G02Y221808I-1611J1008D01*
G03X550589I339J212D01*
G02X553811I1611J-1008D01*
G03X554489I339J212D01*
G02X556100Y222700I1611J-1008D01*
G03X556300Y222900I0J200D01*
G01Y223202D01*
G03X555917Y223602I-400J0D01*
G02X554348Y224561I83J1898D01*
G03X553652I-348J-198D01*
G02X550411Y224458I-1652J939D01*
G03X549768Y224493I-335J-219D01*
G02X549889Y226742I-1468J1207D01*
G03X550532Y226707I335J219D01*
G02X553652Y226439I1468J-1207D01*
G03X554348I348J198D01*
G02X555917Y227398I1652J-939D01*
G03X556300Y227798I-17J400D01*
G01Y237179D01*
X541400Y252079D01*
Y270021D01*
X546101Y274723D01*
G03X545963Y275378I-283J283D01*
G02X545190Y275934I687J1772D01*
G03X544555Y275908I-307J-256D01*
G02X544460Y278216I-1555J1092D01*
G03X545095Y278242I307J256D01*
G02X547098Y278997I1555J-1092D01*
G03X547592Y279405I94J389D01*
G02X549042Y277653I1898J95D01*
G03X548548Y277245I-94J-389D01*
G02X548495Y276696I-1898J-95D01*
G03X548884Y276200I388J-96D01*
G01X553544D01*
X553568Y276373D01*
G02X557332I1882J-263D01*
G01X557356Y276200D01*
X570348D01*
G03X570736Y276694I0J400D01*
G02X573264I1264J306D01*
G03X573652Y276200I389J-94D01*
G01X574656D01*
G03X574994Y276814I0J400D01*
G02X578206I1606J1016D01*
G03X578544Y276200I338J-214D01*
G01X588848D01*
G03X589236Y276694I0J400D01*
G02X591054Y275824I1264J306D01*
G03X590942Y275179I171J-362D01*
G01X608500Y257621D01*
Y211588D01*
G03X609183Y211305I400J0D01*
G01X610879Y213000D01*
X616022D01*
G03X616336Y213648I0J400D01*
G02X619317I1491J1179D01*
G03X619631Y213000I314J-248D01*
G01X652121D01*
X656500Y208621D01*
Y161879D01*
X640382Y145761D01*
X640379Y145682D01*
G02X637834Y145357I-1299J48D01*
G01X637792Y145500D01*
X634128D01*
X634082Y145364D01*
G02X633183Y144523I-1232J416D01*
G01X633131Y144509D01*
X633000Y144379D01*
Y143802D01*
X633139Y143758D01*
G02Y141282I-399J-1238D01*
G01X633000Y141238D01*
Y54379D01*
X611621Y33000D01*
X454879D01*
X452819Y35060D01*
X438295D01*
G03X437896Y34632I0J-400D01*
G02X434104I-1896J-132D01*
G03X433705Y35060I-399J28D01*
G01X424862D01*
G03X424462Y34657I0J-400D01*
G02X419712I-2375J-19D01*
G03X419311Y35060I-400J3D01*
G01X417381D01*
G03X416981Y34657I0J-400D01*
G02X412231I-2375J-19D01*
G03X411831Y35060I-400J3D01*
G01X409901D01*
G03X409501Y34657I0J-400D01*
G02X404751I-2375J-19D01*
G03X404351Y35060I-400J3D01*
G01X402421D01*
G03X402021Y34657I0J-400D01*
G02X397271I-2375J-19D01*
G03X396871Y35060I-400J3D01*
G01X394940D01*
G03X394540Y34657I0J-400D01*
G02X389790I-2375J-19D01*
G03X389390Y35060I-400J3D01*
G01X387460D01*
G03X387060Y34657I0J-400D01*
G02X382310I-2375J-19D01*
G03X381910Y35060I-400J3D01*
G01X379980D01*
G03X379580Y34657I0J-400D01*
G02X374830I-2375J-19D01*
G03X374430Y35060I-400J3D01*
G01X372500D01*
G03X372100Y34657I0J-400D01*
G37*
G36*
G01X259288Y51617D02*
G02X257416Y51687I-998J-1617D01*
G03X257442Y52383I-184J355D01*
G02X259314Y52313I998J1617D01*
G03X259288Y51617I184J-355D01*
G37*
G36*
G01X123161Y86755D02*
G02X120572Y86679I-1291J-155D01*
G03X120224Y87100I-399J24D01*
G02X119184Y88876I166J1290D01*
G03X118845Y89424I-371J149D01*
G02X120017Y91463I105J1296D01*
G03X120673I328J229D01*
G02X122857Y91386I1067J-743D01*
G03X123544I343J205D01*
G02X124834Y89431I1116J-666D01*
G03X124509Y88904I53J-396D01*
G02X123493Y87197I-1229J-424D01*
G03X123161Y86755I65J-395D01*
G37*
G36*
G01X270483Y94448D02*
G02X266350Y89533I-1483J-2948D01*
G03X265754Y89586I-321J-238D01*
G02X265241Y91773I-894J944D01*
G03X265752Y92085I117J382D01*
G02X265845Y92468I3248J-585D01*
G03X265361Y92973I-382J117D01*
G02X266322Y94371I-331J1257D01*
G03X266967Y94099I398J43D01*
G02X268422Y94749I2033J-2599D01*
G03X268666Y95391I-70J394D01*
G02X270433Y95133I1020J806D01*
G03X270483Y94448I230J-327D01*
G37*
G36*
G01X98315Y113128D02*
G02X96061Y116152I-1315J1372D01*
G03Y116848I-198J348D01*
G02X98271Y119913I939J1652D01*
G03X98815Y119922I267J297D01*
G02X101069Y116898I1315J-1372D01*
G03Y116202I198J-348D01*
G02X98859Y113137I-939J-1652D01*
G03X98315Y113128I-267J-297D01*
G37*
G36*
G01X364000Y117300D02*
G02X362853Y116612I0J-1300D01*
G03X362500Y117200I-353J188D01*
G02X363647Y117888I0J1300D01*
G03X364000Y117300I353J-188D01*
G37*
G36*
G01X641402Y129755D02*
G02X638937Y132638I-1322J1365D01*
G03X638902Y133301I-241J320D01*
G02X638511Y136247I978J1629D01*
G03X638505Y136807I-288J277D01*
G02X641209Y139478I1345J1343D01*
G03X641778Y139475I286J280D01*
G02X644469Y136792I1343J-1345D01*
G03Y136228I284J-282D01*
G02X644272Y133379I-1349J-1338D01*
G03X644300Y132724I243J-318D01*
G02X644530Y132552I-1020J-1603D01*
G03X645167Y132712I263J301D01*
G02X645749Y131120I1217J-458D01*
G03X645158Y130832I-195J-349D01*
G02X641958Y129755I-1878J288D01*
G03X641402I-278J-287D01*
G37*
G36*
G01X78822Y133183D02*
G02X76884Y133080I-882J-1683D01*
G03X76848Y133767I-222J333D01*
G02X78786Y133870I882J1683D01*
G03X78822Y133183I222J-333D01*
G37*
G36*
G01X495339Y141052D02*
G02X493461I-939J-1652D01*
G03Y141748I-198J348D01*
G02Y145052I939J1652D01*
G03Y145748I-198J348D01*
G02X495339I939J1652D01*
G03Y145052I198J-348D01*
G02Y141748I-939J-1652D01*
G03Y141052I198J-348D01*
G37*
G36*
G01X493201Y154531D02*
G02X491306Y154000I-508J-1831D01*
G03X491122Y154659I-292J274D01*
G02X489743Y156711I508J1831D01*
G03X489262Y157149I-397J47D01*
G02X490284Y158547I-272J1271D01*
G03X490847Y158221I398J39D01*
G02X493016Y155190I783J-1731D01*
G03X493201Y154531I292J-274D01*
G37*
G36*
G01X533007Y157278D02*
G02X530922Y158791I-1147J612D01*
G03X530849Y159405I-288J277D01*
G02X530438Y159827I701J1095D01*
G03X529739Y159801I-342J-207D01*
G02X529500Y159472I-1159J589D01*
G03X529512Y158895I283J-283D01*
G02X527710Y158858I-882J-955D01*
G03X527698Y159435I-283J283D01*
G02X529692Y161063I882J955D01*
G03X530391Y161089I342J207D01*
G02X532697Y161112I1159J-589D01*
G03X533403I353J188D01*
G02X535488Y159599I1147J-612D01*
G03X535561Y158985I288J-277D01*
G02X533713Y157278I-701J-1095D01*
G03X533007I-353J-188D01*
G37*
G36*
G01X541821Y159165D02*
G02X540182Y158971I-701J-1095D01*
G03X540109Y159585I-288J277D01*
G02X539698Y160007I701J1095D01*
G03X538999Y159981I-342J-207D01*
G02X538760Y159652I-1159J589D01*
G03X538772Y159075I283J-283D01*
G02X536970Y159038I-882J-955D01*
G03X536958Y159615I-283J283D01*
G02X538952Y161243I882J955D01*
G03X539651Y161269I342J207D01*
G02X541748Y159779I1159J-589D01*
G03X541821Y159165I288J-277D01*
G37*
G36*
G01X554351Y159345D02*
G02X552712Y159151I-701J-1095D01*
G03X552639Y159765I-288J277D01*
G02X554278Y159959I701J1095D01*
G03X554351Y159345I288J-277D01*
G37*
G36*
G01X545652Y168561D02*
G02Y170439I-1652J939D01*
G03X546348I348J198D01*
G02X549652I1652J-939D01*
G03X550348I348J198D01*
G02Y168561I1652J-939D01*
G03X549652I-348J-198D01*
G02X546348I-1652J939D01*
G03X545652I-348J-198D01*
G37*
G36*
G01X652852Y226461D02*
G02Y228339I-1652J939D01*
G03X653548I348J198D01*
G02X656646Y228633I1652J-939D01*
G03X657254I304J260D01*
G02Y226167I1446J-1233D01*
G03X656646I-304J-260D01*
G02X653548Y226461I-1446J1233D01*
G03X652852I-348J-198D01*
G37*
G36*
G01X69899Y230361D02*
G02X69883Y228596I1675J-898D01*
G03X69175Y228602I-356J-183D01*
G02X69191Y230368I-1675J898D01*
G03X69899Y230361I356J183D01*
G37*
G36*
G01X652852Y231061D02*
G02Y232939I-1652J939D01*
G03X653548I348J198D01*
G02X656646Y233233I1652J-939D01*
G03X657254I304J260D01*
G02Y230767I1446J-1233D01*
G03X656646I-304J-260D01*
G02X653548Y231061I-1446J1233D01*
G03X652852I-348J-198D01*
G37*
G36*
G01X60859Y240911D02*
G02X58637I-1111J-1782D01*
G03Y241589I-212J339D01*
G02X60859I1111J1782D01*
G03Y240911I212J-339D01*
G37*
G36*
G01X89220Y262390D02*
G02X88181Y263995I-1898J-90D01*
G03X88762Y264370I181J357D01*
G02X89800Y262765I1898J90D01*
G03X89220Y262390I-181J-357D01*
G37*
G36*
G01X643324Y264002D02*
G02X640864Y263889I-1164J-1502D01*
G03X640836Y264498I-273J293D01*
G02X641056Y267649I1164J1502D01*
G03X641055Y268344I-199J347D01*
G02X640416Y268938I940J1651D01*
G03X639704Y268842I-332J-222D01*
G02X636445Y270662I-1804J598D01*
G03X636402Y271220I-306J257D01*
G02X639110Y271427I1253J1429D01*
G03X639153Y270869I306J-257D01*
G02X639479Y270497I-1253J-1429D01*
G03X640191Y270593I332J222D01*
G02X643711Y270811I1804J-598D01*
G03X644254Y270626I361J172D01*
G02X646582Y270146I864J-1692D01*
G03X647170Y270115I308J255D01*
G02X648735Y270643I1330J-1357D01*
G03X649172Y270939I50J397D01*
G02X650775Y268572I1838J-481D01*
G03X650338Y268276I-50J-397D01*
G02X647036Y267546I-1838J481D01*
G03X646448Y267576I-308J-255D01*
G02X643402Y268118I-1330J1357D01*
G03X642859Y268303I-361J-172D01*
G02X642584Y268189I-864J1692D01*
G03X642585Y267808I62J-190D01*
G02X643296Y264611I-585J-1808D01*
G03X643324Y264002I273J-293D01*
G37*
G36*
G01X616736Y272728D02*
G02X616485Y274685I-1736J772D01*
G03X617164Y274772I313J249D01*
G02X617414Y272815I1736J-772D01*
G03X616736Y272728I-313J-249D01*
G37*
G36*
G01X535930Y274255D02*
G02X534914Y275892I-1900J-45D01*
G03X535500Y276255I186J354D01*
G02X536516Y274618I1900J45D01*
G03X535930Y274255I-186J-354D01*
G37*
G36*
G01X60667Y278588D02*
G02X58000Y281116I-1667J912D01*
G03X57956Y281819I-211J340D01*
G02X59353Y282018I544J1181D01*
G03X59508Y281331I262J-302D01*
G02X60656Y280431I-508J-1831D01*
G03X61356Y280435I349J196D01*
G02X61367Y278592I1667J-912D01*
G03X60667Y278588I-349J-196D01*
G37*
G36*
G01X559642Y281946D02*
G02X558389Y281088I358J-1866D01*
G03X558039Y281700I-339J212D01*
G02X559198Y282494I-38J1300D01*
G03X559642Y281946I369J-156D01*
G37*
G36*
G01X527757Y282058D02*
G02X525687Y282306I-1127J-648D01*
G03X525654Y282888I-290J275D01*
G02X524929Y284153I1346J1612D01*
G03X524357Y284445I-395J-66D01*
G02X524952Y286172I-577J1165D01*
G03X525583Y286050I361J173D01*
G02X527928Y282616I1417J-1550D01*
G03X527757Y282058I177J-359D01*
G37*
G36*
G01X573440Y283898D02*
G02X571560I-940J-899D01*
G03X571494Y284507I-289J276D01*
G02X570766Y285518I1006J1493D01*
G03X570076Y285670I-385J-107D01*
G02X567103Y286013I-1371J1166D01*
G03X566426Y286068I-356J-183D01*
G02X566733Y287700I-1526J1132D01*
G03X567104Y287660I193J53D01*
G02X567389Y288065I1600J-825D01*
G02X566865Y289304I1276J1270D01*
G03X566658Y289501I-200J-3D01*
G02X564800Y291279I-58J1799D01*
G03X564613Y291476I-200J-2D01*
G02X564509Y291486I115J1797D01*
G03X564287Y291315I-24J-199D01*
G02X562782Y292782I-1287J185D01*
G03X562947Y293008I-33J197D01*
G02X566338Y294076I1781J264D01*
G03X567054I358J179D01*
G02X570275I1611J-804D01*
G03X570991I358J179D01*
G02X572687Y291474I1611J-804D01*
G03X572497Y291287I9J-200D01*
G02X572493Y291234I-1797J110D01*
G03X572911Y290798I398J-37D01*
G02X574079Y287559I89J-1798D01*
G03X573988Y287013I240J-320D01*
G02X573506Y284507I-1488J-1013D01*
G03X573440Y283898I223J-332D01*
G37*
G36*
G01X544400Y292387D02*
G02X543018Y291965I-375J-1245D01*
G03X542759Y292615I-310J253D01*
G02X544252Y293071I241J1885D01*
G03X544400Y292387I264J-301D01*
G37*
G36*
G01X585877Y293782D02*
G02X584569Y293309I-281J-1270D01*
G03X584277Y293953I-316J245D01*
G02X583148Y297288I113J1897D01*
G03X583110Y297923I-261J303D01*
G02X582984Y300984I1060J1577D01*
G03X583003Y301593I-250J312D01*
G02X583035Y304436I1277J1407D01*
G03X583006Y305064I-262J302D01*
G02X585355Y305174I1104J1546D01*
G03X585384Y304546I262J-302D01*
G02X585466Y301516I-1104J-1546D01*
G03X585447Y300907I250J-312D01*
G02X585412Y298062I-1277J-1407D01*
G03X585450Y297427I261J-303D01*
G02X585690Y294464I-1060J-1577D01*
G03X585877Y293782I274J-292D01*
G37*
G36*
G01X543354Y301711D02*
G02X542356Y302602I-1241J-386D01*
G03X542791Y303170I75J393D01*
G02X543869Y302208I1709J830D01*
G03X543354Y301711I-133J-377D01*
G37*
G36*
G01X598286Y316052D02*
G02X595778Y315604I-1006J-1612D01*
G03X595674Y316188I-316J245D01*
G02X598288Y318812I1006J1612D01*
G03X598953Y318793I339J213D01*
G02X598892Y316678I1547J-1103D01*
G03X598227Y316697I-339J-213D01*
G02X598182Y316636I-1547J1104D01*
G03X598286Y316052I316J-245D01*
G37*
G36*
G01X616136Y322865D02*
G02X614744Y321727I364J-1865D01*
G03X614378Y322280I-370J153D01*
G02X615667Y323333I12J1300D01*
G03X616136Y322865I393J-76D01*
G37*
G36*
G01X146000Y323096D02*
G02X143000I-1500J-1470D01*
G03Y323656I-286J280D01*
G02X143605Y327026I1500J1470D01*
G03X143621Y327742I-170J362D01*
G02X143100Y331070I979J1858D01*
G03Y331630I-286J280D01*
G02X146100I1500J1470D01*
G03Y331070I286J-280D01*
G02X145495Y327700I-1500J-1470D01*
G03X145479Y326984I170J-362D01*
G02X146000Y323656I-979J-1858D01*
G03Y323096I286J-280D01*
G37*
G36*
G01X97818Y361553D02*
G02X95521Y362839I-1818J-553D01*
G03X95793Y363370I-101J387D01*
G02X96641Y365911I1959J758D01*
G03Y366590I-212J339D01*
G02X95793Y369130I1111J1782D01*
G03X95521Y369661I-373J144D01*
G02X97818Y370948I479J1839D01*
G03X98129Y370438I383J-116D01*
G02X98863Y366590I-377J-2066D01*
G03Y365911I212J-339D01*
G02X98129Y362062I-1111J-1782D01*
G03X97818Y361553I72J-393D01*
G37*
G36*
G01X59309Y368910D02*
G02X57087I-1111J-1782D01*
G03Y369589I-212J339D01*
G02X59309I1111J1782D01*
G03Y368910I212J-339D01*
G37*
G36*
G01X371120Y22086D02*
G03X371167Y21409I235J-324D01*
G02X368282I-1443J-2716D01*
G03X368329Y22086I-188J353D01*
G02X371120I1395J1922D01*
G37*
G36*
G01X386080D02*
G03X386128Y21409I235J-324D01*
G02X383242I-1443J-2716D01*
G03X383290Y22086I-188J353D01*
G02X386080I1395J1922D01*
G37*
G36*
G01X648872Y86169D02*
G03X648530Y85762I57J-396D01*
G02X646525Y87607I-1899J-53D01*
G03X646713Y87830I-11J200D01*
G02X646702Y87952I1887J220D01*
G03X646510Y88141I-200J-10D01*
G02X648478Y90138I70J1899D01*
G03X648670Y89949I200J10D01*
G02X648872Y86169I-70J-1899D01*
G37*
G36*
G01X440592Y94147D02*
G03X440251Y94616I-393J73D01*
G02X442198Y95646I249J1884D01*
G03X442394Y95100I357J-180D01*
G02X442552Y92803I-524J-1190D01*
G03X442463Y92196I210J-341D01*
G02X443169Y90921I-2463J-2196D01*
G03X443757Y90688I384J112D01*
G02X443554Y88600I663J-1118D01*
G03X442932Y88485I-266J-298D01*
G02X442754Y88181I-2932J1515D01*
G03X442982Y87574I334J-220D01*
G02X441342Y86398I-342J-1254D01*
G03X440841Y86809I-399J24D01*
G02X440378Y86722I-841J3191D01*
G03X440053Y86173I46J-397D01*
G02X438051Y86706I-1203J-493D01*
G03X438042Y87343I-246J316D01*
G02X440164Y93296I1958J2657D01*
G03X440580Y93746I20J400D01*
G02X440592Y94147I1290J164D01*
G37*
G36*
G01X370937Y90256D02*
G03X370989Y89682I302J-262D01*
G02X368363Y89444I-1189J-1482D01*
G03X368311Y90018I-302J262D01*
G02X370937Y90256I1189J1482D01*
G37*
G36*
G01X399244Y98254D02*
G03X399785Y98052I367J159D01*
G02X398866Y95586I825J-1712D01*
G03X398325Y95788I-367J-159D01*
G02X399244Y98254I-825J1712D01*
G37*
G36*
G01X204900Y103498D02*
G03X205324Y103098I400J0D01*
G02X204150Y101441I76J-1298D01*
G03X203633Y101708I-384J-110D01*
G02X204900Y103498I-633J1792D01*
G37*
G36*
G01X72441Y103466D02*
G03X72224Y103613I-193J-52D01*
G02X72266Y107381I-224J1887D01*
G03X72717Y107712I56J396D01*
G02X75297Y107587I1283J-212D01*
G03X75497Y107400I200J13D01*
G02X75766Y107381I3J-1900D01*
G03X76217Y107712I56J396D01*
G02X78797Y107587I1283J-212D01*
G03X78997Y107400I200J13D01*
G02Y103600I3J-1900D01*
G03X78797Y103413I0J-200D01*
G02X76217Y103288I-1297J87D01*
G03X75766Y103619I-395J-65D01*
G02X75183Y103626I-266J1881D01*
G03X74956Y103479I-33J-197D01*
G02X72441Y103466I-1259J324D01*
G37*
G36*
G01X222132Y107864D02*
G03Y107202I225J-331D01*
G02X219445Y104360I-1115J-1638D01*
G03X219168Y104400I-159J-122D01*
G02X216656Y107456I-1168J1601D01*
G03Y108044I-271J294D01*
G02X219370Y110932I1344J1456D01*
G03X219646Y110932I138J145D01*
G02X222132Y107864I1371J-1430D01*
G37*
G36*
G01X469319Y110050D02*
G03X469832Y109787I383J116D01*
G02X468631Y107440I618J-1797D01*
G03X468118Y107703I-383J-116D01*
G02X466842Y107717I-618J1797D01*
G03X466321Y107456I-138J-375D01*
G02X465158Y109783I-1821J544D01*
G03X465679Y110044I138J375D01*
G02X469319Y110050I1821J-544D01*
G37*
G36*
G01X203550Y111599D02*
G03X203824Y111549I163J116D01*
G02X203326Y108867I1052J-1582D01*
G03X203052Y108918I-163J-116D01*
G02X203550Y111599I-1052J1582D01*
G37*
G36*
G01X648261Y109059D02*
G03X647739I-261J-303D01*
G02X645267Y111946I-1239J1441D01*
G03Y112554I-260J304D01*
G02X647739Y115441I1233J1446D01*
G03X648261I261J303D01*
G02X650733Y112554I1239J-1441D01*
G03Y111946I260J-304D01*
G02X648261Y109059I-1233J-1446D01*
G37*
G36*
G01X672218Y113960D02*
G03X672259Y113364I286J-280D01*
G02X669742Y113188I-1159J-1506D01*
G03X669701Y113784I-286J280D01*
G02X672218Y113960I1159J1506D01*
G37*
G36*
G01X372348Y117125D02*
G03X372465Y117713I-201J346D01*
G02X374152Y117375I1035J787D01*
G03X374035Y116787I201J-346D01*
G02X373874Y115038I-1035J-787D01*
G03X373802Y114534I269J-296D01*
G02X371816Y114822I-1112J-674D01*
G03X371888Y115326I-269J296D01*
G02X372348Y117125I1112J674D01*
G37*
G36*
G01X67085Y116424D02*
G03X66983Y115921I249J-313D01*
G02X64727Y115972I-1143J-621D01*
G03X64648Y116480I-342J207D01*
G02X67085Y116424I1252J1430D01*
G37*
G36*
G01X672217Y131844D02*
G03X672325Y131196I279J-286D01*
G02X670183Y130840I-815J-1716D01*
G03X670075Y131487I-279J286D01*
G02X669601Y134600I815J1716D01*
G03X669577Y135209I-271J294D01*
G02X672039Y135307I1173J1495D01*
G03X672063Y134698I271J-294D01*
G02X672217Y131844I-1173J-1495D01*
G37*
G36*
G01X57822Y133384D02*
G03X57161I-331J-225D01*
G02X54408Y136136I-1638J1115D01*
G03Y136798I-225J331D01*
G02X57161Y139550I1115J1638D01*
G03X57822I331J225D01*
G02X60575Y136798I1638J-1115D01*
G03Y136136I225J-331D01*
G02X57822Y133384I-1115J-1638D01*
G37*
G36*
G01X548290Y159832D02*
G03X548302Y159255I283J-283D01*
G02X546500Y159218I-882J-955D01*
G03X546488Y159795I-283J283D01*
G02X548290Y159832I882J955D01*
G37*
G36*
G01X52758Y161407D02*
G03X53338Y161348I317J243D01*
G02X53077Y158758I1247J-1433D01*
G03X52497Y158817I-317J-243D01*
G02X52758Y161407I-1247J1433D01*
G37*
G36*
G01X61697Y168278D02*
G03X61176Y168104I-169J-363D01*
G02X60303Y170722I-1676J896D01*
G03X60824Y170896I169J363D01*
G02X61697Y168278I1676J-896D01*
G37*
G36*
G01X89090Y178327D02*
G03X88481Y178309I-297J-268D01*
G02X88410Y180773I-1481J1191D01*
G03X89019Y180791I297J268D01*
G02X89090Y178327I1481J-1191D01*
G37*
G36*
G01X496848Y184321D02*
G03X496872Y183672I246J-316D01*
G02X494652Y183589I-1052J-1582D01*
G03X494628Y184238I-246J316D01*
G02X496848Y184321I1052J1582D01*
G37*
G36*
G01X491345Y206469D02*
G03X491295Y205880I244J-317D01*
G02X489190Y206353I-1395J-1290D01*
G03X489397Y206906I-149J371D01*
G02X491345Y206469I1157J594D01*
G37*
G36*
G01X95193Y213012D02*
G03X95234Y212445I302J-263D01*
G02X92567Y212248I-1234J-1445D01*
G03X92526Y212815I-302J263D01*
G02X95193Y213012I1234J1445D01*
G37*
G36*
G01X633261Y216059D02*
G03X632739I-261J-303D01*
G02Y218941I-1239J1441D01*
G03X633261I261J303D01*
G02X635739I1239J-1441D01*
G03X636261I261J303D01*
G02Y216059I1239J-1441D01*
G03X635739I-261J-303D01*
G02X633261I-1239J1441D01*
G37*
G36*
G01X626810Y225423D02*
G03X626789Y224865I276J-290D01*
G02X624070Y224967I-1409J-1275D01*
G03X624091Y225525I-276J290D01*
G02X626810Y225423I1409J1275D01*
G37*
G36*
G01X619069Y260963D02*
G03X618489Y260926I-273J-293D01*
G02X618211Y263632I-1459J1217D01*
G03X618786Y263714I249J313D01*
G02X619069Y260963I1714J-1214D01*
G37*
G36*
G01X628182Y267341D02*
G03X627903Y267318I-128J-154D01*
G02X627800Y270170I-1591J1371D01*
G03X628081Y270167I142J141D01*
G02X630496Y270352I1319J-1367D01*
G03X631018Y270404I231J327D01*
G02X631304Y267548I1382J-1304D01*
G03X630782Y267496I-231J-327D01*
G02X628182Y267341I-1382J1304D01*
G37*
G36*
G01X643042Y278680D02*
G03X642598Y278199I-53J-396D01*
G02X640991Y279684I-1858J-399D01*
G03X641435Y280164I53J396D01*
G02X643042Y278680I1858J399D01*
G37*
G36*
G01X631300Y280037D02*
G03X631830Y279666I400J8D01*
G02X630550Y277833I620J-1796D01*
G03X630020Y278204I-400J-8D01*
G02X628918Y278162I-620J1796D01*
G03X628418Y277820I-102J-387D01*
G02X627012Y279869I-1888J212D01*
G03X627512Y280212I102J387D01*
G02X627523Y280297I1888J-212D01*
G03X627064Y280754I-395J63D01*
G02X628637Y282333I-304J1876D01*
G03X629096Y281876I395J-63D01*
G02X629728Y281872I304J-1876D01*
G03X630190Y282340I69J394D01*
G02X631730Y280818I1868J350D01*
G03X631268Y280350I-69J-394D01*
G02X631300Y280037I-1868J-350D01*
G37*
G36*
G01X68539Y284004D02*
G03X68531Y284644I-244J317D01*
G02X70811Y284676I1119J1536D01*
G03X70819Y284036I244J-317D01*
G02X68539Y284004I-1119J-1536D01*
G37*
G36*
G01X612245Y282756D02*
G03X611713Y282533I-159J-367D01*
G02X610659Y284291I-1213J467D01*
G03X611106Y284655I49J397D01*
G02X612245Y282756I1894J-155D01*
G37*
G36*
G01X594938Y301509D02*
G03X594915Y300900I248J-314D01*
G02X592452Y300991I-1285J-1400D01*
G03X592475Y301600I-248J314D01*
G02X594938Y301509I1285J1400D01*
G37*
G36*
G01X554388Y300390D02*
G03X553828Y300333I-251J-311D01*
G02X553552Y303020I-1468J1207D01*
G03X554112Y303077I251J311D01*
G02X554388Y300390I1468J-1207D01*
G37*
G36*
G01X69546Y309522D02*
G03Y308904I254J-309D01*
G02X64391I-2578J-3136D01*
G03Y309522I-254J309D01*
G02X62938Y313139I2578J3136D01*
G03X62541Y313586I-397J47D01*
G01X55102D01*
Y314901D01*
G03X54385Y315145I-400J0D01*
G02Y320013I-3165J2434D01*
G03X55102Y320257I317J244D01*
G01Y321571D01*
X63087D01*
Y315444D01*
G03X63799Y315194I400J0D01*
G02X69546Y309522I3169J-2536D01*
G37*
G36*
G01X554561Y310079D02*
G03X553953Y310075I-303J-261D01*
G02X553939Y312541I-1453J1225D01*
G03X554547Y312545I303J261D01*
G02X554561Y310079I1453J-1225D01*
G37*
G36*
G01X569773Y312183D02*
G03X569227I-273J-293D01*
G02X566683Y314727I-1227J1317D01*
G03Y315273I-293J273D01*
G02Y317727I1317J1227D01*
G03Y318273I-293J273D01*
G02X569227Y320817I1317J1227D01*
G03X569773I273J293D01*
G02X572227I1227J-1317D01*
G03X572773I273J293D01*
G02X575317Y318273I1227J-1317D01*
G03Y317727I293J-273D01*
G02Y315273I-1317J-1227D01*
G03Y314727I293J-273D01*
G02X572773Y312183I-1317J-1227D01*
G03X572227I-273J-293D01*
G02X569773I-1227J1317D01*
G37*
G36*
G01X135666Y325098D02*
G03X135683Y324487I266J-298D01*
G02X133234Y324417I-1183J-1487D01*
G03X133217Y325029I-266J298D01*
G02X133118Y327918I1183J1487D01*
G02X133083Y330470I1390J1295D01*
G03X133082Y330735I-150J132D01*
G02X135926Y330744I1418J1265D01*
G03X135927Y330478I150J-132D01*
G02X135790Y327811I-1418J-1265D01*
G02X135666Y325098I-1390J-1295D01*
G37*
G36*
G01X123170Y325530D02*
G03Y324970I286J-280D01*
G02X120170I-1500J-1470D01*
G03Y325530I-286J280D01*
G02X123170I1500J1470D01*
G37*
G36*
G01X110916Y324970D02*
G03X110929Y325579I-253J310D01*
G02X113394Y325530I1262J1421D01*
G03X113382Y324921I253J-310D01*
G02X110916Y324970I-1262J-1421D01*
G37*
G36*
G01X55479Y324754D02*
G03X54836I-322J-238D01*
G02Y330088I-3615J2667D01*
G03X55479I322J238D01*
G02Y324754I3615J-2667D01*
G37*
G36*
G01X69546Y336096D02*
G03Y335478I254J-309D01*
G02X64391I-2578J-3136D01*
G03Y336096I-254J309D01*
G02X69546I2578J3136D01*
G37*
G36*
G01X123300Y341630D02*
G03Y341070I286J-280D01*
G02X120300I-1500J-1470D01*
G03Y341630I-286J280D01*
G02X123300I1500J1470D01*
G37*
G36*
G01X110777Y340928D02*
G03X110768Y341537I-264J301D01*
G02X113234Y341572I1212J1463D01*
G03X113242Y340963I264J-301D01*
G02X110777Y340928I-1212J-1463D01*
G37*
G36*
G01X347796Y376265D02*
G03X347970Y376874I-148J372D01*
G02X350204Y376235I1530J1126D01*
G03X350030Y375626I148J-372D01*
G02X350308Y373916I-1530J-1127D01*
G03X350656Y373394I381J-123D01*
G02X348692Y372084I-156J-1894D01*
G03X348344Y372606I-381J123D01*
G02X347796Y376265I156J1894D01*
G37*
G36*
G01X226695Y355984D02*
G03X227260Y355940I304J260D01*
G02X227055Y353266I1240J-1440D01*
G03X226490Y353310I-304J-260D01*
G02X226695Y355984I-1240J1440D01*
G37*
G36*
G01X258113Y346995D02*
G03X258200Y346474I340J-211D01*
G02X255387Y346005I-1200J-1474D01*
G03X255300Y346526I-340J211D01*
G02Y349474I1200J1473D01*
G03X255387Y349995I-253J310D01*
G02X258200Y349526I1613J1005D01*
G03X258113Y349005I253J-310D01*
G02Y346995I-1613J-1005D01*
G37*
G36*
G01X189449Y345526D02*
G03X189436Y344918I252J-310D01*
G02X186971Y344974I-1266J-1417D01*
G03X186984Y345582I-252J310D01*
G02X189449Y345526I1266J1417D01*
G37*
G36*
G01X213924Y342534D02*
G03X214554Y342519I321J239D01*
G02X214496Y340176I1466J-1209D01*
G03X213866Y340191I-321J-239D01*
G02X213924Y342534I-1466J1209D01*
G37*
G36*
G01X222458Y340015D02*
G03X221942Y339854I-170J-362D01*
G02X221107Y342530I-1642J956D01*
G03X221623Y342691I170J362D01*
G02X222458Y340015I1642J-956D01*
G37*
G36*
G01X290904Y323948D02*
G03X290382Y323896I-231J-327D01*
G02X287817Y326687I-1382J1304D01*
G03Y327313I-249J313D01*
G02X290183I1183J1487D01*
G03Y326687I249J-313D01*
G02X290226Y326652I-1184J-1486D01*
G03X290511Y326681I129J153D01*
G02X290904Y323948I1489J-1181D01*
G37*
G36*
G01X178340Y318617D02*
G03X177794Y318578I-253J-310D01*
G02X177600Y321343I-1394J1291D01*
G03X178146Y321382I253J310D01*
G02X178340Y318617I1394J-1291D01*
G37*
G36*
G01X198148Y281554D02*
G03X198346Y280984I347J-199D01*
G02X195992Y280166I-706J-1764D01*
G03X195794Y280736I-347J199D01*
G02X198148Y281554I706J1764D01*
G37*
G36*
G01X198920Y269565D02*
G03X198872Y268960I236J-323D01*
G02X196402Y269157I-1349J-1338D01*
G03X196451Y269762I-236J323D01*
G02X198920Y269565I1349J1338D01*
G37*
G36*
G01X167889Y253415D02*
G03X168469Y253150I390J87D01*
G02X167518Y251063I903J-1672D01*
G03X166937Y251328I-390J-87D01*
G02X167889Y253415I-903J1672D01*
G37*
G36*
G01X171385Y218682D02*
G03X171027Y218146I18J-400D01*
G02X169155Y219398I-1787J-646D01*
G03X169513Y219934I-18J400D01*
G02X171385Y218682I1787J646D01*
G37*
G36*
G01X156577Y181169D02*
G03X156987Y181501I16J400D01*
G02X160752Y181360I1873J-321D01*
G03X160957Y181179I199J19D01*
G02X159128Y179100I63J-1899D01*
G03X158923Y179281I-199J-19D01*
G02X158783Y179281I-63J1899D01*
G03X158373Y178949I-16J-400D01*
G02X156577Y181169I-1873J321D01*
G37*
G36*
G01X319939Y368152D02*
G02X318061I-939J-1652D01*
G03Y368848I-198J348D01*
G02X319939I939J1652D01*
G03Y368152I198J-348D01*
G37*
G36*
G01X258372Y356006D02*
G02X255472Y358348I-1682J884D01*
G03Y358962I-257J307D01*
G02X257116Y362272I1218J1458D01*
G03X257604Y362634I90J390D01*
G02X259074Y360648I1896J-134D01*
G03X258586Y360286I-90J-390D01*
G02X257908Y358962I-1896J134D01*
G03Y358348I257J-307D01*
G02X258321Y357865I-1219J-1458D01*
G03X259018Y357884I343J205D01*
G02X259069Y356025I1682J-884D01*
G03X258372Y356006I-343J-205D01*
G37*
G36*
G01X209269Y350218D02*
G02X208536Y351685I-1269J282D01*
G03X209100Y352041I165J364D01*
G02X210268Y353754I1900J-41D01*
G03X210356Y354442I-154J369D01*
G02X211678Y357851I1144J1517D01*
G03X212113Y358296I37J398D01*
G02X213822Y356626I1887J222D01*
G03X213387Y356181I-37J-398D01*
G02Y355737I-1887J-222D01*
G03X213822Y355292I397J-47D01*
G02X213319Y351626I178J-1892D01*
G03X212797Y351383I-143J-373D01*
G02X209893Y350456I-1797J617D01*
G03X209269Y350218I-233J-325D01*
G37*
G36*
G01X165821Y343956D02*
G02X164658Y346283I-1821J544D01*
G03X165179Y346544I138J375D01*
G02X168545Y347107I1821J-544D01*
G03X169206Y347123I325J233D01*
G02X169258Y344985I1596J-1031D01*
G03X168596Y344969I-325J-233D01*
G02X166342Y344217I-1596J1031D01*
G03X165821Y343956I-138J-375D01*
G37*
G36*
G01X235889Y339732D02*
G02X234811Y338395I781J-1732D01*
G03X234256Y338843I-391J83D01*
G02X231578Y340685I-781J1732D01*
G03X231212Y341106I-399J23D01*
G02X230440Y341343I158J1894D01*
G03X229854Y341082I-196J-349D01*
G02X228930Y343157I-1854J418D01*
G03X229516Y343418I196J349D01*
G02X233267Y342890I1854J-418D01*
G03X233633Y342469I399J-23D01*
G02X235334Y340180I-158J-1894D01*
G03X235889Y339732I391J-83D01*
G37*
G36*
G01X222571Y330123D02*
G02X222457Y332015I-1701J847D01*
G03X223149Y332057I334J220D01*
G02X223263Y330165I1701J-847D01*
G03X222571Y330123I-334J-220D01*
G37*
G36*
G01X235511Y326153D02*
G02X232985Y326606I-1511J-1153D01*
G03X233089Y327187I-214J338D01*
G02X232785Y328903I1511J1153D01*
G03X232531Y329400I-382J118D01*
G02X231505Y330232I609J1800D01*
G03X230820Y330237I-344J-204D01*
G02X230835Y332198I-1620J993D01*
G03X231520Y332193I344J204D01*
G02X234955Y330637I1620J-993D01*
G03X235209Y330140I382J-118D01*
G02X235615Y326734I-609J-1800D01*
G03X235511Y326153I214J-338D01*
G37*
G36*
G01X268483Y321937D02*
G02X267121Y320394I517J-1828D01*
G03X266617Y320839I-395J60D01*
G02X267979Y322382I-517J1828D01*
G03X268483Y321937I395J-60D01*
G37*
G36*
G01X216648Y296090D02*
G02X216600Y297993I-1668J910D01*
G03X217292Y298010I341J209D01*
G02X220422Y298314I1668J-910D01*
G03X221037Y298313I308J256D01*
G02X223985Y298274I1458J-1218D01*
G03X224623Y298287I314J248D01*
G02X224670Y295991I1537J-1117D01*
G03X224032Y295978I-314J-248D01*
G02X221033Y295881I-1537J1117D01*
G03X220418Y295882I-308J-256D01*
G02X217340Y296107I-1458J1218D01*
G03X216648Y296090I-341J-209D01*
G37*
G36*
G01X173740Y296645D02*
G02X173673Y294927I1660J-925D01*
G03X172960Y294955I-364J-167D01*
G02X173027Y296673I-1660J925D01*
G03X173740Y296645I364J167D01*
G37*
G36*
G01X141437Y230498D02*
G02X139618Y231350I-1594J-1035D01*
G03X139906Y231965I-47J397D01*
G02X141725Y231113I1594J1035D01*
G03X141437Y230498I47J-397D01*
G37*
G36*
G01X140899Y183946D02*
G02X139331Y185871I-1899J54D01*
G03X139801Y186254I70J394D01*
G02X143372Y187102I1899J-54D01*
G03X144086Y187119I352J190D01*
G02X144128Y185398I1715J-819D01*
G03X143414Y185381I-352J-190D01*
G02X141369Y184329I-1714J819D01*
G03X140899Y183946I-70J-394D01*
G37*
G36*
G01X231864Y163634D02*
G02X231232Y162215I636J-1134D01*
G03X230646Y162476I-390J-88D01*
G02X231278Y163895I-636J1134D01*
G03X231864Y163634I390J88D01*
G37*
G36*
G01X186396Y167676D02*
G02X183778Y166803I-896J-1676D01*
G03X183604Y167324I-363J169D01*
G02X185956Y170222I896J1676D01*
G03X186648Y170373I306J257D01*
G02X187024Y168648I1832J-503D01*
G03X186332Y168497I-306J-257D01*
G02X186222Y168197I-1832J503D01*
G03X186396Y167676I363J-169D01*
G37*
G36*
G01X225509Y224621D02*
G02X224600Y223031I991J-1621D01*
G03X223991Y223379I-400J7D01*
G02X224900Y224969I-991J1621D01*
G03X225509Y224621I400J-7D01*
G37*
G36*
G01X215607Y224386D02*
G02Y226414I-1607J1014D01*
G03X216284I338J213D01*
G02Y224386I1607J-1014D01*
G03X215607I-338J-213D01*
G37*
G36*
G01X297439Y243652D02*
G02X295561I-939J-1652D01*
G03Y244348I-198J348D01*
G02X297439I939J1652D01*
G03Y243652I198J-348D01*
G37*
G36*
G01X242852Y256765D02*
G02X239382Y258257I-1652J939D01*
G03X238906Y258763I-383J117D01*
G02X240278Y260056I-446J1847D01*
G03X240754Y259550I383J-117D01*
G02X242852Y258642I446J-1847D01*
G03X243548I348J198D01*
G02X246852I1652J-939D01*
G03X247548I348J198D01*
G02Y256765I1652J-939D01*
G03X246852I-348J-198D01*
G02X243548I-1652J939D01*
G03X242852I-348J-198D01*
G37*
G36*
G01X232291Y264197D02*
G02X232170Y262221I1559J-1087D01*
G03X231489Y262263I-354J-187D01*
G02X231610Y264239I-1559J1087D01*
G03X232291Y264197I354J187D01*
G37*
G36*
G01X248299Y180570D02*
G03X247575I-362J-171D01*
G02X242314Y185831I-3575J1686D01*
G03Y186555I-171J362D01*
G02Y193705I1686J3575D01*
G03Y194429I-171J362D01*
G02X242314Y201579I1686J3575D01*
G03Y202303I-171J362D01*
G02X242314Y209453I1686J3575D01*
G03Y210177I-171J362D01*
G02Y217327I1686J3575D01*
G03Y218051I-171J362D01*
G02Y225201I1686J3575D01*
G03Y225925I-171J362D01*
G02X247575Y231186I1686J3575D01*
G03X248299I362J171D01*
G02X253560Y225925I3575J-1686D01*
G03Y225201I171J-362D01*
G02X254035Y218316I-1686J-3575D01*
G03X254058Y217633I219J-335D01*
G02Y209871I-2184J-3881D01*
G03X254035Y209188I196J-349D01*
G02X253560Y202303I-2161J-3310D01*
G03Y201579I171J-362D01*
G02X253560Y194429I-1686J-3575D01*
G03Y193705I171J-362D01*
G02Y186555I-1686J-3575D01*
G03Y185831I171J-362D01*
G02X248299Y180570I-1686J-3575D01*
G37*
G36*
G01X267739Y192615D02*
G03X267392Y192180I50J-397D01*
G02X265261Y193885I-1892J-180D01*
G03X265608Y194320I-50J397D01*
G02X267739Y192615I1892J180D01*
G37*
G36*
G01X236042Y220215D02*
G03X235773Y219684I104J-386D01*
G02X233508Y220835I-1773J-684D01*
G03X233777Y221366I-104J386D01*
G02X236042Y220215I1773J684D01*
G37*
G36*
G01X233622Y251591D02*
G03Y251003I271J-294D01*
G02X230935I-1344J-1456D01*
G03Y251591I-271J294D01*
G02X233622I1344J1456D01*
G37*
G36*
G01X294663Y254582D02*
G03X295278Y254455I358J179D01*
G02X294649Y252570I1222J-1455D01*
G03X294081Y252837I-390J-91D01*
G02X294663Y254582I-581J1163D01*
G37*
G36*
G01X258663Y257582D02*
G03X259278Y257455I358J179D01*
G02X258649Y255570I1222J-1455D01*
G03X258081Y255837I-390J-91D01*
G02X258663Y257582I-581J1163D01*
G37*
G36*
G01X223988Y288404D02*
G03X224584Y288263I357J180D01*
G02X224022Y285886I1136J-1523D01*
G03X223426Y286027I-357J-180D01*
G02X223988Y288404I-1136J1523D01*
G37*
G36*
G01X311028Y326416D02*
G03X311327Y325908I383J-117D01*
G02X309112Y324604I-397J-1858D01*
G03X308813Y325112I-383J117D01*
G02X311028Y326416I397J1858D01*
G37*
G36*
G01X437902Y152683D02*
G02X434398Y151225I-1792J-633D01*
G03X433712Y151283I-360J-174D01*
G02X433935Y153318I-1712J1217D01*
G03X434617Y153226I368J156D01*
G02X436706Y153854I1493J-1176D01*
G03X437208Y154367I125J380D01*
G02X438404Y153196I1792J633D01*
G03X437902Y152683I-125J-380D01*
G37*
G36*
G01X339556Y153450D02*
G02X336442Y154287I-1296J1390D01*
G03X335810Y154483I-383J-116D01*
G02X333875Y154848I-810J1017D01*
G03X333287Y154965I-346J-201D01*
G02X333625Y156653I-787J1035D01*
G03X334213Y156535I346J201D01*
G02X336142Y156122I787J-1035D01*
G03X336800Y156057I351J191D01*
G02X339881Y155832I1460J-1217D01*
G03X340381Y155673I341J209D01*
G02X340080Y153469I516J-1193D01*
G03X339556Y153450I-251J-311D01*
G37*
G36*
G01X328857Y154900D02*
G02X328849Y153676I1143J-620D01*
G03X328143Y153680I-354J-186D01*
G02X328151Y154904I-1143J620D01*
G03X328857Y154900I354J186D01*
G37*
G36*
G01X314615Y165039D02*
G02X312798Y165266I-1115J-1539D01*
G03X312885Y165961I-148J372D01*
G02X314702Y165734I1115J1539D01*
G03X314615Y165039I148J-372D01*
G37*
G36*
G01X440011Y174650D02*
G02X438306Y174537I-741J-1750D01*
G03X438259Y175250I-203J345D01*
G02X439964Y175363I741J1750D01*
G03X440011Y174650I203J-345D01*
G37*
G36*
G01X467456Y183608D02*
G02X467306Y181640I1544J-1108D01*
G03X466624Y181692I-357J-181D01*
G02X466774Y183660I-1544J1108D01*
G03X467456Y183608I357J181D01*
G37*
G36*
G01X465439Y198652D02*
G02X463561I-939J-1652D01*
G03Y199348I-198J348D01*
G02X463267Y202446I939J1652D01*
G03Y203054I-260J304D01*
G02X465733I1233J1446D01*
G03Y202446I260J-304D01*
G02X465439Y199348I-1233J-1446D01*
G03Y198652I198J-348D01*
G37*
G36*
G01X297094Y202238D02*
G02Y203962I-1693J862D01*
G03X297806I357J181D01*
G02Y202238I1694J-862D01*
G03X297094I-357J-181D01*
G37*
G36*
G01X464289Y208169D02*
G02X462882Y209295I-1289J-169D01*
G03X463220Y209834I-36J398D01*
G02X464740Y208618I1779J666D01*
G03X464289Y208169I-55J-396D01*
G37*
G36*
G01X466389Y217204D02*
G02X465048Y218820I-1889J-204D01*
G03X465561Y219246I115J383D01*
G02X466902Y217630I1889J204D01*
G03X466389Y217204I-115J-383D01*
G37*
G36*
G01X528652Y336061D02*
G02Y337939I-1652J939D01*
G03X529348I348J198D01*
G02Y336061I1652J-939D01*
G03X528652I-348J-198D01*
G37*
G36*
G01X583867Y339911D02*
G02X583829Y338035I1633J-971D01*
G03X583133Y338049I-352J-190D01*
G02X583171Y339925I-1633J971D01*
G03X583867Y339911I352J190D01*
G37*
G36*
G01X613040Y342354D02*
G02X611848Y341760I-97J-1297D01*
G03X611542Y342375I-337J216D01*
G02X612733Y342969I97J1297D01*
G03X613040Y342354I337J-216D01*
G37*
G36*
G01X404159Y134509D02*
G03X403570Y134429I-259J-305D01*
G02Y136571I-1570J1071D01*
G03X404159Y136491I330J225D01*
G02Y134509I841J-991D01*
G37*
G36*
G01X309374Y147970D02*
G03X308765Y147796I-237J-322D01*
G02X308126Y150030I-1765J704D01*
G03X308735Y150204I237J322D01*
G02X311842Y150846I1765J-704D01*
G03X312423Y150864I282J283D01*
G02X312769Y148860I972J-863D01*
G03X312215Y148682I-193J-351D01*
G02X309374Y147970I-1715J818D01*
G37*
G36*
G01X460256Y152117D02*
G03X459910Y151722I54J-396D01*
G02X456140Y152065I-1900J8D01*
G03X455847Y152522I-394J70D01*
G02X457957Y155342I483J1838D01*
G03X458595Y155279I342J207D01*
G02X460256Y152117I1405J-1279D01*
G37*
G36*
G01X307680Y168123D02*
G03X308134Y167865I377J134D01*
G02X306710Y165362I366J-1865D01*
G03X306256Y165620I-377J-134D01*
G02X307680Y168123I-366J1865D01*
G37*
G36*
G01X451748Y177116D02*
G03X451400Y176716I52J-397D01*
G02X449252Y178584I-1900J-16D01*
G03X449600Y178984I-52J397D01*
G02X451748Y177116I1900J16D01*
G37*
G36*
G01X282383Y178246D02*
G03X281897Y177881I-88J-390D01*
G02X280417Y179854I-1896J119D01*
G03X280904Y180219I88J390D01*
G02X282383Y178246I1896J-119D01*
G37*
G36*
G01X295085Y186716D02*
G03X295337Y186646I167J110D01*
G02X294286Y184543I810J-1719D01*
G03X294078Y184702I-196J-40D01*
G02X295085Y186716I-78J1298D01*
G37*
G36*
G01X391145Y291629D02*
G03X391704Y291804I198J347D01*
G02X391996Y289544I1896J-904D01*
G03X391410Y289572I-306J-258D01*
G02X391145Y291629I-910J928D01*
G37*
G36*
G01X423602Y310105D02*
G03X423646Y309508I287J-279D01*
G02X421128Y309325I-1155J-1509D01*
G03X421084Y309922I-287J279D01*
G02X423602Y310105I1155J1509D01*
G37*
G36*
G01X565270Y336340D02*
G03X564944Y335828I57J-396D01*
G02X562428Y335718I-1244J-378D01*
G03X562028Y336200I-391J82D01*
G02X562635Y338635I-28J1300D01*
G03X563207Y338851I195J349D01*
G02X565270Y336340I1793J-630D01*
G37*
G36*
G01X368944Y347572D02*
G03X368414Y347553I-254J-309D01*
G02X365489Y347936I-1307J1379D01*
G03X364895Y348035I-341J-210D01*
G02X364964Y349984I-825J1005D01*
G03X365564Y350041I275J290D01*
G02X368314Y350400I1543J-1109D01*
G03X368843Y350419I254J309D01*
G02X368944Y347572I1307J-1379D01*
G37*
G36*
G01X363255Y338059D02*
G03X362700Y338053I-275J-291D01*
G02X359789Y338356I-1331J1357D01*
G03X359172Y338415I-333J-222D01*
G02X359401Y340804I-1352J1335D01*
G03X360018Y340745I333J222D01*
G02X362675Y340791I1352J-1335D01*
G03X363230Y340797I275J291D01*
G02X365816Y340866I1331J-1357D01*
G03X366096Y340881I132J150D01*
G02X366244Y338174I1404J-1281D01*
G03X365964Y338159I-132J-150D01*
G02X363255Y338059I-1404J1281D01*
G37*
G36*
G01X352895Y308258D02*
G03X352338Y308239I-269J-296D01*
G02X350411Y308296I-938J901D01*
G03X349809Y308303I-304J-260D01*
G02X349829Y310014I-969J867D01*
G03X350431Y310007I304J260D01*
G02X352275Y310102I969J-867D01*
G03X352832Y310121I269J296D01*
G02X352895Y308258I938J-901D01*
G37*
G36*
G01X327950Y310113D02*
G03X328171Y310586I-164J365D01*
G02X331543Y312209I1829J514D01*
G03X332192I325J234D01*
G02Y309991I1543J-1109D01*
G03X331543I-325J-234D01*
G02X330780Y309367I-1543J1109D01*
G03X330559Y308894I164J-365D01*
G02X327950Y310113I-1829J-514D01*
G37*
G36*
G01X366044Y306619D02*
G03X365456I-294J-271D01*
G02Y308381I-956J881D01*
G03X366044I294J271D01*
G02Y306619I956J-881D01*
G37*
G36*
G01X413570Y225092D02*
G03X413641Y225721I-208J341D01*
G02X415460Y225729I905J933D01*
G03X415535Y225101I281J-285D01*
G02X413570Y225092I-975J-1631D01*
G37*
G36*
G01X347087Y349458D02*
G02Y350682I-1147J612D01*
G03X347793I353J188D01*
G02Y349458I1147J-612D01*
G03X347087I-353J-188D01*
G37*
G36*
G01X362651Y310463D02*
G02X361602Y311726I-1843J-463D01*
G03X362157Y312187I167J363D01*
G02X365204Y314120I1843J463D01*
G03X365744Y314151I253J309D01*
G02X365904Y311357I1363J-1324D01*
G03X365363Y311326I-253J-309D01*
G02X363206Y310924I-1363J1324D01*
G03X362651Y310463I-167J-363D01*
G37*
G36*
G01X361121Y273500D02*
X330379D01*
X329000Y274879D01*
Y275377D01*
X328634D01*
X328603Y275214D01*
G02X328290Y276447I-1473J282D01*
G03X329000Y276700I309J254D01*
G01Y285121D01*
X329927Y286048D01*
G03X329936Y286321I-141J141D01*
G02X329569Y287222I1131J986D01*
G03X329170Y287600I-399J-23D01*
G01X329027D01*
G03X328628Y287222I0J-400D01*
G02X326029Y288326I-1498J85D01*
G03X326018Y288880I-294J272D01*
G01X325250Y289649D01*
Y298181D01*
X328369Y301300D01*
X340721D01*
X345100Y296921D01*
Y296621D01*
X346165Y295556D01*
G03X346805Y295659I283J283D01*
G02X350266Y295500I1695J-859D01*
G01X356734D01*
G02X360165Y295716I1766J-700D01*
G03X360859Y295704I351J193D01*
G02X363915Y293472I1633J-972D01*
G03X363923Y293198I150J-133D01*
G01X365500Y291621D01*
Y277879D01*
X363869Y276247D01*
X363927Y276121D01*
G02X361938Y274132I-1364J-625D01*
G01X361812Y274190D01*
X361121Y273500D01*
G37*
G36*
G01X427233Y198946D02*
G02X424136Y197129I-1233J-1446D01*
G03X423502Y197369I-392J-78D01*
G02X424250Y198914I-1152J1511D01*
G03X424598Y198782I200J4D01*
G02X424767Y198946I1403J-1282D01*
G03Y199554I-260J304D01*
G02X427233I1233J1446D01*
G03Y198946I260J-304D01*
G37*
G36*
G01X426164Y181230D02*
G02X424423Y181015I-664J-1780D01*
G03X424336Y181720I-227J329D01*
G02X426077Y181935I664J1780D01*
G03X426164Y181230I227J-329D01*
G37*
G36*
G01X377399Y339250D02*
G03X376790Y339258I-308J-255D01*
G02X373970Y339214I-1430J1251D01*
G03X373404Y339234I-293J-273D01*
G02X373497Y341918I-1297J1389D01*
G03X374063Y341899I293J273D01*
G02X377081Y341316I1297J-1389D01*
G03X377668Y341155I362J170D01*
G02X377399Y339250I732J-1075D01*
G37*
G36*
G01X359239Y161882D02*
G02X357696Y160596I261J-1882D01*
G03X357261Y161118I-380J126D01*
G02X358804Y162404I-261J1882D01*
G03X359239Y161882I380J-126D01*
G37*
G36*
G01X471659Y385454D02*
G03X471051Y385401I-282J-283D01*
G02X470841Y387846I-1550J1099D01*
G03X471450Y387899I282J283D01*
G02X471659Y385454I1550J-1099D01*
G37*
G36*
G01X438530Y384850D02*
G03X437970I-280J-286D01*
G02X434724Y385230I-1470J1500D01*
G03X434212Y385377I-338J-213D01*
G02X432161Y388540I-822J1713D01*
G03X432181Y389133I-259J305D01*
G02X434729Y389050I1319J1367D01*
G03X434710Y388457I259J-305D01*
G02X434896Y388249I-1320J-1367D01*
G03X435418Y388150I317J244D01*
G02X437970Y387850I1081J-1800D01*
G03X438530I280J286D01*
G02Y384850I1470J-1500D01*
G37*
G36*
G01X485733Y382054D02*
G03Y381446I260J-304D01*
G02X483267I-1233J-1446D01*
G03Y382054I-260J304D01*
G02X485733I1233J1446D01*
G37*
G36*
G01X416450Y381228D02*
G03X417058Y381226I305J259D01*
G02X417050Y378760I1442J-1238D01*
G03X416442Y378762I-305J-259D01*
G02X416450Y381228I-1442J1238D01*
G37*
G36*
G01X438402Y330999D02*
G02X436499Y332902I-1225J678D01*
G03Y333602I-194J350D01*
G02Y336052I678J1225D01*
G03Y336752I-194J350D01*
G02X438402Y338655I678J1225D01*
G03X439102I350J194D01*
G02X439648Y339201I1225J-678D01*
G03Y339901I-194J350D01*
G02Y342351I678J1225D01*
G03Y343051I-194J350D01*
G02X439102Y343597I678J1225D01*
G03X438402I-350J-194D01*
G02Y344954I-1225J678D01*
G03X439102I350J194D01*
G02X441552I1225J-678D01*
G03X442252I350J194D01*
G02X444701I1225J-678D01*
G03X445401I350J194D01*
G02X447851I1225J-678D01*
G03X448551I350J194D01*
G02X451001I1225J-678D01*
G03X451700I350J194D01*
G02X453604Y343051I1225J-678D01*
G03Y342351I194J-350D01*
G02Y339901I-678J-1225D01*
G03Y339201I194J-350D01*
G02Y336752I-678J-1225D01*
G03Y336052I194J-350D01*
G02Y333602I-678J-1225D01*
G03Y332902I194J-350D01*
G02X452247I-678J-1225D01*
G03Y333602I-194J350D01*
G02X451700Y334148I678J1225D01*
G03X451001I-350J-194D01*
G02X448551I-1225J678D01*
G03X447851I-350J-194D01*
G02X447304Y333602I-1225J678D01*
G03Y332902I194J-350D01*
G02X445401Y330999I-678J-1225D01*
G03X444701I-350J-194D01*
G02X442252I-1225J678D01*
G03X441552I-350J-194D01*
G02X439102I-1225J678D01*
G03X438402I-350J-194D01*
G37*
G36*
G01X463599D02*
G02X461696Y332902I-1225J678D01*
G03Y333602I-194J350D01*
G02X461149Y334148I678J1225D01*
G03X460449I-350J-194D01*
G02X458546Y336052I-1225J678D01*
G03Y336752I-194J350D01*
G02Y339201I678J1225D01*
G03Y339901I-194J350D01*
G02Y342351I678J1225D01*
G03Y343051I-194J350D01*
G02X460449Y344954I678J1225D01*
G03X461149I350J194D01*
G02X463599I1225J-678D01*
G03X464299I350J194D01*
G02X466748I1225J-678D01*
G03X467448I350J194D01*
G02X469898I1225J-678D01*
G03X470598I350J194D01*
G02X472501Y343051I1225J-678D01*
G03Y342351I194J-350D01*
G02X470598Y340448I-678J-1225D01*
G03X469898I-350J-194D01*
G02X469352Y339901I-1225J678D01*
G03Y339201I194J-350D01*
G02Y336752I-678J-1225D01*
G03Y336052I194J-350D01*
G02X469898Y335505I-678J-1225D01*
G03X470598I350J194D01*
G02X472501Y333602I1225J-678D01*
G03Y332902I194J-350D01*
G02X470598Y330999I-678J-1225D01*
G03X469898I-350J-194D01*
G02X467448I-1225J678D01*
G03X466748I-350J-194D01*
G02X464299I-1225J678D01*
G03X463599I-350J-194D01*
G37*
G36*
G01X388446Y368267D02*
G02X386061Y371152I-1446J1233D01*
G03Y371848I-198J348D01*
G02X388280Y374904I939J1652D01*
G03X388820I270J296D01*
G02X391185Y371940I1280J-1404D01*
G03X391254Y371244I228J-328D01*
G02X389054Y368267I-754J-1744D01*
G03X388446I-304J-260D01*
G37*
G36*
G01X451230Y384576D02*
G02X449770I-730J-1076D01*
G03X449712Y385271I-225J331D01*
G02X448608Y387172I788J1729D01*
G03X448176Y387607I-398J36D01*
G02X446530Y388200I-176J2093D01*
G03X445970I-280J-286D01*
G02Y391200I-1470J1500D01*
G03X446530I280J286D01*
G02X450073Y389364I1470J-1500D01*
G03X450474Y388900I395J-64D01*
G02X451288Y385271I26J-1900D01*
G03X451230Y384576I166J-364D01*
G37*
G36*
G01X460449Y349896D02*
G02X458546Y351800I-1225J678D01*
G03Y352500I-194J350D01*
G02X460449Y354403I678J1225D01*
G03X461149I350J194D01*
G02X461696Y354949I1225J-678D01*
G03Y355649I-194J350D01*
G02Y358099I678J1225D01*
G03Y358799I-194J350D01*
G02X461149Y359345I678J1225D01*
G03X460449I-350J-194D01*
G02X458546Y361249I-1225J678D01*
G03Y361948I-194J350D01*
G02X460449Y363852I678J1225D01*
G03X461149I350J194D01*
G02X461696Y364398I1225J-678D01*
G03Y365098I-194J350D01*
G02X463599Y367001I678J1225D01*
G03X464299I350J194D01*
G02X466748I1225J-678D01*
G03X467448I350J194D01*
G02Y365644I1225J-678D01*
G03X466748I-350J-194D01*
G02X466202Y365098I-1225J678D01*
G03Y364398I194J-350D01*
G02X464299Y362495I-678J-1225D01*
G03X463599I-350J-194D01*
G02X463052Y361948I-1225J678D01*
G03Y361249I194J-350D01*
G02Y358799I-678J-1225D01*
G03Y358099I194J-350D01*
G02X463599Y357552I-678J-1225D01*
G03X464299I350J194D01*
G02X466748I1225J-678D01*
G03X467448I350J194D01*
G02X467995Y358099I1225J-678D01*
G03Y358799I-194J350D01*
G02X469898Y360702I678J1225D01*
G03X470598I350J194D01*
G02X472501Y358799I1225J-678D01*
G03Y358099I194J-350D01*
G02Y355649I-678J-1225D01*
G03Y354949I194J-350D01*
G02X470598Y353046I-678J-1225D01*
G03X469898I-350J-194D01*
G02X469352Y352500I-1225J678D01*
G03Y351800I194J-350D01*
G02X467448Y349896I-678J-1225D01*
G03X466748I-350J-194D01*
G02X464299I-1225J678D01*
G03X463599I-350J-194D01*
G02X461149I-1225J678D01*
G03X460449I-350J-194D01*
G37*
G36*
G01X438402D02*
G02X436499Y351800I-1225J678D01*
G03Y352500I-194J350D01*
G02Y354949I678J1225D01*
G03Y355649I-194J350D01*
G02Y358099I678J1225D01*
G03Y358799I-194J350D01*
G02Y361249I678J1225D01*
G03Y361948I-194J350D01*
G02Y364398I678J1225D01*
G03Y365098I-194J350D01*
G02X437856I678J1225D01*
G03Y364398I194J-350D01*
G02X438402Y363852I-678J-1225D01*
G03X439102I350J194D01*
G02X441552I1225J-678D01*
G03X442252I350J194D01*
G02X442798Y364398I1225J-678D01*
G03Y365098I-194J350D01*
G02X444701Y367001I678J1225D01*
G03X445401I350J194D01*
G02X447851I1225J-678D01*
G03X448551I350J194D01*
G02X451001I1225J-678D01*
G03X451700I350J194D01*
G02X453604Y365098I1225J-678D01*
G03Y364398I194J-350D01*
G02Y361948I-678J-1225D01*
G03Y361249I194J-350D01*
G02Y358799I-678J-1225D01*
G03Y358099I194J-350D01*
G02Y355649I-678J-1225D01*
G03Y354949I194J-350D01*
G02Y352500I-678J-1225D01*
G03Y351800I194J-350D01*
G02X451700Y349896I-678J-1225D01*
G03X451001I-350J-194D01*
G02X448551I-1225J678D01*
G03X447851I-350J-194D01*
G02X445401I-1225J678D01*
G03X444701I-350J-194D01*
G02X442252I-1225J678D01*
G03X441552I-350J-194D01*
G02X439102I-1225J678D01*
G03X438402I-350J-194D01*
G37*
G54D40*
X407107Y330880D03*
G54D25*
X120000Y300000D03*
G54D31*
X179626Y231709D03*
G54D27*
X289803Y38378D03*
G54D22*
X521858Y200000D03*
G54D35*
X405870Y271559D03*
Y275496D03*
Y283370D03*
Y287307D03*
X409807Y275496D03*
Y271559D03*
Y283370D03*
Y279433D03*
Y287307D03*
X331067Y224315D03*
X346815Y216441D03*
X327130Y220378D03*
X335004Y228252D03*
X342878Y220378D03*
X338941Y224315D03*
X331067Y216441D03*
X346815Y224315D03*
X338941Y212504D03*
X397996Y275496D03*
Y271559D03*
X394059Y279433D03*
X397996D03*
X390122D03*
Y275496D03*
X335004Y212504D03*
X338941Y220378D03*
X335004Y224315D03*
X331067Y228252D03*
X327130Y216441D03*
X323193Y224315D03*
X327130Y228252D03*
Y212504D03*
X323193D03*
X342878D03*
X346815Y220378D03*
Y212504D03*
X342878Y224315D03*
Y228252D03*
X338941Y216441D03*
X323193Y228252D03*
X401933Y279433D03*
X335004Y216441D03*
X386185Y271559D03*
X390122Y283370D03*
X382248Y279433D03*
X394059Y271559D03*
X382248Y275496D03*
X401933D03*
X378311D03*
X390122Y271559D03*
X386185Y275496D03*
X378311Y279433D03*
Y271559D03*
X346815Y228252D03*
X323193Y216441D03*
X397996Y283370D03*
X386185Y279433D03*
X335004Y220378D03*
X401933Y271559D03*
X327130Y200693D03*
X331067Y208567D03*
Y204630D03*
X335004Y208567D03*
X339156Y204844D03*
X338941Y200693D03*
X331067D03*
X323193D03*
Y204630D03*
X335004D03*
X327130Y208567D03*
X346874Y208626D03*
X338941Y208567D03*
X327130Y204630D03*
X397996Y208567D03*
X394059D03*
X397996Y204630D03*
X394059Y200693D03*
Y204630D03*
X390122Y208567D03*
X382248D03*
X370437Y204630D03*
X397996Y200693D03*
X354689D03*
X362563Y204630D03*
X401933Y200693D03*
X362563Y208567D03*
X358626Y200693D03*
X370437D03*
X362563D03*
X390122D03*
X358626Y204630D03*
X354689D03*
X370437Y208567D03*
X401933Y204630D03*
X378311Y208567D03*
X386185Y204630D03*
Y208567D03*
X374374Y200693D03*
X378311Y204630D03*
X382248Y200693D03*
X386185D03*
X374374Y204630D03*
Y208567D03*
X382248Y204630D03*
X354689Y208567D03*
X382248Y236126D03*
X390122Y240063D03*
X338941Y259748D03*
Y255811D03*
X401933Y216441D03*
Y220378D03*
Y212504D03*
X397996D03*
X390122D03*
X394059Y220378D03*
X390122D03*
X378311Y228252D03*
Y232189D03*
X394059Y224315D03*
Y228252D03*
X390122Y232189D03*
Y236126D03*
X386185Y228252D03*
X378311Y236126D03*
X386185Y251874D03*
X374374Y236126D03*
X390122Y228252D03*
X386185Y240063D03*
X382248D03*
Y259748D03*
X401933Y224315D03*
X327130Y263685D03*
Y259748D03*
Y255811D03*
Y251874D03*
X335004Y263685D03*
X331067Y251874D03*
X323193Y247937D03*
Y240063D03*
X327130D03*
X331067D03*
X342878Y255811D03*
Y251874D03*
X335004Y247937D03*
X338941D03*
Y240063D03*
Y236126D03*
X323193Y275496D03*
Y271559D03*
X327130D03*
X386185Y220378D03*
X358626Y271559D03*
Y267622D03*
Y236126D03*
X354689D03*
Y271559D03*
X346815D03*
X394059Y255811D03*
X390122Y224315D03*
X386185Y236126D03*
X382248Y251874D03*
X401933Y228252D03*
X378311Y220378D03*
X394059Y212504D03*
X338941Y251874D03*
X362563Y216441D03*
X358626Y228252D03*
X354689Y232189D03*
X362563D03*
Y224315D03*
X354689D03*
X397996Y240063D03*
X354689Y247937D03*
X346815Y259748D03*
X354689D03*
X362563D03*
X350752Y255811D03*
X370437D03*
X358626D03*
X346815Y251874D03*
X362563D03*
X350752Y247937D03*
X346815Y240063D03*
X362563D03*
X342878Y236126D03*
X350752D03*
X370437Y287307D03*
Y283370D03*
Y279433D03*
Y275496D03*
X362563Y271559D03*
Y267622D03*
X342878Y263685D03*
X346815D03*
X350752D03*
X354689D03*
X358626D03*
X370437D03*
X338941Y271559D03*
X327130Y247937D03*
X335004Y271559D03*
X338941Y267622D03*
Y263685D03*
X323193Y259748D03*
X370437Y228252D03*
X374374Y232189D03*
Y247937D03*
X362563Y212504D03*
X350752Y240063D03*
X358626Y259748D03*
X350752D03*
X362563Y255811D03*
X358626Y224315D03*
X354689Y228252D03*
X358626Y232189D03*
X362563Y236126D03*
Y247937D03*
X354689Y255811D03*
X346815D03*
X350752Y251874D03*
X346815Y247937D03*
Y236126D03*
X370437Y271559D03*
X362563Y263685D03*
X374374Y220378D03*
Y228252D03*
Y224315D03*
X370437Y216441D03*
X354689Y240063D03*
X358626Y247937D03*
Y240063D03*
X354689Y251874D03*
X401933Y247937D03*
X382248Y212504D03*
X370437Y236126D03*
X397996Y247937D03*
X362563Y220378D03*
X358626D03*
Y251874D03*
X370437Y220378D03*
X378311Y255811D03*
X354689Y220378D03*
X386185Y247937D03*
X342878D03*
X323193Y255811D03*
X401933Y232189D03*
X323193Y251874D03*
X386185Y232189D03*
X323193Y267622D03*
X397996Y232189D03*
X331067Y247937D03*
X335004Y259748D03*
X374374Y216441D03*
X386185Y212504D03*
X358626D03*
X401933Y259748D03*
Y236126D03*
X390122Y255811D03*
X394059Y236126D03*
X397996Y255811D03*
X401933Y240063D03*
X394059Y259748D03*
X397996Y236126D03*
X370437Y212504D03*
X394059Y216441D03*
X390122D03*
X401933Y255811D03*
X394059Y247937D03*
X378311Y212504D03*
Y216441D03*
X397996Y228252D03*
X382248Y232189D03*
X358626Y216441D03*
X374374Y251874D03*
X335004Y255811D03*
X394059Y251874D03*
X323193Y263685D03*
X394059Y240063D03*
X397996Y259748D03*
X382248Y255811D03*
X397996Y251874D03*
X386185Y255811D03*
X374374Y259748D03*
X378311Y224315D03*
X390122Y259748D03*
X378311D03*
X390122Y251874D03*
X374374Y240063D03*
X370437Y251874D03*
Y259748D03*
Y240063D03*
Y232189D03*
X362563Y228252D03*
X378311Y251874D03*
X323121Y288116D03*
X331067Y271559D03*
Y259748D03*
X335004Y267622D03*
X323193Y283370D03*
X378311Y247937D03*
X382248Y224315D03*
Y247937D03*
X386185Y224315D03*
X335004Y236126D03*
Y251874D03*
X397996Y224315D03*
X370437Y247937D03*
X342878Y271559D03*
Y267622D03*
X350752D03*
X354689Y216441D03*
Y212504D03*
X346815Y267622D03*
X350752Y271559D03*
X354689Y267622D03*
X409807Y200693D03*
X405870D03*
Y204630D03*
X409807D03*
Y208567D03*
X405870D03*
Y259748D03*
X409807Y247937D03*
X405870Y216441D03*
X409807Y236126D03*
X405870Y255811D03*
X409807Y251874D03*
X405870Y240063D03*
Y247937D03*
Y251874D03*
Y232189D03*
Y228252D03*
Y224315D03*
X409807Y216441D03*
Y259748D03*
Y255811D03*
X405870Y212504D03*
X409807D03*
X405870Y220378D03*
X409807Y240063D03*
Y232189D03*
Y228252D03*
G54D24*
X87322Y238678D03*
X103070D03*
Y243402D03*
X87322D03*
X409250Y150800D03*
X401500Y145000D03*
X379607Y321137D03*
X414811Y212500D03*
X406000Y159600D03*
X405500Y167500D03*
X475660Y391470D03*
G54D39*
X382107Y330880D03*
X372107D03*
X362107D03*
X352107D03*
X342107D03*
G54D19*
X675870Y146100D03*
X675710Y142920D03*
X627210Y262270D03*
X639000Y298500D03*
X642115D03*
X613500Y318500D03*
Y314500D03*
Y310500D03*
Y299500D03*
Y296000D03*
X616500Y288500D03*
X622500D03*
X620340Y294800D03*
X625500Y294000D03*
X619500Y298500D03*
Y303000D03*
Y307500D03*
X620000Y320000D03*
X552497Y281875D03*
X561500Y286000D03*
X557175Y293700D03*
X555930Y289100D03*
X542800Y281875D03*
X549275Y295825D03*
X538209Y296075D03*
X566850Y283210D03*
X577980Y283240D03*
X599700Y283000D03*
X605700Y282900D03*
X601000Y277000D03*
X605020Y276690D03*
X616500Y277000D03*
X593800Y283400D03*
X653384Y132258D03*
X656884Y132255D03*
X661670Y122000D03*
X652000Y90000D03*
X649884Y132258D03*
X645080Y145730D03*
X651090D03*
X657130Y145800D03*
X663130D03*
X657310Y142740D03*
X663310D03*
X651230Y142560D03*
X639240Y142590D03*
X645240D03*
X666490Y145910D03*
X666630Y142740D03*
X532000Y287500D03*
X516940Y272060D03*
X517010Y266610D03*
X517110Y261580D03*
X499010Y241360D03*
X504200Y241290D03*
X509190Y242990D03*
X513280Y247210D03*
X516640Y253470D03*
X516610Y282220D03*
X511190Y278190D03*
X511160Y268170D03*
X511100Y262320D03*
X510830Y255140D03*
X508140Y250410D03*
X504680Y247120D03*
X406000Y101000D03*
X410500Y96000D03*
X475500Y129200D03*
X456000Y95000D03*
X446500Y115500D03*
X456000Y99000D03*
X459500Y99500D03*
X457500Y102500D03*
X456000Y91500D03*
X494000Y92483D03*
Y88500D03*
Y95500D03*
X488000Y87500D03*
X491000Y88000D03*
X447500Y106000D03*
X448000Y110500D03*
X447000Y120500D03*
X489600Y106500D03*
X485000Y121000D03*
X486000Y156000D03*
X468780Y120300D03*
X420500Y113000D03*
X411840Y103660D03*
X417250Y103750D03*
X422250D03*
X436500Y97500D03*
X436000Y103000D03*
X434500Y108000D03*
X430733Y111204D03*
X427010Y97690D03*
X427000Y102000D03*
X406000Y106000D03*
Y109500D03*
Y113500D03*
Y119500D03*
X424770Y112680D03*
X420810Y96520D03*
X429480Y89820D03*
X431460Y87120D03*
X437470Y94520D03*
X427320Y94550D03*
X434400Y86160D03*
X373500Y123500D03*
X377000Y120500D03*
X384300Y124800D03*
X377950Y106500D03*
X364500Y109500D03*
X273222Y99732D03*
X276422Y90911D03*
X287000Y107500D03*
X282314Y106455D03*
X277877Y104149D03*
X293510Y107100D03*
X293500Y103000D03*
Y99000D03*
Y94000D03*
X273820Y88360D03*
X364000Y112500D03*
X246000Y88000D03*
X180450Y126000D03*
X188940D03*
X189000Y121620D03*
X241000Y95500D03*
X165200Y129550D03*
X242500Y87000D03*
X210500Y115000D03*
X200500Y91873D03*
X236942Y95912D03*
X203500Y96500D03*
X128290Y271510D03*
X122190Y271560D03*
X60000Y114500D03*
X55740Y118080D03*
X59500Y118000D03*
X160200Y302200D03*
X183540Y328500D03*
X160500Y291000D03*
X157500Y274500D03*
X296000Y385000D03*
Y379500D03*
X311500Y316500D03*
X193500Y190500D03*
X193327Y170207D03*
X215500Y169500D03*
X247500Y149000D03*
X236600Y143460D03*
X243500Y161000D03*
X225000Y166000D03*
X243080Y146000D03*
X308980Y306110D03*
X312500Y124000D03*
Y117000D03*
Y120500D03*
X324314Y108805D03*
Y111955D03*
X352654Y105655D03*
Y108805D03*
X346354Y105655D03*
X349504D03*
X343204Y108805D03*
Y105655D03*
X333769Y108810D03*
X343199Y118260D03*
X321164Y105655D03*
X316514Y111955D03*
X324314Y105655D03*
Y133995D03*
X318014Y115105D03*
X318019Y118260D03*
X324319Y124540D03*
X324314Y127695D03*
Y130845D03*
X352654Y102505D03*
X333769Y102510D03*
X346354Y102505D03*
X349504D03*
X343204D03*
X321164D03*
X324314D03*
X327600Y102400D03*
X330614Y102505D03*
X321164Y127695D03*
X349504Y111955D03*
X327464Y105655D03*
X330614Y108805D03*
X327464D03*
X340049Y105660D03*
Y108810D03*
X318014Y127695D03*
X318019Y124540D03*
X352654Y111955D03*
X321100Y108900D03*
X340049Y118260D03*
X324330Y95970D03*
X343204Y115105D03*
X340049Y115110D03*
X303500Y111000D03*
Y117000D03*
Y120500D03*
Y124000D03*
X343204Y111955D03*
X346349Y118260D03*
X321169Y124540D03*
X321171Y118258D03*
Y115109D03*
Y111959D03*
X352649Y115110D03*
X346354Y111955D03*
X312500Y111000D03*
X352649Y118260D03*
X346354Y115105D03*
X349499Y118260D03*
X327469Y127690D03*
X327464Y130845D03*
Y133995D03*
X327469Y124540D03*
X340049Y111960D03*
X333769Y111960D03*
Y115110D03*
X333769Y118260D03*
X330619D03*
X330614Y115105D03*
X330619Y111960D03*
X327464Y111955D03*
X327469Y118260D03*
X327470Y115110D03*
X324319Y118260D03*
X324320Y115109D03*
X349504Y115105D03*
X596811Y348922D03*
X591811D03*
X586811D03*
X581811D03*
X576811D03*
X571882Y348082D03*
X616076Y345977D03*
X617060Y350879D03*
X611639Y348922D03*
X606639D03*
X601639Y348922D03*
X617640Y356732D03*
X620456Y361982D03*
X615473Y361565D03*
X612077Y357895D03*
X611500Y354000D03*
X558440Y338960D03*
X555000Y339320D03*
X574781Y343672D03*
X579781D03*
X584781D03*
X589570Y343250D03*
X569366Y343761D03*
X598500Y343500D03*
X575770Y338370D03*
X574500Y332000D03*
X569500Y331000D03*
X567500Y335500D03*
Y341000D03*
X457000Y260000D03*
X459950Y243740D03*
X511090Y288740D03*
X403000Y141500D03*
X406500D03*
X448202Y157380D03*
X469280Y171500D03*
X447458Y171200D03*
X448202Y161980D03*
X466000Y176000D03*
X435500Y208200D03*
X282500Y220200D03*
X353280Y145500D03*
X349000D03*
X360894Y145474D03*
X371340Y145190D03*
X346354Y133995D03*
X364000Y145000D03*
X368000Y144500D03*
X346354Y137145D03*
X349504Y133995D03*
X346354Y140295D03*
X349504Y137145D03*
X340054D03*
X330500Y145730D03*
X334000Y145500D03*
X330614Y140294D03*
X341500Y145710D03*
X323500Y145730D03*
X327000Y145750D03*
X318021Y140288D03*
X320500Y145500D03*
X307600Y188600D03*
X308500Y159000D03*
X305000D03*
X312000D03*
X294000Y180000D03*
X303000Y150000D03*
X298000Y156500D03*
X329000Y185000D03*
X317500Y201000D03*
X287500Y175000D03*
X346120Y154490D03*
X350000Y155000D03*
X323500Y154320D03*
X302352Y145500D03*
X355804Y137145D03*
X333769Y140290D03*
X343204Y140295D03*
X340049Y133990D03*
X352654Y133995D03*
X327464Y140295D03*
X340049Y140290D03*
X343204Y133995D03*
X349504Y140295D03*
X352654Y137145D03*
Y140295D03*
X321164D03*
X324314D03*
X399300Y140120D03*
X337500Y145750D03*
X345000Y145770D03*
X315500Y159000D03*
X317000Y149000D03*
X320000Y154300D03*
X357500Y307500D03*
X428000Y206000D03*
X418100Y325980D03*
X418180Y331030D03*
X424500Y212500D03*
X424180Y218210D03*
X408500Y163000D03*
X427300Y366316D03*
X444160Y382540D03*
X421400Y368890D03*
X445110Y372510D03*
G54D38*
X347500Y198000D03*
X343023Y196977D03*
G54D36*
X445332Y245857D03*
X438324Y238850D03*
Y252865D03*
X452339D03*
Y238850D03*
Y137550D03*
X438324D03*
G54D20*
X601000Y295825D03*
X584930Y286430D03*
X622000Y217000D03*
X631180Y262500D03*
X617258Y284590D03*
X591500Y291500D03*
X609662Y292838D03*
X547500Y300500D03*
X606800Y304000D03*
X609000Y299000D03*
X577105Y298105D03*
X548620Y306690D03*
X590000Y283500D03*
X646424Y335224D03*
X629958Y300190D03*
X630200Y290900D03*
X635058Y290690D03*
X658800Y263478D03*
X618500Y220200D03*
X646354Y325760D03*
X597500Y273180D03*
X608500Y273290D03*
X604710Y317790D03*
X667640Y200000D03*
X654500Y97500D03*
X552000Y174500D03*
X670710Y122700D03*
X664000Y38500D03*
X565500Y23500D03*
X581500D03*
X493012Y254987D03*
X495500Y221000D03*
X495210Y216000D03*
X485000Y231840D03*
X482700Y236800D03*
X491000Y211500D03*
X494900Y260710D03*
X488660Y248002D03*
X498400Y246900D03*
X528563Y289687D03*
X529500Y273000D03*
X409230Y88100D03*
X414000Y99810D03*
X489720Y167150D03*
X474500Y119500D03*
X488413Y127413D03*
X493000Y115563D03*
X495800Y197420D03*
X493000Y102000D03*
X417500Y124000D03*
X470000Y91500D03*
X443000Y108500D03*
X470500Y112500D03*
X464500D03*
X474500Y23000D03*
X459000D03*
X392000Y108430D03*
X327000Y87000D03*
X320000Y86500D03*
X376000Y91000D03*
X365381Y97500D03*
X281086Y95354D03*
X358550Y91450D03*
X268360Y42470D03*
X268710Y54230D03*
X268830Y50000D03*
X268690Y38000D03*
X355000Y54000D03*
X270500Y29000D03*
X274000Y45000D03*
X273574Y33406D03*
X143300Y346500D03*
X153000Y323600D03*
X153400Y305800D03*
X135860Y309900D03*
X200523Y99023D03*
X203000Y118500D03*
X176400Y122890D03*
X173500Y130000D03*
X198000Y105000D03*
X176800Y117070D03*
X230500Y94500D03*
X160500Y119500D03*
X203500Y88500D03*
X239000Y109500D03*
X221640Y87950D03*
X217000Y87500D03*
X156000Y127000D03*
X153968Y114468D03*
X179500Y107500D03*
X135500Y123000D03*
X200200Y85800D03*
X219000Y97000D03*
X158310Y142600D03*
X73100Y359300D03*
X131400Y345600D03*
X97500Y354850D03*
X93000Y355050D03*
X78000Y359000D03*
X79448Y210566D03*
X63500Y211000D03*
X79448Y224739D03*
X124095Y238678D03*
Y243402D03*
X68500Y272000D03*
X70000Y215000D03*
X64000Y266000D03*
X124095Y224739D03*
X79448Y215290D03*
X100000Y296500D03*
X58013Y226706D03*
X62500Y228500D03*
X131969Y224739D03*
X95196Y262300D03*
X116221D03*
X131969D03*
X87322Y220015D03*
Y224739D03*
X116221D03*
X108347D03*
X100473D03*
X79448Y262300D03*
X100473Y220015D03*
X101500Y215500D03*
X108347Y215290D03*
X124095Y210566D03*
X87322D03*
X80200Y321200D03*
X126000Y278500D03*
X123500Y267000D03*
X71574Y238678D03*
Y243402D03*
X125500Y258000D03*
X63023Y275123D03*
X85800Y267377D03*
X125500Y253500D03*
X128000Y265500D03*
X93000Y345220D03*
X88500Y344960D03*
X97500Y345250D03*
X60000Y219500D03*
X98800Y265400D03*
X76377Y267377D03*
X101300Y282300D03*
X109500Y219500D03*
X101726Y325874D03*
X84500Y321000D03*
X79448Y252851D03*
Y257576D03*
X71574Y262300D03*
Y220015D03*
X95196Y238678D03*
Y243402D03*
Y248127D03*
Y252851D03*
Y257576D03*
X79448Y243402D03*
Y248127D03*
Y238678D03*
X71574Y248127D03*
X87322D03*
X79448Y220015D03*
Y229464D03*
X87322D03*
X95196D03*
X103070Y262300D03*
X124095D03*
X116221Y257576D03*
Y252851D03*
Y248127D03*
Y243402D03*
Y238678D03*
X103070Y248127D03*
Y229464D03*
X116221D03*
X124095D03*
X131969D03*
Y210566D03*
X116221D03*
X124095Y248127D03*
X131969Y238678D03*
Y243402D03*
Y248127D03*
Y252851D03*
Y257576D03*
X91074Y325874D03*
X94026Y223949D03*
X79500Y192000D03*
X54500Y192500D03*
X79500Y118500D03*
X84500D03*
X62500Y192500D03*
X80000Y186500D03*
X99260Y196260D03*
X67000Y205500D03*
X131969Y205842D03*
X95196D03*
X116221D03*
X95196Y201117D03*
X121500Y128500D03*
X126500Y133500D03*
Y128500D03*
X116500D03*
Y133500D03*
X121500Y133000D03*
X70810Y127000D03*
X79500Y173500D03*
X82023Y162023D03*
X64500Y161500D03*
X60000Y160000D03*
X69800Y188090D03*
X76500Y162500D03*
X45000Y192500D03*
X50000Y191360D03*
X49652Y127652D03*
X85500Y109000D03*
X57765Y100765D03*
X52500Y106500D03*
X60500Y94000D03*
X50500Y112500D03*
X59000Y107435D03*
X51700Y84800D03*
X63500Y107000D03*
X77550Y143950D03*
X74500Y118000D03*
X87322Y201117D03*
Y205842D03*
X103070Y201240D03*
X102739Y205511D03*
X124095Y205842D03*
X70150Y117880D03*
X71750Y155820D03*
X45150Y155880D03*
X607280Y310950D03*
X612862Y306638D03*
X129200Y184900D03*
X125000Y185000D03*
X107406Y177594D03*
X147717Y205842D03*
X139843Y201117D03*
Y205842D03*
X136500Y192500D03*
X134800Y188600D03*
X163000Y295600D03*
X155592Y248127D03*
X147717D03*
Y252851D03*
Y257576D03*
X139843Y248127D03*
X147717Y238678D03*
X155592D03*
X139843Y262300D03*
X243220Y330330D03*
X238140Y320340D03*
X257800Y317550D03*
X182640Y291910D03*
X179200Y313800D03*
X188500Y318000D03*
X198100Y254300D03*
X197800Y249800D03*
X210500Y330500D03*
X165600Y305900D03*
X261850Y334350D03*
X174200Y307800D03*
X151080Y267840D03*
X247660Y332634D03*
X257500Y329500D03*
X244845Y313345D03*
X192500Y340000D03*
X168485Y326300D03*
X185890Y295210D03*
X181000Y305000D03*
X207560Y314890D03*
X193000Y317500D03*
X258000Y325227D03*
X197650Y261800D03*
X204500Y306500D03*
X174730Y280890D03*
X147717Y224739D03*
X155592D03*
X147717Y210566D03*
X155592D03*
Y220015D03*
Y215290D03*
X147717D03*
Y220015D03*
X232500Y297000D03*
X216455Y331055D03*
X139843Y210566D03*
X140280Y224920D03*
X147959Y262541D03*
X155906Y262614D03*
X155592Y257576D03*
Y252851D03*
X200750Y340250D03*
X261000Y340500D03*
X185750Y243030D03*
X170130Y341360D03*
X155592Y243402D03*
X147717D03*
X160808Y327400D03*
X155500Y291000D03*
X139843Y257576D03*
Y252851D03*
X140500Y243500D03*
Y238776D03*
X141220Y218980D03*
X203000Y302000D03*
X214277Y345723D03*
X158190Y346280D03*
X202080Y352460D03*
X207500Y388000D03*
X264000Y348000D03*
X177872Y346040D03*
X226500Y363000D03*
X250200Y364800D03*
X251500Y376000D03*
X231500Y362500D03*
X242670Y392390D03*
X229960Y392500D03*
X215000Y389500D03*
X245875Y388735D03*
X235500Y353005D03*
X279410Y321780D03*
X288800Y333000D03*
X282200Y336200D03*
X279106Y330345D03*
X269214Y327786D03*
X292150Y335850D03*
X278000Y344000D03*
X284000D03*
X289000D03*
X270000Y314500D03*
X308500Y362000D03*
X308400Y391300D03*
Y386000D03*
X308500Y357500D03*
X339000Y374500D03*
Y379500D03*
Y369500D03*
X340094Y384094D03*
X274250Y359750D03*
X316048Y346048D03*
X319000Y379500D03*
X329000Y375000D03*
X319000D03*
X329000Y366500D03*
X290500Y283080D03*
X306710Y313910D03*
X276000Y269000D03*
X294500Y294000D03*
X268900Y257500D03*
X269200Y251900D03*
X291500Y307500D03*
X316000Y317140D03*
X287500Y302000D03*
X316500Y335370D03*
X296500Y258500D03*
Y264500D03*
Y270000D03*
Y275500D03*
Y283500D03*
Y288500D03*
X309920Y298290D03*
X269000Y159000D03*
X209000Y283000D03*
X211000Y287000D03*
X214000Y283500D03*
X217000Y287500D03*
X220000Y283737D03*
X212773Y214400D03*
X234500Y276000D03*
X207655Y214055D03*
Y235506D03*
X249500Y236000D03*
X223500Y235000D03*
X214500Y261500D03*
X242000Y268300D03*
X231500Y268400D03*
X232870Y283290D03*
X255880Y260620D03*
X210740Y250360D03*
X215100Y271100D03*
X217100Y280180D03*
X218600Y263260D03*
X215600Y254800D03*
X267000Y246400D03*
X220450Y214200D03*
X217730Y245290D03*
X223100Y264110D03*
X216630Y235790D03*
X234000Y185500D03*
X264000Y159000D03*
X224835Y201525D03*
X243625Y149675D03*
X210500Y173000D03*
X218000Y185600D03*
X177500Y169500D03*
X177000Y174000D03*
X215420Y180020D03*
X160500Y166000D03*
X176590Y161020D03*
X223500Y144000D03*
X235800Y166100D03*
X256200Y147000D03*
X256400Y152000D03*
X210000Y182480D03*
X205500Y183400D03*
X198000Y186400D03*
X218200Y194400D03*
X210700D03*
X226000Y130000D03*
X284500Y158000D03*
X677700Y346100D03*
Y336000D03*
Y325800D03*
Y315900D03*
Y305700D03*
Y295600D03*
Y290600D03*
Y285600D03*
Y280600D03*
Y275600D03*
X683000Y159000D03*
Y167500D03*
Y177500D03*
X645642Y359358D03*
X589000Y333500D03*
X578480Y334290D03*
X593111Y339500D03*
X604218D03*
X542630Y324600D03*
X404500Y310500D03*
X440000Y218400D03*
X526500Y343000D03*
X531000D03*
X467500Y234000D03*
X423149Y303351D03*
X466589Y238649D03*
X468500Y260500D03*
X528563Y307713D03*
X477500Y305500D03*
X457000Y304382D03*
X445000D03*
X457000Y309500D03*
X445000D03*
X434900Y280400D03*
X474760Y258000D03*
X425640Y143000D03*
X466220Y141478D03*
X461720D03*
X442500Y151759D03*
Y142500D03*
X439000Y166500D03*
Y182500D03*
X451500Y206000D03*
Y201500D03*
Y196500D03*
X439000Y159500D03*
Y195000D03*
X439500Y201000D03*
X440040Y188620D03*
X464730Y187470D03*
X390960Y300430D03*
X386190Y292020D03*
X397045Y305455D03*
X317193Y227685D03*
X298500Y220600D03*
X316000Y190500D03*
X316500Y185500D03*
X313000Y197980D03*
X303500Y172000D03*
X294606Y195819D03*
X311340Y203100D03*
X312550Y209650D03*
X316750Y174750D03*
X298500Y197600D03*
X299430Y190500D03*
X299000Y208100D03*
X280500Y197500D03*
X299000Y171500D03*
X326000Y167500D03*
X374984Y147483D03*
X300000Y163000D03*
X396908Y148592D03*
X336000Y171000D03*
Y176000D03*
X331000D03*
Y171000D03*
X346000D03*
X341000D03*
X311930Y185040D03*
X547400Y340400D03*
X397800Y194000D03*
X392800D03*
X382800Y192500D03*
X387800D03*
X372700Y183200D03*
X367700D03*
X362700D03*
X367700Y193100D03*
X372510Y192690D03*
X362700Y192680D03*
X377800Y183200D03*
X357870Y192770D03*
X359607Y321137D03*
X349607D03*
X365000Y299500D03*
X317193Y251685D03*
Y257685D03*
X317526Y263660D03*
X317193Y239685D03*
Y245685D03*
X374607Y321137D03*
X347107Y312827D03*
X369607Y321137D03*
X352107Y312827D03*
X372107D03*
X344607Y321137D03*
X378065Y312685D03*
X357107Y312827D03*
X354607Y321137D03*
X342107Y312827D03*
X364607Y321137D03*
X339607D03*
X356490Y349040D03*
X377107Y348932D03*
X417500Y341000D03*
X415000Y259500D03*
X427340Y336000D03*
X427125Y331125D03*
X424300Y322500D03*
X427340Y223290D03*
X427500Y346000D03*
X373860Y159720D03*
X413500Y169500D03*
X363500Y373000D03*
X385500Y379500D03*
X369500Y373500D03*
X372520Y359940D03*
X463880Y324880D03*
X483800Y344000D03*
X484000Y337500D03*
X461347Y377000D03*
X454530Y392380D03*
X417500Y366000D03*
Y361000D03*
X483720Y354000D03*
X483700Y348810D03*
X451400Y377400D03*
X417500Y373500D03*
X477930Y387000D03*
X484420Y361000D03*
X484100Y372300D03*
X427500Y361000D03*
X416000Y390170D03*
X464240Y390590D03*
X433390Y375770D03*
G54D21*
X656500Y54500D03*
G54D23*
X422087Y29323D03*
X414606D03*
X407126D03*
X422087Y24008D03*
X414606D03*
X407126D03*
Y18693D03*
X422087D03*
X414606D03*
X362244Y45268D03*
Y39953D03*
Y34638D03*
X399646Y29323D03*
X392165D03*
X384685D03*
X377205D03*
X369724D03*
X362244D03*
X399646Y24008D03*
X392165D03*
X377205D03*
X362244D03*
X399646Y18693D03*
X392165D03*
X377205D03*
X362244D03*
X354764D03*
Y24008D03*
Y29323D03*
Y34638D03*
Y39953D03*
Y45268D03*
X347284Y18693D03*
X339803D03*
X332323D03*
X324842D03*
X317362D03*
X309882D03*
X347284Y24008D03*
X339803D03*
X332323D03*
X324842D03*
X317362D03*
X309882D03*
X347284Y29323D03*
X339803D03*
X332323D03*
X324842D03*
X317362D03*
X309882D03*
X347284Y34638D03*
X339803D03*
X332323D03*
X324842D03*
X317362D03*
X309882D03*
X347284Y39953D03*
X339803D03*
X332323D03*
X324842D03*
X317362D03*
X309882D03*
X347284Y45268D03*
X339803D03*
X332323D03*
X324842D03*
X317362D03*
X309882D03*
G54D30*
X177165Y257299D03*
G54D33*
X284000Y265000D03*
Y255000D03*
Y245000D03*
G54D26*
X66968Y322500D03*
G54D32*
X179014Y339900D03*
X205786D03*
X169286Y277500D03*
X142514D03*
G54D34*
X227779Y253547D03*
X227279Y249047D03*
G54D28*
X50000Y257299D03*
Y206118D03*
G54D29*
X177165D03*
G54D37*
X468500Y270000D03*
Y295600D03*
X486200Y270000D03*
Y295600D03*
%LPD*%
G75*
G36*
G01X455500Y34500D02*
X453440Y36560D01*
X423482D01*
G03X420691I-1395J-1922D01*
G01X416002D01*
G03X413211I-1395J-1922D01*
G01X408521D01*
G03X405731I-1395J-1922D01*
G01X401041D01*
G03X398250I-1395J-1922D01*
G01X393560D01*
G03X390770I-1395J-1922D01*
G01X386080D01*
G03X385803Y36734I-1395J-1922D01*
G02X385823Y37096I94J176D01*
G03X386128Y42669I-1138J2857D01*
G02X386080Y43346I188J353D01*
G03X383290I-1395J1922D01*
G02X383242Y42669I-235J-324D01*
G03X383547Y37096I1443J-2716D01*
G02X383567Y36734I-74J-186D01*
G03X383290Y36560I1118J-2096D01*
G01X378600D01*
G03X378322Y36734I-1395J-1922D01*
G02X378343Y37096I94J176D01*
G03X378647Y42669I-1138J2857D01*
G02X378600Y43346I188J353D01*
G03X375809I-1395J1922D01*
G02X375762Y42669I-235J-324D01*
G03X376067Y37096I1443J-2716D01*
G02X376087Y36734I-74J-186D01*
G03X375810Y36560I1118J-2096D01*
G01X371120D01*
G03X370725Y36792I-1395J-1922D01*
G01X370693Y36807D01*
X370425Y37075D01*
G02X370566Y37732I283J283D01*
G03X369019Y42221I-842J2221D01*
G02X368500Y42603I-119J382D01*
G01Y42618D01*
G02X369019Y43000I400J0D01*
G03Y47536I706J2268D01*
G02X368500Y47918I-119J382D01*
G01Y53980D01*
G02X369091Y54331I400J0D01*
G03Y57669I909J1669D01*
G02X368500Y58020I-191J351D01*
G01Y62150D01*
X383225Y76875D01*
X558123D01*
X558579Y76420D01*
X604131D01*
X604587Y76875D01*
X605295D01*
X609000Y80580D01*
Y161234D01*
G03X609370Y162062I-1500J1167D01*
G02X610066Y162254I394J-71D01*
G03X609612Y163290I1434J1246D01*
G02X609231Y163185I-199J-22D01*
G03X609000Y163566I-1731J-785D01*
G01Y177268D01*
G02X609496Y177656I400J0D01*
G03Y181344I459J1844D01*
G02X609000Y181732I-97J388D01*
G01Y209000D01*
X611500Y211500D01*
X651500D01*
X655000Y208000D01*
Y162500D01*
X643080Y150580D01*
G02X642398Y150843I-283J283D01*
G03X640407Y148852I-1898J-93D01*
G02X640670Y148170I-20J-400D01*
G01X639500Y147000D01*
X639359D01*
X639340Y147004D01*
G03X638820I-260J-1274D01*
G01X638801Y147000D01*
X633500D01*
X633444Y146944D01*
X633322Y146991D01*
G03X631639Y145308I-472J-1211D01*
G01X631686Y145186D01*
X631500Y145000D01*
Y142912D01*
X631492Y142885D01*
G03Y142155I1248J-365D01*
G01X631500Y142128D01*
Y114391D01*
G02X630959Y114017I-400J0D01*
G03Y111584I-459J-1216D01*
G02X631500Y111209I141J-374D01*
G01Y55000D01*
X611000Y34500D01*
X455500D01*
G37*
G36*
G01X330550Y289050D02*
X330500Y289100D01*
X327920D01*
X326750Y290270D01*
Y297560D01*
X328990Y299800D01*
X340100D01*
X343600Y296300D01*
Y296000D01*
X346500Y293100D01*
Y291500D01*
X344050Y289050D01*
X330550D01*
G37*
G36*
G01X332965Y275000D02*
G02X332565Y275420I0J400D01*
G03X330935Y276990I-1498J76D01*
G02X330500Y277389I-35J398D01*
G01Y277540D01*
G02X330935Y277939I400J0D01*
G03Y280928I132J1494D01*
G02X330500Y281326I-35J398D01*
G01Y281477D01*
G02X330935Y281876I400J0D01*
G03X331583Y284779I132J1494D01*
G02X331437Y285437I138J376D01*
G01X331500Y285500D01*
X347000D01*
X347445Y285945D01*
X347475Y285960D01*
G03X348000Y288227I-660J1347D01*
G01Y292502D01*
G02X348417Y292902I400J0D01*
G03X350224Y294000I83J1898D01*
G01X356776D01*
G03X359886Y293500I1724J800D01*
G01X361045D01*
G03X362079Y292877I1447J1232D01*
G01X362136Y292864D01*
X364000Y291000D01*
Y288899D01*
G02X363382Y288564I-400J0D01*
G03Y286050I-819J-1257D01*
G02X364000Y285715I218J-335D01*
G01Y281025D01*
G02X363382Y280690I-400J0D01*
G03X362489Y277935I-819J-1257D01*
G02X362752Y277252I-20J-400D01*
G01X362497Y276997D01*
X362425Y276990D01*
G03X361069Y275634I138J-1494D01*
G01X361062Y275562D01*
X360500Y275000D01*
X360100D01*
Y275218D01*
X360103Y275235D01*
G03X357128Y275420I-1477J261D01*
G02X356728Y275000I-399J-20D01*
G01X356587D01*
G02X356187Y275420I0J400D01*
G03X353191I-1498J76D01*
G02X352791Y275000I-399J-20D01*
G01X352650D01*
G02X352250Y275420I0J400D01*
G03X349254I-1498J76D01*
G02X348854Y275000I-399J-20D01*
G01X348713D01*
G02X348313Y275420I0J400D01*
G03X345317I-1498J76D01*
G02X344917Y275000I-399J-20D01*
G01X344776D01*
G02X344376Y275420I0J400D01*
G03X341380I-1498J76D01*
G02X340980Y275000I-399J-20D01*
G01X336902D01*
G02X336502Y275420I0J400D01*
G03X333506I-1498J76D01*
G02X333106Y275000I-399J-20D01*
G01X332965D01*
G37*
G36*
G01X463599Y351253D02*
G03X463052Y351800I-1225J-678D01*
G02Y352500I194J350D01*
G03Y354949I-678J1225D01*
G02Y355649I194J350D01*
G03X463599Y356196I-678J1225D01*
G02X464299I350J-194D01*
G03X466748I1225J678D01*
G02X467448I350J-194D01*
G03X467995Y355649I1225J678D01*
G02Y354949I-194J-350D01*
G03Y352500I678J-1225D01*
G02Y351800I-194J-350D01*
G03X467448Y351253I678J-1225D01*
G02X466748I-350J194D01*
G03X464299I-1225J-678D01*
G02X463599I-350J194D01*
G37*
G36*
G01X441552Y357552D02*
G03X441005Y358099I-1225J-678D01*
G02Y358799I194J350D01*
G03Y361249I-678J1225D01*
G02Y361948I194J350D01*
G03X441552Y362495I-678J1225D01*
G02X442252I350J-194D01*
G03X444701I1225J678D01*
G02X445401I350J-194D01*
G03X445948Y361948I1225J678D01*
G02Y361249I-194J-350D01*
G03Y358799I678J-1225D01*
G02Y358099I-194J-350D01*
G03X445401Y357552I678J-1225D01*
G02X444701I-350J194D01*
G03X442252I-1225J-678D01*
G02X441552I-350J194D01*
G37*
G36*
G01X447851Y360702D02*
G03X447304Y361249I-1225J-678D01*
G02Y361948I194J350D01*
G03Y364398I-678J1225D01*
G02Y365098I194J350D01*
G03X447851Y365644I-678J1225D01*
G02X448551I350J-194D01*
G03X451001I1225J678D01*
G02X451700I350J-194D01*
G03X452247Y365098I1225J678D01*
G02Y364398I-194J-350D01*
G03Y361948I678J-1225D01*
G02Y361249I-194J-350D01*
G03X451700Y360702I678J-1225D01*
G02X451001I-350J194D01*
G03X448551I-1225J-678D01*
G02X447851I-350J194D01*
G37*
G36*
G01X559200Y77920D02*
X557800Y79320D01*
Y156807D01*
G02X558454Y157116I400J0D01*
G03X560162Y159075I826J1004D01*
G02X560150Y159652I271J294D01*
G03X558442Y161604I-920J918D01*
G02X557800Y161923I-242J318D01*
G01Y192776D01*
G03Y196224I-800J1724D01*
G01Y197776D01*
G03Y201224I-800J1724D01*
G01Y219951D01*
G03Y221649I-1700J849D01*
G01Y224890D01*
X557810Y224920D01*
G03Y226080I-1809J580D01*
G01X557800Y226110D01*
Y237800D01*
X542900Y252700D01*
Y269400D01*
X548200Y274700D01*
X554176D01*
G03X556724I1274J1410D01*
G01X560929D01*
G02X561265Y274083I0J-400D01*
G03X564455I1595J-1033D01*
G02X564791Y274700I336J217D01*
G01X573500D01*
G02X573700Y274500I0J-200D01*
G03X576300I1300J0D01*
G02X576500Y274700I200J0D01*
G01X589300D01*
X596323Y267677D01*
G02X596084Y266997I-283J-283D01*
G03X598181Y264900I208J-1889D01*
G02X598861Y265139I398J-44D01*
G01X607000Y257000D01*
Y233908D01*
G02X606558Y233510I-400J0D01*
G03Y229730I-198J-1890D01*
G02X607000Y229332I42J-398D01*
G01Y209400D01*
G03Y205600I0J-1900D01*
G01Y204400D01*
G03Y200600I0J-1900D01*
G01Y199400D01*
G03Y195600I0J-1900D01*
G01Y194400D01*
G03Y190600I0J-1900D01*
G01Y189400D01*
G03Y185600I0J-1900D01*
G01Y181725D01*
G02X606498Y181338I-400J0D01*
G03Y177662I-483J-1838D01*
G02X607000Y177275I102J-387D01*
G01Y164239D01*
X606867Y164192D01*
G03X606398Y163948I633J-1792D01*
G02X605789Y164139I-232J326D01*
G03X605102Y161952I-1789J-639D01*
G02X605711Y161761I232J-326D01*
G03X606867Y160608I1789J639D01*
G01X607000Y160561D01*
Y147776D01*
G02X606414Y147421I-400J0D01*
G03X605109Y145175I-604J-1151D01*
G02X605182Y144561I-216J-337D01*
G03X606487Y142413I938J-901D01*
G02X607000Y142029I113J-384D01*
G01Y81410D01*
X603510Y77920D01*
X559200D01*
G37*
%LPC*%
G75*
G36*
G01X629682Y200981D02*
G03X629160I-261J-303D01*
G02Y203862I-1239J1441D01*
G03X629682I261J303D01*
G02Y200981I1239J-1441D01*
G37*
G36*
G01X631485Y192649D02*
G03X630963Y192481I-172J-361D01*
G02X627527Y192717I-1663J919D01*
G03X626906Y192887I-373J-144D01*
G02X626532Y196103I-1176J1493D01*
G03X627100Y196474I169J363D01*
G02X630899Y196450I1900J42D01*
G03X631473Y196076I400J-14D01*
G02X631485Y192649I827J-1711D01*
G37*
G36*
G01X633261Y175059D02*
G03X632739I-261J-303D01*
G02Y177941I-1239J1441D01*
G03X633261I261J303D01*
G02X635739I1239J-1441D01*
G03X636261I261J303D01*
G02Y175059I1239J-1441D01*
G03X635739I-261J-303D01*
G02X633261I-1239J1441D01*
G37*
G36*
G01X618392Y145153D02*
G03X618429Y144555I284J-282D01*
G02X616708Y144447I-799J-1025D01*
G03X616671Y145045I-284J282D01*
G02X618392Y145153I799J1025D01*
G37*
G36*
G01X612392D02*
G03X612429Y144555I284J-282D01*
G02X610708Y144447I-799J-1025D01*
G03X610671Y145045I-284J282D01*
G02X612392Y145153I799J1025D01*
G37*
G36*
G01X650939Y199652D02*
G02X649061I-939J-1652D01*
G03Y200348I-198J348D01*
G02X650939I939J1652D01*
G03Y199652I198J-348D01*
G37*
G36*
G01X622652Y180561D02*
G02Y182439I-1652J939D01*
G03X623348I348J198D01*
G02Y180561I1652J-939D01*
G03X622652I-348J-198D01*
G37*
G36*
G01X620670Y88623D02*
G02X618911Y90382I-1147J612D01*
G03Y91088I-188J353D01*
G02Y93382I612J1147D01*
G03Y94088I-188J353D01*
G02X620670Y95847I612J1147D01*
G03X621376I353J188D01*
G02X623135Y94088I1147J-612D01*
G03Y93382I188J-353D01*
G02Y91088I-612J-1147D01*
G03Y90382I188J-353D01*
G02X621376Y88623I-612J-1147D01*
G03X620670I-353J-188D01*
G37*
G36*
G01X481439Y52652D02*
G02X479561I-939J-1652D01*
G03Y53348I-198J348D01*
G02X481439I939J1652D01*
G03Y52652I198J-348D01*
G37*
G36*
G01X333955Y291391D02*
G03X333305I-325J-234D01*
G02Y293609I-1543J1109D01*
G03X333955I325J234D01*
G02Y291391I1543J-1109D01*
G37*
G36*
G01X355405Y288626D02*
G02X353843Y288546I-715J-1319D01*
G03X353771Y289245I-226J330D01*
G02X355405Y289329I729J1755D01*
G03X355405Y288626I190J-352D01*
G37*
G36*
G01X589233Y229554D02*
G03Y228946I260J-304D01*
G02X586767I-1233J-1446D01*
G03Y229554I-260J304D01*
G02X589233I1233J1446D01*
G37*
G36*
G01X579233D02*
G03Y228946I260J-304D01*
G02X576767I-1233J-1446D01*
G03Y229554I-260J304D01*
G02X579233I1233J1446D01*
G37*
G36*
G01X597328Y217281D02*
G03X597800Y216869I400J-19D01*
G02X596244Y215089I342J-1869D01*
G03X595772Y215501I-400J19D01*
G02X597328Y217281I-342J1869D01*
G37*
G36*
G01X575807Y189808D02*
G03X575216Y189802I-293J-272D01*
G02X575193Y192362I-1416J1268D01*
G03X575784Y192368I293J272D01*
G02X578636Y192345I1416J-1267D01*
G03X579258Y192368I302J262D01*
G02X582189Y192504I1522J-1138D01*
G03X582786Y192508I297J268D01*
G02X582801Y189976I1424J-1258D01*
G03X582204Y189972I-297J-268D01*
G02X579344Y189985I-1424J1258D01*
G03X578722Y189962I-302J-262D01*
G02X575807Y189808I-1522J1138D01*
G37*
G36*
G01X572020Y159832D02*
G03X572032Y159255I283J-283D01*
G02X570230Y159218I-882J-955D01*
G03X570218Y159795I-283J283D01*
G02X572020Y159832I882J955D01*
G37*
G36*
G01X582261Y153559D02*
G03X581739I-261J-303D01*
G02Y156441I-1239J1441D01*
G03X582261I261J303D01*
G02X584739I1239J-1441D01*
G03X585261I261J303D01*
G02X587739I1239J-1441D01*
G03X588261I261J303D01*
G02Y153559I1239J-1441D01*
G03X587739I-261J-303D01*
G02X585261I-1239J1441D01*
G03X584739I-261J-303D01*
G02X582261I-1239J1441D01*
G37*
G36*
G01X594760Y145242D02*
G03X594772Y144665I283J-283D01*
G02X592970Y144628I-882J-955D01*
G03X592958Y145205I-283J283D01*
G02X594760Y145242I882J955D01*
G37*
G36*
G01X561607Y135780D02*
G03X561888Y135775I143J139D01*
G02X561837Y133076I1312J-1375D01*
G03X561555Y133082I-143J-139D01*
G02X561607Y135780I-1312J1375D01*
G37*
G36*
G01X554819Y262886D02*
G02X554733Y261301I1681J-886D01*
G03X554007Y261340I-372J-147D01*
G02X554093Y262925I-1681J886D01*
G03X554819Y262886I372J147D01*
G37*
G36*
G01X573652Y206061D02*
G02Y207939I-1652J939D01*
G03X574348I348J198D01*
G02X577652I1652J-939D01*
G03X578348I348J198D01*
G02X581652I1652J-939D01*
G03X582348I348J198D01*
G02Y206061I1652J-939D01*
G03X581652I-348J-198D01*
G02X578348I-1652J939D01*
G03X577652I-348J-198D01*
G02X574348I-1652J939D01*
G03X573652I-348J-198D01*
G37*
G36*
G01X578081Y159345D02*
G02X576442Y159151I-701J-1095D01*
G03X576369Y159765I-288J277D01*
G02X578008Y159959I701J1095D01*
G03X578081Y159345I288J-277D01*
G37*
G36*
G01X566211Y159165D02*
G02X564572Y158971I-701J-1095D01*
G03X564499Y159585I-288J277D01*
G02X566138Y159779I701J1095D01*
G03X566211Y159165I288J-277D01*
G37*
G36*
G01X588612Y145147D02*
G02X587388I-612J-1147D01*
G03Y145853I-188J353D01*
G02X588612I612J1147D01*
G03Y145147I188J-353D01*
G37*
G36*
G01X600821Y144755D02*
G02X599182Y144561I-701J-1095D01*
G03X599109Y145175I-288J277D01*
G02X600748Y145369I701J1095D01*
G03X600821Y144755I288J-277D01*
G37*
G36*
G01X579984Y140225D02*
G02X578225Y141984I-1147J612D01*
G03Y142690I-188J353D01*
G02Y144984I612J1147D01*
G03Y145690I-188J353D01*
G02X579984Y147450I612J1147D01*
G03X580690I353J188D01*
G02X582984I1147J-612D01*
G03X583690I353J188D01*
G02X585449Y145690I1147J-612D01*
G03Y144984I188J-353D01*
G02Y142690I-612J-1147D01*
G03Y141984I188J-353D01*
G02X585984Y141449I-612J-1147D01*
G03X586690I353J188D01*
G02Y140225I1147J-612D01*
G03X585984I-353J-188D01*
G02X583690I-1147J612D01*
G03X582984I-353J-188D01*
G02X580690I-1147J612D01*
G03X579984I-353J-188D01*
G37*
G36*
G01X569947Y120147D02*
G02X568766Y121214I-1747J-747D01*
G03X569253Y121753I119J382D01*
G02X570434Y120686I1747J747D01*
G03X569947Y120147I-119J-382D01*
G37*
G36*
G01X572553Y87790D02*
G02X569962Y90381I-1652J939D01*
G03Y91077I-198J348D01*
G02X572553Y93668I939J1652D01*
G03X573249I348J198D01*
G02X576553I1652J-939D01*
G03X577249I348J198D01*
G02X579840Y91077I1652J-939D01*
G03Y90381I198J-348D01*
G02X577249Y87790I-939J-1652D01*
G03X576553I-348J-198D01*
G02X573249I-1652J939D01*
G03X572553I-348J-198D01*
G37*
G54D35*
X335004Y283370D03*
X342878Y279433D03*
X358626Y287307D03*
X350752D03*
X358626Y283370D03*
Y279433D03*
X350752Y283370D03*
X346815Y279433D03*
X354689D03*
G54D19*
X626730Y142740D03*
X620730D03*
X626880Y145910D03*
X620880D03*
X579000Y269000D03*
X574000Y268500D03*
G54D20*
X447500Y45000D03*
X447600Y49209D03*
X458500Y39000D03*
X474000Y39500D03*
X475500Y55500D03*
X476000Y51000D03*
X451770Y42050D03*
X440800Y52700D03*
X436000Y39050D03*
X565500Y39500D03*
X581500D03*
X623300Y167800D03*
X617000Y207500D03*
X612000D03*
X617000Y192500D03*
X612000D03*
Y187500D03*
X617000D03*
Y202500D03*
X612000D03*
Y197500D03*
X617000D03*
X631100Y150700D03*
X619200Y150900D03*
X615858Y180000D03*
X620500Y171500D03*
X566260Y190411D03*
X568200Y114400D03*
X566000Y125000D03*
X563200Y129400D03*
X602000Y207500D03*
X597000D03*
X590000Y198484D03*
X602000Y192500D03*
X597000D03*
Y187500D03*
X602000D03*
Y202500D03*
X597000D03*
Y197500D03*
X602000D03*
X591250Y169800D03*
X568300Y140800D03*
X563300D03*
Y145800D03*
Y150800D03*
X568300D03*
Y145800D03*
X573300D03*
Y150800D03*
X591220Y160500D03*
X595062Y163332D03*
X595000Y177000D03*
X560500Y207000D03*
X582500Y175500D03*
Y185500D03*
Y180500D03*
X587500Y175500D03*
X594050Y154800D03*
X598142Y180000D03*
X600500Y112500D03*
X550000Y269500D03*
X569350Y261450D03*
X593000Y211500D03*
X588500D03*
X590000Y217000D03*
X584000Y211500D03*
G54D23*
X392165Y39953D03*
X399646D03*
X392165Y45268D03*
X399646D03*
X407126Y39953D03*
X414606D03*
X422087D03*
X407126Y45268D03*
X414606D03*
X422087D03*
%LPD*%
G75*
G54D10*
X67780Y131150D03*
X77790Y139450D03*
X67650Y155480D03*
X49250Y155710D03*
X108840Y167380D03*
X113340D03*
X113300Y164000D03*
X108800D03*
Y150500D03*
Y155000D03*
Y159500D03*
X113300Y150500D03*
X113060Y159570D03*
Y155090D03*
X55203Y264923D03*
X131969Y215290D03*
Y220015D03*
X124095Y215290D03*
Y220015D03*
X116221Y215290D03*
Y220015D03*
X80000Y372500D03*
X88500Y354890D03*
X76537Y372870D03*
X170500Y132500D03*
X180400Y137100D03*
X179500Y130000D03*
X227500Y116500D03*
X148000Y119500D03*
X176300Y102420D03*
X144000Y119500D03*
X183900Y118600D03*
X217500Y92500D03*
X226000Y88500D03*
X195000Y177400D03*
X205000Y194400D03*
X193000D03*
X160500Y151500D03*
Y156000D03*
X156500Y151500D03*
X152000D03*
Y156000D03*
X156500D03*
X139080Y310140D03*
X156900Y317800D03*
X146400Y340500D03*
X147615Y328415D03*
X190044Y322928D03*
X184500Y318000D03*
X203500Y284600D03*
X207360Y267210D03*
X210500Y279000D03*
X209800Y261800D03*
X215490Y249170D03*
X223230Y268530D03*
X207340Y250550D03*
X135000Y345500D03*
X268500Y33000D03*
X285500Y112500D03*
X294000Y114500D03*
X291000Y159000D03*
X290234Y135266D03*
X288500Y160500D03*
X282000Y208000D03*
X342700Y194000D03*
X347700D03*
X332700D03*
X337700D03*
X372550Y178200D03*
X367620Y178520D03*
X372270Y173980D03*
X372390Y169150D03*
X368770Y161120D03*
X361050Y174340D03*
X323300Y314300D03*
X317500Y278000D03*
Y283000D03*
X317540Y287410D03*
X311500Y267500D03*
X301000Y333000D03*
X318500Y323000D03*
X301000Y321000D03*
Y315000D03*
X300000Y305500D03*
X345000Y294000D03*
X328170Y293120D03*
X342000Y293500D03*
X359818Y292082D03*
X334950Y360840D03*
X335000Y363800D03*
X349500Y384000D03*
X350000Y367500D03*
X328900Y391000D03*
Y386500D03*
X366500Y392500D03*
X371000D03*
X436500Y45000D03*
X421300Y209200D03*
X417800Y194000D03*
X412800D03*
X402800Y192500D03*
X407800D03*
X409500Y170500D03*
X417656Y159600D03*
X494738Y240100D03*
X494500Y236500D03*
X415339Y286090D03*
Y276090D03*
Y281091D03*
X406000Y299860D03*
X414240Y231680D03*
X414000Y241500D03*
X414500Y237500D03*
X413532Y335986D03*
X413850Y326020D03*
X424054Y226654D03*
X484000Y332500D03*
X460250Y324750D03*
X417500Y346000D03*
X468000Y377500D03*
X428940Y376560D03*
X406500Y364500D03*
X406000Y373500D03*
X427500Y370000D03*
X590901Y88729D03*
X586901D03*
X582901D03*
X590901Y92729D03*
X586901D03*
X582901D03*
X602500Y88000D03*
X624496Y200459D03*
X645000Y159500D03*
X639500Y159000D03*
X634000Y159500D03*
X648000Y163000D03*
X641500D03*
X631000D03*
X636500D03*
X545000Y266500D03*
X549000D03*
Y263500D03*
X545000D03*
X580630Y308520D03*
X557000Y299000D03*
X554493Y294497D03*
X633000Y311000D03*
X622000Y315500D03*
Y311000D03*
X621125Y271987D03*
X655210Y270058D03*
X653624Y338924D03*
X641000Y292000D03*
X675310Y129100D03*
X677080Y164030D03*
X676580Y173610D03*
X677170Y180500D03*
X676670Y157140D03*
G54D11*
X193500Y99500D03*
X233600Y96500D03*
X237200Y115023D03*
X346354Y108805D03*
X349504D03*
X321164Y133995D03*
Y130845D03*
X330614Y105655D03*
X333769Y105660D03*
X299670Y376570D03*
X299200Y358800D03*
X295200D03*
X291200D03*
X287200D03*
X283200D03*
X471500Y129100D03*
X450000Y330000D03*
X474190Y338355D03*
X587500Y135000D03*
Y132000D03*
X587337Y129063D03*
X584837Y135101D03*
Y132101D03*
Y129101D03*
X581837Y135101D03*
Y132101D03*
Y129101D03*
X578837D03*
Y132101D03*
Y135101D03*
G54D12*
X369724Y18693D03*
X384685D03*
X377205Y39953D03*
X384685D03*
G54D13*
X346815Y204630D03*
X335004Y200693D03*
X390122Y204630D03*
X401933Y208567D03*
X358626D03*
X378311Y200693D03*
X394059Y275496D03*
X382248Y271559D03*
X378311Y283370D03*
X390200Y287200D03*
X342878Y216441D03*
X338941Y228252D03*
X331067Y212504D03*
X327130Y224315D03*
X386185Y259748D03*
X374374Y255811D03*
X397996Y263685D03*
X342878Y259748D03*
X331067Y255811D03*
X327130Y267622D03*
X394059Y232189D03*
X382248Y228252D03*
X386185Y216441D03*
X401933Y251874D03*
X397996Y220378D03*
X374374Y212504D03*
X370437Y224315D03*
X390122Y247937D03*
X370437Y267622D03*
X323193Y279433D03*
X335004Y240063D03*
X323193Y236126D03*
X378311Y240063D03*
X362563Y283370D03*
X354689D03*
X350752Y279433D03*
X346815Y283370D03*
X338941D03*
X335004Y279433D03*
X405870D03*
X409807Y267622D03*
X405870Y236126D03*
X409807Y224315D03*
G54D14*
X437177Y341126D03*
X459224Y331677D03*
X471823Y350575D03*
X468673Y363173D03*
X440327Y366323D03*
X459224D03*
X449776Y363173D03*
X443476Y360024D03*
X465524Y353724D03*
G54D15*
G01X467700Y355299D02*
X472900D01*
G01X467700Y352150D02*
X469600D01*
G01X467098Y355901D02*
Y357801D01*
G01X447599Y361598D02*
X445699D01*
G01X463949Y355901D02*
Y357801D01*
G01X463347Y355299D02*
X461447D01*
G01X453567Y364723D02*
X452277D01*
G01X441300Y358449D02*
X436300D01*
G01X441300Y361598D02*
X436200D01*
G01X441902Y362200D02*
Y364100D01*
G01X448201Y365350D02*
Y367250D01*
G01X453898Y361598D02*
X451998D01*
G01X463949Y351548D02*
Y349648D01*
G01X467098Y351548D02*
Y349648D01*
G01X463347Y358449D02*
X461447D01*
G54D16*
G01X13400Y-186400D02*
X641300D01*
Y-166400D01*
G01X13400Y-126400D02*
X716000D01*
G01X13400Y-146400D02*
X716000D01*
G01X13400Y-166400D02*
X716000D01*
G01X641300Y-186400D02*
X716000D01*
Y-107200D01*
X13400D01*
Y-186400D01*
G01X641300Y-107200D02*
Y-126400D01*
G01Y-146400D02*
Y-126400D01*
G01Y-146400D02*
Y-166400D01*
G54D17*
G01X384685Y18693D02*
X382252Y16260D01*
G01X387000Y16460D02*
X384767Y18693D01*
X384685D01*
G01X372180Y16380D02*
X369867Y18693D01*
X369724D01*
G01X367330Y16350D02*
X369673Y18693D01*
X369724D01*
G01X384685D02*
X387201Y21209D01*
G01X382169D02*
X384685Y18693D01*
G01X369724D02*
X372240Y21209D01*
G01X367208D02*
X369724Y18693D01*
G01X382169Y37437D02*
X384685Y39953D01*
G01D02*
X387201Y42469D01*
G01X382169D02*
X384685Y39953D01*
G01D02*
X387201Y37437D01*
G01X374689D02*
X377205Y39953D01*
G01D02*
X379721Y42469D01*
G01X374689D02*
X377205Y39953D01*
G01D02*
X379721Y37437D01*
G54D18*
G01X19433Y-122500D02*
Y-112500D01*
X22767D01*
X24100Y-113000D01*
X25100Y-113667D01*
X25934Y-114666D01*
X26600Y-115834D01*
X26767Y-117500D01*
X26600Y-119167D01*
X25934Y-120334D01*
X25100Y-121334D01*
X24100Y-122000D01*
X22767Y-122500D01*
X19433D01*
G01X30433D02*
X34600Y-112500D01*
X38767Y-122500D01*
G01X37267Y-119000D02*
X31933D01*
G01X46100Y-112500D02*
Y-122500D01*
G01X42267Y-112500D02*
X49933D01*
G01X60933Y-122500D02*
X54267D01*
Y-112500D01*
X60933D01*
G01X58267Y-117333D02*
X54267D01*
G01X69100Y-122833D02*
X68767Y-122667D01*
Y-122333D01*
X69100Y-122167D01*
X69433Y-122333D01*
Y-122667D01*
X69100Y-122833D01*
G01Y-118334D02*
X68767Y-118167D01*
Y-117833D01*
X69100Y-117667D01*
X69433Y-117833D01*
Y-118167D01*
X69100Y-118334D01*
G01X80600Y-112500D02*
X79266Y-112833D01*
X78267Y-113667D01*
X77600Y-114666D01*
X77100Y-116000D01*
X76933Y-117500D01*
X77100Y-119000D01*
X77600Y-120334D01*
X78267Y-121334D01*
X79266Y-122167D01*
X80600Y-122500D01*
X81933Y-122167D01*
X82933Y-121334D01*
X83600Y-120334D01*
X84100Y-119000D01*
X84267Y-117500D01*
X84100Y-116000D01*
X83600Y-114666D01*
X82933Y-113667D01*
X81933Y-112833D01*
X80600Y-112500D01*
G01X92100Y-122500D02*
Y-112500D01*
X90100Y-114500D01*
G01Y-122500D02*
X94100D01*
G01X101433Y-119167D02*
X105767D01*
G01X115100Y-122500D02*
Y-112500D01*
X113100Y-114500D01*
G01Y-122500D02*
X117100D01*
G01X123433Y-118334D02*
X124600Y-117167D01*
X125600Y-116500D01*
X126933Y-116167D01*
X128100Y-116500D01*
X128933Y-117167D01*
X129600Y-118167D01*
X129767Y-119333D01*
X129600Y-120334D01*
X128933Y-121334D01*
X127933Y-122167D01*
X126767Y-122500D01*
X125433Y-122167D01*
X124267Y-121167D01*
X123600Y-119667D01*
X123433Y-118000D01*
X123766Y-115834D01*
X124267Y-114666D01*
X125100Y-113500D01*
X126267Y-112667D01*
X127433Y-112500D01*
X128600Y-112833D01*
X129434Y-113667D01*
G01X135933Y-119167D02*
X140267D01*
G01X146433Y-114167D02*
X147433Y-113167D01*
X148600Y-112667D01*
X149933Y-112500D01*
X151600Y-112833D01*
X152767Y-113667D01*
X153100Y-114666D01*
X152933Y-115667D01*
X152267Y-116500D01*
X148933Y-118167D01*
X147433Y-119333D01*
X146433Y-121000D01*
X146100Y-122500D01*
X153100D01*
G01X161100Y-112500D02*
X159766Y-112833D01*
X158767Y-113667D01*
X158100Y-114666D01*
X157600Y-116000D01*
X157433Y-117500D01*
X157600Y-119000D01*
X158100Y-120334D01*
X158767Y-121334D01*
X159766Y-122167D01*
X161100Y-122500D01*
X162433Y-122167D01*
X163433Y-121334D01*
X164100Y-120334D01*
X164600Y-119000D01*
X164767Y-117500D01*
X164600Y-116000D01*
X164100Y-114666D01*
X163433Y-113667D01*
X162433Y-112833D01*
X161100Y-112500D01*
G01X172600Y-122500D02*
Y-112500D01*
X170600Y-114500D01*
G01Y-122500D02*
X174600D01*
G01X183767D02*
X184100Y-120334D01*
X184600Y-118500D01*
X185267Y-116833D01*
X186100Y-115000D01*
X187433Y-112500D01*
X180767D01*
G01X19233Y-141700D02*
Y-131700D01*
X22567D01*
X23900Y-132200D01*
X24900Y-132867D01*
X25733Y-133866D01*
X26400Y-135034D01*
X26567Y-136700D01*
X26400Y-138367D01*
X25733Y-139534D01*
X24900Y-140534D01*
X23900Y-141200D01*
X22567Y-141700D01*
X19233D01*
G01X37733D02*
X31067D01*
Y-131700D01*
X37733D01*
G01X35067Y-136533D02*
X31067D01*
G01X42400Y-140367D02*
X43733Y-141200D01*
X45233Y-141700D01*
X46567D01*
X47900Y-141200D01*
X48900Y-140367D01*
X49400Y-139200D01*
X49067Y-138034D01*
X48233Y-137033D01*
X46733Y-136367D01*
X44733Y-136033D01*
X43567Y-135367D01*
X43066Y-134200D01*
X43400Y-133033D01*
X44233Y-132200D01*
X45400Y-131700D01*
X46567D01*
X47733Y-132033D01*
X48733Y-132867D01*
G01X55400Y-131700D02*
X59400D01*
G01X57400D02*
Y-141700D01*
G01X55400D02*
X59400D01*
G01X69900Y-136700D02*
X73234D01*
Y-139700D01*
X72233Y-140700D01*
X71067Y-141367D01*
X69400Y-141700D01*
X67733Y-141367D01*
X66567Y-140700D01*
X65567Y-139700D01*
X64900Y-138533D01*
X64566Y-137200D01*
Y-136033D01*
X64900Y-135034D01*
X65567Y-133866D01*
X66567Y-132867D01*
X67566Y-132200D01*
X68900Y-131700D01*
X70067D01*
X71400Y-132033D01*
X72400Y-132700D01*
G01X76567Y-141700D02*
Y-131700D01*
X84233Y-141700D01*
Y-131700D01*
G01X95233Y-141700D02*
X88567D01*
Y-131700D01*
X95233D01*
G01X92567Y-136533D02*
X88567D01*
G01X99733Y-141700D02*
Y-131700D01*
X103067D01*
X104400Y-132200D01*
X105400Y-132867D01*
X106234Y-133866D01*
X106900Y-135034D01*
X107067Y-136700D01*
X106900Y-138367D01*
X106234Y-139534D01*
X105400Y-140534D01*
X104400Y-141200D01*
X103067Y-141700D01*
X99733D01*
G01X122233D02*
X126400Y-131700D01*
X130567Y-141700D01*
G01X129067Y-138200D02*
X123733D01*
G01X137900Y-131700D02*
Y-141700D01*
G01X134067Y-131700D02*
X141733D01*
G01X149400Y-142033D02*
X149067Y-141867D01*
Y-141533D01*
X149400Y-141367D01*
X149733Y-141533D01*
Y-141867D01*
X149400Y-142033D01*
G01Y-137534D02*
X149067Y-137367D01*
Y-137033D01*
X149400Y-136867D01*
X149733Y-137033D01*
Y-137367D01*
X149400Y-137534D01*
G01X17433Y-182300D02*
Y-172300D01*
X23767D01*
G01X21433Y-177133D02*
X17433D01*
G01X30100Y-172300D02*
X34100D01*
G01X32100D02*
Y-182300D01*
G01X30100D02*
X34100D01*
G01X40267Y-172300D02*
Y-182300D01*
X46933D01*
G01X50766D02*
Y-172300D01*
X55100Y-180633D01*
X59434Y-172300D01*
Y-182300D01*
G01X74767Y-172300D02*
Y-182300D01*
X81433D01*
G01X85433D02*
X89600Y-172300D01*
X93767Y-182300D01*
G01X92267Y-178800D02*
X86933D01*
G01X101100Y-182300D02*
Y-177800D01*
X97767Y-172300D01*
G01X104433D02*
X101100Y-177800D01*
G01X115933Y-182300D02*
X109267D01*
Y-172300D01*
X115933D01*
G01X113267Y-177133D02*
X109267D01*
G01X120767Y-182300D02*
Y-172300D01*
X124933D01*
X126267Y-172800D01*
X127100Y-173467D01*
X127433Y-174800D01*
X127100Y-176133D01*
X126100Y-176967D01*
X124933Y-177467D01*
X120767D01*
G01X124933D02*
X127433Y-182300D01*
G01X135600Y-182633D02*
X135267Y-182467D01*
Y-182133D01*
X135600Y-181967D01*
X135933Y-182133D01*
Y-182467D01*
X135600Y-182633D01*
G01Y-178134D02*
X135267Y-177967D01*
Y-177633D01*
X135600Y-177467D01*
X135933Y-177633D01*
Y-177967D01*
X135600Y-178134D01*
G01X26567Y-152534D02*
X25567Y-152033D01*
X24400Y-151700D01*
X23067D01*
X21566Y-152200D01*
X20400Y-153033D01*
X19567Y-154033D01*
X18900Y-155700D01*
X18733Y-157200D01*
X19067Y-158700D01*
X19567Y-159700D01*
X20567Y-160700D01*
X21733Y-161367D01*
X22900Y-161700D01*
X24067D01*
X25233Y-161367D01*
X26233Y-160867D01*
X27067Y-160200D01*
G01X30233Y-161700D02*
X34400Y-151700D01*
X38567Y-161700D01*
G01X37067Y-158200D02*
X31733D01*
G01X42567Y-161700D02*
Y-151700D01*
X46733D01*
X48067Y-152200D01*
X48900Y-152867D01*
X49233Y-154200D01*
X48900Y-155533D01*
X47900Y-156367D01*
X46733Y-156867D01*
X42567D01*
G01X46733D02*
X49233Y-161700D01*
G01X53733D02*
Y-151700D01*
X57067D01*
X58400Y-152200D01*
X59400Y-152867D01*
X60234Y-153866D01*
X60900Y-155034D01*
X61067Y-156700D01*
X60900Y-158367D01*
X60234Y-159534D01*
X59400Y-160534D01*
X58400Y-161200D01*
X57067Y-161700D01*
X53733D01*
G01X77067D02*
Y-151700D01*
X81233D01*
X82567Y-152200D01*
X83400Y-152867D01*
X83733Y-154200D01*
X83400Y-155533D01*
X82400Y-156367D01*
X81233Y-156867D01*
X77067D01*
G01X81233D02*
X83733Y-161700D01*
G01X95233D02*
X88567D01*
Y-151700D01*
X95233D01*
G01X92567Y-156533D02*
X88567D01*
G01X100233Y-161700D02*
Y-151700D01*
X106567D01*
G01X104233Y-156533D02*
X100233D01*
G01X114900Y-162033D02*
X114567Y-161867D01*
Y-161533D01*
X114900Y-161367D01*
X115233Y-161533D01*
Y-161867D01*
X114900Y-162033D01*
G01Y-157534D02*
X114567Y-157367D01*
Y-157033D01*
X114900Y-156867D01*
X115233Y-157033D01*
Y-157367D01*
X114900Y-157534D01*
G01X126400Y-161700D02*
X125066Y-161533D01*
X123900Y-160867D01*
X122900Y-159867D01*
X122233Y-158700D01*
X121900Y-157367D01*
Y-156033D01*
X122233Y-154700D01*
X122900Y-153533D01*
X123900Y-152534D01*
X125066Y-151867D01*
X126400Y-151700D01*
X127733Y-151867D01*
X128900Y-152534D01*
X129900Y-153533D01*
X130567Y-154700D01*
X130900Y-156033D01*
Y-157367D01*
X130567Y-158700D01*
X129900Y-159867D01*
X128900Y-160867D01*
X127733Y-161533D01*
X126400Y-161700D01*
G01X134900Y-165033D02*
Y-155034D01*
G01Y-156533D02*
X135733Y-155700D01*
X136566Y-155200D01*
X137900Y-155034D01*
X139067Y-155200D01*
X140233Y-156033D01*
X140734Y-157200D01*
X140900Y-158367D01*
X140734Y-159534D01*
X140233Y-160700D01*
X139233Y-161367D01*
X137900Y-161700D01*
X136733Y-161533D01*
X135567Y-161034D01*
X134900Y-160367D01*
G01X146900Y-157200D02*
X152234D01*
X151733Y-156033D01*
X150900Y-155367D01*
X149733Y-155034D01*
X148567Y-155200D01*
X147567Y-155700D01*
X146900Y-156867D01*
X146566Y-157867D01*
Y-158867D01*
X146900Y-159867D01*
X147733Y-160867D01*
X148733Y-161533D01*
X149900Y-161700D01*
X151067Y-161367D01*
X152234Y-160367D01*
G01X158066Y-161700D02*
Y-155034D01*
G01Y-156700D02*
X158733Y-155867D01*
X159733Y-155200D01*
X161067Y-155034D01*
X162233Y-155200D01*
X163233Y-155867D01*
X163734Y-157033D01*
Y-161700D01*
G01X176067Y-152534D02*
X175067Y-152033D01*
X173900Y-151700D01*
X172567D01*
X171066Y-152200D01*
X169900Y-153033D01*
X169067Y-154033D01*
X168400Y-155700D01*
X168233Y-157200D01*
X168567Y-158700D01*
X169067Y-159700D01*
X170067Y-160700D01*
X171233Y-161367D01*
X172400Y-161700D01*
X173567D01*
X174733Y-161367D01*
X175733Y-160867D01*
X176567Y-160200D01*
G01X181400Y-157200D02*
X186734D01*
X186233Y-156033D01*
X185400Y-155367D01*
X184233Y-155034D01*
X183067Y-155200D01*
X182067Y-155700D01*
X181400Y-156867D01*
X181066Y-157867D01*
Y-158867D01*
X181400Y-159867D01*
X182233Y-160867D01*
X183233Y-161533D01*
X184400Y-161700D01*
X185567Y-161367D01*
X186734Y-160367D01*
G01X195400Y-161700D02*
Y-151700D01*
G01X206900Y-161700D02*
Y-151700D01*
G01X215566Y-155034D02*
Y-159700D01*
X216233Y-160867D01*
X217233Y-161533D01*
X218400Y-161700D01*
X219567Y-161533D01*
X220567Y-160867D01*
X221234Y-159700D01*
G01Y-161700D02*
Y-155034D01*
G01X229900Y-161700D02*
Y-151700D01*
G01X244400Y-161700D02*
Y-155034D01*
G01Y-156200D02*
X243733Y-155533D01*
X242733Y-155200D01*
X241567Y-155034D01*
X240400Y-155367D01*
X239400Y-156033D01*
X238733Y-157033D01*
X238400Y-158367D01*
X238733Y-159700D01*
X239400Y-160700D01*
X240400Y-161367D01*
X241567Y-161700D01*
X242733Y-161533D01*
X243733Y-161034D01*
X244400Y-160367D01*
G01X250567Y-161700D02*
Y-155034D01*
G01Y-156367D02*
X251400Y-155700D01*
X252233Y-155200D01*
X253400Y-155034D01*
X254233Y-155200D01*
X255233Y-155700D01*
G01X275900Y-161700D02*
Y-151700D01*
G01X291067Y-152534D02*
X290067Y-152033D01*
X288900Y-151700D01*
X287567D01*
X286066Y-152200D01*
X284900Y-153033D01*
X284067Y-154033D01*
X283400Y-155700D01*
X283233Y-157200D01*
X283567Y-158700D01*
X284067Y-159700D01*
X285067Y-160700D01*
X286233Y-161367D01*
X287400Y-161700D01*
X288567D01*
X289733Y-161367D01*
X290733Y-160867D01*
X291567Y-160200D01*
G01X298900Y-161700D02*
X297900Y-161533D01*
X296900Y-160867D01*
X296233Y-159700D01*
X295900Y-158367D01*
X296233Y-157033D01*
X296900Y-155867D01*
X297900Y-155200D01*
X298900Y-155034D01*
X299900Y-155200D01*
X300900Y-155867D01*
X301567Y-157033D01*
X301734Y-158367D01*
X301567Y-159700D01*
X300900Y-160867D01*
X299900Y-161533D01*
X298900Y-161700D01*
G01X307566D02*
Y-155034D01*
G01Y-156700D02*
X308233Y-155867D01*
X309233Y-155200D01*
X310567Y-155034D01*
X311733Y-155200D01*
X312733Y-155867D01*
X313234Y-157033D01*
Y-161700D01*
G01X319066D02*
Y-155034D01*
G01Y-156700D02*
X319733Y-155867D01*
X320733Y-155200D01*
X322067Y-155034D01*
X323233Y-155200D01*
X324233Y-155867D01*
X324734Y-157033D01*
Y-161700D01*
G01X330900Y-157200D02*
X336234D01*
X335733Y-156033D01*
X334900Y-155367D01*
X333733Y-155034D01*
X332567Y-155200D01*
X331567Y-155700D01*
X330900Y-156867D01*
X330566Y-157867D01*
Y-158867D01*
X330900Y-159867D01*
X331733Y-160867D01*
X332733Y-161533D01*
X333900Y-161700D01*
X335067Y-161367D01*
X336234Y-160367D01*
G01X347567Y-155867D02*
X346400Y-155200D01*
X345400Y-155034D01*
X344067Y-155367D01*
X343067Y-156033D01*
X342400Y-157200D01*
X342233Y-158367D01*
X342400Y-159534D01*
X343067Y-160534D01*
X344067Y-161367D01*
X345400Y-161700D01*
X346567Y-161367D01*
X347567Y-160700D01*
G01X356400Y-151700D02*
Y-161700D01*
G01X354067Y-155034D02*
X358733D01*
G01X365733Y-158367D02*
X370067D01*
G01X379400Y-161700D02*
Y-151700D01*
X377400Y-153700D01*
G01Y-161700D02*
X381400D01*
G01X402400D02*
Y-151700D01*
G01X421900Y-160367D02*
X423233Y-161200D01*
X424733Y-161700D01*
X426067D01*
X427400Y-161200D01*
X428400Y-160367D01*
X428900Y-159200D01*
X428567Y-158034D01*
X427733Y-157033D01*
X426233Y-156367D01*
X424233Y-156033D01*
X423067Y-155367D01*
X422566Y-154200D01*
X422900Y-153033D01*
X423733Y-152200D01*
X424900Y-151700D01*
X426067D01*
X427233Y-152033D01*
X428234Y-152867D01*
G01X433233Y-161700D02*
Y-151700D01*
X436567D01*
X437900Y-152200D01*
X438900Y-152867D01*
X439734Y-153866D01*
X440400Y-155034D01*
X440567Y-156700D01*
X440400Y-158367D01*
X439734Y-159534D01*
X438900Y-160534D01*
X437900Y-161200D01*
X436567Y-161700D01*
X433233D01*
G01X445067D02*
Y-151700D01*
X449233D01*
X450567Y-152200D01*
X451400Y-152867D01*
X451733Y-154200D01*
X451400Y-155533D01*
X450400Y-156367D01*
X449233Y-156867D01*
X445067D01*
G01X449233D02*
X451733Y-161700D01*
G01X472733Y-156367D02*
X473400Y-155867D01*
X473900Y-155034D01*
X474234Y-153866D01*
X473900Y-152867D01*
X473233Y-152200D01*
X472067Y-151700D01*
X467567D01*
Y-161700D01*
X473067D01*
X474234Y-161034D01*
X474900Y-160033D01*
X475233Y-158867D01*
X474900Y-157700D01*
X473900Y-156700D01*
X472733Y-156367D01*
X467567D01*
G01X482900Y-161700D02*
X481566Y-161533D01*
X480400Y-160867D01*
X479400Y-159867D01*
X478733Y-158700D01*
X478400Y-157367D01*
Y-156033D01*
X478733Y-154700D01*
X479400Y-153533D01*
X480400Y-152534D01*
X481566Y-151867D01*
X482900Y-151700D01*
X484233Y-151867D01*
X485400Y-152534D01*
X486400Y-153533D01*
X487067Y-154700D01*
X487400Y-156033D01*
Y-157367D01*
X487067Y-158700D01*
X486400Y-159867D01*
X485400Y-160867D01*
X484233Y-161533D01*
X482900Y-161700D01*
G01X490233D02*
X494400Y-151700D01*
X498567Y-161700D01*
G01X497067Y-158200D02*
X491733D01*
G01X502567Y-161700D02*
Y-151700D01*
X506733D01*
X508067Y-152200D01*
X508900Y-152867D01*
X509233Y-154200D01*
X508900Y-155533D01*
X507900Y-156367D01*
X506733Y-156867D01*
X502567D01*
G01X506733D02*
X509233Y-161700D01*
G01X513733D02*
Y-151700D01*
X517067D01*
X518400Y-152200D01*
X519400Y-152867D01*
X520234Y-153866D01*
X520900Y-155034D01*
X521067Y-156700D01*
X520900Y-158367D01*
X520234Y-159534D01*
X519400Y-160534D01*
X518400Y-161200D01*
X517067Y-161700D01*
X513733D01*
G01X4000Y415000D02*
X0Y411000D01*
Y4000D01*
X4000Y0D01*
X261000D01*
X265000Y4000D01*
Y8500D01*
X269000Y12500D01*
X431000D01*
X435000Y8500D01*
Y4000D01*
X439000Y0D01*
X696000D01*
X700000Y4000D01*
Y411000D01*
X696000Y415000D01*
X582000D01*
X578000Y411000D01*
Y374000D01*
X574000Y370000D01*
X522000D01*
X518000Y374000D01*
Y411000D01*
X514000Y415000D01*
X186000D01*
X182000Y411000D01*
Y374000D01*
X178000Y370000D01*
X126000D01*
X122000Y374000D01*
Y411000D01*
X118000Y415000D01*
X4000D01*
G01X154667Y-172700D02*
Y-182700D01*
X161333D01*
G01X165333D02*
X169500Y-172700D01*
X173667Y-182700D01*
G01X172167Y-179200D02*
X166833D01*
G01X181000Y-182700D02*
Y-178200D01*
X177667Y-172700D01*
G01X184333D02*
X181000Y-178200D01*
G01X195833Y-182700D02*
X189167D01*
Y-172700D01*
X195833D01*
G01X193167Y-177533D02*
X189167D01*
G01X200667Y-182700D02*
Y-172700D01*
X204833D01*
X206167Y-173200D01*
X207000Y-173867D01*
X207333Y-175200D01*
X207000Y-176533D01*
X206000Y-177367D01*
X204833Y-177867D01*
X200667D01*
G01X204833D02*
X207333Y-182700D01*
G01X211833Y-181200D02*
X212833Y-182034D01*
X214000Y-182533D01*
X215500Y-182700D01*
X217000Y-182367D01*
X218167Y-181700D01*
X219000Y-180534D01*
X219167Y-179200D01*
X218833Y-177867D01*
X218000Y-177033D01*
X216833Y-176367D01*
X215667Y-176200D01*
X214500Y-176367D01*
X213000Y-177033D01*
X213500Y-172700D01*
X218000D01*
G01X273767Y-122500D02*
Y-112500D01*
X277767D01*
X279100Y-113000D01*
X280100Y-114167D01*
X280433Y-115500D01*
X280100Y-116833D01*
X279267Y-117833D01*
X277767Y-118334D01*
X273767D01*
G01X284433Y-122500D02*
X288600Y-112500D01*
X292767Y-122500D01*
G01X291267Y-119000D02*
X285933D01*
G01X296767Y-122500D02*
Y-112500D01*
X300933D01*
X302267Y-113000D01*
X303100Y-113667D01*
X303433Y-115000D01*
X303100Y-116333D01*
X302100Y-117167D01*
X300933Y-117667D01*
X296767D01*
G01X300933D02*
X303433Y-122500D01*
G01X311600Y-112500D02*
Y-122500D01*
G01X307767Y-112500D02*
X315433D01*
G01X330767Y-122500D02*
Y-112500D01*
X338433Y-122500D01*
Y-112500D01*
G01X342433D02*
Y-119667D01*
X343100Y-121167D01*
X344433Y-122167D01*
X346100Y-122500D01*
X347767Y-122167D01*
X349100Y-121167D01*
X349767Y-119667D01*
Y-112500D01*
G01X353266Y-122500D02*
Y-112500D01*
X357600Y-120833D01*
X361934Y-112500D01*
Y-122500D01*
G01X370433Y-117167D02*
X371100Y-116667D01*
X371600Y-115834D01*
X371934Y-114666D01*
X371600Y-113667D01*
X370933Y-113000D01*
X369767Y-112500D01*
X365267D01*
Y-122500D01*
X370767D01*
X371934Y-121834D01*
X372600Y-120833D01*
X372933Y-119667D01*
X372600Y-118500D01*
X371600Y-117500D01*
X370433Y-117167D01*
X365267D01*
G01X383933Y-122500D02*
X377267D01*
Y-112500D01*
X383933D01*
G01X381267Y-117333D02*
X377267D01*
G01X388767Y-122500D02*
Y-112500D01*
X392933D01*
X394267Y-113000D01*
X395100Y-113667D01*
X395433Y-115000D01*
X395100Y-116333D01*
X394100Y-117167D01*
X392933Y-117667D01*
X388767D01*
G01X392933D02*
X395433Y-122500D01*
G01X403600Y-122833D02*
X403267Y-122667D01*
Y-122333D01*
X403600Y-122167D01*
X403933Y-122333D01*
Y-122667D01*
X403600Y-122833D01*
G01Y-118334D02*
X403267Y-118167D01*
Y-117833D01*
X403600Y-117667D01*
X403933Y-117833D01*
Y-118167D01*
X403600Y-118334D01*
G01X411933Y-114167D02*
X412933Y-113167D01*
X414100Y-112667D01*
X415433Y-112500D01*
X417100Y-112833D01*
X418267Y-113667D01*
X418600Y-114666D01*
X418433Y-115667D01*
X417767Y-116500D01*
X414433Y-118167D01*
X412933Y-119333D01*
X411933Y-121000D01*
X411600Y-122500D01*
X418600D01*
G01X422933Y-120500D02*
X423933Y-121667D01*
X425267Y-122333D01*
X426767Y-122500D01*
X428100Y-122333D01*
X429434Y-121500D01*
X430267Y-120500D01*
X430433Y-119500D01*
X430100Y-118334D01*
X428933Y-117500D01*
X427767Y-117167D01*
X426267D01*
G01X427767D02*
X428767Y-116667D01*
X429600Y-115834D01*
X429933Y-114833D01*
X429600Y-113833D01*
X428767Y-113000D01*
X427267Y-112500D01*
X425767Y-112667D01*
X424267Y-113334D01*
G01X438100Y-122500D02*
Y-112500D01*
X436100Y-114500D01*
G01Y-122500D02*
X440100D01*
G01X447433Y-119167D02*
X451767D01*
G01X461100Y-112500D02*
X459766Y-112833D01*
X458767Y-113667D01*
X458100Y-114666D01*
X457600Y-116000D01*
X457433Y-117500D01*
X457600Y-119000D01*
X458100Y-120334D01*
X458767Y-121334D01*
X459766Y-122167D01*
X461100Y-122500D01*
X462433Y-122167D01*
X463433Y-121334D01*
X464100Y-120334D01*
X464600Y-119000D01*
X464767Y-117500D01*
X464600Y-116000D01*
X464100Y-114666D01*
X463433Y-113667D01*
X462433Y-112833D01*
X461100Y-112500D01*
G01X472600D02*
X471267Y-112833D01*
X470267Y-113667D01*
X469600Y-114666D01*
X469100Y-116000D01*
X468933Y-117500D01*
X469100Y-119000D01*
X469600Y-120334D01*
X470267Y-121334D01*
X471267Y-122167D01*
X472600Y-122500D01*
X473933Y-122167D01*
X474933Y-121334D01*
X475600Y-120334D01*
X476100Y-119000D01*
X476267Y-117500D01*
X476100Y-116000D01*
X475600Y-114666D01*
X474933Y-113667D01*
X473933Y-112833D01*
X472600Y-112500D01*
G01X484100D02*
X482766Y-112833D01*
X481767Y-113667D01*
X481100Y-114666D01*
X480600Y-116000D01*
X480433Y-117500D01*
X480600Y-119000D01*
X481100Y-120334D01*
X481767Y-121334D01*
X482766Y-122167D01*
X484100Y-122500D01*
X485433Y-122167D01*
X486433Y-121334D01*
X487100Y-120334D01*
X487600Y-119000D01*
X487767Y-117500D01*
X487600Y-116000D01*
X487100Y-114666D01*
X486433Y-113667D01*
X485433Y-112833D01*
X484100Y-112500D01*
G01X495600D02*
X494266Y-112833D01*
X493267Y-113667D01*
X492600Y-114666D01*
X492100Y-116000D01*
X491933Y-117500D01*
X492100Y-119000D01*
X492600Y-120334D01*
X493267Y-121334D01*
X494266Y-122167D01*
X495600Y-122500D01*
X496933Y-122167D01*
X497933Y-121334D01*
X498600Y-120334D01*
X499100Y-119000D01*
X499267Y-117500D01*
X499100Y-116000D01*
X498600Y-114666D01*
X497933Y-113667D01*
X496933Y-112833D01*
X495600Y-112500D01*
G01X503933Y-118334D02*
X505100Y-117167D01*
X506100Y-116500D01*
X507433Y-116167D01*
X508600Y-116500D01*
X509433Y-117167D01*
X510100Y-118167D01*
X510267Y-119333D01*
X510100Y-120334D01*
X509433Y-121334D01*
X508433Y-122167D01*
X507267Y-122500D01*
X505933Y-122167D01*
X504767Y-121167D01*
X504100Y-119667D01*
X503933Y-118000D01*
X504267Y-115834D01*
X504767Y-114666D01*
X505600Y-113500D01*
X506767Y-112667D01*
X507933Y-112500D01*
X509100Y-112833D01*
X509934Y-113667D01*
G01X518267Y-122500D02*
X518600Y-120334D01*
X519100Y-118500D01*
X519767Y-116833D01*
X520600Y-115000D01*
X521933Y-112500D01*
X515267D01*
G01X538520Y123270D02*
X547712Y119334D01*
G02X542288Y106666I-2712J-6334D01*
G01X533095Y110603D01*
G02X538520Y123270I2712J6334D01*
G01X645867Y-153300D02*
Y-163300D01*
X652533D01*
G01X658700Y-153300D02*
X662700D01*
G01X660700D02*
Y-163300D01*
G01X658700D02*
X662700D01*
G01X669033D02*
Y-153300D01*
X675367D01*
G01X673033Y-158133D02*
X669033D01*
G01X687033Y-163300D02*
X680367D01*
Y-153300D01*
X687033D01*
G01X684367Y-158133D02*
X680367D01*
G01X693033Y-159967D02*
X697367D01*
G01X703033Y-161300D02*
X704033Y-162467D01*
X705366Y-163133D01*
X706867Y-163300D01*
X708200Y-163133D01*
X709534Y-162300D01*
X710367Y-161300D01*
X710533Y-160300D01*
X710200Y-159134D01*
X709033Y-158300D01*
X707867Y-157967D01*
X706367D01*
G01X707867D02*
X708867Y-157467D01*
X709700Y-156634D01*
X710033Y-155633D01*
X709700Y-154633D01*
X708867Y-153800D01*
X707367Y-153300D01*
X705867Y-153467D01*
X704367Y-154134D01*
M02*
