G04 ================== begin FILE IDENTIFICATION RECORD ==================*
G04 Layout Name:  OC_CONNECT_1_SDR_LIFE-3.brd*
G04 Film Name:    L7-SIG3*
G04 File Format:  Gerber RS274X*
G04 File Origin:  Cadence Allegro 16.6-2015-S065*
G04 Origin Date:  Mon Jan 16 17:19:47 2017*
G04 *
G04 Layer:  DRAWING FORMAT/L7*
G04 Layer:  DRAWING FORMAT/FILM_LABEL_OUTLINE*
G04 Layer:  VIA CLASS/L7-SIG3*
G04 Layer:  PIN/L7-SIG3*
G04 Layer:  ETCH/L7-SIG3*
G04 Layer:  BOARD GEOMETRY/OUTLINE*
G04 *
G04 Offset:    (0.000 0.000)*
G04 Mirror:    No*
G04 Mode:      Positive*
G04 Rotation:  0*
G04 FullContactRelief:  No*
G04 UndefLineWidth:     6.000*
G04 ================== end FILE IDENTIFICATION RECORD ====================*
%FSLAX25Y25*MOIN*%
%IR0*IPPOS*OFA0.00000B0.00000*MIA0B0*SFA1.00000B1.00000*%
%ADD17C,.175*%
%ADD14C,.114173*%
%ADD10C,.314961*%
%ADD18C,.291339*%
%ADD20C,.02*%
%ADD11C,.022*%
%ADD21C,.051*%
%ADD13C,.016*%
%ADD23C,.053*%
%ADD26C,.018*%
%ADD19C,.0315*%
%ADD12C,.023622*%
%ADD15C,.051181*%
%AMMACRO24*
21,1,.175,.1,0.0,0.0,66.82*
1,1,.175,.045964,-.019681*
1,1,.175,-.045964,.019681*%
%ADD24MACRO24*%
%ADD22C,.059055*%
%ADD25C,.06299*%
%ADD16C,.059843*%
%ADD27C,.005*%
%ADD28C,.006*%
%ADD29C,.0061*%
%ADD30C,.0055*%
%ADD31C,.0047*%
%ADD32C,.01*%
%ADD33C,.015*%
%ADD34C,.025*%
%ADD41C,.114492*%
%ADD38C,.236227*%
%ADD40C,.144178*%
%ADD47C,.030004*%
%ADD42C,.042004*%
%ADD51C,.071004*%
%ADD44C,.026004*%
%ADD53C,.028004*%
%ADD52C,.073004*%
%ADD48C,.083004*%
%ADD39C,.038004*%
%ADD46C,.066004*%
%ADD45C,.047504*%
%ADD37C,.092523*%
%ADD43C,.045438*%
%ADD35C,.072838*%
%ADD36C,.072839*%
%ADD50C,.082994*%
%ADD49C,.092994*%
G75*
%LPD*%
G75*
G36*
G01X5036Y2500D02*
X2500Y5036D01*
Y409965D01*
X5036Y412500D01*
X116964D01*
X119500Y409965D01*
Y372964D01*
X124965Y367500D01*
X179036D01*
X184500Y372964D01*
Y409965D01*
X187036Y412500D01*
X512965D01*
X515500Y409965D01*
Y405087D01*
G02X514817Y404804I-400J0D01*
G01X511621Y408000D01*
X316879D01*
X311500Y402621D01*
Y377379D01*
X315879Y373000D01*
X322379D01*
X324500Y370879D01*
Y360379D01*
X327560Y357318D01*
G02X327278Y356635I-283J-283D01*
G01X323997D01*
X308357Y372275D01*
X207265D01*
X196765Y361775D01*
X111857D01*
X109775Y363857D01*
Y373235D01*
X104235Y378775D01*
X92765D01*
X88224Y374234D01*
Y367124D01*
X91623Y363725D01*
X95645D01*
X95703Y363667D01*
G03X98863Y365911I2049J462D01*
G02Y366590I212J339D01*
G03X95703Y368833I-1111J1782D01*
G01X95645Y368775D01*
X93715D01*
X93274Y369216D01*
Y372143D01*
X94857Y373725D01*
X102143D01*
X104725Y371143D01*
Y361765D01*
X109765Y356725D01*
X112781D01*
X114080Y355425D01*
X115916D01*
G03X117171Y355945I0J1775D01*
G01X117566Y356340D01*
X117960Y355945D01*
G03X119216Y355425I1255J1255D01*
G01X120316D01*
G03X121571Y355945I0J1775D01*
G01X121966Y356340D01*
X122360Y355945D01*
G03X123616Y355425I1255J1255D01*
G01X124716D01*
G03X125971Y355945I0J1775D01*
G01X126366Y356340D01*
X126761Y355945D01*
G03X128016Y355425I1255J1255D01*
G01X129116D01*
G03X130371Y355945I0J1775D01*
G01X130766Y356340D01*
X131160Y355945D01*
G03X132416Y355425I1255J1255D01*
G01X133516D01*
G03X134771Y355945I0J1775D01*
G01X135166Y356340D01*
X135560Y355945D01*
G03X136816Y355425I1255J1255D01*
G01X137916D01*
G03X139171Y355945I0J1775D01*
G01X139721Y356495D01*
G03X139915Y356725I-1256J1255D01*
G01X198857D01*
X209357Y367225D01*
X306265D01*
X320346Y353143D01*
G02X320064Y352460I-283J-283D01*
G01X298485D01*
X291123Y345098D01*
G02X290520Y345140I-283J283D01*
G03X287574Y342744I-1520J-1141D01*
G02X287273Y342080I-300J-264D01*
G01X285727D01*
G02X285426Y342744I0J400D01*
G03X282574I-1426J1255D01*
G02X282273Y342080I-300J-264D01*
G01X279727D01*
G02X279426Y342744I0J400D01*
G03X276574I-1426J1255D01*
G02X276273Y342080I-300J-264D01*
G01X275455D01*
X259927Y326552D01*
G02X259358Y326556I-283J283D01*
G03X256808Y323747I-1358J-1329D01*
G01X256817Y323740D01*
X256966Y323591D01*
X256715Y323340D01*
X252025D01*
X248355Y319670D01*
X232015D01*
X215965Y303620D01*
X213255D01*
X202005Y292370D01*
X194405D01*
X186360Y284325D01*
Y245321D01*
G02X185923Y244922I-400J0D01*
G03Y241138I-173J-1892D01*
G02X186360Y240739I37J-398D01*
G01Y215160D01*
G03X187832Y213432I1750J0D01*
G01X188000Y213405D01*
Y211300D01*
G03X189283Y209613I1750J0D01*
G02X189460Y208945I-107J-385D01*
G01X188240Y207725D01*
Y201225D01*
X192589Y196876D01*
G02X192427Y196212I-283J-283D01*
G03X194129Y195928I573J-1812D01*
G02X194367Y196650I238J322D01*
G01X203633D01*
G02X203871Y195928I0J-400D01*
G03X206129I1129J-1528D01*
G02X206367Y196650I238J322D01*
G01X212900D01*
G03X214647Y198505I0J1750D01*
G02X215329Y198812I399J24D01*
G01X223250Y190891D01*
Y181139D01*
X219350Y177239D01*
Y161261D01*
X233686Y146925D01*
X243625D01*
G03Y152425I0J2750D01*
G01X235964D01*
X224850Y163539D01*
Y174961D01*
X228750Y178861D01*
Y193169D01*
X210169Y211750D01*
X203139D01*
X199750Y215139D01*
Y215515D01*
G02X200365Y215853I400J0D01*
G03Y218048I697J1098D01*
G02X199750Y218386I-214J338D01*
G01Y236997D01*
G02X200437Y237276I400J0D01*
G03Y239924I1363J1324D01*
G02X199750Y240203I-287J279D01*
G01Y240361D01*
X204250Y244861D01*
Y252361D01*
X206839Y254950D01*
X217481D01*
X220080Y252351D01*
Y246101D01*
X224391Y241790D01*
X236319D01*
X242260Y247731D01*
X249380D01*
X253578Y243533D01*
G02X253295Y242850I-283J-283D01*
G01X243875D01*
X229250Y228225D01*
Y178275D01*
X243815Y163710D01*
X247425D01*
X255793Y155341D01*
Y152819D01*
X259750Y148862D01*
Y139725D01*
X256475Y136450D01*
X242045D01*
X239295Y133700D01*
X231895D01*
X221945Y123750D01*
X218725D01*
X213305Y129170D01*
X199195D01*
X192250Y122225D01*
Y111775D01*
X196902Y107123D01*
G02X196860Y106520I-283J-283D01*
G03X199520Y103860I1140J-1520D01*
G02X200123Y103902I320J-240D01*
G01X201238Y102786D01*
X201254Y102751D01*
G03X203749Y105246I1746J749D01*
G01X203714Y105262D01*
X195750Y113225D01*
Y120775D01*
X200645Y125670D01*
X211855D01*
X217275Y120250D01*
X220309D01*
G02X220592Y119567I0J-400D01*
G01X220275Y119250D01*
X208725D01*
X206725Y121250D01*
X203275D01*
X202286Y120262D01*
X202251Y120246D01*
G03X204746Y117750I749J-1746D01*
G01X205275D01*
X207275Y115750D01*
X221725D01*
X224465Y118490D01*
X225838D01*
G02X226127Y117813I0J-400D01*
G03X228162Y114719I1373J-1313D01*
G02X228701Y114344I139J-375D01*
G01Y105176D01*
X226275Y102750D01*
X218752D01*
X215467Y99465D01*
X202556D01*
X202285Y99737D01*
X202269Y99772D01*
G03X199774Y97277I-1746J-749D01*
G01X199809Y97262D01*
X201106Y95965D01*
X216917D01*
X220202Y99250D01*
X227725D01*
X232201Y103726D01*
Y114306D01*
X248645Y130750D01*
X263781D01*
X266900Y133869D01*
Y150350D01*
X268315D01*
X273050Y145615D01*
Y132092D01*
X276250Y128892D01*
Y108775D01*
X283750Y101275D01*
Y77845D01*
X314545Y47050D01*
X314956D01*
G02X315302Y46450I0J-400D01*
G03X319268Y43850I2060J-1183D01*
G01X319277Y43862D01*
X319429Y44014D01*
X319750Y43693D01*
Y41890D01*
G02X319063Y41610I-400J0D01*
G03X315967Y38031I-1701J-1658D01*
G02X315920Y37354I-235J-324D01*
G03X315920Y31922I1443J-2716D01*
G02X315967Y31245I-188J-353D01*
G03X318758I1395J-1922D01*
G02X318805Y31922I235J324D01*
G03X318805Y37354I-1443J2716D01*
G02X318758Y38031I188J353D01*
G03X319063Y38295I-1395J1922D01*
G02X319750Y38016I286J-279D01*
G01Y37255D01*
X322468Y34537D01*
X322474Y34463D01*
G03X323447Y32716I2369J175D01*
G02X323400Y32039I-235J-324D01*
G03X322861Y26971I1443J-2716D01*
G02Y26360I-258J-306D01*
G03X323400Y21292I1982J-2352D01*
G02X323447Y20615I-188J-353D01*
G03X326238I1395J-1922D01*
G02X326285Y21292I235J324D01*
G03X326824Y26360I-1443J2716D01*
G02Y26971I258J306D01*
G03X326285Y32039I-1982J2352D01*
G02X326238Y32716I188J353D01*
G03X326417Y32860I-1395J1922D01*
G01X326474Y32910D01*
X326750D01*
Y32421D01*
X329949Y29222D01*
X329954Y29148D01*
G03X330928Y27401I2369J175D01*
G02X330880Y26724I-235J-324D01*
G03X330341Y21656I1443J-2716D01*
G02Y21044I-258J-306D01*
G03X334304I1982J-2352D01*
G02Y21656I258J306D01*
G03X333766Y26724I-1982J2352D01*
G02X333718Y27401I188J353D01*
G03X332498Y31692I-1395J1922D01*
G01X332424Y31697D01*
X332058Y32063D01*
X332258Y32262D01*
X332340Y32263D01*
G03X330891Y36533I-17J2375D01*
G02X330250Y36852I-241J319D01*
G01Y37738D01*
G02X330891Y38057I400J0D01*
G03Y41848I1432J1895D01*
G02X330250Y42167I-241J319D01*
G01Y43053D01*
G02X330891Y43372I400J0D01*
G03X332498Y47636I1432J1895D01*
G01X332424Y47642D01*
X330399Y49667D01*
G02X330682Y50350I283J283D01*
G01X335534D01*
X337755Y48128D01*
G02X337741Y47549I-283J-283D01*
G03X338360Y42552I2062J-2281D01*
G02X338408Y41875I-188J-353D01*
G03X340656Y37736I1395J-1922D01*
G02X341200Y37363I144J-373D01*
G01Y37228D01*
G02X340656Y36854I-400J0D01*
G03X338408Y32716I-853J-2217D01*
G02X338360Y32039I-235J-324D01*
G03X338360Y26607I1443J-2716D01*
G02X338408Y25930I-188J-353D01*
G03X341198I1395J-1922D01*
G02X341246Y26607I235J324D01*
G03X342411Y27694I-1443J2716D01*
G02X343034Y27765I339J-212D01*
G01X343226Y27573D01*
X345678D01*
G03X347203Y26949I1606J1750D01*
G01X347282Y26946D01*
X347479Y26749D01*
X347107Y26378D01*
X347037Y26370D01*
G03X345888Y22086I247J-2362D01*
G02X345841Y21409I-235J-324D01*
G03X348726I1443J-2716D01*
G02X348679Y22086I188J353D01*
G03X349382Y22895I-1395J1922D01*
G02X350018Y22990I353J-187D01*
G01X352871Y20137D01*
X352781Y20001D01*
G03X357028Y19412I1982J-1308D01*
G02X357409Y19933I381J121D01*
G01X358872D01*
G02X359260Y19436I0J-400D01*
G03X365228I2984J-743D01*
G02X365616Y19933I388J97D01*
G01X367079D01*
G02X367461Y19412I0J-400D01*
G03X371988I2264J-719D01*
G02X372370Y19933I381J121D01*
G01X373832D01*
G02X374221Y19436I0J-400D01*
G03X380189I2984J-743D01*
G02X380577Y19933I388J97D01*
G01X382040D01*
G02X382421Y19412I0J-400D01*
G03X386949I2264J-719D01*
G02X387330Y19933I381J121D01*
G01X388793D01*
G02X389181Y19436I0J-400D01*
G03X395149I2984J-743D01*
G02X395538Y19933I388J97D01*
G01X397001D01*
G02X397382Y19412I0J-400D01*
G03X399471Y16324I2264J-719D01*
G01X399545Y16319D01*
X400180Y15683D01*
G02X399898Y15000I-283J-283D01*
G01X268520D01*
G02X268169Y15591I0J400D01*
G03X267733Y17946I-1669J909D01*
G02Y18554I260J304D01*
G03X264848Y20939I-1233J1446D01*
G02X264152I-348J198D01*
G03X261267Y18554I-1652J-939D01*
G02Y17946I-260J-304D01*
G03X264152Y15561I1233J-1446D01*
G02X264848I348J-198D01*
G03X266583Y14602I1652J939D01*
G02X266884Y13919I18J-400D01*
G01X262500Y9536D01*
Y5036D01*
X259965Y2500D01*
X5036D01*
G37*
G36*
G01X230561Y122651D02*
G03X229681Y125706I-1441J1239D01*
G02X229516Y126371I118J382D01*
G01X233345Y130200D01*
X240745D01*
X243495Y132950D01*
X243812D01*
G02X243953Y132608I0J-200D01*
G01X233335Y121990D01*
X230864D01*
G02X230561Y122651I0J400D01*
G37*
G36*
G01X192747Y201668D02*
X191740Y202675D01*
Y206275D01*
X192747Y207282D01*
G02X193430Y206999I283J-283D01*
G01Y201951D01*
G02X192747Y201668I-400J0D01*
G37*
G36*
G01X213005Y200147D02*
G03X212900Y200150I-104J-1747D01*
G01X211916D01*
X211891Y200320D01*
G03X210160Y201810I-1731J-260D01*
G01X197055D01*
X196930Y201935D01*
Y209215D01*
G02X197613Y209498I400J0D01*
G01X200285Y206826D01*
G02X200125Y206162I-283J-283D01*
G03X201616Y205632I400J-1237D01*
G02X201952Y206250I336J218D01*
G01X203168D01*
G02X203488Y205609I0J-400D01*
G03X205562I1038J-784D01*
G02X205882Y206250I319J241D01*
G01X207891D01*
X213311Y200829D01*
G02X213005Y200147I-283J-283D01*
G37*
G36*
G01X207705Y260450D02*
X204561D01*
X198750Y254639D01*
Y247139D01*
X197513Y245902D01*
G02X196830Y246185I-283J283D01*
G01Y254955D01*
X204400Y262525D01*
Y267585D01*
X208585Y271770D01*
X223655D01*
X226815Y268610D01*
X229600D01*
Y268409D01*
Y268400D01*
G02X229200Y268000I-400J0D01*
G01X228379D01*
X225000Y264621D01*
Y258540D01*
X222800D01*
Y258375D01*
G02X222117Y258092I-400J0D01*
G01X219759Y260450D01*
X216706D01*
G02X216323Y260963I0J400D01*
G03X212677I-1823J537D01*
G02X212294Y260450I-384J-113D01*
G01X211895D01*
G02X211531Y261015I0J400D01*
G03X208069I-1731J785D01*
G02X207705Y260450I-364J-165D01*
G37*
G36*
G01X267726Y240116D02*
G02X267104Y240187I-283J283D01*
G03X265064Y240402I-1104J-687D01*
G02X264493Y240397I-288J278D01*
G01X254572Y250317D01*
G02X254855Y251000I283J283D01*
G01X266000D01*
Y248500D01*
X271500D01*
Y251000D01*
X274621D01*
X278864Y255243D01*
G02X279547Y254963I283J-283D01*
G03X284037Y259453I4453J37D01*
G02X283757Y260136I3J400D01*
G01X284738Y261116D01*
X284796Y261128D01*
G03X287872Y264204I-796J3872D01*
G01X287884Y264262D01*
X290621Y267000D01*
X298950D01*
Y252750D01*
X289631D01*
X286253Y249371D01*
Y248939D01*
G02X285682Y248577I-400J0D01*
G03X280672Y242866I-1682J-3577D01*
G02X280336Y242250I-337J-216D01*
G01X269861D01*
X267726Y240116D01*
G37*
G36*
G01X192183Y264838D02*
G02X191500Y265121I-283J283D01*
G01Y281045D01*
X197215Y286760D01*
X199104D01*
G02X199344Y286040I0J-400D01*
G03X201768Y283119I1138J-1521D01*
G02X202292Y283133I271J-295D01*
G03X204201Y286366I1208J1467D01*
G02X204066Y287021I148J372D01*
G01X212897Y295851D01*
G02X213493Y295818I283J-283D01*
G03X216648Y296090I1487J1182D01*
G02X217340Y296107I351J-192D01*
G03X220418Y295882I1620J993D01*
G02X221033Y295881I307J-256D01*
G03X224032Y295978I1462J1214D01*
G02X224670Y295991I324J-235D01*
G03X224623Y298287I1490J1179D01*
G02X223985Y298274I-324J235D01*
G03X221037Y298313I-1490J-1179D01*
G02X220422Y298314I-307J256D01*
G03X219564Y298902I-1462J-1214D01*
G02X219409Y299564I127J379D01*
G01X234305Y314460D01*
X242659D01*
G02X243039Y313936I0J-400D01*
G03X246651I1806J-591D01*
G02X247031Y314460I380J124D01*
G01X252975D01*
X256575Y318060D01*
X258915D01*
X263533Y322678D01*
G02X264213Y322443I283J-283D01*
G03X266617Y320839I1887J225D01*
G02X267121Y320394I109J-385D01*
G03X268483Y321937I1879J-285D01*
G02X267979Y322382I-109J385D01*
G03X266325Y324555I-1879J286D01*
G02X266090Y325235I47J397D01*
G01X267301Y326446D01*
G02X267867Y326445I283J-283D01*
G03X270555Y329133I1346J1341D01*
G02X270554Y329699I282J283D01*
G01X277835Y336980D01*
X279931D01*
G02X280326Y336514I0J-400D01*
G03X284074I1874J-314D01*
G02X284469Y336980I395J66D01*
G01X289969D01*
G02X290348Y336453I0J-400D01*
G03X292392Y337735I1802J-603D01*
G02X292160Y338414I51J397D01*
G01X294247Y340502D01*
G02X294930Y340219I283J-283D01*
G01Y301545D01*
X265865Y272480D01*
X245836D01*
G02X245494Y273088I0J400D01*
G03X245238Y275238I-1494J912D01*
G01X244250Y276225D01*
Y305225D01*
X242500Y306975D01*
Y311150D01*
G03X239163Y311888I-1750J0D01*
G02X238437I-363J169D01*
G03X235100Y311150I-1587J-738D01*
G01Y306425D01*
X238250Y303275D01*
Y296226D01*
G02X237749Y295839I-400J0D01*
G03Y292161I-479J-1839D01*
G02X238250Y291774I101J-387D01*
G01Y275775D01*
X239262Y274762D01*
G03X241037Y274334I1238J1238D01*
G01X241153Y274372D01*
X241393Y274132D01*
G02X241252Y273790I-141J-141D01*
G01X235920D01*
G02X235673Y274505I0J400D01*
G03X233327I-1173J1495D01*
G02X233080Y273790I-247J-315D01*
G01X228885D01*
X225045Y277630D01*
X212586D01*
G02X212223Y278199I0J400D01*
G03X208777I-1723J801D01*
G02X208414Y277630I-363J-169D01*
G01X207465D01*
X199400Y269565D01*
Y267365D01*
X198695Y266660D01*
X194005D01*
X192183Y264838D01*
G37*
G36*
G01X349000Y222000D02*
X348500Y222500D01*
Y225500D01*
X348000Y226000D01*
X336172D01*
G02X335889Y226683I0J400D01*
G01X336231Y227025D01*
G03X333777Y229479I-1227J1227D01*
G01X333071Y228773D01*
G02X332426Y228887I-283J283D01*
G03X331065Y226752I-1359J-635D01*
G02X331265Y226552I0J-200D01*
G01Y226000D01*
X330352D01*
X328562Y227791D01*
X328588Y227900D01*
G03X325631Y228199I-1458J352D01*
G02X325231Y227785I-400J-14D01*
G01X325092D01*
G02X324692Y228199I0J400D01*
G03X321735Y227900I-1499J53D01*
G01X321761Y227791D01*
X319970Y226000D01*
X316031D01*
X313500Y228531D01*
Y256111D01*
X314250Y256861D01*
Y267500D01*
G03X308938Y268500I-2750J0D01*
G01X298520D01*
G02X298169Y269091I0J400D01*
G03X294831I-1669J909D01*
G02X294480Y268500I-351J-191D01*
G01X290000D01*
X288172Y266672D01*
G02X287532Y266775I-283J283D01*
G03X282225Y261468I-3532J-1775D01*
G02X282328Y260828I-180J-357D01*
G01X274000Y252500D01*
X271008D01*
X270957Y252624D01*
G03X267443I-1757J-724D01*
G01X267392Y252500D01*
X252389D01*
X251658Y253231D01*
X239982D01*
X239251Y252500D01*
X236030D01*
Y258370D01*
X226500D01*
Y264000D01*
X229000Y266500D01*
X231474D01*
G03X231526I26J1900D01*
G01X241389D01*
X241419Y266490D01*
G03X242581I581J1809D01*
G01X242611Y266500D01*
X267500D01*
X282800Y281800D01*
X289096D01*
G03X291904I1404J1280D01*
G01X295651D01*
G03X297349I849J1700D01*
G01X316027D01*
G03X318973I1473J1200D01*
G01X350965D01*
Y281133D01*
G02X350763Y280933I-200J0D01*
G03Y277933I-11J-1500D01*
G02X350965Y277733I2J-200D01*
G01Y277196D01*
G02X350763Y276996I-200J0D01*
G03Y273996I-11J-1500D01*
G02X350965Y273796I2J-200D01*
G01Y273259D01*
G02X350763Y273059I-200J0D01*
G03X350117Y270200I-11J-1500D01*
G02X350231Y269555I-169J-362D01*
G01X349525Y268849D01*
G03X351979Y266395I1227J-1227D01*
G01X352684Y267101D01*
G02X353330Y266987I283J-283D01*
G03X354804Y269118I1359J635D01*
G02X354435Y269517I31J399D01*
G01Y269664D01*
G02X354804Y270063I400J0D01*
G03Y273055I-115J1496D01*
G02X354435Y273454I31J399D01*
G01Y273602D01*
G02X354804Y274000I400J0D01*
G03Y276992I-115J1496D01*
G02X354435Y277391I31J399D01*
G01Y277539D01*
G02X354804Y277937I400J0D01*
G03Y280929I-115J1496D01*
G02X354435Y281328I31J399D01*
G01Y281800D01*
X364500D01*
Y280000D01*
X365000Y279500D01*
Y248000D01*
X362500Y245500D01*
X353000D01*
X352500Y245000D01*
Y237465D01*
G02X351816Y237183I-400J0D01*
G03X352118Y235506I-1064J-1057D01*
G01X352171Y235623D01*
X352500D01*
Y235000D01*
X353000Y234500D01*
X360500D01*
X361000Y235000D01*
Y237500D01*
X361500Y238000D01*
X365185D01*
Y236272D01*
X368000Y233457D01*
Y223954D01*
X366146Y222100D01*
X358500D01*
X358400Y222000D01*
X349000D01*
G37*
G36*
G01X440035Y2500D02*
X437500Y5036D01*
Y9536D01*
X432035Y15000D01*
X418441D01*
G02X418158Y15683I0J400D01*
G01X419176Y16701D01*
G02X419762Y16680I283J-283D01*
G03X423529Y21409I2325J2013D01*
G02X423482Y22086I188J353D01*
G03X421285Y26244I-1395J1922D01*
G02X420750Y26620I-135J377D01*
G01Y26710D01*
G02X421285Y27087I400J0D01*
G03X423482Y31245I801J2236D01*
G02X423529Y31922I235J324D01*
G03X423529Y37354I-1443J2716D01*
G02X423482Y38031I188J353D01*
G03Y41875I-1395J1922D01*
G02X423529Y42552I235J324D01*
G03X419879Y47409I-1443J2716D01*
G01X419878Y47408D01*
X419736Y47265D01*
X418950Y48051D01*
Y54025D01*
X408505Y64470D01*
X359484D01*
X357754Y66200D01*
X354596D01*
G03X354314Y65517I0J-400D01*
G01X354678Y65153D01*
G02X354395Y64470I-283J-283D01*
G01X350410D01*
X350230Y64650D01*
X343666D01*
G03X343381Y64530I0J-400D01*
G01X343322Y64470D01*
X321535D01*
X304650Y81355D01*
Y81763D01*
G02X305333Y82046I400J0D01*
G01X312879Y74500D01*
X385121D01*
X388000Y77379D01*
Y94259D01*
G02X388683Y94542I400J0D01*
G01X421245Y61980D01*
X442145D01*
X450020Y54105D01*
Y42791D01*
X450006Y42755D01*
G03X453535I1764J-705D01*
G01X453520Y42791D01*
Y55555D01*
X443595Y65480D01*
X422695D01*
X390358Y97817D01*
G02X390641Y98500I283J283D01*
G01X391121D01*
X398000Y105379D01*
Y128879D01*
X398621Y129500D01*
X412621D01*
X419621Y136500D01*
X431621D01*
X433621Y138500D01*
X433807D01*
G02X434204Y138052I0J-400D01*
G03X442443I4120J-501D01*
G02X442840Y138500I397J48D01*
G01X447822D01*
G02X448220Y138052I0J-400D01*
G03X456356Y138595I4120J-501D01*
G01X456327Y138706D01*
X464000Y146379D01*
Y156621D01*
X462121Y158500D01*
X452297D01*
G02X451992Y159159I0J400D01*
G03X452147Y160612I-991J841D01*
G02X452500Y161200I353J188D01*
G03X452631Y163794I0J1300D01*
G02X452279Y164264I40J398D01*
G03X450869Y163206I-1279J236D01*
G02X451221Y162736I-40J-398D01*
G03X451353Y161888I1279J-236D01*
G02X451000Y161300I-353J-188D01*
G03X450009Y159159I0J-1300D01*
G02X449703Y158500I-305J-259D01*
G01X447379D01*
X445000Y156121D01*
Y153121D01*
X442379Y150500D01*
X433921D01*
G02X433614Y151156I0J400D01*
G03X433750Y153661I-1614J1344D01*
G01Y164000D01*
G02X438000Y168250I4250J0D01*
G01X515958D01*
G03X558238Y185762I0J59792D01*
G03X568250Y209935I-24173J24173D01*
G01Y279288D01*
G03X561288Y286250I-6962J0D01*
G01X528161D01*
G03Y282750I-1161J-1750D01*
G01X561288D01*
G02X564750Y279288I0J-3461D01*
G01Y209935D01*
G02X555762Y188238I-30685J0D01*
G02X515958Y171750I-39804J39804D01*
G01X438000D01*
G03X430250Y164000I0J-7750D01*
G01Y153661D01*
G03X430386Y151156I1750J-1161D01*
G02X430079Y150500I-307J-256D01*
G01X428420D01*
Y175730D01*
X434170D01*
Y183250D01*
X451175D01*
X453150Y181275D01*
Y178025D01*
X450362Y175238D01*
G03X452838Y172762I1238J-1238D01*
G01X456650Y176575D01*
Y182725D01*
X453468Y185907D01*
G02X453751Y186590I283J283D01*
G01X463046D01*
G03X465825Y189023I1684J880D01*
G02X466056Y189750I231J327D01*
G01X466067D01*
G02X466467Y189350I0J-400D01*
G03X466630Y189028I400J0D01*
G02X467378Y187211I-1130J-1528D01*
G03X467773Y186750I395J-61D01*
G01X469138D01*
G03X469425Y186872I0J400D01*
G02X469936Y186925I287J-278D01*
G03X472895Y188636I1064J1575D01*
G02X473577Y188948I399J29D01*
G01X479465Y183060D01*
X489071D01*
X491416Y180716D01*
G03X494371Y182286I1238J1238D01*
G02X494764Y182762I393J76D01*
G01X495097D01*
X496394Y184058D01*
X496429Y184074D01*
G03X494722Y187461I-749J1746D01*
G02X494120Y187806I-202J345D01*
G01Y197675D01*
X495148Y198702D01*
G03X495615Y199545I-1238J1238D01*
G02X496288Y199737I390J-90D01*
G01X499480Y196545D01*
Y185455D01*
X493791Y179766D01*
X492584D01*
G03Y176266I0J-1750D01*
G01X495241D01*
X502980Y184005D01*
Y197995D01*
X493658Y207317D01*
G02X493941Y208000I283J283D01*
G01X497121D01*
X504621Y215500D01*
X535879D01*
X538879Y212500D01*
X555621D01*
X560500Y217379D01*
Y227121D01*
X560145Y227477D01*
Y234817D01*
X548811Y246150D01*
X485289D01*
X483599Y244460D01*
X482161D01*
X465071Y261550D01*
X437041D01*
G02X436758Y262233I0J400D01*
G01X441895Y267370D01*
X443245D01*
X446000Y270125D01*
Y278025D01*
X449068Y281093D01*
G03X451024Y282801I932J907D01*
G01X450915Y282940D01*
X454135Y286160D01*
G02X454790Y286024I283J-283D01*
G03X456476Y287710I1210J476D01*
G02X456340Y288365I147J372D01*
G01X463671Y295696D01*
G02X464354Y295430I283J-283D01*
G03X468670Y299746I4146J170D01*
G02X468404Y300429I16J400D01*
G01X479850Y311875D01*
Y341935D01*
X476500Y345285D01*
Y358370D01*
X473115D01*
G02X472828Y359048I0J400D01*
G03X470598Y360702I-1005J975D01*
G02X469898I-350J194D01*
G03X469352Y361249I-1225J-678D01*
G02Y361948I194J350D01*
G03X469595Y364227I-678J1225D01*
G02X469638Y364862I263J301D01*
G03X469911Y367560I-964J1461D01*
G01X469574Y367898D01*
Y368503D01*
X469576Y368518D01*
G03X469599Y368800I-1753J282D01*
G01Y369728D01*
X482333Y382463D01*
G02X482944Y382410I283J-283D01*
G03X483267Y382054I1556J1090D01*
G02Y381446I-260J-304D01*
G03X485733I1233J-1446D01*
G02Y382054I260J304D01*
G03X485590Y385056I-1233J1446D01*
G02X485537Y385667I230J328D01*
G01X487365Y387495D01*
Y394755D01*
X483304Y398817D01*
G02X483586Y399500I283J283D01*
G01X488879D01*
X499500Y388879D01*
Y363379D01*
X505879Y357000D01*
X521912D01*
G02X522195Y356317I0J-400D01*
G01X521749Y355871D01*
Y335129D01*
X523500Y333379D01*
Y305879D01*
X526879Y302500D01*
X543000D01*
Y300500D01*
X547000D01*
Y302500D01*
X548000D01*
Y299121D01*
X546000Y297121D01*
Y293379D01*
X548379Y291000D01*
X562121D01*
X568081Y296960D01*
X572219D01*
X576919Y292260D01*
X602861D01*
X604190Y293589D01*
Y309771D01*
X603360Y310601D01*
Y325821D01*
X589864Y339317D01*
G02X590147Y340000I283J283D01*
G01X607668D01*
G03X609811I1071J737D01*
G01X610000D01*
Y340417D01*
X610005Y340440D01*
G03X610036Y340632I-1266J298D01*
G02X610434Y341000I399J-32D01*
G01X641879D01*
X648000Y334879D01*
Y296379D01*
X654500Y289879D01*
Y271820D01*
G03Y268295I710J-1763D01*
G01Y261621D01*
X642000Y249121D01*
Y226000D01*
X643379D01*
X646379Y223000D01*
X659379D01*
X659879Y222500D01*
X667121D01*
X673317Y228695D01*
G02X674000Y228412I283J-283D01*
G01Y167621D01*
X661240Y154861D01*
Y154121D01*
X646359Y139240D01*
X644662D01*
G03X641778Y139475I-1542J-1110D01*
G02X641209Y139478I-283J283D01*
G03X638294Y139240I-1359J-1328D01*
G01X635339D01*
X632620Y136521D01*
Y128039D01*
X635519Y125140D01*
X657131D01*
X665441Y133450D01*
X668595D01*
G02X668994Y133077I0J-400D01*
G03X670075Y131487I1896J127D01*
G02X670183Y130840I-172J-361D01*
G03X672505Y127861I1327J-1360D01*
G01X672553Y127891D01*
X672810D01*
Y127536D01*
X672610Y127336D01*
Y124444D01*
G02X671949Y124141I-400J0D01*
G03X668810Y122700I-1239J-1441D01*
G01Y122500D01*
X643364D01*
X628387Y107523D01*
X603080D01*
G03Y102523I0J-2500D01*
G01X621207D01*
G02X621525Y101880I0J-400D01*
G03X623593I1034J-788D01*
G02X623911Y102523I318J242D01*
G01X630458D01*
X645436Y117500D01*
X674016D01*
X677610Y121094D01*
Y125264D01*
X677810Y125464D01*
Y129100D01*
G03X673471Y130794I-2500J0D01*
G02X672887Y130789I-294J271D01*
G03X672325Y131196I-1377J-1309D01*
G02X672217Y131844I172J361D01*
G03X672786Y133077I-1327J1360D01*
G02X673185Y133450I399J-27D01*
G01X684071D01*
X695500Y144879D01*
Y339121D01*
X656121Y378500D01*
X594379D01*
X583979Y368100D01*
X576602D01*
G02X576319Y368783I0J400D01*
G01X580500Y372964D01*
Y409965D01*
X583036Y412500D01*
X694964D01*
X697500Y409965D01*
Y5036D01*
X694964Y2500D01*
X440035D01*
G37*
G36*
G01X372370Y38713D02*
G02X371988Y39234I0J400D01*
G03X371120Y41875I-2264J719D01*
G02X371167Y42552I235J324D01*
G03X368331Y48009I-1443J2716D01*
G02X367750Y48366I-181J357D01*
G01Y48578D01*
X367755Y48600D01*
G03X367800Y49000I-1755J400D01*
G01Y54568D01*
G02X368513Y54817I400J0D01*
G03Y57183I1487J1183D01*
G02X367800Y57432I-313J249D01*
G01Y60970D01*
X407055D01*
X415450Y52575D01*
Y48714D01*
G02X414999Y48318I-400J0D01*
G03X413164Y42552I-393J-3050D01*
G02X413211Y41875I-188J-353D01*
G03X412342Y39234I1395J-1922D01*
G02X411961Y38713I-381J-121D01*
G01X409771D01*
G02X409390Y39234I0J400D01*
G03X404862I-2264J719D01*
G02X404481Y38713I-381J-121D01*
G01X402291D01*
G02X401910Y39234I0J400D01*
G03X401041Y41875I-2264J719D01*
G02X401088Y42552I235J324D01*
G03X398203I-1443J2716D01*
G02X398250Y41875I-188J-353D01*
G03X397382Y39234I1395J-1922D01*
G02X397001Y38713I-381J-121D01*
G01X394810D01*
G02X394429Y39234I0J400D01*
G03X389901I-2264J719D01*
G02X389520Y38713I-381J-121D01*
G01X387330D01*
G02X386949Y39234I0J400D01*
G03X386080Y41875I-2264J719D01*
G02X386128Y42552I235J324D01*
G03X383242I-1443J2716D01*
G02X383290Y41875I-188J-353D01*
G03X382421Y39234I1395J-1922D01*
G02X382040Y38713I-381J-121D01*
G01X379850D01*
G02X379469Y39234I0J400D01*
G03X374941I-2264J719D01*
G02X374560Y38713I-381J-121D01*
G01X372370D01*
G37*
G36*
G01X292995Y127030D02*
X294250Y125775D01*
Y116795D01*
G02X293876Y116396I-400J0D01*
G03X292673Y115860I124J-1896D01*
G02X292111Y115864I-279J286D01*
G01X292018Y115958D01*
Y126052D01*
X292995Y127030D01*
G37*
G36*
G01X280567Y133408D02*
X278750Y135225D01*
Y145529D01*
G02X279433Y145812I400J0D01*
G01X281250Y143995D01*
Y133691D01*
G02X280567Y133408I-400J0D01*
G37*
G36*
G01X317621Y86000D02*
X313121Y90500D01*
X311116D01*
G03X311000Y90666I-1615J-1001D01*
G01Y91500D01*
X308000D01*
Y90666D01*
G03X307884Y90500I1500J-1167D01*
G01X304650D01*
Y112500D01*
X307500D01*
Y118000D01*
X304650D01*
Y121775D01*
X306250Y123375D01*
Y165613D01*
X306397Y165654D01*
G03X306414Y165658I-504J1832D01*
G02X306662Y165517I55J-192D01*
G03X308134Y167865I1838J483D01*
G02X307680Y168123I-77J392D01*
G03X304616Y168896I-1790J-638D01*
G02X304066Y168910I-268J297D01*
G01X303536Y169439D01*
G02X303763Y170118I283J283D01*
G03X301618Y172263I-263J1882D01*
G02X300939Y172036I-396J55D01*
G01X300762Y172214D01*
X300746Y172249D01*
G03X298251Y169754I-1746J-749D01*
G01X298286Y169738D01*
X302750Y165275D01*
Y151611D01*
G02X302067Y151329I-400J0D01*
G01X296450Y156945D01*
Y162372D01*
X292450Y166372D01*
Y175045D01*
X292776D01*
X292830Y174933D01*
G03X293110Y174552I1170J567D01*
G01Y174040D01*
X294220D01*
Y174210D01*
X294364Y174252D01*
G03Y176748I-364J1248D01*
G01X294220Y176790D01*
Y178917D01*
G03Y181083I-720J1083D01*
G01Y185502D01*
G03Y187598I-770J1048D01*
G01Y192384D01*
G03X294237Y192400I-865J971D01*
G01X297686D01*
G02X297989Y191739I0J-400D01*
G03X300871I1441J-1239D01*
G02X301174Y192400I303J261D01*
G01X305500D01*
Y193310D01*
X308952D01*
X310512Y191750D01*
X313862D01*
G02X314234Y191202I0J-400D01*
G03X314970Y188903I1766J-702D01*
G01Y186627D01*
G03Y184373I1530J-1127D01*
G01Y182470D01*
X315012D01*
G02X315153Y182129I0J-200D01*
G01X310150Y177125D01*
Y168875D01*
X312239Y166786D01*
X312254Y166751D01*
G03X312860Y165980I1746J749D01*
G02X312902Y165377I-240J-320D01*
G01X312786Y165262D01*
X312751Y165246D01*
G03X314166Y161720I749J-1746D01*
G02X314705Y161382I140J-375D01*
G03X315071Y160591I1295J118D01*
G01X315209Y160449D01*
X312250Y157490D01*
Y133775D01*
X314262Y131762D01*
G03X314425Y131619I1238J1237D01*
G01X314435Y131611D01*
X316986Y129060D01*
G02X317011Y128523I-283J-283D01*
G03X317803Y126412I1003J-828D01*
G01X317970Y126385D01*
Y125850D01*
X317803Y125822D01*
G03X317682Y123284I216J-1282D01*
G01X317830Y123245D01*
Y119857D01*
X317673Y119822D01*
G03X317033Y117000I346J-1562D01*
G02X317032Y116369I-246J-315D01*
G03X317673Y113542I982J-1264D01*
G01X317830Y113507D01*
Y95310D01*
X326715D01*
X327630Y94395D01*
X327551Y94262D01*
G03X330152Y91661I1639J-962D01*
G01X330285Y91740D01*
X332775Y89250D01*
X355500D01*
G03Y92750I0J1750D01*
G01X334225D01*
X333150Y93825D01*
Y95012D01*
X333099Y95063D01*
X333202Y95310D01*
X336959D01*
X337005Y95176D01*
G03X340595I1795J624D01*
G01X340641Y95310D01*
X364389D01*
G02X364782Y94834I0J-400D01*
G03X366500Y92750I1718J-334D01*
G01X367362D01*
G02X367734Y92202I0J-400D01*
G03X368311Y90018I1766J-702D01*
G02X368363Y89444I-250J-312D01*
G03X368617Y86713I1437J-1244D01*
G02X368368Y86000I-249J-313D01*
G01X329221D01*
G02X328834Y86504I0J400D01*
G03X325166I-1835J496D01*
G02X324779Y86000I-386J-104D01*
G01X322298D01*
G02X321898Y86418I0J400D01*
G03X318119Y86229I-1898J82D01*
G01X318121Y86214D01*
Y86000D01*
X317621D01*
G37*
G36*
G01X286926Y161565D02*
G02X286312Y161506I-331J224D01*
G01X276750Y171068D01*
Y184862D01*
G02X277298Y185234I400J0D01*
G03Y188766I702J1766D01*
G02X276750Y189138I-148J372D01*
G01Y193962D01*
X278909Y196121D01*
G02X279189Y196125I141J-141D01*
G03X281205Y195736I1311J1375D01*
G01X281241Y195750D01*
X284775D01*
X287750Y192775D01*
Y177194D01*
G02X287385Y176795I-400J0D01*
G03X286353Y176112I115J-1295D01*
G02X285647I-353J188D01*
G03Y174888I-1147J-612D01*
G02X286353I353J-188D01*
G03X287385Y174205I1147J612D01*
G02X287750Y173807I-35J-398D01*
G01Y164425D01*
X289116Y163059D01*
G02X288775Y162380I-283J-283D01*
G03X286926Y161565I-275J-1880D01*
G37*
G36*
G01X400598Y143098D02*
X400721Y143050D01*
G03X403450Y145779I779J1950D01*
G01X403402Y145902D01*
X407018Y149518D01*
G02X407612Y149485I283J-283D01*
G03X411335Y151052I1638J1315D01*
G02X411732Y151500I397J48D01*
G01X422500D01*
X425000Y149000D01*
X443000D01*
X446500Y152500D01*
Y155500D01*
X448000Y157000D01*
X461500D01*
X462500Y156000D01*
Y147000D01*
X455500Y140000D01*
X455047D01*
X454988Y140062D01*
G03X449633Y140000I-2648J-2512D01*
G01X441030D01*
G03X435617I-2706J-2450D01*
G01X433000D01*
X431000Y138000D01*
X419000D01*
X412000Y131000D01*
X398000D01*
X396500Y129500D01*
Y106000D01*
X390500Y100000D01*
X388000D01*
X387356Y99356D01*
X387318Y99340D01*
G03X386500Y96786I662J-1620D01*
G01Y78000D01*
X384500Y76000D01*
X313500D01*
X304650Y84850D01*
Y88650D01*
X305000Y89000D01*
X307661D01*
X307709Y88867D01*
G03X311292I1791J633D01*
G01X311339Y89000D01*
X312500D01*
X317000Y84500D01*
X378500D01*
X380500Y86500D01*
Y97000D01*
X378500Y99000D01*
Y105000D01*
X381250Y107750D01*
X381725D01*
X385750Y111775D01*
Y124101D01*
X385500Y124351D01*
Y137950D01*
X391425D01*
X395975Y142500D01*
X400000D01*
X400598Y143098D01*
G37*
G36*
G01X291753Y239950D02*
Y247093D01*
X291910Y247250D01*
X298040D01*
Y239950D01*
X291753D01*
G37*
G36*
G01X332192Y309991D02*
G03X335009Y309690I1543J1109D01*
G01X335151Y309818D01*
X340329Y304640D01*
X350049D01*
X355533Y299155D01*
X355500Y299121D01*
Y293221D01*
G02X354996Y292834I-400J0D01*
G03X352754Y291749I-496J-1834D01*
G01X352738Y291714D01*
X351762Y290738D01*
G03X351611Y290565I1238J-1238D01*
G01X350965Y289919D01*
Y283300D01*
X348325D01*
X348311Y283485D01*
G03X345319I-1496J-115D01*
G01X345305Y283300D01*
X340451D01*
X340437Y283485D01*
G03X337445I-1496J-115D01*
G01X337431Y283300D01*
X336514D01*
X336500Y283485D01*
G03X333508I-1496J-115D01*
G01X333494Y283300D01*
X324703D01*
X324689Y283485D01*
G03X321697I-1496J-115D01*
G01X321683Y283300D01*
X319383D01*
X319346Y283453D01*
G03X315654I-1845J-453D01*
G01X315617Y283300D01*
X292394D01*
X292362Y283460D01*
G03X288638I-1862J-380D01*
G01X288606Y283300D01*
X284431D01*
G02X284148Y283983I0J400D01*
G01X299670Y299505D01*
Y303201D01*
G02X300058Y303601I400J0D01*
G03Y307399I-58J1899D01*
G02X299670Y307799I12J400D01*
G01Y312896D01*
G02X300232Y313262I400J0D01*
G03Y316738I768J1738D01*
G02X299670Y317104I-162J366D01*
G01Y318896D01*
G02X300232Y319262I400J0D01*
G03Y322738I768J1738D01*
G02X299670Y323104I-162J366D01*
G01Y330896D01*
G02X300232Y331262I400J0D01*
G03Y334738I768J1738D01*
G02X299670Y335104I-162J366D01*
G01Y340135D01*
X302865Y343330D01*
X304312D01*
G02X304595Y342647I0J-400D01*
G01X304440Y342491D01*
Y336699D01*
X313500Y327639D01*
Y320879D01*
X320379Y314000D01*
X321417D01*
X321454Y313847D01*
G03X325146I1845J453D01*
G01X325183Y314000D01*
X330969D01*
X332319Y312650D01*
G02X332326Y312374I-141J-141D01*
G03X332192Y312209I1410J-1274D01*
G02X331543I-325J234D01*
G03Y309991I-1543J-1109D01*
G02X332192I325J-234D01*
G37*
G36*
G01X354435Y285265D02*
Y288460D01*
X355214Y289239D01*
X355249Y289254D01*
G03X356334Y291496I-749J1746D01*
G02X356721Y292000I386J104D01*
G01X357912D01*
X357935Y291827D01*
G03X359623Y290192I1883J255D01*
G01X359694Y290184D01*
X361288Y288591D01*
X361172Y288451D01*
G03X363411Y285719I1390J-1143D01*
G02X364000Y285366I189J-353D01*
G01Y284962D01*
G02X363382Y284627I-400J0D01*
G03X361067Y283485I-819J-1257D01*
G01X361053Y283300D01*
X356199D01*
X356185Y283485D01*
G03X354804Y284866I-1496J-115D01*
G02X354435Y285265I31J399D01*
G37*
G36*
G01X386648Y329303D02*
G02X385982Y329702I-283J283D01*
G03X385500Y333092I-3875J1178D01*
G01Y351121D01*
X384675Y351947D01*
G02X384958Y352630I283J283D01*
G01X408845D01*
X416400Y360185D01*
Y366255D01*
X418315Y368170D01*
X420425D01*
X423665Y371410D01*
X425433D01*
G02X425793Y370834I0J-400D01*
G03X429207I1707J-834D01*
G02X429567Y371410I359J176D01*
G01X431505D01*
X434104Y374008D01*
X434139Y374024D01*
G03X431644Y376519I-749J1746D01*
G01X431628Y376484D01*
X431521Y376376D01*
G02X430838Y376642I-283J283D01*
G03X427345Y375528I-1898J-82D01*
G02X427009Y374910I-336J-217D01*
G01X422215D01*
X418975Y371670D01*
X418625D01*
Y371965D01*
X418698Y372025D01*
G03X416442Y371922I-1198J1475D01*
G02X416502Y371307I-223J-332D01*
G01X415233Y370038D01*
G02X414550Y370321I-283J283D01*
G01Y377700D01*
G02X414959Y378100I400J0D01*
G03X416442Y378762I41J1900D01*
G02X417050Y378760I303J-261D01*
G03X417058Y381226I1450J1228D01*
G02X416450Y381228I-303J261D01*
G03X414959Y381900I-1450J-1228D01*
G02X414550Y382300I-9J400D01*
G01Y388123D01*
G02X415133Y388479I400J0D01*
G03X415251Y388424I867J1691D01*
G01X415286Y388408D01*
X424445Y379250D01*
X441145D01*
X449625Y370770D01*
Y367724D01*
X449469Y367689D01*
G03X448551Y367001I307J-1366D01*
G02X447851I-350J194D01*
G03X445401I-1225J-678D01*
G02X444701I-350J194D01*
G03X442252I-1225J-678D01*
G02X441552I-350J194D01*
G03Y365644I-1225J-678D01*
G02X442252I350J-194D01*
G03X442798Y365098I1225J678D01*
G02Y364398I-194J-350D01*
G03Y361948I678J-1225D01*
G02Y361249I-194J-350D01*
G03X442252Y360702I678J-1225D01*
G02X441552I-350J194D01*
G03X439102I-1225J-678D01*
G02X438402I-350J194D01*
G03X437856Y361249I-1225J-678D01*
G02Y361948I194J350D01*
G03X436499I-678J1225D01*
G02Y361249I-194J-350D01*
G03X436172Y359048I678J-1225D01*
G02X435885Y358370I-287J-279D01*
G01X435090D01*
Y348050D01*
X433875D01*
X431075Y345250D01*
X429773D01*
G02X429378Y345711I0J400D01*
G03X425622I-1878J289D01*
G02X425227Y345250I-395J-61D01*
G01X419773D01*
G02X419378Y345711I0J400D01*
G03X415622I-1878J289D01*
G02X415227Y345250I-395J-61D01*
G01X403725D01*
X399593Y341118D01*
G02X398910Y341401I-283J283D01*
G01Y342225D01*
X394898Y346238D01*
G03X392422Y343762I-1238J-1238D01*
G01X394065Y342120D01*
X389930Y337985D01*
Y332585D01*
X386648Y329303D01*
G37*
G36*
G01X368459Y314810D02*
X370485D01*
X370664Y314631D01*
G02X370681Y314084I-283J-283D01*
G03X370273Y313324I1426J-1256D01*
G02X369824Y313034I-386J105D01*
G03X369397Y313031I-204J-1284D01*
G02X368942Y313321I-69J394D01*
G03X365744Y314151I-1835J-494D01*
G02X365204Y314120I-287J279D01*
G03X362157Y312187I-1204J-1470D01*
G02X361602Y311726I-388J-97D01*
G03X362651Y310463I-794J-1726D01*
G02X363206Y310924I388J97D01*
G03X365363Y311326I794J1726D01*
G02X365904Y311357I287J-279D01*
G03X368015Y311158I1204J1470D01*
G02X368538Y311028I191J-351D01*
G03X369878Y310476I1082J722D01*
G02X370357Y310084I79J-392D01*
G01Y308828D01*
X373535Y305650D01*
X381500D01*
Y304500D01*
X369000Y292000D01*
Y287739D01*
X368993Y287712D01*
G03Y286902I1444J-405D01*
G01X369000Y286876D01*
Y283802D01*
X368993Y283775D01*
G03Y282965I1444J-405D01*
G01X369000Y282938D01*
Y279865D01*
X368993Y279838D01*
G03Y279028I1444J-405D01*
G01X369000Y279002D01*
Y275928D01*
X368993Y275901D01*
G03Y275091I1444J-405D01*
G01X369000Y275064D01*
Y271991D01*
X368993Y271964D01*
G03Y271154I1444J-405D01*
G01X369000Y271128D01*
Y268054D01*
X368993Y268027D01*
G03Y267217I1444J-405D01*
G01X369000Y267190D01*
Y264500D01*
X369107Y264393D01*
X369055Y264269D01*
G03X370368Y262186I1382J-584D01*
G02X370750Y261787I-18J-400D01*
G01Y257500D01*
X367000D01*
X365800Y258700D01*
Y279832D01*
X365500Y280132D01*
Y286500D01*
X361211Y290789D01*
G03X358554Y293500I-1393J1293D01*
G01X357000D01*
Y298500D01*
X357060Y298560D01*
Y299750D01*
X350670Y306140D01*
X340950D01*
X335595Y311495D01*
X335581Y311550D01*
G03X334185Y312946I-1846J-450D01*
G01X334130Y312959D01*
X331590Y315500D01*
X324773D01*
G03X321827I-1473J-1200D01*
G01X321000D01*
X315000Y321500D01*
Y328260D01*
X305940Y337320D01*
Y341870D01*
X307270Y343200D01*
X310190D01*
X313410Y339980D01*
X328390D01*
X332450Y344040D01*
X351440D01*
X353000Y345600D01*
Y346335D01*
X354475Y347810D01*
G02X355059Y347790I283J-283D01*
G03X357740Y350471I1431J1250D01*
G02X357720Y351055I263J301D01*
G01X359665Y353000D01*
X371912D01*
X371969Y352992D01*
G03X373051I541J1822D01*
G01X373078Y353000D01*
X377075D01*
X377445Y352630D01*
X381870D01*
X384000Y350500D01*
Y334687D01*
X383084Y334294D01*
X383018Y334311D01*
G03X383449Y327593I-910J-3431D01*
G02X384000Y327223I151J-370D01*
G01Y326830D01*
X377825D01*
X373894Y322899D01*
X373858Y322884D01*
G03X372725Y321401I749J-1746D01*
G02X372046Y321173I-396J55D01*
G01X371369Y321851D01*
X371354Y321886D01*
G03X367725Y321401I-1746J-749D01*
G02X367046Y321173I-396J55D01*
G01X366369Y321851D01*
X366354Y321886D01*
G03X363858Y319391I-1746J-749D01*
G01X363894Y319376D01*
X368459Y314810D01*
G37*
G36*
G01X357500Y370008D02*
Y375379D01*
X376121Y394000D01*
X399121D01*
X404621Y399500D01*
X406402D01*
G02X406685Y398817I0J-400D01*
G01X396163Y388295D01*
X384105D01*
X379145Y383335D01*
Y377275D01*
X373665Y371795D01*
X371394D01*
G02X371065Y372422I0J400D01*
G03X367935I-1565J1078D01*
G02X367606Y371795I-329J-227D01*
G01X360253D01*
X358183Y369725D01*
G02X357500Y370008I-283J283D01*
G37*
G36*
G01X381365Y360630D02*
X376365Y365630D01*
X362196D01*
G02X361914Y366313I0J400D01*
G01X362345Y366745D01*
X375757D01*
X384195Y375183D01*
Y381243D01*
X386197Y383245D01*
X398255D01*
X407487Y392476D01*
G02X408170Y392194I283J-283D01*
G01Y374969D01*
G02X407462Y374714I-400J0D01*
G03Y372286I-1462J-1214D01*
G02X408170Y372031I308J-255D01*
G01Y366418D01*
G02X407549Y366084I-400J0D01*
G03X405871Y362707I-1049J-1584D01*
G02X406022Y362047I-132J-377D01*
G01X404605Y360630D01*
X381365D01*
G37*
G36*
G01X636140Y126640D02*
X634120Y128660D01*
Y135900D01*
X635960Y137740D01*
X637989D01*
X638032Y137598D01*
G03X641192Y136805I1818J552D01*
G02X641761Y136802I283J-283D01*
G03X644944Y137596I1359J1328D01*
G01X644986Y137740D01*
X646980D01*
X662740Y153500D01*
Y154240D01*
X675500Y167000D01*
Y171413D01*
G02X676018Y171795I400J0D01*
G03Y175425I562J1815D01*
G02X675500Y175807I-118J382D01*
G01Y178582D01*
G02X676121Y178916I400J0D01*
G03Y182084I1049J1584D01*
G02X675500Y182418I-221J334D01*
G01Y274168D01*
G02X676213Y274417I400J0D01*
G03Y276783I1487J1183D01*
G02X675500Y277032I-313J249D01*
G01Y279168D01*
G02X676213Y279417I400J0D01*
G03Y281783I1487J1183D01*
G02X675500Y282032I-313J249D01*
G01Y284168D01*
G02X676213Y284417I400J0D01*
G03Y286783I1487J1183D01*
G02X675500Y287032I-313J249D01*
G01Y289168D01*
G02X676213Y289417I400J0D01*
G03Y291783I1487J1183D01*
G02X675500Y292032I-313J249D01*
G01Y294168D01*
G02X676213Y294417I400J0D01*
G03Y296783I1487J1183D01*
G02X675500Y297032I-313J249D01*
G01Y304268D01*
G02X676213Y304517I400J0D01*
G03Y306883I1487J1183D01*
G02X675500Y307132I-313J249D01*
G01Y314468D01*
G02X676213Y314717I400J0D01*
G03Y317083I1487J1183D01*
G02X675500Y317332I-313J249D01*
G01Y324368D01*
G02X676213Y324617I400J0D01*
G03Y326983I1487J1183D01*
G02X675500Y327232I-313J249D01*
G01Y333070D01*
X649030Y359540D01*
X647541D01*
X647511Y359704D01*
G03X643774I-1868J-346D01*
G01X643744Y359540D01*
X613540D01*
X612500Y358500D01*
X524379D01*
X524378Y358500D01*
X506500D01*
X501000Y364000D01*
Y389500D01*
X489500Y401000D01*
X481120D01*
X481045Y401075D01*
X408943D01*
X408868Y401000D01*
X404000D01*
X398500Y395500D01*
X375500D01*
X373308Y393308D01*
G02X372673Y393401I-283J283D01*
G03X370099Y390827I-1673J-901D01*
G02X370192Y390192I-190J-352D01*
G01X356000Y376000D01*
Y369000D01*
X345000Y358000D01*
X329000D01*
X326000Y361000D01*
Y371500D01*
X323000Y374500D01*
X321298D01*
G02X320898Y374917I0J400D01*
G03X317102I-1898J83D01*
G02X316702Y374500I-400J-17D01*
G01X316500D01*
X313000Y378000D01*
Y402000D01*
X317500Y406500D01*
X511000D01*
X515000Y402500D01*
Y372480D01*
X520880Y366600D01*
X584600D01*
X595000Y377000D01*
X655500D01*
X694000Y338500D01*
Y145500D01*
X683450Y134950D01*
X672610D01*
G02X672286Y135585I0J400D01*
G03X669214I-1536J1118D01*
G02X668890Y134950I-323J-235D01*
G01X664820D01*
X656510Y126640D01*
X636140D01*
G37*
G36*
G01X409880Y24750D02*
X410725D01*
X412802Y26827D01*
X412938Y26739D01*
G03X413164Y26607I1668J2584D01*
G02X413211Y25930I-188J-353D01*
G03X414590Y21633I1395J-1922D01*
G01X414672Y21632D01*
X414871Y21433D01*
X414505Y21067D01*
X414431Y21062D01*
G03X412277Y18228I175J-2369D01*
G02X411885Y17750I-392J-78D01*
G01X410559D01*
G02X410164Y18213I0J400D01*
G03X408569Y21409I-3037J480D01*
G02X408521Y22086I188J353D01*
G03X409483Y24300I-1395J1922D01*
G02X409880Y24750I397J49D01*
G37*
G36*
G01X474776Y206949D02*
X475176D01*
X487505Y194620D01*
Y187000D01*
X487603Y186902D01*
G02X487462Y186560I-141J-141D01*
G01X480915D01*
X474225Y193250D01*
X474008D01*
G02X473867Y193591I0J200D01*
G01X474163Y193888D01*
X474199Y193903D01*
G03X471703Y196399I-749J1746D01*
G01X471688Y196363D01*
X471075Y195750D01*
X464130D01*
Y197350D01*
X469535D01*
X470315Y198130D01*
X474395D01*
X479266Y193259D01*
Y191729D01*
X479580Y191415D01*
Y190590D01*
G03X483080I1750J0D01*
G01Y192865D01*
X482766Y193179D01*
Y194709D01*
X475743Y201732D01*
X475786Y201852D01*
G03X472140Y202112I-1786J648D01*
G02X471748Y201630I-392J-82D01*
G01X468865D01*
X468085Y200850D01*
X464130D01*
Y206250D01*
X474076D01*
X474776Y206949D01*
G37*
G36*
G01X464130Y209750D02*
Y211430D01*
X469780D01*
Y211630D01*
X475395D01*
X475893Y211132D01*
G02X475610Y210450I-283J-283D01*
G01X474601D01*
X474565Y210464D01*
G03X472277Y209750I-705J-1765D01*
G01X464130D01*
G37*
G36*
G01X435370Y260050D02*
X464450D01*
X481540Y242960D01*
X484220D01*
X485910Y244650D01*
X548190D01*
X558645Y234195D01*
Y226855D01*
X559000Y226500D01*
Y218000D01*
X555000Y214000D01*
X539500D01*
X536500Y217000D01*
X526958D01*
X526930Y217008D01*
G03X516759Y217000I-5071J-17008D01*
G01X504000D01*
X496500Y209500D01*
X489000D01*
X476995Y221505D01*
X456890D01*
X454645Y223750D01*
X445000D01*
X442870Y225880D01*
X436095D01*
X435905Y226070D01*
X432591D01*
X432555Y226084D01*
G03X430765Y225880I-705J-1764D01*
G01X426120D01*
X426000Y226000D01*
X425000Y225000D01*
X416500D01*
X414250Y227250D01*
Y228019D01*
X413238Y229032D01*
G03X413065Y229183I-1238J-1238D01*
G01X412500Y229748D01*
Y241000D01*
X413150Y241650D01*
X413726D01*
X415076Y243000D01*
X421500D01*
X428500Y250000D01*
Y252625D01*
X431160Y255285D01*
Y255840D01*
X435370Y260050D01*
G37*
G36*
G01X660500Y224000D02*
X660000Y224500D01*
X647000D01*
X644000Y227500D01*
X643500D01*
Y248500D01*
X656000Y261000D01*
Y268329D01*
G03Y271786I-790J1728D01*
G01Y290500D01*
X649500Y297000D01*
Y335500D01*
X642500Y342500D01*
X614128D01*
G02X613859Y343197I0J400D01*
G03X612114I-873J964D01*
G02X611845Y342500I-268J-297D01*
G01X605298D01*
X605260Y342650D01*
G03X602740I-1260J-322D01*
G01X602702Y342500D01*
X600304D01*
X600269Y342657D01*
G03X597731I-1269J-282D01*
G01X597696Y342500D01*
X595304D01*
X595269Y342657D01*
G03X592731I-1269J-282D01*
G01X592696Y342500D01*
X590304D01*
X590269Y342657D01*
G03X587731I-1269J-282D01*
G01X587696Y342500D01*
X585304D01*
X585269Y342657D01*
G03X582731I-1269J-282D01*
G01X582696Y342500D01*
X580304D01*
X580269Y342657D01*
G03X577731I-1269J-282D01*
G01X577696Y342500D01*
X575304D01*
X575269Y342657D01*
G03X572731I-1269J-282D01*
G01X572696Y342500D01*
X570304D01*
X570269Y342657D01*
G03X567860Y343000I-1269J-282D01*
G01X565140D01*
G03X562860I-1140J-625D01*
G01X556049D01*
G02X555688Y343572I0J400D01*
G03X553341I-1173J560D01*
G02X552980Y343000I-361J-172D01*
G01X545000D01*
X536500Y334500D01*
X524500D01*
X523250Y335750D01*
Y355250D01*
X525000Y357000D01*
X648000D01*
X672610Y332390D01*
Y230110D01*
X666500Y224000D01*
X660500D01*
G37*
G36*
G01X549000Y292500D02*
X547500Y294000D01*
Y296500D01*
X549500Y298500D01*
Y303500D01*
X549000Y304000D01*
X546409D01*
X546392Y304181D01*
G03X542608I-1892J-181D01*
G01X542591Y304000D01*
X527500D01*
X525000Y306500D01*
Y333000D01*
X527265D01*
G02X527664Y332569I0J-400D01*
G03X530256I1296J-99D01*
G02X530655Y333000I399J31D01*
G01X533130D01*
G02X533521Y332513I0J-400D01*
G03X536059I1269J-283D01*
G02X536450Y333000I390J87D01*
G01X537121D01*
X544817Y340695D01*
G02X545500Y340410I283J-283D01*
G03X549210Y340978I1900J-10D01*
G02X549591Y341500I381J122D01*
G01X554000D01*
X555320Y340180D01*
X557924D01*
G03X560056I1066J744D01*
G01X563309D01*
G02X563603Y339509I0J-400D01*
G03X563108Y338046I1397J-1288D01*
G02X562812Y337622I-398J-37D01*
G03X564401Y336033I332J-1257D01*
G02X564825Y336329I387J-102D01*
G03X566397Y339509I175J1892D01*
G02X566691Y340180I294J271D01*
G01X577320D01*
X577485Y340015D01*
X583301D01*
G02X583683Y339498I0J-400D01*
G03X587390Y338747I1817J-558D01*
G02X588071Y338989I398J-41D01*
G01X601860Y325200D01*
Y309980D01*
X602690Y309150D01*
Y294210D01*
X602240Y293760D01*
X577540D01*
X572840Y298460D01*
X567460D01*
X563837Y294837D01*
G03X563163Y294163I891J-1564D01*
G01X561500Y292500D01*
X556148D01*
G02X555860Y293178I0J400D01*
G03X553126I-1367J1320D01*
G02X552838Y292500I-288J-278D01*
G01X549000D01*
G37*
G36*
G01X453930Y359048D02*
G03X453275Y361379I-1005J975D01*
G01X453125Y361418D01*
Y361779D01*
X453275Y361818D01*
G03Y364529I-350J1356D01*
G01X453125Y364568D01*
Y364928D01*
X453275Y364967D01*
G03Y367678I-350J1356D01*
G01X453125Y367717D01*
Y372220D01*
X442595Y382750D01*
X425895D01*
X423988Y384657D01*
G02X424271Y385340I283J283D01*
G01X432649D01*
X432685Y385326D01*
G03X434212Y385377I705J1765D01*
G02X434724Y385230I173J-361D01*
G03X437970Y384850I1776J1120D01*
G02X438530I280J-286D01*
G03Y387850I1470J1500D01*
G02X437970I-280J286D01*
G03X435418Y388150I-1470J-1500D01*
G02X434896Y388249I-206J343D01*
G03X434710Y388457I-1506J-1159D01*
G02X434729Y389050I278J288D01*
G03X434789Y391896I-1229J1450D01*
G02X435061Y392590I271J294D01*
G01X462587D01*
G02X462875Y391912I0J-400D01*
G03X465605I1365J-1322D01*
G02X465893Y392590I287J278D01*
G01X468325D01*
X473265Y387650D01*
X475643D01*
G02X476041Y387206I0J-400D01*
G03X477196Y385247I1889J-206D01*
G02X477324Y384596I-155J-369D01*
G01X470512Y377784D01*
G02X469842Y377968I-283J283D01*
G03X467532Y375658I-1842J-468D01*
G02X467716Y374988I-99J-388D01*
G01X464548Y371820D01*
Y368035D01*
X464623Y367960D01*
Y367898D01*
X464286Y367560D01*
G03X466761Y365085I1238J-1238D01*
G01X467098Y365422D01*
X467436Y365085D01*
G03X467709Y364862I1237J1238D01*
G02X467752Y364227I-220J-334D01*
G03X467995Y361948I922J-1054D01*
G02Y361249I-194J-350D01*
G03X467668Y359048I678J-1225D01*
G02X467381Y358370I-287J-279D01*
G01X463182D01*
G03X463054Y358432I-808J-1496D01*
G02X463039Y358792I80J183D01*
G03X461149Y360702I-665J1232D01*
G02X460449I-350J194D01*
G03X458219Y359048I-1225J-678D01*
G02X457932Y358370I-287J-279D01*
G01X454217D01*
G02X453930Y359048I0J400D01*
G37*
G36*
G01X444701Y360702D02*
G03X444155Y361249I-1225J-678D01*
G02Y361948I194J350D01*
G03Y364398I-678J1225D01*
G02Y365098I194J350D01*
G03X444701Y365644I-678J1225D01*
G02X445401I350J-194D01*
G03X447851I1225J678D01*
G02X448551I350J-194D01*
G03X449469Y364957I1225J678D01*
G01X449625Y364922D01*
Y364574D01*
X449469Y364539D01*
G03X448829Y362142I307J-1366D01*
G02X448841Y361564I-270J-295D01*
G01X448538Y361261D01*
G03X448315Y360988I1238J-1237D01*
G02X447680Y360945I-334J220D01*
G03X445401Y360702I-1054J-922D01*
G02X444701I-350J194D01*
G37*
%LPC*%
G75*
G36*
G01X156768Y103268D02*
X169036Y91000D01*
X203500D01*
G02Y86000I0J-2500D01*
G01X166964D01*
X153232Y99732D01*
G02X156768Y103268I1768J1768D01*
G37*
G36*
G01X78100Y373952D02*
G03X78702Y373888I329J228D01*
G02X78438Y371418I1298J-1388D01*
G03X77836Y371482I-329J-228D01*
G02X78100Y373952I-1298J1388D01*
G37*
G36*
G01X226695Y355984D02*
G03X227260Y355940I304J260D01*
G02X227055Y353266I1240J-1440D01*
G03X226490Y353310I-304J-260D01*
G02X226695Y355984I-1240J1440D01*
G37*
G36*
G01X213319Y351626D02*
G03X212797Y351383I-143J-373D01*
G02X210268Y353754I-1797J617D01*
G03X210356Y354442I-154J369D01*
G02X211678Y357851I1144J1517D01*
G03X212113Y358296I37J398D01*
G02X213822Y356626I1887J222D01*
G03X213387Y356181I-37J-398D01*
G02Y355737I-1887J-222D01*
G03X213822Y355292I397J-47D01*
G02X213319Y351626I178J-1892D01*
G37*
G36*
G01X110777Y340928D02*
G03X110768Y341537I-264J301D01*
G02X113234Y341572I1212J1463D01*
G03X113242Y340963I264J-301D01*
G02X110777Y340928I-1212J-1463D01*
G37*
G36*
G01X123300Y341630D02*
G03Y341070I286J-280D01*
G02X120300I-1500J-1470D01*
G03Y341630I-286J280D01*
G02X123300I1500J1470D01*
G37*
G36*
G01X69546Y336096D02*
G03Y335478I254J-309D01*
G02X64391I-2578J-3136D01*
G03Y336096I-254J309D01*
G02X69546I2578J3136D01*
G37*
G36*
G01X55479Y324754D02*
G03X54836I-322J-238D01*
G02Y330088I-3615J2667D01*
G03X55479I322J238D01*
G02Y324754I3615J-2667D01*
G37*
G36*
G01X113394Y325530D02*
G03X113382Y324921I253J-310D01*
G02X110916Y324970I-1262J-1421D01*
G03X110929Y325579I-253J310D01*
G02X113394Y325530I1262J1421D01*
G37*
G36*
G01X123170Y325530D02*
G03Y324970I286J-280D01*
G02X120170I-1500J-1470D01*
G03Y325530I-286J280D01*
G02X123170I1500J1470D01*
G37*
G36*
G01X69546Y309522D02*
G03Y308904I254J-309D01*
G02X64391I-2578J-3136D01*
G03Y309522I-254J309D01*
G02X62938Y313139I2578J3136D01*
G03X62541Y313586I-397J47D01*
G01X55102D01*
Y314142D01*
G03X54418Y314423I-400J0D01*
G02Y320735I-3197J3156D01*
G03X55102Y321016I285J281D01*
G01Y321571D01*
X62541D01*
G03X62938Y322019I0J400D01*
G02X63799Y319964I4031J481D01*
G03X63087Y319714I-312J-250D01*
G01Y315444D01*
G03X63799Y315194I400J0D01*
G02X69546Y309522I3169J-2536D01*
G37*
G36*
G01X68539Y284004D02*
G03X68531Y284644I-244J317D01*
G02X70811Y284676I1119J1536D01*
G03X70819Y284036I244J-317D01*
G02X68539Y284004I-1119J-1536D01*
G37*
G36*
G01X167889Y253415D02*
G03X168469Y253150I390J87D01*
G02X167518Y251063I903J-1672D01*
G03X166937Y251328I-390J-87D01*
G02X167889Y253415I-903J1672D01*
G37*
G36*
G01X311324Y42552D02*
G03X311277Y41875I188J-353D01*
G02X308487I-1395J-1922D01*
G03X308439Y42552I-235J324D01*
G02X311324I1443J2716D01*
G37*
G36*
G01X318758Y22086D02*
G03X318805Y21409I235J-324D01*
G02X315920I-1443J-2716D01*
G03X315967Y22086I-188J353D01*
G02X318758I1395J1922D01*
G37*
G36*
G01X311864Y21656D02*
G03Y21044I258J-306D01*
G02X307900I-1982J-2352D01*
G03Y21656I-258J306D01*
G02X307900Y26360I1982J2352D01*
G03Y26971I-258J306D01*
G02X308439Y32039I1982J2352D01*
G03X308487Y32716I-188J353D01*
G02X311277I1395J1922D01*
G03X311324Y32039I235J-324D01*
G02X311864Y26971I-1443J-2716D01*
G03Y26360I258J-306D01*
G02X311864Y21656I-1982J-2352D01*
G37*
G36*
G01X59309Y368910D02*
G02X57087I-1111J-1782D01*
G03Y369589I-212J339D01*
G02X59309I1111J1782D01*
G03Y368910I212J-339D01*
G37*
G36*
G01X319939Y368152D02*
G02X318061I-939J-1652D01*
G03Y368848I-198J348D01*
G02X319939I939J1652D01*
G03Y368152I198J-348D01*
G37*
G36*
G01X235889Y339732D02*
G02X234811Y338395I781J-1732D01*
G03X234256Y338843I-391J83D01*
G02X231578Y340685I-781J1732D01*
G03X231212Y341106I-399J23D01*
G02X230440Y341343I158J1894D01*
G03X229854Y341082I-196J-349D01*
G02X228930Y343157I-1854J418D01*
G03X229516Y343418I196J349D01*
G02X233267Y342890I1854J-418D01*
G03X233633Y342469I399J-23D01*
G02X235334Y340180I-158J-1894D01*
G03X235889Y339732I391J-83D01*
G37*
G36*
G01X222571Y330123D02*
G02X222457Y332015I-1701J847D01*
G03X223149Y332057I334J220D01*
G02X223263Y330165I1701J-847D01*
G03X222571Y330123I-334J-220D01*
G37*
G36*
G01X235511Y326153D02*
G02X232985Y326606I-1511J-1153D01*
G03X233089Y327187I-214J338D01*
G02X232785Y328903I1511J1153D01*
G03X232531Y329400I-382J118D01*
G02X231505Y330232I609J1800D01*
G03X230820Y330237I-344J-204D01*
G02X230835Y332198I-1620J993D01*
G03X231520Y332193I344J204D01*
G02X234955Y330637I1620J-993D01*
G03X235209Y330140I382J-118D01*
G02X235615Y326734I-609J-1800D01*
G03X235511Y326153I214J-338D01*
G37*
G36*
G01X146000Y323096D02*
G02X143000I-1500J-1470D01*
G03Y323656I-286J280D01*
G02X143605Y327026I1500J1470D01*
G03X143621Y327742I-170J362D01*
G02X143100Y331070I979J1858D01*
G03Y331630I-286J280D01*
G02X146100I1500J1470D01*
G03Y331070I286J-280D01*
G02X146525Y330439I-1500J-1470D01*
G03X147018Y330219I367J160D01*
G02X145949Y327500I597J-1804D01*
G03X145439Y327675I-351J-193D01*
G02X145041Y327547I-839J1925D01*
G03X145032Y327158I42J-196D01*
G02X146000Y323656I-532J-2032D01*
G03Y323096I286J-280D01*
G37*
G36*
G01X60859Y240911D02*
G02X58637I-1111J-1782D01*
G03Y241589I-212J339D01*
G02X60859I1111J1782D01*
G03Y240911I212J-339D01*
G37*
G36*
G01X215607Y224386D02*
G02Y226414I-1607J1014D01*
G03X216284I338J213D01*
G02Y224386I1607J-1014D01*
G03X215607I-338J-213D01*
G37*
G36*
G01X140899Y183946D02*
G02X139331Y185871I-1899J54D01*
G03X139801Y186254I70J394D01*
G02X143372Y187102I1899J-54D01*
G03X144086Y187119I352J190D01*
G02X144128Y185398I1715J-819D01*
G03X143414Y185381I-352J-190D01*
G02X141369Y184329I-1714J819D01*
G03X140899Y183946I-70J-394D01*
G37*
G36*
G01X145652Y118561D02*
G02Y120439I-1652J939D01*
G03X146348I348J198D01*
G02Y118561I1652J-939D01*
G03X145652I-348J-198D01*
G37*
G36*
G01X98315Y113128D02*
G02X96061Y116152I-1315J1372D01*
G03Y116848I-198J348D01*
G02X98271Y119913I939J1652D01*
G03X98815Y119922I267J297D01*
G02X101069Y116898I1315J-1372D01*
G03Y116202I198J-348D01*
G02X98859Y113137I-939J-1652D01*
G03X98315Y113128I-267J-297D01*
G37*
G36*
G01X181621Y110500D02*
X160879D01*
X158500Y112879D01*
Y132379D01*
X156879Y134000D01*
X154379D01*
X144500Y143879D01*
Y149000D01*
X114466D01*
G02X112134I-1166J1500D01*
G01X109966D01*
G02X107634I-1166J1500D01*
G01X66879D01*
X56849Y159029D01*
G03X56222Y158950I-283J-283D01*
G02X53077Y158758I-1637J965D01*
G03X52497Y158817I-317J-243D01*
G02X52758Y161407I-1247J1433D01*
G03X53338Y161348I317J243D01*
G02X53620Y161552I1247J-1433D01*
G03X53699Y162179I-203J345D01*
G01X43379Y172500D01*
X37020D01*
Y157099D01*
X34561Y154640D01*
X25329D01*
X23000Y156969D01*
Y204121D01*
X35379Y216500D01*
X68834D01*
G02X71166I1166J-1500D01*
G01X77983D01*
G02X80164Y217050I1465J-1210D01*
G03X80715Y217421I151J370D01*
G01Y222609D01*
G03X80164Y222979I-400J0D01*
G02X80414Y226376I-717J1760D01*
G03X80715Y226548I102J172D01*
G01Y226757D01*
X82949Y228990D01*
X90771D01*
X92730Y227031D01*
Y216472D01*
G03X93240Y216088I400J0D01*
G02Y212432I520J-1828D01*
G03X92730Y212048I-110J-385D01*
G01Y192109D01*
X89621Y189000D01*
X82621D01*
X81500Y187879D01*
Y187668D01*
X81538Y187616D01*
G02X81500Y185334I-1538J-1116D01*
G01Y178121D01*
X82621Y177000D01*
X105114D01*
G03X105513Y177434I0J400D01*
G02X109300I1894J160D01*
G03X109698Y177000I399J-34D01*
G01X155160D01*
G03X155393Y177725I0J400D01*
G02X156577Y181169I1107J1545D01*
G03X156987Y181501I16J400D01*
G02X160752Y181360I1873J-321D01*
G03X160957Y181179I199J19D01*
G02X162115Y177727I63J-1899D01*
G03X162346Y177000I231J-327D01*
G01X191121D01*
X195000Y173121D01*
Y137379D01*
X187500Y129879D01*
Y116379D01*
X181621Y110500D01*
G37*
G36*
G01X259288Y51617D02*
G02X257416Y51687I-998J-1617D01*
G03X257442Y52383I-184J355D01*
G02X259314Y52313I998J1617D01*
G03X259288Y51617I184J-355D01*
G37*
G36*
G01X259165Y39699D02*
G02X257176I-995J-1619D01*
G03Y40381I-209J341D01*
G02X259165I994J1619D01*
G03Y39699I209J-341D01*
G37*
G36*
G01X223988Y288404D02*
G03X224584Y288263I357J180D01*
G02X224022Y285886I1136J-1523D01*
G03X223426Y286027I-357J-180D01*
G02X223988Y288404I-1136J1523D01*
G37*
G36*
G01X198148Y281554D02*
G03X198346Y280984I347J-199D01*
G02X195992Y280166I-706J-1764D01*
G03X195794Y280736I-347J199D01*
G02X198148Y281554I706J1764D01*
G37*
G36*
G01X242852Y256765D02*
G02X239382Y258257I-1652J939D01*
G03X238906Y258763I-383J117D01*
G02X240278Y260056I-446J1847D01*
G03X240754Y259550I383J-117D01*
G02X242852Y258642I446J-1847D01*
G03X243548I348J198D01*
G02X246852I1652J-939D01*
G03X247548I348J198D01*
G02Y256765I1652J-939D01*
G03X246852I-348J-198D01*
G02X243548I-1652J939D01*
G03X242852I-348J-198D01*
G37*
G36*
G01X643042Y278680D02*
G03X642598Y278199I-53J-396D01*
G02X640991Y279684I-1858J-399D01*
G03X641435Y280164I53J396D01*
G02X643042Y278680I1858J399D01*
G37*
G36*
G01X639110Y271427D02*
G03X639153Y270869I306J-257D01*
G02X636445Y270662I-1253J-1429D01*
G03X636402Y271220I-306J257D01*
G02X639110Y271427I1253J1429D01*
G37*
G36*
G01X650775Y268572D02*
G03X650338Y268276I-50J-397D01*
G02X647036Y267546I-1838J481D01*
G03X646448Y267576I-308J-255D01*
G02X646582Y270146I-1330J1357D01*
G03X647170Y270115I308J255D01*
G02X648735Y270643I1330J-1357D01*
G03X649172Y270939I50J397D01*
G02X650775Y268572I1838J-481D01*
G37*
G36*
G01X628182Y267341D02*
G03X627903Y267318I-128J-154D01*
G02X627800Y270170I-1591J1371D01*
G03X628081Y270167I142J141D01*
G02X630496Y270352I1319J-1367D01*
G03X631018Y270404I231J327D01*
G02X631304Y267548I1382J-1304D01*
G03X630782Y267496I-231J-327D01*
G02X628182Y267341I-1382J1304D01*
G37*
G36*
G01X551000Y253237D02*
X493753D01*
X493717Y253223D01*
G02Y256752I-705J1764D01*
G01X493753Y256737D01*
X551000D01*
G03X558250Y263987I0J7250D01*
G01Y279339D01*
X558236Y279375D01*
G02X561764I1765J705D01*
G01X561750Y279339D01*
Y263987D01*
G02X551000Y253237I-10750J0D01*
G37*
G36*
G01X575807Y189808D02*
G03X575216Y189802I-293J-272D01*
G02X575193Y192362I-1416J1268D01*
G03X575784Y192368I293J272D01*
G02X578636Y192345I1416J-1267D01*
G03X579258Y192368I302J262D01*
G02X582189Y192504I1522J-1138D01*
G03X582786Y192508I297J268D01*
G02X582801Y189976I1424J-1258D01*
G03X582204Y189972I-297J-268D01*
G02X579344Y189985I-1424J1258D01*
G03X578722Y189962I-302J-262D01*
G02X575807Y189808I-1522J1138D01*
G37*
G36*
G01X399244Y98254D02*
G03X399785Y98052I367J159D01*
G02X398866Y95586I825J-1712D01*
G03X398325Y95788I-367J-159D01*
G02X399244Y98254I-825J1712D01*
G37*
G36*
G01X648872Y86169D02*
G03X648530Y85762I57J-396D01*
G02X646525Y87607I-1899J-53D01*
G03X646713Y87830I-11J200D01*
G02X646702Y87952I1887J220D01*
G03X646510Y88141I-200J-10D01*
G02X648478Y90138I70J1899D01*
G03X648670Y89949I200J10D01*
G02X648872Y86169I-70J-1899D01*
G37*
G36*
G01X528938Y70587D02*
X478762Y120762D01*
G03X459377Y128792I-19386J-19386D01*
G01X449095D01*
G02Y132293I-3763J1750D01*
G01X459377D01*
G02X481238Y123238I0J-30916D01*
G01X531414Y73062D01*
G03X572000Y56250I40587J40586D01*
G01X653702D01*
G02Y52750I2798J-1750D01*
G01X572000D01*
G02X528938Y70587I0J60898D01*
G37*
G36*
G01X546652Y262561D02*
G02X543559Y264739I-1652J939D01*
G03Y265261I-303J261D01*
G02X546652Y267439I1441J1239D01*
G03X547348I348J198D01*
G02X550441Y265261I1652J-939D01*
G03Y264739I303J-261D01*
G02X547348Y262561I-1441J-1239D01*
G03X546652I-348J-198D01*
G37*
G36*
G01X573652Y206061D02*
G02Y207939I-1652J939D01*
G03X574348I348J198D01*
G02X577652I1652J-939D01*
G03X578348I348J198D01*
G02X581652I1652J-939D01*
G03X582348I348J198D01*
G02Y206061I1652J-939D01*
G03X581652I-348J-198D01*
G02X578348I-1652J939D01*
G03X577652I-348J-198D01*
G02X574348I-1652J939D01*
G03X573652I-348J-198D01*
G37*
G36*
G01X626396Y200423D02*
G02X625426Y202116I-1900J36D01*
G03X626021Y202458I196J349D01*
G02X629160Y203862I1900J-36D01*
G03X629682I261J303D01*
G02Y200981I1239J-1441D01*
G03X629160I-261J-303D01*
G02X626991Y200764I-1239J1441D01*
G03X626396Y200423I-196J-349D01*
G37*
G36*
G01X467456Y183608D02*
G02X467306Y181640I1544J-1108D01*
G03X466624Y181692I-357J-181D01*
G02X466774Y183660I-1544J1108D01*
G03X467456Y183608I357J181D01*
G37*
G36*
G01X545652Y168561D02*
G02Y170439I-1652J939D01*
G03X546348I348J198D01*
G02X549652I1652J-939D01*
G03X550348I348J198D01*
G02Y168561I1652J-939D01*
G03X549652I-348J-198D01*
G02X546348I-1652J939D01*
G03X545652I-348J-198D01*
G37*
G36*
G01X475779Y157236D02*
G02X474368Y158294I-1279J-236D01*
G03X474721Y158764I-40J398D01*
G02X474725Y159254I1279J236D01*
G03X474254Y159725I-392J78D01*
G02X475275Y160746I-254J1275D01*
G03X475746Y160275I392J-78D01*
G02X476132Y157707I254J-1275D01*
G03X475779Y157236I40J-398D01*
G37*
G36*
G01X642268Y152518D02*
G02X638732Y148982I-1768J-1768D01*
G01X638097Y149617D01*
G03X637531I-283J-283D01*
G02X637248Y149500I-283J283D01*
G01X633257D01*
G02X633054Y149555I0J400D01*
G03X632548Y149469I-202J-345D01*
G02X629479Y151691I-1448J1231D01*
G03X629138Y152300I-341J209D01*
G01X621272D01*
G03X620911Y151726I0J-400D01*
G02X617489I-1711J-826D01*
G03X617128Y152300I-360J174D01*
G01X594050D01*
G02X591550Y154800I0J2500D01*
G01Y158201D01*
G03X591162Y158601I-400J0D01*
G02X593093Y160821I58J1899D01*
G03X593770Y160606I394J68D01*
G01X594212Y161048D01*
G03X594126Y161679I-283J283D01*
G02X595210Y165227I936J1654D01*
G03X595642Y165626I31J399D01*
G01Y174110D01*
G03X595208Y174508I-400J0D01*
G02X592500Y177000I-208J2492D01*
G01Y183636D01*
X595464Y186600D01*
X618624D01*
X623230Y191206D01*
Y194380D01*
G02X626628Y196713I2500J0D01*
G03X627159Y196987I144J373D01*
G02X630899Y196450I1841J-472D01*
G03X631473Y196076I400J-14D01*
G02X631485Y192649I827J-1711D01*
G03X630963Y192481I-172J-361D01*
G02X628747Y191582I-1663J919D01*
G03X628230Y191200I-117J-383D01*
G01Y189134D01*
X620696Y181600D01*
X617821D01*
G03X617480Y180991I0J-400D01*
G02X614237I-1621J-991D01*
G03X613896Y181600I-341J209D01*
G01X611505D01*
G03X611235Y180904I0J-400D01*
G02X608328Y178519I-1280J-1404D01*
G03X607643I-343J-207D01*
G02X604736Y180904I-1627J981D01*
G03X604466Y181600I-269J296D01*
G01X600782D01*
G03X600418Y181034I0J-400D01*
G02X600642Y180000I-2276J-1034D01*
G01Y160406D01*
X598219Y157983D01*
G03X598502Y157300I283J-283D01*
G01X632568D01*
G03X632817Y158013I0J400D01*
G02X635183I1183J1487D01*
G03X635432Y157300I249J-313D01*
G01X637486D01*
X642268Y152518D01*
G37*
G36*
G01X495339Y141052D02*
G02X493461I-939J-1652D01*
G03Y141748I-198J348D01*
G02Y145052I939J1652D01*
G03Y145748I-198J348D01*
G02X495339I939J1652D01*
G03Y145052I198J-348D01*
G02Y141748I-939J-1652D01*
G03Y141052I198J-348D01*
G37*
G36*
G01X584553Y87790D02*
G02X581962Y90381I-1652J939D01*
G03Y91077I-198J348D01*
G02X584553Y93668I939J1652D01*
G03X585249I348J198D01*
G02X588553I1652J-939D01*
G03X589249I348J198D01*
G02X591840Y91077I1652J-939D01*
G03Y90381I198J-348D01*
G02X589249Y87790I-939J-1652D01*
G03X588553I-348J-198D01*
G02X585249I-1652J939D01*
G03X584553I-348J-198D01*
G37*
G36*
G01X481439Y52652D02*
G02X479561I-939J-1652D01*
G03Y53348I-198J348D01*
G02X481439I939J1652D01*
G03Y52652I198J-348D01*
G37*
G36*
G01X343995Y292387D02*
G03X343474Y292300I-211J-340D01*
G02X343005Y295113I-1474J1200D01*
G03X343526Y295200I211J340D01*
G02X346181Y295489I1474J-1200D01*
G03X346790Y295628I249J313D01*
G02X347319Y293311I1710J-828D01*
G03X346710Y293172I-249J-313D01*
G02X343995Y292387I-1710J828D01*
G37*
G36*
G01X333955Y291391D02*
G03X333305I-325J-234D01*
G02X330081Y291614I-1543J1109D01*
G03X329457Y291722I-354J-186D01*
G02X329851Y294006I-1287J1398D01*
G03X330476Y293898I354J186D01*
G02X333305Y293609I1287J-1398D01*
G03X333955I325J234D01*
G02Y291391I1543J-1109D01*
G37*
G36*
G01X429545Y354792D02*
G03X428951Y354773I-289J-277D01*
G02X429025Y357134I-1451J1227D01*
G03X429617Y357078I321J239D01*
G02X429545Y354792I1083J-1178D01*
G37*
G36*
G01X373497Y341918D02*
G03X374063Y341899I293J273D01*
G02X373970Y339214I1297J-1389D01*
G03X373404Y339234I-293J-273D01*
G02X373497Y341918I-1297J1389D01*
G37*
G36*
G01X368944Y347572D02*
G03X368414Y347553I-254J-309D01*
G02X368314Y350400I-1307J1379D01*
G03X368843Y350419I254J309D01*
G02X368944Y347572I1307J-1379D01*
G37*
G36*
G01X348692Y372084D02*
G03X348344Y372606I-381J123D01*
G02X347796Y376265I156J1894D01*
G03X347970Y376874I-148J372D01*
G02X350204Y376235I1530J1126D01*
G03X350030Y375626I148J-372D01*
G02X350308Y373916I-1530J-1127D01*
G03X350656Y373394I381J-123D01*
G02X348692Y372084I-156J-1894D01*
G37*
G36*
G01X495816Y238535D02*
G03X495775Y237909I227J-329D01*
G02X493422Y238065I-1275J-1409D01*
G03X493463Y238691I-227J329D01*
G02X495816Y238535I1275J1409D01*
G37*
G36*
G01X476359Y238393D02*
G03X476591Y238238I196J41D01*
G02X475081Y235977I349J-1868D01*
G03X474849Y236132I-196J-41D01*
G02X474083Y236146I-349J1868D01*
G03X473610Y235865I-88J-390D01*
G02X472199Y238236I-1828J517D01*
G03X472672Y238517I88J390D01*
G02X476359Y238393I1828J-517D01*
G37*
G36*
G01X551402Y325196D02*
G03X550923Y325003I-126J-380D01*
G02X549733Y326910I-1150J607D01*
G03X550117Y327256I-12J400D01*
G02X553286Y328399I1883J-256D01*
G03X553908Y328502I271J294D01*
G02X554415Y326745I1142J-622D01*
G03X553834Y326501I-195J-349D01*
G02X551402Y325196I-1834J499D01*
G37*
G36*
G01X598182Y316636D02*
G03X598286Y316052I316J-245D01*
G02X595778Y315604I-1006J-1612D01*
G03X595674Y316188I-316J245D01*
G02X598182Y316636I1006J1612D01*
G37*
G36*
G01X569773Y312183D02*
G03X569227I-273J-293D01*
G02X566683Y314727I-1227J1317D01*
G03Y315273I-293J273D01*
G02Y317727I1317J1227D01*
G03Y318273I-293J273D01*
G02X569227Y320817I1317J1227D01*
G03X569773I273J293D01*
G02X572227I1227J-1317D01*
G03X572773I273J293D01*
G02X575317Y318273I1227J-1317D01*
G03Y317727I293J-273D01*
G02Y315273I-1317J-1227D01*
G03Y314727I293J-273D01*
G02X572773Y312183I-1317J-1227D01*
G03X572227I-273J-293D01*
G02X569773I-1227J1317D01*
G37*
G36*
G01X594938Y301509D02*
G03X594915Y300900I248J-314D01*
G02X592452Y300991I-1285J-1400D01*
G03X592475Y301600I-248J314D01*
G02X594938Y301509I1285J1400D01*
G37*
G36*
G01X555191Y299580D02*
G03X554944Y300080I-381J122D01*
G02X554388Y300390I636J1790D01*
G03X553828Y300333I-251J-311D01*
G02X553552Y303020I-1468J1207D01*
G03X554112Y303077I251J311D01*
G02X557389Y301290I1468J-1207D01*
G03X557636Y300790I381J-122D01*
G02X555191Y299580I-636J-1790D01*
G37*
G36*
G01X583135Y308241D02*
G02X582210Y306557I975J-1631D01*
G03X581605Y306889I-400J-11D01*
G02X582530Y308573I-975J1631D01*
G03X583135Y308241I400J11D01*
G37*
G36*
G01X446530Y388200D02*
G03X445970I-280J-286D01*
G02Y391200I-1470J1500D01*
G03X446530I280J286D01*
G02Y388200I1470J-1500D01*
G37*
G54D41*
X47539Y231709D03*
X179626D03*
G54D38*
X289803Y38378D03*
G54D40*
X40551Y298799D03*
Y346201D03*
G54D47*
X338941Y259748D03*
Y255811D03*
X327130Y263685D03*
Y259748D03*
Y255811D03*
Y251874D03*
X335004Y263685D03*
X331067Y251874D03*
X323193Y247937D03*
Y240063D03*
X327130D03*
X331067D03*
X342878Y255811D03*
Y251874D03*
X335004Y247937D03*
X338941D03*
Y240063D03*
Y236126D03*
X342878Y232189D03*
X323193Y275496D03*
Y271559D03*
X327130Y275496D03*
Y271559D03*
X358626D03*
Y267622D03*
X342878Y279433D03*
X346815Y271559D03*
X338941Y251874D03*
X331067Y232189D03*
X350752Y228252D03*
X358626D03*
X346815Y232189D03*
X354689D03*
X362563D03*
Y224315D03*
X354689D03*
X362563Y279433D03*
Y275496D03*
X354689Y247937D03*
X346815Y259748D03*
X354689D03*
X362563D03*
X350752Y255811D03*
X358626D03*
X346815Y251874D03*
X362563D03*
X350752Y247937D03*
X346815Y240063D03*
X342878Y236126D03*
X358626Y279433D03*
X362563Y271559D03*
Y267622D03*
X342878Y263685D03*
X346815D03*
X350752D03*
X354689D03*
X358626D03*
X338941Y271559D03*
X327130Y247937D03*
X331067Y279433D03*
Y275496D03*
X335004D03*
Y271559D03*
X338941Y267622D03*
Y263685D03*
X323193Y259748D03*
X338941Y228252D03*
X362563Y263685D03*
X358626Y247937D03*
X354689Y251874D03*
X358626D03*
X342878Y259748D03*
X331067Y255811D03*
X327130Y267622D03*
X323193Y279433D03*
X335004Y240063D03*
X323193Y236126D03*
X342878Y247937D03*
X323193Y255811D03*
Y251874D03*
Y267622D03*
X331067Y247937D03*
X335004Y259748D03*
Y255811D03*
X323193Y263685D03*
X362563Y228252D03*
X331067Y271559D03*
Y259748D03*
X335004Y267622D03*
Y236126D03*
Y251874D03*
X342878Y271559D03*
Y267622D03*
X346815Y279433D03*
Y275496D03*
X342878Y228252D03*
X335004Y279433D03*
X358626Y275496D03*
X342878D03*
X346815Y267622D03*
X323121Y288116D03*
G54D42*
X87322Y243402D03*
X103070D03*
Y238678D03*
X87322D03*
X620500Y262500D03*
G54D51*
X342107Y330880D03*
X352107D03*
X362107D03*
X372107D03*
G54D44*
X204339Y216951D03*
X205500Y385500D03*
X265500Y242500D03*
X464085Y175795D03*
X449000Y272500D03*
X494500Y280000D03*
X453000Y282500D03*
X459500Y287000D03*
X610582Y117580D03*
X310110Y180100D03*
X301460Y185000D03*
X301500Y175500D03*
X310236Y186924D03*
X284380Y182320D03*
X284820Y191600D03*
X384100Y106800D03*
X399630Y133230D03*
X401500Y140130D03*
X411360Y133200D03*
X454500Y152500D03*
X404690Y138810D03*
X485000Y189200D03*
X476500Y243500D03*
X558819Y346676D03*
X563729Y347622D03*
X568729Y347625D03*
X573729D03*
X578729D03*
X583729D03*
X588729D03*
X593729D03*
X598729D03*
X603729Y347609D03*
X608628Y346611D03*
X545840Y330990D03*
X539620Y332230D03*
X555630Y337222D03*
X554625Y332324D03*
X549375Y330595D03*
X549606Y335589D03*
X585982Y310266D03*
X584068Y314885D03*
X580822Y318687D03*
X577286Y322223D03*
X573750Y325758D03*
X570215Y329294D03*
X566679Y332829D03*
X572713Y334220D03*
X576249Y330685D03*
X579784Y327149D03*
X583320Y323614D03*
X586803Y320026D03*
X589535Y315839D03*
X591171Y311114D03*
X591625Y306135D03*
Y296135D03*
X566000Y309010D03*
X581544Y295604D03*
G54D53*
X459224Y366323D03*
G54D52*
X452339Y238850D03*
Y252865D03*
X438324D03*
Y238850D03*
X445332Y245857D03*
G54D48*
X452339Y123535D03*
X438324D03*
G54D39*
X37590Y134140D03*
X37850Y144550D03*
X67780Y131150D03*
X77790Y139450D03*
X49250Y155710D03*
X129200Y184900D03*
X101000Y179500D03*
X70810Y127000D03*
X121500Y133000D03*
X116500Y133500D03*
Y128500D03*
X126500D03*
Y133500D03*
X121500Y128500D03*
X125000Y185000D03*
X95196Y201117D03*
X116221Y205842D03*
X95196D03*
X131969D03*
Y201117D03*
X116221D03*
X99260Y196260D03*
X84500Y118500D03*
X79500D03*
X90500Y179600D03*
X55203Y264923D03*
X131969Y215290D03*
Y220015D03*
X124095Y215290D03*
Y220015D03*
X116221Y215290D03*
Y220015D03*
X60000Y219500D03*
X97500Y345250D03*
X88500Y344960D03*
X93000Y345220D03*
X128000Y265500D03*
X125500Y253500D03*
X85800Y267377D03*
X63023Y279523D03*
Y275123D03*
X24800Y265000D03*
X37340Y285677D03*
X23050Y283860D03*
X39900Y260400D03*
X125500Y258000D03*
X71574Y243402D03*
Y238678D03*
X123500Y267000D03*
X126000Y278500D03*
X80200Y321200D03*
X124095Y210566D03*
X108347Y215290D03*
X101500Y215500D03*
X100473Y220015D03*
X79448Y262300D03*
X90660Y264460D03*
X100473Y224739D03*
X108347D03*
X116221D03*
X131969Y262300D03*
X116221D03*
X95196D03*
X131969Y224739D03*
X62500Y228500D03*
X58013Y226706D03*
X100000Y296500D03*
X124095Y224739D03*
X64000Y266000D03*
X68500Y272000D03*
X124095Y243402D03*
Y238678D03*
X67500Y229500D03*
X88500Y354890D03*
X255850Y16310D03*
X257840Y20080D03*
X253250Y19930D03*
X187000Y50500D03*
X211500Y132000D03*
X176300Y102420D03*
X217500Y92500D03*
X226000Y88500D03*
X136500Y192500D03*
X134800Y188600D03*
X218000Y185600D03*
X177410Y186590D03*
X210500Y173000D03*
X195000Y177400D03*
X224835Y201525D03*
X230500Y94500D03*
X216630Y235790D03*
X164000Y344500D03*
X139080Y310140D03*
X156900Y317800D03*
X146400Y340500D03*
X174200Y307800D03*
X223500Y235000D03*
X133500Y234000D03*
X135600Y272260D03*
X141500Y233000D03*
X151080Y267840D03*
X247660Y332634D03*
X257500Y329500D03*
X207655Y235506D03*
X192500Y340000D03*
X207655Y214055D03*
X168485Y326300D03*
X209130Y245580D03*
X190044Y322928D03*
X184500Y318000D03*
X185890Y295210D03*
X181000Y305000D03*
X207560Y314890D03*
X193000Y317500D03*
X199500Y295500D03*
X204500Y306500D03*
X215490Y249170D03*
X207340Y250550D03*
X174730Y280890D03*
X147717Y224739D03*
X155592D03*
X147717Y210566D03*
X155592D03*
Y220015D03*
Y215290D03*
X147717D03*
Y220015D03*
X212773Y214400D03*
X216455Y331055D03*
X216020Y341310D03*
X139843Y210566D03*
X179540Y320090D03*
X140280Y224920D03*
X147959Y262541D03*
X155906Y262614D03*
X155592Y257576D03*
Y252851D03*
X200750Y340250D03*
X188170Y343500D03*
X261000Y340500D03*
X223265Y341735D03*
X257000Y345000D03*
X170130Y341360D03*
X155592Y243402D03*
X147717D03*
X160808Y327400D03*
X150500Y295500D03*
X155500Y291000D03*
X139843Y257576D03*
Y252851D03*
X140500Y243500D03*
Y238776D03*
X141220Y218980D03*
X203000Y302000D03*
X135000Y345500D03*
X264000Y348000D03*
X170802Y346092D03*
X177872Y346040D03*
X226500Y363000D03*
X250200Y364800D03*
X251500Y376000D03*
X259500Y362500D03*
X260700Y357000D03*
X231500Y362500D03*
X242670Y392390D03*
X229960Y392500D03*
X215000Y389500D03*
X245875Y388735D03*
X235500Y353005D03*
X268500Y33000D03*
X268690Y38000D03*
X268830Y50000D03*
X268710Y54230D03*
X268360Y42470D03*
X207360Y267210D03*
X223230Y268530D03*
X232870Y283290D03*
X220000Y283737D03*
X217000Y287500D03*
X214000Y283500D03*
X232500Y297000D03*
X211000Y287000D03*
X209000Y283000D03*
X279410Y321780D03*
X289000Y328800D03*
X279106Y330345D03*
X291060Y314680D03*
X270000Y314500D03*
X255880Y260620D03*
X260500Y256000D03*
X229930Y263350D03*
X296500Y275500D03*
X268900Y257500D03*
X276000Y269000D03*
X317500Y278000D03*
X436500Y45000D03*
X475500Y55500D03*
X476000Y51000D03*
X440800Y52700D03*
X436000Y34500D03*
Y39050D03*
X414000Y99810D03*
X491630Y156490D03*
X409230Y88100D03*
X494900Y260710D03*
X483800Y344000D03*
X484000Y332500D03*
Y337500D03*
X488500Y356900D03*
X491214Y383214D03*
X483720Y354000D03*
X483700Y348810D03*
X484420Y361000D03*
X484100Y372300D03*
X566260Y190411D03*
X568300Y140800D03*
X563300D03*
Y145800D03*
Y150800D03*
X568300D03*
Y145800D03*
X573300D03*
Y150800D03*
X602500Y88000D03*
X645000Y159500D03*
X639500Y159000D03*
X648000Y163000D03*
X641500D03*
X631000D03*
X636500D03*
X552000Y174500D03*
X654500Y97500D03*
X625000Y181500D03*
X560500Y207000D03*
X582500Y175500D03*
Y185500D03*
Y180500D03*
X587500Y175500D03*
X667640Y200000D03*
X620500Y171500D03*
X600500Y112500D03*
X633000Y311000D03*
X622000Y315500D03*
Y311000D03*
X621125Y271987D03*
X641000Y292000D03*
X606000Y323500D03*
X617258Y284590D03*
X613000Y284500D03*
X615000Y273500D03*
X598142Y215000D03*
X631180Y262500D03*
X622000Y217000D03*
X625500Y226800D03*
X593000Y211500D03*
X588500D03*
X590000Y217000D03*
X584000Y211500D03*
X642000Y266000D03*
X616500Y321000D03*
X584930Y286430D03*
X599970Y334650D03*
X316890Y93190D03*
X280000Y178000D03*
X392000Y108430D03*
X442500Y142500D03*
X425640Y143000D03*
X309920Y298290D03*
X310930Y324050D03*
X317540Y287410D03*
X306710Y313910D03*
X427500Y351000D03*
Y361000D03*
X377107Y348932D03*
X339607Y321137D03*
X342107Y312827D03*
X354607Y321137D03*
X357820Y339750D03*
X357107Y312827D03*
X344607Y321137D03*
X352107Y312827D03*
X318500Y323000D03*
X347107Y312827D03*
X365000Y299500D03*
X316500Y335370D03*
X349607Y321137D03*
X359607D03*
X339000Y374500D03*
Y379500D03*
Y369500D03*
X340094Y384094D03*
X319000Y379500D03*
X366500Y392500D03*
X329000Y375000D03*
Y366500D03*
X683000Y177500D03*
Y167500D03*
Y159000D03*
X677080Y164030D03*
X676670Y157140D03*
X677700Y336000D03*
Y346100D03*
X474000Y231300D03*
X434900Y232900D03*
X479502Y232393D03*
X479500Y227700D03*
X467500Y234000D03*
X495210Y216000D03*
X495500Y221000D03*
X658800Y263478D03*
X653624Y338924D03*
X536437Y307713D03*
X528563D03*
X542630Y324600D03*
X546200Y317200D03*
X548620Y306690D03*
X577105Y298105D03*
X586330Y326550D03*
X578480Y334290D03*
X589000Y333500D03*
X451400Y377400D03*
G54D46*
X269000Y91500D03*
X440000Y90000D03*
G54D45*
X339803Y18693D03*
X377205Y45268D03*
X392165D03*
X407126D03*
G54D37*
X177165Y257299D03*
G54D43*
X67412Y384458D03*
X94183D03*
X179014Y339900D03*
X205786D03*
X169286Y277500D03*
X142514D03*
G54D35*
X50000Y257299D03*
G54D36*
X177165Y206118D03*
G54D50*
X468500Y270000D03*
G54D49*
X486200Y295600D03*
Y270000D03*
%LPD*%
G75*
G36*
G01X161500Y112000D02*
X160000Y113500D01*
Y117202D01*
G02X160417Y117602I400J0D01*
G03Y121398I83J1898D01*
G02X160000Y121798I-17J400D01*
G01Y133000D01*
X157500Y135500D01*
X155000D01*
X146000Y144500D01*
Y150500D01*
X115209D01*
X115192Y150681D01*
G03X111408I-1892J-181D01*
G01X111391Y150500D01*
X110709D01*
X110692Y150681D01*
G03X106908I-1892J-181D01*
G01X106891Y150500D01*
X67500D01*
X60460Y157540D01*
G02X60614Y158202I283J283D01*
G03X58202Y160614I-614J1798D01*
G02X57540Y160460I-379J129D01*
G01X44000Y174000D01*
X36360D01*
X35520Y173160D01*
Y157720D01*
X33940Y156140D01*
X25950D01*
X24500Y157590D01*
Y182280D01*
G02X25091Y182631I400J0D01*
G03Y185969I909J1669D01*
G02X24500Y186320I-191J351D01*
G01Y203500D01*
X36000Y215000D01*
X68091D01*
X68108Y214819D01*
G03X71892I1892J181D01*
G01X71909Y215000D01*
X77563D01*
X77600Y214847D01*
G03X81348Y215268I1848J444D01*
G01X81349Y215349D01*
X82215Y216215D01*
Y226135D01*
X83570Y227490D01*
X90150D01*
X91230Y226410D01*
Y192730D01*
X89000Y190500D01*
X82000D01*
X79899Y188399D01*
X79827Y188392D01*
G03X80000Y184600I173J-1892D01*
G01Y177500D01*
X82000Y175500D01*
X98562D01*
G02X98955Y175026I0J-400D01*
G03X102691I1868J-349D01*
G02X103084Y175500I393J74D01*
G01X154158D01*
G02X154557Y175065I0J-400D01*
G03X155463Y173276I1893J-165D01*
G02X155472Y172598I-208J-342D01*
G03X157487Y172624I1028J-1598D01*
G02X157478Y173302I208J342D01*
G03X158343Y175065I-1028J1598D01*
G02X158742Y175500I398J35D01*
G01X158926D01*
G02X159325Y175070I0J-400D01*
G03X160194Y173330I1895J-140D01*
G02X160203Y172662I-216J-337D01*
G03X162296Y172690I1067J-1573D01*
G02X162287Y173358I216J337D01*
G03X163115Y175070I-1067J1572D01*
G02X163514Y175500I399J30D01*
G01X174980D01*
G02X175331Y174909I0J-400D01*
G03X178669I1669J-909D01*
G02X179020Y175500I351J191D01*
G01X190500D01*
X193500Y172500D01*
Y166515D01*
G03X190097Y135271I6500J-16515D01*
G02X190157Y134657I-223J-332D01*
G01X186000Y130500D01*
Y120150D01*
G02X185304Y119880I-400J0D01*
G03X185619Y117790I-1404J-1280D01*
G01X185673Y117905D01*
X186000D01*
Y117000D01*
X181000Y112000D01*
X161500D01*
G37*
%LPC*%
G75*
G36*
G01X61697Y168278D02*
G03X61176Y168104I-169J-363D01*
G02X60303Y170722I-1676J896D01*
G03X60824Y170896I169J363D01*
G02X61697Y168278I1676J-896D01*
G37*
G36*
G01X114612Y165969D02*
G03X114605Y165381I268J-297D01*
G02X112028Y165411I-1305J-1381D01*
G03X112035Y165999I-268J297D01*
G02X114612Y165969I1305J1381D01*
G37*
G36*
G01X110112D02*
G03X110105Y165381I268J-297D01*
G02X107528Y165411I-1305J-1381D01*
G03X107535Y165999I-268J297D01*
G02X110112Y165969I1305J1381D01*
G37*
G36*
G01X158152Y155061D02*
G02Y156939I-1652J939D01*
G03X158848I348J198D01*
G02Y155061I1652J-939D01*
G03X158152I-348J-198D01*
G37*
G36*
G01X69414Y154773D02*
G02X69273Y156468I-1764J707D01*
G03X69986Y156527I342J208D01*
G02X70127Y154832I1764J-707D01*
G03X69414Y154773I-342J-208D01*
G37*
G36*
G01X158152Y150561D02*
G02Y152439I-1652J939D01*
G03X158848I348J198D01*
G02Y150561I1652J-939D01*
G03X158152I-348J-198D01*
G37*
G36*
G01X172904Y131804D02*
G02X171618Y130261I596J-1804D01*
G03X171096Y130696I-396J55D01*
G02X172382Y132239I-596J1804D01*
G03X172904Y131804I396J-55D01*
G37*
G54D44*
X127700Y165300D03*
X92000Y164000D03*
X140700Y172300D03*
G54D39*
X104340Y164490D03*
X87322Y205842D03*
Y201117D03*
X50000Y191360D03*
X45000Y192500D03*
X76500Y162500D03*
X69800Y188090D03*
X64500Y161500D03*
X82023Y162023D03*
X79500Y173500D03*
X108800Y155000D03*
Y159500D03*
X113060Y159570D03*
Y155090D03*
X67000Y205500D03*
X54500Y192500D03*
X79500Y192000D03*
X87322Y210566D03*
Y220015D03*
X63500Y211000D03*
X79448Y210566D03*
X158310Y142600D03*
X180000Y141538D03*
X176590Y161020D03*
X160500Y166000D03*
X188480Y169870D03*
X180400Y137100D03*
X179500Y130000D03*
X177500Y169500D03*
X152000Y151500D03*
Y156000D03*
X176400Y122890D03*
G54D35*
X50000Y206118D03*
%LPD*%
G75*
G54D10*
X21600Y85600D03*
Y393400D03*
X200000Y150000D03*
X275590Y393400D03*
X521858Y200000D03*
X678400Y85600D03*
Y393400D03*
G54D11*
X119000Y25000D03*
X120000Y41000D03*
X4700Y206900D03*
Y196900D03*
Y186900D03*
Y176900D03*
Y166900D03*
Y116900D03*
Y106900D03*
X75500Y105500D03*
X79000D03*
X72000D03*
X77730Y135450D03*
X45150Y155880D03*
X37630Y140550D03*
X37910Y130550D03*
X70150Y117880D03*
X65900Y117910D03*
X77940Y131500D03*
X124095Y201117D03*
Y205842D03*
X102739Y205511D03*
X103070Y201240D03*
X74500Y118000D03*
X77550Y143950D03*
X63500Y107000D03*
X51700Y84800D03*
X59000Y107435D03*
X50500Y112500D03*
X60500Y94000D03*
X52500Y106500D03*
X57765Y100765D03*
X85500Y109000D03*
X49652Y127652D03*
X87000Y179500D03*
X26740Y152960D03*
X62500Y192500D03*
X26310Y159110D03*
X4700Y296900D03*
Y286900D03*
Y276900D03*
Y266900D03*
Y256900D03*
Y246900D03*
Y236900D03*
Y226900D03*
Y336900D03*
Y306900D03*
Y316900D03*
Y326900D03*
Y216900D03*
X94026Y223949D03*
X91074Y325874D03*
X131969Y257576D03*
Y252851D03*
Y248127D03*
Y243402D03*
Y238678D03*
X124095Y248127D03*
X116221Y210566D03*
X131969D03*
Y229464D03*
X124095D03*
X116221D03*
X103070D03*
Y248127D03*
X116221Y238678D03*
Y243402D03*
Y248127D03*
Y252851D03*
Y257576D03*
X124095Y262300D03*
X103070D03*
X95196Y229464D03*
X87322D03*
X79448D03*
X94000Y211000D03*
X79448Y220015D03*
X87322Y248127D03*
X71574D03*
X79448Y238678D03*
Y248127D03*
Y243402D03*
X95196Y257576D03*
Y252851D03*
Y248127D03*
Y243402D03*
Y238678D03*
X71574Y229464D03*
Y220015D03*
Y262300D03*
X87322D03*
X79448Y257576D03*
Y252851D03*
X84500Y321000D03*
X101726Y325874D03*
X109500Y219500D03*
X101300Y282300D03*
X76377Y267377D03*
X98800Y265400D03*
X32500Y266000D03*
X44520Y264923D03*
X59000Y279500D03*
X87322Y224739D03*
X109700Y410000D03*
X99700D03*
X89700D03*
X79700D03*
X69700D03*
X59700D03*
X49700D03*
X4700Y366900D03*
Y356900D03*
Y346900D03*
X96000Y361000D03*
Y371500D03*
X78000Y359000D03*
X93000Y355050D03*
X97500Y354850D03*
X131400Y345600D03*
X73100Y359300D03*
X97752Y364128D03*
Y368372D03*
X134500Y24500D03*
Y40000D03*
X258500Y33000D03*
X259300Y27300D03*
X226000Y39000D03*
X240500D03*
X226000Y23000D03*
X241000Y23500D03*
X219000Y97000D03*
X226000Y130000D03*
X204876Y109966D03*
X200200Y85800D03*
X135500Y123000D03*
X147717Y205842D03*
X139843Y201117D03*
Y205842D03*
X179500Y107500D03*
X153968Y114468D03*
X156000Y127000D03*
X210700Y194400D03*
X218200D03*
X193000Y204530D03*
X197500Y203900D03*
X198000Y186400D03*
X205500Y183400D03*
X210000Y182480D03*
X256400Y152000D03*
X256200Y147000D03*
X202000Y110500D03*
X235800Y166100D03*
X223500Y144000D03*
X202000Y124500D03*
X217000Y87500D03*
X221640Y87950D03*
X232880Y122850D03*
X239000Y109500D03*
X222123Y126720D03*
X180523Y191477D03*
X215420Y180020D03*
X137000Y141500D03*
X203500Y88500D03*
X243625Y149675D03*
X184500Y169000D03*
X185500Y166000D03*
X176800Y117070D03*
X203000Y118500D03*
X200523Y99023D03*
X203000Y103500D03*
X234000Y185500D03*
X163000Y295600D03*
X175400Y295720D03*
X171300Y295880D03*
X237410Y290330D03*
X212400Y341400D03*
X223100Y264110D03*
X134500Y323000D03*
X134400Y326516D03*
X155592Y248127D03*
X147717D03*
Y252851D03*
Y257576D03*
X139843Y248127D03*
X147717Y238678D03*
X155592D03*
X139843Y229464D03*
Y262300D03*
X171300Y220580D03*
X169240Y217500D03*
X134500Y332000D03*
X226500Y223000D03*
X155690Y327700D03*
X217730Y245290D03*
X212800Y245400D03*
X220450Y214200D03*
X205000Y245040D03*
X243220Y330330D03*
X238140Y320340D03*
X257800Y317550D03*
X182640Y291910D03*
X203500Y295000D03*
X179200Y313800D03*
X188500Y318000D03*
X134509Y329214D03*
X267000Y246400D03*
X215600Y254800D03*
X218600Y263260D03*
X198100Y254300D03*
X197800Y249800D03*
X217100Y280180D03*
X197522Y267622D03*
X197800Y271100D03*
X215100D03*
X135860Y309900D03*
X210500Y330500D03*
X150000Y330600D03*
X176400Y319870D03*
X165600Y305900D03*
X153400Y305800D03*
X153000Y323600D03*
X210740Y250360D03*
X223000Y225000D03*
X261850Y334350D03*
X220300Y340810D03*
X233850Y263110D03*
X239700Y410000D03*
X219700D03*
X199700D03*
X189700D03*
X209700D03*
X188250Y347000D03*
X143300Y346500D03*
X256500Y348000D03*
X214277Y345723D03*
X167000Y346000D03*
X158190Y346280D03*
X256690Y360420D03*
X257000Y351000D03*
X256690Y356890D03*
X202080Y352460D03*
X207500Y388000D03*
X273574Y33406D03*
X274000Y45000D03*
X270500Y29000D03*
X269800Y147000D03*
X293900Y123500D03*
X296147Y184927D03*
X311930Y185040D03*
X282800Y180100D03*
X351200Y94800D03*
X347800D03*
X358550Y91450D03*
X307000Y148500D03*
X310500Y149500D03*
X278355Y171855D03*
X279900Y134813D03*
X293290Y118000D03*
X281086Y95354D03*
X300000Y163000D03*
X338800Y95800D03*
X402000Y135500D03*
X308500Y86500D03*
X305500D03*
X326000Y167500D03*
X273600Y209130D03*
X354050Y195450D03*
X362700Y192680D03*
X314000Y167500D03*
X313500Y163500D03*
X357870Y192770D03*
X401500Y145000D03*
X299000Y171500D03*
X280500Y197500D03*
X299000Y208100D03*
X267500Y194500D03*
X298500Y197600D03*
X328730Y308380D03*
X296500Y288500D03*
Y283500D03*
Y264500D03*
Y258500D03*
Y253000D03*
Y246000D03*
Y242000D03*
X288800Y333000D03*
X309210Y326970D03*
X291270Y320990D03*
X292000Y325500D03*
X287500Y302000D03*
X316000Y317140D03*
X291500Y307500D03*
X294500Y294000D03*
X289000Y317700D03*
Y325200D03*
X317193Y251685D03*
Y257685D03*
X317526Y263660D03*
X317193Y233685D03*
Y239685D03*
Y245685D03*
Y227685D03*
X270865Y222165D03*
X270800Y213740D03*
X311500Y267500D03*
X374607Y321137D03*
X309700Y341320D03*
X361370Y339410D03*
X367500Y339600D03*
X364560Y339440D03*
X358500Y294800D03*
X362492Y294732D03*
X369607Y321137D03*
X372107Y312827D03*
X378065Y312685D03*
X364607Y321137D03*
X354500Y291000D03*
X398200Y411100D03*
X388200D03*
X378200D03*
X368200D03*
X358200D03*
X348200D03*
X338200D03*
X328200D03*
X318200D03*
X308200D03*
X298200D03*
X308500Y362000D03*
X308400Y391300D03*
Y386000D03*
X308500Y357500D03*
X363500Y373000D03*
X385500Y379500D03*
X390100Y373500D03*
X387000D03*
X390500Y369500D03*
X387000D03*
X274250Y359750D03*
X334950Y360840D03*
X335000Y363800D03*
X349500Y384000D03*
X350000Y367500D03*
X328900Y391000D03*
Y386500D03*
X447500Y45000D03*
X447600Y49209D03*
X458500Y39000D03*
X474000Y39500D03*
X459000Y23000D03*
X474500D03*
X451770Y42050D03*
X492692Y152700D03*
X464500Y112500D03*
Y108000D03*
X470450Y107990D03*
X467500Y109500D03*
X470500Y112500D03*
X443000Y108500D03*
X470000Y91500D03*
X449500Y176700D03*
X451500Y179000D03*
X439000Y155000D03*
Y159500D03*
Y177000D03*
X464500Y197000D03*
X439000Y182500D03*
X439270Y172900D03*
X439000Y166500D03*
X436110Y152050D03*
X464500Y201000D03*
Y204500D03*
X442500Y151759D03*
X468000Y159000D03*
X465000Y161000D03*
Y157700D03*
X471000D03*
Y161000D03*
X461720Y141478D03*
X466220D03*
X417500Y124000D03*
X493000Y102000D03*
X495800Y197420D03*
X479047Y176047D03*
X482000D03*
X479047Y179000D03*
X482000D03*
X479047Y181953D03*
X482000D03*
X484953Y176047D03*
Y179000D03*
Y181953D03*
X493000Y115563D03*
X488413Y127413D03*
X474500Y119500D03*
X495820Y182090D03*
X489720Y167150D03*
X472000Y147500D03*
X440500Y96500D03*
X458010Y151730D03*
X456330Y154360D03*
X460000Y154000D03*
X489900Y204590D03*
X406000Y159600D03*
X473860Y208699D03*
X495680Y185820D03*
X473450Y195650D03*
X413500Y169500D03*
X465000Y210500D03*
X474760Y258000D03*
X529500Y273000D03*
X534030Y274210D03*
X493200Y344000D03*
X493000Y337500D03*
Y332500D03*
X537400Y276300D03*
X477500Y305500D03*
X528563Y289687D03*
X468500Y260500D03*
X476141Y251141D03*
X498400Y246900D03*
X488660Y248002D03*
X431850Y224320D03*
X491000Y211500D03*
X466589Y238649D03*
X482700Y236800D03*
X485000Y231840D03*
X414240Y231680D03*
X414000Y241500D03*
X414500Y237500D03*
X424054Y226654D03*
X414560Y223470D03*
X414811Y212500D03*
X531000Y343000D03*
X526500D03*
X531000Y337000D03*
X527000D03*
X440000Y218400D03*
X508500Y411200D03*
X498500D03*
X488500D03*
X478200Y411100D03*
X468200D03*
X458200D03*
X448200D03*
X438200D03*
X428200D03*
X418200D03*
X408200D03*
X461347Y377000D03*
X473000Y386800D03*
X469500Y386500D03*
X490200Y375300D03*
X493180Y349000D03*
X492580Y361000D03*
X454530Y392380D03*
X450500Y387000D03*
X417500Y366000D03*
Y356000D03*
Y351000D03*
Y361000D03*
X433390Y387090D03*
X475660Y391470D03*
X416000Y390170D03*
X433390Y375770D03*
X581500Y23500D03*
X565500D03*
Y39500D03*
X581500D03*
X664000Y38500D03*
X663000Y23000D03*
X571000Y122500D03*
X568200Y119400D03*
Y114400D03*
X560244Y134456D03*
X566000Y125000D03*
X563200Y129400D03*
Y134400D03*
X649500Y114000D03*
X623300Y167800D03*
X631500Y176500D03*
X637500D03*
X634500D03*
X650000Y202000D03*
Y198000D03*
X621000Y181500D03*
X617000Y207500D03*
X612000D03*
X607000D03*
X602000D03*
X597000D03*
X590000Y198484D03*
X617000Y192500D03*
X612000D03*
X607000D03*
X602000D03*
X597000D03*
Y187500D03*
X602000D03*
X607000D03*
X612000D03*
X617000D03*
Y202500D03*
X612000D03*
X607000D03*
X602000D03*
X597000D03*
Y197500D03*
X602000D03*
X607000D03*
X612000D03*
X617000D03*
X557000Y199500D03*
X553000Y199000D03*
Y194500D03*
X557000D03*
X549000Y199000D03*
Y194500D03*
X586500Y155000D03*
X589500D03*
X583500D03*
X580500D03*
X591250Y169800D03*
X607500Y162400D03*
X604000Y163500D03*
X611500D03*
X578901Y88729D03*
X574901D03*
X570901D03*
Y92729D03*
X574901D03*
X578901D03*
X646500Y114000D03*
Y110500D03*
X649500D03*
X671100Y111858D03*
X670860Y115290D03*
X640080Y131120D03*
X639880Y134930D03*
X643120Y134890D03*
X643280Y131120D03*
X625730Y194380D03*
X595000Y177000D03*
X640500Y150750D03*
X594050Y154800D03*
X598142Y180000D03*
X604710Y317790D03*
X556500Y262000D03*
X552326Y262226D03*
X604218Y339500D03*
X593111D03*
X608500Y273290D03*
X597500Y273180D03*
X555450Y276110D03*
X550000Y269500D03*
X562860Y273050D03*
X617030Y262143D03*
X646354Y325760D03*
X543000Y277000D03*
X625380Y223590D03*
X637500Y217500D03*
X631500D03*
X634500D03*
X618500Y220200D03*
X617827Y214827D03*
X595430Y217370D03*
X588000Y227500D03*
Y231000D03*
X578000Y227500D03*
Y231000D03*
X606360Y231620D03*
X641995Y269995D03*
X626760Y282630D03*
X626530Y278032D03*
X629400Y280000D03*
X632058Y282690D03*
X632450Y277870D03*
X635058Y290690D03*
X618900Y274000D03*
X630200Y290900D03*
X629958Y300190D03*
X646424Y335224D03*
X642160Y262500D03*
X590000Y283500D03*
X609000Y299000D03*
X606800Y304000D03*
X607280Y310950D03*
X564900Y287200D03*
X549490Y279500D03*
X596292Y265108D03*
X600000Y330500D03*
X576600Y277830D03*
X569350Y261450D03*
X546650Y277150D03*
X547500Y300500D03*
X543000Y294500D03*
X609662Y292838D03*
X612862Y306638D03*
X591500Y291500D03*
X556000Y225500D03*
X552000D03*
X548300Y225700D03*
Y220800D03*
X552200D03*
X556100D03*
X655200Y232000D03*
X658700D03*
X651200D03*
X655200Y227400D03*
X658700D03*
X651200D03*
X601000Y295825D03*
X584390Y295850D03*
X590470Y328070D03*
X584170Y299500D03*
X584280Y303000D03*
X552500Y311300D03*
X556000Y311320D03*
X581500Y339020D03*
X600500Y317690D03*
X638500Y411200D03*
X628500D03*
X618500D03*
X648500D03*
X608500D03*
X598500D03*
X588500D03*
X679000Y38500D03*
X679500Y22500D03*
X696100Y111900D03*
Y121900D03*
Y131900D03*
Y141900D03*
Y151900D03*
Y161900D03*
Y171900D03*
Y201900D03*
Y181900D03*
Y191900D03*
X675310Y129100D03*
X696100Y211900D03*
G54D20*
G01X203500Y88500D02*
X168000D01*
X155000Y101500D01*
G01X675310Y129100D02*
Y126500D01*
X675110Y126300D01*
Y122130D01*
X672980Y120000D01*
X644400D01*
X629423Y105023D01*
X603080D01*
G01X595000Y177000D02*
Y182600D01*
X596500Y184100D01*
X619660D01*
X625730Y190170D01*
Y194380D01*
G01X594050Y154800D02*
X636450D01*
X640500Y150750D01*
G01X598142Y180000D02*
Y161442D01*
X594050Y157350D01*
Y154800D01*
X370437Y200693D03*
X382248D03*
X386185D03*
X350752Y204630D03*
X338941Y200693D03*
X339156Y204844D03*
X335004Y208567D03*
X358626Y287307D03*
X350752D03*
X358626Y283370D03*
X346815Y287307D03*
X354689D03*
X327130D03*
X331067D03*
X338941D03*
X331067Y283370D03*
X350752D03*
Y224315D03*
Y240063D03*
X346815Y228252D03*
X358626Y259748D03*
X350752D03*
X362563Y255811D03*
X358626Y224315D03*
X354689Y228252D03*
X358626Y232189D03*
X350752D03*
X362563Y236126D03*
Y247937D03*
X354689Y255811D03*
X346815D03*
X350752Y251874D03*
X346815Y247937D03*
Y236126D03*
X374374Y220378D03*
Y228252D03*
Y224315D03*
X370437Y216441D03*
X354689Y240063D03*
X382248Y212504D03*
X397996Y247937D03*
X386185D03*
X401933Y263685D03*
Y232189D03*
X397996D03*
X401933Y236126D03*
Y240063D03*
X394059Y259748D03*
Y247937D03*
Y263685D03*
Y251874D03*
X397996D03*
X390122Y259748D03*
X374374Y240063D03*
X370437Y259748D03*
Y247937D03*
X350752Y267622D03*
X335004Y212504D03*
X338941D03*
X342878Y220378D03*
X335004Y228252D03*
X327130Y220378D03*
X405870Y240063D03*
Y232189D03*
Y228252D03*
Y224315D03*
Y220378D03*
X409807Y240063D03*
Y228252D03*
X564728Y293272D03*
X572500Y286000D03*
X566600Y291300D03*
X568704Y286836D03*
X568665Y289335D03*
Y293272D03*
X573000Y289000D03*
X570700Y291400D03*
X572602Y293272D03*
G54D30*
G01X467823Y368800D02*
Y370463D01*
X485590Y388230D01*
Y394020D01*
X480310Y399300D01*
X409679D01*
X396899Y386520D01*
X384840D01*
X380920Y382600D01*
Y376540D01*
X374400Y370020D01*
X360989D01*
X345829Y354860D01*
X323261D01*
X307621Y370500D01*
X208000D01*
X197500Y360000D01*
X111121D01*
X108000Y363121D01*
Y372500D01*
X103500Y377000D01*
X93500D01*
X89999Y373499D01*
Y367859D01*
X92358Y365500D01*
X96380D01*
X97752Y364128D01*
G01X466373Y368720D02*
X466323Y368770D01*
Y371085D01*
X484090Y388851D01*
Y393399D01*
X479689Y397800D01*
X410300D01*
X397520Y385020D01*
X385461D01*
X382420Y381979D01*
Y375919D01*
X375021Y368520D01*
X361610D01*
X346450Y353360D01*
X322640D01*
X307000Y369000D01*
X208621D01*
X198121Y358500D01*
X139016D01*
X138466Y357950D01*
Y357750D01*
X137916Y357200D01*
X136816D01*
X136266Y357750D01*
Y357950D01*
X135716Y358500D01*
X134616D01*
X134066Y357950D01*
Y357750D01*
X133516Y357200D01*
X132416D01*
X131866Y357750D01*
Y357950D01*
X131316Y358500D01*
X130216D01*
X129666Y357950D01*
Y357750D01*
X129116Y357200D01*
X128016D01*
X127466Y357750D01*
Y357950D01*
X126916Y358500D01*
X125816D01*
X125266Y357950D01*
Y357750D01*
X124716Y357200D01*
X123616D01*
X123066Y357750D01*
Y357950D01*
X122516Y358500D01*
X121416D01*
X120866Y357950D01*
Y357750D01*
X120316Y357200D01*
X119216D01*
X118666Y357750D01*
Y357950D01*
X118116Y358500D01*
X117016D01*
X116466Y357950D01*
Y357750D01*
X115916Y357200D01*
X114816D01*
X114266Y357750D01*
Y357950D01*
X113716Y358500D01*
X110500D01*
X106500Y362500D01*
Y371879D01*
X102879Y375500D01*
X94121D01*
X91499Y372878D01*
Y368480D01*
X92980Y367000D01*
X96380D01*
X97752Y368372D01*
G54D12*
X59460Y134498D03*
X55523D03*
X59460Y138435D03*
X55523D03*
X218000Y106000D03*
Y109500D03*
X221017Y105565D03*
Y109502D03*
G54D21*
X382107Y330880D03*
G54D31*
G01X341534Y198500D02*
X345080Y202046D01*
Y205349D01*
X346231Y206500D01*
X362950D01*
X365268Y208818D01*
Y213726D01*
X370042Y218500D01*
X372496D01*
X374374Y220378D01*
G01X342878D02*
X341143Y222113D01*
X334285D01*
X330815Y218643D01*
X321000D01*
G01Y210229D02*
X321699Y209530D01*
X322470D01*
X325168Y206832D01*
X332832D01*
X334567Y208567D01*
X335004D01*
G01X321000Y224576D02*
X322474Y226050D01*
X327849D01*
X329332Y224567D01*
Y223596D01*
X330348Y222580D01*
X331786D01*
X333000Y223794D01*
Y226248D01*
X335004Y228252D01*
G01X321000Y222012D02*
X325496D01*
X327130Y220378D01*
G01X340049Y105660D02*
X338800Y104411D01*
Y99250D01*
G01X315500Y133000D02*
X319195Y129305D01*
X353285D01*
X354500Y130520D01*
Y135841D01*
X355804Y137145D01*
G01X374374Y228252D02*
X376109Y226517D01*
Y211785D01*
X375024Y210700D01*
X370116D01*
X368702Y209286D01*
Y204378D01*
X362824Y198500D01*
X354413D01*
G01X339979D02*
X341079Y199600D01*
X341100D01*
X343500Y202000D01*
Y209000D01*
X345000Y210500D01*
X363013D01*
X364298Y211785D01*
Y217798D01*
X368700Y222200D01*
X372259D01*
X374374Y224315D01*
G01X352150Y198500D02*
X352954Y199304D01*
Y201412D01*
X353970Y202428D01*
X362815D01*
X367000Y206613D01*
Y213004D01*
X370437Y216441D01*
G01X382248Y212504D02*
X383983Y210769D01*
Y203911D01*
X382500Y202428D01*
X381529D01*
X380046Y200945D01*
Y199974D01*
X378572Y198500D01*
G01X399831D02*
Y228745D01*
X401173Y230087D01*
X403768D01*
X405870Y232189D01*
G01X401933D02*
X400450D01*
X398715Y233924D01*
X388924D01*
X387920Y232920D01*
Y198500D01*
G01X395894D02*
Y230057D01*
X396864Y231027D01*
Y231057D01*
X397996Y232189D01*
G01X405870Y228252D02*
X404035Y226417D01*
Y223555D01*
X405110Y222480D01*
X406363D01*
X411601Y217242D01*
Y198500D01*
G01X370437Y200693D02*
X368244Y198500D01*
X368237D01*
G01X408000D02*
Y218248D01*
X405870Y220378D01*
G01X382248Y200693D02*
X381131Y199576D01*
Y198631D01*
X381000Y198500D01*
G01X383992D02*
X386185Y200693D01*
G01X344823Y198500D02*
Y198701D01*
X350752Y204630D01*
G01X325929Y143750D02*
Y138500D01*
X327284Y137145D01*
X327464D01*
G01X338941Y200693D02*
X337206Y198958D01*
X321042D01*
X321000Y199000D01*
G01Y208674D02*
X321458Y208216D01*
Y203911D01*
X322474Y202895D01*
X337206D01*
X339156Y204844D01*
G01X349638Y143750D02*
X348444Y142556D01*
X345289D01*
X344819Y142086D01*
Y138819D01*
X344000Y138000D01*
X342000D01*
X341584Y138416D01*
Y141916D01*
X340944Y142556D01*
X336556D01*
X335500Y141500D01*
Y136500D01*
X336500Y135500D01*
X339388D01*
X339418Y135530D01*
X347969D01*
X349504Y133995D01*
G01X332149Y143750D02*
Y136510D01*
X331250Y135610D01*
X318970D01*
X318500Y135140D01*
Y132850D01*
X318970Y132380D01*
X344819D01*
X346354Y130845D01*
G01X358500Y120381D02*
X358119Y120000D01*
X332359D01*
X330619Y118260D01*
G01X358500Y113495D02*
X358500Y113496D01*
X337554D01*
X334405Y116645D01*
X333133D01*
X331593Y115105D01*
X330614D01*
G01X358500Y107190D02*
X340690D01*
X340605Y107275D01*
X333133D01*
X332149Y108259D01*
Y110431D01*
X330619Y111960D01*
G01X325929Y99250D02*
Y115740D01*
X327469Y117280D01*
Y118260D01*
G01X358500Y111500D02*
X357345Y110345D01*
X337555D01*
X334405Y113496D01*
X329084D01*
X327470Y115110D01*
G01X358500Y123900D02*
X356700Y122100D01*
X324100D01*
X322706Y120706D01*
Y116723D01*
X324320Y115109D01*
G01X386185Y247937D02*
X388000Y249752D01*
Y257000D01*
X388546Y257546D01*
X399361D01*
X399831Y258016D01*
Y260241D01*
X401290Y261700D01*
X411000D01*
X412000Y262700D01*
Y265500D01*
G01X396300Y288500D02*
X394707D01*
G01X392924D02*
X392224Y287800D01*
Y261583D01*
X394059Y259748D01*
G01X384598Y246250D02*
X384970Y245878D01*
X392000D01*
X394059Y247937D01*
G01Y263685D02*
X395894Y265520D01*
X398489D01*
X399831Y266862D01*
Y288331D01*
X401000Y289500D01*
G01X394059Y251874D02*
X395894Y250039D01*
X410839D01*
X412000Y251200D01*
G01X397996Y251874D02*
X400098Y253976D01*
X402693D01*
X403768Y255051D01*
Y256368D01*
X405046Y257646D01*
X412000D01*
G01X388287Y289500D02*
Y261583D01*
X390122Y259748D01*
G01X370437Y247937D02*
X368030Y245530D01*
Y239470D01*
X368500Y239000D01*
X369046D01*
X369718Y238328D01*
X398269D01*
X399746Y236851D01*
Y234265D01*
X400011Y234000D01*
X407000D01*
X408000Y233000D01*
Y223668D01*
X409628Y222040D01*
X410917D01*
X412000Y220957D01*
G01X350752Y267622D02*
X352700Y269570D01*
Y289200D01*
X353000Y289500D01*
G01X321000Y211785D02*
X322285Y210500D01*
X333000D01*
X335004Y212504D01*
G01X321000Y215444D02*
X322205Y214239D01*
X337261D01*
X338941Y212559D01*
Y212504D01*
G01X412000Y218297D02*
X405982Y224315D01*
X405870D01*
G01X412000Y227794D02*
X411542Y228252D01*
X409807D01*
G01X412000Y282405D02*
X410900Y281305D01*
G54D22*
X284000Y255000D03*
G54D13*
X127700Y165300D03*
X121500Y168000D03*
X118000Y164000D03*
X92000D03*
X229000Y61500D03*
X224500D03*
X229250Y69200D03*
Y64200D03*
X237750Y62417D03*
Y67417D03*
Y72417D03*
X214750Y64868D03*
Y69868D03*
X206250Y70504D03*
Y65504D03*
X148004Y37000D03*
X143004D03*
X143167Y28500D03*
X148167D03*
X139500D03*
X226000Y52500D03*
X229000Y46500D03*
X241000Y43500D03*
X238500Y47000D03*
X190750Y28500D03*
X195723Y29021D03*
X200500Y30000D03*
X205000Y33000D03*
X208539Y36389D03*
X212000Y40500D03*
X214000Y45000D03*
X215000Y50000D03*
X214750Y54868D03*
Y59868D03*
X206250Y60504D03*
Y55504D03*
X205500Y51000D03*
X204500Y46000D03*
X201500Y42000D03*
X198000Y39000D03*
X193001Y37164D03*
X188004Y37000D03*
X183004D03*
X178004D03*
X173004D03*
X168004D03*
X163004D03*
X158004D03*
X153004D03*
X153167Y28500D03*
X158167D03*
X163167D03*
X168167D03*
X173167D03*
X178167D03*
X183167D03*
X229250Y59200D03*
Y54200D03*
Y49200D03*
X223500Y47000D03*
X238000Y43500D03*
X239000Y50000D03*
X237750Y52417D03*
Y57417D03*
X253633Y164833D03*
X236157Y154007D03*
X229250Y79200D03*
Y74200D03*
X237750Y77417D03*
X214750Y74868D03*
Y79868D03*
X206250Y80504D03*
Y75504D03*
X266383Y87250D03*
X261383D03*
X256383D03*
X251383D03*
X246500Y87000D03*
X241500Y86000D03*
X238258Y82391D03*
X229891Y84159D03*
X232018Y88684D03*
X235500Y92500D03*
X240000Y95000D03*
X244706Y95738D03*
X249706Y95750D03*
X254706D03*
X259706D03*
X264706D03*
X206250Y85504D03*
Y90504D03*
Y95504D03*
Y100504D03*
Y105504D03*
X205500Y113000D03*
X206500Y116500D03*
X207500Y121000D03*
X209000Y125500D03*
X211500Y129500D03*
X214500Y134000D03*
X218588Y136970D03*
X222500Y140500D03*
X227500Y143000D03*
X231500Y144500D03*
X236352Y145644D03*
X241000Y146500D03*
X246500D03*
X251320Y146250D03*
X249050Y137750D03*
X244050D03*
X239058Y137474D03*
X234500Y136000D03*
X230000Y134000D03*
X227000Y132500D03*
X223000Y129000D03*
X219000Y124000D03*
X217000Y120000D03*
X215260Y114842D03*
X215000Y109500D03*
Y105000D03*
X214750Y99868D03*
Y94868D03*
Y89868D03*
Y84868D03*
X140700Y172300D03*
X249300Y137750D03*
X256000Y137000D03*
X262500D03*
X202509Y114375D03*
X198974Y110839D03*
X195438Y107304D03*
X184832Y96697D03*
X196271Y115405D03*
X199806Y118941D03*
X203342Y122477D03*
X155000Y101500D03*
X212900Y198400D03*
X249200Y175580D03*
X204525Y204825D03*
X200525Y204925D03*
X263195Y202500D03*
X158400Y146900D03*
X143500Y165800D03*
X152500Y167000D03*
X265500Y178000D03*
X210160Y200060D03*
X236850Y311150D03*
X240500Y276000D03*
X240750Y311150D03*
X244000Y274000D03*
X189750Y211300D03*
X188110Y215160D03*
X201062Y216951D03*
X204339D03*
X265500Y242500D03*
X266000Y239500D03*
X256000Y375000D03*
X218000Y348000D03*
X205500Y385500D03*
X272810Y88900D03*
X270870Y87220D03*
X273440Y93050D03*
X269686Y96197D03*
X273222Y99732D03*
X278955Y93444D03*
X275419Y89909D03*
X268500Y139000D03*
Y143000D03*
Y150000D03*
X267000Y154331D03*
X308000Y116500D03*
X304500D03*
X363000Y150920D03*
X359500D03*
X356000D03*
X286417Y138022D03*
X353000Y150500D03*
X345000Y148300D03*
X385000Y145000D03*
X324000Y149000D03*
X319830Y149450D03*
X328710Y146880D03*
X337700Y147000D03*
X384100Y106800D03*
X316514Y111955D03*
X363500Y119500D03*
X282000Y161000D03*
X308800Y126600D03*
X340049Y105660D03*
X395000Y139000D03*
X392500Y136500D03*
X386900D03*
X379650Y102950D03*
X383000Y89490D03*
X386500Y113166D03*
X355804Y137145D03*
X288640Y200270D03*
X361500Y166500D03*
X359500Y168000D03*
X316000Y161500D03*
X319500D03*
X333500D03*
X366500Y94500D03*
X355500Y158800D03*
X373690Y120950D03*
X375500Y112000D03*
Y109500D03*
X374066Y131165D03*
X338500Y160500D03*
X323000Y161500D03*
X326500D03*
X368000Y138500D03*
X367260Y131130D03*
X375250Y115000D03*
X330000Y161500D03*
X367310Y141000D03*
X368000Y135000D03*
X348500Y161500D03*
X352000D03*
X270000Y174000D03*
X284380Y182320D03*
X284500Y175500D03*
X287500D03*
X301515Y197215D03*
X284820Y191600D03*
X301460Y185000D03*
X294000Y175500D03*
X301500Y208100D03*
X284500Y208500D03*
X301500Y175500D03*
X387980Y97720D03*
X293355Y193355D03*
X310236Y186924D03*
X316500Y202000D03*
X293500Y180000D03*
X293450Y186550D03*
X311370Y207220D03*
X310110Y180100D03*
X272500Y201550D03*
X266500Y205000D03*
X272000Y198500D03*
X316000Y152500D03*
X343086Y152736D03*
X327464Y137145D03*
X323000Y152740D03*
X319500Y152500D03*
X330000Y152730D03*
X326500Y152690D03*
X333500Y152700D03*
X358810Y135520D03*
X358740Y141000D03*
X350500Y152500D03*
X349504Y133995D03*
X358500Y138500D03*
X347210Y152580D03*
X346354Y130845D03*
X358500Y131000D03*
X366500Y120500D03*
X330619Y118260D03*
X366730Y115710D03*
X330614Y115105D03*
X370280Y105620D03*
X330619Y111960D03*
X371230Y131230D03*
X355500Y91000D03*
X327469Y118260D03*
X366770Y110890D03*
X327470Y115110D03*
X357500Y153500D03*
X324320Y115109D03*
X399630Y133230D03*
X401500Y140130D03*
X369620Y311750D03*
X336000Y307000D03*
X316780Y309210D03*
X395330Y340910D03*
X395775Y326065D03*
X394920Y319080D03*
X395900Y323760D03*
X396000Y334440D03*
X294045Y219453D03*
X292000Y220500D03*
X289500Y224000D03*
X289000Y227500D03*
X398000Y294500D03*
X394150Y294990D03*
X322200Y372500D03*
X321500Y364000D03*
X393660Y345000D03*
X493850Y64825D03*
Y69825D03*
X485150Y72312D03*
Y67312D03*
Y62312D03*
X524213Y74153D03*
X527748Y70617D03*
X531380Y67181D03*
X535275Y64046D03*
X533481Y72207D03*
X462150Y70810D03*
Y65810D03*
X471500Y48000D03*
X531833Y36100D03*
X526833D03*
X521833D03*
X516833D03*
X511833D03*
X506836Y36290D03*
X502091Y37865D03*
X498100Y40878D03*
X495285Y45009D03*
X493941Y49826D03*
X493850Y54825D03*
Y59825D03*
X485150Y57312D03*
Y52312D03*
X485514Y47326D03*
X486886Y42518D03*
X489221Y38096D03*
X492418Y34252D03*
X496340Y31150D03*
X500817Y28924D03*
X505657Y27669D03*
X510650Y27400D03*
X515650D03*
X520650D03*
X525650D03*
X530650D03*
X535650D03*
X462150Y60810D03*
Y55810D03*
Y50810D03*
Y45810D03*
X470850Y51417D03*
Y56417D03*
Y61417D03*
Y66417D03*
Y71417D03*
X411360Y133200D03*
X437000Y86810D03*
X435310Y91230D03*
X437820Y94060D03*
X500885Y104749D03*
X503000Y95366D03*
X508706Y96929D03*
X505170Y100464D03*
X493850Y74825D03*
Y79825D03*
X485150Y77312D03*
X506535Y91830D03*
X510071Y88295D03*
X513606Y84759D03*
X517142Y81224D03*
X520677Y77688D03*
X529919Y75715D03*
X526384Y79251D03*
X522848Y82787D03*
X519312Y86322D03*
X515777Y89858D03*
X512241Y93393D03*
X470850Y80983D03*
X467229Y132126D03*
X480378Y125169D03*
X483957Y121677D03*
X494564Y111071D03*
X499464Y98901D03*
X495929Y102437D03*
X492393Y105972D03*
X488857Y109508D03*
X485322Y113044D03*
X481786Y116579D03*
X478251Y120115D03*
X474410Y123316D03*
X465289Y127307D03*
X460331Y127955D03*
X415500Y115000D03*
X410500D03*
X406500Y117500D03*
Y123000D03*
X459629Y85128D03*
X454656Y85650D03*
X449656D03*
X444656D03*
X439656D03*
X434683Y86169D03*
X435850Y98674D03*
X443361Y94350D03*
X448361D03*
X453361D03*
X458361Y94321D03*
X463200Y93066D03*
X467240Y90120D03*
X469915Y85895D03*
X416849Y133264D03*
X421799Y132556D03*
X425632Y129346D03*
X427068Y124557D03*
X485150Y82312D03*
Y87312D03*
X483000Y92500D03*
X482617Y96686D03*
X478012Y98633D03*
X473012Y98650D03*
X468012D03*
X463012D03*
X458012D03*
X453012D03*
X448012D03*
X443012D03*
X438012D03*
X433015Y98831D03*
X428227Y100271D03*
X424058Y103031D03*
X420863Y106878D03*
X418916Y111483D03*
X418368Y116453D03*
Y121453D03*
X427068Y118942D03*
X427270Y113946D03*
X429756Y109608D03*
X434262Y107441D03*
X439261Y107350D03*
X446000Y111000D03*
X449261Y107350D03*
X454261D03*
X459261D03*
X461500Y110000D03*
X476000Y110500D03*
X474261Y107350D03*
X479260Y107255D03*
X484091Y105963D03*
X488304Y103271D03*
X491508Y99432D03*
X493401Y94805D03*
X493850Y89825D03*
Y84825D03*
X428500Y121500D03*
X428000Y128000D03*
X425500Y134500D03*
X419000Y135500D03*
X435997Y172333D03*
X445992Y172570D03*
X495992D03*
X500992D03*
X505992D03*
X510992D03*
X515992D03*
X520986Y172798D03*
X525940Y173476D03*
X530813Y174596D03*
X535565Y176151D03*
X536719Y171096D03*
X531955Y169579D03*
X527082Y168459D03*
X522133Y167745D03*
X517142Y167442D03*
X512142Y167430D03*
X507142D03*
X502142D03*
X497142D03*
X445000Y166000D03*
X442142Y167430D03*
X461256Y133063D03*
X470995Y130936D03*
X475489Y128743D03*
X479000Y127000D03*
X486743Y118891D03*
X491500Y119500D03*
X497350Y108285D03*
X499455Y98910D03*
X495920Y102446D03*
X492384Y105981D03*
X488849Y109517D03*
X485313Y113052D03*
X478242Y120123D03*
X474411Y123336D03*
X470000Y125500D03*
X460331Y127959D03*
X454500Y152500D03*
X439000Y192000D03*
X426000Y191500D03*
Y194500D03*
X439000Y207000D03*
X479047Y189253D03*
X462150Y80810D03*
Y75810D03*
X464000Y172600D03*
X492584Y178016D03*
X452500Y162500D03*
X451000Y160000D03*
Y164500D03*
X476000Y159000D03*
X474500Y157000D03*
X474000Y161000D03*
X492653Y181953D03*
X485000Y189200D03*
X464085Y175795D03*
X481330Y190590D03*
X451600Y174000D03*
X404690Y138810D03*
X493910Y199940D03*
X492370Y186870D03*
X491660Y300880D03*
X491740Y295630D03*
X522120Y326890D03*
X517590Y326510D03*
X513320Y323050D03*
X508150Y317340D03*
X503140Y312870D03*
X498030Y307430D03*
X497710Y301940D03*
X497490Y296290D03*
Y290960D03*
X497550Y285900D03*
X497390Y278170D03*
X489180Y277210D03*
X477130Y277000D03*
X470370Y277260D03*
X463440Y276890D03*
X484600Y282860D03*
X477240Y282910D03*
X470630Y282810D03*
X463650Y282750D03*
X491220Y283250D03*
X491110Y288370D03*
X491430Y305320D03*
X492740Y310940D03*
X496120Y314560D03*
X500920Y319040D03*
X505500Y323520D03*
X508910Y327360D03*
X512220Y330310D03*
X520960Y332500D03*
X528960Y332470D03*
X534790Y332230D03*
X488500Y255000D03*
X483500Y251500D03*
X476500Y243500D03*
X482500Y245000D03*
X530858Y281875D03*
X525864Y282133D03*
X526550Y287086D03*
X531550Y287125D03*
X536550D03*
X492796Y257603D03*
X497796Y257557D03*
X502796D03*
X507796D03*
X512796D03*
X517796D03*
X522796D03*
X527796D03*
X532796D03*
X533758Y252417D03*
X528758D03*
X523758D03*
X518758D03*
X513758D03*
X508758D03*
X503758D03*
X452000Y211500D03*
Y214000D03*
Y216500D03*
X439000Y209500D03*
Y212000D03*
Y214500D03*
X410000Y299300D03*
X449000Y272500D03*
X532000Y324000D03*
Y320000D03*
Y316500D03*
X535000Y324000D03*
X534500Y320000D03*
X536000Y316500D03*
X494500Y280000D03*
X421500Y295500D03*
X413500Y299000D03*
X453000Y282500D03*
X450000Y282000D03*
X456000Y286500D03*
X459500Y287000D03*
X481230Y389400D03*
X556833Y36100D03*
X551833D03*
X550650Y27400D03*
X555650D03*
X560650D03*
X561000Y36500D03*
X539411Y61236D03*
X543760Y58770D03*
X548295Y56664D03*
X552986Y54932D03*
X557801Y53586D03*
X562710Y52633D03*
X567679Y52081D03*
X572677Y51930D03*
X577677D03*
X582677D03*
X587677D03*
X592677D03*
X597677D03*
X602677D03*
X642668Y39300D03*
X640350Y29853D03*
X643954Y33319D03*
X607677Y51930D03*
X612677D03*
X617677D03*
X622677D03*
X627677D03*
X632677D03*
X637677D03*
X642677D03*
X647677D03*
X652677D03*
X649644Y57070D03*
X644644D03*
X639644D03*
X634644D03*
X629644D03*
X624644D03*
X619644D03*
X614644D03*
X609644D03*
X671000Y58000D03*
X666000Y59000D03*
X667250Y49000D03*
Y44000D03*
X661000Y59000D03*
Y49500D03*
X604644Y57070D03*
X599644D03*
X594644D03*
X589644D03*
X584644D03*
X579644D03*
X574644D03*
X569644Y57119D03*
X564663Y57548D03*
X559738Y58415D03*
X554910Y59713D03*
X550215Y61432D03*
X545690Y63560D03*
X541370Y66078D03*
X537290Y68968D03*
X546833Y36100D03*
X541833D03*
X536833D03*
X540650Y27400D03*
X545650D03*
X545500Y174500D03*
X559830Y186010D03*
X546900Y183310D03*
X540158Y178127D03*
X544190Y180570D03*
X563124Y203041D03*
X563866Y207986D03*
X568855Y206063D03*
X564094Y191946D03*
X562210Y188800D03*
X541342Y173001D03*
X621800Y119800D03*
X625300D03*
X618300D03*
X621800Y112800D03*
X625300D03*
X618300D03*
Y116300D03*
X625300D03*
X617950Y131892D03*
X621950D03*
Y127892D03*
X617950D03*
X613950D03*
X614000Y131500D03*
X611144Y115020D03*
X597165Y121667D03*
X585165D03*
X597165Y117667D03*
Y113667D03*
X593165D03*
Y117667D03*
X589165Y113667D03*
Y117667D03*
X585165Y113667D03*
Y117667D03*
X589165Y121667D03*
X593165D03*
X621800Y116300D03*
X660398Y106843D03*
Y102843D03*
X656398D03*
Y106843D03*
Y110843D03*
X652398Y102843D03*
Y106843D03*
Y110843D03*
X648398Y102843D03*
Y106843D03*
X660398Y110843D03*
X622559Y101092D03*
X610582Y117580D03*
X603080Y105023D03*
X545840Y330990D03*
X539620Y332230D03*
X558990Y340924D03*
X555630Y337222D03*
X554625Y332324D03*
X555050Y327880D03*
X549773Y325610D03*
X549375Y330595D03*
X549606Y335589D03*
X554515Y344132D03*
X612986Y344160D03*
X616385Y340493D03*
X618496Y335960D03*
X619125Y331000D03*
Y326000D03*
Y321000D03*
X613875Y322445D03*
Y327445D03*
X613834Y332445D03*
X612266Y337192D03*
X608740Y340737D03*
X604000Y342329D03*
X599000Y342375D03*
X594000D03*
X589000D03*
X584000D03*
X579000D03*
X574000D03*
X569000D03*
X564000D03*
X590166Y289410D03*
X587418Y285233D03*
X584828Y290516D03*
X585982Y310266D03*
X584068Y314885D03*
X580822Y318687D03*
X577286Y322223D03*
X573750Y325758D03*
X570215Y329294D03*
X566679Y332829D03*
X563144Y336365D03*
X572713Y334220D03*
X576249Y330685D03*
X579784Y327149D03*
X583320Y323614D03*
X586803Y320026D03*
X589535Y315839D03*
X591171Y311114D03*
X591625Y306135D03*
Y296135D03*
X563930Y212986D03*
Y217986D03*
Y222986D03*
Y227986D03*
Y232986D03*
Y237986D03*
Y242986D03*
Y247986D03*
Y252986D03*
Y257986D03*
X546720Y281480D03*
X569070Y256059D03*
Y251059D03*
Y246059D03*
Y241059D03*
Y236059D03*
Y231059D03*
Y226059D03*
Y221059D03*
Y216059D03*
Y211059D03*
X537796Y257557D03*
X542796D03*
X547796D03*
X552790Y257811D03*
X557430Y265903D03*
Y270903D03*
X557330Y280980D03*
X562570Y268706D03*
X562567Y263706D03*
X561368Y258852D03*
X558233Y254957D03*
X553747Y252748D03*
X548758Y252417D03*
X543758D03*
X538758D03*
X582200Y284217D03*
X566000Y309010D03*
X582200Y289335D03*
X581544Y295604D03*
X540000Y321000D03*
Y316500D03*
Y323500D03*
X543000Y316500D03*
Y320500D03*
X558819Y346676D03*
X563729Y347622D03*
X568729Y347625D03*
X573729D03*
X578729D03*
X583729D03*
X588729D03*
X593729D03*
X598729D03*
X603729Y347609D03*
X608628Y346611D03*
X676000Y44500D03*
X675750Y49000D03*
X676000Y54000D03*
G54D32*
G01X13400Y-186400D02*
X641300D01*
Y-166400D01*
G01X13400Y-126400D02*
X716000D01*
G01X13400Y-146400D02*
X716000D01*
G01X13400Y-166400D02*
X716000D01*
G01X641300Y-186400D02*
X716000D01*
Y-107200D01*
X13400D01*
Y-186400D01*
G01X641300Y-107200D02*
Y-126400D01*
G01Y-146400D02*
Y-126400D01*
G01Y-146400D02*
Y-166400D01*
G54D23*
X452339Y123535D03*
X438324D03*
Y137550D03*
X452339D03*
G54D14*
X40551Y298799D03*
Y346201D03*
G54D33*
G01X369000Y259500D02*
X369248Y259748D01*
X370437D01*
G54D24*
X540404Y114968D03*
G54D15*
X66968Y322500D03*
G54D34*
G01X47702Y314061D02*
X51220Y317579D01*
G01X47702Y321097D02*
X51220Y317579D01*
G01X66968Y322500D02*
X70180Y325712D01*
G01X66968Y322500D02*
X70180Y319288D01*
G01X35112Y340762D02*
X40551Y346201D01*
G01D02*
X45990Y340762D01*
G01X35112Y293360D02*
X40551Y298799D01*
G01D02*
X45990Y304238D01*
G01X35112D02*
X40551Y298799D01*
G01D02*
X45990Y293360D01*
G01X40551Y346201D02*
X45990Y351640D01*
G01X35112D02*
X40551Y346201D01*
G01X243625Y149675D02*
X234825D01*
X222100Y162400D01*
Y176100D01*
X226000Y180000D01*
Y192030D01*
X209030Y209000D01*
X202000D01*
X197000Y214000D01*
Y241500D01*
X201500Y246000D01*
Y253500D01*
X205700Y257700D01*
X218620D01*
X222830Y253490D01*
Y247240D01*
X225530Y244540D01*
X235180D01*
X241121Y250481D01*
X250519D01*
X264050Y236950D01*
X268450D01*
X271000Y239500D01*
X279657D01*
X282500Y236657D01*
X285232D01*
X289003Y240428D01*
Y248232D01*
X290771Y250000D01*
X303500D01*
X311500Y258000D01*
Y267500D01*
G01X397130Y42752D02*
X399646Y45268D01*
G01D02*
X402162Y47784D01*
G01X397130D02*
X399646Y45268D01*
G01D02*
X402162Y42752D01*
G01X382169D02*
X384685Y45268D01*
G01D02*
X387201Y47784D01*
G01X382169D02*
X384685Y45268D01*
G01D02*
X387201Y42752D01*
G01X369724Y45268D02*
X372240Y47784D01*
G01X369724Y45268D02*
X372240Y42752D01*
G01X388890Y18693D02*
X392165D01*
G01D02*
X395441D01*
G01X373930D02*
X377205D01*
G01D02*
X380480D01*
G01X358969D02*
X362244D01*
G01D02*
X365519D01*
G01X347284D02*
X349799Y21209D01*
G01X344768D02*
X347284Y18693D01*
G01X332323D02*
X334839Y21209D01*
G01X329807D02*
X332323Y18693D01*
G01X317362D02*
X319878Y21209D01*
G01X314846D02*
X317362Y18693D01*
G01X309882D02*
X312398Y21209D01*
G01X307366D02*
X309882Y18693D01*
G01X329807Y21492D02*
X332323Y24008D01*
G01D02*
X334839Y26524D01*
G01X329807D02*
X332323Y24008D01*
G01D02*
X334839Y21492D01*
G01X322327D02*
X324842Y24008D01*
G01D02*
X327358Y26524D01*
G01X322327D02*
X324842Y24008D01*
G01D02*
X327358Y21492D01*
G01X307366D02*
X309882Y24008D01*
G01D02*
X312398Y26524D01*
G01X307366D02*
X309882Y24008D01*
G01D02*
X312398Y21492D01*
G01X337287Y26807D02*
X339803Y29323D01*
G01X337287Y31839D02*
X339803Y29323D01*
G01D02*
X342319Y26807D01*
G01X322327D02*
X324842Y29323D01*
G01X322327Y31839D02*
X324842Y29323D01*
G01D02*
X327358Y26807D01*
G01X307366D02*
X309882Y29323D01*
G01D02*
X312398Y31839D01*
G01X307366D02*
X309882Y29323D01*
G01D02*
X312398Y26807D01*
G01X314846Y32122D02*
X317362Y34638D01*
G01X314846Y37154D02*
X317362Y34638D01*
G01D02*
X319878Y32122D01*
G01X337287Y42752D02*
X339803Y45268D01*
G01X337287Y47784D02*
X339803Y45268D01*
G01X307366Y42752D02*
X309882Y45268D01*
G01D02*
X312398Y47784D01*
G01X307366D02*
X309882Y45268D01*
G01D02*
X312398Y42752D01*
G01X280510Y251510D02*
X284000Y255000D01*
G01D02*
X287490Y258490D01*
G01X284000Y255000D02*
X287490Y251510D01*
G01X382107Y330880D02*
X386357D01*
G01X382107D02*
X386272Y332670D01*
G01X422087Y45268D02*
X424602Y47784D01*
G01X419571D02*
X422087Y45268D01*
G01D02*
X424602Y42752D01*
G01X412090D02*
X414606Y45268D01*
G01X412090Y47784D02*
X414606Y45268D01*
G01X422087Y34638D02*
X424602Y37154D01*
G01X422087Y34638D02*
X424602Y32122D01*
G01X407126Y18693D02*
X409642Y21209D01*
G01X407126Y18693D02*
X410401D01*
G01X422087D02*
X424602Y21209D01*
G01X422087Y18693D02*
X425362D01*
G01X449063Y134274D02*
X452339Y137550D01*
G01D02*
X455615Y134274D01*
G01X435048D02*
X438324Y137550D01*
G01D02*
X441600Y134274D01*
G01X435048Y120258D02*
X438324Y123535D01*
G01D02*
X441600Y126811D01*
G01X435048D02*
X438324Y123535D01*
G01D02*
X441600Y120258D01*
G01X449063D02*
X452339Y123535D01*
G01D02*
X455615Y126811D01*
G01X449063D02*
X452339Y123535D01*
G01D02*
X455615Y120258D01*
G01X482571Y266371D02*
X486200Y270000D01*
G01D02*
X489829Y273629D01*
G01X482571D02*
X486200Y270000D01*
G01D02*
X489829Y266371D01*
G01X482571Y291971D02*
X486200Y295600D01*
G01D02*
X489829Y299229D01*
G01X482571D02*
X486200Y295600D01*
G01D02*
X489829Y291971D01*
G54D16*
X51220Y317579D03*
G54D25*
X486200Y295600D03*
Y270000D03*
G54D26*
X462374Y337976D03*
X471823Y334827D03*
X468673Y341126D03*
Y344276D03*
X440327Y341126D03*
X443476D03*
X449776D03*
X440327Y337976D03*
X449776Y344276D03*
X468673Y334827D03*
X465524D03*
X446626Y337976D03*
X449776D03*
X443476Y344276D03*
X446626Y363173D03*
X462374D03*
X465524D03*
X462374Y366323D03*
X440327Y363173D03*
X459224D03*
X437177Y366323D03*
X468673D03*
X465524D03*
X449776Y360024D03*
G54D17*
X120000Y300000D03*
G54D27*
G01X468673Y366323D02*
X467823Y367173D01*
Y368800D01*
G01X465524Y366323D02*
X466373Y367173D01*
Y368720D01*
G01X433390Y387090D02*
X424360D01*
X418980Y392470D01*
X415260D01*
X412800Y390010D01*
Y361090D01*
X407520Y355810D01*
X378630D01*
X376590Y357850D01*
X360160D01*
X349970Y347660D01*
X322280D01*
X318300Y343680D01*
X314810D01*
X311680Y346810D01*
X301550D01*
X296680Y341940D01*
Y300820D01*
X266590Y270730D01*
X244520D01*
X243210Y272040D01*
X228160D01*
X224320Y275880D01*
X208190D01*
X201150Y268840D01*
Y266640D01*
X199420Y264910D01*
X194730D01*
X193420Y263600D01*
Y247610D01*
X191730Y245920D01*
Y208740D01*
X189990Y207000D01*
Y201950D01*
X193540Y198400D01*
X212900D01*
G01X249200Y175580D02*
X254870D01*
X256570Y177280D01*
Y210574D01*
X264896Y218900D01*
X285063D01*
X288562Y215401D01*
X309605D01*
X318050Y206956D01*
Y198839D01*
X320089Y196800D01*
X339834D01*
X341534Y198500D01*
G01X301515Y197215D02*
X303050Y198750D01*
Y208742D01*
X301792Y210000D01*
X285143D01*
X285093Y210050D01*
X279127D01*
X274904Y205826D01*
X271434D01*
X269610Y207650D01*
X263042D01*
X259445Y204054D01*
Y168755D01*
X265900Y162300D01*
Y157740D01*
X275900Y147740D01*
Y133317D01*
X279900Y129317D01*
Y110000D01*
X287000Y102900D01*
Y78949D01*
X288541Y77408D01*
Y77321D01*
X315962Y49900D01*
X323498D01*
X328500Y44898D01*
Y33146D01*
X332323Y29323D01*
G01X284500Y208500D02*
Y206950D01*
X280650Y203100D01*
X272330D01*
X268880Y206550D01*
X263497D01*
X260545Y203598D01*
Y169955D01*
X267100Y163400D01*
Y158213D01*
X277000Y148313D01*
Y134500D01*
X281500Y130000D01*
Y110500D01*
X288500Y103500D01*
Y79004D01*
X289641Y77864D01*
Y77776D01*
X316417Y51000D01*
X326590D01*
X332323Y45268D01*
G01X298500Y197600D02*
X300570Y195530D01*
X302560D01*
X304150Y197120D01*
Y209198D01*
X302248Y211100D01*
X286434D01*
X286384Y211150D01*
X278671D01*
X274448Y206926D01*
X272014D01*
X270190Y208750D01*
X262586D01*
X258345Y204509D01*
Y167665D01*
X262000Y164010D01*
Y156500D01*
X266400Y152100D01*
X269040D01*
X274800Y146340D01*
Y132817D01*
X278000Y129617D01*
Y109500D01*
X285500Y102000D01*
Y78570D01*
X315270Y48800D01*
X317118D01*
X321500Y44418D01*
Y37980D01*
X324842Y34638D01*
G01X347284Y29323D02*
X343950D01*
X342950Y30323D01*
Y45409D01*
X336259Y52100D01*
X316873D01*
X290740Y78232D01*
Y78320D01*
X290030Y79030D01*
Y104470D01*
X283000Y111500D01*
Y144720D01*
X270900Y156820D01*
Y161600D01*
X261645Y170855D01*
Y203142D01*
X263503Y205000D01*
X266500D01*
G01X321000Y218643D02*
X318731Y220912D01*
X315408D01*
X300320Y236000D01*
X294257D01*
X285157Y226900D01*
X275044D01*
X272044Y229900D01*
X261544D01*
X253544Y237900D01*
X245184D01*
X238800Y231516D01*
Y173500D01*
X243860Y168440D01*
X247270D01*
X259132Y156578D01*
Y154062D01*
X264050Y149144D01*
Y135050D01*
X262600Y133600D01*
X247420D01*
X234060Y120240D01*
X223740D01*
X221000Y117500D01*
X208000D01*
X206000Y119500D01*
X204000D01*
X203000Y118500D01*
G01X200523Y99023D02*
X201831Y97715D01*
X216192D01*
X219477Y101000D01*
X227000D01*
X230451Y104451D01*
Y115031D01*
X247920Y132500D01*
X263056D01*
X265150Y134594D01*
Y150350D01*
X260600Y154900D01*
Y163300D01*
X254310Y169590D01*
X244410D01*
X239900Y174100D01*
Y231061D01*
X242342Y233503D01*
X256386D01*
X261089Y228800D01*
X271589D01*
X274589Y225800D01*
X284560D01*
X287910Y222450D01*
X290258D01*
X291408Y223600D01*
X307629D01*
X321000Y210229D01*
G01X203000Y103500D02*
X194000Y112500D01*
Y121500D01*
X199920Y127420D01*
X212580D01*
X218000Y122000D01*
X222670D01*
X232620Y131950D01*
X240020D01*
X242770Y134700D01*
X257200D01*
X261500Y139000D01*
Y149587D01*
X257544Y153544D01*
Y156066D01*
X248150Y165460D01*
X244540D01*
X231000Y179000D01*
Y227500D01*
X244600Y241100D01*
X254011D01*
X261871Y233240D01*
X287184D01*
X292144Y238200D01*
X301356D01*
X315542Y224013D01*
X320437D01*
X321000Y224576D01*
G01X234000Y185500D02*
X237500Y189000D01*
Y232000D01*
X245500Y240000D01*
X253000D01*
X262000Y231000D01*
X272500D01*
X275500Y228000D01*
X284701D01*
X293801Y237100D01*
X300900D01*
X315988Y222012D01*
X321000D01*
G01X433390Y375770D02*
X430780Y373160D01*
X422940D01*
X419700Y369920D01*
X417590D01*
X414650Y366980D01*
Y360910D01*
X408120Y354380D01*
X378170D01*
X375820Y356730D01*
X360920D01*
X350490Y346300D01*
X322730D01*
X318830Y342400D01*
X313670D01*
X310990Y345080D01*
X302140D01*
X297920Y340860D01*
Y300230D01*
X266290Y268600D01*
X244480D01*
X242720Y270360D01*
X227540D01*
X224380Y273520D01*
X207860D01*
X202650Y268310D01*
Y263250D01*
X195080Y255680D01*
Y246330D01*
X193310Y244560D01*
Y211290D01*
X195180Y209420D01*
Y201210D01*
X196330Y200060D01*
X210160D01*
G01X240500Y276000D02*
X240000Y276500D01*
Y304000D01*
X236850Y307150D01*
Y311150D01*
G01X244000Y274000D02*
X242500Y275500D01*
Y304500D01*
X240750Y306250D01*
Y311150D01*
G01X189750Y211300D02*
Y281770D01*
X196490Y288510D01*
X203080D01*
X214420Y299850D01*
X217220D01*
X233580Y316210D01*
X252250D01*
X255850Y319810D01*
X258190D01*
X277110Y338730D01*
X290000D01*
X300200Y348930D01*
X348940D01*
X362040Y362030D01*
X374570D01*
X379360Y357240D01*
X406720D01*
X411640Y362160D01*
Y391110D01*
X414870Y394340D01*
X469050D01*
X473990Y389400D01*
X481230D01*
G01X188110Y215160D02*
Y283600D01*
X195130Y290620D01*
X202730D01*
X213980Y301870D01*
X216690D01*
X232740Y317920D01*
X249080D01*
X252750Y321590D01*
X257440D01*
X276180Y340330D01*
X288830D01*
X299210Y350710D01*
X348400D01*
X361570Y363880D01*
X375640D01*
X380640Y358880D01*
X405330D01*
X409920Y363470D01*
Y392040D01*
X414020Y396140D01*
X470990D01*
X475660Y391470D01*
G01X366000Y49000D02*
Y41352D01*
X367399Y39953D01*
X369724D01*
G01X407126Y24008D02*
X404801Y21683D01*
X353801D01*
X351000Y24484D01*
Y32000D01*
X350439Y32561D01*
Y45400D01*
X340339Y55500D01*
X318282D01*
X294140Y79641D01*
Y111360D01*
X290267Y115233D01*
Y126777D01*
X293234Y129744D01*
Y141766D01*
X274300Y160700D01*
Y165256D01*
X270000Y169556D01*
Y174000D01*
G01X299000Y171500D02*
X304500Y166000D01*
Y124100D01*
X302900Y122500D01*
Y80630D01*
X320810Y62720D01*
X407780D01*
X417200Y53300D01*
Y47326D01*
X419000Y45526D01*
Y19000D01*
X416000Y16000D01*
X402339D01*
X399646Y18693D01*
G01X280500Y197500D02*
X285500D01*
X289500Y193500D01*
Y165150D01*
X293500Y161150D01*
Y154500D01*
X301900Y146100D01*
Y127713D01*
X300100Y125913D01*
Y79904D01*
X319914Y60090D01*
X357265D01*
X359919Y57436D01*
Y38990D01*
X361946Y36963D01*
X415569D01*
X416931Y35601D01*
Y21018D01*
X414606Y18693D01*
G01X299000Y208100D02*
X297300Y206400D01*
Y202313D01*
X296187Y201200D01*
X292420D01*
X291250Y202370D01*
X282683D01*
X275000Y194687D01*
Y170343D01*
X298100Y147243D01*
Y127713D01*
X298900Y126913D01*
Y79549D01*
X319499Y58950D01*
X345925D01*
X358089Y46786D01*
Y37963D01*
X354764Y34638D01*
G01X267500Y194500D02*
Y170500D01*
X273200Y164800D01*
Y159926D01*
X292134Y140992D01*
Y130200D01*
X289167Y127233D01*
Y113333D01*
X293000Y109500D01*
Y79313D01*
X293041Y79272D01*
Y79185D01*
X317826Y54400D01*
X338151D01*
X347284Y45268D01*
G01X407126Y29323D02*
X404136Y32313D01*
X353801D01*
X352439Y33675D01*
Y35601D01*
X354466Y37628D01*
X355727D01*
X357089Y38990D01*
Y46231D01*
X345619Y57700D01*
X319193D01*
X297446Y79447D01*
Y126811D01*
X295434Y128823D01*
Y142678D01*
X280400Y157711D01*
Y162787D01*
X273750Y169437D01*
Y200300D01*
X272500Y201550D01*
G01X414606Y34638D02*
X411000Y31032D01*
Y27500D01*
X410000Y26500D01*
X354298D01*
X352439Y28360D01*
Y32260D01*
X351439Y33260D01*
Y49173D01*
X344011Y56600D01*
X318737D01*
X296000Y79337D01*
Y126500D01*
X294334Y128166D01*
Y142222D01*
X275400Y161156D01*
Y165711D01*
X272600Y168511D01*
Y196350D01*
X272000Y196950D01*
Y198500D01*
G01X338800Y99250D02*
Y95800D01*
G01X326000Y167500D02*
X323308D01*
X317950Y162142D01*
Y160715D01*
X314000Y156765D01*
Y134500D01*
X315500Y133000D01*
G01X354413Y198500D02*
X352100Y196187D01*
Y193238D01*
X347099Y188237D01*
X346162Y187300D01*
X322437D01*
X316237Y193500D01*
X311237D01*
X310300Y194437D01*
X306340Y198397D01*
Y208964D01*
X303103Y212201D01*
X286889D01*
X285789Y213300D01*
X283132D01*
X282468Y213300D01*
X280646Y213300D01*
X278087Y213300D01*
X275225Y210438D01*
X274908D01*
X273600Y209130D01*
G01X270865Y222165D02*
X272200Y223500D01*
X283180D01*
X286180Y220500D01*
X289808D01*
X293807Y216501D01*
X310061D01*
X319150Y207412D01*
Y199294D01*
X320545Y197900D01*
X339378D01*
X339979Y198500D01*
G01X270800Y213740D02*
X272650D01*
X272790Y213600D01*
X274201D01*
X275501Y214900D01*
X279983D01*
X286452Y214900D01*
X287551Y213801D01*
X304699D01*
X307970Y210530D01*
Y199030D01*
X311900Y195100D01*
X316900D01*
X323100Y188900D01*
X345499D01*
X350500Y193901D01*
Y196850D01*
X352150Y198500D01*
G01X378572D02*
X378036Y197964D01*
X370964D01*
X370000Y197000D01*
Y191901D01*
X368549Y190450D01*
X367200D01*
X363600Y186850D01*
X354350D01*
X352450Y184950D01*
Y177000D01*
X351950Y176500D01*
X339500D01*
X338500Y175500D01*
Y174500D01*
X339500Y173500D01*
X348000D01*
X348500Y173000D01*
Y170263D01*
X343900Y165663D01*
Y159900D01*
X342000Y158000D01*
X337500D01*
X334500Y155000D01*
X333274D01*
X332774Y155500D01*
Y157000D01*
X332274Y157500D01*
X331274D01*
X330774Y157000D01*
Y155500D01*
X330274Y155000D01*
X329274D01*
X328774Y155500D01*
Y157000D01*
X328274Y157500D01*
X327274D01*
X326774Y157000D01*
Y155500D01*
X326274Y155000D01*
X325274D01*
X324774Y155500D01*
Y157500D01*
X324274Y158000D01*
X323274D01*
X322774Y157500D01*
Y155500D01*
X322274Y155000D01*
X318500D01*
X318000Y155500D01*
Y158000D01*
X319500Y159500D01*
X333000D01*
X333500Y160000D01*
Y161500D01*
G01X314000Y167500D02*
X311900Y169600D01*
Y176400D01*
X321000Y185500D01*
X346919D01*
X356319Y194900D01*
X360300D01*
X361212Y193988D01*
X361392D01*
X362700Y192680D01*
G01X357870Y192770D02*
X355744D01*
X349250Y186275D01*
Y185400D01*
X347850Y184000D01*
X321237D01*
X313000Y175763D01*
Y172608D01*
X315900Y169708D01*
Y165900D01*
X313500Y163500D01*
G01X366500Y94500D02*
X372450D01*
X373450Y95500D01*
Y115642D01*
X375790Y117982D01*
Y143290D01*
X392600Y160100D01*
Y171600D01*
X399831Y178831D01*
Y193132D01*
X399850Y193151D01*
Y194849D01*
X399831Y194868D01*
Y198500D01*
G01X387920D02*
Y195330D01*
X390750Y192500D01*
Y176750D01*
X386830Y172830D01*
X382749D01*
X382689Y172890D01*
X380991D01*
X380931Y172830D01*
X380280D01*
X370820Y163370D01*
Y160271D01*
X370500Y159951D01*
Y159500D01*
X367000Y156000D01*
X358300D01*
X355500Y158800D01*
G01X373690Y120950D02*
X372140D01*
X372012Y121078D01*
X368422D01*
X363000Y126500D01*
Y146000D01*
X365512Y148512D01*
X366219D01*
X368012Y146719D01*
X368719D01*
X369426Y147427D01*
Y148134D01*
X367634Y149926D01*
Y150634D01*
X368341Y151341D01*
X369048D01*
X370841Y149548D01*
X371548D01*
X372255Y150255D01*
Y150962D01*
X370462Y152755D01*
Y153462D01*
X371169Y154169D01*
X371876D01*
X373669Y152377D01*
X374376D01*
X375084Y153084D01*
Y153791D01*
X373291Y155584D01*
Y156291D01*
X374500Y157500D01*
X378500D01*
X379408Y158408D01*
Y159115D01*
X377115Y161408D01*
Y162322D01*
X377615Y162822D01*
X379029D01*
X381072Y160779D01*
X381779D01*
X388750Y167750D01*
Y171250D01*
X395000Y177500D01*
Y194099D01*
X395894Y194993D01*
Y198500D01*
G01X411601D02*
Y195700D01*
X410000Y194099D01*
Y190500D01*
X405500Y186000D01*
Y177162D01*
X400000Y171662D01*
Y162000D01*
X402400Y159600D01*
X406000D01*
G01X375500Y112000D02*
X379000D01*
X379500Y112500D01*
Y115364D01*
X380000Y115864D01*
X381500D01*
X382000Y116364D01*
Y117364D01*
X381500Y117864D01*
X380000D01*
X379500Y118364D01*
Y119364D01*
X380000Y119864D01*
X381500D01*
X382000Y120365D01*
Y121365D01*
X381500Y121864D01*
X380000D01*
X379500Y122365D01*
Y138800D01*
X382100Y141400D01*
X389900D01*
X393078Y144578D01*
Y149078D01*
X399845Y155845D01*
X402245D01*
X406000Y159600D01*
G01X401500Y145000D02*
X400192Y146308D01*
X397308D01*
X390700Y139700D01*
X383700D01*
X381500Y137500D01*
Y125876D01*
X384000Y123376D01*
Y112500D01*
X381000Y109500D01*
X375500D01*
G01X368237Y198500D02*
X365200Y195463D01*
Y190800D01*
X362850Y188450D01*
X353687D01*
X350850Y185613D01*
Y183850D01*
X349000Y182000D01*
X347046D01*
X346546Y181500D01*
Y179000D01*
X346046Y178500D01*
X345046D01*
X344546Y179000D01*
Y181500D01*
X344046Y182000D01*
X343046D01*
X342546Y181500D01*
Y179000D01*
X342046Y178500D01*
X341046D01*
X340546Y179000D01*
Y181500D01*
X340046Y182000D01*
X339046D01*
X338546Y181500D01*
Y179000D01*
X338046Y178500D01*
X337046D01*
X336546Y179000D01*
Y181500D01*
X336046Y182000D01*
X335046D01*
X334546Y181500D01*
Y179000D01*
X334046Y178500D01*
X333046D01*
X332546Y179000D01*
Y181500D01*
X332046Y182000D01*
X331046D01*
X330546Y181500D01*
Y179000D01*
X330046Y178500D01*
X329046D01*
X328546Y179000D01*
Y181500D01*
X328046Y182000D01*
X326163D01*
X325663Y181500D01*
Y177500D01*
X325163Y177000D01*
X324163D01*
X323663Y177500D01*
Y181500D01*
X323163Y182000D01*
X321500D01*
X320000Y180500D01*
Y170500D01*
X320500Y170000D01*
X327000D01*
X328250Y168750D01*
X329850D01*
X330350Y168250D01*
Y164500D01*
X330850Y164000D01*
X331850D01*
X332350Y164500D01*
Y168250D01*
X332850Y168750D01*
X333850D01*
X334350Y168250D01*
Y164500D01*
X334850Y164000D01*
X335850D01*
X336350Y164500D01*
Y168250D01*
X336850Y168750D01*
X337850D01*
X338350Y168250D01*
Y164500D01*
X338850Y164000D01*
X339850D01*
X340350Y164500D01*
Y168250D01*
X340850Y168750D01*
X341800D01*
X342300Y168250D01*
Y161800D01*
X341000Y160500D01*
X338500D01*
G01X375250Y115000D02*
X376800D01*
X377500Y115700D01*
Y140144D01*
X380357Y143000D01*
X388000D01*
X391393Y146393D01*
Y153500D01*
X394500Y156607D01*
Y170337D01*
X401431Y177268D01*
Y187195D01*
X405750Y191514D01*
Y193750D01*
X408000Y196000D01*
Y198500D01*
G01X381000D02*
X378500Y196000D01*
X376000D01*
X375500Y195500D01*
Y188500D01*
X375000Y188000D01*
X367500D01*
X366707Y187207D01*
Y186500D01*
X367207Y186000D01*
X374500D01*
X375500Y185000D01*
Y177000D01*
X374650Y176150D01*
X370850D01*
X370000Y177000D01*
Y179000D01*
X369670Y179330D01*
Y179369D01*
X368469Y180570D01*
X366771D01*
X366451Y180250D01*
X365500D01*
X365000Y179750D01*
Y176500D01*
X364500Y176000D01*
X363500D01*
X362500Y177000D01*
Y179500D01*
X361750Y180250D01*
X359750D01*
X359000Y179500D01*
Y175000D01*
X358500Y174500D01*
X355413D01*
X354913Y174000D01*
Y171000D01*
X354413Y170500D01*
X353413D01*
X352913Y171000D01*
Y174000D01*
X352413Y174500D01*
X351000D01*
X350500Y174000D01*
Y170000D01*
X345500Y165000D01*
Y157000D01*
X346000Y156500D01*
X350000D01*
X351000Y157500D01*
Y159000D01*
X348500Y161500D01*
G01X352000D02*
X349500Y164000D01*
Y166000D01*
X351813Y168313D01*
X354813D01*
X358500Y172000D01*
X362801D01*
X363301Y171500D01*
Y164500D01*
X363801Y164000D01*
X364591D01*
X365301Y164710D01*
Y171500D01*
X365801Y172000D01*
X366801D01*
X367301Y171500D01*
Y165000D01*
X367801Y164500D01*
X368801D01*
X369301Y165000D01*
Y171746D01*
X369801Y172246D01*
X370754D01*
X371391Y171610D01*
X376140D01*
X380000Y175470D01*
Y178737D01*
X380500Y179237D01*
X388500D01*
X389000Y179737D01*
Y180737D01*
X388500Y181237D01*
X380500D01*
X380000Y181737D01*
Y182737D01*
X380500Y183237D01*
X388500D01*
X389000Y183737D01*
Y184737D01*
X388500Y185237D01*
X380500D01*
X380000Y185737D01*
Y186737D01*
X380500Y187237D01*
X388500D01*
X389000Y187737D01*
Y188737D01*
X388500Y189237D01*
X380500D01*
X380000Y189737D01*
Y194508D01*
X383992Y198500D01*
G01X387980Y97720D02*
X421970Y63730D01*
X442870D01*
X451770Y54830D01*
Y42050D01*
G01X316500Y202000D02*
Y198000D01*
X323887Y190613D01*
X342000D01*
X344823Y193436D01*
Y198500D01*
G01X343086Y152736D02*
X339350Y149000D01*
X327000D01*
X325929Y147929D01*
Y143750D01*
G01X321000Y199000D02*
X320250Y199750D01*
Y207868D01*
X310274Y217844D01*
X295654D01*
X294045Y219453D01*
G01X292000Y220500D02*
X294000Y222500D01*
X307174D01*
X321000Y208674D01*
G01X350500Y152500D02*
Y144612D01*
X349638Y143750D01*
G01X347210Y152580D02*
Y151030D01*
X347500Y150740D01*
Y144970D01*
X347030Y144500D01*
X332649D01*
X332149Y144000D01*
Y143750D01*
G01X366500Y120500D02*
X365404Y121596D01*
X359715D01*
X358500Y120381D01*
G01X366730Y115710D02*
X364515Y113495D01*
X358500D01*
G01X370280Y105620D02*
X368730D01*
X367160Y107190D01*
X358500D01*
G01X355500Y91000D02*
X333500D01*
X331400Y93100D01*
Y94287D01*
X330287Y95400D01*
X329100D01*
X325929Y98571D01*
Y99250D01*
G01X366770Y110890D02*
X365674Y111986D01*
X358986D01*
X358500Y111500D01*
G01X357500Y153500D02*
X360000D01*
X361100Y152400D01*
Y126500D01*
X358500Y123900D01*
G01X462374Y337976D02*
X463924Y339526D01*
X472774D01*
X474150Y338150D01*
Y317950D01*
X440000Y283800D01*
Y278500D01*
X438500Y277000D01*
X430700D01*
X425450Y271750D01*
Y256950D01*
X419507Y251007D01*
X415493D01*
X414474Y249987D01*
X414458D01*
X413257Y248786D01*
Y248771D01*
X410574Y246087D01*
X399846D01*
X397996Y247937D01*
G01X412000Y265500D02*
X414000Y267500D01*
X417000D01*
X418300Y268800D01*
Y286300D01*
X421952Y289952D01*
X423059D01*
X423452Y289559D01*
X424159D01*
X424866Y290266D01*
Y290974D01*
X424473Y291366D01*
Y292073D01*
X425180Y292780D01*
X425888D01*
X426280Y292388D01*
X426988D01*
X427695Y293095D01*
Y293802D01*
X427302Y294195D01*
Y294902D01*
X428009Y295609D01*
X428716D01*
X429109Y295216D01*
X429816D01*
X430523Y295924D01*
Y296631D01*
X430131Y297023D01*
Y297731D01*
X430838Y298438D01*
X431545D01*
X431938Y298045D01*
X432645D01*
X433352Y298752D01*
Y299459D01*
X432959Y299852D01*
Y300559D01*
X433666Y301266D01*
X434373D01*
X434766Y300874D01*
X435473D01*
X436181Y301581D01*
Y302288D01*
X435788Y302681D01*
Y303388D01*
X436495Y304095D01*
X437202D01*
X437595Y303702D01*
X438302D01*
X439009Y304409D01*
Y305116D01*
X438616Y305509D01*
Y306216D01*
X439324Y306924D01*
X440031D01*
X440423Y306531D01*
X441131D01*
X441838Y307238D01*
Y307945D01*
X441445Y308338D01*
Y309045D01*
X461350Y328950D01*
X462950D01*
X463974Y329974D01*
Y335674D01*
X464726Y336426D01*
X470223D01*
X471823Y334827D01*
G01X440327Y341126D02*
X438727Y342726D01*
X436443D01*
X432458Y338740D01*
X404480D01*
X399930Y334190D01*
Y317430D01*
X376461Y293961D01*
Y245989D01*
X380537Y241913D01*
X398762D01*
X399846Y240829D01*
X399846Y239297D01*
Y238265D01*
X400076Y238035D01*
X401083Y237027D01*
Y236976D01*
X401933Y236126D01*
G01Y240063D02*
X400846Y241150D01*
Y241244D01*
X399177Y242913D01*
X383187D01*
X380398Y245702D01*
Y295398D01*
X401650Y316650D01*
Y320150D01*
X404320Y322820D01*
X417219D01*
X422400Y328001D01*
Y331400D01*
X424400Y333400D01*
X430409D01*
X436585Y339576D01*
X441926D01*
X443476Y341126D01*
G01X449776D02*
X451375Y339526D01*
Y329200D01*
X444675Y322500D01*
X432000D01*
X431151Y321651D01*
Y320944D01*
X432444Y319651D01*
Y318944D01*
X431737Y318237D01*
X431030D01*
X429737Y319530D01*
X429030D01*
X428323Y318823D01*
Y318116D01*
X429616Y316823D01*
Y316116D01*
X428908Y315408D01*
X428201D01*
X426908Y316701D01*
X426201D01*
X425500Y316000D01*
X423500D01*
X422150Y314650D01*
X421443D01*
X419900Y316193D01*
X419193D01*
X418485Y315486D01*
Y314778D01*
X420028Y313235D01*
Y312528D01*
X419321Y311821D01*
X418614D01*
X417071Y313364D01*
X416364D01*
X415657Y312657D01*
Y311950D01*
X417200Y310407D01*
Y309700D01*
X413450Y305950D01*
X408950D01*
X404050Y301050D01*
X402358D01*
X401450Y300142D01*
Y298858D01*
X402322Y297986D01*
Y294522D01*
X396300Y288500D01*
G01X394707D02*
X392924D01*
G01X440327Y337976D02*
X438777Y336426D01*
Y329977D01*
X435800Y327000D01*
X433613D01*
X433113Y327500D01*
Y330000D01*
X432613Y330500D01*
X431613D01*
X431113Y330000D01*
Y327500D01*
X430613Y327000D01*
X424700D01*
X418700Y321000D01*
X411500D01*
X398500Y308000D01*
X395500D01*
X394918Y307418D01*
Y304418D01*
X394000Y303500D01*
X393000D01*
X392500Y304000D01*
X391500D01*
X384098Y296598D01*
Y246750D01*
X384598Y246250D01*
G01X401000Y289500D02*
X403114Y291614D01*
X403821D01*
X404864Y290571D01*
X405571D01*
X406278Y291278D01*
Y291986D01*
X405236Y293028D01*
Y293736D01*
X405943Y294443D01*
X406650D01*
X407943Y293150D01*
X408650D01*
X409357Y293857D01*
Y294564D01*
X408064Y295857D01*
Y296564D01*
X408771Y297271D01*
X409478D01*
X410771Y295978D01*
X411479D01*
X412186Y296686D01*
Y297393D01*
X411479Y298100D01*
Y298807D01*
X411950Y299279D01*
Y299642D01*
X412000Y299692D01*
Y301000D01*
X416950Y305950D01*
X423450D01*
X428186Y310686D01*
X428893D01*
X429904Y309675D01*
X430612D01*
X431319Y310382D01*
Y311089D01*
X430307Y312100D01*
Y312807D01*
X431015Y313514D01*
X431722D01*
X432733Y312503D01*
X433440D01*
X434147Y313210D01*
Y313918D01*
X433136Y314929D01*
Y315636D01*
X433843Y316343D01*
X434550D01*
X435562Y315332D01*
X436269D01*
X436976Y316039D01*
Y316746D01*
X435965Y317757D01*
Y318465D01*
X437150Y319650D01*
X445550D01*
X454900Y329000D01*
Y341343D01*
X453567Y342676D01*
X451375D01*
X449776Y344276D01*
G01X412000Y251200D02*
X414800Y254000D01*
X416500D01*
X423500Y261000D01*
Y278000D01*
X433000Y287500D01*
X436000D01*
X436500Y287000D01*
X437693D01*
X438044Y287351D01*
Y288644D01*
X438751Y289351D01*
X439458D01*
X439751Y289058D01*
X440458D01*
X441165Y289765D01*
Y290472D01*
X440872Y290765D01*
Y291472D01*
X441579Y292179D01*
X442286D01*
X442579Y291886D01*
X443286D01*
X443994Y292594D01*
Y293301D01*
X443701Y293594D01*
Y294301D01*
X444408Y295008D01*
X445115D01*
X445408Y294715D01*
X446115D01*
X446822Y295422D01*
Y296129D01*
X446529Y296422D01*
Y297129D01*
X447236Y297836D01*
X447944D01*
X448236Y297544D01*
X448944D01*
X449651Y298251D01*
Y298958D01*
X449358Y299251D01*
Y299958D01*
X450065Y300665D01*
X450772D01*
X451065Y300372D01*
X451772D01*
X452479Y301079D01*
Y301787D01*
X452187Y302079D01*
Y302787D01*
X456300Y306900D01*
X457600D01*
X470000Y319300D01*
Y330812D01*
X470223Y331035D01*
Y332319D01*
X470000Y332543D01*
Y333500D01*
X468673Y334827D01*
G01X412000Y257646D02*
X412596Y257050D01*
X417050D01*
X420700Y260700D01*
Y283700D01*
X424905Y287905D01*
X430905D01*
X432950Y289950D01*
Y292142D01*
X433858Y293050D01*
X436050D01*
X441000Y298000D01*
X441700D01*
X450681Y306981D01*
Y307688D01*
X449138Y309230D01*
Y309938D01*
X449845Y310645D01*
X450552D01*
X452095Y309102D01*
X452802D01*
X453509Y309809D01*
Y310516D01*
X451966Y312059D01*
Y312766D01*
X452674Y313473D01*
X453381D01*
X454923Y311931D01*
X455630D01*
X456338Y312638D01*
Y313345D01*
X454795Y314888D01*
Y315595D01*
X455502Y316302D01*
X456209D01*
X457752Y314759D01*
X458459D01*
X459166Y315466D01*
Y316174D01*
X457623Y317716D01*
Y318423D01*
X458331Y319131D01*
X459038D01*
X460581Y317588D01*
X461288D01*
X461995Y318295D01*
Y319002D01*
X460452Y320545D01*
Y321252D01*
X461159Y321959D01*
X461866D01*
X463409Y320416D01*
X464116D01*
X467074Y323374D01*
Y333277D01*
X465524Y334827D01*
G01X449776Y337976D02*
X448226Y336426D01*
Y329126D01*
X444250Y325150D01*
X431650D01*
X425000Y318500D01*
X413000D01*
X411099Y316599D01*
Y315892D01*
X412356Y314635D01*
Y313927D01*
X411856Y313427D01*
X410027D01*
X409320Y312720D01*
Y312013D01*
X410132Y311202D01*
Y310495D01*
X409424Y309788D01*
X408717D01*
X407906Y310599D01*
X407199D01*
X406492Y309892D01*
Y309184D01*
X407103Y308573D01*
Y307866D01*
X406396Y307159D01*
X405689D01*
X404627Y308220D01*
X403920D01*
X403263Y307563D01*
Y306756D01*
X404274Y305745D01*
Y305037D01*
X403567Y304330D01*
X402860D01*
X401849Y305342D01*
X401042D01*
X400384Y304684D01*
Y303977D01*
X401446Y302916D01*
Y302401D01*
X400547Y301502D01*
X400032D01*
X398870Y302663D01*
X398163D01*
X397506Y302006D01*
Y301199D01*
X398617Y300087D01*
Y299380D01*
X397910Y298673D01*
X397203D01*
X396592Y299284D01*
X395184D01*
X393400Y297500D01*
X390800D01*
X389900Y296600D01*
Y295600D01*
X391500Y294000D01*
Y291800D01*
X390200Y290500D01*
X388900D01*
X388287Y289887D01*
Y289500D01*
G01X374607Y321137D02*
X378550Y325080D01*
X384900D01*
X391680Y331860D01*
Y337260D01*
X395330Y340910D01*
G01X374374Y240063D02*
X372500Y241937D01*
Y292800D01*
X397930Y318230D01*
Y336980D01*
X404450Y343500D01*
X431800D01*
X434600Y346300D01*
X441452D01*
X443476Y344276D01*
G01X369607Y321137D02*
X375424Y315320D01*
Y312296D01*
X377010Y310710D01*
X380420D01*
X395775Y326065D01*
G01X372107Y312827D02*
Y309553D01*
X374260Y307400D01*
X383240D01*
X394920Y319080D01*
G01X378065Y312685D02*
X393380Y328000D01*
Y336350D01*
X397160Y340130D01*
Y341500D01*
X393660Y345000D01*
G01X364607Y321137D02*
X369184Y316560D01*
X371210D01*
X374150Y313620D01*
Y310570D01*
X375670Y309050D01*
X381190D01*
X395900Y323760D01*
G01X412000Y220957D02*
X413457Y219500D01*
X414500D01*
X435350Y198650D01*
X442237D01*
X446887Y194000D01*
X471800D01*
X473450Y195650D01*
G01X353000Y289500D02*
X354500Y291000D01*
G01X289500Y224000D02*
Y225550D01*
X291450Y227500D01*
X305333D01*
X317956Y214877D01*
Y214829D01*
X321000Y211785D01*
G01X289000Y227500D02*
Y229187D01*
X294713Y234900D01*
X299820D01*
X314908Y219812D01*
X316632D01*
X321000Y215444D01*
G01X431850Y224320D02*
X435180D01*
X437500Y222000D01*
X453920D01*
X461440Y214480D01*
X477520D01*
X485080Y206920D01*
X491580D01*
X501230Y197270D01*
Y184730D01*
X494516Y178016D01*
X492584D01*
G01X489900Y204590D02*
X484910D01*
X476120Y213380D01*
X459180D01*
X451660Y220900D01*
X416800D01*
X415868Y221832D01*
Y222162D01*
X414560Y223470D01*
G01X401500Y145000D02*
Y152500D01*
X405000Y156000D01*
X408500D01*
X410500Y158000D01*
Y165500D01*
X404650Y171350D01*
Y174049D01*
X407100Y176499D01*
Y182600D01*
X415500Y191000D01*
Y207500D01*
X412586Y210414D01*
Y217711D01*
X412000Y218297D01*
G01X414811Y212500D02*
X424261Y203050D01*
X426849D01*
X432849Y197050D01*
X439849D01*
X445400Y191500D01*
X473500D01*
X480190Y184810D01*
X489796D01*
X492653Y181953D01*
G01X495680Y185820D02*
X494372Y184512D01*
X492468D01*
X489255Y187725D01*
Y195345D01*
X475901Y208699D01*
X473860D01*
G01D02*
Y208509D01*
X473351Y208000D01*
X450400D01*
X440000Y218400D01*
G01X481330Y190590D02*
Y192140D01*
X481016Y192454D01*
Y193984D01*
X475120Y199880D01*
X469590D01*
X468810Y199100D01*
X448380D01*
X443702Y203778D01*
X431778D01*
X414955Y220600D01*
X414412D01*
X413300Y221713D01*
Y221757D01*
X412500Y222557D01*
Y227294D01*
X412000Y227794D01*
G01X451600Y174000D02*
X454900Y177300D01*
Y182000D01*
X451900Y185000D01*
X431000D01*
X429000Y187000D01*
X415000D01*
X411500Y183500D01*
Y171500D01*
X413500Y169500D01*
G01X493910Y199940D02*
X492370Y198400D01*
Y186870D01*
G01X405870Y240063D02*
X410807Y245000D01*
X412338D01*
X414438Y247100D01*
X418000D01*
X427450Y256550D01*
Y267950D01*
X431000Y271500D01*
X441500D01*
X442500Y272500D01*
Y281600D01*
X475800Y314900D01*
Y340800D01*
X473924Y342676D01*
X470223D01*
X468673Y341126D01*
G01Y344276D02*
X467123Y345826D01*
X458582D01*
X456500Y343743D01*
Y327600D01*
X446100Y317200D01*
X440400D01*
X439089Y315889D01*
Y315182D01*
X440182Y314089D01*
Y313382D01*
X439475Y312675D01*
X438768D01*
X437675Y313768D01*
X436968D01*
X436260Y313060D01*
Y312353D01*
X436853Y311760D01*
Y311053D01*
X436146Y310346D01*
X435439D01*
X434846Y310939D01*
X434139D01*
X433432Y310232D01*
Y309525D01*
X434025Y308932D01*
Y308225D01*
X433318Y307518D01*
X432610D01*
X432018Y308110D01*
X431310D01*
X430603Y307403D01*
Y306696D01*
X431196Y306103D01*
Y305396D01*
X430489Y304689D01*
X429782D01*
X429189Y305282D01*
X428482D01*
X427775Y304575D01*
Y303867D01*
X428367Y303275D01*
Y302567D01*
X427660Y301860D01*
X426953D01*
X426360Y302453D01*
X425653D01*
X424946Y301746D01*
Y301039D01*
X425539Y300446D01*
Y299739D01*
X424832Y299032D01*
X424124D01*
X423532Y299624D01*
X422824D01*
X412000Y288800D01*
Y282405D01*
G01X410900Y281305D02*
X405305D01*
X405283Y281283D01*
X405104D01*
X404000Y280179D01*
Y266000D01*
X401933Y263933D01*
Y263685D01*
G01X409807Y240063D02*
Y242307D01*
X410900Y243400D01*
X413001D01*
X415101Y245500D01*
X418900D01*
X429410Y256010D01*
Y263730D01*
X434800Y269120D01*
X442520D01*
X444250Y270850D01*
Y278750D01*
X478100Y312600D01*
Y341210D01*
X472310Y347000D01*
X450308D01*
X448176Y344868D01*
Y339526D01*
X446626Y337976D01*
G01X416000Y390170D02*
X425170Y381000D01*
X441870D01*
X451375Y371495D01*
Y361623D01*
X449776Y360024D01*
G54D18*
X260000Y115000D03*
Y291800D03*
G54D28*
G01X347284Y24008D02*
X349658Y26383D01*
Y30307D01*
X347965Y32000D01*
X345000D01*
X344000Y33000D01*
Y45985D01*
X336735Y53250D01*
X317349D01*
X291890Y78709D01*
Y78796D01*
X291843Y78843D01*
Y108459D01*
X288017Y112285D01*
Y143482D01*
X272050Y159450D01*
Y162450D01*
X263195Y171305D01*
Y202500D01*
G01X288640Y200270D02*
X289771Y199139D01*
Y198753D01*
X290500Y198025D01*
Y194126D01*
X290650Y193976D01*
Y165626D01*
X294650Y161626D01*
Y156200D01*
X303050Y147800D01*
Y126176D01*
X301750Y124876D01*
Y79881D01*
X320181Y61450D01*
X365050D01*
X366000Y60500D01*
Y49000D01*
G01X19433Y-122500D02*
Y-112500D01*
X22767D01*
X24100Y-113000D01*
X25100Y-113667D01*
X25934Y-114666D01*
X26600Y-115834D01*
X26767Y-117500D01*
X26600Y-119167D01*
X25934Y-120334D01*
X25100Y-121334D01*
X24100Y-122000D01*
X22767Y-122500D01*
X19433D01*
G01X30433D02*
X34600Y-112500D01*
X38767Y-122500D01*
G01X37267Y-119000D02*
X31933D01*
G01X46100Y-112500D02*
Y-122500D01*
G01X42267Y-112500D02*
X49933D01*
G01X60933Y-122500D02*
X54267D01*
Y-112500D01*
X60933D01*
G01X58267Y-117333D02*
X54267D01*
G01X69100Y-122833D02*
X68767Y-122667D01*
Y-122333D01*
X69100Y-122167D01*
X69433Y-122333D01*
Y-122667D01*
X69100Y-122833D01*
G01Y-118334D02*
X68767Y-118167D01*
Y-117833D01*
X69100Y-117667D01*
X69433Y-117833D01*
Y-118167D01*
X69100Y-118334D01*
G01X80600Y-112500D02*
X79266Y-112833D01*
X78267Y-113667D01*
X77600Y-114666D01*
X77100Y-116000D01*
X76933Y-117500D01*
X77100Y-119000D01*
X77600Y-120334D01*
X78267Y-121334D01*
X79266Y-122167D01*
X80600Y-122500D01*
X81933Y-122167D01*
X82933Y-121334D01*
X83600Y-120334D01*
X84100Y-119000D01*
X84267Y-117500D01*
X84100Y-116000D01*
X83600Y-114666D01*
X82933Y-113667D01*
X81933Y-112833D01*
X80600Y-112500D01*
G01X92100Y-122500D02*
Y-112500D01*
X90100Y-114500D01*
G01Y-122500D02*
X94100D01*
G01X101433Y-119167D02*
X105767D01*
G01X115100Y-122500D02*
Y-112500D01*
X113100Y-114500D01*
G01Y-122500D02*
X117100D01*
G01X123433Y-118334D02*
X124600Y-117167D01*
X125600Y-116500D01*
X126933Y-116167D01*
X128100Y-116500D01*
X128933Y-117167D01*
X129600Y-118167D01*
X129767Y-119333D01*
X129600Y-120334D01*
X128933Y-121334D01*
X127933Y-122167D01*
X126767Y-122500D01*
X125433Y-122167D01*
X124267Y-121167D01*
X123600Y-119667D01*
X123433Y-118000D01*
X123766Y-115834D01*
X124267Y-114666D01*
X125100Y-113500D01*
X126267Y-112667D01*
X127433Y-112500D01*
X128600Y-112833D01*
X129434Y-113667D01*
G01X135933Y-119167D02*
X140267D01*
G01X146433Y-114167D02*
X147433Y-113167D01*
X148600Y-112667D01*
X149933Y-112500D01*
X151600Y-112833D01*
X152767Y-113667D01*
X153100Y-114666D01*
X152933Y-115667D01*
X152267Y-116500D01*
X148933Y-118167D01*
X147433Y-119333D01*
X146433Y-121000D01*
X146100Y-122500D01*
X153100D01*
G01X161100Y-112500D02*
X159766Y-112833D01*
X158767Y-113667D01*
X158100Y-114666D01*
X157600Y-116000D01*
X157433Y-117500D01*
X157600Y-119000D01*
X158100Y-120334D01*
X158767Y-121334D01*
X159766Y-122167D01*
X161100Y-122500D01*
X162433Y-122167D01*
X163433Y-121334D01*
X164100Y-120334D01*
X164600Y-119000D01*
X164767Y-117500D01*
X164600Y-116000D01*
X164100Y-114666D01*
X163433Y-113667D01*
X162433Y-112833D01*
X161100Y-112500D01*
G01X172600Y-122500D02*
Y-112500D01*
X170600Y-114500D01*
G01Y-122500D02*
X174600D01*
G01X183767D02*
X184100Y-120334D01*
X184600Y-118500D01*
X185267Y-116833D01*
X186100Y-115000D01*
X187433Y-112500D01*
X180767D01*
G01X19233Y-141700D02*
Y-131700D01*
X22567D01*
X23900Y-132200D01*
X24900Y-132867D01*
X25733Y-133866D01*
X26400Y-135034D01*
X26567Y-136700D01*
X26400Y-138367D01*
X25733Y-139534D01*
X24900Y-140534D01*
X23900Y-141200D01*
X22567Y-141700D01*
X19233D01*
G01X37733D02*
X31067D01*
Y-131700D01*
X37733D01*
G01X35067Y-136533D02*
X31067D01*
G01X42400Y-140367D02*
X43733Y-141200D01*
X45233Y-141700D01*
X46567D01*
X47900Y-141200D01*
X48900Y-140367D01*
X49400Y-139200D01*
X49067Y-138034D01*
X48233Y-137033D01*
X46733Y-136367D01*
X44733Y-136033D01*
X43567Y-135367D01*
X43066Y-134200D01*
X43400Y-133033D01*
X44233Y-132200D01*
X45400Y-131700D01*
X46567D01*
X47733Y-132033D01*
X48733Y-132867D01*
G01X55400Y-131700D02*
X59400D01*
G01X57400D02*
Y-141700D01*
G01X55400D02*
X59400D01*
G01X69900Y-136700D02*
X73234D01*
Y-139700D01*
X72233Y-140700D01*
X71067Y-141367D01*
X69400Y-141700D01*
X67733Y-141367D01*
X66567Y-140700D01*
X65567Y-139700D01*
X64900Y-138533D01*
X64566Y-137200D01*
Y-136033D01*
X64900Y-135034D01*
X65567Y-133866D01*
X66567Y-132867D01*
X67566Y-132200D01*
X68900Y-131700D01*
X70067D01*
X71400Y-132033D01*
X72400Y-132700D01*
G01X76567Y-141700D02*
Y-131700D01*
X84233Y-141700D01*
Y-131700D01*
G01X95233Y-141700D02*
X88567D01*
Y-131700D01*
X95233D01*
G01X92567Y-136533D02*
X88567D01*
G01X99733Y-141700D02*
Y-131700D01*
X103067D01*
X104400Y-132200D01*
X105400Y-132867D01*
X106234Y-133866D01*
X106900Y-135034D01*
X107067Y-136700D01*
X106900Y-138367D01*
X106234Y-139534D01*
X105400Y-140534D01*
X104400Y-141200D01*
X103067Y-141700D01*
X99733D01*
G01X122233D02*
X126400Y-131700D01*
X130567Y-141700D01*
G01X129067Y-138200D02*
X123733D01*
G01X137900Y-131700D02*
Y-141700D01*
G01X134067Y-131700D02*
X141733D01*
G01X149400Y-142033D02*
X149067Y-141867D01*
Y-141533D01*
X149400Y-141367D01*
X149733Y-141533D01*
Y-141867D01*
X149400Y-142033D01*
G01Y-137534D02*
X149067Y-137367D01*
Y-137033D01*
X149400Y-136867D01*
X149733Y-137033D01*
Y-137367D01*
X149400Y-137534D01*
G01X17433Y-182300D02*
Y-172300D01*
X23767D01*
G01X21433Y-177133D02*
X17433D01*
G01X30100Y-172300D02*
X34100D01*
G01X32100D02*
Y-182300D01*
G01X30100D02*
X34100D01*
G01X40267Y-172300D02*
Y-182300D01*
X46933D01*
G01X50766D02*
Y-172300D01*
X55100Y-180633D01*
X59434Y-172300D01*
Y-182300D01*
G01X74767Y-172300D02*
Y-182300D01*
X81433D01*
G01X85433D02*
X89600Y-172300D01*
X93767Y-182300D01*
G01X92267Y-178800D02*
X86933D01*
G01X101100Y-182300D02*
Y-177800D01*
X97767Y-172300D01*
G01X104433D02*
X101100Y-177800D01*
G01X115933Y-182300D02*
X109267D01*
Y-172300D01*
X115933D01*
G01X113267Y-177133D02*
X109267D01*
G01X120767Y-182300D02*
Y-172300D01*
X124933D01*
X126267Y-172800D01*
X127100Y-173467D01*
X127433Y-174800D01*
X127100Y-176133D01*
X126100Y-176967D01*
X124933Y-177467D01*
X120767D01*
G01X124933D02*
X127433Y-182300D01*
G01X135600Y-182633D02*
X135267Y-182467D01*
Y-182133D01*
X135600Y-181967D01*
X135933Y-182133D01*
Y-182467D01*
X135600Y-182633D01*
G01Y-178134D02*
X135267Y-177967D01*
Y-177633D01*
X135600Y-177467D01*
X135933Y-177633D01*
Y-177967D01*
X135600Y-178134D01*
G01X26567Y-152534D02*
X25567Y-152033D01*
X24400Y-151700D01*
X23067D01*
X21566Y-152200D01*
X20400Y-153033D01*
X19567Y-154033D01*
X18900Y-155700D01*
X18733Y-157200D01*
X19067Y-158700D01*
X19567Y-159700D01*
X20567Y-160700D01*
X21733Y-161367D01*
X22900Y-161700D01*
X24067D01*
X25233Y-161367D01*
X26233Y-160867D01*
X27067Y-160200D01*
G01X30233Y-161700D02*
X34400Y-151700D01*
X38567Y-161700D01*
G01X37067Y-158200D02*
X31733D01*
G01X42567Y-161700D02*
Y-151700D01*
X46733D01*
X48067Y-152200D01*
X48900Y-152867D01*
X49233Y-154200D01*
X48900Y-155533D01*
X47900Y-156367D01*
X46733Y-156867D01*
X42567D01*
G01X46733D02*
X49233Y-161700D01*
G01X53733D02*
Y-151700D01*
X57067D01*
X58400Y-152200D01*
X59400Y-152867D01*
X60234Y-153866D01*
X60900Y-155034D01*
X61067Y-156700D01*
X60900Y-158367D01*
X60234Y-159534D01*
X59400Y-160534D01*
X58400Y-161200D01*
X57067Y-161700D01*
X53733D01*
G01X77067D02*
Y-151700D01*
X81233D01*
X82567Y-152200D01*
X83400Y-152867D01*
X83733Y-154200D01*
X83400Y-155533D01*
X82400Y-156367D01*
X81233Y-156867D01*
X77067D01*
G01X81233D02*
X83733Y-161700D01*
G01X95233D02*
X88567D01*
Y-151700D01*
X95233D01*
G01X92567Y-156533D02*
X88567D01*
G01X100233Y-161700D02*
Y-151700D01*
X106567D01*
G01X104233Y-156533D02*
X100233D01*
G01X114900Y-162033D02*
X114567Y-161867D01*
Y-161533D01*
X114900Y-161367D01*
X115233Y-161533D01*
Y-161867D01*
X114900Y-162033D01*
G01Y-157534D02*
X114567Y-157367D01*
Y-157033D01*
X114900Y-156867D01*
X115233Y-157033D01*
Y-157367D01*
X114900Y-157534D01*
G01X126400Y-161700D02*
X125066Y-161533D01*
X123900Y-160867D01*
X122900Y-159867D01*
X122233Y-158700D01*
X121900Y-157367D01*
Y-156033D01*
X122233Y-154700D01*
X122900Y-153533D01*
X123900Y-152534D01*
X125066Y-151867D01*
X126400Y-151700D01*
X127733Y-151867D01*
X128900Y-152534D01*
X129900Y-153533D01*
X130567Y-154700D01*
X130900Y-156033D01*
Y-157367D01*
X130567Y-158700D01*
X129900Y-159867D01*
X128900Y-160867D01*
X127733Y-161533D01*
X126400Y-161700D01*
G01X134900Y-165033D02*
Y-155034D01*
G01Y-156533D02*
X135733Y-155700D01*
X136566Y-155200D01*
X137900Y-155034D01*
X139067Y-155200D01*
X140233Y-156033D01*
X140734Y-157200D01*
X140900Y-158367D01*
X140734Y-159534D01*
X140233Y-160700D01*
X139233Y-161367D01*
X137900Y-161700D01*
X136733Y-161533D01*
X135567Y-161034D01*
X134900Y-160367D01*
G01X146900Y-157200D02*
X152234D01*
X151733Y-156033D01*
X150900Y-155367D01*
X149733Y-155034D01*
X148567Y-155200D01*
X147567Y-155700D01*
X146900Y-156867D01*
X146566Y-157867D01*
Y-158867D01*
X146900Y-159867D01*
X147733Y-160867D01*
X148733Y-161533D01*
X149900Y-161700D01*
X151067Y-161367D01*
X152234Y-160367D01*
G01X158066Y-161700D02*
Y-155034D01*
G01Y-156700D02*
X158733Y-155867D01*
X159733Y-155200D01*
X161067Y-155034D01*
X162233Y-155200D01*
X163233Y-155867D01*
X163734Y-157033D01*
Y-161700D01*
G01X176067Y-152534D02*
X175067Y-152033D01*
X173900Y-151700D01*
X172567D01*
X171066Y-152200D01*
X169900Y-153033D01*
X169067Y-154033D01*
X168400Y-155700D01*
X168233Y-157200D01*
X168567Y-158700D01*
X169067Y-159700D01*
X170067Y-160700D01*
X171233Y-161367D01*
X172400Y-161700D01*
X173567D01*
X174733Y-161367D01*
X175733Y-160867D01*
X176567Y-160200D01*
G01X181400Y-157200D02*
X186734D01*
X186233Y-156033D01*
X185400Y-155367D01*
X184233Y-155034D01*
X183067Y-155200D01*
X182067Y-155700D01*
X181400Y-156867D01*
X181066Y-157867D01*
Y-158867D01*
X181400Y-159867D01*
X182233Y-160867D01*
X183233Y-161533D01*
X184400Y-161700D01*
X185567Y-161367D01*
X186734Y-160367D01*
G01X195400Y-161700D02*
Y-151700D01*
G01X206900Y-161700D02*
Y-151700D01*
G01X215566Y-155034D02*
Y-159700D01*
X216233Y-160867D01*
X217233Y-161533D01*
X218400Y-161700D01*
X219567Y-161533D01*
X220567Y-160867D01*
X221234Y-159700D01*
G01Y-161700D02*
Y-155034D01*
G01X229900Y-161700D02*
Y-151700D01*
G01X244400Y-161700D02*
Y-155034D01*
G01Y-156200D02*
X243733Y-155533D01*
X242733Y-155200D01*
X241567Y-155034D01*
X240400Y-155367D01*
X239400Y-156033D01*
X238733Y-157033D01*
X238400Y-158367D01*
X238733Y-159700D01*
X239400Y-160700D01*
X240400Y-161367D01*
X241567Y-161700D01*
X242733Y-161533D01*
X243733Y-161034D01*
X244400Y-160367D01*
G01X250567Y-161700D02*
Y-155034D01*
G01Y-156367D02*
X251400Y-155700D01*
X252233Y-155200D01*
X253400Y-155034D01*
X254233Y-155200D01*
X255233Y-155700D01*
G01X275900Y-161700D02*
Y-151700D01*
G01X291067Y-152534D02*
X290067Y-152033D01*
X288900Y-151700D01*
X287567D01*
X286066Y-152200D01*
X284900Y-153033D01*
X284067Y-154033D01*
X283400Y-155700D01*
X283233Y-157200D01*
X283567Y-158700D01*
X284067Y-159700D01*
X285067Y-160700D01*
X286233Y-161367D01*
X287400Y-161700D01*
X288567D01*
X289733Y-161367D01*
X290733Y-160867D01*
X291567Y-160200D01*
G01X298900Y-161700D02*
X297900Y-161533D01*
X296900Y-160867D01*
X296233Y-159700D01*
X295900Y-158367D01*
X296233Y-157033D01*
X296900Y-155867D01*
X297900Y-155200D01*
X298900Y-155034D01*
X299900Y-155200D01*
X300900Y-155867D01*
X301567Y-157033D01*
X301734Y-158367D01*
X301567Y-159700D01*
X300900Y-160867D01*
X299900Y-161533D01*
X298900Y-161700D01*
G01X307566D02*
Y-155034D01*
G01Y-156700D02*
X308233Y-155867D01*
X309233Y-155200D01*
X310567Y-155034D01*
X311733Y-155200D01*
X312733Y-155867D01*
X313234Y-157033D01*
Y-161700D01*
G01X319066D02*
Y-155034D01*
G01Y-156700D02*
X319733Y-155867D01*
X320733Y-155200D01*
X322067Y-155034D01*
X323233Y-155200D01*
X324233Y-155867D01*
X324734Y-157033D01*
Y-161700D01*
G01X330900Y-157200D02*
X336234D01*
X335733Y-156033D01*
X334900Y-155367D01*
X333733Y-155034D01*
X332567Y-155200D01*
X331567Y-155700D01*
X330900Y-156867D01*
X330566Y-157867D01*
Y-158867D01*
X330900Y-159867D01*
X331733Y-160867D01*
X332733Y-161533D01*
X333900Y-161700D01*
X335067Y-161367D01*
X336234Y-160367D01*
G01X347567Y-155867D02*
X346400Y-155200D01*
X345400Y-155034D01*
X344067Y-155367D01*
X343067Y-156033D01*
X342400Y-157200D01*
X342233Y-158367D01*
X342400Y-159534D01*
X343067Y-160534D01*
X344067Y-161367D01*
X345400Y-161700D01*
X346567Y-161367D01*
X347567Y-160700D01*
G01X356400Y-151700D02*
Y-161700D01*
G01X354067Y-155034D02*
X358733D01*
G01X365733Y-158367D02*
X370067D01*
G01X379400Y-161700D02*
Y-151700D01*
X377400Y-153700D01*
G01Y-161700D02*
X381400D01*
G01X402400D02*
Y-151700D01*
G01X421900Y-160367D02*
X423233Y-161200D01*
X424733Y-161700D01*
X426067D01*
X427400Y-161200D01*
X428400Y-160367D01*
X428900Y-159200D01*
X428567Y-158034D01*
X427733Y-157033D01*
X426233Y-156367D01*
X424233Y-156033D01*
X423067Y-155367D01*
X422566Y-154200D01*
X422900Y-153033D01*
X423733Y-152200D01*
X424900Y-151700D01*
X426067D01*
X427233Y-152033D01*
X428234Y-152867D01*
G01X433233Y-161700D02*
Y-151700D01*
X436567D01*
X437900Y-152200D01*
X438900Y-152867D01*
X439734Y-153866D01*
X440400Y-155034D01*
X440567Y-156700D01*
X440400Y-158367D01*
X439734Y-159534D01*
X438900Y-160534D01*
X437900Y-161200D01*
X436567Y-161700D01*
X433233D01*
G01X445067D02*
Y-151700D01*
X449233D01*
X450567Y-152200D01*
X451400Y-152867D01*
X451733Y-154200D01*
X451400Y-155533D01*
X450400Y-156367D01*
X449233Y-156867D01*
X445067D01*
G01X449233D02*
X451733Y-161700D01*
G01X472733Y-156367D02*
X473400Y-155867D01*
X473900Y-155034D01*
X474234Y-153866D01*
X473900Y-152867D01*
X473233Y-152200D01*
X472067Y-151700D01*
X467567D01*
Y-161700D01*
X473067D01*
X474234Y-161034D01*
X474900Y-160033D01*
X475233Y-158867D01*
X474900Y-157700D01*
X473900Y-156700D01*
X472733Y-156367D01*
X467567D01*
G01X482900Y-161700D02*
X481566Y-161533D01*
X480400Y-160867D01*
X479400Y-159867D01*
X478733Y-158700D01*
X478400Y-157367D01*
Y-156033D01*
X478733Y-154700D01*
X479400Y-153533D01*
X480400Y-152534D01*
X481566Y-151867D01*
X482900Y-151700D01*
X484233Y-151867D01*
X485400Y-152534D01*
X486400Y-153533D01*
X487067Y-154700D01*
X487400Y-156033D01*
Y-157367D01*
X487067Y-158700D01*
X486400Y-159867D01*
X485400Y-160867D01*
X484233Y-161533D01*
X482900Y-161700D01*
G01X490233D02*
X494400Y-151700D01*
X498567Y-161700D01*
G01X497067Y-158200D02*
X491733D01*
G01X502567Y-161700D02*
Y-151700D01*
X506733D01*
X508067Y-152200D01*
X508900Y-152867D01*
X509233Y-154200D01*
X508900Y-155533D01*
X507900Y-156367D01*
X506733Y-156867D01*
X502567D01*
G01X506733D02*
X509233Y-161700D01*
G01X513733D02*
Y-151700D01*
X517067D01*
X518400Y-152200D01*
X519400Y-152867D01*
X520234Y-153866D01*
X520900Y-155034D01*
X521067Y-156700D01*
X520900Y-158367D01*
X520234Y-159534D01*
X519400Y-160534D01*
X518400Y-161200D01*
X517067Y-161700D01*
X513733D01*
G01X4000Y415000D02*
X0Y411000D01*
Y4000D01*
X4000Y0D01*
X261000D01*
X265000Y4000D01*
Y8500D01*
X269000Y12500D01*
X431000D01*
X435000Y8500D01*
Y4000D01*
X439000Y0D01*
X696000D01*
X700000Y4000D01*
Y411000D01*
X696000Y415000D01*
X582000D01*
X578000Y411000D01*
Y374000D01*
X574000Y370000D01*
X522000D01*
X518000Y374000D01*
Y411000D01*
X514000Y415000D01*
X186000D01*
X182000Y411000D01*
Y374000D01*
X178000Y370000D01*
X126000D01*
X122000Y374000D01*
Y411000D01*
X118000Y415000D01*
X4000D01*
G01X154667Y-172300D02*
Y-182300D01*
X161333D01*
G01X165333D02*
X169500Y-172300D01*
X173667Y-182300D01*
G01X172167Y-178800D02*
X166833D01*
G01X181000Y-182300D02*
Y-177800D01*
X177667Y-172300D01*
G01X184333D02*
X181000Y-177800D01*
G01X195833Y-182300D02*
X189167D01*
Y-172300D01*
X195833D01*
G01X193167Y-177133D02*
X189167D01*
G01X200667Y-182300D02*
Y-172300D01*
X204833D01*
X206167Y-172800D01*
X207000Y-173467D01*
X207333Y-174800D01*
X207000Y-176133D01*
X206000Y-176967D01*
X204833Y-177467D01*
X200667D01*
G01X204833D02*
X207333Y-182300D01*
G01X215167D02*
X215500Y-180134D01*
X216000Y-178300D01*
X216667Y-176633D01*
X217500Y-174800D01*
X218833Y-172300D01*
X212167D01*
G01X273767Y-122500D02*
Y-112500D01*
X277767D01*
X279100Y-113000D01*
X280100Y-114167D01*
X280433Y-115500D01*
X280100Y-116833D01*
X279267Y-117833D01*
X277767Y-118334D01*
X273767D01*
G01X284433Y-122500D02*
X288600Y-112500D01*
X292767Y-122500D01*
G01X291267Y-119000D02*
X285933D01*
G01X296767Y-122500D02*
Y-112500D01*
X300933D01*
X302267Y-113000D01*
X303100Y-113667D01*
X303433Y-115000D01*
X303100Y-116333D01*
X302100Y-117167D01*
X300933Y-117667D01*
X296767D01*
G01X300933D02*
X303433Y-122500D01*
G01X311600Y-112500D02*
Y-122500D01*
G01X307767Y-112500D02*
X315433D01*
G01X330767Y-122500D02*
Y-112500D01*
X338433Y-122500D01*
Y-112500D01*
G01X342433D02*
Y-119667D01*
X343100Y-121167D01*
X344433Y-122167D01*
X346100Y-122500D01*
X347767Y-122167D01*
X349100Y-121167D01*
X349767Y-119667D01*
Y-112500D01*
G01X353266Y-122500D02*
Y-112500D01*
X357600Y-120833D01*
X361934Y-112500D01*
Y-122500D01*
G01X370433Y-117167D02*
X371100Y-116667D01*
X371600Y-115834D01*
X371934Y-114666D01*
X371600Y-113667D01*
X370933Y-113000D01*
X369767Y-112500D01*
X365267D01*
Y-122500D01*
X370767D01*
X371934Y-121834D01*
X372600Y-120833D01*
X372933Y-119667D01*
X372600Y-118500D01*
X371600Y-117500D01*
X370433Y-117167D01*
X365267D01*
G01X383933Y-122500D02*
X377267D01*
Y-112500D01*
X383933D01*
G01X381267Y-117333D02*
X377267D01*
G01X388767Y-122500D02*
Y-112500D01*
X392933D01*
X394267Y-113000D01*
X395100Y-113667D01*
X395433Y-115000D01*
X395100Y-116333D01*
X394100Y-117167D01*
X392933Y-117667D01*
X388767D01*
G01X392933D02*
X395433Y-122500D01*
G01X403600Y-122833D02*
X403267Y-122667D01*
Y-122333D01*
X403600Y-122167D01*
X403933Y-122333D01*
Y-122667D01*
X403600Y-122833D01*
G01Y-118334D02*
X403267Y-118167D01*
Y-117833D01*
X403600Y-117667D01*
X403933Y-117833D01*
Y-118167D01*
X403600Y-118334D01*
G01X411933Y-114167D02*
X412933Y-113167D01*
X414100Y-112667D01*
X415433Y-112500D01*
X417100Y-112833D01*
X418267Y-113667D01*
X418600Y-114666D01*
X418433Y-115667D01*
X417767Y-116500D01*
X414433Y-118167D01*
X412933Y-119333D01*
X411933Y-121000D01*
X411600Y-122500D01*
X418600D01*
G01X422933Y-120500D02*
X423933Y-121667D01*
X425267Y-122333D01*
X426767Y-122500D01*
X428100Y-122333D01*
X429434Y-121500D01*
X430267Y-120500D01*
X430433Y-119500D01*
X430100Y-118334D01*
X428933Y-117500D01*
X427767Y-117167D01*
X426267D01*
G01X427767D02*
X428767Y-116667D01*
X429600Y-115834D01*
X429933Y-114833D01*
X429600Y-113833D01*
X428767Y-113000D01*
X427267Y-112500D01*
X425767Y-112667D01*
X424267Y-113334D01*
G01X438100Y-122500D02*
Y-112500D01*
X436100Y-114500D01*
G01Y-122500D02*
X440100D01*
G01X447433Y-119167D02*
X451767D01*
G01X461100Y-112500D02*
X459766Y-112833D01*
X458767Y-113667D01*
X458100Y-114666D01*
X457600Y-116000D01*
X457433Y-117500D01*
X457600Y-119000D01*
X458100Y-120334D01*
X458767Y-121334D01*
X459766Y-122167D01*
X461100Y-122500D01*
X462433Y-122167D01*
X463433Y-121334D01*
X464100Y-120334D01*
X464600Y-119000D01*
X464767Y-117500D01*
X464600Y-116000D01*
X464100Y-114666D01*
X463433Y-113667D01*
X462433Y-112833D01*
X461100Y-112500D01*
G01X472600D02*
X471267Y-112833D01*
X470267Y-113667D01*
X469600Y-114666D01*
X469100Y-116000D01*
X468933Y-117500D01*
X469100Y-119000D01*
X469600Y-120334D01*
X470267Y-121334D01*
X471267Y-122167D01*
X472600Y-122500D01*
X473933Y-122167D01*
X474933Y-121334D01*
X475600Y-120334D01*
X476100Y-119000D01*
X476267Y-117500D01*
X476100Y-116000D01*
X475600Y-114666D01*
X474933Y-113667D01*
X473933Y-112833D01*
X472600Y-112500D01*
G01X484100D02*
X482766Y-112833D01*
X481767Y-113667D01*
X481100Y-114666D01*
X480600Y-116000D01*
X480433Y-117500D01*
X480600Y-119000D01*
X481100Y-120334D01*
X481767Y-121334D01*
X482766Y-122167D01*
X484100Y-122500D01*
X485433Y-122167D01*
X486433Y-121334D01*
X487100Y-120334D01*
X487600Y-119000D01*
X487767Y-117500D01*
X487600Y-116000D01*
X487100Y-114666D01*
X486433Y-113667D01*
X485433Y-112833D01*
X484100Y-112500D01*
G01X495600D02*
X494266Y-112833D01*
X493267Y-113667D01*
X492600Y-114666D01*
X492100Y-116000D01*
X491933Y-117500D01*
X492100Y-119000D01*
X492600Y-120334D01*
X493267Y-121334D01*
X494266Y-122167D01*
X495600Y-122500D01*
X496933Y-122167D01*
X497933Y-121334D01*
X498600Y-120334D01*
X499100Y-119000D01*
X499267Y-117500D01*
X499100Y-116000D01*
X498600Y-114666D01*
X497933Y-113667D01*
X496933Y-112833D01*
X495600Y-112500D01*
G01X503933Y-118334D02*
X505100Y-117167D01*
X506100Y-116500D01*
X507433Y-116167D01*
X508600Y-116500D01*
X509433Y-117167D01*
X510100Y-118167D01*
X510267Y-119333D01*
X510100Y-120334D01*
X509433Y-121334D01*
X508433Y-122167D01*
X507267Y-122500D01*
X505933Y-122167D01*
X504767Y-121167D01*
X504100Y-119667D01*
X503933Y-118000D01*
X504267Y-115834D01*
X504767Y-114666D01*
X505600Y-113500D01*
X506767Y-112667D01*
X507933Y-112500D01*
X509100Y-112833D01*
X509934Y-113667D01*
G01X518267Y-122500D02*
X518600Y-120334D01*
X519100Y-118500D01*
X519767Y-116833D01*
X520600Y-115000D01*
X521933Y-112500D01*
X515267D01*
G01X538520Y123270D02*
X547712Y119334D01*
G02X542288Y106666I-2712J-6334D01*
G01X533095Y110603D01*
G02X538520Y123270I2712J6334D01*
G01X645867Y-153300D02*
Y-163300D01*
X652533D01*
G01X658700Y-153300D02*
X662700D01*
G01X660700D02*
Y-163300D01*
G01X658700D02*
X662700D01*
G01X669033D02*
Y-153300D01*
X675367D01*
G01X673033Y-158133D02*
X669033D01*
G01X687033Y-163300D02*
X680367D01*
Y-153300D01*
X687033D01*
G01X684367Y-158133D02*
X680367D01*
G01X693033Y-159967D02*
X697367D01*
G01X703033Y-161300D02*
X704033Y-162467D01*
X705366Y-163133D01*
X706867Y-163300D01*
X708200Y-163133D01*
X709534Y-162300D01*
X710367Y-161300D01*
X710533Y-160300D01*
X710200Y-159134D01*
X709033Y-158300D01*
X707867Y-157967D01*
X706367D01*
G01X707867D02*
X708867Y-157467D01*
X709700Y-156634D01*
X710033Y-155633D01*
X709700Y-154633D01*
X708867Y-153800D01*
X707367Y-153300D01*
X705867Y-153467D01*
X704367Y-154134D01*
G54D19*
X309882Y45268D03*
X332323D03*
X339803D03*
X347284D03*
X317362Y34638D03*
X324842D03*
X309882Y29323D03*
X324842D03*
X332323D03*
X339803D03*
X347284D03*
X309882Y24008D03*
X324842D03*
X332323D03*
X347284D03*
X309882Y18693D03*
X317362D03*
X332323D03*
X347284D03*
X354764Y34638D03*
X362244Y18693D03*
X377205D03*
X392165D03*
X399646D03*
X369724Y39953D03*
Y45268D03*
X384685D03*
X399646D03*
X414606Y18693D03*
X422087D03*
X407126D03*
Y24008D03*
Y29323D03*
X414606Y34638D03*
X422087D03*
X414606Y45268D03*
X422087D03*
G54D29*
G01X354050Y195450D02*
X355900Y197300D01*
X363271D01*
X368571Y202600D01*
X378975D01*
X380216Y203841D01*
Y232837D01*
X378732Y234321D01*
X369689D01*
X366990Y237020D01*
Y240510D01*
X365000Y242500D01*
X357126D01*
X354689Y240063D01*
M02*
