M48
INCH,TZ
T01C.008
T02C.01
T03C.011811
T04C.01811
T05C.027559
T06C.032
T07C.033
T08C.035433
T09C.03622
T10C.03937
T11C.070866
T12C.090551
T13C.137795
T14C.145669
T15C.173228
T16C.035433
T17C.049213
T18C.068898
T19C.094
T20C.15
;LEADER: 12 
;HEADER: 
;CODE  : ASCII 
;FILE  : OC_CONNECT_1_SDR_LIFE-3-1-10.drl for  ... layers TOP and BOTTOM
;DESIGN: OC_CONNECT_1_SDR_LIFE-3.brd
;T01 Holesize 1. = 8.000000 Tolerance = +3.000000/-8.000000 PLATED MILS Quantity = 244
;T02 Holesize 2. = 10.000000 Tolerance = +3.000000/-10.000000 PLATED MILS Quantity = 1913
;T03 Holesize 3. = 11.811000 Tolerance = +3.000000/-11.811000 PLATED MILS Quantity = 12
;T04 Holesize 4. = 18.110000 Tolerance = +2.000000/-2.000000 PLATED MILS Quantity = 96
;T05 Holesize 5. = 27.559000 Tolerance = +3.000000/-3.000000 PLATED MILS Quantity = 5
;T06 Holesize 6. = 32.000000 Tolerance = +3.000000/-3.000000 PLATED MILS Quantity = 5
;T07 Holesize 7. = 33.000000 Tolerance = +3.000000/-3.000000 PLATED MILS Quantity = 10
;T08 Holesize 8. = 35.433000 Tolerance = +3.000000/-3.000000 PLATED MILS Quantity = 17
;T09 Holesize 9. = 36.220000 Tolerance = +3.000000/-3.000000 PLATED MILS Quantity = 4
;T10 Holesize 10. = 39.370000 Tolerance = +3.000000/-3.000000 PLATED MILS Quantity = 4
;T11 Holesize 11. = 70.866000 Tolerance = +3.000000/-3.000000 PLATED MILS Quantity = 2
;T12 Holesize 12. = 90.551000 Tolerance = +3.000000/-3.000000 PLATED MILS Quantity = 2
;T13 Holesize 13. = 137.795000 Tolerance = +3.000000/-3.000000 PLATED MILS Quantity = 1
;T14 Holesize 14. = 145.669000 Tolerance = +3.000000/-3.000000 PLATED MILS Quantity = 7
;T15 Holesize 15. = 173.228000 Tolerance = +3.000000/-3.000000 PLATED MILS Quantity = 2
;T16 Holesize 16. = 35.433000 Tolerance = +2.000000/-2.000000 NON_PLATED MILS Quantity = 6
;T17 Holesize 17. = 49.213000 Tolerance = +2.000000/-2.000000 NON_PLATED MILS Quantity = 3
;T18 Holesize 18. = 68.898000 Tolerance = +2.000000/-2.000000 NON_PLATED MILS Quantity = 1
;T19 Holesize 19. = 94.000000 Tolerance = +2.000000/-2.000000 NON_PLATED MILS Quantity = 1
;T20 Holesize 20. = 150.000000 Tolerance = +2.000000/-2.000000 NON_PLATED MILS Quantity = 1
%
G90
T01
X349504Y115105
X324320Y115109
X324319Y118260
X327470Y115110
X327469Y118260
X327464Y111955
X330619Y111960
X330614Y115105
X330619Y118260
X333769Y118260
X333769Y115110
X333769Y111960
X340049Y111960
X343204Y127695
X346349Y124540
X346354Y127695
X349498Y124540
X346354Y130845
X349505Y127695
X346354Y133995
X349504Y130845
X346354Y137145
X349504Y133995
X346354Y140295
X349504Y137145
X330619Y124540
X333769Y127690
X327469Y124540
X330619Y127690
X340054Y137145
X340054Y130845
X340055Y127695
X333764Y133995
X330614Y140294
X327464Y137145
X330614Y137145
X327464Y133995
X330614Y133995
X327464Y130845
X318021Y140288
X330614Y130845
X327469Y127690
X349499Y118260
X346354Y115105
X352649Y118260
X346354Y111955
X352649Y115110
X321171Y111959
X321171Y115109
X321171Y118258
X321169Y124540
X346349Y118260
X343204Y111955
X340049Y115110
X343204Y115105
X340049Y118260
X321100Y108900
X355804Y137145
X352654Y111955
X355804Y127695
X355799Y124540
X318019Y124540
X318014Y127695
X333769Y105660
X330614Y105655
X321164Y130845
X321164Y133995
X349504Y108805
X346354Y108805
X340049Y108810
X340049Y105660
X327464Y108805
X330614Y108805
X327464Y105655
X349504Y111955
X333769Y140290
X321164Y137145
X343204Y140295
X321164Y127695
X330614Y102505
X327600Y102400
X324314Y102505
X321164Y102505
X343204Y102505
X349504Y102505
X346354Y102505
X333769Y102510
X352654Y102505
X340049Y133990
X343204Y130845
X352649Y124540
X343199Y124540
X352654Y127695
X352654Y130845
X352654Y133995
X327464Y140295
X333769Y124540
X333769Y130840
X333769Y137140
X340049Y140290
X343204Y133995
X349504Y140295
X352654Y137145
X352654Y140295
X324314Y137145
X324314Y130845
X324314Y127695
X324319Y124540
X318019Y118260
X318014Y115105
X321164Y140295
X324314Y140295
X324314Y133995
X324314Y105655
X316514Y111955
X321164Y105655
X343199Y118260
X333769Y108810
X343204Y105655
X343204Y108805
X349504Y105655
X346354Y105655
X355804Y115105
X355799Y118260
X355804Y111955
X352654Y108805
X352654Y105655
X324314Y111955
X324314Y108805
X468673Y360024
X437177Y356874
X459224Y360024
X449776Y360024
X452925Y356874
X443476Y363173
X468673Y356874
X446626Y331677
X446626Y341126
X446626Y344276
X446626Y353724
X449776Y353724
X440327Y344276
X443476Y344276
X449776Y350575
X452925Y334827
X449776Y337976
X459224Y334827
X446626Y337976
X462374Y334827
X465524Y331677
X452925Y363173
X437177Y363173
X437177Y350575
X471823Y360024
X471823Y341126
X443476Y353724
X465524Y334827
X452925Y341126
X468673Y331677
X465524Y353724
X443476Y360024
X449776Y363173
X459224Y331677
X459224Y366323
X440327Y366323
X468673Y363173
X471823Y350575
X437177Y341126
X437177Y334827
X468673Y334827
X440327Y356874
X462374Y331677
X446626Y350575
X449776Y344276
X459224Y344276
X440327Y337976
X468673Y337976
X437177Y360024
X446626Y356874
X437177Y337976
X449776Y341126
X443476Y341126
X452925Y337976
X443476Y337976
X468673Y350575
X437177Y353724
X462374Y341126
X440327Y341126
X459224Y350575
X465524Y350575
X459224Y341126
X459224Y337976
X465524Y344276
X468673Y344276
X465524Y341126
X468673Y341126
X462374Y350575
X471823Y334827
X465524Y337976
X452925Y344276
X443476Y356874
X462374Y337976
X440327Y350575
X462374Y344276
X440327Y334827
X465524Y366323
X468673Y366323
X449776Y334827
X449776Y356874
X459224Y353724
X462374Y353724
X452925Y350575
X465524Y356874
X452925Y366323
X440327Y360024
X452925Y360024
X446626Y360024
X449776Y366323
X443476Y350575
X471823Y356874
X471823Y353724
X443476Y366323
X446626Y366323
X462374Y360024
X440327Y353724
X452925Y331677
X437177Y331677
X440327Y331677
X443476Y331677
X437177Y344276
X443476Y334827
X446626Y334827
X437177Y366323
X459224Y363173
X452925Y353724
X440327Y363173
X471823Y331677
X471823Y344276
X462374Y356874
X462374Y366323
X465524Y363173
X462374Y363173
X446626Y363173
X468673Y353724
T02
X51700Y84800
X79500Y118500
X84500Y118500
X26310Y159110
X70810Y127000
X79500Y173500
X82023Y162023
X51250Y160250
X59500Y169000
X62500Y170000
X49250Y155710
X67650Y155480
X77790Y139450
X67780Y131150
X37850Y144550
X37590Y134140
X54585Y159915
X64500Y161500
X60000Y160000
X26740Y152960
X87000Y179500
X76500Y162500
X26000Y184300
X49652Y127652
X85500Y109000
X57765Y100765
X52500Y106500
X60500Y94000
X50500Y112500
X59000Y107435
X63500Y107000
X77550Y143950
X74500Y118000
X77940Y131500
X65900Y117910
X70150Y117880
X37910Y130550
X37630Y140550
X71750Y155820
X45150Y155880
X77730Y135450
X72000Y105500
X79000Y105500
X75500Y105500
X4700Y106900
X4700Y116900
X4700Y166900
X4700Y176900
X79448Y210566
X63500Y211000
X79448Y224739
X67500Y229500
X68500Y272000
X69700Y282500
X70000Y215000
X64000Y266000
X79500Y192000
X79448Y215290
X58013Y226706
X62500Y228500
X54500Y192500
X87322Y220015
X87322Y224739
X62500Y192500
X79448Y262300
X80000Y186500
X87322Y210566
X67000Y205500
X71574Y238678
X87322Y238678
X71574Y243402
X39900Y260400
X23050Y283860
X24800Y265000
X63023Y275123
X63023Y279523
X85800Y267377
X59748Y243372
X59748Y239128
X87322Y243402
X60000Y219500
X55203Y264923
X69800Y188090
X59000Y279500
X44520Y264923
X32500Y266000
X76377Y267377
X45000Y192500
X50000Y191360
X79448Y252851
X79448Y257576
X87322Y262300
X71574Y262300
X71574Y220015
X71574Y229464
X79448Y243402
X79448Y248127
X79448Y238678
X71574Y248127
X87322Y248127
X79448Y220015
X87322Y201117
X87322Y205842
X79448Y229464
X87322Y229464
X4700Y186900
X4700Y196900
X4700Y206900
X4700Y216900
X4700Y226900
X4700Y236900
X4700Y246900
X4700Y256900
X4700Y266900
X4700Y276900
X80200Y321200
X58198Y367128
X58198Y371372
X37340Y285677
X69650Y286180
X76537Y372870
X80000Y372500
X73100Y359300
X84500Y321000
X78000Y359000
X4700Y326900
X4700Y316900
X4700Y306900
X4700Y336900
X4700Y286900
X4700Y296900
X4700Y346900
X4700Y356900
X4700Y366900
X49700Y410000
X59700Y410000
X69700Y410000
X79700Y410000
X89700Y410000
X99700Y410000
X109700Y410000
X155500Y291000
X150500Y295500
X160808Y327400
X170130Y341360
X100000Y296500
X188170Y343500
X179540Y320090
X144500Y321626
X121800Y343100
X121670Y323500
X121670Y327000
X121800Y339600
X181000Y305000
X185890Y295210
X184500Y318000
X97752Y368372
X168485Y326300
X97752Y364128
X144600Y329600
X144600Y333100
X144500Y325126
X93000Y345220
X88500Y344960
X112120Y323500
X112190Y327000
X112030Y339500
X111980Y343000
X97500Y345250
X177871Y346040
X170802Y346092
X147615Y328415
X174200Y307800
X146400Y340500
X88500Y354890
X156900Y317800
X135000Y345500
X139080Y310140
X164000Y344500
X153000Y323600
X153400Y305800
X165600Y305900
X176400Y319870
X158190Y346280
X167000Y346000
X150000Y330600
X135860Y309900
X101726Y325874
X134509Y329214
X179200Y313800
X182640Y291910
X155690Y327700
X134500Y332000
X143300Y346500
X131400Y345600
X134400Y326516
X134500Y323000
X97500Y354850
X93000Y355050
X96000Y371500
X96000Y361000
X91074Y325874
X188250Y347000
X171300Y295880
X175400Y295720
X163000Y295600
X141220Y218980
X124095Y238678
X140500Y238776
X140500Y243500
X124095Y243402
X139843Y252851
X139843Y257576
X147717Y243402
X155592Y243402
X124095Y224739
X185750Y243030
X131969Y224739
X155592Y252851
X166035Y253000
X155592Y257576
X169372Y251478
X95196Y262300
X155906Y262614
X116221Y262300
X131969Y262300
X147959Y262541
X140280Y224920
X116221Y224739
X108347Y224739
X100473Y224739
X90660Y264460
X100473Y220015
X101500Y215500
X108347Y215290
X139843Y210566
X124095Y210566
X93760Y214260
X99260Y196260
X116221Y201117
X131969Y201117
X131969Y205842
X95196Y205842
X116221Y205842
X95196Y201117
X147717Y220015
X147717Y215290
X155592Y215290
X155592Y220015
X155592Y210566
X147717Y210566
X155592Y224739
X147717Y224739
X126000Y278500
X174730Y280890
X141700Y186200
X123500Y267000
X125500Y258000
X103070Y238678
X103070Y243402
X177410Y186590
X125500Y253500
X134800Y188600
X151080Y267840
X141500Y233000
X135600Y272260
X136500Y192500
X133500Y234000
X145800Y186300
X128000Y265500
X116221Y220015
X116221Y215290
X124095Y220015
X124095Y215290
X131969Y220015
X131969Y215290
X180523Y191477
X98800Y265400
X101300Y282300
X109500Y219500
X95196Y238678
X95196Y243402
X95196Y248127
X95196Y252851
X95196Y257576
X94000Y211000
X95196Y229464
X169240Y217500
X171300Y220580
X103070Y262300
X124095Y262300
X139843Y262300
X116221Y257576
X116221Y252851
X116221Y248127
X116221Y243402
X116221Y238678
X103070Y248127
X103070Y201240
X102739Y205511
X103070Y229464
X116221Y229464
X124095Y229464
X131969Y229464
X139843Y229464
X124095Y205842
X124095Y201117
X139843Y205842
X139843Y201117
X131969Y210566
X116221Y210566
X147717Y205842
X124095Y248127
X155592Y238678
X147717Y238678
X139843Y248127
X131969Y238678
X131969Y243402
X131969Y248127
X131969Y252851
X131969Y257576
X147717Y257576
X147717Y252851
X147717Y248127
X155592Y248127
X94026Y223949
X90500Y179600
X107406Y177594
X139000Y184000
X176400Y122890
X173500Y130000
X262500Y20000
X266500Y20000
X262500Y16500
X266500Y16500
X97000Y114500
X97000Y118500
X253250Y19930
X257840Y20080
X255850Y16310
X100130Y118550
X100130Y114550
X268360Y42470
X268710Y54230
X268830Y50000
X268690Y38000
X176800Y117070
X185500Y166000
X184500Y169000
X156500Y179270
X161020Y179280
X161220Y174930
X156450Y174900
X161270Y171090
X156500Y171000
X158860Y181180
X258170Y38080
X125000Y185000
X258290Y50000
X156500Y156000
X152000Y156000
X152000Y151500
X156500Y151500
X160500Y156000
X160500Y151500
X121500Y128500
X126500Y133500
X126500Y128500
X116500Y128500
X116500Y133500
X121500Y133000
X113060Y155090
X113060Y159570
X113300Y150500
X108800Y159500
X108800Y155000
X108800Y150500
X108800Y164000
X113300Y164000
X113340Y167380
X108840Y167380
X160500Y119500
X100823Y174677
X101000Y179500
X129200Y184900
X258440Y54000
X177500Y169500
X177000Y174000
X258170Y42000
X183900Y118600
X144000Y119500
X176300Y102420
X148000Y119500
X179500Y130000
X180400Y137100
X170500Y132500
X268500Y33000
X241000Y23500
X226000Y23000
X240500Y39000
X226000Y39000
X270500Y29000
X259300Y27300
X258500Y33000
X274000Y45000
X273574Y33406
X137000Y141500
X160500Y166000
X176590Y161020
X180000Y141538
X156000Y127000
X153968Y114468
X179500Y107500
X135500Y123000
X158310Y142600
X104340Y164490
X234000Y185500
X203000Y103500
X200523Y99023
X203000Y118500
X187000Y50500
X198000Y105000
X230500Y94500
X264000Y159000
X280000Y178000
X195000Y177400
X243625Y149675
X203500Y88500
X210500Y173000
X218000Y185600
X269000Y91500
X226000Y88500
X217500Y92500
X227500Y116500
X211500Y132000
X229120Y123890
X285500Y112500
X215420Y180020
X188480Y169870
X222123Y126720
X239000Y109500
X232880Y122850
X221640Y87950
X217000Y87500
X269000Y159000
X202000Y124500
X281086Y95354
X223500Y144000
X279900Y134813
X235800Y166100
X202000Y110500
X256200Y147000
X256400Y152000
X284500Y158000
X278355Y171855
X210000Y182480
X205500Y183400
X278500Y162000
X200200Y85800
X204876Y109966
X282800Y180100
X226000Y130000
X219000Y97000
X269800Y147000
X134500Y40000
X120000Y41000
X134500Y24500
X119000Y25000
X196500Y282500
X265500Y192000
X209000Y283000
X214000Y283500
X220000Y283737
X214000Y225400
X224835Y201525
X197640Y279220
X212773Y214400
X234500Y276000
X278000Y187000
X267500Y194500
X280500Y197500
X277080Y231260
X278245Y235255
X229930Y263350
X207340Y250550
X223230Y268530
X215490Y249170
X193000Y194400
X205000Y194400
X209800Y261800
X210500Y279000
X207360Y267210
X203500Y284600
X200482Y284518
X271130Y225460
X271000Y217000
X197650Y261800
X209130Y245580
X270800Y213740
X270865Y222165
X273600Y209130
X207655Y214055
X216630Y235790
X207655Y235506
X233850Y263110
X249500Y236000
X282000Y208000
X217891Y225400
X201800Y238600
X223500Y235000
X235550Y222050
X214500Y261500
X242000Y268300
X231500Y268400
X232870Y283290
X260500Y256000
X255880Y260620
X234000Y219000
X223000Y225000
X210740Y250360
X276000Y269000
X215100Y271100
X197800Y271100
X197522Y267622
X217100Y280180
X197800Y249800
X198100Y254300
X218600Y263260
X215600Y254800
X268900Y257500
X269200Y251900
X267000Y246400
X198000Y186400
X197500Y203900
X193000Y204530
X205000Y245040
X220450Y214200
X218200Y194400
X212800Y245400
X217730Y245290
X210700Y194400
X226500Y223000
X245200Y257703
X241200Y257703
X238460Y260610
X249200Y257703
X223100Y264110
X274500Y221000
X277000Y205000
X203000Y302000
X233475Y340575
X231370Y343000
X235500Y353005
X228500Y354500
X225250Y354750
X231500Y362500
X257000Y345000
X260700Y357000
X259500Y362500
X223265Y341735
X251500Y376000
X261000Y340500
X200750Y340250
X270000Y314500
X222290Y287550
X211000Y287000
X228000Y341500
X216020Y341310
X236670Y338000
X234600Y328340
X234000Y325000
X216455Y331055
X220870Y330970
X224850Y331210
X214980Y297000
X218960Y297100
X222495Y297095
X226160Y297170
X229200Y331230
X233140Y331200
X232500Y297000
X217000Y287500
X225720Y286740
X284000Y344000
X278000Y344000
X269000Y320109
X214000Y353400
X250200Y364800
X204500Y306500
X199500Y295500
X214000Y358518
X211500Y355959
X258000Y325227
X226500Y363000
X193000Y317500
X207560Y314890
X211000Y352000
X269214Y327786
X190044Y322928
X279410Y321780
X279106Y330345
X192500Y340000
X266100Y322668
X244845Y313345
X257500Y329500
X247660Y332634
X237270Y294000
X264000Y348000
X282200Y336200
X220300Y340810
X261850Y334350
X202080Y352460
X256690Y356890
X257000Y351000
X256690Y360420
X210500Y330500
X188500Y318000
X203500Y295000
X214277Y345723
X256500Y348000
X287500Y302000
X257800Y317550
X238140Y320340
X243220Y330330
X274250Y359750
X212400Y341400
X237410Y290330
X245875Y388735
X215000Y389500
X229960Y392500
X242670Y392390
X207500Y388000
X209700Y410000
X189700Y410000
X199700Y410000
X219700Y410000
X239700Y410000
X371000Y392500
X366500Y392500
X328900Y386500
X328900Y391000
X308400Y386000
X308400Y391300
X298200Y411100
X308200Y411100
X318200Y411100
X328200Y411100
X338200Y411100
X348200Y411100
X358200Y411100
X368200Y411100
X378200Y411100
X388200Y411100
X386190Y292020
X359818Y292082
X354500Y291000
X333735Y311100
X331762Y292500
X335498Y292500
X330000Y311100
X342000Y293500
X328170Y293120
X345000Y294000
X289000Y344000
X306710Y313910
X372107Y340623
X370150Y349040
X367107Y348932
X339607Y321137
X375360Y340510
X329000Y366500
X364607Y321137
X342107Y312827
X367107Y312827
X349607Y321137
X354607Y321137
X357820Y339750
X357107Y312827
X319000Y375000
X348500Y374500
X319000Y366500
X359607Y321137
X378065Y312685
X344607Y321137
X377107Y348932
X379607Y321137
X372107Y312827
X323121Y288116
X364000Y312650
X292150Y335850
X356490Y349040
X352107Y312827
X369607Y321137
X300000Y305500
X301000Y315000
X301000Y321000
X318500Y323000
X301000Y333000
X362492Y294732
X358500Y294800
X364560Y339440
X367500Y339600
X361370Y339410
X309700Y341320
X347107Y312827
X374607Y321137
X372510Y354813
X372520Y359940
X329000Y375000
X350500Y371500
X349500Y378000
X369500Y373500
X291060Y314680
X310930Y324050
X350000Y367500
X349500Y384000
X335000Y363800
X334950Y360840
X309920Y298290
X317540Y287410
X323300Y314300
X360808Y310000
X348500Y294800
X289000Y328800
X319000Y370500
X319000Y379500
X365000Y299500
X289000Y325200
X289000Y317700
X294500Y294000
X316048Y346048
X291500Y307500
X316000Y317140
X292000Y325500
X291270Y320990
X309210Y326970
X316500Y335370
X288800Y333000
X340095Y384094
X339000Y369500
X338941Y287307
X331067Y287307
X327130Y287307
X339000Y379500
X339000Y374500
X370437Y287307
X354689Y287307
X362563Y287307
X346815Y287307
X350752Y287307
X358626Y287307
X387000Y369500
X387000Y373500
X385500Y379500
X363500Y373000
X308500Y357500
X308500Y362000
X296500Y288500
X328730Y308380
X331067Y224315
X327130Y200693
X331067Y208567
X331067Y204630
X346815Y216441
X327130Y220378
X335004Y228252
X335004Y208567
X342878Y220378
X338941Y224315
X331067Y216441
X346815Y224315
X316000Y190500
X293000Y225500
X293000Y230500
X354689Y208567
X338941Y212504
X335004Y212504
X339155Y204845
X338941Y200693
X331067Y200693
X323193Y200693
X323193Y204630
X335004Y204630
X338941Y220378
X335004Y224315
X354689Y275496
X354689Y279433
X354689Y267622
X350752Y271559
X346815Y267622
X342878Y275496
X305790Y265440
X302500Y265654
X358626Y275496
X335004Y279433
X338941Y283370
X346815Y283370
X350752Y279433
X354689Y283370
X362563Y283370
X331067Y228252
X313000Y197980
X327130Y216441
X323193Y224315
X327130Y228252
X294606Y195819
X327130Y212504
X327130Y208567
X311340Y203100
X323193Y212504
X354689Y212504
X350624Y212376
X350752Y208567
X350752Y200693
X342878Y212504
X346874Y208626
X312550Y209650
X346815Y220378
X346815Y212504
X347500Y198000
X343023Y196977
X354689Y216441
X295400Y203100
X350752Y220378
X350752Y204630
X342878Y224315
X342878Y228252
X338941Y216441
X350752Y267622
X346815Y275496
X346815Y279433
X342878Y267622
X342878Y271559
X290500Y283080
X298500Y197600
X299430Y190500
X299500Y203100
X370437Y247937
X299000Y208100
X335004Y251874
X323193Y228252
X335004Y236126
X335004Y216441
X382248Y204630
X374374Y208567
X374374Y204630
X386185Y271559
X386185Y224315
X374374Y267622
X382248Y279433
X378311Y267622
X374374Y279433
X382248Y275496
X386185Y267622
X382248Y247937
X374374Y271559
X378311Y275496
X382248Y224315
X378311Y247937
X323193Y283370
X335004Y267622
X331067Y259748
X331067Y271559
X386185Y275496
X386185Y200693
X378311Y279433
X382248Y200693
X378311Y204630
X382248Y267622
X374374Y200693
X386185Y208567
X378311Y251874
X386185Y204630
X362563Y228252
X370437Y232189
X370437Y240063
X370437Y259748
X370437Y251874
X378311Y208567
X374374Y240063
X378311Y271559
X378311Y259748
X378311Y224315
X374374Y259748
X386185Y255811
X382248Y255811
X323193Y263685
X335004Y255811
X370437Y208567
X374374Y251874
X358626Y216441
X382248Y232189
X354689Y204630
X378311Y216441
X358626Y204630
X386185Y263685
X378311Y212504
X370437Y212504
X362563Y200693
X358626Y212504
X382248Y263685
X370437Y200693
X374374Y263685
X358626Y200693
X386185Y212504
X374374Y216441
X335004Y259748
X331067Y247937
X323193Y267622
X386185Y232189
X323193Y251874
X323193Y255811
X342878Y247937
X386185Y247937
X357870Y192770
X354689Y220378
X378311Y255811
X370437Y220378
X311500Y267500
X378311Y200693
X378311Y240063
X323193Y236126
X335004Y240063
X323193Y279433
X317500Y283000
X317500Y278000
X370437Y267622
X370437Y224315
X374374Y212504
X358626Y208567
X386185Y216441
X382248Y228252
X327130Y267622
X331067Y255811
X342878Y259748
X374374Y255811
X386185Y259748
X358626Y251874
X362700Y192680
X358626Y220378
X362563Y220378
X372510Y192690
X370437Y236126
X382248Y212504
X354689Y251874
X358626Y240063
X367700Y193100
X358626Y247937
X354050Y195450
X354689Y240063
X370437Y216441
X374374Y224315
X374374Y228252
X374374Y220378
X362563Y263685
X370437Y271559
X362563Y208567
X317193Y227685
X317193Y245685
X317193Y239685
X317193Y233685
X317526Y263660
X317193Y257685
X317193Y251685
X346815Y236126
X346815Y247937
X350752Y251874
X346815Y255811
X354689Y255811
X362563Y247937
X362563Y236126
X350752Y232189
X358626Y232189
X354689Y228252
X358626Y224315
X362563Y255811
X350752Y259748
X358626Y259748
X346815Y228252
X350752Y240063
X350752Y224315
X335004Y200693
X337700Y194000
X332700Y194000
X347700Y194000
X342700Y194000
X327130Y224315
X331067Y212504
X338941Y228252
X346815Y204630
X342878Y216441
X378311Y283370
X382248Y271559
X362563Y204630
X362563Y212504
X374374Y247937
X374374Y232189
X370437Y228252
X350752Y283370
X296500Y242000
X296500Y246000
X296500Y253000
X296500Y258500
X296500Y264500
X296500Y270000
X296500Y275500
X296500Y283500
X323193Y259748
X338941Y263685
X338941Y267622
X335004Y271559
X335004Y275496
X331067Y275496
X331067Y279433
X331067Y283370
X327130Y247937
X338941Y271559
X370437Y263685
X358626Y263685
X354689Y263685
X350752Y263685
X346815Y263685
X342878Y263685
X362563Y267622
X362563Y271559
X374374Y275496
X370437Y275496
X370437Y279433
X358626Y279433
X370437Y283370
X350752Y236126
X342878Y236126
X362563Y240063
X346815Y240063
X350752Y247937
X362563Y251874
X346815Y251874
X358626Y255811
X370437Y255811
X350752Y255811
X362563Y259748
X354689Y259748
X346815Y259748
X354689Y247937
X358626Y283370
X362563Y275496
X362563Y279433
X298500Y220600
X296500Y225500
X296450Y229700
X323193Y216441
X354689Y200693
X354689Y224315
X362563Y224315
X362563Y232189
X354689Y232189
X346815Y232189
X358626Y228252
X350752Y228252
X362563Y216441
X386185Y279433
X370437Y204630
X338941Y208567
X335004Y220378
X331067Y232189
X338941Y251874
X327130Y204630
X378311Y220378
X382248Y251874
X382248Y208567
X350752Y216500
X386185Y236126
X378311Y263685
X346815Y271559
X350752Y275496
X354689Y271559
X342878Y279433
X387800Y192500
X382800Y192500
X296500Y233000
X354689Y236126
X358626Y236126
X358626Y267622
X358626Y271559
X335004Y283370
X386185Y220378
X327130Y271559
X327130Y275496
X323193Y271559
X323193Y275496
X342878Y232189
X338941Y236126
X338941Y240063
X338941Y247937
X335004Y247937
X342878Y251874
X342878Y255811
X331067Y240063
X327130Y240063
X323193Y240063
X323193Y247937
X331067Y251874
X335004Y263685
X327130Y251874
X327130Y255811
X327130Y259748
X327130Y263685
X382248Y259748
X382248Y240063
X386185Y240063
X374374Y236126
X386185Y251874
X378311Y236126
X386185Y228252
X378311Y232189
X378311Y228252
X338941Y255811
X338941Y259748
X382248Y236126
X316890Y93190
X356500Y178500
X316500Y185500
X359500Y160000
X357000Y163000
X327000Y87000
X320000Y86500
X436000Y39050
X436000Y34500
X440800Y52700
X303500Y172000
X361050Y174340
X368770Y161120
X316750Y174750
X451770Y42050
X299000Y171500
X480500Y51000
X476000Y51000
X480500Y55000
X475500Y55500
X386500Y168500
X383160Y167660
X313500Y163500
X377800Y183200
X372390Y169150
X372270Y173980
X367620Y178520
X372550Y178200
X314000Y167500
X382000Y175000
X381840Y170840
X436500Y45000
X308500Y166000
X305890Y167485
X329190Y93300
X326000Y167500
X288500Y160500
X290234Y135266
X305500Y86500
X308500Y86500
X291000Y159000
X294000Y114500
X376000Y91000
X369500Y91500
X369800Y88200
X338800Y95800
X359500Y109500
X474500Y23000
X459000Y23000
X474000Y39500
X458500Y39000
X447600Y49209
X447500Y45000
X354800Y183200
X373860Y159720
X374984Y147483
X300000Y163000
X365381Y97500
X293290Y118000
X338260Y154840
X300000Y128500
X310500Y149500
X307000Y148500
X358550Y91450
X347800Y94800
X351200Y94800
X336000Y171000
X336000Y176000
X331000Y176000
X331000Y171000
X358040Y183200
X346000Y171000
X341000Y171000
X362700Y183200
X311930Y185040
X296147Y184927
X367700Y183200
X372700Y183200
X293900Y123500
X309500Y89500
X425000Y183500
X392000Y108430
X400610Y96340
X397500Y97500
X370000Y56000
X409230Y88100
X465080Y182800
X413500Y169500
X425550Y174450
X425500Y169450
X425500Y179450
X417656Y159600
X409500Y170500
X355000Y54000
X405500Y167500
X409250Y150800
X432000Y152500
X401500Y145000
X406000Y159600
X414000Y99810
X469000Y182500
X440000Y90000
X402000Y135500
X460000Y154000
X456330Y154360
X458010Y151730
X425640Y143000
X440500Y96500
X472000Y147500
X474500Y119500
X488413Y127413
X405000Y152500
X484953Y181953
X484953Y179000
X484953Y176047
X482000Y181953
X479047Y181953
X482000Y179000
X479047Y179000
X482000Y176047
X479047Y176047
X417500Y124000
X396908Y148592
X416000Y174000
X406700Y173200
X466220Y141478
X461720Y141478
X471000Y161000
X471000Y157700
X465000Y157700
X465000Y161000
X468000Y159000
X442500Y151759
X442500Y142500
X397000Y169000
X436110Y152050
X439000Y166500
X439270Y172900
X439000Y182500
X425500Y159970
X439000Y177000
X439000Y159500
X439000Y155000
X451500Y179000
X449500Y176700
X470000Y91500
X443000Y108500
X470500Y112500
X467500Y109500
X470450Y107990
X464500Y108000
X464500Y112500
X409807Y263685
X405870Y263685
X405870Y271559
X405870Y275496
X405870Y283370
X397996Y275496
X397996Y271559
X394059Y279433
X397996Y279433
X390122Y279433
X390122Y275496
X397996Y267622
X464730Y187470
X427340Y223290
X467450Y219450
X405870Y267622
X471000Y188500
X473450Y195650
X409807Y228252
X440000Y218400
X473860Y208699
X409807Y232189
X397996Y224315
X422350Y198880
X401933Y279433
X390122Y283370
X409807Y275496
X401933Y267622
X394059Y271559
X394059Y267622
X401933Y275496
X409807Y271559
X390122Y271559
X409807Y283370
X415000Y259500
X415000Y264000
X390122Y251874
X409807Y279433
X405870Y208567
X390122Y259748
X409807Y208567
X467500Y234000
X409807Y240063
X397996Y251874
X397996Y259748
X394059Y240063
X394059Y251874
X401933Y204630
X405870Y220378
X409807Y212504
X405870Y212504
X394059Y263685
X397996Y228252
X390122Y200693
X394059Y247937
X401933Y255811
X390122Y216441
X414811Y212500
X394059Y216441
X397996Y236126
X394059Y259748
X401933Y240063
X397996Y255811
X394059Y236126
X409807Y255811
X390122Y255811
X390122Y263685
X401933Y236126
X401933Y259748
X409807Y259748
X409807Y216441
X405870Y224315
X405870Y228252
X397996Y232189
X401933Y232189
X405870Y232189
X405870Y251874
X401933Y263685
X405870Y247937
X405870Y240063
X409807Y251874
X405870Y255811
X414560Y223470
X474000Y202500
X424054Y226654
X407800Y192500
X402800Y192500
X412800Y194000
X417800Y194000
X421300Y209200
X409807Y224315
X414500Y237500
X414000Y241500
X414240Y231680
X390122Y247937
X401933Y208567
X397996Y220378
X401933Y251874
X405870Y236126
X390122Y204630
X394059Y232189
X397996Y263685
X485000Y231840
X482700Y236800
X466589Y238649
X397996Y247937
X401933Y247937
X409807Y236126
X431850Y224320
X415339Y281090
X415339Y276090
X409807Y267622
X394059Y275496
X405870Y279433
X401933Y200693
X474500Y238000
X476141Y251141
X476940Y236370
X468500Y260500
X479500Y227700
X479502Y232393
X397996Y240063
X397996Y200693
X409807Y204630
X434900Y280400
X434900Y232900
X405870Y216441
X397996Y283370
X409807Y247937
X394059Y212504
X401933Y228252
X390122Y224315
X401933Y271559
X390122Y267622
X394059Y255811
X405870Y259748
X392800Y194000
X397800Y194000
X474000Y231300
X471782Y236382
X474760Y258000
X464500Y217000
X465000Y210500
X464500Y204500
X464500Y201000
X464500Y197000
X451500Y206000
X451500Y201500
X451500Y196500
X426000Y197500
X426000Y201000
X439000Y195000
X439500Y201000
X440040Y188620
X390122Y208567
X405870Y204630
X401933Y224315
X390122Y228252
X390122Y236126
X390122Y232189
X394059Y228252
X394059Y224315
X390122Y220378
X394059Y220378
X394059Y204630
X394059Y200693
X390122Y212504
X397996Y204630
X394059Y208567
X397996Y208567
X397996Y212504
X401933Y212504
X401933Y220378
X401933Y216441
X405870Y200693
X409807Y200693
X390122Y240063
X433390Y375770
X390960Y300430
X404500Y310500
X397045Y305455
X405870Y287307
X422240Y311430
X424300Y322500
X427125Y331125
X427340Y336000
X393600Y290900
X423149Y303351
X427500Y361000
X427500Y356000
X427500Y351000
X415000Y380000
X418500Y379988
X484000Y337500
X484100Y372300
X484420Y361000
X460250Y324750
X484000Y332500
X427500Y370000
X406000Y373500
X406500Y364500
X428940Y376560
X468000Y377500
X430700Y355900
X413850Y326020
X413532Y335986
X417500Y346000
X427500Y346000
X417500Y373500
X484500Y383500
X406000Y299860
X415339Y286090
X390200Y287200
X484500Y380000
X422490Y308000
X451400Y377400
X483700Y348810
X483720Y354000
X483800Y344000
X477500Y305500
X463880Y324880
X409807Y287307
X390500Y369500
X390100Y373500
X417500Y361000
X417500Y351000
X417500Y356000
X417500Y366000
X417500Y341000
X457000Y304382
X445000Y304382
X457000Y309500
X445000Y309500
X461347Y377000
X464240Y390590
X416000Y390170
X444500Y389700
X436500Y386350
X440000Y386350
X448000Y389700
X477930Y387000
X433500Y390500
X475660Y391470
X433390Y387090
X450500Y387000
X454530Y392380
X469500Y386500
X473000Y386800
X398200Y411100
X408200Y411100
X418200Y411100
X428200Y411100
X438200Y411100
X448200Y411100
X458200Y411100
X468200Y411100
X478200Y411100
X488500Y411200
X498500Y411200
X508500Y411200
X547400Y340400
X581500Y339020
X556000Y311320
X552500Y311300
X584280Y303000
X584170Y299500
X584390Y295850
X565000Y338221
X584930Y286430
X552000Y327000
X527000Y337000
X531000Y337000
X526500Y343000
X531000Y343000
X491214Y383214
X488500Y356900
X584110Y306610
X554493Y294497
X557000Y299000
X580630Y308520
X543000Y294500
X547500Y300500
X564900Y287200
X572602Y293272
X570700Y291400
X573000Y289000
X568665Y293272
X568665Y289335
X568704Y286836
X566600Y291300
X572500Y286000
X564728Y293272
X578480Y334290
X585500Y338940
X586330Y326550
X571000Y316500
X574000Y319500
X568000Y319500
X571000Y319500
X574000Y316500
X568000Y316500
X571000Y313500
X574000Y313500
X568000Y313500
X577105Y298105
X555580Y301870
X552360Y301540
X548620Y306690
X544500Y304000
X528563Y307713
X536437Y307713
X528563Y289687
X493000Y332500
X493000Y337500
X492580Y361000
X493180Y349000
X493200Y344000
X490200Y375300
X546200Y317200
X542630Y324600
X493012Y254987
X560000Y280080
X495680Y185820
X495500Y221000
X495210Y216000
X566260Y190411
X573800Y191070
X580780Y191230
X577200Y191100
X584210Y191250
X584000Y211500
X560500Y207000
X584000Y207000
X580000Y207000
X576000Y207000
X572000Y207000
X527000Y284500
X489900Y204590
X556100Y220800
X552200Y220800
X548300Y220800
X548300Y225700
X552000Y225500
X556000Y225500
X491000Y211500
X494900Y260710
X494500Y236500
X494738Y240100
X545000Y263500
X549000Y263500
X549000Y266500
X545000Y266500
X488660Y248002
X498400Y246900
X546650Y277150
X569350Y261450
X576600Y277830
X549490Y279500
X495800Y197420
X537400Y276300
X578000Y231000
X578000Y227500
X588000Y231000
X588000Y227500
X549000Y194500
X549000Y199000
X557000Y194500
X553000Y194500
X553000Y199000
X557000Y199500
X543000Y277000
X534030Y274210
X529500Y273000
X562860Y273050
X550000Y269500
X555450Y276110
X552326Y262226
X556500Y262000
X656500Y54500
X491630Y156490
X587500Y175500
X582500Y180500
X582500Y185500
X582500Y175500
X552000Y169500
X552000Y174500
X544000Y169500
X548000Y169500
X582901Y92729
X586901Y92729
X582901Y88729
X586901Y88729
X494400Y147400
X494400Y143400
X494400Y139400
X573300Y150800
X573300Y145800
X568300Y145800
X568300Y150800
X563300Y150800
X563300Y145800
X563300Y140800
X568300Y140800
X489720Y167150
X495820Y182090
X493000Y115563
X493000Y102000
X578901Y92729
X574901Y92729
X570901Y92729
X570901Y88729
X574901Y88729
X578901Y88729
X580500Y155000
X583500Y155000
X586500Y155000
X563200Y134400
X563200Y129400
X566000Y125000
X560244Y134456
X568200Y114400
X568200Y119400
X571000Y122500
X679500Y22500
X663000Y23000
X679000Y38500
X664000Y38500
X492692Y152700
X600500Y112500
X598142Y180000
X594050Y154800
X640500Y150750
X620500Y171500
X615858Y180000
X619200Y150900
X625000Y181500
X609955Y179500
X631100Y150700
X606016Y179500
X595000Y177000
X654500Y97500
X595063Y163332
X643280Y131120
X643120Y134890
X639850Y138150
X639880Y134930
X643120Y138130
X640080Y131120
X646580Y90040
X646630Y85710
X648600Y88050
X591220Y160500
X676670Y157140
X677170Y180500
X676580Y173610
X677080Y164030
X636500Y163000
X631000Y163000
X641500Y163000
X648000Y163000
X634000Y159500
X639500Y159000
X645000Y159500
X670710Y122700
X671510Y129480
X675310Y129100
X670890Y133204
X602500Y88000
X590901Y92729
X590901Y88729
X670860Y115290
X671100Y111858
X649500Y110500
X646500Y110500
X670750Y136704
X646500Y114000
X611500Y163500
X604000Y163500
X607500Y162400
X591250Y169800
X589500Y155000
X621000Y181500
X634500Y176500
X637500Y176500
X631500Y176500
X623300Y167800
X649500Y114000
X581500Y39500
X565500Y39500
X565500Y23500
X581500Y23500
X683000Y159000
X683000Y167500
X683000Y177500
X643293Y280564
X642000Y266000
X651200Y227400
X658700Y227400
X655200Y227400
X651200Y232000
X658700Y232000
X655200Y232000
X629000Y196516
X667640Y200000
X629300Y193400
X632300Y194366
X627921Y202421
X630921Y202421
X590000Y217000
X588500Y211500
X593000Y211500
X625500Y226800
X622000Y217000
X632400Y269100
X629400Y268800
X637900Y269440
X631180Y262500
X626312Y268689
X598142Y215000
X625730Y194380
X620500Y262500
X624496Y200459
X615000Y273500
X640740Y277800
X637655Y272649
X613000Y284500
X617258Y284590
X651010Y270458
X645119Y268934
X648500Y268757
X655210Y270058
X621125Y271987
X596292Y265108
X590000Y283500
X642160Y262500
X618900Y274000
X632450Y277870
X632057Y282690
X629400Y280000
X626530Y278032
X626760Y282630
X658800Y263478
X641995Y269995
X606360Y231620
X595430Y217370
X617827Y214827
X618500Y220200
X617000Y197500
X612000Y197500
X607000Y197500
X602000Y197500
X597000Y197500
X597000Y202500
X602000Y202500
X607000Y202500
X612000Y202500
X617000Y202500
X617000Y187500
X612000Y187500
X607000Y187500
X602000Y187500
X597000Y187500
X597000Y192500
X602000Y192500
X607000Y192500
X612000Y192500
X617000Y192500
X590000Y198484
X597000Y207500
X602000Y207500
X607000Y207500
X612000Y207500
X617000Y207500
X650000Y198000
X650000Y202000
X634500Y217500
X631500Y217500
X637500Y217500
X625380Y223590
X617030Y262143
X677700Y285600
X677700Y280600
X677700Y275600
X597500Y273180
X608500Y273290
X599970Y334650
X597280Y314440
X589000Y333500
X600500Y317690
X590470Y328070
X601000Y295825
X616500Y321000
X606000Y323500
X641000Y292000
X653624Y338924
X622000Y311000
X622000Y315500
X633000Y311000
X591500Y291500
X612862Y306638
X609662Y292838
X600000Y330500
X607280Y310950
X606800Y304000
X593760Y303000
X593630Y299500
X609000Y299000
X596680Y317800
X646424Y335224
X645642Y359358
X629958Y300190
X630200Y290900
X635058Y290690
X646354Y325760
X677700Y346100
X677700Y336000
X677700Y325800
X677700Y315900
X677700Y305700
X677700Y295600
X677700Y290600
X593111Y339500
X604217Y339500
X604710Y317790
X588500Y411200
X598500Y411200
X608500Y411200
X648500Y411200
X618500Y411200
X628500Y411200
X638500Y411200
X696100Y191900
X696100Y211900
X696100Y201900
X696100Y181900
X696100Y171900
X696100Y161900
X696100Y151900
X696100Y141900
X696100Y131900
X696100Y121900
X696100Y111900
T03
X55523Y138435
X59460Y138435
X55523Y134498
X59460Y134498
X221017Y109502
X221017Y105565
X218000Y109500
X218000Y106000
X227779Y253547
X227279Y249047
X232279Y253047
X232279Y249547
T04
X422087Y45268
X414606Y45268
X407126Y45268
X399646Y45268
X392165Y45268
X422087Y39953
X414606Y39953
X407126Y39953
X399646Y39953
X392165Y39953
X422087Y34638
X414606Y34638
X407126Y34638
X399646Y34638
X392165Y34638
X422087Y29323
X414606Y29323
X407126Y29323
X399646Y29323
X392165Y29323
X422087Y24008
X414606Y24008
X407126Y24008
X399646Y24008
X392165Y24008
X407126Y18693
X399646Y18693
X392165Y18693
X422087Y18693
X414606Y18693
X384685Y45268
X377205Y45268
X369724Y45268
X362244Y45268
X384685Y39953
X377205Y39953
X369724Y39953
X362244Y39953
X384685Y34638
X377205Y34638
X369724Y34638
X362244Y34638
X384685Y29323
X377205Y29323
X369724Y29323
X362244Y29323
X384685Y24008
X377205Y24008
X369724Y24008
X362244Y24008
X384685Y18693
X377205Y18693
X369724Y18693
X362244Y18693
X354764Y18693
X354764Y24008
X354764Y29323
X354764Y34638
X354764Y39953
X354764Y45268
X347284Y18693
X339803Y18693
X332323Y18693
X324842Y18693
X317362Y18693
X309882Y18693
X347284Y24008
X339803Y24008
X332323Y24008
X324842Y24008
X317362Y24008
X309882Y24008
X347284Y29323
X339803Y29323
X332323Y29323
X324842Y29323
X317362Y29323
X309882Y29323
X347284Y34638
X339803Y34638
X332323Y34638
X324842Y34638
X317362Y34638
X309882Y34638
X347284Y39953
X339803Y39953
X332323Y39953
X324842Y39953
X317362Y39953
X309882Y39953
X347284Y45268
X339803Y45268
X332323Y45268
X324842Y45268
X317362Y45268
X309882Y45268
T05
X66968Y339232
X66968Y305768
X66968Y332343
X66968Y322500
X66968Y312658
T06
X342107Y330880
X352107Y330880
X362107Y330880
X372107Y330880
X382107Y330880
T07
X452339Y137550
X445332Y130542
X438324Y137550
X438324Y123535
X452339Y123535
X445332Y245858
X438324Y238850
X438324Y252865
X452339Y252865
X452339Y238850
T08
X251874Y182256
X244000Y182256
X284000Y265000
X284000Y255000
X284000Y245000
X251874Y229500
X251874Y221626
X251874Y213752
X251874Y205878
X251874Y198004
X251874Y190130
X244000Y229500
X244000Y221626
X244000Y213752
X244000Y205878
X244000Y198004
X244000Y190130
T09
X59095Y327421
X59095Y317579
X51220Y327421
X51220Y317579
T10
X468500Y270000
X486200Y270000
X468500Y295600
X486200Y295600
T11
X47539Y231709
X179626Y231709
T12
X40551Y346201
X40551Y298799
T13
X120000Y300000
T14
X21600Y85600
X21600Y393400
X200000Y150000
X275590Y393400
X521858Y200000
X678400Y85600
X678400Y393400
T15
X260000Y115000
X260000Y291800
T16
X67412Y384458
X94183Y384458
X179014Y339900
X142514Y277500
X169286Y277500
X205786Y339900
T17
X50000Y206118
X50000Y257299
X177165Y206118
T18
X177165Y257299
T19
X407107Y330880
T20
X289803Y38378
M30
