M48
INCH,TZ
T01C.008
T02C.01
T03C.011811
T04C.01811
T05C.027559
T06C.032
T07C.033
T08C.035433
T09C.03622
T10C.03937
T11C.070866
T12C.090551
T13C.137795
T14C.145669
T15C.173228
T16C.035433
T17C.049213
T18C.068898
T19C.094
T20C.15
;LEADER: 12 
;HEADER: 
;CODE  : ASCII 
;FILE  : OC_CONNECT_1_SDR_LIFE-3-1-6.drl for  ... layers TOP and L6-GND2
;DESIGN: OC_CONNECT_1_SDR_LIFE-3.brd
;T01 Holesize 1. = 8.000000 Tolerance = +3.000000/-8.000000 PLATED MILS Quantity = 441
%
G90
T01
X33800Y152500
X29750Y150250
X60000Y114500
X55740Y118080
X59500Y118000
X65840Y115300
X37500Y165470
X73697Y103803
X74000Y107500
X77500Y103500
X77500Y107500
X26200Y268800
X26200Y279570
X58500Y283000
X22500Y209500
X153000Y330500
X160200Y302200
X139500Y288000
X160500Y291000
X183540Y328500
X128290Y271510
X122190Y271560
X157500Y274500
X180450Y126000
X251000Y51130
X118950Y90720
X121740Y90720
X124660Y90720
X120390Y88390
X123280Y88480
X121870Y86600
X165200Y129550
X246000Y88000
X193327Y170207
X230010Y163610
X215500Y169500
X188940Y126000
X189000Y121620
X241000Y95500
X232500Y162500
X278500Y131953
X287500Y175000
X247500Y149000
X242500Y87000
X237200Y115023
X233600Y96500
X236600Y143460
X243500Y161000
X193500Y99500
X210500Y115000
X200500Y91873
X225000Y166000
X236942Y95912
X243080Y146000
X205400Y101800
X203500Y96500
X273222Y99732
X276422Y90911
X287000Y107500
X282314Y106455
X277877Y104149
X269686Y96197
X265030Y94230
X264860Y90530
X273820Y88360
X193500Y190500
X282500Y227500
X282500Y231500
X282500Y220200
X282500Y223859
X257500Y257000
X208000Y350500
X283200Y358800
X287200Y358800
X364070Y349040
X378400Y340080
X291200Y358800
X295200Y358800
X299200Y358800
X299670Y376570
X348840Y309170
X367000Y307500
X364500Y307500
X357500Y307500
X351400Y309140
X353770Y309220
X318820Y301440
X311500Y316500
X308980Y306110
X345940Y350070
X348940Y350070
X296000Y379500
X296000Y385000
X291500Y232710
X291500Y228000
X293500Y222000
X307600Y188600
X294000Y186000
X317500Y201000
X293500Y254000
X364000Y112500
X363000Y123000
X364000Y116000
X362500Y118500
X353280Y145500
X349000Y145500
X360894Y145474
X371340Y145190
X363500Y130000
X364000Y145000
X368000Y144500
X330500Y145730
X337500Y145750
X360000Y126500
X334000Y145500
X341500Y145710
X323500Y145730
X327000Y145750
X345000Y145770
X320500Y145500
X312500Y120500
X312500Y117000
X312500Y124000
X312500Y111000
X308500Y159000
X305000Y159000
X312000Y159000
X315500Y159000
X294000Y180000
X303000Y150000
X289250Y126950
X298000Y156500
X301750Y126750
X313395Y150000
X317000Y149000
X373000Y131000
X374500Y152750
X368560Y153780
X335000Y155500
X329000Y185000
X303500Y124000
X303500Y120500
X303500Y117000
X303500Y111000
X361000Y154250
X363420Y153690
X353615Y154615
X324330Y95970
X373500Y118500
X346120Y154490
X373000Y116000
X373500Y123500
X340897Y154480
X327000Y154300
X350000Y155000
X320000Y154300
X323500Y154320
X373000Y127000
X332500Y156000
X372690Y113860
X302352Y145500
X330000Y154280
X297500Y113000
X377000Y120500
X384300Y124800
X377950Y106500
X364500Y109500
X293510Y107100
X293500Y103000
X293500Y99000
X293500Y94000
X403000Y141500
X405000Y135500
X406500Y141500
X406000Y101000
X408500Y163000
X410500Y96000
X475500Y129200
X471839Y180261
X475539Y179961
X471500Y129100
X456000Y95000
X446500Y115500
X456000Y99000
X459500Y99500
X457500Y102500
X456000Y91500
X488000Y87500
X466000Y129100
X447500Y106000
X448000Y110500
X447000Y120500
X485000Y121000
X448202Y157380
X399300Y140120
X486000Y156000
X468780Y120300
X469280Y171500
X447458Y171200
X448202Y161980
X466000Y176000
X420500Y113000
X411840Y103660
X417250Y103750
X422250Y103750
X436500Y97500
X436000Y103000
X434500Y108000
X430733Y111204
X427010Y97690
X427000Y102000
X406000Y106000
X406000Y109500
X406000Y113500
X406000Y119500
X424770Y112680
X420810Y96520
X444420Y89570
X429480Y89820
X431460Y87120
X442640Y86320
X441870Y93910
X437470Y94520
X427320Y94550
X434400Y86160
X438850Y85680
X457000Y260000
X463000Y208000
X414546Y226654
X429813Y219000
X428000Y206000
X459950Y243740
X424180Y218210
X424500Y212500
X435500Y208200
X445110Y372510
X390500Y290500
X427300Y366316
X486030Y368100
X474190Y338355
X450000Y330000
X421400Y368890
X444160Y382540
X450500Y383500
X418180Y331030
X418100Y325980
X585597Y292512
X563700Y335450
X558440Y338960
X555000Y339320
X574781Y343672
X579781Y343672
X584781Y343672
X586811Y348922
X581811Y348922
X576811Y348922
X571882Y348082
X569366Y343761
X575770Y338370
X574500Y332000
X569500Y331000
X567500Y335500
X562000Y337500
X567500Y341000
X561500Y286000
X563000Y291500
X557175Y293700
X555930Y289100
X549275Y295825
X542113Y301325
X538209Y296075
X544025Y291142
X532000Y287500
X520770Y296280
X519070Y290130
X511090Y288740
X490553Y207500
X552497Y281875
X542800Y281875
X526630Y281410
X523780Y285610
X558000Y283000
X566850Y283210
X572500Y283000
X577980Y283240
X572000Y277000
X575000Y274500
X574000Y268500
X579000Y269000
X516940Y272060
X517010Y266610
X517110Y261580
X499010Y241360
X504200Y241290
X509190Y242990
X513280Y247210
X516640Y253470
X516610Y282220
X511190Y278190
X511160Y268170
X511100Y262320
X510830Y255140
X508140Y250410
X504680Y247120
X578837Y135101
X578837Y132101
X578837Y129101
X581837Y129101
X581837Y132101
X581837Y135101
X584837Y129101
X584837Y132101
X584837Y135101
X587337Y129063
X587500Y132000
X587500Y135000
X494000Y92483
X494000Y88500
X494000Y95500
X491000Y88000
X489600Y106500
X488990Y158420
X588000Y147000
X584837Y146837
X584837Y143837
X581837Y143837
X581837Y146837
X588000Y144000
X587837Y140837
X578837Y146837
X578837Y143837
X578837Y140837
X581837Y140837
X584837Y140837
X531550Y160500
X534550Y160500
X528580Y160390
X531860Y157890
X534860Y157890
X528630Y157940
X540810Y160680
X537840Y160570
X541120Y158070
X537890Y158120
X547370Y160750
X547420Y158300
X553340Y160860
X553650Y158250
X559280Y158120
X565200Y160680
X559230Y160570
X565510Y158070
X577070Y160860
X571100Y160750
X577380Y158250
X571150Y158300
X653384Y132258
X630500Y112800
X646384Y132255
X656884Y132255
X619523Y92235
X619523Y89235
X619523Y95235
X622523Y95235
X622523Y89235
X622523Y92235
X661670Y122000
X652000Y90000
X617470Y146070
X611470Y146070
X649884Y132258
X620880Y145910
X626880Y145910
X632850Y145780
X639080Y145730
X645080Y145730
X651090Y145730
X657130Y145800
X663130Y145800
X599810Y146270
X605810Y146270
X593840Y146160
X657310Y142740
X663310Y142740
X651230Y142560
X639240Y142590
X645240Y142590
X632740Y142520
X620730Y142740
X626730Y142740
X611630Y143530
X617630Y143530
X600120Y143660
X606120Y143660
X593890Y143710
X666490Y145910
X666630Y142740
X675870Y146100
X675710Y142920
X627210Y262270
X590500Y277000
X599700Y283000
X605700Y282900
X610500Y283000
X601000Y277000
X605020Y276690
X616500Y277000
X593800Y283400
X612943Y341058
X639000Y298500
X642115Y298500
X589570Y343250
X596811Y348922
X591811Y348922
X611639Y343672
X616076Y345977
X617060Y350879
X611639Y348922
X606639Y348922
X601639Y348922
X617640Y356732
X620456Y361982
X615473Y361565
X612077Y357895
X598500Y343500
X611500Y354000
X613500Y318500
X613500Y314500
X613500Y310500
X613500Y299500
X613500Y296000
X616500Y288500
X622500Y288500
X620340Y294800
X625500Y294000
X619500Y298500
X619500Y303000
X619500Y307500
X620000Y320000
X614390Y323580
X620048Y325648
M30
