G04 ================== begin FILE IDENTIFICATION RECORD ==================*
G04 Layout Name:  OC_CONNECT_1_SDR_LIFE-3.brd*
G04 Film Name:    soldtop*
G04 File Format:  Gerber RS274X*
G04 File Origin:  Cadence Allegro 16.6-2015-S065*
G04 Origin Date:  Mon Jan 16 17:19:47 2017*
G04 *
G04 Layer:  DRAWING FORMAT/SMPR*
G04 Layer:  DRAWING FORMAT/FILM_LABEL_OUTLINE*
G04 Layer:  VIA CLASS/SOLDERMASK_TOP*
G04 Layer:  PIN/SOLDERMASK_TOP*
G04 Layer:  PACKAGE GEOMETRY/SOLDERMASK_TOP*
G04 Layer:  BOARD GEOMETRY/OUTLINE*
G04 Layer:  BOARD GEOMETRY/SOLDERMASK_TOP*
G04 *
G04 Offset:    (0.000 0.000)*
G04 Mirror:    No*
G04 Mode:      Positive*
G04 Rotation:  0*
G04 FullContactRelief:  No*
G04 UndefLineWidth:     6.000*
G04 ================== end FILE IDENTIFICATION RECORD ====================*
%FSLAX25Y25*MOIN*%
%IR0*IPPOS*OFA0.00000B0.00000*MIA0B0*SFA1.00000B1.00000*%
%ADD119R,.07874X.066929*%
%ADD131R,.11X.055*%
%ADD130R,.055X.11*%
%AMMACRO125*
4,1,21,-.005906,-.015748,
-.005906,.009843,
-.005816,.010869,
-.00555,.011863,
-.005115,.012796,
-.004524,.013639,
-.003796,.014367,
-.002953,.014958,
-.00202,.015393,
-.001025,.015659,
0.0,.015749,
.001026,.015659,
.00202,.015392,
.002953,.014957,
.003797,.014366,
.004525,.013638,
.005115,.012795,
.00555,.011862,
.005816,.010868,
.005906,.009843,
.005906,-.015748,
-.005906,-.015748,
0.0*
%
%ADD125MACRO125*%
%ADD70R,.068898X.026378*%
%AMMACRO126*
4,1,21,-.015748,.005906,
.009843,.005906,
.010869,.005816,
.011863,.00555,
.012796,.005115,
.013639,.004524,
.014367,.003796,
.014958,.002953,
.015393,.00202,
.015659,.001025,
.015749,0.0,
.015659,-.001026,
.015392,-.00202,
.014957,-.002953,
.014366,-.003797,
.013638,-.004525,
.012795,-.005115,
.011862,-.00555,
.010868,-.005816,
.009843,-.005906,
-.015748,-.005906,
-.015748,.005906,
0.0*
%
%ADD126MACRO126*%
%AMMACRO23*
4,1,20,.049,-.0345,
-.049,-.0345,
-.049,-.017339,
-.077,-.017339,
-.077,-.002339,
-.049,-.002339,
-.049,.002339,
-.077,.002339,
-.077,.017339,
-.049,.017339,
-.049,.0345,
.049,.0345,
.049,.017339,
.077,.017339,
.077,.002339,
.049,.002339,
.049,-.002339,
.077,-.002339,
.077,-.017339,
.049,-.017339,
.049,-.0345,
0.0*
%
%ADD23MACRO23*%
%ADD106C,.114*%
%AMMACRO21*
4,1,22,.01122,.005512,
.012177,.005428,
.013105,.00518,
.013976,.004774,
.014763,.004223,
.015443,.003543,
.015994,.002756,
.0164,.001886,
.016649,.000958,
.016732,0.0,
.016649,-.000957,
.0164,-.001885,
.015994,-.002756,
.015443,-.003543,
.014764,-.004222,
.013977,-.004773,
.013106,-.005179,
.012178,-.005428,
.011221,-.005512,
.01122,-.005512,
-.016732,-.005512,
-.016732,.005512,
.01122,.005512,
0.0*
%
%ADD21MACRO21*%
%AMMACRO19*
4,1,22,.005512,-.01122,
.005428,-.012177,
.00518,-.013105,
.004774,-.013976,
.004223,-.014763,
.003543,-.015443,
.002756,-.015994,
.001886,-.0164,
.000958,-.016649,
0.0,-.016732,
-.000957,-.016649,
-.001885,-.0164,
-.002756,-.015994,
-.003543,-.015443,
-.004222,-.014764,
-.004773,-.013977,
-.005179,-.013106,
-.005428,-.012178,
-.005512,-.011221,
-.005512,-.01122,
-.005512,.016732,
.005512,.016732,
.005512,-.01122,
0.0*
%
%ADD19MACRO19*%
%ADD76C,.16*%
%AMMACRO141*
4,1,24,-.017717,-.000394,
-.017717,.000394,
-.017603,.001693,
-.017266,.002952,
-.016715,.004134,
-.015967,.005202,
-.015045,.006124,
-.013976,.006872,
-.012795,.007423,
-.011535,.00776,
-.010236,.007874,
-.010236,.007874,
.017717,.007874,
.017717,-.007874,
-.010236,-.007874,
-.011535,-.00776,
-.012795,-.007423,
-.013976,-.006872,
-.015044,-.006124,
-.015967,-.005202,
-.016715,-.004134,
-.017266,-.002953,
-.017603,-.001693,
-.017717,-.000394,
-.017717,-.000394,
0.0*
%
%ADD141MACRO141*%
%ADD132R,.059X.118*%
%AMMACRO140*
4,1,24,-.000394,.017717,
.000394,.017717,
.001693,.017603,
.002952,.017266,
.004134,.016715,
.005202,.015967,
.006124,.015045,
.006872,.013976,
.007423,.012795,
.00776,.011535,
.007874,.010236,
.007874,.010236,
.007874,-.017717,
-.007874,-.017717,
-.007874,.010236,
-.00776,.011535,
-.007423,.012795,
-.006872,.013976,
-.006124,.015044,
-.005202,.015967,
-.004134,.016715,
-.002953,.017266,
-.001693,.017603,
-.000394,.017717,
-.000394,.017717,
0.0*
%
%ADD140MACRO140*%
%ADD34C,.114173*%
%AMMACRO24*
4,1,21,.0075,.0185,
.0075,-.011,
.007386,-.012302,
.007048,-.013565,
.006495,-.01475,
.005745,-.015821,
.004821,-.016745,
.00375,-.017495,
.002565,-.018048,
.001302,-.018386,
0.0,-.0185,
-.001302,-.018386,
-.002565,-.018048,
-.00375,-.017495,
-.004821,-.016745,
-.005745,-.015821,
-.006495,-.01475,
-.007048,-.013565,
-.007386,-.012302,
-.0075,-.011,
-.0075,.0185,
.0075,.0185,
0.0*
%
%ADD24MACRO24*%
%ADD56C,.301339*%
%ADD66R,.035433X.114173*%
%ADD42C,.324961*%
%ADD11C,.334646*%
%ADD55R,.080709X.100394*%
%ADD124R,.224409X.224409*%
%ADD118R,.07874X.23622*%
%ADD117R,.141732X.059055*%
%ADD22R,.100394X.080709*%
%ADD120R,.014173X.008661*%
%ADD105C,.009843*%
%ADD95R,.059055X.141732*%
%ADD143R,.108268X.108268*%
%ADD44R,.022835X.009843*%
%ADD121R,.015748X.008661*%
%ADD40R,.026575X.007874*%
%ADD14R,.145669X.086614*%
%ADD122R,.027559X.009843*%
%ADD96R,.066929X.129921*%
%ADD123R,.009843X.027559*%
%ADD97R,.027559X.009843*%
%ADD13R,.082677X.133858*%
%ADD114R,.04X.043*%
%AMMACRO135*
4,1,21,.005906,.015748,
.005906,-.009843,
.005816,-.010869,
.00555,-.011863,
.005115,-.012796,
.004524,-.013639,
.003796,-.014367,
.002953,-.014958,
.00202,-.015393,
.001025,-.015659,
0.0,-.015749,
-.001026,-.015659,
-.00202,-.015392,
-.002953,-.014957,
-.003797,-.014366,
-.004525,-.013638,
-.005115,-.012795,
-.00555,-.011862,
-.005816,-.010868,
-.005906,-.009843,
-.005906,.015748,
.005906,.015748,
0.0*
%
%ADD135MACRO135*%
%AMMACRO127*
4,1,21,.015748,-.005906,
-.009843,-.005906,
-.010869,-.005816,
-.011863,-.00555,
-.012796,-.005115,
-.013639,-.004524,
-.014367,-.003796,
-.014958,-.002953,
-.015393,-.00202,
-.015659,-.001025,
-.015749,0.0,
-.015659,.001026,
-.015392,.00202,
-.014957,.002953,
-.014366,.003797,
-.013638,.004525,
-.012795,.005115,
-.011862,.00555,
-.010868,.005816,
-.009843,.005906,
.015748,.005906,
.015748,-.005906,
0.0*
%
%ADD127MACRO127*%
%ADD91R,.043X.04*%
%ADD145R,.04X.028*%
%ADD89R,.017X.05*%
%ADD29R,.034X.016*%
%ADD81R,.065X.03*%
%ADD144C,.02*%
%ADD133R,.04X.048*%
%ADD102R,.073X.024*%
%ADD73R,.013X.074*%
%ADD134R,.071X.063*%
%ADD93R,.043X.028*%
%ADD58R,.016X.019*%
%ADD116R,.028X.043*%
%ADD83R,.034X.038*%
%ADD74R,.019X.016*%
%ADD60C,.04*%
%ADD57R,.015X.075*%
%ADD52R,.058X.013*%
%ADD12C,.022*%
%ADD28R,.075X.015*%
%AMMACRO142*
4,1,24,.000394,-.017717,
-.000394,-.017717,
-.001693,-.017603,
-.002952,-.017266,
-.004134,-.016715,
-.005202,-.015967,
-.006124,-.015045,
-.006872,-.013976,
-.007423,-.012795,
-.00776,-.011535,
-.007874,-.010236,
-.007874,-.010236,
-.007874,.017717,
.007874,.017717,
.007874,-.010236,
.00776,-.011535,
.007423,-.012795,
.006872,-.013976,
.006124,-.015044,
.005202,-.015967,
.004134,-.016715,
.002953,-.017266,
.001693,-.017603,
.000394,-.017717,
.000394,-.017717,
0.0*
%
%ADD142MACRO142*%
%AMMACRO139*
4,1,24,.017717,.000394,
.017717,-.000394,
.017603,-.001693,
.017266,-.002952,
.016715,-.004134,
.015967,-.005202,
.015045,-.006124,
.013976,-.006872,
.012795,-.007423,
.011535,-.00776,
.010236,-.007874,
.010236,-.007874,
-.017717,-.007874,
-.017717,.007874,
.010236,.007874,
.011535,.00776,
.012795,.007423,
.013976,.006872,
.015044,.006124,
.015967,.005202,
.016715,.004134,
.017266,.002953,
.017603,.001693,
.017717,.000394,
.017717,.000394,
0.0*
%
%ADD139MACRO139*%
%ADD27R,.059X.051*%
%AMMACRO20*
4,1,22,-.01122,-.005512,
-.012177,-.005428,
-.013105,-.00518,
-.013976,-.004774,
-.014763,-.004223,
-.015443,-.003543,
-.015994,-.002756,
-.0164,-.001886,
-.016649,-.000958,
-.016732,0.0,
-.016649,.000957,
-.0164,.001885,
-.015994,.002756,
-.015443,.003543,
-.014764,.004222,
-.013977,.004773,
-.013106,.005179,
-.012178,.005428,
-.011221,.005512,
-.01122,.005512,
.016732,.005512,
.016732,-.005512,
-.01122,-.005512,
0.0*
%
%ADD20MACRO20*%
%ADD15C,.06*%
%ADD31C,.025*%
%AMMACRO18*
4,1,22,-.005512,.01122,
-.005428,.012177,
-.00518,.013105,
-.004774,.013976,
-.004223,.014763,
-.003543,.015443,
-.002756,.015994,
-.001886,.0164,
-.000958,.016649,
0.0,.016732,
.000957,.016649,
.001885,.0164,
.002756,.015994,
.003543,.015443,
.004222,.014764,
.004773,.013977,
.005179,.013106,
.005428,.012178,
.005512,.011221,
.005512,.01122,
.005512,-.016732,
-.005512,-.016732,
-.005512,.01122,
0.0*
%
%ADD18MACRO18*%
%ADD84R,.055X.039*%
%ADD69C,.08*%
%ADD75R,.039X.055*%
%ADD54R,.011811X.01811*%
%ADD110R,.01811X.011811*%
%ADD17R,.031X.031*%
%ADD103C,.057*%
%ADD90C,.049*%
%AMMACRO86*
21,1,.025,.025,0.0,0.0,45.*%
%ADD86MACRO86*%
%ADD92R,.016X.016*%
%ADD30R,.025X.025*%
%ADD85R,.05X.029921*%
%ADD77C,.0375*%
%AMMACRO72*
4,1,12,.075886,-.01437,
.075886,-.03622,
-.019024,-.03622,
-.041071,-.014173,
-.093602,-.014173,
-.093602,.014173,
-.041071,.014173,
-.019024,.03622,
.075886,.03622,
.075886,.013976,
.093602,.013976,
.093602,-.01437,
.075886,-.01437,
0.0*
%
%ADD72MACRO72*%
%ADD32C,.023622*%
%ADD35C,.051181*%
%ADD138O,.011811X.03937*%
%AMMACRO25*
4,1,21,-.0075,-.0185,
-.0075,.011,
-.007386,.012302,
-.007048,.013565,
-.006495,.01475,
-.005745,.015821,
-.004821,.016745,
-.00375,.017495,
-.002565,.018048,
-.001302,.018386,
0.0,.0185,
.001302,.018386,
.002565,.018048,
.00375,.017495,
.004821,.016745,
.005745,.015821,
.006495,.01475,
.007048,.013565,
.007386,.012302,
.0075,.011,
.0075,-.0185,
-.0075,-.0185,
0.0*
%
%ADD25MACRO25*%
%ADD137O,.03937X.011811*%
%ADD43R,.022835X.011811*%
%ADD50R,.011811X.020469*%
%ADD46C,.045433*%
%ADD64R,.020469X.011811*%
%ADD49R,.011811X.019291*%
%ADD63R,.019291X.011811*%
%ADD100O,.01378X.041339*%
%ADD98R,.0375X.0375*%
%ADD67R,.011417X.03937*%
%ADD45R,.01378X.024803*%
%ADD101O,.041339X.01378*%
%ADD38R,.03937X.011417*%
%ADD112R,.031496X.023622*%
%ADD111R,.043307X.033465*%
%ADD48C,.059055*%
%ADD41R,.061024X.015748*%
%ADD16R,.104409X.135906*%
%ADD80C,.015748*%
%ADD108C,.06299*%
%ADD10C,.07874*%
%ADD136R,.090551X.090551*%
%ADD26R,.043307X.045276*%
%ADD82R,.043307X.059055*%
%ADD62R,.031496X.035433*%
%ADD79C,.019685*%
%ADD36C,.059843*%
%ADD113R,.047244X.03937*%
%ADD61R,.059055X.059055*%
%ADD33R,.031496X.029921*%
%ADD129R,.070866X.055118*%
%ADD109R,.06299X.06299*%
%ADD68R,.017717X.059055*%
%ADD59R,.029921X.031496*%
%ADD53R,.01378X.062992*%
%ADD39C,.094488*%
%ADD128R,.055118X.070866*%
%ADD65R,.062992X.01378*%
%ADD115R,.062992X.047244*%
%ADD51R,.027559X.047244*%
%ADD47R,.047244X.062992*%
%ADD37R,.059843X.059843*%
%ADD107R,.057087X.017717*%
%ADD78R,.057087X.045276*%
%ADD87R,.045276X.057087*%
%ADD99R,.088583X.088583*%
%ADD94R,.1X.05*%
%ADD71R,.062992X.026378*%
%ADD104C,.324961*%
%ADD88R,.05X.1*%
%ADD146C,.01*%
%ADD147C,.006*%
G75*
%LPD*%
G75*
G36*
G01X4000Y415000D02*
X0Y411000D01*
Y64000D01*
X85000D01*
G02X100000Y49000I0J-15000D01*
G01Y0D01*
X150000D01*
Y49000D01*
G02X165000Y64000I15000J0D01*
G01X535000D01*
G02X550000Y49000I0J-15000D01*
G01Y0D01*
X600000D01*
Y49000D01*
G02X615000Y64000I15000J0D01*
G01X700000D01*
Y164000D01*
X685000D01*
Y115105D01*
G02X676145Y105170I-10000J0D01*
G03X658830Y87855I2255J-19571D01*
G02X648895Y79000I-9934J1145D01*
G01X570104D01*
G02X560104Y89000I0J10000D01*
G01Y114968D01*
G03X540404Y134668I-19700J0D01*
G01X528000D01*
G02X518000Y144668I0J10000D01*
G01Y149000D01*
X503000D01*
Y89000D01*
G02X493000Y79000I-10000J0D01*
G01X51105D01*
G02X41170Y87855I0J10000D01*
G03X23855Y105170I-19571J-2255D01*
G02X15000Y115105I1145J9934D01*
G01Y361300D01*
G02X23947Y371244I10000J0D01*
G03X43756Y391053I-2347J22156D01*
G02X53700Y400000I9944J-1053D01*
G01X97000D01*
G02X107000Y390000I0J-10000D01*
G01Y365000D01*
G03X117000Y355000I10000J0D01*
G01X187000D01*
G03X197000Y365000I0J10000D01*
G01Y390000D01*
G02X207000Y400000I10000J0D01*
G01X243490D01*
G02X253434Y391053I0J-10000D01*
G03X297746I22156J2347D01*
G02X307690Y400000I9944J-1053D01*
G01X493000D01*
G02X503000Y390000I0J-10000D01*
G01Y315000D01*
X518000D01*
Y345000D01*
G02X528000Y355000I10000J0D01*
G01X583000D01*
G03X593000Y365000I0J10000D01*
G01Y390000D01*
G02X603000Y400000I10000J0D01*
G01X646300D01*
G02X656244Y391053I0J-10000D01*
G03X676053Y371244I22156J2347D01*
G02X685000Y361300I-1053J-9944D01*
G01Y265000D01*
G02X675000Y255000I-10000J0D01*
G01X651000D01*
Y240000D01*
X675000D01*
G02X685000Y230000I0J-10000D01*
G01Y165000D01*
X700000D01*
Y411000D01*
X696000Y415000D01*
X582000D01*
X578000Y411000D01*
Y374000D01*
X574000Y370000D01*
X522000D01*
X518000Y374000D01*
Y411000D01*
X514000Y415000D01*
X186000D01*
X182000Y411000D01*
Y374000D01*
X178000Y370000D01*
X126000D01*
X122000Y374000D01*
Y411000D01*
X118000Y415000D01*
X4000D01*
G37*
G36*
G01X518000Y314000D02*
X503000D01*
Y150000D01*
X518000D01*
Y170942D01*
G02X525932Y180726I10000J0D01*
G03Y219274I-4074J19274D01*
G02X518000Y229058I2068J9784D01*
G01Y230000D01*
G02X528000Y240000I10000J0D01*
G01X650000D01*
Y255000D01*
X528000D01*
G02X518000Y265000I0J10000D01*
G01Y314000D01*
G37*
G54D100*
X471839Y153416D03*
X469280D03*
X466720D03*
X464161D03*
Y167984D03*
X466720D03*
X469280D03*
X471839D03*
X471339Y102216D03*
X468780D03*
X466220D03*
X463661D03*
Y116784D03*
X466220D03*
X468780D03*
X471339D03*
G54D101*
X460716Y156861D03*
Y159420D03*
Y161980D03*
Y164539D03*
X475284D03*
Y161980D03*
Y159420D03*
Y156861D03*
X460216Y105661D03*
Y108220D03*
Y110780D03*
Y113339D03*
X474784D03*
Y110780D03*
Y108220D03*
Y105661D03*
G54D110*
X485800Y243281D03*
Y245250D03*
Y247218D03*
X491154D03*
Y245250D03*
Y243281D03*
G54D111*
X536437Y293287D03*
X528563D03*
X536437Y304113D03*
X528563D03*
X567337Y266087D03*
X559463D03*
X567337Y276913D03*
X559463D03*
G54D102*
X481012Y186000D03*
Y191000D03*
Y196000D03*
Y201000D03*
Y206000D03*
X444988Y186000D03*
Y191000D03*
Y196000D03*
Y201000D03*
Y206000D03*
X481012Y211000D03*
Y216000D03*
Y221000D03*
X444988Y211000D03*
Y216000D03*
Y221000D03*
G54D120*
X644199Y112700D03*
G54D10*
X34060Y17000D03*
X47540Y367200D03*
X318234Y195734D03*
X359781Y98528D03*
X314037Y144272D03*
X431628Y326128D03*
X414766Y292266D03*
X477372Y371872D03*
X627000Y17000D03*
G54D112*
X526791Y298700D03*
X538209D03*
X569109Y271500D03*
X557691D03*
G54D103*
X452339Y123535D03*
X438324D03*
Y137550D03*
X445332Y130542D03*
X452339Y137550D03*
Y238850D03*
Y252865D03*
X438324D03*
Y238850D03*
X445332Y245857D03*
G54D121*
X641168Y112700D03*
G54D130*
X587018Y100184D03*
X574813D03*
G54D104*
X540404Y114968D03*
G54D113*
X461347Y386059D03*
X454653D03*
Y380941D03*
X461347D03*
G54D20*
X65267Y133514D03*
Y139420D03*
X225840Y102612D03*
Y104580D03*
Y106549D03*
Y108517D03*
Y110486D03*
Y112454D03*
G54D122*
X652880Y109747D03*
X637920D03*
X652880Y111716D03*
X637920D03*
X652880Y113684D03*
X637920D03*
X652880Y115653D03*
X637920D03*
G54D11*
X21600Y85600D03*
Y393400D03*
X200000Y150000D03*
X275590Y393400D03*
X521858Y200000D03*
X678400Y85600D03*
Y393400D03*
G54D140*
X566079Y308626D03*
X568047D03*
X570016D03*
X571984D03*
X573953D03*
X575921D03*
G54D131*
X608820Y126408D03*
Y138612D03*
G54D30*
X29070Y155440D03*
Y159180D03*
X82730Y183077D03*
X86470D03*
X69970Y183477D03*
X66230D03*
X86000Y105370D03*
Y101630D03*
X65050Y120680D03*
Y124420D03*
X74720Y135450D03*
X70980D03*
X74870Y131500D03*
X71130D03*
X68900Y120630D03*
Y124370D03*
X63500Y103370D03*
Y99630D03*
X37870Y149040D03*
Y152780D03*
X41510Y152750D03*
Y149010D03*
X29210Y167340D03*
Y163600D03*
X71530Y205967D03*
X75270D03*
X97970Y174677D03*
X94230D03*
X97470Y178577D03*
X93730D03*
X85030Y162023D03*
X88770D03*
X41630Y174000D03*
X45370D03*
X50500Y120630D03*
Y124370D03*
X40680Y130550D03*
X44420D03*
Y134050D03*
X40680D03*
X44520Y144550D03*
X40780D03*
X49250Y148980D03*
Y152720D03*
X67650Y148980D03*
Y152720D03*
X71180Y139450D03*
X74920D03*
X54000Y120630D03*
Y124370D03*
X57750Y120580D03*
Y124320D03*
X61350Y120580D03*
Y124320D03*
X40580Y140550D03*
X44320D03*
X45150Y152720D03*
Y148980D03*
X71750Y152720D03*
Y148980D03*
X74720Y143950D03*
X70980D03*
X53000Y149130D03*
Y152870D03*
X60000Y149130D03*
Y152870D03*
X56500Y149130D03*
Y152870D03*
X63500Y149130D03*
Y152870D03*
X98000Y208630D03*
X89850Y197575D03*
Y193835D03*
X94250Y197575D03*
Y193835D03*
X63630Y94000D03*
X67370D03*
X72630D03*
X76370D03*
X60630Y110500D03*
X64370D03*
X82970Y267377D03*
X79230D03*
X95970Y267277D03*
X92230D03*
X39970Y264677D03*
X36230D03*
X48030Y264923D03*
X51770D03*
X83870Y317500D03*
X80130D03*
X131330Y342500D03*
X120000Y226870D03*
Y223130D03*
X128000Y226870D03*
Y223130D03*
X63567Y217970D03*
Y214230D03*
X64730Y225233D03*
X68470D03*
X64730Y234133D03*
X68470D03*
X127470Y235433D03*
X123730D03*
X121267Y253970D03*
Y250230D03*
X131820Y269393D03*
X66030Y279523D03*
X69770D03*
X66030Y275123D03*
X69770D03*
X85010Y288130D03*
X88750D03*
X22530Y277123D03*
X26270D03*
X22530Y271723D03*
X26270D03*
X34470Y285677D03*
X30730D03*
X64630Y239500D03*
X68370D03*
X64630Y243000D03*
X68370D03*
X93850Y220975D03*
Y217235D03*
X98000Y212370D03*
X118870Y327000D03*
X115130D03*
X118870Y323500D03*
X115130D03*
X118870Y339500D03*
X115130D03*
X118870Y343000D03*
X115130D03*
X97500Y351870D03*
Y348130D03*
X69630Y373500D03*
X73370D03*
X66370Y360500D03*
X62630D03*
X66370Y371000D03*
X62630D03*
X66370Y367500D03*
X62630D03*
X66370Y364000D03*
X62630D03*
X92870Y368000D03*
X89130D03*
X92870Y364500D03*
X89130D03*
X92870Y361000D03*
X89130D03*
X92870Y371500D03*
X89130D03*
X88500Y348130D03*
Y351870D03*
X93000D03*
Y348130D03*
X262500Y27370D03*
Y23630D03*
X261630Y33000D03*
X265370D03*
X266500Y27370D03*
Y23630D03*
X261630Y50000D03*
X265370D03*
X261630Y42000D03*
X265370D03*
X261630Y54000D03*
X265370D03*
X261630Y38000D03*
X265370D03*
X218323Y179970D03*
Y176230D03*
X221970Y165077D03*
X218230D03*
X180523Y188470D03*
Y184730D03*
X187470Y173377D03*
X183730D03*
X204030Y93223D03*
X207770D03*
X214177Y89530D03*
Y93270D03*
X177162Y137030D03*
Y140770D03*
X179562Y162030D03*
Y165770D03*
X193000Y201270D03*
Y197530D03*
X140300Y111370D03*
Y107630D03*
X139314Y123000D03*
X143054D03*
X235730Y163200D03*
X239470D03*
X240600Y145830D03*
Y149570D03*
X209623Y123970D03*
Y120230D03*
X213277Y120030D03*
Y123770D03*
X231030Y110823D03*
X234770D03*
X226077Y120030D03*
Y123770D03*
X231030Y115023D03*
X234770D03*
X230630Y99123D03*
X234370D03*
X228530Y90723D03*
X232270D03*
X227577Y163530D03*
Y167270D03*
X190977Y172030D03*
Y175770D03*
X222123Y123970D03*
Y120230D03*
X234770Y118777D03*
X231030D03*
X234370Y102677D03*
X230630D03*
X222077Y91030D03*
Y94770D03*
X226623Y183970D03*
Y180230D03*
X180723Y180470D03*
Y176730D03*
X218323Y172970D03*
Y169230D03*
X204030Y99023D03*
X207770D03*
X204030Y106623D03*
X207770D03*
X190723Y191470D03*
Y187730D03*
X203530Y113823D03*
X207270D03*
X162162Y131530D03*
Y135270D03*
X167562Y131530D03*
Y135270D03*
X180470Y132962D03*
X176730D03*
X194470Y102762D03*
X190730D03*
X165370Y123500D03*
X161630D03*
X165370Y127000D03*
X161630D03*
X182830Y126000D03*
X186570D03*
X227230Y140100D03*
X230970D03*
X236600Y149570D03*
Y145830D03*
X228800D03*
Y149570D03*
X182830Y121600D03*
X186570D03*
X235130Y140100D03*
X238870D03*
X180500Y112630D03*
Y116370D03*
X182500Y108870D03*
Y105130D03*
X172630Y120000D03*
X176370D03*
X169130Y127000D03*
X172870D03*
X176370Y109000D03*
X172630D03*
Y105500D03*
X176370D03*
X132630Y107500D03*
X136370D03*
X132630Y111500D03*
X136370D03*
X201500Y201270D03*
Y197530D03*
X205000Y201270D03*
Y197530D03*
X210000Y185530D03*
Y189270D03*
X214500D03*
Y185530D03*
X195000Y184270D03*
Y180530D03*
X214370Y201400D03*
X210630D03*
Y197400D03*
X214370D03*
X218130D03*
X221870D03*
Y201400D03*
X218130D03*
X205000Y242270D03*
Y238530D03*
X176400Y314870D03*
Y311130D03*
X200730Y249800D03*
X204470D03*
X135070Y342500D03*
X134430Y312900D03*
X138170D03*
X146000Y232370D03*
Y228630D03*
X138630Y222000D03*
X142370D03*
X166370Y217500D03*
X162630D03*
X166370Y222500D03*
X162630D03*
X150060Y337050D03*
X146320D03*
X200730Y266600D03*
X204470D03*
X264070Y246400D03*
X260330D03*
X258700Y259530D03*
Y263270D03*
X143667Y211730D03*
Y215470D03*
X136033Y238030D03*
Y241770D03*
X144167Y238230D03*
Y241970D03*
X135560Y269393D03*
X132120Y265727D03*
X135860D03*
X159970Y294750D03*
X156230D03*
X162650Y298530D03*
Y302270D03*
X160550Y339530D03*
Y343270D03*
X156450Y298530D03*
Y302270D03*
X156650Y343470D03*
Y339730D03*
X210550Y294170D03*
Y290430D03*
X206950Y294170D03*
Y290430D03*
X212350Y334030D03*
Y337770D03*
X171100Y298730D03*
Y302470D03*
X175400Y298630D03*
Y302370D03*
X162870Y257500D03*
X159130D03*
X162870Y253000D03*
X159130D03*
X216100Y334030D03*
Y337770D03*
X220300Y334030D03*
Y337770D03*
X224850Y334030D03*
Y337770D03*
X218000Y294170D03*
Y290430D03*
X222000Y294170D03*
Y290430D03*
X226000Y294170D03*
Y290430D03*
X230100Y281930D03*
Y285670D03*
X250900Y341770D03*
Y338030D03*
X244700Y340270D03*
Y336530D03*
X214400Y294170D03*
Y290430D03*
X234300Y290330D03*
Y294070D03*
X230100D03*
Y290330D03*
X167200Y342970D03*
Y339230D03*
X197770Y227000D03*
X194030D03*
X216730Y267600D03*
X220470D03*
X227770Y241280D03*
Y245020D03*
X200730Y279600D03*
X204470D03*
X200730Y275600D03*
X204470D03*
X221600Y274230D03*
Y277970D03*
X225600Y274230D03*
Y277970D03*
X172900Y339230D03*
Y342970D03*
X193000Y327870D03*
Y324130D03*
X182500Y310130D03*
Y313870D03*
X150040Y344170D03*
X146300D03*
X149900Y323670D03*
Y319930D03*
X142870Y343000D03*
X139130D03*
X228000Y229870D03*
Y226130D03*
X200730Y261800D03*
X204470D03*
X200730Y258300D03*
X204470D03*
X217730Y251800D03*
X221470D03*
X227100Y257430D03*
Y261170D03*
X223100D03*
Y257430D03*
X245000Y323630D03*
Y327370D03*
X241000D03*
Y323630D03*
X245000Y316130D03*
Y319870D03*
X241000D03*
Y316130D03*
X220370Y242400D03*
X216630D03*
X209130Y238400D03*
X212870D03*
Y242400D03*
X209130D03*
X216630Y238400D03*
X220370D03*
X253870Y362000D03*
X250130D03*
X253870Y346000D03*
X250130D03*
X253870Y350000D03*
X250130D03*
X253870Y358000D03*
X250130D03*
X253870Y354000D03*
X250130D03*
X359000Y170370D03*
Y166630D03*
X381650Y163056D03*
Y159316D03*
X351900Y162816D03*
Y159076D03*
X337500Y161184D03*
Y164924D03*
X393401Y155530D03*
Y159270D03*
X355370Y172500D03*
X351630D03*
X355370Y169000D03*
X351630D03*
X400370Y89000D03*
X396630D03*
X400370Y93000D03*
X396630D03*
X370370Y112500D03*
X366630D03*
X370370Y123000D03*
X366630D03*
X370370Y116000D03*
X366630D03*
X370370Y119500D03*
X366630D03*
X352500Y148130D03*
Y151870D03*
X348500Y148130D03*
Y151870D03*
X361000Y148130D03*
Y151870D03*
X372000Y147630D03*
Y151370D03*
X366630Y130000D03*
X370370D03*
X368480Y147670D03*
Y151410D03*
X364990Y147670D03*
Y151410D03*
X330500Y151870D03*
Y148130D03*
X337500Y151870D03*
Y148130D03*
X370370Y126500D03*
X366630D03*
X334000Y151870D03*
Y148130D03*
X341500Y151870D03*
Y148130D03*
X323500Y151870D03*
Y148130D03*
X327000Y151870D03*
Y148130D03*
X345000Y151870D03*
Y148130D03*
X320000Y151870D03*
Y148130D03*
X309870Y113000D03*
X306130D03*
X309870Y120500D03*
X306130D03*
X309870Y117000D03*
X306130D03*
X309870Y124000D03*
X306130D03*
X320000Y93370D03*
Y89630D03*
X324000Y93370D03*
Y89630D03*
X307670Y203100D03*
X303930D03*
X290970Y186100D03*
X287230D03*
X290970Y197600D03*
X287230D03*
X307670D03*
X303930D03*
X307670Y191600D03*
X303930D03*
X308500Y152630D03*
Y156370D03*
X305000Y152630D03*
Y156370D03*
X312000Y152630D03*
Y156370D03*
X287230Y203100D03*
X290970D03*
X287230Y180100D03*
X290970D03*
X303930Y208100D03*
X307670D03*
X315500Y152630D03*
Y156370D03*
X282600Y162130D03*
Y165870D03*
Y173870D03*
Y170130D03*
X357700Y189870D03*
Y186130D03*
X362700Y189870D03*
Y186130D03*
X268000Y205430D03*
Y209170D03*
Y201870D03*
Y198130D03*
X372700Y189870D03*
Y186130D03*
X397216Y155650D03*
X400956D03*
X376630Y123500D03*
X380370D03*
X329630Y168000D03*
X333370D03*
X365850Y159256D03*
Y155516D03*
X381756Y155650D03*
X378016D03*
X389456D03*
X385716D03*
X285870Y333000D03*
X282130D03*
X294130Y321000D03*
X297870D03*
X351800Y301970D03*
Y298230D03*
X356100Y301970D03*
Y298230D03*
X268000Y213030D03*
Y216770D03*
X390850Y297070D03*
Y293330D03*
X285330Y227450D03*
X289070D03*
X285330Y231450D03*
X289070D03*
X285330Y220150D03*
X289070D03*
X285330Y223809D03*
X289070D03*
X366200Y295870D03*
Y292130D03*
X315500Y297630D03*
Y301370D03*
X316000Y290330D03*
Y294070D03*
X299500Y268870D03*
Y265130D03*
X320830Y292000D03*
X324570D03*
X268000Y221830D03*
Y225570D03*
X294130Y333000D03*
X297870D03*
X294130Y329500D03*
X297870D03*
X316000Y312170D03*
Y308430D03*
X294130Y315000D03*
X297870D03*
X294130Y311500D03*
X297870D03*
X306440Y300200D03*
X302700D03*
X320000Y308430D03*
Y312170D03*
X303140Y341320D03*
X306880D03*
Y336550D03*
X303140D03*
X282000Y328870D03*
Y325130D03*
Y321370D03*
Y317630D03*
X286000Y325130D03*
Y328870D03*
Y317630D03*
Y321370D03*
X322130Y370000D03*
X325870D03*
X322130Y366500D03*
X325870D03*
X322130Y375000D03*
X325870D03*
X322130Y378500D03*
X325870D03*
X444370Y45000D03*
X440630D03*
X444470Y49209D03*
X440730D03*
X440530Y34950D03*
X444270D03*
X440530Y39050D03*
X444270D03*
X448030D03*
X451770D03*
X404864Y89530D03*
Y93270D03*
X466000Y126370D03*
Y122630D03*
X462220Y176991D03*
Y173250D03*
X422180Y108000D03*
X425920D03*
X492870Y182000D03*
X489130D03*
Y186000D03*
X492870D03*
X493000Y193870D03*
Y190130D03*
X489000D03*
Y193870D03*
X489130Y198000D03*
X492870D03*
X433630Y186000D03*
X437370D03*
X437470Y190849D03*
X433730D03*
X471839Y177491D03*
Y173750D03*
X481710Y164039D03*
X485450D03*
X475539Y173750D03*
Y177491D03*
X481710Y167739D03*
X485450D03*
X449918Y167100D03*
X453658D03*
Y171200D03*
X449918D03*
X453370Y118500D03*
X449630D03*
Y115000D03*
X453370D03*
X482130Y118500D03*
X485870D03*
X482130Y113500D03*
X485870D03*
X471500Y122630D03*
Y126370D03*
X475500D03*
Y122630D03*
X460530Y241038D03*
X464270D03*
X479030Y240638D03*
X482770D03*
X494738Y246970D03*
Y243230D03*
X474370Y305500D03*
X470630D03*
X435500Y210630D03*
Y214370D03*
X494970Y250362D03*
X491230D03*
X464970Y259562D03*
X461230D03*
X469530Y240938D03*
X473270D03*
X479030Y244538D03*
X482770D03*
X487530Y238638D03*
X491270D03*
X461230Y255938D03*
X464970D03*
X479030Y248638D03*
X482770D03*
X435500Y221870D03*
Y218130D03*
X492370Y216000D03*
X488630D03*
Y221000D03*
X492370D03*
X417530Y226654D03*
X421270D03*
X419370Y311500D03*
X415630D03*
X419370Y308000D03*
X415630D03*
X420630Y326000D03*
X424370D03*
X420630Y331000D03*
X424370D03*
X420630Y336000D03*
X424370D03*
X421370Y212500D03*
X417630D03*
X421370Y217500D03*
X417630D03*
Y222500D03*
X421370D03*
X530200Y284570D03*
Y280830D03*
X534730Y284510D03*
X461370Y392000D03*
X457630D03*
X447000Y383370D03*
Y379630D03*
X420630Y351000D03*
X424370D03*
X420880Y366316D03*
X424620D03*
X424370Y361000D03*
X420630D03*
Y373500D03*
X424370D03*
X477930Y380000D03*
X481670D03*
X477930Y383500D03*
X481670D03*
X424370Y356000D03*
X420630D03*
X482590Y391470D03*
X478850D03*
X441730Y382540D03*
X437990D03*
X441700Y377640D03*
X437960D03*
X433390Y378330D03*
Y382070D03*
X491830Y379310D03*
X488090D03*
X473320Y383520D03*
Y379780D03*
X667833Y115458D03*
X664093D03*
X639030Y101700D03*
X642770D03*
X667766Y129704D03*
X664026D03*
X638170Y123040D03*
X641910D03*
X646384Y129570D03*
Y125830D03*
X649884Y129574D03*
Y125834D03*
X588000Y190630D03*
Y194370D03*
X626000Y171130D03*
Y174870D03*
X588000Y206370D03*
Y202630D03*
X620500Y164130D03*
Y167870D03*
X594000Y166130D03*
Y169870D03*
X604870Y160500D03*
X601130D03*
X594130D03*
X597870D03*
X610130D03*
X613870D03*
X626870D03*
X623130D03*
X597500Y169870D03*
Y166130D03*
X617000Y167870D03*
Y164130D03*
X602000Y171130D03*
Y174870D03*
X605500D03*
Y171130D03*
X612870Y174500D03*
X609130D03*
X595370Y173500D03*
X591630D03*
X619000Y178370D03*
Y174630D03*
X670500Y196130D03*
Y199870D03*
X661130Y200000D03*
X664870D03*
X650430Y101000D03*
X654170D03*
X653384Y129574D03*
Y125834D03*
X656884Y129570D03*
Y125830D03*
X667766Y136704D03*
X664026D03*
X667770Y126200D03*
X664030D03*
X667766Y133204D03*
X664026D03*
X671440Y126200D03*
X664030Y122700D03*
X667770D03*
X664030Y119200D03*
X667770D03*
X647800Y96570D03*
Y92830D03*
X651400D03*
Y96570D03*
X667833Y111858D03*
X664093D03*
X580030Y295360D03*
Y291620D03*
X614530Y330499D03*
X618270D03*
X538470Y288250D03*
Y284510D03*
X594170Y313662D03*
X590430D03*
X596500Y223870D03*
Y220130D03*
X615500Y223870D03*
Y220130D03*
X629000Y223870D03*
Y220130D03*
X646354Y328510D03*
X650095D03*
X584793Y280070D03*
Y276330D03*
X546650Y288170D03*
Y284430D03*
X556000Y304630D03*
Y308370D03*
X590870Y303000D03*
X587130D03*
X563630Y333000D03*
X567370D03*
X593870Y317500D03*
X590130D03*
X580000Y298630D03*
Y302370D03*
X564000Y298630D03*
Y302370D03*
X545630Y324500D03*
X549370D03*
X616463Y307267D03*
Y311007D03*
X546580Y284500D03*
X550320D03*
X552500Y304630D03*
Y308370D03*
X590870Y299500D03*
X587130D03*
X549000Y309877D03*
Y313617D03*
X602370Y304000D03*
X598630D03*
X575654Y334500D03*
X571914D03*
X622799Y325648D03*
Y329389D03*
X546720Y288100D03*
X542980D03*
X612730Y269400D03*
X616470D03*
X598450Y290030D03*
Y293770D03*
X590970Y295850D03*
X587230D03*
X616462Y296530D03*
Y300270D03*
X612792Y303738D03*
X616532D03*
X612796Y292838D03*
X616536D03*
X590630Y310000D03*
X594370D03*
X571984Y338151D03*
Y341891D03*
X572054Y338221D03*
X568314D03*
X593463Y280000D03*
X589723D03*
X584793Y283670D03*
Y279930D03*
X584863Y280000D03*
X581123D03*
X593111Y342627D03*
X593130Y334500D03*
X596870D03*
X550500Y332630D03*
Y336370D03*
X597130Y321422D03*
X600870D03*
X596870Y331000D03*
X593130D03*
X555000Y336370D03*
Y332630D03*
X549000Y317130D03*
Y320870D03*
X547000Y336370D03*
Y332630D03*
X589500Y325092D03*
Y321352D03*
X593000D03*
Y325092D03*
X600500Y311130D03*
Y314870D03*
X604000D03*
Y311130D03*
X591630Y286500D03*
X595370D03*
X594500Y292130D03*
Y295870D03*
X585500Y335870D03*
Y332130D03*
X581500D03*
Y335870D03*
X558500Y336370D03*
Y332630D03*
X608500Y276330D03*
Y280070D03*
X597500Y276330D03*
Y280070D03*
X604870Y280000D03*
X601130D03*
X574330Y300110D03*
Y303850D03*
X622370Y265500D03*
X618630D03*
X604218Y342626D03*
X637900Y266370D03*
Y262630D03*
X633900Y266370D03*
Y262630D03*
X629370Y265500D03*
X625630D03*
X643558Y272820D03*
Y276560D03*
X646354Y339310D03*
X650095D03*
X653795Y300937D03*
X650054D03*
X646354Y332110D03*
X650095D03*
X649954Y335710D03*
X653695D03*
X650024Y325013D03*
Y321272D03*
X622000Y223870D03*
Y220130D03*
X619870Y229000D03*
X616130D03*
X612000Y220130D03*
Y223870D03*
X609130Y229000D03*
X612870D03*
X593130D03*
X596870D03*
X603870D03*
X600130D03*
X600000Y220130D03*
Y223870D03*
X538470Y284510D03*
X593111Y346367D03*
X600481Y346297D03*
X596741D03*
X604218Y346367D03*
X614435Y354904D03*
Y351164D03*
X675180Y126200D03*
G54D12*
X119000Y25000D03*
X120000Y41000D03*
X4700Y206900D03*
Y196900D03*
Y186900D03*
Y176900D03*
Y166900D03*
Y116900D03*
Y106900D03*
X75500Y105500D03*
X104340Y164490D03*
X79000Y105500D03*
X72000D03*
X77730Y135450D03*
X45150Y155880D03*
X71750Y155820D03*
X37630Y140550D03*
X37910Y130550D03*
X70150Y117880D03*
X65900Y117910D03*
X124095Y201117D03*
Y205842D03*
X102739Y205511D03*
X103070Y201240D03*
X87322Y205842D03*
Y201117D03*
X74500Y118000D03*
X77550Y143950D03*
X63500Y107000D03*
X51700Y84800D03*
X59000Y107435D03*
X50500Y112500D03*
X60500Y94000D03*
X52500Y106500D03*
X57765Y100765D03*
X85500Y109000D03*
X49652Y127652D03*
X26000Y184300D03*
X50000Y191360D03*
X45000Y192500D03*
X76500Y162500D03*
X87000Y179500D03*
X69800Y188090D03*
X26740Y152960D03*
X37590Y134140D03*
X37850Y144550D03*
X67780Y131150D03*
X77790Y139450D03*
X67650Y155480D03*
X49250Y155710D03*
X62500Y170000D03*
X59500Y169000D03*
X129200Y184900D03*
X101000Y179500D03*
X82023Y162023D03*
X100823Y174677D03*
X79500Y173500D03*
X70810Y127000D03*
X108840Y167380D03*
X113340D03*
X113300Y164000D03*
X108800D03*
Y150500D03*
Y155000D03*
Y159500D03*
X113300Y150500D03*
X113060Y159570D03*
Y155090D03*
X121500Y133000D03*
X116500Y133500D03*
Y128500D03*
X126500D03*
Y133500D03*
X121500Y128500D03*
X125000Y185000D03*
X95196Y201117D03*
X116221Y205842D03*
X95196D03*
X131969D03*
Y201117D03*
X116221D03*
X67000Y205500D03*
X99260Y196260D03*
X62500Y192500D03*
X26310Y159110D03*
X100130Y114550D03*
Y118550D03*
X97000Y118500D03*
Y114500D03*
X84500Y118500D03*
X79500D03*
X54500Y192500D03*
X79500Y192000D03*
X107406Y177594D03*
X90500Y179600D03*
X4700Y296900D03*
Y286900D03*
Y276900D03*
Y266900D03*
Y256900D03*
Y246900D03*
Y236900D03*
Y226900D03*
Y336900D03*
Y306900D03*
Y316900D03*
Y326900D03*
Y216900D03*
X94026Y223949D03*
X91074Y325874D03*
X131969Y257576D03*
Y252851D03*
Y248127D03*
Y243402D03*
Y238678D03*
X124095Y248127D03*
X116221Y210566D03*
X131969D03*
Y229464D03*
X124095D03*
X116221D03*
X103070D03*
Y248127D03*
X116221Y238678D03*
Y243402D03*
Y248127D03*
Y252851D03*
Y257576D03*
X124095Y262300D03*
X103070D03*
X95196Y229464D03*
X87322D03*
X79448D03*
X94000Y211000D03*
X79448Y220015D03*
X87322Y248127D03*
X71574D03*
X79448Y238678D03*
Y248127D03*
Y243402D03*
X95196Y257576D03*
Y252851D03*
Y248127D03*
Y243402D03*
Y238678D03*
X71574Y229464D03*
Y220015D03*
Y262300D03*
X87322D03*
X79448Y257576D03*
Y252851D03*
X84500Y321000D03*
X101726Y325874D03*
X109500Y219500D03*
X101300Y282300D03*
X76377Y267377D03*
X98800Y265400D03*
X44520Y264923D03*
X55203D03*
X131969Y215290D03*
Y220015D03*
X124095Y215290D03*
Y220015D03*
X116221Y215290D03*
Y220015D03*
X60000Y219500D03*
X111980Y343000D03*
X112030Y339500D03*
X112190Y327000D03*
X112120Y323500D03*
X88500Y344960D03*
X128000Y265500D03*
X87322Y243402D03*
X125500Y253500D03*
X85800Y267377D03*
X63023Y279523D03*
Y275123D03*
X69650Y286180D03*
X24800Y265000D03*
X37340Y285677D03*
X23050Y283860D03*
X39900Y260400D03*
X121800Y339600D03*
X121670Y327000D03*
Y323500D03*
X121800Y343100D03*
X103070Y243402D03*
Y238678D03*
X125500Y258000D03*
X71574Y243402D03*
X87322Y238678D03*
X71574D03*
X123500Y267000D03*
X126000Y278500D03*
X80200Y321200D03*
X93760Y214260D03*
X87322Y210566D03*
X124095D03*
X108347Y215290D03*
X101500Y215500D03*
X100473Y220015D03*
X79448Y262300D03*
X90660Y264460D03*
X100473Y224739D03*
X108347D03*
X116221D03*
X87322D03*
Y220015D03*
X131969Y262300D03*
X116221D03*
X95196D03*
X131969Y224739D03*
X62500Y228500D03*
X58013Y226706D03*
X100000Y296500D03*
X79448Y215290D03*
X124095Y224739D03*
X64000Y266000D03*
X70000Y215000D03*
X69700Y282500D03*
X68500Y272000D03*
X124095Y243402D03*
Y238678D03*
X79448Y224739D03*
Y210566D03*
X109700Y410000D03*
X99700D03*
X89700D03*
X79700D03*
X69700D03*
X59700D03*
X49700D03*
X4700Y366900D03*
Y356900D03*
Y346900D03*
X96000Y361000D03*
Y371500D03*
X78000Y359000D03*
X93000Y355050D03*
X97500Y354850D03*
X131400Y345600D03*
X73100Y359300D03*
X80000Y372500D03*
X88500Y354890D03*
X76537Y372870D03*
X97500Y345250D03*
X97752Y364128D03*
X58198Y371372D03*
Y367128D03*
X134500Y24500D03*
Y40000D03*
X258500Y33000D03*
X259300Y27300D03*
X226000Y39000D03*
X240500D03*
X226000Y23000D03*
X241000Y23500D03*
X258440Y54000D03*
X255850Y16310D03*
X257840Y20080D03*
X253250Y19930D03*
X266500Y16500D03*
X262500D03*
X266500Y20000D03*
X262500D03*
X158310Y142600D03*
X219000Y97000D03*
X204876Y109966D03*
X200200Y85800D03*
X147717Y205842D03*
X139843Y201117D03*
Y205842D03*
X179500Y107500D03*
X153968Y114468D03*
X156000Y127000D03*
X210700Y194400D03*
X218200D03*
X193000Y204530D03*
X197500Y203900D03*
X198000Y186400D03*
X205500Y183400D03*
X210000Y182480D03*
X256400Y152000D03*
X256200Y147000D03*
X202000Y110500D03*
X235800Y166100D03*
X223500Y144000D03*
X202000Y124500D03*
X180000Y141538D03*
X176590Y161020D03*
X160500Y166000D03*
X217000Y87500D03*
X221640Y87950D03*
X232880Y122850D03*
X239000Y109500D03*
X222123Y126720D03*
X188480Y169870D03*
X180523Y191477D03*
X215420Y180020D03*
X137000Y141500D03*
X229120Y123890D03*
X211500Y132000D03*
X170500Y132500D03*
X180400Y137100D03*
X179500Y130000D03*
X227500Y116500D03*
X148000Y119500D03*
X176300Y102420D03*
X144000Y119500D03*
X183900Y118600D03*
X217500Y92500D03*
X226000Y88500D03*
X145800Y186300D03*
X136500Y192500D03*
X177000Y174000D03*
X177500Y169500D03*
X134800Y188600D03*
X218000Y185600D03*
X177410Y186590D03*
X210500Y173000D03*
X203500Y88500D03*
X195000Y177400D03*
X205000Y194400D03*
X193000D03*
X160500Y151500D03*
Y156000D03*
X156500Y151500D03*
X152000D03*
Y156000D03*
X156500D03*
X141700Y186200D03*
X158860Y181180D03*
X156500Y171000D03*
X161270Y171090D03*
X156450Y174900D03*
X161220Y174930D03*
X161020Y179280D03*
X156500Y179270D03*
X224835Y201525D03*
X230500Y94500D03*
X184500Y169000D03*
X185500Y166000D03*
X176800Y117070D03*
X265500Y192000D03*
X198000Y105000D03*
X173500Y130000D03*
X176400Y122890D03*
X139000Y184000D03*
X203000Y118500D03*
X200523Y99023D03*
X163000Y295600D03*
X175400Y295720D03*
X171300Y295880D03*
X237410Y290330D03*
X212400Y341400D03*
X223100Y264110D03*
X249200Y257703D03*
X238460Y260610D03*
X241200Y257703D03*
X245200D03*
X134500Y323000D03*
X134400Y326516D03*
X155592Y248127D03*
X147717D03*
Y252851D03*
Y257576D03*
X139843Y248127D03*
X147717Y238678D03*
X155592D03*
X139843Y229464D03*
Y262300D03*
X171300Y220580D03*
X169240Y217500D03*
X134500Y332000D03*
X226500Y223000D03*
X155690Y327700D03*
X217730Y245290D03*
X212800Y245400D03*
X220450Y214200D03*
X205000Y245040D03*
X243220Y330330D03*
X238140Y320340D03*
X257800Y317550D03*
X182640Y291910D03*
X203500Y295000D03*
X179200Y313800D03*
X188500Y318000D03*
X134509Y329214D03*
X267000Y246400D03*
X215600Y254800D03*
X218600Y263260D03*
X198100Y254300D03*
X197800Y249800D03*
X217100Y280180D03*
X197522Y267622D03*
X197800Y271100D03*
X215100D03*
X135860Y309900D03*
X210500Y330500D03*
X150000Y330600D03*
X176400Y319870D03*
X165600Y305900D03*
X153400Y305800D03*
X153000Y323600D03*
X210740Y250360D03*
X223000Y225000D03*
X234000Y219000D03*
X255880Y260620D03*
X260500Y256000D03*
X261850Y334350D03*
X220300Y340810D03*
X164000Y344500D03*
X232870Y283290D03*
X231500Y268400D03*
X242000Y268300D03*
X139080Y310140D03*
X156900Y317800D03*
X146400Y340500D03*
X174200Y307800D03*
X214500Y261500D03*
X235550Y222050D03*
X223500Y235000D03*
X201800Y238600D03*
X147615Y328415D03*
X237270Y294000D03*
X144500Y325126D03*
X144600Y333100D03*
X133500Y234000D03*
X135600Y272260D03*
X141500Y233000D03*
X151080Y267840D03*
X144600Y329600D03*
X249500Y236000D03*
X233850Y263110D03*
X247660Y332634D03*
X257500Y329500D03*
X244845Y313345D03*
X207655Y235506D03*
X216630Y235790D03*
X207655Y214055D03*
X168485Y326300D03*
X190044Y322928D03*
X184500Y318000D03*
X258000Y325227D03*
X200482Y284518D03*
X203500Y284600D03*
X204500Y306500D03*
X207360Y267210D03*
X210500Y279000D03*
X209800Y261800D03*
X215490Y249170D03*
X223230Y268530D03*
X207340Y250550D03*
X229930Y263350D03*
X144500Y321626D03*
X147717Y224739D03*
X155592D03*
X147717Y210566D03*
X155592D03*
Y220015D03*
Y215290D03*
X147717D03*
Y220015D03*
X212773Y214400D03*
X225720Y286740D03*
X220000Y283737D03*
X217000Y287500D03*
X214000Y283500D03*
X234000Y325000D03*
X234600Y328340D03*
X236670Y338000D03*
X216020Y341310D03*
X228000Y341500D03*
X211000Y287000D03*
X209000Y283000D03*
X139843Y210566D03*
X179540Y320090D03*
X140280Y224920D03*
X147959Y262541D03*
X155906Y262614D03*
X155592Y257576D03*
Y252851D03*
X200750Y340250D03*
X188170Y343500D03*
X261000Y340500D03*
X223265Y341735D03*
X257000Y345000D03*
X155592Y243402D03*
X147717D03*
X160808Y327400D03*
X231370Y343000D03*
X150500Y295500D03*
X155500Y291000D03*
X139843Y257576D03*
Y252851D03*
X140500Y243500D03*
Y238776D03*
X141220Y218980D03*
X239700Y410000D03*
X219700D03*
X199700D03*
X189700D03*
X209700D03*
X188250Y347000D03*
X143300Y346500D03*
X256500Y348000D03*
X214277Y345723D03*
X167000Y346000D03*
X158190Y346280D03*
X256690Y360420D03*
X257000Y351000D03*
X256690Y356890D03*
X202080Y352460D03*
X207500Y388000D03*
X135000Y345500D03*
X264000Y348000D03*
X170802Y346092D03*
X177872Y346040D03*
X211000Y352000D03*
X226500Y363000D03*
X211500Y355959D03*
X214000Y358518D03*
Y353400D03*
X251500Y376000D03*
X259500Y362500D03*
X260700Y357000D03*
X231500Y362500D03*
X225250Y354750D03*
X242670Y392390D03*
X229960Y392500D03*
X215000Y389500D03*
X228500Y354500D03*
X235500Y353005D03*
X273574Y33406D03*
X274000Y45000D03*
X270500Y29000D03*
X268500Y33000D03*
X355000Y54000D03*
X268690Y38000D03*
X268830Y50000D03*
X370000Y56000D03*
X268710Y54230D03*
X268360Y42470D03*
X277000Y205000D03*
X397000Y169000D03*
X269800Y147000D03*
X309500Y89500D03*
X293900Y123500D03*
X397800Y194000D03*
X392800D03*
X382800Y192500D03*
X387800D03*
X372700Y183200D03*
X367700D03*
X296147Y184927D03*
X311930Y185040D03*
X282800Y180100D03*
X278500Y162000D03*
X362700Y183200D03*
X341000Y171000D03*
X346000D03*
X358040Y183200D03*
X331000Y171000D03*
Y176000D03*
X336000D03*
Y171000D03*
X396908Y148592D03*
X351200Y94800D03*
X347800D03*
X358550Y91450D03*
X307000Y148500D03*
X310500Y149500D03*
X300000Y128500D03*
X278355Y171855D03*
X284500Y158000D03*
X338260Y154840D03*
X279900Y134813D03*
X293290Y118000D03*
X281086Y95354D03*
X365381Y97500D03*
X269000Y159000D03*
X300000Y163000D03*
X374984Y147483D03*
X373860Y159720D03*
X354800Y183200D03*
X359500Y109500D03*
X338800Y95800D03*
X369800Y88200D03*
X369500Y91500D03*
X376000Y91000D03*
X285500Y112500D03*
X294000Y114500D03*
X291000Y159000D03*
X402000Y135500D03*
X308500Y86500D03*
X290234Y135266D03*
X288500Y160500D03*
X329190Y93300D03*
X305890Y167485D03*
X308500Y166000D03*
X282000Y208000D03*
X342700Y194000D03*
X347700D03*
X332700D03*
X337700D03*
X381840Y170840D03*
X273600Y209130D03*
X382000Y175000D03*
X372510Y192690D03*
X362700Y192680D03*
X372550Y178200D03*
X367620Y178520D03*
X372270Y173980D03*
X372390Y169150D03*
X313500Y163500D03*
X401500Y145000D03*
X383160Y167660D03*
X386500Y168500D03*
X280000Y178000D03*
X299000Y171500D03*
X280500Y197500D03*
X299000Y208100D03*
X267500Y194500D03*
X278000Y187000D03*
X299500Y203100D03*
X299430Y190500D03*
X298500Y197600D03*
X316750Y174750D03*
X368770Y161120D03*
X361050Y174340D03*
X312550Y209650D03*
X294606Y195819D03*
X303500Y172000D03*
X313000Y197980D03*
X320000Y86500D03*
X327000Y87000D03*
X316500Y185500D03*
X316000Y190500D03*
X356500Y178500D03*
X392000Y108430D03*
X296500Y233000D03*
X274500Y221000D03*
X328730Y308380D03*
X296500Y288500D03*
X296450Y229700D03*
X296500Y225500D03*
X298500Y220600D03*
X296500Y283500D03*
Y275500D03*
Y270000D03*
Y264500D03*
Y258500D03*
Y253000D03*
Y246000D03*
Y242000D03*
X288800Y333000D03*
X316500Y335370D03*
X309210Y326970D03*
X291270Y320990D03*
X292000Y325500D03*
X287500Y302000D03*
X316000Y317140D03*
X291500Y307500D03*
X269200Y251900D03*
X268900Y257500D03*
X294500Y294000D03*
X276000Y269000D03*
X289000Y317700D03*
Y325200D03*
X365000Y299500D03*
X282200Y336200D03*
X317193Y251685D03*
Y257685D03*
X317526Y263660D03*
X317193Y233685D03*
Y239685D03*
Y245685D03*
Y227685D03*
X270865Y222165D03*
X279106Y330345D03*
X279410Y321780D03*
X270800Y213740D03*
X348500Y294800D03*
X360808Y310000D03*
X323300Y314300D03*
X317500Y278000D03*
Y283000D03*
X317540Y287410D03*
X309920Y298290D03*
X311500Y267500D03*
X291060Y314680D03*
X374607Y321137D03*
X347107Y312827D03*
X309700Y341320D03*
X361370Y339410D03*
X367500Y339600D03*
X364560Y339440D03*
X358500Y294800D03*
X362492Y294732D03*
X271000Y217000D03*
X271130Y225460D03*
X301000Y333000D03*
X318500Y323000D03*
X301000Y321000D03*
Y315000D03*
X300000Y305500D03*
X369607Y321137D03*
X352107Y312827D03*
X292150Y335850D03*
X364000Y312650D03*
X372107Y312827D03*
X379607Y321137D03*
X344607D03*
X378065Y312685D03*
X357107Y312827D03*
X357820Y339750D03*
X354607Y321137D03*
X367107Y312827D03*
X342107D03*
X364607Y321137D03*
X375360Y340510D03*
X339607Y321137D03*
X372107Y340623D03*
X306710Y313910D03*
X278245Y235255D03*
X277080Y231260D03*
X278000Y344000D03*
X284000D03*
X289000D03*
X345000Y294000D03*
X328170Y293120D03*
X342000Y293500D03*
X290500Y283080D03*
X330000Y311100D03*
X335498Y292500D03*
X331762D03*
X354500Y291000D03*
X359818Y292082D03*
X270000Y314500D03*
X293000Y225500D03*
X398200Y411100D03*
X388200D03*
X378200D03*
X368200D03*
X358200D03*
X348200D03*
X338200D03*
X328200D03*
X318200D03*
X308200D03*
X298200D03*
X308500Y362000D03*
X308400Y391300D03*
Y386000D03*
X308500Y357500D03*
X363500Y373000D03*
X385500Y379500D03*
X390100Y373500D03*
X387000D03*
X390500Y369500D03*
X387000D03*
X339000Y374500D03*
Y379500D03*
Y369500D03*
X340094Y384094D03*
X274250Y359750D03*
X316048Y346048D03*
X334950Y360840D03*
X335000Y363800D03*
X349500Y384000D03*
X350000Y367500D03*
X328900Y391000D03*
Y386500D03*
X369500Y373500D03*
X366500Y392500D03*
X371000D03*
X372520Y359940D03*
X356490Y349040D03*
X377107Y348932D03*
X319000Y366500D03*
X348500Y374500D03*
X367107Y348932D03*
X370150Y349040D03*
X447500Y45000D03*
X447600Y49209D03*
X458500Y39000D03*
X474000Y39500D03*
X459000Y23000D03*
X474500D03*
X436500Y45000D03*
X475500Y55500D03*
X480500Y55000D03*
X476000Y51000D03*
X451770Y42050D03*
X440800Y52700D03*
X436000Y34500D03*
Y39050D03*
X492692Y152700D03*
X464500Y112500D03*
Y108000D03*
X470450Y107990D03*
X467500Y109500D03*
X470500Y112500D03*
X443000Y108500D03*
X470000Y91500D03*
X449500Y176700D03*
X451500Y179000D03*
X439000Y155000D03*
X440040Y188620D03*
X439500Y201000D03*
X439000Y195000D03*
X426000Y201000D03*
Y197500D03*
X439000Y159500D03*
Y177000D03*
X451500Y196500D03*
Y201500D03*
Y206000D03*
X464500Y197000D03*
X425500Y159970D03*
X439000Y182500D03*
X439270Y172900D03*
X439000Y166500D03*
X464500Y201000D03*
Y204500D03*
X442500Y142500D03*
Y151759D03*
X468000Y159000D03*
X465000Y161000D03*
Y157700D03*
X471000D03*
Y161000D03*
X461720Y141478D03*
X466220D03*
X406700Y173200D03*
X416000Y174000D03*
X417500Y124000D03*
X493000Y102000D03*
X495800Y197420D03*
X479047Y176047D03*
X482000D03*
X479047Y179000D03*
X482000D03*
X479047Y181953D03*
X482000D03*
X484953Y176047D03*
Y179000D03*
Y181953D03*
X405000Y152500D03*
X493000Y115563D03*
X488413Y127413D03*
X474500Y119500D03*
X495820Y182090D03*
X489720Y167150D03*
X472000Y147500D03*
X440500Y96500D03*
X425640Y143000D03*
X494400Y139400D03*
Y143400D03*
X458010Y151730D03*
X456330Y154360D03*
X460000Y154000D03*
X469000Y182500D03*
X421300Y209200D03*
X417800Y194000D03*
X412800D03*
X402800Y192500D03*
X407800D03*
X474000Y202500D03*
X489900Y204590D03*
X406000Y159600D03*
X409250Y150800D03*
X405500Y167500D03*
X491630Y156490D03*
X422350Y198880D03*
X473860Y208699D03*
X473450Y195650D03*
X471000Y188500D03*
X409500Y170500D03*
X425500Y169450D03*
X413500Y169500D03*
X464730Y187470D03*
X465080Y182800D03*
X409230Y88100D03*
X465000Y210500D03*
X464500Y217000D03*
X474760Y258000D03*
X471782Y236382D03*
X474000Y231300D03*
X529500Y273000D03*
X534030Y274210D03*
X434900Y232900D03*
Y280400D03*
X493200Y344000D03*
X493000Y337500D03*
Y332500D03*
X445000Y309500D03*
X457000D03*
X445000Y304382D03*
X457000D03*
X417500Y341000D03*
X463880Y324880D03*
X537400Y276300D03*
X477500Y305500D03*
X479502Y232393D03*
X479500Y227700D03*
X528563Y289687D03*
X536437Y307713D03*
X528563D03*
X468500Y260500D03*
X476940Y236370D03*
X476141Y251141D03*
X474500Y238000D03*
X498400Y246900D03*
X488660Y248002D03*
X494738Y240100D03*
X494500Y236500D03*
X483800Y344000D03*
X415339Y286090D03*
Y276090D03*
Y281091D03*
X406000Y299860D03*
X431850Y224320D03*
X491000Y211500D03*
X466589Y238649D03*
X482700Y236800D03*
X485000Y231840D03*
X414240Y231680D03*
X414000Y241500D03*
X414500Y237500D03*
X413532Y335986D03*
X413850Y326020D03*
X424054Y226654D03*
X414560Y223470D03*
X527000Y284500D03*
X484000Y332500D03*
X460250Y324750D03*
X484000Y337500D03*
X423149Y303351D03*
X467500Y234000D03*
X531000Y343000D03*
X526500D03*
X531000Y337000D03*
X527000D03*
X415000Y264000D03*
Y259500D03*
X427340Y336000D03*
X440000Y218400D03*
X493012Y254987D03*
X508500Y411200D03*
X498500D03*
X488500D03*
X478200Y411100D03*
X468200D03*
X458200D03*
X448200D03*
X438200D03*
X428200D03*
X418200D03*
X408200D03*
X461347Y377000D03*
X473000Y386800D03*
X469500Y386500D03*
X490200Y375300D03*
X493180Y349000D03*
X492580Y361000D03*
X454530Y392380D03*
X450500Y387000D03*
X417500Y366000D03*
Y356000D03*
Y361000D03*
X491214Y383214D03*
X483720Y354000D03*
X451400Y377400D03*
X484500Y380000D03*
Y383500D03*
X417500Y373500D03*
X433390Y387090D03*
X475660Y391470D03*
X427500Y346000D03*
X417500D03*
X433500Y390500D03*
X430700Y355900D03*
X468000Y377500D03*
X428940Y376560D03*
X406500Y364500D03*
X406000Y373500D03*
X427500Y370000D03*
X477930Y387000D03*
X484420Y361000D03*
X484100Y372300D03*
X418500Y379988D03*
X415000Y380000D03*
X427500Y351000D03*
Y356000D03*
Y361000D03*
X416000Y390170D03*
X433390Y375770D03*
X581500Y23500D03*
X565500D03*
Y39500D03*
X581500D03*
X664000Y38500D03*
X663000Y23000D03*
X571000Y122500D03*
X568200Y119400D03*
X560244Y134456D03*
X566000Y125000D03*
X563200Y129400D03*
Y134400D03*
X649500Y114000D03*
X623300Y167800D03*
X631500Y176500D03*
X637500D03*
X634500D03*
X650000Y202000D03*
Y198000D03*
X621000Y181500D03*
X617000Y207500D03*
X612000D03*
X607000D03*
X602000D03*
X597000D03*
X590000Y198484D03*
X617000Y192500D03*
X612000D03*
X607000D03*
X602000D03*
X597000D03*
Y187500D03*
X602000D03*
X607000D03*
X612000D03*
X617000D03*
Y202500D03*
X612000D03*
X607000D03*
X602000D03*
X597000D03*
Y197500D03*
X602000D03*
X607000D03*
X612000D03*
X617000D03*
X557000Y199500D03*
X553000Y199000D03*
Y194500D03*
X557000D03*
X549000Y199000D03*
Y194500D03*
X586500Y155000D03*
X589500D03*
X583500D03*
X580500D03*
X591250Y169800D03*
X607500Y162400D03*
X604000Y163500D03*
X611500D03*
X578901Y88729D03*
X574901D03*
X570901D03*
Y92729D03*
X574901D03*
X578901D03*
X646500Y114000D03*
X670750Y136704D03*
X646500Y110500D03*
X649500D03*
X671100Y111858D03*
X670860Y115290D03*
X568300Y140800D03*
X563300D03*
Y145800D03*
Y150800D03*
X568300D03*
Y145800D03*
X573300D03*
Y150800D03*
X590901Y88729D03*
X586901D03*
X582901D03*
X590901Y92729D03*
X586901D03*
X582901D03*
X602500Y88000D03*
X671510Y129480D03*
X624496Y200459D03*
X645000Y159500D03*
X639500Y159000D03*
X634000Y159500D03*
X648000Y163000D03*
X641500D03*
X631000D03*
X636500D03*
X591220Y160500D03*
X548000Y169500D03*
X544000D03*
X552000Y174500D03*
X648600Y88050D03*
X646630Y85710D03*
X646580Y90040D03*
X640080Y131120D03*
X643120Y138130D03*
X639880Y134930D03*
X639850Y138150D03*
X643120Y134890D03*
X643280Y131120D03*
X595062Y163332D03*
X654500Y97500D03*
X625730Y194380D03*
X606016Y179500D03*
X609955D03*
X625000Y181500D03*
X572000Y207000D03*
X576000D03*
X580000D03*
X619200Y150900D03*
X582500Y175500D03*
Y185500D03*
Y180500D03*
X587500Y175500D03*
X630921Y202421D03*
X627921D03*
X632300Y194366D03*
X629300Y193400D03*
X629000Y196516D03*
X640500Y150750D03*
X594050Y154800D03*
X577200Y191100D03*
X580780Y191230D03*
X573800Y191070D03*
X566260Y190411D03*
X600500Y112500D03*
X556500Y262000D03*
X552326Y262226D03*
X593111Y339500D03*
X608500Y273290D03*
X597500Y273180D03*
X555450Y276110D03*
X550000Y269500D03*
X562860Y273050D03*
X617030Y262143D03*
X646354Y325760D03*
X543000Y277000D03*
X625380Y223590D03*
X637500Y217500D03*
X631500D03*
X634500D03*
X618500Y220200D03*
X617827Y214827D03*
X595430Y217370D03*
X588000Y227500D03*
Y231000D03*
X578000Y227500D03*
Y231000D03*
X606360Y231620D03*
X641995Y269995D03*
X658800Y263478D03*
X626760Y282630D03*
X626530Y278032D03*
X629400Y280000D03*
X632058Y282690D03*
X632450Y277870D03*
X635058Y290690D03*
X618900Y274000D03*
X630200Y290900D03*
X629958Y300190D03*
X646424Y335224D03*
X642160Y262500D03*
X590000Y283500D03*
X544500Y304000D03*
X552360Y301540D03*
X555580Y301870D03*
X577105Y298105D03*
X571000Y316500D03*
X586330Y326550D03*
X578480Y334290D03*
X596680Y317800D03*
X609000Y299000D03*
X593630Y299500D03*
X593760Y303000D03*
X607280Y310950D03*
X564900Y287200D03*
X549490Y279500D03*
X596292Y265108D03*
X576600Y277830D03*
X569350Y261450D03*
X546650Y277150D03*
X547500Y300500D03*
X543000Y294500D03*
X609662Y292838D03*
X612862Y306638D03*
X591500Y291500D03*
X545000Y266500D03*
X549000D03*
Y263500D03*
X545000D03*
X580630Y308520D03*
X557000Y299000D03*
X554493Y294497D03*
X633000Y311000D03*
X622000Y315500D03*
Y311000D03*
X621125Y271987D03*
X655210Y270058D03*
X653624Y338924D03*
X641000Y292000D03*
X584110Y306610D03*
X606000Y323500D03*
X648500Y268758D03*
X645119Y268934D03*
X651010Y270458D03*
X617258Y284590D03*
X613000Y284500D03*
X637655Y272649D03*
X640740Y277800D03*
X556000Y225500D03*
X552000D03*
X548300Y225700D03*
Y220800D03*
X552200D03*
X556100D03*
X626312Y268689D03*
X629400Y268800D03*
X632400Y269100D03*
X593000Y211500D03*
X588500D03*
X590000Y217000D03*
X584000Y211500D03*
X655200Y232000D03*
X658700D03*
X651200D03*
X655200Y227400D03*
X658700D03*
X651200D03*
X642000Y266000D03*
X560000Y280080D03*
X616500Y321000D03*
X584930Y286430D03*
X601000Y295825D03*
X584390Y295850D03*
X590470Y328070D03*
X584170Y299500D03*
X584280Y303000D03*
X552500Y311300D03*
X556000Y311320D03*
X581500Y339020D03*
X589000Y333500D03*
X597280Y314440D03*
X638500Y411200D03*
X628500D03*
X618500D03*
X648500D03*
X608500D03*
X598500D03*
X588500D03*
X645642Y359358D03*
X679000Y38500D03*
X679500Y22500D03*
X683000Y177500D03*
Y159000D03*
X696100Y111900D03*
Y121900D03*
Y131900D03*
Y141900D03*
Y151900D03*
Y161900D03*
Y171900D03*
Y201900D03*
Y181900D03*
Y191900D03*
X675310Y129100D03*
X677080Y164030D03*
X676580Y173610D03*
X677170Y180500D03*
X676670Y157140D03*
X696100Y211900D03*
X677700Y275600D03*
Y280600D03*
Y285600D03*
Y290600D03*
Y295600D03*
Y305700D03*
Y315900D03*
Y325800D03*
Y336000D03*
Y346100D03*
G54D114*
X488500Y346154D03*
Y352846D03*
G54D123*
X650321Y107188D03*
X648353D03*
X646384D03*
X644416D03*
X640479D03*
X650321Y118212D03*
X648353D03*
X646384D03*
X644416D03*
X640479D03*
G54D105*
X438752Y342701D03*
X441902D03*
X445051D03*
X448201D03*
X451350D03*
X454500D03*
X457650D03*
X460799D03*
X463949D03*
X467098D03*
X470248D03*
X438752Y339551D03*
X441902D03*
X445051D03*
X448201D03*
X451350D03*
X454500D03*
X457650D03*
X460799D03*
X463949D03*
X467098D03*
X470248D03*
X438752Y336402D03*
X441902D03*
X445051D03*
X448201D03*
X451350D03*
X454500D03*
X457650D03*
X460799D03*
X463949D03*
X467098D03*
X470248D03*
X438752Y333252D03*
X441902D03*
X445051D03*
X448201D03*
X451350D03*
X454500D03*
X457650D03*
X460799D03*
X463949D03*
X467098D03*
X470248D03*
X438752Y364748D03*
X441902D03*
X445051D03*
X448201D03*
X451350D03*
X454500D03*
X457650D03*
X460799D03*
X463949D03*
X467098D03*
X470248D03*
X438752Y361598D03*
X441902D03*
X445051D03*
X448201D03*
X451350D03*
X454500D03*
X457650D03*
X460799D03*
X463949D03*
X467098D03*
X470248D03*
X438752Y358449D03*
X441902D03*
X445051D03*
X448201D03*
X451350D03*
X454500D03*
X457650D03*
X460799D03*
X463949D03*
X467098D03*
X470248D03*
X438752Y355299D03*
X441902D03*
X445051D03*
X448201D03*
X451350D03*
X454500D03*
X457650D03*
X460799D03*
X463949D03*
X467098D03*
X470248D03*
X438752Y352150D03*
X441902D03*
X445051D03*
X448201D03*
X451350D03*
X454500D03*
X457650D03*
X460799D03*
X463949D03*
X467098D03*
X470248D03*
X438752Y349000D03*
X441902D03*
X445051D03*
X448201D03*
X451350D03*
X454500D03*
X457650D03*
X460799D03*
X463949D03*
X467098D03*
X470248D03*
X438752Y345850D03*
X441902D03*
X445051D03*
X448201D03*
X451350D03*
X454500D03*
X457650D03*
X460799D03*
X463949D03*
X467098D03*
X470248D03*
G54D132*
X633711Y132080D03*
X619549D03*
X641831Y91330D03*
X627669D03*
G54D141*
X578874Y311579D03*
Y313547D03*
Y315516D03*
Y317484D03*
Y319453D03*
Y321421D03*
G54D21*
X49716Y133514D03*
Y139420D03*
X212258Y102612D03*
Y104580D03*
Y106549D03*
Y108517D03*
Y110486D03*
Y112454D03*
G54D115*
X585000Y159594D03*
Y171406D03*
X552400Y203594D03*
X583000Y227405D03*
Y215594D03*
X552400Y215406D03*
X640558Y302873D03*
Y314684D03*
G54D31*
X77940Y131500D03*
X60000Y160000D03*
X64500Y161500D03*
X54585Y159915D03*
X51250Y160250D03*
X80000Y186500D03*
X32500Y266000D03*
X59000Y279500D03*
X59748Y239128D03*
Y243372D03*
X122190Y271560D03*
X67500Y229500D03*
X63500Y211000D03*
X93000Y345220D03*
X85530Y361470D03*
X97752Y368372D03*
X258170Y42000D03*
X258290Y50000D03*
X258170Y38080D03*
X187000Y50500D03*
X226000Y130000D03*
X135500Y123000D03*
X160500Y119500D03*
X247500Y149000D03*
X243625Y149675D03*
X264000Y159000D03*
X203000Y103500D03*
X234000Y185500D03*
X217891Y225400D03*
X266100Y322668D03*
X192500Y340000D03*
X209130Y245580D03*
X185890Y295210D03*
X181000Y305000D03*
X207560Y314890D03*
X186840Y324860D03*
X193000Y317500D03*
X197650Y261800D03*
X199500Y295500D03*
X174730Y280890D03*
X234500Y276000D03*
X197640Y279220D03*
X214000Y225400D03*
X232500Y297000D03*
X233140Y331200D03*
X229200Y331230D03*
X226160Y297170D03*
X222495Y297095D03*
X218960Y297100D03*
X214980Y297000D03*
X224850Y331210D03*
X220870Y330970D03*
X216455Y331055D03*
X222290Y287550D03*
X169372Y251478D03*
X166035Y253000D03*
X185750Y243030D03*
X170130Y341360D03*
X233475Y340575D03*
X203000Y302000D03*
X196500Y282500D03*
X250200Y364800D03*
X245875Y388735D03*
X305500Y86500D03*
X269000Y91500D03*
X377000Y120500D03*
X326000Y167500D03*
X297500Y113000D03*
X354050Y195450D03*
X367700Y193100D03*
X314000Y167500D03*
X377800Y183200D03*
X357870Y192770D03*
X289250Y126950D03*
X278500Y131953D03*
X295400Y203100D03*
X294000Y180000D03*
X311340Y203100D03*
X312500Y111000D03*
X363500Y130000D03*
X397500Y97500D03*
X400610Y96340D03*
X357000Y163000D03*
X359500Y160000D03*
X316890Y93190D03*
X289000Y328800D03*
X310930Y324050D03*
X269214Y327786D03*
X269000Y320109D03*
X393600Y290900D03*
X359607Y321137D03*
X349607D03*
X333735Y311100D03*
X282500Y223859D03*
Y220200D03*
Y231500D03*
Y227500D03*
X293000Y230500D03*
X397045Y305455D03*
X386190Y292020D03*
X390960Y300430D03*
X319000Y379500D03*
Y370500D03*
X349500Y378000D03*
X350500Y371500D03*
X329000Y375000D03*
X372510Y354813D03*
X319000Y375000D03*
X329000Y366500D03*
X480500Y51000D03*
X436110Y152050D03*
X494400Y147400D03*
X456000Y95000D03*
X440000Y90000D03*
X475500Y129200D03*
X414000Y99810D03*
X410500Y96000D03*
X432000Y152500D03*
X406000Y101000D03*
X495680Y185820D03*
X490553Y207500D03*
X417656Y159600D03*
X425500Y179450D03*
X425550Y174450D03*
X425000Y183500D03*
X523780Y285610D03*
X494900Y260710D03*
X422490Y308000D03*
X414811Y212500D03*
X427125Y331125D03*
X424300Y322500D03*
X422240Y311430D03*
X495210Y216000D03*
X495500Y221000D03*
X467450Y219450D03*
X427340Y223290D03*
X457000Y260000D03*
X404500Y310500D03*
X417500Y351000D03*
X488500Y356900D03*
X483700Y348810D03*
X448000Y389700D03*
X440000Y386350D03*
X436500D03*
X444500Y389700D03*
X464240Y390590D03*
X445110Y372510D03*
X656500Y54500D03*
X568200Y114400D03*
X670890Y133204D03*
X630500Y112800D03*
X670710Y122700D03*
X552000Y169500D03*
X595000Y177000D03*
X631100Y150700D03*
X584000Y207000D03*
X560500D03*
X615858Y180000D03*
X667640Y200000D03*
X620500Y171500D03*
X598142Y180000D03*
X584210Y191250D03*
X605020Y276690D03*
X577980Y283240D03*
X566850Y283210D03*
X555930Y289100D03*
X614390Y323580D03*
X620340Y294800D03*
X589570Y343250D03*
X604710Y317790D03*
X542630Y324600D03*
X546200Y317200D03*
X604218Y339500D03*
X548620Y306690D03*
X555000Y339320D03*
X585500Y338940D03*
X606800Y304000D03*
X600000Y330500D03*
X615000Y273500D03*
X627210Y262270D03*
X620500Y262500D03*
X598142Y215000D03*
X631180Y262500D03*
X637900Y269440D03*
X622000Y217000D03*
X625500Y226800D03*
X552000Y327000D03*
X565000Y338221D03*
X600500Y317690D03*
X643293Y280564D03*
X547400Y340400D03*
X599970Y334650D03*
X683000Y167500D03*
G54D142*
X575921Y324374D03*
X573953D03*
X571984D03*
X570016D03*
X568047D03*
X566079D03*
G54D133*
X625456Y339358D03*
X640810D03*
Y359358D03*
X625456D03*
G54D13*
X121886Y149500D03*
X145114D03*
G54D40*
X94913Y321364D03*
Y330025D03*
X98358Y321364D03*
Y330025D03*
X94913Y323332D03*
Y328057D03*
X98358Y323332D03*
Y328057D03*
G54D22*
X57491Y136467D03*
G54D124*
X607000Y197500D03*
G54D106*
X407107Y330880D03*
G54D107*
X428386Y317339D03*
X451614D03*
X428386Y314780D03*
X451614D03*
X428386Y312220D03*
X451614D03*
X428386Y309661D03*
X451614D03*
G54D41*
X96635Y325695D03*
G54D50*
X196032Y189404D03*
G54D32*
X59460Y134498D03*
X55523D03*
X59460Y138435D03*
X55523D03*
X218000Y106000D03*
Y109500D03*
X221017Y105565D03*
Y109502D03*
X232279Y249547D03*
Y253047D03*
X227279Y249047D03*
X227779Y253547D03*
G54D116*
X597050Y154500D03*
X602950D03*
X634050D03*
X639950D03*
X627950D03*
X622050D03*
X615950D03*
X610050D03*
G54D134*
X630400Y317600D03*
Y328600D03*
G54D14*
X121500Y119433D03*
Y98567D03*
G54D143*
X571000Y316500D03*
G54D23*
X75500Y105500D03*
G54D125*
X617827Y183720D03*
X615858D03*
X613890D03*
X611921D03*
X609953D03*
X607984D03*
X606016D03*
X604047D03*
X602079D03*
X600110D03*
X598142D03*
X596173D03*
G54D51*
X155000Y146284D03*
Y131716D03*
G54D33*
X109670Y230548D03*
Y236532D03*
X264200Y264392D03*
Y258408D03*
X361300Y306792D03*
Y300808D03*
X329000Y297308D03*
Y303292D03*
X335400Y297308D03*
Y303292D03*
X341800Y297308D03*
Y303292D03*
X322200Y297308D03*
Y303292D03*
X544000Y313547D03*
Y307563D03*
G54D108*
X486200Y295600D03*
Y270000D03*
X468500Y295600D03*
G54D15*
X50000Y206118D03*
Y257299D03*
X177165Y206118D03*
G54D60*
X162000Y245000D03*
X183550Y269310D03*
X285500Y119500D03*
X329500Y160000D03*
X305250Y132251D03*
X289250Y131352D03*
X274750Y142953D03*
X373500Y164500D03*
X390250Y171566D03*
X401250Y164666D03*
X315500Y205500D03*
X298000Y119000D03*
X272600Y176100D03*
X324500Y185500D03*
X277000Y226600D03*
X276700Y213000D03*
X312700Y376710D03*
X390000Y387500D03*
X392490Y359170D03*
X298720Y365720D03*
X440670Y113090D03*
X427750Y164154D03*
X412860Y91200D03*
X433750Y144957D03*
X421000Y144500D03*
X425010Y90700D03*
X414000Y164500D03*
X432750Y200961D03*
X408250Y146062D03*
X419250Y202662D03*
X408750Y132364D03*
X422500Y132000D03*
X491000Y388000D03*
X490700Y368100D03*
X672100Y186800D03*
X569900Y132900D03*
X591500Y222500D03*
X605610Y289280D03*
X539360Y342800D03*
X605140Y329680D03*
G54D144*
X568000Y313500D03*
X574000D03*
X571000D03*
X568000Y316500D03*
X574000D03*
X571000Y319500D03*
X568000D03*
X574000D03*
X564728Y293272D03*
X572500Y286000D03*
X566600Y291300D03*
X568704Y286836D03*
X568665Y289335D03*
Y293272D03*
X573000Y289000D03*
X570700Y291400D03*
X572602Y293272D03*
G54D135*
X596173Y211280D03*
X598142D03*
X600110D03*
X602079D03*
X604047D03*
X606016D03*
X607984D03*
X609953D03*
X611921D03*
X613890D03*
X615858D03*
X617827D03*
G54D117*
X655500Y209996D03*
Y172996D03*
Y185004D03*
Y222004D03*
G54D42*
X120000Y300000D03*
G54D24*
X79437Y111307D03*
X77468D03*
X75500D03*
X73532D03*
X71563D03*
G54D126*
X593220Y186673D03*
Y188642D03*
Y190610D03*
Y192579D03*
Y194547D03*
Y196516D03*
Y198484D03*
Y200453D03*
Y202421D03*
Y204390D03*
Y206358D03*
Y208327D03*
G54D109*
X468500Y270000D03*
G54D61*
X244000Y229500D03*
X284000Y265000D03*
G54D136*
X629400Y280000D03*
G54D16*
X121916Y174644D03*
X149082D03*
G54D43*
X80520Y368953D03*
Y363047D03*
X75480D03*
Y368953D03*
G54D25*
X79437Y99693D03*
X77468D03*
X75500D03*
X73532D03*
X71563D03*
G54D52*
X164984Y108563D03*
Y110532D03*
Y112500D03*
Y114468D03*
Y116437D03*
X148016D03*
Y114468D03*
Y112500D03*
Y110532D03*
Y108563D03*
G54D145*
X625456Y346858D03*
Y351858D03*
X640810Y346858D03*
Y351858D03*
G54D127*
X620780Y208327D03*
Y206358D03*
Y204390D03*
Y202421D03*
Y200453D03*
Y198484D03*
Y196516D03*
Y194547D03*
Y192579D03*
Y190610D03*
Y188642D03*
Y186673D03*
G54D118*
X574965Y177500D03*
X558035D03*
G54D34*
X40551Y298799D03*
Y346201D03*
G54D70*
X239294Y263609D03*
Y251798D03*
G54D146*
G01X13400Y-186400D02*
X641300D01*
Y-166400D01*
G01X13400Y-126400D02*
X716000D01*
G01X13400Y-146400D02*
X716000D01*
G01X13400Y-166400D02*
X716000D01*
G01X641300Y-186400D02*
X716000D01*
Y-107200D01*
X13400D01*
Y-186400D01*
G01X641300Y-107200D02*
Y-126400D01*
G01Y-146400D02*
Y-126400D01*
G01Y-146400D02*
Y-166400D01*
G54D71*
X251105Y251798D03*
Y263609D03*
G54D128*
X576663Y122018D03*
X586899D03*
X576782Y112184D03*
X587018D03*
G54D53*
X220450Y208810D03*
X217891D03*
X215332D03*
X212773D03*
X210214D03*
X207655D03*
X205096D03*
X155690Y311243D03*
Y333290D03*
X158249Y311243D03*
Y333290D03*
X160808Y311243D03*
Y333290D03*
X163367Y311243D03*
Y333290D03*
X165926Y311243D03*
Y333290D03*
X168485Y311243D03*
Y333290D03*
X171044Y311243D03*
Y333290D03*
X220450Y230857D03*
X217891D03*
X215332D03*
X212773D03*
X210214D03*
X207655D03*
X205096D03*
G54D62*
X202000Y327937D03*
X205740Y320063D03*
X198260D03*
G54D26*
X91000Y108346D03*
Y101654D03*
X98000Y108346D03*
Y101654D03*
G54D80*
X354232Y138723D03*
Y135573D03*
Y132424D03*
Y129274D03*
Y126124D03*
Y122975D03*
Y119825D03*
Y116676D03*
Y113526D03*
Y110377D03*
Y107227D03*
Y104077D03*
X351082Y138723D03*
Y135573D03*
Y132424D03*
Y129274D03*
Y126124D03*
Y122975D03*
Y119825D03*
Y116676D03*
Y113526D03*
Y110377D03*
Y107227D03*
Y104077D03*
X347933Y138723D03*
Y135573D03*
Y132424D03*
Y129274D03*
Y126124D03*
Y122975D03*
Y119825D03*
Y116676D03*
Y113526D03*
Y110377D03*
Y107227D03*
Y104077D03*
X344783Y138723D03*
Y135573D03*
Y132424D03*
Y129274D03*
Y126124D03*
Y122975D03*
Y119825D03*
Y116676D03*
Y113526D03*
Y110377D03*
Y107227D03*
Y104077D03*
X341633Y138723D03*
Y135573D03*
Y132424D03*
Y129274D03*
Y126124D03*
Y122975D03*
Y119825D03*
Y116676D03*
Y113526D03*
Y110377D03*
Y107227D03*
Y104077D03*
X338484Y138723D03*
Y135573D03*
Y132424D03*
Y129274D03*
Y126124D03*
Y122975D03*
Y119825D03*
Y116676D03*
Y113526D03*
Y110377D03*
Y107227D03*
Y104077D03*
X335334Y138723D03*
Y135573D03*
Y132424D03*
Y129274D03*
Y126124D03*
Y122975D03*
Y119825D03*
Y116676D03*
Y113526D03*
Y110377D03*
Y107227D03*
Y104077D03*
X332185Y138723D03*
Y135573D03*
Y132424D03*
Y129274D03*
Y126124D03*
Y122975D03*
Y119825D03*
Y116676D03*
Y113526D03*
Y110377D03*
Y107227D03*
Y104077D03*
X329035Y138723D03*
Y135573D03*
Y132424D03*
Y129274D03*
Y126124D03*
Y122975D03*
Y119825D03*
Y116676D03*
Y113526D03*
Y110377D03*
Y107227D03*
Y104077D03*
X325885Y138723D03*
Y135573D03*
Y132424D03*
Y129274D03*
Y126124D03*
Y122975D03*
Y119825D03*
Y116676D03*
Y113526D03*
Y110377D03*
Y107227D03*
Y104077D03*
X322736Y138723D03*
Y135573D03*
Y132424D03*
Y129274D03*
Y126124D03*
Y122975D03*
Y119825D03*
Y116676D03*
Y113526D03*
Y110377D03*
Y107227D03*
Y104077D03*
X319586Y138723D03*
Y135573D03*
Y132424D03*
Y129274D03*
Y126124D03*
Y122975D03*
Y119825D03*
Y116676D03*
Y113526D03*
Y110377D03*
Y107227D03*
Y104077D03*
G54D137*
X636880Y278032D03*
Y276063D03*
X621920D03*
Y278032D03*
Y280000D03*
Y281968D03*
Y283937D03*
X636880D03*
Y281968D03*
Y280000D03*
G54D35*
X66968Y312658D03*
Y322500D03*
Y332343D03*
Y305768D03*
Y339232D03*
G54D17*
X83453Y124000D03*
X77547D03*
X305987Y351810D03*
X311893D03*
G54D44*
X80520Y366984D03*
Y365016D03*
X75480D03*
Y366984D03*
G54D119*
X595589Y106184D03*
X619211D03*
G54D147*
G01X19433Y-122500D02*
Y-112500D01*
X22767D01*
X24100Y-113000D01*
X25100Y-113667D01*
X25934Y-114666D01*
X26600Y-115834D01*
X26767Y-117500D01*
X26600Y-119167D01*
X25934Y-120334D01*
X25100Y-121334D01*
X24100Y-122000D01*
X22767Y-122500D01*
X19433D01*
G01X30433D02*
X34600Y-112500D01*
X38767Y-122500D01*
G01X37267Y-119000D02*
X31933D01*
G01X46100Y-112500D02*
Y-122500D01*
G01X42267Y-112500D02*
X49933D01*
G01X60933Y-122500D02*
X54267D01*
Y-112500D01*
X60933D01*
G01X58267Y-117333D02*
X54267D01*
G01X69100Y-122833D02*
X68767Y-122667D01*
Y-122333D01*
X69100Y-122167D01*
X69433Y-122333D01*
Y-122667D01*
X69100Y-122833D01*
G01Y-118334D02*
X68767Y-118167D01*
Y-117833D01*
X69100Y-117667D01*
X69433Y-117833D01*
Y-118167D01*
X69100Y-118334D01*
G01X80600Y-112500D02*
X79266Y-112833D01*
X78267Y-113667D01*
X77600Y-114666D01*
X77100Y-116000D01*
X76933Y-117500D01*
X77100Y-119000D01*
X77600Y-120334D01*
X78267Y-121334D01*
X79266Y-122167D01*
X80600Y-122500D01*
X81933Y-122167D01*
X82933Y-121334D01*
X83600Y-120334D01*
X84100Y-119000D01*
X84267Y-117500D01*
X84100Y-116000D01*
X83600Y-114666D01*
X82933Y-113667D01*
X81933Y-112833D01*
X80600Y-112500D01*
G01X92100Y-122500D02*
Y-112500D01*
X90100Y-114500D01*
G01Y-122500D02*
X94100D01*
G01X101433Y-119167D02*
X105767D01*
G01X115100Y-122500D02*
Y-112500D01*
X113100Y-114500D01*
G01Y-122500D02*
X117100D01*
G01X123433Y-118334D02*
X124600Y-117167D01*
X125600Y-116500D01*
X126933Y-116167D01*
X128100Y-116500D01*
X128933Y-117167D01*
X129600Y-118167D01*
X129767Y-119333D01*
X129600Y-120334D01*
X128933Y-121334D01*
X127933Y-122167D01*
X126767Y-122500D01*
X125433Y-122167D01*
X124267Y-121167D01*
X123600Y-119667D01*
X123433Y-118000D01*
X123766Y-115834D01*
X124267Y-114666D01*
X125100Y-113500D01*
X126267Y-112667D01*
X127433Y-112500D01*
X128600Y-112833D01*
X129434Y-113667D01*
G01X135933Y-119167D02*
X140267D01*
G01X146433Y-114167D02*
X147433Y-113167D01*
X148600Y-112667D01*
X149933Y-112500D01*
X151600Y-112833D01*
X152767Y-113667D01*
X153100Y-114666D01*
X152933Y-115667D01*
X152267Y-116500D01*
X148933Y-118167D01*
X147433Y-119333D01*
X146433Y-121000D01*
X146100Y-122500D01*
X153100D01*
G01X161100Y-112500D02*
X159766Y-112833D01*
X158767Y-113667D01*
X158100Y-114666D01*
X157600Y-116000D01*
X157433Y-117500D01*
X157600Y-119000D01*
X158100Y-120334D01*
X158767Y-121334D01*
X159766Y-122167D01*
X161100Y-122500D01*
X162433Y-122167D01*
X163433Y-121334D01*
X164100Y-120334D01*
X164600Y-119000D01*
X164767Y-117500D01*
X164600Y-116000D01*
X164100Y-114666D01*
X163433Y-113667D01*
X162433Y-112833D01*
X161100Y-112500D01*
G01X172600Y-122500D02*
Y-112500D01*
X170600Y-114500D01*
G01Y-122500D02*
X174600D01*
G01X183767D02*
X184100Y-120334D01*
X184600Y-118500D01*
X185267Y-116833D01*
X186100Y-115000D01*
X187433Y-112500D01*
X180767D01*
G01X19233Y-141700D02*
Y-131700D01*
X22567D01*
X23900Y-132200D01*
X24900Y-132867D01*
X25733Y-133866D01*
X26400Y-135034D01*
X26567Y-136700D01*
X26400Y-138367D01*
X25733Y-139534D01*
X24900Y-140534D01*
X23900Y-141200D01*
X22567Y-141700D01*
X19233D01*
G01X37733D02*
X31067D01*
Y-131700D01*
X37733D01*
G01X35067Y-136533D02*
X31067D01*
G01X42400Y-140367D02*
X43733Y-141200D01*
X45233Y-141700D01*
X46567D01*
X47900Y-141200D01*
X48900Y-140367D01*
X49400Y-139200D01*
X49067Y-138034D01*
X48233Y-137033D01*
X46733Y-136367D01*
X44733Y-136033D01*
X43567Y-135367D01*
X43066Y-134200D01*
X43400Y-133033D01*
X44233Y-132200D01*
X45400Y-131700D01*
X46567D01*
X47733Y-132033D01*
X48733Y-132867D01*
G01X55400Y-131700D02*
X59400D01*
G01X57400D02*
Y-141700D01*
G01X55400D02*
X59400D01*
G01X69900Y-136700D02*
X73234D01*
Y-139700D01*
X72233Y-140700D01*
X71067Y-141367D01*
X69400Y-141700D01*
X67733Y-141367D01*
X66567Y-140700D01*
X65567Y-139700D01*
X64900Y-138533D01*
X64566Y-137200D01*
Y-136033D01*
X64900Y-135034D01*
X65567Y-133866D01*
X66567Y-132867D01*
X67566Y-132200D01*
X68900Y-131700D01*
X70067D01*
X71400Y-132033D01*
X72400Y-132700D01*
G01X76567Y-141700D02*
Y-131700D01*
X84233Y-141700D01*
Y-131700D01*
G01X95233Y-141700D02*
X88567D01*
Y-131700D01*
X95233D01*
G01X92567Y-136533D02*
X88567D01*
G01X99733Y-141700D02*
Y-131700D01*
X103067D01*
X104400Y-132200D01*
X105400Y-132867D01*
X106234Y-133866D01*
X106900Y-135034D01*
X107067Y-136700D01*
X106900Y-138367D01*
X106234Y-139534D01*
X105400Y-140534D01*
X104400Y-141200D01*
X103067Y-141700D01*
X99733D01*
G01X122233D02*
X126400Y-131700D01*
X130567Y-141700D01*
G01X129067Y-138200D02*
X123733D01*
G01X137900Y-131700D02*
Y-141700D01*
G01X134067Y-131700D02*
X141733D01*
G01X149400Y-142033D02*
X149067Y-141867D01*
Y-141533D01*
X149400Y-141367D01*
X149733Y-141533D01*
Y-141867D01*
X149400Y-142033D01*
G01Y-137534D02*
X149067Y-137367D01*
Y-137033D01*
X149400Y-136867D01*
X149733Y-137033D01*
Y-137367D01*
X149400Y-137534D01*
G01X17433Y-182300D02*
Y-172300D01*
X23767D01*
G01X21433Y-177133D02*
X17433D01*
G01X30100Y-172300D02*
X34100D01*
G01X32100D02*
Y-182300D01*
G01X30100D02*
X34100D01*
G01X40267Y-172300D02*
Y-182300D01*
X46933D01*
G01X50766D02*
Y-172300D01*
X55100Y-180633D01*
X59434Y-172300D01*
Y-182300D01*
G01X74767Y-172300D02*
Y-182300D01*
X81433D01*
G01X85433D02*
X89600Y-172300D01*
X93767Y-182300D01*
G01X92267Y-178800D02*
X86933D01*
G01X101100Y-182300D02*
Y-177800D01*
X97767Y-172300D01*
G01X104433D02*
X101100Y-177800D01*
G01X115933Y-182300D02*
X109267D01*
Y-172300D01*
X115933D01*
G01X113267Y-177133D02*
X109267D01*
G01X120767Y-182300D02*
Y-172300D01*
X124933D01*
X126267Y-172800D01*
X127100Y-173467D01*
X127433Y-174800D01*
X127100Y-176133D01*
X126100Y-176967D01*
X124933Y-177467D01*
X120767D01*
G01X124933D02*
X127433Y-182300D01*
G01X135600Y-182633D02*
X135267Y-182467D01*
Y-182133D01*
X135600Y-181967D01*
X135933Y-182133D01*
Y-182467D01*
X135600Y-182633D01*
G01Y-178134D02*
X135267Y-177967D01*
Y-177633D01*
X135600Y-177467D01*
X135933Y-177633D01*
Y-177967D01*
X135600Y-178134D01*
G01X26567Y-152534D02*
X25567Y-152033D01*
X24400Y-151700D01*
X23067D01*
X21566Y-152200D01*
X20400Y-153033D01*
X19567Y-154033D01*
X18900Y-155700D01*
X18733Y-157200D01*
X19067Y-158700D01*
X19567Y-159700D01*
X20567Y-160700D01*
X21733Y-161367D01*
X22900Y-161700D01*
X24067D01*
X25233Y-161367D01*
X26233Y-160867D01*
X27067Y-160200D01*
G01X30233Y-161700D02*
X34400Y-151700D01*
X38567Y-161700D01*
G01X37067Y-158200D02*
X31733D01*
G01X42567Y-161700D02*
Y-151700D01*
X46733D01*
X48067Y-152200D01*
X48900Y-152867D01*
X49233Y-154200D01*
X48900Y-155533D01*
X47900Y-156367D01*
X46733Y-156867D01*
X42567D01*
G01X46733D02*
X49233Y-161700D01*
G01X53733D02*
Y-151700D01*
X57067D01*
X58400Y-152200D01*
X59400Y-152867D01*
X60234Y-153866D01*
X60900Y-155034D01*
X61067Y-156700D01*
X60900Y-158367D01*
X60234Y-159534D01*
X59400Y-160534D01*
X58400Y-161200D01*
X57067Y-161700D01*
X53733D01*
G01X77067D02*
Y-151700D01*
X81233D01*
X82567Y-152200D01*
X83400Y-152867D01*
X83733Y-154200D01*
X83400Y-155533D01*
X82400Y-156367D01*
X81233Y-156867D01*
X77067D01*
G01X81233D02*
X83733Y-161700D01*
G01X95233D02*
X88567D01*
Y-151700D01*
X95233D01*
G01X92567Y-156533D02*
X88567D01*
G01X100233Y-161700D02*
Y-151700D01*
X106567D01*
G01X104233Y-156533D02*
X100233D01*
G01X114900Y-162033D02*
X114567Y-161867D01*
Y-161533D01*
X114900Y-161367D01*
X115233Y-161533D01*
Y-161867D01*
X114900Y-162033D01*
G01Y-157534D02*
X114567Y-157367D01*
Y-157033D01*
X114900Y-156867D01*
X115233Y-157033D01*
Y-157367D01*
X114900Y-157534D01*
G01X126400Y-161700D02*
X125066Y-161533D01*
X123900Y-160867D01*
X122900Y-159867D01*
X122233Y-158700D01*
X121900Y-157367D01*
Y-156033D01*
X122233Y-154700D01*
X122900Y-153533D01*
X123900Y-152534D01*
X125066Y-151867D01*
X126400Y-151700D01*
X127733Y-151867D01*
X128900Y-152534D01*
X129900Y-153533D01*
X130567Y-154700D01*
X130900Y-156033D01*
Y-157367D01*
X130567Y-158700D01*
X129900Y-159867D01*
X128900Y-160867D01*
X127733Y-161533D01*
X126400Y-161700D01*
G01X134900Y-165033D02*
Y-155034D01*
G01Y-156533D02*
X135733Y-155700D01*
X136566Y-155200D01*
X137900Y-155034D01*
X139067Y-155200D01*
X140233Y-156033D01*
X140734Y-157200D01*
X140900Y-158367D01*
X140734Y-159534D01*
X140233Y-160700D01*
X139233Y-161367D01*
X137900Y-161700D01*
X136733Y-161533D01*
X135567Y-161034D01*
X134900Y-160367D01*
G01X146900Y-157200D02*
X152234D01*
X151733Y-156033D01*
X150900Y-155367D01*
X149733Y-155034D01*
X148567Y-155200D01*
X147567Y-155700D01*
X146900Y-156867D01*
X146566Y-157867D01*
Y-158867D01*
X146900Y-159867D01*
X147733Y-160867D01*
X148733Y-161533D01*
X149900Y-161700D01*
X151067Y-161367D01*
X152234Y-160367D01*
G01X158066Y-161700D02*
Y-155034D01*
G01Y-156700D02*
X158733Y-155867D01*
X159733Y-155200D01*
X161067Y-155034D01*
X162233Y-155200D01*
X163233Y-155867D01*
X163734Y-157033D01*
Y-161700D01*
G01X176067Y-152534D02*
X175067Y-152033D01*
X173900Y-151700D01*
X172567D01*
X171066Y-152200D01*
X169900Y-153033D01*
X169067Y-154033D01*
X168400Y-155700D01*
X168233Y-157200D01*
X168567Y-158700D01*
X169067Y-159700D01*
X170067Y-160700D01*
X171233Y-161367D01*
X172400Y-161700D01*
X173567D01*
X174733Y-161367D01*
X175733Y-160867D01*
X176567Y-160200D01*
G01X181400Y-157200D02*
X186734D01*
X186233Y-156033D01*
X185400Y-155367D01*
X184233Y-155034D01*
X183067Y-155200D01*
X182067Y-155700D01*
X181400Y-156867D01*
X181066Y-157867D01*
Y-158867D01*
X181400Y-159867D01*
X182233Y-160867D01*
X183233Y-161533D01*
X184400Y-161700D01*
X185567Y-161367D01*
X186734Y-160367D01*
G01X195400Y-161700D02*
Y-151700D01*
G01X206900Y-161700D02*
Y-151700D01*
G01X215566Y-155034D02*
Y-159700D01*
X216233Y-160867D01*
X217233Y-161533D01*
X218400Y-161700D01*
X219567Y-161533D01*
X220567Y-160867D01*
X221234Y-159700D01*
G01Y-161700D02*
Y-155034D01*
G01X229900Y-161700D02*
Y-151700D01*
G01X244400Y-161700D02*
Y-155034D01*
G01Y-156200D02*
X243733Y-155533D01*
X242733Y-155200D01*
X241567Y-155034D01*
X240400Y-155367D01*
X239400Y-156033D01*
X238733Y-157033D01*
X238400Y-158367D01*
X238733Y-159700D01*
X239400Y-160700D01*
X240400Y-161367D01*
X241567Y-161700D01*
X242733Y-161533D01*
X243733Y-161034D01*
X244400Y-160367D01*
G01X250567Y-161700D02*
Y-155034D01*
G01Y-156367D02*
X251400Y-155700D01*
X252233Y-155200D01*
X253400Y-155034D01*
X254233Y-155200D01*
X255233Y-155700D01*
G01X275900Y-161700D02*
Y-151700D01*
G01X291067Y-152534D02*
X290067Y-152033D01*
X288900Y-151700D01*
X287567D01*
X286066Y-152200D01*
X284900Y-153033D01*
X284067Y-154033D01*
X283400Y-155700D01*
X283233Y-157200D01*
X283567Y-158700D01*
X284067Y-159700D01*
X285067Y-160700D01*
X286233Y-161367D01*
X287400Y-161700D01*
X288567D01*
X289733Y-161367D01*
X290733Y-160867D01*
X291567Y-160200D01*
G01X298900Y-161700D02*
X297900Y-161533D01*
X296900Y-160867D01*
X296233Y-159700D01*
X295900Y-158367D01*
X296233Y-157033D01*
X296900Y-155867D01*
X297900Y-155200D01*
X298900Y-155034D01*
X299900Y-155200D01*
X300900Y-155867D01*
X301567Y-157033D01*
X301734Y-158367D01*
X301567Y-159700D01*
X300900Y-160867D01*
X299900Y-161533D01*
X298900Y-161700D01*
G01X307566D02*
Y-155034D01*
G01Y-156700D02*
X308233Y-155867D01*
X309233Y-155200D01*
X310567Y-155034D01*
X311733Y-155200D01*
X312733Y-155867D01*
X313234Y-157033D01*
Y-161700D01*
G01X319066D02*
Y-155034D01*
G01Y-156700D02*
X319733Y-155867D01*
X320733Y-155200D01*
X322067Y-155034D01*
X323233Y-155200D01*
X324233Y-155867D01*
X324734Y-157033D01*
Y-161700D01*
G01X330900Y-157200D02*
X336234D01*
X335733Y-156033D01*
X334900Y-155367D01*
X333733Y-155034D01*
X332567Y-155200D01*
X331567Y-155700D01*
X330900Y-156867D01*
X330566Y-157867D01*
Y-158867D01*
X330900Y-159867D01*
X331733Y-160867D01*
X332733Y-161533D01*
X333900Y-161700D01*
X335067Y-161367D01*
X336234Y-160367D01*
G01X347567Y-155867D02*
X346400Y-155200D01*
X345400Y-155034D01*
X344067Y-155367D01*
X343067Y-156033D01*
X342400Y-157200D01*
X342233Y-158367D01*
X342400Y-159534D01*
X343067Y-160534D01*
X344067Y-161367D01*
X345400Y-161700D01*
X346567Y-161367D01*
X347567Y-160700D01*
G01X356400Y-151700D02*
Y-161700D01*
G01X354067Y-155034D02*
X358733D01*
G01X365733Y-158367D02*
X370067D01*
G01X379400Y-161700D02*
Y-151700D01*
X377400Y-153700D01*
G01Y-161700D02*
X381400D01*
G01X402400D02*
Y-151700D01*
G01X421900Y-160367D02*
X423233Y-161200D01*
X424733Y-161700D01*
X426067D01*
X427400Y-161200D01*
X428400Y-160367D01*
X428900Y-159200D01*
X428567Y-158034D01*
X427733Y-157033D01*
X426233Y-156367D01*
X424233Y-156033D01*
X423067Y-155367D01*
X422566Y-154200D01*
X422900Y-153033D01*
X423733Y-152200D01*
X424900Y-151700D01*
X426067D01*
X427233Y-152033D01*
X428234Y-152867D01*
G01X433233Y-161700D02*
Y-151700D01*
X436567D01*
X437900Y-152200D01*
X438900Y-152867D01*
X439734Y-153866D01*
X440400Y-155034D01*
X440567Y-156700D01*
X440400Y-158367D01*
X439734Y-159534D01*
X438900Y-160534D01*
X437900Y-161200D01*
X436567Y-161700D01*
X433233D01*
G01X445067D02*
Y-151700D01*
X449233D01*
X450567Y-152200D01*
X451400Y-152867D01*
X451733Y-154200D01*
X451400Y-155533D01*
X450400Y-156367D01*
X449233Y-156867D01*
X445067D01*
G01X449233D02*
X451733Y-161700D01*
G01X472733Y-156367D02*
X473400Y-155867D01*
X473900Y-155034D01*
X474234Y-153866D01*
X473900Y-152867D01*
X473233Y-152200D01*
X472067Y-151700D01*
X467567D01*
Y-161700D01*
X473067D01*
X474234Y-161034D01*
X474900Y-160033D01*
X475233Y-158867D01*
X474900Y-157700D01*
X473900Y-156700D01*
X472733Y-156367D01*
X467567D01*
G01X482900Y-161700D02*
X481566Y-161533D01*
X480400Y-160867D01*
X479400Y-159867D01*
X478733Y-158700D01*
X478400Y-157367D01*
Y-156033D01*
X478733Y-154700D01*
X479400Y-153533D01*
X480400Y-152534D01*
X481566Y-151867D01*
X482900Y-151700D01*
X484233Y-151867D01*
X485400Y-152534D01*
X486400Y-153533D01*
X487067Y-154700D01*
X487400Y-156033D01*
Y-157367D01*
X487067Y-158700D01*
X486400Y-159867D01*
X485400Y-160867D01*
X484233Y-161533D01*
X482900Y-161700D01*
G01X490233D02*
X494400Y-151700D01*
X498567Y-161700D01*
G01X497067Y-158200D02*
X491733D01*
G01X502567Y-161700D02*
Y-151700D01*
X506733D01*
X508067Y-152200D01*
X508900Y-152867D01*
X509233Y-154200D01*
X508900Y-155533D01*
X507900Y-156367D01*
X506733Y-156867D01*
X502567D01*
G01X506733D02*
X509233Y-161700D01*
G01X513733D02*
Y-151700D01*
X517067D01*
X518400Y-152200D01*
X519400Y-152867D01*
X520234Y-153866D01*
X520900Y-155034D01*
X521067Y-156700D01*
X520900Y-158367D01*
X520234Y-159534D01*
X519400Y-160534D01*
X518400Y-161200D01*
X517067Y-161700D01*
X513733D01*
G01X4000Y415000D02*
X0Y411000D01*
Y4000D01*
X4000Y0D01*
X261000D01*
X265000Y4000D01*
Y8500D01*
X269000Y12500D01*
X431000D01*
X435000Y8500D01*
Y4000D01*
X439000Y0D01*
X696000D01*
X700000Y4000D01*
Y411000D01*
X696000Y415000D01*
X582000D01*
X578000Y411000D01*
Y374000D01*
X574000Y370000D01*
X522000D01*
X518000Y374000D01*
Y411000D01*
X514000Y415000D01*
X186000D01*
X182000Y411000D01*
Y374000D01*
X178000Y370000D01*
X126000D01*
X122000Y374000D01*
Y411000D01*
X118000Y415000D01*
X4000D01*
G01X154100Y-180867D02*
X155433Y-181700D01*
X156933Y-182200D01*
X158267D01*
X159600Y-181700D01*
X160600Y-180867D01*
X161100Y-179700D01*
X160767Y-178534D01*
X159933Y-177533D01*
X158433Y-176867D01*
X156433Y-176533D01*
X155267Y-175867D01*
X154766Y-174700D01*
X155100Y-173533D01*
X155933Y-172700D01*
X157100Y-172200D01*
X158267D01*
X159433Y-172533D01*
X160434Y-173367D01*
G01X169100Y-182200D02*
X167766Y-182033D01*
X166600Y-181367D01*
X165600Y-180367D01*
X164933Y-179200D01*
X164600Y-177867D01*
Y-176533D01*
X164933Y-175200D01*
X165600Y-174033D01*
X166600Y-173034D01*
X167766Y-172367D01*
X169100Y-172200D01*
X170433Y-172367D01*
X171600Y-173034D01*
X172600Y-174033D01*
X173267Y-175200D01*
X173600Y-176533D01*
Y-177867D01*
X173267Y-179200D01*
X172600Y-180367D01*
X171600Y-181367D01*
X170433Y-182033D01*
X169100Y-182200D01*
G01X177267Y-172200D02*
Y-182200D01*
X183933D01*
G01X188433D02*
Y-172200D01*
X191767D01*
X193100Y-172700D01*
X194100Y-173367D01*
X194934Y-174366D01*
X195600Y-175534D01*
X195767Y-177200D01*
X195600Y-178867D01*
X194934Y-180034D01*
X194100Y-181034D01*
X193100Y-181700D01*
X191767Y-182200D01*
X188433D01*
G01X206933D02*
X200267D01*
Y-172200D01*
X206933D01*
G01X204267Y-177033D02*
X200267D01*
G01X211767Y-182200D02*
Y-172200D01*
X215933D01*
X217267Y-172700D01*
X218100Y-173367D01*
X218433Y-174700D01*
X218100Y-176033D01*
X217100Y-176867D01*
X215933Y-177367D01*
X211767D01*
G01X215933D02*
X218433Y-182200D01*
G01X222266D02*
Y-172200D01*
X226600Y-180533D01*
X230934Y-172200D01*
Y-182200D01*
G01X233933D02*
X238100Y-172200D01*
X242267Y-182200D01*
G01X240767Y-178700D02*
X235433D01*
G01X246100Y-180867D02*
X247433Y-181700D01*
X248933Y-182200D01*
X250267D01*
X251600Y-181700D01*
X252600Y-180867D01*
X253100Y-179700D01*
X252767Y-178534D01*
X251933Y-177533D01*
X250433Y-176867D01*
X248433Y-176533D01*
X247267Y-175867D01*
X246767Y-174700D01*
X247100Y-173533D01*
X247933Y-172700D01*
X249100Y-172200D01*
X250267D01*
X251433Y-172533D01*
X252434Y-173367D01*
G01X257433Y-182200D02*
Y-172200D01*
G01X263767D02*
X257433Y-178367D01*
G01X264767Y-182200D02*
X260267Y-175534D01*
G01X284100Y-172200D02*
Y-182200D01*
G01X280267Y-172200D02*
X287933D01*
G01X295600Y-182200D02*
X294266Y-182033D01*
X293100Y-181367D01*
X292100Y-180367D01*
X291433Y-179200D01*
X291100Y-177867D01*
Y-176533D01*
X291433Y-175200D01*
X292100Y-174033D01*
X293100Y-173034D01*
X294266Y-172367D01*
X295600Y-172200D01*
X296933Y-172367D01*
X298100Y-173034D01*
X299100Y-174033D01*
X299767Y-175200D01*
X300100Y-176533D01*
Y-177867D01*
X299767Y-179200D01*
X299100Y-180367D01*
X298100Y-181367D01*
X296933Y-182033D01*
X295600Y-182200D01*
G01X303767D02*
Y-172200D01*
X307767D01*
X309100Y-172700D01*
X310100Y-173867D01*
X310433Y-175200D01*
X310100Y-176533D01*
X309267Y-177533D01*
X307767Y-178034D01*
X303767D01*
G01X273767Y-122500D02*
Y-112500D01*
X277767D01*
X279100Y-113000D01*
X280100Y-114167D01*
X280433Y-115500D01*
X280100Y-116833D01*
X279267Y-117833D01*
X277767Y-118334D01*
X273767D01*
G01X284433Y-122500D02*
X288600Y-112500D01*
X292767Y-122500D01*
G01X291267Y-119000D02*
X285933D01*
G01X296767Y-122500D02*
Y-112500D01*
X300933D01*
X302267Y-113000D01*
X303100Y-113667D01*
X303433Y-115000D01*
X303100Y-116333D01*
X302100Y-117167D01*
X300933Y-117667D01*
X296767D01*
G01X300933D02*
X303433Y-122500D01*
G01X311600Y-112500D02*
Y-122500D01*
G01X307767Y-112500D02*
X315433D01*
G01X330767Y-122500D02*
Y-112500D01*
X338433Y-122500D01*
Y-112500D01*
G01X342433D02*
Y-119667D01*
X343100Y-121167D01*
X344433Y-122167D01*
X346100Y-122500D01*
X347767Y-122167D01*
X349100Y-121167D01*
X349767Y-119667D01*
Y-112500D01*
G01X353266Y-122500D02*
Y-112500D01*
X357600Y-120833D01*
X361934Y-112500D01*
Y-122500D01*
G01X370433Y-117167D02*
X371100Y-116667D01*
X371600Y-115834D01*
X371934Y-114666D01*
X371600Y-113667D01*
X370933Y-113000D01*
X369767Y-112500D01*
X365267D01*
Y-122500D01*
X370767D01*
X371934Y-121834D01*
X372600Y-120833D01*
X372933Y-119667D01*
X372600Y-118500D01*
X371600Y-117500D01*
X370433Y-117167D01*
X365267D01*
G01X383933Y-122500D02*
X377267D01*
Y-112500D01*
X383933D01*
G01X381267Y-117333D02*
X377267D01*
G01X388767Y-122500D02*
Y-112500D01*
X392933D01*
X394267Y-113000D01*
X395100Y-113667D01*
X395433Y-115000D01*
X395100Y-116333D01*
X394100Y-117167D01*
X392933Y-117667D01*
X388767D01*
G01X392933D02*
X395433Y-122500D01*
G01X403600Y-122833D02*
X403267Y-122667D01*
Y-122333D01*
X403600Y-122167D01*
X403933Y-122333D01*
Y-122667D01*
X403600Y-122833D01*
G01Y-118334D02*
X403267Y-118167D01*
Y-117833D01*
X403600Y-117667D01*
X403933Y-117833D01*
Y-118167D01*
X403600Y-118334D01*
G01X411933Y-114167D02*
X412933Y-113167D01*
X414100Y-112667D01*
X415433Y-112500D01*
X417100Y-112833D01*
X418267Y-113667D01*
X418600Y-114666D01*
X418433Y-115667D01*
X417767Y-116500D01*
X414433Y-118167D01*
X412933Y-119333D01*
X411933Y-121000D01*
X411600Y-122500D01*
X418600D01*
G01X422933Y-120500D02*
X423933Y-121667D01*
X425267Y-122333D01*
X426767Y-122500D01*
X428100Y-122333D01*
X429434Y-121500D01*
X430267Y-120500D01*
X430433Y-119500D01*
X430100Y-118334D01*
X428933Y-117500D01*
X427767Y-117167D01*
X426267D01*
G01X427767D02*
X428767Y-116667D01*
X429600Y-115834D01*
X429933Y-114833D01*
X429600Y-113833D01*
X428767Y-113000D01*
X427267Y-112500D01*
X425767Y-112667D01*
X424267Y-113334D01*
G01X438100Y-122500D02*
Y-112500D01*
X436100Y-114500D01*
G01Y-122500D02*
X440100D01*
G01X447433Y-119167D02*
X451767D01*
G01X461100Y-112500D02*
X459766Y-112833D01*
X458767Y-113667D01*
X458100Y-114666D01*
X457600Y-116000D01*
X457433Y-117500D01*
X457600Y-119000D01*
X458100Y-120334D01*
X458767Y-121334D01*
X459766Y-122167D01*
X461100Y-122500D01*
X462433Y-122167D01*
X463433Y-121334D01*
X464100Y-120334D01*
X464600Y-119000D01*
X464767Y-117500D01*
X464600Y-116000D01*
X464100Y-114666D01*
X463433Y-113667D01*
X462433Y-112833D01*
X461100Y-112500D01*
G01X472600D02*
X471267Y-112833D01*
X470267Y-113667D01*
X469600Y-114666D01*
X469100Y-116000D01*
X468933Y-117500D01*
X469100Y-119000D01*
X469600Y-120334D01*
X470267Y-121334D01*
X471267Y-122167D01*
X472600Y-122500D01*
X473933Y-122167D01*
X474933Y-121334D01*
X475600Y-120334D01*
X476100Y-119000D01*
X476267Y-117500D01*
X476100Y-116000D01*
X475600Y-114666D01*
X474933Y-113667D01*
X473933Y-112833D01*
X472600Y-112500D01*
G01X484100D02*
X482766Y-112833D01*
X481767Y-113667D01*
X481100Y-114666D01*
X480600Y-116000D01*
X480433Y-117500D01*
X480600Y-119000D01*
X481100Y-120334D01*
X481767Y-121334D01*
X482766Y-122167D01*
X484100Y-122500D01*
X485433Y-122167D01*
X486433Y-121334D01*
X487100Y-120334D01*
X487600Y-119000D01*
X487767Y-117500D01*
X487600Y-116000D01*
X487100Y-114666D01*
X486433Y-113667D01*
X485433Y-112833D01*
X484100Y-112500D01*
G01X495600D02*
X494266Y-112833D01*
X493267Y-113667D01*
X492600Y-114666D01*
X492100Y-116000D01*
X491933Y-117500D01*
X492100Y-119000D01*
X492600Y-120334D01*
X493267Y-121334D01*
X494266Y-122167D01*
X495600Y-122500D01*
X496933Y-122167D01*
X497933Y-121334D01*
X498600Y-120334D01*
X499100Y-119000D01*
X499267Y-117500D01*
X499100Y-116000D01*
X498600Y-114666D01*
X497933Y-113667D01*
X496933Y-112833D01*
X495600Y-112500D01*
G01X503933Y-118334D02*
X505100Y-117167D01*
X506100Y-116500D01*
X507433Y-116167D01*
X508600Y-116500D01*
X509433Y-117167D01*
X510100Y-118167D01*
X510267Y-119333D01*
X510100Y-120334D01*
X509433Y-121334D01*
X508433Y-122167D01*
X507267Y-122500D01*
X505933Y-122167D01*
X504767Y-121167D01*
X504100Y-119667D01*
X503933Y-118000D01*
X504267Y-115834D01*
X504767Y-114666D01*
X505600Y-113500D01*
X506767Y-112667D01*
X507933Y-112500D01*
X509100Y-112833D01*
X509934Y-113667D01*
G01X518267Y-122500D02*
X518600Y-120334D01*
X519100Y-118500D01*
X519767Y-116833D01*
X520600Y-115000D01*
X521933Y-112500D01*
X515267D01*
G01X538520Y123270D02*
X547712Y119334D01*
G02X542288Y106666I-2712J-6334D01*
G01X533095Y110603D01*
G02X538520Y123270I2712J6334D01*
G01X645867Y-153300D02*
Y-163300D01*
X652533D01*
G01X658700Y-153300D02*
X662700D01*
G01X660700D02*
Y-163300D01*
G01X658700D02*
X662700D01*
G01X669033D02*
Y-153300D01*
X675367D01*
G01X673033Y-158133D02*
X669033D01*
G01X687033Y-163300D02*
X680367D01*
Y-153300D01*
X687033D01*
G01X684367Y-158133D02*
X680367D01*
G01X693033Y-159967D02*
X697367D01*
G01X703033Y-161300D02*
X704033Y-162467D01*
X705366Y-163133D01*
X706867Y-163300D01*
X708200Y-163133D01*
X709534Y-162300D01*
X710367Y-161300D01*
X710533Y-160300D01*
X710200Y-159134D01*
X709033Y-158300D01*
X707867Y-157967D01*
X706367D01*
G01X707867D02*
X708867Y-157467D01*
X709700Y-156634D01*
X710033Y-155633D01*
X709700Y-154633D01*
X708867Y-153800D01*
X707367Y-153300D01*
X705867Y-153467D01*
X704367Y-154134D01*
G54D129*
X597140Y136468D03*
Y126232D03*
G54D36*
X51220Y317579D03*
Y327421D03*
X59095D03*
G54D45*
X78000Y362614D03*
Y369386D03*
G54D63*
X209624Y252832D03*
Y254800D03*
Y256768D03*
X212576D03*
Y254800D03*
X209084Y269132D03*
Y271100D03*
Y273068D03*
X212037D03*
Y271100D03*
X303024Y306032D03*
Y308000D03*
Y309968D03*
X305976D03*
Y308000D03*
X303024Y324032D03*
Y326000D03*
Y327968D03*
X305976D03*
Y326000D03*
G54D138*
X633337Y272520D03*
X631368D03*
X629400D03*
X627432D03*
X625463D03*
Y287480D03*
X627432D03*
X629400D03*
X631368D03*
X633337D03*
G54D72*
X245200Y257703D03*
G54D90*
X382107Y330880D03*
X372107D03*
X362107D03*
X352107D03*
X342107D03*
G54D54*
X238568Y153523D03*
X236600D03*
X234632D03*
Y158877D03*
X236600D03*
X238568D03*
X184281Y184402D03*
X186250D03*
X188218D03*
Y179048D03*
X186250D03*
X184281D03*
X222281Y176215D03*
X224250D03*
X226218D03*
Y170860D03*
X224250D03*
X222281D03*
G54D18*
X62413Y129676D03*
X60444D03*
X58476D03*
X56507D03*
X54539D03*
X52570D03*
X216096Y99758D03*
X222002D03*
G54D27*
X90500Y124437D03*
Y116563D03*
X297048Y345976D03*
Y353850D03*
G54D81*
X399750Y108000D03*
Y113000D03*
Y118000D03*
X287250Y93000D03*
Y98000D03*
Y103000D03*
X299750D03*
Y98000D03*
Y93000D03*
X412250Y118000D03*
Y113000D03*
Y108000D03*
G54D37*
X59095Y317579D03*
G54D82*
X298934Y142200D03*
X290666D03*
X298934Y151400D03*
X290666D03*
X381466Y133200D03*
X389734D03*
X381666Y143200D03*
X389934D03*
G54D64*
X212596Y252832D03*
X212057Y269132D03*
X305996Y306032D03*
Y324032D03*
G54D46*
X67412Y384458D03*
X94183D03*
X179014Y339900D03*
X205786D03*
X169286Y277500D03*
X142514D03*
G54D139*
X563126Y321421D03*
Y319453D03*
Y317484D03*
Y315516D03*
Y313547D03*
Y311579D03*
G54D28*
X85850Y176542D03*
Y173982D03*
Y171422D03*
Y168862D03*
X68350D03*
Y171422D03*
Y173982D03*
Y176542D03*
X77650Y273758D03*
Y276318D03*
Y278878D03*
Y281438D03*
X95150D03*
Y278878D03*
Y276318D03*
Y273758D03*
X34150Y271358D03*
Y273918D03*
Y276478D03*
Y279038D03*
X51650D03*
Y276478D03*
Y273918D03*
Y271358D03*
G54D73*
X230957Y302665D03*
X228398D03*
X225839D03*
X223280D03*
X220720D03*
X218161D03*
X215602D03*
X213043D03*
Y324524D03*
X215602D03*
X218161D03*
X220720D03*
X223280D03*
X225839D03*
X228398D03*
X230957D03*
G54D91*
X284754Y278700D03*
X291446D03*
X303454Y258900D03*
X310146D03*
X489786Y143850D03*
X483094D03*
X489200Y92483D03*
X482508D03*
X646464Y265158D03*
X653156D03*
G54D55*
X219049Y107533D03*
G54D19*
X62413Y143258D03*
X60444D03*
X58476D03*
X56507D03*
X54539D03*
X52570D03*
X216096Y115309D03*
X222002D03*
G54D47*
X70955Y389970D03*
X80798Y378947D03*
X90640Y389970D03*
X182558Y345412D03*
X192400Y334388D03*
X202242Y345412D03*
X165742Y271988D03*
X155900Y283012D03*
X146058Y271988D03*
X347406Y355000D03*
X335594D03*
X312994Y388000D03*
X324806D03*
X313094Y359500D03*
X324906D03*
X662019Y330937D03*
Y320937D03*
Y310937D03*
Y300937D03*
Y340937D03*
X661848Y289676D03*
X650037D03*
X662019Y350937D03*
X673830Y330937D03*
Y320937D03*
Y310937D03*
Y300937D03*
Y340937D03*
Y350937D03*
G54D65*
X252410Y317550D03*
Y320109D03*
Y322668D03*
Y325227D03*
Y327786D03*
Y330345D03*
Y332904D03*
X241524Y345723D03*
X219476D03*
X241524Y348282D03*
X219476D03*
X241524Y350841D03*
X219476D03*
X241524Y353400D03*
X219476D03*
X241524Y355959D03*
X219476D03*
X241524Y358518D03*
X219476D03*
X241524Y361077D03*
X219476D03*
X274457Y317550D03*
Y320109D03*
Y322668D03*
Y325227D03*
Y327786D03*
Y330345D03*
Y332904D03*
G54D38*
X129185Y320610D03*
Y322579D03*
Y324547D03*
Y326516D03*
Y328484D03*
Y330453D03*
Y332421D03*
Y334390D03*
X139815Y320610D03*
Y322579D03*
Y324547D03*
Y326516D03*
Y328484D03*
Y330453D03*
Y332421D03*
Y334390D03*
G54D92*
X269438Y260238D03*
Y262338D03*
G54D74*
X201400Y254300D03*
X203800D03*
X185800Y328500D03*
X188200D03*
X201400Y271100D03*
X203800D03*
X381700Y115900D03*
X384100D03*
X308430Y95136D03*
X310830D03*
X308430Y100559D03*
X310830D03*
X381800Y110600D03*
X384200D03*
X373256Y155650D03*
X370856D03*
X306590Y332320D03*
X304190D03*
X294800Y307500D03*
X297200D03*
X294800Y325500D03*
X297200D03*
X486700Y106500D03*
X484300D03*
X451800Y110500D03*
X454200D03*
X451800Y106000D03*
X454200D03*
X450912Y157380D03*
X453312D03*
X450912Y161980D03*
X453312D03*
X486280Y158420D03*
X483880D03*
X615730Y341057D03*
X618130D03*
X615258Y280000D03*
X612858D03*
G54D83*
X342436Y164854D03*
Y159146D03*
X346964D03*
Y164854D03*
G54D29*
X34330Y158103D03*
Y163221D03*
X41613D03*
Y160662D03*
Y158103D03*
X464738Y246023D03*
Y251141D03*
X472021D03*
Y248582D03*
Y246023D03*
G54D56*
X260000Y115000D03*
Y291800D03*
G54D39*
X47539Y231709D03*
X179626D03*
G54D48*
X244000Y182256D03*
Y190130D03*
Y198004D03*
Y205878D03*
X251874Y182256D03*
Y190130D03*
Y198004D03*
Y205878D03*
X244000Y213752D03*
Y221626D03*
X251874Y213752D03*
Y221626D03*
Y229500D03*
X284000Y245000D03*
Y255000D03*
G54D75*
X266750Y354850D03*
X343250Y178650D03*
X350750D03*
X347000Y187350D03*
X270500Y346150D03*
X274250Y354850D03*
G54D84*
X381150Y96750D03*
Y89250D03*
X389850Y93000D03*
G54D57*
X172152Y143150D03*
X169592D03*
X167032D03*
X164472D03*
Y160650D03*
X167032D03*
X169592D03*
X172152D03*
G54D93*
X289300Y353950D03*
Y348050D03*
X282000Y353850D03*
Y347950D03*
X650024Y307897D03*
Y313797D03*
G54D66*
X134500Y327500D03*
G54D94*
X378000Y378000D03*
Y389000D03*
X379500Y370000D03*
Y359000D03*
X414170Y178080D03*
Y189080D03*
G54D67*
X133516Y318642D03*
Y336358D03*
X135484Y318642D03*
Y336358D03*
G54D49*
X196032Y192376D03*
X198000D03*
X199968D03*
Y189424D03*
X198000D03*
G54D85*
X319100Y165500D03*
X289100D03*
X319100Y170500D03*
X289100D03*
G54D58*
X205500Y186700D03*
Y189100D03*
X197500Y200600D03*
Y198200D03*
X218600Y260000D03*
Y257600D03*
X217100Y276800D03*
Y274400D03*
X396500Y140300D03*
Y142700D03*
Y135200D03*
Y132800D03*
X283800Y152700D03*
Y150300D03*
Y144600D03*
Y142200D03*
X311500Y311500D03*
Y309100D03*
X461500Y93800D03*
Y96200D03*
X466000Y93800D03*
Y96200D03*
X466220Y144500D03*
Y146900D03*
X461720Y144500D03*
Y146900D03*
X427500Y382700D03*
Y380300D03*
X468000Y383200D03*
Y380800D03*
X629958Y297390D03*
Y294990D03*
G54D76*
X289803Y38378D03*
G54D59*
X259708Y251900D03*
X265692D03*
X297492Y302000D03*
X291508D03*
X310492Y271800D03*
X304508D03*
X310492Y278300D03*
X304508D03*
X310092Y285500D03*
X304108D03*
X310192Y215200D03*
X304208D03*
X482508Y100500D03*
X488492D03*
X451492Y93500D03*
X445508D03*
X451492Y100000D03*
X445508D03*
X452492Y145200D03*
X446508D03*
X452492Y151759D03*
X446508D03*
X483200Y152700D03*
X489184D03*
X618602Y335610D03*
X612618D03*
X599508Y299000D03*
X605492D03*
G54D68*
X200839Y312417D03*
Y289583D03*
X198280Y312417D03*
Y289583D03*
X195720Y312417D03*
Y289583D03*
X193161Y312417D03*
Y289583D03*
G54D77*
X309882Y45268D03*
X317362D03*
X324842D03*
X332323D03*
X339803D03*
X347284D03*
X309882Y39953D03*
X317362D03*
X324842D03*
X332323D03*
X339803D03*
X347284D03*
X309882Y34638D03*
X317362D03*
X324842D03*
X332323D03*
X339803D03*
X347284D03*
X309882Y29323D03*
X317362D03*
X324842D03*
X332323D03*
X339803D03*
X347284D03*
X309882Y24008D03*
X317362D03*
X324842D03*
X332323D03*
X339803D03*
X347284D03*
X309882Y18693D03*
X317362D03*
X324842D03*
X332323D03*
X339803D03*
X347284D03*
X354764Y45268D03*
Y39953D03*
Y34638D03*
Y29323D03*
Y24008D03*
Y18693D03*
X362244D03*
X369724D03*
X377205D03*
X384685D03*
X392165D03*
X399646D03*
X362244Y24008D03*
X369724D03*
X377205D03*
X384685D03*
X392165D03*
X399646D03*
X362244Y29323D03*
X369724D03*
X377205D03*
X384685D03*
X392165D03*
X399646D03*
X362244Y34638D03*
X369724D03*
X377205D03*
X384685D03*
X392165D03*
X399646D03*
X362244Y39953D03*
X369724D03*
X377205D03*
X384685D03*
X392165D03*
X399646D03*
X362244Y45268D03*
X369724D03*
X377205D03*
X384685D03*
X392165D03*
X399646D03*
X414606Y18693D03*
X407126D03*
Y24008D03*
X414606D03*
X422087D03*
X407126Y29323D03*
X414606D03*
X422087D03*
X407126Y34638D03*
X414606D03*
X422087D03*
X407126Y39953D03*
X414606D03*
X422087D03*
X407126Y45268D03*
X414606D03*
X422087D03*
G54D86*
X276178Y96678D03*
X278822Y99322D03*
X557409Y321350D03*
X554764Y323995D03*
G54D95*
X367504Y363500D03*
X355496D03*
X367504Y383500D03*
X355496D03*
X561396Y216500D03*
X573404D03*
G54D87*
X303357Y230600D03*
X310443D03*
X303357Y222500D03*
X310443D03*
Y292900D03*
X303357D03*
X303433Y238768D03*
X310520D03*
X428130Y253036D03*
X421043D03*
X421543Y281933D03*
X428630D03*
X421957Y243000D03*
X429043D03*
X421512Y235126D03*
X428598D03*
X638457Y200000D03*
X645543D03*
G54D78*
X402980Y187943D03*
Y180857D03*
X385168Y188020D03*
Y180933D03*
X334972Y187988D03*
Y180902D03*
X655500Y192957D03*
Y200043D03*
G54D69*
X177165Y257299D03*
G54D96*
X339000Y374500D03*
G54D88*
X312000Y249200D03*
X301000D03*
X430500Y263500D03*
X419500D03*
G54D79*
X325161Y206598D03*
X329098D03*
X333035D03*
X336972D03*
X340909D03*
X344846D03*
X348784D03*
X352720D03*
X356658D03*
X360594D03*
X364532D03*
X368468D03*
X372406D03*
X376342D03*
X380280D03*
X384216D03*
X388154D03*
X392091D03*
X396028D03*
X399965D03*
X325161Y202661D03*
X329098D03*
X333035D03*
X336972D03*
X340909D03*
X344846D03*
X348784D03*
X352720D03*
X356658D03*
X360594D03*
X364532D03*
X368468D03*
X372406D03*
X376342D03*
X380280D03*
X384216D03*
X388154D03*
X392091D03*
X396028D03*
X399965D03*
X325161Y285339D03*
X329098D03*
X333035D03*
X336972D03*
X340909D03*
X344846D03*
X348784D03*
X352720D03*
X356658D03*
X360594D03*
X364532D03*
X368468D03*
X372406D03*
X376342D03*
X380280D03*
X384216D03*
X388154D03*
X392091D03*
X396028D03*
X399965D03*
X325161Y281402D03*
X329098D03*
X333035D03*
X336972D03*
X340909D03*
X344846D03*
X348784D03*
X352720D03*
X356658D03*
X360594D03*
X364532D03*
X368468D03*
X372406D03*
X376342D03*
X380280D03*
X384216D03*
X388154D03*
X392091D03*
X396028D03*
X399965D03*
X325161Y277465D03*
X329098D03*
X333035D03*
X336972D03*
X340909D03*
X344846D03*
X348784D03*
X352720D03*
X356658D03*
X360594D03*
X364532D03*
X368468D03*
X372406D03*
X376342D03*
X380280D03*
X384216D03*
X388154D03*
X392091D03*
X396028D03*
X399965D03*
X325161Y273528D03*
X329098D03*
X333035D03*
X336972D03*
X340909D03*
X344846D03*
X348784D03*
X352720D03*
X356658D03*
X360594D03*
X364532D03*
X368468D03*
X372406D03*
X376342D03*
X380280D03*
X384216D03*
X388154D03*
X392091D03*
X396028D03*
X399965D03*
X325161Y269591D03*
X329098D03*
X333035D03*
X336972D03*
X340909D03*
X344846D03*
X348784D03*
X352720D03*
X356658D03*
X360594D03*
X364532D03*
X368468D03*
X372406D03*
X376342D03*
X380280D03*
X384216D03*
X388154D03*
X392091D03*
X396028D03*
X399965D03*
X325161Y265654D03*
X329098D03*
X333035D03*
X336972D03*
X340909D03*
X344846D03*
X348784D03*
X352720D03*
X356658D03*
X360594D03*
X364532D03*
X368468D03*
X372406D03*
X376342D03*
X380280D03*
X384216D03*
X388154D03*
X392091D03*
X396028D03*
X399965D03*
X325161Y261716D03*
X329098D03*
X333035D03*
X336972D03*
X340909D03*
X344846D03*
X348784D03*
X352720D03*
X356658D03*
X360594D03*
X364532D03*
X368468D03*
X372406D03*
X376342D03*
X380280D03*
X384216D03*
X388154D03*
X392091D03*
X396028D03*
X399965D03*
X325161Y257780D03*
X329098D03*
X333035D03*
X336972D03*
X340909D03*
X344846D03*
X348784D03*
X352720D03*
X356658D03*
X360594D03*
X364532D03*
X368468D03*
X372406D03*
X376342D03*
X380280D03*
X384216D03*
X388154D03*
X392091D03*
X396028D03*
X399965D03*
X325161Y253843D03*
X329098D03*
X333035D03*
X336972D03*
X340909D03*
X344846D03*
X348784D03*
X352720D03*
X356658D03*
X360594D03*
X364532D03*
X368468D03*
X372406D03*
X376342D03*
X380280D03*
X384216D03*
X388154D03*
X392091D03*
X396028D03*
X399965D03*
X325161Y249905D03*
X329098D03*
X333035D03*
X336972D03*
X340909D03*
X344846D03*
X348784D03*
X352720D03*
X356658D03*
X360594D03*
X364532D03*
X368468D03*
X372406D03*
X376342D03*
X380280D03*
X384216D03*
X388154D03*
X392091D03*
X396028D03*
X399965D03*
X325161Y245968D03*
X329098D03*
X333035D03*
X336972D03*
X340909D03*
X344846D03*
X348784D03*
X352720D03*
X356658D03*
X360594D03*
X364532D03*
X368468D03*
X372406D03*
X376342D03*
X380280D03*
X384216D03*
X388154D03*
X392091D03*
X396028D03*
X399965D03*
X325161Y242032D03*
X329098D03*
X333035D03*
X336972D03*
X340909D03*
X344846D03*
X348784D03*
X352720D03*
X356658D03*
X360594D03*
X364532D03*
X368468D03*
X372406D03*
X376342D03*
X380280D03*
X384216D03*
X388154D03*
X392091D03*
X396028D03*
X399965D03*
X325161Y238094D03*
X329098D03*
X333035D03*
X336972D03*
X340909D03*
X344846D03*
X348784D03*
X352720D03*
X356658D03*
X360594D03*
X364532D03*
X368468D03*
X372406D03*
X376342D03*
X380280D03*
X384216D03*
X388154D03*
X392091D03*
X396028D03*
X399965D03*
X325161Y234157D03*
X329098D03*
X333035D03*
X336972D03*
X340909D03*
X344846D03*
X348784D03*
X352720D03*
X356658D03*
X360594D03*
X364532D03*
X368468D03*
X372406D03*
X376342D03*
X380280D03*
X384216D03*
X388154D03*
X392091D03*
X396028D03*
X399965D03*
X325161Y230220D03*
X329098D03*
X333035D03*
X336972D03*
X340909D03*
X344846D03*
X348784D03*
X352720D03*
X356658D03*
X360594D03*
X364532D03*
X368468D03*
X372406D03*
X376342D03*
X380280D03*
X384216D03*
X388154D03*
X392091D03*
X396028D03*
X399965D03*
X325161Y226284D03*
X329098D03*
X333035D03*
X336972D03*
X340909D03*
X344846D03*
X348784D03*
X352720D03*
X356658D03*
X360594D03*
X364532D03*
X368468D03*
X372406D03*
X376342D03*
X380280D03*
X384216D03*
X388154D03*
X392091D03*
X396028D03*
X399965D03*
X325161Y222346D03*
X329098D03*
X333035D03*
X336972D03*
X340909D03*
X344846D03*
X348784D03*
X352720D03*
X356658D03*
X360594D03*
X364532D03*
X368468D03*
X372406D03*
X376342D03*
X380280D03*
X384216D03*
X388154D03*
X392091D03*
X396028D03*
X399965D03*
X325161Y218409D03*
X329098D03*
X333035D03*
X336972D03*
X340909D03*
X344846D03*
X348784D03*
X352720D03*
X356658D03*
X360594D03*
X364532D03*
X368468D03*
X372406D03*
X376342D03*
X380280D03*
X384216D03*
X388154D03*
X392091D03*
X396028D03*
X399965D03*
X325161Y214472D03*
X329098D03*
X333035D03*
X336972D03*
X340909D03*
X344846D03*
X348784D03*
X352720D03*
X356658D03*
X360594D03*
X364532D03*
X368468D03*
X372406D03*
X376342D03*
X380280D03*
X384216D03*
X388154D03*
X392091D03*
X396028D03*
X399965D03*
X325161Y210535D03*
X329098D03*
X333035D03*
X336972D03*
X340909D03*
X344846D03*
X348784D03*
X352720D03*
X356658D03*
X360594D03*
X364532D03*
X368468D03*
X372406D03*
X376342D03*
X380280D03*
X384216D03*
X388154D03*
X392091D03*
X396028D03*
X399965D03*
X403902Y206598D03*
X407839D03*
X403902Y202661D03*
X407839D03*
X403902Y285339D03*
X407839D03*
X403902Y281402D03*
X407839D03*
X403902Y277465D03*
X407839D03*
X403902Y273528D03*
X407839D03*
X403902Y269591D03*
X407839D03*
X403902Y265654D03*
X407839D03*
X403902Y261716D03*
X407839D03*
X403902Y257780D03*
X407839D03*
X403902Y253843D03*
X407839D03*
X403902Y249905D03*
X407839D03*
X403902Y245968D03*
X407839D03*
X403902Y242032D03*
X407839D03*
X403902Y238094D03*
X407839D03*
X403902Y234157D03*
X407839D03*
X403902Y230220D03*
X407839D03*
X403902Y226284D03*
X407839D03*
X403902Y222346D03*
X407839D03*
X403902Y218409D03*
X407839D03*
X403902Y214472D03*
X407839D03*
X403902Y210535D03*
X407839D03*
G54D97*
X344709Y368594D03*
X333291D03*
X344709Y370563D03*
X333291D03*
X344709Y372532D03*
X333291D03*
X344709Y374500D03*
X333291D03*
X344709Y376468D03*
X333291D03*
X344709Y378437D03*
X333291D03*
X344709Y380406D03*
X333291D03*
G54D98*
X422087Y18693D03*
G54D89*
X384607Y344778D03*
X382107D03*
X379607D03*
X377107D03*
X374607D03*
X372107D03*
X369607D03*
X367107D03*
X364607D03*
X362107D03*
X359607D03*
X357107D03*
X354607D03*
X352107D03*
X349607D03*
X347107D03*
X344607D03*
X342107D03*
X339607D03*
X384607Y316982D03*
X382107D03*
X379607D03*
X377107D03*
X374607D03*
X372107D03*
X369607D03*
X367107D03*
X364607D03*
X362107D03*
X359607D03*
X357107D03*
X354607D03*
X352107D03*
X349607D03*
X347107D03*
X344607D03*
X342107D03*
X339607D03*
G54D99*
X468000Y160700D03*
X467500Y109500D03*
M02*
