G04 ================== begin FILE IDENTIFICATION RECORD ==================*
G04 Layout Name:  Fb_Connect1_SYNC_Life-3.brd*
G04 Film Name:    BOTTOM.gbr*
G04 File Format:  Gerber RS274X*
G04 File Origin:  Cadence Allegro 16.6-2015-S065*
G04 Origin Date:  Tue Jan 03 17:02:02 2017*
G04 *
G04 Layer:  VIA CLASS/BOTTOM*
G04 Layer:  PIN/BOTTOM*
G04 Layer:  ETCH/BOTTOM*
G04 Layer:  DRAWING FORMAT/L8*
G04 Layer:  DRAWING FORMAT/FILM_LABEL_OUTLINE*
G04 Layer:  BOARD GEOMETRY/OUTLINE*
G04 *
G04 Offset:    (0.000 0.000)*
G04 Mirror:    No*
G04 Mode:      Positive*
G04 Rotation:  0*
G04 FullContactRelief:  No*
G04 UndefLineWidth:     6.000*
G04 ================== end FILE IDENTIFICATION RECORD ====================*
%FSLAX25Y25*MOIN*%
%IR0*IPPOS*OFA0.00000B0.00000*MIA0B0*SFA1.00000B1.00000*%
%ADD36R,.033X.008*%
%ADD34R,.008X.033*%
%AMMACRO19*
4,1,22,-.005512,-.01122,
-.005428,-.012177,
-.00518,-.013105,
-.004774,-.013976,
-.004223,-.014763,
-.003543,-.015443,
-.002756,-.015994,
-.001886,-.0164,
-.000958,-.016649,
0.0,-.016732,
.000957,-.016649,
.001885,-.0164,
.002756,-.015994,
.003543,-.015443,
.004222,-.014764,
.004773,-.013977,
.005179,-.013106,
.005428,-.012178,
.005512,-.011221,
.005512,-.01122,
.005512,.016732,
-.005512,.016732,
-.005512,-.01122,
0.0*
%
%ADD19MACRO19*%
%AMMACRO17*
4,1,22,.01122,-.005512,
.012177,-.005428,
.013105,-.00518,
.013976,-.004774,
.014763,-.004223,
.015443,-.003543,
.015994,-.002756,
.0164,-.001886,
.016649,-.000958,
.016732,0.0,
.016649,.000957,
.0164,.001885,
.015994,.002756,
.015443,.003543,
.014764,.004222,
.013977,.004773,
.013106,.005179,
.012178,.005428,
.011221,.005512,
.01122,.005512,
-.016732,.005512,
-.016732,-.005512,
.01122,-.005512,
0.0*
%
%ADD17MACRO17*%
%ADD12C,.125*%
%ADD35R,.104X.104*%
%AMMACRO32*
4,1,44,-.014961,-.007087,
-.014961,.012992,
-.014931,.013334,
-.014842,.013665,
-.014697,.013976,
-.0145,.014258,
-.014258,.0145,
-.013977,.014697,
-.013666,.014842,
-.013334,.014931,
-.012992,.014961,
-.012992,.014961,
.012992,.014961,
.013334,.014931,
.013665,.014842,
.013976,.014697,
.014258,.0145,
.0145,.014258,
.014697,.013977,
.014842,.013666,
.014931,.013334,
.014961,.012992,
.014961,.012992,
.014961,-.012992,
.014931,-.013334,
.014842,-.013665,
.014697,-.013976,
.0145,-.014258,
.014258,-.0145,
.013977,-.014697,
.013666,-.014842,
.013334,-.014931,
.012992,-.014961,
.012992,-.014961,
-.007087,-.014961,
-.007207,-.013594,
-.007562,-.012268,
-.008142,-.011024,
-.008929,-.0099,
-.009899,-.008929,
-.011023,-.008142,
-.012267,-.007562,
-.013593,-.007207,
-.01496,-.007087,
-.014961,-.007087,
0.0*
%
%ADD32MACRO32*%
%ADD28C,.208661*%
%ADD41C,.314961*%
%ADD18R,.100394X.080709*%
%ADD37R,.009055X.036614*%
%AMMACRO20*
4,1,21,0.0,-.008661,
-.000684,-.008601,
-.001347,-.008424,
-.001968,-.008134,
-.002531,-.00774,
-.003016,-.007255,
-.00341,-.006693,
-.0037,-.006071,
-.003877,-.005408,
-.003937,-.004724,
-.003937,.008662,
.003937,.008662,
.003937,-.004724,
.003877,-.005408,
.0037,-.006071,
.00341,-.006692,
.003016,-.007255,
.002531,-.00774,
.001969,-.008134,
.001347,-.008424,
.000684,-.008601,
0.0,-.008661,
0.0*
%
%ADD20MACRO20*%
%AMMACRO21*
4,1,21,-.008661,0.0,
-.008601,.000684,
-.008424,.001347,
-.008134,.001968,
-.00774,.002531,
-.007255,.003016,
-.006693,.00341,
-.006071,.0037,
-.005408,.003877,
-.004724,.003937,
.008662,.003937,
.008662,-.003937,
-.004724,-.003937,
-.005408,-.003877,
-.006071,-.0037,
-.006692,-.00341,
-.007255,-.003016,
-.00774,-.002531,
-.008134,-.001969,
-.008424,-.001347,
-.008601,-.000684,
-.008661,0.0,
0.0*
%
%ADD21MACRO21*%
%ADD38R,.009843X.009843*%
%ADD11C,.04*%
%ADD10C,.022*%
%ADD25R,.059X.051*%
%AMMACRO26*
4,1,22,-.01122,.005512,
-.012177,.005428,
-.013105,.00518,
-.013976,.004774,
-.014763,.004223,
-.015443,.003543,
-.015994,.002756,
-.0164,.001886,
-.016649,.000958,
-.016732,0.0,
-.016649,-.000957,
-.0164,-.001885,
-.015994,-.002756,
-.015443,-.003543,
-.014764,-.004222,
-.013977,-.004773,
-.013106,-.005179,
-.012178,-.005428,
-.011221,-.005512,
-.01122,-.005512,
.016732,-.005512,
.016732,.005512,
-.01122,.005512,
0.0*
%
%ADD26MACRO26*%
%ADD39R,.055X.039*%
%AMMACRO16*
4,1,22,.005512,.01122,
.005428,.012177,
.00518,.013105,
.004774,.013976,
.004223,.014763,
.003543,.015443,
.002756,.015994,
.001886,.0164,
.000958,.016649,
0.0,.016732,
-.000957,.016649,
-.001885,.0164,
-.002756,.015994,
-.003543,.015443,
-.004222,.014764,
-.004773,.013977,
-.005179,.013106,
-.005428,.012178,
-.005512,.011221,
-.005512,.01122,
-.005512,-.016732,
.005512,-.016732,
.005512,.01122,
0.0*
%
%ADD16MACRO16*%
%ADD13C,.053*%
%ADD42R,.039X.055*%
%ADD31R,.02X.02*%
%ADD27R,.01811X.011811*%
%ADD14R,.021X.021*%
%ADD15R,.031X.031*%
%AMMACRO24*
4,1,44,.014961,.007087,
.014961,-.012992,
.014931,-.013334,
.014842,-.013665,
.014697,-.013976,
.0145,-.014258,
.014258,-.0145,
.013977,-.014697,
.013666,-.014842,
.013334,-.014931,
.012992,-.014961,
.012992,-.014961,
-.012992,-.014961,
-.013334,-.014931,
-.013665,-.014842,
-.013976,-.014697,
-.014258,-.0145,
-.0145,-.014258,
-.014697,-.013977,
-.014842,-.013666,
-.014931,-.013334,
-.014961,-.012992,
-.014961,-.012992,
-.014961,.012992,
-.014931,.013334,
-.014842,.013665,
-.014697,.013976,
-.0145,.014258,
-.014258,.0145,
-.013977,.014697,
-.013666,.014842,
-.013334,.014931,
-.012992,.014961,
-.012992,.014961,
.007087,.014961,
.007207,.013594,
.007562,.012268,
.008142,.011024,
.008929,.0099,
.009899,.008929,
.011023,.008142,
.012267,.007562,
.013593,.007207,
.01496,.007087,
.014961,.007087,
0.0*
%
%ADD24MACRO24*%
%ADD40R,.016732X.01378*%
%ADD33R,.01378X.016732*%
%AMMACRO23*
4,1,21,.008661,0.0,
.008601,-.000684,
.008424,-.001347,
.008134,-.001968,
.00774,-.002531,
.007255,-.003016,
.006693,-.00341,
.006071,-.0037,
.005408,-.003877,
.004724,-.003937,
-.008662,-.003937,
-.008662,.003937,
.004724,.003937,
.005408,.003877,
.006071,.0037,
.006693,.00341,
.007255,.003016,
.00774,.002531,
.008134,.001968,
.008424,.001347,
.008601,.000684,
.008661,0.0,
0.0*
%
%ADD23MACRO23*%
%AMMACRO22*
4,1,21,0.0,.008661,
.000684,.008601,
.001347,.008424,
.001969,.008134,
.002531,.00774,
.003016,.007255,
.00341,.006692,
.0037,.006071,
.003877,.005408,
.003937,.004724,
.003937,-.008662,
-.003937,-.008662,
-.003937,.004724,
-.003877,.005408,
-.0037,.006071,
-.00341,.006692,
-.003016,.007255,
-.002531,.00774,
-.001969,.008134,
-.001347,.008424,
-.000684,.008601,
0.0,.008661,
0.0*
%
%ADD22MACRO22*%
%ADD30R,.03937X.03937*%
%ADD29R,.086614X.041339*%
%ADD43C,.005*%
%ADD44C,.008*%
%ADD45C,.009*%
%ADD46C,.0055*%
%ADD47C,.01*%
%ADD48C,.02*%
%ADD49C,.012*%
%ADD50C,.014*%
%ADD51C,.015*%
%ADD52C,.025*%
%ADD53C,.006*%
%ADD58C,.100004*%
%ADD59C,.160004*%
%ADD55C,.052004*%
%ADD56C,.073004*%
%ADD57C,.083004*%
%ADD54C,.038004*%
G75*
%LPD*%
G75*
G36*
G01X80869Y209900D02*
G03X75269I-2800J0D01*
G01Y205009D01*
G03X75314Y204509I2800J0D01*
G02X74953Y204039I-394J-71D01*
G03X69587Y201552I710J-8565D01*
G01X69587Y201551D01*
G03X67429Y197895I6014J-6014D01*
G01X67410Y197831D01*
X67189Y197663D01*
X67070Y197745D01*
G03X66875Y197866I-1470J-2145D01*
G01Y203435D01*
X65272Y205038D01*
Y205503D01*
X69400D01*
Y206303D01*
X69655D01*
X72250Y208899D01*
Y212820D01*
X72264Y212894D01*
X72271Y212911D01*
X72273Y212916D01*
G03X68736Y212895I-1773J684D01*
G01X68750Y212859D01*
Y210604D01*
X64300D01*
Y209885D01*
X60800D01*
Y209900D01*
X59704D01*
Y214700D01*
X59521D01*
G02X59121Y215122I0J400D01*
G03X55477Y215973I-1897J102D01*
G01X55462Y215937D01*
X55403Y215879D01*
Y215770D01*
X55396Y215743D01*
G03X55326Y215122I1828J-519D01*
G02X54927Y214700I-399J-22D01*
G01X54603D01*
Y214200D01*
X50544D01*
Y210351D01*
X47027D01*
X46990Y210354D01*
X46980Y210356D01*
G03X46416Y205202I-480J-2555D01*
G02X46804Y204802I-13J-400D01*
G01Y201425D01*
X21622D01*
X16725Y196528D01*
Y148472D01*
X18920Y146277D01*
X21504D01*
Y145002D01*
X23094D01*
G02X23478Y144489I0J-400D01*
G03X27122I1822J-539D01*
G02X27506Y145002I384J113D01*
G01X30344D01*
Y150444D01*
X31275Y151375D01*
Y151539D01*
X33028D01*
G03X33767Y151690I0J1894D01*
G02X34323Y151321I156J-368D01*
G01Y149267D01*
X33597D01*
Y144167D01*
X37591D01*
G02X37990Y143790I0J-400D01*
G03X41784I1897J110D01*
G02X42184Y144167I399J-23D01*
G01X42438D01*
Y149182D01*
X43627D01*
Y148070D01*
X46472Y145225D01*
X54472D01*
X57725Y141972D01*
Y140700D01*
X56180D01*
X56106Y140714D01*
X56089Y140721D01*
G03X55764Y137085I-689J-1771D01*
G01X55869Y137105D01*
X56085Y136889D01*
X55652Y136456D01*
X55544Y136481D01*
G03X57481Y134544I-594J-2531D01*
G01X57456Y134653D01*
X60275Y137472D01*
Y143028D01*
X55528Y147775D01*
X47528D01*
X46805Y148499D01*
G02X47088Y149182I283J283D01*
G01X47452D01*
Y158022D01*
X42352D01*
Y157296D01*
X39406D01*
G03Y153508I0J-1894D01*
G01X42352D01*
Y149267D01*
X38111D01*
Y152213D01*
G03X35353Y153898I-1894J0D01*
G02X34797Y154111I-183J356D01*
G03X34646Y154418I-1769J-677D01*
G03Y156386I-1618J984D01*
G03X34797Y156693I-1618J984D01*
G02X35353Y156906I374J-143D01*
G03X38111Y158591I864J1685D01*
G01Y161233D01*
X42438D01*
Y161486D01*
G02X42817Y161885I400J0D01*
G03Y165680I-99J1898D01*
G02X42438Y166080I21J399D01*
G01Y166333D01*
X33597D01*
Y161233D01*
X34323D01*
Y159482D01*
G02X33767Y159114I-400J0D01*
G03X33028Y159264I-739J-1744D01*
G01X32170D01*
X31971Y159462D01*
X31961Y159477D01*
G03X30542Y160221I-1433J-1006D01*
G02X30344Y160421I2J200D01*
G01Y162172D01*
X30023D01*
G02X29623Y162560I0J400D01*
G03X25824I-1899J-60D01*
G02X25425Y162172I-400J13D01*
G01X25244D01*
Y158700D01*
X22250D01*
Y160220D01*
X22264Y160294D01*
X22271Y160311D01*
X22271Y160312D01*
X22273Y160316D01*
G03X19819Y162774I-1773J684D01*
G02X19275Y163147I-143J373D01*
G01Y195472D01*
X22678Y198875D01*
X46804D01*
Y197600D01*
X51904D01*
Y201300D01*
X55644D01*
Y201767D01*
X59800D01*
Y201700D01*
X61500D01*
Y201767D01*
X64325D01*
Y197866D01*
G03X66550Y193179I1275J-2266D01*
G02X67096Y192807I146J-372D01*
G01Y186528D01*
G03X67126Y186116I2800J0D01*
G02X66730Y185658I-396J-59D01*
G01X59666D01*
G03X58546Y185424I0J-2800D01*
G01X58508Y185408D01*
X57084D01*
X57045Y185424D01*
G03X55926Y185658I-1119J-2567D01*
G01X54736D01*
X54637Y185756D01*
X46991D01*
X46893Y185658D01*
X37976D01*
G03Y180057I-4907J-2800D01*
G01X49212D01*
X49311Y180156D01*
X52317D01*
X52416Y180057D01*
X55926D01*
G03X57045Y180291I0J2800D01*
G01X57084Y180307D01*
X58508D01*
X58546Y180291D01*
G03X59666Y180057I1119J2567D01*
G01X69826D01*
G03X70781Y180225I0J2800D01*
G01X70814Y180237D01*
X72543D01*
X72611Y180225D01*
X72627Y180220D01*
G03X73566Y180057I939J2638D01*
G01X75812D01*
G03X76090Y180071I0J2800D01*
G02X76530Y179673I40J-398D01*
G01Y177390D01*
X76520D01*
Y176440D01*
X78939D01*
Y172339D01*
G03X78969Y171927I2800J0D01*
G02X78574Y171469I-396J-59D01*
G01X73437D01*
Y172137D01*
X67922D01*
Y172370D01*
X58945D01*
Y164968D01*
X67922D01*
Y165200D01*
X73437D01*
Y165868D01*
X81094D01*
X81137Y165864D01*
X81147Y165861D01*
G03X82859Y166032I592J2737D01*
G01X82897Y166048D01*
X84289D01*
Y167441D01*
X84306Y167479D01*
G03Y169718I-2567J1119D01*
G01X84289Y169756D01*
Y171181D01*
X84306Y171219D01*
G03X84539Y172338I-2567J1119D01*
G01Y176930D01*
G03X84537Y177051I-2800J1D01*
G01X84537Y177056D01*
Y177260D01*
X85130D01*
Y178140D01*
X86473D01*
G03X87824Y177600I1327J1360D01*
G01X87827D01*
X88030Y177602D01*
Y177100D01*
X88000D01*
Y172100D01*
X91527D01*
Y166870D01*
X90490D01*
Y166665D01*
X85500D01*
Y165390D01*
X80273D01*
X77846Y162962D01*
X77738Y162988D01*
G03X79675Y161051I-594J-2531D01*
G01X79649Y161159D01*
X81330Y162839D01*
X85500D01*
Y157820D01*
X84920D01*
Y156400D01*
X84088D01*
Y152650D01*
X80380D01*
Y152395D01*
G02X80007Y151996I-400J0D01*
G03X78242Y149951I129J-1896D01*
G02X77880Y149522I-399J-31D01*
G01Y148400D01*
X76588D01*
Y143300D01*
X76650D01*
Y142260D01*
X77318D01*
G03X80967Y142917I1750J740D01*
G02X81366Y143300I400J-17D01*
G01X89189D01*
Y143400D01*
X93633D01*
X93635Y143202D01*
G03X98655Y144187I2600J33D01*
G01X98641Y144223D01*
Y147982D01*
X103069D01*
Y148164D01*
G02X103454Y148564I400J0D01*
G03Y152361I-72J1899D01*
G02X103069Y152761I15J400D01*
G01Y153083D01*
X97968D01*
Y152553D01*
X94488D01*
Y157100D01*
X94500D01*
Y157824D01*
X98170D01*
Y157490D01*
X99720D01*
Y158150D01*
X100955D01*
Y157842D01*
X102572Y156224D01*
X102800D01*
G02X103200Y155824I0J-400D01*
G03X108307Y155130I2600J-4D01*
G01X108347Y155277D01*
X108900D01*
Y155183D01*
X126600D01*
Y155200D01*
X127400D01*
Y155183D01*
X131825D01*
Y153872D01*
X132456Y153241D01*
G02X132351Y152600I-283J-283D01*
G03X132451Y149153I849J-1700D01*
G01X132487Y149138D01*
X133480Y148144D01*
Y147300D01*
X132022D01*
X131921Y147400D01*
X119579D01*
X117800Y145621D01*
Y126079D01*
X120579Y123300D01*
X131121D01*
X133200Y125379D01*
Y127353D01*
X141600D01*
Y127300D01*
X143100D01*
Y127353D01*
X146652D01*
Y129729D01*
X146655Y129762D01*
X146656Y129770D01*
G03X146674Y129984I-1257J214D01*
G01Y133677D01*
X148906Y135909D01*
Y142380D01*
X150181D01*
Y146120D01*
X155481D01*
Y151220D01*
X150615D01*
G02X150217Y151662I0J400D01*
G03X145075Y151450I-2586J269D01*
G01X145077Y151441D01*
X145079Y151419D01*
G02X144880Y151200I-199J-19D01*
G01X144381D01*
Y151220D01*
X143106D01*
Y151472D01*
X141327Y153250D01*
X140649D01*
Y161426D01*
X146600D01*
Y160151D01*
X151700D01*
Y162703D01*
G02X152431Y162929I400J0D01*
G03X154201Y162110I1569J1071D01*
G02X154526Y161430I42J-398D01*
G01X153196Y160100D01*
X153113Y160100D01*
G03X155000Y158213I-13J-1900D01*
G01X155000Y158296D01*
X156693Y159990D01*
X157720D01*
Y160450D01*
X162057D01*
Y129786D01*
X149872Y117600D01*
X145479D01*
X143400Y115521D01*
Y114229D01*
X136272D01*
Y111854D01*
X136269Y111820D01*
X136268Y111812D01*
G03X136250Y111599I1257J-214D01*
G01Y104553D01*
X135802Y104106D01*
X135691Y104136D01*
G03X137003Y101699I-491J-1836D01*
G01X138800Y103497D01*
X139600Y102696D01*
X139600Y102613D01*
G03X142430Y100943I1900J-13D01*
G01X142562Y101017D01*
X143779Y99800D01*
X149621D01*
X152600Y102779D01*
Y114672D01*
X166057Y128129D01*
Y156400D01*
X173788D01*
Y151697D01*
X179150D01*
Y151280D01*
X179895D01*
Y148364D01*
X181164Y147095D01*
X181418D01*
Y142080D01*
X182218D01*
Y141768D01*
X182204Y141694D01*
X182198Y141677D01*
X182197Y141677D01*
X182196Y141673D01*
G03X185733Y141694I1773J-684D01*
G01X185719Y141730D01*
Y142080D01*
X186519D01*
Y145820D01*
X191800D01*
Y145800D01*
X192640D01*
Y142080D01*
X193440D01*
Y141768D01*
X193425Y141694D01*
X193419Y141677D01*
X193417Y141673D01*
G03X196954Y141694I1773J-684D01*
G01X196940Y141730D01*
Y142080D01*
X197740D01*
Y145800D01*
X198700D01*
Y145820D01*
X203519D01*
Y150790D01*
X204000D01*
Y152150D01*
X207149D01*
Y156900D01*
X207200D01*
Y157697D01*
X210889D01*
Y158497D01*
X211201D01*
X211274Y158483D01*
X211291Y158476D01*
X211292Y158476D01*
X211296Y158474D01*
G03X211275Y162012I684J1773D01*
G01X211239Y161997D01*
X210889D01*
Y162797D01*
X207300D01*
Y163978D01*
X207300Y163979D01*
Y178521D01*
X205621Y180200D01*
X197479D01*
X197360Y180082D01*
G02X197019Y180223I-141J141D01*
G01Y183900D01*
X197500D01*
Y186715D01*
G03X196105Y189900I-1400J1285D01*
G02X195714Y190378I1J400D01*
G03X193837Y192650I-1864J372D01*
G01X193754Y192650D01*
X190428Y195975D01*
X181021D01*
G02X180622Y196407I0J400D01*
G03X180631Y196630I-2791J223D01*
G01Y203141D01*
G02X181098Y203535I400J0D01*
G03X182690Y203729I473J2760D01*
G01X182729Y203745D01*
X184121D01*
Y205138D01*
X184138Y205176D01*
G03X184371Y206295I-2567J1119D01*
G01Y213391D01*
G03X183215Y217386I-7481J0D01*
G02X183553Y218000I338J214D01*
G01X235171D01*
X238000Y215171D01*
Y4829D01*
X235171Y2000D01*
X4829D01*
X2000Y4829D01*
Y215171D01*
X4829Y218000D01*
X62053D01*
G02X62252Y217253I0J-400D01*
G03X64848I1298J-2253D01*
G02X65048Y218000I200J347D01*
G01X133020D01*
Y216420D01*
X132615D01*
Y212750D01*
X128385D01*
Y207650D01*
X128390D01*
Y206804D01*
X124566D01*
G03X123446Y206570I0J-2800D01*
G01X123408Y206553D01*
X121984D01*
X121945Y206570D01*
G03X120826Y206804I-1119J-2567D01*
G01X113066D01*
G03X111946Y206570I0J-2800D01*
G01X111908Y206553D01*
X110484D01*
X110445Y206570D01*
G03X109326Y206804I-1119J-2567D01*
G01X103420D01*
Y208150D01*
X97680D01*
Y207935D01*
X94820D01*
X94783Y207899D01*
X94606D01*
X94536Y207969D01*
X89566D01*
G03X88446Y207735I0J-2800D01*
G01X88408Y207719D01*
X86984D01*
X86945Y207735D01*
G03X85826Y207969I-1119J-2567D01*
G01X81739D01*
G03X81328Y207938I0J-2800D01*
G02X80869Y208334I-59J396D01*
G01Y209900D01*
G37*
G36*
G01X72660Y186080D02*
G03X72696Y186528I-2764J447D01*
G01Y195538D01*
G02X73547Y197591I2904J0D01*
G01X73547Y197592D01*
G02X75664Y198468I2117J-2117D01*
G01X78069D01*
G03X78516Y198504I0J2800D01*
G02X78975Y198046I64J-395D01*
G03X78939Y197598I2764J-447D01*
G01Y188339D01*
Y188130D01*
X76650D01*
Y186028D01*
G02X76195Y185631I-400J0D01*
G03X75812Y185658I-384J-2774D01*
G01X73566D01*
G03X73119Y185622I0J-2800D01*
G02X72660Y186080I-64J395D01*
G37*
G36*
G01X80453Y182076D02*
G03Y183639I-2375J782D01*
G02X80958Y184144I380J125D01*
G03X83229Y184511I781J2375D01*
G02X83834Y184349I238J-321D01*
G03X84083Y183983I1095J477D01*
G02Y183701I-142J-141D01*
G03Y182014I845J-843D01*
G02Y181732I-142J-141D01*
G03X83834Y181366I845J-843D01*
G02X83229Y181204I-367J160D01*
G03X80958Y181571I-1489J-2008D01*
G02X80453Y182076I-125J380D01*
G37*
G36*
G01X105508Y186496D02*
X105200Y186804D01*
X105200Y186887D01*
G03X102309Y188521I-1900J13D01*
G02X101700Y188862I-209J341D01*
G01Y191400D01*
X100600D01*
Y191500D01*
X96724D01*
Y199332D01*
X87884D01*
Y198400D01*
G02X87685Y198200I-200J0D01*
G03Y194400I15J-1900D01*
G02X87884Y194200I-2J-200D01*
G01Y189687D01*
X86287Y188090D01*
X85700D01*
Y188670D01*
X84539D01*
Y197598D01*
G03X84372Y198554I-2800J0D01*
G01X84360Y198586D01*
Y200350D01*
X84372Y200384D01*
G03X84539Y201339I-2632J955D01*
G01Y202368D01*
X85826D01*
G03X86945Y202602I0J2800D01*
G01X86983Y202618D01*
X88409D01*
X88447Y202602D01*
G03X89566Y202368I1119J2567D01*
G01X92823D01*
X92844Y202364D01*
G03X93446Y202298I602J2735D01*
G01X97103D01*
X97140Y202335D01*
X97500D01*
Y201560D01*
X98383D01*
G02X98612Y200832I0J-400D01*
G03X102134Y197081I1489J-2132D01*
G02X102723Y197122I313J-249D01*
G03X102869Y200004I1308J1378D01*
G02X102288Y200104I-244J317D01*
G03X101954Y200523I-2188J-1404D01*
G02X102240Y201203I285J280D01*
G01X104823D01*
X104844Y201198D01*
G03X106048I602J2735D01*
G01X106069Y201203D01*
X109326D01*
G03X110445Y201436I0J2800D01*
G01X110483Y201453D01*
X111909D01*
X111947Y201436D01*
G03X113066Y201203I1119J2567D01*
G01X115277D01*
G02X115594Y200559I0J-400D01*
G03X115500Y198375I1506J-1159D01*
G01Y195887D01*
X115982Y195406D01*
Y191370D01*
X111600D01*
Y191300D01*
X111100D01*
Y191370D01*
X106000D01*
Y186496D01*
X105508D01*
G37*
G36*
G01X96628Y171914D02*
Y172100D01*
X96500D01*
Y173322D01*
X98575Y175397D01*
Y175630D01*
X99580D01*
Y175700D01*
X103531D01*
Y171875D01*
X97072D01*
X96969Y171773D01*
G02X96628Y171914I-141J141D01*
G37*
G36*
G01X98800Y182201D02*
Y180298D01*
G02X98610Y180098I-200J0D01*
G03X96800Y178187I90J-1898D01*
G01X96800Y178104D01*
X96025Y177328D01*
Y177100D01*
X92400D01*
Y177300D01*
G03X92326Y177828I-1900J0D01*
G02X92710Y178339I384J111D01*
G01X92984D01*
Y182168D01*
X96724D01*
Y182320D01*
G03X98090Y182644I276J1880D01*
G02X98699Y182444I230J-328D01*
G03X98800Y182201I1801J606D01*
G37*
G36*
G01X131351Y126503D02*
X131700Y126153D01*
Y126000D01*
X130500Y124800D01*
X121200D01*
X119300Y126700D01*
Y145000D01*
X120200Y145900D01*
X131300D01*
X131700Y145500D01*
Y140403D01*
X131625Y140328D01*
Y135153D01*
X131700Y135078D01*
Y132615D01*
X131548D01*
Y130714D01*
G03X131351Y129984I1253J-730D01*
G01Y126503D01*
G37*
G36*
G01X116350Y168650D02*
Y177950D01*
X125650D01*
Y168650D01*
X116350D01*
G37*
G36*
G01X119182Y191370D02*
Y196731D01*
X118700Y197213D01*
Y198375D01*
G03X118606Y200559I-1600J1025D01*
G02X118923Y201203I317J244D01*
G01X120826D01*
G03X121945Y201436I0J2800D01*
G01X121983Y201453D01*
X123409D01*
X123447Y201436D01*
G03X124566Y201203I1119J2567D01*
G01X125510D01*
Y200130D01*
X125553D01*
Y195500D01*
X126828D01*
Y195243D01*
X127725Y194347D01*
Y191370D01*
X119182D01*
G37*
G36*
G01X175030Y203200D02*
Y196631D01*
G03X175095Y196032I2800J0D01*
G01X175100Y196010D01*
Y189450D01*
X166564D01*
Y187400D01*
X155400D01*
Y186950D01*
X151400D01*
Y187500D01*
X151410D01*
Y192600D01*
X150103D01*
X148528Y194175D01*
X142970D01*
Y194190D01*
X140300D01*
Y196360D01*
X140700D01*
Y197770D01*
X138890D01*
Y197734D01*
X138643Y197632D01*
X137725Y198550D01*
X134775D01*
X133712Y199614D01*
X133696Y199649D01*
G03X131101Y200600I-1746J-749D01*
G01X127360D01*
Y201203D01*
X129285D01*
G03X130404Y201436I0J2800D01*
G01X130442Y201453D01*
X131868D01*
X131906Y201436D01*
G03X133025Y201203I1119J2567D01*
G01X135790D01*
Y200930D01*
X137376D01*
G03X139440Y199878I2063J1499D01*
G01X139914D01*
X139952Y199862D01*
G03X141072Y199628I1119J2567D01*
G01X144542D01*
X144612Y199698D01*
X146703D01*
X146724Y199694D01*
G03X148445Y199862I602J2735D01*
G01X148483Y199878D01*
X149909D01*
X149947Y199862D01*
G03X151066Y199628I1119J2567D01*
G01X156036D01*
X156106Y199698D01*
X158453D01*
X158474Y199694D01*
G03X160195Y199862I602J2735D01*
G01X160233Y199878D01*
X161659D01*
X161697Y199862D01*
G03X162816Y199628I1119J2567D01*
G01X168529D01*
G03X171254Y203073I0J2800D01*
G02X171643Y203565I389J92D01*
G01X174161D01*
G03X174572Y203596I0J2800D01*
G02X175030Y203200I59J-396D01*
G37*
G36*
G01X138341Y206870D02*
X137691Y207520D01*
X137715Y207580D01*
Y216140D01*
X139196D01*
Y207580D01*
X139900D01*
Y206990D01*
X138760D01*
Y206870D01*
X138341D01*
G37*
G36*
G01X144400Y101300D02*
X143382Y102318D01*
X143391Y102413D01*
G03X143200Y103449I-1891J187D01*
G01Y106174D01*
G03Y106226I-1900J26D01*
G01Y107800D01*
X144368Y108968D01*
X145077D01*
Y110868D01*
G03X145275Y111598I-1253J730D01*
G01Y115275D01*
X146100Y116100D01*
X150300D01*
X151100Y115300D01*
Y103400D01*
X149000Y101300D01*
X144400D01*
G37*
G36*
G01X166968Y216600D02*
G03X162311Y214671I0J-6585D01*
G01X161930Y214290D01*
G03X161141Y213194I2970J-2970D01*
G02X160577Y213030I-358J179D01*
G03X158320Y212804I-977J-1630D01*
G02X157780I-269J296D01*
G03X155096Y212680I-1280J-1404D01*
G01X144296D01*
Y216420D01*
X144140D01*
Y218000D01*
X177129D01*
G02X177513Y217487I0J-400D01*
G03X177400Y216701I2687J-787D01*
G02X176876Y216321I-400J0D01*
G03X175122Y216600I-1753J-5364D01*
G01X166968D01*
G37*
G36*
G01X166607Y164803D02*
Y165550D01*
X162867D01*
Y176800D01*
X169720D01*
Y174550D01*
X170048D01*
Y170000D01*
X170000D01*
Y167903D01*
X169698D01*
X169662Y167917D01*
G03X167199Y165433I-705J-1764D01*
G02X167042Y164943I-370J-152D01*
G03X166957Y164870I214J-338D01*
G01X166897Y164803D01*
X166607D01*
G37*
G36*
G01X194611Y159499D02*
G03X194206Y159331I579J-1968D01*
G03X192237I-984J-1800D01*
G03X190268I-984J-1800D01*
G03X188300I-984J-1800D01*
G03X186331I-984J-1800D01*
G03X185926Y159499I-985J-1800D01*
G02X185644Y159942I113J384D01*
G03X185270Y161459I-2029J305D01*
G01Y164941D01*
G03X185643Y166460I-1655J1212D01*
G02X186039Y166920I395J60D01*
G01X186676D01*
X186705Y166911D01*
G03X188300Y167069I611J1958D01*
G03X190268I984J1800D01*
G03X192237I984J1800D01*
G03X193890Y166930I984J1800D01*
G01X194008Y166970D01*
X194179Y166800D01*
X194900D01*
Y166498D01*
X194897Y166482D01*
G03Y165824I2025J-329D01*
G01X194900Y165808D01*
Y163879D01*
X195250Y163528D01*
Y161436D01*
G03X194894Y159942I1672J-1188D01*
G02X194611Y159499I-396J-59D01*
G37*
G36*
G01X196480Y175080D02*
X197019D01*
Y175619D01*
X197500Y176100D01*
Y178100D01*
X198100Y178700D01*
X205000D01*
X205800Y177900D01*
Y168703D01*
X205788D01*
Y164588D01*
X205300Y164100D01*
X196800D01*
X196788Y164112D01*
Y168736D01*
X195273D01*
Y173165D01*
X195048D01*
G02X194906Y173506I0J200D01*
G01X196480Y175080D01*
G37*
%LPC*%
G75*
G36*
G01X52033Y82805D02*
G02X48504I-1765J-705D01*
G01X48518Y82841D01*
Y83080D01*
X47800D01*
Y82780D01*
X45640D01*
Y82800D01*
X41870D01*
Y83080D01*
X36718D01*
Y83253D01*
G03X36263Y83650I-400J0D01*
G02X34182Y86084I-263J1882D01*
G03X33794Y86600I-383J116D01*
G02X32493Y89909I-25J1900D01*
G01Y92080D01*
X31218D01*
Y95714D01*
G03X30877Y95855I-200J0D01*
G01X30821Y95800D01*
X21979D01*
X20000Y97779D01*
Y109950D01*
X19475D01*
X17148Y112277D01*
Y113203D01*
X16348D01*
Y118303D01*
X20000D01*
Y118800D01*
X20088D01*
Y123850D01*
X25189D01*
Y119000D01*
X30996D01*
Y122765D01*
X31772D01*
Y128080D01*
X30497D01*
Y128100D01*
X29819D01*
Y128080D01*
X24718D01*
Y133180D01*
X29700D01*
Y133200D01*
X30497D01*
Y136550D01*
X29975D01*
X28786Y137738D01*
X28751Y137754D01*
G02X31246Y140249I749J1746D01*
G01X31262Y140214D01*
X31425Y140050D01*
X32272D01*
X34797Y137525D01*
Y136920D01*
X35597D01*
Y133400D01*
X37300D01*
Y133180D01*
X41718D01*
Y136720D01*
X41290D01*
Y137750D01*
X40741D01*
X40705Y137736D01*
G02Y141264I-705J1764D01*
G01X40741Y141250D01*
X43575D01*
X46019Y138806D01*
Y136920D01*
X46819D01*
Y128080D01*
X45544D01*
Y121564D01*
X45500Y121520D01*
Y118600D01*
X49300D01*
Y119400D01*
X49348D01*
Y124303D01*
X54449D01*
Y119800D01*
X54500D01*
Y118303D01*
X58360D01*
Y118760D01*
X61050D01*
Y117170D01*
X60900D01*
Y116779D01*
X60929Y116732D01*
G02Y114774I-1629J-979D01*
G01X60900Y114726D01*
Y114315D01*
G03X61423Y113934I400J0D01*
G02X61992Y110225I582J-1809D01*
G01X61909Y110225D01*
X60846Y109163D01*
G03X60990Y108505I283J-283D01*
G01Y106860D01*
X58380D01*
Y107297D01*
X49348D01*
Y107800D01*
X48918D01*
Y107796D01*
X44680D01*
Y103975D01*
X48740D01*
X51544Y101172D01*
Y100920D01*
X52819D01*
Y93568D01*
G03X53336Y93186I400J0D01*
G02X53506Y88169I764J-2485D01*
G01X53397Y88194D01*
X53298Y88095D01*
X52819D01*
Y83080D01*
X52019D01*
Y82841D01*
X52033Y82805D01*
G37*
G36*
G01X58671Y198879D02*
G02X58624Y197004I1629J-979D01*
G03X57929Y197021I-353J-189D01*
G02X57976Y198896I-1629J979D01*
G03X58671Y198879I353J189D01*
G37*
G36*
G01X6852Y141161D02*
G02X4261Y143752I-1652J939D01*
G03Y144448I-198J348D01*
G02X3786Y147369I939J1652D01*
G03X3716Y147965I-298J267D01*
G02X7335Y151584I1484J2135D01*
G03X7931Y151514I328J228D01*
G02X10139Y148448I1269J-1414D01*
G03Y147752I198J-348D01*
G02Y144448I-939J-1652D01*
G03Y143752I198J-348D01*
G02X7548Y141161I-939J-1652D01*
G03X6852I-348J-198D01*
G37*
G36*
G01X78239Y132052D02*
G02X76361I-939J-1652D01*
G03Y132748I-198J348D01*
G02Y136052I939J1652D01*
G03Y136748I-198J348D01*
G02X78239I939J1652D01*
G03Y136052I198J-348D01*
G02Y132748I-939J-1652D01*
G03Y132052I198J-348D01*
G37*
G36*
G01X68039Y129252D02*
G02X66161I-939J-1652D01*
G03Y129948I-198J348D01*
G02X68039I939J1652D01*
G03Y129252I198J-348D01*
G37*
G36*
G01X7052Y123861D02*
G02X3986Y126069I-1652J939D01*
G03X3916Y126665I-298J267D01*
G02X7535Y130284I1484J2135D01*
G03X8131Y130214I328J228D01*
G02X11052Y129739I1269J-1414D01*
G03X11748I348J198D01*
G02X14339Y127148I1652J-939D01*
G03Y126452I198J-348D01*
G02X11748Y123861I-939J-1652D01*
G03X11052I-348J-198D01*
G02X7748I-1652J939D01*
G03X7052I-348J-198D01*
G37*
G36*
G01X106200Y82536D02*
G02X103116Y83986I-1900J-36D01*
G03X103094Y84628I-249J313D01*
G02X105063Y87871I1082J1562D01*
G03X105641Y88307I187J354D01*
G02X105637Y89074I1859J393D01*
G03X105059Y89507I-392J79D01*
G02X106040Y90816I-882J1683D01*
G03X106618Y90383I392J-79D01*
G02X108396Y87024I882J-1683D01*
G03X108379Y86329I189J-353D01*
G02X106739Y82918I-979J-1629D01*
G03X106200Y82536I-139J-375D01*
G37*
G36*
G01X203920Y52478D02*
X203924Y52459D01*
G02X198781Y52213I-2554J-489D01*
G03X198383Y52650I-398J37D01*
G01X195080D01*
Y53925D01*
X187272D01*
X183596Y57600D01*
X183513Y57600D01*
G02X185400Y59487I-13J1900D01*
G01X185400Y59404D01*
X186145Y58658D01*
G03X186823Y59004I283J283D01*
G02X188404Y57423I1877J296D01*
G03X188058Y56745I-62J-395D01*
G01X188328Y56475D01*
X195080D01*
Y57750D01*
X203920D01*
Y52478D01*
G37*
G36*
G01X161379Y47992D02*
G02X158612Y50507I-1611J1008D01*
G03X158600Y51151I-244J317D01*
G02X161311Y53708I1100J1549D01*
G03X161989I339J212D01*
G02X164757Y51193I1611J-1008D01*
G03X164769Y50549I244J-317D01*
G02X162058Y47992I-1100J-1549D01*
G03X161379I-339J-212D01*
G37*
G36*
G01X122163Y17014D02*
G02X120190I-987J-1624D01*
G03Y17697I-208J342D01*
G02X122163I987J1624D01*
G03Y17014I208J-342D01*
G37*
G36*
G01X149600Y37679D02*
X146421Y34500D01*
X71279D01*
X69679Y36100D01*
X56508D01*
G03X56225Y35417I0J-400D01*
G01X56730Y34911D01*
Y24099D01*
X53981Y21350D01*
X46510D01*
Y21290D01*
X41242D01*
X41201Y21250D01*
X33349D01*
X31330Y23269D01*
Y33880D01*
X31170D01*
Y35998D01*
X28990Y38179D01*
Y47071D01*
X31669Y49750D01*
X42220D01*
Y50240D01*
X44600D01*
Y54921D01*
X50279Y60600D01*
X146021D01*
X149600Y57021D01*
Y37679D01*
G37*
G36*
G01X212981Y95520D02*
X204469D01*
X202710Y97279D01*
Y99850D01*
X197250D01*
Y108350D01*
X201000D01*
Y117050D01*
X207900D01*
Y113336D01*
X208950Y112286D01*
Y108350D01*
X211650D01*
Y99850D01*
X205811D01*
X205320Y99359D01*
Y98341D01*
X205641Y98020D01*
X211945D01*
X219772Y105847D01*
G03X219545Y106526I-283J283D01*
G02X221992Y110660I367J2574D01*
G03X222272Y110620I160J120D01*
G02X223374Y107200I1140J-1520D01*
G03X222966Y106800I-8J-400D01*
G01Y105505D01*
X212981Y95520D01*
G37*
G36*
G01X124079Y100800D02*
X122000Y102879D01*
Y114221D01*
X124079Y116300D01*
X131821D01*
X132322Y115800D01*
X133300D01*
Y115100D01*
X133200D01*
Y114229D01*
X135629D01*
Y109400D01*
X135670D01*
Y108410D01*
X135478D01*
X135021Y107953D01*
G02X133592Y104850I-1471J-1203D01*
G03X133200Y104450I9J-400D01*
G01Y104279D01*
X129721Y100800D01*
X124079D01*
G37*
G54D58*
X230000Y47400D03*
X10000Y210000D03*
X27300Y9300D03*
G54D59*
X15000Y15000D03*
G54D55*
X222200Y147900D03*
X217772Y116800D03*
X198331Y93300D03*
G54D56*
X40076Y189865D03*
Y175850D03*
Y60535D03*
X26061Y189865D03*
Y175850D03*
Y74550D03*
Y60535D03*
G54D57*
X40076Y74550D03*
X33068Y67542D03*
G54D54*
X231811Y115689D03*
X194468Y36700D03*
X180978Y99222D03*
X192731Y93300D03*
X181031Y93000D03*
X186531D03*
X179689Y70911D03*
X182248Y81052D03*
X177968Y36700D03*
X188968D03*
X164031Y105506D03*
X170031Y93300D03*
X164431Y93000D03*
X175531D03*
X173300Y99124D03*
X169453Y70947D03*
X177130Y81600D03*
X168100Y82450D03*
X166968Y36700D03*
X172468D03*
X154532Y85732D03*
X158931Y92500D03*
X157158Y18090D03*
X138831Y95818D03*
X133377Y18990D03*
X139911Y31624D03*
X127177Y19321D03*
X120831Y95818D03*
X99477Y100890D03*
X94477D03*
X108418Y96182D03*
X99577Y86190D03*
X94477Y96190D03*
X99477D03*
X94477Y91190D03*
X99477D03*
X94377Y86190D03*
X105434Y23965D03*
X97600Y31700D03*
X84477Y100590D03*
X89477Y100890D03*
X79977Y100590D03*
X84477Y95890D03*
X89477Y96190D03*
Y91190D03*
X79977D03*
X84477D03*
X79977Y95890D03*
X67200Y157800D03*
X64400Y121600D03*
X63400Y93950D03*
X63700Y81500D03*
X51770Y165630D03*
X13500Y148600D03*
X110300Y198900D03*
%LPD*%
G75*
G36*
G01X31000Y98100D02*
X30200Y97300D01*
X22600D01*
X21500Y98400D01*
Y110500D01*
X21900Y110900D01*
X31449D01*
Y107264D01*
X31500D01*
Y101300D01*
X31000Y100800D01*
Y98100D01*
G37*
G36*
G01X41600Y35500D02*
X42350Y34750D01*
Y24520D01*
X40580Y22750D01*
X33970D01*
X32830Y23890D01*
Y34830D01*
X33500Y35500D01*
X41600D01*
G37*
G36*
G01X42950Y38990D02*
X41360Y37400D01*
X31890D01*
X30490Y38800D01*
Y46450D01*
X32290Y48250D01*
X41690D01*
X42950Y46990D01*
Y38990D01*
G37*
G36*
G01X41906Y116669D02*
G03X42311Y116501I985J1800D01*
G02X42594Y116058I-113J-384D01*
G03X42810Y114791I2029J-305D01*
G01Y110809D01*
G03X42595Y109532I1812J-962D01*
G02X42200Y109070I-395J-62D01*
G01X41591D01*
X41561Y109080D01*
G03X39937Y108931I-639J-1949D01*
G03X37968I-984J-1800D01*
G03X36000I-984J-1800D01*
G03X34192Y109010I-984J-1800D01*
G01X34067Y108955D01*
X33921Y109100D01*
X33622D01*
X33596Y109108D01*
G03X33466Y109139I-549J-1977D01*
G02X33312Y109380I41J196D01*
G03X33306Y110341I-1998J467D01*
G01X33300Y110364D01*
Y111221D01*
X33002Y111520D01*
X33010D01*
Y114597D01*
G03X33344Y116058I-1695J1155D01*
G02X33626Y116501I396J59D01*
G03X34031Y116669I-579J1968D01*
G03X36000I984J1800D01*
G03X37968I984J1800D01*
G03X39937I984J1800D01*
G03X41906I984J1800D01*
G37*
G36*
G01X45270Y34570D02*
X45990Y35290D01*
X54230D01*
X55230Y34290D01*
Y24720D01*
X53360Y22850D01*
X46660D01*
X45270Y24240D01*
Y34570D01*
G37*
G36*
G01X124668Y36728D02*
G03X125343Y39057I-1068J1572D01*
G03X125152Y39396I-1743J-757D01*
G02X125204Y39918I327J231D01*
G03X122348Y40204I-1304J1382D01*
G02X122296Y39682I-327J-231D01*
G03X121886Y39119I1304J-1382D01*
G02X121172Y39102I-361J172D01*
G03X120941Y39439I-1673J-902D01*
G02Y39961I303J261D01*
G03X118059I-1441J1239D01*
G02Y39439I-303J-261D01*
G03X118317Y36713I1441J-1239D01*
G02X118068Y36000I-249J-313D01*
G01X105431D01*
G02X105055Y36536I0J400D01*
G03X101482I-1787J647D01*
G02X101106Y36000I-376J-136D01*
G01X71900D01*
X70300Y37600D01*
X47000D01*
X46100Y38500D01*
Y54300D01*
X50900Y59100D01*
X145400D01*
X148100Y56400D01*
Y38300D01*
X145800Y36000D01*
X124896D01*
G02X124668Y36728I0J400D01*
G37*
G36*
G01X131351Y111598D02*
G03X131548Y110868I1450J0D01*
G01Y108968D01*
X131700D01*
Y107185D01*
X131695Y107163D01*
G03Y106337I1855J-413D01*
G01X131700Y106315D01*
Y104900D01*
X129100Y102300D01*
X124700D01*
X123500Y103500D01*
Y113600D01*
X124700Y114800D01*
X131200D01*
X131351Y114649D01*
Y111598D01*
G37*
%LPC*%
G75*
G54D54*
X38500Y42900D03*
X131777Y38790D03*
X138027Y50643D03*
X126415Y53390D03*
X129327Y50290D03*
X116076Y52857D03*
X108177Y52743D03*
X112588Y48899D03*
%LPD*%
G75*
G54D10*
X5400Y124800D03*
Y128800D03*
X5200Y150100D03*
Y146100D03*
Y142100D03*
X14537Y99900D03*
X14300Y95132D03*
X14537Y104900D03*
Y109900D03*
Y114900D03*
X24900Y104300D03*
X14537Y119900D03*
X13400Y124800D03*
X9400D03*
Y128800D03*
X13400D03*
X14537Y134900D03*
Y139900D03*
X11368Y137868D03*
X13500Y148600D03*
X9200Y150100D03*
Y146100D03*
Y142100D03*
X11868Y157932D03*
X15500Y158500D03*
X20500Y161000D03*
X38527Y13808D03*
X38500Y42900D03*
X32600Y43600D03*
Y39600D03*
X28047Y91100D03*
X36000Y85532D03*
X33768Y88500D03*
X40968Y110300D03*
Y115300D03*
X37968Y112800D03*
X27800Y106700D03*
X27900Y102200D03*
X29800Y125200D03*
X41200Y123200D03*
X36600Y123600D03*
X41300Y126700D03*
X36900Y126800D03*
X26000Y138000D03*
X37000D03*
X29500Y139500D03*
X40000D03*
X25300Y143950D03*
X39887Y143900D03*
X40500Y150900D03*
X32000Y161500D03*
X40500Y160000D03*
X36217Y155402D03*
X27724Y162500D03*
X49527Y13803D03*
X50269Y82100D03*
X44800Y86412D03*
X44768Y90300D03*
X54100Y90700D03*
X51140Y104870D03*
X53700Y102500D03*
X51700Y131450D03*
X55737Y125316D03*
X52050Y126450D03*
X51900Y150300D03*
X51050Y141450D03*
X51750Y136450D03*
X55400Y138950D03*
X54950Y133950D03*
X42717Y163783D03*
X54824Y162861D03*
X51900Y155300D03*
X51770Y165630D03*
X50250Y178660D03*
X56220Y178560D03*
X54824Y174476D03*
X57800Y187230D03*
X50501Y190500D03*
X56300Y198000D03*
X46500Y207800D03*
X57224Y215224D03*
X63700Y81500D03*
X73700Y94100D03*
X68300Y93800D03*
X63400Y93950D03*
X65900Y112300D03*
X69800Y116200D03*
X59300Y115753D03*
X62005Y112125D03*
X67100Y131600D03*
Y127600D03*
X64400Y121600D03*
X69300Y148800D03*
X72605Y145850D03*
X67650Y139350D03*
X70800Y160800D03*
X66000Y153100D03*
X74700Y153700D03*
X67200Y157800D03*
X75700Y172800D03*
X70860Y178810D03*
X75705Y178905D03*
X65038Y190500D03*
X75370Y187320D03*
X60300Y197900D03*
X65600Y195600D03*
X70500Y213600D03*
X63550Y215000D03*
X89377Y42090D03*
X85377D03*
X81377D03*
X77377D03*
X89377Y38090D03*
X85377D03*
X81377D03*
X77377D03*
X88877Y66064D03*
X83677Y65990D03*
X78877Y66090D03*
X79977Y95890D03*
X84477Y91190D03*
X79977D03*
X89477D03*
Y96190D03*
X84477Y95890D03*
X79977Y100590D03*
X89477Y100890D03*
X84477Y100590D03*
X81700Y133400D03*
X88500Y133000D03*
X84200Y121200D03*
X80000Y117200D03*
X77300Y130400D03*
X81700Y140000D03*
X86700Y141100D03*
X80136Y150100D03*
X79068Y143000D03*
X77300Y138400D03*
Y134400D03*
X81700Y159800D03*
X80105Y153850D03*
X89000Y156800D03*
X77144Y160456D03*
X81739Y182858D03*
X86600Y175900D03*
X86950Y169550D03*
X87800Y179500D03*
X90500Y177300D03*
X90300Y201100D03*
X76320Y191050D03*
X86500Y193000D03*
X77000Y195600D03*
X86515Y189985D03*
X87700Y196300D03*
X92000Y216600D03*
X86000Y209400D03*
X90200Y209700D03*
X78069Y209900D03*
X100677Y22321D03*
X104868Y27900D03*
X97600Y31700D03*
X105434Y23965D03*
X103268Y37183D03*
X93377Y42090D03*
Y38090D03*
X94468Y66000D03*
X108177Y52743D03*
X104577Y69037D03*
X104300Y82500D03*
X94377Y86190D03*
X107500Y88700D03*
X104177Y86190D03*
X99477Y91190D03*
X94477D03*
X104177D03*
X99477Y96190D03*
X94477D03*
X99577Y86190D03*
X107400Y84700D03*
X108418Y96182D03*
X94477Y100890D03*
X99477D03*
X100518Y143999D03*
X103382Y150462D03*
X96235Y143235D03*
X98600Y154850D03*
X105800Y155820D03*
X98700Y173350D03*
X95200Y178100D03*
X109300Y174000D03*
X98700Y167700D03*
X97000Y184200D03*
X98700Y178200D03*
X100500Y183050D03*
X107200Y199900D03*
X96210Y201180D03*
X100100Y198700D03*
X104031Y198500D03*
X97000Y187600D03*
X103300Y186900D03*
X102000Y216600D03*
X108300Y210200D03*
X103500Y210100D03*
X99487Y210187D03*
X115679Y10340D03*
X121177Y15390D03*
X119877Y30258D03*
X121177Y19321D03*
X123900Y41300D03*
X119500Y38200D03*
X123600Y38300D03*
X119500Y41200D03*
X112588Y48899D03*
X116076Y52857D03*
X126415Y53390D03*
X114831Y95792D03*
X120831Y95818D03*
X125500Y106000D03*
X125600Y109000D03*
X124200Y135800D03*
Y139800D03*
X119250Y151200D03*
X115250D03*
X111250D03*
X122600Y161200D03*
X117800Y160500D03*
X111700Y163100D03*
X114200Y160700D03*
X121000Y169800D03*
X117500Y173300D03*
X124500D03*
X117500Y169800D03*
X124500D03*
X121000Y173300D03*
X113500Y199500D03*
X120631D03*
X117100Y199400D03*
X110300Y198900D03*
X122000Y216600D03*
X112000D03*
X112900Y210100D03*
X121000Y210200D03*
X124500D03*
X117500Y210400D03*
X127177Y19321D03*
X139911Y31624D03*
X133377Y18990D03*
X141779Y45684D03*
X138054Y44929D03*
X131777Y38790D03*
X129327Y50290D03*
X138027Y50643D03*
X126868Y95792D03*
X132468D03*
X138831Y95818D03*
X128900Y106000D03*
Y109100D03*
X133550Y106750D03*
X135200Y102300D03*
X141500Y102600D03*
X141300Y106200D03*
X127831Y118700D03*
X128000Y122000D03*
X128200Y135800D03*
Y139800D03*
X137525Y136400D03*
X140600Y137700D03*
X136000Y139300D03*
X127100Y151400D03*
X133200Y150900D03*
X127200Y161200D03*
X131100Y166000D03*
X134000Y161800D03*
X135100Y200060D03*
X139600Y198700D03*
X131950Y198900D03*
X131000Y216600D03*
X138500Y209600D03*
X141746Y216700D03*
X135165D03*
X147045Y27190D03*
X157158Y18090D03*
X147930Y33000D03*
X159768Y49000D03*
X159700Y52700D03*
X144668Y95792D03*
X152131D03*
X155600Y95700D03*
X158931Y92500D03*
X154532Y85732D03*
X148668Y106300D03*
X144668D03*
X148900Y119100D03*
X152931Y141288D03*
X143700Y135700D03*
X145481Y159950D03*
X145600Y155600D03*
X150200Y155300D03*
X145481Y165600D03*
X154000Y164000D03*
X152738Y167462D03*
X147631Y151931D03*
X153100Y158200D03*
X145000Y171300D03*
X147300Y198300D03*
X149062Y195738D03*
X144200Y188100D03*
X145720Y216700D03*
X149505Y216600D03*
X153305Y216700D03*
X156500Y211400D03*
X159600D03*
X145200Y207068D03*
X163600Y29900D03*
X160968Y36700D03*
X172468D03*
X166968D03*
X163668Y49000D03*
X160668Y63400D03*
X163600Y52700D03*
X168100Y82450D03*
X177130Y81600D03*
X169453Y70947D03*
X173300Y99124D03*
X175531Y93000D03*
X164431D03*
X170031Y93300D03*
X164031Y105506D03*
X168957Y154247D03*
Y160247D03*
Y166153D03*
X167600Y172900D03*
X171768Y195738D03*
X162336D03*
X167397Y211100D03*
X173531Y210750D03*
X183468Y36700D03*
X188968D03*
X177968D03*
X188700Y59300D03*
X183500Y59500D03*
X192484Y71016D03*
X182248Y81052D03*
X179689Y70911D03*
X186531Y93000D03*
X181031D03*
X192731Y93300D03*
X180978Y99222D03*
X189468Y140988D03*
X183968D03*
X193668Y165800D03*
X186668D03*
X190268Y163200D03*
X193668Y160800D03*
X186668D03*
X188600Y151900D03*
X192200Y152100D03*
X184900Y151900D03*
X182831Y173000D03*
X188968Y184400D03*
X180000Y170612D03*
X193713Y197813D03*
X182887D03*
X190900Y189200D03*
X193850Y190750D03*
X177831Y196631D03*
X193713Y215587D03*
X184700Y216800D03*
X180200Y216700D03*
X194468Y36700D03*
X208400Y52000D03*
X207825Y55675D03*
X201370Y51970D03*
X204280Y93162D03*
X198331Y93300D03*
X201800Y140900D03*
X195190Y140988D03*
X196300Y152400D03*
X203100Y173600D03*
X199100D03*
X200190Y185012D03*
X194468Y184832D03*
X196100Y188000D03*
X222000Y76000D03*
X223331Y68331D03*
X219000Y98300D03*
X215789Y106211D03*
X217772Y116800D03*
X223412Y109100D03*
X219912D03*
X226742Y129958D03*
X211869Y138532D03*
X222200Y147900D03*
X211980Y166153D03*
X212000Y153200D03*
X223080Y155890D03*
X211980Y160247D03*
X231811Y115689D03*
G54D11*
X10000Y210000D03*
X27300Y9300D03*
X230000Y47400D03*
X211869Y143100D03*
G54D20*
X36217Y159063D03*
X38186D03*
X34249D03*
X79771Y186519D03*
X81739D03*
X83708D03*
G54D30*
X69968Y168668D03*
G54D21*
X39879Y157370D03*
Y155402D03*
Y153433D03*
X85401Y182858D03*
Y180889D03*
Y184826D03*
G54D12*
X15000Y15000D03*
G54D22*
X38186Y151740D03*
X36217D03*
X34249D03*
X81739Y179196D03*
X79771D03*
X83708D03*
G54D40*
X169661Y204397D03*
Y206366D03*
X168529Y202429D03*
X167397Y206366D03*
Y204397D03*
G54D31*
X90500Y174600D03*
X101800Y178200D03*
X105300D03*
X94000Y174600D03*
G54D13*
X26061Y60535D03*
Y74550D03*
Y175850D03*
Y189865D03*
X40076Y60535D03*
X33068Y67542D03*
X40076Y74550D03*
Y175850D03*
X33068Y182858D03*
X40076Y189865D03*
G54D50*
G01X33068Y182858D02*
X48052D01*
X48151Y182956D01*
X50501D01*
G01D02*
X53477D01*
X53576Y182858D01*
X55926D01*
G01X69968Y168668D02*
X81669D01*
X81739Y168598D01*
G01X73566Y182858D02*
X75812D01*
G01X65038D02*
X69826D01*
G01X59666D02*
X65038D01*
G01X78069Y201268D02*
X75664D01*
G03X71567Y199572I0J-5794D01*
G01X71567Y199571D01*
G03X69896Y195538I4034J-4034D01*
G01Y186528D01*
G01X81739Y172339D02*
Y176930D01*
G01Y197598D02*
Y188339D01*
G01X85826Y205168D02*
X81739D01*
Y205098D01*
G01Y201339D02*
Y205098D01*
G01X89566Y205168D02*
X93376D01*
X93446Y205098D01*
G01X78069Y205009D02*
Y209900D01*
G01X97519Y205135D02*
X95980D01*
X95943Y205098D01*
X93446D01*
G01X109326Y204003D02*
X105516D01*
X105446Y203933D01*
G01X101456Y204003D02*
X105376D01*
X105446Y203933D01*
G01X116946Y204003D02*
X113066D01*
G01X120826D02*
X116946D01*
G01X129285D02*
X124566D01*
G01X133025D02*
X135973D01*
G01X143452Y202499D02*
X143382Y202429D01*
X141072D01*
G01X143452Y202499D02*
X147256D01*
X147326Y202429D01*
G01X154946Y202499D02*
X159006D01*
X159076Y202429D01*
G01X151066D02*
X154876D01*
X154946Y202499D01*
G01X177831Y210036D02*
Y211282D01*
G03X177132Y212967I-2384J0D01*
G01X177132Y212968D01*
G03X175122Y213800I-2010J-2010D01*
G01X166968D01*
G03X164291Y212691I0J-3785D01*
G01X163910Y212310D01*
G03X163500Y211320I990J-990D01*
G01Y208916D01*
G02X162676Y206927I-2813J0D01*
G02X160846Y206169I-1830J1830D01*
G01X159076D01*
G01X162816Y202429D02*
X168529D01*
G01X169661Y206366D02*
X174161D01*
G01X177831Y206295D02*
Y196631D01*
G01X180200Y216700D02*
G02X181571Y213390I-3310J-3310D01*
G01Y206295D01*
G54D23*
X32556Y153433D03*
Y155402D03*
Y157370D03*
X78078Y180889D03*
Y182858D03*
Y184826D03*
G54D14*
X18898Y107847D03*
X22639D03*
Y115753D03*
X18898D03*
Y121300D03*
X22639D03*
X24054Y147552D03*
Y159622D03*
Y155402D03*
Y151402D03*
X38527Y34542D03*
Y38282D03*
X28047Y94630D03*
Y98370D03*
X39268Y89370D03*
Y85630D03*
X33768Y94630D03*
Y98370D03*
X39268Y94630D03*
Y98370D03*
X27268Y130630D03*
X33047D03*
X38768D03*
X27794Y147552D03*
X36147Y146717D03*
X39887D03*
X27268Y134370D03*
X33047D03*
X38768D03*
X27794Y159622D03*
Y155402D03*
Y151402D03*
X39887Y163783D03*
X36147D03*
X50269Y89370D03*
Y85630D03*
X44768Y94630D03*
Y98370D03*
X50269Y94630D03*
Y98370D03*
X51898Y109847D03*
X55639D03*
X51898Y115753D03*
X55639D03*
X44268Y130630D03*
X55639Y121753D03*
X51898D03*
X44268Y134370D03*
X44902Y155472D03*
Y151732D03*
X55926Y182858D03*
X50501Y182956D03*
X53094Y200150D03*
X49354D03*
X50501Y186696D03*
X57154Y212150D03*
X49354Y207800D03*
X53094D03*
X49354Y203850D03*
X53094D03*
Y211650D03*
X49354D03*
X75398Y145850D03*
X69896Y182787D03*
X73566Y182858D03*
X69826D03*
X59666D03*
X65038D03*
X69896Y186528D03*
X65038Y186598D03*
X60894Y212150D03*
X66850Y211794D03*
Y208054D03*
X82930Y150100D03*
X86670D03*
X79139Y145850D03*
X82898D03*
X86639D03*
X91938Y154850D03*
X86639Y153850D03*
X82898D03*
X88050Y164115D03*
Y160374D03*
X90434Y180889D03*
X81739Y168598D03*
Y172339D03*
X90337Y169550D03*
X90434Y192718D03*
Y184718D03*
Y188718D03*
Y196782D03*
X81739Y197598D03*
Y205098D03*
Y208839D03*
X81809Y201268D03*
X78069D03*
X89566Y205168D03*
X85826D03*
X81739Y201339D03*
X78069Y205009D03*
Y201268D03*
X100518Y146792D03*
X95678Y154850D03*
X100518Y150532D03*
X95450Y160374D03*
Y164115D03*
X102230Y160700D03*
X105970D03*
X94174Y180889D03*
X102341Y173350D03*
X106082D03*
X94078Y169550D03*
X106082Y167700D03*
X102341D03*
X94174Y192718D03*
Y184718D03*
Y188718D03*
Y196782D03*
X108550Y192560D03*
Y188819D03*
X93446Y205098D03*
Y208839D03*
X105446Y203933D03*
Y207673D03*
X109326Y204003D03*
X124431Y148470D03*
Y144730D03*
X124050Y153993D03*
Y157734D03*
X111250Y153993D03*
Y157734D03*
X115250Y153993D03*
Y157734D03*
X119250Y153993D03*
Y157734D03*
X114150Y192560D03*
Y188819D03*
X120550Y192560D03*
Y188819D03*
X126050Y192560D03*
Y188819D03*
X124363Y198050D03*
X124566Y204003D03*
X120826D03*
X116946D03*
Y207744D03*
X113066Y204003D03*
X129931Y148470D03*
Y144730D03*
X141831Y148670D03*
Y144930D03*
X136031D03*
Y148670D03*
X129950Y153993D03*
Y157734D03*
X141839Y154450D03*
X138099D03*
X141839Y159950D03*
X138099D03*
Y165600D03*
X141839D03*
X138099Y171300D03*
X141839D03*
X138099Y178600D03*
X141839D03*
X131950Y188819D03*
Y192560D03*
X137750Y190099D03*
Y193839D03*
X128104Y198050D03*
X138099Y184400D03*
X141839D03*
X127195Y210200D03*
X130935D03*
X133025Y204003D03*
X129285D03*
X135165Y213870D03*
Y210130D03*
X141746Y213870D03*
Y210130D03*
X152931Y148670D03*
Y144930D03*
X147631Y148670D03*
Y144930D03*
X149150Y158961D03*
Y162702D03*
X148899Y178600D03*
X152639D03*
X148899Y171300D03*
X152639D03*
X143452Y198758D03*
X154946D03*
X152600Y190050D03*
X148859D03*
X152601Y184400D03*
X148861D03*
X153305Y213870D03*
Y210130D03*
X145720Y213870D03*
Y210130D03*
X149505Y213870D03*
Y210130D03*
X159076Y202429D03*
Y206169D03*
X143452Y202499D03*
X159076Y202429D03*
X154946Y202499D03*
X151066Y202429D03*
X147326D03*
X160317Y163000D03*
X164057D03*
X176339Y160247D03*
X172598D03*
Y154247D03*
X176339D03*
Y166153D03*
X172598D03*
X164057Y174000D03*
X160317D03*
X176339Y172000D03*
X172598D03*
X160317Y168500D03*
X164057D03*
X174161Y206366D03*
X162816Y202429D03*
X183968Y148370D03*
Y144630D03*
X189468D03*
Y148370D03*
X177968Y181370D03*
Y177630D03*
X183468Y181370D03*
Y177630D03*
X188968Y181370D03*
Y177630D03*
X183468Y186630D03*
Y190370D03*
X177831Y206295D03*
Y210036D03*
X177901Y206366D03*
X181571Y206295D03*
X177831D03*
X197630Y55200D03*
X201370D03*
X195190Y148370D03*
Y144630D03*
X200969D03*
Y148370D03*
X208339Y166153D03*
X204598D03*
Y160247D03*
X208339D03*
Y154700D03*
X204598D03*
X200190Y181370D03*
Y177630D03*
X194468Y181370D03*
Y177630D03*
G54D41*
X218400Y21600D03*
Y198400D03*
G54D32*
X81739Y182858D03*
G54D51*
G01X22737Y110663D02*
X21700Y111700D01*
X20200D01*
X18898Y113002D01*
Y115753D01*
G01X22737Y107847D02*
Y110663D01*
G01X24054Y155402D02*
X24124D01*
Y151472D01*
X24054Y151402D01*
G01X20500Y161000D02*
Y156500D01*
X21598Y155402D01*
X24054D01*
G01X38527Y18504D02*
Y13808D01*
G01X36000Y85532D02*
X39170D01*
X39268Y85630D01*
G01X29500Y139500D02*
X30700Y138300D01*
X31547D01*
X33047Y136800D01*
Y134370D01*
G01X40000Y139500D02*
X42850D01*
X44268Y138082D01*
Y134370D01*
G01X27724Y162500D02*
Y159692D01*
X27794Y159622D01*
G01D02*
Y159552D01*
X28875Y158471D01*
X30529D01*
G01X49527Y18499D02*
Y13803D01*
G01X50269Y85630D02*
Y82100D01*
G01X55639Y115753D02*
X59300D01*
G01X49354Y207800D02*
X46500D01*
G01X57154Y209946D02*
Y212150D01*
G01D02*
Y215154D01*
X57224Y215224D01*
G01X53094Y207800D02*
Y211650D01*
G01X75398Y145850D02*
X72605D01*
G01X66850Y208054D02*
X68930D01*
X70500Y209624D01*
Y213600D01*
G01X66850Y208054D02*
X66591Y207794D01*
X64294D01*
G01X75468Y145850D02*
X75398D01*
G01X82898Y153850D02*
X80105D01*
G01X82930Y150100D02*
X80136D01*
G01X89000Y156800D02*
X89988D01*
X91938Y154850D01*
G01D02*
Y152988D01*
X91525Y152575D01*
G01X90500Y174600D02*
Y177300D01*
G01X90434Y180889D02*
X89189D01*
X87800Y179500D01*
G01X95608Y154850D02*
X95678D01*
G01D02*
X98600D01*
G01X100589Y150462D02*
X100518Y150532D01*
G01X100589Y150462D02*
X100518D01*
G01X100589D02*
X103382D01*
G01X98700Y167700D02*
X97101Y166101D01*
Y165765D01*
X95450Y164115D01*
G01X102341Y167700D02*
X98700D01*
G01X109300Y174000D02*
X108650Y173350D01*
X106082D01*
G01X94174Y184718D02*
X96482D01*
X97000Y184200D01*
G01X94174Y188718D02*
X95882D01*
X97000Y187600D01*
G01X103500Y210100D02*
X105446Y208154D01*
Y207673D01*
G01X111250Y153993D02*
Y151200D01*
G01X115250Y153993D02*
Y151200D01*
G01X119250Y153993D02*
Y151200D01*
G01X122600Y161200D02*
X124050Y159750D01*
Y157734D01*
G01X120100Y184200D02*
X118600Y185700D01*
X114900D01*
X114150Y186450D01*
Y188819D01*
G01X110100Y174400D02*
X109700Y174000D01*
X109300D01*
G01X133200Y150900D02*
X135332Y148768D01*
X135932D01*
X136031Y148670D01*
G01X141839Y165600D02*
X145481D01*
G01X141839Y171300D02*
X145000D01*
G01X141839Y178600D02*
Y184400D01*
G01X131950Y192560D02*
Y198900D01*
G01X137750Y193839D02*
Y196050D01*
X137000Y196800D01*
X134050D01*
X131950Y198900D01*
G01X141839Y184400D02*
Y185739D01*
X144200Y188100D01*
G01X141746Y213870D02*
Y216700D01*
G01X135165Y213870D02*
Y216700D01*
G01X145720Y213870D02*
Y216700D01*
G01X149505Y213870D02*
Y216600D01*
G01X153305Y213870D02*
Y216700D01*
G01X172598Y166153D02*
X168957D01*
G01X172598Y160247D02*
X168957D01*
G01X162114Y189750D02*
Y195516D01*
X162336Y195738D01*
G01X183968Y144630D02*
Y140988D01*
G01X190900Y189200D02*
X188050D01*
X186880Y190370D01*
X183468D01*
G01X201370Y55200D02*
Y51970D01*
G01X195190Y144630D02*
Y140988D01*
G01X212000Y153200D02*
X210500Y154700D01*
X208339D01*
G01X211980Y166153D02*
X208339D01*
G01Y160247D02*
X211980D01*
G01X211869Y143100D02*
Y138532D01*
G54D33*
X99487Y204003D03*
X101456D03*
X97519Y205135D03*
X101456Y206267D03*
X99487D03*
G54D24*
X36217Y155402D03*
G54D15*
X38527Y24410D03*
Y18504D03*
X49527Y24404D03*
Y18499D03*
G54D42*
X208200Y104100D03*
X200700D03*
X204450Y112800D03*
G54D52*
G01X22210Y60535D02*
X26061D01*
G01X22210Y74550D02*
X26061D01*
G01X22210Y175850D02*
X26061D01*
G01X22210Y189865D02*
X26061D01*
G01X40076Y56684D02*
Y60535D01*
G01D02*
Y64385D01*
G01X36226Y60535D02*
X40076D01*
G01D02*
X43927D01*
G01X26061Y56684D02*
Y60535D01*
G01D02*
Y64385D01*
G01Y60535D02*
X29911D01*
G01X40076Y70200D02*
Y74550D01*
G01D02*
Y78901D01*
G01X35726Y74550D02*
X40076D01*
G01D02*
X44427D01*
G01X26061Y70700D02*
Y74550D01*
G01D02*
Y78401D01*
G01Y74550D02*
X29911D01*
G01X40076Y171999D02*
Y175850D01*
G01D02*
Y179700D01*
G01X36226Y175850D02*
X40076D01*
G01D02*
X43927D01*
G01X26061Y171999D02*
Y175850D01*
G01D02*
Y179700D01*
G01Y175850D02*
X29911D01*
G01X40076Y186015D02*
Y189865D01*
G01D02*
Y193716D01*
G01X36226Y189865D02*
X40076D01*
G01D02*
X43927D01*
G01X26061Y186015D02*
Y189865D01*
G01D02*
Y193716D01*
G01Y189865D02*
X29911D01*
G01X64063Y162861D02*
X54824D01*
G01X64063Y174476D02*
X54824D01*
G54D43*
G01X133550Y107510D02*
Y108250D01*
X134376Y109076D01*
Y111598D01*
G01Y129984D02*
Y131500D01*
G01X137525D02*
Y129984D01*
G01X136518Y206925D02*
X137865Y205578D01*
G01X200700Y104100D02*
Y103350D01*
X203460Y100590D01*
Y97590D01*
X204780Y96270D01*
X212670D01*
X222216Y105816D01*
Y107904D01*
X223412Y109100D01*
G01X219912D02*
X221216Y107796D01*
Y106230D01*
X212256Y97270D01*
X205330D01*
X204570Y98030D01*
Y99670D01*
X208200Y103300D01*
Y104100D01*
G01D02*
Y111975D01*
X207375Y112800D01*
X204450D01*
G54D16*
X33047Y106009D03*
X35016D03*
X36984D03*
X38953D03*
X40921D03*
X42890D03*
X191253Y156409D03*
X189284D03*
X187316D03*
X185347D03*
X195190D03*
X193221D03*
G54D25*
X49790Y32501D03*
Y40375D03*
G54D34*
X116200Y165500D03*
X117800D03*
X119400D03*
X121000D03*
X122600D03*
X124200D03*
X125800D03*
Y181100D03*
X124200D03*
X122600D03*
X121000D03*
X119400D03*
X117800D03*
X116200D03*
G54D53*
G01X-127194Y-203500D02*
Y-193500D01*
X-122444D01*
G01X-124194Y-198333D02*
X-127194D01*
G01X-116319Y-193500D02*
X-113320D01*
G01X-114819D02*
Y-203500D01*
G01X-116319D02*
X-113320D01*
G01X-107319Y-193500D02*
Y-203500D01*
X-102319D01*
G01X-98069D02*
Y-193500D01*
X-94819Y-201833D01*
X-91569Y-193500D01*
Y-203500D01*
G01X-77319Y-193500D02*
Y-203500D01*
X-72319D01*
G01X-67944D02*
X-64819Y-193500D01*
X-61694Y-203500D01*
G01X-62819Y-200000D02*
X-66819D01*
G01X-54819Y-203500D02*
Y-199000D01*
X-57319Y-193500D01*
G01X-52319D02*
X-54819Y-199000D01*
G01X-42319Y-203500D02*
X-47319D01*
Y-193500D01*
X-42319D01*
G01X-44319Y-198333D02*
X-47319D01*
G01X-37319Y-203500D02*
Y-193500D01*
X-34194D01*
X-33194Y-194000D01*
X-32569Y-194667D01*
X-32319Y-196000D01*
X-32569Y-197333D01*
X-33319Y-198167D01*
X-34194Y-198667D01*
X-37319D01*
G01X-34194D02*
X-32319Y-203500D01*
G01X-24819Y-203833D02*
X-25069Y-203667D01*
Y-203333D01*
X-24819Y-203167D01*
X-24569Y-203333D01*
Y-203667D01*
X-24819Y-203833D01*
G01Y-199334D02*
X-25069Y-199167D01*
Y-198833D01*
X-24819Y-198667D01*
X-24569Y-198833D01*
Y-199167D01*
X-24819Y-199334D01*
G01X-127569Y-165000D02*
Y-155000D01*
X-125069D01*
X-124069Y-155500D01*
X-123319Y-156167D01*
X-122694Y-157166D01*
X-122194Y-158334D01*
X-122069Y-160000D01*
X-122194Y-161667D01*
X-122694Y-162834D01*
X-123319Y-163834D01*
X-124069Y-164500D01*
X-125069Y-165000D01*
X-127569D01*
G01X-112319D02*
X-117319D01*
Y-155000D01*
X-112319D01*
G01X-114319Y-159833D02*
X-117319D01*
G01X-107444Y-163667D02*
X-106444Y-164500D01*
X-105319Y-165000D01*
X-104319D01*
X-103319Y-164500D01*
X-102569Y-163667D01*
X-102194Y-162500D01*
X-102444Y-161334D01*
X-103069Y-160333D01*
X-104194Y-159667D01*
X-105694Y-159333D01*
X-106569Y-158667D01*
X-106944Y-157500D01*
X-106694Y-156333D01*
X-106069Y-155500D01*
X-105194Y-155000D01*
X-104319D01*
X-103444Y-155333D01*
X-102694Y-156167D01*
G01X-96319Y-155000D02*
X-93320D01*
G01X-94819D02*
Y-165000D01*
G01X-96319D02*
X-93320D01*
G01X-84069Y-160000D02*
X-81569D01*
Y-163000D01*
X-82319Y-164000D01*
X-83194Y-164667D01*
X-84444Y-165000D01*
X-85694Y-164667D01*
X-86569Y-164000D01*
X-87319Y-163000D01*
X-87820Y-161833D01*
X-88069Y-160500D01*
Y-159333D01*
X-87820Y-158334D01*
X-87319Y-157166D01*
X-86569Y-156167D01*
X-85819Y-155500D01*
X-84819Y-155000D01*
X-83944D01*
X-82944Y-155333D01*
X-82194Y-156000D01*
G01X-77694Y-165000D02*
Y-155000D01*
X-71944Y-165000D01*
Y-155000D01*
G01X-62319Y-165000D02*
X-67319D01*
Y-155000D01*
X-62319D01*
G01X-64319Y-159833D02*
X-67319D01*
G01X-57569Y-165000D02*
Y-155000D01*
X-55069D01*
X-54069Y-155500D01*
X-53319Y-156167D01*
X-52694Y-157166D01*
X-52194Y-158334D01*
X-52069Y-160000D01*
X-52194Y-161667D01*
X-52694Y-162834D01*
X-53319Y-163834D01*
X-54069Y-164500D01*
X-55069Y-165000D01*
X-57569D01*
G01X-37944D02*
X-34819Y-155000D01*
X-31694Y-165000D01*
G01X-32819Y-161500D02*
X-36819D01*
G01X-24819Y-155000D02*
Y-165000D01*
G01X-27694Y-155000D02*
X-21944D01*
G01X-14819Y-165333D02*
X-15069Y-165167D01*
Y-164833D01*
X-14819Y-164667D01*
X-14569Y-164833D01*
Y-165167D01*
X-14819Y-165333D01*
G01Y-160834D02*
X-15069Y-160667D01*
Y-160333D01*
X-14819Y-160167D01*
X-14569Y-160333D01*
Y-160667D01*
X-14819Y-160834D01*
G01X-7944Y-165000D02*
X-4819Y-155000D01*
X-1694Y-165000D01*
G01X-2819Y-161500D02*
X-6819D01*
G01X2681Y-165000D02*
Y-155000D01*
X5806D01*
X6806Y-155500D01*
X7431Y-156167D01*
X7681Y-157500D01*
X7431Y-158833D01*
X6681Y-159667D01*
X5806Y-160167D01*
X2681D01*
G01X5806D02*
X7681Y-165000D01*
G01X13681Y-155000D02*
X16680D01*
G01X15181D02*
Y-165000D01*
G01X13681D02*
X16680D01*
G01X27931Y-155834D02*
X27181Y-155333D01*
X26306Y-155000D01*
X25306D01*
X24181Y-155500D01*
X23306Y-156333D01*
X22681Y-157333D01*
X22180Y-159000D01*
X22056Y-160500D01*
X22306Y-162000D01*
X22681Y-163000D01*
X23431Y-164000D01*
X24306Y-164667D01*
X25181Y-165000D01*
X26056D01*
X26931Y-164667D01*
X27681Y-164167D01*
X28306Y-163500D01*
G01X37681Y-165000D02*
X32681D01*
Y-155000D01*
X37681D01*
G01X35681Y-159833D02*
X32681D01*
G01X42306Y-165000D02*
Y-155000D01*
X48056Y-165000D01*
Y-155000D01*
G01X55181D02*
Y-165000D01*
G01X52306Y-155000D02*
X58056D01*
G01X-127569Y-145000D02*
Y-135000D01*
X-125069D01*
X-124069Y-135500D01*
X-123319Y-136167D01*
X-122694Y-137166D01*
X-122194Y-138334D01*
X-122069Y-140000D01*
X-122194Y-141667D01*
X-122694Y-142834D01*
X-123319Y-143834D01*
X-124069Y-144500D01*
X-125069Y-145000D01*
X-127569D01*
G01X-117944D02*
X-114819Y-135000D01*
X-111694Y-145000D01*
G01X-112819Y-141500D02*
X-116819D01*
G01X-104819Y-135000D02*
Y-145000D01*
G01X-107694Y-135000D02*
X-101944D01*
G01X-92319Y-145000D02*
X-97319D01*
Y-135000D01*
X-92319D01*
G01X-94319Y-139833D02*
X-97319D01*
G01X-84819Y-145333D02*
X-85069Y-145167D01*
Y-144833D01*
X-84819Y-144667D01*
X-84569Y-144833D01*
Y-145167D01*
X-84819Y-145333D01*
G01Y-140834D02*
X-85069Y-140667D01*
Y-140333D01*
X-84819Y-140167D01*
X-84569Y-140333D01*
Y-140667D01*
X-84819Y-140834D01*
G01X-74819Y-135000D02*
X-75819Y-135333D01*
X-76569Y-136167D01*
X-77069Y-137166D01*
X-77444Y-138500D01*
X-77569Y-140000D01*
X-77444Y-141500D01*
X-77069Y-142834D01*
X-76569Y-143834D01*
X-75819Y-144667D01*
X-74819Y-145000D01*
X-73819Y-144667D01*
X-73069Y-143834D01*
X-72569Y-142834D01*
X-72194Y-141500D01*
X-72069Y-140000D01*
X-72194Y-138500D01*
X-72569Y-137166D01*
X-73069Y-136167D01*
X-73819Y-135333D01*
X-74819Y-135000D01*
G01X-64819Y-145000D02*
Y-135000D01*
X-66319Y-137000D01*
G01Y-145000D02*
X-63320D01*
G01X-56444Y-141667D02*
X-53194D01*
G01X-44819Y-135000D02*
X-45819Y-135333D01*
X-46569Y-136167D01*
X-47069Y-137166D01*
X-47444Y-138500D01*
X-47569Y-140000D01*
X-47444Y-141500D01*
X-47069Y-142834D01*
X-46569Y-143834D01*
X-45819Y-144667D01*
X-44819Y-145000D01*
X-43819Y-144667D01*
X-43069Y-143834D01*
X-42569Y-142834D01*
X-42194Y-141500D01*
X-42069Y-140000D01*
X-42194Y-138500D01*
X-42569Y-137166D01*
X-43069Y-136167D01*
X-43819Y-135333D01*
X-44819Y-135000D01*
G01X-37569Y-143000D02*
X-36819Y-144167D01*
X-35819Y-144833D01*
X-34694Y-145000D01*
X-33694Y-144833D01*
X-32694Y-144000D01*
X-32069Y-143000D01*
X-31944Y-142000D01*
X-32194Y-140834D01*
X-33069Y-140000D01*
X-33944Y-139667D01*
X-35069D01*
G01X-33944D02*
X-33194Y-139167D01*
X-32569Y-138334D01*
X-32319Y-137333D01*
X-32569Y-136333D01*
X-33194Y-135500D01*
X-34319Y-135000D01*
X-35444Y-135167D01*
X-36569Y-135834D01*
G01X-26444Y-141667D02*
X-23194D01*
G01X-17194Y-136667D02*
X-16444Y-135667D01*
X-15569Y-135167D01*
X-14569Y-135000D01*
X-13319Y-135333D01*
X-12444Y-136167D01*
X-12194Y-137166D01*
X-12319Y-138167D01*
X-12819Y-139000D01*
X-15319Y-140667D01*
X-16444Y-141833D01*
X-17194Y-143500D01*
X-17444Y-145000D01*
X-12194D01*
G01X-4819Y-135000D02*
X-5819Y-135333D01*
X-6569Y-136167D01*
X-7069Y-137166D01*
X-7444Y-138500D01*
X-7569Y-140000D01*
X-7444Y-141500D01*
X-7069Y-142834D01*
X-6569Y-143834D01*
X-5819Y-144667D01*
X-4819Y-145000D01*
X-3819Y-144667D01*
X-3069Y-143834D01*
X-2569Y-142834D01*
X-2194Y-141500D01*
X-2069Y-140000D01*
X-2194Y-138500D01*
X-2569Y-137166D01*
X-3069Y-136167D01*
X-3819Y-135333D01*
X-4819Y-135000D01*
G01X5181Y-145000D02*
Y-135000D01*
X3681Y-137000D01*
G01Y-145000D02*
X6680D01*
G01X14931D02*
X15181Y-142834D01*
X15556Y-141000D01*
X16056Y-139333D01*
X16681Y-137500D01*
X17681Y-135000D01*
X12681D01*
G01X-121200Y-176034D02*
X-121950Y-175533D01*
X-122825Y-175200D01*
X-123825D01*
X-124950Y-175700D01*
X-125825Y-176533D01*
X-126450Y-177533D01*
X-126950Y-179200D01*
X-127075Y-180700D01*
X-126825Y-182200D01*
X-126450Y-183200D01*
X-125700Y-184200D01*
X-124825Y-184867D01*
X-123950Y-185200D01*
X-123075D01*
X-122200Y-184867D01*
X-121450Y-184367D01*
X-120825Y-183700D01*
G01X-117075Y-185200D02*
X-113950Y-175200D01*
X-110825Y-185200D01*
G01X-111950Y-181700D02*
X-115950D01*
G01X-106450Y-185200D02*
Y-175200D01*
X-103325D01*
X-102325Y-175700D01*
X-101700Y-176367D01*
X-101450Y-177700D01*
X-101700Y-179033D01*
X-102450Y-179867D01*
X-103325Y-180367D01*
X-106450D01*
G01X-103325D02*
X-101450Y-185200D01*
G01X-96700D02*
Y-175200D01*
X-94200D01*
X-93200Y-175700D01*
X-92450Y-176367D01*
X-91825Y-177366D01*
X-91325Y-178534D01*
X-91200Y-180200D01*
X-91325Y-181867D01*
X-91825Y-183034D01*
X-92450Y-184034D01*
X-93200Y-184700D01*
X-94200Y-185200D01*
X-96700D01*
G01X-76450D02*
Y-175200D01*
X-73325D01*
X-72325Y-175700D01*
X-71700Y-176367D01*
X-71450Y-177700D01*
X-71700Y-179033D01*
X-72450Y-179867D01*
X-73325Y-180367D01*
X-76450D01*
G01X-73325D02*
X-71450Y-185200D01*
G01X-61450D02*
X-66450D01*
Y-175200D01*
X-61450D01*
G01X-63450Y-180033D02*
X-66450D01*
G01X-56325Y-185200D02*
Y-175200D01*
X-51575D01*
G01X-53325Y-180033D02*
X-56325D01*
G01X-43950Y-185533D02*
X-44200Y-185367D01*
Y-185033D01*
X-43950Y-184867D01*
X-43700Y-185033D01*
Y-185367D01*
X-43950Y-185533D01*
G01Y-181034D02*
X-44200Y-180867D01*
Y-180533D01*
X-43950Y-180367D01*
X-43700Y-180533D01*
Y-180867D01*
X-43950Y-181034D01*
G01X-33950Y-185200D02*
X-34950Y-185033D01*
X-35825Y-184367D01*
X-36575Y-183367D01*
X-37075Y-182200D01*
X-37325Y-180867D01*
Y-179533D01*
X-37075Y-178200D01*
X-36575Y-177033D01*
X-35825Y-176034D01*
X-34950Y-175367D01*
X-33950Y-175200D01*
X-32950Y-175367D01*
X-32075Y-176034D01*
X-31325Y-177033D01*
X-30825Y-178200D01*
X-30575Y-179533D01*
Y-180867D01*
X-30825Y-182200D01*
X-31325Y-183367D01*
X-32075Y-184367D01*
X-32950Y-185033D01*
X-33950Y-185200D01*
G01X-26450D02*
Y-175200D01*
X-23450D01*
X-22450Y-175700D01*
X-21700Y-176867D01*
X-21450Y-178200D01*
X-21700Y-179533D01*
X-22325Y-180533D01*
X-23450Y-181034D01*
X-26450D01*
G01X-11450Y-185200D02*
X-16450D01*
Y-175200D01*
X-11450D01*
G01X-13450Y-180033D02*
X-16450D01*
G01X-6825Y-185200D02*
Y-175200D01*
X-1075Y-185200D01*
Y-175200D01*
G01X8800Y-176034D02*
X8050Y-175533D01*
X7175Y-175200D01*
X6175D01*
X5050Y-175700D01*
X4175Y-176533D01*
X3550Y-177533D01*
X3050Y-179200D01*
X2925Y-180700D01*
X3175Y-182200D01*
X3550Y-183200D01*
X4300Y-184200D01*
X5175Y-184867D01*
X6050Y-185200D01*
X6925D01*
X7800Y-184867D01*
X8550Y-184367D01*
X9175Y-183700D01*
G01X18550Y-185200D02*
X13550D01*
Y-175200D01*
X18550D01*
G01X16550Y-180033D02*
X13550D01*
G01X23550Y-175200D02*
Y-185200D01*
X28550D01*
G01X33550Y-175200D02*
Y-185200D01*
X38550D01*
G01X43300Y-175200D02*
Y-182367D01*
X43800Y-183867D01*
X44800Y-184867D01*
X46050Y-185200D01*
X47300Y-184867D01*
X48300Y-183867D01*
X48800Y-182367D01*
Y-175200D01*
G01X53550D02*
Y-185200D01*
X58550D01*
G01X62925D02*
X66050Y-175200D01*
X69175Y-185200D01*
G01X68050Y-181700D02*
X64050D01*
G01X73550Y-185200D02*
Y-175200D01*
X76675D01*
X77675Y-175700D01*
X78300Y-176367D01*
X78550Y-177700D01*
X78300Y-179033D01*
X77550Y-179867D01*
X76675Y-180367D01*
X73550D01*
G01X76675D02*
X78550Y-185200D01*
G01X96050D02*
Y-175200D01*
G01X108800Y-176034D02*
X108050Y-175533D01*
X107175Y-175200D01*
X106175D01*
X105050Y-175700D01*
X104175Y-176533D01*
X103550Y-177533D01*
X103050Y-179200D01*
X102925Y-180700D01*
X103175Y-182200D01*
X103550Y-183200D01*
X104300Y-184200D01*
X105175Y-184867D01*
X106050Y-185200D01*
X106925D01*
X107800Y-184867D01*
X108550Y-184367D01*
X109175Y-183700D01*
G01X116050Y-185200D02*
X115050Y-185033D01*
X114175Y-184367D01*
X113425Y-183367D01*
X112925Y-182200D01*
X112675Y-180867D01*
Y-179533D01*
X112925Y-178200D01*
X113425Y-177033D01*
X114175Y-176034D01*
X115050Y-175367D01*
X116050Y-175200D01*
X117050Y-175367D01*
X117925Y-176034D01*
X118675Y-177033D01*
X119175Y-178200D01*
X119425Y-179533D01*
Y-180867D01*
X119175Y-182200D01*
X118675Y-183367D01*
X117925Y-184367D01*
X117050Y-185033D01*
X116050Y-185200D01*
G01X123175D02*
Y-175200D01*
X128925Y-185200D01*
Y-175200D01*
G01X133175Y-185200D02*
Y-175200D01*
X138925Y-185200D01*
Y-175200D01*
G01X148550Y-185200D02*
X143550D01*
Y-175200D01*
X148550D01*
G01X146550Y-180033D02*
X143550D01*
G01X158800Y-176034D02*
X158050Y-175533D01*
X157175Y-175200D01*
X156175D01*
X155050Y-175700D01*
X154175Y-176533D01*
X153550Y-177533D01*
X153050Y-179200D01*
X152925Y-180700D01*
X153175Y-182200D01*
X153550Y-183200D01*
X154300Y-184200D01*
X155175Y-184867D01*
X156050Y-185200D01*
X156925D01*
X157800Y-184867D01*
X158550Y-184367D01*
X159175Y-183700D01*
G01X166050Y-175200D02*
Y-185200D01*
G01X163175Y-175200D02*
X168925D01*
G01X174425Y-181867D02*
X177675D01*
G01X186050Y-185200D02*
Y-175200D01*
X184550Y-177200D01*
G01Y-185200D02*
X187550D01*
G01X206050D02*
Y-175200D01*
G01X213425Y-183867D02*
X214425Y-184700D01*
X215550Y-185200D01*
X216550D01*
X217550Y-184700D01*
X218300Y-183867D01*
X218675Y-182700D01*
X218425Y-181534D01*
X217800Y-180533D01*
X216675Y-179867D01*
X215175Y-179533D01*
X214300Y-178867D01*
X213925Y-177700D01*
X214175Y-176533D01*
X214800Y-175700D01*
X215675Y-175200D01*
X216550D01*
X217425Y-175533D01*
X218175Y-176367D01*
G01X226050Y-185200D02*
Y-180700D01*
X223550Y-175200D01*
G01X228550D02*
X226050Y-180700D01*
G01X233175Y-185200D02*
Y-175200D01*
X238925Y-185200D01*
Y-175200D01*
G01X248800Y-176034D02*
X248050Y-175533D01*
X247175Y-175200D01*
X246175D01*
X245050Y-175700D01*
X244175Y-176533D01*
X243550Y-177533D01*
X243050Y-179200D01*
X242925Y-180700D01*
X243175Y-182200D01*
X243550Y-183200D01*
X244300Y-184200D01*
X245175Y-184867D01*
X246050Y-185200D01*
X246925D01*
X247800Y-184867D01*
X248550Y-184367D01*
X249175Y-183700D01*
G01X267050Y-179867D02*
X267550Y-179367D01*
X267925Y-178534D01*
X268175Y-177366D01*
X267925Y-176367D01*
X267425Y-175700D01*
X266550Y-175200D01*
X263175D01*
Y-185200D01*
X267300D01*
X268175Y-184534D01*
X268675Y-183533D01*
X268925Y-182367D01*
X268675Y-181200D01*
X267925Y-180200D01*
X267050Y-179867D01*
X263175D01*
G01X276050Y-185200D02*
X275050Y-185033D01*
X274175Y-184367D01*
X273425Y-183367D01*
X272925Y-182200D01*
X272675Y-180867D01*
Y-179533D01*
X272925Y-178200D01*
X273425Y-177033D01*
X274175Y-176034D01*
X275050Y-175367D01*
X276050Y-175200D01*
X277050Y-175367D01*
X277925Y-176034D01*
X278675Y-177033D01*
X279175Y-178200D01*
X279425Y-179533D01*
Y-180867D01*
X279175Y-182200D01*
X278675Y-183367D01*
X277925Y-184367D01*
X277050Y-185033D01*
X276050Y-185200D01*
G01X282925D02*
X286050Y-175200D01*
X289175Y-185200D01*
G01X288050Y-181700D02*
X284050D01*
G01X293550Y-185200D02*
Y-175200D01*
X296675D01*
X297675Y-175700D01*
X298300Y-176367D01*
X298550Y-177700D01*
X298300Y-179033D01*
X297550Y-179867D01*
X296675Y-180367D01*
X293550D01*
G01X296675D02*
X298550Y-185200D01*
G01X303300D02*
Y-175200D01*
X305800D01*
X306800Y-175700D01*
X307550Y-176367D01*
X308175Y-177366D01*
X308675Y-178534D01*
X308800Y-180200D01*
X308675Y-181867D01*
X308175Y-183034D01*
X307550Y-184034D01*
X306800Y-184700D01*
X305800Y-185200D01*
X303300D01*
G01X-6444Y-203167D02*
X-5444Y-204000D01*
X-4319Y-204500D01*
X-3319D01*
X-2319Y-204000D01*
X-1569Y-203167D01*
X-1194Y-202000D01*
X-1444Y-200834D01*
X-2069Y-199833D01*
X-3194Y-199167D01*
X-4694Y-198833D01*
X-5569Y-198167D01*
X-5944Y-197000D01*
X-5694Y-195833D01*
X-5069Y-195000D01*
X-4194Y-194500D01*
X-3319D01*
X-2444Y-194833D01*
X-1694Y-195667D01*
G01X8681Y-204500D02*
X3681D01*
Y-194500D01*
X8681D01*
G01X6681Y-199333D02*
X3681D01*
G01X18931Y-195334D02*
X18181Y-194833D01*
X17306Y-194500D01*
X16306D01*
X15181Y-195000D01*
X14306Y-195833D01*
X13681Y-196833D01*
X13180Y-198500D01*
X13056Y-200000D01*
X13306Y-201500D01*
X13681Y-202500D01*
X14431Y-203500D01*
X15306Y-204167D01*
X16181Y-204500D01*
X17056D01*
X17931Y-204167D01*
X18681Y-203667D01*
X19306Y-203000D01*
G01X26181Y-204500D02*
X25181Y-204333D01*
X24306Y-203667D01*
X23556Y-202667D01*
X23056Y-201500D01*
X22806Y-200167D01*
Y-198833D01*
X23056Y-197500D01*
X23556Y-196333D01*
X24306Y-195334D01*
X25181Y-194667D01*
X26181Y-194500D01*
X27181Y-194667D01*
X28056Y-195334D01*
X28806Y-196333D01*
X29306Y-197500D01*
X29556Y-198833D01*
Y-200167D01*
X29306Y-201500D01*
X28806Y-202667D01*
X28056Y-203667D01*
X27181Y-204333D01*
X26181Y-204500D01*
G01X33306D02*
Y-194500D01*
X39056Y-204500D01*
Y-194500D01*
G01X43431Y-204500D02*
Y-194500D01*
X45931D01*
X46931Y-195000D01*
X47681Y-195667D01*
X48306Y-196666D01*
X48806Y-197834D01*
X48931Y-199500D01*
X48806Y-201167D01*
X48306Y-202334D01*
X47681Y-203334D01*
X46931Y-204000D01*
X45931Y-204500D01*
X43431D01*
G01X53056D02*
X56181Y-194500D01*
X59306Y-204500D01*
G01X58181Y-201000D02*
X54181D01*
G01X63681Y-204500D02*
Y-194500D01*
X66806D01*
X67806Y-195000D01*
X68431Y-195667D01*
X68681Y-197000D01*
X68431Y-198333D01*
X67681Y-199167D01*
X66806Y-199667D01*
X63681D01*
G01X66806D02*
X68681Y-204500D01*
G01X76181D02*
Y-200000D01*
X73681Y-194500D01*
G01X78681D02*
X76181Y-200000D01*
G01X93556Y-203167D02*
X94556Y-204000D01*
X95681Y-204500D01*
X96681D01*
X97681Y-204000D01*
X98431Y-203167D01*
X98806Y-202000D01*
X98556Y-200834D01*
X97931Y-199833D01*
X96806Y-199167D01*
X95306Y-198833D01*
X94431Y-198167D01*
X94056Y-197000D01*
X94306Y-195833D01*
X94931Y-195000D01*
X95806Y-194500D01*
X96681D01*
X97556Y-194833D01*
X98306Y-195667D01*
G01X104681Y-194500D02*
X107680D01*
G01X106181D02*
Y-204500D01*
G01X104681D02*
X107680D01*
G01X113431D02*
Y-194500D01*
X115931D01*
X116931Y-195000D01*
X117681Y-195667D01*
X118306Y-196666D01*
X118806Y-197834D01*
X118931Y-199500D01*
X118806Y-201167D01*
X118306Y-202334D01*
X117681Y-203334D01*
X116931Y-204000D01*
X115931Y-204500D01*
X113431D01*
G01X128681D02*
X123681D01*
Y-194500D01*
X128681D01*
G01X126681Y-199333D02*
X123681D01*
G01X4000Y220000D02*
X0Y216000D01*
Y4000D01*
X4000Y0D01*
X236000D01*
X240000Y4000D01*
Y216000D01*
X236000Y220000D01*
X4000D01*
G01X15693Y-127100D02*
Y-117100D01*
X20444D01*
G01X18694Y-121933D02*
X15693D01*
G01X24943Y-127100D02*
X28068Y-117100D01*
X31194Y-127100D01*
G01X30068Y-123600D02*
X26068D01*
G01X40818Y-117934D02*
X40068Y-117433D01*
X39194Y-117100D01*
X38194D01*
X37068Y-117600D01*
X36194Y-118433D01*
X35568Y-119433D01*
X35068Y-121100D01*
X34943Y-122600D01*
X35194Y-124100D01*
X35568Y-125100D01*
X36318Y-126100D01*
X37194Y-126767D01*
X38068Y-127100D01*
X38943D01*
X39818Y-126767D01*
X40568Y-126267D01*
X41194Y-125600D01*
G01X50569Y-127100D02*
X45568D01*
Y-117100D01*
X50569D01*
G01X48568Y-121933D02*
X45568D01*
G01X59068Y-121767D02*
X59568Y-121267D01*
X59943Y-120434D01*
X60194Y-119267D01*
X59943Y-118267D01*
X59443Y-117600D01*
X58568Y-117100D01*
X55193D01*
Y-127100D01*
X59319D01*
X60194Y-126434D01*
X60694Y-125433D01*
X60943Y-124267D01*
X60694Y-123100D01*
X59943Y-122100D01*
X59068Y-121767D01*
X55193D01*
G01X68068Y-127100D02*
X67068Y-126933D01*
X66194Y-126267D01*
X65444Y-125267D01*
X64943Y-124100D01*
X64693Y-122767D01*
Y-121433D01*
X64943Y-120100D01*
X65444Y-118933D01*
X66194Y-117934D01*
X67068Y-117267D01*
X68068Y-117100D01*
X69068Y-117267D01*
X69943Y-117934D01*
X70694Y-118933D01*
X71194Y-120100D01*
X71444Y-121433D01*
Y-122767D01*
X71194Y-124100D01*
X70694Y-125267D01*
X69943Y-126267D01*
X69068Y-126933D01*
X68068Y-127100D01*
G01X78068D02*
X77068Y-126933D01*
X76194Y-126267D01*
X75444Y-125267D01*
X74943Y-124100D01*
X74693Y-122767D01*
Y-121433D01*
X74943Y-120100D01*
X75444Y-118933D01*
X76194Y-117934D01*
X77068Y-117267D01*
X78068Y-117100D01*
X79068Y-117267D01*
X79943Y-117934D01*
X80694Y-118933D01*
X81194Y-120100D01*
X81444Y-121433D01*
Y-122767D01*
X81194Y-124100D01*
X80694Y-125267D01*
X79943Y-126267D01*
X79068Y-126933D01*
X78068Y-127100D01*
G01X85318D02*
Y-117100D01*
G01X90068D02*
X85318Y-123267D01*
G01X90818Y-127100D02*
X87444Y-120434D01*
G01X67681Y-143000D02*
X68306Y-144000D01*
X69056Y-144667D01*
X69931Y-145000D01*
X70931Y-144667D01*
X71681Y-144000D01*
X72431Y-143000D01*
X72681Y-141667D01*
Y-135000D01*
G01X80181Y-145000D02*
X79181Y-144833D01*
X78306Y-144167D01*
X77556Y-143167D01*
X77056Y-142000D01*
X76806Y-140667D01*
Y-139333D01*
X77056Y-138000D01*
X77556Y-136833D01*
X78306Y-135834D01*
X79181Y-135167D01*
X80181Y-135000D01*
X81181Y-135167D01*
X82056Y-135834D01*
X82806Y-136833D01*
X83306Y-138000D01*
X83556Y-139333D01*
Y-140667D01*
X83306Y-142000D01*
X82806Y-143167D01*
X82056Y-144167D01*
X81181Y-144833D01*
X80181Y-145000D01*
G01X91181Y-139667D02*
X91681Y-139167D01*
X92056Y-138334D01*
X92306Y-137166D01*
X92056Y-136167D01*
X91556Y-135500D01*
X90681Y-135000D01*
X87306D01*
Y-145000D01*
X91431D01*
X92306Y-144334D01*
X92806Y-143333D01*
X93056Y-142167D01*
X92806Y-141000D01*
X92056Y-140000D01*
X91181Y-139667D01*
X87306D01*
G01X107306Y-145000D02*
Y-135000D01*
X113056Y-145000D01*
Y-135000D01*
G01X117431D02*
Y-142167D01*
X117931Y-143667D01*
X118931Y-144667D01*
X120181Y-145000D01*
X121431Y-144667D01*
X122431Y-143667D01*
X122931Y-142167D01*
Y-135000D01*
G01X126931Y-145000D02*
Y-135000D01*
X130181Y-143333D01*
X133431Y-135000D01*
Y-145000D01*
G01X141181Y-139667D02*
X141681Y-139167D01*
X142056Y-138334D01*
X142306Y-137166D01*
X142056Y-136167D01*
X141556Y-135500D01*
X140681Y-135000D01*
X137306D01*
Y-145000D01*
X141431D01*
X142306Y-144334D01*
X142806Y-143333D01*
X143056Y-142167D01*
X142806Y-141000D01*
X142056Y-140000D01*
X141181Y-139667D01*
X137306D01*
G01X152681Y-145000D02*
X147681D01*
Y-135000D01*
X152681D01*
G01X150681Y-139833D02*
X147681D01*
G01X157681Y-145000D02*
Y-135000D01*
X160806D01*
X161806Y-135500D01*
X162431Y-136167D01*
X162681Y-137500D01*
X162431Y-138833D01*
X161681Y-139667D01*
X160806Y-140167D01*
X157681D01*
G01X160806D02*
X162681Y-145000D01*
G01X170181Y-145333D02*
X169931Y-145167D01*
Y-144833D01*
X170181Y-144667D01*
X170431Y-144833D01*
Y-145167D01*
X170181Y-145333D01*
G01Y-140834D02*
X169931Y-140667D01*
Y-140333D01*
X170181Y-140167D01*
X170431Y-140333D01*
Y-140667D01*
X170181Y-140834D01*
G01X177806Y-136667D02*
X178556Y-135667D01*
X179431Y-135167D01*
X180431Y-135000D01*
X181681Y-135333D01*
X182556Y-136167D01*
X182806Y-137166D01*
X182681Y-138167D01*
X182181Y-139000D01*
X179681Y-140667D01*
X178556Y-141833D01*
X177806Y-143500D01*
X177556Y-145000D01*
X182806D01*
G01X187431Y-143000D02*
X188181Y-144167D01*
X189181Y-144833D01*
X190306Y-145000D01*
X191306Y-144833D01*
X192306Y-144000D01*
X192931Y-143000D01*
X193056Y-142000D01*
X192806Y-140834D01*
X191931Y-140000D01*
X191056Y-139667D01*
X189931D01*
G01X191056D02*
X191806Y-139167D01*
X192431Y-138334D01*
X192681Y-137333D01*
X192431Y-136333D01*
X191806Y-135500D01*
X190681Y-135000D01*
X189556Y-135167D01*
X188431Y-135834D01*
G01X200181Y-145000D02*
Y-135000D01*
X198681Y-137000D01*
G01Y-145000D02*
X201681D01*
G01X208556Y-141667D02*
X211806D01*
G01X220181Y-135000D02*
X219181Y-135333D01*
X218431Y-136167D01*
X217931Y-137166D01*
X217556Y-138500D01*
X217431Y-140000D01*
X217556Y-141500D01*
X217931Y-142834D01*
X218431Y-143834D01*
X219181Y-144667D01*
X220181Y-145000D01*
X221181Y-144667D01*
X221931Y-143834D01*
X222431Y-142834D01*
X222806Y-141500D01*
X222931Y-140000D01*
X222806Y-138500D01*
X222431Y-137166D01*
X221931Y-136167D01*
X221181Y-135333D01*
X220181Y-135000D01*
G01X230181D02*
X229181Y-135333D01*
X228431Y-136167D01*
X227931Y-137166D01*
X227556Y-138500D01*
X227431Y-140000D01*
X227556Y-141500D01*
X227931Y-142834D01*
X228431Y-143834D01*
X229181Y-144667D01*
X230181Y-145000D01*
X231181Y-144667D01*
X231931Y-143834D01*
X232431Y-142834D01*
X232806Y-141500D01*
X232931Y-140000D01*
X232806Y-138500D01*
X232431Y-137166D01*
X231931Y-136167D01*
X231181Y-135333D01*
X230181Y-135000D01*
G01X240181D02*
X239181Y-135333D01*
X238431Y-136167D01*
X237931Y-137166D01*
X237556Y-138500D01*
X237431Y-140000D01*
X237556Y-141500D01*
X237931Y-142834D01*
X238431Y-143834D01*
X239181Y-144667D01*
X240181Y-145000D01*
X241181Y-144667D01*
X241931Y-143834D01*
X242431Y-142834D01*
X242806Y-141500D01*
X242931Y-140000D01*
X242806Y-138500D01*
X242431Y-137166D01*
X241931Y-136167D01*
X241181Y-135333D01*
X240181Y-135000D01*
G01X250181D02*
X249181Y-135333D01*
X248431Y-136167D01*
X247931Y-137166D01*
X247556Y-138500D01*
X247431Y-140000D01*
X247556Y-141500D01*
X247931Y-142834D01*
X248431Y-143834D01*
X249181Y-144667D01*
X250181Y-145000D01*
X251181Y-144667D01*
X251931Y-143834D01*
X252431Y-142834D01*
X252806Y-141500D01*
X252931Y-140000D01*
X252806Y-138500D01*
X252431Y-137166D01*
X251931Y-136167D01*
X251181Y-135333D01*
X250181Y-135000D01*
G01X257806Y-140834D02*
X258681Y-139667D01*
X259431Y-139000D01*
X260431Y-138667D01*
X261306Y-139000D01*
X261931Y-139667D01*
X262431Y-140667D01*
X262556Y-141833D01*
X262431Y-142834D01*
X261931Y-143834D01*
X261181Y-144667D01*
X260306Y-145000D01*
X259306Y-144667D01*
X258431Y-143667D01*
X257931Y-142167D01*
X257806Y-140500D01*
X258056Y-138334D01*
X258431Y-137166D01*
X259056Y-136000D01*
X259931Y-135167D01*
X260806Y-135000D01*
X261681Y-135333D01*
X262306Y-136167D01*
G01X268056Y-143834D02*
X268931Y-144667D01*
X269931Y-145000D01*
X270931Y-144667D01*
X271806Y-143667D01*
X272431Y-142167D01*
X272681Y-140667D01*
Y-138833D01*
X272431Y-137333D01*
X271806Y-136000D01*
X271056Y-135333D01*
X270181Y-135000D01*
X269181Y-135333D01*
X268431Y-136000D01*
X267931Y-137000D01*
X267681Y-138334D01*
X267931Y-139500D01*
X268556Y-140667D01*
X269306Y-141334D01*
X270181Y-141500D01*
X271181Y-141167D01*
X271931Y-140333D01*
X272681Y-138833D01*
G01X379781Y-175500D02*
Y-185500D01*
X384781D01*
G01X392281Y-178834D02*
Y-185500D01*
G01Y-176167D02*
X392031Y-176000D01*
Y-175667D01*
X392281Y-175500D01*
X392531Y-175667D01*
Y-176000D01*
X392281Y-176167D01*
G01X401531Y-185500D02*
Y-177000D01*
X401781Y-176167D01*
X402281Y-175667D01*
X403031Y-175500D01*
X403781Y-175833D01*
X404156Y-176667D01*
G01X402656Y-179500D02*
X400156D01*
G01X410406Y-181000D02*
X414406D01*
X414031Y-179833D01*
X413406Y-179167D01*
X412531Y-178834D01*
X411656Y-179000D01*
X410906Y-179500D01*
X410406Y-180667D01*
X410156Y-181667D01*
Y-182667D01*
X410406Y-183667D01*
X411031Y-184667D01*
X411781Y-185333D01*
X412656Y-185500D01*
X413531Y-185167D01*
X414406Y-184167D01*
G01X422281Y-185833D02*
X422031Y-185667D01*
Y-185333D01*
X422281Y-185167D01*
X422531Y-185333D01*
Y-185667D01*
X422281Y-185833D01*
G01Y-181334D02*
X422031Y-181167D01*
Y-180833D01*
X422281Y-180667D01*
X422531Y-180833D01*
Y-181167D01*
X422281Y-181334D01*
G01X429531Y-183500D02*
X430281Y-184667D01*
X431281Y-185333D01*
X432406Y-185500D01*
X433406Y-185333D01*
X434406Y-184500D01*
X435031Y-183500D01*
X435156Y-182500D01*
X434906Y-181334D01*
X434031Y-180500D01*
X433156Y-180167D01*
X432031D01*
G01X433156D02*
X433906Y-179667D01*
X434531Y-178834D01*
X434781Y-177833D01*
X434531Y-176833D01*
X433906Y-176000D01*
X432781Y-175500D01*
X431656Y-175667D01*
X430531Y-176334D01*
G54D44*
G01X42000Y152900D02*
X41467Y153433D01*
X39879D01*
G01X38900Y149900D02*
X38186Y150614D01*
Y151740D01*
G01Y159063D02*
Y159186D01*
X39000Y160000D01*
X40500D01*
G01D02*
X41000Y159500D01*
Y158000D01*
X40370Y157370D01*
X39879D01*
G01X33700Y160200D02*
X34249Y159651D01*
G01X33148Y150167D02*
X34249Y151268D01*
G01Y159651D02*
Y159063D01*
G01Y151268D02*
Y151740D01*
G01X30529Y158471D02*
X30982D01*
X32083Y157370D01*
X32556D01*
G01X75812Y182858D02*
X78078D01*
G01X66700Y204400D02*
X65274Y205826D01*
X62867D01*
G01X78078Y180889D02*
X77689D01*
X75705Y178905D01*
G01X86600Y175900D02*
X83708Y178792D01*
Y179196D01*
G01X75705Y178905D02*
X77060Y177550D01*
X78720D01*
X79771Y178601D01*
Y179196D01*
G01X87800Y179500D02*
Y179700D01*
X86611Y180889D01*
X85401D01*
G01X81739Y176930D02*
Y179196D01*
G01X83708Y186519D02*
Y187178D01*
X86515Y189985D01*
G01X75370Y187320D02*
X76200Y186490D01*
Y186300D01*
G01X75370Y187320D02*
X76450Y188400D01*
X78600D01*
G01X76200Y186300D02*
X77674Y184826D01*
X78078D01*
G01X78600Y188400D02*
X79771Y187229D01*
Y186519D01*
G01X81739Y188339D02*
Y186519D01*
G01X99487Y206267D02*
Y210187D01*
G01X121000Y169800D02*
X122600Y168200D01*
Y165500D01*
G01X121000D02*
Y162800D01*
X122600Y161200D01*
G01X119400Y181100D02*
Y174900D01*
G01D02*
X121000Y173300D01*
G01Y181100D02*
Y183300D01*
X120100Y184200D01*
G01X113200Y174900D02*
X110600D01*
X110100Y174400D01*
G01X135950Y108850D02*
Y111598D01*
G01X131226Y126156D02*
Y129984D01*
G01D02*
Y132374D01*
G01X137865Y202429D02*
X137328D01*
X135100Y200200D01*
G01D02*
Y200060D01*
G01X139440Y207200D02*
Y205578D01*
G54D26*
X45744Y109847D03*
Y115753D03*
X198044Y166153D03*
Y160247D03*
G54D35*
X121000Y173300D03*
G54D17*
X30193Y109847D03*
Y115753D03*
X182493Y166153D03*
Y160247D03*
G54D45*
G01X135950Y111598D02*
Y114450D01*
G01X134022Y115700D02*
X132801Y114479D01*
Y111598D01*
G01X142250Y129984D02*
Y126150D01*
G01X133904Y126000D02*
X132801Y127104D01*
Y129984D01*
G01X135973Y204003D02*
X137865D01*
G01X141072Y202429D02*
X139440D01*
G01X143824Y111598D02*
Y117176D01*
G54D27*
X57512Y207794D03*
Y205826D03*
Y203857D03*
X62867D03*
Y205826D03*
Y207794D03*
X90881Y148494D03*
Y146525D03*
Y150462D03*
X96235Y146525D03*
Y148494D03*
Y150462D03*
G54D18*
X37968Y112800D03*
X190268Y163200D03*
G54D36*
X113200Y178100D03*
Y176500D03*
Y174900D03*
Y173300D03*
Y171700D03*
Y170100D03*
Y168500D03*
X128800D03*
Y170100D03*
Y171700D03*
Y173300D03*
Y174900D03*
Y176500D03*
Y178100D03*
G54D46*
G01X49354Y200150D02*
X22150D01*
X18000Y196000D01*
Y149000D01*
X19448Y147552D01*
X24054D01*
G01X39268Y98370D02*
Y100644D01*
X36984Y102928D01*
Y106009D01*
G01X33768Y98370D02*
Y100644D01*
X35016Y101891D01*
Y106009D01*
G01X33768Y94630D02*
Y88500D01*
G01X39268Y94630D02*
Y89370D01*
G01X44800Y86412D02*
X41842Y89370D01*
X39268D01*
G01X44768Y98370D02*
Y99782D01*
X43400Y101150D01*
X41158D01*
X38953Y103355D01*
Y106009D01*
G01X44268Y130630D02*
X38768D01*
G01X33047D02*
X27268D01*
G01X33047Y119591D02*
Y130630D01*
G01X36600Y123600D02*
Y123500D01*
X36984Y123116D01*
Y119591D01*
G01X41300Y126700D02*
X38953Y124353D01*
Y119591D01*
G01X36900Y126800D02*
X35900D01*
X34400Y125300D01*
Y122600D01*
X35016Y121984D01*
Y119591D01*
G01X39887Y146717D02*
Y143900D01*
G01X27794Y151402D02*
X27724D01*
Y147622D01*
X27794Y147552D01*
G01X36217Y151740D02*
Y146787D01*
X36147Y146717D01*
G01X39887Y163783D02*
X42717D01*
G01X32556Y155402D02*
X27794D01*
G01X39879D02*
X42907D01*
X42977Y155472D01*
X44902D01*
G01X27794Y151402D02*
X29499D01*
X30000Y151903D01*
Y152619D01*
X30815Y153433D01*
X32556D01*
G01X36217Y159063D02*
Y163713D01*
X36147Y163783D01*
G01X50269Y98370D02*
Y100644D01*
X48212Y102700D01*
X41800D01*
X40921Y103579D01*
Y106009D01*
G01X44768Y94630D02*
Y90300D01*
G01X50269Y94630D02*
Y89370D01*
G01X54100Y90700D02*
X52770Y89370D01*
X50269D01*
G01X51898Y109847D02*
X45744D01*
G01X62005Y112125D02*
X59727Y109847D01*
X55639D01*
G01X41200Y123200D02*
X40921Y122921D01*
Y119591D01*
G01X42890D02*
Y120713D01*
X44268Y122092D01*
Y130630D01*
G01X54950Y133950D02*
X59000Y138000D01*
Y142500D01*
X55000Y146500D01*
X47000D01*
X44902Y148598D01*
Y151732D01*
G01X53094Y203850D02*
X54799D01*
X54806Y203857D01*
X57512D01*
G01X49354Y200150D02*
X49424D01*
Y203780D01*
X49354Y203850D01*
G01X65600Y195600D02*
Y202907D01*
X64650Y203857D01*
X62867D01*
G01X79139Y145850D02*
X79068D01*
Y143000D01*
G01X82898Y145850D02*
X79139D01*
G01X90881Y148494D02*
X88276D01*
X86670Y150100D01*
G01X86639Y145850D02*
X88750D01*
X89425Y146525D01*
X90881D01*
G01X86670Y150100D02*
Y153818D01*
X86639Y153850D01*
G01X95450Y160374D02*
X88050D01*
G01X77144Y160456D02*
X80802Y164115D01*
X88050D01*
G01X90434Y184718D02*
X89103D01*
X87242Y182858D01*
X85401D01*
G01X87700Y196300D02*
X88182Y196782D01*
X90434D01*
G01Y188718D02*
X88718D01*
X87600Y187600D01*
Y186553D01*
X85873Y184826D01*
X85401D01*
G01X90434Y192718D02*
Y188718D01*
G01X96235Y146525D02*
Y143235D01*
G01X105800Y155820D02*
X104121Y157499D01*
X103101D01*
X102230Y158370D01*
Y160700D01*
G01X95450Y160374D02*
X97375D01*
X99000Y161999D01*
Y163400D01*
X99676Y164076D01*
X107476D01*
X109700Y166300D01*
Y169109D01*
X110691Y170100D01*
X113200D01*
G01X105970Y160700D02*
X108100D01*
X109200Y161800D01*
Y163676D01*
X111150Y165626D01*
Y167850D01*
X111800Y168500D01*
X113200D01*
G01X106082Y167700D02*
Y169625D01*
X105107Y170600D01*
X97600D01*
X96550Y169550D01*
X94078D01*
G01X113200Y171700D02*
X110082D01*
X106082Y167700D01*
G01X113200Y176500D02*
X111581D01*
X111356Y176725D01*
X109758D01*
X108283Y178200D01*
X105300D01*
G01X101800D02*
X98700D01*
G01D02*
X97300Y176800D01*
Y175925D01*
X95975Y174600D01*
X94000D01*
G01X100500Y183050D02*
X108450D01*
X110000Y181500D01*
Y178675D01*
X110575Y178100D01*
X113200D01*
G01X94174Y196782D02*
Y192718D01*
G01X103300Y186900D02*
X104979Y185221D01*
X108870D01*
X112991Y181100D01*
X116200D01*
G01X119250Y157734D02*
Y159050D01*
X117800Y160500D01*
G01D02*
X119400Y162100D01*
Y165500D01*
G01X116200D02*
Y164200D01*
X115100Y163100D01*
X111700D01*
G01D02*
Y160725D01*
X111250Y160275D01*
Y157734D01*
G01X115250D02*
Y159650D01*
X114200Y160700D01*
G01D02*
X114900D01*
X117800Y163600D01*
Y165500D01*
G01X127200Y161200D02*
X126400D01*
X124200Y163400D01*
Y165500D01*
G01X117800Y181100D02*
Y183250D01*
X117250Y183800D01*
X112200D01*
X110600Y185400D01*
Y186769D01*
X108550Y188819D01*
G01X120550D02*
Y186531D01*
X122600Y184481D01*
Y181100D01*
G01X126050Y188819D02*
Y186250D01*
X124200Y184400D01*
Y181100D01*
G01X133550Y106750D02*
Y107510D01*
G01X135200Y102300D02*
X135300Y102400D01*
X135900D01*
X137525Y104025D01*
Y111598D01*
G01X141500Y102600D02*
X139821Y104279D01*
Y104379D01*
X139100Y105100D01*
Y111598D01*
G01X141300Y106200D02*
X141225D01*
X140675Y106750D01*
Y111598D01*
G01X134376Y131500D02*
Y134206D01*
X132900Y135681D01*
Y139800D01*
X136031Y142931D01*
Y144930D01*
G01X137525Y136400D02*
Y131500D01*
G01X140600Y137700D02*
Y136100D01*
X139100Y134600D01*
Y129984D01*
G01X136000Y139300D02*
X134900Y138200D01*
Y135800D01*
X135950Y134750D01*
Y129984D01*
G01X143700Y135700D02*
X142200D01*
X140675Y134175D01*
Y129984D01*
G01X136031Y144930D02*
X141831D01*
G01Y148670D02*
Y150944D01*
X140799Y151975D01*
X135525D01*
X133100Y154400D01*
Y156500D01*
X131866Y157734D01*
X129950D01*
G01D02*
Y160007D01*
X129600Y160357D01*
Y162000D01*
X128025Y163575D01*
X126475D01*
X125800Y164250D01*
Y165500D01*
G01X138099Y154450D02*
X135826D01*
X134700Y155576D01*
Y157900D01*
X131100Y161500D01*
Y166000D01*
G01D02*
Y167450D01*
X130050Y168500D01*
X128800D01*
G01Y170100D02*
X131425D01*
X133750Y167775D01*
Y164425D01*
X134000Y164175D01*
Y161800D01*
G01D02*
Y161025D01*
X135075Y159950D01*
X138099D01*
G01Y165600D02*
Y163501D01*
X138898Y162702D01*
X149150D01*
G01X138099Y165600D02*
X135826D01*
X135100Y166326D01*
Y168617D01*
X132017Y171700D01*
X128800D01*
G01X138099Y178600D02*
Y176675D01*
X138649Y176125D01*
X148251D01*
X148899Y176773D01*
Y178600D01*
G01X138099D02*
X135600D01*
X131900Y174900D01*
X128800D01*
G01X138099Y171300D02*
Y173299D01*
X139100Y174300D01*
X147824D01*
X148899Y173225D01*
Y171300D01*
G01X138099D02*
X135000D01*
X133000Y173300D01*
X128800D01*
G01Y176500D02*
X131500D01*
X134000Y179000D01*
Y182800D01*
X135600Y184400D01*
X138099D01*
G01X137750Y190099D02*
X135699D01*
X135000Y189400D01*
Y186749D01*
X132300Y184049D01*
Y180350D01*
X130050Y178100D01*
X128800D01*
G01X131950Y188819D02*
Y186250D01*
X129700Y184000D01*
X126600D01*
X125800Y183200D01*
Y181100D01*
G01X138099Y184400D02*
Y186399D01*
X139000Y187300D01*
X140200D01*
X143300Y190400D01*
X145100D01*
X146400Y189100D01*
Y185200D01*
X147200Y184400D01*
X148861D01*
G01X137750Y190099D02*
X140323D01*
X143124Y192900D01*
X148000D01*
X148859Y192041D01*
Y190050D01*
G01X128104Y198050D02*
Y195771D01*
X129000Y194875D01*
Y190000D01*
X130181Y188819D01*
X131950D01*
G01X141746Y210130D02*
X145720D01*
G01X139440Y204003D02*
X140303D01*
X141746Y205446D01*
Y210130D01*
G01X135165D02*
Y208278D01*
X136518Y206925D01*
G01X130935Y210200D02*
X133170D01*
X133240Y210130D01*
X135165D01*
G01X145399Y129984D02*
Y134206D01*
X147631Y136437D01*
Y144930D01*
G01X152931Y148670D02*
X147631D01*
G01D02*
Y151931D01*
G01X154000Y164000D02*
X155400Y165400D01*
Y178113D01*
X154913Y178600D01*
X152639D01*
G01X153100Y158200D02*
X157000Y162100D01*
Y182700D01*
X155300Y184400D01*
X152601D01*
G01X152738Y167462D02*
X152639Y167561D01*
Y171300D01*
G01X149505Y210130D02*
X153305D01*
G01X145720D02*
X149505D01*
G01X160317Y163000D02*
Y168500D01*
G01X162114Y182250D02*
Y178914D01*
X160317Y177117D01*
Y174000D01*
G01Y168500D02*
Y174000D01*
G01X172598Y172000D02*
Y177002D01*
X170814Y178786D01*
Y186000D01*
G01X183500Y59500D02*
X187800Y55200D01*
X197630D01*
G01X183968Y148370D02*
X189468D01*
G01X183968D02*
X181692D01*
X181170Y148892D01*
Y153070D01*
X182520Y154420D01*
X184480D01*
X185347Y155287D01*
Y156409D01*
G01X188600Y151900D02*
X189284Y152584D01*
Y156409D01*
G01X192200Y152100D02*
X191253Y153047D01*
Y156409D01*
G01X184900Y151900D02*
X187316Y154316D01*
Y156409D01*
G01X176339Y166153D02*
Y172000D01*
G01X182493Y166153D02*
X176339D01*
G01X183468Y181370D02*
Y186630D01*
G01X193850Y190750D02*
X189900Y194700D01*
X180400D01*
X177968Y192268D01*
Y181370D01*
G01X188968D02*
Y184400D01*
G01Y177630D02*
Y175132D01*
X191253Y172847D01*
Y169991D01*
G01X183468Y177630D02*
X185670D01*
X186200Y177100D01*
Y175724D01*
X189284Y172640D01*
Y169991D01*
G01X177968Y177630D02*
Y175788D01*
X178556Y175200D01*
X184755D01*
X187316Y172640D01*
Y169991D01*
G01X180000Y170612D02*
X178612Y172000D01*
X176339D01*
G01X196100Y188000D02*
X193725D01*
X192625Y186900D01*
X186400D01*
X186130Y186630D01*
X183468D01*
G01X200969Y148370D02*
X195190D01*
G01Y156409D02*
Y155287D01*
X195777Y154700D01*
X197800D01*
X200969Y151532D01*
Y148370D01*
G01X196300Y152400D02*
X195100D01*
X193221Y154279D01*
Y156409D01*
G01X194468Y181370D02*
Y184832D01*
G01Y177630D02*
Y175356D01*
X193221Y174109D01*
Y169991D01*
G54D37*
X142250Y111598D03*
X140675D03*
X139100D03*
X137525D03*
X135950D03*
X134376D03*
X132801D03*
X131226D03*
X142250Y129984D03*
X140675D03*
X139100D03*
X137525D03*
X135950D03*
X134376D03*
X132801D03*
X131226D03*
X145399Y111598D03*
X143824D03*
X145399Y129984D03*
X143824D03*
G54D28*
X79218Y19728D03*
X177643D03*
G54D19*
X33047Y119591D03*
X35016D03*
X36984D03*
X38953D03*
X40921D03*
X42890D03*
X191253Y169991D03*
X189284D03*
X187316D03*
X185347D03*
X195190D03*
X193221D03*
G54D47*
G01X-133069Y-114500D02*
X371600D01*
Y-209700D01*
X-133069D01*
G01Y-114500D02*
Y-209700D01*
G01Y-189700D02*
X449900D01*
G01X-133069Y-169700D02*
X449900D01*
G01X-133069Y-149700D02*
X449900D01*
G01X-133069Y-130500D02*
X449900D01*
G01X22639Y115753D02*
Y121300D01*
G01X30193Y115753D02*
X22639D01*
G01X51898D02*
Y121753D01*
G01X45744Y115753D02*
X51898D01*
G01X100518Y146792D02*
X100211Y147100D01*
X99000D01*
G01D02*
X97606Y148494D01*
X96235D01*
G01X101456Y206267D02*
Y208219D01*
G01D02*
X99487Y210187D01*
G01X131226Y114174D02*
Y111598D01*
G01X138500Y209600D02*
Y208140D01*
X139440Y207200D01*
G01X145399Y114601D02*
Y111598D01*
G01X144668Y106300D02*
X145399Y107031D01*
Y111598D01*
G01X171768Y202290D02*
Y195738D01*
G01X167397Y204397D02*
Y206366D01*
G01Y204397D02*
X169661D01*
G01X167397Y206366D02*
Y211100D01*
G01X169661Y204397D02*
X171768Y202290D01*
G01X176339Y160247D02*
Y154247D01*
G01X182493Y160247D02*
X176339D01*
G01X182831Y173000D02*
X183460D01*
X185347Y171113D01*
Y169991D01*
G01X204598Y160247D02*
Y154700D01*
G01X198044Y160247D02*
X204598D01*
G01X371600Y-114500D02*
X449900D01*
Y-209700D01*
X371600D01*
G54D29*
X64063Y162861D03*
Y174476D03*
G54D38*
X137865Y205578D03*
X139440D03*
X137865Y202429D03*
X139440D03*
Y204003D03*
X137865D03*
G54D48*
G01X149600Y114500D02*
X164057Y128957D01*
Y163000D01*
G54D39*
X162114Y182250D03*
Y189750D03*
X170814Y186000D03*
G54D49*
G01X33047Y106009D02*
X31009D01*
G01X30193Y109847D02*
X27547D01*
G01X30193D02*
Y108007D01*
G01X27900Y102200D02*
X31300D01*
G01D02*
X33047Y103947D01*
Y106009D01*
G01X51140Y104870D02*
X50001Y106009D01*
G01D02*
X42890D01*
G01X57512Y207794D02*
Y209588D01*
X57154Y209946D01*
G01X53094Y207800D02*
X53700D01*
X55674Y205826D01*
X57512D01*
G01X64294Y207794D02*
X62867D01*
G01X91525Y152575D02*
X90881Y151931D01*
Y150462D01*
G01X100518D02*
X96235D01*
G01X96210Y201180D02*
X98280D01*
G01D02*
X99487Y202387D01*
Y204003D01*
G01X114150Y188819D02*
X116619D01*
X117582Y189782D01*
Y196068D01*
X117100Y196550D01*
Y199400D01*
G01X195190Y169991D02*
X197309D01*
G01X195400Y172600D02*
X195190Y172390D01*
Y169991D01*
M02*
