M48
INCH,TZ
T01C.01
T02C.033
T03C.11811
T04C.145669
T05C.125
;LEADER: 12 
;HEADER: 
;CODE  : ASCII 
;FILE  : Fb_Connect1_SYNC_Life-3-1-6.drl for  ... layers TOP and BOTTOM
;DESIGN: Fb_Connect1_SYNC_Life-3.brd
;T01 Holesize 1. = 10.000000 Tolerance = +3.000000/-10.000000 PLATED MILS Quantity = 398
;T02 Holesize 2. = 33.000000 Tolerance = +3.000000/-3.000000 PLATED MILS Quantity = 10
;T03 Holesize 3. = 118.110000 Tolerance = +3.000000/-3.000000 PLATED MILS Quantity = 2
;T04 Holesize 4. = 145.669000 Tolerance = +3.000000/-3.000000 PLATED MILS Quantity = 2
;T05 Holesize 5. = 125.000000 Tolerance = +2.000000/-2.000000 NON_PLATED MILS Quantity = 1
%
G90
T01
X14300Y95131
X14537Y114900
X14537Y109900
X14537Y104900
X14537Y99900
X57224Y215224
X9200Y142100
X5200Y142100
X9200Y146100
X5200Y146100
X5200Y150100
X9200Y150100
X13500Y148600
X13400Y128800
X9400Y128800
X5400Y128800
X5400Y124800
X9400Y124800
X13400Y124800
X11368Y137868
X15500Y158500
X11868Y157932
X14537Y139900
X14537Y119900
X14537Y134900
X92000Y216600
X102000Y216600
X112000Y216600
X78069Y209900
X103300Y186900
X100500Y183050
X65600Y195600
X54950Y133950
X63550Y215000
X98700Y178200
X77144Y160456
X96235Y143235
X77300Y130400
X77300Y134400
X77300Y138400
X89000Y156800
X97000Y184200
X97000Y187600
X20500Y161000
X39887Y143900
X110300Y198900
X87700Y196300
X79068Y143000
X55400Y138950
X67200Y157800
X36900Y126800
X41300Y126700
X36600Y123600
X41200Y123200
X105800Y155820
X104031Y198500
X114200Y160700
X111700Y163100
X100100Y198700
X117800Y160500
X25300Y143950
X64400Y121600
X60300Y197900
X27724Y162500
X46500Y207800
X70500Y213600
X90500Y177300
X51770Y165630
X59300Y115753
X67100Y127600
X67100Y131600
X80136Y150100
X103382Y150462
X98700Y167700
X87800Y179500
X109300Y174000
X117100Y199400
X40000Y139500
X29500Y139500
X56300Y198000
X86950Y169550
X86600Y175900
X86515Y189985
X75370Y187320
X96210Y201180
X52050Y126450
X29800Y125200
X99487Y210187
X54824Y174476
X51750Y136450
X67650Y139350
X51050Y141450
X37000Y138000
X40968Y115300
X26000Y138000
X55737Y125316
X51900Y155300
X51900Y150300
X117500Y210400
X103500Y210100
X90200Y209700
X95200Y178100
X65038Y190500
X50501Y190500
X81739Y182858
X117500Y169800
X117500Y173300
X98700Y173350
X111250Y151200
X115250Y151200
X100518Y143999
X98600Y154850
X80105Y153850
X72605Y145850
X51700Y131450
X54824Y162861
X107200Y199900
X113500Y199500
X75705Y178905
X108300Y210200
X86000Y209400
X77000Y195600
X86500Y193000
X76320Y191050
X57800Y187230
X70860Y178810
X56220Y178560
X50250Y178660
X90300Y201100
X36217Y155402
X40500Y160000
X32000Y161500
X112900Y210100
X81700Y159800
X86700Y141100
X80000Y117200
X84200Y121200
X69800Y116200
X75700Y172800
X74700Y153700
X69300Y148800
X66000Y153100
X70800Y160800
X88500Y133000
X81700Y140000
X81700Y133400
X40500Y150900
X42717Y163783
X108418Y96182
X62005Y112125
X54100Y90700
X44768Y90300
X44800Y86412
X33768Y88500
X84477Y95890
X107400Y84700
X99577Y86190
X104300Y82500
X89477Y96190
X94477Y96190
X99477Y96190
X104177Y91190
X89477Y91190
X94477Y91190
X99477Y91190
X104177Y86190
X107500Y88700
X79977Y91190
X94377Y86190
X84477Y91190
X99477Y100890
X84477Y100590
X89477Y100890
X94477Y100890
X79977Y100590
X79977Y95890
X105434Y23965
X97600Y31700
X63400Y93950
X63700Y81500
X77377Y38090
X81377Y38090
X85377Y38090
X89377Y38090
X93377Y38090
X77377Y42090
X81377Y42090
X85377Y42090
X89377Y42090
X93377Y42090
X32600Y39600
X50268Y82100
X36000Y85532
X27900Y102200
X24900Y104300
X27800Y106700
X32600Y43600
X53700Y102500
X38500Y42900
X51140Y104870
X112589Y48899
X78877Y66090
X108177Y52743
X103268Y37183
X104868Y27900
X100677Y22321
X94468Y66000
X104577Y69037
X116076Y52857
X83677Y65990
X88877Y66064
X28047Y91100
X37968Y112800
X40968Y110300
X114831Y95792
X65900Y112300
X68300Y93800
X73700Y94100
X180978Y99222
X164031Y105506
X169453Y70947
X157158Y18090
X170031Y93300
X154532Y85732
X177130Y81600
X179689Y70911
X141300Y106200
X141500Y102600
X135200Y102300
X183500Y59500
X182248Y81052
X168100Y82450
X188700Y59300
X144668Y106300
X148668Y106300
X133550Y106750
X125600Y109000
X133377Y18990
X139911Y31624
X128900Y109100
X125500Y106000
X128900Y106000
X127177Y19321
X131777Y38790
X192731Y93300
X198331Y93300
X138831Y95818
X120831Y95818
X138054Y44928
X141779Y45684
X201370Y51970
X121177Y15390
X121177Y19321
X163668Y49000
X163600Y52700
X159769Y49000
X159700Y52700
X166968Y36700
X172468Y36700
X177968Y36700
X188968Y36700
X194468Y36700
X158931Y92500
X164431Y93000
X175531Y93000
X181031Y93000
X186531Y93000
X163600Y29900
X192484Y71016
X183468Y36700
X207825Y55675
X208400Y52000
X147045Y27190
X147930Y33000
X138027Y50643
X115679Y10340
X119877Y30258
X126414Y53390
X129327Y50290
X160968Y36700
X204280Y93162
X160668Y63400
X155600Y95700
X152131Y95792
X144668Y95792
X132468Y95792
X126868Y95792
X215789Y106211
X119500Y41200
X123600Y38300
X49527Y13803
X38527Y13808
X119500Y38200
X123900Y41300
X173300Y99124
X145200Y207069
X134000Y161800
X177831Y196631
X131100Y166000
X180000Y170612
X143700Y135700
X184900Y151900
X136000Y139300
X192200Y152100
X140600Y137700
X188600Y151900
X153100Y158200
X188968Y184400
X193850Y190750
X196100Y188000
X194468Y184832
X127200Y161200
X147631Y151931
X137525Y136400
X196300Y152400
X173531Y210750
X133200Y150900
X128200Y139800
X124200Y139800
X124200Y135800
X128200Y135800
X152738Y167462
X154000Y164000
X183968Y140989
X195190Y140989
X122600Y161200
X145481Y165600
X168957Y166153
X168957Y160247
X211980Y160247
X145000Y171300
X199100Y173600
X203100Y173600
X131950Y198900
X144200Y188100
X190900Y189200
X217772Y116800
X159600Y211400
X156500Y211400
X139600Y198700
X150200Y155300
X138500Y209600
X182831Y173000
X149062Y195738
X120631Y199500
X135100Y200060
X128000Y122000
X211868Y138532
X127831Y118700
X148900Y119100
X182887Y197813
X193713Y197813
X124500Y210200
X121000Y173300
X124500Y169800
X124500Y173300
X121000Y169800
X186668Y160800
X193668Y160800
X190268Y163200
X186668Y165800
X193668Y165800
X145600Y155600
X145481Y159950
X167600Y172900
X168957Y154247
X189468Y140989
X201800Y140900
X212000Y153200
X211980Y166153
X200190Y185011
X152931Y141288
X119250Y151200
X147300Y198300
X167397Y211100
X162336Y195738
X171768Y195738
X127100Y151400
X121000Y210200
X180200Y216700
X222200Y147900
X231811Y115689
X135165Y216700
X141746Y216700
X223080Y155890
X226742Y129958
X153305Y216700
X184700Y216800
X193713Y215587
X149505Y216600
X145720Y216700
X122000Y216600
X131000Y216600
X219912Y109100
X223412Y109100
X219000Y98300
X223331Y68331
X222000Y76000
T02
X33068Y182858
X40076Y189865
X40076Y175850
X26061Y175850
X26061Y189865
X33068Y67542
X40076Y74550
X40076Y60535
X26061Y60535
X26061Y74550
T03
X79218Y19728
X177643Y19728
T04
X218400Y198400
X218400Y21600
T05
X15000Y15000
M30
