G04 ================== begin FILE IDENTIFICATION RECORD ==================*
G04 Layout Name:  Fb_Connect1_SYNC_Life-3.brd*
G04 Film Name:    L5-PWR.gbr*
G04 File Format:  Gerber RS274X*
G04 File Origin:  Cadence Allegro 16.6-2015-S065*
G04 Origin Date:  Tue Jan 03 17:02:02 2017*
G04 *
G04 Layer:  VIA CLASS/PWR*
G04 Layer:  PIN/PWR*
G04 Layer:  ETCH/PWR*
G04 Layer:  DRAWING FORMAT/L5*
G04 Layer:  DRAWING FORMAT/FILM_LABEL_OUTLINE*
G04 Layer:  BOARD GEOMETRY/OUTLINE*
G04 *
G04 Offset:    (0.000 0.000)*
G04 Mirror:    No*
G04 Mode:      Positive*
G04 Rotation:  0*
G04 FullContactRelief:  No*
G04 UndefLineWidth:     6.000*
G04 ================== end FILE IDENTIFICATION RECORD ====================*
%FSLAX25Y25*MOIN*%
%IR0*IPPOS*OFA0.00000B0.00000*MIA0B0*SFA1.00000B1.00000*%
%ADD10C,.022*%
%ADD11C,.01*%
%ADD12C,.006*%
%ADD16C,.160004*%
%ADD14C,.238666*%
%ADD15C,.083004*%
%ADD13C,.038004*%
G75*
%LPD*%
G75*
G36*
G01X67096Y192094D02*
G02X66407Y191817I-400J0D01*
G03Y189183I-1369J-1317D01*
G02X67096Y188906I288J-277D01*
G01Y186528D01*
G03X67126Y186116I2800J0D01*
G02X66730Y185658I-396J-59D01*
G01X59764D01*
G03X59407Y185635I0J-2800D01*
G01X59357Y185628D01*
X59123Y185718D01*
X59217Y185964D01*
X59240Y185990D01*
G03X56384Y185963I-1440J1240D01*
G02X56207Y185632I-149J-133D01*
G03X55828Y185658I-380J-2774D01*
G01X42568D01*
G02X42348Y186392I0J400D01*
G03X36199Y188386I-2272J3473D01*
G02X35643Y187887I-374J-143D01*
G03X30494I-2574J-5030D01*
G02X29938Y188386I-182J356D01*
G03X27540Y185988I-3877J1480D01*
G02X28039Y185432I143J-374D01*
G03Y180283I5030J-2574D01*
G02X27540Y179727I-356J-182D01*
G03X29938Y177329I-1480J-3878D01*
G02X30494Y177828I374J143D01*
G03X35643I2574J5030D01*
G02X36199Y177329I182J-356D01*
G03X42348Y179323I3877J-1480D01*
G02X42568Y180057I219J335D01*
G01X48177D01*
G02X48538Y179484I0J-400D01*
G03X51962I1712J-824D01*
G02X52323Y180057I360J173D01*
G01X54199D01*
G02X54550Y179466I0J-400D01*
G03X57473Y179989I1670J-906D01*
G02X57498Y180610I264J301D01*
G03X57796Y180866I-1671J2247D01*
G03X59764Y180057I1969J1991D01*
G01X68722D01*
G02X69093Y179510I0J-400D01*
G03X72613Y179544I1767J-700D01*
G02X73046Y180094I369J155D01*
G03X73496Y180057I450J2764D01*
G01X73531D01*
G02X73909Y179526I0J-400D01*
G03X77395Y179774I1796J-621D01*
G02X77750Y180357I356J183D01*
G01X78078D01*
G03X78859Y180483I0J2500D01*
G02X79364Y179978I125J-380D01*
G03X79239Y179196I2375J-782D01*
G01Y178191D01*
G03X78939Y176930I2500J-1261D01*
G01Y172268D01*
G03X78961Y171919I2800J0D01*
G02X78564Y171469I-397J-50D01*
G01X77803D01*
G02X77438Y172031I0J400D01*
G03X73962I-1738J769D01*
G02X73597Y171469I-366J-162D01*
G01X69968D01*
G03X69373Y171405I0J-2800D01*
G01X69352Y171400D01*
X65900D01*
Y165800D01*
X70000D01*
Y165868D01*
X81739D01*
G03X83884Y170468I0J2800D01*
G03X84539Y172268I-2145J1800D01*
G01Y174308D01*
G02X85228Y174585I400J0D01*
G03X84917Y176781I1372J1315D01*
G01X84860Y176674D01*
X84539D01*
Y176930D01*
G03X84239Y178191I-2800J0D01*
G01Y179196D01*
G03X83310Y181142I-2500J0D01*
G02X83244Y181697I251J311D01*
G03Y184018I-1505J1160D01*
G02X83310Y184573I317J244D01*
G03X84239Y186519I-1570J1946D01*
G01Y187078D01*
G03X84539Y188339I-2500J1261D01*
G01Y188863D01*
G02X84909Y188970I200J0D01*
G03X87944Y191238I1607J1015D01*
G02X87941Y191762I301J264D01*
G03X88149Y193944I-1441J1238D01*
G02X88358Y194517I347J199D01*
G03X86051Y195356I-658J1783D01*
G02X85842Y194783I-347J-199D01*
G03X85211Y194396I658J-1783D01*
G02X84539Y194690I-271J294D01*
G01Y197668D01*
G03X83884Y199468I-2800J0D01*
G03X84539Y201268I-2145J1800D01*
G01Y202368D01*
X85896D01*
G03X87696Y203023I0J2800D01*
G03X88435Y202577I1800J2145D01*
G02X88634Y202014I-152J-370D01*
G03X91948Y202045I1666J-914D01*
G01X91936Y202067D01*
X91923Y202116D01*
G02X92116Y202368I193J53D01*
G01X92286D01*
X92320Y202335D01*
X94037D01*
G02X94415Y201804I0J-400D01*
G03X97972Y201893I1795J-624D01*
G02X98239Y202429I371J150D01*
G03X98791Y202640I-721J2706D01*
G02X99053Y202565I91J-178D01*
G03X101456Y201203I2403J1438D01*
G01X105084D01*
G02X105452Y200646I0J-400D01*
G03X105386Y200465I1748J-746D01*
G02X104835Y200222I-382J119D01*
G03X102457Y199565I-804J-1722D01*
G02X101774Y199600I-331J224D01*
G03X101674Y197635I-1674J-900D01*
G02X102357Y197600I331J-224D01*
G03X105845Y197935I1674J900D01*
G02X106396Y198178I382J-119D01*
G03X108068Y198210I804J1722D01*
G02X108608Y198036I183J-356D01*
G03X111869Y197828I1692J864D01*
G02X112426Y197933I330J-226D01*
G03X115066Y200577I1074J1567D01*
G02X115395Y201203I330J227D01*
G01X118735D01*
G02X119065Y200577I0J-400D01*
G03X121985Y200833I1566J-1076D01*
G02X122098Y201474I285J281D01*
G03X122696Y201858I-1203J2529D01*
G03X124496Y201203I1800J2145D01*
G01X129185D01*
G03X131155Y202013I0J2800D01*
G03X133125Y201203I1970J1990D01*
G01X133223D01*
G02X133402Y200913I0J-200D01*
G03X136744Y201012I1698J-853D01*
G01X136679Y201125D01*
X136834Y201338D01*
X136893Y201358D01*
G03X137091Y201436I-920J2645D01*
G03X137956Y200355I2349J993D01*
G02X138049Y199798I-233J-325D01*
G03X141449Y199136I1551J-1098D01*
G02X141839Y199628I389J92D01*
G01X145196D01*
G02X145561Y199067I0J-400D01*
G03X146874Y196448I1739J-767D01*
G02X147180Y196003I-90J-390D01*
G03X149488Y197590I1882J-265D01*
G02X149182Y198035I90J390D01*
G03X148792Y199476I-1882J265D01*
G02X148893Y200062I314J248D01*
G03X149196Y200284I-1497J2366D01*
G03X150996Y199628I1800J2145D01*
G01X159146D01*
G03X160946Y200284I0J2800D01*
G03X162746Y199628I1800J2145D01*
G01X168529D01*
G03X171254Y203073I0J2800D01*
G02X171643Y203565I389J92D01*
G01X174231D01*
G03X174580Y203587I0J2800D01*
G02X175030Y203190I50J-397D01*
G01Y197961D01*
G03X180902Y196205I2800J-1331D01*
G02X181574Y196439I396J-55D01*
G03X181354Y198936I1313J1374D01*
G02X180631Y199172I-323J236D01*
G01Y203141D01*
G02X181098Y203535I400J0D01*
G03X184371Y206295I473J2760D01*
G01Y213423D01*
G03X184291Y214437I-6438J0D01*
G02X184688Y214900I395J63D01*
G03X186510Y217378I12J1900D01*
G02X186891Y217900I381J122D01*
G01X195900D01*
X198100Y215700D01*
Y191300D01*
X210800Y178600D01*
X235900D01*
X237700Y176800D01*
Y43900D01*
X235300Y41500D01*
X209400D01*
X199100Y31200D01*
Y6900D01*
X194700Y2500D01*
X110000D01*
X108400Y4100D01*
Y19800D01*
X110400Y21800D01*
X122000D01*
X123300Y20500D01*
Y17000D01*
X125400Y14900D01*
X139100D01*
X157500Y33300D01*
Y95675D01*
G03Y95725I-1900J25D01*
G01Y153900D01*
X154493Y156907D01*
G03X151202Y158117I-1393J1293D01*
G02X150802Y157700I-400J-17D01*
G01X146848D01*
G02X146610Y158422I0J400D01*
G03X144352I-1129J1528D01*
G02X144114Y157700I-238J-322D01*
G01X110400D01*
X108379Y155679D01*
G02X107697Y155937I-283J283D01*
G03X107287Y154637I-1897J-117D01*
G02X108000Y154388I313J-249D01*
G01Y144100D01*
X86268Y122368D01*
G02X85675Y122398I-283J283D01*
G03X83002Y119725I-1475J-1198D01*
G02X83032Y119132I-252J-310D01*
G01X82154Y118254D01*
G02X81546Y118305I-283J283D01*
G03X78895Y115654I-1546J-1105D01*
G02X78946Y115046I-233J-325D01*
G01X68900Y105000D01*
Y96092D01*
G02X68465Y95693I-400J0D01*
G03Y91907I-165J-1893D01*
G02X68900Y91508I35J-398D01*
G01Y25723D01*
G03Y13733I10318J-5995D01*
G01Y5600D01*
X65400Y2100D01*
X5400D01*
X2100Y5400D01*
Y215200D01*
X4800Y217900D01*
X89883D01*
G02X90251Y217344I0J-400D01*
G03X93749I1749J-744D01*
G02X94117Y217900I368J157D01*
G01X99883D01*
G02X100251Y217344I0J-400D01*
G03X103749I1749J-744D01*
G02X104117Y217900I368J157D01*
G01X109883D01*
G02X110251Y217344I0J-400D01*
G03X113749I1749J-744D01*
G02X114117Y217900I368J157D01*
G01X119883D01*
G02X120251Y217344I0J-400D01*
G03X123749I1749J-744D01*
G02X124117Y217900I368J157D01*
G01X128883D01*
G02X129251Y217344I0J-400D01*
G03X132749I1749J-744D01*
G02X133117Y217900I368J157D01*
G01X143563D01*
G02X143938Y217361I0J-400D01*
G03X147255Y215580I1782J-661D01*
G02X147913Y215562I323J-236D01*
G03X151103Y215571I1592J1038D01*
G02X151763Y215589I336J-216D01*
G03X155086Y217361I1541J1111D01*
G02X155461Y217900I375J139D01*
G01X176792D01*
G02X177182Y217409I0J-400D01*
G03X177100Y216737I3018J-709D01*
G02X176606Y216353I-400J5D01*
G03X175364Y216500I-1242J-5154D01*
G01X166726D01*
G03X162311Y214671I0J-6244D01*
G01X161930Y214290D01*
G03X160700Y211320I2970J-2970D01*
G01Y208969D01*
X159076D01*
G03X156316Y205696I0J-2800D01*
G02X155922Y205229I-394J-67D01*
G01X150996D01*
G03X149196Y204574I0J-2800D01*
G03X147396Y205229I-1800J-2145D01*
G01X146994D01*
G02X146682Y205879I0J400D01*
G03X143718I-1482J1189D01*
G02X143406Y205229I-312J-250D01*
G01X141071D01*
G03X140176Y205082I0J-2800D01*
G03X137865Y206553I-2311J-1078D01*
G01X137130D01*
X137092Y206570D01*
G03X135973Y206804I-1119J-2567D01*
G01X133125D01*
G03X131155Y205993I0J-2800D01*
G03X129185Y206804I-1970J-1990D01*
G01X124496D01*
G03X122696Y206148I0J-2800D01*
G03X120896Y206804I-1800J-2145D01*
G01X112996D01*
G03X111196Y206148I0J-2800D01*
G03X109396Y206804I-1800J-2145D01*
G01X101455D01*
G03X100184Y206498I0J-2800D01*
G02X99921Y206573I-91J178D01*
G03X97519Y207935I-2403J-1438D01*
G01X93877D01*
X93849Y207940D01*
G03X93435Y207969I-403J-2771D01*
G01X92076D01*
G02X91750Y208600I0J400D01*
G03X88762Y208458I-1550J1100D01*
G02X88589Y207818I-303J-261D01*
G03X87696Y207314I907J-2649D01*
G03X87455Y207494I-1800J-2145D01*
G02X87386Y208100I223J332D01*
G03X84302Y208548I-1386J1300D01*
G02X83944Y207969I-358J-179D01*
G01X81739D01*
G03X81341Y207940I0J-2800D01*
G02X80884Y208338I-57J396D01*
G01X80885Y208603D01*
X80902Y208641D01*
G03X80897Y211172I-2833J1259D01*
G01X80904Y212900D01*
X78851D01*
X78827Y212906D01*
G03X77312I-757J-3006D01*
G01X77288Y212900D01*
X75305D01*
X75298Y211290D01*
X75278Y211249D01*
G03X75285Y208536I2791J-1349D01*
G01X75269Y205009D01*
G03X75314Y204509I2800J0D01*
G02X74953Y204039I-394J-71D01*
G03X69587Y201552I710J-8565D01*
G01X69587Y201551D01*
G03X67302Y197402I6014J-6014D01*
G02X66684Y197161I-390J88D01*
G03X66505Y193929I-1084J-1561D01*
G02X67096Y193578I191J-352D01*
G01Y192094D01*
G37*
G36*
G01X154876Y97457D02*
G03X154200Y96985I724J-1757D01*
G02X153597Y97001I-295J271D01*
G03X153530Y94507I-1466J-1209D01*
G02X154134Y94491I295J-271D01*
G03X154876Y93943I1466J1209D01*
G01X155000Y93892D01*
Y88031D01*
G02X154588Y87631I-400J0D01*
G03Y83832I-57J-1899D01*
G02X155000Y83432I12J-400D01*
G01Y34000D01*
X149218Y28218D01*
G02X148607Y28273I-283J283D01*
G03X145962Y25629I-1561J-1083D01*
G02X146017Y25017I-228J-329D01*
G01X138300Y17300D01*
X126400D01*
X125300Y18400D01*
Y27800D01*
X119500Y33600D01*
X97619D01*
G03X97581I-19J-1900D01*
G01X74900D01*
X71800Y36700D01*
Y92356D01*
G02X72461Y92659I400J0D01*
G03Y95541I1239J1441D01*
G02X71800Y95844I-261J303D01*
G01Y103500D01*
X111000Y142700D01*
Y148905D01*
G02X111374Y149304I400J0D01*
G03X112902Y150261I-124J1896D01*
G02X113598I348J-198D01*
G03X116902I1652J939D01*
G02X117598I348J-198D01*
G03Y152139I1652J939D01*
G02X116902I-348J198D01*
G03X113598I-1652J-939D01*
G02X112902I-348J198D01*
G03X112124Y152887I-1652J-939D01*
G02X112025Y153525I184J355D01*
G01X113200Y154700D01*
X143927D01*
G03X145755Y153706I1674J900D01*
G02X146108Y153068I33J-399D01*
G03X147475Y153824I1522J-1137D01*
G02X147122Y154463I-33J399D01*
G03X147274Y154700I-1522J1137D01*
G01X148392D01*
X148443Y154576D01*
G03X151843Y154346I1757J724D01*
G02X152472Y154428I346J-201D01*
G01X155000Y151900D01*
Y142871D01*
G02X154310Y142596I-400J0D01*
G03Y139981I-1379J-1307D01*
G02X155000Y139706I290J-275D01*
G01Y97508D01*
X154876Y97457D01*
G37*
%LPC*%
G75*
G36*
G01X45803Y88026D02*
G02X43771Y88010I-1003J-1614D01*
G03X43766Y88686I-217J336D01*
G02X45797Y88702I1003J1614D01*
G03X45803Y88026I217J-336D01*
G37*
G36*
G01X40372Y112104D02*
G02X39086Y110561I596J-1804D01*
G03X38565Y110996I-396J55D01*
G02Y114604I-596J1804D01*
G03X39086Y115039I126J380D01*
G02X40372Y113496I1882J261D01*
G03X39851Y113061I-126J-380D01*
G02Y112539I-1882J-261D01*
G03X40372Y112104I396J-55D01*
G37*
G36*
G01X63659Y111190D02*
G02X63569Y113205I-1654J935D01*
G03X64246Y113235I329J227D01*
G02X64336Y111220I1654J-935D01*
G03X63659Y111190I-329J-227D01*
G37*
G36*
G01X54518Y126774D02*
G02X53910Y124795I1219J-1458D01*
G03X53268Y124992I-385J-110D01*
G02X53877Y126971I-1219J1458D01*
G03X54518Y126774I385J110D01*
G37*
G36*
G01X78239Y132052D02*
G02X76361I-939J-1652D01*
G03Y132748I-198J348D01*
G02Y136052I939J1652D01*
G03Y136748I-198J348D01*
G02X78239I939J1652D01*
G03Y136052I198J-348D01*
G02Y132748I-939J-1652D01*
G03Y132052I198J-348D01*
G37*
G36*
G01X53568Y131800D02*
G02X52517Y133166I-1868J-350D01*
G03X53082Y133600I172J361D01*
G02X53078Y134279I1868J350D01*
G03X52522Y134714I-394J69D01*
G02X53622Y136121I-772J1736D01*
G03X54178Y135686I394J-69D01*
G02X54133Y132234I772J-1736D01*
G03X53568Y131800I-172J-361D01*
G37*
G36*
G01X81324Y141863D02*
G02X79902Y140616I376J-1863D01*
G03X79445Y141137I-378J130D01*
G02X80866Y142384I-376J1863D01*
G03X81324Y141863I378J-130D01*
G37*
G36*
G01X6852Y141161D02*
G02X4261Y143752I-1652J939D01*
G03Y144448I-198J348D01*
G02Y147752I939J1652D01*
G03Y148448I-198J348D01*
G02X6852Y151039I939J1652D01*
G03X7548I348J198D01*
G02X10139Y148448I1652J-939D01*
G03Y147752I198J-348D01*
G02Y144448I-939J-1652D01*
G03Y143752I198J-348D01*
G02X7548Y141161I-939J-1652D01*
G03X6852I-348J-198D01*
G37*
G36*
G01X186428Y150771D02*
G02Y153029I-1528J1129D01*
G03X187072I322J238D01*
G02X190022Y153161I1528J-1129D01*
G03X190648Y153196I299J265D01*
G02X193831Y153074I1552J-1096D01*
G03X194544Y153127I343J205D01*
G02X194669Y151426I1756J-727D01*
G03X193956Y151373I-343J-205D01*
G02X190778Y150839I-1756J727D01*
G03X190152Y150804I-299J-265D01*
G02X187072Y150771I-1552J1096D01*
G03X186428I-322J-238D01*
G37*
G36*
G01X192731Y162453D02*
G02X191797Y161130I937J-1653D01*
G03X191206Y161547I-394J69D01*
G02X192140Y162870I-937J1653D01*
G03X192731Y162453I394J-69D01*
G37*
G36*
G01X101863Y211064D02*
G02X101822Y209208I1637J-964D01*
G03X101124Y209223I-353J-188D01*
G02X101165Y211079I-1637J964D01*
G03X101863Y211064I353J188D01*
G37*
G36*
G01X207058Y53345D02*
G03X206958Y53984I-283J283D01*
G02X209167Y54330I867J1691D01*
G03X209267Y53691I283J-283D01*
G02X207058Y53345I-867J-1691D01*
G37*
G36*
G01X53039Y104800D02*
G03X53484Y104388I400J-15D01*
G02X51801Y102570I216J-1888D01*
G03X51356Y102982I-400J15D01*
G02X53039Y104800I-216J1888D01*
G37*
G36*
G01X221966Y107867D02*
G03X221358I-304J-260D01*
G02Y110333I-1446J1233D01*
G03X221966I304J260D01*
G02Y107867I1446J-1233D01*
G37*
G36*
G01X42491Y125219D02*
G03X42473Y124610I251J-312D01*
G02X40009Y124681I-1273J-1410D01*
G03X40027Y125290I-251J312D01*
G02X42491Y125219I1273J1410D01*
G37*
G36*
G01X35370Y125049D02*
G03X35422Y125605I-259J305D01*
G02X38130Y125351I1478J1195D01*
G03X38078Y124795I259J-305D01*
G02X35370Y125049I-1478J-1195D01*
G37*
G36*
G01X13818Y138141D02*
G03X13267Y137788I-151J-370D01*
G02X12088Y139627I-1898J81D01*
G03X12638Y139981I151J370D01*
G02X13818Y138141I1898J-81D01*
G37*
G36*
G01X14177Y157136D02*
G03X13545Y157037I-279J-287D01*
G02X13192Y159295I-1677J894D01*
G03X13823Y159394I279J287D01*
G02X14177Y157136I1677J-894D01*
G37*
G36*
G01X115752Y161796D02*
G03X116378Y161761I327J231D01*
G02X116248Y159404I1422J-1261D01*
G03X115622Y159439I-327J-231D01*
G02X112302Y160790I-1422J1261D01*
G03X111867Y161207I-400J19D01*
G02X113598Y163010I-167J1893D01*
G03X114033Y162593I400J-19D01*
G02X115752Y161796I167J-1893D01*
G37*
G36*
G01X154328Y166422D02*
G03X154547Y165820I335J-219D01*
G02X152410Y165040I-547J-1820D01*
G03X152190Y165642I-335J219D01*
G02X154328Y166422I547J1820D01*
G37*
G36*
G01X119554Y168567D02*
G03X118946I-304J-260D01*
G02X116267Y171246I-1446J1233D01*
G03Y171854I-260J304D01*
G02X118946Y174533I1233J1446D01*
G03X119554I304J260D01*
G02X122446I1446J-1233D01*
G03X123054I304J260D01*
G02X125733Y171854I1446J-1233D01*
G03Y171246I260J-304D01*
G02X123054Y168567I-1233J-1446D01*
G03X122446I-304J-260D01*
G02X119554I-1446J1233D01*
G37*
G36*
G01X182388Y171152D02*
G03X181896Y170737I-93J-389D01*
G02X180442Y172460I-1896J-125D01*
G03X180935Y172875I93J389D01*
G02X182388Y171152I1896J125D01*
G37*
G36*
G01X97290Y176927D02*
G03X96681Y176909I-297J-268D01*
G02X96610Y179373I-1481J1191D01*
G03X97219Y179391I297J268D01*
G02X97290Y176927I1481J-1191D01*
G37*
G36*
G01X98801Y184806D02*
G03X99410Y184606I379J128D01*
G02X98699Y182444I1090J-1556D01*
G03X98090Y182644I-379J-128D01*
G02X95720Y185604I-1090J1556D01*
G03Y186196I-269J296D01*
G02X98280I1280J1404D01*
G03Y185604I269J-296D01*
G02X98801Y184806I-1280J-1404D01*
G37*
G36*
G01X196494Y186141D02*
G03X196211Y185590I83J-391D01*
G02X194074Y186690I-1742J-759D01*
G03X194358Y187241I-83J391D01*
G02X194236Y188372I1742J759D01*
G03X193845Y188850I-392J78D01*
G02X195714Y190378I5J1900D01*
G03X196105Y189900I392J-78D01*
G02X196494Y186141I-5J-1900D01*
G37*
G36*
G01X123054Y208967D02*
G03X122446I-304J-260D01*
G02X119484Y209054I-1446J1233D01*
G03X118876Y209089I-319J-241D01*
G02X119016Y211546I-1375J1311D01*
G03X119624Y211511I319J241D01*
G02X122446Y211433I1376J-1311D01*
G03X123054I304J260D01*
G02Y208967I1446J-1233D01*
G37*
G36*
G01X135715Y136977D02*
G03X135450Y137481I-381J121D01*
G02X137810Y138723I551J1819D01*
G03X138076Y138219I381J-121D01*
G02X138288Y138141I-550J-1819D01*
G03X138821Y138367I159J367D01*
G02X142496Y137828I1779J-667D01*
G03X143035Y137480I399J27D01*
G02X141804Y135572I665J-1780D01*
G03X141265Y135920I-399J-27D01*
G02X139839Y135959I-665J1780D01*
G03X139304Y135733I-160J-367D01*
G02X135708Y135844I-1779J667D01*
G02X135715Y136977I1817J556D01*
G37*
G36*
G01X129250Y120569D02*
G03X129221Y119995I263J-301D01*
G02X126580Y120131I-1390J-1295D01*
G03X126610Y120705I-263J301D01*
G02X129250Y120569I1390J1295D01*
G37*
G36*
G01X140453Y44322D02*
G03X139806Y44191I-279J-287D01*
G02X139380Y46290I-1751J738D01*
G03X140028Y46422I279J287D01*
G02X140453Y44322I1751J-738D01*
G37*
G36*
G01X142596Y104152D02*
G02X140239Y104021I-1096J-1552D01*
G03X140204Y104648I-265J299D01*
G02X142653Y107534I1096J1552D01*
G03X143239Y107552I285J281D01*
G02X146321Y107239I1430J-1252D01*
G03X147016I348J198D01*
G02Y105361I1652J-939D01*
G03X146321I-348J-198D01*
G02X143316Y104966I-1652J939D01*
G03X142730Y104948I-285J-281D01*
G02X142561Y104779I-1430J1251D01*
G03X142596Y104152I265J-299D01*
G37*
G36*
G01X121214Y37381D02*
G02X118059Y39439I-1714J819D01*
G03Y39961I-303J261D01*
G02X120941I1441J1239D01*
G03Y39439I303J-261D01*
G02X121172Y39102I-1441J-1239D01*
G03X121886Y39119I352J190D01*
G02X122296Y39682I1715J-819D01*
G03X122348Y40204I-275J291D01*
G02X125204Y39918I1552J1096D01*
G03X125152Y39396I275J-291D01*
G02X121928Y37398I-1552J-1096D01*
G03X121214Y37381I-352J-190D01*
G37*
G36*
G01X79029Y37151D02*
G02X76438Y39742I-1652J939D01*
G03Y40438I-198J348D01*
G02X79029Y43028I939J1652D01*
G03X79724I348J198D01*
G02X83029I1652J-939D01*
G03X83724I348J198D01*
G02X87029I1652J-939D01*
G03X87724I348J198D01*
G02X91029I1652J-939D01*
G03X91724I348J198D01*
G02X94315Y40438I1652J-939D01*
G03Y39742I198J-348D01*
G02X91724Y37151I-939J-1652D01*
G03X91029I-348J-198D01*
G02X87724I-1652J939D01*
G03X87029I-348J-198D01*
G02X83724I-1652J939D01*
G03X83029I-348J-198D01*
G02X79724I-1652J939D01*
G03X79029I-348J-198D01*
G37*
G54D16*
X15000Y15000D03*
G54D14*
X177643Y19728D03*
G54D15*
X40076Y74550D03*
X33068Y67542D03*
X40076Y60535D03*
X26061Y74550D03*
Y60535D03*
G54D13*
X223080Y155890D03*
X212000Y153200D03*
X211980Y166153D03*
X222200Y147900D03*
X211869Y138532D03*
X226742Y129958D03*
X215789Y106211D03*
X219000Y98300D03*
X223331Y68331D03*
X222000Y76000D03*
X200190Y185012D03*
X201800Y140900D03*
X198331Y93300D03*
X204280Y93162D03*
X193713Y215587D03*
Y197813D03*
X188968Y184400D03*
X186668Y160800D03*
Y165800D03*
X193668D03*
X189468Y140988D03*
X180978Y99222D03*
X192731Y93300D03*
X179689Y70911D03*
X182248Y81052D03*
X192484Y71016D03*
X183500Y59500D03*
X188700Y59300D03*
X183468Y36700D03*
X162336Y195738D03*
X171768D03*
X167600Y172900D03*
X168957Y154247D03*
X164031Y105506D03*
X170031Y93300D03*
X173300Y99124D03*
X169453Y70947D03*
X177130Y81600D03*
X168100Y82450D03*
X160668Y63400D03*
X160968Y36700D03*
X163600Y29900D03*
X157158Y18090D03*
X138500Y209600D03*
X134000Y161800D03*
X131100Y166000D03*
X127200Y161200D03*
X112900Y210100D03*
X115679Y10340D03*
X108300Y210200D03*
X103300Y186900D03*
X98700Y173350D03*
X98600Y154850D03*
X96235Y143235D03*
X100518Y143999D03*
X86950Y169550D03*
X77144Y160456D03*
X89000Y156800D03*
X80105Y153850D03*
X81700Y159800D03*
X86700Y141100D03*
X88500Y133000D03*
X81700Y133400D03*
X63550Y215000D03*
X67200Y157800D03*
X74700Y153700D03*
X66000Y153100D03*
X70800Y160800D03*
X67650Y139350D03*
X72605Y145850D03*
X69300Y148800D03*
X64400Y121600D03*
X69800Y116200D03*
X63400Y93950D03*
X63700Y81500D03*
X57224Y215224D03*
X50501Y190500D03*
X54824Y174476D03*
X51900Y155300D03*
X54824Y162861D03*
X42717Y163783D03*
X55400Y138950D03*
X51050Y141450D03*
X51900Y150300D03*
X54100Y90700D03*
X49527Y13803D03*
X36217Y155402D03*
X40500Y160000D03*
X32000Y161500D03*
X40500Y150900D03*
X39887Y143900D03*
X25300Y143950D03*
X37000Y138000D03*
X26000D03*
X29800Y125200D03*
X33768Y88500D03*
X28047Y91100D03*
X38500Y42900D03*
X38527Y13808D03*
X20500Y161000D03*
X13500Y148600D03*
X14537Y134900D03*
Y119900D03*
Y114900D03*
Y109900D03*
Y104900D03*
X14300Y95132D03*
X14537Y99900D03*
X88877Y66064D03*
X83677Y65990D03*
X78877Y66090D03*
X103268Y37183D03*
X94468Y66000D03*
X108177Y52743D03*
X104577Y69037D03*
X108418Y96182D03*
X112588Y48899D03*
X116076Y52857D03*
X126415Y53390D03*
X114831Y95792D03*
X120831Y95818D03*
X131777Y38790D03*
X129327Y50290D03*
X138027Y50643D03*
X126868Y95792D03*
X132468D03*
X138831Y95818D03*
X133550Y106750D03*
X135200Y102300D03*
X127100Y151400D03*
X147930Y33000D03*
X144668Y95792D03*
X148900Y119100D03*
%LPD*%
G75*
G54D10*
X5400Y124800D03*
Y128800D03*
X24900Y104300D03*
X13400Y124800D03*
X9400D03*
Y128800D03*
X13400D03*
X32600Y43600D03*
Y39600D03*
X36000Y85532D03*
X27800Y106700D03*
X27900Y102200D03*
X29500Y139500D03*
X40000D03*
X27724Y162500D03*
X50269Y82100D03*
X51770Y165630D03*
X56300Y198000D03*
X46500Y207800D03*
X59300Y115753D03*
X67100Y131600D03*
Y127600D03*
X60300Y197900D03*
X70500Y213600D03*
X79977Y95890D03*
X84477Y91190D03*
X79977D03*
X89477D03*
Y96190D03*
X84477Y95890D03*
X79977Y100590D03*
X89477Y100890D03*
X84477Y100590D03*
X80136Y150100D03*
X87800Y179500D03*
X90500Y177300D03*
X104300Y82500D03*
X94377Y86190D03*
X107500Y88700D03*
X104177Y86190D03*
X99477Y91190D03*
X94477D03*
X104177D03*
X99477Y96190D03*
X94477D03*
X99577Y86190D03*
X107400Y84700D03*
X94477Y100890D03*
X99477D03*
X103382Y150462D03*
X109300Y174000D03*
X98700Y167700D03*
X121177Y15390D03*
Y19321D03*
X125500Y106000D03*
X125600Y109000D03*
X124200Y135800D03*
Y139800D03*
X122600Y161200D03*
X117100Y199400D03*
X127177Y19321D03*
X139911Y31624D03*
X133377Y18990D03*
X128900Y106000D03*
Y109100D03*
X128200Y135800D03*
Y139800D03*
X133200Y150900D03*
X131950Y198900D03*
X141746Y216700D03*
X135165D03*
X159768Y49000D03*
X159700Y52700D03*
X158931Y92500D03*
X145481Y165600D03*
X145000Y171300D03*
X144200Y188100D03*
X156500Y211400D03*
X159600D03*
X172468Y36700D03*
X166968D03*
X163668Y49000D03*
X163600Y52700D03*
X175531Y93000D03*
X164431D03*
X168957Y160247D03*
Y166153D03*
X188968Y36700D03*
X177968D03*
X186531Y93000D03*
X181031D03*
X183968Y140988D03*
X190900Y189200D03*
X194468Y36700D03*
X201370Y51970D03*
X195190Y140988D03*
X203100Y173600D03*
X199100D03*
X217772Y116800D03*
X211980Y160247D03*
X231811Y115689D03*
G54D11*
G01X-133069Y-114500D02*
X371600D01*
Y-209700D01*
X-133069D01*
G01Y-114500D02*
Y-209700D01*
G01Y-189700D02*
X449900D01*
G01X-133069Y-169700D02*
X449900D01*
G01X-133069Y-149700D02*
X449900D01*
G01X-133069Y-130500D02*
X449900D01*
G01X371600Y-114500D02*
X449900D01*
Y-209700D01*
X371600D01*
G54D12*
G01X-127194Y-203500D02*
Y-193500D01*
X-122444D01*
G01X-124194Y-198333D02*
X-127194D01*
G01X-116319Y-193500D02*
X-113320D01*
G01X-114819D02*
Y-203500D01*
G01X-116319D02*
X-113320D01*
G01X-107319Y-193500D02*
Y-203500D01*
X-102319D01*
G01X-98069D02*
Y-193500D01*
X-94819Y-201833D01*
X-91569Y-193500D01*
Y-203500D01*
G01X-77319Y-193500D02*
Y-203500D01*
X-72319D01*
G01X-67944D02*
X-64819Y-193500D01*
X-61694Y-203500D01*
G01X-62819Y-200000D02*
X-66819D01*
G01X-54819Y-203500D02*
Y-199000D01*
X-57319Y-193500D01*
G01X-52319D02*
X-54819Y-199000D01*
G01X-42319Y-203500D02*
X-47319D01*
Y-193500D01*
X-42319D01*
G01X-44319Y-198333D02*
X-47319D01*
G01X-37319Y-203500D02*
Y-193500D01*
X-34194D01*
X-33194Y-194000D01*
X-32569Y-194667D01*
X-32319Y-196000D01*
X-32569Y-197333D01*
X-33319Y-198167D01*
X-34194Y-198667D01*
X-37319D01*
G01X-34194D02*
X-32319Y-203500D01*
G01X-24819Y-203833D02*
X-25069Y-203667D01*
Y-203333D01*
X-24819Y-203167D01*
X-24569Y-203333D01*
Y-203667D01*
X-24819Y-203833D01*
G01Y-199334D02*
X-25069Y-199167D01*
Y-198833D01*
X-24819Y-198667D01*
X-24569Y-198833D01*
Y-199167D01*
X-24819Y-199334D01*
G01X-127569Y-165000D02*
Y-155000D01*
X-125069D01*
X-124069Y-155500D01*
X-123319Y-156167D01*
X-122694Y-157166D01*
X-122194Y-158334D01*
X-122069Y-160000D01*
X-122194Y-161667D01*
X-122694Y-162834D01*
X-123319Y-163834D01*
X-124069Y-164500D01*
X-125069Y-165000D01*
X-127569D01*
G01X-112319D02*
X-117319D01*
Y-155000D01*
X-112319D01*
G01X-114319Y-159833D02*
X-117319D01*
G01X-107444Y-163667D02*
X-106444Y-164500D01*
X-105319Y-165000D01*
X-104319D01*
X-103319Y-164500D01*
X-102569Y-163667D01*
X-102194Y-162500D01*
X-102444Y-161334D01*
X-103069Y-160333D01*
X-104194Y-159667D01*
X-105694Y-159333D01*
X-106569Y-158667D01*
X-106944Y-157500D01*
X-106694Y-156333D01*
X-106069Y-155500D01*
X-105194Y-155000D01*
X-104319D01*
X-103444Y-155333D01*
X-102694Y-156167D01*
G01X-96319Y-155000D02*
X-93320D01*
G01X-94819D02*
Y-165000D01*
G01X-96319D02*
X-93320D01*
G01X-84069Y-160000D02*
X-81569D01*
Y-163000D01*
X-82319Y-164000D01*
X-83194Y-164667D01*
X-84444Y-165000D01*
X-85694Y-164667D01*
X-86569Y-164000D01*
X-87319Y-163000D01*
X-87820Y-161833D01*
X-88069Y-160500D01*
Y-159333D01*
X-87820Y-158334D01*
X-87319Y-157166D01*
X-86569Y-156167D01*
X-85819Y-155500D01*
X-84819Y-155000D01*
X-83944D01*
X-82944Y-155333D01*
X-82194Y-156000D01*
G01X-77694Y-165000D02*
Y-155000D01*
X-71944Y-165000D01*
Y-155000D01*
G01X-62319Y-165000D02*
X-67319D01*
Y-155000D01*
X-62319D01*
G01X-64319Y-159833D02*
X-67319D01*
G01X-57569Y-165000D02*
Y-155000D01*
X-55069D01*
X-54069Y-155500D01*
X-53319Y-156167D01*
X-52694Y-157166D01*
X-52194Y-158334D01*
X-52069Y-160000D01*
X-52194Y-161667D01*
X-52694Y-162834D01*
X-53319Y-163834D01*
X-54069Y-164500D01*
X-55069Y-165000D01*
X-57569D01*
G01X-37944D02*
X-34819Y-155000D01*
X-31694Y-165000D01*
G01X-32819Y-161500D02*
X-36819D01*
G01X-24819Y-155000D02*
Y-165000D01*
G01X-27694Y-155000D02*
X-21944D01*
G01X-14819Y-165333D02*
X-15069Y-165167D01*
Y-164833D01*
X-14819Y-164667D01*
X-14569Y-164833D01*
Y-165167D01*
X-14819Y-165333D01*
G01Y-160834D02*
X-15069Y-160667D01*
Y-160333D01*
X-14819Y-160167D01*
X-14569Y-160333D01*
Y-160667D01*
X-14819Y-160834D01*
G01X-7944Y-165000D02*
X-4819Y-155000D01*
X-1694Y-165000D01*
G01X-2819Y-161500D02*
X-6819D01*
G01X2681Y-165000D02*
Y-155000D01*
X5806D01*
X6806Y-155500D01*
X7431Y-156167D01*
X7681Y-157500D01*
X7431Y-158833D01*
X6681Y-159667D01*
X5806Y-160167D01*
X2681D01*
G01X5806D02*
X7681Y-165000D01*
G01X13681Y-155000D02*
X16680D01*
G01X15181D02*
Y-165000D01*
G01X13681D02*
X16680D01*
G01X27931Y-155834D02*
X27181Y-155333D01*
X26306Y-155000D01*
X25306D01*
X24181Y-155500D01*
X23306Y-156333D01*
X22681Y-157333D01*
X22180Y-159000D01*
X22056Y-160500D01*
X22306Y-162000D01*
X22681Y-163000D01*
X23431Y-164000D01*
X24306Y-164667D01*
X25181Y-165000D01*
X26056D01*
X26931Y-164667D01*
X27681Y-164167D01*
X28306Y-163500D01*
G01X37681Y-165000D02*
X32681D01*
Y-155000D01*
X37681D01*
G01X35681Y-159833D02*
X32681D01*
G01X42306Y-165000D02*
Y-155000D01*
X48056Y-165000D01*
Y-155000D01*
G01X55181D02*
Y-165000D01*
G01X52306Y-155000D02*
X58056D01*
G01X-127569Y-145000D02*
Y-135000D01*
X-125069D01*
X-124069Y-135500D01*
X-123319Y-136167D01*
X-122694Y-137166D01*
X-122194Y-138334D01*
X-122069Y-140000D01*
X-122194Y-141667D01*
X-122694Y-142834D01*
X-123319Y-143834D01*
X-124069Y-144500D01*
X-125069Y-145000D01*
X-127569D01*
G01X-117944D02*
X-114819Y-135000D01*
X-111694Y-145000D01*
G01X-112819Y-141500D02*
X-116819D01*
G01X-104819Y-135000D02*
Y-145000D01*
G01X-107694Y-135000D02*
X-101944D01*
G01X-92319Y-145000D02*
X-97319D01*
Y-135000D01*
X-92319D01*
G01X-94319Y-139833D02*
X-97319D01*
G01X-84819Y-145333D02*
X-85069Y-145167D01*
Y-144833D01*
X-84819Y-144667D01*
X-84569Y-144833D01*
Y-145167D01*
X-84819Y-145333D01*
G01Y-140834D02*
X-85069Y-140667D01*
Y-140333D01*
X-84819Y-140167D01*
X-84569Y-140333D01*
Y-140667D01*
X-84819Y-140834D01*
G01X-74819Y-135000D02*
X-75819Y-135333D01*
X-76569Y-136167D01*
X-77069Y-137166D01*
X-77444Y-138500D01*
X-77569Y-140000D01*
X-77444Y-141500D01*
X-77069Y-142834D01*
X-76569Y-143834D01*
X-75819Y-144667D01*
X-74819Y-145000D01*
X-73819Y-144667D01*
X-73069Y-143834D01*
X-72569Y-142834D01*
X-72194Y-141500D01*
X-72069Y-140000D01*
X-72194Y-138500D01*
X-72569Y-137166D01*
X-73069Y-136167D01*
X-73819Y-135333D01*
X-74819Y-135000D01*
G01X-64819Y-145000D02*
Y-135000D01*
X-66319Y-137000D01*
G01Y-145000D02*
X-63320D01*
G01X-56444Y-141667D02*
X-53194D01*
G01X-44819Y-135000D02*
X-45819Y-135333D01*
X-46569Y-136167D01*
X-47069Y-137166D01*
X-47444Y-138500D01*
X-47569Y-140000D01*
X-47444Y-141500D01*
X-47069Y-142834D01*
X-46569Y-143834D01*
X-45819Y-144667D01*
X-44819Y-145000D01*
X-43819Y-144667D01*
X-43069Y-143834D01*
X-42569Y-142834D01*
X-42194Y-141500D01*
X-42069Y-140000D01*
X-42194Y-138500D01*
X-42569Y-137166D01*
X-43069Y-136167D01*
X-43819Y-135333D01*
X-44819Y-135000D01*
G01X-37569Y-143000D02*
X-36819Y-144167D01*
X-35819Y-144833D01*
X-34694Y-145000D01*
X-33694Y-144833D01*
X-32694Y-144000D01*
X-32069Y-143000D01*
X-31944Y-142000D01*
X-32194Y-140834D01*
X-33069Y-140000D01*
X-33944Y-139667D01*
X-35069D01*
G01X-33944D02*
X-33194Y-139167D01*
X-32569Y-138334D01*
X-32319Y-137333D01*
X-32569Y-136333D01*
X-33194Y-135500D01*
X-34319Y-135000D01*
X-35444Y-135167D01*
X-36569Y-135834D01*
G01X-26444Y-141667D02*
X-23194D01*
G01X-17194Y-136667D02*
X-16444Y-135667D01*
X-15569Y-135167D01*
X-14569Y-135000D01*
X-13319Y-135333D01*
X-12444Y-136167D01*
X-12194Y-137166D01*
X-12319Y-138167D01*
X-12819Y-139000D01*
X-15319Y-140667D01*
X-16444Y-141833D01*
X-17194Y-143500D01*
X-17444Y-145000D01*
X-12194D01*
G01X-4819Y-135000D02*
X-5819Y-135333D01*
X-6569Y-136167D01*
X-7069Y-137166D01*
X-7444Y-138500D01*
X-7569Y-140000D01*
X-7444Y-141500D01*
X-7069Y-142834D01*
X-6569Y-143834D01*
X-5819Y-144667D01*
X-4819Y-145000D01*
X-3819Y-144667D01*
X-3069Y-143834D01*
X-2569Y-142834D01*
X-2194Y-141500D01*
X-2069Y-140000D01*
X-2194Y-138500D01*
X-2569Y-137166D01*
X-3069Y-136167D01*
X-3819Y-135333D01*
X-4819Y-135000D01*
G01X5181Y-145000D02*
Y-135000D01*
X3681Y-137000D01*
G01Y-145000D02*
X6680D01*
G01X14931D02*
X15181Y-142834D01*
X15556Y-141000D01*
X16056Y-139333D01*
X16681Y-137500D01*
X17681Y-135000D01*
X12681D01*
G01X-121200Y-176034D02*
X-121950Y-175533D01*
X-122825Y-175200D01*
X-123825D01*
X-124950Y-175700D01*
X-125825Y-176533D01*
X-126450Y-177533D01*
X-126950Y-179200D01*
X-127075Y-180700D01*
X-126825Y-182200D01*
X-126450Y-183200D01*
X-125700Y-184200D01*
X-124825Y-184867D01*
X-123950Y-185200D01*
X-123075D01*
X-122200Y-184867D01*
X-121450Y-184367D01*
X-120825Y-183700D01*
G01X-117075Y-185200D02*
X-113950Y-175200D01*
X-110825Y-185200D01*
G01X-111950Y-181700D02*
X-115950D01*
G01X-106450Y-185200D02*
Y-175200D01*
X-103325D01*
X-102325Y-175700D01*
X-101700Y-176367D01*
X-101450Y-177700D01*
X-101700Y-179033D01*
X-102450Y-179867D01*
X-103325Y-180367D01*
X-106450D01*
G01X-103325D02*
X-101450Y-185200D01*
G01X-96700D02*
Y-175200D01*
X-94200D01*
X-93200Y-175700D01*
X-92450Y-176367D01*
X-91825Y-177366D01*
X-91325Y-178534D01*
X-91200Y-180200D01*
X-91325Y-181867D01*
X-91825Y-183034D01*
X-92450Y-184034D01*
X-93200Y-184700D01*
X-94200Y-185200D01*
X-96700D01*
G01X-76450D02*
Y-175200D01*
X-73325D01*
X-72325Y-175700D01*
X-71700Y-176367D01*
X-71450Y-177700D01*
X-71700Y-179033D01*
X-72450Y-179867D01*
X-73325Y-180367D01*
X-76450D01*
G01X-73325D02*
X-71450Y-185200D01*
G01X-61450D02*
X-66450D01*
Y-175200D01*
X-61450D01*
G01X-63450Y-180033D02*
X-66450D01*
G01X-56325Y-185200D02*
Y-175200D01*
X-51575D01*
G01X-53325Y-180033D02*
X-56325D01*
G01X-43950Y-185533D02*
X-44200Y-185367D01*
Y-185033D01*
X-43950Y-184867D01*
X-43700Y-185033D01*
Y-185367D01*
X-43950Y-185533D01*
G01Y-181034D02*
X-44200Y-180867D01*
Y-180533D01*
X-43950Y-180367D01*
X-43700Y-180533D01*
Y-180867D01*
X-43950Y-181034D01*
G01X-33950Y-185200D02*
X-34950Y-185033D01*
X-35825Y-184367D01*
X-36575Y-183367D01*
X-37075Y-182200D01*
X-37325Y-180867D01*
Y-179533D01*
X-37075Y-178200D01*
X-36575Y-177033D01*
X-35825Y-176034D01*
X-34950Y-175367D01*
X-33950Y-175200D01*
X-32950Y-175367D01*
X-32075Y-176034D01*
X-31325Y-177033D01*
X-30825Y-178200D01*
X-30575Y-179533D01*
Y-180867D01*
X-30825Y-182200D01*
X-31325Y-183367D01*
X-32075Y-184367D01*
X-32950Y-185033D01*
X-33950Y-185200D01*
G01X-26450D02*
Y-175200D01*
X-23450D01*
X-22450Y-175700D01*
X-21700Y-176867D01*
X-21450Y-178200D01*
X-21700Y-179533D01*
X-22325Y-180533D01*
X-23450Y-181034D01*
X-26450D01*
G01X-11450Y-185200D02*
X-16450D01*
Y-175200D01*
X-11450D01*
G01X-13450Y-180033D02*
X-16450D01*
G01X-6825Y-185200D02*
Y-175200D01*
X-1075Y-185200D01*
Y-175200D01*
G01X8800Y-176034D02*
X8050Y-175533D01*
X7175Y-175200D01*
X6175D01*
X5050Y-175700D01*
X4175Y-176533D01*
X3550Y-177533D01*
X3050Y-179200D01*
X2925Y-180700D01*
X3175Y-182200D01*
X3550Y-183200D01*
X4300Y-184200D01*
X5175Y-184867D01*
X6050Y-185200D01*
X6925D01*
X7800Y-184867D01*
X8550Y-184367D01*
X9175Y-183700D01*
G01X18550Y-185200D02*
X13550D01*
Y-175200D01*
X18550D01*
G01X16550Y-180033D02*
X13550D01*
G01X23550Y-175200D02*
Y-185200D01*
X28550D01*
G01X33550Y-175200D02*
Y-185200D01*
X38550D01*
G01X43300Y-175200D02*
Y-182367D01*
X43800Y-183867D01*
X44800Y-184867D01*
X46050Y-185200D01*
X47300Y-184867D01*
X48300Y-183867D01*
X48800Y-182367D01*
Y-175200D01*
G01X53550D02*
Y-185200D01*
X58550D01*
G01X62925D02*
X66050Y-175200D01*
X69175Y-185200D01*
G01X68050Y-181700D02*
X64050D01*
G01X73550Y-185200D02*
Y-175200D01*
X76675D01*
X77675Y-175700D01*
X78300Y-176367D01*
X78550Y-177700D01*
X78300Y-179033D01*
X77550Y-179867D01*
X76675Y-180367D01*
X73550D01*
G01X76675D02*
X78550Y-185200D01*
G01X96050D02*
Y-175200D01*
G01X108800Y-176034D02*
X108050Y-175533D01*
X107175Y-175200D01*
X106175D01*
X105050Y-175700D01*
X104175Y-176533D01*
X103550Y-177533D01*
X103050Y-179200D01*
X102925Y-180700D01*
X103175Y-182200D01*
X103550Y-183200D01*
X104300Y-184200D01*
X105175Y-184867D01*
X106050Y-185200D01*
X106925D01*
X107800Y-184867D01*
X108550Y-184367D01*
X109175Y-183700D01*
G01X116050Y-185200D02*
X115050Y-185033D01*
X114175Y-184367D01*
X113425Y-183367D01*
X112925Y-182200D01*
X112675Y-180867D01*
Y-179533D01*
X112925Y-178200D01*
X113425Y-177033D01*
X114175Y-176034D01*
X115050Y-175367D01*
X116050Y-175200D01*
X117050Y-175367D01*
X117925Y-176034D01*
X118675Y-177033D01*
X119175Y-178200D01*
X119425Y-179533D01*
Y-180867D01*
X119175Y-182200D01*
X118675Y-183367D01*
X117925Y-184367D01*
X117050Y-185033D01*
X116050Y-185200D01*
G01X123175D02*
Y-175200D01*
X128925Y-185200D01*
Y-175200D01*
G01X133175Y-185200D02*
Y-175200D01*
X138925Y-185200D01*
Y-175200D01*
G01X148550Y-185200D02*
X143550D01*
Y-175200D01*
X148550D01*
G01X146550Y-180033D02*
X143550D01*
G01X158800Y-176034D02*
X158050Y-175533D01*
X157175Y-175200D01*
X156175D01*
X155050Y-175700D01*
X154175Y-176533D01*
X153550Y-177533D01*
X153050Y-179200D01*
X152925Y-180700D01*
X153175Y-182200D01*
X153550Y-183200D01*
X154300Y-184200D01*
X155175Y-184867D01*
X156050Y-185200D01*
X156925D01*
X157800Y-184867D01*
X158550Y-184367D01*
X159175Y-183700D01*
G01X166050Y-175200D02*
Y-185200D01*
G01X163175Y-175200D02*
X168925D01*
G01X174425Y-181867D02*
X177675D01*
G01X186050Y-185200D02*
Y-175200D01*
X184550Y-177200D01*
G01Y-185200D02*
X187550D01*
G01X206050D02*
Y-175200D01*
G01X213425Y-183867D02*
X214425Y-184700D01*
X215550Y-185200D01*
X216550D01*
X217550Y-184700D01*
X218300Y-183867D01*
X218675Y-182700D01*
X218425Y-181534D01*
X217800Y-180533D01*
X216675Y-179867D01*
X215175Y-179533D01*
X214300Y-178867D01*
X213925Y-177700D01*
X214175Y-176533D01*
X214800Y-175700D01*
X215675Y-175200D01*
X216550D01*
X217425Y-175533D01*
X218175Y-176367D01*
G01X226050Y-185200D02*
Y-180700D01*
X223550Y-175200D01*
G01X228550D02*
X226050Y-180700D01*
G01X233175Y-185200D02*
Y-175200D01*
X238925Y-185200D01*
Y-175200D01*
G01X248800Y-176034D02*
X248050Y-175533D01*
X247175Y-175200D01*
X246175D01*
X245050Y-175700D01*
X244175Y-176533D01*
X243550Y-177533D01*
X243050Y-179200D01*
X242925Y-180700D01*
X243175Y-182200D01*
X243550Y-183200D01*
X244300Y-184200D01*
X245175Y-184867D01*
X246050Y-185200D01*
X246925D01*
X247800Y-184867D01*
X248550Y-184367D01*
X249175Y-183700D01*
G01X267050Y-179867D02*
X267550Y-179367D01*
X267925Y-178534D01*
X268175Y-177366D01*
X267925Y-176367D01*
X267425Y-175700D01*
X266550Y-175200D01*
X263175D01*
Y-185200D01*
X267300D01*
X268175Y-184534D01*
X268675Y-183533D01*
X268925Y-182367D01*
X268675Y-181200D01*
X267925Y-180200D01*
X267050Y-179867D01*
X263175D01*
G01X276050Y-185200D02*
X275050Y-185033D01*
X274175Y-184367D01*
X273425Y-183367D01*
X272925Y-182200D01*
X272675Y-180867D01*
Y-179533D01*
X272925Y-178200D01*
X273425Y-177033D01*
X274175Y-176034D01*
X275050Y-175367D01*
X276050Y-175200D01*
X277050Y-175367D01*
X277925Y-176034D01*
X278675Y-177033D01*
X279175Y-178200D01*
X279425Y-179533D01*
Y-180867D01*
X279175Y-182200D01*
X278675Y-183367D01*
X277925Y-184367D01*
X277050Y-185033D01*
X276050Y-185200D01*
G01X282925D02*
X286050Y-175200D01*
X289175Y-185200D01*
G01X288050Y-181700D02*
X284050D01*
G01X293550Y-185200D02*
Y-175200D01*
X296675D01*
X297675Y-175700D01*
X298300Y-176367D01*
X298550Y-177700D01*
X298300Y-179033D01*
X297550Y-179867D01*
X296675Y-180367D01*
X293550D01*
G01X296675D02*
X298550Y-185200D01*
G01X303300D02*
Y-175200D01*
X305800D01*
X306800Y-175700D01*
X307550Y-176367D01*
X308175Y-177366D01*
X308675Y-178534D01*
X308800Y-180200D01*
X308675Y-181867D01*
X308175Y-183034D01*
X307550Y-184034D01*
X306800Y-184700D01*
X305800Y-185200D01*
X303300D01*
G01X-1319Y-194500D02*
Y-204500D01*
X3681D01*
G01X8056D02*
X11181Y-194500D01*
X14306Y-204500D01*
G01X13181Y-201000D02*
X9181D01*
G01X21181Y-204500D02*
Y-200000D01*
X18681Y-194500D01*
G01X23681D02*
X21181Y-200000D01*
G01X33681Y-204500D02*
X28681D01*
Y-194500D01*
X33681D01*
G01X31681Y-199333D02*
X28681D01*
G01X38681Y-204500D02*
Y-194500D01*
X41806D01*
X42806Y-195000D01*
X43431Y-195667D01*
X43681Y-197000D01*
X43431Y-198333D01*
X42681Y-199167D01*
X41806Y-199667D01*
X38681D01*
G01X41806D02*
X43681Y-204500D01*
G01X48431Y-203000D02*
X49181Y-203834D01*
X50056Y-204333D01*
X51181Y-204500D01*
X52306Y-204167D01*
X53181Y-203500D01*
X53806Y-202334D01*
X53931Y-201000D01*
X53681Y-199667D01*
X53056Y-198833D01*
X52181Y-198167D01*
X51306Y-198000D01*
X50431Y-198167D01*
X49306Y-198833D01*
X49681Y-194500D01*
X53056D01*
G01X4000Y220000D02*
X0Y216000D01*
Y4000D01*
X4000Y0D01*
X236000D01*
X240000Y4000D01*
Y216000D01*
X236000Y220000D01*
X4000D01*
G01X15693Y-127100D02*
Y-117100D01*
X20444D01*
G01X18694Y-121933D02*
X15693D01*
G01X24943Y-127100D02*
X28068Y-117100D01*
X31194Y-127100D01*
G01X30068Y-123600D02*
X26068D01*
G01X40818Y-117934D02*
X40068Y-117433D01*
X39194Y-117100D01*
X38194D01*
X37068Y-117600D01*
X36194Y-118433D01*
X35568Y-119433D01*
X35068Y-121100D01*
X34943Y-122600D01*
X35194Y-124100D01*
X35568Y-125100D01*
X36318Y-126100D01*
X37194Y-126767D01*
X38068Y-127100D01*
X38943D01*
X39818Y-126767D01*
X40568Y-126267D01*
X41194Y-125600D01*
G01X50569Y-127100D02*
X45568D01*
Y-117100D01*
X50569D01*
G01X48568Y-121933D02*
X45568D01*
G01X59068Y-121767D02*
X59568Y-121267D01*
X59943Y-120434D01*
X60194Y-119267D01*
X59943Y-118267D01*
X59443Y-117600D01*
X58568Y-117100D01*
X55193D01*
Y-127100D01*
X59319D01*
X60194Y-126434D01*
X60694Y-125433D01*
X60943Y-124267D01*
X60694Y-123100D01*
X59943Y-122100D01*
X59068Y-121767D01*
X55193D01*
G01X68068Y-127100D02*
X67068Y-126933D01*
X66194Y-126267D01*
X65444Y-125267D01*
X64943Y-124100D01*
X64693Y-122767D01*
Y-121433D01*
X64943Y-120100D01*
X65444Y-118933D01*
X66194Y-117934D01*
X67068Y-117267D01*
X68068Y-117100D01*
X69068Y-117267D01*
X69943Y-117934D01*
X70694Y-118933D01*
X71194Y-120100D01*
X71444Y-121433D01*
Y-122767D01*
X71194Y-124100D01*
X70694Y-125267D01*
X69943Y-126267D01*
X69068Y-126933D01*
X68068Y-127100D01*
G01X78068D02*
X77068Y-126933D01*
X76194Y-126267D01*
X75444Y-125267D01*
X74943Y-124100D01*
X74693Y-122767D01*
Y-121433D01*
X74943Y-120100D01*
X75444Y-118933D01*
X76194Y-117934D01*
X77068Y-117267D01*
X78068Y-117100D01*
X79068Y-117267D01*
X79943Y-117934D01*
X80694Y-118933D01*
X81194Y-120100D01*
X81444Y-121433D01*
Y-122767D01*
X81194Y-124100D01*
X80694Y-125267D01*
X79943Y-126267D01*
X79068Y-126933D01*
X78068Y-127100D01*
G01X85318D02*
Y-117100D01*
G01X90068D02*
X85318Y-123267D01*
G01X90818Y-127100D02*
X87444Y-120434D01*
G01X67681Y-143000D02*
X68306Y-144000D01*
X69056Y-144667D01*
X69931Y-145000D01*
X70931Y-144667D01*
X71681Y-144000D01*
X72431Y-143000D01*
X72681Y-141667D01*
Y-135000D01*
G01X80181Y-145000D02*
X79181Y-144833D01*
X78306Y-144167D01*
X77556Y-143167D01*
X77056Y-142000D01*
X76806Y-140667D01*
Y-139333D01*
X77056Y-138000D01*
X77556Y-136833D01*
X78306Y-135834D01*
X79181Y-135167D01*
X80181Y-135000D01*
X81181Y-135167D01*
X82056Y-135834D01*
X82806Y-136833D01*
X83306Y-138000D01*
X83556Y-139333D01*
Y-140667D01*
X83306Y-142000D01*
X82806Y-143167D01*
X82056Y-144167D01*
X81181Y-144833D01*
X80181Y-145000D01*
G01X91181Y-139667D02*
X91681Y-139167D01*
X92056Y-138334D01*
X92306Y-137166D01*
X92056Y-136167D01*
X91556Y-135500D01*
X90681Y-135000D01*
X87306D01*
Y-145000D01*
X91431D01*
X92306Y-144334D01*
X92806Y-143333D01*
X93056Y-142167D01*
X92806Y-141000D01*
X92056Y-140000D01*
X91181Y-139667D01*
X87306D01*
G01X107306Y-145000D02*
Y-135000D01*
X113056Y-145000D01*
Y-135000D01*
G01X117431D02*
Y-142167D01*
X117931Y-143667D01*
X118931Y-144667D01*
X120181Y-145000D01*
X121431Y-144667D01*
X122431Y-143667D01*
X122931Y-142167D01*
Y-135000D01*
G01X126931Y-145000D02*
Y-135000D01*
X130181Y-143333D01*
X133431Y-135000D01*
Y-145000D01*
G01X141181Y-139667D02*
X141681Y-139167D01*
X142056Y-138334D01*
X142306Y-137166D01*
X142056Y-136167D01*
X141556Y-135500D01*
X140681Y-135000D01*
X137306D01*
Y-145000D01*
X141431D01*
X142306Y-144334D01*
X142806Y-143333D01*
X143056Y-142167D01*
X142806Y-141000D01*
X142056Y-140000D01*
X141181Y-139667D01*
X137306D01*
G01X152681Y-145000D02*
X147681D01*
Y-135000D01*
X152681D01*
G01X150681Y-139833D02*
X147681D01*
G01X157681Y-145000D02*
Y-135000D01*
X160806D01*
X161806Y-135500D01*
X162431Y-136167D01*
X162681Y-137500D01*
X162431Y-138833D01*
X161681Y-139667D01*
X160806Y-140167D01*
X157681D01*
G01X160806D02*
X162681Y-145000D01*
G01X170181Y-145333D02*
X169931Y-145167D01*
Y-144833D01*
X170181Y-144667D01*
X170431Y-144833D01*
Y-145167D01*
X170181Y-145333D01*
G01Y-140834D02*
X169931Y-140667D01*
Y-140333D01*
X170181Y-140167D01*
X170431Y-140333D01*
Y-140667D01*
X170181Y-140834D01*
G01X177806Y-136667D02*
X178556Y-135667D01*
X179431Y-135167D01*
X180431Y-135000D01*
X181681Y-135333D01*
X182556Y-136167D01*
X182806Y-137166D01*
X182681Y-138167D01*
X182181Y-139000D01*
X179681Y-140667D01*
X178556Y-141833D01*
X177806Y-143500D01*
X177556Y-145000D01*
X182806D01*
G01X187431Y-143000D02*
X188181Y-144167D01*
X189181Y-144833D01*
X190306Y-145000D01*
X191306Y-144833D01*
X192306Y-144000D01*
X192931Y-143000D01*
X193056Y-142000D01*
X192806Y-140834D01*
X191931Y-140000D01*
X191056Y-139667D01*
X189931D01*
G01X191056D02*
X191806Y-139167D01*
X192431Y-138334D01*
X192681Y-137333D01*
X192431Y-136333D01*
X191806Y-135500D01*
X190681Y-135000D01*
X189556Y-135167D01*
X188431Y-135834D01*
G01X200181Y-145000D02*
Y-135000D01*
X198681Y-137000D01*
G01Y-145000D02*
X201681D01*
G01X208556Y-141667D02*
X211806D01*
G01X220181Y-135000D02*
X219181Y-135333D01*
X218431Y-136167D01*
X217931Y-137166D01*
X217556Y-138500D01*
X217431Y-140000D01*
X217556Y-141500D01*
X217931Y-142834D01*
X218431Y-143834D01*
X219181Y-144667D01*
X220181Y-145000D01*
X221181Y-144667D01*
X221931Y-143834D01*
X222431Y-142834D01*
X222806Y-141500D01*
X222931Y-140000D01*
X222806Y-138500D01*
X222431Y-137166D01*
X221931Y-136167D01*
X221181Y-135333D01*
X220181Y-135000D01*
G01X230181D02*
X229181Y-135333D01*
X228431Y-136167D01*
X227931Y-137166D01*
X227556Y-138500D01*
X227431Y-140000D01*
X227556Y-141500D01*
X227931Y-142834D01*
X228431Y-143834D01*
X229181Y-144667D01*
X230181Y-145000D01*
X231181Y-144667D01*
X231931Y-143834D01*
X232431Y-142834D01*
X232806Y-141500D01*
X232931Y-140000D01*
X232806Y-138500D01*
X232431Y-137166D01*
X231931Y-136167D01*
X231181Y-135333D01*
X230181Y-135000D01*
G01X240181D02*
X239181Y-135333D01*
X238431Y-136167D01*
X237931Y-137166D01*
X237556Y-138500D01*
X237431Y-140000D01*
X237556Y-141500D01*
X237931Y-142834D01*
X238431Y-143834D01*
X239181Y-144667D01*
X240181Y-145000D01*
X241181Y-144667D01*
X241931Y-143834D01*
X242431Y-142834D01*
X242806Y-141500D01*
X242931Y-140000D01*
X242806Y-138500D01*
X242431Y-137166D01*
X241931Y-136167D01*
X241181Y-135333D01*
X240181Y-135000D01*
G01X250181D02*
X249181Y-135333D01*
X248431Y-136167D01*
X247931Y-137166D01*
X247556Y-138500D01*
X247431Y-140000D01*
X247556Y-141500D01*
X247931Y-142834D01*
X248431Y-143834D01*
X249181Y-144667D01*
X250181Y-145000D01*
X251181Y-144667D01*
X251931Y-143834D01*
X252431Y-142834D01*
X252806Y-141500D01*
X252931Y-140000D01*
X252806Y-138500D01*
X252431Y-137166D01*
X251931Y-136167D01*
X251181Y-135333D01*
X250181Y-135000D01*
G01X257806Y-140834D02*
X258681Y-139667D01*
X259431Y-139000D01*
X260431Y-138667D01*
X261306Y-139000D01*
X261931Y-139667D01*
X262431Y-140667D01*
X262556Y-141833D01*
X262431Y-142834D01*
X261931Y-143834D01*
X261181Y-144667D01*
X260306Y-145000D01*
X259306Y-144667D01*
X258431Y-143667D01*
X257931Y-142167D01*
X257806Y-140500D01*
X258056Y-138334D01*
X258431Y-137166D01*
X259056Y-136000D01*
X259931Y-135167D01*
X260806Y-135000D01*
X261681Y-135333D01*
X262306Y-136167D01*
G01X268056Y-143834D02*
X268931Y-144667D01*
X269931Y-145000D01*
X270931Y-144667D01*
X271806Y-143667D01*
X272431Y-142167D01*
X272681Y-140667D01*
Y-138833D01*
X272431Y-137333D01*
X271806Y-136000D01*
X271056Y-135333D01*
X270181Y-135000D01*
X269181Y-135333D01*
X268431Y-136000D01*
X267931Y-137000D01*
X267681Y-138334D01*
X267931Y-139500D01*
X268556Y-140667D01*
X269306Y-141334D01*
X270181Y-141500D01*
X271181Y-141167D01*
X271931Y-140333D01*
X272681Y-138833D01*
G01X379781Y-175500D02*
Y-185500D01*
X384781D01*
G01X392281Y-178834D02*
Y-185500D01*
G01Y-176167D02*
X392031Y-176000D01*
Y-175667D01*
X392281Y-175500D01*
X392531Y-175667D01*
Y-176000D01*
X392281Y-176167D01*
G01X401531Y-185500D02*
Y-177000D01*
X401781Y-176167D01*
X402281Y-175667D01*
X403031Y-175500D01*
X403781Y-175833D01*
X404156Y-176667D01*
G01X402656Y-179500D02*
X400156D01*
G01X410406Y-181000D02*
X414406D01*
X414031Y-179833D01*
X413406Y-179167D01*
X412531Y-178834D01*
X411656Y-179000D01*
X410906Y-179500D01*
X410406Y-180667D01*
X410156Y-181667D01*
Y-182667D01*
X410406Y-183667D01*
X411031Y-184667D01*
X411781Y-185333D01*
X412656Y-185500D01*
X413531Y-185167D01*
X414406Y-184167D01*
G01X422281Y-185833D02*
X422031Y-185667D01*
Y-185333D01*
X422281Y-185167D01*
X422531Y-185333D01*
Y-185667D01*
X422281Y-185833D01*
G01Y-181334D02*
X422031Y-181167D01*
Y-180833D01*
X422281Y-180667D01*
X422531Y-180833D01*
Y-181167D01*
X422281Y-181334D01*
G01X429531Y-183500D02*
X430281Y-184667D01*
X431281Y-185333D01*
X432406Y-185500D01*
X433406Y-185333D01*
X434406Y-184500D01*
X435031Y-183500D01*
X435156Y-182500D01*
X434906Y-181334D01*
X434031Y-180500D01*
X433156Y-180167D01*
X432031D01*
G01X433156D02*
X433906Y-179667D01*
X434531Y-178834D01*
X434781Y-177833D01*
X434531Y-176833D01*
X433906Y-176000D01*
X432781Y-175500D01*
X431656Y-175667D01*
X430531Y-176334D01*
M02*
