G04 ================== begin FILE IDENTIFICATION RECORD ==================*
G04 Layout Name:  Fb_Connect1_SYNC_Life-3.brd*
G04 Film Name:    TOP.gbr*
G04 File Format:  Gerber RS274X*
G04 File Origin:  Cadence Allegro 16.6-2015-S065*
G04 Origin Date:  Tue Jan 03 17:02:02 2017*
G04 *
G04 Layer:  VIA CLASS/TOP*
G04 Layer:  PIN/TOP*
G04 Layer:  ETCH/TOP*
G04 Layer:  DRAWING FORMAT/L1*
G04 Layer:  DRAWING FORMAT/FILM_LABEL_OUTLINE*
G04 Layer:  BOARD GEOMETRY/OUTLINE*
G04 *
G04 Offset:    (0.000 0.000)*
G04 Mirror:    No*
G04 Mode:      Positive*
G04 Rotation:  0*
G04 FullContactRelief:  No*
G04 UndefLineWidth:     6.000*
G04 ================== end FILE IDENTIFICATION RECORD ====================*
%FSLAX25Y25*MOIN*%
%IR0*IPPOS*OFA0.00000B0.00000*MIA0B0*SFA1.00000B1.00000*%
%ADD31R,.066929X.07874*%
%ADD24R,.11X.055*%
%ADD17R,.02X.68*%
%ADD13C,.125*%
%ADD20C,.208661*%
%ADD34C,.314961*%
%ADD27R,.008661X.014173*%
%ADD28R,.008661X.015748*%
%ADD30R,.027559X.009843*%
%ADD29R,.009843X.027559*%
%ADD15R,.055X.016*%
%ADD12C,.04*%
%ADD10C,.022*%
%ADD21R,.036X.037*%
%ADD25R,.059X.051*%
%ADD18R,.037X.036*%
%ADD11C,.025*%
%ADD23R,.075X.055*%
%ADD22R,.039X.028*%
%ADD14C,.053*%
%ADD38R,.039X.055*%
%ADD36R,.02X.02*%
%ADD26R,.035433X.05*%
%ADD37R,.012X.047244*%
%ADD16R,.021X.021*%
%ADD35R,.047244X.055118*%
%ADD19R,.047244X.047244*%
%ADD33R,.03937X.03937*%
%ADD32R,.017717X.059055*%
%ADD39C,.005*%
%ADD40C,.009*%
%ADD41C,.0055*%
%ADD42C,.01*%
%ADD43C,.02*%
%ADD44C,.012*%
%ADD45C,.014*%
%ADD46C,.015*%
%ADD47C,.006*%
%ADD49R,.069374X.069374*%
%ADD53C,.100004*%
%ADD52C,.113004*%
%ADD54C,.160004*%
%ADD50C,.041004*%
%ADD51C,.073004*%
%ADD48C,.038004*%
G75*
%LPD*%
G75*
G36*
G01X4829Y218000D02*
X133048D01*
G02X133416Y217443I0J-400D01*
G03X136914I1749J-743D01*
G02X137282Y218000I368J156D01*
G01X139629D01*
G02X139997Y217443I0J-400D01*
G03X143495I1749J-743D01*
G02X143863Y218000I368J156D01*
G01X176662D01*
G02X177050Y217501I0J-400D01*
G03X183350I3150J-801D01*
G02X183738Y218000I388J99D01*
G01X235171D01*
X238000Y215171D01*
Y4829D01*
X235171Y2000D01*
X4829D01*
X2000Y4829D01*
Y121512D01*
G02X2683Y121795I400J0D01*
G01X2779Y121700D01*
X15568D01*
Y121650D01*
X24069D01*
Y121700D01*
X24721D01*
X26000Y122979D01*
Y132221D01*
X24521Y133700D01*
X24069D01*
Y133750D01*
X15568D01*
Y133700D01*
X13919D01*
Y133780D01*
X8818D01*
Y133700D01*
X2979D01*
X2978Y133700D01*
X2000D01*
Y138800D01*
X3378D01*
X3379Y138800D01*
X12321D01*
X14432Y140910D01*
X15568D01*
Y139150D01*
X24069D01*
Y141805D01*
G02X24613Y142178I400J0D01*
G03X25662Y145815I687J1772D01*
G01X25500Y145847D01*
Y152321D01*
X24021Y153800D01*
X14419D01*
Y153980D01*
X9318D01*
Y153800D01*
X3079D01*
X2683Y153405D01*
G02X2000Y153688I-283J283D01*
G01Y215171D01*
X4829Y218000D01*
G37*
G36*
G01X24069Y123750D02*
X15568D01*
Y123200D01*
X15362D01*
X3400Y123200D01*
X2900Y123700D01*
Y131500D01*
X3600Y132200D01*
X14762D01*
X15568Y132200D01*
Y131650D01*
X24069D01*
Y131682D01*
X24316Y131784D01*
X24500Y131600D01*
Y123600D01*
X24410Y123510D01*
G02X24069Y123652I-141J141D01*
G01Y123750D01*
G37*
G36*
G01X11700Y140300D02*
X4000D01*
X3100Y141200D01*
Y151700D01*
X3700Y152300D01*
X15225D01*
X15325Y152200D01*
X15568D01*
Y151650D01*
X24000D01*
Y146250D01*
X15568D01*
Y145700D01*
X13600D01*
X13000Y145100D01*
Y141600D01*
X11700Y140300D01*
G37*
%LPC*%
G75*
G36*
G01X203563Y58450D02*
X198530D01*
Y58000D01*
X197429D01*
Y49130D01*
X197380D01*
Y45780D01*
X197019D01*
Y37580D01*
X196718D01*
G03X196327Y37096I0J-400D01*
G02X192610I-1858J-396D01*
G03X192219Y37580I-391J83D01*
G01X191218D01*
G03X190827Y37096I0J-400D01*
G02X187110I-1858J-396D01*
G03X186719Y37580I-391J83D01*
G01X186418D01*
Y41320D01*
X180519D01*
Y37580D01*
X180218D01*
G03X179827Y37096I0J-400D01*
G02X176110I-1858J-396D01*
G03X175719Y37580I-391J83D01*
G01X174718D01*
G03X174327Y37096I0J-400D01*
G02X170610I-1858J-396D01*
G03X170219Y37580I-391J83D01*
G01X169218D01*
G03X168827Y37096I0J-400D01*
G02X165110I-1858J-396D01*
G03X164719Y37580I-391J83D01*
G01X164418D01*
Y41031D01*
G03X163736Y41314I-400J0D01*
G01X163621Y41200D01*
X156779D01*
X154500Y43479D01*
Y56421D01*
X156979Y58900D01*
X167821D01*
X168686Y58036D01*
X181461D01*
G03X181816Y58621I0J400D01*
G02X185237Y60270I1684J879D01*
G01X187066D01*
G02X189180Y61139I1634J-970D01*
G01X189204Y61132D01*
X189430D01*
Y61210D01*
X191209D01*
Y63912D01*
X195572Y68275D01*
X198548D01*
Y69550D01*
X199823D01*
Y70227D01*
X206872Y77275D01*
X208372D01*
Y79300D01*
X215072D01*
Y72587D01*
X215681D01*
Y63925D01*
X221980D01*
Y55413D01*
X221566D01*
Y48700D01*
X219491D01*
Y48387D01*
X217528Y46425D01*
X206472D01*
X203563Y49333D01*
Y50301D01*
G03X202871Y50573I-400J0D01*
G02Y53367I-1500J1397D01*
G03X203563Y53640I293J273D01*
G01Y58450D01*
G37*
G36*
G01X180631Y183100D02*
X181103D01*
Y175100D01*
X174559D01*
Y183100D01*
X175030D01*
Y189630D01*
G02X175198Y190585I2800J0D01*
G01X175210Y190618D01*
Y192382D01*
X175198Y192415D01*
G02X175030Y193370I2632J955D01*
G01Y194981D01*
G02X174583Y196514I2800J1650D01*
G03X174183Y196900I-400J-14D01*
G01X170012D01*
G03X169870Y196559I0J-200D01*
G01X169929Y196499D01*
Y194650D01*
X170479D01*
Y189580D01*
X170500D01*
Y183100D01*
X171103D01*
Y175100D01*
X111491D01*
G03X111110Y174578I0J-400D01*
G02X109183Y175897I-1810J-578D01*
G03X109559Y176296I-25J399D01*
G01Y181625D01*
X103272D01*
X102752Y182144D01*
G03X102127Y182068I-283J-283D01*
G02X98699Y182444I-1627J982D01*
G03X98090Y182644I-379J-128D01*
G02X95720Y185604I-1090J1556D01*
G03Y186196I-269J296D01*
G02X95780Y189057I1280J1404D01*
G01Y198002D01*
X97598D01*
X98061Y198465D01*
X98055Y198556D01*
G02X99460Y200648I2045J144D01*
G03X99652Y201271I-125J380D01*
G02X99763Y205666I2778J2129D01*
G03X99458Y206325I-305J259D01*
G01X96215D01*
G03X92653Y204850I0J-5037D01*
G01X86850Y199047D01*
G03X86520Y198683I3562J-3562D01*
G03X86981Y198059I309J-254D01*
G02X85810Y196099I719J-1759D01*
G01X85413Y196102D01*
G03X85375Y195486I4999J-617D01*
G01Y127607D01*
G02X83087Y122084I-7811J0D01*
G01X74280Y113277D01*
G03X72275Y108436I4841J-4841D01*
G01Y92900D01*
X74300D01*
Y80900D01*
X74700D01*
Y75800D01*
X74300D01*
Y64092D01*
X67700D01*
Y64992D01*
X64000D01*
Y64242D01*
X51200D01*
Y66267D01*
X37018D01*
G02Y68818I-3949J1275D01*
G01X51200D01*
Y70843D01*
X63300D01*
Y71300D01*
X67700D01*
Y76893D01*
X68450D01*
Y80100D01*
X67700D01*
Y92900D01*
X69725D01*
Y108436D01*
G02X72477Y115081I9397J0D01*
G01X81284Y123887D01*
G03X82825Y127607I-3720J3720D01*
G01Y195485D01*
G02X85047Y200850I7587J0D01*
G01X90850Y206653D01*
G02X96215Y208875I5365J-5365D01*
G01X129650D01*
G02X134052Y207052I0J-6226D01*
G01X137188Y203915D01*
G02X138606Y200492I-3423J-3423D01*
G01Y192344D01*
G03X139487Y190216I3009J0D01*
G01X141631Y188072D01*
G03X142312Y188311I283J283D01*
G02X142380Y188646I1888J-211D01*
G03X141997Y189161I-383J115D01*
G01X141581D01*
Y190433D01*
X139825Y192189D01*
Y197628D01*
X140756Y198559D01*
Y200680D01*
X139480D01*
Y209520D01*
X144560D01*
Y209750D01*
X146200D01*
Y213321D01*
X148379Y215500D01*
X168621D01*
X170322Y213800D01*
X172000D01*
Y212924D01*
G03X172585Y212569I400J0D01*
G02X175577Y210876I946J-1819D01*
G03X175976Y210500I399J25D01*
G01X176831D01*
Y200231D01*
G03X177297Y199837I400J0D01*
G02X181079Y196514I534J-3206D01*
G03X181481Y196100I400J-14D01*
G02X181501Y196100I24J-2800D01*
G01X185521D01*
G03X186111Y196345I0J835D01*
G03X186237Y196490I-938J938D01*
G03X185916Y197129I-321J239D01*
G01X185831D01*
Y204066D01*
X192769D01*
Y197129D01*
X192101D01*
X192092Y196939D01*
G02X190071Y192385I-6918J344D01*
G02X185521Y190500I-4551J4551D01*
G01X181501D01*
G02X181054Y190536I0J2800D01*
G03X180595Y190077I-64J-395D01*
G02X180631Y189630I-2764J-447D01*
G01Y183100D01*
G37*
G36*
G01X160600Y95300D02*
X161480D01*
Y100500D01*
X160381D01*
Y100412D01*
X155700D01*
Y100400D01*
X154400D01*
Y100412D01*
X150119D01*
Y90931D01*
G02X146618I-1750J-3031D01*
G01Y100412D01*
X142105D01*
G03X141680Y100708I-387J-102D01*
G02X141319I-181J1892D01*
G03X140881Y100310I-38J-398D01*
G01Y96672D01*
X140627D01*
Y96440D01*
X140636Y96410D01*
G02X136968Y96193I-1806J-591D01*
G03X136576Y96672I-392J79D01*
G01X135781D01*
Y100007D01*
G03X135349Y100406I-400J0D01*
G02X134871Y100429I-149J1894D01*
G01X134768Y100447D01*
X134621Y100300D01*
X125079D01*
X124966Y100412D01*
X124500D01*
Y100400D01*
X123381D01*
Y96870D01*
X123880D01*
Y94500D01*
X130121D01*
X132115Y92507D01*
Y77693D01*
X129921Y75500D01*
X107877D01*
Y75290D01*
X101276D01*
Y75500D01*
X100327D01*
Y75477D01*
X91426D01*
Y75500D01*
X78679D01*
X76400Y77779D01*
Y102553D01*
X77079Y103232D01*
G03X76918Y103896I-283J283D01*
G02X81392Y106431I1066J3334D01*
G01X81367Y106322D01*
X81727Y105963D01*
Y105000D01*
X103760D01*
Y105430D01*
X105868D01*
Y105513D01*
X111190D01*
Y105840D01*
X112340D01*
Y105800D01*
X113000D01*
Y110100D01*
X104559D01*
Y118100D01*
X126103D01*
Y111900D01*
X129559D01*
Y118100D01*
X146103D01*
Y110100D01*
X149559D01*
Y118100D01*
X186103D01*
Y110100D01*
X175824D01*
G03X175541Y109417I0J-400D01*
G01X179194Y105764D01*
Y105513D01*
X180469D01*
Y101520D01*
G03X180888Y101121I400J0D01*
G02X182304Y97862I90J-1898D01*
G03X182583Y97175I279J-286D01*
G01X187928D01*
X190651Y94453D01*
G03X191246Y94486I283J283D01*
G02X194518Y92656I1485J-1186D01*
G03X194895Y92120I376J-136D01*
G01X195281D01*
Y92000D01*
X195780D01*
Y92120D01*
X196008D01*
G03X196387Y92648I0J400D01*
G02X200274I1944J652D01*
G03X200654Y92120I379J-127D01*
G01X200881D01*
Y88700D01*
X202500D01*
Y88542D01*
X206830D01*
Y83442D01*
X206320D01*
Y81930D01*
X205533D01*
X202978Y79375D01*
X197429D01*
Y71964D01*
X181894D01*
G03X181511Y71451I0J-400D01*
G02X177867I-1822J-540D01*
G03X177484Y71964I-384J114D01*
G01X171669D01*
G03X171283Y71457I0J-400D01*
G02X167622I-1831J-510D01*
G03X167237Y71964I-385J107D01*
G01X164508D01*
Y79625D01*
X161072D01*
X159772Y80925D01*
X159759D01*
X157656Y83028D01*
Y83280D01*
X156380D01*
Y84555D01*
X156026D01*
X155966Y84486D01*
G02X155790Y87155I-1435J1246D01*
G01X155847Y87105D01*
X156380D01*
Y92120D01*
X156631D01*
G03X157031Y92517I0J400D01*
G02X159979Y94085I1900J-17D01*
G03X160600Y94418I221J334D01*
G01Y95300D01*
G37*
G36*
G01X42068Y142444D02*
G03X41359Y142698I-400J0D01*
G02Y145103I-1471J1203D01*
G03X42068Y145356I310J253D01*
G01Y146250D01*
X50569D01*
Y145850D01*
X55106D01*
Y147812D01*
X62831D01*
Y140088D01*
X57579D01*
G03X57200Y139559I0J-400D01*
G02X53991Y137675I-1800J-609D01*
G01X50569D01*
Y135225D01*
X53345D01*
G02Y132675I1605J-1275D01*
G01X50569D01*
Y130225D01*
X56922D01*
X64165Y137468D01*
Y149281D01*
X70726Y155842D01*
G03X70443Y156525I-283J283D01*
G01X68609D01*
G02X65300Y157813I-1409J1275D01*
G01X65300Y157896D01*
X62680Y160516D01*
X61519D01*
Y159242D01*
X61500D01*
Y158836D01*
X62831D01*
Y151111D01*
X55106D01*
Y158836D01*
X56300D01*
Y159300D01*
X56418D01*
Y163782D01*
X53993D01*
X53895Y163880D01*
X52511D01*
X52475Y163866D01*
G02Y167395I-705J1765D01*
G01X52511Y167381D01*
X55345D01*
X55443Y167282D01*
X56418D01*
Y168082D01*
X61519D01*
Y167350D01*
X69937D01*
G02X76460Y165360I3031J-1750D01*
G01X76454Y165269D01*
X76660Y165063D01*
X77025Y165428D01*
Y187728D01*
X78925Y189628D01*
Y195572D01*
X78225Y196272D01*
Y198280D01*
X77700D01*
Y198100D01*
X76449D01*
Y197912D01*
X69549D01*
Y199534D01*
X68125Y200958D01*
Y204428D01*
X69549Y205852D01*
Y207453D01*
X75047D01*
G03X75378Y208077I0J400D01*
G02X80534Y207781I2691J1823D01*
G03X80837Y207120I303J-261D01*
G01X82050D01*
Y198280D01*
X81500D01*
Y196400D01*
X81475D01*
Y188572D01*
X79575Y186672D01*
Y164372D01*
X78072Y162869D01*
G03X78157Y162238I283J-283D01*
G02X76999Y158411I-1014J-1782D01*
G01X76908Y158418D01*
X66715Y148225D01*
Y136412D01*
X65386Y135083D01*
G03X65669Y134400I283J-283D01*
G01X71712D01*
Y137900D01*
X71751D01*
Y141900D01*
X72779D01*
X73279Y142400D01*
X76777D01*
G03X77176Y142835I0J400D01*
G02X80378Y141623I1893J165D01*
G03X80371Y141051I276J-290D01*
G01X80600Y140821D01*
Y127879D01*
X78921Y126200D01*
X76006D01*
X75094Y125288D01*
G03X75116Y124702I283J-283D01*
G02X69854Y123890I-2285J-2652D01*
G03X69513Y124500I-340J210D01*
G01X64279D01*
X62100Y126679D01*
Y130831D01*
G03X61417Y131114I-400J0D01*
G01X57978Y127675D01*
X50569D01*
Y126650D01*
X43208D01*
X43187Y126474D01*
G02X42491Y125219I-1887J226D01*
G03X42473Y124610I251J-312D01*
G02X40009Y124681I-1273J-1410D01*
G03X40027Y125290I-251J312D01*
G02X41604Y128576I1273J1411D01*
G03X42068Y128970I64J395D01*
G01Y137916D01*
G03X41378Y138192I-400J0D01*
G02Y140808I-1378J1308D01*
G03X42068Y141084I290J275D01*
G01Y142444D01*
G37*
G36*
G01X200752Y172661D02*
G02Y174539I-1652J939D01*
G03X201448I348J198D01*
G02Y172661I1652J-939D01*
G03X200752I-348J-198D01*
G37*
G36*
G01X186428Y150771D02*
G02Y153029I-1528J1129D01*
G03X187072I322J238D01*
G02X190022Y153161I1528J-1129D01*
G03X190648Y153196I299J265D01*
G02X193831Y153074I1552J-1096D01*
G03X194544Y153127I343J205D01*
G02X194669Y151426I1756J-727D01*
G03X193956Y151373I-343J-205D01*
G02X190778Y150839I-1756J727D01*
G03X190152Y150804I-299J-265D01*
G02X187072Y150771I-1552J1096D01*
G03X186428I-322J-238D01*
G37*
G36*
G01X125852Y134861D02*
G02X123261Y137452I-1652J939D01*
G03Y138148I-198J348D01*
G02X125852Y140739I939J1652D01*
G03X126548I348J198D01*
G02X129139Y138148I1652J-939D01*
G03Y137452I198J-348D01*
G02X126548Y134861I-939J-1652D01*
G03X125852I-348J-198D01*
G37*
G36*
G01X31328Y84275D02*
X33865D01*
G03X34236Y84824I0J400D01*
G02X34182Y86084I1764J707D01*
G03X33794Y86600I-383J116D01*
G02X35587Y87948I-25J1900D01*
G03X35975Y87432I383J-116D01*
G02X37764Y84824I25J-1900D01*
G03X38135Y84275I371J-149D01*
G01X43292D01*
G03X43554Y84977I0J400D01*
G02X43771Y88010I1246J1435D01*
G03X43766Y88686I-217J336D01*
G02X43038Y91085I1003J1614D01*
G03X42674Y91650I-364J165D01*
G01X42068D01*
Y98750D01*
X50569D01*
Y95225D01*
X55909D01*
G02X62207Y95687I3260J-1275D01*
G03X62478Y95612I174J99D01*
G02Y92288I922J-1662D01*
G03X62207Y92213I-97J-175D01*
G02X56632Y91538I-3039J1737D01*
G01X56573Y91600D01*
X56039D01*
Y91368D01*
X56048Y91338D01*
G02X52093Y91118I-1949J-638D01*
G03X51701Y91600I-392J82D01*
G01X50100D01*
Y91650D01*
X46863D01*
G03X46499Y91085I0J-400D01*
G02X45797Y88702I-1731J-785D01*
G03X45803Y88026I217J-336D01*
G02X46675Y86104I-1003J-1614D01*
G03X47353Y85756I395J-65D01*
G01X47972Y86375D01*
X52928D01*
X55757Y83546D01*
G03X56361Y83590I283J283D01*
G02X62184Y83277I2808J-2090D01*
G03X62732Y83136I345J203D01*
G02Y79864I967J-1636D01*
G03X62184Y79723I-204J-344D01*
G02X55909Y80225I-3016J1777D01*
G01X55472D01*
X52697Y83000D01*
X52514D01*
G03X52123Y82513I0J-400D01*
G02X48370Y82184I-1855J-413D01*
G03X47688Y82484I-400J18D01*
G01X46928Y81725D01*
X30272D01*
X23825Y88172D01*
Y91650D01*
X15568D01*
Y96250D01*
X24069D01*
Y95228D01*
X26375Y92922D01*
Y89228D01*
X31328Y84275D01*
G37*
G36*
G01X33539Y41252D02*
G02X31661I-939J-1652D01*
G03Y41948I-198J348D01*
G02X33539I939J1652D01*
G03Y41252I198J-348D01*
G37*
G36*
G01X155806Y16755D02*
X155747Y16815D01*
X155251D01*
Y14227D01*
X147526D01*
Y21952D01*
X155251D01*
Y19365D01*
X155747D01*
X155806Y19424D01*
G02Y16755I1353J-1335D01*
G37*
G36*
G01X26001Y102125D02*
G03X25480Y102490I-400J-16D01*
G02X25401Y106133I-580J1810D01*
G03X25906Y106550I106J386D01*
G02X27299Y104867I1894J150D01*
G03X26794Y104450I-106J-386D01*
G02X26799Y104375I-1894J-149D01*
G03X27320Y104010I400J16D01*
G02X26001Y102125I580J-1810D01*
G37*
G36*
G01X234103Y115088D02*
X234311D01*
Y106588D01*
X225300D01*
Y106650D01*
X220850D01*
Y106710D01*
G03X220362Y107100I-400J0D01*
G02X217947Y109686I-450J2000D01*
G03X217564Y110200I-383J114D01*
G01X217412D01*
Y110312D01*
X213289D01*
Y115312D01*
X214039D01*
Y115542D01*
X215779Y117282D01*
X215793Y117333D01*
G02X217134Y118748I1980J-533D01*
G01X217272Y118794D01*
Y120691D01*
X216787D01*
Y128416D01*
X226800D01*
Y128500D01*
X228400D01*
Y120700D01*
X226893D01*
Y120691D01*
X226057D01*
Y118146D01*
X229115Y115088D01*
X229520D01*
G03X229918Y115523I0J400D01*
G02X233704I1893J166D01*
G03X234103Y115088I398J-35D01*
G37*
G36*
G01X63364Y123410D02*
G03X63618Y123332I171J103D01*
G02Y119868I782J-1732D01*
G03X63364Y119790I-82J-182D01*
G02Y123410I-2996J1811D01*
G37*
G36*
G01X35370Y125049D02*
G03X35422Y125605I-259J305D01*
G02X38130Y125351I1478J1195D01*
G03X38078Y124795I259J-305D01*
G02X35370Y125049I-1478J-1195D01*
G37*
G36*
G01X135715Y136977D02*
G03X135450Y137481I-381J121D01*
G02X137810Y138723I551J1819D01*
G03X138076Y138219I381J-121D01*
G02X138286Y138141I-550J-1819D01*
G03X138821Y138367I160J367D01*
G02X142496Y137828I1779J-667D01*
G03X143035Y137480I399J27D01*
G02X141804Y135572I665J-1780D01*
G03X141265Y135920I-399J-27D01*
G02X139839Y135959I-665J1780D01*
G03X139304Y135733I-160J-367D01*
G02X135715Y136977I-1779J667D01*
G37*
G36*
G01X163672Y168325D02*
X167490D01*
G02X167838Y168122I0J-400D01*
G03X168320Y167943I348J198D01*
G02X170796Y165676I637J-1790D01*
G03X171184Y165175I387J-100D01*
G01X179937D01*
X186037Y159075D01*
X209813D01*
G03X210190Y159609I0J400D01*
G02X213770I1790J638D01*
G03X214147Y159075I377J-134D01*
G01X217127D01*
X219114Y157088D01*
X222311D01*
Y153706D01*
X223402D01*
X224570Y154874D01*
Y158369D01*
X224089Y158850D01*
X218250D01*
Y167350D01*
X220950D01*
Y171286D01*
X222000Y172336D01*
Y176050D01*
X228900D01*
Y167350D01*
X232650D01*
Y158850D01*
X227070D01*
Y154558D01*
X227923Y153706D01*
X229912D01*
Y148705D01*
X228860D01*
Y146680D01*
X227040D01*
Y145341D01*
X227272Y145109D01*
X228862D01*
Y137384D01*
X216787D01*
Y144909D01*
X214536Y147161D01*
Y147870D01*
X214050D01*
Y148588D01*
X213311D01*
Y155025D01*
X184572D01*
X178322Y161275D01*
X171170D01*
G03X170785Y160766I0J-400D01*
G02X167129I-1828J-518D01*
G03X166744Y161275I-385J109D01*
G01X156978D01*
X156228Y160525D01*
X152472D01*
X149783Y163213D01*
Y166311D01*
X150838Y167366D01*
X150838Y167450D01*
G02X153606Y169153I1900J13D01*
G03X154107Y169267I183J356D01*
G02X154426Y169425I319J-242D01*
G01X162572D01*
X163672Y168325D01*
G37*
G36*
G01X115752Y161796D02*
G03X116378Y161761I327J231D01*
G02X116248Y159404I1422J-1261D01*
G03X115622Y159439I-327J-231D01*
G02X112302Y160790I-1422J1261D01*
G03X111867Y161207I-400J19D01*
G02X113598Y163010I-167J1893D01*
G03X114033Y162593I400J-19D01*
G02X115752Y161796I167J-1893D01*
G37*
G36*
G01X89699Y179554D02*
G03X90169Y179171I400J11D01*
G02X88601Y177246I331J-1871D01*
G03X88131Y177629I-400J-11D01*
G02X89699Y179554I-331J1871D01*
G37*
G36*
G01X196616Y186171D02*
G03X196357Y185630I109J-385D01*
G02X194022Y186832I-1888J-799D01*
G03X194312Y187358I-87J390D01*
G02X194236Y188372I1789J642D01*
G03X193845Y188850I-392J78D01*
G02X193241Y188950I5J1900D01*
G03X192728Y188681I-128J-379D01*
G02X191509Y191000I-1828J519D01*
G03X192022Y191269I128J379D01*
G02X195714Y190378I1828J-519D01*
G03X196105Y189900I392J-78D01*
G02X196616Y186171I-5J-1900D01*
G37*
G36*
G01X64152Y194148D02*
G03X63870Y194148I-141J-142D01*
G01X63021Y193300D01*
X53879D01*
X51300Y195879D01*
Y202521D01*
X52779Y204000D01*
X65621D01*
X65909Y203712D01*
X67001D01*
Y202621D01*
X67300Y202321D01*
Y197579D01*
X66911Y197189D01*
X67052Y197048D01*
G02X64152Y194148I-1452J-1448D01*
G37*
G36*
G01X64826Y213395D02*
Y211193D01*
X67001D01*
Y205392D01*
X60100D01*
Y211193D01*
X62275D01*
Y213395D01*
G02X64826I1275J1605D01*
G37*
G36*
G01X145223Y40990D02*
X145277D01*
Y34390D01*
X142400D01*
Y30000D01*
X142357D01*
Y24990D01*
X142480D01*
Y21952D01*
X144227D01*
Y14227D01*
X136503D01*
Y14670D01*
X135860D01*
Y15325D01*
X126090D01*
Y14670D01*
X123043D01*
G02X119250Y14854I-1866J720D01*
G01X119209Y15000D01*
X117600D01*
Y15028D01*
X113129D01*
Y20270D01*
X107626D01*
Y20300D01*
X107094D01*
X105580Y18786D01*
G03X105622Y18184I283J-283D01*
G02X101764Y18421I-2108J-2795D01*
G01Y19921D01*
X103684Y21840D01*
Y23224D01*
X103669Y23260D01*
G02X104685Y25712I1765J705D01*
G01X104720Y25727D01*
X107303Y28310D01*
X107626D01*
Y29140D01*
X107497D01*
Y38525D01*
X102597D01*
X101844Y37772D01*
Y35472D01*
X101655Y35283D01*
G03X101900Y34602I283J-283D01*
G01Y32110D01*
X103227D01*
Y27010D01*
X98126D01*
Y28170D01*
X96325Y29972D01*
Y30289D01*
X96265Y30348D01*
G02X95705Y31840I1335J1352D01*
G03X95306Y32270I-399J29D01*
G01X95126D01*
Y34400D01*
X75447D01*
X73468Y36379D01*
Y46337D01*
X72381D01*
X71451Y45407D01*
X71476Y45299D01*
G02X68867Y47908I-3408J-799D01*
G01X68976Y47882D01*
X70931Y49838D01*
X73468D01*
Y50121D01*
X76347Y53000D01*
X98090D01*
X104500Y46590D01*
X118300D01*
Y46700D01*
X118876D01*
Y53968D01*
X115876Y56968D01*
Y64211D01*
X118255Y66590D01*
X145255D01*
X147498Y66590D01*
X150877Y63211D01*
Y53468D01*
X149352Y51944D01*
X148065D01*
Y48340D01*
X147115D01*
Y43365D01*
X145081Y41331D01*
G03X145223Y40990I141J-141D01*
G37*
G54D49*
X189300Y212802D03*
G54D53*
X230000Y47400D03*
X10000Y210000D03*
X27300Y9300D03*
G54D52*
X33068Y182858D03*
G54D54*
X15000Y15000D03*
G54D50*
X188968Y184400D03*
X46500Y207800D03*
G54D51*
X40076Y189865D03*
Y175850D03*
Y74550D03*
Y60535D03*
X26061Y189865D03*
Y175850D03*
Y74550D03*
Y60535D03*
G54D48*
X195190Y140988D03*
X180000Y170612D03*
X183968Y140988D03*
X145000Y171300D03*
X153100Y158200D03*
X147631Y151931D03*
X145481Y165600D03*
X134000Y161800D03*
X131100Y166000D03*
X127200Y161200D03*
X133200Y150900D03*
X122600Y161200D03*
X98700Y178200D03*
Y167700D03*
X105800Y155820D03*
X96235Y143235D03*
X103382Y150462D03*
X89000Y156800D03*
X80136Y150100D03*
X70500Y213600D03*
X62005Y112125D03*
X59300Y115753D03*
X57224Y215224D03*
X42717Y163783D03*
X27724Y162500D03*
X29500Y139500D03*
X20500Y161000D03*
%LPD*%
G75*
G36*
G01X50569Y140225D02*
Y142350D01*
X54281D01*
X54431Y142200D01*
X55106D01*
Y140834D01*
X54953Y140797D01*
G03X53991Y140225I447J-1847D01*
G01X50569D01*
G37*
G36*
G01X65800Y198200D02*
X65214Y197614D01*
X65158Y197602D01*
G03X63598Y196042I443J-2002D01*
G01X63586Y195986D01*
X62400Y194800D01*
X54500D01*
X52800Y196500D01*
Y201900D01*
X53400Y202500D01*
X65000D01*
X65800Y201700D01*
Y198200D01*
G37*
G36*
G01X64900Y126000D02*
X63600Y127300D01*
Y131500D01*
X65000Y132900D01*
X67972D01*
Y132800D01*
X71100D01*
X71500Y132400D01*
Y126900D01*
X70600Y126000D01*
X64900D01*
G37*
G36*
G01X79100Y140200D02*
Y128500D01*
X78300Y127700D01*
X74100D01*
X73300Y128500D01*
Y140300D01*
X73900Y140900D01*
X78400D01*
X79100Y140200D01*
G37*
G36*
G01X69937Y163850D02*
G03X72761Y162106I3031J1750D01*
G02X73020Y161424I-24J-399D01*
G01X70672Y159075D01*
X68609D01*
G03X67187Y159700I-1409J-1275D01*
G01X67104Y159700D01*
X63800Y163003D01*
Y163850D01*
X69937D01*
G37*
G36*
G01X76068Y35900D02*
X74968Y37000D01*
Y49500D01*
X76968Y51500D01*
X97468D01*
X103879Y45090D01*
X117677D01*
X117877Y44890D01*
Y42890D01*
X117485Y42498D01*
X113987D01*
Y42481D01*
X111370D01*
X110979Y42090D01*
X102158D01*
X99168Y39100D01*
Y37500D01*
X95968D01*
X95838Y37370D01*
X95126D01*
Y36658D01*
X94368Y35900D01*
X76068D01*
G37*
G36*
G01X129300Y77000D02*
X79300D01*
X77900Y78400D01*
Y101932D01*
X79468Y103500D01*
X103200D01*
X104100Y102600D01*
Y95100D01*
X106200Y93000D01*
X129500D01*
X130615Y91886D01*
Y78314D01*
X129300Y77000D01*
G37*
G36*
G01X139828Y184575D02*
X136128Y188275D01*
X134700D01*
Y189100D01*
X134181D01*
Y194262D01*
X119200D01*
Y194300D01*
X117569D01*
Y197553D01*
X117705Y197599D01*
G03X115388Y198575I-605J1801D01*
G02X115028Y198002I-360J-174D01*
G01X112546D01*
G02X112155Y198488I0J400D01*
G03X108400Y198887I-1855J412D01*
G01X108400Y198804D01*
X108243Y198647D01*
Y198002D01*
X106329D01*
G02X105929Y198419I0J400D01*
G03X105306Y199909I-1898J81D01*
G01Y201403D01*
X105340Y201453D01*
G03X105098Y205666I-2909J1947D01*
G02X105403Y206325I305J259D01*
G01X129650D01*
G02X132248Y205248I0J-3675D01*
G01X135385Y202112D01*
G02X136056Y200492I-1620J-1620D01*
G01Y192344D01*
G03X137684Y188413I5559J0D01*
G01X140549Y185548D01*
G03X140839Y185283I2952J2952D01*
G02X140584Y184575I-255J-308D01*
G01X139828D01*
G37*
G36*
G01X116952Y29110D02*
Y30248D01*
X118535Y31831D01*
X121386D01*
Y29989D01*
X120507Y29110D01*
X116952D01*
G37*
G36*
G01X118343Y37588D02*
Y41234D01*
X119480Y42372D01*
X120262Y41590D01*
X123291D01*
X124177Y42476D01*
Y53976D01*
X125291Y55090D01*
X140462D01*
X142964Y52588D01*
Y48580D01*
X137320D01*
Y47990D01*
X130376D01*
Y47090D01*
X129462D01*
X128862Y46490D01*
X125862D01*
X124820Y45447D01*
Y42326D01*
X125010Y42135D01*
Y37588D01*
X118343D01*
G37*
G36*
G01X120385Y42882D02*
X120377Y42890D01*
Y54590D01*
X117377Y57590D01*
Y63590D01*
X118877Y65090D01*
X145876D01*
X145877Y65090D01*
X146876D01*
X149377Y62590D01*
Y54090D01*
X148731Y53444D01*
X143523D01*
X140877Y56090D01*
X124877D01*
X123177Y54390D01*
Y43057D01*
G03X122505Y42590I723J-1757D01*
G01X120796D01*
G03X120385Y42882I-1296J-1390D01*
G37*
G36*
G01X111450Y94500D02*
Y96850D01*
X110969D01*
Y100450D01*
X112390D01*
Y100581D01*
X117381D01*
Y100600D01*
X118281D01*
Y96590D01*
X117870D01*
Y94500D01*
X111450D01*
G37*
G36*
G01X134004Y104905D02*
G02X134500Y104516I96J-388D01*
G01Y104067D01*
G03X133302Y102217I700J-1767D01*
G02X132902Y101800I-400J-17D01*
G01X125700D01*
X125400Y102100D01*
Y104200D01*
X125100Y104500D01*
X124700D01*
X123900Y105300D01*
Y109800D01*
X124200Y110100D01*
X132500D01*
X133100Y109500D01*
Y108602D01*
X132962Y108557D01*
G03X134004Y104905I588J-1807D01*
G37*
G36*
G01X125870Y42690D02*
X125820Y42740D01*
Y45033D01*
X126277Y45490D01*
X129277D01*
X129877Y46090D01*
X137377D01*
X138377Y47090D01*
X142877D01*
X143877Y46090D01*
Y44653D01*
X142414Y43190D01*
X137290D01*
G03X136143Y42706I0J-1600D01*
G01X127188D01*
G03X126984Y42692I0J-1500D01*
G01X126970Y42690D01*
X125870D01*
G37*
G36*
G01X167347Y49130D02*
G02X167488Y48788I0J-200D01*
G01X166400Y47700D01*
X164200D01*
X163600Y47100D01*
Y43300D01*
X163000Y42700D01*
X157400D01*
X156000Y44100D01*
Y55800D01*
X157600Y57400D01*
X167067D01*
Y49130D01*
X167347D01*
G37*
G36*
G01X147032Y190613D02*
X146681Y190965D01*
Y196238D01*
X146899D01*
X146917Y196235D01*
G03X147151Y196205I383J2065D01*
G03X149065Y197162I649J1095D01*
G03X149134Y197277I-1765J1138D01*
G02X149450Y197321I175J-97D01*
G01X151201Y195571D01*
Y194650D01*
X150651D01*
Y189400D01*
X149100D01*
Y189262D01*
G02X148759Y189121I-200J0D01*
G01X147266Y190613D01*
X147032D01*
G37*
G36*
G01X168800Y213200D02*
Y212822D01*
G02X168486Y212658I-200J0D01*
G03X168226Y209390I-1088J-1558D01*
G02X168800Y209030I174J-360D01*
G01Y206200D01*
X168200Y205600D01*
X148400D01*
X147700Y206300D01*
Y212700D01*
X149000Y214000D01*
X168000D01*
X168800Y213200D01*
G37*
G36*
G01X164510Y185680D02*
X164429Y185646D01*
X160866Y189208D01*
G02X161008Y189550I141J141D01*
G01X161048D01*
Y194650D01*
X160531D01*
Y197000D01*
X164030D01*
Y196741D01*
X165780Y194992D01*
G02X165638Y194650I-141J-141D01*
G01X165379D01*
Y189550D01*
X165929D01*
Y185680D01*
X164510D01*
G37*
G36*
G01X214865Y48975D02*
X207528D01*
X206114Y50390D01*
Y58450D01*
X207100D01*
Y58100D01*
X208500D01*
Y62700D01*
X214256D01*
Y55413D01*
X214865D01*
Y48975D01*
G37*
%LPC*%
G75*
G54D48*
X131950Y198900D03*
%LPD*%
G75*
G54D10*
X5400Y124800D03*
X5200Y146100D03*
Y142100D03*
X14537Y99900D03*
X14300Y95132D03*
X14537Y104900D03*
Y109900D03*
Y114900D03*
X24900Y104300D03*
X14537Y119900D03*
X13400Y124800D03*
X9400D03*
Y128800D03*
X13400D03*
X14537Y134900D03*
Y139900D03*
X11368Y137868D03*
X13500Y148600D03*
X9200Y150100D03*
Y146100D03*
Y142100D03*
X11868Y157932D03*
X15500Y158500D03*
X20500Y161000D03*
X38527Y13808D03*
X38500Y42900D03*
X32600Y43600D03*
Y39600D03*
X28047Y91100D03*
X36000Y85532D03*
X33768Y88500D03*
X40968Y110300D03*
Y115300D03*
X37968Y112800D03*
X27800Y106700D03*
X27900Y102200D03*
X29800Y125200D03*
X41200Y123200D03*
X36600Y123600D03*
X41300Y126700D03*
X36900Y126800D03*
X26000Y138000D03*
X37000D03*
X29500Y139500D03*
X40000D03*
X25300Y143950D03*
X39887Y143900D03*
X40500Y150900D03*
X32000Y161500D03*
X40500Y160000D03*
X36217Y155402D03*
X27724Y162500D03*
X49527Y13803D03*
X50269Y82100D03*
X44800Y86412D03*
X44768Y90300D03*
X51140Y104870D03*
X53700Y102500D03*
X51700Y131450D03*
X55737Y125316D03*
X52050Y126450D03*
X51900Y150300D03*
X51050Y141450D03*
X51750Y136450D03*
X55400Y138950D03*
X42717Y163783D03*
X54824Y162861D03*
X51900Y155300D03*
X51770Y165630D03*
X50250Y178660D03*
X56220Y178560D03*
X54824Y174476D03*
X57800Y187230D03*
X50501Y190500D03*
X56300Y198000D03*
X57224Y215224D03*
X63700Y81500D03*
X73700Y94100D03*
X68300Y93800D03*
X63400Y93950D03*
X65900Y112300D03*
X69800Y116200D03*
X59300Y115753D03*
X62005Y112125D03*
X67100Y131600D03*
Y127600D03*
X64400Y121600D03*
X69300Y148800D03*
X72605Y145850D03*
X67650Y139350D03*
X70800Y160800D03*
X66000Y153100D03*
X74700Y153700D03*
X67200Y157800D03*
X75700Y172800D03*
X70860Y178810D03*
X75705Y178905D03*
X65038Y190500D03*
X75370Y187320D03*
X60300Y197900D03*
X70500Y213600D03*
X89377Y42090D03*
X85377D03*
X81377D03*
X77377D03*
X89377Y38090D03*
X85377D03*
X81377D03*
X77377D03*
X88877Y66064D03*
X83677Y65990D03*
X78877Y66090D03*
X79977Y95890D03*
X84477Y91190D03*
X79977D03*
X89477D03*
Y96190D03*
X84477Y95890D03*
X79977Y100590D03*
X89477Y100890D03*
X84477Y100590D03*
X81700Y133400D03*
X88500Y133000D03*
X84200Y121200D03*
X80000Y117200D03*
X77300Y130400D03*
X81700Y140000D03*
X86700Y141100D03*
X80136Y150100D03*
X79068Y143000D03*
X77300Y138400D03*
Y134400D03*
X81700Y159800D03*
X80105Y153850D03*
X89000Y156800D03*
X81739Y182858D03*
X86600Y175900D03*
X86950Y169550D03*
X87800Y179500D03*
X90500Y177300D03*
X90300Y201100D03*
X76320Y191050D03*
X86500Y193000D03*
X77000Y195600D03*
X86515Y189985D03*
X87700Y196300D03*
X92000Y216600D03*
X86000Y209400D03*
X90200Y209700D03*
X100677Y22321D03*
X104868Y27900D03*
X97600Y31700D03*
X105434Y23965D03*
X103268Y37183D03*
X93377Y42090D03*
Y38090D03*
X94468Y66000D03*
X108177Y52743D03*
X104577Y69037D03*
X104300Y82500D03*
X94377Y86190D03*
X107500Y88700D03*
X104177Y86190D03*
X99477Y91190D03*
X94477D03*
X104177D03*
X99477Y96190D03*
X94477D03*
X99577Y86190D03*
X107400Y84700D03*
X108418Y96182D03*
X94477Y100890D03*
X99477D03*
X100518Y143999D03*
X103382Y150462D03*
X96235Y143235D03*
X98600Y154850D03*
X105800Y155820D03*
X98700Y173350D03*
X95200Y178100D03*
X109300Y174000D03*
X98700Y167700D03*
X97000Y184200D03*
X98700Y178200D03*
X100500Y183050D03*
X107200Y199900D03*
X96210Y201180D03*
X104031Y198500D03*
X97000Y187600D03*
X103300Y186900D03*
X102000Y216600D03*
X108300Y210200D03*
X103500Y210100D03*
X99487Y210187D03*
X115679Y10340D03*
X121177Y15390D03*
X119877Y30258D03*
X121177Y19321D03*
X123900Y41300D03*
X119500Y38200D03*
X123600Y38300D03*
X119500Y41200D03*
X112588Y48899D03*
X116076Y52857D03*
X126415Y53390D03*
X114831Y95792D03*
X120831Y95818D03*
X125500Y106000D03*
X125600Y109000D03*
X124200Y135800D03*
Y139800D03*
X119250Y151200D03*
X115250D03*
X111250D03*
X122600Y161200D03*
X117800Y160500D03*
X111700Y163100D03*
X114200Y160700D03*
X121000Y169800D03*
X117500Y173300D03*
X124500D03*
X117500Y169800D03*
X124500D03*
X121000Y173300D03*
X113500Y199500D03*
X120631D03*
X117100Y199400D03*
X110300Y198900D03*
X122000Y216600D03*
X112000D03*
X112900Y210100D03*
X121000Y210200D03*
X124500D03*
X117500Y210400D03*
X127177Y19321D03*
X139911Y31624D03*
X133377Y18990D03*
X141779Y45684D03*
X138054Y44929D03*
X131777Y38790D03*
X129327Y50290D03*
X138027Y50643D03*
X126868Y95792D03*
X132468D03*
X138831Y95818D03*
X128900Y106000D03*
Y109100D03*
X133550Y106750D03*
X135200Y102300D03*
X141500Y102600D03*
X141300Y106200D03*
X127831Y118700D03*
X128000Y122000D03*
X128200Y135800D03*
Y139800D03*
X137525Y136400D03*
X140600Y137700D03*
X136000Y139300D03*
X127100Y151400D03*
X133200Y150900D03*
X127200Y161200D03*
X131100Y166000D03*
X134000Y161800D03*
X135100Y200060D03*
X139600Y198700D03*
X131950Y198900D03*
X131000Y216600D03*
X138500Y209600D03*
X141746Y216700D03*
X135165D03*
X147045Y27190D03*
X157158Y18090D03*
X147930Y33000D03*
X159768Y49000D03*
X159700Y52700D03*
X144668Y95792D03*
X152131D03*
X155600Y95700D03*
X158931Y92500D03*
X154532Y85732D03*
X148668Y106300D03*
X144668D03*
X148900Y119100D03*
X152931Y141288D03*
X143700Y135700D03*
X145481Y159950D03*
X145600Y155600D03*
X150200Y155300D03*
X145481Y165600D03*
X154000Y164000D03*
X152738Y167462D03*
X147631Y151931D03*
X153100Y158200D03*
X145000Y171300D03*
X147300Y198300D03*
X149062Y195738D03*
X144200Y188100D03*
X145720Y216700D03*
X149505Y216600D03*
X156500Y211400D03*
X159600D03*
X145200Y207068D03*
X163600Y29900D03*
X160968Y36700D03*
X172468D03*
X166968D03*
X163668Y49000D03*
X160668Y63400D03*
X163600Y52700D03*
X168100Y82450D03*
X177130Y81600D03*
X169453Y70947D03*
X173300Y99124D03*
X175531Y93000D03*
X164431D03*
X170031Y93300D03*
X164031Y105506D03*
X168957Y154247D03*
Y160247D03*
Y166153D03*
X167600Y172900D03*
X171768Y195738D03*
X162336D03*
X167397Y211100D03*
X183468Y36700D03*
X188968D03*
X177968D03*
X188700Y59300D03*
X183500Y59500D03*
X192484Y71016D03*
X182248Y81052D03*
X179689Y70911D03*
X186531Y93000D03*
X181031D03*
X192731Y93300D03*
X180978Y99222D03*
X189468Y140988D03*
X183968D03*
X193668Y165800D03*
X186668D03*
X190268Y163200D03*
X193668Y160800D03*
X186668D03*
X188600Y151900D03*
X192200Y152100D03*
X184900Y151900D03*
X182831Y173000D03*
X180000Y170612D03*
X193713Y197813D03*
X182887D03*
X190900Y189200D03*
X193850Y190750D03*
X193713Y215587D03*
X184700Y216800D03*
X194468Y36700D03*
X208400Y52000D03*
X207825Y55675D03*
X204280Y93162D03*
X201800Y140900D03*
X195190Y140988D03*
X196300Y152400D03*
X203100Y173600D03*
X199100D03*
X200190Y185012D03*
X196100Y188000D03*
X222000Y76000D03*
X219000Y98300D03*
X215789Y106211D03*
X223412Y109100D03*
X226742Y129958D03*
X211869Y138532D03*
X211980Y166153D03*
X212000Y153200D03*
X223080Y155890D03*
X211980Y160247D03*
X231811Y115689D03*
G54D11*
G01X22210Y60535D02*
X26061D01*
G01X22210Y74550D02*
X26061D01*
G01X22210Y175850D02*
X26061D01*
G01X22210Y189865D02*
X26061D01*
G01X40076Y56684D02*
Y60535D01*
G01D02*
Y64385D01*
G01X36226Y60535D02*
X40076D01*
G01D02*
X43927D01*
G01X26061Y56684D02*
Y60535D01*
G01D02*
Y64385D01*
G01Y60535D02*
X29911D01*
G01X40076Y70700D02*
Y74550D01*
G01D02*
Y78401D01*
G01X36226Y74550D02*
X40076D01*
G01D02*
X43927D01*
G01X26061Y70700D02*
Y74550D01*
G01D02*
Y78401D01*
G01Y74550D02*
X29911D01*
G01X40076Y171999D02*
Y175850D01*
G01D02*
Y179700D01*
G01X36226Y175850D02*
X40076D01*
G01D02*
X43927D01*
G01X26061Y171999D02*
Y175850D01*
G01D02*
Y179700D01*
G01Y175850D02*
X29911D01*
G01X40076Y186015D02*
Y189865D01*
G01D02*
Y193716D01*
G01X36226Y189865D02*
X40076D01*
G01D02*
X43927D01*
G01X26061Y186015D02*
Y189865D01*
G01D02*
Y193716D01*
G01Y189865D02*
X29911D01*
G01X133377Y22540D02*
Y18990D01*
G01X167600Y172900D02*
X170400D01*
X172831Y175331D01*
Y179100D01*
G01X182831D02*
Y173000D01*
X5400Y128800D03*
X5200Y150100D03*
X54100Y90700D03*
X54950Y133950D03*
X46500Y207800D03*
X65600Y195600D03*
X63550Y215000D03*
X77144Y160456D03*
X78069Y209900D03*
X100100Y198700D03*
X153305Y216700D03*
X173531Y210750D03*
X188968Y184400D03*
X177831Y196631D03*
X180200Y216700D03*
X201370Y51970D03*
X198331Y93300D03*
X194468Y184832D03*
X223331Y68331D03*
X217772Y116800D03*
X219912Y109100D03*
X222200Y147900D03*
G54D20*
X79218Y19728D03*
X177643D03*
G54D21*
X71000Y67442D03*
Y73542D03*
Y83450D03*
Y89550D03*
X108177Y49240D03*
Y43140D03*
X104577Y72540D03*
Y78640D03*
X133377Y22540D03*
Y28640D03*
X133677Y44640D03*
Y50740D03*
X158531Y201050D03*
X151031D03*
X158531Y207150D03*
X151031D03*
X166031Y201050D03*
X173531D03*
X166031Y207150D03*
X173531D03*
G54D12*
X10000Y210000D03*
X27300Y9300D03*
X28569Y208200D03*
X44268Y42900D03*
X59168Y81500D03*
Y93950D03*
X68068Y44500D03*
X72832Y122050D03*
X60368Y121600D03*
X72968Y165600D03*
X77984Y107230D03*
X103514Y15390D03*
X102431Y203400D03*
X157268Y29900D03*
X148368Y87900D03*
X230000Y47400D03*
X212669Y98300D03*
G54D30*
X116165Y37268D03*
Y39237D03*
Y41206D03*
Y43174D03*
Y47111D03*
X127188Y37268D03*
Y39237D03*
Y41206D03*
Y43174D03*
Y47111D03*
G54D40*
G01X118724Y51747D02*
Y49670D01*
G54D22*
X72999Y200812D03*
X63550D03*
X72999Y204552D03*
Y208293D03*
X63550D03*
G54D13*
X15000Y15000D03*
G54D31*
X125177Y60879D03*
Y84501D03*
G54D41*
G01X59168Y81500D02*
X56000D01*
X52400Y85100D01*
X48500D01*
X46400Y83000D01*
X30800D01*
X25100Y88700D01*
Y92394D01*
X23544Y93950D01*
X19818D01*
G01Y143950D02*
X25300D01*
G01X54550Y67542D02*
X33068D01*
G01X46318Y93950D02*
X59168D01*
G01X77144Y160456D02*
X65440Y148753D01*
Y136940D01*
X57450Y128950D01*
X46318D01*
G01Y138950D02*
X55400D01*
G01X46318Y133950D02*
X54950D01*
G01X59168Y81500D02*
X63700D01*
G01X71000Y78550D02*
Y83450D01*
G01Y73542D02*
Y78550D01*
G01X60650Y67542D02*
X65850D01*
G01X71000Y67442D02*
X68225D01*
X68125Y67542D01*
X65850D01*
G01X147831Y179100D02*
Y182618D01*
G03X147144Y184276I-2345J0D01*
G01X146968Y184452D01*
G03X144196Y185600I-2773J-2773D01*
G01X143501D01*
G02X141451Y186449I0J2899D01*
G01X138586Y189314D01*
G02X137331Y192344I3029J3029D01*
G01Y200492D01*
G03X136286Y203014I-3566J0D01*
G01X133150Y206150D01*
G03X129650Y207600I-3500J-3500D01*
G01X96215D01*
G03X91751Y205751I0J-6312D01*
G01X85949Y199949D01*
G03X84100Y195485I4463J-4463D01*
G01Y127607D01*
G02X82186Y122986I-6536J0D01*
G01X73379Y114179D01*
G03X71000Y108436I5743J-5743D01*
G01Y89550D01*
G01X59168Y93950D02*
X63400D01*
G01X60368Y121600D02*
X64400D01*
G01X67200Y157800D02*
X71200D01*
X74818Y161418D01*
Y161420D01*
X76180Y162782D01*
X76182D01*
X78300Y164900D01*
Y187200D01*
X80200Y189100D01*
Y196100D01*
X79500Y196800D01*
Y200830D01*
G01X58968Y161792D02*
X63208D01*
X67200Y157800D01*
G01X58968Y154974D02*
Y161792D01*
G01X72999Y204552D02*
X77457D01*
X77475Y204570D01*
X79500D01*
G01X72999Y204552D02*
X70052D01*
X69400Y203900D01*
Y201486D01*
X70074Y200812D01*
X72999D01*
G01X63550Y208293D02*
Y215000D01*
G01X97600Y31700D02*
Y30500D01*
X98540Y29560D01*
X100677D01*
G01X97677Y34820D02*
X99388D01*
X100568Y36000D01*
Y38300D01*
X102068Y39800D01*
X110493D01*
X111898Y41206D01*
X116165D01*
G01X97677Y34820D02*
Y31777D01*
X97600Y31700D01*
G01X98331Y191711D02*
Y189438D01*
X100300Y187469D01*
Y186400D01*
X103800Y182900D01*
X111900D01*
X112831Y181969D01*
Y179100D01*
G01X104031Y191711D02*
Y189369D01*
X109100Y184300D01*
X116106D01*
X117831Y182575D01*
Y179100D01*
G01X98331Y195452D02*
Y196931D01*
X100100Y198700D01*
G01X104031Y195452D02*
Y198500D01*
G01D02*
Y201800D01*
X102431Y203400D01*
G01X115677Y26560D02*
Y30776D01*
X118724Y33824D01*
Y34710D01*
G01X115677Y22820D02*
X110177D01*
G01X115679Y17578D02*
Y19852D01*
X115677Y19854D01*
Y22820D01*
G01X140365Y18090D02*
X137558D01*
X136068Y16600D01*
X125866D01*
X124177Y18290D01*
Y25623D01*
X123240Y26560D01*
X121177D01*
G01D02*
Y27977D01*
X122661Y29461D01*
Y34710D01*
G01X116165Y39237D02*
X112094D01*
X110047Y37190D01*
G01X120831Y99222D02*
Y95818D01*
G01X108418Y99222D02*
Y96182D01*
G01X114831Y103131D02*
Y106931D01*
X117831Y109931D01*
Y114100D01*
G01X108418Y102963D02*
X110444D01*
X110612Y103131D01*
X114831D01*
G01X120831Y102963D02*
Y108625D01*
X122831Y110625D01*
Y114100D01*
G01X109519Y191711D02*
Y188982D01*
X112700Y185800D01*
X119606D01*
X122831Y182575D01*
Y179100D01*
G01X120631Y191711D02*
Y189569D01*
X121500Y188700D01*
X124100D01*
X126450Y186350D01*
X129350D01*
X132831Y182869D01*
Y179100D01*
G01X109519Y195452D02*
X115018D01*
G01X110300Y198900D02*
X109519Y198118D01*
Y195452D01*
G01X115018Y191711D02*
Y188682D01*
X116500Y187200D01*
X123500D01*
X127831Y182869D01*
Y179100D01*
G01X138331Y99222D02*
Y96318D01*
X138831Y95818D01*
G01X138331Y102963D02*
Y105700D01*
X137831Y106200D01*
Y114100D01*
G01X126131Y191711D02*
Y189169D01*
X127100Y188200D01*
X129891D01*
X133441Y184650D01*
X135850D01*
X137831Y182669D01*
Y179100D01*
G01X131631Y191711D02*
Y189369D01*
X134000Y187000D01*
X135600D01*
X139300Y183300D01*
X142106D01*
X142831Y182575D01*
Y179100D01*
G01X142031Y203230D02*
Y198031D01*
X141100Y197100D01*
Y192717D01*
X142106Y191711D01*
X144131D01*
G01X142031Y206970D02*
X145102D01*
X145200Y207068D01*
G01X151388Y18090D02*
X157158D01*
G01X154532Y85732D02*
X154630Y85830D01*
X158931D01*
G01D02*
Y83557D01*
X160287Y82200D01*
X160300D01*
X161600Y80900D01*
X166074D01*
X166894Y80081D01*
Y76417D01*
G01X157831Y102963D02*
Y114100D01*
G01X152131Y102963D02*
Y107831D01*
X152831Y108531D01*
Y114100D01*
G01X154000Y164000D02*
X156375D01*
X156475Y163900D01*
X179409D01*
X185509Y157800D01*
X216599D01*
X219811Y154588D01*
G01X152738Y167462D02*
X151058Y165783D01*
Y163742D01*
X153000Y161800D01*
X155700D01*
X156450Y162550D01*
X178850D01*
X185100Y156300D01*
X214099D01*
X215811Y154588D01*
G01X144131Y191711D02*
X146504Y189338D01*
X146738D01*
X152831Y183245D01*
Y179100D01*
G01X166968Y43870D02*
Y46144D01*
X169453Y48628D01*
Y53583D01*
G01X172468Y43870D02*
Y47732D01*
X172012Y48188D01*
Y53583D01*
G01Y76417D02*
Y81088D01*
X170650Y82450D01*
X168100D01*
G01X169453Y76417D02*
Y70947D01*
G01X174571Y76417D02*
Y82597D01*
X175531Y83557D01*
Y85830D01*
G01X168100Y82450D02*
X165750D01*
X164431Y83769D01*
Y85830D01*
G01X170031Y89570D02*
Y93300D01*
G01X175531Y85830D02*
X170031D01*
G01X164031Y98036D02*
X166167Y95900D01*
X187400D01*
X189500Y93800D01*
Y86700D01*
X188630Y85830D01*
X186531D01*
G01X169831Y102963D02*
Y107269D01*
X167831Y109269D01*
Y114100D01*
G01X173300Y99124D02*
X169929D01*
X169831Y99222D01*
G01X164031Y101776D02*
Y105506D01*
G01X177918Y102963D02*
Y105236D01*
X172831Y110324D01*
Y114100D01*
G01X177968Y43870D02*
Y47232D01*
X177130Y48070D01*
Y53583D01*
G01X188968Y43870D02*
Y45832D01*
X188000Y46800D01*
X185103D01*
X182248Y49655D01*
Y53583D01*
G01X183468Y43870D02*
Y45875D01*
X179689Y49655D01*
Y53583D01*
G01X194468Y43870D02*
Y46144D01*
X193912Y46700D01*
X191700D01*
X189925Y48475D01*
Y53583D01*
G01X188700Y59300D02*
X187366Y57966D01*
Y53583D01*
G01X183500Y59500D02*
X184807Y58193D01*
Y53583D01*
G01X201098Y67000D02*
X196100D01*
X192484Y63384D01*
Y53583D01*
G01X198331Y85830D02*
Y83231D01*
X197300Y82200D01*
X194400D01*
X193200Y81000D01*
X190580D01*
X189925Y80345D01*
Y76417D01*
G01X192731Y85830D02*
Y83557D01*
X192074Y82900D01*
X189921D01*
X187366Y80345D01*
Y76417D01*
G01X182248D02*
Y81052D01*
G01X179689Y76417D02*
Y70911D01*
G01X177130Y76417D02*
Y81600D01*
G01D02*
X179505D01*
X181031Y83126D01*
Y85830D01*
G01X184807Y76417D02*
Y81207D01*
X186531Y82931D01*
Y85830D01*
G01X192731Y89570D02*
Y93300D01*
G01X177918Y99222D02*
X180978D01*
G01X218215Y52000D02*
Y48915D01*
X217000Y47700D01*
X207000D01*
X204839Y49861D01*
Y61000D01*
G01X201098D02*
X196700D01*
X195043Y59343D01*
Y53583D01*
G01X204839Y61000D02*
Y67000D01*
G01X201098D02*
Y69698D01*
X207400Y76000D01*
X211722D01*
G01X204280Y85992D02*
Y82480D01*
X202450Y80650D01*
X195348D01*
X195043Y80345D01*
Y76417D01*
G01X198331Y89570D02*
Y93300D01*
G01X218215Y52000D02*
Y55841D01*
X218118Y55938D01*
Y59669D01*
G01X211819Y68331D02*
Y76000D01*
X211722D01*
G01X227800Y112588D02*
Y114600D01*
X224782Y117618D01*
Y121206D01*
X224793Y121216D01*
Y124554D01*
G01X218887Y141246D02*
Y144613D01*
X215811Y147689D01*
Y151088D01*
G01X220856Y141246D02*
Y144944D01*
X219811Y145989D01*
Y151088D01*
G01X222200Y147900D02*
X222824Y147276D01*
Y141246D01*
G01X227800Y109088D02*
X231811D01*
G54D32*
X166894Y53583D03*
X169453D03*
X174571D03*
X172012D03*
X166894Y76417D03*
X169453D03*
X174571D03*
X172012D03*
X192484Y53583D03*
X189925D03*
X187366D03*
X184807D03*
X182248D03*
X179689D03*
X177130D03*
X192484Y76417D03*
X189925D03*
X187366D03*
X184807D03*
X182248D03*
X179689D03*
X177130D03*
X195043Y53583D03*
Y76417D03*
G54D14*
X26061Y60535D03*
Y74550D03*
Y175850D03*
Y189865D03*
X40076Y60535D03*
X33068Y67542D03*
X40076Y74550D03*
Y175850D03*
X33068Y182858D03*
X40076Y189865D03*
G54D23*
X81777Y48087D03*
X92799Y48409D03*
X81777Y60292D03*
X92799Y60614D03*
G54D42*
G01X-133069Y-114500D02*
X371600D01*
Y-209700D01*
X-133069D01*
G01Y-114500D02*
Y-209700D01*
G01Y-189700D02*
X449900D01*
G01X-133069Y-169700D02*
X449900D01*
G01X-133069Y-149700D02*
X449900D01*
G01X-133069Y-130500D02*
X449900D01*
G01X119877Y30258D02*
X120692Y31074D01*
G01D02*
Y34710D01*
G01X113577Y36690D02*
X114155Y37268D01*
X116165D01*
G01X121677Y43391D02*
Y46422D01*
G01D02*
X120692Y47406D01*
Y49670D01*
G01X124630Y34710D02*
Y32737D01*
G01X122661Y49670D02*
X120692D01*
G01X127188Y41206D02*
X136906D01*
X137290Y41590D01*
G01X129677Y39237D02*
X127188D01*
G01X129514Y35828D02*
X128074Y37268D01*
X127188D01*
G01X371600Y-114500D02*
X449900D01*
Y-209700D01*
X371600D01*
G54D33*
X189300Y200598D03*
X183394Y202763D03*
Y210637D03*
X189300Y212802D03*
X195206Y202763D03*
Y210637D03*
G54D15*
X19818Y93950D03*
Y96450D03*
Y98950D03*
Y101450D03*
Y103950D03*
Y106450D03*
Y108950D03*
Y111450D03*
Y113950D03*
Y116450D03*
Y118950D03*
Y121450D03*
Y123950D03*
Y126450D03*
Y128950D03*
Y131450D03*
Y133950D03*
Y136450D03*
Y138950D03*
Y141450D03*
Y143950D03*
Y146450D03*
Y148950D03*
Y151450D03*
Y153950D03*
Y156450D03*
X46318Y93950D03*
Y96450D03*
Y98950D03*
Y101450D03*
Y103950D03*
Y106450D03*
Y108950D03*
Y111450D03*
Y113950D03*
Y116450D03*
Y118950D03*
Y121450D03*
Y123950D03*
Y126450D03*
Y128950D03*
Y131450D03*
Y133950D03*
Y136450D03*
Y138950D03*
Y141450D03*
Y143950D03*
Y146450D03*
Y148950D03*
Y151450D03*
Y153950D03*
Y156450D03*
G54D24*
X84377Y83392D03*
Y71187D03*
G54D43*
G01X108177Y49143D02*
Y49240D01*
G01D02*
Y52743D01*
G01X121177Y19321D02*
Y15390D01*
G01X139911Y31624D02*
X136845Y34690D01*
X136747D01*
G01X157831Y179100D02*
Y183550D01*
X153201Y188180D01*
Y192100D01*
G01X162831Y179100D02*
Y184415D01*
X158498Y188748D01*
Y192100D01*
G01D02*
Y194850D01*
X158531Y194883D01*
Y201050D01*
G01X153201Y192100D02*
Y196399D01*
X151031Y198569D01*
Y201050D01*
G01X167831Y179100D02*
Y183300D01*
X167929Y183398D01*
Y192100D01*
G01D02*
Y195671D01*
X166031Y197569D01*
Y201050D01*
G01X173531D02*
X166031D01*
G01X173531Y207150D02*
Y210750D01*
G54D16*
X11368Y131230D03*
Y134970D03*
X11868Y155170D03*
Y151430D03*
X56950Y205105D03*
Y201364D03*
X65850Y63802D03*
X67260Y78550D03*
X71000D03*
X65850Y67542D03*
X74302Y130350D03*
X70561D03*
X70522Y135350D03*
X74262D03*
X74302Y139350D03*
X70561D03*
X58968Y161792D03*
Y165532D03*
X79500Y200830D03*
Y204570D03*
X106307Y31690D03*
X100677Y29560D03*
Y25820D03*
X106307Y37190D03*
X97677Y38560D03*
Y34820D03*
X108418Y99222D03*
Y102963D03*
X104031Y191711D03*
Y195452D03*
X98331Y191711D03*
Y195452D03*
X115679Y13838D03*
X110047Y31690D03*
X115679Y17578D03*
X110177Y22820D03*
Y26560D03*
X121177D03*
Y22820D03*
X115677Y26560D03*
Y22820D03*
X110047Y37190D03*
X120831Y99222D03*
X114831Y99391D03*
X120831Y102963D03*
X114831Y103131D03*
X109519Y191711D03*
Y195452D03*
X115018Y191711D03*
Y195452D03*
X126131D03*
Y191711D03*
X120631Y195452D03*
Y191711D03*
X127177Y22820D03*
Y26560D03*
X139807Y27190D03*
X136747Y34690D03*
X133007D03*
X126868Y99222D03*
X131968D03*
X138331D03*
X126868Y102963D03*
X131968D03*
X138331D03*
X131631Y195452D03*
Y191711D03*
X142031Y206970D03*
Y203230D03*
X143547Y27190D03*
X145515Y54630D03*
Y50890D03*
X152131Y99222D03*
X144668D03*
X158931Y85830D03*
Y89570D03*
X157831Y99222D03*
X152131Y102963D03*
X144668D03*
X157831D03*
X158498Y192100D03*
X149461D03*
X153201D03*
X144131Y191711D03*
Y195452D03*
X160968Y40130D03*
Y43870D03*
X172468D03*
Y40130D03*
X166968Y43870D03*
Y40130D03*
X160668Y59970D03*
Y56230D03*
X169831Y99222D03*
X170031Y89570D03*
Y85830D03*
X164031Y98036D03*
X164431Y85830D03*
Y89570D03*
X175531Y85830D03*
Y89570D03*
X169831Y102963D03*
X164031Y101776D03*
X162238Y192100D03*
X171669D03*
X167929D03*
X188968Y43870D03*
Y40130D03*
X183468D03*
Y43870D03*
X177968D03*
Y40130D03*
X177918Y99222D03*
X186531Y85830D03*
Y89570D03*
X181031Y85830D03*
Y89570D03*
X192731D03*
Y85830D03*
X177918Y102963D03*
X177831Y193370D03*
Y189630D03*
X177761Y193300D03*
X181501D03*
X194468Y43870D03*
Y40130D03*
X201098Y61000D03*
X204839D03*
Y67000D03*
X201098D03*
X198331Y89570D03*
Y85830D03*
X204280Y89732D03*
Y85992D03*
G54D25*
X95877Y79527D03*
Y71653D03*
G54D34*
X218400Y21600D03*
Y198400D03*
G54D44*
G01X112588Y48899D02*
X114377Y47111D01*
X116165D01*
G01X110047Y31690D02*
X112645Y34288D01*
Y35758D01*
X113577Y36690D01*
G01X124630Y32737D02*
X127177Y30190D01*
Y26560D01*
G01X133377Y28640D02*
X131607D01*
X129527Y26560D01*
X127177D01*
G01X137290Y41590D02*
X143077D01*
X145515Y44028D01*
Y50890D01*
G01X141927Y37690D02*
X139510D01*
X138410Y38790D01*
X131777D01*
G01D02*
X131330Y39237D01*
X129677D01*
G01X133007Y34690D02*
X130406D01*
X129514Y35581D01*
Y35828D01*
G01X226742Y129958D02*
X226761Y129939D01*
G01D02*
Y124554D01*
G01X218887D02*
X218872Y124538D01*
Y117900D01*
X217772Y116800D01*
G54D35*
X211819Y59669D03*
Y68331D03*
X218118Y59669D03*
Y68331D03*
G54D26*
X107831Y114100D03*
Y179100D03*
X122831Y114100D03*
X117831D03*
X112831D03*
Y179100D03*
X117831D03*
X122831D03*
X142831Y114100D03*
X137831D03*
X132831D03*
X127831D03*
Y179100D03*
X132831D03*
X137831D03*
X142831D03*
X157831Y114100D03*
X152831D03*
X147831D03*
Y179100D03*
X152831D03*
X157831D03*
X172831Y114100D03*
X167831D03*
X162831D03*
Y179100D03*
X167831D03*
X172831D03*
X182831Y114100D03*
X177831D03*
Y179100D03*
X182831D03*
G54D17*
X33068Y125200D03*
G54D45*
G01X177831Y189630D02*
Y179100D01*
G01Y196631D02*
Y193370D01*
G01X181501Y193300D02*
X185521D01*
G03X188091Y194365I0J3636D01*
G03X189300Y197283I-2918J2918D01*
G01Y200598D01*
G54D36*
X215789Y109312D03*
Y112812D03*
X219912Y112700D03*
X223412D03*
X219811Y154588D03*
Y151088D03*
X215811Y154588D03*
Y151088D03*
X223912Y151206D03*
X227412D03*
X231811Y112588D03*
Y109088D03*
X227800Y112588D03*
Y109088D03*
G54D18*
X54550Y67542D03*
X60650D03*
X141927Y37690D03*
X148027D03*
X212115Y52000D03*
X218215D03*
X217822Y76000D03*
X211722D03*
G54D27*
X121677Y43391D03*
G54D46*
G01X19818Y98950D02*
X15487D01*
X14537Y99900D01*
G01X19818Y96450D02*
X15619D01*
X14300Y95132D01*
G01X19818Y113950D02*
X15487D01*
X14537Y114900D01*
G01X19818Y116450D02*
X16087D01*
X14537Y114900D01*
G01X19818Y108950D02*
X15487D01*
X14537Y109900D01*
G01X19818Y111450D02*
X16087D01*
X14537Y109900D01*
G01X19818Y103950D02*
X15487D01*
X14537Y104900D01*
G01X19818Y106450D02*
X16087D01*
X14537Y104900D01*
G01X19818Y101450D02*
X16087D01*
X14537Y99900D01*
G01X19818Y118950D02*
X15487D01*
X14537Y119900D01*
G01X19818Y121450D02*
X16087D01*
X14537Y119900D01*
G01X19818Y123950D02*
X16250D01*
G01X19818D02*
X23450D01*
G01X19818Y131450D02*
X15550D01*
G01X19818D02*
X23450D01*
G01X11368Y134900D02*
Y134970D01*
G01X19818Y138950D02*
X15487D01*
X14537Y139900D01*
G01X19818Y136450D02*
X16087D01*
X14537Y134900D01*
G01X19818Y133950D02*
X15487D01*
X14537Y134900D01*
G01X11368Y134970D02*
Y137868D01*
G01X19818Y146450D02*
X23250D01*
G01X19818D02*
X15381D01*
G01X15500Y158500D02*
Y154500D01*
X16050Y153950D01*
X19818D01*
G01X15500Y158500D02*
X17550Y156450D01*
X19818D01*
G01Y151450D02*
X15350D01*
G01X19818D02*
X23250D01*
G01X44268Y42900D02*
X38500D01*
G01X40968Y110300D02*
Y107132D01*
X41650Y106450D01*
X46318D01*
G01X40968Y110300D02*
X42118Y111450D01*
X46318D01*
G01X40968Y110300D02*
X42318Y108950D01*
X46318D01*
G01X40968Y115300D02*
X42118Y116450D01*
X46318D01*
G01X40968Y115300D02*
X42318Y113950D01*
X46318D01*
G01X33068Y125200D02*
X29800D01*
G01X53700Y102500D02*
X52650Y101450D01*
X46318D01*
G01X51140Y104870D02*
X50220Y103950D01*
X46318D01*
G01Y126450D02*
X52050D01*
G01X46318Y123950D02*
X49550D01*
X52050Y126450D01*
G01X46318Y131450D02*
X51700D01*
G01X46318Y121450D02*
X51871D01*
X55737Y125316D01*
G01X46318Y148950D02*
X50550D01*
X51900Y150300D01*
G01X46318Y141450D02*
X51050D01*
G01X46318Y136450D02*
X51750D01*
G01X51900Y150300D02*
X52143D01*
X52811Y149632D01*
Y147511D01*
X51750Y146450D01*
X46318D01*
G01Y143950D02*
X46468Y144100D01*
X55006D01*
X55156Y143950D01*
X58968D01*
G01X46318Y153950D02*
X50550D01*
X51900Y155300D01*
G01X46318Y156450D02*
X50750D01*
X51900Y155300D01*
G01X46318Y151450D02*
X50750D01*
X51900Y150300D01*
G01X58968Y165532D02*
X54718D01*
X54620Y165630D01*
X51770D01*
G01X81777Y48087D02*
X71656D01*
X68068Y44500D01*
G01X70632Y132032D02*
Y127132D01*
G01X74232Y130350D02*
Y126900D01*
X72832Y125500D01*
Y122050D01*
G01X70592Y135350D02*
Y139311D01*
X70632Y139350D01*
X70561D01*
G01D02*
X67650D01*
G01X58968Y165532D02*
X61881D01*
X61949Y165600D01*
X72968D01*
G01X79977Y100590D02*
Y105238D01*
X77984Y107230D01*
G01X100677Y25820D02*
Y22321D01*
G01X110177Y26560D02*
X108028D01*
X105434Y23965D01*
G01D02*
Y21115D01*
X103514Y19196D01*
Y15390D01*
G01X103268Y37183D02*
X103275Y37190D01*
X106307D01*
G01X115679Y13838D02*
Y10340D01*
G01X121177Y22820D02*
Y19321D01*
G01X114831Y99391D02*
Y95792D01*
G01Y99461D02*
Y99391D01*
G01X120631Y199500D02*
Y195452D01*
G01Y199500D02*
X124831D01*
X126131Y198200D01*
Y195452D01*
G01X133377Y28640D02*
X136560D01*
X138010Y27190D01*
X139807D01*
G01X127177Y22820D02*
Y19321D01*
G01X127831Y114100D02*
Y118700D01*
G01X131631Y195452D02*
X126131D01*
G01X157268Y29900D02*
X163600D01*
G01X143547Y27190D02*
X147045D01*
G01X147930Y33000D02*
X148027Y33097D01*
Y37690D01*
G01X158931Y89570D02*
Y92500D01*
G01X144668Y102963D02*
X146898D01*
X148368Y101493D01*
Y87900D01*
G01X147831Y114100D02*
Y118031D01*
X148900Y119100D01*
G01X148668Y106300D02*
X144668D01*
G01D02*
Y102963D01*
G01X149062Y195738D02*
X149461Y195339D01*
Y192100D01*
G01X144131Y195452D02*
Y198931D01*
X146300Y201100D01*
Y203900D01*
X149550Y207150D01*
G01D02*
X151031D01*
G01X166968Y40130D02*
Y36700D01*
G01X172468Y40130D02*
Y36700D01*
G01X166894Y53583D02*
Y49394D01*
G01Y53583D02*
Y56706D01*
G01X175531Y89570D02*
Y93000D01*
G01X164431Y89570D02*
Y93000D01*
G01X177968Y40130D02*
Y36700D01*
G01X188968Y40130D02*
Y36700D01*
G01X192484Y76417D02*
Y71016D01*
G01X186531Y89570D02*
Y93000D01*
G01X181031Y89570D02*
Y93000D01*
G01X194468Y40130D02*
Y36700D01*
G01X211819Y59669D02*
X207825Y55675D01*
G01X217724Y76000D02*
X217822D01*
G01X218118Y68331D02*
X223331D01*
G01X217822Y76000D02*
X222000D01*
G01X212669Y98300D02*
X219000D01*
G01X215789Y109312D02*
Y106211D01*
G01X217772Y116800D02*
X215789Y114817D01*
Y112812D01*
G01X231811Y112588D02*
Y115689D01*
G54D19*
X58968Y143950D03*
Y154974D03*
X140365Y18090D03*
X151388D03*
G54D37*
X218887Y124554D03*
X220856D03*
X222824D03*
X224793D03*
X226761D03*
X218887Y141246D03*
X220856D03*
X222824D03*
X224793D03*
X226761D03*
G54D28*
X121677Y46422D03*
G54D47*
G01X-127194Y-203500D02*
Y-193500D01*
X-122444D01*
G01X-124194Y-198333D02*
X-127194D01*
G01X-116319Y-193500D02*
X-113320D01*
G01X-114819D02*
Y-203500D01*
G01X-116319D02*
X-113320D01*
G01X-107319Y-193500D02*
Y-203500D01*
X-102319D01*
G01X-98069D02*
Y-193500D01*
X-94819Y-201833D01*
X-91569Y-193500D01*
Y-203500D01*
G01X-77319Y-193500D02*
Y-203500D01*
X-72319D01*
G01X-67944D02*
X-64819Y-193500D01*
X-61694Y-203500D01*
G01X-62819Y-200000D02*
X-66819D01*
G01X-54819Y-203500D02*
Y-199000D01*
X-57319Y-193500D01*
G01X-52319D02*
X-54819Y-199000D01*
G01X-42319Y-203500D02*
X-47319D01*
Y-193500D01*
X-42319D01*
G01X-44319Y-198333D02*
X-47319D01*
G01X-37319Y-203500D02*
Y-193500D01*
X-34194D01*
X-33194Y-194000D01*
X-32569Y-194667D01*
X-32319Y-196000D01*
X-32569Y-197333D01*
X-33319Y-198167D01*
X-34194Y-198667D01*
X-37319D01*
G01X-34194D02*
X-32319Y-203500D01*
G01X-24819Y-203833D02*
X-25069Y-203667D01*
Y-203333D01*
X-24819Y-203167D01*
X-24569Y-203333D01*
Y-203667D01*
X-24819Y-203833D01*
G01Y-199334D02*
X-25069Y-199167D01*
Y-198833D01*
X-24819Y-198667D01*
X-24569Y-198833D01*
Y-199167D01*
X-24819Y-199334D01*
G01X-127569Y-165000D02*
Y-155000D01*
X-125069D01*
X-124069Y-155500D01*
X-123319Y-156167D01*
X-122694Y-157166D01*
X-122194Y-158334D01*
X-122069Y-160000D01*
X-122194Y-161667D01*
X-122694Y-162834D01*
X-123319Y-163834D01*
X-124069Y-164500D01*
X-125069Y-165000D01*
X-127569D01*
G01X-112319D02*
X-117319D01*
Y-155000D01*
X-112319D01*
G01X-114319Y-159833D02*
X-117319D01*
G01X-107444Y-163667D02*
X-106444Y-164500D01*
X-105319Y-165000D01*
X-104319D01*
X-103319Y-164500D01*
X-102569Y-163667D01*
X-102194Y-162500D01*
X-102444Y-161334D01*
X-103069Y-160333D01*
X-104194Y-159667D01*
X-105694Y-159333D01*
X-106569Y-158667D01*
X-106944Y-157500D01*
X-106694Y-156333D01*
X-106069Y-155500D01*
X-105194Y-155000D01*
X-104319D01*
X-103444Y-155333D01*
X-102694Y-156167D01*
G01X-96319Y-155000D02*
X-93320D01*
G01X-94819D02*
Y-165000D01*
G01X-96319D02*
X-93320D01*
G01X-84069Y-160000D02*
X-81569D01*
Y-163000D01*
X-82319Y-164000D01*
X-83194Y-164667D01*
X-84444Y-165000D01*
X-85694Y-164667D01*
X-86569Y-164000D01*
X-87319Y-163000D01*
X-87820Y-161833D01*
X-88069Y-160500D01*
Y-159333D01*
X-87820Y-158334D01*
X-87319Y-157166D01*
X-86569Y-156167D01*
X-85819Y-155500D01*
X-84819Y-155000D01*
X-83944D01*
X-82944Y-155333D01*
X-82194Y-156000D01*
G01X-77694Y-165000D02*
Y-155000D01*
X-71944Y-165000D01*
Y-155000D01*
G01X-62319Y-165000D02*
X-67319D01*
Y-155000D01*
X-62319D01*
G01X-64319Y-159833D02*
X-67319D01*
G01X-57569Y-165000D02*
Y-155000D01*
X-55069D01*
X-54069Y-155500D01*
X-53319Y-156167D01*
X-52694Y-157166D01*
X-52194Y-158334D01*
X-52069Y-160000D01*
X-52194Y-161667D01*
X-52694Y-162834D01*
X-53319Y-163834D01*
X-54069Y-164500D01*
X-55069Y-165000D01*
X-57569D01*
G01X-37944D02*
X-34819Y-155000D01*
X-31694Y-165000D01*
G01X-32819Y-161500D02*
X-36819D01*
G01X-24819Y-155000D02*
Y-165000D01*
G01X-27694Y-155000D02*
X-21944D01*
G01X-14819Y-165333D02*
X-15069Y-165167D01*
Y-164833D01*
X-14819Y-164667D01*
X-14569Y-164833D01*
Y-165167D01*
X-14819Y-165333D01*
G01Y-160834D02*
X-15069Y-160667D01*
Y-160333D01*
X-14819Y-160167D01*
X-14569Y-160333D01*
Y-160667D01*
X-14819Y-160834D01*
G01X-7944Y-165000D02*
X-4819Y-155000D01*
X-1694Y-165000D01*
G01X-2819Y-161500D02*
X-6819D01*
G01X2681Y-165000D02*
Y-155000D01*
X5806D01*
X6806Y-155500D01*
X7431Y-156167D01*
X7681Y-157500D01*
X7431Y-158833D01*
X6681Y-159667D01*
X5806Y-160167D01*
X2681D01*
G01X5806D02*
X7681Y-165000D01*
G01X13681Y-155000D02*
X16680D01*
G01X15181D02*
Y-165000D01*
G01X13681D02*
X16680D01*
G01X27931Y-155834D02*
X27181Y-155333D01*
X26306Y-155000D01*
X25306D01*
X24181Y-155500D01*
X23306Y-156333D01*
X22681Y-157333D01*
X22180Y-159000D01*
X22056Y-160500D01*
X22306Y-162000D01*
X22681Y-163000D01*
X23431Y-164000D01*
X24306Y-164667D01*
X25181Y-165000D01*
X26056D01*
X26931Y-164667D01*
X27681Y-164167D01*
X28306Y-163500D01*
G01X37681Y-165000D02*
X32681D01*
Y-155000D01*
X37681D01*
G01X35681Y-159833D02*
X32681D01*
G01X42306Y-165000D02*
Y-155000D01*
X48056Y-165000D01*
Y-155000D01*
G01X55181D02*
Y-165000D01*
G01X52306Y-155000D02*
X58056D01*
G01X-127569Y-145000D02*
Y-135000D01*
X-125069D01*
X-124069Y-135500D01*
X-123319Y-136167D01*
X-122694Y-137166D01*
X-122194Y-138334D01*
X-122069Y-140000D01*
X-122194Y-141667D01*
X-122694Y-142834D01*
X-123319Y-143834D01*
X-124069Y-144500D01*
X-125069Y-145000D01*
X-127569D01*
G01X-117944D02*
X-114819Y-135000D01*
X-111694Y-145000D01*
G01X-112819Y-141500D02*
X-116819D01*
G01X-104819Y-135000D02*
Y-145000D01*
G01X-107694Y-135000D02*
X-101944D01*
G01X-92319Y-145000D02*
X-97319D01*
Y-135000D01*
X-92319D01*
G01X-94319Y-139833D02*
X-97319D01*
G01X-84819Y-145333D02*
X-85069Y-145167D01*
Y-144833D01*
X-84819Y-144667D01*
X-84569Y-144833D01*
Y-145167D01*
X-84819Y-145333D01*
G01Y-140834D02*
X-85069Y-140667D01*
Y-140333D01*
X-84819Y-140167D01*
X-84569Y-140333D01*
Y-140667D01*
X-84819Y-140834D01*
G01X-74819Y-135000D02*
X-75819Y-135333D01*
X-76569Y-136167D01*
X-77069Y-137166D01*
X-77444Y-138500D01*
X-77569Y-140000D01*
X-77444Y-141500D01*
X-77069Y-142834D01*
X-76569Y-143834D01*
X-75819Y-144667D01*
X-74819Y-145000D01*
X-73819Y-144667D01*
X-73069Y-143834D01*
X-72569Y-142834D01*
X-72194Y-141500D01*
X-72069Y-140000D01*
X-72194Y-138500D01*
X-72569Y-137166D01*
X-73069Y-136167D01*
X-73819Y-135333D01*
X-74819Y-135000D01*
G01X-64819Y-145000D02*
Y-135000D01*
X-66319Y-137000D01*
G01Y-145000D02*
X-63320D01*
G01X-56444Y-141667D02*
X-53194D01*
G01X-44819Y-135000D02*
X-45819Y-135333D01*
X-46569Y-136167D01*
X-47069Y-137166D01*
X-47444Y-138500D01*
X-47569Y-140000D01*
X-47444Y-141500D01*
X-47069Y-142834D01*
X-46569Y-143834D01*
X-45819Y-144667D01*
X-44819Y-145000D01*
X-43819Y-144667D01*
X-43069Y-143834D01*
X-42569Y-142834D01*
X-42194Y-141500D01*
X-42069Y-140000D01*
X-42194Y-138500D01*
X-42569Y-137166D01*
X-43069Y-136167D01*
X-43819Y-135333D01*
X-44819Y-135000D01*
G01X-37569Y-143000D02*
X-36819Y-144167D01*
X-35819Y-144833D01*
X-34694Y-145000D01*
X-33694Y-144833D01*
X-32694Y-144000D01*
X-32069Y-143000D01*
X-31944Y-142000D01*
X-32194Y-140834D01*
X-33069Y-140000D01*
X-33944Y-139667D01*
X-35069D01*
G01X-33944D02*
X-33194Y-139167D01*
X-32569Y-138334D01*
X-32319Y-137333D01*
X-32569Y-136333D01*
X-33194Y-135500D01*
X-34319Y-135000D01*
X-35444Y-135167D01*
X-36569Y-135834D01*
G01X-26444Y-141667D02*
X-23194D01*
G01X-17194Y-136667D02*
X-16444Y-135667D01*
X-15569Y-135167D01*
X-14569Y-135000D01*
X-13319Y-135333D01*
X-12444Y-136167D01*
X-12194Y-137166D01*
X-12319Y-138167D01*
X-12819Y-139000D01*
X-15319Y-140667D01*
X-16444Y-141833D01*
X-17194Y-143500D01*
X-17444Y-145000D01*
X-12194D01*
G01X-4819Y-135000D02*
X-5819Y-135333D01*
X-6569Y-136167D01*
X-7069Y-137166D01*
X-7444Y-138500D01*
X-7569Y-140000D01*
X-7444Y-141500D01*
X-7069Y-142834D01*
X-6569Y-143834D01*
X-5819Y-144667D01*
X-4819Y-145000D01*
X-3819Y-144667D01*
X-3069Y-143834D01*
X-2569Y-142834D01*
X-2194Y-141500D01*
X-2069Y-140000D01*
X-2194Y-138500D01*
X-2569Y-137166D01*
X-3069Y-136167D01*
X-3819Y-135333D01*
X-4819Y-135000D01*
G01X5181Y-145000D02*
Y-135000D01*
X3681Y-137000D01*
G01Y-145000D02*
X6680D01*
G01X14931D02*
X15181Y-142834D01*
X15556Y-141000D01*
X16056Y-139333D01*
X16681Y-137500D01*
X17681Y-135000D01*
X12681D01*
G01X-121200Y-176034D02*
X-121950Y-175533D01*
X-122825Y-175200D01*
X-123825D01*
X-124950Y-175700D01*
X-125825Y-176533D01*
X-126450Y-177533D01*
X-126950Y-179200D01*
X-127075Y-180700D01*
X-126825Y-182200D01*
X-126450Y-183200D01*
X-125700Y-184200D01*
X-124825Y-184867D01*
X-123950Y-185200D01*
X-123075D01*
X-122200Y-184867D01*
X-121450Y-184367D01*
X-120825Y-183700D01*
G01X-117075Y-185200D02*
X-113950Y-175200D01*
X-110825Y-185200D01*
G01X-111950Y-181700D02*
X-115950D01*
G01X-106450Y-185200D02*
Y-175200D01*
X-103325D01*
X-102325Y-175700D01*
X-101700Y-176367D01*
X-101450Y-177700D01*
X-101700Y-179033D01*
X-102450Y-179867D01*
X-103325Y-180367D01*
X-106450D01*
G01X-103325D02*
X-101450Y-185200D01*
G01X-96700D02*
Y-175200D01*
X-94200D01*
X-93200Y-175700D01*
X-92450Y-176367D01*
X-91825Y-177366D01*
X-91325Y-178534D01*
X-91200Y-180200D01*
X-91325Y-181867D01*
X-91825Y-183034D01*
X-92450Y-184034D01*
X-93200Y-184700D01*
X-94200Y-185200D01*
X-96700D01*
G01X-76450D02*
Y-175200D01*
X-73325D01*
X-72325Y-175700D01*
X-71700Y-176367D01*
X-71450Y-177700D01*
X-71700Y-179033D01*
X-72450Y-179867D01*
X-73325Y-180367D01*
X-76450D01*
G01X-73325D02*
X-71450Y-185200D01*
G01X-61450D02*
X-66450D01*
Y-175200D01*
X-61450D01*
G01X-63450Y-180033D02*
X-66450D01*
G01X-56325Y-185200D02*
Y-175200D01*
X-51575D01*
G01X-53325Y-180033D02*
X-56325D01*
G01X-43950Y-185533D02*
X-44200Y-185367D01*
Y-185033D01*
X-43950Y-184867D01*
X-43700Y-185033D01*
Y-185367D01*
X-43950Y-185533D01*
G01Y-181034D02*
X-44200Y-180867D01*
Y-180533D01*
X-43950Y-180367D01*
X-43700Y-180533D01*
Y-180867D01*
X-43950Y-181034D01*
G01X-33950Y-185200D02*
X-34950Y-185033D01*
X-35825Y-184367D01*
X-36575Y-183367D01*
X-37075Y-182200D01*
X-37325Y-180867D01*
Y-179533D01*
X-37075Y-178200D01*
X-36575Y-177033D01*
X-35825Y-176034D01*
X-34950Y-175367D01*
X-33950Y-175200D01*
X-32950Y-175367D01*
X-32075Y-176034D01*
X-31325Y-177033D01*
X-30825Y-178200D01*
X-30575Y-179533D01*
Y-180867D01*
X-30825Y-182200D01*
X-31325Y-183367D01*
X-32075Y-184367D01*
X-32950Y-185033D01*
X-33950Y-185200D01*
G01X-26450D02*
Y-175200D01*
X-23450D01*
X-22450Y-175700D01*
X-21700Y-176867D01*
X-21450Y-178200D01*
X-21700Y-179533D01*
X-22325Y-180533D01*
X-23450Y-181034D01*
X-26450D01*
G01X-11450Y-185200D02*
X-16450D01*
Y-175200D01*
X-11450D01*
G01X-13450Y-180033D02*
X-16450D01*
G01X-6825Y-185200D02*
Y-175200D01*
X-1075Y-185200D01*
Y-175200D01*
G01X8800Y-176034D02*
X8050Y-175533D01*
X7175Y-175200D01*
X6175D01*
X5050Y-175700D01*
X4175Y-176533D01*
X3550Y-177533D01*
X3050Y-179200D01*
X2925Y-180700D01*
X3175Y-182200D01*
X3550Y-183200D01*
X4300Y-184200D01*
X5175Y-184867D01*
X6050Y-185200D01*
X6925D01*
X7800Y-184867D01*
X8550Y-184367D01*
X9175Y-183700D01*
G01X18550Y-185200D02*
X13550D01*
Y-175200D01*
X18550D01*
G01X16550Y-180033D02*
X13550D01*
G01X23550Y-175200D02*
Y-185200D01*
X28550D01*
G01X33550Y-175200D02*
Y-185200D01*
X38550D01*
G01X43300Y-175200D02*
Y-182367D01*
X43800Y-183867D01*
X44800Y-184867D01*
X46050Y-185200D01*
X47300Y-184867D01*
X48300Y-183867D01*
X48800Y-182367D01*
Y-175200D01*
G01X53550D02*
Y-185200D01*
X58550D01*
G01X62925D02*
X66050Y-175200D01*
X69175Y-185200D01*
G01X68050Y-181700D02*
X64050D01*
G01X73550Y-185200D02*
Y-175200D01*
X76675D01*
X77675Y-175700D01*
X78300Y-176367D01*
X78550Y-177700D01*
X78300Y-179033D01*
X77550Y-179867D01*
X76675Y-180367D01*
X73550D01*
G01X76675D02*
X78550Y-185200D01*
G01X96050D02*
Y-175200D01*
G01X108800Y-176034D02*
X108050Y-175533D01*
X107175Y-175200D01*
X106175D01*
X105050Y-175700D01*
X104175Y-176533D01*
X103550Y-177533D01*
X103050Y-179200D01*
X102925Y-180700D01*
X103175Y-182200D01*
X103550Y-183200D01*
X104300Y-184200D01*
X105175Y-184867D01*
X106050Y-185200D01*
X106925D01*
X107800Y-184867D01*
X108550Y-184367D01*
X109175Y-183700D01*
G01X116050Y-185200D02*
X115050Y-185033D01*
X114175Y-184367D01*
X113425Y-183367D01*
X112925Y-182200D01*
X112675Y-180867D01*
Y-179533D01*
X112925Y-178200D01*
X113425Y-177033D01*
X114175Y-176034D01*
X115050Y-175367D01*
X116050Y-175200D01*
X117050Y-175367D01*
X117925Y-176034D01*
X118675Y-177033D01*
X119175Y-178200D01*
X119425Y-179533D01*
Y-180867D01*
X119175Y-182200D01*
X118675Y-183367D01*
X117925Y-184367D01*
X117050Y-185033D01*
X116050Y-185200D01*
G01X123175D02*
Y-175200D01*
X128925Y-185200D01*
Y-175200D01*
G01X133175Y-185200D02*
Y-175200D01*
X138925Y-185200D01*
Y-175200D01*
G01X148550Y-185200D02*
X143550D01*
Y-175200D01*
X148550D01*
G01X146550Y-180033D02*
X143550D01*
G01X158800Y-176034D02*
X158050Y-175533D01*
X157175Y-175200D01*
X156175D01*
X155050Y-175700D01*
X154175Y-176533D01*
X153550Y-177533D01*
X153050Y-179200D01*
X152925Y-180700D01*
X153175Y-182200D01*
X153550Y-183200D01*
X154300Y-184200D01*
X155175Y-184867D01*
X156050Y-185200D01*
X156925D01*
X157800Y-184867D01*
X158550Y-184367D01*
X159175Y-183700D01*
G01X166050Y-175200D02*
Y-185200D01*
G01X163175Y-175200D02*
X168925D01*
G01X174425Y-181867D02*
X177675D01*
G01X186050Y-185200D02*
Y-175200D01*
X184550Y-177200D01*
G01Y-185200D02*
X187550D01*
G01X206050D02*
Y-175200D01*
G01X213425Y-183867D02*
X214425Y-184700D01*
X215550Y-185200D01*
X216550D01*
X217550Y-184700D01*
X218300Y-183867D01*
X218675Y-182700D01*
X218425Y-181534D01*
X217800Y-180533D01*
X216675Y-179867D01*
X215175Y-179533D01*
X214300Y-178867D01*
X213925Y-177700D01*
X214175Y-176533D01*
X214800Y-175700D01*
X215675Y-175200D01*
X216550D01*
X217425Y-175533D01*
X218175Y-176367D01*
G01X226050Y-185200D02*
Y-180700D01*
X223550Y-175200D01*
G01X228550D02*
X226050Y-180700D01*
G01X233175Y-185200D02*
Y-175200D01*
X238925Y-185200D01*
Y-175200D01*
G01X248800Y-176034D02*
X248050Y-175533D01*
X247175Y-175200D01*
X246175D01*
X245050Y-175700D01*
X244175Y-176533D01*
X243550Y-177533D01*
X243050Y-179200D01*
X242925Y-180700D01*
X243175Y-182200D01*
X243550Y-183200D01*
X244300Y-184200D01*
X245175Y-184867D01*
X246050Y-185200D01*
X246925D01*
X247800Y-184867D01*
X248550Y-184367D01*
X249175Y-183700D01*
G01X267050Y-179867D02*
X267550Y-179367D01*
X267925Y-178534D01*
X268175Y-177366D01*
X267925Y-176367D01*
X267425Y-175700D01*
X266550Y-175200D01*
X263175D01*
Y-185200D01*
X267300D01*
X268175Y-184534D01*
X268675Y-183533D01*
X268925Y-182367D01*
X268675Y-181200D01*
X267925Y-180200D01*
X267050Y-179867D01*
X263175D01*
G01X276050Y-185200D02*
X275050Y-185033D01*
X274175Y-184367D01*
X273425Y-183367D01*
X272925Y-182200D01*
X272675Y-180867D01*
Y-179533D01*
X272925Y-178200D01*
X273425Y-177033D01*
X274175Y-176034D01*
X275050Y-175367D01*
X276050Y-175200D01*
X277050Y-175367D01*
X277925Y-176034D01*
X278675Y-177033D01*
X279175Y-178200D01*
X279425Y-179533D01*
Y-180867D01*
X279175Y-182200D01*
X278675Y-183367D01*
X277925Y-184367D01*
X277050Y-185033D01*
X276050Y-185200D01*
G01X282925D02*
X286050Y-175200D01*
X289175Y-185200D01*
G01X288050Y-181700D02*
X284050D01*
G01X293550Y-185200D02*
Y-175200D01*
X296675D01*
X297675Y-175700D01*
X298300Y-176367D01*
X298550Y-177700D01*
X298300Y-179033D01*
X297550Y-179867D01*
X296675Y-180367D01*
X293550D01*
G01X296675D02*
X298550Y-185200D01*
G01X303300D02*
Y-175200D01*
X305800D01*
X306800Y-175700D01*
X307550Y-176367D01*
X308175Y-177366D01*
X308675Y-178534D01*
X308800Y-180200D01*
X308675Y-181867D01*
X308175Y-183034D01*
X307550Y-184034D01*
X306800Y-184700D01*
X305800Y-185200D01*
X303300D01*
G01X-16319Y-204500D02*
Y-194500D01*
X-13319D01*
X-12319Y-195000D01*
X-11569Y-196167D01*
X-11319Y-197500D01*
X-11569Y-198833D01*
X-12194Y-199833D01*
X-13319Y-200334D01*
X-16319D01*
G01X-6319Y-204500D02*
Y-194500D01*
X-3194D01*
X-2194Y-195000D01*
X-1569Y-195667D01*
X-1319Y-197000D01*
X-1569Y-198333D01*
X-2319Y-199167D01*
X-3194Y-199667D01*
X-6319D01*
G01X-3194D02*
X-1319Y-204500D01*
G01X4681Y-194500D02*
X7681D01*
G01X6181D02*
Y-204500D01*
G01X4681D02*
X7681D01*
G01X12931D02*
Y-194500D01*
X16181Y-202833D01*
X19431Y-194500D01*
Y-204500D01*
G01X23056D02*
X26181Y-194500D01*
X29306Y-204500D01*
G01X28181Y-201000D02*
X24181D01*
G01X33681Y-204500D02*
Y-194500D01*
X36806D01*
X37806Y-195000D01*
X38431Y-195667D01*
X38681Y-197000D01*
X38431Y-198333D01*
X37681Y-199167D01*
X36806Y-199667D01*
X33681D01*
G01X36806D02*
X38681Y-204500D01*
G01X46181D02*
Y-200000D01*
X43681Y-194500D01*
G01X48681D02*
X46181Y-200000D01*
G01X63556Y-203167D02*
X64556Y-204000D01*
X65681Y-204500D01*
X66681D01*
X67681Y-204000D01*
X68431Y-203167D01*
X68806Y-202000D01*
X68556Y-200834D01*
X67931Y-199833D01*
X66806Y-199167D01*
X65306Y-198833D01*
X64431Y-198167D01*
X64056Y-197000D01*
X64306Y-195833D01*
X64931Y-195000D01*
X65806Y-194500D01*
X66681D01*
X67556Y-194833D01*
X68306Y-195667D01*
G01X74681Y-194500D02*
X77680D01*
G01X76181D02*
Y-204500D01*
G01X74681D02*
X77680D01*
G01X83431D02*
Y-194500D01*
X85931D01*
X86931Y-195000D01*
X87681Y-195667D01*
X88306Y-196666D01*
X88806Y-197834D01*
X88931Y-199500D01*
X88806Y-201167D01*
X88306Y-202334D01*
X87681Y-203334D01*
X86931Y-204000D01*
X85931Y-204500D01*
X83431D01*
G01X98681D02*
X93681D01*
Y-194500D01*
X98681D01*
G01X96681Y-199333D02*
X93681D01*
G01X4000Y220000D02*
X0Y216000D01*
Y4000D01*
X4000Y0D01*
X236000D01*
X240000Y4000D01*
Y216000D01*
X236000Y220000D01*
X4000D01*
G01X15693Y-127100D02*
Y-117100D01*
X20444D01*
G01X18694Y-121933D02*
X15693D01*
G01X24943Y-127100D02*
X28068Y-117100D01*
X31194Y-127100D01*
G01X30068Y-123600D02*
X26068D01*
G01X40818Y-117934D02*
X40068Y-117433D01*
X39194Y-117100D01*
X38194D01*
X37068Y-117600D01*
X36194Y-118433D01*
X35568Y-119433D01*
X35068Y-121100D01*
X34943Y-122600D01*
X35194Y-124100D01*
X35568Y-125100D01*
X36318Y-126100D01*
X37194Y-126767D01*
X38068Y-127100D01*
X38943D01*
X39818Y-126767D01*
X40568Y-126267D01*
X41194Y-125600D01*
G01X50569Y-127100D02*
X45568D01*
Y-117100D01*
X50569D01*
G01X48568Y-121933D02*
X45568D01*
G01X59068Y-121767D02*
X59568Y-121267D01*
X59943Y-120434D01*
X60194Y-119267D01*
X59943Y-118267D01*
X59443Y-117600D01*
X58568Y-117100D01*
X55193D01*
Y-127100D01*
X59319D01*
X60194Y-126434D01*
X60694Y-125433D01*
X60943Y-124267D01*
X60694Y-123100D01*
X59943Y-122100D01*
X59068Y-121767D01*
X55193D01*
G01X68068Y-127100D02*
X67068Y-126933D01*
X66194Y-126267D01*
X65444Y-125267D01*
X64943Y-124100D01*
X64693Y-122767D01*
Y-121433D01*
X64943Y-120100D01*
X65444Y-118933D01*
X66194Y-117934D01*
X67068Y-117267D01*
X68068Y-117100D01*
X69068Y-117267D01*
X69943Y-117934D01*
X70694Y-118933D01*
X71194Y-120100D01*
X71444Y-121433D01*
Y-122767D01*
X71194Y-124100D01*
X70694Y-125267D01*
X69943Y-126267D01*
X69068Y-126933D01*
X68068Y-127100D01*
G01X78068D02*
X77068Y-126933D01*
X76194Y-126267D01*
X75444Y-125267D01*
X74943Y-124100D01*
X74693Y-122767D01*
Y-121433D01*
X74943Y-120100D01*
X75444Y-118933D01*
X76194Y-117934D01*
X77068Y-117267D01*
X78068Y-117100D01*
X79068Y-117267D01*
X79943Y-117934D01*
X80694Y-118933D01*
X81194Y-120100D01*
X81444Y-121433D01*
Y-122767D01*
X81194Y-124100D01*
X80694Y-125267D01*
X79943Y-126267D01*
X79068Y-126933D01*
X78068Y-127100D01*
G01X85318D02*
Y-117100D01*
G01X90068D02*
X85318Y-123267D01*
G01X90818Y-127100D02*
X87444Y-120434D01*
G01X67681Y-143000D02*
X68306Y-144000D01*
X69056Y-144667D01*
X69931Y-145000D01*
X70931Y-144667D01*
X71681Y-144000D01*
X72431Y-143000D01*
X72681Y-141667D01*
Y-135000D01*
G01X80181Y-145000D02*
X79181Y-144833D01*
X78306Y-144167D01*
X77556Y-143167D01*
X77056Y-142000D01*
X76806Y-140667D01*
Y-139333D01*
X77056Y-138000D01*
X77556Y-136833D01*
X78306Y-135834D01*
X79181Y-135167D01*
X80181Y-135000D01*
X81181Y-135167D01*
X82056Y-135834D01*
X82806Y-136833D01*
X83306Y-138000D01*
X83556Y-139333D01*
Y-140667D01*
X83306Y-142000D01*
X82806Y-143167D01*
X82056Y-144167D01*
X81181Y-144833D01*
X80181Y-145000D01*
G01X91181Y-139667D02*
X91681Y-139167D01*
X92056Y-138334D01*
X92306Y-137166D01*
X92056Y-136167D01*
X91556Y-135500D01*
X90681Y-135000D01*
X87306D01*
Y-145000D01*
X91431D01*
X92306Y-144334D01*
X92806Y-143333D01*
X93056Y-142167D01*
X92806Y-141000D01*
X92056Y-140000D01*
X91181Y-139667D01*
X87306D01*
G01X107306Y-145000D02*
Y-135000D01*
X113056Y-145000D01*
Y-135000D01*
G01X117431D02*
Y-142167D01*
X117931Y-143667D01*
X118931Y-144667D01*
X120181Y-145000D01*
X121431Y-144667D01*
X122431Y-143667D01*
X122931Y-142167D01*
Y-135000D01*
G01X126931Y-145000D02*
Y-135000D01*
X130181Y-143333D01*
X133431Y-135000D01*
Y-145000D01*
G01X141181Y-139667D02*
X141681Y-139167D01*
X142056Y-138334D01*
X142306Y-137166D01*
X142056Y-136167D01*
X141556Y-135500D01*
X140681Y-135000D01*
X137306D01*
Y-145000D01*
X141431D01*
X142306Y-144334D01*
X142806Y-143333D01*
X143056Y-142167D01*
X142806Y-141000D01*
X142056Y-140000D01*
X141181Y-139667D01*
X137306D01*
G01X152681Y-145000D02*
X147681D01*
Y-135000D01*
X152681D01*
G01X150681Y-139833D02*
X147681D01*
G01X157681Y-145000D02*
Y-135000D01*
X160806D01*
X161806Y-135500D01*
X162431Y-136167D01*
X162681Y-137500D01*
X162431Y-138833D01*
X161681Y-139667D01*
X160806Y-140167D01*
X157681D01*
G01X160806D02*
X162681Y-145000D01*
G01X170181Y-145333D02*
X169931Y-145167D01*
Y-144833D01*
X170181Y-144667D01*
X170431Y-144833D01*
Y-145167D01*
X170181Y-145333D01*
G01Y-140834D02*
X169931Y-140667D01*
Y-140333D01*
X170181Y-140167D01*
X170431Y-140333D01*
Y-140667D01*
X170181Y-140834D01*
G01X177806Y-136667D02*
X178556Y-135667D01*
X179431Y-135167D01*
X180431Y-135000D01*
X181681Y-135333D01*
X182556Y-136167D01*
X182806Y-137166D01*
X182681Y-138167D01*
X182181Y-139000D01*
X179681Y-140667D01*
X178556Y-141833D01*
X177806Y-143500D01*
X177556Y-145000D01*
X182806D01*
G01X187431Y-143000D02*
X188181Y-144167D01*
X189181Y-144833D01*
X190306Y-145000D01*
X191306Y-144833D01*
X192306Y-144000D01*
X192931Y-143000D01*
X193056Y-142000D01*
X192806Y-140834D01*
X191931Y-140000D01*
X191056Y-139667D01*
X189931D01*
G01X191056D02*
X191806Y-139167D01*
X192431Y-138334D01*
X192681Y-137333D01*
X192431Y-136333D01*
X191806Y-135500D01*
X190681Y-135000D01*
X189556Y-135167D01*
X188431Y-135834D01*
G01X200181Y-145000D02*
Y-135000D01*
X198681Y-137000D01*
G01Y-145000D02*
X201681D01*
G01X208556Y-141667D02*
X211806D01*
G01X220181Y-135000D02*
X219181Y-135333D01*
X218431Y-136167D01*
X217931Y-137166D01*
X217556Y-138500D01*
X217431Y-140000D01*
X217556Y-141500D01*
X217931Y-142834D01*
X218431Y-143834D01*
X219181Y-144667D01*
X220181Y-145000D01*
X221181Y-144667D01*
X221931Y-143834D01*
X222431Y-142834D01*
X222806Y-141500D01*
X222931Y-140000D01*
X222806Y-138500D01*
X222431Y-137166D01*
X221931Y-136167D01*
X221181Y-135333D01*
X220181Y-135000D01*
G01X230181D02*
X229181Y-135333D01*
X228431Y-136167D01*
X227931Y-137166D01*
X227556Y-138500D01*
X227431Y-140000D01*
X227556Y-141500D01*
X227931Y-142834D01*
X228431Y-143834D01*
X229181Y-144667D01*
X230181Y-145000D01*
X231181Y-144667D01*
X231931Y-143834D01*
X232431Y-142834D01*
X232806Y-141500D01*
X232931Y-140000D01*
X232806Y-138500D01*
X232431Y-137166D01*
X231931Y-136167D01*
X231181Y-135333D01*
X230181Y-135000D01*
G01X240181D02*
X239181Y-135333D01*
X238431Y-136167D01*
X237931Y-137166D01*
X237556Y-138500D01*
X237431Y-140000D01*
X237556Y-141500D01*
X237931Y-142834D01*
X238431Y-143834D01*
X239181Y-144667D01*
X240181Y-145000D01*
X241181Y-144667D01*
X241931Y-143834D01*
X242431Y-142834D01*
X242806Y-141500D01*
X242931Y-140000D01*
X242806Y-138500D01*
X242431Y-137166D01*
X241931Y-136167D01*
X241181Y-135333D01*
X240181Y-135000D01*
G01X250181D02*
X249181Y-135333D01*
X248431Y-136167D01*
X247931Y-137166D01*
X247556Y-138500D01*
X247431Y-140000D01*
X247556Y-141500D01*
X247931Y-142834D01*
X248431Y-143834D01*
X249181Y-144667D01*
X250181Y-145000D01*
X251181Y-144667D01*
X251931Y-143834D01*
X252431Y-142834D01*
X252806Y-141500D01*
X252931Y-140000D01*
X252806Y-138500D01*
X252431Y-137166D01*
X251931Y-136167D01*
X251181Y-135333D01*
X250181Y-135000D01*
G01X257806Y-140834D02*
X258681Y-139667D01*
X259431Y-139000D01*
X260431Y-138667D01*
X261306Y-139000D01*
X261931Y-139667D01*
X262431Y-140667D01*
X262556Y-141833D01*
X262431Y-142834D01*
X261931Y-143834D01*
X261181Y-144667D01*
X260306Y-145000D01*
X259306Y-144667D01*
X258431Y-143667D01*
X257931Y-142167D01*
X257806Y-140500D01*
X258056Y-138334D01*
X258431Y-137166D01*
X259056Y-136000D01*
X259931Y-135167D01*
X260806Y-135000D01*
X261681Y-135333D01*
X262306Y-136167D01*
G01X268056Y-143834D02*
X268931Y-144667D01*
X269931Y-145000D01*
X270931Y-144667D01*
X271806Y-143667D01*
X272431Y-142167D01*
X272681Y-140667D01*
Y-138833D01*
X272431Y-137333D01*
X271806Y-136000D01*
X271056Y-135333D01*
X270181Y-135000D01*
X269181Y-135333D01*
X268431Y-136000D01*
X267931Y-137000D01*
X267681Y-138334D01*
X267931Y-139500D01*
X268556Y-140667D01*
X269306Y-141334D01*
X270181Y-141500D01*
X271181Y-141167D01*
X271931Y-140333D01*
X272681Y-138833D01*
G01X379781Y-175500D02*
Y-185500D01*
X384781D01*
G01X392281Y-178834D02*
Y-185500D01*
G01Y-176167D02*
X392031Y-176000D01*
Y-175667D01*
X392281Y-175500D01*
X392531Y-175667D01*
Y-176000D01*
X392281Y-176167D01*
G01X401531Y-185500D02*
Y-177000D01*
X401781Y-176167D01*
X402281Y-175667D01*
X403031Y-175500D01*
X403781Y-175833D01*
X404156Y-176667D01*
G01X402656Y-179500D02*
X400156D01*
G01X410406Y-181000D02*
X414406D01*
X414031Y-179833D01*
X413406Y-179167D01*
X412531Y-178834D01*
X411656Y-179000D01*
X410906Y-179500D01*
X410406Y-180667D01*
X410156Y-181667D01*
Y-182667D01*
X410406Y-183667D01*
X411031Y-184667D01*
X411781Y-185333D01*
X412656Y-185500D01*
X413531Y-185167D01*
X414406Y-184167D01*
G01X422281Y-185833D02*
X422031Y-185667D01*
Y-185333D01*
X422281Y-185167D01*
X422531Y-185333D01*
Y-185667D01*
X422281Y-185833D01*
G01Y-181334D02*
X422031Y-181167D01*
Y-180833D01*
X422281Y-180667D01*
X422531Y-180833D01*
Y-181167D01*
X422281Y-181334D01*
G01X429531Y-183500D02*
X430281Y-184667D01*
X431281Y-185333D01*
X432406Y-185500D01*
X433406Y-185333D01*
X434406Y-184500D01*
X435031Y-183500D01*
X435156Y-182500D01*
X434906Y-181334D01*
X434031Y-180500D01*
X433156Y-180167D01*
X432031D01*
G01X433156D02*
X433906Y-179667D01*
X434531Y-178834D01*
X434781Y-177833D01*
X434531Y-176833D01*
X433906Y-176000D01*
X432781Y-175500D01*
X431656Y-175667D01*
X430531Y-176334D01*
G54D38*
X221700Y163100D03*
X225450Y171800D03*
X229200Y163100D03*
G54D29*
X118724Y34710D03*
X120692D03*
X122661D03*
X124630D03*
X118724Y49670D03*
X120692D03*
X122661D03*
X124630D03*
G54D39*
G01X223412Y112700D02*
Y109100D01*
G01Y112700D02*
Y114640D01*
X222340Y115712D01*
Y118210D01*
X222812Y118682D01*
Y121229D01*
X222824Y121241D01*
Y124554D01*
G01X219912Y112700D02*
Y109100D01*
G01Y112700D02*
Y114202D01*
X221340Y115630D01*
Y118090D01*
X220842Y118588D01*
Y121228D01*
X220856Y121241D01*
Y124554D01*
G01X223912Y151206D02*
Y149441D01*
X224500Y148853D01*
Y148668D01*
X225230Y147938D01*
Y144996D01*
X224793Y144559D01*
Y141246D01*
G01X226761D02*
Y144559D01*
X226290Y145030D01*
Y148133D01*
X227412Y149256D01*
Y151206D01*
G01X223912D02*
Y153156D01*
X225320Y154563D01*
Y158680D01*
X221700Y162300D01*
Y163100D01*
G01D02*
Y170975D01*
X222525Y171800D01*
X225450D01*
G01X227412Y151206D02*
Y153156D01*
X226320Y154248D01*
Y159420D01*
X229200Y162300D01*
Y163100D01*
M02*
