G04 CAM350 V10.0.1 (Build 314) Date:  Tue Jul 17 14:43:08 2018 *
G04 Database: D:\LGR\2018\JULY\REL50470_POWER SOURCE BOARD\REL50470_FINAL.cam *
G04 Layer 17: SPPR *
%FSLAX25Y25*%
%MOIN*%
%SFA1.000B1.000*%

%MIA0B0*%
%IPPOS*%
%AMrect10x24xr2*
4,1,36,-0.00492,0.00984,-0.00488,0.01022,-0.00477,0.01059,-0.00459,0.01093,-0.00434,0.01123,-0.00404,0.01148,-0.00370,0.01166,-0.00333,0.01177,-0.00295,0.01181,0.00295,0.01181,0.00333,0.01177,0.00370,0.01166,0.00404,0.01148,0.00434,0.01123,0.00459,0.01093,0.00477,0.01059,0.00488,0.01022,0.00492,0.00984,0.00492,-0.00984,0.00488,-0.01022,0.00477,-0.01059,0.00459,-0.01093,0.00434,-0.01123,0.00404,-0.01148,0.00370,-0.01166,0.00333,-0.01177,0.00295,-0.01181,-0.00295,-0.01181,-0.00333,-0.01177,-0.00370,-0.01166,-0.00404,-0.01148,-0.00434,-0.01123,-0.00459,-0.01093,-0.00477,-0.01059,-0.00488,-0.01022,-0.00492,-0.00984,-0.00492,0.00984,0.00000*
%
%AMrect24x10xr2*
4,1,36,-0.01181,0.00295,-0.01177,0.00333,-0.01166,0.00370,-0.01148,0.00404,-0.01123,0.00434,-0.01093,0.00459,-0.01059,0.00477,-0.01022,0.00488,-0.00984,0.00492,0.00984,0.00492,0.01022,0.00488,0.01059,0.00477,0.01093,0.00459,0.01123,0.00434,0.01148,0.00404,0.01166,0.00370,0.01177,0.00333,0.01181,0.00295,0.01181,-0.00295,0.01177,-0.00333,0.01166,-0.00370,0.01148,-0.00404,0.01123,-0.00434,0.01093,-0.00459,0.01059,-0.00477,0.01022,-0.00488,0.00984,-0.00492,-0.00984,-0.00492,-0.01022,-0.00488,-0.01059,-0.00477,-0.01093,-0.00459,-0.01123,-0.00434,-0.01148,-0.00404,-0.01166,-0.00370,-0.01177,-0.00333,-0.01181,-0.00295,-0.01181,0.00295,0.00000*
%
%ADD10C,0.00600*%
%ADD12C,0.01000*%
%ADD18R,0.04528X0.04331*%
%ADD19R,0.02400X0.03000*%
%ADD70R,0.03000X0.02400*%
%ADD71R,0.02362X0.04331*%
%ADD20R,0.07600X0.08000*%
%ADD21R,0.05100X0.05900*%
%ADD22R,0.05500X0.07500*%
%ADD23R,0.01890X0.01575*%
%ADD24R,0.02362X0.05984*%
%ADD25R,0.03347X0.00787*%
%ADD26R,0.00787X0.03347*%
%ADD27R,0.03100X0.03100*%
%ADD28R,0.03347X0.01378*%
%ADD29R,0.05984X0.02362*%
%ADD72R,0.02800X0.04300*%
%ADD73R,0.05900X0.05100*%
%ADD30R,0.11000X0.05500*%
%ADD31rect10x24xr2*%
%ADD32R,0.01575X0.01890*%
%ADD33R,0.03543X0.02756*%
%ADD34R,0.03937X0.05906*%
%ADD35R,0.05500X0.11000*%
%ADD36R,0.05900X0.13800*%
%ADD37R,0.01575X0.08268*%
%ADD38R,0.07500X0.05500*%
%ADD39R,0.02000X0.08700*%
%ADD40R,0.22047X0.09055*%
%ADD41R,0.04016X0.12520*%
%ADD42rect24x10xr2*%
%ADD43R,0.08071X0.05709*%
%ADD44R,0.05906X0.02165*%
%ADD45R,0.02756X0.03543*%
%ADD46C,0.00945*%
%ADD47R,0.04300X0.02800*%
%ADD48R,0.13800X0.05900*%
%ADD49R,0.00984X0.02461*%
%ADD50R,0.02461X0.00984*%
%ADD51R,0.03543X0.03150*%
%ADD52R,0.08268X0.07087*%
%ADD53R,0.04724X0.06299*%
%ADD54R,0.04331X0.04528*%
%ADD55R,0.17717X0.05118*%
%ADD56R,0.01968X0.01968*%
%ADD57R,0.03150X0.03543*%
%ADD58R,0.02362X0.01968*%
%ADD59R,0.03543X0.01968*%
%ADD60R,0.12992X0.06299*%
%ADD61R,0.03543X0.03740*%
%ADD62R,0.21654X0.03937*%
%ADD63R,0.08504X0.08898*%
%ADD64R,0.09449X0.12992*%
%ADD65R,0.12520X0.04016*%
%ADD66R,0.08898X0.08504*%
%ADD67R,0.03740X0.03543*%
%ADD68R,0.02756X0.01575*%
%ADD69R,0.12992X0.09449*%
%ADD74R,0.04488X0.19016*%
%ADD75R,0.19016X0.04488*%
%ADD76R,0.11811X0.06299*%
%ADD77C,0.04000*%
%LNSPPR*%
%LPD*%
G36*
X358584Y103984D02*
G01Y106248D01*
X360848*
Y103984*
X358584*
G37*
G36*
Y99752D02*
G01Y102016D01*
X360848*
Y99752*
X358584*
G37*
G36*
X354352Y103984D02*
G01Y106248D01*
X356616*
Y103984*
X354352*
G37*
G36*
Y99752D02*
G01Y102016D01*
X356616*
Y99752*
X354352*
G37*
G36*
X317566Y309901D02*
G01Y312264D01*
X319928*
Y309901*
X317566*
G37*
G36*
Y306701D02*
G01Y309064D01*
X319928*
Y306701*
X317566*
G37*
G36*
X314366Y309901D02*
G01Y312264D01*
X316728*
Y309901*
X314366*
G37*
G36*
Y306701D02*
G01Y309064D01*
X316728*
Y306701*
X314366*
G37*
G36*
X136166Y138401D02*
G01Y140764D01*
X138528*
Y138401*
X136166*
G37*
G36*
Y135201D02*
G01Y137564D01*
X138528*
Y135201*
X136166*
G37*
G36*
X132966Y138401D02*
G01Y140764D01*
X135328*
Y138401*
X132966*
G37*
G36*
Y135201D02*
G01Y137564D01*
X135328*
Y135201*
X132966*
G37*
G36*
X103966Y417401D02*
G01Y419764D01*
X106328*
Y417401*
X103966*
G37*
G36*
Y414201D02*
G01Y416564D01*
X106328*
Y414201*
X103966*
G37*
G36*
X100766Y417401D02*
G01Y419764D01*
X103128*
Y417401*
X100766*
G37*
G36*
Y414201D02*
G01Y416564D01*
X103128*
Y414201*
X100766*
G37*
G36*
X237013Y150394D02*
G01Y153346D01*
X241777*
Y150394*
X237013*
G37*
G36*
Y146654D02*
G01Y149606D01*
X241777*
Y146654*
X237013*
G37*
G36*
X231423Y150394D02*
G01Y153346D01*
X236187*
Y150394*
X231423*
G37*
G36*
Y146654D02*
G01Y149606D01*
X236187*
Y146654*
X231423*
G37*
G54D18*
X509854Y417200D03*
Y410800D03*
G54D19*
X504069Y417200D03*
G54D70*
X461700Y49231D03*
X464100Y77731D03*
G54D71*
X461640Y69318D03*
G54D70*
X458600Y77831D03*
G54D20*
X415500Y458500D03*
G54D21*
X424437Y364500D03*
G54D22*
X279102Y30200D03*
G54D19*
X570531Y337700D03*
G54D23*
X561790Y351100D03*
Y346100D03*
G54D70*
X568400Y50031D03*
X557900Y356031D03*
G54D23*
X558010Y351100D03*
G54D19*
X570869Y80000D03*
G54D70*
X568400Y53969D03*
G54D71*
X454160Y59082D03*
G54D70*
X454300Y53469D03*
G54D19*
X347431Y89700D03*
G54D24*
X483100Y89287D03*
G54D19*
X524931Y104100D03*
G54D24*
X473100Y67713D03*
G54D70*
X472600Y60269D03*
G54D24*
X483100Y67713D03*
G54D70*
X483700Y60269D03*
G54D24*
X478100Y67713D03*
G54D70*
Y60269D03*
G54D24*
Y89287D03*
G54D70*
X464100Y81669D03*
X478100Y96131D03*
X483600D03*
G54D24*
X488100Y89287D03*
G54D25*
X349824Y99850D03*
Y101425D03*
Y106150D03*
G54D19*
X342769Y101400D03*
G54D26*
X352876Y95224D03*
G54D25*
X349824Y98276D03*
Y107724D03*
G54D19*
X342869Y109200D03*
G54D26*
X352876Y110776D03*
G54D19*
X342769Y114800D03*
G54D26*
X354450Y110776D03*
G54D19*
X354369Y117900D03*
G54D26*
X362324Y110776D03*
G54D19*
X367931Y116900D03*
G54D25*
X365376Y107724D03*
G54D19*
X372431Y110700D03*
G54D25*
X365376Y106150D03*
G54D19*
X382531Y110700D03*
G54D25*
X365376Y104575D03*
G54D19*
X372431Y104600D03*
G54D71*
X461640Y59082D03*
G54D70*
X461700Y53169D03*
G54D27*
X489300Y412253D03*
Y406347D03*
G54D26*
X354450Y95224D03*
G54D19*
X351369Y89700D03*
G54D26*
X359175Y95224D03*
Y110776D03*
G54D70*
X545500Y61031D03*
G54D19*
X98869Y375100D03*
G54D28*
X100931Y368959D03*
G54D19*
X94931Y375100D03*
G54D70*
X98800Y384331D03*
G54D28*
X100931Y366400D03*
G54D70*
X97300Y308919D03*
X102800Y304981D03*
G54D26*
X360750Y110776D03*
G54D70*
X527500Y91969D03*
G54D21*
X383137Y96400D03*
X384337Y87000D03*
G54D25*
X365376Y99850D03*
G54D19*
X382431Y104600D03*
G54D25*
X365376Y98276D03*
G54D21*
X375263Y96400D03*
G54D26*
X362324Y95224D03*
G54D21*
X376463Y87000D03*
G54D27*
X363947D03*
G54D26*
X360750Y95224D03*
G54D27*
X369853Y87000D03*
G54D19*
X556452Y83463D03*
X578852Y83963D03*
X582469Y95400D03*
G54D70*
X545500Y64969D03*
G54D29*
X250349Y303827D03*
G54D19*
X242687Y304848D03*
G54D29*
X271924Y298827D03*
G54D19*
X278613Y297352D03*
G54D29*
X250349Y298827D03*
G54D19*
X242587Y299048D03*
G54D29*
X250349Y293827D03*
G54D19*
X242587Y293548D03*
G54D72*
X285818Y249033D03*
G54D27*
X340600Y185847D03*
G54D73*
X340900Y179337D03*
G54D27*
Y133953D03*
G54D70*
Y139031D03*
G54D27*
X353900Y240047D03*
X242047Y190500D03*
G54D21*
X235737D03*
G54D27*
X110000Y335047D03*
G54D73*
Y327437D03*
G54D27*
X390047Y276000D03*
X251500Y364047D03*
G54D21*
X259063Y364000D03*
G54D27*
X461800Y290153D03*
G54D70*
X473500Y399831D03*
G54D30*
X308866Y233436D03*
X295334Y233569D03*
X322834Y233669D03*
G54D31*
X243490Y143504D03*
X235616Y156496D03*
X239553Y143504D03*
G54D19*
X52734Y90791D03*
X30797Y94291D03*
Y99291D03*
X48797Y95791D03*
G54D72*
X473557Y329407D03*
G54D70*
X410000Y212469D03*
G54D19*
X474031Y335200D03*
G54D70*
X465100Y344731D03*
G54D32*
X397400Y246810D03*
G54D19*
X477948Y346260D03*
X477969Y335200D03*
G54D72*
X464853Y329500D03*
G54D70*
X458900Y339769D03*
G54D19*
X578931Y73300D03*
G54D72*
X374600Y314100D03*
G54D32*
X392300Y250490D03*
X397400Y250590D03*
X402500Y250390D03*
G54D19*
X364231Y200000D03*
X361931Y205800D03*
G54D32*
X356400Y226810D03*
X368600D03*
X362700D03*
G54D33*
X570000Y351000D03*
G54D22*
X578602Y363000D03*
G54D70*
X495000Y396831D03*
X398000Y357169D03*
G54D21*
X361437Y353000D03*
G54D34*
X137491Y542300D03*
X166009Y542400D03*
X148909Y542300D03*
G54D72*
X80761Y515500D03*
X48167D03*
G54D34*
X154591Y542400D03*
G54D72*
X107261Y515500D03*
X75167D03*
G54D22*
X48302Y77300D03*
X53202Y67200D03*
G54D19*
X34734Y99291D03*
G54D22*
X277732Y49109D03*
G54D70*
X264800Y92231D03*
X266291Y74266D03*
X261291D03*
X264800Y96169D03*
X270300D03*
G54D31*
X229710Y156496D03*
G54D19*
X229679Y163200D03*
G54D70*
X251900Y154069D03*
X479100Y246931D03*
G54D35*
X558098Y234300D03*
G54D30*
X537100Y152802D03*
G54D35*
X557898Y248000D03*
G54D70*
X479100Y255831D03*
G54D36*
X546508Y165400D03*
G54D37*
X521445Y36500D03*
G54D19*
X67746Y451000D03*
X213093Y450911D03*
X227156D03*
X222093D03*
X84131Y453100D03*
X98037Y451500D03*
Y444000D03*
G54D22*
X460202Y551100D03*
G54D38*
X412200Y552107D03*
G54D22*
X46480Y562202D03*
X94782Y557522D03*
X82568Y535622D03*
X94802Y545600D03*
G54D19*
X429719Y445632D03*
X434782D03*
X478982D03*
G54D39*
X214424Y534861D03*
Y555361D03*
G54D40*
X200624Y571944D03*
G54D70*
X550500Y61031D03*
G54D37*
X534043Y11697D03*
G54D70*
X550500Y64969D03*
G54D37*
X530894Y11697D03*
G54D39*
X120277Y536350D03*
Y556850D03*
G54D40*
X119477Y573433D03*
G54D37*
X511996Y11697D03*
G54D19*
X447419Y445632D03*
X458619D03*
X463882D03*
G54D37*
X515146Y11697D03*
Y36500D03*
X505697Y11697D03*
X511996Y36500D03*
X502547Y11697D03*
X505697Y36500D03*
X496248Y11697D03*
X502547Y36500D03*
X493098Y11697D03*
X496248Y36500D03*
X486799Y11697D03*
X493098Y36500D03*
X483650Y11697D03*
X486799Y36500D03*
G54D19*
X245056Y450911D03*
X255056D03*
X239993D03*
G54D41*
X293996Y568000D03*
G54D37*
X521445Y11697D03*
G54D41*
X293996Y596000D03*
G54D37*
X524594Y11697D03*
X483650Y36500D03*
G54D22*
X239151Y534111D03*
X239245Y544111D03*
X203127Y560713D03*
G54D37*
X524594Y36500D03*
G54D22*
X428329Y72300D03*
G54D70*
X393600Y76469D03*
X460000Y344731D03*
X567321Y65431D03*
X388400Y72231D03*
X392300Y89669D03*
X393600Y72531D03*
G54D42*
X245065Y147047D03*
G54D70*
X246100Y138669D03*
G54D19*
X528269Y72000D03*
X535352Y73963D03*
X527969Y77500D03*
G54D43*
X245516Y421502D03*
G54D19*
X539289Y78463D03*
G54D70*
X563821Y104994D03*
X555821Y119931D03*
G54D19*
X94033Y141150D03*
G54D70*
X226300Y98069D03*
X164965Y100459D03*
G54D19*
X266869Y84900D03*
X539289Y92363D03*
G54D70*
X41765Y93759D03*
G54D19*
X321069Y117200D03*
G54D70*
X333375Y80480D03*
X550321Y119931D03*
X563821Y108931D03*
G54D19*
X582789Y89963D03*
X582869Y73300D03*
X317131Y117200D03*
X312169Y117300D03*
G54D43*
X195416Y431498D03*
X159984D03*
G54D19*
X570889Y74463D03*
X86769Y96500D03*
G54D70*
X572821Y104994D03*
X124000Y99669D03*
G54D19*
X561289Y72463D03*
X535352Y78463D03*
G54D44*
X90840Y423511D03*
G54D38*
X73900Y149798D03*
G54D19*
X89596Y151650D03*
X524031Y77500D03*
G54D44*
X90840Y418511D03*
G54D19*
X304031Y62200D03*
G54D38*
X330500Y43498D03*
G54D70*
X306159Y73383D03*
G54D19*
X524331Y72000D03*
X539289Y73963D03*
X294531Y75700D03*
G54D70*
X581400Y67769D03*
G54D45*
X547100Y356436D03*
G54D32*
X402500Y246610D03*
G54D38*
X279984Y81645D03*
G54D46*
X290669Y81097D03*
X288701D03*
G54D70*
X542821Y108931D03*
G54D19*
X477942Y340740D03*
X135269Y96500D03*
G54D32*
X392300Y246710D03*
G54D43*
X210084Y421502D03*
G54D19*
X350431Y117900D03*
X189191Y93534D03*
G54D70*
X184159Y93503D03*
G54D19*
X135269Y91500D03*
G54D70*
X562821Y50094D03*
X112400Y267169D03*
Y271531D03*
G54D19*
X371869Y116900D03*
G54D70*
X155300Y122969D03*
X149900Y125969D03*
X548321Y108931D03*
G54D73*
X127500Y249937D03*
G54D19*
X130468Y275700D03*
G54D72*
X132353Y269600D03*
G54D19*
X376369Y110700D03*
G54D70*
X141800Y168169D03*
G54D19*
X147031Y167200D03*
X338831Y114800D03*
X126431Y262900D03*
G54D47*
X113400Y257153D03*
G54D19*
X376369Y104600D03*
X444069Y150300D03*
G54D70*
X550321Y115994D03*
G54D19*
X291969Y89400D03*
G54D46*
X292638Y83066D03*
G54D70*
X298800Y89969D03*
G54D19*
X386469Y110700D03*
X386369Y104600D03*
G54D72*
X132153Y256900D03*
G54D48*
X144800Y270308D03*
G54D72*
X166647Y252600D03*
X166547Y259550D03*
G54D22*
X97398Y195100D03*
Y185600D03*
Y175700D03*
G54D70*
X581400Y63831D03*
G54D37*
X534043Y36500D03*
G54D70*
X91300Y263368D03*
G54D22*
X233929Y79500D03*
G54D70*
X211200Y93031D03*
X562821Y54031D03*
G54D26*
X356025Y95224D03*
G54D19*
X566452Y92463D03*
G54D29*
X271924Y288827D03*
G54D49*
X100547Y411339D03*
G54D50*
X141308Y135030D03*
X322661Y306547D03*
G54D28*
X100931Y363841D03*
G54D70*
X216700Y93131D03*
G54D19*
X499969Y410000D03*
X557352Y72463D03*
G54D72*
X112347Y281650D03*
X172453Y259550D03*
G54D19*
X566952Y74463D03*
G54D37*
X530894Y36500D03*
G54D72*
X172553Y252600D03*
G54D26*
X357600Y95224D03*
G54D19*
X566452Y97963D03*
G54D29*
X271924Y293827D03*
G54D19*
X147831Y134800D03*
G54D49*
X102516Y411339D03*
G54D50*
X141308Y136998D03*
X322661Y308516D03*
G54D28*
X92269Y363841D03*
G54D70*
X91300Y272268D03*
G54D19*
X389469Y207300D03*
X539289Y97363D03*
G54D51*
X389341Y213760D03*
G54D72*
X126447Y269600D03*
G54D19*
X78368Y280600D03*
X582789Y83963D03*
G54D70*
X567321Y61494D03*
X568321Y108931D03*
G54D21*
X77137Y268100D03*
G54D70*
X572821Y108931D03*
G54D19*
X578852Y89963D03*
G54D72*
X126247Y256900D03*
G54D19*
X535352Y92363D03*
G54D22*
X141298Y226700D03*
X141198Y236900D03*
G54D48*
X144800Y246292D03*
G54D19*
X338931Y109200D03*
G54D70*
X307400Y108069D03*
G54D19*
X570389Y92463D03*
G54D70*
X572321Y61494D03*
X112400Y275469D03*
G54D19*
X126531Y275700D03*
X560389Y83463D03*
G54D70*
X330566Y90116D03*
X568321Y104994D03*
X335683Y90116D03*
G54D44*
X69581Y423511D03*
G54D70*
X314600Y89531D03*
G54D22*
X173602Y492500D03*
G54D52*
X172939Y481000D03*
G54D44*
X69581Y418511D03*
G54D22*
X368594Y72102D03*
G54D70*
X327875Y80480D03*
X168600Y441969D03*
G54D19*
X329198Y70917D03*
G54D70*
X333375Y76543D03*
G54D36*
X183627Y465559D03*
G54D19*
X333135Y70917D03*
G54D70*
X327875Y76543D03*
G54D38*
X451500Y163998D03*
Y151802D03*
G54D19*
X440050Y140860D03*
X440131Y150300D03*
X578531Y95400D03*
X151669Y141200D03*
G54D49*
X104484Y411339D03*
G54D50*
X141308Y138967D03*
X322661Y310484D03*
G54D19*
X570389Y97963D03*
G54D70*
X194300Y449231D03*
G54D19*
X156334Y105991D03*
G54D38*
X147400Y69498D03*
G54D22*
X157932Y77809D03*
G54D43*
X159984Y421302D03*
X210084Y431698D03*
G54D70*
X168600Y446731D03*
X194300Y440331D03*
G54D44*
X69581Y428511D03*
G54D53*
X148755Y472002D03*
G54D70*
X555821Y115994D03*
X566821D03*
X194300Y444269D03*
G54D19*
X528869Y104100D03*
G54D54*
X198400Y78654D03*
G54D38*
X147400Y81702D03*
G54D19*
X156334Y100991D03*
G54D21*
X199096Y70534D03*
G54D53*
X130645Y472002D03*
G54D70*
X572321Y65431D03*
G54D30*
X148200Y446298D03*
G54D70*
X168600Y450669D03*
X194300Y453169D03*
X168600Y438031D03*
G54D20*
X134900Y445100D03*
G54D44*
X69581Y413511D03*
G54D22*
X73529Y75600D03*
G54D19*
X65769Y101000D03*
G54D18*
X139654Y113000D03*
G54D19*
X65769Y106500D03*
G54D73*
X132300Y113563D03*
G54D19*
X570389Y86963D03*
X199031Y385500D03*
X566452Y86963D03*
X393131Y95000D03*
X535352Y97363D03*
G54D70*
X517921Y93994D03*
X566821Y119931D03*
X96800Y395331D03*
G54D22*
X112229Y76300D03*
G54D19*
X113469Y100200D03*
G54D37*
X537193Y11697D03*
Y36500D03*
G54D70*
X508921Y81931D03*
G54D22*
X34275Y562202D03*
X82577Y557522D03*
G54D18*
X152846Y155000D03*
G54D19*
X109531Y106200D03*
G54D73*
X160500Y159437D03*
G54D19*
X170397Y102491D03*
X89231Y405300D03*
X174334Y97491D03*
X87369Y379800D03*
X305069Y313000D03*
G54D50*
X311539Y312453D03*
G54D19*
X305069Y307500D03*
G54D50*
X311539Y308516D03*
G54D70*
X111800Y423269D03*
G54D49*
X106453Y422461D03*
G54D54*
X198400Y85346D03*
G54D18*
X146346Y113000D03*
X146154Y155000D03*
G54D22*
X36098Y77300D03*
G54D19*
X34734Y94291D03*
G54D70*
X268900Y150669D03*
G54D19*
X150969Y167200D03*
G54D70*
X155300Y119031D03*
G54D19*
X193128Y93534D03*
G54D72*
X263506Y152700D03*
G54D19*
X130631Y146200D03*
G54D50*
X130186Y140935D03*
Y136998D03*
G54D70*
X101500Y429431D03*
G54D49*
X102516Y422461D03*
G54D50*
X130186Y138967D03*
G54D22*
X161398Y492500D03*
G54D50*
X311539Y310484D03*
G54D70*
X107000Y429431D03*
G54D49*
X104484Y422461D03*
G54D70*
X382800Y144931D03*
X340900Y142969D03*
G54D19*
X373031Y152000D03*
G54D70*
X388400Y76169D03*
G54D55*
X357083Y151333D03*
G54D18*
X516546Y417200D03*
G54D25*
X349824Y103000D03*
G54D26*
X356025Y110776D03*
G54D25*
X365376Y103000D03*
G54D71*
X454160Y69318D03*
G54D24*
X473100Y89287D03*
G54D29*
X271924Y303827D03*
G54D70*
X452900Y74731D03*
X472600Y96131D03*
X86200Y369369D03*
G54D19*
X278613Y302852D03*
G54D70*
X382400Y176269D03*
G54D19*
X189069Y379900D03*
G54D70*
X314500Y76069D03*
G54D19*
X90096Y146150D03*
X341965Y70902D03*
G54D70*
X496300Y533469D03*
G54D19*
X498031Y578000D03*
G54D70*
X538100Y87369D03*
X553821Y108931D03*
G54D19*
X582469Y100900D03*
X578852Y79963D03*
G54D70*
X555821Y60994D03*
X111800Y410831D03*
G54D19*
X493969Y102500D03*
G54D73*
X549821Y87400D03*
G54D22*
X289445Y97316D03*
G54D38*
X315400Y124198D03*
G54D70*
X478100Y100069D03*
Y56331D03*
X483700D03*
X527500Y88031D03*
G54D19*
X238650Y293548D03*
Y299048D03*
X282550Y297352D03*
G54D70*
X41765Y89822D03*
G54D19*
X48797Y90791D03*
G54D70*
X382387Y163256D03*
G54D19*
X401131Y186400D03*
X496031Y410000D03*
G54D70*
X266291Y78203D03*
G54D19*
X262931Y84900D03*
X474005Y340740D03*
G54D70*
X473500Y403769D03*
X246100Y134731D03*
G54D19*
X90096Y141150D03*
X298469Y65700D03*
X231731Y88900D03*
X231631Y97200D03*
G54D70*
X226300Y94131D03*
G54D19*
X170397Y97491D03*
G54D70*
X164965Y96522D03*
G54D19*
X82831Y96500D03*
X131331Y106500D03*
G54D70*
X124000Y95731D03*
G54D19*
X131331Y96500D03*
Y91500D03*
G54D70*
X306159Y77320D03*
G54D19*
X298469Y75700D03*
X202969Y385500D03*
G54D70*
X330566Y86179D03*
X335683D03*
X314600Y93469D03*
G54D19*
X288031Y89400D03*
X397069Y95000D03*
G54D70*
X111800Y419331D03*
G54D19*
X147731Y141200D03*
X151769Y134800D03*
G54D70*
X494900Y87769D03*
Y74831D03*
X499500Y102469D03*
G54D73*
X340900Y171463D03*
X490200Y578063D03*
X495100Y539763D03*
G54D55*
X357083Y163833D03*
G54D46*
X290669Y83066D03*
X288701D03*
G54D49*
X106453Y411339D03*
G54D50*
X141308Y140935D03*
X322661Y312453D03*
G54D44*
X90840Y413511D03*
G54D28*
X92269Y368959D03*
G54D70*
X542821Y104994D03*
X494900Y69769D03*
Y78769D03*
X548321Y104994D03*
X494900Y83831D03*
X499500Y98531D03*
X270300Y92231D03*
G54D38*
X172900Y213202D03*
X183500Y213102D03*
G54D70*
X558321Y108931D03*
X561221Y60994D03*
X359647Y308631D03*
G54D47*
X352782Y307641D03*
G54D19*
X365869Y205800D03*
G54D70*
X359647Y312569D03*
G54D72*
X368694Y314100D03*
G54D70*
X196800Y399631D03*
X196100Y395169D03*
G54D33*
X226536Y390500D03*
G54D70*
X213500Y358969D03*
G54D45*
X574000Y321760D03*
G54D47*
X492300Y294853D03*
G54D72*
X488047Y301100D03*
G54D22*
X566398Y363000D03*
G54D70*
X495000Y400769D03*
G54D19*
X109531Y100200D03*
X135269Y101500D03*
Y106500D03*
X235669Y88900D03*
G54D70*
X211200Y96969D03*
G54D19*
X113469Y106200D03*
X235569Y97200D03*
G54D70*
X216700Y97069D03*
G54D56*
X537631Y254700D03*
G54D70*
X479100Y250869D03*
G54D40*
X448984Y599567D03*
G54D21*
X443437Y508500D03*
G54D72*
X449547D03*
G54D40*
X474000Y599567D03*
G54D19*
X574469Y337700D03*
G54D45*
X576559Y329240D03*
G54D39*
X471500Y530750D03*
Y551250D03*
G54D40*
X448984Y570433D03*
G54D19*
X523531Y283700D03*
G54D72*
X522847Y277500D03*
G54D45*
X544541Y348955D03*
G54D72*
X460547Y508500D03*
G54D73*
X495100Y547637D03*
G54D19*
X297065Y258134D03*
G54D22*
X460502Y529700D03*
G54D39*
X476500Y530750D03*
G54D72*
X279913Y249033D03*
G54D21*
X220563Y402100D03*
G54D33*
X219055Y393059D03*
G54D19*
X527469Y283700D03*
G54D47*
X581800Y370747D03*
G54D33*
X577480Y348441D03*
G54D73*
X495500Y507063D03*
G54D47*
X488000Y507047D03*
G54D30*
X525400Y244102D03*
G54D35*
X565998Y309700D03*
G54D72*
X509647Y296800D03*
G54D19*
X102969Y315500D03*
G54D40*
X424468Y599567D03*
G54D21*
X472563Y508500D03*
G54D72*
X466453D03*
G54D39*
X423500Y530750D03*
Y551250D03*
G54D40*
X399953Y570433D03*
G54D47*
X488000Y512953D03*
G54D19*
X99031Y315500D03*
G54D70*
X102800Y308919D03*
G54D22*
X460349Y539711D03*
G54D39*
X433500Y551250D03*
G54D19*
X467631Y295500D03*
G54D70*
X479100Y259769D03*
G54D19*
X66369Y299000D03*
X71531D03*
X132800Y156400D03*
G54D73*
X512400Y256963D03*
G54D72*
X528753Y277500D03*
G54D56*
X528969Y254700D03*
G54D19*
X64869Y310900D03*
G54D27*
X85553Y321600D03*
G54D21*
X80663Y310700D03*
G54D73*
X160500Y151563D03*
G54D27*
X162200Y141453D03*
G54D72*
X455453Y508500D03*
G54D70*
X513000Y275269D03*
G54D19*
X481069Y292600D03*
G54D21*
X67937Y290500D03*
G54D70*
X480700Y281069D03*
G54D21*
X60063Y290500D03*
G54D19*
X305731Y272800D03*
G54D40*
X399953Y599567D03*
G54D72*
X493953Y301100D03*
X515553Y296800D03*
G54D35*
X227998Y201500D03*
G54D73*
X285200Y259463D03*
G54D21*
X227863Y190500D03*
X417137Y508000D03*
G54D72*
X423547D03*
G54D19*
X481169Y286900D03*
G54D39*
X486500Y530750D03*
Y551250D03*
G54D40*
X474000Y570433D03*
G54D70*
X416500Y212269D03*
G54D21*
X266937Y364000D03*
G54D32*
X368600Y230590D03*
G54D21*
X435563Y508500D03*
X480437D03*
G54D73*
X495500Y514937D03*
G54D21*
X409263Y508000D03*
G54D38*
X504900Y514898D03*
G54D57*
X309228Y282900D03*
G54D70*
X317967Y258597D03*
G54D19*
X310034Y258133D03*
G54D39*
X433500Y530750D03*
X438500Y551250D03*
Y530750D03*
G54D40*
X424468Y570433D03*
G54D22*
X251356Y534111D03*
X251449Y544111D03*
X447998Y551100D03*
G54D38*
X412200Y539903D03*
G54D22*
X448145Y539711D03*
X448298Y529700D03*
X251602Y555500D03*
X406702Y167200D03*
G54D39*
X476500Y551250D03*
G54D38*
X120100Y307902D03*
X135400Y307802D03*
X135300Y319798D03*
X120100D03*
G54D73*
X110000Y319563D03*
G54D32*
X356400Y230590D03*
G54D72*
X429453Y508000D03*
G54D22*
X190922Y560713D03*
G54D73*
X490200Y585937D03*
G54D72*
X263453Y427500D03*
X466047Y364800D03*
G54D47*
X382300Y528353D03*
G54D19*
X152397Y105991D03*
G54D70*
X183659Y76066D03*
X383500Y357231D03*
G54D21*
X191222Y70534D03*
G54D27*
X188247Y63700D03*
G54D70*
X406000Y363531D03*
G54D19*
X152397Y100991D03*
G54D72*
X367047Y337000D03*
G54D70*
X383500Y361169D03*
G54D19*
X320269Y332400D03*
G54D58*
X310937Y341760D03*
G54D20*
X292798Y332450D03*
Y347250D03*
G54D21*
X374437Y344500D03*
X416563Y364500D03*
G54D70*
X305500Y356531D03*
G54D58*
X303063Y345500D03*
G54D59*
X426421Y356000D03*
G54D58*
X310937Y349240D03*
G54D23*
X558010Y346100D03*
G54D19*
X316331Y332400D03*
X310969Y332300D03*
G54D72*
X397453Y363700D03*
X407247Y274900D03*
G54D19*
X459069Y250700D03*
G54D70*
X476300Y208369D03*
G54D22*
X399802Y259800D03*
G54D38*
X122100Y397902D03*
X111900D03*
G54D72*
X471953Y364800D03*
G54D70*
X305500Y360469D03*
G54D72*
X391547Y363700D03*
X382547Y335500D03*
G54D30*
X148200Y458502D03*
G54D70*
X376800Y526469D03*
X398000Y353231D03*
G54D22*
X418602Y347000D03*
G54D70*
X406000Y367469D03*
G54D19*
X369016Y331000D03*
X398469Y336000D03*
G54D20*
X415500Y443700D03*
X134900Y459900D03*
G54D36*
X159611Y465559D03*
G54D21*
X366563Y344500D03*
X353563Y353000D03*
G54D60*
X139700Y497198D03*
G54D53*
Y472002D03*
G54D52*
X190261Y481000D03*
G54D59*
X416579Y356000D03*
G54D19*
X372953Y331000D03*
G54D72*
Y337000D03*
X388453Y335500D03*
G54D61*
X386547Y344200D03*
G54D22*
X406398Y347000D03*
G54D19*
X436113Y140860D03*
X204131Y379900D03*
G54D32*
X75716Y337930D03*
G54D38*
X170000Y389398D03*
X160000D03*
G54D22*
X406702Y177300D03*
G54D19*
X405069Y186400D03*
X455131Y250700D03*
G54D72*
Y243400D03*
G54D56*
X453169Y236000D03*
G54D70*
X382800Y148869D03*
G54D19*
X376969Y152000D03*
G54D70*
X382887Y153956D03*
X196100Y391231D03*
X382400Y172331D03*
X375000Y161769D03*
X382387Y167193D03*
G54D40*
X200624Y601078D03*
G54D70*
X476300Y204431D03*
G54D47*
X469900Y204847D03*
G54D56*
X462600Y203569D03*
G54D47*
X211200Y364347D03*
G54D21*
X249424Y514011D03*
G54D72*
X243314D03*
G54D19*
X306097Y258133D03*
G54D39*
X271924Y534861D03*
G54D70*
X183300Y370631D03*
G54D21*
X219298Y514011D03*
G54D72*
X225908D03*
G54D47*
X211200Y370253D03*
G54D39*
X261924Y534861D03*
Y555361D03*
G54D40*
X250156Y571944D03*
G54D73*
X285200Y267337D03*
G54D19*
X287169Y274200D03*
G54D39*
X229424Y534861D03*
Y555361D03*
G54D40*
X225140Y571944D03*
G54D19*
X208069Y379900D03*
G54D41*
X311004Y596000D03*
G54D19*
X394531Y336000D03*
G54D61*
X392453Y344200D03*
G54D39*
X276924Y555361D03*
Y534861D03*
G54D40*
X275172Y571944D03*
G54D41*
X311004Y568000D03*
G54D19*
X75469Y299000D03*
G54D62*
X35221Y342651D03*
G54D63*
X55412Y353919D03*
G54D38*
X269966Y281136D03*
G54D70*
X277866Y278799D03*
G54D22*
X239398Y555500D03*
G54D39*
X271924Y555361D03*
G54D63*
X74704Y353919D03*
G54D57*
X300172Y282900D03*
G54D21*
X211424Y514011D03*
X257298D03*
G54D73*
X277947Y510774D03*
G54D38*
X205246Y524542D03*
G54D70*
X99064Y141181D03*
G54D18*
X516546Y410800D03*
G54D22*
X510602Y375400D03*
G54D30*
X529900Y346998D03*
X448686Y334550D03*
G54D70*
X458900Y335831D03*
G54D72*
X458947Y329500D03*
G54D32*
X362700Y230590D03*
G54D19*
X186031Y395500D03*
X95533Y133650D03*
G54D40*
X275172Y601078D03*
G54D41*
X564904Y420200D03*
G54D64*
X569392Y393500D03*
G54D65*
X63100Y337904D03*
G54D32*
X75716Y341710D03*
G54D62*
X35221Y334777D03*
G54D66*
X87300Y348946D03*
G54D19*
X93533Y151650D03*
G54D67*
X515800Y398847D03*
G54D19*
X186031Y401000D03*
G54D70*
X317967Y262534D03*
X202700Y391631D03*
X277866Y282736D03*
G54D40*
X250156Y601078D03*
G54D19*
X61831Y106500D03*
G54D73*
X277947Y518648D03*
G54D72*
X269814Y514011D03*
G54D22*
X230702Y341100D03*
G54D21*
X88537Y310700D03*
G54D19*
X86769Y107500D03*
G54D39*
X219424Y534861D03*
G54D70*
X202700Y395569D03*
G54D40*
X93477Y602567D03*
G54D72*
X198847Y361400D03*
G54D68*
X193500Y362278D03*
G54D27*
X125500Y126153D03*
G54D73*
X132300Y121437D03*
G54D19*
X86769Y102500D03*
G54D72*
X231814Y514011D03*
X263908D03*
G54D73*
X121300Y520137D03*
G54D21*
X54777Y515500D03*
X100651D03*
G54D38*
X48599Y526031D03*
G54D73*
X121300Y512263D03*
G54D72*
X113167Y515500D03*
G54D22*
X498398Y375400D03*
G54D72*
X188453Y360700D03*
G54D22*
X180602Y341500D03*
G54D68*
X193500Y359522D03*
G54D19*
X189969Y401000D03*
X61831Y101000D03*
G54D72*
X237408Y514011D03*
X204814D03*
X204753Y361400D03*
G54D39*
X219424Y555361D03*
G54D72*
X42261Y515500D03*
X198908Y514011D03*
G54D40*
X67477Y602567D03*
X225140Y601078D03*
G54D70*
X376800Y522531D03*
G54D47*
X382300Y522447D03*
G54D39*
X57777Y556850D03*
Y536350D03*
G54D40*
X41477Y573433D03*
G54D39*
X72777Y556850D03*
Y536350D03*
G54D40*
X67477Y573433D03*
G54D39*
X67777Y556850D03*
G54D40*
X119477Y602567D03*
G54D39*
X110277Y556850D03*
G54D40*
X41477Y602567D03*
G54D21*
X62651Y515500D03*
G54D72*
X69261D03*
G54D39*
X105277Y536350D03*
Y556850D03*
G54D40*
X93477Y573433D03*
G54D21*
X92777Y515500D03*
G54D72*
X86667D03*
G54D39*
X110277Y536350D03*
X67777D03*
G54D70*
X506800Y383231D03*
G54D19*
X307969Y62200D03*
X294531Y65700D03*
Y70700D03*
G54D47*
X469900Y210753D03*
G54D56*
X462600Y212231D03*
G54D51*
X381467Y217500D03*
G54D70*
X403600Y208031D03*
G54D72*
X407247Y267900D03*
G54D56*
X407169Y260600D03*
G54D70*
X403600Y211969D03*
G54D19*
X471569Y295500D03*
G54D36*
X522492Y165400D03*
G54D72*
X413153Y274900D03*
Y267900D03*
G54D56*
X415831Y260600D03*
G54D22*
X443798Y263500D03*
G54D38*
X433718Y217805D03*
G54D72*
X461037Y243400D03*
G54D56*
X461831Y236000D03*
G54D22*
X441102Y229000D03*
G54D69*
X524200Y426508D03*
G54D64*
X543408Y393500D03*
G54D74*
X556400Y420200D03*
X302500Y568000D03*
Y596000D03*
G54D75*
X63100Y329400D03*
G54D38*
X205246Y536747D03*
X504900Y527102D03*
G54D66*
X87300Y329654D03*
G54D38*
X48599Y538236D03*
G54D31*
X241521Y143504D03*
G54D70*
X239553Y166169D03*
G54D31*
X231679Y156496D03*
X233647D03*
G54D19*
X233616Y163200D03*
G54D70*
X263400Y142131D03*
X268900Y146731D03*
G54D31*
X241521Y156496D03*
G54D70*
X416500Y208331D03*
G54D31*
X239553Y156496D03*
G54D38*
X250500Y163398D03*
G54D70*
X239553Y162231D03*
G54D42*
X228135Y147047D03*
G54D19*
X222669Y143100D03*
Y148600D03*
G54D70*
X410000Y208532D03*
X229000Y133531D03*
G54D19*
X234431Y133000D03*
G54D31*
X229710Y143504D03*
G54D19*
X222669Y137600D03*
G54D31*
X235616Y143504D03*
G54D70*
X263400Y146069D03*
G54D19*
X238369Y138600D03*
Y133000D03*
G54D70*
X257600Y146069D03*
G54D72*
Y152700D03*
G54D19*
X218731Y143100D03*
G54D72*
X216547Y155000D03*
G54D42*
X245065Y152953D03*
G54D70*
X251900Y145069D03*
Y150131D03*
G54D31*
X233647Y143504D03*
G54D70*
X229000Y137469D03*
G54D19*
X234431Y138600D03*
G54D31*
X231679Y143504D03*
G54D19*
X222669Y132100D03*
G54D42*
X228135Y152953D03*
G54D72*
X222453Y161500D03*
Y155000D03*
G54D76*
X26363Y317454D03*
G54D45*
X571441Y329240D03*
G54D70*
X496300Y529531D03*
G54D22*
X94772Y535622D03*
G54D33*
X577480Y353559D03*
G54D70*
X298800Y86031D03*
G54D46*
X292638Y81097D03*
G54D30*
X525400Y231898D03*
G54D27*
X340900Y128047D03*
X340600Y191753D03*
X247953Y190500D03*
X395953Y276000D03*
X110000Y340953D03*
X251500Y369953D03*
G54D25*
X349824Y104575D03*
X365376Y101425D03*
G54D71*
X457900Y59082D03*
G54D43*
X195416Y421302D03*
X245516Y431698D03*
G54D24*
X488100Y67713D03*
G54D29*
X250349Y288827D03*
G54D31*
X237584Y156496D03*
Y143504D03*
X243490Y156496D03*
G54D41*
X547896Y420200D03*
G54D65*
X63100Y320896D03*
G54D47*
X581800Y376653D03*
G54D72*
X479463Y329407D03*
X182547Y360700D03*
X216547Y161500D03*
G54D35*
X570302Y234300D03*
G54D30*
X537100Y140598D03*
G54D35*
X570102Y248000D03*
X578202Y309700D03*
G54D30*
X529900Y359202D03*
G54D35*
X240202Y201500D03*
G54D30*
X308866Y221231D03*
X295334Y221364D03*
X322834Y221464D03*
X448686Y346755D03*
G54D19*
X500131Y417200D03*
G54D70*
X452900Y78669D03*
X472600Y100069D03*
X86200Y365431D03*
G54D19*
X282550Y302852D03*
G54D70*
X91300Y259431D03*
Y268331D03*
X112400Y263231D03*
G54D19*
X385531Y207300D03*
G54D70*
X480700Y277131D03*
X513000Y271331D03*
G54D19*
X477231Y286900D03*
X301002Y258134D03*
X474011Y346260D03*
X425782Y445632D03*
X438719D03*
X209156Y450911D03*
X231093D03*
X71683Y451000D03*
X482919Y445632D03*
X218156Y450911D03*
X185131Y379900D03*
G54D70*
X314500Y72131D03*
G54D19*
X94033Y146150D03*
X218731Y132100D03*
G54D70*
X251900Y141131D03*
G54D19*
X338028Y70902D03*
X88069Y453100D03*
X248993Y450911D03*
X443482Y445632D03*
X101974Y451500D03*
X258993Y450911D03*
X454682Y445632D03*
X467819D03*
X236056Y450911D03*
X101974Y444000D03*
X60931Y310900D03*
G54D70*
X97300Y304981D03*
X538100Y83431D03*
X508921Y77994D03*
X517921Y97931D03*
X553821Y104994D03*
X558321D03*
G54D19*
X578531Y100900D03*
X582789Y79963D03*
G54D70*
X561221Y64931D03*
X555821D03*
G54D19*
X83431Y379800D03*
G54D70*
X111800Y414769D03*
G54D19*
X490031Y102500D03*
G54D73*
X127500Y242063D03*
X512400Y264837D03*
X549821Y79526D03*
G54D38*
X269966Y268931D03*
G54D22*
X40998Y67200D03*
X109602Y195100D03*
Y185600D03*
Y175700D03*
X153502Y226700D03*
X153402Y236900D03*
G54D38*
X183500Y200898D03*
X172900Y200998D03*
G54D22*
X394498Y167200D03*
Y177300D03*
G54D38*
X451500Y176202D03*
Y139598D03*
G54D22*
X387598Y259800D03*
X428898Y229000D03*
X456002Y263500D03*
G54D38*
X433718Y205600D03*
X120100Y295698D03*
X135400Y295598D03*
X135300Y332002D03*
G54D22*
X218498Y341100D03*
X301650Y97316D03*
G54D38*
X279984Y93850D03*
X122100Y385698D03*
X111900D03*
X170000Y401602D03*
X160000D03*
X120100Y332002D03*
G54D22*
X168398Y341500D03*
G54D38*
X315400Y136402D03*
G54D22*
X289937Y49109D03*
G54D38*
X250500Y175602D03*
G54D22*
X266898Y30200D03*
X124434Y76300D03*
X85734Y75600D03*
X246134Y79500D03*
G54D38*
X330500Y55702D03*
G54D22*
X170137Y77809D03*
X440534Y72300D03*
X380799Y72102D03*
G54D70*
X458600Y81769D03*
G54D19*
X566931Y80000D03*
G54D70*
X454300Y49531D03*
X483600Y100069D03*
X472600Y56331D03*
G54D19*
X338831Y101400D03*
G54D70*
X557900Y359969D03*
G54D19*
X238750Y304848D03*
X52734Y95791D03*
X74431Y280600D03*
X130369Y262900D03*
G54D70*
X375000Y157831D03*
X382887Y157893D03*
G54D19*
X477131Y292600D03*
G54D70*
X506800Y387169D03*
G54D19*
X283231Y274200D03*
X309669Y272800D03*
X62431Y299000D03*
G54D70*
X261291Y78203D03*
G54D19*
X368169Y200000D03*
G54D70*
X465100Y348669D03*
X460000D03*
X183300Y374569D03*
G54D19*
X189969Y395500D03*
G54D70*
X213500Y355031D03*
X196800Y403569D03*
G54D19*
X218731Y148600D03*
Y137600D03*
G54D70*
X257600Y142131D03*
X184159Y89566D03*
G54D19*
X307031Y332300D03*
X91596Y133650D03*
G54D70*
X99064Y145118D03*
G54D19*
X298469Y70700D03*
X174334Y102491D03*
X82831Y102500D03*
Y107500D03*
X131331Y101500D03*
G54D70*
X392300Y85731D03*
G54D19*
X93169Y405300D03*
G54D70*
X98800Y388269D03*
X96800Y399269D03*
X107000Y433369D03*
X101500D03*
G54D19*
X301131Y313000D03*
Y307500D03*
X134569Y146200D03*
G54D70*
X307400Y104131D03*
G54D19*
X308231Y117300D03*
G54D70*
X494900Y65831D03*
G54D69*
X524200Y452492D03*
G54D47*
X113400Y251247D03*
G54D72*
X118253Y281650D03*
G54D47*
X492300Y288947D03*
G54D72*
X257547Y427500D03*
G54D47*
X352782Y313546D03*
G54D21*
X228437Y402100D03*
X69263Y268100D03*
G54D67*
X515800Y404753D03*
G54D55*
X357083Y128695D03*
Y186471D03*
G54D76*
X26363Y352100D03*
G54D62*
X35221Y326903D03*
G54D70*
X149900Y122031D03*
X183659Y80003D03*
G54D49*
X100547Y422461D03*
G54D50*
X130186Y135030D03*
X311539Y306547D03*
G54D44*
X90840Y428511D03*
G54D38*
X73900Y162002D03*
G54D51*
X389341Y221240D03*
G54D19*
X501969Y578000D03*
X136737Y156400D03*
G54D70*
X141800Y164231D03*
G54D28*
X92269Y366400D03*
G54D27*
X194153Y63700D03*
X125500Y120247D03*
G54D33*
X219055Y387941D03*
G54D45*
X549659Y348955D03*
G54D27*
X79647Y321600D03*
X162200Y135547D03*
X461800Y284247D03*
X353900Y245953D03*
G54D22*
X82598Y545600D03*
G54D37*
X540343Y11697D03*
X527744D03*
X518295D03*
X508846D03*
X499398D03*
X489949D03*
X480500D03*
X540343Y36500D03*
X527744D03*
X518295D03*
X508846D03*
X499398D03*
X489949D03*
X480500D03*
G54D39*
X428500Y530750D03*
Y551250D03*
X62777Y536350D03*
Y556850D03*
X266924Y534861D03*
Y555361D03*
X115277Y556850D03*
Y536350D03*
X224424Y555361D03*
Y534861D03*
X481500Y551250D03*
Y530750D03*
G54D26*
X357600Y110776D03*
G54D77*
X553500Y535500D03*
X593000Y51000D03*
X28500D03*
G54D12*
X18600Y-131100D02*
G01X583950D01*
X18600Y-91900D02*
G01X584100D01*
X18600Y-111100D02*
G01X584050D01*
X18600Y-151100D02*
G01X584100D01*
Y-151100D02*
G01Y-150950D01*
X18600Y-91769D02*
G01Y-171100D01*
X584100Y-91864D02*
G01Y-171100D01*
Y-171100D02*
G01X18600D01*
G54D10*
X29600Y-137233D02*
G01X28850Y-136733D01*
Y-136733D02*
G01X27975Y-136400D01*
Y-136400D02*
G01X26975D01*
Y-136400D02*
G01X25850Y-136900D01*
Y-136900D02*
G01X24975Y-137733D01*
Y-137733D02*
G01X24350Y-138733D01*
Y-138733D02*
G01X23850Y-140400D01*
Y-140400D02*
G01X23725Y-141900D01*
Y-141900D02*
G01X23975Y-143400D01*
Y-143400D02*
G01X24350Y-144400D01*
Y-144400D02*
G01X25100Y-145400D01*
Y-145400D02*
G01X25975Y-146067D01*
Y-146067D02*
G01X26850Y-146400D01*
Y-146400D02*
G01X27725D01*
Y-146400D02*
G01X28600Y-146067D01*
Y-146067D02*
G01X29350Y-145567D01*
Y-145567D02*
G01X29975Y-144900D01*
X33725Y-146400D02*
G01X36850Y-136400D01*
Y-136400D02*
G01X39975Y-146400D01*
X38850Y-142900D02*
G01X34850D01*
X44350Y-146400D02*
G01Y-136400D01*
Y-136400D02*
G01X47475D01*
Y-136400D02*
G01X48475Y-136900D01*
Y-136900D02*
G01X49100Y-137567D01*
Y-137567D02*
G01X49350Y-138900D01*
Y-138900D02*
G01X49100Y-140233D01*
Y-140233D02*
G01X48350Y-141067D01*
Y-141067D02*
G01X47475Y-141567D01*
Y-141567D02*
G01X44350D01*
X47475D02*
G01X49350Y-146400D01*
X54100D02*
G01Y-136400D01*
Y-136400D02*
G01X56600D01*
Y-136400D02*
G01X57600Y-136900D01*
Y-136900D02*
G01X58350Y-137567D01*
Y-137567D02*
G01X58975Y-138567D01*
Y-138567D02*
G01X59475Y-139734D01*
Y-139734D02*
G01X59600Y-141400D01*
Y-141400D02*
G01X59475Y-143067D01*
Y-143067D02*
G01X58975Y-144233D01*
Y-144233D02*
G01X58350Y-145234D01*
Y-145234D02*
G01X57600Y-145900D01*
Y-145900D02*
G01X56600Y-146400D01*
Y-146400D02*
G01X54100D01*
X74350D02*
G01Y-136400D01*
Y-136400D02*
G01X77475D01*
Y-136400D02*
G01X78475Y-136900D01*
Y-136900D02*
G01X79100Y-137567D01*
Y-137567D02*
G01X79350Y-138900D01*
Y-138900D02*
G01X79100Y-140233D01*
Y-140233D02*
G01X78350Y-141067D01*
Y-141067D02*
G01X77475Y-141567D01*
Y-141567D02*
G01X74350D01*
X77475D02*
G01X79350Y-146400D01*
X89350D02*
G01X84350D01*
Y-146400D02*
G01Y-136400D01*
Y-136400D02*
G01X89350D01*
X87350Y-141233D02*
G01X84350D01*
X94475Y-146400D02*
G01Y-136400D01*
Y-136400D02*
G01X99225D01*
X97475Y-141233D02*
G01X94475D01*
X106850Y-146733D02*
G01X106600Y-146567D01*
Y-146567D02*
G01Y-146233D01*
Y-146233D02*
G01X106850Y-146067D01*
Y-146067D02*
G01X107100Y-146233D01*
Y-146233D02*
G01Y-146567D01*
Y-146567D02*
G01X106850Y-146733D01*
Y-142234D02*
G01X106600Y-142067D01*
Y-142067D02*
G01Y-141733D01*
Y-141733D02*
G01X106850Y-141567D01*
Y-141567D02*
G01X107100Y-141733D01*
Y-141733D02*
G01Y-142067D01*
Y-142067D02*
G01X106850Y-142234D01*
X114350Y-146400D02*
G01Y-136400D01*
Y-136400D02*
G01X117350D01*
Y-136400D02*
G01X118350Y-136900D01*
Y-136900D02*
G01X119100Y-138067D01*
Y-138067D02*
G01X119350Y-139400D01*
Y-139400D02*
G01X119100Y-140733D01*
Y-140733D02*
G01X118475Y-141733D01*
Y-141733D02*
G01X117350Y-142234D01*
Y-142234D02*
G01X114350D01*
X126850Y-146400D02*
G01X125850Y-146233D01*
Y-146233D02*
G01X124975Y-145567D01*
Y-145567D02*
G01X124225Y-144567D01*
Y-144567D02*
G01X123725Y-143400D01*
Y-143400D02*
G01X123475Y-142067D01*
Y-142067D02*
G01Y-140733D01*
Y-140733D02*
G01X123725Y-139400D01*
Y-139400D02*
G01X124225Y-138233D01*
Y-138233D02*
G01X124975Y-137233D01*
Y-137233D02*
G01X125850Y-136567D01*
Y-136567D02*
G01X126850Y-136400D01*
Y-136400D02*
G01X127850Y-136567D01*
Y-136567D02*
G01X128725Y-137233D01*
Y-137233D02*
G01X129475Y-138233D01*
Y-138233D02*
G01X129975Y-139400D01*
Y-139400D02*
G01X130225Y-140733D01*
Y-140733D02*
G01Y-142067D01*
Y-142067D02*
G01X129975Y-143400D01*
Y-143400D02*
G01X129475Y-144567D01*
Y-144567D02*
G01X128725Y-145567D01*
Y-145567D02*
G01X127850Y-146233D01*
Y-146233D02*
G01X126850Y-146400D01*
X133100Y-136400D02*
G01X134850Y-146400D01*
Y-146400D02*
G01X136850Y-136400D01*
Y-136400D02*
G01X138850Y-146400D01*
Y-146400D02*
G01X140600Y-136400D01*
X149350Y-146400D02*
G01X144350D01*
Y-146400D02*
G01Y-136400D01*
Y-136400D02*
G01X149350D01*
X147350Y-141233D02*
G01X144350D01*
X154350Y-146400D02*
G01Y-136400D01*
Y-136400D02*
G01X157475D01*
Y-136400D02*
G01X158475Y-136900D01*
Y-136900D02*
G01X159100Y-137567D01*
Y-137567D02*
G01X159350Y-138900D01*
Y-138900D02*
G01X159100Y-140233D01*
Y-140233D02*
G01X158350Y-141067D01*
Y-141067D02*
G01X157475Y-141567D01*
Y-141567D02*
G01X154350D01*
X157475D02*
G01X159350Y-146400D01*
X174225Y-145067D02*
G01X175225Y-145900D01*
Y-145900D02*
G01X176350Y-146400D01*
Y-146400D02*
G01X177350D01*
Y-146400D02*
G01X178350Y-145900D01*
Y-145900D02*
G01X179100Y-145067D01*
Y-145067D02*
G01X179475Y-143900D01*
Y-143900D02*
G01X179225Y-142734D01*
Y-142734D02*
G01X178600Y-141733D01*
Y-141733D02*
G01X177475Y-141067D01*
Y-141067D02*
G01X175975Y-140733D01*
Y-140733D02*
G01X175100Y-140067D01*
Y-140067D02*
G01X174725Y-138900D01*
Y-138900D02*
G01X174975Y-137733D01*
Y-137733D02*
G01X175600Y-136900D01*
Y-136900D02*
G01X176475Y-136400D01*
Y-136400D02*
G01X177350D01*
Y-136400D02*
G01X178225Y-136733D01*
Y-136733D02*
G01X178975Y-137567D01*
X186850Y-146400D02*
G01X185850Y-146233D01*
Y-146233D02*
G01X184975Y-145567D01*
Y-145567D02*
G01X184225Y-144567D01*
Y-144567D02*
G01X183725Y-143400D01*
Y-143400D02*
G01X183475Y-142067D01*
Y-142067D02*
G01Y-140733D01*
Y-140733D02*
G01X183725Y-139400D01*
Y-139400D02*
G01X184225Y-138233D01*
Y-138233D02*
G01X184975Y-137233D01*
Y-137233D02*
G01X185850Y-136567D01*
Y-136567D02*
G01X186850Y-136400D01*
Y-136400D02*
G01X187850Y-136567D01*
Y-136567D02*
G01X188725Y-137233D01*
Y-137233D02*
G01X189475Y-138233D01*
Y-138233D02*
G01X189975Y-139400D01*
Y-139400D02*
G01X190225Y-140733D01*
Y-140733D02*
G01Y-142067D01*
Y-142067D02*
G01X189975Y-143400D01*
Y-143400D02*
G01X189475Y-144567D01*
Y-144567D02*
G01X188725Y-145567D01*
Y-145567D02*
G01X187850Y-146233D01*
Y-146233D02*
G01X186850Y-146400D01*
X194100Y-136400D02*
G01Y-143567D01*
Y-143567D02*
G01X194600Y-145067D01*
Y-145067D02*
G01X195600Y-146067D01*
Y-146067D02*
G01X196850Y-146400D01*
Y-146400D02*
G01X198100Y-146067D01*
Y-146067D02*
G01X199100Y-145067D01*
Y-145067D02*
G01X199600Y-143567D01*
Y-143567D02*
G01Y-136400D01*
X204350Y-146400D02*
G01Y-136400D01*
Y-136400D02*
G01X207475D01*
Y-136400D02*
G01X208475Y-136900D01*
Y-136900D02*
G01X209100Y-137567D01*
Y-137567D02*
G01X209350Y-138900D01*
Y-138900D02*
G01X209100Y-140233D01*
Y-140233D02*
G01X208350Y-141067D01*
Y-141067D02*
G01X207475Y-141567D01*
Y-141567D02*
G01X204350D01*
X207475D02*
G01X209350Y-146400D01*
X219600Y-137233D02*
G01X218850Y-136733D01*
Y-136733D02*
G01X217975Y-136400D01*
Y-136400D02*
G01X216975D01*
Y-136400D02*
G01X215850Y-136900D01*
Y-136900D02*
G01X214975Y-137733D01*
Y-137733D02*
G01X214350Y-138733D01*
Y-138733D02*
G01X213850Y-140400D01*
Y-140400D02*
G01X213725Y-141900D01*
Y-141900D02*
G01X213975Y-143400D01*
Y-143400D02*
G01X214350Y-144400D01*
Y-144400D02*
G01X215100Y-145400D01*
Y-145400D02*
G01X215975Y-146067D01*
Y-146067D02*
G01X216850Y-146400D01*
Y-146400D02*
G01X217725D01*
Y-146400D02*
G01X218600Y-146067D01*
Y-146067D02*
G01X219350Y-145567D01*
Y-145567D02*
G01X219975Y-144900D01*
X229350Y-146400D02*
G01X224350D01*
Y-146400D02*
G01Y-136400D01*
Y-136400D02*
G01X229350D01*
X227350Y-141233D02*
G01X224350D01*
X249600Y-137233D02*
G01X248850Y-136733D01*
Y-136733D02*
G01X247975Y-136400D01*
Y-136400D02*
G01X246975D01*
Y-136400D02*
G01X245850Y-136900D01*
Y-136900D02*
G01X244975Y-137733D01*
Y-137733D02*
G01X244350Y-138733D01*
Y-138733D02*
G01X243850Y-140400D01*
Y-140400D02*
G01X243725Y-141900D01*
Y-141900D02*
G01X243975Y-143400D01*
Y-143400D02*
G01X244350Y-144400D01*
Y-144400D02*
G01X245100Y-145400D01*
Y-145400D02*
G01X245975Y-146067D01*
Y-146067D02*
G01X246850Y-146400D01*
Y-146400D02*
G01X247725D01*
Y-146400D02*
G01X248600Y-146067D01*
Y-146067D02*
G01X249350Y-145567D01*
Y-145567D02*
G01X249975Y-144900D01*
X253725Y-146400D02*
G01X256850Y-136400D01*
Y-136400D02*
G01X259975Y-146400D01*
X258850Y-142900D02*
G01X254850D01*
X264350Y-146400D02*
G01Y-136400D01*
Y-136400D02*
G01X267475D01*
Y-136400D02*
G01X268475Y-136900D01*
Y-136900D02*
G01X269100Y-137567D01*
Y-137567D02*
G01X269350Y-138900D01*
Y-138900D02*
G01X269100Y-140233D01*
Y-140233D02*
G01X268350Y-141067D01*
Y-141067D02*
G01X267475Y-141567D01*
Y-141567D02*
G01X264350D01*
X267475D02*
G01X269350Y-146400D01*
X274100D02*
G01Y-136400D01*
Y-136400D02*
G01X276600D01*
Y-136400D02*
G01X277600Y-136900D01*
Y-136900D02*
G01X278350Y-137567D01*
Y-137567D02*
G01X278975Y-138567D01*
Y-138567D02*
G01X279475Y-139734D01*
Y-139734D02*
G01X279600Y-141400D01*
Y-141400D02*
G01X279475Y-143067D01*
Y-143067D02*
G01X278975Y-144233D01*
Y-144233D02*
G01X278350Y-145234D01*
Y-145234D02*
G01X277600Y-145900D01*
Y-145900D02*
G01X276600Y-146400D01*
Y-146400D02*
G01X274100D01*
X24475Y-164900D02*
G01Y-154900D01*
Y-154900D02*
G01X29225D01*
X27475Y-159733D02*
G01X24475D01*
X35350Y-154900D02*
G01X38350D01*
X36850D02*
G01Y-164900D01*
X35350D02*
G01X38350D01*
X44350Y-154900D02*
G01Y-164900D01*
Y-164900D02*
G01X49350D01*
X53600D02*
G01Y-154900D01*
Y-154900D02*
G01X56850Y-163233D01*
Y-163233D02*
G01X60100Y-154900D01*
Y-154900D02*
G01Y-164900D01*
X74350Y-154900D02*
G01Y-164900D01*
Y-164900D02*
G01X79350D01*
X83725D02*
G01X86850Y-154900D01*
Y-154900D02*
G01X89975Y-164900D01*
X88850Y-161400D02*
G01X84850D01*
X96850Y-164900D02*
G01Y-160400D01*
Y-160400D02*
G01X94350Y-154900D01*
X99350D02*
G01X96850Y-160400D01*
X109350Y-164900D02*
G01X104350D01*
Y-164900D02*
G01Y-154900D01*
Y-154900D02*
G01X109350D01*
X107350Y-159733D02*
G01X104350D01*
X114350Y-164900D02*
G01Y-154900D01*
Y-154900D02*
G01X117475D01*
Y-154900D02*
G01X118475Y-155400D01*
Y-155400D02*
G01X119100Y-156067D01*
Y-156067D02*
G01X119350Y-157400D01*
Y-157400D02*
G01X119100Y-158733D01*
Y-158733D02*
G01X118350Y-159567D01*
Y-159567D02*
G01X117475Y-160067D01*
Y-160067D02*
G01X114350D01*
X117475D02*
G01X119350Y-164900D01*
X126850Y-165233D02*
G01X126600Y-165067D01*
Y-165067D02*
G01Y-164733D01*
Y-164733D02*
G01X126850Y-164567D01*
Y-164567D02*
G01X127100Y-164733D01*
Y-164733D02*
G01Y-165067D01*
Y-165067D02*
G01X126850Y-165233D01*
Y-160734D02*
G01X126600Y-160567D01*
Y-160567D02*
G01Y-160233D01*
Y-160233D02*
G01X126850Y-160067D01*
Y-160067D02*
G01X127100Y-160233D01*
Y-160233D02*
G01Y-160567D01*
Y-160567D02*
G01X126850Y-160734D01*
X24100Y-126400D02*
G01Y-116400D01*
Y-116400D02*
G01X26600D01*
Y-116400D02*
G01X27600Y-116900D01*
Y-116900D02*
G01X28350Y-117567D01*
Y-117567D02*
G01X28975Y-118567D01*
Y-118567D02*
G01X29475Y-119734D01*
Y-119734D02*
G01X29600Y-121400D01*
Y-121400D02*
G01X29475Y-123067D01*
Y-123067D02*
G01X28975Y-124233D01*
Y-124233D02*
G01X28350Y-125234D01*
Y-125234D02*
G01X27600Y-125900D01*
Y-125900D02*
G01X26600Y-126400D01*
Y-126400D02*
G01X24100D01*
X39350D02*
G01X34350D01*
Y-126400D02*
G01Y-116400D01*
Y-116400D02*
G01X39350D01*
X37350Y-121233D02*
G01X34350D01*
X44225Y-125067D02*
G01X45225Y-125900D01*
Y-125900D02*
G01X46350Y-126400D01*
Y-126400D02*
G01X47350D01*
Y-126400D02*
G01X48350Y-125900D01*
Y-125900D02*
G01X49100Y-125067D01*
Y-125067D02*
G01X49475Y-123900D01*
Y-123900D02*
G01X49225Y-122734D01*
Y-122734D02*
G01X48600Y-121733D01*
Y-121733D02*
G01X47475Y-121067D01*
Y-121067D02*
G01X45975Y-120733D01*
Y-120733D02*
G01X45100Y-120067D01*
Y-120067D02*
G01X44725Y-118900D01*
Y-118900D02*
G01X44975Y-117733D01*
Y-117733D02*
G01X45600Y-116900D01*
Y-116900D02*
G01X46475Y-116400D01*
Y-116400D02*
G01X47350D01*
Y-116400D02*
G01X48225Y-116733D01*
Y-116733D02*
G01X48975Y-117567D01*
X55350Y-116400D02*
G01X58350D01*
X56850D02*
G01Y-126400D01*
X55350D02*
G01X58350D01*
X67600Y-121400D02*
G01X70100D01*
Y-121400D02*
G01Y-124400D01*
Y-124400D02*
G01X69350Y-125400D01*
Y-125400D02*
G01X68475Y-126067D01*
Y-126067D02*
G01X67225Y-126400D01*
Y-126400D02*
G01X65975Y-126067D01*
Y-126067D02*
G01X65100Y-125400D01*
Y-125400D02*
G01X64350Y-124400D01*
Y-124400D02*
G01X63850Y-123233D01*
Y-123233D02*
G01X63600Y-121900D01*
Y-121900D02*
G01Y-120733D01*
Y-120733D02*
G01X63850Y-119734D01*
Y-119734D02*
G01X64350Y-118567D01*
Y-118567D02*
G01X65100Y-117567D01*
Y-117567D02*
G01X65850Y-116900D01*
Y-116900D02*
G01X66850Y-116400D01*
Y-116400D02*
G01X67725D01*
Y-116400D02*
G01X68725Y-116733D01*
Y-116733D02*
G01X69475Y-117400D01*
X73975Y-126400D02*
G01Y-116400D01*
Y-116400D02*
G01X79725Y-126400D01*
Y-126400D02*
G01Y-116400D01*
X89350Y-126400D02*
G01X84350D01*
Y-126400D02*
G01Y-116400D01*
Y-116400D02*
G01X89350D01*
X87350Y-121233D02*
G01X84350D01*
X94100Y-126400D02*
G01Y-116400D01*
Y-116400D02*
G01X96600D01*
Y-116400D02*
G01X97600Y-116900D01*
Y-116900D02*
G01X98350Y-117567D01*
Y-117567D02*
G01X98975Y-118567D01*
Y-118567D02*
G01X99475Y-119734D01*
Y-119734D02*
G01X99600Y-121400D01*
Y-121400D02*
G01X99475Y-123067D01*
Y-123067D02*
G01X98975Y-124233D01*
Y-124233D02*
G01X98350Y-125234D01*
Y-125234D02*
G01X97600Y-125900D01*
Y-125900D02*
G01X96600Y-126400D01*
Y-126400D02*
G01X94100D01*
X113725D02*
G01X116850Y-116400D01*
Y-116400D02*
G01X119975Y-126400D01*
X118850Y-122900D02*
G01X114850D01*
X126850Y-116400D02*
G01Y-126400D01*
X123975Y-116400D02*
G01X129725D01*
X136850Y-126733D02*
G01X136600Y-126567D01*
Y-126567D02*
G01Y-126233D01*
Y-126233D02*
G01X136850Y-126067D01*
Y-126067D02*
G01X137100Y-126233D01*
Y-126233D02*
G01Y-126567D01*
Y-126567D02*
G01X136850Y-126733D01*
Y-122234D02*
G01X136600Y-122067D01*
Y-122067D02*
G01Y-121733D01*
Y-121733D02*
G01X136850Y-121567D01*
Y-121567D02*
G01X137100Y-121733D01*
Y-121733D02*
G01Y-122067D01*
Y-122067D02*
G01X136850Y-122234D01*
X24100Y-106400D02*
G01Y-96400D01*
Y-96400D02*
G01X26600D01*
Y-96400D02*
G01X27600Y-96900D01*
Y-96900D02*
G01X28350Y-97567D01*
Y-97567D02*
G01X28975Y-98567D01*
Y-98567D02*
G01X29475Y-99734D01*
Y-99734D02*
G01X29600Y-101400D01*
Y-101400D02*
G01X29475Y-103067D01*
Y-103067D02*
G01X28975Y-104233D01*
Y-104233D02*
G01X28350Y-105234D01*
Y-105234D02*
G01X27600Y-105900D01*
Y-105900D02*
G01X26600Y-106400D01*
Y-106400D02*
G01X24100D01*
X33725D02*
G01X36850Y-96400D01*
Y-96400D02*
G01X39975Y-106400D01*
X38850Y-102900D02*
G01X34850D01*
X46850Y-96400D02*
G01Y-106400D01*
X43975Y-96400D02*
G01X49725D01*
X59350Y-106400D02*
G01X54350D01*
Y-106400D02*
G01Y-96400D01*
Y-96400D02*
G01X59350D01*
X57350Y-101233D02*
G01X54350D01*
X66850Y-106733D02*
G01X66600Y-106567D01*
Y-106567D02*
G01Y-106233D01*
Y-106233D02*
G01X66850Y-106067D01*
Y-106067D02*
G01X67100Y-106233D01*
Y-106233D02*
G01Y-106567D01*
Y-106567D02*
G01X66850Y-106733D01*
Y-102234D02*
G01X66600Y-102067D01*
Y-102067D02*
G01Y-101733D01*
Y-101733D02*
G01X66850Y-101567D01*
Y-101567D02*
G01X67100Y-101733D01*
Y-101733D02*
G01Y-102067D01*
Y-102067D02*
G01X66850Y-102234D01*
X76850Y-96400D02*
G01X75850Y-96733D01*
Y-96733D02*
G01X75100Y-97567D01*
Y-97567D02*
G01X74600Y-98567D01*
Y-98567D02*
G01X74225Y-99900D01*
Y-99900D02*
G01X74100Y-101400D01*
Y-101400D02*
G01X74225Y-102900D01*
Y-102900D02*
G01X74600Y-104233D01*
Y-104233D02*
G01X75100Y-105234D01*
Y-105234D02*
G01X75850Y-106067D01*
Y-106067D02*
G01X76850Y-106400D01*
Y-106400D02*
G01X77850Y-106067D01*
Y-106067D02*
G01X78600Y-105234D01*
Y-105234D02*
G01X79100Y-104233D01*
Y-104233D02*
G01X79475Y-102900D01*
Y-102900D02*
G01X79600Y-101400D01*
Y-101400D02*
G01X79475Y-99900D01*
Y-99900D02*
G01X79100Y-98567D01*
Y-98567D02*
G01X78600Y-97567D01*
Y-97567D02*
G01X77850Y-96733D01*
Y-96733D02*
G01X76850Y-96400D01*
X86600Y-106400D02*
G01X86850Y-104233D01*
Y-104233D02*
G01X87225Y-102400D01*
Y-102400D02*
G01X87725Y-100733D01*
Y-100733D02*
G01X88350Y-98900D01*
Y-98900D02*
G01X89350Y-96400D01*
Y-96400D02*
G01X84350D01*
X95225Y-103067D02*
G01X98475D01*
X106850Y-106400D02*
G01Y-96400D01*
Y-96400D02*
G01X105350Y-98400D01*
Y-106400D02*
G01X108350D01*
X116600D02*
G01X116850Y-104233D01*
Y-104233D02*
G01X117225Y-102400D01*
Y-102400D02*
G01X117725Y-100733D01*
Y-100733D02*
G01X118350Y-98900D01*
Y-98900D02*
G01X119350Y-96400D01*
Y-96400D02*
G01X114350D01*
X125225Y-103067D02*
G01X128475D01*
X134475Y-98067D02*
G01X135225Y-97067D01*
Y-97067D02*
G01X136100Y-96567D01*
Y-96567D02*
G01X137100Y-96400D01*
Y-96400D02*
G01X138350Y-96733D01*
Y-96733D02*
G01X139225Y-97567D01*
Y-97567D02*
G01X139475Y-98567D01*
Y-98567D02*
G01X139350Y-99567D01*
Y-99567D02*
G01X138850Y-100400D01*
Y-100400D02*
G01X136350Y-102067D01*
Y-102067D02*
G01X135225Y-103233D01*
Y-103233D02*
G01X134475Y-104900D01*
Y-104900D02*
G01X134225Y-106400D01*
Y-106400D02*
G01X139475D01*
X146850Y-96400D02*
G01X145850Y-96733D01*
Y-96733D02*
G01X145100Y-97567D01*
Y-97567D02*
G01X144600Y-98567D01*
Y-98567D02*
G01X144225Y-99900D01*
Y-99900D02*
G01X144100Y-101400D01*
Y-101400D02*
G01X144225Y-102900D01*
Y-102900D02*
G01X144600Y-104233D01*
Y-104233D02*
G01X145100Y-105234D01*
Y-105234D02*
G01X145850Y-106067D01*
Y-106067D02*
G01X146850Y-106400D01*
Y-106400D02*
G01X147850Y-106067D01*
Y-106067D02*
G01X148600Y-105234D01*
Y-105234D02*
G01X149100Y-104233D01*
Y-104233D02*
G01X149475Y-102900D01*
Y-102900D02*
G01X149600Y-101400D01*
Y-101400D02*
G01X149475Y-99900D01*
Y-99900D02*
G01X149100Y-98567D01*
Y-98567D02*
G01X148600Y-97567D01*
Y-97567D02*
G01X147850Y-96733D01*
Y-96733D02*
G01X146850Y-96400D01*
X156850Y-106400D02*
G01Y-96400D01*
Y-96400D02*
G01X155350Y-98400D01*
Y-106400D02*
G01X158350D01*
X166850D02*
G01X167725Y-106233D01*
Y-106233D02*
G01X168725Y-105733D01*
Y-105733D02*
G01X169350Y-104900D01*
Y-104900D02*
G01X169600Y-103733D01*
Y-103733D02*
G01X169350Y-102567D01*
Y-102567D02*
G01X168600Y-101567D01*
Y-101567D02*
G01X167475Y-101067D01*
Y-101067D02*
G01X166225D01*
Y-101067D02*
G01X165475Y-100733D01*
Y-100733D02*
G01X164850Y-99900D01*
Y-99900D02*
G01X164600Y-98733D01*
Y-98733D02*
G01X164975Y-97567D01*
Y-97567D02*
G01X165850Y-96733D01*
Y-96733D02*
G01X166850Y-96400D01*
Y-96400D02*
G01X167850Y-96733D01*
Y-96733D02*
G01X168725Y-97567D01*
Y-97567D02*
G01X169100Y-98733D01*
Y-98733D02*
G01X168850Y-99900D01*
Y-99900D02*
G01X168225Y-100733D01*
Y-100733D02*
G01X167475Y-101067D01*
Y-101067D02*
G01X166225D01*
Y-101067D02*
G01X165100Y-101567D01*
Y-101567D02*
G01X164350Y-102567D01*
Y-102567D02*
G01X164100Y-103733D01*
Y-103733D02*
G01X164350Y-104900D01*
Y-104900D02*
G01X164975Y-105733D01*
Y-105733D02*
G01X165975Y-106233D01*
Y-106233D02*
G01X166850Y-106400D01*
X135725Y-163167D02*
G01X136725Y-164000D01*
Y-164000D02*
G01X137850Y-164500D01*
Y-164500D02*
G01X138850D01*
Y-164500D02*
G01X139850Y-164000D01*
Y-164000D02*
G01X140600Y-163167D01*
Y-163167D02*
G01X140975Y-162000D01*
Y-162000D02*
G01X140725Y-160834D01*
Y-160834D02*
G01X140100Y-159833D01*
Y-159833D02*
G01X138975Y-159167D01*
Y-159167D02*
G01X137475Y-158833D01*
Y-158833D02*
G01X136600Y-158167D01*
Y-158167D02*
G01X136225Y-157000D01*
Y-157000D02*
G01X136475Y-155833D01*
Y-155833D02*
G01X137100Y-155000D01*
Y-155000D02*
G01X137975Y-154500D01*
Y-154500D02*
G01X138850D01*
Y-154500D02*
G01X139725Y-154833D01*
Y-154833D02*
G01X140475Y-155667D01*
X148350Y-164500D02*
G01X147350Y-164333D01*
Y-164333D02*
G01X146475Y-163667D01*
Y-163667D02*
G01X145725Y-162667D01*
Y-162667D02*
G01X145225Y-161500D01*
Y-161500D02*
G01X144975Y-160167D01*
Y-160167D02*
G01Y-158833D01*
Y-158833D02*
G01X145225Y-157500D01*
Y-157500D02*
G01X145725Y-156333D01*
Y-156333D02*
G01X146475Y-155333D01*
Y-155333D02*
G01X147350Y-154667D01*
Y-154667D02*
G01X148350Y-154500D01*
Y-154500D02*
G01X149350Y-154667D01*
Y-154667D02*
G01X150225Y-155333D01*
Y-155333D02*
G01X150975Y-156333D01*
Y-156333D02*
G01X151475Y-157500D01*
Y-157500D02*
G01X151725Y-158833D01*
Y-158833D02*
G01Y-160167D01*
Y-160167D02*
G01X151475Y-161500D01*
Y-161500D02*
G01X150975Y-162667D01*
Y-162667D02*
G01X150225Y-163667D01*
Y-163667D02*
G01X149350Y-164333D01*
Y-164333D02*
G01X148350Y-164500D01*
X155850Y-154500D02*
G01Y-164500D01*
Y-164500D02*
G01X160850D01*
X165600D02*
G01Y-154500D01*
Y-154500D02*
G01X168100D01*
Y-154500D02*
G01X169100Y-155000D01*
Y-155000D02*
G01X169850Y-155667D01*
Y-155667D02*
G01X170475Y-156667D01*
Y-156667D02*
G01X170975Y-157834D01*
Y-157834D02*
G01X171100Y-159500D01*
Y-159500D02*
G01X170975Y-161167D01*
Y-161167D02*
G01X170475Y-162333D01*
Y-162333D02*
G01X169850Y-163334D01*
Y-163334D02*
G01X169100Y-164000D01*
Y-164000D02*
G01X168100Y-164500D01*
Y-164500D02*
G01X165600D01*
X180850D02*
G01X175850D01*
Y-164500D02*
G01Y-154500D01*
Y-154500D02*
G01X180850D01*
X178850Y-159333D02*
G01X175850D01*
X185850Y-164500D02*
G01Y-154500D01*
Y-154500D02*
G01X188975D01*
Y-154500D02*
G01X189975Y-155000D01*
Y-155000D02*
G01X190600Y-155667D01*
Y-155667D02*
G01X190850Y-157000D01*
Y-157000D02*
G01X190600Y-158333D01*
Y-158333D02*
G01X189850Y-159167D01*
Y-159167D02*
G01X188975Y-159667D01*
Y-159667D02*
G01X185850D01*
X188975D02*
G01X190850Y-164500D01*
X205850D02*
G01Y-154500D01*
Y-154500D02*
G01X208850D01*
Y-154500D02*
G01X209850Y-155000D01*
Y-155000D02*
G01X210600Y-156167D01*
Y-156167D02*
G01X210850Y-157500D01*
Y-157500D02*
G01X210600Y-158833D01*
Y-158833D02*
G01X209975Y-159833D01*
Y-159833D02*
G01X208850Y-160334D01*
Y-160334D02*
G01X205850D01*
X215225Y-164500D02*
G01X218350Y-154500D01*
Y-154500D02*
G01X221475Y-164500D01*
X220350Y-161000D02*
G01X216350D01*
X225725Y-163167D02*
G01X226725Y-164000D01*
Y-164000D02*
G01X227850Y-164500D01*
Y-164500D02*
G01X228850D01*
Y-164500D02*
G01X229850Y-164000D01*
Y-164000D02*
G01X230600Y-163167D01*
Y-163167D02*
G01X230975Y-162000D01*
Y-162000D02*
G01X230725Y-160834D01*
Y-160834D02*
G01X230100Y-159833D01*
Y-159833D02*
G01X228975Y-159167D01*
Y-159167D02*
G01X227475Y-158833D01*
Y-158833D02*
G01X226600Y-158167D01*
Y-158167D02*
G01X226225Y-157000D01*
Y-157000D02*
G01X226475Y-155833D01*
Y-155833D02*
G01X227100Y-155000D01*
Y-155000D02*
G01X227975Y-154500D01*
Y-154500D02*
G01X228850D01*
Y-154500D02*
G01X229725Y-154833D01*
Y-154833D02*
G01X230475Y-155667D01*
X238350Y-154500D02*
G01Y-164500D01*
X235475Y-154500D02*
G01X241225D01*
X250850Y-164500D02*
G01X245850D01*
Y-164500D02*
G01Y-154500D01*
Y-154500D02*
G01X250850D01*
X248850Y-159333D02*
G01X245850D01*
X268350Y-154500D02*
G01Y-164500D01*
X265475Y-154500D02*
G01X271225D01*
X278350Y-164500D02*
G01X277350Y-164333D01*
Y-164333D02*
G01X276475Y-163667D01*
Y-163667D02*
G01X275725Y-162667D01*
Y-162667D02*
G01X275225Y-161500D01*
Y-161500D02*
G01X274975Y-160167D01*
Y-160167D02*
G01Y-158833D01*
Y-158833D02*
G01X275225Y-157500D01*
Y-157500D02*
G01X275725Y-156333D01*
Y-156333D02*
G01X276475Y-155333D01*
Y-155333D02*
G01X277350Y-154667D01*
Y-154667D02*
G01X278350Y-154500D01*
Y-154500D02*
G01X279350Y-154667D01*
Y-154667D02*
G01X280225Y-155333D01*
Y-155333D02*
G01X280975Y-156333D01*
Y-156333D02*
G01X281475Y-157500D01*
Y-157500D02*
G01X281725Y-158833D01*
Y-158833D02*
G01Y-160167D01*
Y-160167D02*
G01X281475Y-161500D01*
Y-161500D02*
G01X280975Y-162667D01*
Y-162667D02*
G01X280225Y-163667D01*
Y-163667D02*
G01X279350Y-164333D01*
Y-164333D02*
G01X278350Y-164500D01*
X285850D02*
G01Y-154500D01*
Y-154500D02*
G01X288850D01*
Y-154500D02*
G01X289850Y-155000D01*
Y-155000D02*
G01X290600Y-156167D01*
Y-156167D02*
G01X290850Y-157500D01*
Y-157500D02*
G01X290600Y-158833D01*
Y-158833D02*
G01X289975Y-159833D01*
Y-159833D02*
G01X288850Y-160334D01*
Y-160334D02*
G01X285850D01*
X219350Y-106400D02*
G01Y-96400D01*
Y-96400D02*
G01X222350D01*
Y-96400D02*
G01X223350Y-96900D01*
Y-96900D02*
G01X224100Y-98067D01*
Y-98067D02*
G01X224350Y-99400D01*
Y-99400D02*
G01X224100Y-100733D01*
Y-100733D02*
G01X223475Y-101733D01*
Y-101733D02*
G01X222350Y-102234D01*
Y-102234D02*
G01X219350D01*
X228725Y-106400D02*
G01X231850Y-96400D01*
Y-96400D02*
G01X234975Y-106400D01*
X233850Y-102900D02*
G01X229850D01*
X239350Y-106400D02*
G01Y-96400D01*
Y-96400D02*
G01X242475D01*
Y-96400D02*
G01X243475Y-96900D01*
Y-96900D02*
G01X244100Y-97567D01*
Y-97567D02*
G01X244350Y-98900D01*
Y-98900D02*
G01X244100Y-100233D01*
Y-100233D02*
G01X243350Y-101067D01*
Y-101067D02*
G01X242475Y-101567D01*
Y-101567D02*
G01X239350D01*
X242475D02*
G01X244350Y-106400D01*
X251850Y-96400D02*
G01Y-106400D01*
X248975Y-96400D02*
G01X254725D01*
X268975Y-106400D02*
G01Y-96400D01*
Y-96400D02*
G01X274725Y-106400D01*
Y-106400D02*
G01Y-96400D01*
X279100D02*
G01Y-103567D01*
Y-103567D02*
G01X279600Y-105067D01*
Y-105067D02*
G01X280600Y-106067D01*
Y-106067D02*
G01X281850Y-106400D01*
Y-106400D02*
G01X283100Y-106067D01*
Y-106067D02*
G01X284100Y-105067D01*
Y-105067D02*
G01X284600Y-103567D01*
Y-103567D02*
G01Y-96400D01*
X288600Y-106400D02*
G01Y-96400D01*
Y-96400D02*
G01X291850Y-104733D01*
Y-104733D02*
G01X295100Y-96400D01*
Y-96400D02*
G01Y-106400D01*
X302850Y-101067D02*
G01X303350Y-100567D01*
Y-100567D02*
G01X303725Y-99734D01*
Y-99734D02*
G01X303975Y-98567D01*
Y-98567D02*
G01X303725Y-97567D01*
Y-97567D02*
G01X303225Y-96900D01*
Y-96900D02*
G01X302350Y-96400D01*
Y-96400D02*
G01X298975D01*
Y-96400D02*
G01Y-106400D01*
Y-106400D02*
G01X303100D01*
Y-106400D02*
G01X303975Y-105733D01*
Y-105733D02*
G01X304475Y-104733D01*
Y-104733D02*
G01X304725Y-103567D01*
Y-103567D02*
G01X304475Y-102400D01*
Y-102400D02*
G01X303725Y-101400D01*
Y-101400D02*
G01X302850Y-101067D01*
Y-101067D02*
G01X298975D01*
X314350Y-106400D02*
G01X309350D01*
Y-106400D02*
G01Y-96400D01*
Y-96400D02*
G01X314350D01*
X312350Y-101233D02*
G01X309350D01*
X319350Y-106400D02*
G01Y-96400D01*
Y-96400D02*
G01X322475D01*
Y-96400D02*
G01X323475Y-96900D01*
Y-96900D02*
G01X324100Y-97567D01*
Y-97567D02*
G01X324350Y-98900D01*
Y-98900D02*
G01X324100Y-100233D01*
Y-100233D02*
G01X323350Y-101067D01*
Y-101067D02*
G01X322475Y-101567D01*
Y-101567D02*
G01X319350D01*
X322475D02*
G01X324350Y-106400D01*
X331850Y-106733D02*
G01X331600Y-106567D01*
Y-106567D02*
G01Y-106233D01*
Y-106233D02*
G01X331850Y-106067D01*
Y-106067D02*
G01X332100Y-106233D01*
Y-106233D02*
G01Y-106567D01*
Y-106567D02*
G01X331850Y-106733D01*
Y-102234D02*
G01X331600Y-102067D01*
Y-102067D02*
G01Y-101733D01*
Y-101733D02*
G01X331850Y-101567D01*
Y-101567D02*
G01X332100Y-101733D01*
Y-101733D02*
G01Y-102067D01*
Y-102067D02*
G01X331850Y-102234D01*
X516350Y-136150D02*
G01Y-146150D01*
Y-146150D02*
G01X521350D01*
X527350Y-136150D02*
G01X530350D01*
X528850D02*
G01Y-146150D01*
X527350D02*
G01X530350D01*
X536475D02*
G01Y-136150D01*
Y-136150D02*
G01X541225D01*
X539475Y-140983D02*
G01X536475D01*
X551350Y-146150D02*
G01X546350D01*
Y-146150D02*
G01Y-136150D01*
Y-136150D02*
G01X551350D01*
X549350Y-140983D02*
G01X546350D01*
X557225Y-142817D02*
G01X560475D01*
X568850Y-146150D02*
G01Y-136150D01*
Y-136150D02*
G01X567350Y-138150D01*
Y-146150D02*
G01X570350D01*
X610551Y558610D02*
G01Y5000D01*
X605551Y0*
X5000*
X0Y5000*
Y670110*
X5000Y675110*
X526657*
X531657Y670110*
Y565610*
X531687Y565263*
X531777Y564926*
X531925Y564610*
X532125Y564324*
X532371Y564078*
X532657Y563878*
X532973Y563731*
X533310Y563640*
X533657Y563610*
X605551*
X610551Y558610*
M02*
