G04 ================== begin FILE IDENTIFICATION RECORD ==================*
G04 Layout Name:  OC_Connect-1_DEBUG_Life-3.brd*
G04 Film Name:    L1.gbr*
G04 File Format:  Gerber RS274X*
G04 File Origin:  Cadence Allegro 16.6-2015-S065*
G04 Origin Date:  Mon Mar 06 16:55:43 2017*
G04 *
G04 Layer:  VIA CLASS/TOP*
G04 Layer:  PIN/TOP*
G04 Layer:  ETCH/TOP*
G04 Layer:  DRAWING FORMAT/L1*
G04 Layer:  DRAWING FORMAT/FILM_LABEL_OUTLINE*
G04 Layer:  BOARD GEOMETRY/OUTLINE*
G04 *
G04 Offset:    (0.000 0.000)*
G04 Mirror:    No*
G04 Mode:      Positive*
G04 Rotation:  0*
G04 FullContactRelief:  No*
G04 UndefLineWidth:     6.000*
G04 ================== end FILE IDENTIFICATION RECORD ====================*
%FSLAX25Y25*MOIN*%
%IR0*IPPOS*OFA0.00000B0.00000*MIA0B0*SFA1.00000B1.00000*%
%ADD14R,.025X.1*%
%ADD73R,.066929X.07874*%
%ADD65R,.010984X.089488*%
%ADD54R,.11X.055*%
%ADD55R,.055X.11*%
%AMMACRO35*
4,1,20,-.047244,-.03248,
.047244,-.03248,
.047244,-.015354,
.074803,-.015354,
.074803,-.004331,
.047244,-.004331,
.047244,.004331,
.074803,.004331,
.074803,.015354,
.047244,.015354,
.047244,.03248,
-.047244,.03248,
-.047244,.015354,
-.074803,.015354,
-.074803,.004331,
-.047244,.004331,
-.047244,-.004331,
-.074803,-.004331,
-.074803,-.015354,
-.047244,-.015354,
-.047244,-.03248,
0.0*
%
%ADD35MACRO35*%
%AMMACRO82*
4,1,23,-.062008,.035925,
.050071,.035925,
.052666,.035031,
.055067,.0337,
.0572,.031973,
.059001,.029901,
.060415,.027548,
.061398,.024985,
.061922,.022291,
.062008,.020645,
.062008,.000397,
.061769,-.002338,
.061058,-.004989,
.059898,-.007477,
.058324,-.009726,
.056383,-.011667,
.054134,-.013242,
.051646,-.014402,
.048995,-.015112,
.047984,-.015257,
-.034449,-.015257,
-.034449,-.035926,
-.062008,-.035926,
-.062008,.035925,
0.0*
%
%ADD82MACRO82*%
%ADD80R,.068898X.015748*%
%ADD19O,.059X.13*%
%AMMACRO86*
4,1,23,-.062008,-.035926,
.050071,-.035926,
.052666,-.035032,
.055067,-.033701,
.0572,-.031974,
.059001,-.029902,
.060415,-.027549,
.061398,-.024986,
.061922,-.022292,
.062008,-.020646,
.062008,-.000398,
.061769,.002337,
.061058,.004988,
.059898,.007476,
.058324,.009725,
.056383,.011666,
.054134,.013241,
.051646,.014401,
.048995,.015111,
.047984,.015256,
-.034449,.015256,
-.034449,.035925,
-.062008,.035925,
-.062008,-.035926,
0.0*
%
%ADD86MACRO86*%
%ADD46R,.04016X.10315*%
%ADD15R,.025X.185*%
%ADD85C,.108*%
%ADD69R,.019X.008*%
%ADD20R,.008X.019*%
%ADD43C,.128*%
%ADD39C,.11811*%
%ADD12C,.000012*%
%ADD71R,.008661X.014173*%
%ADD47R,.040157X.129921*%
%ADD10C,.137795*%
%ADD44R,.03937X.108268*%
%ADD72R,.008661X.015748*%
%ADD34R,.12X.1*%
%ADD70R,.1X.12*%
%ADD48R,.008661X.019685*%
%ADD67R,.027559X.009843*%
%ADD66R,.009843X.027559*%
%ADD60R,.012X.015*%
%ADD32R,.04X.015*%
%AMMACRO74*
4,1,20,-.03248,.047244,
-.03248,-.047244,
-.015354,-.047244,
-.015354,-.074803,
-.004331,-.074803,
-.004331,-.047244,
.004331,-.047244,
.004331,-.074803,
.015354,-.074803,
.015354,-.047244,
.03248,-.047244,
.03248,.047244,
.015354,.047244,
.015354,.074803,
.004331,.074803,
.004331,.047244,
-.004331,.047244,
-.004331,.074803,
-.015354,.074803,
-.015354,.047244,
-.03248,.047244,
0.0*
%
%ADD74MACRO74*%
%ADD26R,.017X.05*%
%ADD21R,.05X.07*%
%ADD62R,.039X.012*%
%ADD61R,.012X.039*%
%ADD45R,.043X.028*%
%ADD33R,.038X.032*%
%ADD25R,.028X.043*%
%ADD11C,.04*%
%ADD24R,.075X.015*%
%ADD56R,.059X.051*%
%ADD16C,.024*%
%ADD41C,.052*%
%ADD18C,.025*%
%ADD13R,.057X.018*%
%ADD84C,.053*%
%ADD68R,.075X.055*%
%ADD27R,.02X.02*%
%ADD57R,.095X.018*%
%ADD17R,.021X.021*%
%ADD40R,.052X.052*%
%ADD83R,.053X.053*%
%ADD58R,.094X.079*%
%ADD36R,.011024X.033465*%
%ADD75R,.033465X.011024*%
%ADD42C,.079*%
%ADD37R,.011811X.011811*%
%ADD38C,.047244*%
%ADD50C,.03937*%
%ADD23R,.023622X.033465*%
%ADD77C,.030984*%
%ADD64C,.01969*%
%ADD59R,.011811X.062992*%
%ADD51R,.062992X.011811*%
%ADD31R,.035827X.048031*%
%ADD63R,.045276X.043307*%
%ADD52R,.047244X.047244*%
%ADD81R,.098425X.056102*%
%ADD78C,.019685*%
%ADD28R,.016535X.017717*%
%ADD49R,.055118X.015748*%
%ADD79R,.055118X.07874*%
%ADD76R,.059055X.03937*%
%ADD29R,.016535X.027559*%
%ADD53R,.029134X.094488*%
%ADD22R,.011X.102*%
%ADD30R,.093307X.066929*%
%ADD87C,.006*%
%ADD88C,.008*%
%ADD89C,.009*%
%ADD90C,.0054*%
%ADD91C,.0055*%
%ADD92C,.00445*%
%ADD93C,.01*%
%ADD94C,.011*%
%ADD95C,.02*%
%ADD96C,.03*%
%ADD97C,.012*%
%ADD98C,.022*%
%ADD99C,.015*%
%ADD100C,.016*%
%ADD101C,.018*%
%ADD105R,.076934X.088744*%
%ADD103R,.130004X.110004*%
%ADD102C,.044004*%
%ADD106R,.063004X.063004*%
%ADD104R,.053004X.038004*%
G75*
%LPD*%
G75*
G36*
G01X62600Y165500D02*
X46800D01*
X45900Y166400D01*
Y174100D01*
X46300Y174500D01*
X48018D01*
Y168675D01*
X54718D01*
Y174500D01*
X58100D01*
X59700Y176100D01*
X61900D01*
X62800Y175200D01*
Y174450D01*
X60030D01*
Y171350D01*
X62800D01*
Y165700D01*
X62600Y165500D01*
G37*
G36*
G01X23500Y163500D02*
X15000D01*
X14500Y164000D01*
Y172300D01*
X15100Y172900D01*
X17600D01*
X18500Y173800D01*
Y176500D01*
X19000Y177000D01*
X22000D01*
X23500Y175500D01*
Y174925D01*
X23418D01*
Y168375D01*
X23500D01*
Y163500D01*
G37*
G36*
G01X70000Y190000D02*
X69500Y189500D01*
X65000D01*
X64000Y190500D01*
Y195500D01*
X63000Y196500D01*
X62050D01*
Y199620D01*
X58950D01*
Y196500D01*
X56046D01*
X55471Y197075D01*
X54718D01*
Y199175D01*
X55718D01*
Y199500D01*
X56500D01*
X58500Y201500D01*
X69000D01*
X70000Y200500D01*
Y190000D01*
G37*
G36*
G01X22000Y212500D02*
X21700Y212800D01*
X18934D01*
Y213125D01*
X15575D01*
X15000Y213700D01*
Y215725D01*
X17934D01*
Y218825D01*
X15000D01*
Y219500D01*
X16000Y220500D01*
X21500D01*
X23000Y219000D01*
X23418D01*
Y218775D01*
X23718D01*
Y213425D01*
X22718D01*
Y212500D01*
X22000D01*
G37*
G36*
G01X88818Y49300D02*
X88718Y49400D01*
X84118D01*
X83218Y50300D01*
Y50400D01*
X83118Y50500D01*
Y51900D01*
X84368Y53150D01*
X86268D01*
X86618Y52800D01*
X89818D01*
X90318Y52300D01*
Y51039D01*
G03X89938Y50120I921J-918D01*
G01Y49820D01*
X89818Y49700D01*
Y49300D01*
X88818D01*
G37*
G36*
G01X83818Y82000D02*
Y73600D01*
X83218Y73000D01*
X62018D01*
X60418Y74600D01*
Y80900D01*
X62118Y82600D01*
X83218D01*
X83818Y82000D01*
G37*
G36*
G01X125818Y161700D02*
X127618Y163500D01*
X135818D01*
Y160047D01*
X141118D01*
Y163500D01*
X144118D01*
X144226Y163608D01*
G02X144568Y163467I141J-141D01*
G01Y161480D01*
X147668D01*
Y164100D01*
X151068D01*
Y161480D01*
X154168D01*
Y164100D01*
X157818D01*
X158718Y163200D01*
Y154218D01*
X157000Y152500D01*
X127500D01*
X126502Y153498D01*
X126499Y153577D01*
G03X125818Y155004I-1999J-77D01*
G01Y161700D01*
G37*
G36*
G01X80470Y154500D02*
G02X80859Y154008I0J-400D01*
G03X81000Y152583I2141J-507D01*
G01Y150500D01*
X85700Y145800D01*
X86674D01*
G03X86726I26J2000D01*
G01X92900D01*
X95500Y148400D01*
Y149500D01*
X98000D01*
Y152500D01*
X96462D01*
G02X96179Y153183I0J400D01*
G01X96696Y153700D01*
X98300D01*
Y153740D01*
X98548D01*
X98591Y153718D01*
G03X100509Y153773I909J1782D01*
G01X100555Y153800D01*
X100900D01*
X102500Y155400D01*
Y178500D01*
X95500Y185500D01*
X83500D01*
X71600Y197400D01*
Y203328D01*
G03Y205072I-1800J872D01*
G01Y229147D01*
X83953Y241500D01*
X84000D01*
X86318Y243818D01*
Y248150D01*
X89138D01*
Y251250D01*
X86318D01*
Y252500D01*
X87051Y253233D01*
X87831D01*
Y253533D01*
X90612D01*
Y252578D01*
X91100Y252090D01*
Y248400D01*
X92000Y247500D01*
X92368D01*
Y244680D01*
X95468D01*
Y247500D01*
X97868D01*
Y244680D01*
X100968D01*
Y247500D01*
X101900D01*
X103000Y246400D01*
Y235414D01*
X98640Y231054D01*
X88304D01*
X78250Y221000D01*
Y215974D01*
G03X78175Y213117I1700J-1474D01*
G01Y203715D01*
X78250Y203640D01*
Y203550D01*
X87200Y194600D01*
X100400D01*
X116000Y179000D01*
Y158000D01*
X113200Y155200D01*
Y149200D01*
X108900Y144900D01*
X100147D01*
G03X100090I-29J-2400D01*
G01X99000D01*
X95900Y141800D01*
X83200D01*
X78000Y147000D01*
X73700D01*
X71100Y149600D01*
Y160800D01*
X72300Y162000D01*
X76000D01*
X77000Y163000D01*
X78334D01*
Y159110D01*
X85500D01*
Y157500D01*
X81500D01*
X78300Y157500D01*
Y157800D01*
X74700D01*
Y154778D01*
X74582Y154725D01*
G03X77399Y152970I818J-1825D01*
G01X77396Y153057D01*
X77800Y153461D01*
Y154200D01*
X78300D01*
Y154500D01*
X80470D01*
G37*
G36*
G01X72300Y164400D02*
X71500Y165200D01*
Y174600D01*
X70500Y175600D01*
Y180000D01*
X71000Y180500D01*
X72600D01*
Y176400D01*
X77400D01*
Y180500D01*
X78500D01*
X79200Y179800D01*
Y179200D01*
X79500D01*
Y176000D01*
X82500D01*
Y179200D01*
X82800D01*
Y179500D01*
X84000D01*
X85500Y181000D01*
X88469D01*
G03X90531I1031J2000D01*
G01X93583D01*
G03X95417I917J2000D01*
G01X97000D01*
X98500Y179500D01*
Y168000D01*
X97500Y167000D01*
X90700D01*
X90300Y167400D01*
Y173100D01*
X89500Y173900D01*
X77900D01*
X76500Y172500D01*
Y164500D01*
X76379D01*
X76278Y164400D01*
X72300D01*
G37*
G36*
G01X144568Y166616D02*
G02X143885Y166333I-400J0D01*
G01X143818Y166400D01*
X141118D01*
Y169753D01*
X135818D01*
Y166400D01*
X125600D01*
X121759Y170241D01*
Y185859D01*
X123200Y187300D01*
X157018D01*
X158418Y185900D01*
Y167600D01*
X156518Y165700D01*
X154168D01*
Y168320D01*
X151068D01*
Y165700D01*
X147668D01*
Y168320D01*
X144568D01*
Y166616D01*
G37*
G36*
G01X87500Y270500D02*
Y270718D01*
X85818Y272400D01*
X79818D01*
X79018Y273200D01*
Y274250D01*
X81738D01*
Y277350D01*
X79018D01*
Y279000D01*
X78318Y279700D01*
X72418D01*
X66818Y285300D01*
Y323200D01*
X69718Y326100D01*
X89900D01*
X93000Y323000D01*
Y287782D01*
X91200Y285982D01*
Y270924D01*
X90776Y270500D01*
X87500D01*
G37*
G36*
G01X173993Y286405D02*
X173308Y287090D01*
Y318805D01*
X174320Y319817D01*
X179884D01*
X180595Y319106D01*
Y317250D01*
X180438D01*
Y316950D01*
X176998D01*
Y313850D01*
X180438D01*
Y313550D01*
X180595D01*
Y309250D01*
X180438D01*
Y308950D01*
X176998D01*
Y305850D01*
X180438D01*
Y305550D01*
X180595D01*
Y302450D01*
X180438D01*
Y302150D01*
X176998D01*
Y299050D01*
X180438D01*
Y298750D01*
X180595D01*
Y295650D01*
X180438D01*
Y295350D01*
X176998D01*
Y292250D01*
X180438D01*
Y291950D01*
X180595D01*
Y287131D01*
X179869Y286405D01*
X173993D01*
G37*
G36*
G01X178100Y323500D02*
X177800Y323800D01*
Y325150D01*
X180338D01*
Y328250D01*
X177800D01*
Y331991D01*
X181440D01*
Y336338D01*
X177800D01*
Y337400D01*
X180100Y339700D01*
X191095D01*
X197718Y333077D01*
Y325000D01*
X196218Y323500D01*
X195768D01*
Y326484D01*
X192668D01*
Y323500D01*
X178100D01*
G37*
G36*
G01X202922Y349678D02*
X202800Y349800D01*
X200680D01*
Y355096D01*
X194956D01*
Y349800D01*
X193744D01*
X192644Y350900D01*
Y355925D01*
X195719Y359000D01*
X224718D01*
X226317Y357401D01*
Y352494D01*
X224823Y351000D01*
X224268D01*
Y351280D01*
X223968D01*
Y354720D01*
X220868D01*
Y351280D01*
X220568D01*
Y351000D01*
X216768D01*
Y351280D01*
X216468D01*
Y354720D01*
X213368D01*
Y351280D01*
X213068D01*
Y351000D01*
X209268D01*
Y351280D01*
X208968D01*
Y354720D01*
X205868D01*
Y351280D01*
X205568D01*
Y351000D01*
X204244D01*
X202922Y349678D01*
G37*
G36*
G01X268218Y28000D02*
X267718Y27500D01*
X251718D01*
X249218Y30000D01*
Y41500D01*
X251718Y44000D01*
X264586D01*
X268387Y40200D01*
X268518D01*
X270218Y38500D01*
X279218D01*
X282218Y35500D01*
X284086D01*
X284318Y35268D01*
Y34108D01*
X280928D01*
Y34000D01*
X269718D01*
X268218Y32500D01*
Y28000D01*
G37*
G36*
G01X290718Y31500D02*
X291218Y32000D01*
Y46368D01*
X292850Y48000D01*
X344118D01*
X345418Y46700D01*
Y39100D01*
X344318Y38000D01*
X333218D01*
X330018Y41200D01*
X329918Y41100D01*
X305118D01*
X304718Y41500D01*
X297718D01*
X296918Y40700D01*
Y38700D01*
X294718Y36500D01*
X292818D01*
X292395Y36077D01*
X291952D01*
Y29234D01*
X291218Y28500D01*
X286218D01*
X285284Y29434D01*
Y36077D01*
X284641D01*
X284218Y36500D01*
X282718D01*
X280218Y39000D01*
Y40500D01*
X279718Y41000D01*
X268718D01*
X264718Y45000D01*
X252218D01*
X248718Y48500D01*
Y58000D01*
X251718Y61000D01*
X282718D01*
X286218Y57500D01*
Y32500D01*
X287218Y31500D01*
X290718D01*
G37*
G36*
G01X256800Y96473D02*
Y102000D01*
X258200Y103400D01*
X269418D01*
X272468Y100350D01*
Y97480D01*
X275568D01*
Y100200D01*
X276318D01*
X276418Y100300D01*
X276918D01*
X277018Y100200D01*
X277818D01*
X278351Y99667D01*
Y98987D01*
X278400D01*
Y96206D01*
X277996D01*
X277090Y95300D01*
X273200D01*
X272650Y94750D01*
X269598D01*
Y91650D01*
X272218D01*
Y89250D01*
X269598D01*
Y86150D01*
X272218D01*
Y85900D01*
X273418Y84700D01*
Y84603D01*
X306597D01*
X308300Y82900D01*
Y71800D01*
X307000Y70500D01*
X290718D01*
X283818Y63600D01*
X281718D01*
Y69853D01*
X269718D01*
Y63600D01*
X268168D01*
Y69487D01*
X261268D01*
Y63600D01*
X259368D01*
Y67353D01*
X254068D01*
Y63600D01*
X251000D01*
X249718Y64882D01*
Y85118D01*
X250500Y85900D01*
X254400D01*
X256800Y88300D01*
Y92527D01*
X256949Y92567D01*
G03Y96433I-513J1933D01*
G01X256800Y96473D01*
G37*
G36*
G01X239918Y114800D02*
X239118Y115600D01*
Y126100D01*
X240018Y127000D01*
X242468D01*
Y123980D01*
X245568D01*
Y127000D01*
X248998D01*
Y124150D01*
X251618D01*
Y121650D01*
X248998D01*
Y118550D01*
X251618D01*
Y115700D01*
X250718Y114800D01*
X239918D01*
G37*
G36*
G01X280600Y220700D02*
X274600D01*
X274218Y221082D01*
Y235200D01*
X275718Y236700D01*
X282168D01*
Y233780D01*
X285268D01*
Y236700D01*
X287051D01*
Y235887D01*
X287100D01*
Y233106D01*
X286796D01*
X285890Y232200D01*
X281900D01*
X281218Y231518D01*
Y231350D01*
X278298D01*
Y228250D01*
X281218D01*
Y225850D01*
X278298D01*
Y222750D01*
X281218D01*
Y221318D01*
X280600Y220700D01*
G37*
G36*
G01X276068Y195884D02*
G02X276751Y196167I400J0D01*
G01X277851Y195067D01*
Y194787D01*
X278100D01*
Y192200D01*
X272318D01*
X271868Y191750D01*
X269098D01*
Y188650D01*
X271568D01*
X272118Y188100D01*
Y186250D01*
X269098D01*
Y183150D01*
X272118D01*
Y179500D01*
X271318Y178700D01*
X264318D01*
X263518Y179500D01*
Y196400D01*
X265018Y197900D01*
X272218D01*
X272968Y197150D01*
Y194280D01*
X276068D01*
Y195884D01*
G37*
G36*
G01X224300Y394900D02*
X223414Y395786D01*
Y396285D01*
X227414D01*
Y406734D01*
X223414D01*
Y407734D01*
X222900D01*
Y407900D01*
X218982Y411818D01*
Y412496D01*
X219539D01*
Y414478D01*
G02X219881Y414619I200J0D01*
G01X219900Y414600D01*
X220700D01*
X221000Y414900D01*
Y418700D01*
X221800Y419500D01*
X228000D01*
X228488Y419012D01*
X228385Y418766D01*
X228382D01*
Y417766D01*
X222689D01*
Y412434D01*
X228382D01*
Y411434D01*
X228700D01*
Y409400D01*
X229800Y408300D01*
Y397000D01*
X227700Y394900D01*
X224300D01*
G37*
G36*
G01X246700Y403600D02*
X236000D01*
X235600Y404000D01*
Y409600D01*
X234900Y410300D01*
X230300D01*
X230200Y410400D01*
Y412434D01*
X234911D01*
Y417766D01*
X230200D01*
Y418600D01*
X230600Y419000D01*
X234600D01*
X236500Y417100D01*
X237050D01*
Y413680D01*
X240150D01*
Y417100D01*
X246800D01*
X248100Y415800D01*
Y405000D01*
X246700Y403600D01*
G37*
G36*
G01X284718Y6000D02*
X283718Y7000D01*
Y13000D01*
X284718Y14000D01*
X285668D01*
Y11580D01*
X288768D01*
Y14000D01*
X291168D01*
Y11580D01*
X294268D01*
Y14000D01*
X295500D01*
X296568Y12932D01*
Y9147D01*
X301868D01*
Y11884D01*
G02X302551Y12167I400J0D01*
G01X303218Y11500D01*
Y7000D01*
X302218Y6000D01*
X284718D01*
G37*
G36*
G01X296308Y34000D02*
Y34108D01*
X293110D01*
X293018Y34200D01*
Y35300D01*
X293218Y35500D01*
X295718D01*
X298618Y38400D01*
X327018D01*
X331018Y34400D01*
X343418D01*
X345318Y32500D01*
Y26800D01*
X343018Y24500D01*
X313500D01*
X311118Y26882D01*
Y31000D01*
X308118Y34000D01*
X300392D01*
G03X297045I-1674J-1184D01*
G01X296308D01*
G37*
G36*
G01X312618Y49200D02*
X292918D01*
X290218Y46500D01*
Y33500D01*
X289314Y32596D01*
X288122D01*
X287218Y33500D01*
Y44473D01*
G03Y44527I-2000J27D01*
G01Y47973D01*
G03Y48027I-2000J27D01*
G01Y57000D01*
X289718Y59500D01*
X310718D01*
X313218Y57000D01*
Y49800D01*
X312618Y49200D01*
G37*
G36*
G01X369800Y77500D02*
X313700D01*
X312100Y79100D01*
Y87300D01*
X303600Y95800D01*
X301068D01*
Y95820D01*
X295585D01*
Y96482D01*
X294700D01*
Y98287D01*
X295585D01*
Y99500D01*
X296968D01*
Y96880D01*
X300068D01*
Y99500D01*
X302618D01*
X315718Y112600D01*
Y121800D01*
X313118Y124400D01*
X309338D01*
Y127550D01*
X306618D01*
Y127700D01*
X306598Y127720D01*
Y128550D01*
X301498D01*
Y128500D01*
X299448D01*
Y129203D01*
X298448D01*
Y130220D01*
X298748D01*
Y130300D01*
X300518D01*
X303618Y133400D01*
X304468D01*
Y130380D01*
X307568D01*
Y133400D01*
X311268D01*
Y127513D01*
X318168D01*
Y133400D01*
X320318D01*
X324318Y129400D01*
Y109800D01*
X320018Y105500D01*
Y94482D01*
X320818Y93682D01*
Y81200D01*
X331818D01*
Y92900D01*
X352000D01*
X358500Y99400D01*
X377115D01*
X377282Y99233D01*
Y98356D01*
X378282D01*
Y97123D01*
X377264D01*
Y96400D01*
X374518D01*
X371418Y93300D01*
Y79118D01*
X369800Y77500D01*
G37*
G36*
G01X299200Y160000D02*
X297618Y161582D01*
Y164700D01*
X310318D01*
Y175700D01*
X297618D01*
Y177618D01*
X299300Y179300D01*
X301618D01*
X302118Y179800D01*
Y190000D01*
X300618Y191500D01*
X300068D01*
Y191620D01*
X295085D01*
Y192282D01*
X294400D01*
Y194087D01*
X295085D01*
Y194800D01*
X314700D01*
X316118Y193382D01*
Y189750D01*
X313398D01*
Y186650D01*
X316118D01*
Y174000D01*
X320518Y169600D01*
X359100D01*
X359800Y168900D01*
Y160000D01*
X299200D01*
G37*
G36*
G01X309268Y232500D02*
Y232720D01*
X304285D01*
Y233382D01*
X303600D01*
Y235187D01*
X304285D01*
Y236600D01*
X305168D01*
Y233880D01*
X308268D01*
Y236600D01*
X309300D01*
X311100Y238400D01*
Y248400D01*
X312400Y249700D01*
X372018D01*
X373700Y248018D01*
Y245000D01*
X361300Y232600D01*
X326818D01*
Y245200D01*
X315818D01*
Y232500D01*
X309268D01*
G37*
G36*
G01X284900Y296800D02*
X279800D01*
X278918Y297682D01*
Y311200D01*
X280418Y312700D01*
X286868D01*
Y309780D01*
X289968D01*
Y312700D01*
X291751D01*
Y311887D01*
X292000D01*
Y309106D01*
X291396D01*
X290890Y308600D01*
X286818D01*
X285918Y307700D01*
Y307350D01*
X282998D01*
Y304250D01*
X285918D01*
Y301850D01*
X282998D01*
Y298750D01*
X285918D01*
Y297818D01*
X284900Y296800D01*
G37*
G36*
G01X316918Y305800D02*
X314418Y308300D01*
X309511D01*
X308704Y309106D01*
X308000D01*
Y311887D01*
X308285D01*
Y312567D01*
X308318Y312600D01*
X309868D01*
Y309880D01*
X312968D01*
Y312700D01*
X314300D01*
X315300Y313700D01*
Y321500D01*
X317307Y323507D01*
X325082D01*
X325118Y323500D01*
X338740D01*
Y323489D01*
X345292D01*
Y323500D01*
X358800D01*
X360800Y321500D01*
Y312400D01*
X354200Y305800D01*
X331618D01*
Y318300D01*
X320618D01*
Y305800D01*
X316918D01*
G37*
G36*
G01X396520Y89448D02*
G02X397000Y89056I80J-392D01*
G01Y80482D01*
X394718Y78200D01*
X376718D01*
X375018Y79900D01*
Y93400D01*
X377218Y95600D01*
X378164D01*
Y87349D01*
X388534D01*
Y89416D01*
X396303D01*
G03X396520Y89448I-198J2066D01*
G37*
G36*
G01X397000Y95472D02*
X396769D01*
X396739Y95482D01*
G03X396543Y95534I-633J-1976D01*
G01X386935D01*
G02X386794Y95876I0J200D01*
G01X387018Y96100D01*
Y109600D01*
X386218Y110400D01*
X384676D01*
Y110872D01*
X396543D01*
G03X396739Y110925I-438J2028D01*
G01X396769Y110934D01*
X397000D01*
Y110298D01*
X388715D01*
Y103687D01*
X397000D01*
Y102719D01*
X388715D01*
Y96109D01*
X397000D01*
Y95472D01*
G37*
G36*
G01X396303Y116991D02*
X388534D01*
Y119058D01*
X378164D01*
Y110400D01*
X377518D01*
X376418Y111500D01*
Y126300D01*
X378218Y128100D01*
X394818D01*
X397000Y125918D01*
Y117350D01*
G02X396520Y116958I-400J0D01*
G03X396303Y116991I-415J-2033D01*
G37*
G36*
G01X393000Y233000D02*
X390500Y235500D01*
X376118D01*
Y248100D01*
X377318Y249300D01*
X378164D01*
Y240949D01*
X388534D01*
Y243016D01*
X396303D01*
G03X396520Y243048I-198J2066D01*
G02X397000Y242656I80J-392D01*
G01Y234182D01*
X395818Y233000D01*
X393000D01*
G37*
G36*
G01X397000Y249072D02*
X396769D01*
X396739Y249082D01*
G03X396543Y249134I-633J-1976D01*
G01X386918D01*
G02X386635Y249817I0J400D01*
G01X387118Y250300D01*
Y264000D01*
X386987Y264131D01*
G02X387129Y264472I141J141D01*
G01X396543D01*
G03X396739Y264525I-438J2028D01*
G01X396769Y264534D01*
X397000D01*
Y263898D01*
X388715D01*
Y257287D01*
X397000D01*
Y256319D01*
X388715D01*
Y249709D01*
X397000D01*
Y249072D01*
G37*
G36*
G01X376618Y264300D02*
X374618Y266300D01*
Y281300D01*
X375718Y282400D01*
X394418D01*
X397000Y279818D01*
Y270950D01*
G02X396520Y270558I-400J0D01*
G03X396303Y270591I-415J-2033D01*
G01X388534D01*
Y272658D01*
X378164D01*
Y264300D01*
X376618D01*
G37*
%LPC*%
G75*
G54D105*
X299218Y76811D03*
G54D103*
X78418Y289500D03*
G54D102*
X89500Y178000D03*
X94500D03*
G54D106*
X355118Y165100D03*
Y317800D03*
G54D104*
X187718Y327017D03*
%LPD*%
G75*
G54D100*
G01X291218Y357800D02*
X295974D01*
G01X301018D02*
X305774D01*
G54D101*
G01X107649Y108300D02*
X107681Y108332D01*
Y111902D01*
X107780Y112000D01*
G01X100387Y108300D02*
Y111902D01*
X100288Y112000D01*
G01X100118Y139070D02*
Y142500D01*
G01X96450Y108800D02*
Y111902D01*
X96548Y112000D01*
G01X91348Y211500D02*
X87718D01*
G01X91348Y204000D02*
X87918D01*
G01X119718Y214468D02*
Y217500D01*
G01X124218Y199000D02*
X123687Y199532D01*
X119816D01*
X119718Y199630D01*
G01X95187Y204000D02*
X95088D01*
G01X95187D02*
X98618D01*
X100318Y202300D01*
G01X99087Y210200D02*
X98718D01*
X97418Y211500D01*
X95088D01*
G01X119620Y210532D02*
X119718Y210630D01*
G01X119620Y210532D02*
X119718D01*
Y207000D01*
G01X115650Y202300D02*
X116818Y203468D01*
X119620D01*
X119718Y203370D01*
G01X119620Y210532D02*
X116818D01*
X116487Y210200D01*
G01X119718Y207000D02*
Y203370D01*
G01X191992Y214100D02*
Y204600D01*
X190087Y202694D01*
Y199698D01*
X189988Y199600D01*
G01X187448Y304200D02*
X184750D01*
X184456Y303906D01*
X179835D01*
G01X187448Y311253D02*
X184750D01*
X184737Y311265D01*
X179401D01*
G01X265639Y134480D02*
X273243D01*
X273247Y134484D01*
G01X248618Y143800D02*
X248688Y143730D01*
X254818D01*
G01X274618Y331700D02*
X271488D01*
G01X259488Y328700D02*
X262918D01*
G01X259587Y338600D02*
Y334798D01*
X259488Y334700D01*
G01X293198Y124243D02*
X286575D01*
X285618Y125200D01*
G01X293198Y142157D02*
X287275D01*
X285518Y140400D01*
G01X293198Y144716D02*
X286402D01*
X284718Y146400D01*
G01X302648Y129361D02*
X293198D01*
G01X334596Y145655D02*
X334369Y145428D01*
X331576D01*
G01X334579Y151155D02*
X334352Y150928D01*
X331576D01*
G54D10*
X20000Y20000D03*
Y462677D03*
X380000Y20000D03*
Y462677D03*
G54D11*
X39718Y25300D03*
X360000D03*
Y450000D03*
G54D20*
X121855Y58426D03*
X119887D03*
X117918D03*
X115949D03*
X113981D03*
Y55374D03*
X115949D03*
X117918D03*
X119887D03*
X121855D03*
X88509D03*
X90477D03*
X92446D03*
X94415D03*
X96383D03*
Y58426D03*
X94415D03*
X92446D03*
X90477D03*
X88509D03*
X101745Y55374D03*
X103713D03*
X105682D03*
X107651D03*
X109619D03*
Y58426D03*
X107651D03*
X105682D03*
X103713D03*
X101745D03*
X122355Y402203D03*
X120387D03*
X118418D03*
X116449D03*
X114481D03*
Y399151D03*
X116449D03*
X118418D03*
X120387D03*
X122355D03*
G54D30*
X83500Y168272D03*
G54D21*
X79418Y76800D03*
Y66800D03*
G54D12*
X47218Y84875D03*
Y315125D03*
G54D22*
X87302Y42559D03*
X89270D03*
X91239D03*
X93207D03*
X95176D03*
X97144D03*
X99113D03*
X101081D03*
X103050D03*
X105018D03*
X106987D03*
X108955D03*
X110924D03*
X112892D03*
X114861D03*
X116829D03*
X118798D03*
X120766D03*
X122735D03*
G54D31*
X82555Y111800D03*
X69681D03*
X91755Y137300D03*
X78881D03*
G54D40*
X184218Y67500D03*
G54D13*
X51368Y94475D03*
Y97625D03*
Y100775D03*
X27068D03*
Y97625D03*
Y94475D03*
Y91325D03*
X51368D03*
Y103925D03*
X27068D03*
Y107075D03*
X51368D03*
Y116525D03*
Y110225D03*
Y113375D03*
X27068Y135425D03*
Y132275D03*
Y129125D03*
Y125975D03*
Y122825D03*
Y119675D03*
X51368D03*
Y122825D03*
Y125975D03*
Y129125D03*
Y132275D03*
Y135425D03*
X27068Y116525D03*
Y113375D03*
Y110225D03*
Y151175D03*
X51368D03*
X27068Y148025D03*
Y144875D03*
Y141725D03*
Y138575D03*
X51368D03*
Y141725D03*
Y144875D03*
Y148025D03*
Y173225D03*
Y170075D03*
X27068D03*
Y173225D03*
X51368Y195275D03*
Y192125D03*
Y188975D03*
Y185825D03*
Y182675D03*
Y179525D03*
Y176375D03*
X27068D03*
Y179525D03*
Y182675D03*
Y185825D03*
Y188975D03*
Y192125D03*
Y195275D03*
X51368Y226775D03*
Y223625D03*
Y220475D03*
Y217325D03*
Y214175D03*
Y211025D03*
Y207875D03*
Y204725D03*
Y201575D03*
Y198425D03*
X27068D03*
Y201575D03*
Y204725D03*
Y207875D03*
Y211025D03*
Y214175D03*
Y217325D03*
Y220475D03*
Y223625D03*
Y226775D03*
X51368Y229925D03*
X27068D03*
Y274025D03*
Y270875D03*
Y267725D03*
Y264575D03*
Y261425D03*
Y258275D03*
Y255125D03*
Y251975D03*
Y248825D03*
Y305525D03*
Y302375D03*
Y299225D03*
Y296075D03*
Y292925D03*
Y289775D03*
Y286625D03*
Y283475D03*
Y280325D03*
Y277175D03*
Y308675D03*
X51368Y248825D03*
Y251975D03*
Y255125D03*
Y258275D03*
Y261425D03*
Y264575D03*
Y267725D03*
Y270875D03*
Y274025D03*
Y277175D03*
Y280325D03*
Y283475D03*
Y286625D03*
Y289775D03*
Y292925D03*
Y296075D03*
Y299225D03*
Y302375D03*
Y305525D03*
Y308675D03*
G54D23*
X73678Y87565D03*
X81158D03*
X77418Y96226D03*
X172278Y334165D03*
X179758D03*
X176018Y342826D03*
G54D50*
X200549Y285231D03*
X246687Y331369D03*
G54D41*
X189218Y77500D03*
X194218Y67500D03*
X199218Y77500D03*
X204218Y67500D03*
X209218Y77500D03*
X214218Y67500D03*
X219218Y77500D03*
G54D32*
X110718Y202300D03*
Y199740D03*
Y197180D03*
X103718D03*
Y199740D03*
Y202300D03*
X104218Y210200D03*
Y212760D03*
Y215320D03*
X111218D03*
Y212760D03*
Y210200D03*
G54D14*
X39218Y88000D03*
Y154500D03*
Y166750D03*
Y233250D03*
Y245500D03*
Y312000D03*
G54D51*
X201571Y293536D03*
Y295505D03*
Y297473D03*
Y299442D03*
Y301410D03*
Y303379D03*
Y305347D03*
Y307316D03*
Y309284D03*
Y311253D03*
Y313221D03*
Y315190D03*
Y317158D03*
Y319127D03*
Y321095D03*
Y323064D03*
X245665Y319127D03*
Y317158D03*
Y315190D03*
Y313221D03*
Y311253D03*
Y309284D03*
Y307316D03*
Y305347D03*
Y303379D03*
Y301410D03*
Y299442D03*
Y297473D03*
Y295505D03*
Y293536D03*
Y323064D03*
Y321095D03*
G54D42*
X171226Y54508D03*
X232210D03*
G54D24*
X94118Y119700D03*
Y122260D03*
Y124820D03*
Y127380D03*
X111618D03*
Y124820D03*
Y122260D03*
Y119700D03*
G54D33*
X75000Y178500D03*
Y184100D03*
G54D60*
X258318Y293000D03*
Y290600D03*
Y298000D03*
Y300400D03*
G54D15*
X39218Y108750D03*
Y133750D03*
Y187500D03*
Y212500D03*
Y266250D03*
Y291250D03*
G54D52*
X197818Y352234D03*
Y343966D03*
G54D16*
X39218Y88000D03*
Y166750D03*
Y154500D03*
Y133750D03*
Y108750D03*
X21000Y152500D03*
Y148500D03*
X21500Y144875D03*
X22000Y135500D03*
Y132000D03*
Y123000D03*
Y119500D03*
X56300Y141700D03*
X56550Y138450D03*
X56300Y129100D03*
X56400Y125900D03*
X9000Y175500D03*
X60000Y120900D03*
X57500Y173000D03*
X21000Y168000D03*
Y171500D03*
X17000D03*
X17532Y125480D03*
Y129620D03*
X39218Y245500D03*
X56736Y247700D03*
X39218Y233250D03*
Y212500D03*
Y187500D03*
X21500Y223500D03*
X22225Y182662D03*
X19787Y180293D03*
X60250Y209250D03*
X56350Y223850D03*
X56400Y220475D03*
X57000Y185825D03*
X56876Y176845D03*
X21500Y231000D03*
X22100Y193000D03*
X59500Y226500D03*
X56945Y211315D03*
X20500Y215000D03*
Y218500D03*
X20503Y185594D03*
X59000Y183000D03*
X39218Y266250D03*
Y291250D03*
Y312000D03*
X22218Y255250D03*
Y258400D03*
Y267850D03*
Y274150D03*
Y277300D03*
X22000Y286625D03*
Y289775D03*
Y299350D03*
X57736Y255500D03*
X57836Y251700D03*
X58218Y270875D03*
Y283475D03*
X60436Y280325D03*
X57736Y292800D03*
X57626Y296198D03*
X58218Y305525D03*
X22000Y305500D03*
X20600Y302375D03*
X59037Y274175D03*
X17500Y259500D03*
X103118Y49659D03*
X109118Y49700D03*
X114918Y50100D03*
X121018Y49659D03*
X72250Y59000D03*
X62218Y85032D03*
X85153Y87565D03*
X117918Y62200D03*
X105682Y62000D03*
X94798Y89700D03*
X98938D03*
X116917Y85299D03*
X120333D03*
X97716Y62390D03*
X84518Y51500D03*
X88218Y51600D03*
X79387Y55432D03*
X73718Y75700D03*
X73618Y80500D03*
X69318Y75800D03*
X69418Y80500D03*
X65100D03*
X100387Y108300D03*
X107649D03*
X111618Y131282D03*
X69000Y173000D03*
X99500Y155500D03*
X86700Y147800D03*
X75400Y152900D03*
X116400Y137800D03*
X124500Y153500D03*
X61000Y105500D03*
X124500Y131000D03*
X111618Y108300D03*
X73500Y166500D03*
X79000Y142500D03*
X95500Y137500D03*
X96450Y108800D03*
X83000Y153500D03*
X132500Y143000D03*
X62800Y116300D03*
X91200Y148100D03*
X119000Y131500D03*
X119718Y217500D03*
X124218Y199000D03*
X87918Y204000D03*
X87718Y211500D03*
X87818Y215100D03*
X83218Y244900D03*
X60500Y190500D03*
X69800Y204200D03*
X70500Y184000D03*
X81000Y184500D03*
X98218Y199740D03*
X128500Y195000D03*
X95187Y207500D03*
X99418Y242932D03*
X93918D03*
X66500Y195000D03*
Y199000D03*
X89500Y178000D03*
X94500D03*
Y183000D03*
X93518Y259500D03*
X93818Y263500D03*
X87018D03*
X87118Y259700D03*
X90418Y261500D03*
X114418Y289500D03*
X99500Y278300D03*
X72618Y275800D03*
X61000Y286500D03*
Y290000D03*
X61500Y299000D03*
Y302500D03*
X77418Y259900D03*
X71300Y264250D03*
X71600Y270000D03*
X122968Y292450D03*
X97718Y266900D03*
X84418Y307100D03*
X89418Y312500D03*
X84218Y312700D03*
X113500Y387500D03*
X118418Y407677D03*
Y396400D03*
X101557Y411443D03*
X120242Y411206D03*
X101557Y407151D03*
X124534Y411206D03*
X136500Y90500D03*
X142126Y59500D03*
X203700Y91000D03*
X173700D03*
X194090Y97100D03*
X198400D03*
X151000Y100500D03*
X154218Y156400D03*
X149218D03*
X144218D03*
X139218D03*
X134218D03*
X160100Y152200D03*
X156874Y114500D03*
X135000Y140000D03*
X203718Y171900D03*
X188718D03*
X134418Y173000D03*
X149418D03*
X144418D03*
X139418D03*
X173718Y171900D03*
X194036Y174900D03*
X198346D03*
X203700Y182400D03*
X188700D03*
X195961Y247900D03*
X186449D03*
X200962Y197700D03*
X190118Y196200D03*
X173700Y182400D03*
X186150Y196100D03*
X186118Y243500D03*
X179036Y177500D03*
X183346D03*
X184150Y289200D03*
X184250Y297200D03*
X175250Y293800D03*
Y300600D03*
Y307400D03*
Y315400D03*
X179835Y303906D03*
X179401Y311265D03*
X186218Y253400D03*
X200000Y371500D03*
X182087Y326700D03*
X194218Y328232D03*
X187718Y330417D03*
X176118Y354500D03*
X182918Y321100D03*
X183900Y370800D03*
X274218Y23732D03*
X266718Y16968D03*
X263550Y24000D03*
X253800Y29500D03*
X257118D03*
X260218D03*
X256436Y94500D03*
X251320Y103200D03*
X268118Y51500D03*
X254118Y51400D03*
X257618D03*
X261118D03*
X264618Y51500D03*
X250618Y55400D03*
X254118D03*
X274718Y48000D03*
X271218D03*
X267718Y48100D03*
X271200Y44100D03*
X257618Y55400D03*
X267800Y44100D03*
X268618Y102000D03*
X267850Y93200D03*
Y87700D03*
X271318Y72300D03*
X259318D03*
X253318D03*
X271318Y77300D03*
X265318D03*
X259318D03*
X253318D03*
X277318Y82300D03*
X271318D03*
X265318D03*
X259318D03*
X253318D03*
X275718Y73100D03*
X256718Y68853D03*
X264718Y70987D03*
X253300Y41000D03*
X268900Y36500D03*
X265718D03*
X262600D03*
X272100D03*
X259500Y41000D03*
X262600D03*
X265718D03*
X256400D03*
Y36500D03*
X259500D03*
X234000Y94500D03*
X218700Y91000D03*
X247250Y125700D03*
Y120100D03*
X244018Y122232D03*
X246950Y132800D03*
X267818Y170200D03*
X254818Y150768D03*
X273247Y134484D03*
X274000Y106400D03*
X245518Y151500D03*
X246518Y159500D03*
X218718Y171900D03*
X213346Y174900D03*
X209036D03*
X273000Y141000D03*
X218700Y182400D03*
X252662Y247000D03*
X233693Y247900D03*
X262174Y247000D03*
X219583Y247900D03*
X210071D03*
X243205D03*
X274518Y202868D03*
X254984Y205604D03*
X247110D03*
X239236D03*
X231362D03*
X223488D03*
X227518Y200668D03*
X276550Y224300D03*
Y229800D03*
X267350Y190200D03*
X271018Y195700D03*
X237487Y197468D03*
X237318Y193532D03*
X233887Y301900D03*
X260887Y278900D03*
X261249Y288900D03*
X260987Y284700D03*
X258318Y303778D03*
X217718Y293000D03*
X229818Y293100D03*
X239318Y306800D03*
X239618Y295700D03*
X207228Y300038D03*
X207918Y317300D03*
X252218Y311000D03*
X240318Y255100D03*
X226518Y294900D03*
X239118Y299300D03*
X239818Y312950D03*
X207718Y304400D03*
X230718Y274900D03*
X219218Y274700D03*
X239918Y319000D03*
X259418Y266500D03*
X224568Y279150D03*
X207118Y280200D03*
X210736Y280300D03*
X214989Y279471D03*
X215000Y371200D03*
X274618Y331700D03*
X225918Y347168D03*
X218697D03*
X211218Y347200D03*
X222418Y356468D03*
X214918D03*
X207418D03*
X262918Y328700D03*
X259587Y338600D03*
X225918Y321200D03*
X255500Y390500D03*
X244300Y369100D03*
X209700Y371400D03*
X224800Y371300D03*
X260000Y383000D03*
X229818Y322100D03*
X208418Y321300D03*
X223613Y324500D03*
X218718Y325200D03*
X207828Y325190D03*
X265700Y324100D03*
X257532Y418969D03*
X276468Y419032D03*
X211500Y416500D03*
X210457Y408400D03*
X245500Y393500D03*
X267200Y433700D03*
X275400D03*
X238700Y422800D03*
X258500Y413500D03*
X273000Y429500D03*
X271500Y407000D03*
X246000Y410131D03*
X272100Y415600D03*
X222500Y431500D03*
X268698Y470100D03*
X274604D03*
X309218Y13032D03*
X310518Y23500D03*
X290718Y30000D03*
X286718D03*
X287218Y22500D03*
X308552Y19658D03*
X299218Y7647D03*
X292718Y9832D03*
X335718Y26300D03*
X330218Y26200D03*
X317918Y26300D03*
X324718Y26600D03*
X298365Y28700D03*
X286518Y96500D03*
X284618Y99700D03*
X288518Y99600D03*
X284518Y93200D03*
X288518Y93100D03*
X305918Y42900D03*
X305218Y46200D03*
X300218Y46500D03*
X295518Y46200D03*
X338818Y41400D03*
X333418Y41000D03*
X342618Y45500D03*
X338018Y45700D03*
X333118Y45600D03*
X340100Y99000D03*
X331400D03*
X281718Y44500D03*
X285218D03*
X278218Y48000D03*
X285218D03*
X281718D03*
X318818Y59700D03*
X302218Y89432D03*
X292550Y44542D03*
X283318Y72300D03*
Y77300D03*
Y82300D03*
X331918Y31900D03*
X336318Y32100D03*
X346500Y175700D03*
X337600Y175600D03*
X298518Y105513D03*
X285618Y125200D03*
X284718Y146400D03*
X285518Y140400D03*
X285589Y131916D03*
X281234Y103635D03*
X321618Y138400D03*
X285018Y106144D03*
X292018Y109600D03*
X313038Y118500D03*
X322818Y104300D03*
X295318Y233400D03*
X293418Y236600D03*
X297318Y236500D03*
X293400Y229900D03*
X297118Y230200D03*
X287918Y189000D03*
X284100Y188800D03*
X288118Y195300D03*
X284218Y195400D03*
X286118Y192200D03*
X297518Y182032D03*
X318787Y184800D03*
X280018Y240100D03*
X306718Y242469D03*
Y223132D03*
X321318Y202700D03*
X287918Y241500D03*
X280729Y199108D03*
X318918Y180400D03*
X293581Y243300D03*
X287581Y206500D03*
X300618Y248300D03*
X292418Y184200D03*
X300118Y309400D03*
X298218Y312600D03*
X302118Y312500D03*
X297968Y305900D03*
X301918Y306200D03*
X346400Y258400D03*
X337218Y259100D03*
X326118Y275800D03*
X288418Y318368D03*
X311418Y299132D03*
Y318468D03*
X293018Y317600D03*
X298281Y319300D03*
X281250Y300300D03*
Y305800D03*
X329018Y253700D03*
X328918Y257173D03*
X346718Y328626D03*
X337168Y327650D03*
X305774Y357800D03*
X295974D03*
X306618Y372700D03*
X296718Y374300D03*
X289718Y387500D03*
X318017Y329199D03*
X317916Y332894D03*
X305718Y324000D03*
X310706Y412000D03*
X278437Y415500D03*
X289563Y405000D03*
X325776Y434100D03*
X318700Y432500D03*
X299350Y429050D03*
X296600Y433700D03*
X292000Y433000D03*
X286406Y434100D03*
X280500D03*
X289532Y416969D03*
X297294Y409500D03*
X308500Y419500D03*
X314500Y405000D03*
Y423500D03*
X280509Y470100D03*
X286415D03*
X292320D03*
X297100Y471700D03*
X305516Y471484D03*
X315700Y470100D03*
X329000Y470700D03*
X322900Y474700D03*
X320500Y478100D03*
X309700Y470600D03*
X383618Y82600D03*
X378618D03*
X378818Y124100D03*
X383818D03*
X375618Y108300D03*
X395500Y238500D03*
Y234500D03*
X392000Y237500D03*
X388218Y275900D03*
X378218D03*
X383218D03*
X376118Y261900D03*
G54D25*
X123165Y119800D03*
X129071D03*
X123165Y126800D03*
X129071D03*
X301765Y28700D03*
X307671D03*
G54D61*
X249468Y388256D03*
X247500D03*
X245532D03*
Y382744D03*
X247500D03*
X249468D03*
G54D70*
X326318Y87700D03*
Y59700D03*
X321318Y238700D03*
Y210700D03*
X326118Y311800D03*
Y283800D03*
G54D34*
X78418Y289500D03*
X106418D03*
X275818Y170200D03*
X303818D03*
G54D43*
X179218Y42500D03*
X224218D03*
G54D53*
X200457Y386156D03*
Y401510D03*
X225457Y386156D03*
X220457D03*
X215457D03*
X210457D03*
X205457D03*
X225457Y401510D03*
X220457D03*
X215457D03*
X210457D03*
X205457D03*
G54D17*
X12643Y175375D03*
X16384D03*
X12643Y217275D03*
X16384D03*
X12643Y193275D03*
X16384D03*
X12643Y199075D03*
X16384D03*
X12643Y204875D03*
X16384D03*
X12643Y210575D03*
X16384D03*
X12643Y181475D03*
X16384D03*
Y187475D03*
X12643D03*
X18289Y263053D03*
X14548D03*
X75548Y59000D03*
X79288D03*
X127118Y74130D03*
Y77870D03*
X110618Y74130D03*
Y77870D03*
X105118Y74130D03*
Y77870D03*
X121618Y74130D03*
Y77870D03*
X116118Y74130D03*
Y77870D03*
X99618Y74130D03*
Y77870D03*
X94118Y74130D03*
Y77870D03*
X66118Y85130D03*
Y88870D03*
Y97870D03*
Y94130D03*
X65320Y172900D03*
X61580D03*
X100288Y112000D03*
X96548D03*
X111520D03*
X107780D03*
X100118Y135330D03*
Y139070D03*
X79248Y120800D03*
X82988D03*
X78370Y126500D03*
X74630D03*
X60500Y194330D03*
Y198070D03*
X64320Y204725D03*
X60580D03*
X95088Y204000D03*
X91348D03*
X119718Y214370D03*
Y210630D03*
X95088Y211500D03*
X91348D03*
X119718Y199630D03*
Y203370D03*
X123289Y193829D03*
X119548D03*
X93918Y246230D03*
X99418D03*
X109648Y190000D03*
X113388D03*
X91348Y197000D03*
X95088D03*
X111088Y222000D03*
X107348D03*
X91348Y218000D03*
X95088D03*
X60580Y212950D03*
X64320D03*
X60580Y218550D03*
X64320D03*
X76448Y275800D03*
X80188D03*
X124318Y298030D03*
Y301770D03*
X118518Y298130D03*
Y301870D03*
X83848Y249700D03*
X87588D03*
X80418Y266370D03*
Y262630D03*
X93918Y249970D03*
X99418D03*
X94918Y276870D03*
Y273130D03*
X62912Y264250D03*
X66652D03*
X62912Y270050D03*
X66652D03*
X132618Y74130D03*
Y77870D03*
X157870Y100500D03*
X154130D03*
X173718Y94230D03*
Y97970D03*
X188718Y94230D03*
Y97970D03*
X203718Y94230D03*
Y97970D03*
X146118Y163030D03*
Y166770D03*
X152618Y163030D03*
Y166770D03*
X188718Y175330D03*
X203718D03*
X173718D03*
X140870Y111500D03*
X137130D03*
X188718Y179070D03*
X203718D03*
X173718D03*
X189988Y199600D03*
X186248D03*
X185018Y271370D03*
Y267630D03*
X196318Y271470D03*
Y267730D03*
X202218Y261970D03*
Y258230D03*
X196318Y261970D03*
Y258230D03*
X179018Y262070D03*
Y258330D03*
X184892Y262070D03*
Y258330D03*
X190718Y261970D03*
Y258230D03*
X187448Y311253D03*
X191188D03*
X178548Y307400D03*
X182288D03*
X202218Y267730D03*
Y271470D03*
X179018Y267630D03*
Y271370D03*
X190718Y267730D03*
Y271470D03*
X187448Y304200D03*
X191188D03*
X187448Y289200D03*
X191188D03*
X178548Y293800D03*
X182288D03*
X187548Y297473D03*
X191288D03*
X178548Y300600D03*
X182288D03*
X178548Y315400D03*
X182288D03*
X194218Y324934D03*
Y321194D03*
X190269Y363130D03*
Y366870D03*
X183769Y363130D03*
Y366870D03*
X197130Y363000D03*
X200870D03*
X196200Y373370D03*
Y369630D03*
X175888Y350100D03*
X172148D03*
X165918Y338870D03*
Y335130D03*
X178788Y326700D03*
X175048D03*
X270588Y24000D03*
X266848D03*
Y29500D03*
X270588D03*
X270718Y16870D03*
Y13130D03*
X276218D03*
Y16870D03*
X274018Y102770D03*
Y99030D03*
X218718Y94230D03*
Y97970D03*
X274888Y93200D03*
X271148D03*
X274888Y87700D03*
X271148D03*
X218718Y175330D03*
X254818Y147470D03*
Y143730D03*
X250548Y120100D03*
X254288D03*
X250248Y138400D03*
X253988D03*
X250948Y155500D03*
X254688D03*
X250548Y125700D03*
X254288D03*
X250248Y132800D03*
X253988D03*
X244018Y125530D03*
Y129270D03*
X218718Y179070D03*
X274518Y199570D03*
Y195830D03*
X233018Y193630D03*
Y197370D03*
X227518D03*
Y193630D03*
X217388Y198500D03*
X213648D03*
X217388Y193000D03*
X213648D03*
X274388Y184700D03*
X270648D03*
X274388Y190200D03*
X270648D03*
X224918Y271570D03*
Y267830D03*
X213518Y271470D03*
Y267730D03*
X208118Y271470D03*
Y267730D03*
X241937Y271720D03*
Y267980D03*
X236437Y271720D03*
Y267980D03*
X253848Y278900D03*
X257588D03*
X257488Y284700D03*
X253748D03*
X224918Y261970D03*
Y258230D03*
X213518Y261970D03*
Y258230D03*
X208118Y261970D03*
Y258230D03*
X259918Y257630D03*
Y261370D03*
X252918Y258230D03*
Y261970D03*
X247418Y258230D03*
Y261970D03*
X236418Y258230D03*
Y261970D03*
X230718Y258230D03*
Y261970D03*
X255748Y316900D03*
X259488D03*
X255748Y311121D03*
X259488D03*
X219218Y267830D03*
Y271570D03*
Y261970D03*
Y258230D03*
X241918Y261970D03*
Y258230D03*
X230718Y267930D03*
Y271670D03*
X255500Y386870D03*
Y383130D03*
X244300Y372530D03*
Y376270D03*
X251000Y372630D03*
Y376370D03*
X239500Y391870D03*
Y388130D03*
X215462Y363000D03*
X219202D03*
X228800Y373070D03*
Y369330D03*
X228370Y363000D03*
X224630D03*
X209870D03*
X206130D03*
X255748Y322800D03*
X259488D03*
X218697Y343870D03*
Y340130D03*
X229918Y349430D03*
Y353170D03*
X233018Y340130D03*
Y343870D03*
X237418Y349430D03*
Y353170D03*
X240118Y340130D03*
Y343870D03*
X214918Y353170D03*
Y349430D03*
X211718Y343870D03*
Y340130D03*
X207418Y353170D03*
Y349430D03*
X259488Y328700D03*
X255748D03*
X271488Y331700D03*
X267748D03*
X259488Y334700D03*
X255748D03*
X225918Y343870D03*
Y340130D03*
X222418Y353170D03*
Y349430D03*
X260630Y419000D03*
X264370D03*
X273370D03*
X269630D03*
X238600Y415230D03*
Y418970D03*
X274630Y412500D03*
Y407000D03*
X253130Y409500D03*
X256870D03*
X208744Y424130D03*
Y427870D03*
X221744Y424130D03*
Y427870D03*
X215457Y424130D03*
Y427870D03*
X277918Y23830D03*
Y27570D03*
X292718Y13130D03*
Y16870D03*
X305718D03*
Y13130D03*
X287218Y16870D03*
Y13130D03*
X305588Y22500D03*
X301848D03*
X281718Y16870D03*
Y13130D03*
X298518Y102170D03*
Y98430D03*
Y89530D03*
Y93270D03*
X306018Y135670D03*
Y131930D03*
X291920Y106100D03*
X288180D03*
X327836Y145428D03*
X331576D03*
X327836Y150928D03*
X331576D03*
X303999Y114877D03*
X307739D03*
X304018Y120403D03*
X307758D03*
X304048Y126000D03*
X307788D03*
X318688Y188200D03*
X314948D03*
X306718Y239170D03*
Y235430D03*
X283718Y239070D03*
Y235330D03*
X306718Y226430D03*
Y230170D03*
X291420Y202200D03*
X287680D03*
X283588Y229800D03*
X279848D03*
X283588Y224300D03*
X279848D03*
X323846Y176227D03*
X327586D03*
X323846Y181827D03*
X327586D03*
X300620Y243300D03*
X296880D03*
X297518Y185330D03*
Y189070D03*
X311418Y315170D03*
Y311430D03*
X288418Y315070D03*
Y311330D03*
X288288Y305800D03*
X284548D03*
X288288Y300300D03*
X284548D03*
X311418Y302430D03*
Y306170D03*
X305320Y319300D03*
X301580D03*
X322146Y334000D03*
X325886D03*
X322146Y328500D03*
X325886D03*
X318370Y408500D03*
X314630D03*
X289630Y408000D03*
X293370D03*
X278370Y412500D03*
Y407000D03*
X318370Y420000D03*
X314630D03*
X289630Y414000D03*
X293370D03*
X301342Y419500D03*
X305083D03*
X318370Y414500D03*
X314630D03*
G54D62*
X263244Y413468D03*
Y411500D03*
Y409532D03*
X268756D03*
Y411500D03*
Y413468D03*
X306756Y410031D03*
Y412000D03*
Y413968D03*
X301244D03*
Y412000D03*
Y410031D03*
G54D26*
X119500Y149750D03*
X116950D03*
X122050D03*
Y142250D03*
X119500D03*
X116950D03*
G54D44*
X157874Y89819D03*
Y67181D03*
X142126Y89819D03*
Y67181D03*
X141126Y122181D03*
Y144819D03*
X156874Y122181D03*
Y144819D03*
G54D71*
X288618Y35001D03*
G54D80*
X382227Y98085D03*
Y100644D03*
Y108321D03*
Y105762D03*
Y103203D03*
Y261921D03*
Y259362D03*
Y251685D03*
Y254244D03*
Y256803D03*
G54D35*
X90418Y261500D03*
G54D90*
G01X59500Y226500D02*
X58300Y227700D01*
X55755D01*
X54830Y226775D01*
X51368D01*
G01X59500Y230000D02*
Y229800D01*
X58700Y229000D01*
X55755D01*
X54830Y229925D01*
X51368D01*
G01X59000Y179500D02*
X58050Y180450D01*
X55755D01*
X54830Y179525D01*
X51368D01*
G01X20503Y185594D02*
X21660Y186750D01*
X22681D01*
X23606Y185825D01*
X27068D01*
G01X20500Y188994D02*
X21444Y188050D01*
X22681D01*
X23606Y188975D01*
X27068D01*
G01X59000Y183000D02*
Y182750D01*
X58000Y181750D01*
X55755D01*
X54830Y182675D01*
X51368D01*
G01X19500Y248500D02*
X20750Y249750D01*
X22681D01*
X23606Y248825D01*
X27068D01*
G01X19500Y252500D02*
X20950Y251050D01*
X22681D01*
X23606Y251975D01*
X27068D01*
G01X119568Y292450D02*
X120612Y293494D01*
Y296036D01*
X118518Y298130D01*
G01X122402Y391496D02*
Y390088D01*
X122068Y389753D01*
Y304118D01*
X124318Y301868D01*
Y301770D01*
G01X120434Y391496D02*
Y390088D01*
X120768Y389753D01*
Y302508D01*
X120130Y301870D01*
X118518D01*
G01X122968Y292450D02*
X121912Y293506D01*
Y295624D01*
X124318Y298030D01*
G01X114434Y391496D02*
Y390088D01*
X114768Y389753D01*
Y388040D01*
X114228Y387500D01*
X113500D01*
G01X116402Y391496D02*
Y390088D01*
X116068Y389753D01*
Y388040D01*
X116608Y387500D01*
X117000D01*
G01X116402Y393858D02*
Y394193D01*
X116118Y394477D01*
Y397977D01*
X116449Y398308D01*
Y399151D01*
G01Y402203D02*
Y399151D01*
G01X120434Y393858D02*
X120718Y394142D01*
Y397977D01*
X120387Y398308D01*
Y399151D01*
G01Y402203D02*
Y399151D01*
G01X114434Y393858D02*
X114818Y394242D01*
Y397977D01*
X114481Y398314D01*
Y399151D01*
G01Y402203D02*
Y399151D01*
G01X122355Y402203D02*
Y399151D01*
G01X122402Y393858D02*
X122018Y394242D01*
Y397977D01*
X122355Y398314D01*
Y399151D01*
G01X245665Y313221D02*
X249633D01*
X249911Y313500D01*
X253369D01*
X255748Y311121D01*
G01X259488D02*
Y312662D01*
X260127Y313300D01*
X263478D01*
X264018Y312760D01*
Y312147D01*
G01X259488Y316900D02*
Y315331D01*
X260219Y314600D01*
X263386D01*
X264018Y315232D01*
Y316152D01*
G01X245665Y315190D02*
X249632D01*
X250022Y314800D01*
X253648D01*
X255748Y316900D01*
G01X382227Y100644D02*
X378374D01*
X377715Y101303D01*
X339346D01*
X339012Y100969D01*
X337244D01*
G01X334192D02*
X334423Y101200D01*
X337013D01*
X337244Y100969D01*
G01X328799Y100916D02*
X329134Y101250D01*
X333750D01*
X334031Y100969D01*
X334192D01*
G01X326437Y100916D02*
X325953Y101400D01*
X323818D01*
X323318Y100900D01*
X322818D01*
G01X293198Y119125D02*
X293723Y118600D01*
X302215D01*
X304018Y120403D01*
G01X293198Y116566D02*
X293832Y117200D01*
X297645D01*
X297745Y117300D01*
X301576D01*
X303999Y114877D01*
G01X382227Y103203D02*
X378221D01*
X377621Y102603D01*
X339346D01*
X339012Y102937D01*
X337244D01*
G01X334192D02*
X334629Y102500D01*
X336807D01*
X337244Y102937D01*
G01X328799Y102884D02*
X329134Y102550D01*
X333300D01*
X333687Y102937D01*
X334192D01*
G01X313038Y118500D02*
X309661D01*
X307758Y120403D01*
G01X307739Y114877D02*
Y116439D01*
X308500Y117200D01*
X311411D01*
X313038Y115565D01*
Y115100D01*
G01X326437Y102884D02*
X326253Y102700D01*
X324246D01*
X323118Y103828D01*
Y104000D01*
X322818Y104300D01*
G01X323846Y176227D02*
Y176354D01*
X322000Y178200D01*
X319458D01*
X318918Y177660D01*
Y176100D01*
G01X323846Y181827D02*
X321519Y179500D01*
X320218D01*
X319318Y180400D01*
X318918D01*
G01X340490Y177896D02*
X340794Y178200D01*
X343237D01*
X343542Y177896D01*
G01X335797Y177926D02*
X336101Y178230D01*
X340156D01*
X340490Y177896D01*
G01X343542Y179864D02*
X343408Y179730D01*
X343354D01*
X343124Y179500D01*
X340853D01*
X340490Y179864D01*
G01X335797Y179894D02*
X336161Y179530D01*
X340156D01*
X340490Y179864D01*
G01X333435Y179894D02*
X333040Y179500D01*
X329912D01*
X327586Y181827D01*
G01X333435Y177926D02*
X333160Y178200D01*
X329559D01*
X327586Y176227D01*
G01X382227Y254244D02*
X378170D01*
X377617Y254797D01*
X345644D01*
X345310Y254463D01*
X343542D01*
G01D02*
X340490D01*
G01X336397Y254516D02*
X336678Y254797D01*
X339416D01*
X339750Y254463D01*
X340490D01*
G01X334035Y254516D02*
X333750Y254800D01*
X330118D01*
X329018Y253700D01*
G01X334035Y256484D02*
X333650Y256100D01*
X329991D01*
X328918Y257173D01*
G01X382227Y256803D02*
X378170D01*
X377464Y256097D01*
X345644D01*
X345310Y256431D01*
X343542D01*
G01D02*
X340490D01*
G01X336397Y256484D02*
X336784Y256097D01*
X339384D01*
X339444Y256157D01*
X339473D01*
X339747Y256431D01*
X340490D01*
G01X318017Y329199D02*
Y329801D01*
X318916Y330700D01*
X319946D01*
X322146Y328500D01*
G01X317916Y332894D02*
Y332673D01*
X318589Y332000D01*
X320146D01*
X322146Y334000D01*
G01X334297Y332411D02*
X334505D01*
X334816Y332100D01*
X340026D01*
X340490Y332564D01*
G01X343542D02*
X340490D01*
G01X334297Y330442D02*
X334655Y330800D01*
X340156D01*
X340361Y330596D01*
X340490D01*
G01X343542D02*
X340490D01*
G01X331935Y330442D02*
X331677Y330700D01*
X328086D01*
X325886Y328500D01*
G01X331935Y332411D02*
X331711D01*
X331300Y332000D01*
X327886D01*
X325886Y334000D01*
G54D81*
X394136Y99414D03*
Y106993D03*
Y260593D03*
Y253014D03*
G54D63*
X225453Y415100D03*
X232147D03*
G54D36*
X86480Y255706D03*
X88449D03*
X90418D03*
X92387D03*
X94356D03*
Y267294D03*
X92387D03*
X90418D03*
X88449D03*
X86480D03*
G54D27*
X93000Y155500D03*
X96500D03*
X85500D03*
X89000D03*
X80000Y156000D03*
X76500D03*
X89000Y151000D03*
X85500D03*
X130500Y135500D03*
X127000D03*
X119500Y160500D03*
Y157000D03*
X128000Y145500D03*
Y142000D03*
X123000Y135500D03*
X119500D03*
X96500Y151000D03*
X93000D03*
X81000Y177500D03*
Y181000D03*
G54D18*
G01X111618Y112000D02*
Y108300D01*
G01X95187Y207500D02*
X95087Y207400D01*
X86700D01*
X83718Y210382D01*
Y222400D01*
X88918Y227600D01*
X99418D01*
X156118Y284300D01*
Y345118D01*
X161100Y350100D01*
X172148D01*
G01X95187Y207500D02*
Y204000D01*
G01Y207500D02*
X95088Y207598D01*
Y211500D01*
G01X321318Y238700D02*
Y246700D01*
G01X371118Y247100D02*
X375703Y251685D01*
X376818D01*
X56500Y151000D03*
X57500Y169500D03*
X17000Y168000D03*
X21000Y175375D03*
X17532Y142220D03*
Y138080D03*
X21500Y109500D03*
X60100Y124700D03*
X19000Y116500D03*
X8000Y219000D03*
X59500Y230000D03*
X56500Y204725D03*
X9200Y193300D03*
X8500Y187500D03*
X9200Y181500D03*
Y199100D03*
Y210600D03*
Y204900D03*
X59000Y179500D03*
X20500Y188994D03*
X14500Y267000D03*
X19500Y279900D03*
Y283900D03*
Y292500D03*
Y296500D03*
X56675Y277175D03*
X18500Y313500D03*
X19500Y248500D03*
Y252500D03*
X60000Y258275D03*
X90118Y62100D03*
X104600Y85000D03*
X109034Y85200D03*
X127917Y85299D03*
X132800Y85300D03*
X94318Y62500D03*
X83318Y59000D03*
X65118Y75900D03*
X94868Y69650D03*
X99008D03*
X105918Y69700D03*
X110058D03*
X116918D03*
X121058D03*
X127918D03*
X132058D03*
X66000Y102500D03*
X84518Y99000D03*
X129218Y156400D03*
X84000Y105000D03*
X119168Y120750D03*
X119518Y126300D03*
X122500Y160500D03*
X128000Y149000D03*
X100118Y142500D03*
X79500Y107000D03*
X73500Y170000D03*
X129418Y173000D03*
X62204Y148520D03*
Y135920D03*
Y144380D03*
Y131780D03*
X119718Y207000D03*
X87718Y245200D03*
X79950Y214500D03*
X68200Y213000D03*
X87618Y218500D03*
X67600D03*
X130000Y236000D03*
X99500Y213500D03*
X89500Y183000D03*
X60500Y312000D03*
X119568Y292450D03*
X77518Y269200D03*
X78518Y306800D03*
X89818Y307100D03*
X78418Y312500D03*
X117000Y387500D03*
X188700Y91000D03*
X134000Y120000D03*
X154418Y173000D03*
X137500Y107000D03*
X137000Y196500D03*
X199150Y255162D03*
X195318Y313900D03*
X195118Y306700D03*
X202200Y275200D03*
X174400Y271400D03*
X190700Y275500D03*
X191264Y254736D03*
X175418Y262000D03*
X199018Y264700D03*
X205018Y264500D03*
X185018Y274400D03*
X190200Y370900D03*
X193700Y363000D03*
X196000Y376800D03*
X200500Y409000D03*
X263550Y29500D03*
X274218D03*
X276218Y20000D03*
X250618Y51400D03*
X267118Y98500D03*
X277318Y77300D03*
X253000Y36300D03*
X224036Y174900D03*
X228346D03*
X248618Y143800D03*
X270550Y180800D03*
X221618Y192800D03*
X229618Y298100D03*
X219218Y255200D03*
X264018Y312147D03*
Y316152D03*
X238318Y303500D03*
X207768Y313850D03*
X223218Y293000D03*
X214039Y254800D03*
X228950Y278104D03*
X234500Y280500D03*
X233518Y264700D03*
X248382Y271471D03*
X236500Y275500D03*
X242018Y274900D03*
X251000Y369000D03*
X272700Y343900D03*
X230018Y357500D03*
X242718Y351500D03*
X233318Y347200D03*
X214818Y324800D03*
X233518Y322800D03*
X235400Y372900D03*
X214000Y367200D03*
X209900Y366500D03*
X264500Y423500D03*
X208900Y431600D03*
X266500Y428500D03*
X246000Y405132D03*
X250700Y397300D03*
X246000Y415131D03*
X232800Y406000D03*
X287218Y9832D03*
X341918Y26300D03*
X343518Y41500D03*
X294600Y89800D03*
X342118Y32100D03*
X298718Y32816D03*
X304618Y53300D03*
X322818Y100900D03*
X313038Y115100D03*
X334596Y145655D03*
X334579Y151155D03*
X285000Y120500D03*
X318918Y176100D03*
X279218Y235200D03*
X301018Y225400D03*
X294818Y202200D03*
X321318Y246700D03*
X283918Y311200D03*
X306918Y302200D03*
X296718Y345800D03*
X307418Y351000D03*
X293056Y345800D03*
X304300Y347900D03*
X304200Y364700D03*
X299624Y364995D03*
X282300Y364900D03*
X291100Y365000D03*
X295400Y364800D03*
X321468Y408532D03*
X322000Y420000D03*
X322400Y430500D03*
X310032Y426800D03*
X306095Y431300D03*
X281668Y407000D03*
X298000Y419500D03*
X319000Y474000D03*
X326300Y473900D03*
X320700Y470200D03*
X312569Y473100D03*
X388618Y82600D03*
X388818Y124100D03*
G54D45*
X138468Y167853D03*
Y161947D03*
X205118Y343853D03*
Y337947D03*
X187718Y321111D03*
Y327017D03*
X256718Y65453D03*
Y59547D03*
X276918Y37008D03*
Y42914D03*
X299218Y11047D03*
Y16953D03*
X300002Y37008D03*
Y42914D03*
G54D72*
X288618Y38032D03*
G54D54*
X275718Y66602D03*
Y54398D03*
G54D91*
G01X51368Y116525D02*
X62575D01*
X62800Y116300D01*
G01X21500Y109500D02*
X22225Y110225D01*
X27068D01*
G01X60100Y124700D02*
X58225Y122825D01*
X51368D01*
G01X19000Y116500D02*
X19025Y116525D01*
X27068D01*
G01X9200Y193300D02*
X9225Y193275D01*
X12643D01*
G01X60580Y212950D02*
X58550D01*
X57325Y214175D01*
X51368D01*
G01X60580Y218550D02*
X58550D01*
X57325Y217325D01*
X51368D01*
G01X16384Y187475D02*
Y181475D01*
G01Y187475D02*
Y188884D01*
X19000Y191500D01*
Y193300D01*
X20975Y195275D01*
X27068D01*
G01X9200Y181500D02*
X9225Y181475D01*
X12643D01*
G01X9200Y199100D02*
X9225Y199075D01*
X12643D01*
G01X9200Y210600D02*
X9225Y210575D01*
X12643D01*
G01X9200Y204900D02*
X9225Y204875D01*
X12643D01*
G01X16384Y210575D02*
X20425D01*
X23125Y207875D01*
X27068D01*
G01Y204725D02*
X20975D01*
X20825Y204875D01*
X16384D01*
G01Y193275D02*
X21534Y198425D01*
X27068D01*
G01Y201575D02*
X18884D01*
X16384Y199075D01*
G01X59037Y274175D02*
X58888Y274025D01*
X51368D01*
G01Y277175D02*
X56675D01*
G01X62912Y270050D02*
X60550D01*
X58225Y267725D01*
X51368D01*
G01X62912Y264250D02*
X60325D01*
X60000Y264575D01*
X51368D01*
G01X97716Y62390D02*
X97208D01*
X96383Y61565D01*
Y59300D01*
G01X94318Y62500D02*
X93918D01*
Y62300D01*
X94415Y61803D01*
Y59300D01*
G01X66118Y97870D02*
Y102382D01*
X66000Y102500D01*
G01X66118Y94130D02*
Y88870D01*
G01D02*
X68492D01*
X69816Y87546D01*
X73659D01*
X73678Y87565D01*
G01X82988Y120800D02*
Y118512D01*
X86000Y115500D01*
Y107000D01*
X84000Y105000D01*
G01X82988Y120800D02*
X84500D01*
X85960Y122260D01*
X94118D01*
G01X74500Y126500D02*
X77500Y123500D01*
X82000D01*
X83320Y124820D01*
X94118D01*
G01X74500Y126500D02*
X72000D01*
X65800Y120300D01*
Y110300D01*
X61000Y105500D01*
G01X74630Y126500D02*
X74500D01*
G01X134000Y120000D02*
X133800Y119800D01*
X129071D01*
G01Y126800D02*
Y130450D01*
X128521Y131000D01*
X124500D01*
G01X111618Y122260D02*
X117658D01*
X119168Y120750D01*
G01D02*
X120118Y119800D01*
X123165D01*
G01X111618Y124820D02*
X118138D01*
X119518Y126200D01*
Y126300D01*
G01D02*
X120018Y126800D01*
X123165D01*
G01X100118Y135330D02*
Y128580D01*
X98918Y127380D01*
X94118D01*
G01X78370Y126500D02*
Y131789D01*
X78881Y132300D01*
Y137300D01*
G01X79248Y120800D02*
X74118D01*
X69681Y116363D01*
Y111800D01*
G01X128000Y142000D02*
X127750Y142250D01*
X122050D01*
G01X128000Y142000D02*
X131500D01*
X132500Y143000D01*
G01X93000Y151000D02*
Y149500D01*
X91600Y148100D01*
X91200D01*
G01X89000Y155500D02*
Y151000D01*
G01X93000Y155500D02*
X89000D01*
G01D02*
Y158800D01*
X87339Y160461D01*
Y160988D01*
G01X91200Y148100D02*
X91100Y148000D01*
X89550D01*
X89000Y148550D01*
Y151000D01*
G01X119500Y142250D02*
Y135500D01*
G01X119000Y131500D02*
X121500D01*
X123000Y133000D01*
Y135500D01*
G01X127000D02*
X123000D01*
G01X119500Y149750D02*
X116950D01*
G01X119500Y157000D02*
Y149750D01*
G01X79950Y214500D02*
Y204450D01*
X87400Y197000D01*
X91348D01*
G01X68200Y213000D02*
X68150Y212950D01*
X64320D01*
G01X87618Y218500D02*
X88118Y218000D01*
X91348D01*
G01X67600Y218500D02*
X67550Y218550D01*
X64320D01*
G01X130000Y236000D02*
X118500D01*
X107348Y224848D01*
Y222000D01*
G01X137000Y196500D02*
X130500Y190000D01*
X113388D01*
G01X99500Y213500D02*
Y213310D01*
X100050Y212760D01*
X104218D01*
G01X95088Y218000D02*
X98718D01*
X101398Y215320D01*
X104218D01*
G01X111088Y222000D02*
Y219498D01*
X111218Y219368D01*
Y215320D01*
G01X95088Y197000D02*
X98918D01*
X99098Y197180D01*
X103718D01*
G01X110718D02*
Y194718D01*
X109550Y193550D01*
Y190098D01*
X109648Y190000D01*
G01X119548Y193829D02*
X116171D01*
X114500Y195500D01*
Y199000D01*
X113760Y199740D01*
X110718D01*
G01X66652Y264250D02*
X71300D01*
G01X66652Y270050D02*
X71550D01*
X71600Y270000D01*
G01X80418Y266370D02*
X80348D01*
X77518Y269200D01*
G01X94356Y267294D02*
X97324D01*
X97718Y266900D01*
G01X86480Y267294D02*
X83843D01*
X82920Y266370D01*
X80418D01*
G01X92387Y267294D02*
Y269600D01*
X93594Y270807D01*
Y271806D01*
X94918Y273130D01*
G01X93918Y249970D02*
Y251782D01*
X92387Y253313D01*
Y255706D01*
G01X94356Y255706D02*
Y253544D01*
X96506Y251394D01*
X97995D01*
X99418Y249970D01*
G01X154130Y100500D02*
X151000D01*
G01X157874Y67181D02*
Y89819D01*
G01X157870Y100500D02*
Y96898D01*
X157968Y96800D01*
Y89913D01*
X157874Y89819D01*
G01X137130Y111500D02*
Y107370D01*
X137500Y107000D01*
G01X140870Y111500D02*
Y114870D01*
X141126Y115126D01*
Y122181D01*
G01Y144819D02*
Y122181D01*
G01X202218Y258230D02*
X199150Y255162D01*
G01X208118Y258230D02*
X202218D01*
G01X199150Y255162D02*
X198188Y254200D01*
X194818D01*
X193567Y252949D01*
Y250420D01*
G01X195318Y313900D02*
X196018Y313200D01*
X196818D01*
X196839Y313221D01*
X201571D01*
G01X191188Y311253D02*
X201571D01*
G01X182288Y307400D02*
X192118D01*
X194002Y309284D01*
X201571D01*
G01X195118Y306700D02*
X195734Y307316D01*
X201571D01*
G01X191188Y304200D02*
X196000D01*
X197147Y305347D01*
X201571D01*
G01X182288Y315400D02*
X184387D01*
X186145Y317158D01*
X201571D01*
G01X202200Y275200D02*
X202218Y275182D01*
Y271470D01*
G01X174400Y271400D02*
X174430Y271370D01*
X179018D01*
G01X190700Y275500D02*
X190718Y275482D01*
Y271470D01*
G01X182288Y300600D02*
X193118D01*
X194276Y299442D01*
X201571D01*
G01X191288Y297473D02*
X201571D01*
G01X182288Y293800D02*
X193218D01*
X194923Y295505D01*
X201571D01*
G01X191188Y289200D02*
X192588Y290600D01*
X194300D01*
X197236Y293536D01*
X201571D01*
G01X184892Y258330D02*
Y256408D01*
X185600Y255700D01*
X187600D01*
X188700Y254600D01*
Y253500D01*
X190417Y251783D01*
Y250420D01*
G01X179018Y258330D02*
X184892D01*
G01X207768Y313850D02*
X206428Y315190D01*
X201571D01*
G01X190718Y258230D02*
X196318D01*
G01X190718D02*
Y255282D01*
X191264Y254736D01*
G01D02*
X191992Y254008D01*
Y250420D01*
G01X190718Y261970D02*
Y267730D01*
G01X196318D02*
X190718D01*
G01X184892Y262070D02*
Y267504D01*
X185018Y267630D01*
G01X179018D02*
X185018D01*
G01X202218Y267730D02*
X208118D01*
G01X175418Y262000D02*
X175587Y262168D01*
X178920D01*
X179018Y262070D01*
G01X196318Y261970D02*
Y262000D01*
X199018Y264700D01*
G01X205018Y264500D02*
X204748D01*
X202218Y261970D01*
G01X196318Y271470D02*
Y274600D01*
X199418Y277700D01*
X211070D01*
X212811Y279441D01*
Y281660D01*
X212791Y281680D01*
Y286253D01*
G01X185018Y271370D02*
Y274400D01*
G01X201571Y323064D02*
X205702D01*
X207828Y325190D01*
G01X183769Y366870D02*
Y370669D01*
X183900Y370800D01*
G01X190269Y366870D02*
Y370831D01*
X190200Y370900D01*
G01X183769Y363130D02*
X183868Y363032D01*
X190171D01*
X190269Y363130D01*
G01X197130Y363000D02*
X193700D01*
G01D02*
X190399D01*
X190269Y363130D01*
G01X196200Y369630D02*
X198730Y367100D01*
X203200D01*
X203882Y367782D01*
Y368980D01*
G01X200870Y363000D02*
X205457Y367586D01*
Y368980D01*
G01X196200Y373370D02*
Y376600D01*
X196000Y376800D01*
G01X270718Y13130D02*
X276218D01*
G01X270588Y24000D02*
Y29500D01*
G01D02*
Y31288D01*
X272116Y32816D01*
X283106D01*
G01X274218Y29500D02*
X275565Y30847D01*
X283106D01*
G01X280824Y92462D02*
X279662D01*
X278500Y91300D01*
Y89100D01*
X277100Y87700D01*
X274888D01*
G01X280824Y94431D02*
X278731D01*
X277500Y93200D01*
X274888D01*
G01X253988Y132800D02*
X255461D01*
X259700Y137039D01*
X265639D01*
G01X254288Y125700D02*
X256387D01*
X257489Y126802D01*
X265639D01*
G01Y129361D02*
X260089D01*
X260082Y129368D01*
X244116D01*
X244018Y129270D01*
G01X254288Y120100D02*
X256000D01*
X260143Y124243D01*
X265639D01*
G01X254688Y155500D02*
X257400D01*
X259059Y153841D01*
Y152359D01*
X261584Y149834D01*
X265639D01*
G01X250248Y138400D02*
X247600D01*
X245518Y140482D01*
Y151500D01*
G01X250948Y155500D02*
X247500D01*
X246518Y156482D01*
Y159500D01*
G01X253988Y138400D02*
X256087D01*
X257284Y139598D01*
X265639D01*
G01X277669Y190231D02*
X274419D01*
X274388Y190200D01*
G01X278100Y186600D02*
Y185600D01*
X277200Y184700D01*
X274487D01*
G01D02*
X274388D01*
G01X217388Y193000D02*
X219462D01*
X219662Y192800D01*
X221618D01*
G01X208080Y195180D02*
X210328D01*
X213648Y198500D01*
G01Y193000D02*
X210600D01*
X210100Y192500D01*
X207426D01*
X206506Y193421D01*
Y195180D01*
G01X229618Y298100D02*
X232218Y295500D01*
Y292013D01*
X230508Y290302D01*
Y286253D01*
G01X219218Y258230D02*
Y255200D01*
G01X241918Y258230D02*
Y256700D01*
X240318Y255100D01*
G01X258318Y298000D02*
X260918Y295400D01*
X267618D01*
X268618Y296400D01*
Y301674D01*
X268318Y301974D01*
G01X258318Y298000D02*
X255618D01*
X253818Y299800D01*
Y305600D01*
X250134Y309284D01*
X245665D01*
G01X258318Y293000D02*
X256618D01*
X252468Y297150D01*
Y305041D01*
X250193Y307316D01*
X245665D01*
G01X258318Y293000D02*
X266896D01*
X268318Y291578D01*
Y286226D01*
G01X224918Y258230D02*
Y255900D01*
X221875Y252856D01*
X216267D01*
X215614Y252204D01*
Y250420D01*
G01X238318Y303500D02*
X238439Y303379D01*
X245665D01*
G01X255748Y322800D02*
X250276Y317328D01*
Y317158D01*
X245665D01*
G01X230718Y271670D02*
Y274900D01*
G01X219218Y271570D02*
Y274700D01*
G01X245665Y319127D02*
X240045D01*
X239918Y319000D01*
G01X253748Y284700D02*
Y292870D01*
X251113Y295505D01*
X245665D01*
G01X259918Y261370D02*
Y264425D01*
X259418Y264925D01*
Y266500D01*
G01X253848Y278900D02*
X244118D01*
X242918Y280100D01*
X239900D01*
X238382Y281618D01*
Y286253D01*
G01X213518Y258230D02*
Y256132D01*
X214039Y255610D01*
Y254800D01*
G01D02*
Y250420D01*
G01X208118Y261970D02*
Y267730D01*
G01X213518D02*
Y261970D01*
G01D02*
X213616Y262068D01*
X219120D01*
X219218Y261970D01*
G01X224918Y267830D02*
Y261970D01*
G01X219218Y267830D02*
X224918D01*
G01X222634Y286253D02*
Y281084D01*
X224568Y279150D01*
G01X228950Y278104D02*
X232476Y281630D01*
Y286253D01*
G01X234500Y280500D02*
Y280518D01*
X234445Y280573D01*
Y286253D01*
G01X230718Y261970D02*
X230788D01*
X233518Y264700D01*
G01X236437Y267980D02*
X230768D01*
X230718Y267930D01*
G01X236418Y261970D02*
Y267961D01*
X236437Y267980D01*
G01X241918Y261970D02*
Y267961D01*
X241937Y267980D01*
G01X247418Y261970D02*
X241918D01*
G01X252918D02*
Y266934D01*
X248382Y271471D01*
G01D02*
X244143Y275710D01*
Y275780D01*
X242899Y277025D01*
X242828D01*
X241653Y278200D01*
X239800D01*
X236413Y281587D01*
Y286253D01*
G01X236418Y258230D02*
Y256132D01*
X237661Y254888D01*
Y250420D01*
G01X239236D02*
Y252350D01*
X239786Y252900D01*
X242088D01*
X247418Y258230D01*
G01X252918D02*
X245108Y250420D01*
X240811D01*
G01X259918Y257630D02*
X255056Y252768D01*
Y249520D01*
G01X230718Y258230D02*
Y256118D01*
X225020Y250420D01*
X217189D01*
G01X236437Y271720D02*
Y273937D01*
X236500Y274000D01*
Y275500D01*
G01X208854Y286253D02*
Y281936D01*
X207118Y280200D01*
G01X241937Y271720D02*
Y274818D01*
X242018Y274900D01*
G01X210823Y286253D02*
Y282187D01*
X210736Y282100D01*
Y280300D01*
G01X214760Y286253D02*
Y281675D01*
X214989Y281446D01*
Y279471D01*
G01X208118Y271470D02*
Y271568D01*
X212350Y275800D01*
X214518D01*
X217364Y278646D01*
Y280000D01*
X216728Y280636D01*
Y286253D01*
G01X213518Y271470D02*
X216200Y274152D01*
Y275216D01*
X218714Y277730D01*
Y281390D01*
X218697Y281407D01*
Y286253D01*
G01X224918Y271570D02*
Y273644D01*
X222896Y275666D01*
X222852D01*
X220665Y277853D01*
Y286253D01*
G01X210823Y330347D02*
Y336395D01*
X208718Y338500D01*
Y348130D01*
X207418Y349430D01*
G01X211718Y340130D02*
Y338032D01*
X212791Y336958D01*
Y330347D01*
G01X214918Y349430D02*
Y337197D01*
X216728Y335387D01*
Y330347D01*
G01X237418Y349430D02*
Y347332D01*
X236413Y346327D01*
Y330347D01*
G01X225918Y340130D02*
X224700Y338912D01*
Y337200D01*
X222634Y335134D01*
Y330347D01*
G01X229918Y349430D02*
Y337332D01*
X232476Y334774D01*
Y330347D01*
G01X222418Y349430D02*
Y338918D01*
X220665Y337165D01*
Y330347D01*
G01X255748Y334700D02*
X253618D01*
X251818Y332900D01*
Y325105D01*
X250553Y323840D01*
Y323835D01*
X249782Y323064D01*
X245665D01*
G01X267748Y331700D02*
X254118D01*
X253118Y330700D01*
Y323900D01*
X250313Y321095D01*
X245665D01*
G01X255748Y328700D02*
Y322800D01*
G01X240118Y343870D02*
X240148Y343900D01*
X272700D01*
G01D02*
X282957D01*
X290431Y351374D01*
Y355280D01*
G01X240118Y340130D02*
Y338032D01*
X238382Y336295D01*
Y330347D01*
G01X229918Y353170D02*
Y355825D01*
X230018Y355925D01*
Y357500D01*
G01X242718Y351500D02*
X240950Y353268D01*
X237516D01*
X237418Y353170D01*
G01X233318Y347200D02*
X233018Y346900D01*
Y343870D01*
G01Y340130D02*
Y338032D01*
X234445Y336605D01*
Y330347D01*
G01X233518Y322800D02*
X230508Y325810D01*
Y330347D01*
G01X251000Y376370D02*
Y376468D01*
X247500Y379968D01*
Y382744D01*
G01X245532Y388256D02*
X242324D01*
X242198Y388130D01*
X239500D01*
G01X228370Y363000D02*
X234000D01*
X235400Y364400D01*
Y372900D01*
G01X245532Y382744D02*
Y379900D01*
X244300Y378668D01*
Y376270D01*
G01X235400Y372900D02*
Y373700D01*
X238069Y376368D01*
X244202D01*
X244300Y376270D01*
G01X214000Y367200D02*
X215462Y365738D01*
Y363000D01*
G01X209900Y366500D02*
X209870Y366470D01*
Y363000D01*
G01X222031Y368730D02*
Y367369D01*
X222900Y366500D01*
X225970D01*
X228800Y369330D01*
G01X219202Y363000D02*
Y365780D01*
X218882Y366100D01*
Y368730D01*
G01X206130Y363000D02*
Y365230D01*
X207031Y366131D01*
Y368980D01*
G01X232800Y406000D02*
Y377070D01*
X228800Y373070D01*
G01X224630Y363000D02*
X220457Y367173D01*
Y368730D01*
G01X272631Y440824D02*
Y429869D01*
X273000Y429500D01*
G01X213882Y419020D02*
Y421118D01*
X213000Y422000D01*
X210874D01*
X208744Y424130D01*
G01X208900Y431600D02*
X208744Y431444D01*
Y427870D01*
G01X215457Y424130D02*
Y419020D01*
G01X217031D02*
Y421031D01*
X218000Y422000D01*
X219614D01*
X221744Y424130D01*
G01X274630Y407000D02*
X271500D01*
G01X268756Y409532D02*
X270950D01*
X271500Y408981D01*
Y407000D01*
G01X266500Y428500D02*
X270662Y432662D01*
Y440824D01*
G01X239500Y391870D02*
Y394500D01*
X245000Y400000D01*
X279500D01*
X285000Y405500D01*
Y417900D01*
X288100Y421000D01*
X295795D01*
X306095Y431300D01*
G01X272100Y415600D02*
X269968Y413468D01*
X268756D01*
G01X269630Y419000D02*
Y416630D01*
X268756Y415756D01*
Y413468D01*
G01X221744Y427870D02*
Y430744D01*
X222500Y431500D01*
G01X274630Y412500D02*
X272500D01*
X271500Y411500D01*
X268756D01*
G01X263244Y409532D02*
X256902D01*
X256870Y409500D01*
G01X215457Y427870D02*
Y431957D01*
X217500Y434000D01*
X242500D01*
X253032Y423469D01*
Y409598D01*
X253130Y409500D01*
G01X281718Y16870D02*
Y21487D01*
X285665Y25434D01*
Y26320D01*
G01X301848Y22500D02*
X298618D01*
X294130Y26988D01*
Y28879D01*
G01X276218Y13130D02*
X281718D01*
G01X283106Y28879D02*
X279227D01*
X277918Y27570D01*
G01X287218Y16870D02*
Y18944D01*
X289918Y21644D01*
Y23851D01*
X289602Y24167D01*
Y26320D01*
G01X291571D02*
Y23900D01*
X292718Y22753D01*
Y16870D01*
G01X299218Y16953D02*
X295518D01*
X295502Y16968D01*
X292816D01*
X292718Y16870D01*
G01X305718D02*
X299301D01*
X299218Y16953D01*
G01X292412Y94431D02*
X294412D01*
X295573Y93270D01*
X298518D01*
G01X292412Y100338D02*
Y103306D01*
X292018Y103700D01*
Y106002D01*
G01X294600Y89800D02*
Y91300D01*
X293438Y92462D01*
X292412D01*
G01X294130Y32816D02*
X298718D01*
G01X292018Y106002D02*
X291920Y106100D01*
G01X292018Y106002D02*
Y109600D01*
G01X327836Y150928D02*
X325025D01*
X325022Y150925D01*
X321294D01*
G01X293198Y137039D02*
X299339D01*
X301100Y138800D01*
Y145982D01*
X306044Y150925D01*
X307494D01*
G01X293198Y134480D02*
X299480D01*
X304218Y139218D01*
Y143100D01*
X306544Y145425D01*
X307494D01*
G01X327836Y145428D02*
X325025D01*
X325022Y145425D01*
X321294D01*
G01X304048Y126000D02*
X299300D01*
X298498Y126802D01*
X293198D01*
G01X280324Y190231D02*
G01X277669D02*
X280324D01*
G01X278100Y186600D02*
Y187300D01*
X279062Y188262D01*
X280324D01*
G01X291912Y190231D02*
X293939D01*
X295100Y189070D01*
X297518D01*
G01X289524Y229362D02*
X288462D01*
X286800Y227700D01*
Y225300D01*
X285800Y224300D01*
X283588D01*
G01X289524Y231331D02*
G01X285500Y229800D02*
X286000D01*
X287531Y231331D01*
X289524D01*
G01X285500Y229800D02*
X283588D01*
G01X301018Y227687D02*
Y229268D01*
X301112Y229362D01*
G01X300620Y243300D02*
Y248298D01*
X300618Y248300D01*
G01X301018Y227687D02*
Y225400D01*
G01X301112Y237238D02*
Y240588D01*
X300620Y241080D01*
Y243300D01*
G01X291912Y196138D02*
Y198988D01*
X291518Y199382D01*
Y202102D01*
X291420Y202200D01*
G01D02*
X294818D01*
G01X291912Y184706D02*
X292418Y184200D01*
G01X291912Y188262D02*
Y184706D01*
G01X301112Y231331D02*
G01X306718Y230170D02*
X303929D01*
X303831Y230268D01*
G01X301112Y231331D02*
X302768D01*
X303831Y230268D01*
G01X294224Y305362D02*
X293062D01*
X291600Y303900D01*
Y301200D01*
X290700Y300300D01*
X288288D01*
G01X294224Y307331D02*
G01X288387Y305800D02*
X288288D01*
G01X294224Y307331D02*
X292131D01*
X290600Y305800D01*
X288387D01*
G01X305812Y307331D02*
X307969D01*
X309130Y306170D01*
X311418D01*
G01X305718Y324000D02*
X305300Y323582D01*
Y319320D01*
X305320Y319300D01*
G01X305812Y305362D02*
Y303306D01*
X306918Y302200D01*
G01X305320Y319300D02*
Y316280D01*
X305812Y315788D01*
Y313238D01*
G01X296718Y345800D02*
X293580Y348938D01*
Y355280D01*
G01X307418Y351000D02*
X304556D01*
X303380Y352176D01*
Y355280D01*
G01X293056Y345800D02*
X292006Y346850D01*
Y355280D01*
G01X304300Y347900D02*
X301806Y350395D01*
Y355280D01*
G01X319000Y474000D02*
Y473400D01*
X317906Y472306D01*
Y463376D01*
G01X321843D02*
Y468338D01*
X322825Y469320D01*
Y469325D01*
X322900Y469400D01*
Y474700D01*
G01X318370Y420000D02*
X322000D01*
G01X318370Y414500D02*
X318468Y414598D01*
Y419902D01*
X318370Y420000D01*
G01X322400Y430500D02*
Y433700D01*
X323812Y435112D01*
Y440824D01*
G01X326300Y473900D02*
Y471174D01*
X323812Y468685D01*
Y463376D01*
G01X320700Y470200D02*
X320600D01*
Y470300D01*
X319875Y469575D01*
Y463376D01*
G01X306095Y440824D02*
Y431300D01*
G01X312001Y463376D02*
Y470050D01*
X311451Y470600D01*
X309700D01*
G01X312569Y473100D02*
Y471631D01*
X313600Y470600D01*
Y469200D01*
X313969Y468831D01*
Y463376D01*
G01X293370Y414000D02*
X296000D01*
X298000Y412000D01*
X301244D01*
G01X278370Y407000D02*
X281668D01*
G01X314500Y405000D02*
X314532Y405032D01*
Y408500D01*
G01D02*
X309500D01*
X307968Y410031D01*
X306756D01*
G01X314630Y408500D02*
X314532D01*
G01X314500Y423500D02*
X314532Y423469D01*
Y420098D01*
X314630Y420000D01*
G01X301244Y413968D02*
Y419402D01*
X301342Y419500D01*
G01D02*
X298000D01*
G01X314630Y414500D02*
X310500D01*
X309968Y413968D01*
X306756D01*
G54D28*
X79661Y172504D03*
X82221D03*
X84780D03*
X87339D03*
G54D64*
X257591Y462596D03*
X336843D03*
G54D37*
X114434Y391496D03*
X116402D03*
X120434D03*
X122402D03*
X114434Y393858D03*
X116402D03*
X120434D03*
X122402D03*
X326437Y100916D03*
X328799D03*
X326437Y102884D03*
X328799D03*
X333435Y179894D03*
X335797D03*
X333435Y177926D03*
X335797D03*
X334035Y256484D03*
X336397D03*
X334035Y254516D03*
X336397D03*
X331935Y332411D03*
X334297D03*
X331935Y330442D03*
X334297D03*
G54D46*
X173718Y164600D03*
X178718D03*
X183718D03*
X188718D03*
X193718D03*
X198718D03*
X203718D03*
Y107400D03*
X198718D03*
X193718D03*
X188718D03*
X183718D03*
X178718D03*
X173718D03*
X208718Y164600D03*
X213718D03*
X218718D03*
X223718D03*
X228718D03*
Y107400D03*
X223718D03*
X218718D03*
X213718D03*
X208718D03*
G54D19*
X133561Y16103D03*
X76475D03*
X133561Y39567D03*
X76475D03*
G54D82*
X391479Y91442D03*
Y245042D03*
G54D55*
X239116Y94500D03*
X251320D03*
G54D73*
X299218Y76811D03*
Y53189D03*
G54D92*
G01X17532Y125480D02*
X18953Y126900D01*
X22701D01*
X23626Y125975D01*
X27068D01*
G01X62204Y148520D02*
X60784Y147100D01*
X55736D01*
X54810Y148025D01*
X51368D01*
G01X17532Y129620D02*
X18953Y128200D01*
X22701D01*
X23626Y129125D01*
X27068D01*
G01X17532Y142220D02*
X18953Y140800D01*
X22701D01*
X23626Y141725D01*
X27068D01*
G01X62204Y135920D02*
X60784Y134500D01*
X55736D01*
X54810Y135425D01*
X51368D01*
G01X17532Y138080D02*
X18953Y139500D01*
X22701D01*
X23626Y138575D01*
X27068D01*
G01X62204Y144380D02*
X60784Y145800D01*
X55736D01*
X54810Y144875D01*
X51368D01*
G01X62204Y131780D02*
X60784Y133200D01*
X55736D01*
X54810Y132275D01*
X51368D01*
G01X19500Y279900D02*
Y280250D01*
X20500Y281250D01*
X22701D01*
X23626Y280325D01*
X27068D01*
G01X19500Y283900D02*
Y283400D01*
X20350Y282550D01*
X22701D01*
X23626Y283475D01*
X27068D01*
G01X61000Y286500D02*
X60000Y287500D01*
X55685D01*
X54810Y286625D01*
X51368D01*
G01X61000Y290000D02*
X59800Y288800D01*
X55785D01*
X54810Y289775D01*
X51368D01*
G01X19500Y292500D02*
Y292850D01*
X20500Y293850D01*
X22701D01*
X23626Y292925D01*
X27068D01*
G01X19500Y296500D02*
Y296000D01*
X20350Y295150D01*
X22701D01*
X23626Y296075D01*
X27068D01*
G01X61500Y299000D02*
X60300Y300200D01*
X55785D01*
X54810Y299225D01*
X51368D01*
G01X61500Y302500D02*
X60500Y301500D01*
X55685D01*
X54810Y302375D01*
X51368D01*
G01X94118Y77870D02*
X94270D01*
X96618Y80218D01*
Y89255D01*
X96173Y89700D01*
X94798D01*
G01X98938D02*
X97918Y88680D01*
Y79500D01*
X99548Y77870D01*
X99618D01*
G01X104600Y85000D02*
X105500D01*
X106400Y84100D01*
Y79152D01*
X105118Y77870D01*
G01X109034Y85200D02*
X107700Y83866D01*
Y79300D01*
X109130Y77870D01*
X110618D01*
G01X116917Y85299D02*
X117773D01*
X118218Y84854D01*
Y79970D01*
X116118Y77870D01*
G01X120333Y85299D02*
X119518Y84484D01*
Y79970D01*
X121618Y77870D01*
G01X127118D02*
X129800Y80552D01*
Y83417D01*
X127917Y85299D01*
G01X132618Y77870D02*
X131100Y79388D01*
Y83600D01*
X132800Y85300D01*
G01X101745Y58426D02*
Y55374D01*
G01X94868Y69650D02*
X94968D01*
X96618Y68000D01*
Y66900D01*
X102079Y61439D01*
Y60413D01*
X101745Y60079D01*
Y58426D01*
G01X94868Y69650D02*
X96218Y71000D01*
Y71258D01*
X96218Y72030D01*
X94118Y74130D01*
G01X103713Y55374D02*
Y57027D01*
X103713Y58426D01*
G01X99008Y69650D02*
X97918Y68560D01*
Y67439D01*
X103379Y61978D01*
Y60413D01*
X103713Y60079D01*
Y58426D01*
G01X99618Y74130D02*
X97518Y72030D01*
Y71240D01*
X99008Y69750D01*
Y69650D01*
G01X107651Y58426D02*
Y59163D01*
X107988Y59500D01*
Y64173D01*
X107300Y64862D01*
Y68318D01*
X105918Y69700D01*
G01D02*
X107218Y71000D01*
Y71249D01*
X107218Y72030D01*
X105118Y74130D01*
G01X109619Y58426D02*
Y59069D01*
X109288Y59400D01*
Y64712D01*
X108600Y65400D01*
Y68242D01*
X110058Y69700D01*
G01D02*
X108518Y71240D01*
Y72030D01*
X110618Y74130D01*
G01X113981Y58426D02*
Y59163D01*
X114318Y59500D01*
Y63299D01*
X118318Y67299D01*
Y68300D01*
X116918Y69700D01*
G01D02*
X118218Y71000D01*
Y71258D01*
X118218Y72030D01*
X116118Y74130D01*
G01X115949Y58426D02*
Y59069D01*
X115618Y59400D01*
Y62760D01*
X119618Y66760D01*
Y68260D01*
X121058Y69700D01*
G01D02*
X119518Y71240D01*
Y72030D01*
X121618Y74130D01*
G01X127118D02*
X129218Y72030D01*
Y71000D01*
X127918Y69700D01*
G01X119887Y58426D02*
Y59169D01*
X120221Y59503D01*
Y61941D01*
X123280Y65000D01*
X127618D01*
X129800Y67182D01*
Y69255D01*
X129355Y69700D01*
X127918D01*
G01X121855Y58426D02*
Y59263D01*
X121521Y59597D01*
Y61403D01*
X123818Y63700D01*
X128156D01*
X131100Y66644D01*
Y68742D01*
X132058Y69700D01*
G01D02*
X130518Y71240D01*
Y72030D01*
X132618Y74130D01*
G01X184218Y67500D02*
Y71882D01*
X183900Y72200D01*
X180568Y75532D01*
Y100760D01*
X180123Y101205D01*
X179163D01*
X178718Y101650D01*
Y107400D01*
G01X189218Y77500D02*
X185218Y73500D01*
X184439D01*
X181868Y76071D01*
Y100760D01*
X182313Y101205D01*
X183273D01*
X183718Y101650D01*
Y107400D01*
G01X194090Y97100D02*
X195568Y98578D01*
Y100760D01*
X195123Y101205D01*
X194163D01*
X193718Y101650D01*
Y107400D01*
G01X198400Y97100D02*
X196868Y98632D01*
Y100760D01*
X197313Y101205D01*
X198273D01*
X198718Y101650D01*
Y107400D01*
G01X199218Y77500D02*
Y74482D01*
X199800Y73900D01*
X202600D01*
X203800Y75100D01*
Y84400D01*
X210568Y91168D01*
Y100760D01*
X210123Y101205D01*
X209163D01*
X208718Y101650D01*
Y107400D01*
G01X179036Y177500D02*
X180568Y175968D01*
Y171240D01*
X180123Y170795D01*
X179163D01*
X178718Y170350D01*
Y164600D01*
G01X194036Y174900D02*
X195568Y173368D01*
Y171240D01*
X195123Y170795D01*
X194163D01*
X193718Y170350D01*
Y164600D01*
G01X198346Y174900D02*
X196868Y173422D01*
Y171240D01*
X197313Y170795D01*
X198273D01*
X198718Y170350D01*
Y164600D01*
G01X183346Y177500D02*
X181868Y176022D01*
Y171240D01*
X182313Y170795D01*
X183273D01*
X183718Y170350D01*
Y164600D01*
G01X214218Y67500D02*
Y74044D01*
X213600Y74662D01*
Y81038D01*
X225568Y93006D01*
Y100760D01*
X225123Y101205D01*
X224163D01*
X223718Y101650D01*
Y107400D01*
G01X219218Y77500D02*
Y74418D01*
X218400Y73600D01*
X216500D01*
X214900Y75200D01*
Y80500D01*
X226868Y92468D01*
Y100760D01*
X227313Y101205D01*
X228273D01*
X228718Y101650D01*
Y107400D01*
G01X204218Y67500D02*
Y73680D01*
X205100Y74562D01*
Y83862D01*
X211868Y90630D01*
Y100760D01*
X212313Y101205D01*
X213273D01*
X213718Y101650D01*
Y107400D01*
G01X224036Y174900D02*
X225568Y173368D01*
Y171240D01*
X225123Y170795D01*
X224163D01*
X223718Y170350D01*
Y164600D01*
G01X228346Y174900D02*
X226868Y173422D01*
Y171240D01*
X227313Y170795D01*
X228273D01*
X228718Y170350D01*
Y164600D01*
G01X213346Y174900D02*
X211868Y173422D01*
Y171240D01*
X212313Y170795D01*
X213273D01*
X213718Y170350D01*
Y164600D01*
G01X209036Y174900D02*
X210568Y173368D01*
Y171240D01*
X210123Y170795D01*
X209163D01*
X208718Y170350D01*
Y164600D01*
G54D29*
X79661Y160988D03*
X82221D03*
X84780D03*
X87339D03*
G54D38*
X109981Y428408D03*
X117855D03*
X100139D03*
X127698D03*
X98170Y422502D03*
X106044D03*
X113918D03*
X121792D03*
X129666D03*
G54D83*
X355118Y165100D03*
Y317800D03*
G54D56*
X264718Y66437D03*
Y58563D03*
X314718Y130563D03*
Y138437D03*
G54D74*
X286618Y96400D03*
X295318Y233300D03*
X286118Y192200D03*
X300018Y309300D03*
G54D47*
X199866Y214100D03*
X191992D03*
X184118D03*
X199866Y230911D03*
X191992D03*
X184118D03*
X254984Y214100D03*
X247110D03*
X239236D03*
X231362D03*
X223488D03*
X215614D03*
X207740D03*
X254984Y230911D03*
X247110D03*
X239236D03*
X231362D03*
X223488D03*
X215614D03*
X207740D03*
G54D65*
X274599Y463376D03*
X272631D03*
X270662D03*
X268694D03*
X274599Y440824D03*
X272631D03*
X270662D03*
X268694D03*
X325780Y463376D03*
X323812D03*
X321843D03*
X319875D03*
X317906D03*
X315938D03*
X313969D03*
X312001D03*
X310032D03*
X308064D03*
X306095D03*
X304127D03*
X302158D03*
X300190D03*
X298221D03*
X296253D03*
X294284D03*
X292316D03*
X290347D03*
X288379D03*
X286410D03*
X284442D03*
X282473D03*
X280505D03*
X278536D03*
X276568D03*
X325780Y440824D03*
X323812D03*
X321843D03*
X319875D03*
X317906D03*
X315938D03*
X313969D03*
X312001D03*
X310032D03*
X308064D03*
X306095D03*
X304127D03*
X302158D03*
X300190D03*
X298221D03*
X296253D03*
X294284D03*
X292316D03*
X290347D03*
X288379D03*
X286410D03*
X284442D03*
X282473D03*
X280505D03*
X278536D03*
X276568D03*
G54D93*
G01X37218Y-193700D02*
X602518D01*
G01X37218Y-213700D02*
X602718D01*
Y-134771D01*
G01X37218Y-134300D02*
Y-213700D01*
G01Y-173700D02*
X602718D01*
G01X37218Y-134500D02*
X602718D01*
G01X37218Y-153700D02*
X602618D01*
G01X60000Y120900D02*
X58775Y119675D01*
X51368D01*
G01X12643Y175375D02*
X9125D01*
X9000Y175500D01*
G01X14500Y267000D02*
X14548Y266952D01*
Y263053D01*
G01X18500Y313500D02*
Y312000D01*
X21825Y308675D01*
X27068D01*
G01Y264575D02*
X19810D01*
X18289Y263053D01*
G01X27068Y261425D02*
X19917D01*
X18289Y263053D01*
G01D02*
Y260289D01*
X17500Y259500D01*
G01X91239Y50120D02*
Y42559D01*
G01X90118Y62100D02*
X90846D01*
X92446Y60500D01*
Y59300D01*
G01X105682D02*
Y62000D01*
G01X117918Y59300D02*
Y62200D01*
G01X81158Y87565D02*
X85153D01*
G01X88509Y59100D02*
X86918Y60691D01*
Y66000D01*
X89018Y68100D01*
Y89718D01*
X103800Y104500D01*
X158100D01*
X163200Y109600D01*
Y213200D01*
X161500Y214900D01*
Y337300D01*
X163070Y338870D01*
G01X84368Y55374D02*
X82992D01*
X80918Y53300D01*
Y46809D01*
X84368Y43359D01*
G01X84518Y99000D02*
X81744Y96226D01*
X77418D01*
G01X86700Y147800D02*
X85500Y149000D01*
Y151000D01*
G01X75400Y152900D02*
X76500Y154000D01*
Y156000D01*
G01X122050Y149750D02*
Y152050D01*
X123500Y153500D01*
X124500D01*
G01X99500Y155500D02*
X96500D01*
G01X116950Y142250D02*
Y138350D01*
X116400Y137800D01*
G01X130500Y135500D02*
X133000D01*
X135000Y137500D01*
Y140000D01*
G01X128000Y145500D02*
Y149000D01*
G01X119500Y160500D02*
X122500D01*
G01X82221Y158720D02*
Y160988D01*
G01X84780Y158720D02*
Y160988D01*
G01X85000Y158500D02*
X84780Y158720D01*
G01X82000Y158500D02*
X82221Y158720D01*
G01X83000Y153500D02*
X83500D01*
X85500Y155500D01*
G01X79661Y172504D02*
Y174661D01*
G01Y172504D02*
X75604D01*
G01X82221D02*
Y174280D01*
G01X84780Y172504D02*
Y174580D01*
G01X87339Y172504D02*
Y174539D01*
G01Y172504D02*
X91096D01*
G01X75000Y184100D02*
X70600D01*
X70500Y184000D01*
G01X81000Y181000D02*
Y184500D01*
G01X103718Y199740D02*
X98218D01*
G01X86480Y255706D02*
Y254832D01*
X83848Y252200D01*
G01X90418Y253018D02*
Y255706D01*
G01X88449Y253151D02*
Y255706D01*
G01X90200Y252800D02*
X90418Y253018D01*
G01X88800Y252800D02*
X88449Y253151D01*
G01X118418Y402203D02*
Y407677D01*
G01Y399151D02*
Y396400D01*
G01X188842Y245380D02*
X186998D01*
X186118Y244500D01*
Y243500D01*
G01X188842Y250420D02*
X187498D01*
X186218Y251700D01*
Y253400D01*
G01X175888Y350100D02*
Y342956D01*
X176018Y342826D01*
G01X175888Y350100D02*
Y354270D01*
X175987Y354368D01*
G01X172278Y334165D02*
X169835D01*
X168870Y335130D01*
G01X173717Y329894D02*
X172278Y331334D01*
Y334165D01*
G01X251320Y94500D02*
X256436D01*
G01X251320D02*
Y103200D01*
G01X228539Y286253D02*
Y291821D01*
X229818Y293100D01*
G01X258318Y300400D02*
Y303778D01*
G01X261249Y288900D02*
X260018D01*
X258318Y290600D01*
G01X245665Y311253D02*
X241516D01*
X239818Y312950D01*
G01X226571Y286253D02*
Y292647D01*
X226518Y292700D01*
Y294900D01*
G01X223613Y324500D02*
X223218Y324105D01*
Y293000D01*
G01D02*
X224602Y291616D01*
Y286253D01*
G01X244300Y372530D02*
Y369100D01*
G01X251000Y372630D02*
Y369000D01*
G01X226571Y330347D02*
Y321853D01*
X225918Y321200D01*
G01X255500Y383130D02*
X252386D01*
X252000Y382744D01*
X249468D01*
G01X255500Y383130D02*
X259870D01*
X260000Y383000D01*
G01X208854Y330347D02*
Y334211D01*
X205118Y337947D01*
G01X229818Y322100D02*
Y322900D01*
X228539Y324179D01*
Y330347D01*
G01X224602D02*
Y325484D01*
X223618Y324500D01*
X223613D01*
G01X260630Y419000D02*
X257563D01*
X257532Y418969D01*
G01X273370Y419000D02*
X276437D01*
X276468Y419032D01*
G01X263244Y411500D02*
X260500D01*
X258500Y413500D01*
G01X264500Y423500D02*
X264468Y423469D01*
Y419098D01*
X264370Y419000D01*
G01D02*
Y415870D01*
X263244Y414744D01*
Y413468D01*
G01X287634Y26320D02*
Y22916D01*
X287218Y22500D01*
G01X294130Y30847D02*
X296271D01*
X298365Y28753D01*
Y28700D01*
G01X293063Y41280D02*
X291571D01*
G01X284218Y41500D02*
X284438Y41280D01*
X285665D01*
G01X280824Y100338D02*
Y103226D01*
X281234Y103635D01*
G01X277300Y96400D02*
X280824D01*
G01X277431Y98369D02*
X280824D01*
G01X277200Y96500D02*
X277300Y96400D01*
G01X277400Y98400D02*
X277431Y98369D01*
G01X294130Y34784D02*
X297002D01*
G01X283106D02*
X276918D01*
G01X292412Y98369D02*
X295769D01*
G01X292412Y96400D02*
X295400D01*
X295800Y96800D01*
G01X295769Y98369D02*
X296200Y98800D01*
G01X289524Y237238D02*
Y239894D01*
X287918Y241500D01*
G01X280324Y196138D02*
Y198703D01*
X280729Y199108D01*
G01X286500Y234000D02*
X287200Y233300D01*
X289524D01*
G01X277631Y194169D02*
X280324D01*
G01X277700Y192200D02*
X280324D01*
G01X277500Y194300D02*
X277631Y194169D01*
G01X276800Y193100D02*
X277700Y192200D01*
G01X286431Y235269D02*
X289524D01*
G01X286400Y235300D02*
X286431Y235269D01*
G01X295700Y192500D02*
X295400Y192200D01*
G01X296300Y194200D02*
X296269Y194169D01*
G01X295400Y192200D02*
X291912D01*
G01X296269Y194169D02*
X291912D01*
G01X304531Y235269D02*
X304600Y235200D01*
G01X301112Y235269D02*
X304531D01*
G01X304588Y233300D02*
X304968Y233680D01*
G01X301112Y233300D02*
X304588D01*
G01X291431Y311269D02*
X294224D01*
G01X290448Y309300D02*
X294224D01*
G01X291200Y311500D02*
X291431Y311269D01*
G01X290168Y309580D02*
X290448Y309300D01*
G01X308400Y311300D02*
X308369Y311269D01*
G01X305812Y309300D02*
X309288D01*
G01X308369Y311269D02*
X305812D01*
G01X315938Y463376D02*
Y470062D01*
X315800Y470200D01*
Y470100D01*
X315700D01*
G01X306756Y412000D02*
X310706D01*
G01X289630Y414000D02*
Y416870D01*
X289532Y416969D01*
G01X289630Y408000D02*
Y405067D01*
X289563Y405000D01*
G01X278437Y415500D02*
X278468Y415469D01*
Y412598D01*
X278370Y412500D01*
G01X321468Y408532D02*
X321437Y408500D01*
X318370D01*
G01X293370Y408000D02*
X296000D01*
X297294Y409294D01*
Y409500D01*
G01X305083Y419500D02*
X308500D01*
G01X301244Y410031D02*
X298032D01*
X297500Y409500D01*
X297294D01*
G54D75*
X280824Y100338D03*
Y98369D03*
Y96400D03*
Y94431D03*
Y92462D03*
X292412D03*
Y94431D03*
Y96400D03*
Y98369D03*
Y100338D03*
X289524Y237238D03*
Y235269D03*
Y233300D03*
Y231331D03*
Y229362D03*
X301112D03*
Y231331D03*
Y233300D03*
Y235269D03*
Y237238D03*
X280324Y196138D03*
Y194169D03*
Y192200D03*
Y190231D03*
Y188262D03*
X291912D03*
Y190231D03*
Y192200D03*
Y194169D03*
Y196138D03*
X294224Y313238D03*
Y311269D03*
Y309300D03*
Y307331D03*
Y305362D03*
X305812D03*
Y307331D03*
Y309300D03*
Y311269D03*
Y313238D03*
G54D57*
X265639Y149834D03*
Y147275D03*
Y144716D03*
Y142157D03*
Y139598D03*
Y137039D03*
Y134480D03*
Y131920D03*
Y129361D03*
Y126802D03*
Y124243D03*
Y121684D03*
Y119125D03*
Y116566D03*
X293198D03*
Y119125D03*
Y121684D03*
Y124243D03*
Y126802D03*
Y129361D03*
Y131920D03*
Y134480D03*
Y137039D03*
Y139598D03*
Y142157D03*
Y144716D03*
Y147275D03*
Y149834D03*
G54D84*
X355118Y174942D03*
Y182816D03*
Y192659D03*
Y327642D03*
Y335516D03*
Y345359D03*
G54D66*
X285665Y26320D03*
X287634D03*
X289602D03*
X291571D03*
X285665Y41280D03*
X287634D03*
X289602D03*
X291571D03*
G54D48*
X193567Y245380D03*
X191992D03*
X190417D03*
X188842D03*
X203356Y200220D03*
Y195180D03*
X193567Y250420D03*
X191992D03*
X190417D03*
X188842D03*
X203882Y374020D03*
Y368980D03*
X202307Y374020D03*
Y368980D03*
X255056Y244480D03*
X256631D03*
X258206D03*
X259780D03*
X217189Y245380D03*
X215614D03*
X214039D03*
X212465D03*
X240811D03*
X239236D03*
X237661D03*
X236087D03*
X208080Y200220D03*
Y195180D03*
X206506Y200220D03*
Y195180D03*
X204931Y200220D03*
Y195180D03*
X255056Y249520D03*
X256631D03*
X258206D03*
X259780D03*
X217189Y250420D03*
X215614D03*
X214039D03*
X212465D03*
X240811D03*
X239236D03*
X237661D03*
X236087D03*
X207031Y374020D03*
Y368980D03*
X205457Y374020D03*
Y368980D03*
X222031Y373769D03*
Y368730D03*
X220457Y373769D03*
Y368730D03*
X218882Y373769D03*
Y368730D03*
X217307Y373769D03*
Y368730D03*
X213882Y413980D03*
Y419020D03*
X215457Y413980D03*
Y419020D03*
X217031Y413980D03*
Y419020D03*
X218606Y413980D03*
Y419020D03*
X293580Y360320D03*
Y355280D03*
X292006Y360320D03*
Y355280D03*
X290431Y360320D03*
Y355280D03*
X288856Y360320D03*
Y355280D03*
X303380Y360320D03*
Y355280D03*
X301806Y360320D03*
Y355280D03*
X300231Y360320D03*
Y355280D03*
X298656Y360320D03*
Y355280D03*
G54D39*
X88052Y436282D03*
X139784D03*
G54D94*
G01X103050Y42559D02*
Y49591D01*
X103118Y49659D01*
G01X108955Y42559D02*
Y49537D01*
X109118Y49700D01*
G01X120766Y42559D02*
Y49348D01*
X121018Y49600D01*
Y49659D01*
G01X114918Y50100D02*
X114861Y50042D01*
Y42559D01*
G01X201571Y319127D02*
X206391D01*
X207918Y317600D01*
Y317300D01*
G54D76*
X321294Y150925D03*
Y145425D03*
X307494Y150925D03*
Y145425D03*
G54D49*
X205718Y197700D03*
X191205Y247900D03*
X204669Y371500D03*
X257418Y247000D03*
X214827Y247900D03*
X238449D03*
X219669Y371250D03*
X216244Y416500D03*
X291218Y357800D03*
X301018D03*
G54D58*
X268318Y286226D03*
Y301974D03*
G54D67*
X283106Y28879D03*
X294130D03*
X283106Y30847D03*
Y32816D03*
Y34784D03*
Y38721D03*
X294130Y30847D03*
Y32816D03*
Y34784D03*
Y38721D03*
G54D85*
X365787Y153013D03*
Y204746D03*
Y305713D03*
Y357446D03*
G54D95*
G01X51368Y168475D02*
Y170075D01*
G01X47818D02*
X51368D01*
G01D02*
X54918D01*
G01X47818Y173225D02*
X51368D01*
G01D02*
X54918D01*
G01X60250Y209250D02*
X58875Y207875D01*
X51368D01*
G01Y195275D02*
X54725D01*
X55768Y194232D01*
X60402D01*
X60500Y194330D01*
G01X8000Y219000D02*
X9725Y217275D01*
X12643D01*
G01X60580Y204725D02*
X56500D01*
G01X51368D02*
X56500D01*
G01X12643Y187475D02*
X8525D01*
X8500Y187500D01*
G01X51368Y198425D02*
X55925D01*
G01X16384Y215525D02*
Y217275D01*
G01D02*
Y219025D01*
G01Y217275D02*
X18134D01*
G01X58750Y198070D02*
X60500D01*
G01X79418Y66800D02*
Y59130D01*
X79288Y59000D01*
G01X79387Y55432D02*
Y58902D01*
X79288Y59000D01*
G01X83318D02*
X79288D01*
G01X65320Y172900D02*
X68900D01*
X69000Y173000D01*
G01X96500Y151000D02*
X98200Y152700D01*
G01X96500Y151000D02*
X98200Y149300D01*
G01X80000Y156000D02*
X81700Y157700D01*
G01X80000Y154300D02*
Y156000D01*
G01X80974Y158910D02*
X82221Y160988D01*
G01D02*
X83467Y158910D01*
G01X78414D02*
X79661Y160988D01*
G01D02*
X80908Y158910D01*
G01X91755Y137300D02*
X95300D01*
X95500Y137500D01*
G01X61580Y171150D02*
Y172900D01*
G01D02*
Y174650D01*
G01X59830Y172900D02*
X61580D01*
G01X123289Y193829D02*
X127329D01*
X128500Y195000D01*
G01X60500Y190500D02*
Y194330D01*
G01X87588Y249700D02*
X89338Y247950D01*
G01X92168Y244480D02*
X93918Y246230D01*
G01D02*
X95668Y244480D01*
G01X97668D02*
X99418Y246230D01*
G01D02*
X101168Y244480D01*
G01X81000Y175800D02*
Y177500D01*
G01X79300D02*
X81000D01*
G01D02*
X82700D01*
G01X75000Y176200D02*
Y178500D01*
G01X72400D02*
X75000D01*
G01D02*
X77600D01*
G01X60500Y198070D02*
Y199820D01*
G01Y198070D02*
X62250D01*
G01X87588Y249700D02*
X89338Y251450D01*
G01X78418Y289500D02*
X86900D01*
G01X78418D02*
X69900D01*
G01X71718Y283916D02*
X78418Y289500D01*
G01D02*
X85118Y295084D01*
G01X71718D02*
X78418Y289500D01*
G01D02*
X85118Y283916D01*
G01X80188Y275800D02*
X81938Y277550D01*
G01X80188Y275800D02*
X81938Y274050D01*
G01X138468Y159847D02*
Y161947D01*
G01X135618D02*
X138468D01*
G01D02*
X141318D01*
G01X146118Y161280D02*
Y163030D01*
G01X144368D02*
X146118D01*
G01D02*
X147868D01*
G01X152618Y161280D02*
Y163030D01*
G01X150868D02*
X152618D01*
G01D02*
X154368D01*
G01X138468Y167853D02*
Y169953D01*
G01X135618Y167853D02*
X138468D01*
G01D02*
X141318D01*
G01X146118Y166770D02*
Y168520D01*
G01X144368Y166770D02*
X146118D01*
G01D02*
X147868D01*
G01X152618D02*
Y168520D01*
G01X150868Y166770D02*
X152618D01*
G01D02*
X154368D01*
G01X190118Y196200D02*
X190087Y196232D01*
Y199502D01*
X189988Y199600D01*
G01X186150Y196100D02*
Y199502D01*
X186248Y199600D01*
G01X197818Y352234D02*
Y355296D01*
G01X194756Y352234D02*
X197818D01*
G01D02*
X200881D01*
G01X197818Y343966D02*
X205005D01*
X205118Y343853D01*
G01X200500Y409000D02*
X200457Y408957D01*
Y401510D01*
G01X283098Y66602D02*
X275718D01*
G01X269402D02*
X275718D01*
G01X260637Y66437D02*
X264718D01*
G01X269398Y91450D02*
X271148Y93200D01*
G01X269398Y94950D02*
X271148Y93200D01*
G01X269398Y85950D02*
X271148Y87700D01*
G01X269398Y89450D02*
X271148Y87700D01*
G01X272268Y97280D02*
X274018Y99030D01*
G01D02*
X275768Y97280D01*
G01X264718Y66437D02*
X268368Y69592D01*
G01X261068D02*
X264718Y66437D01*
G01X275718Y66602D02*
X281918Y69702D01*
G01X269518D02*
X275718Y66602D01*
G01X256718Y65453D02*
X259568Y67309D01*
G01X253868D02*
X256718Y65453D01*
G01X269400Y66600D02*
X269402Y66602D01*
G01X260600Y66400D02*
X260637Y66437D01*
G01X239116Y94500D02*
X234000D01*
G01X272768Y194080D02*
X274518Y195830D01*
G01D02*
X276268Y194080D01*
G01X268898Y188450D02*
X270648Y190200D01*
G01X268898Y191950D02*
X270648Y190200D01*
G01X268898Y182950D02*
X270648Y184700D01*
G01X268898Y186450D02*
X270648Y184700D01*
G01X257587Y284700D02*
X260987D01*
G01X257587D02*
X257488D01*
G01X214918Y353170D02*
Y354920D01*
G01X213168Y353170D02*
X214918D01*
G01D02*
X216668D01*
G01X207418D02*
Y354920D01*
G01X205668Y353170D02*
X207418D01*
G01D02*
X209168D01*
G01X222418D02*
Y354920D01*
G01X220668Y353170D02*
X222418D01*
G01D02*
X224168D01*
G01X259488Y322800D02*
X264400D01*
X265700Y324100D01*
G01X238600Y418970D02*
Y422700D01*
X238700Y422800D01*
G01X210457Y401510D02*
Y408400D01*
G01X225457Y396085D02*
Y401510D01*
G01D02*
Y406934D01*
G01Y401510D02*
X227614D01*
G01X222490Y412265D02*
X225453Y415100D01*
G01X222490Y417935D02*
X225453Y415100D01*
G01X238600Y413480D02*
Y415230D01*
G01X236850D02*
X238600D01*
G01D02*
X240350D01*
G01X232147Y412234D02*
Y415100D01*
G01D02*
Y417966D01*
G01Y415100D02*
X235110D01*
G01X299218Y8947D02*
Y11047D01*
G01X296368D02*
X299218D01*
G01D02*
X302068D01*
G01X292718Y11380D02*
Y13130D01*
G01X290968D02*
X292718D01*
G01D02*
X294468D01*
G01X287218Y11380D02*
Y13130D01*
G01X285468D02*
X287218D01*
G01D02*
X288968D01*
G01X295276Y72174D02*
X299218Y76811D01*
G01D02*
X303160Y81448D01*
G01X295276D02*
X299218Y76811D01*
G01D02*
X303160Y72174D01*
G01X283100Y66600D02*
X283098Y66602D01*
G01X326318Y87700D02*
X334200D01*
G01X318100D02*
X326318D01*
G01X320735Y81000D02*
X326318Y87700D01*
G01D02*
X331902Y81000D01*
G01X296768Y96680D02*
X298518Y98430D01*
G01D02*
X300268Y96680D01*
G01X318000Y87600D02*
X318100Y87700D01*
G01X314718Y138437D02*
X321581D01*
X321618Y138400D01*
G01X314718Y138437D02*
X312050Y135768D01*
X306116D01*
X306018Y135670D01*
G01X288180Y106100D02*
X285062D01*
X285018Y106144D01*
G01X311068Y127408D02*
X314718Y130563D01*
G01D02*
X318368Y127408D01*
G01X307788Y126000D02*
X309538Y127750D01*
G01X307788Y126000D02*
Y127750D01*
G01X304268Y130180D02*
X306018Y131930D01*
G01D02*
X307768Y130180D01*
G01X303800Y162300D02*
X303818Y162318D01*
G01Y177682D02*
Y170200D01*
G01Y162318D02*
Y170200D01*
G01D02*
X310518Y175784D01*
G01X303818Y170200D02*
X310518Y164616D01*
G01X281968Y233580D02*
X283718Y235330D01*
G01D02*
X285468Y233580D01*
G01X278098Y228050D02*
X279848Y229800D01*
G01X278098Y231550D02*
X279848Y229800D01*
G01X278098Y222550D02*
X279848Y224300D01*
G01X278098Y226050D02*
X279848Y224300D01*
G01X303800Y177700D02*
X303818Y177682D01*
G01X313198Y186450D02*
X314948Y188200D01*
G01X313198Y189950D02*
X314948Y188200D01*
G01X321318Y238700D02*
X329900D01*
G01X315200Y238600D02*
X315300Y238700D01*
G01D02*
X321318D01*
G01D02*
X326902Y245400D01*
G01X315735D02*
X321318Y238700D01*
G01X304968Y233680D02*
X306718Y235430D01*
G01D02*
X308468Y233680D01*
G01X286668Y309580D02*
X288418Y311330D01*
G01D02*
X290168Y309580D01*
G01X282798Y298550D02*
X284548Y300300D01*
G01X282798Y302050D02*
X284548Y300300D01*
G01X282798Y304050D02*
X284548Y305800D01*
G01X282798Y307550D02*
X284548Y305800D01*
G01X326118Y311800D02*
X334700D01*
G01X318900Y311700D02*
X319000Y311800D01*
G01D02*
X326118D01*
G01D02*
X331702Y318500D01*
G01X320535D02*
X326118Y311800D01*
G01X309668Y309680D02*
X311418Y311430D01*
G01D02*
X313168Y309680D01*
G01X306618Y379100D02*
Y372700D01*
G01X296618Y379100D02*
Y374400D01*
X296718Y374300D01*
G01X291618Y384100D02*
Y385600D01*
X289718Y387500D01*
G01X378174Y87149D02*
X381420Y93656D01*
G01D02*
X384666Y87149D01*
G01X382227Y98085D02*
X371785D01*
G01X381420Y112750D02*
X384666Y119258D01*
G01X378174D02*
X381420Y112750D01*
G01X351768Y161750D02*
X355118Y165100D01*
G01D02*
X358468Y168450D01*
G01X351768D02*
X355118Y165100D01*
G01D02*
X358468Y161750D01*
G01X378174Y240749D02*
X381420Y247256D01*
G01D02*
X384666Y240749D01*
G01X381420Y266350D02*
X384666Y272858D01*
G01X378174D02*
X381420Y266350D01*
G01X351768Y314450D02*
X355118Y317800D01*
G01D02*
X358468Y321150D01*
G01X351768D02*
X355118Y317800D01*
G01D02*
X358468Y314450D01*
G54D59*
X238382Y286253D03*
X236413D03*
X234445D03*
X232476D03*
X230508D03*
X228539D03*
X226571D03*
X224602D03*
X222634D03*
X220665D03*
X218697D03*
X216728D03*
X214760D03*
X212791D03*
X210823D03*
X208854D03*
Y330347D03*
X210823D03*
X212791D03*
X214760D03*
X216728D03*
X218697D03*
X220665D03*
X222634D03*
X224602D03*
X226571D03*
X228539D03*
X230508D03*
X232476D03*
X234445D03*
X236413D03*
X238382D03*
G54D77*
X306618Y379100D03*
Y384100D03*
X301618Y379100D03*
Y384100D03*
X296618D03*
Y379100D03*
X291618Y384100D03*
Y379100D03*
X286618Y384100D03*
Y379100D03*
G54D68*
X325318Y31798D03*
X314818Y31698D03*
X325318Y44002D03*
X314818Y43902D03*
G54D86*
X391479Y114965D03*
Y268565D03*
G54D96*
G01X264718Y66437D02*
Y70987D01*
G01X256718Y65453D02*
Y68853D01*
G01X275718Y66602D02*
Y73100D01*
G01X326318Y59700D02*
X318818D01*
G01X393349Y87651D02*
X393400Y87600D01*
G01X393349Y92475D02*
Y87651D01*
G01X394136Y95909D02*
Y93262D01*
X393349Y92475D01*
G01X394136Y99414D02*
Y102919D01*
G01X388515Y99414D02*
X394136D01*
G01D02*
Y95909D01*
G01X393349Y119749D02*
X393400Y119800D01*
G01X393349Y113932D02*
Y119749D01*
G01X394136Y103487D02*
Y106993D01*
G01X388515D02*
X394136D01*
G01Y110498D02*
Y113144D01*
X393349Y113932D01*
G01X394136Y106993D02*
Y110498D01*
G01X393349Y246075D02*
Y252226D01*
X394136Y253014D01*
G01X393349Y241351D02*
X393400Y241300D01*
G01X393349Y246075D02*
Y241351D01*
G01X388515Y260593D02*
X394136D01*
G01Y257087D02*
Y260593D01*
G01X388515Y253014D02*
X394136D01*
G01D02*
Y256519D01*
G01Y249508D02*
Y253014D01*
G01X393349Y272751D02*
X393300Y272800D01*
G01X393349Y267532D02*
Y272751D01*
G01X394136Y264098D02*
Y266744D01*
X393349Y267532D01*
G01X394136Y260593D02*
Y264098D01*
G54D87*
G01X195300Y468000D02*
Y471000D01*
G01X197200D02*
X195300Y469150D01*
G01X197500Y468000D02*
X196150Y470000D01*
G01X198350Y468000D02*
X199600Y471000D01*
X200850Y468000D01*
G01X200400Y469050D02*
X198800D01*
G01X43093Y-207500D02*
Y-197500D01*
X47843D01*
G01X46093Y-202333D02*
X43093D01*
G01X53968Y-197500D02*
X56968D01*
G01X55468D02*
Y-207500D01*
G01X53968D02*
X56968D01*
G01X62968Y-197500D02*
Y-207500D01*
X67968D01*
G01X72218D02*
Y-197500D01*
X75468Y-205833D01*
X78718Y-197500D01*
Y-207500D01*
G01X92968Y-197500D02*
Y-207500D01*
X97968D01*
G01X102343D02*
X105468Y-197500D01*
X108593Y-207500D01*
G01X107468Y-204000D02*
X103468D01*
G01X115468Y-207500D02*
Y-203000D01*
X112968Y-197500D01*
G01X117968D02*
X115468Y-203000D01*
G01X127968Y-207500D02*
X122968D01*
Y-197500D01*
X127968D01*
G01X125968Y-202333D02*
X122968D01*
G01X132968Y-207500D02*
Y-197500D01*
X136093D01*
X137093Y-198000D01*
X137718Y-198667D01*
X137968Y-200000D01*
X137718Y-201333D01*
X136968Y-202167D01*
X136093Y-202667D01*
X132968D01*
G01X136093D02*
X137968Y-207500D01*
G01X145468Y-207833D02*
X145218Y-207667D01*
Y-207333D01*
X145468Y-207167D01*
X145718Y-207333D01*
Y-207667D01*
X145468Y-207833D01*
G01Y-203334D02*
X145218Y-203167D01*
Y-202833D01*
X145468Y-202667D01*
X145718Y-202833D01*
Y-203167D01*
X145468Y-203334D01*
G01X48218Y-179834D02*
X47468Y-179333D01*
X46593Y-179000D01*
X45593D01*
X44468Y-179500D01*
X43593Y-180333D01*
X42968Y-181333D01*
X42468Y-183000D01*
X42343Y-184500D01*
X42593Y-186000D01*
X42968Y-187000D01*
X43718Y-188000D01*
X44593Y-188667D01*
X45468Y-189000D01*
X46343D01*
X47218Y-188667D01*
X47968Y-188167D01*
X48593Y-187500D01*
G01X52343Y-189000D02*
X55468Y-179000D01*
X58593Y-189000D01*
G01X57468Y-185500D02*
X53468D01*
G01X62968Y-189000D02*
Y-179000D01*
X66093D01*
X67093Y-179500D01*
X67718Y-180167D01*
X67968Y-181500D01*
X67718Y-182833D01*
X66968Y-183667D01*
X66093Y-184167D01*
X62968D01*
G01X66093D02*
X67968Y-189000D01*
G01X72718D02*
Y-179000D01*
X75218D01*
X76218Y-179500D01*
X76968Y-180167D01*
X77593Y-181166D01*
X78093Y-182334D01*
X78218Y-184000D01*
X78093Y-185667D01*
X77593Y-186834D01*
X76968Y-187834D01*
X76218Y-188500D01*
X75218Y-189000D01*
X72718D01*
G01X92968D02*
Y-179000D01*
X96093D01*
X97093Y-179500D01*
X97718Y-180167D01*
X97968Y-181500D01*
X97718Y-182833D01*
X96968Y-183667D01*
X96093Y-184167D01*
X92968D01*
G01X96093D02*
X97968Y-189000D01*
G01X107968D02*
X102968D01*
Y-179000D01*
X107968D01*
G01X105968Y-183833D02*
X102968D01*
G01X113093Y-189000D02*
Y-179000D01*
X117843D01*
G01X116093Y-183833D02*
X113093D01*
G01X125468Y-189333D02*
X125218Y-189167D01*
Y-188833D01*
X125468Y-188667D01*
X125718Y-188833D01*
Y-189167D01*
X125468Y-189333D01*
G01Y-184834D02*
X125218Y-184667D01*
Y-184333D01*
X125468Y-184167D01*
X125718Y-184333D01*
Y-184667D01*
X125468Y-184834D01*
G01X135468Y-189000D02*
X134468Y-188833D01*
X133593Y-188167D01*
X132843Y-187167D01*
X132343Y-186000D01*
X132093Y-184667D01*
Y-183333D01*
X132343Y-182000D01*
X132843Y-180833D01*
X133593Y-179834D01*
X134468Y-179167D01*
X135468Y-179000D01*
X136468Y-179167D01*
X137343Y-179834D01*
X138093Y-180833D01*
X138593Y-182000D01*
X138843Y-183333D01*
Y-184667D01*
X138593Y-186000D01*
X138093Y-187167D01*
X137343Y-188167D01*
X136468Y-188833D01*
X135468Y-189000D01*
G01X143218Y-192333D02*
Y-182334D01*
G01Y-183833D02*
X143843Y-183000D01*
X144468Y-182500D01*
X145468Y-182334D01*
X146343Y-182500D01*
X147218Y-183333D01*
X147593Y-184500D01*
X147718Y-185667D01*
X147593Y-186834D01*
X147218Y-188000D01*
X146468Y-188667D01*
X145468Y-189000D01*
X144593Y-188833D01*
X143718Y-188334D01*
X143218Y-187667D01*
G01X153593Y-184500D02*
X157593D01*
X157218Y-183333D01*
X156593Y-182667D01*
X155718Y-182334D01*
X154843Y-182500D01*
X154093Y-183000D01*
X153593Y-184167D01*
X153343Y-185167D01*
Y-186167D01*
X153593Y-187167D01*
X154218Y-188167D01*
X154968Y-188833D01*
X155843Y-189000D01*
X156718Y-188667D01*
X157593Y-187667D01*
G01X163343Y-189000D02*
Y-182334D01*
G01Y-184000D02*
X163843Y-183167D01*
X164593Y-182500D01*
X165593Y-182334D01*
X166468Y-182500D01*
X167218Y-183167D01*
X167593Y-184333D01*
Y-189000D01*
G01X178218Y-179834D02*
X177468Y-179333D01*
X176593Y-179000D01*
X175593D01*
X174468Y-179500D01*
X173593Y-180333D01*
X172968Y-181333D01*
X172468Y-183000D01*
X172343Y-184500D01*
X172593Y-186000D01*
X172968Y-187000D01*
X173718Y-188000D01*
X174593Y-188667D01*
X175468Y-189000D01*
X176343D01*
X177218Y-188667D01*
X177968Y-188167D01*
X178593Y-187500D01*
G01X183593Y-184500D02*
X187593D01*
X187218Y-183333D01*
X186593Y-182667D01*
X185718Y-182334D01*
X184843Y-182500D01*
X184093Y-183000D01*
X183593Y-184167D01*
X183343Y-185167D01*
Y-186167D01*
X183593Y-187167D01*
X184218Y-188167D01*
X184968Y-188833D01*
X185843Y-189000D01*
X186718Y-188667D01*
X187593Y-187667D01*
G01X195468Y-189000D02*
Y-179000D01*
G01X205468Y-189000D02*
Y-179000D01*
G01X213343Y-182334D02*
Y-187000D01*
X213843Y-188167D01*
X214593Y-188833D01*
X215468Y-189000D01*
X216343Y-188833D01*
X217093Y-188167D01*
X217593Y-187000D01*
G01Y-189000D02*
Y-182334D01*
G01X225468Y-189000D02*
Y-179000D01*
G01X237718Y-189000D02*
Y-182334D01*
G01Y-183500D02*
X237218Y-182833D01*
X236468Y-182500D01*
X235593Y-182334D01*
X234718Y-182667D01*
X233968Y-183333D01*
X233468Y-184333D01*
X233218Y-185667D01*
X233468Y-187000D01*
X233968Y-188000D01*
X234718Y-188667D01*
X235593Y-189000D01*
X236468Y-188833D01*
X237218Y-188334D01*
X237718Y-187667D01*
G01X243718Y-189000D02*
Y-182334D01*
G01Y-183667D02*
X244343Y-183000D01*
X244968Y-182500D01*
X245843Y-182334D01*
X246468Y-182500D01*
X247218Y-183000D01*
G01X265468Y-189000D02*
Y-179000D01*
G01X278218Y-179834D02*
X277468Y-179333D01*
X276593Y-179000D01*
X275593D01*
X274468Y-179500D01*
X273593Y-180333D01*
X272968Y-181333D01*
X272468Y-183000D01*
X272343Y-184500D01*
X272593Y-186000D01*
X272968Y-187000D01*
X273718Y-188000D01*
X274593Y-188667D01*
X275468Y-189000D01*
X276343D01*
X277218Y-188667D01*
X277968Y-188167D01*
X278593Y-187500D01*
G01X285468Y-189000D02*
X284718Y-188833D01*
X283968Y-188167D01*
X283468Y-187000D01*
X283218Y-185667D01*
X283468Y-184333D01*
X283968Y-183167D01*
X284718Y-182500D01*
X285468Y-182334D01*
X286218Y-182500D01*
X286968Y-183167D01*
X287468Y-184333D01*
X287593Y-185667D01*
X287468Y-187000D01*
X286968Y-188167D01*
X286218Y-188833D01*
X285468Y-189000D01*
G01X293343D02*
Y-182334D01*
G01Y-184000D02*
X293843Y-183167D01*
X294593Y-182500D01*
X295593Y-182334D01*
X296468Y-182500D01*
X297218Y-183167D01*
X297593Y-184333D01*
Y-189000D01*
G01X303343D02*
Y-182334D01*
G01Y-184000D02*
X303843Y-183167D01*
X304593Y-182500D01*
X305593Y-182334D01*
X306468Y-182500D01*
X307218Y-183167D01*
X307593Y-184333D01*
Y-189000D01*
G01X313593Y-184500D02*
X317593D01*
X317218Y-183333D01*
X316593Y-182667D01*
X315718Y-182334D01*
X314843Y-182500D01*
X314093Y-183000D01*
X313593Y-184167D01*
X313343Y-185167D01*
Y-186167D01*
X313593Y-187167D01*
X314218Y-188167D01*
X314968Y-188833D01*
X315843Y-189000D01*
X316718Y-188667D01*
X317593Y-187667D01*
G01X327468Y-183167D02*
X326593Y-182500D01*
X325843Y-182334D01*
X324843Y-182667D01*
X324093Y-183333D01*
X323593Y-184500D01*
X323468Y-185667D01*
X323593Y-186834D01*
X324093Y-187834D01*
X324843Y-188667D01*
X325843Y-189000D01*
X326718Y-188667D01*
X327468Y-188000D01*
G01X335468Y-179000D02*
Y-189000D01*
G01X333718Y-182334D02*
X337218D01*
G01X343843Y-185667D02*
X347093D01*
G01X355468Y-189000D02*
Y-179000D01*
X353968Y-181000D01*
G01Y-189000D02*
X356968D01*
G01X375468D02*
Y-179000D01*
G01X382718Y-189000D02*
Y-179000D01*
X385218D01*
X386218Y-179500D01*
X386968Y-180167D01*
X387593Y-181166D01*
X388093Y-182334D01*
X388218Y-184000D01*
X388093Y-185667D01*
X387593Y-186834D01*
X386968Y-187834D01*
X386218Y-188500D01*
X385218Y-189000D01*
X382718D01*
G01X397968D02*
X392968D01*
Y-179000D01*
X397968D01*
G01X395968Y-183833D02*
X392968D01*
G01X406468Y-183667D02*
X406968Y-183167D01*
X407343Y-182334D01*
X407593Y-181166D01*
X407343Y-180167D01*
X406843Y-179500D01*
X405968Y-179000D01*
X402593D01*
Y-189000D01*
X406718D01*
X407593Y-188334D01*
X408093Y-187333D01*
X408343Y-186167D01*
X408093Y-185000D01*
X407343Y-184000D01*
X406468Y-183667D01*
X402593D01*
G01X412718Y-179000D02*
Y-186167D01*
X413218Y-187667D01*
X414218Y-188667D01*
X415468Y-189000D01*
X416718Y-188667D01*
X417718Y-187667D01*
X418218Y-186167D01*
Y-179000D01*
G01X426218Y-184000D02*
X428718D01*
Y-187000D01*
X427968Y-188000D01*
X427093Y-188667D01*
X425843Y-189000D01*
X424593Y-188667D01*
X423718Y-188000D01*
X422968Y-187000D01*
X422468Y-185833D01*
X422218Y-184500D01*
Y-183333D01*
X422468Y-182334D01*
X422968Y-181166D01*
X423718Y-180167D01*
X424468Y-179500D01*
X425468Y-179000D01*
X426343D01*
X427343Y-179333D01*
X428093Y-180000D01*
G01X431718Y-192333D02*
X439218D01*
G01X446468Y-183667D02*
X446968Y-183167D01*
X447343Y-182334D01*
X447593Y-181166D01*
X447343Y-180167D01*
X446843Y-179500D01*
X445968Y-179000D01*
X442593D01*
Y-189000D01*
X446718D01*
X447593Y-188334D01*
X448093Y-187333D01*
X448343Y-186167D01*
X448093Y-185000D01*
X447343Y-184000D01*
X446468Y-183667D01*
X442593D01*
G01X455468Y-189000D02*
X454468Y-188833D01*
X453593Y-188167D01*
X452843Y-187167D01*
X452343Y-186000D01*
X452093Y-184667D01*
Y-183333D01*
X452343Y-182000D01*
X452843Y-180833D01*
X453593Y-179834D01*
X454468Y-179167D01*
X455468Y-179000D01*
X456468Y-179167D01*
X457343Y-179834D01*
X458093Y-180833D01*
X458593Y-182000D01*
X458843Y-183333D01*
Y-184667D01*
X458593Y-186000D01*
X458093Y-187167D01*
X457343Y-188167D01*
X456468Y-188833D01*
X455468Y-189000D01*
G01X462343D02*
X465468Y-179000D01*
X468593Y-189000D01*
G01X467468Y-185500D02*
X463468D01*
G01X472968Y-189000D02*
Y-179000D01*
X476093D01*
X477093Y-179500D01*
X477718Y-180167D01*
X477968Y-181500D01*
X477718Y-182833D01*
X476968Y-183667D01*
X476093Y-184167D01*
X472968D01*
G01X476093D02*
X477968Y-189000D01*
G01X482718D02*
Y-179000D01*
X485218D01*
X486218Y-179500D01*
X486968Y-180167D01*
X487593Y-181166D01*
X488093Y-182334D01*
X488218Y-184000D01*
X488093Y-185667D01*
X487593Y-186834D01*
X486968Y-187834D01*
X486218Y-188500D01*
X485218Y-189000D01*
X482718D01*
G01X42718Y-149000D02*
Y-139000D01*
X45218D01*
X46218Y-139500D01*
X46968Y-140167D01*
X47593Y-141166D01*
X48093Y-142334D01*
X48218Y-144000D01*
X48093Y-145667D01*
X47593Y-146834D01*
X46968Y-147834D01*
X46218Y-148500D01*
X45218Y-149000D01*
X42718D01*
G01X52343D02*
X55468Y-139000D01*
X58593Y-149000D01*
G01X57468Y-145500D02*
X53468D01*
G01X65468Y-139000D02*
Y-149000D01*
G01X62593Y-139000D02*
X68343D01*
G01X77968Y-149000D02*
X72968D01*
Y-139000D01*
X77968D01*
G01X75968Y-143833D02*
X72968D01*
G01X85468Y-149333D02*
X85218Y-149167D01*
Y-148833D01*
X85468Y-148667D01*
X85718Y-148833D01*
Y-149167D01*
X85468Y-149333D01*
G01Y-144834D02*
X85218Y-144667D01*
Y-144333D01*
X85468Y-144167D01*
X85718Y-144333D01*
Y-144667D01*
X85468Y-144834D01*
G01X95468Y-139000D02*
X94468Y-139333D01*
X93718Y-140167D01*
X93218Y-141166D01*
X92843Y-142500D01*
X92718Y-144000D01*
X92843Y-145500D01*
X93218Y-146834D01*
X93718Y-147834D01*
X94468Y-148667D01*
X95468Y-149000D01*
X96468Y-148667D01*
X97218Y-147834D01*
X97718Y-146834D01*
X98093Y-145500D01*
X98218Y-144000D01*
X98093Y-142500D01*
X97718Y-141166D01*
X97218Y-140167D01*
X96468Y-139333D01*
X95468Y-139000D01*
G01X102718Y-147000D02*
X103468Y-148167D01*
X104468Y-148833D01*
X105593Y-149000D01*
X106593Y-148833D01*
X107593Y-148000D01*
X108218Y-147000D01*
X108343Y-146000D01*
X108093Y-144834D01*
X107218Y-144000D01*
X106343Y-143667D01*
X105218D01*
G01X106343D02*
X107093Y-143167D01*
X107718Y-142334D01*
X107968Y-141333D01*
X107718Y-140333D01*
X107093Y-139500D01*
X105968Y-139000D01*
X104843Y-139167D01*
X103718Y-139834D01*
G01X113843Y-145667D02*
X117093D01*
G01X125468Y-139000D02*
X124468Y-139333D01*
X123718Y-140167D01*
X123218Y-141166D01*
X122843Y-142500D01*
X122718Y-144000D01*
X122843Y-145500D01*
X123218Y-146834D01*
X123718Y-147834D01*
X124468Y-148667D01*
X125468Y-149000D01*
X126468Y-148667D01*
X127218Y-147834D01*
X127718Y-146834D01*
X128093Y-145500D01*
X128218Y-144000D01*
X128093Y-142500D01*
X127718Y-141166D01*
X127218Y-140167D01*
X126468Y-139333D01*
X125468Y-139000D01*
G01X133093Y-144834D02*
X133968Y-143667D01*
X134718Y-143000D01*
X135718Y-142667D01*
X136593Y-143000D01*
X137218Y-143667D01*
X137718Y-144667D01*
X137843Y-145833D01*
X137718Y-146834D01*
X137218Y-147834D01*
X136468Y-148667D01*
X135593Y-149000D01*
X134593Y-148667D01*
X133718Y-147667D01*
X133218Y-146167D01*
X133093Y-144500D01*
X133343Y-142334D01*
X133718Y-141166D01*
X134343Y-140000D01*
X135218Y-139167D01*
X136093Y-139000D01*
X136968Y-139333D01*
X137593Y-140167D01*
G01X143843Y-145667D02*
X147093D01*
G01X153093Y-140667D02*
X153843Y-139667D01*
X154718Y-139167D01*
X155718Y-139000D01*
X156968Y-139333D01*
X157843Y-140167D01*
X158093Y-141166D01*
X157968Y-142167D01*
X157468Y-143000D01*
X154968Y-144667D01*
X153843Y-145833D01*
X153093Y-147500D01*
X152843Y-149000D01*
X158093D01*
G01X165468Y-139000D02*
X164468Y-139333D01*
X163718Y-140167D01*
X163218Y-141166D01*
X162843Y-142500D01*
X162718Y-144000D01*
X162843Y-145500D01*
X163218Y-146834D01*
X163718Y-147834D01*
X164468Y-148667D01*
X165468Y-149000D01*
X166468Y-148667D01*
X167218Y-147834D01*
X167718Y-146834D01*
X168093Y-145500D01*
X168218Y-144000D01*
X168093Y-142500D01*
X167718Y-141166D01*
X167218Y-140167D01*
X166468Y-139333D01*
X165468Y-139000D01*
G01X175468Y-149000D02*
Y-139000D01*
X173968Y-141000D01*
G01Y-149000D02*
X176968D01*
G01X185218D02*
X185468Y-146834D01*
X185843Y-145000D01*
X186343Y-143333D01*
X186968Y-141500D01*
X187968Y-139000D01*
X182968D01*
G01X42718Y-169000D02*
Y-159000D01*
X45218D01*
X46218Y-159500D01*
X46968Y-160167D01*
X47593Y-161166D01*
X48093Y-162334D01*
X48218Y-164000D01*
X48093Y-165667D01*
X47593Y-166834D01*
X46968Y-167834D01*
X46218Y-168500D01*
X45218Y-169000D01*
X42718D01*
G01X57968D02*
X52968D01*
Y-159000D01*
X57968D01*
G01X55968Y-163833D02*
X52968D01*
G01X62843Y-167667D02*
X63843Y-168500D01*
X64968Y-169000D01*
X65968D01*
X66968Y-168500D01*
X67718Y-167667D01*
X68093Y-166500D01*
X67843Y-165334D01*
X67218Y-164333D01*
X66093Y-163667D01*
X64593Y-163333D01*
X63718Y-162667D01*
X63343Y-161500D01*
X63593Y-160333D01*
X64218Y-159500D01*
X65093Y-159000D01*
X65968D01*
X66843Y-159333D01*
X67593Y-160167D01*
G01X73968Y-159000D02*
X76968D01*
G01X75468D02*
Y-169000D01*
G01X73968D02*
X76968D01*
G01X86218Y-164000D02*
X88718D01*
Y-167000D01*
X87968Y-168000D01*
X87093Y-168667D01*
X85843Y-169000D01*
X84593Y-168667D01*
X83718Y-168000D01*
X82968Y-167000D01*
X82468Y-165833D01*
X82218Y-164500D01*
Y-163333D01*
X82468Y-162334D01*
X82968Y-161166D01*
X83718Y-160167D01*
X84468Y-159500D01*
X85468Y-159000D01*
X86343D01*
X87343Y-159333D01*
X88093Y-160000D01*
G01X92593Y-169000D02*
Y-159000D01*
X98343Y-169000D01*
Y-159000D01*
G01X107968Y-169000D02*
X102968D01*
Y-159000D01*
X107968D01*
G01X105968Y-163833D02*
X102968D01*
G01X112718Y-169000D02*
Y-159000D01*
X115218D01*
X116218Y-159500D01*
X116968Y-160167D01*
X117593Y-161166D01*
X118093Y-162334D01*
X118218Y-164000D01*
X118093Y-165667D01*
X117593Y-166834D01*
X116968Y-167834D01*
X116218Y-168500D01*
X115218Y-169000D01*
X112718D01*
G01X132343D02*
X135468Y-159000D01*
X138593Y-169000D01*
G01X137468Y-165500D02*
X133468D01*
G01X145468Y-159000D02*
Y-169000D01*
G01X142593Y-159000D02*
X148343D01*
G01X155468Y-169333D02*
X155218Y-169167D01*
Y-168833D01*
X155468Y-168667D01*
X155718Y-168833D01*
Y-169167D01*
X155468Y-169333D01*
G01Y-164834D02*
X155218Y-164667D01*
Y-164333D01*
X155468Y-164167D01*
X155718Y-164333D01*
Y-164667D01*
X155468Y-164834D01*
G01X0Y0D02*
X400000D01*
Y482677D01*
X0D01*
Y0D01*
G01X159468Y-207500D02*
Y-197500D01*
X162468D01*
X163468Y-198000D01*
X164218Y-199167D01*
X164468Y-200500D01*
X164218Y-201833D01*
X163593Y-202833D01*
X162468Y-203334D01*
X159468D01*
G01X169468Y-207500D02*
Y-197500D01*
X172593D01*
X173593Y-198000D01*
X174218Y-198667D01*
X174468Y-200000D01*
X174218Y-201333D01*
X173468Y-202167D01*
X172593Y-202667D01*
X169468D01*
G01X172593D02*
X174468Y-207500D01*
G01X180468Y-197500D02*
X183468D01*
G01X181968D02*
Y-207500D01*
G01X180468D02*
X183468D01*
G01X188718D02*
Y-197500D01*
X191968Y-205833D01*
X195218Y-197500D01*
Y-207500D01*
G01X198843D02*
X201968Y-197500D01*
X205093Y-207500D01*
G01X203968Y-204000D02*
X199968D01*
G01X209468Y-207500D02*
Y-197500D01*
X212593D01*
X213593Y-198000D01*
X214218Y-198667D01*
X214468Y-200000D01*
X214218Y-201333D01*
X213468Y-202167D01*
X212593Y-202667D01*
X209468D01*
G01X212593D02*
X214468Y-207500D01*
G01X221968D02*
Y-203000D01*
X219468Y-197500D01*
G01X224468D02*
X221968Y-203000D01*
G01X239343Y-206167D02*
X240343Y-207000D01*
X241468Y-207500D01*
X242468D01*
X243468Y-207000D01*
X244218Y-206167D01*
X244593Y-205000D01*
X244343Y-203834D01*
X243718Y-202833D01*
X242593Y-202167D01*
X241093Y-201833D01*
X240218Y-201167D01*
X239843Y-200000D01*
X240093Y-198833D01*
X240718Y-198000D01*
X241593Y-197500D01*
X242468D01*
X243343Y-197833D01*
X244093Y-198667D01*
G01X250468Y-197500D02*
X253468D01*
G01X251968D02*
Y-207500D01*
G01X250468D02*
X253468D01*
G01X259218D02*
Y-197500D01*
X261718D01*
X262718Y-198000D01*
X263468Y-198667D01*
X264093Y-199666D01*
X264593Y-200834D01*
X264718Y-202500D01*
X264593Y-204167D01*
X264093Y-205334D01*
X263468Y-206334D01*
X262718Y-207000D01*
X261718Y-207500D01*
X259218D01*
G01X274468D02*
X269468D01*
Y-197500D01*
X274468D01*
G01X272468Y-202333D02*
X269468D01*
G01X237968Y-149000D02*
Y-139000D01*
X240968D01*
X241968Y-139500D01*
X242718Y-140667D01*
X242968Y-142000D01*
X242718Y-143333D01*
X242093Y-144333D01*
X240968Y-144834D01*
X237968D01*
G01X247343Y-149000D02*
X250468Y-139000D01*
X253593Y-149000D01*
G01X252468Y-145500D02*
X248468D01*
G01X257968Y-149000D02*
Y-139000D01*
X261093D01*
X262093Y-139500D01*
X262718Y-140167D01*
X262968Y-141500D01*
X262718Y-142833D01*
X261968Y-143667D01*
X261093Y-144167D01*
X257968D01*
G01X261093D02*
X262968Y-149000D01*
G01X270468Y-139000D02*
Y-149000D01*
G01X267593Y-139000D02*
X273343D01*
G01X287593Y-149000D02*
Y-139000D01*
X293343Y-149000D01*
Y-139000D01*
G01X297718D02*
Y-146167D01*
X298218Y-147667D01*
X299218Y-148667D01*
X300468Y-149000D01*
X301718Y-148667D01*
X302718Y-147667D01*
X303218Y-146167D01*
Y-139000D01*
G01X307218Y-149000D02*
Y-139000D01*
X310468Y-147333D01*
X313718Y-139000D01*
Y-149000D01*
G01X321468Y-143667D02*
X321968Y-143167D01*
X322343Y-142334D01*
X322593Y-141166D01*
X322343Y-140167D01*
X321843Y-139500D01*
X320968Y-139000D01*
X317593D01*
Y-149000D01*
X321718D01*
X322593Y-148334D01*
X323093Y-147333D01*
X323343Y-146167D01*
X323093Y-145000D01*
X322343Y-144000D01*
X321468Y-143667D01*
X317593D01*
G01X332968Y-149000D02*
X327968D01*
Y-139000D01*
X332968D01*
G01X330968Y-143833D02*
X327968D01*
G01X337968Y-149000D02*
Y-139000D01*
X341093D01*
X342093Y-139500D01*
X342718Y-140167D01*
X342968Y-141500D01*
X342718Y-142833D01*
X341968Y-143667D01*
X341093Y-144167D01*
X337968D01*
G01X341093D02*
X342968Y-149000D01*
G01X350468Y-149333D02*
X350218Y-149167D01*
Y-148833D01*
X350468Y-148667D01*
X350718Y-148833D01*
Y-149167D01*
X350468Y-149333D01*
G01Y-144834D02*
X350218Y-144667D01*
Y-144333D01*
X350468Y-144167D01*
X350718Y-144333D01*
Y-144667D01*
X350468Y-144834D01*
G01X358093Y-140667D02*
X358843Y-139667D01*
X359718Y-139167D01*
X360718Y-139000D01*
X361968Y-139333D01*
X362843Y-140167D01*
X363093Y-141166D01*
X362968Y-142167D01*
X362468Y-143000D01*
X359968Y-144667D01*
X358843Y-145833D01*
X358093Y-147500D01*
X357843Y-149000D01*
X363093D01*
G01X367718Y-147000D02*
X368468Y-148167D01*
X369468Y-148833D01*
X370593Y-149000D01*
X371593Y-148833D01*
X372593Y-148000D01*
X373218Y-147000D01*
X373343Y-146000D01*
X373093Y-144834D01*
X372218Y-144000D01*
X371343Y-143667D01*
X370218D01*
G01X371343D02*
X372093Y-143167D01*
X372718Y-142334D01*
X372968Y-141333D01*
X372718Y-140333D01*
X372093Y-139500D01*
X370968Y-139000D01*
X369843Y-139167D01*
X368718Y-139834D01*
G01X380468Y-149000D02*
Y-139000D01*
X378968Y-141000D01*
G01Y-149000D02*
X381968D01*
G01X388843Y-145667D02*
X392093D01*
G01X400468Y-139000D02*
X399468Y-139333D01*
X398718Y-140167D01*
X398218Y-141166D01*
X397843Y-142500D01*
X397718Y-144000D01*
X397843Y-145500D01*
X398218Y-146834D01*
X398718Y-147834D01*
X399468Y-148667D01*
X400468Y-149000D01*
X401468Y-148667D01*
X402218Y-147834D01*
X402718Y-146834D01*
X403093Y-145500D01*
X403218Y-144000D01*
X403093Y-142500D01*
X402718Y-141166D01*
X402218Y-140167D01*
X401468Y-139333D01*
X400468Y-139000D01*
G01X410468D02*
X409468Y-139333D01*
X408718Y-140167D01*
X408218Y-141166D01*
X407843Y-142500D01*
X407718Y-144000D01*
X407843Y-145500D01*
X408218Y-146834D01*
X408718Y-147834D01*
X409468Y-148667D01*
X410468Y-149000D01*
X411468Y-148667D01*
X412218Y-147834D01*
X412718Y-146834D01*
X413093Y-145500D01*
X413218Y-144000D01*
X413093Y-142500D01*
X412718Y-141166D01*
X412218Y-140167D01*
X411468Y-139333D01*
X410468Y-139000D01*
G01X420468D02*
X419468Y-139333D01*
X418718Y-140167D01*
X418218Y-141166D01*
X417843Y-142500D01*
X417718Y-144000D01*
X417843Y-145500D01*
X418218Y-146834D01*
X418718Y-147834D01*
X419468Y-148667D01*
X420468Y-149000D01*
X421468Y-148667D01*
X422218Y-147834D01*
X422718Y-146834D01*
X423093Y-145500D01*
X423218Y-144000D01*
X423093Y-142500D01*
X422718Y-141166D01*
X422218Y-140167D01*
X421468Y-139333D01*
X420468Y-139000D01*
G01X430468D02*
X429468Y-139333D01*
X428718Y-140167D01*
X428218Y-141166D01*
X427843Y-142500D01*
X427718Y-144000D01*
X427843Y-145500D01*
X428218Y-146834D01*
X428718Y-147834D01*
X429468Y-148667D01*
X430468Y-149000D01*
X431468Y-148667D01*
X432218Y-147834D01*
X432718Y-146834D01*
X433093Y-145500D01*
X433218Y-144000D01*
X433093Y-142500D01*
X432718Y-141166D01*
X432218Y-140167D01*
X431468Y-139333D01*
X430468Y-139000D01*
G01X438093Y-144834D02*
X438968Y-143667D01*
X439718Y-143000D01*
X440718Y-142667D01*
X441593Y-143000D01*
X442218Y-143667D01*
X442718Y-144667D01*
X442843Y-145833D01*
X442718Y-146834D01*
X442218Y-147834D01*
X441468Y-148667D01*
X440593Y-149000D01*
X439593Y-148667D01*
X438718Y-147667D01*
X438218Y-146167D01*
X438093Y-144500D01*
X438343Y-142334D01*
X438718Y-141166D01*
X439343Y-140000D01*
X440218Y-139167D01*
X441093Y-139000D01*
X441968Y-139333D01*
X442593Y-140167D01*
G01X448343Y-147834D02*
X449218Y-148667D01*
X450218Y-149000D01*
X451218Y-148667D01*
X452093Y-147667D01*
X452718Y-146167D01*
X452968Y-144667D01*
Y-142833D01*
X452718Y-141333D01*
X452093Y-140000D01*
X451343Y-139333D01*
X450468Y-139000D01*
X449468Y-139333D01*
X448718Y-140000D01*
X448218Y-141000D01*
X447968Y-142334D01*
X448218Y-143500D01*
X448843Y-144667D01*
X449593Y-145334D01*
X450468Y-145500D01*
X451468Y-145167D01*
X452218Y-144333D01*
X452968Y-142833D01*
G01X521418Y-178733D02*
Y-188733D01*
X526418D01*
G01X533918Y-182067D02*
Y-188733D01*
G01Y-179400D02*
X533668Y-179234D01*
Y-178900D01*
X533918Y-178733D01*
X534168Y-178900D01*
Y-179234D01*
X533918Y-179400D01*
G01X543168Y-188733D02*
Y-180233D01*
X543418Y-179400D01*
X543918Y-178900D01*
X544668Y-178733D01*
X545418Y-179067D01*
X545793Y-179900D01*
G01X544293Y-182734D02*
X541793D01*
G01X552043Y-184233D02*
X556043D01*
X555668Y-183067D01*
X555043Y-182400D01*
X554168Y-182067D01*
X553293Y-182234D01*
X552543Y-182734D01*
X552043Y-183900D01*
X551793Y-184900D01*
Y-185900D01*
X552043Y-186900D01*
X552668Y-187900D01*
X553418Y-188567D01*
X554293Y-188733D01*
X555168Y-188400D01*
X556043Y-187400D01*
G01X562293Y-185400D02*
X565543D01*
G01X571168Y-186734D02*
X571918Y-187900D01*
X572918Y-188567D01*
X574043Y-188733D01*
X575043Y-188567D01*
X576043Y-187734D01*
X576668Y-186734D01*
X576793Y-185733D01*
X576543Y-184567D01*
X575668Y-183734D01*
X574793Y-183400D01*
X573668D01*
G01X574793D02*
X575543Y-182900D01*
X576168Y-182067D01*
X576418Y-181067D01*
X576168Y-180067D01*
X575543Y-179234D01*
X574418Y-178733D01*
X573293Y-178900D01*
X572168Y-179567D01*
G54D78*
X311618Y377600D03*
Y385600D03*
X281618Y381600D03*
G54D69*
X334192Y100969D03*
Y99000D03*
Y97031D03*
Y95063D03*
X337244D03*
Y97031D03*
Y99000D03*
Y100969D03*
X334192Y102937D03*
X337244D03*
X340490Y173958D03*
Y171990D03*
X343542D03*
Y173958D03*
X340490Y179864D03*
Y177896D03*
Y175926D03*
X343542D03*
Y177896D03*
Y179864D03*
Y254463D03*
Y256431D03*
Y258400D03*
Y260369D03*
Y262337D03*
X340490D03*
Y260369D03*
Y258400D03*
Y256431D03*
Y254463D03*
Y332564D03*
Y330596D03*
Y328626D03*
Y326658D03*
Y324690D03*
X343542D03*
Y326658D03*
Y328626D03*
Y330596D03*
Y332564D03*
G54D97*
G01X163070Y338870D02*
X165918D01*
G01X119620Y214468D02*
X119718Y214370D01*
G01X119620Y214468D02*
X119718D01*
G01X119620D02*
X116373D01*
X114664Y212760D01*
X111218D01*
G01X83848Y252200D02*
Y249700D01*
G01X90418Y267294D02*
Y271318D01*
G01X88449Y267294D02*
Y271151D01*
G01X205718Y197700D02*
X200962D01*
G01X201571Y301410D02*
X205908D01*
X207218Y300100D01*
Y300048D01*
X207228Y300038D01*
G01X186449Y247900D02*
X191205D01*
G01D02*
X195961D01*
G01X201571Y303379D02*
X201650Y303300D01*
X206618D01*
X207718Y304400D01*
G01X200000Y371500D02*
X204669D01*
G01X175987Y354368D02*
X176118Y354500D01*
G01X194316Y321095D02*
X194218Y321194D01*
G01X208418Y321300D02*
X208218Y321100D01*
X201576D01*
X201571Y321095D01*
G01X187718Y321111D02*
X190968D01*
X190984Y321095D01*
X194316D01*
G01X187718Y321111D02*
X182929D01*
X182918Y321100D01*
G01X194316Y321095D02*
X201571D01*
G01X168870Y335130D02*
X165918D01*
G01X175048Y326700D02*
Y328564D01*
X173717Y329894D01*
G01X276218Y16870D02*
Y20000D01*
G01X252662Y247000D02*
X257418D01*
G01D02*
X262174D01*
G01X237487Y197468D02*
X233116D01*
X233018Y197370D01*
G01X257687Y278900D02*
X260887D01*
G01X257687D02*
X257588D01*
G01X245665Y297473D02*
X245639Y297500D01*
X241418D01*
X239618Y295700D01*
G01X245665Y305347D02*
X240071D01*
X239118Y306300D01*
Y306800D01*
X239318D01*
G01X233693Y247900D02*
X238449D01*
G01X210071D02*
X214827D01*
G01D02*
X219583D01*
G01X238449D02*
X243205D01*
G01X245665Y301410D02*
X241228D01*
X239118Y299300D01*
G01X247500Y388256D02*
Y391500D01*
X245500Y393500D01*
G01X224800Y371300D02*
X224749Y371250D01*
X219669D01*
G01X204669Y371500D02*
X209600D01*
X209700Y371400D01*
G01X219669Y371250D02*
X215250D01*
X215200Y371200D01*
X215000D01*
G01X218697Y340130D02*
Y330347D01*
G01X218718Y325200D02*
X218697Y325221D01*
Y330347D01*
G01X250700Y397300D02*
Y394100D01*
X249468Y392868D01*
Y388256D01*
G01X268694Y440824D02*
Y435194D01*
X267200Y433700D01*
G01X274599Y440824D02*
Y434501D01*
X275400Y433700D01*
G01X274599Y463376D02*
Y470095D01*
X274604Y470100D01*
G01X268694Y463376D02*
Y470095D01*
X268698Y470100D01*
G01X216244Y416500D02*
X211500D01*
G01X298365Y28700D02*
X301765D01*
G01X294224Y313238D02*
Y316394D01*
X293018Y317600D01*
G01X283950Y311232D02*
X283918Y311200D01*
G01X280505Y440824D02*
Y434105D01*
X280500Y434100D01*
G01X286410Y440824D02*
Y434105D01*
X286406Y434100D01*
G01X325780Y440824D02*
Y434105D01*
X325776Y434100D01*
G01X292316Y463376D02*
Y470095D01*
X292320Y470100D01*
G01X286410Y463376D02*
Y470095D01*
X286415Y470100D01*
G01X280505Y463376D02*
Y470095D01*
X280509Y470100D01*
G01X325780Y463376D02*
Y467480D01*
X329000Y470700D01*
G01X298221Y463376D02*
Y470579D01*
X297100Y471700D01*
G01X298221Y440824D02*
Y434900D01*
X297021Y433700D01*
X296600D01*
G01X304127Y440824D02*
Y433827D01*
X299350Y429050D01*
G01X315938Y440824D02*
Y435262D01*
X318700Y432500D01*
G01X304127Y463376D02*
Y470095D01*
X305516Y471484D01*
G01X292316Y440824D02*
Y433316D01*
X292000Y433000D01*
G01X310032Y440824D02*
Y426800D01*
G54D88*
G01X92446Y55374D02*
Y51328D01*
X91239Y50120D01*
G01X92446Y58426D02*
Y55374D01*
G01Y59300D02*
Y58426D01*
G01X117918D02*
Y55374D01*
G01X105682Y58426D02*
Y55374D01*
G01Y58426D02*
Y59300D01*
G01X117918Y58426D02*
Y59300D01*
G01X96383D02*
Y58426D01*
G01D02*
Y55374D01*
G01D02*
Y48865D01*
X95176Y47658D01*
Y42559D01*
G01X94415Y59300D02*
Y58426D01*
G01D02*
Y55374D01*
G01D02*
Y49767D01*
X93207Y48559D01*
Y42559D01*
G01X88509Y58426D02*
Y59100D01*
G01Y55374D02*
X84368D01*
G01Y43359D02*
X85168Y42559D01*
X87302D01*
G01X88509Y58426D02*
Y55374D01*
G01X88218Y51600D02*
X89270Y50548D01*
G01D02*
Y42559D01*
G01X101745Y55374D02*
Y51398D01*
X100918Y50571D01*
Y48722D01*
X101081Y48559D01*
Y42559D01*
G01X105018D02*
Y47618D01*
X105518Y48118D01*
Y50859D01*
X103713Y52664D01*
Y55374D01*
G01X106987Y42559D02*
Y48432D01*
X106918Y48500D01*
Y50900D01*
X107651Y51633D01*
Y55374D01*
G01Y58426D02*
Y55374D01*
G01X109619D02*
Y52399D01*
X111261Y50758D01*
Y50669D01*
X111318Y50611D01*
Y48789D01*
X111261Y48731D01*
Y48642D01*
X111118Y48500D01*
Y42754D01*
X110924Y42559D01*
G01X109619Y58426D02*
Y55374D01*
G01X113981Y58426D02*
Y55374D01*
G01D02*
Y52332D01*
X112718Y51069D01*
Y48789D01*
X113018Y48489D01*
Y42685D01*
X112892Y42559D01*
G01X115949Y58426D02*
Y55374D01*
G01D02*
Y52180D01*
X117118Y51011D01*
Y48989D01*
X116829Y48700D01*
Y42559D01*
G01X118798D02*
Y50880D01*
X119818Y51900D01*
Y53455D01*
X119887Y53524D01*
Y55374D01*
G01Y58426D02*
Y55374D01*
G01X122735Y42559D02*
Y48205D01*
X123218Y48689D01*
Y50571D01*
X121855Y51934D01*
Y55374D01*
G01Y58426D02*
Y55374D01*
G01X101557Y411443D02*
X102923Y410077D01*
X112429D01*
X116245Y406261D01*
Y404619D01*
X116449Y404415D01*
Y402203D01*
G01X120387D02*
Y404415D01*
X120795Y404823D01*
Y406301D01*
X122040Y407546D01*
Y409407D01*
X120242Y411206D01*
G01X101557Y407151D02*
X102923Y408517D01*
X111783D01*
X114685Y405615D01*
Y404619D01*
X114481Y404415D01*
Y402203D01*
G01X122355D02*
Y405655D01*
X123600Y406900D01*
Y410272D01*
X124534Y411206D01*
G01X217388Y198500D02*
X220200D01*
X225070Y193630D01*
X227518D01*
G01X233018D02*
X227518D01*
G01X237318Y193532D02*
X233116D01*
X233018Y193630D01*
G01X214818Y324800D02*
Y325700D01*
X214760Y325758D01*
Y330347D01*
G01X282300Y364900D02*
X280300D01*
X272700Y372500D01*
Y386600D01*
X278900Y392800D01*
X297918D01*
X306618Y384100D01*
G01X291100Y365000D02*
X287600Y368500D01*
X281700D01*
X275318Y374882D01*
Y385318D01*
X280500Y390500D01*
X294000D01*
X296618Y387882D01*
Y384100D01*
G01X219600Y411700D02*
X218606Y412694D01*
Y413980D01*
G01X334192Y99000D02*
X331400D01*
G01X337244D02*
X340100D01*
G01X340490Y175926D02*
X337926D01*
X337600Y175600D01*
G01X343542Y175926D02*
X346274D01*
X346500Y175700D01*
G01X343542Y177896D02*
X343950Y178304D01*
X352744D01*
X354718Y176330D01*
Y175342D01*
X355118Y174942D01*
G01X343542Y179864D02*
X353152D01*
X354718Y181430D01*
Y182416D01*
X355118Y182816D01*
G01X340490Y258400D02*
X337918D01*
X337218Y259100D01*
G01X343542Y258400D02*
X346400D01*
G01X340490Y328626D02*
X338145D01*
X337168Y327650D01*
G01X343542Y328626D02*
X346718D01*
G01X343542Y332564D02*
X344055D01*
X344232Y332386D01*
X353574D01*
X354718Y333531D01*
Y335116D01*
X355118Y335516D01*
G01X343542Y330596D02*
X344114D01*
X344345Y330826D01*
X353592D01*
X354718Y329700D01*
Y328042D01*
X355118Y327642D01*
G01X304200Y364700D02*
X303380Y363880D01*
Y360320D01*
G01X301618Y379100D02*
Y367282D01*
X304200Y364700D01*
G01X301806Y360320D02*
Y362813D01*
X299624Y364995D01*
G01D02*
X291618Y373000D01*
Y379100D01*
G01X290431Y360320D02*
Y361869D01*
X287400Y364900D01*
X282300D01*
G01X291100Y365000D02*
X292006Y364095D01*
Y360320D01*
G01X295400Y364800D02*
X289400Y370800D01*
X282800D01*
X277418Y376182D01*
Y383300D01*
X280018Y385900D01*
X284818D01*
X286618Y384100D01*
G01X295400Y364800D02*
X293580Y362980D01*
Y360320D01*
G54D79*
X381420Y91786D03*
Y114620D03*
Y245386D03*
Y268220D03*
G54D98*
G01X75450Y59000D02*
X72250D01*
G01X75450D02*
X75548D01*
G01X66035Y85130D02*
X62316D01*
X62218Y85032D01*
G01X66035Y85130D02*
X66118D01*
G01X76350Y275800D02*
X72618D01*
G01X76350D02*
X76448D01*
G01X106418Y289500D02*
X114418D01*
G01X187450Y297473D02*
X184691D01*
X184418Y297200D01*
X184250D01*
G01X187450Y297473D02*
X187548D01*
G01X187350Y289200D02*
X184150D01*
G01X187350D02*
X187448D01*
G01X187718Y327017D02*
Y330417D01*
G01X270620Y16968D02*
X270718Y16870D01*
G01X266750Y24000D02*
X263550D01*
G01X266750D02*
X266848D01*
G01X277820Y23732D02*
X274218D01*
G01X270620Y16968D02*
X266718D01*
G01X254818Y147568D02*
Y150768D01*
G01Y147568D02*
Y147470D01*
G01X250150Y132800D02*
X246950D01*
G01X250150D02*
X250248D01*
G01X275818Y170200D02*
X267818D01*
G01X254984Y214100D02*
Y205604D01*
G01X274518Y199668D02*
Y202868D01*
G01X227518Y197468D02*
Y200668D01*
G01X223488Y214100D02*
Y205604D01*
G01X231362Y214100D02*
Y205604D01*
G01X239236Y214100D02*
Y205604D01*
G01X247110Y214100D02*
Y205604D01*
G01X274518Y199668D02*
Y199570D01*
G01X227518Y197468D02*
Y197370D01*
G01X225918Y343968D02*
Y347168D01*
G01Y343968D02*
Y343870D01*
G01X218697Y343968D02*
Y347168D01*
G01Y343968D02*
Y343870D01*
G01X211718Y343968D02*
Y346700D01*
X211218Y347200D01*
G01X211718Y343968D02*
Y343870D01*
G01X305816Y13032D02*
X305718Y13130D01*
G01X277820Y23732D02*
X277918Y23830D01*
G01X307671Y28700D02*
Y26547D01*
X310518Y23700D01*
Y23500D01*
G01X305816Y13032D02*
X309218D01*
G01X298518Y102268D02*
Y105513D01*
G01Y102268D02*
Y102170D01*
G01X318787Y188102D02*
X318688Y188200D01*
G01X306718Y226332D02*
Y223132D01*
G01Y226332D02*
Y226430D01*
G01X283620Y239168D02*
X283718Y239070D01*
G01X297518Y185232D02*
Y182032D01*
G01Y185232D02*
Y185330D01*
G01X306718Y239269D02*
Y242469D01*
G01X321318Y210700D02*
Y202700D01*
G01X283620Y239168D02*
X280950D01*
X280018Y240100D01*
G01X306718Y239269D02*
Y239170D01*
G01X318787Y188102D02*
Y184800D01*
G01X287581Y202298D02*
X287680Y202200D01*
G01X296781Y243300D02*
X293581D01*
G01X287581Y202298D02*
Y206500D01*
G01X296781Y243300D02*
X296880D01*
G01X311418Y315268D02*
Y318468D01*
G01Y315268D02*
Y315170D01*
G01X288418Y315168D02*
Y318368D01*
G01Y315168D02*
Y315070D01*
G01X326118Y283800D02*
Y275800D01*
G01X311418Y302332D02*
Y299132D01*
G01Y302332D02*
Y302430D01*
G01X301481Y319300D02*
X298281D01*
G01X301481D02*
X301580D01*
G54D89*
G01X193567Y245380D02*
Y241698D01*
X199866Y235399D01*
Y230911D01*
G01X191992Y245380D02*
Y230911D01*
G01X190417Y245380D02*
Y241698D01*
X184118Y235399D01*
Y230911D01*
G01X206506Y200220D02*
Y202972D01*
X199866Y209612D01*
Y214100D01*
G01X203882Y374020D02*
Y377318D01*
X200457Y380743D01*
Y386156D01*
G01X255056Y244480D02*
Y238429D01*
X254984Y238357D01*
Y230911D01*
G01X217189Y245380D02*
Y241698D01*
X223488Y235399D01*
Y230911D01*
G01X239236Y245380D02*
Y230911D01*
G01X215614Y245380D02*
Y230911D01*
G01X214039Y245380D02*
Y241699D01*
X207740Y235399D01*
Y230911D01*
G01X237661Y245380D02*
Y241698D01*
X231362Y235399D01*
Y230911D01*
G01X240811Y245380D02*
Y241698D01*
X247110Y235399D01*
Y230911D01*
G01X208080Y200220D02*
Y202078D01*
X215614Y209612D01*
Y214100D01*
G01X207031Y374020D02*
Y376675D01*
X210457Y380100D01*
Y386156D01*
G01X220457D02*
Y373769D01*
G01X205457Y386156D02*
Y374020D01*
G01X218882Y373769D02*
Y377018D01*
X215457Y380443D01*
Y386156D01*
G01X222031Y373769D02*
Y375775D01*
X225457Y379200D01*
Y386156D01*
G01X213882Y413980D02*
Y412382D01*
X212600Y411100D01*
X208500D01*
X205457Y408057D01*
Y401510D01*
G01X217031Y413980D02*
Y410925D01*
X220457Y407500D01*
Y401510D01*
G01X215457Y413980D02*
Y401510D01*
G54D99*
G01X56550Y138450D02*
X56425Y138575D01*
X51368D01*
G01X27068Y151175D02*
X22325D01*
X21000Y152500D01*
G01X27068Y148025D02*
X21475D01*
X21000Y148500D01*
G01X27068Y144875D02*
X21500D01*
G01X27068Y135425D02*
X22075D01*
X22000Y135500D01*
G01X27068Y132275D02*
X22275D01*
X22000Y132000D01*
G01X27068Y119675D02*
X22175D01*
X22000Y119500D01*
G01X27068Y122825D02*
X22175D01*
X22000Y123000D01*
G01X51368Y141725D02*
X56275D01*
X56300Y141700D01*
G01X51368Y125975D02*
X56325D01*
X56400Y125900D01*
G01X51368Y129125D02*
X56275D01*
X56300Y129100D01*
G01X56500Y151000D02*
X56325Y151175D01*
X51368D01*
G01X56350Y223850D02*
X56125Y223625D01*
X51368D01*
G01X27068D02*
X21625D01*
X21500Y223500D01*
G01X27068Y229925D02*
X22575D01*
X21500Y231000D01*
G01X51368Y185825D02*
X57000D01*
G01X22225Y182662D02*
X22238Y182675D01*
X27068D01*
G01Y179525D02*
X20975D01*
X20207Y180293D01*
X19787D01*
G01X51368Y176375D02*
X56375D01*
X56845Y176845D01*
X56876D01*
G01X51368Y188975D02*
X55500D01*
X57000Y187475D01*
Y185825D01*
G01X27068Y220475D02*
X32175D01*
X32882Y221182D01*
Y222596D01*
X31853Y223625D01*
X27068D01*
G01X22100Y193000D02*
X22975Y192125D01*
X27068D01*
G01X51368Y220475D02*
X56400D01*
G01X56945Y211315D02*
X56654Y211025D01*
X51368D01*
G01X23000Y217500D02*
X23175Y217325D01*
G01X23000Y214500D02*
X23325Y214175D01*
G01X23175Y217325D02*
X27068D01*
G01X23325Y214175D02*
X27068D01*
G01X16384Y175375D02*
X21000D01*
G01D02*
X22500D01*
G01D02*
X23500Y176375D01*
X27068D01*
G01X56736Y247700D02*
X55611Y248825D01*
X51368D01*
G01Y255125D02*
X57361D01*
X57736Y255500D01*
G01X51368Y251975D02*
X57911D01*
X57936Y252000D01*
Y251700D01*
X57836D01*
G01X51368Y270875D02*
X58218D01*
G01X51368Y283475D02*
X58218D01*
G01X51368Y280325D02*
X60436D01*
G01X57626Y296198D02*
X57503Y296075D01*
X51368D01*
G01Y292925D02*
X57611D01*
X57736Y292800D01*
G01X51368Y305525D02*
X58218D01*
G01X27068Y286625D02*
X22000D01*
G01X27068Y289775D02*
X22000D01*
G01X27068Y299225D02*
X22125D01*
X22000Y299350D01*
G01X27068Y305525D02*
X22025D01*
X22000Y305500D01*
G01X27068Y267725D02*
X22625D01*
X22500Y267850D01*
X22218D01*
G01X27068Y274025D02*
X22625D01*
X22500Y274150D01*
X22218D01*
G01X27068Y277175D02*
X22625D01*
X22500Y277300D01*
X22218D01*
G01X27068Y255125D02*
X22625D01*
X22500Y255250D01*
X22218D01*
G01X27068Y258275D02*
X22625D01*
X22500Y258400D01*
X22218D01*
G01X60500Y312000D02*
Y310957D01*
X58218Y308675D01*
X51368D01*
G01X27068Y302375D02*
X20600D01*
G01X51368Y258275D02*
X60000D01*
G01X111618Y127380D02*
Y131282D01*
G01Y119700D02*
Y112098D01*
X111520Y112000D01*
G01D02*
X111618D01*
G01X79500Y107000D02*
X80600Y108100D01*
Y109200D01*
X82555Y111155D01*
Y111800D01*
G01X94118Y119700D02*
Y117232D01*
X96450Y114900D01*
Y112098D01*
X96548Y112000D01*
G01X83848Y249700D02*
Y245530D01*
X83218Y244900D01*
G01X69800Y204200D02*
X69275Y204725D01*
X64320D01*
G01X100318Y202300D02*
X103718D01*
G01X104218Y210200D02*
X99087D01*
G01X110718Y202300D02*
X115650D01*
G01X116487Y210200D02*
X111218D01*
G01X94918Y276870D02*
X98070D01*
X99500Y278300D01*
G01X80418Y262630D02*
X79255Y261466D01*
X78984D01*
X77418Y259900D01*
G01X142126Y67181D02*
Y59500D01*
G01Y89819D02*
X137181D01*
X136500Y90500D01*
G01X203718Y97970D02*
Y107400D01*
G01X173718Y97970D02*
Y107400D01*
G01Y94230D02*
Y91018D01*
X173700Y91000D01*
G01X188718Y94230D02*
Y91018D01*
X188700Y91000D01*
G01X203718Y94230D02*
Y91018D01*
X203700Y91000D01*
G01X188718Y107400D02*
Y97970D01*
G01X156874Y122181D02*
Y114500D01*
G01X160100Y152200D02*
X156874Y148974D01*
Y144819D01*
G01X203718Y175330D02*
Y171900D01*
G01D02*
Y164600D01*
G01X188718Y175330D02*
Y171900D01*
G01D02*
Y164600D01*
G01X173718Y175330D02*
Y171900D01*
G01D02*
Y164600D01*
G01X203718Y179070D02*
Y182382D01*
X203700Y182400D01*
G01X188718Y179070D02*
Y182382D01*
X188700Y182400D01*
G01X173718Y179070D02*
Y182382D01*
X173700Y182400D01*
G01X184118Y214100D02*
Y204600D01*
X186150Y202568D01*
Y199698D01*
X186248Y199600D01*
G01X178548Y305650D02*
Y307400D01*
G01D02*
Y309150D01*
G01X176798Y307400D02*
X178548D01*
G01Y298850D02*
Y300600D01*
G01X176798D02*
X178548D01*
G01Y313650D02*
Y315400D01*
G01D02*
Y317150D01*
G01X176798Y315400D02*
X178548D01*
G01Y292050D02*
Y293800D01*
G01D02*
Y295550D01*
G01X176798Y293800D02*
X178548D01*
G01X179758Y331791D02*
Y334165D01*
G01D02*
Y336538D01*
G01Y334165D02*
X181640D01*
G01X187718Y324916D02*
Y327017D01*
G01X184868D02*
X187718D01*
G01D02*
X190568D01*
G01X194218Y324934D02*
Y326684D01*
G01X192468Y324934D02*
X194218D01*
G01D02*
X195968D01*
G01X178788Y324950D02*
Y326700D01*
G01D02*
Y328450D01*
G01Y326700D02*
X180538D01*
G01X218718Y94230D02*
Y91018D01*
X218700Y91000D01*
G01X218718Y97970D02*
Y107400D01*
G01X250548Y118350D02*
Y120100D01*
G01D02*
Y121850D01*
G01X248798Y120100D02*
X250548D01*
G01Y123950D02*
Y125700D01*
G01X248798D02*
X250548D01*
G01X244018Y123780D02*
Y125530D01*
G01X242268D02*
X244018D01*
G01D02*
X245768D01*
G01X274018Y102770D02*
Y106382D01*
X274000Y106400D01*
G01X218718Y164600D02*
Y171900D01*
G01D02*
Y175330D01*
G01X265639Y142157D02*
X271843D01*
X273000Y141000D01*
G01X218718Y179070D02*
Y182382D01*
X218700Y182400D01*
G01X255500Y386870D02*
Y390500D01*
G01X225453Y415100D02*
Y411053D01*
G01X305588Y22500D02*
X305711D01*
X308552Y19658D01*
G01X298518Y89530D02*
X302120D01*
X302218Y89432D01*
G01X293198Y131920D02*
X285594D01*
X285589Y131916D01*
G01X285000Y120500D02*
X286184Y121684D01*
X293198D01*
G01X382227Y108321D02*
X375639D01*
X375618Y108300D01*
G01X376818Y251685D02*
X382227Y251685D01*
G01Y261921D02*
X376139D01*
X376118Y261900D01*
M02*
