G04 ================== begin FILE IDENTIFICATION RECORD ==================*
G04 Layout Name:  OC_Connect-1_DEBUG_Life-3.brd*
G04 Film Name:    L3S.gbr*
G04 File Format:  Gerber RS274X*
G04 File Origin:  Cadence Allegro 16.6-2015-S065*
G04 Origin Date:  Mon Mar 06 16:55:43 2017*
G04 *
G04 Layer:  VIA CLASS/L3_SIG1*
G04 Layer:  PIN/L3_SIG1*
G04 Layer:  ETCH/L3_SIG1*
G04 Layer:  DRAWING FORMAT/L3*
G04 Layer:  DRAWING FORMAT/FILM_LABEL_OUTLINE*
G04 Layer:  BOARD GEOMETRY/OUTLINE*
G04 *
G04 Offset:    (0.000 0.000)*
G04 Mirror:    No*
G04 Mode:      Positive*
G04 Rotation:  0*
G04 FullContactRelief:  No*
G04 UndefLineWidth:     6.000*
G04 ================== end FILE IDENTIFICATION RECORD ====================*
%FSLAX25Y25*MOIN*%
%IR0*IPPOS*OFA0.00000B0.00000*MIA0B0*SFA1.00000B1.00000*%
%ADD10C,.026*%
%ADD11C,.047244*%
%ADD12C,.008*%
%ADD13C,.0044*%
%ADD14C,.0056*%
%ADD15C,.00395*%
%ADD16C,.01*%
%ADD17C,.02*%
%ADD18C,.03*%
%ADD19C,.006*%
%ADD21C,.146114*%
%ADD20C,.042004*%
G75*
%LPD*%
G75*
G36*
G01X56000Y170970D02*
G03X59000I1500J-1470D01*
G02Y171530I286J280D01*
G03X59600Y172966I-1500J1470D01*
G03X58538Y174826I-2100J35D01*
G02X58438Y175441I198J348D01*
G03X58976Y176804I-1562J1404D01*
G01X58980Y177000D01*
X60300D01*
X63800Y180500D01*
Y189400D01*
X65400Y191000D01*
X97000D01*
X99500Y188500D01*
Y186500D01*
X99000Y186000D01*
Y177500D01*
X96500Y175000D01*
X78500D01*
X75132Y171632D01*
X74991Y171751D01*
G03X71749Y168509I-1491J-1751D01*
G01X71868Y168368D01*
X68080Y164580D01*
X40984D01*
G02X40702Y165263I0J400D01*
G03X37735I-1484J1487D01*
G02X37452Y164580I-283J-283D01*
G01X18437D01*
X16000Y167018D01*
Y172482D01*
X17080Y173563D01*
Y173580D01*
X20500Y177000D01*
X54772D01*
X54776Y176804D01*
G03X55838Y175019I2100J41D01*
G02X55938Y174404I-198J-348D01*
G03X56000Y171530I1562J-1404D01*
G02Y170970I-286J-280D01*
G37*
G36*
G01X14000Y236500D02*
X11500Y239000D01*
Y260500D01*
X14000Y263000D01*
X64500D01*
X72500Y255000D01*
X102000D01*
X103000Y254000D01*
Y238000D01*
X101500Y236500D01*
X14000D01*
G37*
G36*
G01X70000Y301500D02*
X67000Y304500D01*
Y330900D01*
X56350Y341550D01*
Y454840D01*
X62168Y460659D01*
X152033D01*
X157250Y455441D01*
Y403020D01*
X152771Y398541D01*
X105979D01*
X100650Y393212D01*
Y307350D01*
X94800Y301500D01*
X70000D01*
G37*
%LPC*%
G75*
G36*
G01X17955Y250204D02*
G03Y250796I-269J296D01*
G02X19686Y254793I1545J1704D01*
G03X20118Y255201I32J399D01*
G02X20687Y256688I2100J50D01*
G03Y256962I-146J137D01*
G02X23749I1531J1438D01*
G03Y256688I146J-137D01*
G02X22193Y253150I-1531J-1438D01*
G03X21790Y252713I-5J-400D01*
G02X21045Y250796I-2290J-213D01*
G03Y250204I269J-296D01*
G02X17955I-1545J-1704D01*
G37*
G36*
G01X57385Y257571D02*
G03X57715Y258011I-67J394D01*
G02X60200Y255983I2285J264D01*
G03X59835Y255571I35J-398D01*
G02X59139Y253937I-2099J-71D01*
G03X59158Y253332I271J-295D01*
G02X58505Y249709I-1322J-1632D01*
G03X58329Y249069I127J-379D01*
G02X56068Y249691I-1593J-1369D01*
G03X56244Y250331I-127J379D01*
G02X56430Y253260I1593J1369D01*
G03X56417Y253866I-268J297D01*
G02X57385Y257571I1320J1634D01*
G37*
G36*
G01X117883Y409708D02*
G03X118145Y410259I-102J387D01*
G02X122070Y412602I2096J947D01*
G03X122706I318J243D01*
G02Y409810I1828J-1396D01*
G03X122070I-318J-243D01*
G02X120682Y408948I-1828J1396D01*
G03X120384Y408415I77J-393D01*
G02X117883Y409708I-1966J-738D01*
G37*
G36*
G01X102953Y409615D02*
G03Y408979I243J-318D01*
G02X100161I-1396J-1828D01*
G03Y409615I-243J318D01*
G02X102953I1396J1828D01*
G37*
G36*
G01X101729Y421281D02*
G02X96690Y425962I-3559J1221D01*
G03X96879Y426529I-157J368D01*
G02X101619Y424949I3260J1879D01*
G03X101430Y424381I157J-368D01*
G02X101729Y423724I-3260J-1879D01*
G03X102485I378J130D01*
G02X106187Y426262I3559J-1221D01*
G03X106566Y426830I15J400D01*
G02X113540Y429629I3415J1578D01*
G03X114296I378J130D01*
G02X121270Y426830I3559J-1221D01*
G03X121649Y426262I363J-168D01*
G02X125351Y423724I143J-3760D01*
G03X126107I378J130D01*
G02X126906Y425060I3559J-1221D01*
G03X126746Y425708I-293J272D01*
G02X130079Y426820I952J2699D01*
G03X130340Y426204I333J-222D01*
G02X126107Y421281I-674J-3702D01*
G03X125351I-378J-130D01*
G02X118233I-3559J1221D01*
G03X117477I-378J-130D01*
G02X110359I-3559J1221D01*
G03X109603I-378J-130D01*
G02X102485I-3559J1221D01*
G03X101729I-378J-130D01*
G37*
G54D21*
X88052Y436282D03*
X139784D03*
G54D20*
X69000Y173000D03*
X70500Y184000D03*
X81000Y184500D03*
X39218Y245500D03*
X83218Y244900D03*
%LPD*%
G75*
G54D10*
X21000Y168000D03*
X17000D03*
X21000Y171500D03*
X17000D03*
X21000Y175375D03*
X17532Y125480D03*
Y129620D03*
Y142220D03*
Y138080D03*
X60100Y124700D03*
X9200Y193300D03*
Y181500D03*
Y199100D03*
Y210600D03*
Y204900D03*
X59000Y179500D03*
X20503Y185594D03*
X20500Y188994D03*
X59000Y183000D03*
X17500Y259500D03*
X62204Y148520D03*
Y135920D03*
Y144380D03*
Y131780D03*
X91200Y148100D03*
X99418Y242932D03*
X93918D03*
X87718Y245200D03*
X89500Y178000D03*
X94500D03*
Y183000D03*
X89500D03*
X119568Y292450D03*
X122968D03*
X97718Y266900D03*
X77518Y269200D03*
X78518Y306800D03*
X84418Y307100D03*
X89818D03*
X89418Y312500D03*
X84218Y312700D03*
X78418Y312500D03*
X113500Y387500D03*
X117000D03*
X194036Y174900D03*
X198346D03*
X179036Y177500D03*
X183346D03*
X202200Y275200D03*
X174400Y271400D03*
X190700Y275500D03*
X205018Y264500D03*
X183900Y370800D03*
X190200Y370900D03*
X196000Y376800D03*
X224036Y174900D03*
X228346D03*
X213346D03*
X209036D03*
X221618Y192800D03*
X237318Y193532D03*
X219218Y255200D03*
X264018Y312147D03*
Y316152D03*
X219218Y274700D03*
X259418Y266500D03*
X207768Y313850D03*
X224568Y279150D03*
X233518Y264700D03*
X260000Y383000D03*
X230018Y357500D03*
X242718Y351500D03*
X233318Y347200D03*
X214818Y324800D03*
X233518Y322800D03*
X207828Y325190D03*
X214000Y367200D03*
X264500Y423500D03*
X273000Y429500D03*
X271500Y407000D03*
X266500Y428500D03*
X272100Y415600D03*
X222500Y431500D03*
X298281Y319300D03*
X329018Y253700D03*
X328918Y257173D03*
X307418Y351000D03*
X293056Y345800D03*
X304300Y347900D03*
X297294Y409500D03*
X308500Y419500D03*
X322000Y420000D03*
X314500Y405000D03*
Y423500D03*
X281668Y407000D03*
X298000Y419500D03*
X319000Y474000D03*
X322900Y474700D03*
X326300Y473900D03*
X320700Y470200D03*
G54D11*
X127698Y428408D03*
G54D12*
G01X214818Y324800D02*
X229317Y310301D01*
X244417D01*
X265018Y289700D01*
Y210600D01*
X247950Y193532D01*
X237318D01*
G54D13*
G01X59000Y179500D02*
X57800Y180700D01*
X53800D01*
X50500Y184000D01*
Y191456D01*
X67644Y208600D01*
X88100D01*
X91900Y212400D01*
Y214956D01*
X128000Y251056D01*
Y295500D01*
X114700Y308800D01*
Y386300D01*
X113500Y387500D01*
G01X119568Y292450D02*
X120718Y293600D01*
Y295955D01*
X120173Y296500D01*
X113500D01*
X110500Y293500D01*
Y284956D01*
X119600Y275856D01*
Y249544D01*
X95456Y225400D01*
X67456D01*
X55676Y213620D01*
X55622D01*
X54380Y212378D01*
Y212324D01*
X28756Y186700D01*
X24006D01*
X21604Y186697D01*
X20503Y185594D01*
G01X20500Y188994D02*
X21699Y187798D01*
X24006Y187800D01*
X28300D01*
X53280Y212780D01*
Y212834D01*
X55166Y214720D01*
X55220D01*
X67000Y226500D01*
X95000D01*
X118500Y250000D01*
Y275400D01*
X109400Y284500D01*
Y293956D01*
X113044Y297600D01*
X120628D01*
X121818Y296410D01*
Y293600D01*
X122968Y292450D01*
G01X117000Y387500D02*
X115800Y386300D01*
Y309256D01*
X129100Y295956D01*
Y250600D01*
X93000Y214500D01*
Y211500D01*
X89000Y207500D01*
X68100D01*
X51600Y191000D01*
Y184456D01*
X54256Y181800D01*
X57800D01*
X59000Y183000D01*
G01X264018Y312147D02*
X265471Y313600D01*
X269762D01*
X272318Y311044D01*
Y303044D01*
X320476Y254887D01*
X327732D01*
X328918Y253700D01*
X329018D01*
G01X264018Y316152D02*
X265471Y314700D01*
X270218D01*
X273418Y311500D01*
Y303500D01*
X320932Y255987D01*
X327732D01*
X328918Y257173D01*
G54D14*
G01X219218Y255200D02*
X208200D01*
X139000Y186000D01*
X125500D01*
X102000Y162500D01*
X82900D01*
X76400Y156000D01*
X46500D01*
X42000Y151500D01*
X36800D01*
X32800Y155500D01*
X15800D01*
X5260Y166040D01*
Y189360D01*
X9200Y193300D01*
G01Y181500D02*
X6820Y179120D01*
Y166780D01*
X15700Y157900D01*
X75800D01*
X82400Y164500D01*
X99500D01*
X123000Y188000D01*
X138000D01*
X192000Y242000D01*
Y251300D01*
X202500Y261800D01*
Y265500D01*
X211700Y274700D01*
X219218D01*
G01X202200Y275200D02*
X190000Y263000D01*
Y242500D01*
X137750Y190250D01*
X122250D01*
X98500Y166500D01*
X82000D01*
X75000Y159500D01*
X16400D01*
X11000Y164900D01*
Y174600D01*
X12300Y175900D01*
Y196000D01*
X9200Y199100D01*
G01X174400Y271400D02*
X154900D01*
X106500Y223000D01*
Y179500D01*
X97500Y170500D01*
X81000D01*
X73300Y162800D01*
X17700D01*
X14200Y166300D01*
Y173200D01*
X15300Y174300D01*
Y174400D01*
X16000Y175100D01*
Y203800D01*
X9200Y210600D01*
G01X190700Y275500D02*
Y272700D01*
X119500Y201500D01*
Y190000D01*
X98000Y168500D01*
X81500D01*
X74200Y161200D01*
X17000D01*
X12600Y165600D01*
Y173900D01*
X14000Y175300D01*
Y200100D01*
X9200Y204900D01*
G01X91200Y148100D02*
X83000Y139900D01*
X61000D01*
X58800Y137700D01*
Y126000D01*
X60100Y124700D01*
G01X77518Y269200D02*
X95418D01*
X97718Y266900D01*
G01X205018Y264500D02*
X213318D01*
X221718Y272900D01*
Y278800D01*
X201818Y298700D01*
Y324200D01*
X206418Y328800D01*
X227518D01*
X233518Y322800D01*
G01X319000Y474000D02*
X319050Y473950D01*
Y473158D01*
X318000Y472107D01*
Y469317D01*
X297183Y448500D01*
X220500D01*
X183900Y411900D01*
Y370800D01*
G01X190200Y370900D02*
X195900D01*
X199900Y374900D01*
X231100D01*
X251200Y395000D01*
X311500D01*
X325000Y408500D01*
Y431500D01*
X322900Y433600D01*
Y474700D01*
G01X320700Y470200D02*
Y465311D01*
X294389Y439000D01*
X223500D01*
X196000Y411500D01*
Y376800D01*
G01X221618Y192800D02*
X219718Y194700D01*
Y210400D01*
X226718Y217400D01*
Y277000D01*
X224568Y279150D01*
G01X207768Y313850D02*
X218385D01*
X259418Y272817D01*
Y266500D01*
G01X233518Y264700D02*
Y277690D01*
X223500Y287708D01*
X219310D01*
X213118Y293900D01*
Y302400D01*
X205018Y310500D01*
Y322380D01*
X207828Y325190D01*
G01X307418Y351000D02*
X298438Y359980D01*
X232498D01*
X230018Y357500D01*
G01X242718Y351500D02*
X248418Y345800D01*
X293056D01*
G01X304300Y347900D02*
X298520Y353680D01*
X239798D01*
X233318Y347200D01*
G01X326300Y473900D02*
Y438200D01*
X329500Y435000D01*
Y407500D01*
X315000Y393000D01*
X262500D01*
X236700Y367200D01*
X214000D01*
G01X322000Y420000D02*
Y423000D01*
X316000Y429000D01*
X303000D01*
X300500Y426500D01*
X297000D01*
X294000Y429500D01*
X273000D01*
G01X266500Y428500D02*
X264000D01*
X261500Y426000D01*
Y417000D01*
X271500Y407000D01*
G01X281668D02*
X279500D01*
X272100Y414400D01*
Y415600D01*
G01X298000Y419500D02*
X290500Y427000D01*
X272000D01*
X267500Y431500D01*
X222500D01*
G01X314500Y423500D02*
Y405000D01*
G01D02*
X312100Y402600D01*
X286068D01*
X281668Y407000D01*
G54D15*
G01X224036Y174900D02*
X225600Y176464D01*
Y178000D01*
X227200Y179600D01*
X230438D01*
X232700Y177338D01*
Y172062D01*
X193938Y133300D01*
X142838D01*
X125039Y115500D01*
X83138D01*
X76238Y108600D01*
X51362D01*
X33062Y126900D01*
X18953D01*
X17532Y125480D01*
G01X228346Y174900D02*
X226900Y176346D01*
Y177462D01*
X227739Y178300D01*
X229900D01*
X231400Y176800D01*
Y172600D01*
X193400Y134600D01*
X142300D01*
X124500Y116800D01*
X82600D01*
X75700Y109900D01*
X51900D01*
X33600Y128200D01*
X30845D01*
X30450Y128595D01*
Y129905D01*
X30055Y130300D01*
X29265D01*
X28870Y129905D01*
Y128595D01*
X28475Y128200D01*
X27685D01*
X27290Y128595D01*
Y129905D01*
X26895Y130300D01*
X26105D01*
X25710Y129905D01*
Y128595D01*
X25315Y128200D01*
X18953D01*
X17532Y129620D01*
G01Y142220D02*
X18953Y140800D01*
X22535D01*
X23030Y141295D01*
Y142105D01*
X23425Y142500D01*
X24415D01*
X24910Y142005D01*
Y141295D01*
X25405Y140800D01*
X27700D01*
X55000Y113500D01*
X68562D01*
X77562Y122500D01*
X94962D01*
X116462Y144000D01*
X127100D01*
X132400Y149300D01*
X175362D01*
X195600Y169538D01*
Y173336D01*
X194036Y174900D01*
G01X17532Y138080D02*
X18953Y139500D01*
X27162D01*
X54462Y112200D01*
X69100D01*
X78100Y121200D01*
X95500D01*
X117000Y142700D01*
X127639D01*
X132938Y148000D01*
X175900D01*
X196900Y169000D01*
Y173454D01*
X198346Y174900D01*
G01X62204Y148520D02*
X63624Y147100D01*
X65916D01*
X66311Y147495D01*
Y148405D01*
X66706Y148800D01*
X67696D01*
X68091Y148405D01*
Y147495D01*
X68486Y147100D01*
X75400D01*
X78900Y150600D01*
X84200D01*
X93000Y159400D01*
X108162D01*
X118062Y169300D01*
X178162D01*
X180600Y171738D01*
Y175936D01*
X179036Y177500D01*
G01X62204Y135920D02*
X63624Y134500D01*
X100100D01*
X127400Y161800D01*
X177662D01*
X184800Y168938D01*
Y174200D01*
X190400Y179800D01*
X209900D01*
X211800Y177900D01*
Y176446D01*
X213346Y174900D01*
G01X62204Y144380D02*
X63624Y145800D01*
X75938D01*
X79438Y149300D01*
X84738D01*
X93538Y158100D01*
X108700D01*
X118600Y168000D01*
X178700D01*
X181900Y171200D01*
Y176054D01*
X183346Y177500D01*
G01X62204Y131780D02*
X63624Y133200D01*
X66149D01*
X66644Y132705D01*
Y131895D01*
X67039Y131500D01*
X68029D01*
X68424Y131895D01*
Y132805D01*
X68819Y133200D01*
X100638D01*
X127938Y160500D01*
X178200D01*
X186100Y168400D01*
Y173662D01*
X190938Y178500D01*
X209361D01*
X210500Y177362D01*
Y176364D01*
X209036Y174900D01*
G54D16*
G01X37218Y-193700D02*
X602518D01*
G01X37218Y-213700D02*
X602718D01*
Y-134771D01*
G01X37218Y-134300D02*
Y-213700D01*
G01Y-173700D02*
X602718D01*
G01X37218Y-134500D02*
X602718D01*
G01X37218Y-153700D02*
X602618D01*
G54D17*
G01X125332Y426043D02*
X127698Y428408D01*
G01D02*
X130063Y430773D01*
G01X125332D02*
X127698Y428408D01*
G54D18*
G01X260000Y383000D02*
X276000Y367000D01*
X303500D01*
X311000Y359500D01*
Y342000D01*
X298281Y329281D01*
Y319300D01*
G01X264500Y423500D02*
X276900D01*
X290900Y409500D01*
X297294D01*
G01D02*
X298500D01*
X308500Y419500D01*
G54D19*
G01X43093Y-207500D02*
Y-197500D01*
X47843D01*
G01X46093Y-202333D02*
X43093D01*
G01X53968Y-197500D02*
X56968D01*
G01X55468D02*
Y-207500D01*
G01X53968D02*
X56968D01*
G01X62968Y-197500D02*
Y-207500D01*
X67968D01*
G01X72218D02*
Y-197500D01*
X75468Y-205833D01*
X78718Y-197500D01*
Y-207500D01*
G01X92968Y-197500D02*
Y-207500D01*
X97968D01*
G01X102343D02*
X105468Y-197500D01*
X108593Y-207500D01*
G01X107468Y-204000D02*
X103468D01*
G01X115468Y-207500D02*
Y-203000D01*
X112968Y-197500D01*
G01X117968D02*
X115468Y-203000D01*
G01X127968Y-207500D02*
X122968D01*
Y-197500D01*
X127968D01*
G01X125968Y-202333D02*
X122968D01*
G01X132968Y-207500D02*
Y-197500D01*
X136093D01*
X137093Y-198000D01*
X137718Y-198667D01*
X137968Y-200000D01*
X137718Y-201333D01*
X136968Y-202167D01*
X136093Y-202667D01*
X132968D01*
G01X136093D02*
X137968Y-207500D01*
G01X145468Y-207833D02*
X145218Y-207667D01*
Y-207333D01*
X145468Y-207167D01*
X145718Y-207333D01*
Y-207667D01*
X145468Y-207833D01*
G01Y-203334D02*
X145218Y-203167D01*
Y-202833D01*
X145468Y-202667D01*
X145718Y-202833D01*
Y-203167D01*
X145468Y-203334D01*
G01X48218Y-179834D02*
X47468Y-179333D01*
X46593Y-179000D01*
X45593D01*
X44468Y-179500D01*
X43593Y-180333D01*
X42968Y-181333D01*
X42468Y-183000D01*
X42343Y-184500D01*
X42593Y-186000D01*
X42968Y-187000D01*
X43718Y-188000D01*
X44593Y-188667D01*
X45468Y-189000D01*
X46343D01*
X47218Y-188667D01*
X47968Y-188167D01*
X48593Y-187500D01*
G01X52343Y-189000D02*
X55468Y-179000D01*
X58593Y-189000D01*
G01X57468Y-185500D02*
X53468D01*
G01X62968Y-189000D02*
Y-179000D01*
X66093D01*
X67093Y-179500D01*
X67718Y-180167D01*
X67968Y-181500D01*
X67718Y-182833D01*
X66968Y-183667D01*
X66093Y-184167D01*
X62968D01*
G01X66093D02*
X67968Y-189000D01*
G01X72718D02*
Y-179000D01*
X75218D01*
X76218Y-179500D01*
X76968Y-180167D01*
X77593Y-181166D01*
X78093Y-182334D01*
X78218Y-184000D01*
X78093Y-185667D01*
X77593Y-186834D01*
X76968Y-187834D01*
X76218Y-188500D01*
X75218Y-189000D01*
X72718D01*
G01X92968D02*
Y-179000D01*
X96093D01*
X97093Y-179500D01*
X97718Y-180167D01*
X97968Y-181500D01*
X97718Y-182833D01*
X96968Y-183667D01*
X96093Y-184167D01*
X92968D01*
G01X96093D02*
X97968Y-189000D01*
G01X107968D02*
X102968D01*
Y-179000D01*
X107968D01*
G01X105968Y-183833D02*
X102968D01*
G01X113093Y-189000D02*
Y-179000D01*
X117843D01*
G01X116093Y-183833D02*
X113093D01*
G01X125468Y-189333D02*
X125218Y-189167D01*
Y-188833D01*
X125468Y-188667D01*
X125718Y-188833D01*
Y-189167D01*
X125468Y-189333D01*
G01Y-184834D02*
X125218Y-184667D01*
Y-184333D01*
X125468Y-184167D01*
X125718Y-184333D01*
Y-184667D01*
X125468Y-184834D01*
G01X135468Y-189000D02*
X134468Y-188833D01*
X133593Y-188167D01*
X132843Y-187167D01*
X132343Y-186000D01*
X132093Y-184667D01*
Y-183333D01*
X132343Y-182000D01*
X132843Y-180833D01*
X133593Y-179834D01*
X134468Y-179167D01*
X135468Y-179000D01*
X136468Y-179167D01*
X137343Y-179834D01*
X138093Y-180833D01*
X138593Y-182000D01*
X138843Y-183333D01*
Y-184667D01*
X138593Y-186000D01*
X138093Y-187167D01*
X137343Y-188167D01*
X136468Y-188833D01*
X135468Y-189000D01*
G01X143218Y-192333D02*
Y-182334D01*
G01Y-183833D02*
X143843Y-183000D01*
X144468Y-182500D01*
X145468Y-182334D01*
X146343Y-182500D01*
X147218Y-183333D01*
X147593Y-184500D01*
X147718Y-185667D01*
X147593Y-186834D01*
X147218Y-188000D01*
X146468Y-188667D01*
X145468Y-189000D01*
X144593Y-188833D01*
X143718Y-188334D01*
X143218Y-187667D01*
G01X153593Y-184500D02*
X157593D01*
X157218Y-183333D01*
X156593Y-182667D01*
X155718Y-182334D01*
X154843Y-182500D01*
X154093Y-183000D01*
X153593Y-184167D01*
X153343Y-185167D01*
Y-186167D01*
X153593Y-187167D01*
X154218Y-188167D01*
X154968Y-188833D01*
X155843Y-189000D01*
X156718Y-188667D01*
X157593Y-187667D01*
G01X163343Y-189000D02*
Y-182334D01*
G01Y-184000D02*
X163843Y-183167D01*
X164593Y-182500D01*
X165593Y-182334D01*
X166468Y-182500D01*
X167218Y-183167D01*
X167593Y-184333D01*
Y-189000D01*
G01X178218Y-179834D02*
X177468Y-179333D01*
X176593Y-179000D01*
X175593D01*
X174468Y-179500D01*
X173593Y-180333D01*
X172968Y-181333D01*
X172468Y-183000D01*
X172343Y-184500D01*
X172593Y-186000D01*
X172968Y-187000D01*
X173718Y-188000D01*
X174593Y-188667D01*
X175468Y-189000D01*
X176343D01*
X177218Y-188667D01*
X177968Y-188167D01*
X178593Y-187500D01*
G01X183593Y-184500D02*
X187593D01*
X187218Y-183333D01*
X186593Y-182667D01*
X185718Y-182334D01*
X184843Y-182500D01*
X184093Y-183000D01*
X183593Y-184167D01*
X183343Y-185167D01*
Y-186167D01*
X183593Y-187167D01*
X184218Y-188167D01*
X184968Y-188833D01*
X185843Y-189000D01*
X186718Y-188667D01*
X187593Y-187667D01*
G01X195468Y-189000D02*
Y-179000D01*
G01X205468Y-189000D02*
Y-179000D01*
G01X213343Y-182334D02*
Y-187000D01*
X213843Y-188167D01*
X214593Y-188833D01*
X215468Y-189000D01*
X216343Y-188833D01*
X217093Y-188167D01*
X217593Y-187000D01*
G01Y-189000D02*
Y-182334D01*
G01X225468Y-189000D02*
Y-179000D01*
G01X237718Y-189000D02*
Y-182334D01*
G01Y-183500D02*
X237218Y-182833D01*
X236468Y-182500D01*
X235593Y-182334D01*
X234718Y-182667D01*
X233968Y-183333D01*
X233468Y-184333D01*
X233218Y-185667D01*
X233468Y-187000D01*
X233968Y-188000D01*
X234718Y-188667D01*
X235593Y-189000D01*
X236468Y-188833D01*
X237218Y-188334D01*
X237718Y-187667D01*
G01X243718Y-189000D02*
Y-182334D01*
G01Y-183667D02*
X244343Y-183000D01*
X244968Y-182500D01*
X245843Y-182334D01*
X246468Y-182500D01*
X247218Y-183000D01*
G01X265468Y-189000D02*
Y-179000D01*
G01X278218Y-179834D02*
X277468Y-179333D01*
X276593Y-179000D01*
X275593D01*
X274468Y-179500D01*
X273593Y-180333D01*
X272968Y-181333D01*
X272468Y-183000D01*
X272343Y-184500D01*
X272593Y-186000D01*
X272968Y-187000D01*
X273718Y-188000D01*
X274593Y-188667D01*
X275468Y-189000D01*
X276343D01*
X277218Y-188667D01*
X277968Y-188167D01*
X278593Y-187500D01*
G01X285468Y-189000D02*
X284718Y-188833D01*
X283968Y-188167D01*
X283468Y-187000D01*
X283218Y-185667D01*
X283468Y-184333D01*
X283968Y-183167D01*
X284718Y-182500D01*
X285468Y-182334D01*
X286218Y-182500D01*
X286968Y-183167D01*
X287468Y-184333D01*
X287593Y-185667D01*
X287468Y-187000D01*
X286968Y-188167D01*
X286218Y-188833D01*
X285468Y-189000D01*
G01X293343D02*
Y-182334D01*
G01Y-184000D02*
X293843Y-183167D01*
X294593Y-182500D01*
X295593Y-182334D01*
X296468Y-182500D01*
X297218Y-183167D01*
X297593Y-184333D01*
Y-189000D01*
G01X303343D02*
Y-182334D01*
G01Y-184000D02*
X303843Y-183167D01*
X304593Y-182500D01*
X305593Y-182334D01*
X306468Y-182500D01*
X307218Y-183167D01*
X307593Y-184333D01*
Y-189000D01*
G01X313593Y-184500D02*
X317593D01*
X317218Y-183333D01*
X316593Y-182667D01*
X315718Y-182334D01*
X314843Y-182500D01*
X314093Y-183000D01*
X313593Y-184167D01*
X313343Y-185167D01*
Y-186167D01*
X313593Y-187167D01*
X314218Y-188167D01*
X314968Y-188833D01*
X315843Y-189000D01*
X316718Y-188667D01*
X317593Y-187667D01*
G01X327468Y-183167D02*
X326593Y-182500D01*
X325843Y-182334D01*
X324843Y-182667D01*
X324093Y-183333D01*
X323593Y-184500D01*
X323468Y-185667D01*
X323593Y-186834D01*
X324093Y-187834D01*
X324843Y-188667D01*
X325843Y-189000D01*
X326718Y-188667D01*
X327468Y-188000D01*
G01X335468Y-179000D02*
Y-189000D01*
G01X333718Y-182334D02*
X337218D01*
G01X343843Y-185667D02*
X347093D01*
G01X355468Y-189000D02*
Y-179000D01*
X353968Y-181000D01*
G01Y-189000D02*
X356968D01*
G01X375468D02*
Y-179000D01*
G01X382718Y-189000D02*
Y-179000D01*
X385218D01*
X386218Y-179500D01*
X386968Y-180167D01*
X387593Y-181166D01*
X388093Y-182334D01*
X388218Y-184000D01*
X388093Y-185667D01*
X387593Y-186834D01*
X386968Y-187834D01*
X386218Y-188500D01*
X385218Y-189000D01*
X382718D01*
G01X397968D02*
X392968D01*
Y-179000D01*
X397968D01*
G01X395968Y-183833D02*
X392968D01*
G01X406468Y-183667D02*
X406968Y-183167D01*
X407343Y-182334D01*
X407593Y-181166D01*
X407343Y-180167D01*
X406843Y-179500D01*
X405968Y-179000D01*
X402593D01*
Y-189000D01*
X406718D01*
X407593Y-188334D01*
X408093Y-187333D01*
X408343Y-186167D01*
X408093Y-185000D01*
X407343Y-184000D01*
X406468Y-183667D01*
X402593D01*
G01X412718Y-179000D02*
Y-186167D01*
X413218Y-187667D01*
X414218Y-188667D01*
X415468Y-189000D01*
X416718Y-188667D01*
X417718Y-187667D01*
X418218Y-186167D01*
Y-179000D01*
G01X426218Y-184000D02*
X428718D01*
Y-187000D01*
X427968Y-188000D01*
X427093Y-188667D01*
X425843Y-189000D01*
X424593Y-188667D01*
X423718Y-188000D01*
X422968Y-187000D01*
X422468Y-185833D01*
X422218Y-184500D01*
Y-183333D01*
X422468Y-182334D01*
X422968Y-181166D01*
X423718Y-180167D01*
X424468Y-179500D01*
X425468Y-179000D01*
X426343D01*
X427343Y-179333D01*
X428093Y-180000D01*
G01X431718Y-192333D02*
X439218D01*
G01X446468Y-183667D02*
X446968Y-183167D01*
X447343Y-182334D01*
X447593Y-181166D01*
X447343Y-180167D01*
X446843Y-179500D01*
X445968Y-179000D01*
X442593D01*
Y-189000D01*
X446718D01*
X447593Y-188334D01*
X448093Y-187333D01*
X448343Y-186167D01*
X448093Y-185000D01*
X447343Y-184000D01*
X446468Y-183667D01*
X442593D01*
G01X455468Y-189000D02*
X454468Y-188833D01*
X453593Y-188167D01*
X452843Y-187167D01*
X452343Y-186000D01*
X452093Y-184667D01*
Y-183333D01*
X452343Y-182000D01*
X452843Y-180833D01*
X453593Y-179834D01*
X454468Y-179167D01*
X455468Y-179000D01*
X456468Y-179167D01*
X457343Y-179834D01*
X458093Y-180833D01*
X458593Y-182000D01*
X458843Y-183333D01*
Y-184667D01*
X458593Y-186000D01*
X458093Y-187167D01*
X457343Y-188167D01*
X456468Y-188833D01*
X455468Y-189000D01*
G01X462343D02*
X465468Y-179000D01*
X468593Y-189000D01*
G01X467468Y-185500D02*
X463468D01*
G01X472968Y-189000D02*
Y-179000D01*
X476093D01*
X477093Y-179500D01*
X477718Y-180167D01*
X477968Y-181500D01*
X477718Y-182833D01*
X476968Y-183667D01*
X476093Y-184167D01*
X472968D01*
G01X476093D02*
X477968Y-189000D01*
G01X482718D02*
Y-179000D01*
X485218D01*
X486218Y-179500D01*
X486968Y-180167D01*
X487593Y-181166D01*
X488093Y-182334D01*
X488218Y-184000D01*
X488093Y-185667D01*
X487593Y-186834D01*
X486968Y-187834D01*
X486218Y-188500D01*
X485218Y-189000D01*
X482718D01*
G01X42718Y-149000D02*
Y-139000D01*
X45218D01*
X46218Y-139500D01*
X46968Y-140167D01*
X47593Y-141166D01*
X48093Y-142334D01*
X48218Y-144000D01*
X48093Y-145667D01*
X47593Y-146834D01*
X46968Y-147834D01*
X46218Y-148500D01*
X45218Y-149000D01*
X42718D01*
G01X52343D02*
X55468Y-139000D01*
X58593Y-149000D01*
G01X57468Y-145500D02*
X53468D01*
G01X65468Y-139000D02*
Y-149000D01*
G01X62593Y-139000D02*
X68343D01*
G01X77968Y-149000D02*
X72968D01*
Y-139000D01*
X77968D01*
G01X75968Y-143833D02*
X72968D01*
G01X85468Y-149333D02*
X85218Y-149167D01*
Y-148833D01*
X85468Y-148667D01*
X85718Y-148833D01*
Y-149167D01*
X85468Y-149333D01*
G01Y-144834D02*
X85218Y-144667D01*
Y-144333D01*
X85468Y-144167D01*
X85718Y-144333D01*
Y-144667D01*
X85468Y-144834D01*
G01X95468Y-139000D02*
X94468Y-139333D01*
X93718Y-140167D01*
X93218Y-141166D01*
X92843Y-142500D01*
X92718Y-144000D01*
X92843Y-145500D01*
X93218Y-146834D01*
X93718Y-147834D01*
X94468Y-148667D01*
X95468Y-149000D01*
X96468Y-148667D01*
X97218Y-147834D01*
X97718Y-146834D01*
X98093Y-145500D01*
X98218Y-144000D01*
X98093Y-142500D01*
X97718Y-141166D01*
X97218Y-140167D01*
X96468Y-139333D01*
X95468Y-139000D01*
G01X102718Y-147000D02*
X103468Y-148167D01*
X104468Y-148833D01*
X105593Y-149000D01*
X106593Y-148833D01*
X107593Y-148000D01*
X108218Y-147000D01*
X108343Y-146000D01*
X108093Y-144834D01*
X107218Y-144000D01*
X106343Y-143667D01*
X105218D01*
G01X106343D02*
X107093Y-143167D01*
X107718Y-142334D01*
X107968Y-141333D01*
X107718Y-140333D01*
X107093Y-139500D01*
X105968Y-139000D01*
X104843Y-139167D01*
X103718Y-139834D01*
G01X113843Y-145667D02*
X117093D01*
G01X125468Y-139000D02*
X124468Y-139333D01*
X123718Y-140167D01*
X123218Y-141166D01*
X122843Y-142500D01*
X122718Y-144000D01*
X122843Y-145500D01*
X123218Y-146834D01*
X123718Y-147834D01*
X124468Y-148667D01*
X125468Y-149000D01*
X126468Y-148667D01*
X127218Y-147834D01*
X127718Y-146834D01*
X128093Y-145500D01*
X128218Y-144000D01*
X128093Y-142500D01*
X127718Y-141166D01*
X127218Y-140167D01*
X126468Y-139333D01*
X125468Y-139000D01*
G01X133093Y-144834D02*
X133968Y-143667D01*
X134718Y-143000D01*
X135718Y-142667D01*
X136593Y-143000D01*
X137218Y-143667D01*
X137718Y-144667D01*
X137843Y-145833D01*
X137718Y-146834D01*
X137218Y-147834D01*
X136468Y-148667D01*
X135593Y-149000D01*
X134593Y-148667D01*
X133718Y-147667D01*
X133218Y-146167D01*
X133093Y-144500D01*
X133343Y-142334D01*
X133718Y-141166D01*
X134343Y-140000D01*
X135218Y-139167D01*
X136093Y-139000D01*
X136968Y-139333D01*
X137593Y-140167D01*
G01X143843Y-145667D02*
X147093D01*
G01X153093Y-140667D02*
X153843Y-139667D01*
X154718Y-139167D01*
X155718Y-139000D01*
X156968Y-139333D01*
X157843Y-140167D01*
X158093Y-141166D01*
X157968Y-142167D01*
X157468Y-143000D01*
X154968Y-144667D01*
X153843Y-145833D01*
X153093Y-147500D01*
X152843Y-149000D01*
X158093D01*
G01X165468Y-139000D02*
X164468Y-139333D01*
X163718Y-140167D01*
X163218Y-141166D01*
X162843Y-142500D01*
X162718Y-144000D01*
X162843Y-145500D01*
X163218Y-146834D01*
X163718Y-147834D01*
X164468Y-148667D01*
X165468Y-149000D01*
X166468Y-148667D01*
X167218Y-147834D01*
X167718Y-146834D01*
X168093Y-145500D01*
X168218Y-144000D01*
X168093Y-142500D01*
X167718Y-141166D01*
X167218Y-140167D01*
X166468Y-139333D01*
X165468Y-139000D01*
G01X175468Y-149000D02*
Y-139000D01*
X173968Y-141000D01*
G01Y-149000D02*
X176968D01*
G01X185218D02*
X185468Y-146834D01*
X185843Y-145000D01*
X186343Y-143333D01*
X186968Y-141500D01*
X187968Y-139000D01*
X182968D01*
G01X42718Y-169000D02*
Y-159000D01*
X45218D01*
X46218Y-159500D01*
X46968Y-160167D01*
X47593Y-161166D01*
X48093Y-162334D01*
X48218Y-164000D01*
X48093Y-165667D01*
X47593Y-166834D01*
X46968Y-167834D01*
X46218Y-168500D01*
X45218Y-169000D01*
X42718D01*
G01X57968D02*
X52968D01*
Y-159000D01*
X57968D01*
G01X55968Y-163833D02*
X52968D01*
G01X62843Y-167667D02*
X63843Y-168500D01*
X64968Y-169000D01*
X65968D01*
X66968Y-168500D01*
X67718Y-167667D01*
X68093Y-166500D01*
X67843Y-165334D01*
X67218Y-164333D01*
X66093Y-163667D01*
X64593Y-163333D01*
X63718Y-162667D01*
X63343Y-161500D01*
X63593Y-160333D01*
X64218Y-159500D01*
X65093Y-159000D01*
X65968D01*
X66843Y-159333D01*
X67593Y-160167D01*
G01X73968Y-159000D02*
X76968D01*
G01X75468D02*
Y-169000D01*
G01X73968D02*
X76968D01*
G01X86218Y-164000D02*
X88718D01*
Y-167000D01*
X87968Y-168000D01*
X87093Y-168667D01*
X85843Y-169000D01*
X84593Y-168667D01*
X83718Y-168000D01*
X82968Y-167000D01*
X82468Y-165833D01*
X82218Y-164500D01*
Y-163333D01*
X82468Y-162334D01*
X82968Y-161166D01*
X83718Y-160167D01*
X84468Y-159500D01*
X85468Y-159000D01*
X86343D01*
X87343Y-159333D01*
X88093Y-160000D01*
G01X92593Y-169000D02*
Y-159000D01*
X98343Y-169000D01*
Y-159000D01*
G01X107968Y-169000D02*
X102968D01*
Y-159000D01*
X107968D01*
G01X105968Y-163833D02*
X102968D01*
G01X112718Y-169000D02*
Y-159000D01*
X115218D01*
X116218Y-159500D01*
X116968Y-160167D01*
X117593Y-161166D01*
X118093Y-162334D01*
X118218Y-164000D01*
X118093Y-165667D01*
X117593Y-166834D01*
X116968Y-167834D01*
X116218Y-168500D01*
X115218Y-169000D01*
X112718D01*
G01X132343D02*
X135468Y-159000D01*
X138593Y-169000D01*
G01X137468Y-165500D02*
X133468D01*
G01X145468Y-159000D02*
Y-169000D01*
G01X142593Y-159000D02*
X148343D01*
G01X155468Y-169333D02*
X155218Y-169167D01*
Y-168833D01*
X155468Y-168667D01*
X155718Y-168833D01*
Y-169167D01*
X155468Y-169333D01*
G01Y-164834D02*
X155218Y-164667D01*
Y-164333D01*
X155468Y-164167D01*
X155718Y-164333D01*
Y-164667D01*
X155468Y-164834D01*
G01X0Y0D02*
X400000D01*
Y482677D01*
X0D01*
Y0D01*
G01X164468Y-197500D02*
Y-207500D01*
X169468D01*
G01X173843D02*
X176968Y-197500D01*
X180093Y-207500D01*
G01X178968Y-204000D02*
X174968D01*
G01X186968Y-207500D02*
Y-203000D01*
X184468Y-197500D01*
G01X189468D02*
X186968Y-203000D01*
G01X199468Y-207500D02*
X194468D01*
Y-197500D01*
X199468D01*
G01X197468Y-202333D02*
X194468D01*
G01X204468Y-207500D02*
Y-197500D01*
X207593D01*
X208593Y-198000D01*
X209218Y-198667D01*
X209468Y-200000D01*
X209218Y-201333D01*
X208468Y-202167D01*
X207593Y-202667D01*
X204468D01*
G01X207593D02*
X209468Y-207500D01*
G01X214218Y-205500D02*
X214968Y-206667D01*
X215968Y-207333D01*
X217093Y-207500D01*
X218093Y-207333D01*
X219093Y-206500D01*
X219718Y-205500D01*
X219843Y-204500D01*
X219593Y-203334D01*
X218718Y-202500D01*
X217843Y-202167D01*
X216718D01*
G01X217843D02*
X218593Y-201667D01*
X219218Y-200834D01*
X219468Y-199833D01*
X219218Y-198833D01*
X218593Y-198000D01*
X217468Y-197500D01*
X216343Y-197667D01*
X215218Y-198334D01*
G01X237968Y-149000D02*
Y-139000D01*
X240968D01*
X241968Y-139500D01*
X242718Y-140667D01*
X242968Y-142000D01*
X242718Y-143333D01*
X242093Y-144333D01*
X240968Y-144834D01*
X237968D01*
G01X247343Y-149000D02*
X250468Y-139000D01*
X253593Y-149000D01*
G01X252468Y-145500D02*
X248468D01*
G01X257968Y-149000D02*
Y-139000D01*
X261093D01*
X262093Y-139500D01*
X262718Y-140167D01*
X262968Y-141500D01*
X262718Y-142833D01*
X261968Y-143667D01*
X261093Y-144167D01*
X257968D01*
G01X261093D02*
X262968Y-149000D01*
G01X270468Y-139000D02*
Y-149000D01*
G01X267593Y-139000D02*
X273343D01*
G01X287593Y-149000D02*
Y-139000D01*
X293343Y-149000D01*
Y-139000D01*
G01X297718D02*
Y-146167D01*
X298218Y-147667D01*
X299218Y-148667D01*
X300468Y-149000D01*
X301718Y-148667D01*
X302718Y-147667D01*
X303218Y-146167D01*
Y-139000D01*
G01X307218Y-149000D02*
Y-139000D01*
X310468Y-147333D01*
X313718Y-139000D01*
Y-149000D01*
G01X321468Y-143667D02*
X321968Y-143167D01*
X322343Y-142334D01*
X322593Y-141166D01*
X322343Y-140167D01*
X321843Y-139500D01*
X320968Y-139000D01*
X317593D01*
Y-149000D01*
X321718D01*
X322593Y-148334D01*
X323093Y-147333D01*
X323343Y-146167D01*
X323093Y-145000D01*
X322343Y-144000D01*
X321468Y-143667D01*
X317593D01*
G01X332968Y-149000D02*
X327968D01*
Y-139000D01*
X332968D01*
G01X330968Y-143833D02*
X327968D01*
G01X337968Y-149000D02*
Y-139000D01*
X341093D01*
X342093Y-139500D01*
X342718Y-140167D01*
X342968Y-141500D01*
X342718Y-142833D01*
X341968Y-143667D01*
X341093Y-144167D01*
X337968D01*
G01X341093D02*
X342968Y-149000D01*
G01X350468Y-149333D02*
X350218Y-149167D01*
Y-148833D01*
X350468Y-148667D01*
X350718Y-148833D01*
Y-149167D01*
X350468Y-149333D01*
G01Y-144834D02*
X350218Y-144667D01*
Y-144333D01*
X350468Y-144167D01*
X350718Y-144333D01*
Y-144667D01*
X350468Y-144834D01*
G01X358093Y-140667D02*
X358843Y-139667D01*
X359718Y-139167D01*
X360718Y-139000D01*
X361968Y-139333D01*
X362843Y-140167D01*
X363093Y-141166D01*
X362968Y-142167D01*
X362468Y-143000D01*
X359968Y-144667D01*
X358843Y-145833D01*
X358093Y-147500D01*
X357843Y-149000D01*
X363093D01*
G01X367718Y-147000D02*
X368468Y-148167D01*
X369468Y-148833D01*
X370593Y-149000D01*
X371593Y-148833D01*
X372593Y-148000D01*
X373218Y-147000D01*
X373343Y-146000D01*
X373093Y-144834D01*
X372218Y-144000D01*
X371343Y-143667D01*
X370218D01*
G01X371343D02*
X372093Y-143167D01*
X372718Y-142334D01*
X372968Y-141333D01*
X372718Y-140333D01*
X372093Y-139500D01*
X370968Y-139000D01*
X369843Y-139167D01*
X368718Y-139834D01*
G01X380468Y-149000D02*
Y-139000D01*
X378968Y-141000D01*
G01Y-149000D02*
X381968D01*
G01X388843Y-145667D02*
X392093D01*
G01X400468Y-139000D02*
X399468Y-139333D01*
X398718Y-140167D01*
X398218Y-141166D01*
X397843Y-142500D01*
X397718Y-144000D01*
X397843Y-145500D01*
X398218Y-146834D01*
X398718Y-147834D01*
X399468Y-148667D01*
X400468Y-149000D01*
X401468Y-148667D01*
X402218Y-147834D01*
X402718Y-146834D01*
X403093Y-145500D01*
X403218Y-144000D01*
X403093Y-142500D01*
X402718Y-141166D01*
X402218Y-140167D01*
X401468Y-139333D01*
X400468Y-139000D01*
G01X410468D02*
X409468Y-139333D01*
X408718Y-140167D01*
X408218Y-141166D01*
X407843Y-142500D01*
X407718Y-144000D01*
X407843Y-145500D01*
X408218Y-146834D01*
X408718Y-147834D01*
X409468Y-148667D01*
X410468Y-149000D01*
X411468Y-148667D01*
X412218Y-147834D01*
X412718Y-146834D01*
X413093Y-145500D01*
X413218Y-144000D01*
X413093Y-142500D01*
X412718Y-141166D01*
X412218Y-140167D01*
X411468Y-139333D01*
X410468Y-139000D01*
G01X420468D02*
X419468Y-139333D01*
X418718Y-140167D01*
X418218Y-141166D01*
X417843Y-142500D01*
X417718Y-144000D01*
X417843Y-145500D01*
X418218Y-146834D01*
X418718Y-147834D01*
X419468Y-148667D01*
X420468Y-149000D01*
X421468Y-148667D01*
X422218Y-147834D01*
X422718Y-146834D01*
X423093Y-145500D01*
X423218Y-144000D01*
X423093Y-142500D01*
X422718Y-141166D01*
X422218Y-140167D01*
X421468Y-139333D01*
X420468Y-139000D01*
G01X430468D02*
X429468Y-139333D01*
X428718Y-140167D01*
X428218Y-141166D01*
X427843Y-142500D01*
X427718Y-144000D01*
X427843Y-145500D01*
X428218Y-146834D01*
X428718Y-147834D01*
X429468Y-148667D01*
X430468Y-149000D01*
X431468Y-148667D01*
X432218Y-147834D01*
X432718Y-146834D01*
X433093Y-145500D01*
X433218Y-144000D01*
X433093Y-142500D01*
X432718Y-141166D01*
X432218Y-140167D01*
X431468Y-139333D01*
X430468Y-139000D01*
G01X438093Y-144834D02*
X438968Y-143667D01*
X439718Y-143000D01*
X440718Y-142667D01*
X441593Y-143000D01*
X442218Y-143667D01*
X442718Y-144667D01*
X442843Y-145833D01*
X442718Y-146834D01*
X442218Y-147834D01*
X441468Y-148667D01*
X440593Y-149000D01*
X439593Y-148667D01*
X438718Y-147667D01*
X438218Y-146167D01*
X438093Y-144500D01*
X438343Y-142334D01*
X438718Y-141166D01*
X439343Y-140000D01*
X440218Y-139167D01*
X441093Y-139000D01*
X441968Y-139333D01*
X442593Y-140167D01*
G01X448343Y-147834D02*
X449218Y-148667D01*
X450218Y-149000D01*
X451218Y-148667D01*
X452093Y-147667D01*
X452718Y-146167D01*
X452968Y-144667D01*
Y-142833D01*
X452718Y-141333D01*
X452093Y-140000D01*
X451343Y-139333D01*
X450468Y-139000D01*
X449468Y-139333D01*
X448718Y-140000D01*
X448218Y-141000D01*
X447968Y-142334D01*
X448218Y-143500D01*
X448843Y-144667D01*
X449593Y-145334D01*
X450468Y-145500D01*
X451468Y-145167D01*
X452218Y-144333D01*
X452968Y-142833D01*
G01X521418Y-178733D02*
Y-188733D01*
X526418D01*
G01X533918Y-182067D02*
Y-188733D01*
G01Y-179400D02*
X533668Y-179234D01*
Y-178900D01*
X533918Y-178733D01*
X534168Y-178900D01*
Y-179234D01*
X533918Y-179400D01*
G01X543168Y-188733D02*
Y-180233D01*
X543418Y-179400D01*
X543918Y-178900D01*
X544668Y-178733D01*
X545418Y-179067D01*
X545793Y-179900D01*
G01X544293Y-182734D02*
X541793D01*
G01X552043Y-184233D02*
X556043D01*
X555668Y-183067D01*
X555043Y-182400D01*
X554168Y-182067D01*
X553293Y-182234D01*
X552543Y-182734D01*
X552043Y-183900D01*
X551793Y-184900D01*
Y-185900D01*
X552043Y-186900D01*
X552668Y-187900D01*
X553418Y-188567D01*
X554293Y-188733D01*
X555168Y-188400D01*
X556043Y-187400D01*
G01X562293Y-185400D02*
X565543D01*
G01X571168Y-186734D02*
X571918Y-187900D01*
X572918Y-188567D01*
X574043Y-188733D01*
X575043Y-188567D01*
X576043Y-187734D01*
X576668Y-186734D01*
X576793Y-185733D01*
X576543Y-184567D01*
X575668Y-183734D01*
X574793Y-183400D01*
X573668D01*
G01X574793D02*
X575543Y-182900D01*
X576168Y-182067D01*
X576418Y-181067D01*
X576168Y-180067D01*
X575543Y-179234D01*
X574418Y-178733D01*
X573293Y-178900D01*
X572168Y-179567D01*
M02*
