M48
INCH,TZ
T01C.012
T02C.027559
T03C.035
T04C.036
T05C.062
T06C.090551
T07C.091
T08C.03937
T09C.04
T10C.04016
T11C.128
T12C.137795
;LEADER: 12 
;HEADER: 
;CODE  : ASCII 
;FILE  : OC_Connect-1_DEBUG_Life-3-1-6.drl for  ... layers TOP and BOTTOM
;DESIGN: OC_Connect-1_DEBUG_Life-3.brd
;T01 Holesize 1. = 12.000000 Tolerance = +3.000000/-3.000000 PLATED MILS Quantity = 670
;T02 Holesize 2. = 27.559000 Tolerance = +3.000000/-3.000000 PLATED MILS Quantity = 9
;T03 Holesize 3. = 35.000000 Tolerance = +3.000000/-3.000000 PLATED MILS Quantity = 8
;T04 Holesize 4. = 36.000000 Tolerance = +3.000000/-3.000000 PLATED MILS Quantity = 8
;T05 Holesize 5. = 62.000000 Tolerance = +3.000000/-3.000000 PLATED MILS Quantity = 2
;T06 Holesize 6. = 90.551000 Tolerance = +3.000000/-3.000000 PLATED MILS Quantity = 2
;T07 Holesize 7. = 91.000000 Tolerance = +3.000000/-3.000000 PLATED MILS Quantity = 4
;T08 Holesize 8. = 39.370000 Tolerance = +2.000000/-2.000000 NON_PLATED MILS Quantity = 3
;T09 Holesize 9. = 40.000000 Tolerance = +2.000000/-2.000000 NON_PLATED MILS Quantity = 2
;T10 Holesize 10. = 40.160000 Tolerance = +2.000000/-2.000000 NON_PLATED MILS Quantity = 2
;T11 Holesize 11. = 128.000000 Tolerance = +2.000000/-2.000000 NON_PLATED MILS Quantity = 2
;T12 Holesize 12. = 137.795000 Tolerance = +2.000000/-2.000000 NON_PLATED MILS Quantity = 4
%
G90
T01
X19000Y116500
X21500Y109500
X62800Y116300
X66000Y102500
X79500Y107000
X65100Y80500
X65118Y75900
X69418Y80500
X69318Y75800
X73618Y80500
X73718Y75700
X79387Y55432
X61000Y105500
X22000Y119500
X62218Y85032
X72250Y59000
X39218Y88000
X39218Y108750
X60100Y124700
X62204Y131780
X62204Y144380
X17532Y138080
X62204Y135920
X17532Y142220
X17532Y129620
X62204Y148520
X17532Y125480
X59000Y183000
X20500Y188994
X21000Y175375
X17000Y171500
X21000Y171500
X17000Y168000
X21000Y168000
X20503Y185594
X59000Y179500
X9200Y204900
X9200Y210600
X9200Y199100
X9200Y181500
X67600Y218500
X57500Y173000
X57500Y169500
X8500Y187500
X20500Y218500
X20500Y215000
X66500Y199000
X66500Y195000
X68200Y213000
X9200Y193300
X73500Y170000
X79000Y142500
X73500Y166500
X56500Y204725
X56945Y211315
X60000Y120900
X22100Y193000
X70500Y184000
X75400Y152900
X69000Y173000
X69800Y204200
X56876Y176845
X57000Y185825
X60500Y190500
X60250Y209250
X9000Y175500
X8000Y219000
X56400Y125900
X56300Y129100
X56500Y151000
X56550Y138450
X56300Y141700
X22000Y123000
X22000Y132000
X22000Y135500
X21500Y144875
X21000Y148500
X21000Y152500
X19787Y180293
X22225Y182662
X39218Y133750
X39218Y154500
X39218Y166750
X39218Y187500
X39218Y212500
X78418Y312500
X78518Y306800
X77518Y269200
X71600Y270000
X71300Y264250
X17500Y259500
X60000Y258275
X77418Y259900
X59500Y230000
X19500Y252500
X59500Y226500
X19500Y248500
X18500Y313500
X56675Y277175
X59037Y274175
X61500Y302500
X61500Y299000
X19500Y296500
X19500Y292500
X61000Y290000
X61000Y286500
X19500Y283900
X19500Y279900
X60500Y312000
X20600Y302375
X22000Y305500
X21500Y231000
X56400Y220475
X56350Y223850
X21500Y223500
X72618Y275800
X39218Y233250
X58218Y305525
X57627Y296198
X57736Y292800
X60436Y280325
X58218Y283475
X58218Y270875
X57836Y251700
X57736Y255500
X56736Y247700
X22000Y299350
X22000Y289775
X22000Y286625
X22218Y277300
X22218Y274150
X22218Y267850
X22218Y258400
X22218Y255250
X39218Y312000
X39218Y291250
X39218Y266250
X39218Y245500
X14500Y267000
X117000Y387500
X124534Y411206
X101557Y407151
X120242Y411206
X101557Y411443
X113500Y387500
X176118Y354500
X118418Y396400
X118418Y407677
X84218Y312700
X89418Y312500
X89818Y307100
X84418Y307100
X97718Y266900
X122968Y292450
X119568Y292450
X175418Y262000
X130000Y236000
X174400Y271400
X87718Y245200
X93918Y242931
X99418Y242931
X83218Y244900
X99500Y278300
X114418Y289500
X179401Y311265
X179835Y303906
X175250Y315400
X175250Y307400
X175250Y300600
X175250Y293800
X90418Y261500
X87118Y259700
X87018Y263500
X93818Y263500
X93518Y259500
X119000Y131500
X91200Y148100
X179036Y177500
X173718Y171900
X89500Y183000
X139418Y173000
X144418Y173000
X149418Y173000
X154418Y173000
X134418Y173000
X129418Y173000
X94500Y183000
X94500Y178000
X89500Y178000
X99500Y213500
X137000Y196500
X87618Y218500
X79950Y214500
X132500Y143000
X83000Y153500
X95500Y137500
X100118Y142500
X128000Y149000
X122500Y160500
X119718Y207000
X95187Y207500
X135000Y140000
X119518Y126300
X119168Y120750
X124500Y131000
X173700Y182400
X128500Y195000
X98218Y199740
X160100Y152200
X124500Y153500
X116400Y137800
X81000Y184500
X86700Y147800
X99500Y155500
X111618Y131282
X87818Y215100
X87718Y211500
X87918Y204000
X124218Y199000
X119718Y217500
X134218Y156400
X139218Y156400
X144218Y156400
X149218Y156400
X154218Y156400
X129218Y156400
X151000Y100500
X137500Y107000
X173700Y91000
X276218Y20000
X84518Y99000
X132058Y69700
X127918Y69700
X121058Y69700
X116918Y69700
X110058Y69700
X105918Y69700
X99008Y69650
X94868Y69650
X96450Y108800
X111618Y108300
X83318Y59000
X88218Y51600
X84518Y51500
X134000Y120000
X94318Y62500
X97716Y62390
X84000Y105000
X132800Y85300
X127917Y85299
X120333Y85299
X116917Y85299
X109034Y85200
X104600Y85000
X98938Y89700
X94798Y89700
X156874Y114500
X142126Y59500
X136500Y90500
X105682Y62000
X117918Y62200
X85153Y87565
X90118Y62100
X107649Y108300
X100387Y108300
X121018Y49659
X114918Y50100
X109118Y49700
X103118Y49659
X266718Y16968
X198400Y97100
X194090Y97100
X188700Y91000
X203700Y91000
X218700Y91000
X234000Y94500
X274218Y29500
X263550Y29500
X260218Y29500
X257118Y29500
X253800Y29500
X259500Y36500
X256400Y36500
X253000Y36300
X256400Y41000
X265718Y41000
X262600Y41000
X259500Y41000
X272100Y36500
X262600Y36500
X265718Y36500
X268900Y36500
X253300Y41000
X264718Y70987
X256718Y68853
X275718Y73100
X253318Y82300
X259318Y82300
X265318Y82300
X271318Y82300
X277318Y82300
X253318Y77300
X259318Y77300
X265318Y77300
X271318Y77300
X277318Y77300
X253318Y72300
X259318Y72300
X271318Y72300
X267850Y87700
X267850Y93200
X267118Y98500
X268618Y102000
X274000Y106400
X267800Y44100
X257618Y55400
X263550Y24000
X271200Y44100
X250618Y51400
X267718Y48100
X271218Y48000
X274718Y48000
X278218Y48000
X254118Y55400
X250618Y55400
X274218Y23731
X264618Y51500
X261118Y51400
X257618Y51400
X254118Y51400
X268118Y51500
X251320Y103200
X256436Y94500
X273000Y141000
X248618Y143800
X209036Y174900
X183346Y177500
X198346Y174900
X213346Y174900
X194036Y174900
X228346Y174900
X224036Y174900
X188718Y171900
X203718Y171900
X218718Y171900
X237318Y193532
X221618Y192800
X246518Y159500
X245518Y151500
X186150Y196100
X237487Y197468
X271018Y195700
X267350Y190200
X270550Y180800
X190118Y196200
X273247Y134484
X254818Y150769
X227518Y200669
X223488Y205604
X231362Y205604
X239236Y205604
X247110Y205604
X254984Y205604
X267818Y170200
X274518Y202868
X246950Y132800
X244018Y122232
X247250Y120100
X247250Y125700
X200962Y197700
X188700Y182400
X203700Y182400
X218700Y182400
X185018Y274400
X214989Y279471
X242018Y274900
X210736Y280300
X236500Y275500
X207118Y280200
X233518Y264700
X205018Y264500
X199018Y264700
X234500Y280500
X228950Y278104
X224568Y279150
X223218Y293000
X207768Y313850
X259418Y266500
X239918Y319000
X190700Y275500
X202200Y275200
X219218Y274700
X230718Y274900
X238318Y303500
X186118Y243500
X186218Y253400
X207718Y304400
X239818Y312950
X239118Y299300
X226518Y294900
X240318Y255100
X195118Y306700
X264018Y316153
X195318Y313900
X264018Y312147
X219218Y255200
X229618Y298100
X279218Y235200
X276550Y229800
X276550Y224300
X252218Y311000
X207918Y317300
X207228Y300038
X239618Y295700
X239318Y306800
X229818Y293100
X217718Y293000
X184250Y297200
X184150Y289200
X243205Y247900
X210071Y247900
X186449Y247900
X219583Y247900
X262174Y247000
X195961Y247900
X233693Y247900
X252662Y247000
X258318Y303778
X260987Y284700
X261249Y288900
X260887Y278900
X233887Y301900
X272100Y415600
X232800Y406000
X246000Y415131
X250700Y397300
X246000Y410131
X246000Y405131
X196000Y376800
X271500Y407000
X209900Y366500
X214000Y367200
X190200Y370900
X183900Y370800
X265700Y324100
X207828Y325190
X233518Y322800
X214818Y324800
X218718Y325200
X223613Y324500
X233318Y347200
X242718Y351500
X230018Y357500
X208418Y321300
X182918Y321100
X229818Y322100
X260000Y383000
X258500Y413500
X224800Y371300
X209700Y371400
X251000Y369000
X244300Y369100
X245500Y393500
X255500Y390500
X225918Y321200
X259587Y338600
X262918Y328700
X207418Y356468
X214918Y356468
X222418Y356468
X211218Y347200
X218697Y347168
X225918Y347168
X187718Y330417
X194218Y328232
X182087Y326700
X274618Y331700
X200500Y409000
X210457Y408400
X215000Y371200
X200000Y371500
X211500Y416500
X276468Y419031
X257532Y418969
X278437Y415500
X222500Y431500
X266500Y428500
X208900Y431600
X273000Y429500
X264500Y423500
X238700Y422800
X275400Y433700
X267200Y433700
X274604Y470100
X268698Y470100
X314500Y423500
X312569Y473100
X306095Y431300
X309700Y470600
X310032Y426800
X320500Y478100
X320700Y470200
X326300Y473900
X322400Y430500
X322900Y474700
X319000Y474000
X329000Y470700
X280500Y434100
X315700Y470100
X286406Y434100
X292000Y433000
X296600Y433700
X299350Y429050
X318700Y432500
X325776Y434100
X305516Y471484
X297100Y471700
X292320Y470100
X286415Y470100
X280509Y470100
X298000Y419500
X281668Y407000
X314500Y405000
X322000Y420000
X304300Y347900
X293056Y345800
X307418Y351000
X296718Y345800
X305718Y324000
X308500Y419500
X297294Y409500
X317916Y332894
X318017Y329199
X289532Y416969
X289718Y387500
X296718Y374300
X306618Y372700
X295974Y357800
X305774Y357800
X337168Y327650
X346718Y328626
X289563Y405000
X321468Y408532
X310706Y412000
X321318Y246700
X306918Y302200
X301018Y225400
X300618Y248300
X328918Y257173
X329018Y253700
X283918Y311200
X281250Y305800
X281250Y300300
X298281Y319300
X293581Y243300
X376118Y261900
X293018Y317600
X287918Y241500
X306718Y223132
X306718Y242468
X280018Y240100
X311418Y318468
X311418Y299132
X288418Y318369
X326118Y275800
X337218Y259100
X346400Y258400
X297118Y230200
X293400Y229900
X297318Y236500
X293418Y236600
X295318Y233400
X301918Y306200
X297968Y305900
X302118Y312500
X298218Y312600
X300118Y309400
X378218Y275900
X285000Y120500
X334579Y151155
X334596Y145655
X292418Y184200
X294818Y202200
X287581Y206500
X318918Y180400
X318918Y176100
X321618Y138400
X280729Y199108
X285589Y131916
X285518Y140400
X284718Y146400
X285618Y125200
X321318Y202700
X318787Y184800
X297518Y182032
X337600Y175600
X346500Y175700
X286118Y192200
X284218Y195400
X288118Y195300
X284100Y188800
X287918Y189000
X378818Y124100
X313038Y115100
X322818Y104300
X313038Y118500
X322818Y100900
X304618Y53300
X298365Y28700
X298718Y32816
X324718Y26600
X317918Y26300
X330218Y26200
X335718Y26300
X341918Y26300
X342118Y32100
X336318Y32100
X331918Y31900
X292018Y109600
X294600Y89800
X283318Y82300
X283318Y77300
X283318Y72300
X285018Y106144
X375618Y108300
X281234Y103635
X287218Y22500
X286718Y30000
X290718Y30000
X292550Y44542
X310518Y23500
X298518Y105513
X302218Y89432
X318818Y59700
X281718Y48000
X285218Y48000
X285218Y44500
X281718Y44500
X331400Y99000
X340100Y99000
X333118Y45600
X338018Y45700
X342618Y45500
X333418Y41000
X338818Y41400
X343518Y41500
X295518Y46200
X300218Y46500
X305218Y46200
X305918Y42900
X288518Y93100
X284518Y93200
X288518Y99600
X284618Y99700
X286518Y96500
X378618Y82600
X287218Y9832
X292718Y9832
X299218Y7647
X308552Y19658
X309218Y13032
X383618Y82600
X388618Y82600
X383818Y124100
X388818Y124100
X392000Y237500
X395500Y234500
X395500Y238500
X383218Y275900
X388218Y275900
T02
X129666Y422502
X121792Y422502
X113918Y422502
X106044Y422502
X98170Y422502
X127698Y428408
X100139Y428408
X117855Y428408
X109981Y428408
T03
X219218Y77500
X214218Y67500
X209218Y77500
X204218Y67500
X199218Y77500
X194218Y67500
X189218Y77500
X184218Y67500
T04
X355118Y345359
X355118Y335516
X355118Y327642
X355118Y317800
X355118Y192659
X355118Y182816
X355118Y174942
X355118Y165100
T05
X171226Y54508
X232210Y54508
T06
X139784Y436282
X88052Y436282
T07
X365787Y357446
X365787Y305713
X365787Y153013
X365787Y204746
T08
X281618Y381600
X311618Y385600
X311618Y377600
T09
X47218Y84875
X47218Y315125
T10
X257591Y462596
X336843Y462596
T11
X179218Y42500
X224218Y42500
T12
X20000Y20000
X20000Y462677
X380000Y20000
X380000Y462677
M30
