M48
INCH,TZ
T01C.025591
T02C.027559
T03C.035
;EXTENTS: -94.985 -65.593 298.715 65.649  
;LEADER: 12 
;HEADER: 
;CODE  : ASCII 
;FILE  : D:/DINESH/DESIGN/PROJECT/DEBUG/Work/20170306/f/OC_Connect-1_DEBUG_Life-3.rou for board #Taaaahl08404.tmp
%
G90
F1
M16
T02
M16
G00X392364Y267531
G40
M15
G01X394333Y267531
M16
G00X392364Y246075
G40
M15
G01X394333Y246075
M16
T01
M16
G00X380632Y247256
G40
M15
G01X382207Y247256
M16
G00X380632Y266350
G40
M15
G01X382207Y266350
M16
T02
M16
G00X392364Y113931
G40
M15
G01X394333Y113931
M16
G00X392364Y92475
G40
M15
G01X394333Y92475
M16
T01
M16
G00X380632Y93656
G40
M15
G01X382207Y93656
M16
G00X380632Y112750
G40
M15
G01X382207Y112750
M16
T03
M16
G00X76475Y36017
G40
M15
G01X76475Y43117
M16
G00X133561Y36017
G40
M15
G01X133561Y43117
M16
G00X76475Y12553
G40
M15
G01X76475Y19653
M16
G00X133561Y12553
G40
M15
G01X133561Y19653
M16
G40
M30
