G04 ================== begin FILE IDENTIFICATION RECORD ==================*
G04 Layout Name:  OC_Connect-1_DEBUG_Life-3.brd*
G04 Film Name:    sppr.gbr*
G04 File Format:  Gerber RS274X*
G04 File Origin:  Cadence Allegro 16.6-2015-S065*
G04 Origin Date:  Mon Mar 06 16:55:42 2017*
G04 *
G04 Layer:  PACKAGE GEOMETRY/PASTEMASK_TOP*
G04 Layer:  PIN/PASTEMASK_TOP*
G04 Layer:  DRAWING FORMAT/SPPR*
G04 Layer:  DRAWING FORMAT/FILM_LABEL_OUTLINE*
G04 Layer:  BOARD GEOMETRY/OUTLINE*
G04 *
G04 Offset:    (0.000 0.000)*
G04 Mirror:    No*
G04 Mode:      Positive*
G04 Rotation:  0*
G04 FullContactRelief:  No*
G04 UndefLineWidth:     6.000*
G04 ================== end FILE IDENTIFICATION RECORD ====================*
%FSLAX25Y25*MOIN*%
%IR0*IPPOS*OFA0.00000B0.00000*MIA0B0*SFA1.00000B1.00000*%
%ADD12R,.025X.1*%
%ADD59R,.066929X.07874*%
%ADD51R,.010984X.089488*%
%ADD41R,.11X.055*%
%ADD42R,.055X.11*%
%AMMACRO65*
4,1,23,-.062008,.035925,
.050071,.035925,
.052666,.035031,
.055067,.0337,
.0572,.031973,
.059001,.029901,
.060415,.027548,
.061398,.024985,
.061922,.022291,
.062008,.020645,
.062008,.000397,
.061769,-.002338,
.061058,-.004989,
.059898,-.007477,
.058324,-.009726,
.056383,-.011667,
.054134,-.013242,
.051646,-.014402,
.048995,-.015112,
.047984,-.015257,
-.034449,-.015257,
-.034449,-.035926,
-.062008,-.035926,
-.062008,.035925,
0.0*
%
%ADD65MACRO65*%
%ADD63R,.068898X.015748*%
%ADD15O,.059X.13*%
%AMMACRO66*
4,1,23,-.062008,-.035926,
.050071,-.035926,
.052666,-.035032,
.055067,-.033701,
.0572,-.031974,
.059001,-.029902,
.060415,-.027549,
.061398,-.024986,
.061922,-.022292,
.062008,-.020646,
.062008,-.000398,
.061769,.002337,
.061058,.004988,
.059898,.007476,
.058324,.009725,
.056383,.011666,
.054134,.013241,
.051646,.014401,
.048995,.015111,
.047984,.015256,
-.034449,.015256,
-.034449,.035925,
-.062008,.035925,
-.062008,-.035926,
0.0*
%
%ADD66MACRO66*%
%ADD34R,.04016X.10315*%
%ADD13R,.025X.185*%
%ADD55R,.019X.008*%
%ADD16R,.008X.019*%
%ADD57R,.008661X.014173*%
%ADD46R,.009843X.061024*%
%ADD35R,.040157X.129921*%
%ADD38R,.061024X.009843*%
%ADD32R,.03937X.108268*%
%ADD58R,.008661X.015748*%
%ADD29R,.12X.1*%
%ADD56R,.1X.12*%
%ADD36R,.008661X.019685*%
%ADD53R,.027559X.009843*%
%ADD52R,.009843X.027559*%
%ADD47R,.012X.015*%
%ADD27R,.04X.015*%
%ADD22R,.017X.05*%
%ADD17R,.05X.07*%
%ADD49R,.039X.012*%
%ADD48R,.012X.039*%
%ADD33R,.043X.028*%
%ADD28R,.038X.032*%
%ADD21R,.028X.043*%
%ADD10C,.04*%
%ADD20R,.075X.015*%
%ADD43R,.059X.051*%
%ADD11R,.057X.018*%
%ADD54R,.075X.055*%
%ADD23R,.02X.02*%
%ADD44R,.095X.018*%
%ADD14R,.021X.021*%
%ADD45R,.094X.079*%
%ADD30R,.011024X.033465*%
%ADD60R,.033465X.011024*%
%ADD31R,.011811X.011811*%
%ADD19R,.023622X.033465*%
%ADD26R,.035827X.048031*%
%ADD50R,.045276X.043307*%
%ADD39R,.047244X.047244*%
%ADD64R,.098425X.056102*%
%ADD24R,.016535X.017717*%
%ADD37R,.055118X.015748*%
%ADD62R,.055118X.07874*%
%ADD61R,.059055X.03937*%
%ADD25R,.016535X.027559*%
%ADD40R,.029134X.094488*%
%ADD18R,.011X.102*%
%ADD67C,.01*%
%ADD68C,.006*%
G75*
%LPD*%
G75*
G36*
G01X79563Y170732D02*
Y168764D01*
X81532D01*
Y170732D01*
X79563D01*
G37*
G36*
G01X85468D02*
Y168764D01*
X87437D01*
Y170732D01*
X85468D01*
G37*
G36*
G01X82516D02*
Y168764D01*
X84484D01*
Y170732D01*
X82516D01*
G37*
G36*
G01X79563Y167780D02*
Y165811D01*
X81532D01*
Y167780D01*
X79563D01*
G37*
G36*
G01X82516D02*
Y165811D01*
X84484D01*
Y167780D01*
X82516D01*
G37*
G36*
G01X85468D02*
Y165811D01*
X87437D01*
Y167780D01*
X85468D01*
G37*
G36*
G01X97402Y261012D02*
X95434D01*
Y259988D01*
X97402D01*
Y261012D01*
G37*
G36*
G01Y263012D02*
X95434D01*
Y261988D01*
X97402D01*
Y263012D01*
G37*
G36*
G01X85402D02*
X83434D01*
Y261988D01*
X85402D01*
Y263012D01*
G37*
G36*
G01Y261012D02*
X83434D01*
Y259988D01*
X85402D01*
Y261012D01*
G37*
G36*
G01X94485Y264339D02*
X90418D01*
Y261661D01*
X94485D01*
Y264339D01*
G37*
G36*
G01X89918D02*
X85851D01*
Y261661D01*
X89918D01*
Y264339D01*
G37*
G36*
G01Y261339D02*
X85851D01*
Y258661D01*
X89918D01*
Y261339D01*
G37*
G36*
G01X94485D02*
X90418D01*
Y258661D01*
X94485D01*
Y261339D01*
G37*
G36*
G01X286130Y89416D02*
Y91384D01*
X285106D01*
Y89416D01*
X286130D01*
G37*
G36*
G01X288130D02*
Y91384D01*
X287106D01*
Y89416D01*
X288130D01*
G37*
G36*
G01Y101416D02*
Y103384D01*
X287106D01*
Y101416D01*
X288130D01*
G37*
G36*
G01X286130D02*
Y103384D01*
X285106D01*
Y101416D01*
X286130D01*
G37*
G36*
G01X289457Y92333D02*
Y96400D01*
X286780D01*
Y92333D01*
X289457D01*
G37*
G36*
G01Y96900D02*
Y100967D01*
X286780D01*
Y96900D01*
X289457D01*
G37*
G36*
G01X286457D02*
Y100967D01*
X283780D01*
Y96900D01*
X286457D01*
G37*
G36*
G01Y92333D02*
Y96400D01*
X283780D01*
Y92333D01*
X286457D01*
G37*
G36*
G01X294830Y226316D02*
Y228284D01*
X293806D01*
Y226316D01*
X294830D01*
G37*
G36*
G01X296830D02*
Y228284D01*
X295806D01*
Y226316D01*
X296830D01*
G37*
G36*
G01Y238316D02*
Y240284D01*
X295806D01*
Y238316D01*
X296830D01*
G37*
G36*
G01X294830D02*
Y240284D01*
X293806D01*
Y238316D01*
X294830D01*
G37*
G36*
G01X298157Y229233D02*
Y233300D01*
X295480D01*
Y229233D01*
X298157D01*
G37*
G36*
G01Y233800D02*
Y237867D01*
X295480D01*
Y233800D01*
X298157D01*
G37*
G36*
G01X295157D02*
Y237867D01*
X292480D01*
Y233800D01*
X295157D01*
G37*
G36*
G01Y229233D02*
Y233300D01*
X292480D01*
Y229233D01*
X295157D01*
G37*
G36*
G01X285630Y185216D02*
Y187184D01*
X284606D01*
Y185216D01*
X285630D01*
G37*
G36*
G01X287630D02*
Y187184D01*
X286606D01*
Y185216D01*
X287630D01*
G37*
G36*
G01Y197216D02*
Y199184D01*
X286606D01*
Y197216D01*
X287630D01*
G37*
G36*
G01X285630D02*
Y199184D01*
X284606D01*
Y197216D01*
X285630D01*
G37*
G36*
G01X288957Y188133D02*
Y192200D01*
X286280D01*
Y188133D01*
X288957D01*
G37*
G36*
G01Y192700D02*
Y196767D01*
X286280D01*
Y192700D01*
X288957D01*
G37*
G36*
G01X285957D02*
Y196767D01*
X283280D01*
Y192700D01*
X285957D01*
G37*
G36*
G01Y188133D02*
Y192200D01*
X283280D01*
Y188133D01*
X285957D01*
G37*
G36*
G01X299530Y302316D02*
Y304284D01*
X298506D01*
Y302316D01*
X299530D01*
G37*
G36*
G01X301530D02*
Y304284D01*
X300506D01*
Y302316D01*
X301530D01*
G37*
G36*
G01Y314316D02*
Y316284D01*
X300506D01*
Y314316D01*
X301530D01*
G37*
G36*
G01X299530D02*
Y316284D01*
X298506D01*
Y314316D01*
X299530D01*
G37*
G36*
G01X302857Y305233D02*
Y309300D01*
X300180D01*
Y305233D01*
X302857D01*
G37*
G36*
G01Y309800D02*
Y313867D01*
X300180D01*
Y309800D01*
X302857D01*
G37*
G36*
G01X299857D02*
Y313867D01*
X297180D01*
Y309800D01*
X299857D01*
G37*
G36*
G01Y305233D02*
Y309300D01*
X297180D01*
Y305233D01*
X299857D01*
G37*
G54D10*
X39718Y25300D03*
X360000D03*
Y450000D03*
G54D11*
X51368Y94475D03*
Y97625D03*
Y100775D03*
X27068D03*
Y97625D03*
Y94475D03*
Y91325D03*
X51368D03*
Y103925D03*
X27068D03*
Y107075D03*
X51368D03*
Y116525D03*
Y110225D03*
Y113375D03*
X27068Y135425D03*
Y132275D03*
Y129125D03*
Y125975D03*
Y122825D03*
Y119675D03*
X51368D03*
Y122825D03*
Y125975D03*
Y129125D03*
Y132275D03*
Y135425D03*
X27068Y116525D03*
Y113375D03*
Y110225D03*
Y151175D03*
X51368D03*
X27068Y148025D03*
Y144875D03*
Y141725D03*
Y138575D03*
X51368D03*
Y141725D03*
Y144875D03*
Y148025D03*
Y173225D03*
Y170075D03*
X27068D03*
Y173225D03*
X51368Y195275D03*
Y192125D03*
Y188975D03*
Y185825D03*
Y182675D03*
Y179525D03*
Y176375D03*
X27068D03*
Y179525D03*
Y182675D03*
Y185825D03*
Y188975D03*
Y192125D03*
Y195275D03*
X51368Y226775D03*
Y223625D03*
Y220475D03*
Y217325D03*
Y214175D03*
Y211025D03*
Y207875D03*
Y204725D03*
Y201575D03*
Y198425D03*
X27068D03*
Y201575D03*
Y204725D03*
Y207875D03*
Y211025D03*
Y214175D03*
Y217325D03*
Y220475D03*
Y223625D03*
Y226775D03*
X51368Y229925D03*
X27068D03*
Y274025D03*
Y270875D03*
Y267725D03*
Y264575D03*
Y261425D03*
Y258275D03*
Y255125D03*
Y251975D03*
Y248825D03*
Y305525D03*
Y302375D03*
Y299225D03*
Y296075D03*
Y292925D03*
Y289775D03*
Y286625D03*
Y283475D03*
Y280325D03*
Y277175D03*
Y308675D03*
X51368Y248825D03*
Y251975D03*
Y255125D03*
Y258275D03*
Y261425D03*
Y264575D03*
Y267725D03*
Y270875D03*
Y274025D03*
Y277175D03*
Y280325D03*
Y283475D03*
Y286625D03*
Y289775D03*
Y292925D03*
Y296075D03*
Y299225D03*
Y302375D03*
Y305525D03*
Y308675D03*
G54D20*
X94118Y119700D03*
Y122260D03*
Y124820D03*
Y127380D03*
X111618D03*
Y124820D03*
Y122260D03*
Y119700D03*
G54D30*
X86480Y255706D03*
X88449D03*
X90418D03*
X92387D03*
X94356D03*
Y267294D03*
X92387D03*
X90418D03*
X88449D03*
X86480D03*
G54D21*
X123165Y119800D03*
X129071D03*
X123165Y126800D03*
X129071D03*
X301765Y28700D03*
X307671D03*
G54D12*
X39218Y88000D03*
Y154500D03*
Y166750D03*
Y233250D03*
Y245500D03*
Y312000D03*
G54D40*
X200457Y386156D03*
Y401510D03*
X225457Y386156D03*
X220457D03*
X215457D03*
X210457D03*
X205457D03*
X225457Y401510D03*
X220457D03*
X215457D03*
X210457D03*
X205457D03*
G54D31*
X114434Y391496D03*
X116402D03*
X120434D03*
X122402D03*
X114434Y393858D03*
X116402D03*
X120434D03*
X122402D03*
X326437Y100916D03*
X328799D03*
X326437Y102884D03*
X328799D03*
X333435Y179894D03*
X335797D03*
X333435Y177926D03*
X335797D03*
X334035Y256484D03*
X336397D03*
X334035Y254516D03*
X336397D03*
X331935Y332411D03*
X334297D03*
X331935Y330442D03*
X334297D03*
G54D22*
X119500Y149750D03*
X116950D03*
X122050D03*
Y142250D03*
X119500D03*
X116950D03*
G54D13*
X39218Y108750D03*
Y133750D03*
Y187500D03*
Y212500D03*
Y266250D03*
Y291250D03*
G54D50*
X225453Y415100D03*
X232147D03*
G54D14*
X12643Y175375D03*
X16384D03*
X12643Y217275D03*
X16384D03*
X12643Y193275D03*
X16384D03*
X12643Y199075D03*
X16384D03*
X12643Y204875D03*
X16384D03*
X12643Y210575D03*
X16384D03*
X12643Y181475D03*
X16384D03*
Y187475D03*
X12643D03*
X18289Y263053D03*
X14548D03*
X75548Y59000D03*
X79288D03*
X127118Y74130D03*
Y77870D03*
X110618Y74130D03*
Y77870D03*
X105118Y74130D03*
Y77870D03*
X121618Y74130D03*
Y77870D03*
X116118Y74130D03*
Y77870D03*
X99618Y74130D03*
Y77870D03*
X94118Y74130D03*
Y77870D03*
X66118Y85130D03*
Y88870D03*
Y97870D03*
Y94130D03*
X65320Y172900D03*
X61580D03*
X100288Y112000D03*
X96548D03*
X111520D03*
X107780D03*
X100118Y135330D03*
Y139070D03*
X79248Y120800D03*
X82988D03*
X78370Y126500D03*
X74630D03*
X60500Y194330D03*
Y198070D03*
X64320Y204725D03*
X60580D03*
X95088Y204000D03*
X91348D03*
X119718Y214370D03*
Y210630D03*
X95088Y211500D03*
X91348D03*
X119718Y199630D03*
Y203370D03*
X123289Y193829D03*
X119548D03*
X93918Y246230D03*
X99418D03*
X109648Y190000D03*
X113388D03*
X91348Y197000D03*
X95088D03*
X111088Y222000D03*
X107348D03*
X91348Y218000D03*
X95088D03*
X60580Y212950D03*
X64320D03*
X60580Y218550D03*
X64320D03*
X76448Y275800D03*
X80188D03*
X124318Y298030D03*
Y301770D03*
X118518Y298130D03*
Y301870D03*
X83848Y249700D03*
X87588D03*
X80418Y266370D03*
Y262630D03*
X93918Y249970D03*
X99418D03*
X94918Y276870D03*
Y273130D03*
X62912Y264250D03*
X66652D03*
X62912Y270050D03*
X66652D03*
X132618Y74130D03*
Y77870D03*
X157870Y100500D03*
X154130D03*
X173718Y94230D03*
Y97970D03*
X188718Y94230D03*
Y97970D03*
X203718Y94230D03*
Y97970D03*
X146118Y163030D03*
Y166770D03*
X152618Y163030D03*
Y166770D03*
X188718Y175330D03*
X203718D03*
X173718D03*
X140870Y111500D03*
X137130D03*
X188718Y179070D03*
X203718D03*
X173718D03*
X189988Y199600D03*
X186248D03*
X185018Y271370D03*
Y267630D03*
X196318Y271470D03*
Y267730D03*
X202218Y261970D03*
Y258230D03*
X196318Y261970D03*
Y258230D03*
X179018Y262070D03*
Y258330D03*
X184892Y262070D03*
Y258330D03*
X190718Y261970D03*
Y258230D03*
X187448Y311253D03*
X191188D03*
X178548Y307400D03*
X182288D03*
X202218Y267730D03*
Y271470D03*
X179018Y267630D03*
Y271370D03*
X190718Y267730D03*
Y271470D03*
X187448Y304200D03*
X191188D03*
X187448Y289200D03*
X191188D03*
X178548Y293800D03*
X182288D03*
X187548Y297473D03*
X191288D03*
X178548Y300600D03*
X182288D03*
X178548Y315400D03*
X182288D03*
X194218Y324934D03*
Y321194D03*
X190269Y363130D03*
Y366870D03*
X183769Y363130D03*
Y366870D03*
X197130Y363000D03*
X200870D03*
X196200Y373370D03*
Y369630D03*
X175888Y350100D03*
X172148D03*
X165918Y338870D03*
Y335130D03*
X178788Y326700D03*
X175048D03*
X270588Y24000D03*
X266848D03*
Y29500D03*
X270588D03*
X270718Y16870D03*
Y13130D03*
X276218D03*
Y16870D03*
X274018Y102770D03*
Y99030D03*
X218718Y94230D03*
Y97970D03*
X274888Y93200D03*
X271148D03*
X274888Y87700D03*
X271148D03*
X218718Y175330D03*
X254818Y147470D03*
Y143730D03*
X250548Y120100D03*
X254288D03*
X250248Y138400D03*
X253988D03*
X250948Y155500D03*
X254688D03*
X250548Y125700D03*
X254288D03*
X250248Y132800D03*
X253988D03*
X244018Y125530D03*
Y129270D03*
X218718Y179070D03*
X274518Y199570D03*
Y195830D03*
X233018Y193630D03*
Y197370D03*
X227518D03*
Y193630D03*
X217388Y198500D03*
X213648D03*
X217388Y193000D03*
X213648D03*
X274388Y184700D03*
X270648D03*
X274388Y190200D03*
X270648D03*
X224918Y271570D03*
Y267830D03*
X213518Y271470D03*
Y267730D03*
X208118Y271470D03*
Y267730D03*
X241937Y271720D03*
Y267980D03*
X236437Y271720D03*
Y267980D03*
X253848Y278900D03*
X257588D03*
X257488Y284700D03*
X253748D03*
X224918Y261970D03*
Y258230D03*
X213518Y261970D03*
Y258230D03*
X208118Y261970D03*
Y258230D03*
X259918Y257630D03*
Y261370D03*
X252918Y258230D03*
Y261970D03*
X247418Y258230D03*
Y261970D03*
X236418Y258230D03*
Y261970D03*
X230718Y258230D03*
Y261970D03*
X255748Y316900D03*
X259488D03*
X255748Y311121D03*
X259488D03*
X219218Y267830D03*
Y271570D03*
Y261970D03*
Y258230D03*
X241918Y261970D03*
Y258230D03*
X230718Y267930D03*
Y271670D03*
X255500Y386870D03*
Y383130D03*
X244300Y372530D03*
Y376270D03*
X251000Y372630D03*
Y376370D03*
X239500Y391870D03*
Y388130D03*
X215462Y363000D03*
X219202D03*
X228800Y373070D03*
Y369330D03*
X228370Y363000D03*
X224630D03*
X209870D03*
X206130D03*
X255748Y322800D03*
X259488D03*
X218697Y343870D03*
Y340130D03*
X229918Y349430D03*
Y353170D03*
X233018Y340130D03*
Y343870D03*
X237418Y349430D03*
Y353170D03*
X240118Y340130D03*
Y343870D03*
X214918Y353170D03*
Y349430D03*
X211718Y343870D03*
Y340130D03*
X207418Y353170D03*
Y349430D03*
X259488Y328700D03*
X255748D03*
X271488Y331700D03*
X267748D03*
X259488Y334700D03*
X255748D03*
X225918Y343870D03*
Y340130D03*
X222418Y353170D03*
Y349430D03*
X260630Y419000D03*
X264370D03*
X273370D03*
X269630D03*
X238600Y415230D03*
Y418970D03*
X274630Y412500D03*
Y407000D03*
X253130Y409500D03*
X256870D03*
X208744Y424130D03*
Y427870D03*
X221744Y424130D03*
Y427870D03*
X215457Y424130D03*
Y427870D03*
X277918Y23830D03*
Y27570D03*
X292718Y13130D03*
Y16870D03*
X305718D03*
Y13130D03*
X287218Y16870D03*
Y13130D03*
X305588Y22500D03*
X301848D03*
X281718Y16870D03*
Y13130D03*
X298518Y102170D03*
Y98430D03*
Y89530D03*
Y93270D03*
X306018Y135670D03*
Y131930D03*
X291920Y106100D03*
X288180D03*
X327836Y145428D03*
X331576D03*
X327836Y150928D03*
X331576D03*
X303999Y114877D03*
X307739D03*
X304018Y120403D03*
X307758D03*
X304048Y126000D03*
X307788D03*
X318688Y188200D03*
X314948D03*
X306718Y239170D03*
Y235430D03*
X283718Y239070D03*
Y235330D03*
X306718Y226430D03*
Y230170D03*
X291420Y202200D03*
X287680D03*
X283588Y229800D03*
X279848D03*
X283588Y224300D03*
X279848D03*
X323846Y176227D03*
X327586D03*
X323846Y181827D03*
X327586D03*
X300620Y243300D03*
X296880D03*
X297518Y185330D03*
Y189070D03*
X311418Y315170D03*
Y311430D03*
X288418Y315070D03*
Y311330D03*
X288288Y305800D03*
X284548D03*
X288288Y300300D03*
X284548D03*
X311418Y302430D03*
Y306170D03*
X305320Y319300D03*
X301580D03*
X322146Y334000D03*
X325886D03*
X322146Y328500D03*
X325886D03*
X318370Y408500D03*
X314630D03*
X289630Y408000D03*
X293370D03*
X278370Y412500D03*
Y407000D03*
X318370Y420000D03*
X314630D03*
X289630Y414000D03*
X293370D03*
X301342Y419500D03*
X305083D03*
X318370Y414500D03*
X314630D03*
G54D23*
X93000Y155500D03*
X96500D03*
X85500D03*
X89000D03*
X80000Y156000D03*
X76500D03*
X89000Y151000D03*
X85500D03*
X130500Y135500D03*
X127000D03*
X119500Y160500D03*
Y157000D03*
X128000Y145500D03*
Y142000D03*
X123000Y135500D03*
X119500D03*
X96500Y151000D03*
X93000D03*
X81000Y177500D03*
Y181000D03*
G54D32*
X157874Y89819D03*
Y67181D03*
X142126Y89819D03*
Y67181D03*
X141126Y122181D03*
Y144819D03*
X156874Y122181D03*
Y144819D03*
G54D41*
X275718Y66602D03*
Y54398D03*
G54D24*
X79661Y172504D03*
X82221D03*
X84780D03*
X87339D03*
G54D60*
X280824Y100338D03*
Y98369D03*
Y96400D03*
Y94431D03*
Y92462D03*
X292412D03*
Y94431D03*
Y96400D03*
Y98369D03*
Y100338D03*
X289524Y237238D03*
Y235269D03*
Y233300D03*
Y231331D03*
Y229362D03*
X301112D03*
Y231331D03*
Y233300D03*
Y235269D03*
Y237238D03*
X280324Y196138D03*
Y194169D03*
Y192200D03*
Y190231D03*
Y188262D03*
X291912D03*
Y190231D03*
Y192200D03*
Y194169D03*
Y196138D03*
X294224Y313238D03*
Y311269D03*
Y309300D03*
Y307331D03*
Y305362D03*
X305812D03*
Y307331D03*
Y309300D03*
Y311269D03*
Y313238D03*
G54D33*
X138468Y167853D03*
Y161947D03*
X205118Y343853D03*
Y337947D03*
X187718Y321111D03*
Y327017D03*
X256718Y65453D03*
Y59547D03*
X276918Y37008D03*
Y42914D03*
X299218Y11047D03*
Y16953D03*
X300002Y37008D03*
Y42914D03*
G54D15*
X133561Y16103D03*
X76475D03*
X133561Y39567D03*
X76475D03*
G54D42*
X239116Y94500D03*
X251320D03*
G54D51*
X274599Y463376D03*
X272631D03*
X270662D03*
X268694D03*
X274599Y440824D03*
X272631D03*
X270662D03*
X268694D03*
X325780Y463376D03*
X323812D03*
X321843D03*
X319875D03*
X317906D03*
X315938D03*
X313969D03*
X312001D03*
X310032D03*
X308064D03*
X306095D03*
X304127D03*
X302158D03*
X300190D03*
X298221D03*
X296253D03*
X294284D03*
X292316D03*
X290347D03*
X288379D03*
X286410D03*
X284442D03*
X282473D03*
X280505D03*
X278536D03*
X276568D03*
X325780Y440824D03*
X323812D03*
X321843D03*
X319875D03*
X317906D03*
X315938D03*
X313969D03*
X312001D03*
X310032D03*
X308064D03*
X306095D03*
X304127D03*
X302158D03*
X300190D03*
X298221D03*
X296253D03*
X294284D03*
X292316D03*
X290347D03*
X288379D03*
X286410D03*
X284442D03*
X282473D03*
X280505D03*
X278536D03*
X276568D03*
G54D25*
X79661Y160988D03*
X82221D03*
X84780D03*
X87339D03*
G54D61*
X321294Y150925D03*
Y145425D03*
X307494Y150925D03*
Y145425D03*
G54D43*
X264718Y66437D03*
Y58563D03*
X314718Y130563D03*
Y138437D03*
G54D52*
X285665Y26320D03*
X287634D03*
X289602D03*
X291571D03*
X285665Y41280D03*
X287634D03*
X289602D03*
X291571D03*
G54D16*
X121855Y58426D03*
X119887D03*
X117918D03*
X115949D03*
X113981D03*
Y55374D03*
X115949D03*
X117918D03*
X119887D03*
X121855D03*
X88509D03*
X90477D03*
X92446D03*
X94415D03*
X96383D03*
Y58426D03*
X94415D03*
X92446D03*
X90477D03*
X88509D03*
X101745Y55374D03*
X103713D03*
X105682D03*
X107651D03*
X109619D03*
Y58426D03*
X107651D03*
X105682D03*
X103713D03*
X101745D03*
X122355Y402203D03*
X120387D03*
X118418D03*
X116449D03*
X114481D03*
Y399151D03*
X116449D03*
X118418D03*
X120387D03*
X122355D03*
G54D34*
X173718Y164600D03*
X178718D03*
X183718D03*
X188718D03*
X193718D03*
X198718D03*
X203718D03*
Y107400D03*
X198718D03*
X193718D03*
X188718D03*
X183718D03*
X178718D03*
X173718D03*
X208718Y164600D03*
X213718D03*
X218718D03*
X223718D03*
X228718D03*
Y107400D03*
X223718D03*
X218718D03*
X213718D03*
X208718D03*
G54D62*
X381420Y91786D03*
Y114620D03*
Y245386D03*
Y268220D03*
G54D26*
X82555Y111800D03*
X69681D03*
X91755Y137300D03*
X78881D03*
G54D44*
X265639Y149834D03*
Y147275D03*
Y144716D03*
Y142157D03*
Y139598D03*
Y137039D03*
Y134480D03*
Y131920D03*
Y129361D03*
Y126802D03*
Y124243D03*
Y121684D03*
Y119125D03*
Y116566D03*
X293198D03*
Y119125D03*
Y121684D03*
Y124243D03*
Y126802D03*
Y129361D03*
Y131920D03*
Y134480D03*
Y137039D03*
Y139598D03*
Y142157D03*
Y144716D03*
Y147275D03*
Y149834D03*
G54D17*
X79418Y76800D03*
Y66800D03*
G54D53*
X283106Y28879D03*
X294130D03*
X283106Y30847D03*
Y32816D03*
Y34784D03*
Y38721D03*
X294130Y30847D03*
Y32816D03*
Y34784D03*
Y38721D03*
G54D35*
X199866Y214100D03*
X191992D03*
X184118D03*
X199866Y230911D03*
X191992D03*
X184118D03*
X254984Y214100D03*
X247110D03*
X239236D03*
X231362D03*
X223488D03*
X215614D03*
X207740D03*
X254984Y230911D03*
X247110D03*
X239236D03*
X231362D03*
X223488D03*
X215614D03*
X207740D03*
G54D18*
X87302Y42559D03*
X89270D03*
X91239D03*
X93207D03*
X95176D03*
X97144D03*
X99113D03*
X101081D03*
X103050D03*
X105018D03*
X106987D03*
X108955D03*
X110924D03*
X112892D03*
X114861D03*
X116829D03*
X118798D03*
X120766D03*
X122735D03*
G54D45*
X268318Y286226D03*
Y301974D03*
G54D54*
X325318Y31798D03*
X314818Y31698D03*
X325318Y44002D03*
X314818Y43902D03*
G54D27*
X110718Y202300D03*
Y199740D03*
Y197180D03*
X103718D03*
Y199740D03*
Y202300D03*
X104218Y210200D03*
Y212760D03*
Y215320D03*
X111218D03*
Y212760D03*
Y210200D03*
G54D36*
X193567Y245380D03*
X191992D03*
X190417D03*
X188842D03*
X203356Y200220D03*
Y195180D03*
X193567Y250420D03*
X191992D03*
X190417D03*
X188842D03*
X203882Y374020D03*
Y368980D03*
X202307Y374020D03*
Y368980D03*
X255056Y244480D03*
X256631D03*
X258206D03*
X259780D03*
X217189Y245380D03*
X215614D03*
X214039D03*
X212465D03*
X240811D03*
X239236D03*
X237661D03*
X236087D03*
X208080Y200220D03*
Y195180D03*
X206506Y200220D03*
Y195180D03*
X204931Y200220D03*
Y195180D03*
X255056Y249520D03*
X256631D03*
X258206D03*
X259780D03*
X217189Y250420D03*
X215614D03*
X214039D03*
X212465D03*
X240811D03*
X239236D03*
X237661D03*
X236087D03*
X207031Y374020D03*
Y368980D03*
X205457Y374020D03*
Y368980D03*
X222031Y373769D03*
Y368730D03*
X220457Y373769D03*
Y368730D03*
X218882Y373769D03*
Y368730D03*
X217307Y373769D03*
Y368730D03*
X213882Y413980D03*
Y419020D03*
X215457Y413980D03*
Y419020D03*
X217031Y413980D03*
Y419020D03*
X218606Y413980D03*
Y419020D03*
X293580Y360320D03*
Y355280D03*
X292006Y360320D03*
Y355280D03*
X290431Y360320D03*
Y355280D03*
X288856Y360320D03*
Y355280D03*
X303380Y360320D03*
Y355280D03*
X301806Y360320D03*
Y355280D03*
X300231Y360320D03*
Y355280D03*
X298656Y360320D03*
Y355280D03*
G54D63*
X382227Y98085D03*
Y100644D03*
Y108321D03*
Y105762D03*
Y103203D03*
Y261921D03*
Y259362D03*
Y251685D03*
Y254244D03*
Y256803D03*
G54D37*
X205718Y197700D03*
X191205Y247900D03*
X204669Y371500D03*
X257418Y247000D03*
X214827Y247900D03*
X238449D03*
X219669Y371250D03*
X216244Y416500D03*
X291218Y357800D03*
X301018D03*
G54D64*
X394136Y99414D03*
Y106993D03*
Y260593D03*
Y253014D03*
G54D19*
X73678Y87565D03*
X81158D03*
X77418Y96226D03*
X172278Y334165D03*
X179758D03*
X176018Y342826D03*
G54D28*
X75000Y178500D03*
Y184100D03*
G54D46*
X238382Y286253D03*
X236413D03*
X234445D03*
X232476D03*
X230508D03*
X228539D03*
X226571D03*
X224602D03*
X222634D03*
X220665D03*
X218697D03*
X216728D03*
X214760D03*
X212791D03*
X210823D03*
X208854D03*
Y330347D03*
X210823D03*
X212791D03*
X214760D03*
X216728D03*
X218697D03*
X220665D03*
X222634D03*
X224602D03*
X226571D03*
X228539D03*
X230508D03*
X232476D03*
X234445D03*
X236413D03*
X238382D03*
G54D55*
X334192Y100969D03*
Y99000D03*
Y97031D03*
Y95063D03*
X337244D03*
Y97031D03*
Y99000D03*
Y100969D03*
X334192Y102937D03*
X337244D03*
X340490Y173958D03*
Y171990D03*
X343542D03*
Y173958D03*
X340490Y179864D03*
Y177896D03*
Y175926D03*
X343542D03*
Y177896D03*
Y179864D03*
Y254463D03*
Y256431D03*
Y258400D03*
Y260369D03*
Y262337D03*
X340490D03*
Y260369D03*
Y258400D03*
Y256431D03*
Y254463D03*
Y332564D03*
Y330596D03*
Y328626D03*
Y326658D03*
Y324690D03*
X343542D03*
Y326658D03*
Y328626D03*
Y330596D03*
Y332564D03*
G54D47*
X258318Y293000D03*
Y290600D03*
Y298000D03*
Y300400D03*
G54D56*
X326318Y87700D03*
Y59700D03*
X321318Y238700D03*
Y210700D03*
X326118Y311800D03*
Y283800D03*
G54D29*
X78418Y289500D03*
X106418D03*
X275818Y170200D03*
X303818D03*
G54D38*
X201571Y293536D03*
Y295505D03*
Y297473D03*
Y299442D03*
Y301410D03*
Y303379D03*
Y305347D03*
Y307316D03*
Y309284D03*
Y311253D03*
Y313221D03*
Y315190D03*
Y317158D03*
Y319127D03*
Y321095D03*
Y323064D03*
X245665Y319127D03*
Y317158D03*
Y315190D03*
Y313221D03*
Y311253D03*
Y309284D03*
Y307316D03*
Y305347D03*
Y303379D03*
Y301410D03*
Y299442D03*
Y297473D03*
Y295505D03*
Y293536D03*
Y323064D03*
Y321095D03*
G54D65*
X391479Y91442D03*
Y245042D03*
G54D39*
X197818Y352234D03*
Y343966D03*
G54D48*
X249468Y388256D03*
X247500D03*
X245532D03*
Y382744D03*
X247500D03*
X249468D03*
G54D57*
X288618Y35001D03*
G54D66*
X391479Y114965D03*
Y268565D03*
G54D67*
G01X37218Y-193700D02*
X602518D01*
G01X37218Y-213700D02*
X602718D01*
Y-134771D01*
G01X37218Y-134300D02*
Y-213700D01*
G01Y-173700D02*
X602718D01*
G01X37218Y-134500D02*
X602718D01*
G01X37218Y-153700D02*
X602618D01*
G54D49*
X263244Y413468D03*
Y411500D03*
Y409532D03*
X268756D03*
Y411500D03*
Y413468D03*
X306756Y410031D03*
Y412000D03*
Y413968D03*
X301244D03*
Y412000D03*
Y410031D03*
G54D58*
X288618Y38032D03*
G54D68*
G01X43093Y-207500D02*
Y-197500D01*
X47843D01*
G01X46093Y-202333D02*
X43093D01*
G01X53968Y-197500D02*
X56968D01*
G01X55468D02*
Y-207500D01*
G01X53968D02*
X56968D01*
G01X62968Y-197500D02*
Y-207500D01*
X67968D01*
G01X72218D02*
Y-197500D01*
X75468Y-205833D01*
X78718Y-197500D01*
Y-207500D01*
G01X92968Y-197500D02*
Y-207500D01*
X97968D01*
G01X102343D02*
X105468Y-197500D01*
X108593Y-207500D01*
G01X107468Y-204000D02*
X103468D01*
G01X115468Y-207500D02*
Y-203000D01*
X112968Y-197500D01*
G01X117968D02*
X115468Y-203000D01*
G01X127968Y-207500D02*
X122968D01*
Y-197500D01*
X127968D01*
G01X125968Y-202333D02*
X122968D01*
G01X132968Y-207500D02*
Y-197500D01*
X136093D01*
X137093Y-198000D01*
X137718Y-198667D01*
X137968Y-200000D01*
X137718Y-201333D01*
X136968Y-202167D01*
X136093Y-202667D01*
X132968D01*
G01X136093D02*
X137968Y-207500D01*
G01X145468Y-207833D02*
X145218Y-207667D01*
Y-207333D01*
X145468Y-207167D01*
X145718Y-207333D01*
Y-207667D01*
X145468Y-207833D01*
G01Y-203334D02*
X145218Y-203167D01*
Y-202833D01*
X145468Y-202667D01*
X145718Y-202833D01*
Y-203167D01*
X145468Y-203334D01*
G01X48218Y-179834D02*
X47468Y-179333D01*
X46593Y-179000D01*
X45593D01*
X44468Y-179500D01*
X43593Y-180333D01*
X42968Y-181333D01*
X42468Y-183000D01*
X42343Y-184500D01*
X42593Y-186000D01*
X42968Y-187000D01*
X43718Y-188000D01*
X44593Y-188667D01*
X45468Y-189000D01*
X46343D01*
X47218Y-188667D01*
X47968Y-188167D01*
X48593Y-187500D01*
G01X52343Y-189000D02*
X55468Y-179000D01*
X58593Y-189000D01*
G01X57468Y-185500D02*
X53468D01*
G01X62968Y-189000D02*
Y-179000D01*
X66093D01*
X67093Y-179500D01*
X67718Y-180167D01*
X67968Y-181500D01*
X67718Y-182833D01*
X66968Y-183667D01*
X66093Y-184167D01*
X62968D01*
G01X66093D02*
X67968Y-189000D01*
G01X72718D02*
Y-179000D01*
X75218D01*
X76218Y-179500D01*
X76968Y-180167D01*
X77593Y-181166D01*
X78093Y-182334D01*
X78218Y-184000D01*
X78093Y-185667D01*
X77593Y-186834D01*
X76968Y-187834D01*
X76218Y-188500D01*
X75218Y-189000D01*
X72718D01*
G01X92968D02*
Y-179000D01*
X96093D01*
X97093Y-179500D01*
X97718Y-180167D01*
X97968Y-181500D01*
X97718Y-182833D01*
X96968Y-183667D01*
X96093Y-184167D01*
X92968D01*
G01X96093D02*
X97968Y-189000D01*
G01X107968D02*
X102968D01*
Y-179000D01*
X107968D01*
G01X105968Y-183833D02*
X102968D01*
G01X113093Y-189000D02*
Y-179000D01*
X117843D01*
G01X116093Y-183833D02*
X113093D01*
G01X125468Y-189333D02*
X125218Y-189167D01*
Y-188833D01*
X125468Y-188667D01*
X125718Y-188833D01*
Y-189167D01*
X125468Y-189333D01*
G01Y-184834D02*
X125218Y-184667D01*
Y-184333D01*
X125468Y-184167D01*
X125718Y-184333D01*
Y-184667D01*
X125468Y-184834D01*
G01X135468Y-189000D02*
X134468Y-188833D01*
X133593Y-188167D01*
X132843Y-187167D01*
X132343Y-186000D01*
X132093Y-184667D01*
Y-183333D01*
X132343Y-182000D01*
X132843Y-180833D01*
X133593Y-179834D01*
X134468Y-179167D01*
X135468Y-179000D01*
X136468Y-179167D01*
X137343Y-179834D01*
X138093Y-180833D01*
X138593Y-182000D01*
X138843Y-183333D01*
Y-184667D01*
X138593Y-186000D01*
X138093Y-187167D01*
X137343Y-188167D01*
X136468Y-188833D01*
X135468Y-189000D01*
G01X143218Y-192333D02*
Y-182334D01*
G01Y-183833D02*
X143843Y-183000D01*
X144468Y-182500D01*
X145468Y-182334D01*
X146343Y-182500D01*
X147218Y-183333D01*
X147593Y-184500D01*
X147718Y-185667D01*
X147593Y-186834D01*
X147218Y-188000D01*
X146468Y-188667D01*
X145468Y-189000D01*
X144593Y-188833D01*
X143718Y-188334D01*
X143218Y-187667D01*
G01X153593Y-184500D02*
X157593D01*
X157218Y-183333D01*
X156593Y-182667D01*
X155718Y-182334D01*
X154843Y-182500D01*
X154093Y-183000D01*
X153593Y-184167D01*
X153343Y-185167D01*
Y-186167D01*
X153593Y-187167D01*
X154218Y-188167D01*
X154968Y-188833D01*
X155843Y-189000D01*
X156718Y-188667D01*
X157593Y-187667D01*
G01X163343Y-189000D02*
Y-182334D01*
G01Y-184000D02*
X163843Y-183167D01*
X164593Y-182500D01*
X165593Y-182334D01*
X166468Y-182500D01*
X167218Y-183167D01*
X167593Y-184333D01*
Y-189000D01*
G01X178218Y-179834D02*
X177468Y-179333D01*
X176593Y-179000D01*
X175593D01*
X174468Y-179500D01*
X173593Y-180333D01*
X172968Y-181333D01*
X172468Y-183000D01*
X172343Y-184500D01*
X172593Y-186000D01*
X172968Y-187000D01*
X173718Y-188000D01*
X174593Y-188667D01*
X175468Y-189000D01*
X176343D01*
X177218Y-188667D01*
X177968Y-188167D01*
X178593Y-187500D01*
G01X183593Y-184500D02*
X187593D01*
X187218Y-183333D01*
X186593Y-182667D01*
X185718Y-182334D01*
X184843Y-182500D01*
X184093Y-183000D01*
X183593Y-184167D01*
X183343Y-185167D01*
Y-186167D01*
X183593Y-187167D01*
X184218Y-188167D01*
X184968Y-188833D01*
X185843Y-189000D01*
X186718Y-188667D01*
X187593Y-187667D01*
G01X195468Y-189000D02*
Y-179000D01*
G01X205468Y-189000D02*
Y-179000D01*
G01X213343Y-182334D02*
Y-187000D01*
X213843Y-188167D01*
X214593Y-188833D01*
X215468Y-189000D01*
X216343Y-188833D01*
X217093Y-188167D01*
X217593Y-187000D01*
G01Y-189000D02*
Y-182334D01*
G01X225468Y-189000D02*
Y-179000D01*
G01X237718Y-189000D02*
Y-182334D01*
G01Y-183500D02*
X237218Y-182833D01*
X236468Y-182500D01*
X235593Y-182334D01*
X234718Y-182667D01*
X233968Y-183333D01*
X233468Y-184333D01*
X233218Y-185667D01*
X233468Y-187000D01*
X233968Y-188000D01*
X234718Y-188667D01*
X235593Y-189000D01*
X236468Y-188833D01*
X237218Y-188334D01*
X237718Y-187667D01*
G01X243718Y-189000D02*
Y-182334D01*
G01Y-183667D02*
X244343Y-183000D01*
X244968Y-182500D01*
X245843Y-182334D01*
X246468Y-182500D01*
X247218Y-183000D01*
G01X265468Y-189000D02*
Y-179000D01*
G01X278218Y-179834D02*
X277468Y-179333D01*
X276593Y-179000D01*
X275593D01*
X274468Y-179500D01*
X273593Y-180333D01*
X272968Y-181333D01*
X272468Y-183000D01*
X272343Y-184500D01*
X272593Y-186000D01*
X272968Y-187000D01*
X273718Y-188000D01*
X274593Y-188667D01*
X275468Y-189000D01*
X276343D01*
X277218Y-188667D01*
X277968Y-188167D01*
X278593Y-187500D01*
G01X285468Y-189000D02*
X284718Y-188833D01*
X283968Y-188167D01*
X283468Y-187000D01*
X283218Y-185667D01*
X283468Y-184333D01*
X283968Y-183167D01*
X284718Y-182500D01*
X285468Y-182334D01*
X286218Y-182500D01*
X286968Y-183167D01*
X287468Y-184333D01*
X287593Y-185667D01*
X287468Y-187000D01*
X286968Y-188167D01*
X286218Y-188833D01*
X285468Y-189000D01*
G01X293343D02*
Y-182334D01*
G01Y-184000D02*
X293843Y-183167D01*
X294593Y-182500D01*
X295593Y-182334D01*
X296468Y-182500D01*
X297218Y-183167D01*
X297593Y-184333D01*
Y-189000D01*
G01X303343D02*
Y-182334D01*
G01Y-184000D02*
X303843Y-183167D01*
X304593Y-182500D01*
X305593Y-182334D01*
X306468Y-182500D01*
X307218Y-183167D01*
X307593Y-184333D01*
Y-189000D01*
G01X313593Y-184500D02*
X317593D01*
X317218Y-183333D01*
X316593Y-182667D01*
X315718Y-182334D01*
X314843Y-182500D01*
X314093Y-183000D01*
X313593Y-184167D01*
X313343Y-185167D01*
Y-186167D01*
X313593Y-187167D01*
X314218Y-188167D01*
X314968Y-188833D01*
X315843Y-189000D01*
X316718Y-188667D01*
X317593Y-187667D01*
G01X327468Y-183167D02*
X326593Y-182500D01*
X325843Y-182334D01*
X324843Y-182667D01*
X324093Y-183333D01*
X323593Y-184500D01*
X323468Y-185667D01*
X323593Y-186834D01*
X324093Y-187834D01*
X324843Y-188667D01*
X325843Y-189000D01*
X326718Y-188667D01*
X327468Y-188000D01*
G01X335468Y-179000D02*
Y-189000D01*
G01X333718Y-182334D02*
X337218D01*
G01X343843Y-185667D02*
X347093D01*
G01X355468Y-189000D02*
Y-179000D01*
X353968Y-181000D01*
G01Y-189000D02*
X356968D01*
G01X375468D02*
Y-179000D01*
G01X382718Y-189000D02*
Y-179000D01*
X385218D01*
X386218Y-179500D01*
X386968Y-180167D01*
X387593Y-181166D01*
X388093Y-182334D01*
X388218Y-184000D01*
X388093Y-185667D01*
X387593Y-186834D01*
X386968Y-187834D01*
X386218Y-188500D01*
X385218Y-189000D01*
X382718D01*
G01X397968D02*
X392968D01*
Y-179000D01*
X397968D01*
G01X395968Y-183833D02*
X392968D01*
G01X406468Y-183667D02*
X406968Y-183167D01*
X407343Y-182334D01*
X407593Y-181166D01*
X407343Y-180167D01*
X406843Y-179500D01*
X405968Y-179000D01*
X402593D01*
Y-189000D01*
X406718D01*
X407593Y-188334D01*
X408093Y-187333D01*
X408343Y-186167D01*
X408093Y-185000D01*
X407343Y-184000D01*
X406468Y-183667D01*
X402593D01*
G01X412718Y-179000D02*
Y-186167D01*
X413218Y-187667D01*
X414218Y-188667D01*
X415468Y-189000D01*
X416718Y-188667D01*
X417718Y-187667D01*
X418218Y-186167D01*
Y-179000D01*
G01X426218Y-184000D02*
X428718D01*
Y-187000D01*
X427968Y-188000D01*
X427093Y-188667D01*
X425843Y-189000D01*
X424593Y-188667D01*
X423718Y-188000D01*
X422968Y-187000D01*
X422468Y-185833D01*
X422218Y-184500D01*
Y-183333D01*
X422468Y-182334D01*
X422968Y-181166D01*
X423718Y-180167D01*
X424468Y-179500D01*
X425468Y-179000D01*
X426343D01*
X427343Y-179333D01*
X428093Y-180000D01*
G01X431718Y-192333D02*
X439218D01*
G01X446468Y-183667D02*
X446968Y-183167D01*
X447343Y-182334D01*
X447593Y-181166D01*
X447343Y-180167D01*
X446843Y-179500D01*
X445968Y-179000D01*
X442593D01*
Y-189000D01*
X446718D01*
X447593Y-188334D01*
X448093Y-187333D01*
X448343Y-186167D01*
X448093Y-185000D01*
X447343Y-184000D01*
X446468Y-183667D01*
X442593D01*
G01X455468Y-189000D02*
X454468Y-188833D01*
X453593Y-188167D01*
X452843Y-187167D01*
X452343Y-186000D01*
X452093Y-184667D01*
Y-183333D01*
X452343Y-182000D01*
X452843Y-180833D01*
X453593Y-179834D01*
X454468Y-179167D01*
X455468Y-179000D01*
X456468Y-179167D01*
X457343Y-179834D01*
X458093Y-180833D01*
X458593Y-182000D01*
X458843Y-183333D01*
Y-184667D01*
X458593Y-186000D01*
X458093Y-187167D01*
X457343Y-188167D01*
X456468Y-188833D01*
X455468Y-189000D01*
G01X462343D02*
X465468Y-179000D01*
X468593Y-189000D01*
G01X467468Y-185500D02*
X463468D01*
G01X472968Y-189000D02*
Y-179000D01*
X476093D01*
X477093Y-179500D01*
X477718Y-180167D01*
X477968Y-181500D01*
X477718Y-182833D01*
X476968Y-183667D01*
X476093Y-184167D01*
X472968D01*
G01X476093D02*
X477968Y-189000D01*
G01X482718D02*
Y-179000D01*
X485218D01*
X486218Y-179500D01*
X486968Y-180167D01*
X487593Y-181166D01*
X488093Y-182334D01*
X488218Y-184000D01*
X488093Y-185667D01*
X487593Y-186834D01*
X486968Y-187834D01*
X486218Y-188500D01*
X485218Y-189000D01*
X482718D01*
G01X42718Y-149000D02*
Y-139000D01*
X45218D01*
X46218Y-139500D01*
X46968Y-140167D01*
X47593Y-141166D01*
X48093Y-142334D01*
X48218Y-144000D01*
X48093Y-145667D01*
X47593Y-146834D01*
X46968Y-147834D01*
X46218Y-148500D01*
X45218Y-149000D01*
X42718D01*
G01X52343D02*
X55468Y-139000D01*
X58593Y-149000D01*
G01X57468Y-145500D02*
X53468D01*
G01X65468Y-139000D02*
Y-149000D01*
G01X62593Y-139000D02*
X68343D01*
G01X77968Y-149000D02*
X72968D01*
Y-139000D01*
X77968D01*
G01X75968Y-143833D02*
X72968D01*
G01X85468Y-149333D02*
X85218Y-149167D01*
Y-148833D01*
X85468Y-148667D01*
X85718Y-148833D01*
Y-149167D01*
X85468Y-149333D01*
G01Y-144834D02*
X85218Y-144667D01*
Y-144333D01*
X85468Y-144167D01*
X85718Y-144333D01*
Y-144667D01*
X85468Y-144834D01*
G01X95468Y-139000D02*
X94468Y-139333D01*
X93718Y-140167D01*
X93218Y-141166D01*
X92843Y-142500D01*
X92718Y-144000D01*
X92843Y-145500D01*
X93218Y-146834D01*
X93718Y-147834D01*
X94468Y-148667D01*
X95468Y-149000D01*
X96468Y-148667D01*
X97218Y-147834D01*
X97718Y-146834D01*
X98093Y-145500D01*
X98218Y-144000D01*
X98093Y-142500D01*
X97718Y-141166D01*
X97218Y-140167D01*
X96468Y-139333D01*
X95468Y-139000D01*
G01X102718Y-147000D02*
X103468Y-148167D01*
X104468Y-148833D01*
X105593Y-149000D01*
X106593Y-148833D01*
X107593Y-148000D01*
X108218Y-147000D01*
X108343Y-146000D01*
X108093Y-144834D01*
X107218Y-144000D01*
X106343Y-143667D01*
X105218D01*
G01X106343D02*
X107093Y-143167D01*
X107718Y-142334D01*
X107968Y-141333D01*
X107718Y-140333D01*
X107093Y-139500D01*
X105968Y-139000D01*
X104843Y-139167D01*
X103718Y-139834D01*
G01X113843Y-145667D02*
X117093D01*
G01X125468Y-139000D02*
X124468Y-139333D01*
X123718Y-140167D01*
X123218Y-141166D01*
X122843Y-142500D01*
X122718Y-144000D01*
X122843Y-145500D01*
X123218Y-146834D01*
X123718Y-147834D01*
X124468Y-148667D01*
X125468Y-149000D01*
X126468Y-148667D01*
X127218Y-147834D01*
X127718Y-146834D01*
X128093Y-145500D01*
X128218Y-144000D01*
X128093Y-142500D01*
X127718Y-141166D01*
X127218Y-140167D01*
X126468Y-139333D01*
X125468Y-139000D01*
G01X133093Y-144834D02*
X133968Y-143667D01*
X134718Y-143000D01*
X135718Y-142667D01*
X136593Y-143000D01*
X137218Y-143667D01*
X137718Y-144667D01*
X137843Y-145833D01*
X137718Y-146834D01*
X137218Y-147834D01*
X136468Y-148667D01*
X135593Y-149000D01*
X134593Y-148667D01*
X133718Y-147667D01*
X133218Y-146167D01*
X133093Y-144500D01*
X133343Y-142334D01*
X133718Y-141166D01*
X134343Y-140000D01*
X135218Y-139167D01*
X136093Y-139000D01*
X136968Y-139333D01*
X137593Y-140167D01*
G01X143843Y-145667D02*
X147093D01*
G01X153093Y-140667D02*
X153843Y-139667D01*
X154718Y-139167D01*
X155718Y-139000D01*
X156968Y-139333D01*
X157843Y-140167D01*
X158093Y-141166D01*
X157968Y-142167D01*
X157468Y-143000D01*
X154968Y-144667D01*
X153843Y-145833D01*
X153093Y-147500D01*
X152843Y-149000D01*
X158093D01*
G01X165468Y-139000D02*
X164468Y-139333D01*
X163718Y-140167D01*
X163218Y-141166D01*
X162843Y-142500D01*
X162718Y-144000D01*
X162843Y-145500D01*
X163218Y-146834D01*
X163718Y-147834D01*
X164468Y-148667D01*
X165468Y-149000D01*
X166468Y-148667D01*
X167218Y-147834D01*
X167718Y-146834D01*
X168093Y-145500D01*
X168218Y-144000D01*
X168093Y-142500D01*
X167718Y-141166D01*
X167218Y-140167D01*
X166468Y-139333D01*
X165468Y-139000D01*
G01X175468Y-149000D02*
Y-139000D01*
X173968Y-141000D01*
G01Y-149000D02*
X176968D01*
G01X185218D02*
X185468Y-146834D01*
X185843Y-145000D01*
X186343Y-143333D01*
X186968Y-141500D01*
X187968Y-139000D01*
X182968D01*
G01X42718Y-169000D02*
Y-159000D01*
X45218D01*
X46218Y-159500D01*
X46968Y-160167D01*
X47593Y-161166D01*
X48093Y-162334D01*
X48218Y-164000D01*
X48093Y-165667D01*
X47593Y-166834D01*
X46968Y-167834D01*
X46218Y-168500D01*
X45218Y-169000D01*
X42718D01*
G01X57968D02*
X52968D01*
Y-159000D01*
X57968D01*
G01X55968Y-163833D02*
X52968D01*
G01X62843Y-167667D02*
X63843Y-168500D01*
X64968Y-169000D01*
X65968D01*
X66968Y-168500D01*
X67718Y-167667D01*
X68093Y-166500D01*
X67843Y-165334D01*
X67218Y-164333D01*
X66093Y-163667D01*
X64593Y-163333D01*
X63718Y-162667D01*
X63343Y-161500D01*
X63593Y-160333D01*
X64218Y-159500D01*
X65093Y-159000D01*
X65968D01*
X66843Y-159333D01*
X67593Y-160167D01*
G01X73968Y-159000D02*
X76968D01*
G01X75468D02*
Y-169000D01*
G01X73968D02*
X76968D01*
G01X86218Y-164000D02*
X88718D01*
Y-167000D01*
X87968Y-168000D01*
X87093Y-168667D01*
X85843Y-169000D01*
X84593Y-168667D01*
X83718Y-168000D01*
X82968Y-167000D01*
X82468Y-165833D01*
X82218Y-164500D01*
Y-163333D01*
X82468Y-162334D01*
X82968Y-161166D01*
X83718Y-160167D01*
X84468Y-159500D01*
X85468Y-159000D01*
X86343D01*
X87343Y-159333D01*
X88093Y-160000D01*
G01X92593Y-169000D02*
Y-159000D01*
X98343Y-169000D01*
Y-159000D01*
G01X107968Y-169000D02*
X102968D01*
Y-159000D01*
X107968D01*
G01X105968Y-163833D02*
X102968D01*
G01X112718Y-169000D02*
Y-159000D01*
X115218D01*
X116218Y-159500D01*
X116968Y-160167D01*
X117593Y-161166D01*
X118093Y-162334D01*
X118218Y-164000D01*
X118093Y-165667D01*
X117593Y-166834D01*
X116968Y-167834D01*
X116218Y-168500D01*
X115218Y-169000D01*
X112718D01*
G01X132343D02*
X135468Y-159000D01*
X138593Y-169000D01*
G01X137468Y-165500D02*
X133468D01*
G01X145468Y-159000D02*
Y-169000D01*
G01X142593Y-159000D02*
X148343D01*
G01X155468Y-169333D02*
X155218Y-169167D01*
Y-168833D01*
X155468Y-168667D01*
X155718Y-168833D01*
Y-169167D01*
X155468Y-169333D01*
G01Y-164834D02*
X155218Y-164667D01*
Y-164333D01*
X155468Y-164167D01*
X155718Y-164333D01*
Y-164667D01*
X155468Y-164834D01*
G01X0Y0D02*
X400000D01*
Y482677D01*
X0D01*
Y0D01*
G01X156343Y-206167D02*
X157343Y-207000D01*
X158468Y-207500D01*
X159468D01*
X160468Y-207000D01*
X161218Y-206167D01*
X161593Y-205000D01*
X161343Y-203834D01*
X160718Y-202833D01*
X159593Y-202167D01*
X158093Y-201833D01*
X157218Y-201167D01*
X156843Y-200000D01*
X157093Y-198833D01*
X157718Y-198000D01*
X158593Y-197500D01*
X159468D01*
X160343Y-197833D01*
X161093Y-198667D01*
G01X168968Y-207500D02*
X167968Y-207333D01*
X167093Y-206667D01*
X166343Y-205667D01*
X165843Y-204500D01*
X165593Y-203167D01*
Y-201833D01*
X165843Y-200500D01*
X166343Y-199333D01*
X167093Y-198334D01*
X167968Y-197667D01*
X168968Y-197500D01*
X169968Y-197667D01*
X170843Y-198334D01*
X171593Y-199333D01*
X172093Y-200500D01*
X172343Y-201833D01*
Y-203167D01*
X172093Y-204500D01*
X171593Y-205667D01*
X170843Y-206667D01*
X169968Y-207333D01*
X168968Y-207500D01*
G01X176468Y-197500D02*
Y-207500D01*
X181468D01*
G01X186218D02*
Y-197500D01*
X188718D01*
X189718Y-198000D01*
X190468Y-198667D01*
X191093Y-199666D01*
X191593Y-200834D01*
X191718Y-202500D01*
X191593Y-204167D01*
X191093Y-205334D01*
X190468Y-206334D01*
X189718Y-207000D01*
X188718Y-207500D01*
X186218D01*
G01X201468D02*
X196468D01*
Y-197500D01*
X201468D01*
G01X199468Y-202333D02*
X196468D01*
G01X206468Y-207500D02*
Y-197500D01*
X209593D01*
X210593Y-198000D01*
X211218Y-198667D01*
X211468Y-200000D01*
X211218Y-201333D01*
X210468Y-202167D01*
X209593Y-202667D01*
X206468D01*
G01X209593D02*
X211468Y-207500D01*
G01X226468D02*
Y-197500D01*
X229468D01*
X230468Y-198000D01*
X231218Y-199167D01*
X231468Y-200500D01*
X231218Y-201833D01*
X230593Y-202833D01*
X229468Y-203334D01*
X226468D01*
G01X235843Y-207500D02*
X238968Y-197500D01*
X242093Y-207500D01*
G01X240968Y-204000D02*
X236968D01*
G01X246343Y-206167D02*
X247343Y-207000D01*
X248468Y-207500D01*
X249468D01*
X250468Y-207000D01*
X251218Y-206167D01*
X251593Y-205000D01*
X251343Y-203834D01*
X250718Y-202833D01*
X249593Y-202167D01*
X248093Y-201833D01*
X247218Y-201167D01*
X246843Y-200000D01*
X247093Y-198833D01*
X247718Y-198000D01*
X248593Y-197500D01*
X249468D01*
X250343Y-197833D01*
X251093Y-198667D01*
G01X258968Y-197500D02*
Y-207500D01*
G01X256093Y-197500D02*
X261843D01*
G01X271468Y-207500D02*
X266468D01*
Y-197500D01*
X271468D01*
G01X269468Y-202333D02*
X266468D01*
G01X286468Y-207500D02*
Y-197500D01*
X289468D01*
X290468Y-198000D01*
X291218Y-199167D01*
X291468Y-200500D01*
X291218Y-201833D01*
X290593Y-202833D01*
X289468Y-203334D01*
X286468D01*
G01X296468Y-207500D02*
Y-197500D01*
X299593D01*
X300593Y-198000D01*
X301218Y-198667D01*
X301468Y-200000D01*
X301218Y-201333D01*
X300468Y-202167D01*
X299593Y-202667D01*
X296468D01*
G01X299593D02*
X301468Y-207500D01*
G01X307468Y-197500D02*
X310468D01*
G01X308968D02*
Y-207500D01*
G01X307468D02*
X310468D01*
G01X315718D02*
Y-197500D01*
X318968Y-205833D01*
X322218Y-197500D01*
Y-207500D01*
G01X325843D02*
X328968Y-197500D01*
X332093Y-207500D01*
G01X330968Y-204000D02*
X326968D01*
G01X336468Y-207500D02*
Y-197500D01*
X339593D01*
X340593Y-198000D01*
X341218Y-198667D01*
X341468Y-200000D01*
X341218Y-201333D01*
X340468Y-202167D01*
X339593Y-202667D01*
X336468D01*
G01X339593D02*
X341468Y-207500D01*
G01X348968D02*
Y-203000D01*
X346468Y-197500D01*
G01X351468D02*
X348968Y-203000D01*
G01X366343Y-206167D02*
X367343Y-207000D01*
X368468Y-207500D01*
X369468D01*
X370468Y-207000D01*
X371218Y-206167D01*
X371593Y-205000D01*
X371343Y-203834D01*
X370718Y-202833D01*
X369593Y-202167D01*
X368093Y-201833D01*
X367218Y-201167D01*
X366843Y-200000D01*
X367093Y-198833D01*
X367718Y-198000D01*
X368593Y-197500D01*
X369468D01*
X370343Y-197833D01*
X371093Y-198667D01*
G01X377468Y-197500D02*
X380468D01*
G01X378968D02*
Y-207500D01*
G01X377468D02*
X380468D01*
G01X386218D02*
Y-197500D01*
X388718D01*
X389718Y-198000D01*
X390468Y-198667D01*
X391093Y-199666D01*
X391593Y-200834D01*
X391718Y-202500D01*
X391593Y-204167D01*
X391093Y-205334D01*
X390468Y-206334D01*
X389718Y-207000D01*
X388718Y-207500D01*
X386218D01*
G01X401468D02*
X396468D01*
Y-197500D01*
X401468D01*
G01X399468Y-202333D02*
X396468D01*
G01X237968Y-149000D02*
Y-139000D01*
X240968D01*
X241968Y-139500D01*
X242718Y-140667D01*
X242968Y-142000D01*
X242718Y-143333D01*
X242093Y-144333D01*
X240968Y-144834D01*
X237968D01*
G01X247343Y-149000D02*
X250468Y-139000D01*
X253593Y-149000D01*
G01X252468Y-145500D02*
X248468D01*
G01X257968Y-149000D02*
Y-139000D01*
X261093D01*
X262093Y-139500D01*
X262718Y-140167D01*
X262968Y-141500D01*
X262718Y-142833D01*
X261968Y-143667D01*
X261093Y-144167D01*
X257968D01*
G01X261093D02*
X262968Y-149000D01*
G01X270468Y-139000D02*
Y-149000D01*
G01X267593Y-139000D02*
X273343D01*
G01X287593Y-149000D02*
Y-139000D01*
X293343Y-149000D01*
Y-139000D01*
G01X297718D02*
Y-146167D01*
X298218Y-147667D01*
X299218Y-148667D01*
X300468Y-149000D01*
X301718Y-148667D01*
X302718Y-147667D01*
X303218Y-146167D01*
Y-139000D01*
G01X307218Y-149000D02*
Y-139000D01*
X310468Y-147333D01*
X313718Y-139000D01*
Y-149000D01*
G01X321468Y-143667D02*
X321968Y-143167D01*
X322343Y-142334D01*
X322593Y-141166D01*
X322343Y-140167D01*
X321843Y-139500D01*
X320968Y-139000D01*
X317593D01*
Y-149000D01*
X321718D01*
X322593Y-148334D01*
X323093Y-147333D01*
X323343Y-146167D01*
X323093Y-145000D01*
X322343Y-144000D01*
X321468Y-143667D01*
X317593D01*
G01X332968Y-149000D02*
X327968D01*
Y-139000D01*
X332968D01*
G01X330968Y-143833D02*
X327968D01*
G01X337968Y-149000D02*
Y-139000D01*
X341093D01*
X342093Y-139500D01*
X342718Y-140167D01*
X342968Y-141500D01*
X342718Y-142833D01*
X341968Y-143667D01*
X341093Y-144167D01*
X337968D01*
G01X341093D02*
X342968Y-149000D01*
G01X350468Y-149333D02*
X350218Y-149167D01*
Y-148833D01*
X350468Y-148667D01*
X350718Y-148833D01*
Y-149167D01*
X350468Y-149333D01*
G01Y-144834D02*
X350218Y-144667D01*
Y-144333D01*
X350468Y-144167D01*
X350718Y-144333D01*
Y-144667D01*
X350468Y-144834D01*
G01X358093Y-140667D02*
X358843Y-139667D01*
X359718Y-139167D01*
X360718Y-139000D01*
X361968Y-139333D01*
X362843Y-140167D01*
X363093Y-141166D01*
X362968Y-142167D01*
X362468Y-143000D01*
X359968Y-144667D01*
X358843Y-145833D01*
X358093Y-147500D01*
X357843Y-149000D01*
X363093D01*
G01X367718Y-147000D02*
X368468Y-148167D01*
X369468Y-148833D01*
X370593Y-149000D01*
X371593Y-148833D01*
X372593Y-148000D01*
X373218Y-147000D01*
X373343Y-146000D01*
X373093Y-144834D01*
X372218Y-144000D01*
X371343Y-143667D01*
X370218D01*
G01X371343D02*
X372093Y-143167D01*
X372718Y-142334D01*
X372968Y-141333D01*
X372718Y-140333D01*
X372093Y-139500D01*
X370968Y-139000D01*
X369843Y-139167D01*
X368718Y-139834D01*
G01X380468Y-149000D02*
Y-139000D01*
X378968Y-141000D01*
G01Y-149000D02*
X381968D01*
G01X388843Y-145667D02*
X392093D01*
G01X400468Y-139000D02*
X399468Y-139333D01*
X398718Y-140167D01*
X398218Y-141166D01*
X397843Y-142500D01*
X397718Y-144000D01*
X397843Y-145500D01*
X398218Y-146834D01*
X398718Y-147834D01*
X399468Y-148667D01*
X400468Y-149000D01*
X401468Y-148667D01*
X402218Y-147834D01*
X402718Y-146834D01*
X403093Y-145500D01*
X403218Y-144000D01*
X403093Y-142500D01*
X402718Y-141166D01*
X402218Y-140167D01*
X401468Y-139333D01*
X400468Y-139000D01*
G01X410468D02*
X409468Y-139333D01*
X408718Y-140167D01*
X408218Y-141166D01*
X407843Y-142500D01*
X407718Y-144000D01*
X407843Y-145500D01*
X408218Y-146834D01*
X408718Y-147834D01*
X409468Y-148667D01*
X410468Y-149000D01*
X411468Y-148667D01*
X412218Y-147834D01*
X412718Y-146834D01*
X413093Y-145500D01*
X413218Y-144000D01*
X413093Y-142500D01*
X412718Y-141166D01*
X412218Y-140167D01*
X411468Y-139333D01*
X410468Y-139000D01*
G01X420468D02*
X419468Y-139333D01*
X418718Y-140167D01*
X418218Y-141166D01*
X417843Y-142500D01*
X417718Y-144000D01*
X417843Y-145500D01*
X418218Y-146834D01*
X418718Y-147834D01*
X419468Y-148667D01*
X420468Y-149000D01*
X421468Y-148667D01*
X422218Y-147834D01*
X422718Y-146834D01*
X423093Y-145500D01*
X423218Y-144000D01*
X423093Y-142500D01*
X422718Y-141166D01*
X422218Y-140167D01*
X421468Y-139333D01*
X420468Y-139000D01*
G01X430468D02*
X429468Y-139333D01*
X428718Y-140167D01*
X428218Y-141166D01*
X427843Y-142500D01*
X427718Y-144000D01*
X427843Y-145500D01*
X428218Y-146834D01*
X428718Y-147834D01*
X429468Y-148667D01*
X430468Y-149000D01*
X431468Y-148667D01*
X432218Y-147834D01*
X432718Y-146834D01*
X433093Y-145500D01*
X433218Y-144000D01*
X433093Y-142500D01*
X432718Y-141166D01*
X432218Y-140167D01*
X431468Y-139333D01*
X430468Y-139000D01*
G01X438093Y-144834D02*
X438968Y-143667D01*
X439718Y-143000D01*
X440718Y-142667D01*
X441593Y-143000D01*
X442218Y-143667D01*
X442718Y-144667D01*
X442843Y-145833D01*
X442718Y-146834D01*
X442218Y-147834D01*
X441468Y-148667D01*
X440593Y-149000D01*
X439593Y-148667D01*
X438718Y-147667D01*
X438218Y-146167D01*
X438093Y-144500D01*
X438343Y-142334D01*
X438718Y-141166D01*
X439343Y-140000D01*
X440218Y-139167D01*
X441093Y-139000D01*
X441968Y-139333D01*
X442593Y-140167D01*
G01X448343Y-147834D02*
X449218Y-148667D01*
X450218Y-149000D01*
X451218Y-148667D01*
X452093Y-147667D01*
X452718Y-146167D01*
X452968Y-144667D01*
Y-142833D01*
X452718Y-141333D01*
X452093Y-140000D01*
X451343Y-139333D01*
X450468Y-139000D01*
X449468Y-139333D01*
X448718Y-140000D01*
X448218Y-141000D01*
X447968Y-142334D01*
X448218Y-143500D01*
X448843Y-144667D01*
X449593Y-145334D01*
X450468Y-145500D01*
X451468Y-145167D01*
X452218Y-144333D01*
X452968Y-142833D01*
G01X521418Y-178733D02*
Y-188733D01*
X526418D01*
G01X533918Y-182067D02*
Y-188733D01*
G01Y-179400D02*
X533668Y-179234D01*
Y-178900D01*
X533918Y-178733D01*
X534168Y-178900D01*
Y-179234D01*
X533918Y-179400D01*
G01X543168Y-188733D02*
Y-180233D01*
X543418Y-179400D01*
X543918Y-178900D01*
X544668Y-178733D01*
X545418Y-179067D01*
X545793Y-179900D01*
G01X544293Y-182734D02*
X541793D01*
G01X552043Y-184233D02*
X556043D01*
X555668Y-183067D01*
X555043Y-182400D01*
X554168Y-182067D01*
X553293Y-182234D01*
X552543Y-182734D01*
X552043Y-183900D01*
X551793Y-184900D01*
Y-185900D01*
X552043Y-186900D01*
X552668Y-187900D01*
X553418Y-188567D01*
X554293Y-188733D01*
X555168Y-188400D01*
X556043Y-187400D01*
G01X562293Y-185400D02*
X565543D01*
G01X571168Y-186734D02*
X571918Y-187900D01*
X572918Y-188567D01*
X574043Y-188733D01*
X575043Y-188567D01*
X576043Y-187734D01*
X576668Y-186734D01*
X576793Y-185733D01*
X576543Y-184567D01*
X575668Y-183734D01*
X574793Y-183400D01*
X573668D01*
G01X574793D02*
X575543Y-182900D01*
X576168Y-182067D01*
X576418Y-181067D01*
X576168Y-180067D01*
X575543Y-179234D01*
X574418Y-178733D01*
X573293Y-178900D01*
X572168Y-179567D01*
G54D59*
X299218Y76811D03*
Y53189D03*
M02*
