G04 ================== begin FILE IDENTIFICATION RECORD ==================*
G04 Layout Name:  OC_Connect-1_DEBUG_Life-3.brd*
G04 Film Name:    spse.gbr*
G04 File Format:  Gerber RS274X*
G04 File Origin:  Cadence Allegro 16.6-2015-S065*
G04 Origin Date:  Mon Mar 06 16:55:42 2017*
G04 *
G04 Layer:  PACKAGE GEOMETRY/PASTEMASK_BOTTOM*
G04 Layer:  PIN/PASTEMASK_BOTTOM*
G04 Layer:  DRAWING FORMAT/SPSE*
G04 Layer:  DRAWING FORMAT/FILM_LABEL_OUTLINE*
G04 Layer:  BOARD GEOMETRY/OUTLINE*
G04 *
G04 Offset:    (0.000 0.000)*
G04 Mirror:    No*
G04 Mode:      Positive*
G04 Rotation:  0*
G04 FullContactRelief:  No*
G04 UndefLineWidth:     6.000*
G04 ================== end FILE IDENTIFICATION RECORD ====================*
%FSLAX25Y25*MOIN*%
%IR0*IPPOS*OFA0.00000B0.00000*MIA0B0*SFA1.00000B1.00000*%
%ADD10C,.04*%
%ADD13R,.051X.059*%
%ADD11R,.021X.021*%
%ADD12R,.045276X.043307*%
%ADD14R,.015748X.019685*%
%ADD15C,.01*%
%ADD16C,.006*%
G75*
%LPD*%
G75*
G54D10*
X39718Y25300D03*
X360000D03*
Y450000D03*
G54D11*
X99618Y77870D03*
Y74130D03*
X94118Y77870D03*
Y74130D03*
X127118Y77870D03*
Y74130D03*
X110618Y77870D03*
Y74130D03*
X105118Y77870D03*
Y74130D03*
X121618Y77870D03*
Y74130D03*
X116118Y77870D03*
Y74130D03*
X124248Y119800D03*
X127988D03*
X124248Y126800D03*
X127988D03*
X91348Y214000D03*
X95088D03*
X132618Y77870D03*
Y74130D03*
X201518Y299561D03*
Y303302D03*
X187448Y313221D03*
X191188D03*
X187448Y307300D03*
X191188D03*
X190300Y363130D03*
Y366870D03*
X183800Y363130D03*
Y366870D03*
X266848Y29500D03*
X270588D03*
X272370Y128000D03*
X268630D03*
X247588Y311400D03*
X243848D03*
X230588Y289000D03*
X226848D03*
X244818Y296430D03*
Y300170D03*
X217848Y283500D03*
X221588D03*
X217848Y289000D03*
X221588D03*
X230588Y283500D03*
X226848D03*
X243848Y305700D03*
X247588D03*
X230588Y301900D03*
X226848D03*
X245630Y389000D03*
X249370D03*
X226848Y326500D03*
X230588D03*
X216088Y321095D03*
X212348D03*
X259588Y324500D03*
X255848D03*
X259588Y330500D03*
X255848D03*
X306788Y35900D03*
X303048D03*
X312530Y466300D03*
X316270D03*
G54D12*
X261653Y141000D03*
X268346D03*
X261653Y134000D03*
X268346D03*
G54D13*
X221381Y334400D03*
X229255D03*
G54D14*
X306856Y466300D03*
X301344D03*
G54D15*
G01X37218Y-193700D02*
X602518D01*
G01X37218Y-213700D02*
X602718D01*
Y-134771D01*
G01X37218Y-134300D02*
Y-213700D01*
G01Y-173700D02*
X602718D01*
G01X37218Y-134500D02*
X602718D01*
G01X37218Y-153700D02*
X602618D01*
G54D16*
G01X43093Y-207500D02*
Y-197500D01*
X47843D01*
G01X46093Y-202333D02*
X43093D01*
G01X53968Y-197500D02*
X56968D01*
G01X55468D02*
Y-207500D01*
G01X53968D02*
X56968D01*
G01X62968Y-197500D02*
Y-207500D01*
X67968D01*
G01X72218D02*
Y-197500D01*
X75468Y-205833D01*
X78718Y-197500D01*
Y-207500D01*
G01X92968Y-197500D02*
Y-207500D01*
X97968D01*
G01X102343D02*
X105468Y-197500D01*
X108593Y-207500D01*
G01X107468Y-204000D02*
X103468D01*
G01X115468Y-207500D02*
Y-203000D01*
X112968Y-197500D01*
G01X117968D02*
X115468Y-203000D01*
G01X127968Y-207500D02*
X122968D01*
Y-197500D01*
X127968D01*
G01X125968Y-202333D02*
X122968D01*
G01X132968Y-207500D02*
Y-197500D01*
X136093D01*
X137093Y-198000D01*
X137718Y-198667D01*
X137968Y-200000D01*
X137718Y-201333D01*
X136968Y-202167D01*
X136093Y-202667D01*
X132968D01*
G01X136093D02*
X137968Y-207500D01*
G01X145468Y-207833D02*
X145218Y-207667D01*
Y-207333D01*
X145468Y-207167D01*
X145718Y-207333D01*
Y-207667D01*
X145468Y-207833D01*
G01Y-203334D02*
X145218Y-203167D01*
Y-202833D01*
X145468Y-202667D01*
X145718Y-202833D01*
Y-203167D01*
X145468Y-203334D01*
G01X48218Y-179834D02*
X47468Y-179333D01*
X46593Y-179000D01*
X45593D01*
X44468Y-179500D01*
X43593Y-180333D01*
X42968Y-181333D01*
X42468Y-183000D01*
X42343Y-184500D01*
X42593Y-186000D01*
X42968Y-187000D01*
X43718Y-188000D01*
X44593Y-188667D01*
X45468Y-189000D01*
X46343D01*
X47218Y-188667D01*
X47968Y-188167D01*
X48593Y-187500D01*
G01X52343Y-189000D02*
X55468Y-179000D01*
X58593Y-189000D01*
G01X57468Y-185500D02*
X53468D01*
G01X62968Y-189000D02*
Y-179000D01*
X66093D01*
X67093Y-179500D01*
X67718Y-180167D01*
X67968Y-181500D01*
X67718Y-182833D01*
X66968Y-183667D01*
X66093Y-184167D01*
X62968D01*
G01X66093D02*
X67968Y-189000D01*
G01X72718D02*
Y-179000D01*
X75218D01*
X76218Y-179500D01*
X76968Y-180167D01*
X77593Y-181166D01*
X78093Y-182334D01*
X78218Y-184000D01*
X78093Y-185667D01*
X77593Y-186834D01*
X76968Y-187834D01*
X76218Y-188500D01*
X75218Y-189000D01*
X72718D01*
G01X92968D02*
Y-179000D01*
X96093D01*
X97093Y-179500D01*
X97718Y-180167D01*
X97968Y-181500D01*
X97718Y-182833D01*
X96968Y-183667D01*
X96093Y-184167D01*
X92968D01*
G01X96093D02*
X97968Y-189000D01*
G01X107968D02*
X102968D01*
Y-179000D01*
X107968D01*
G01X105968Y-183833D02*
X102968D01*
G01X113093Y-189000D02*
Y-179000D01*
X117843D01*
G01X116093Y-183833D02*
X113093D01*
G01X125468Y-189333D02*
X125218Y-189167D01*
Y-188833D01*
X125468Y-188667D01*
X125718Y-188833D01*
Y-189167D01*
X125468Y-189333D01*
G01Y-184834D02*
X125218Y-184667D01*
Y-184333D01*
X125468Y-184167D01*
X125718Y-184333D01*
Y-184667D01*
X125468Y-184834D01*
G01X135468Y-189000D02*
X134468Y-188833D01*
X133593Y-188167D01*
X132843Y-187167D01*
X132343Y-186000D01*
X132093Y-184667D01*
Y-183333D01*
X132343Y-182000D01*
X132843Y-180833D01*
X133593Y-179834D01*
X134468Y-179167D01*
X135468Y-179000D01*
X136468Y-179167D01*
X137343Y-179834D01*
X138093Y-180833D01*
X138593Y-182000D01*
X138843Y-183333D01*
Y-184667D01*
X138593Y-186000D01*
X138093Y-187167D01*
X137343Y-188167D01*
X136468Y-188833D01*
X135468Y-189000D01*
G01X143218Y-192333D02*
Y-182334D01*
G01Y-183833D02*
X143843Y-183000D01*
X144468Y-182500D01*
X145468Y-182334D01*
X146343Y-182500D01*
X147218Y-183333D01*
X147593Y-184500D01*
X147718Y-185667D01*
X147593Y-186834D01*
X147218Y-188000D01*
X146468Y-188667D01*
X145468Y-189000D01*
X144593Y-188833D01*
X143718Y-188334D01*
X143218Y-187667D01*
G01X153593Y-184500D02*
X157593D01*
X157218Y-183333D01*
X156593Y-182667D01*
X155718Y-182334D01*
X154843Y-182500D01*
X154093Y-183000D01*
X153593Y-184167D01*
X153343Y-185167D01*
Y-186167D01*
X153593Y-187167D01*
X154218Y-188167D01*
X154968Y-188833D01*
X155843Y-189000D01*
X156718Y-188667D01*
X157593Y-187667D01*
G01X163343Y-189000D02*
Y-182334D01*
G01Y-184000D02*
X163843Y-183167D01*
X164593Y-182500D01*
X165593Y-182334D01*
X166468Y-182500D01*
X167218Y-183167D01*
X167593Y-184333D01*
Y-189000D01*
G01X178218Y-179834D02*
X177468Y-179333D01*
X176593Y-179000D01*
X175593D01*
X174468Y-179500D01*
X173593Y-180333D01*
X172968Y-181333D01*
X172468Y-183000D01*
X172343Y-184500D01*
X172593Y-186000D01*
X172968Y-187000D01*
X173718Y-188000D01*
X174593Y-188667D01*
X175468Y-189000D01*
X176343D01*
X177218Y-188667D01*
X177968Y-188167D01*
X178593Y-187500D01*
G01X183593Y-184500D02*
X187593D01*
X187218Y-183333D01*
X186593Y-182667D01*
X185718Y-182334D01*
X184843Y-182500D01*
X184093Y-183000D01*
X183593Y-184167D01*
X183343Y-185167D01*
Y-186167D01*
X183593Y-187167D01*
X184218Y-188167D01*
X184968Y-188833D01*
X185843Y-189000D01*
X186718Y-188667D01*
X187593Y-187667D01*
G01X195468Y-189000D02*
Y-179000D01*
G01X205468Y-189000D02*
Y-179000D01*
G01X213343Y-182334D02*
Y-187000D01*
X213843Y-188167D01*
X214593Y-188833D01*
X215468Y-189000D01*
X216343Y-188833D01*
X217093Y-188167D01*
X217593Y-187000D01*
G01Y-189000D02*
Y-182334D01*
G01X225468Y-189000D02*
Y-179000D01*
G01X237718Y-189000D02*
Y-182334D01*
G01Y-183500D02*
X237218Y-182833D01*
X236468Y-182500D01*
X235593Y-182334D01*
X234718Y-182667D01*
X233968Y-183333D01*
X233468Y-184333D01*
X233218Y-185667D01*
X233468Y-187000D01*
X233968Y-188000D01*
X234718Y-188667D01*
X235593Y-189000D01*
X236468Y-188833D01*
X237218Y-188334D01*
X237718Y-187667D01*
G01X243718Y-189000D02*
Y-182334D01*
G01Y-183667D02*
X244343Y-183000D01*
X244968Y-182500D01*
X245843Y-182334D01*
X246468Y-182500D01*
X247218Y-183000D01*
G01X265468Y-189000D02*
Y-179000D01*
G01X278218Y-179834D02*
X277468Y-179333D01*
X276593Y-179000D01*
X275593D01*
X274468Y-179500D01*
X273593Y-180333D01*
X272968Y-181333D01*
X272468Y-183000D01*
X272343Y-184500D01*
X272593Y-186000D01*
X272968Y-187000D01*
X273718Y-188000D01*
X274593Y-188667D01*
X275468Y-189000D01*
X276343D01*
X277218Y-188667D01*
X277968Y-188167D01*
X278593Y-187500D01*
G01X285468Y-189000D02*
X284718Y-188833D01*
X283968Y-188167D01*
X283468Y-187000D01*
X283218Y-185667D01*
X283468Y-184333D01*
X283968Y-183167D01*
X284718Y-182500D01*
X285468Y-182334D01*
X286218Y-182500D01*
X286968Y-183167D01*
X287468Y-184333D01*
X287593Y-185667D01*
X287468Y-187000D01*
X286968Y-188167D01*
X286218Y-188833D01*
X285468Y-189000D01*
G01X293343D02*
Y-182334D01*
G01Y-184000D02*
X293843Y-183167D01*
X294593Y-182500D01*
X295593Y-182334D01*
X296468Y-182500D01*
X297218Y-183167D01*
X297593Y-184333D01*
Y-189000D01*
G01X303343D02*
Y-182334D01*
G01Y-184000D02*
X303843Y-183167D01*
X304593Y-182500D01*
X305593Y-182334D01*
X306468Y-182500D01*
X307218Y-183167D01*
X307593Y-184333D01*
Y-189000D01*
G01X313593Y-184500D02*
X317593D01*
X317218Y-183333D01*
X316593Y-182667D01*
X315718Y-182334D01*
X314843Y-182500D01*
X314093Y-183000D01*
X313593Y-184167D01*
X313343Y-185167D01*
Y-186167D01*
X313593Y-187167D01*
X314218Y-188167D01*
X314968Y-188833D01*
X315843Y-189000D01*
X316718Y-188667D01*
X317593Y-187667D01*
G01X327468Y-183167D02*
X326593Y-182500D01*
X325843Y-182334D01*
X324843Y-182667D01*
X324093Y-183333D01*
X323593Y-184500D01*
X323468Y-185667D01*
X323593Y-186834D01*
X324093Y-187834D01*
X324843Y-188667D01*
X325843Y-189000D01*
X326718Y-188667D01*
X327468Y-188000D01*
G01X335468Y-179000D02*
Y-189000D01*
G01X333718Y-182334D02*
X337218D01*
G01X343843Y-185667D02*
X347093D01*
G01X355468Y-189000D02*
Y-179000D01*
X353968Y-181000D01*
G01Y-189000D02*
X356968D01*
G01X375468D02*
Y-179000D01*
G01X382718Y-189000D02*
Y-179000D01*
X385218D01*
X386218Y-179500D01*
X386968Y-180167D01*
X387593Y-181166D01*
X388093Y-182334D01*
X388218Y-184000D01*
X388093Y-185667D01*
X387593Y-186834D01*
X386968Y-187834D01*
X386218Y-188500D01*
X385218Y-189000D01*
X382718D01*
G01X397968D02*
X392968D01*
Y-179000D01*
X397968D01*
G01X395968Y-183833D02*
X392968D01*
G01X406468Y-183667D02*
X406968Y-183167D01*
X407343Y-182334D01*
X407593Y-181166D01*
X407343Y-180167D01*
X406843Y-179500D01*
X405968Y-179000D01*
X402593D01*
Y-189000D01*
X406718D01*
X407593Y-188334D01*
X408093Y-187333D01*
X408343Y-186167D01*
X408093Y-185000D01*
X407343Y-184000D01*
X406468Y-183667D01*
X402593D01*
G01X412718Y-179000D02*
Y-186167D01*
X413218Y-187667D01*
X414218Y-188667D01*
X415468Y-189000D01*
X416718Y-188667D01*
X417718Y-187667D01*
X418218Y-186167D01*
Y-179000D01*
G01X426218Y-184000D02*
X428718D01*
Y-187000D01*
X427968Y-188000D01*
X427093Y-188667D01*
X425843Y-189000D01*
X424593Y-188667D01*
X423718Y-188000D01*
X422968Y-187000D01*
X422468Y-185833D01*
X422218Y-184500D01*
Y-183333D01*
X422468Y-182334D01*
X422968Y-181166D01*
X423718Y-180167D01*
X424468Y-179500D01*
X425468Y-179000D01*
X426343D01*
X427343Y-179333D01*
X428093Y-180000D01*
G01X431718Y-192333D02*
X439218D01*
G01X446468Y-183667D02*
X446968Y-183167D01*
X447343Y-182334D01*
X447593Y-181166D01*
X447343Y-180167D01*
X446843Y-179500D01*
X445968Y-179000D01*
X442593D01*
Y-189000D01*
X446718D01*
X447593Y-188334D01*
X448093Y-187333D01*
X448343Y-186167D01*
X448093Y-185000D01*
X447343Y-184000D01*
X446468Y-183667D01*
X442593D01*
G01X455468Y-189000D02*
X454468Y-188833D01*
X453593Y-188167D01*
X452843Y-187167D01*
X452343Y-186000D01*
X452093Y-184667D01*
Y-183333D01*
X452343Y-182000D01*
X452843Y-180833D01*
X453593Y-179834D01*
X454468Y-179167D01*
X455468Y-179000D01*
X456468Y-179167D01*
X457343Y-179834D01*
X458093Y-180833D01*
X458593Y-182000D01*
X458843Y-183333D01*
Y-184667D01*
X458593Y-186000D01*
X458093Y-187167D01*
X457343Y-188167D01*
X456468Y-188833D01*
X455468Y-189000D01*
G01X462343D02*
X465468Y-179000D01*
X468593Y-189000D01*
G01X467468Y-185500D02*
X463468D01*
G01X472968Y-189000D02*
Y-179000D01*
X476093D01*
X477093Y-179500D01*
X477718Y-180167D01*
X477968Y-181500D01*
X477718Y-182833D01*
X476968Y-183667D01*
X476093Y-184167D01*
X472968D01*
G01X476093D02*
X477968Y-189000D01*
G01X482718D02*
Y-179000D01*
X485218D01*
X486218Y-179500D01*
X486968Y-180167D01*
X487593Y-181166D01*
X488093Y-182334D01*
X488218Y-184000D01*
X488093Y-185667D01*
X487593Y-186834D01*
X486968Y-187834D01*
X486218Y-188500D01*
X485218Y-189000D01*
X482718D01*
G01X42718Y-149000D02*
Y-139000D01*
X45218D01*
X46218Y-139500D01*
X46968Y-140167D01*
X47593Y-141166D01*
X48093Y-142334D01*
X48218Y-144000D01*
X48093Y-145667D01*
X47593Y-146834D01*
X46968Y-147834D01*
X46218Y-148500D01*
X45218Y-149000D01*
X42718D01*
G01X52343D02*
X55468Y-139000D01*
X58593Y-149000D01*
G01X57468Y-145500D02*
X53468D01*
G01X65468Y-139000D02*
Y-149000D01*
G01X62593Y-139000D02*
X68343D01*
G01X77968Y-149000D02*
X72968D01*
Y-139000D01*
X77968D01*
G01X75968Y-143833D02*
X72968D01*
G01X85468Y-149333D02*
X85218Y-149167D01*
Y-148833D01*
X85468Y-148667D01*
X85718Y-148833D01*
Y-149167D01*
X85468Y-149333D01*
G01Y-144834D02*
X85218Y-144667D01*
Y-144333D01*
X85468Y-144167D01*
X85718Y-144333D01*
Y-144667D01*
X85468Y-144834D01*
G01X95468Y-139000D02*
X94468Y-139333D01*
X93718Y-140167D01*
X93218Y-141166D01*
X92843Y-142500D01*
X92718Y-144000D01*
X92843Y-145500D01*
X93218Y-146834D01*
X93718Y-147834D01*
X94468Y-148667D01*
X95468Y-149000D01*
X96468Y-148667D01*
X97218Y-147834D01*
X97718Y-146834D01*
X98093Y-145500D01*
X98218Y-144000D01*
X98093Y-142500D01*
X97718Y-141166D01*
X97218Y-140167D01*
X96468Y-139333D01*
X95468Y-139000D01*
G01X102718Y-147000D02*
X103468Y-148167D01*
X104468Y-148833D01*
X105593Y-149000D01*
X106593Y-148833D01*
X107593Y-148000D01*
X108218Y-147000D01*
X108343Y-146000D01*
X108093Y-144834D01*
X107218Y-144000D01*
X106343Y-143667D01*
X105218D01*
G01X106343D02*
X107093Y-143167D01*
X107718Y-142334D01*
X107968Y-141333D01*
X107718Y-140333D01*
X107093Y-139500D01*
X105968Y-139000D01*
X104843Y-139167D01*
X103718Y-139834D01*
G01X113843Y-145667D02*
X117093D01*
G01X125468Y-139000D02*
X124468Y-139333D01*
X123718Y-140167D01*
X123218Y-141166D01*
X122843Y-142500D01*
X122718Y-144000D01*
X122843Y-145500D01*
X123218Y-146834D01*
X123718Y-147834D01*
X124468Y-148667D01*
X125468Y-149000D01*
X126468Y-148667D01*
X127218Y-147834D01*
X127718Y-146834D01*
X128093Y-145500D01*
X128218Y-144000D01*
X128093Y-142500D01*
X127718Y-141166D01*
X127218Y-140167D01*
X126468Y-139333D01*
X125468Y-139000D01*
G01X133093Y-144834D02*
X133968Y-143667D01*
X134718Y-143000D01*
X135718Y-142667D01*
X136593Y-143000D01*
X137218Y-143667D01*
X137718Y-144667D01*
X137843Y-145833D01*
X137718Y-146834D01*
X137218Y-147834D01*
X136468Y-148667D01*
X135593Y-149000D01*
X134593Y-148667D01*
X133718Y-147667D01*
X133218Y-146167D01*
X133093Y-144500D01*
X133343Y-142334D01*
X133718Y-141166D01*
X134343Y-140000D01*
X135218Y-139167D01*
X136093Y-139000D01*
X136968Y-139333D01*
X137593Y-140167D01*
G01X143843Y-145667D02*
X147093D01*
G01X153093Y-140667D02*
X153843Y-139667D01*
X154718Y-139167D01*
X155718Y-139000D01*
X156968Y-139333D01*
X157843Y-140167D01*
X158093Y-141166D01*
X157968Y-142167D01*
X157468Y-143000D01*
X154968Y-144667D01*
X153843Y-145833D01*
X153093Y-147500D01*
X152843Y-149000D01*
X158093D01*
G01X165468Y-139000D02*
X164468Y-139333D01*
X163718Y-140167D01*
X163218Y-141166D01*
X162843Y-142500D01*
X162718Y-144000D01*
X162843Y-145500D01*
X163218Y-146834D01*
X163718Y-147834D01*
X164468Y-148667D01*
X165468Y-149000D01*
X166468Y-148667D01*
X167218Y-147834D01*
X167718Y-146834D01*
X168093Y-145500D01*
X168218Y-144000D01*
X168093Y-142500D01*
X167718Y-141166D01*
X167218Y-140167D01*
X166468Y-139333D01*
X165468Y-139000D01*
G01X175468Y-149000D02*
Y-139000D01*
X173968Y-141000D01*
G01Y-149000D02*
X176968D01*
G01X185218D02*
X185468Y-146834D01*
X185843Y-145000D01*
X186343Y-143333D01*
X186968Y-141500D01*
X187968Y-139000D01*
X182968D01*
G01X42718Y-169000D02*
Y-159000D01*
X45218D01*
X46218Y-159500D01*
X46968Y-160167D01*
X47593Y-161166D01*
X48093Y-162334D01*
X48218Y-164000D01*
X48093Y-165667D01*
X47593Y-166834D01*
X46968Y-167834D01*
X46218Y-168500D01*
X45218Y-169000D01*
X42718D01*
G01X57968D02*
X52968D01*
Y-159000D01*
X57968D01*
G01X55968Y-163833D02*
X52968D01*
G01X62843Y-167667D02*
X63843Y-168500D01*
X64968Y-169000D01*
X65968D01*
X66968Y-168500D01*
X67718Y-167667D01*
X68093Y-166500D01*
X67843Y-165334D01*
X67218Y-164333D01*
X66093Y-163667D01*
X64593Y-163333D01*
X63718Y-162667D01*
X63343Y-161500D01*
X63593Y-160333D01*
X64218Y-159500D01*
X65093Y-159000D01*
X65968D01*
X66843Y-159333D01*
X67593Y-160167D01*
G01X73968Y-159000D02*
X76968D01*
G01X75468D02*
Y-169000D01*
G01X73968D02*
X76968D01*
G01X86218Y-164000D02*
X88718D01*
Y-167000D01*
X87968Y-168000D01*
X87093Y-168667D01*
X85843Y-169000D01*
X84593Y-168667D01*
X83718Y-168000D01*
X82968Y-167000D01*
X82468Y-165833D01*
X82218Y-164500D01*
Y-163333D01*
X82468Y-162334D01*
X82968Y-161166D01*
X83718Y-160167D01*
X84468Y-159500D01*
X85468Y-159000D01*
X86343D01*
X87343Y-159333D01*
X88093Y-160000D01*
G01X92593Y-169000D02*
Y-159000D01*
X98343Y-169000D01*
Y-159000D01*
G01X107968Y-169000D02*
X102968D01*
Y-159000D01*
X107968D01*
G01X105968Y-163833D02*
X102968D01*
G01X112718Y-169000D02*
Y-159000D01*
X115218D01*
X116218Y-159500D01*
X116968Y-160167D01*
X117593Y-161166D01*
X118093Y-162334D01*
X118218Y-164000D01*
X118093Y-165667D01*
X117593Y-166834D01*
X116968Y-167834D01*
X116218Y-168500D01*
X115218Y-169000D01*
X112718D01*
G01X132343D02*
X135468Y-159000D01*
X138593Y-169000D01*
G01X137468Y-165500D02*
X133468D01*
G01X145468Y-159000D02*
Y-169000D01*
G01X142593Y-159000D02*
X148343D01*
G01X155468Y-169333D02*
X155218Y-169167D01*
Y-168833D01*
X155468Y-168667D01*
X155718Y-168833D01*
Y-169167D01*
X155468Y-169333D01*
G01Y-164834D02*
X155218Y-164667D01*
Y-164333D01*
X155468Y-164167D01*
X155718Y-164333D01*
Y-164667D01*
X155468Y-164834D01*
G01X0Y0D02*
X400000D01*
Y482677D01*
X0D01*
Y0D01*
G01X156343Y-206167D02*
X157343Y-207000D01*
X158468Y-207500D01*
X159468D01*
X160468Y-207000D01*
X161218Y-206167D01*
X161593Y-205000D01*
X161343Y-203834D01*
X160718Y-202833D01*
X159593Y-202167D01*
X158093Y-201833D01*
X157218Y-201167D01*
X156843Y-200000D01*
X157093Y-198833D01*
X157718Y-198000D01*
X158593Y-197500D01*
X159468D01*
X160343Y-197833D01*
X161093Y-198667D01*
G01X168968Y-207500D02*
X167968Y-207333D01*
X167093Y-206667D01*
X166343Y-205667D01*
X165843Y-204500D01*
X165593Y-203167D01*
Y-201833D01*
X165843Y-200500D01*
X166343Y-199333D01*
X167093Y-198334D01*
X167968Y-197667D01*
X168968Y-197500D01*
X169968Y-197667D01*
X170843Y-198334D01*
X171593Y-199333D01*
X172093Y-200500D01*
X172343Y-201833D01*
Y-203167D01*
X172093Y-204500D01*
X171593Y-205667D01*
X170843Y-206667D01*
X169968Y-207333D01*
X168968Y-207500D01*
G01X176468Y-197500D02*
Y-207500D01*
X181468D01*
G01X186218D02*
Y-197500D01*
X188718D01*
X189718Y-198000D01*
X190468Y-198667D01*
X191093Y-199666D01*
X191593Y-200834D01*
X191718Y-202500D01*
X191593Y-204167D01*
X191093Y-205334D01*
X190468Y-206334D01*
X189718Y-207000D01*
X188718Y-207500D01*
X186218D01*
G01X201468D02*
X196468D01*
Y-197500D01*
X201468D01*
G01X199468Y-202333D02*
X196468D01*
G01X206468Y-207500D02*
Y-197500D01*
X209593D01*
X210593Y-198000D01*
X211218Y-198667D01*
X211468Y-200000D01*
X211218Y-201333D01*
X210468Y-202167D01*
X209593Y-202667D01*
X206468D01*
G01X209593D02*
X211468Y-207500D01*
G01X226468D02*
Y-197500D01*
X229468D01*
X230468Y-198000D01*
X231218Y-199167D01*
X231468Y-200500D01*
X231218Y-201833D01*
X230593Y-202833D01*
X229468Y-203334D01*
X226468D01*
G01X235843Y-207500D02*
X238968Y-197500D01*
X242093Y-207500D01*
G01X240968Y-204000D02*
X236968D01*
G01X246343Y-206167D02*
X247343Y-207000D01*
X248468Y-207500D01*
X249468D01*
X250468Y-207000D01*
X251218Y-206167D01*
X251593Y-205000D01*
X251343Y-203834D01*
X250718Y-202833D01*
X249593Y-202167D01*
X248093Y-201833D01*
X247218Y-201167D01*
X246843Y-200000D01*
X247093Y-198833D01*
X247718Y-198000D01*
X248593Y-197500D01*
X249468D01*
X250343Y-197833D01*
X251093Y-198667D01*
G01X258968Y-197500D02*
Y-207500D01*
G01X256093Y-197500D02*
X261843D01*
G01X271468Y-207500D02*
X266468D01*
Y-197500D01*
X271468D01*
G01X269468Y-202333D02*
X266468D01*
G01X286343Y-206167D02*
X287343Y-207000D01*
X288468Y-207500D01*
X289468D01*
X290468Y-207000D01*
X291218Y-206167D01*
X291593Y-205000D01*
X291343Y-203834D01*
X290718Y-202833D01*
X289593Y-202167D01*
X288093Y-201833D01*
X287218Y-201167D01*
X286843Y-200000D01*
X287093Y-198833D01*
X287718Y-198000D01*
X288593Y-197500D01*
X289468D01*
X290343Y-197833D01*
X291093Y-198667D01*
G01X301468Y-207500D02*
X296468D01*
Y-197500D01*
X301468D01*
G01X299468Y-202333D02*
X296468D01*
G01X311718Y-198334D02*
X310968Y-197833D01*
X310093Y-197500D01*
X309093D01*
X307968Y-198000D01*
X307093Y-198833D01*
X306468Y-199833D01*
X305968Y-201500D01*
X305843Y-203000D01*
X306093Y-204500D01*
X306468Y-205500D01*
X307218Y-206500D01*
X308093Y-207167D01*
X308968Y-207500D01*
X309843D01*
X310718Y-207167D01*
X311468Y-206667D01*
X312093Y-206000D01*
G01X318968Y-207500D02*
X317968Y-207333D01*
X317093Y-206667D01*
X316343Y-205667D01*
X315843Y-204500D01*
X315593Y-203167D01*
Y-201833D01*
X315843Y-200500D01*
X316343Y-199333D01*
X317093Y-198334D01*
X317968Y-197667D01*
X318968Y-197500D01*
X319968Y-197667D01*
X320843Y-198334D01*
X321593Y-199333D01*
X322093Y-200500D01*
X322343Y-201833D01*
Y-203167D01*
X322093Y-204500D01*
X321593Y-205667D01*
X320843Y-206667D01*
X319968Y-207333D01*
X318968Y-207500D01*
G01X326093D02*
Y-197500D01*
X331843Y-207500D01*
Y-197500D01*
G01X336218Y-207500D02*
Y-197500D01*
X338718D01*
X339718Y-198000D01*
X340468Y-198667D01*
X341093Y-199666D01*
X341593Y-200834D01*
X341718Y-202500D01*
X341593Y-204167D01*
X341093Y-205334D01*
X340468Y-206334D01*
X339718Y-207000D01*
X338718Y-207500D01*
X336218D01*
G01X345843D02*
X348968Y-197500D01*
X352093Y-207500D01*
G01X350968Y-204000D02*
X346968D01*
G01X356468Y-207500D02*
Y-197500D01*
X359593D01*
X360593Y-198000D01*
X361218Y-198667D01*
X361468Y-200000D01*
X361218Y-201333D01*
X360468Y-202167D01*
X359593Y-202667D01*
X356468D01*
G01X359593D02*
X361468Y-207500D01*
G01X368968D02*
Y-203000D01*
X366468Y-197500D01*
G01X371468D02*
X368968Y-203000D01*
G01X386343Y-206167D02*
X387343Y-207000D01*
X388468Y-207500D01*
X389468D01*
X390468Y-207000D01*
X391218Y-206167D01*
X391593Y-205000D01*
X391343Y-203834D01*
X390718Y-202833D01*
X389593Y-202167D01*
X388093Y-201833D01*
X387218Y-201167D01*
X386843Y-200000D01*
X387093Y-198833D01*
X387718Y-198000D01*
X388593Y-197500D01*
X389468D01*
X390343Y-197833D01*
X391093Y-198667D01*
G01X397468Y-197500D02*
X400468D01*
G01X398968D02*
Y-207500D01*
G01X397468D02*
X400468D01*
G01X406218D02*
Y-197500D01*
X408718D01*
X409718Y-198000D01*
X410468Y-198667D01*
X411093Y-199666D01*
X411593Y-200834D01*
X411718Y-202500D01*
X411593Y-204167D01*
X411093Y-205334D01*
X410468Y-206334D01*
X409718Y-207000D01*
X408718Y-207500D01*
X406218D01*
G01X421468D02*
X416468D01*
Y-197500D01*
X421468D01*
G01X419468Y-202333D02*
X416468D01*
G01X237968Y-149000D02*
Y-139000D01*
X240968D01*
X241968Y-139500D01*
X242718Y-140667D01*
X242968Y-142000D01*
X242718Y-143333D01*
X242093Y-144333D01*
X240968Y-144834D01*
X237968D01*
G01X247343Y-149000D02*
X250468Y-139000D01*
X253593Y-149000D01*
G01X252468Y-145500D02*
X248468D01*
G01X257968Y-149000D02*
Y-139000D01*
X261093D01*
X262093Y-139500D01*
X262718Y-140167D01*
X262968Y-141500D01*
X262718Y-142833D01*
X261968Y-143667D01*
X261093Y-144167D01*
X257968D01*
G01X261093D02*
X262968Y-149000D01*
G01X270468Y-139000D02*
Y-149000D01*
G01X267593Y-139000D02*
X273343D01*
G01X287593Y-149000D02*
Y-139000D01*
X293343Y-149000D01*
Y-139000D01*
G01X297718D02*
Y-146167D01*
X298218Y-147667D01*
X299218Y-148667D01*
X300468Y-149000D01*
X301718Y-148667D01*
X302718Y-147667D01*
X303218Y-146167D01*
Y-139000D01*
G01X307218Y-149000D02*
Y-139000D01*
X310468Y-147333D01*
X313718Y-139000D01*
Y-149000D01*
G01X321468Y-143667D02*
X321968Y-143167D01*
X322343Y-142334D01*
X322593Y-141166D01*
X322343Y-140167D01*
X321843Y-139500D01*
X320968Y-139000D01*
X317593D01*
Y-149000D01*
X321718D01*
X322593Y-148334D01*
X323093Y-147333D01*
X323343Y-146167D01*
X323093Y-145000D01*
X322343Y-144000D01*
X321468Y-143667D01*
X317593D01*
G01X332968Y-149000D02*
X327968D01*
Y-139000D01*
X332968D01*
G01X330968Y-143833D02*
X327968D01*
G01X337968Y-149000D02*
Y-139000D01*
X341093D01*
X342093Y-139500D01*
X342718Y-140167D01*
X342968Y-141500D01*
X342718Y-142833D01*
X341968Y-143667D01*
X341093Y-144167D01*
X337968D01*
G01X341093D02*
X342968Y-149000D01*
G01X350468Y-149333D02*
X350218Y-149167D01*
Y-148833D01*
X350468Y-148667D01*
X350718Y-148833D01*
Y-149167D01*
X350468Y-149333D01*
G01Y-144834D02*
X350218Y-144667D01*
Y-144333D01*
X350468Y-144167D01*
X350718Y-144333D01*
Y-144667D01*
X350468Y-144834D01*
G01X358093Y-140667D02*
X358843Y-139667D01*
X359718Y-139167D01*
X360718Y-139000D01*
X361968Y-139333D01*
X362843Y-140167D01*
X363093Y-141166D01*
X362968Y-142167D01*
X362468Y-143000D01*
X359968Y-144667D01*
X358843Y-145833D01*
X358093Y-147500D01*
X357843Y-149000D01*
X363093D01*
G01X367718Y-147000D02*
X368468Y-148167D01*
X369468Y-148833D01*
X370593Y-149000D01*
X371593Y-148833D01*
X372593Y-148000D01*
X373218Y-147000D01*
X373343Y-146000D01*
X373093Y-144834D01*
X372218Y-144000D01*
X371343Y-143667D01*
X370218D01*
G01X371343D02*
X372093Y-143167D01*
X372718Y-142334D01*
X372968Y-141333D01*
X372718Y-140333D01*
X372093Y-139500D01*
X370968Y-139000D01*
X369843Y-139167D01*
X368718Y-139834D01*
G01X380468Y-149000D02*
Y-139000D01*
X378968Y-141000D01*
G01Y-149000D02*
X381968D01*
G01X388843Y-145667D02*
X392093D01*
G01X400468Y-139000D02*
X399468Y-139333D01*
X398718Y-140167D01*
X398218Y-141166D01*
X397843Y-142500D01*
X397718Y-144000D01*
X397843Y-145500D01*
X398218Y-146834D01*
X398718Y-147834D01*
X399468Y-148667D01*
X400468Y-149000D01*
X401468Y-148667D01*
X402218Y-147834D01*
X402718Y-146834D01*
X403093Y-145500D01*
X403218Y-144000D01*
X403093Y-142500D01*
X402718Y-141166D01*
X402218Y-140167D01*
X401468Y-139333D01*
X400468Y-139000D01*
G01X410468D02*
X409468Y-139333D01*
X408718Y-140167D01*
X408218Y-141166D01*
X407843Y-142500D01*
X407718Y-144000D01*
X407843Y-145500D01*
X408218Y-146834D01*
X408718Y-147834D01*
X409468Y-148667D01*
X410468Y-149000D01*
X411468Y-148667D01*
X412218Y-147834D01*
X412718Y-146834D01*
X413093Y-145500D01*
X413218Y-144000D01*
X413093Y-142500D01*
X412718Y-141166D01*
X412218Y-140167D01*
X411468Y-139333D01*
X410468Y-139000D01*
G01X420468D02*
X419468Y-139333D01*
X418718Y-140167D01*
X418218Y-141166D01*
X417843Y-142500D01*
X417718Y-144000D01*
X417843Y-145500D01*
X418218Y-146834D01*
X418718Y-147834D01*
X419468Y-148667D01*
X420468Y-149000D01*
X421468Y-148667D01*
X422218Y-147834D01*
X422718Y-146834D01*
X423093Y-145500D01*
X423218Y-144000D01*
X423093Y-142500D01*
X422718Y-141166D01*
X422218Y-140167D01*
X421468Y-139333D01*
X420468Y-139000D01*
G01X430468D02*
X429468Y-139333D01*
X428718Y-140167D01*
X428218Y-141166D01*
X427843Y-142500D01*
X427718Y-144000D01*
X427843Y-145500D01*
X428218Y-146834D01*
X428718Y-147834D01*
X429468Y-148667D01*
X430468Y-149000D01*
X431468Y-148667D01*
X432218Y-147834D01*
X432718Y-146834D01*
X433093Y-145500D01*
X433218Y-144000D01*
X433093Y-142500D01*
X432718Y-141166D01*
X432218Y-140167D01*
X431468Y-139333D01*
X430468Y-139000D01*
G01X438093Y-144834D02*
X438968Y-143667D01*
X439718Y-143000D01*
X440718Y-142667D01*
X441593Y-143000D01*
X442218Y-143667D01*
X442718Y-144667D01*
X442843Y-145833D01*
X442718Y-146834D01*
X442218Y-147834D01*
X441468Y-148667D01*
X440593Y-149000D01*
X439593Y-148667D01*
X438718Y-147667D01*
X438218Y-146167D01*
X438093Y-144500D01*
X438343Y-142334D01*
X438718Y-141166D01*
X439343Y-140000D01*
X440218Y-139167D01*
X441093Y-139000D01*
X441968Y-139333D01*
X442593Y-140167D01*
G01X448343Y-147834D02*
X449218Y-148667D01*
X450218Y-149000D01*
X451218Y-148667D01*
X452093Y-147667D01*
X452718Y-146167D01*
X452968Y-144667D01*
Y-142833D01*
X452718Y-141333D01*
X452093Y-140000D01*
X451343Y-139333D01*
X450468Y-139000D01*
X449468Y-139333D01*
X448718Y-140000D01*
X448218Y-141000D01*
X447968Y-142334D01*
X448218Y-143500D01*
X448843Y-144667D01*
X449593Y-145334D01*
X450468Y-145500D01*
X451468Y-145167D01*
X452218Y-144333D01*
X452968Y-142833D01*
G01X521418Y-178733D02*
Y-188733D01*
X526418D01*
G01X533918Y-182067D02*
Y-188733D01*
G01Y-179400D02*
X533668Y-179234D01*
Y-178900D01*
X533918Y-178733D01*
X534168Y-178900D01*
Y-179234D01*
X533918Y-179400D01*
G01X543168Y-188733D02*
Y-180233D01*
X543418Y-179400D01*
X543918Y-178900D01*
X544668Y-178733D01*
X545418Y-179067D01*
X545793Y-179900D01*
G01X544293Y-182734D02*
X541793D01*
G01X552043Y-184233D02*
X556043D01*
X555668Y-183067D01*
X555043Y-182400D01*
X554168Y-182067D01*
X553293Y-182234D01*
X552543Y-182734D01*
X552043Y-183900D01*
X551793Y-184900D01*
Y-185900D01*
X552043Y-186900D01*
X552668Y-187900D01*
X553418Y-188567D01*
X554293Y-188733D01*
X555168Y-188400D01*
X556043Y-187400D01*
G01X562293Y-185400D02*
X565543D01*
G01X571168Y-186734D02*
X571918Y-187900D01*
X572918Y-188567D01*
X574043Y-188733D01*
X575043Y-188567D01*
X576043Y-187734D01*
X576668Y-186734D01*
X576793Y-185733D01*
X576543Y-184567D01*
X575668Y-183734D01*
X574793Y-183400D01*
X573668D01*
G01X574793D02*
X575543Y-182900D01*
X576168Y-182067D01*
X576418Y-181067D01*
X576168Y-180067D01*
X575543Y-179234D01*
X574418Y-178733D01*
X573293Y-178900D01*
X572168Y-179567D01*
M02*
