G04 ================== begin FILE IDENTIFICATION RECORD ==================*
G04 Layout Name:  OC_CONNECT-1_BREAKOUT_LIFE-3.brd*
G04 Film Name:    BOTTOM*
G04 File Format:  Gerber RS274X*
G04 File Origin:  Cadence Allegro 16.6-2015-S065*
G04 Origin Date:  Thu Jan 05 18:33:40 2017*
G04 *
G04 Layer:  DRAWING FORMAT/L10*
G04 Layer:  DRAWING FORMAT/FILM_LABEL_OUTLINE*
G04 Layer:  VIA CLASS/BOTTOM*
G04 Layer:  PIN/BOTTOM*
G04 Layer:  ETCH/BOTTOM*
G04 Layer:  DRAWING FORMAT/LAYER10*
G04 Layer:  DRAWING FORMAT/ETCH_ALL_LAYERS_TL*
G04 Layer:  DRAWING FORMAT/ALL_LAYERS_TL*
G04 Layer:  BOARD GEOMETRY/OUTLINE*
G04 Layer:  BOARD GEOMETRY/TOOLING_CORNERS*
G04 *
G04 Offset:    (0.000 0.000)*
G04 Mirror:    No*
G04 Mode:      Positive*
G04 Rotation:  0*
G04 FullContactRelief:  No*
G04 UndefLineWidth:     6.000*
G04 ================== end FILE IDENTIFICATION RECORD ====================*
%FSLAX25Y25*MOIN*%
%IR0*IPPOS*OFA0.00000B0.00000*MIA0B0*SFA1.00000B1.00000*%
%ADD12C,.128*%
%ADD27C,.114173*%
%ADD13R,.128X.128*%
%ADD10C,.354331*%
%ADD24O,.070866X.161417*%
%ADD15R,.098425X.129921*%
%ADD11C,.024*%
%ADD20C,.062*%
%ADD21C,.063*%
%ADD31R,.021X.021*%
%ADD22R,.062X.062*%
%ADD30C,.051181*%
%ADD19R,.063X.063*%
%ADD14C,.035433*%
%ADD18C,.03937*%
%ADD23C,.07874*%
%ADD25C,.070866*%
%ADD35C,.062992*%
%ADD28C,.059843*%
%ADD26O,.03937X.031496*%
%ADD32R,.023622X.027559*%
%ADD16R,.07874X.07874*%
%ADD34R,.062992X.062992*%
%ADD29R,.059843X.059843*%
%ADD33R,.03937X.027559*%
%ADD17R,.098425X.086614*%
%ADD36C,.006*%
%ADD37C,.008*%
%ADD38C,.0048*%
%ADD39C,.0057*%
%ADD40C,.01*%
%ADD41C,.02*%
%ADD42C,.03*%
%ADD43C,.012*%
%ADD44C,.015*%
%ADD66R,.088744X.088744*%
%ADD62R,.098744X.098744*%
%ADD45C,.148004*%
%ADD57C,.124178*%
%ADD56R,.108428X.096618*%
%ADD58R,.072004X.072004*%
%ADD53C,.072004*%
%ADD47C,.036004*%
%ADD52C,.073004*%
%ADD50C,.082004*%
%ADD54R,.082004X.082004*%
%ADD51C,.083004*%
%ADD49R,.073004X.073004*%
%ADD46R,.148004X.148004*%
%ADD59C,.061186*%
%ADD48C,.055438*%
%ADD55C,.088744*%
%ADD63C,.072996*%
%ADD64C,.082996*%
%ADD65R,.108428X.139926*%
%ADD60R,.039626X.043564*%
%ADD61R,.049374X.037564*%
G75*
%LPD*%
G75*
G36*
G01X4000Y4000D02*
Y296000D01*
X296000D01*
Y4000D01*
X4000D01*
G37*
%LPC*%
G75*
G36*
G01X106515Y58473D02*
X106519Y58469D01*
Y41887D01*
X104018Y39386D01*
X80882D01*
X78718Y41550D01*
Y60397D01*
X81139Y62818D01*
X103969D01*
X106515Y60272D01*
Y58473D01*
G37*
G36*
G01X78244Y79407D02*
Y21640D01*
X75088Y18484D01*
X58462D01*
X55258Y21687D01*
Y79999D01*
X57138Y81879D01*
X75772D01*
X78244Y79407D01*
G37*
G36*
G01X159956Y243657D02*
X159370Y243071D01*
G02X154246Y244484I-3354J-2166D01*
G03Y245201I-177J359D01*
G02X159451Y246745I1770J3578D01*
G01X159372Y246612D01*
X159647Y246337D01*
X199812D01*
Y246756D01*
X198671D01*
Y247093D01*
G03X198052Y247428I-400J0D01*
G02Y250440I-986J1506D01*
G03X198671Y250775I219J335D01*
G01Y251112D01*
X202633D01*
Y246756D01*
X201492D01*
Y245629D01*
X200860Y244997D01*
X201492Y244365D01*
Y243238D01*
X202633D01*
Y238882D01*
X198671D01*
Y239219D01*
G03X198052Y239554I-400J0D01*
G02Y242566I-986J1506D01*
G03X198671Y242901I219J335D01*
G01Y243238D01*
X199812D01*
Y243657D01*
X159956D01*
G37*
G36*
G01X24520Y247682D02*
X30238D01*
X34091Y243829D01*
Y238111D01*
X30238Y234258D01*
X24520D01*
X20667Y238111D01*
Y243829D01*
X24520Y247682D01*
G37*
G36*
G01X153225Y224068D02*
G03X152810Y224467I-400J0D01*
G02X154233Y227270I-70J1799D01*
G03X154897I332J223D01*
G02X156321Y224467I1494J-1004D01*
G03X155906Y224068I-16J-400D01*
G01Y223783D01*
X156348Y223340D01*
X161652D01*
X163042Y224730D01*
Y229739D01*
X162791Y229989D01*
X162660Y229917D01*
G02X164034Y234786I-1722J3115D01*
G03X164730I348J197D01*
G02X166105Y229917I3097J-1754D01*
G01X165973Y229989D01*
X165723Y229739D01*
Y223620D01*
X162762Y220660D01*
X155238D01*
X153225Y222672D01*
Y224068D01*
G37*
G36*
G01X136052Y221799D02*
G03X136467Y222198I16J400D01*
G01Y229739D01*
X136217Y229989D01*
X136085Y229917D01*
G02X137460Y234786I-1722J3115D01*
G03X138156I348J197D01*
G02X139530Y229917I3097J-1754D01*
G01X139398Y229989D01*
X139148Y229739D01*
Y222198D01*
G03X139563Y221799I400J0D01*
G02X138140Y218996I70J-1799D01*
G03X137476I-332J-223D01*
G02X136052Y221799I-1494J1004D01*
G37*
G36*
G01X155906Y211007D02*
G03X156321Y210607I400J0D01*
G02X154897Y207804I70J-1799D01*
G03X154234I-332J-223D01*
G02X152810Y210607I-1494J1004D01*
G03X153225Y211007I16J400D01*
G01Y213348D01*
X154718Y214840D01*
X160348D01*
X165130Y210058D01*
X165536D01*
G03X165935Y210474I0J400D01*
G02X168738Y209050I1799J70D01*
G03Y208386I223J-332D01*
G02X165935Y206962I-1004J-1494D01*
G03X165536Y207378I-400J16D01*
G01X164020D01*
X159238Y212160D01*
X155906D01*
Y211007D01*
G37*
G36*
G01X255339Y201615D02*
X102068D01*
G02Y203385I-1567J885D01*
G01X254605D01*
X258624Y207404D01*
Y214451D01*
X266923D01*
Y206152D01*
X259876D01*
X255339Y201615D01*
G37*
G36*
G01X282473Y71456D02*
Y65738D01*
X278620Y61885D01*
X272902D01*
X269049Y65738D01*
Y71456D01*
X272902Y75309D01*
X278620D01*
X282473Y71456D01*
G37*
G36*
G01X33819Y57639D02*
X29966Y53786D01*
X24248D01*
X20395Y57639D01*
Y63357D01*
X24248Y67210D01*
X29966D01*
X33819Y63357D01*
Y57639D01*
G37*
G36*
G01X152121Y37142D02*
X155426D01*
G02Y33942I3775J-1600D01*
G01X150795D01*
X120837Y63900D01*
X110337D01*
X35858Y138379D01*
Y145483D01*
G02X39058I1600J825D01*
G01Y139704D01*
X111663Y67100D01*
X122163D01*
X152121Y37142D01*
G37*
G36*
G01X166905Y10100D02*
X244337D01*
X250900Y16663D01*
Y64163D01*
X279554Y92817D01*
Y115908D01*
G02Y117558I1600J825D01*
G01Y145817D01*
X286400Y152663D01*
Y213837D01*
X276318Y223918D01*
X240896D01*
G02Y227119I-825J1600D01*
G01X277644D01*
X289600Y215163D01*
Y151337D01*
X282754Y144492D01*
Y117558D01*
G02Y115908I-1600J-825D01*
G01Y91492D01*
X254100Y62837D01*
Y15337D01*
X245663Y6900D01*
X165580D01*
X161038Y11442D01*
X155100D01*
Y19642D01*
X163301D01*
Y13705D01*
X166905Y10100D01*
G37*
G36*
G01X46250Y102636D02*
G02X44750I-750J-1636D01*
G03Y103364I-167J364D01*
G02X46250I750J1636D01*
G03Y102636I167J-364D01*
G37*
G36*
G01X51250D02*
G02X49750I-750J-1636D01*
G03Y103364I-167J364D01*
G02X51250I750J1636D01*
G03Y102636I167J-364D01*
G37*
G36*
G01X55750D02*
G02X54250I-750J-1636D01*
G03Y103364I-167J364D01*
G02X55750I750J1636D01*
G03Y102636I167J-364D01*
G37*
G36*
G01X150166Y236913D02*
X142181D01*
Y239305D01*
X140803D01*
Y239055D01*
X137103D01*
Y239355D01*
X133663D01*
Y242456D01*
X137103D01*
Y242756D01*
X140803D01*
Y242506D01*
X142181D01*
Y244898D01*
X144433D01*
G03X144612Y245656I0J400D01*
G02X147735I1561J3124D01*
G03X147914Y244898I179J-358D01*
G01X150166D01*
Y236913D01*
G37*
G36*
G01X201570Y28888D02*
G02X196831I-2369J-3346D01*
G03X196600Y29615I-231J326D01*
G01X191633D01*
X187615Y33633D01*
Y55876D01*
X181406Y62085D01*
G02X182738Y63468I-2205J3457D01*
G01X182660Y63335D01*
X189385Y56609D01*
Y34367D01*
X192367Y31385D01*
X196723D01*
G03X196943Y32119I0J400D01*
G02X201458I2257J3423D01*
G03X201678Y31385I220J-334D01*
G01X216723D01*
G03X216943Y32119I0J400D01*
G02X221458I2257J3423D01*
G03X221678Y31385I220J-334D01*
G01X236723D01*
G03X236943Y32119I0J400D01*
G02X235275Y34357I2257J3423D01*
G01X232967D01*
X227815Y39509D01*
Y61500D01*
X221844D01*
G02X221501Y61695I0J400D01*
G03X220984Y61850I-343J-205D01*
G02X223168Y66577I-1783J3692D01*
G01X223207Y66427D01*
X229675D01*
X235223Y71975D01*
X236757D01*
G03X237001Y72692I0J400D01*
G02X242632Y74452I2200J2850D01*
G03X243296Y74048I381J-121D01*
G01X247615Y78367D01*
Y142633D01*
X245985Y144263D01*
X245879Y144240D01*
G02X247260Y145621I-379J1760D01*
G01X247237Y145515D01*
X249385Y143367D01*
Y77633D01*
X243620Y71868D01*
G03X243903Y71185I283J-283D01*
G01X244509D01*
X250815Y77491D01*
Y162009D01*
X244315Y168509D01*
Y187509D01*
X238009Y193815D01*
X107991D01*
X105859Y191683D01*
G03X106142Y191000I283J-283D01*
G01X167191D01*
X167209Y191180D01*
G02X170568Y191885I1791J-180D01*
G01X180367D01*
X181252Y191000D01*
X213500D01*
Y184431D01*
G03X213694Y184231I200J0D01*
G02Y176950I-111J-3640D01*
G03X213500Y176750I6J-200D01*
G01Y138718D01*
G03X214183Y138435I400J0D01*
G01X214263Y138515D01*
X214240Y138621D01*
G02X215621Y137240I1760J379D01*
G01X215515Y137263D01*
X213500Y135248D01*
Y133250D01*
G03X213694Y133050I200J0D01*
G02Y125769I-111J-3640D01*
G03X213500Y125569I6J-200D01*
G01Y119885D01*
X220867D01*
X240086Y100666D01*
Y89549D01*
X240235Y89510D01*
G02X242030Y82575I-1035J-3967D01*
G03X242306Y81885I276J-289D01*
G01X242633D01*
X245115Y84367D01*
Y136133D01*
X239485Y141763D01*
X239379Y141740D01*
G02X240760Y143121I-379J1760D01*
G01X240737Y143015D01*
X246885Y136867D01*
Y83633D01*
X243367Y80115D01*
X234867D01*
X229409Y74657D01*
X223207D01*
X223168Y74507D01*
G02Y76577I-3967J1035D01*
G01X223207Y76427D01*
X228675D01*
X234133Y81885D01*
X236095D01*
G03X236371Y82575I0J400D01*
G02X238166Y89510I2830J2967D01*
G01X238315Y89549D01*
Y99933D01*
X220133Y118115D01*
X213500D01*
Y108500D01*
X89425D01*
Y126321D01*
G03X88767Y126627I-400J0D01*
G02Y132192I-2350J2783D01*
G03X89425Y132498I258J306D01*
G01Y176294D01*
G03X88817Y176636I-400J0D01*
G02Y184545I-2400J3955D01*
G03X89425Y184887I208J342D01*
G01Y191000D01*
X98115D01*
Y195867D01*
X103133Y200885D01*
X244867D01*
X258385Y187367D01*
Y73133D01*
X249385Y64133D01*
Y36133D01*
X242867Y29615D01*
X241801D01*
G03X241570Y28888I0J-400D01*
G02X236831I-2369J-3346D01*
G03X236600Y29615I-231J326D01*
G01X221801D01*
G03X221570Y28888I0J-400D01*
G02X216831I-2369J-3346D01*
G03X216600Y29615I-231J326D01*
G01X201801D01*
G03X201570Y28888I0J-400D01*
G37*
G54D62*
X274774Y163422D03*
G54D45*
X26562Y99571D03*
Y118075D03*
G54D57*
X127394Y259449D03*
X174796D03*
G54D56*
X85898Y71813D03*
G54D58*
X179201Y15542D03*
X199201D03*
G54D53*
X64662Y229013D03*
Y269013D03*
X159201Y55542D03*
X179201Y45542D03*
X159201Y85542D03*
Y75542D03*
Y65542D03*
X179201Y85542D03*
X219201Y55542D03*
X199201Y45542D03*
X219201Y85542D03*
X199201D03*
Y75542D03*
G54D47*
X37458Y175728D03*
Y206328D03*
X129769Y70731D03*
X196702Y260798D03*
X207202Y260500D03*
X228621Y262000D03*
X281287Y85010D03*
G54D52*
X58201Y187734D03*
X130387Y34851D03*
X100480Y251200D03*
X82061Y251601D03*
G54D50*
X64662Y219013D03*
Y239013D03*
Y249013D03*
Y259013D03*
Y279013D03*
X159201Y45542D03*
Y25542D03*
X179201Y55542D03*
Y35542D03*
Y25542D03*
Y75542D03*
X219201Y45542D03*
X199201Y55542D03*
Y65542D03*
G54D54*
X64662Y289013D03*
X239201Y15542D03*
X219201D03*
G54D51*
X58201Y197734D03*
Y177734D03*
X130387Y44851D03*
Y24851D03*
X100480Y241200D03*
Y261200D03*
X82061Y241601D03*
Y261601D03*
G54D49*
X58201Y167734D03*
X130387Y14851D03*
X100480Y271200D03*
X82061Y271601D03*
G54D46*
X26562Y81067D03*
G54D59*
X151095Y233032D03*
G54D48*
X17970Y161076D03*
Y221096D03*
Y190496D03*
X44742Y161076D03*
Y221096D03*
Y190496D03*
X110281Y87515D03*
X137053D03*
X261799Y99778D03*
X288571D03*
X261666Y131501D03*
X288438D03*
G54D55*
X87830Y26575D03*
X274774Y183422D03*
G54D63*
X280474Y210302D03*
Y235902D03*
G54D64*
X262774D03*
G54D60*
X208132Y248934D03*
G54D61*
X207345Y241060D03*
%LPD*%
G75*
G36*
G01X74467Y19984D02*
X59083D01*
X56758Y22308D01*
Y79378D01*
X57760Y80379D01*
X75151D01*
X76744Y78786D01*
Y22261D01*
X74467Y19984D01*
G37*
G36*
G01X105019Y42508D02*
X103397Y40886D01*
X81503D01*
X80218Y42171D01*
Y59776D01*
X81760Y61318D01*
X103348D01*
X105015Y59651D01*
Y57852D01*
X105019Y57848D01*
Y42508D01*
G37*
G36*
G01X245491Y68815D02*
X253185Y76509D01*
Y162991D01*
X246685Y169491D01*
Y188491D01*
X238991Y196185D01*
X107009D01*
X102815Y191991D01*
Y191000D01*
X102385D01*
Y193633D01*
X105367Y196615D01*
X243133D01*
X254115Y185633D01*
Y75367D01*
X245175Y66427D01*
X243207D01*
X243168Y66577D01*
G03X242357Y68160I-3967J-1035D01*
G02X242665Y68815I308J255D01*
G01X245491D01*
G37*
G36*
G01X241458Y32119D02*
G03X235275Y36727I-2257J3423D01*
G01X233949D01*
X230185Y40491D01*
Y61500D01*
X233744D01*
X235340Y63096D01*
G02X235941Y63055I283J-283D01*
G03X243168Y64507I3260J2487D01*
G01X243207Y64657D01*
X245909D01*
X255885Y74633D01*
Y186367D01*
X243867Y198385D01*
X104633D01*
X100615Y194367D01*
Y191000D01*
X99885D01*
Y195133D01*
X103867Y199115D01*
X244133D01*
X256615Y186633D01*
Y73867D01*
X247615Y64867D01*
Y36867D01*
X242133Y31385D01*
X241678D01*
G02X241458Y32119I0J400D01*
G37*
%LPC*%
G75*
G54D66*
X67830Y26575D03*
G54D56*
X67394Y71813D03*
G54D53*
X239201Y45542D03*
G54D50*
Y55542D03*
G54D65*
X67394Y50691D03*
X94559D03*
%LPD*%
G75*
G54D10*
X25000Y25000D03*
Y275000D03*
X275000Y25000D03*
Y275000D03*
G54D20*
X64662Y219013D03*
Y229013D03*
Y239013D03*
Y249013D03*
Y259013D03*
Y269013D03*
Y279013D03*
X159201Y55542D03*
Y45542D03*
Y35542D03*
Y25542D03*
X179201Y55542D03*
Y45542D03*
Y35542D03*
Y25542D03*
X159201Y85542D03*
Y75542D03*
Y65542D03*
X179201Y85542D03*
Y75542D03*
Y65542D03*
X239201Y55542D03*
Y45542D03*
Y35542D03*
Y25542D03*
X219201Y55542D03*
Y45542D03*
Y35542D03*
Y25542D03*
X199201Y55542D03*
Y45542D03*
Y35542D03*
Y25542D03*
X239201Y85542D03*
Y75542D03*
Y65542D03*
X219201Y85542D03*
Y75542D03*
Y65542D03*
X199201Y85542D03*
Y75542D03*
Y65542D03*
G54D11*
X44233Y84850D03*
X45500Y105000D03*
X50500D03*
Y101000D03*
X45500D03*
X25254Y146308D03*
Y175728D03*
X37458Y146308D03*
Y175728D03*
X25254Y206328D03*
X37458D03*
X85898Y79479D03*
X95673Y71813D03*
X58307Y84850D03*
X102155Y55691D03*
Y50691D03*
Y45691D03*
X55000Y101000D03*
Y105000D03*
X106114Y154114D03*
X100500Y202500D03*
X117565Y71000D03*
X129769Y70731D03*
X146063Y133740D03*
X122441Y129016D03*
X122500Y125500D03*
X114567Y129016D03*
X138189Y124291D03*
X130315Y133740D03*
X146063Y138464D03*
X138189D03*
X130315D03*
X114567D03*
Y133740D03*
X106693Y138464D03*
Y133740D03*
Y124291D03*
Y129016D03*
X114567Y124291D03*
X122441Y138464D03*
X138189Y133740D03*
X122441D03*
X143922Y121000D03*
X128174D03*
X131826D03*
X147574D03*
X153937Y180984D03*
X130315Y162087D03*
Y166811D03*
Y171535D03*
Y176260D03*
Y180984D03*
X146063Y157362D03*
X114567Y171535D03*
X146063Y162087D03*
Y166811D03*
X114567Y162087D03*
X146063Y180984D03*
Y176260D03*
Y171535D03*
X122441Y157362D03*
X114567Y176260D03*
X138189Y157362D03*
Y171535D03*
Y185709D03*
X130315Y157362D03*
X114567Y180984D03*
X106693Y171535D03*
X122441Y185709D03*
Y171535D03*
X146063Y143189D03*
X130315D03*
X138189D03*
X122441Y176260D03*
Y162087D03*
X138189Y166811D03*
X122441Y180984D03*
Y166811D03*
X114567D03*
X138189Y162087D03*
X114567Y143189D03*
Y147913D03*
X122441Y143189D03*
X114567Y157362D03*
X130315Y147913D03*
X122441D03*
X146063D03*
X114567Y185709D03*
X146063D03*
X130315D03*
X108000Y189000D03*
X138189Y147913D03*
X151219Y220863D03*
Y211819D03*
X135982Y220000D03*
X139634D03*
X152740Y208809D03*
X152739Y226266D03*
X156391Y208809D03*
X156391Y226266D03*
X177559Y129016D03*
Y124291D03*
X169685Y133740D03*
X161811Y129016D03*
Y124291D03*
X200743Y131378D03*
X204028Y126654D03*
X205500Y114000D03*
X177559Y138464D03*
X216000Y139000D03*
X161811Y138464D03*
X169685Y129016D03*
Y124291D03*
X194348Y136102D03*
X176271Y134202D03*
X185433Y133740D03*
Y138464D03*
X169685D03*
X193307Y185709D03*
X185433Y180984D03*
Y176260D03*
Y171535D03*
Y166811D03*
Y162087D03*
Y143189D03*
Y157362D03*
X177559D03*
Y171535D03*
Y185709D03*
X169685Y180984D03*
Y176260D03*
Y171535D03*
Y166811D03*
Y162087D03*
Y157362D03*
X161811D03*
Y171535D03*
Y162087D03*
Y166811D03*
Y143189D03*
X169685D03*
X198715Y173951D03*
X202367D03*
X177559Y166811D03*
Y162087D03*
Y180984D03*
Y176260D03*
X192178Y180520D03*
Y175796D03*
X177559Y143189D03*
Y147913D03*
X169685D03*
X161811D03*
X169685Y185709D03*
X169000Y191000D03*
X192019Y148375D03*
X184145D03*
X211500Y241060D03*
X197066D03*
Y248934D03*
X167734Y210544D03*
Y206892D03*
X196702Y291296D03*
X207202D03*
X196702Y260798D03*
X207202Y260500D03*
X269083Y85010D03*
X268950Y116733D03*
X249581Y172419D03*
X245500Y146000D03*
X239000Y143500D03*
X251349Y231652D03*
X240071Y225519D03*
X217702Y291296D03*
X228621Y291379D03*
Y262000D03*
X281287Y85010D03*
X281154Y116733D03*
G54D30*
X167827Y233032D03*
X134363D03*
X160938D03*
X151095D03*
X141252D03*
G54D21*
X58201Y197734D03*
Y187734D03*
Y177734D03*
X130387Y44851D03*
Y34851D03*
Y24851D03*
X100480Y241200D03*
Y251200D03*
Y261200D03*
X82061Y241601D03*
Y251601D03*
Y261601D03*
G54D12*
X26562Y99571D03*
Y118075D03*
G54D40*
G01X-154139Y-105167D02*
X473761D01*
Y-85167D01*
G01X-154139Y-65167D02*
X548461D01*
G01X-154139Y-85167D02*
X548461D01*
G01X473761Y-105167D02*
X548461D01*
Y-25967D01*
X-154139D01*
Y-105167D01*
G01Y-45167D02*
X548461D01*
G01X473761Y-65167D02*
Y-45167D01*
G01Y-65167D02*
Y-85167D01*
G01Y-25967D02*
Y-45167D01*
G54D22*
X64662Y289013D03*
X159201Y15542D03*
X179201D03*
X239201D03*
X219201D03*
X199201D03*
G54D31*
X135213Y240906D03*
X138953D03*
G54D13*
X26562Y81067D03*
G54D41*
G01X67394Y43495D02*
Y50691D01*
G01D02*
Y57887D01*
G01X61772Y50691D02*
X67394D01*
G01D02*
X73015D01*
G01X37458Y146308D02*
Y139042D01*
X111000Y65500D01*
X121500D01*
X151458Y35542D01*
X159201D01*
G01X67394Y66782D02*
Y71813D01*
G01D02*
Y76844D01*
G01X61772Y71813D02*
X67394D01*
G01D02*
X73015D01*
G01X127464Y31929D02*
X130387Y34851D01*
G01D02*
X133310Y37774D01*
G01X127464D02*
X130387Y34851D01*
G01D02*
X133310Y31929D01*
G01X126537Y11001D02*
X130387Y14851D01*
G01D02*
X134237Y18701D01*
G01X126537D02*
X130387Y14851D01*
G01D02*
X134237Y11001D01*
G01X89107Y43495D02*
X94559Y50691D01*
G01D02*
X100011Y57887D01*
G01X89107D02*
X94559Y50691D01*
G01D02*
X100011Y43495D01*
G01X85898Y71813D02*
X95673D01*
G01X85898D02*
Y79479D01*
G01Y66782D02*
Y71813D01*
G01X80276D02*
X85898D01*
G01X118504Y159724D02*
X116929D01*
X114567Y162087D01*
G01X110630Y159724D02*
X112205D01*
X114567Y162087D01*
G01X118504Y131378D02*
X116929D01*
X114567Y129016D01*
G01X126378Y131378D02*
X124803D01*
X122441Y129016D01*
G01X126378Y155000D02*
X124803D01*
X122441Y157362D01*
G01X134252Y159724D02*
X132677D01*
X130315Y162087D01*
G01X134252Y155000D02*
X132677D01*
X130315Y157362D01*
G01X134252Y136102D02*
X132677D01*
X130315Y133740D01*
G01X126378Y126654D02*
X123654D01*
X122500Y125500D01*
G01X134252Y145551D02*
X132677D01*
X130315Y143189D01*
G01X134252Y140827D02*
X132677D01*
X130315Y138464D01*
G01X118504Y145551D02*
X116929D01*
X114567Y143189D01*
G01X110630Y145551D02*
X112205D01*
X114567Y143189D01*
G01X118504Y140827D02*
X116929D01*
X114567Y138464D01*
G01X118504Y136102D02*
X116929D01*
X114567Y133740D01*
G01X118504Y150276D02*
X116929D01*
X114567Y147913D01*
G01X110630Y150276D02*
X112205D01*
X114567Y147913D01*
G01X110630Y140827D02*
X109055D01*
X106693Y138464D01*
G01X110630Y136102D02*
X109055D01*
X106693Y133740D01*
G01X118504Y169173D02*
X116929D01*
X114567Y171535D01*
G01X118504Y173898D02*
X116929D01*
X114567Y176260D01*
G01X118504Y178622D02*
X116929D01*
X114567Y180984D01*
G01X126378Y183346D02*
X124803D01*
X122441Y185709D01*
G01X126378Y169173D02*
X124803D01*
X122441Y171535D01*
G01X134252Y164449D02*
X132677D01*
X130315Y166811D01*
G01X134252Y169173D02*
X132677D01*
X130315Y171535D01*
G01X134252Y173898D02*
X132677D01*
X130315Y176260D01*
G01X134252Y178622D02*
X132677D01*
X130315Y180984D01*
G01X281154Y116733D02*
Y92154D01*
X252500Y63500D01*
Y16000D01*
X245000Y8500D01*
X166243D01*
X159201Y15542D01*
G01X142126Y131378D02*
X143701D01*
X146063Y133740D01*
G01X142126Y131378D02*
Y126654D01*
G01D02*
X140551D01*
X138189Y124291D01*
G01X142126Y155000D02*
X140551D01*
X138189Y157362D01*
G01X150000Y155000D02*
X148425D01*
X146063Y157362D01*
G01X150000Y136102D02*
X148425D01*
X146063Y133740D01*
G01X150000Y159724D02*
X148425D01*
X146063Y162087D01*
G01X150000Y164449D02*
X148425D01*
X146063Y166811D01*
G01X157874Y155000D02*
X159449D01*
X161811Y157362D01*
G01X157874Y131378D02*
X159449D01*
X161811Y129016D01*
G01X157874Y126654D02*
X159449D01*
X161811Y124291D01*
G01X165748Y164449D02*
X167323D01*
X169685Y166811D01*
G01X165748Y136102D02*
X167323D01*
X169685Y133740D01*
G01X165748Y155000D02*
X167323D01*
X169685Y157362D01*
G01X173622Y155000D02*
X175197D01*
X177559Y157362D01*
G01X173622Y131378D02*
X175197D01*
X177559Y129016D01*
G01X173622Y126654D02*
X175197D01*
X177559Y124291D01*
G01X181496Y164449D02*
X183071D01*
X185433Y166811D01*
G01X181496Y159724D02*
X183071D01*
X185433Y162087D01*
G01X189370Y145551D02*
X187795D01*
X185433Y143189D01*
G01X181496Y145551D02*
X183071D01*
X185433Y143189D01*
G01X181496Y155000D02*
X183071D01*
X185433Y157362D01*
G01X189370Y155000D02*
X187795D01*
X185433Y157362D01*
G01X142126Y140827D02*
X140551D01*
X138189Y138464D01*
G01X142126Y145551D02*
X140551D01*
X138189Y143189D01*
G01X150000Y140827D02*
X148425D01*
X146063Y138464D01*
G01X150000Y145551D02*
X148425D01*
X146063Y143189D01*
G01X150000Y150276D02*
X148425D01*
X146063Y147913D01*
G01X157874Y150276D02*
X159449D01*
X161811Y147913D01*
G01X165748Y150276D02*
X167323D01*
X169685Y147913D01*
G01X173622Y150276D02*
X175197D01*
X177559Y147913D01*
G01X142126Y169173D02*
X140551D01*
X138189Y171535D01*
G01X142126Y183346D02*
X140551D01*
X138189Y185709D01*
G01X150000Y178622D02*
X148425D01*
X146063Y180984D01*
G01X150000Y173898D02*
X148425D01*
X146063Y176260D01*
G01X150000Y169173D02*
X148425D01*
X146063Y171535D01*
G01X157874Y169173D02*
X159449D01*
X161811Y171535D01*
G01X165748Y173898D02*
X167323D01*
X169685Y176260D01*
G01X165748Y169173D02*
X167323D01*
X169685Y171535D01*
G01X173622Y169173D02*
X175197D01*
X177559Y171535D01*
G01X173622Y183346D02*
X175197D01*
X177559Y185709D01*
G01X181496Y178622D02*
X183071D01*
X185433Y180984D01*
G01X181496Y173898D02*
X183071D01*
X185433Y176260D01*
G01X189370Y169173D02*
X187795D01*
X185433Y171535D01*
G01X181496Y169173D02*
X183071D01*
X185433Y171535D01*
G01X135213Y239155D02*
Y240906D01*
G01D02*
Y242656D01*
G01X133463Y240906D02*
X135213D01*
G01X138953D02*
X146174D01*
G01X189370Y183346D02*
X190945D01*
X193307Y185709D01*
G01X207345Y241060D02*
X211500D01*
G01X207345Y238982D02*
Y241060D01*
G01D02*
Y243138D01*
G01X204676Y241060D02*
X207345D01*
G01X281154Y116733D02*
Y145154D01*
X288000Y152000D01*
Y214500D01*
X276981Y225519D01*
X240071D01*
G54D32*
X208132Y248934D03*
X200652D03*
Y241060D03*
G54D23*
X87830Y26575D03*
X274774Y183422D03*
G54D14*
X17970Y161076D03*
Y221096D03*
Y190496D03*
X44742Y161076D03*
Y221096D03*
Y190496D03*
X110281Y87515D03*
X137053D03*
X261799Y99778D03*
X288571D03*
X261666Y131501D03*
X288438D03*
G54D42*
G01X63193Y21938D02*
X67830Y26575D01*
G01D02*
X72467Y31212D01*
G01X63193D02*
X67830Y26575D01*
G01D02*
X72467Y21938D01*
G01X54351Y163884D02*
X58201Y167734D01*
G01D02*
X62051Y163884D01*
G01X55278Y184812D02*
X58201Y187734D01*
G01D02*
X61124Y190656D01*
G01X55278D02*
X58201Y187734D01*
G01D02*
X61124Y184812D01*
G01X58201Y167734D02*
X62051Y171584D01*
G01X54351D02*
X58201Y167734D01*
G01X61775Y266126D02*
X64662Y269013D01*
G01D02*
X67549Y271900D01*
G01X61775D02*
X64662Y269013D01*
G01D02*
X67549Y266126D01*
G01X61775Y226126D02*
X64662Y229013D01*
G01D02*
X67549Y231900D01*
G01X61775D02*
X64662Y229013D01*
G01D02*
X67549Y226126D01*
G01X84351Y23096D02*
X87830Y26575D01*
G01D02*
X91309Y30054D01*
G01X84351D02*
X87830Y26575D01*
G01D02*
X91309Y23096D01*
G01X122662Y254717D02*
X127394Y259449D01*
G01D02*
X132126Y264181D01*
G01X122662D02*
X127394Y259449D01*
G01D02*
X132126Y254717D01*
G01X79138Y248678D02*
X82061Y251601D01*
G01D02*
X84984Y254524D01*
G01X79138D02*
X82061Y251601D01*
G01D02*
X84984Y248678D01*
G01X78211Y267751D02*
X82061Y271601D01*
G01D02*
X85911Y275451D01*
G01X78211D02*
X82061Y271601D01*
G01D02*
X85911Y267751D01*
G01X97558Y248278D02*
X100480Y251200D01*
G01D02*
X103403Y254122D01*
G01X97558D02*
X100480Y251200D01*
G01D02*
X103403Y248278D01*
G01X96630Y267350D02*
X100480Y271200D01*
G01D02*
X104330Y275050D01*
G01X96630D02*
X100480Y271200D01*
G01D02*
X104330Y267350D01*
G01X175400Y11742D02*
X179201Y15542D01*
G01D02*
X183001Y19342D01*
G01X175400D02*
X179201Y15542D01*
G01D02*
X183001Y11742D01*
G01X176314Y42655D02*
X179201Y45542D01*
G01D02*
X182088Y48429D01*
G01X176314D02*
X179201Y45542D01*
G01D02*
X182088Y42655D01*
G01X156314Y52655D02*
X159201Y55542D01*
G01D02*
X162088Y58429D01*
G01X156314D02*
X159201Y55542D01*
G01D02*
X162088Y52655D01*
G01X176314Y82655D02*
X179201Y85542D01*
G01D02*
X182088Y88429D01*
G01X176314D02*
X179201Y85542D01*
G01D02*
X182088Y82655D01*
G01X156314Y62655D02*
X159201Y65542D01*
G01D02*
X162088Y68429D01*
G01X156314D02*
X159201Y65542D01*
G01D02*
X162088Y62655D01*
G01X156314Y72655D02*
X159201Y75542D01*
G01D02*
X162088Y78429D01*
G01X156314D02*
X159201Y75542D01*
G01D02*
X162088Y72655D01*
G01X156314Y82655D02*
X159201Y85542D01*
G01D02*
X162088Y88429D01*
G01X156314D02*
X159201Y85542D01*
G01D02*
X162088Y82655D01*
G01X170064Y254717D02*
X174796Y259449D01*
G01D02*
X179528Y264181D01*
G01X170064D02*
X174796Y259449D01*
G01D02*
X179528Y254717D01*
G01X148590Y230527D02*
X151095Y233032D01*
G01D02*
X153600Y235536D01*
G01X151095Y233032D02*
X153600Y230527D01*
G01X146174Y248780D02*
X148985Y251590D01*
G01X143363D02*
X146174Y248780D01*
G01X195400Y11742D02*
X199201Y15542D01*
G01D02*
X203001Y19342D01*
G01X195400D02*
X199201Y15542D01*
G01D02*
X203001Y11742D01*
G01X196314Y42655D02*
X199201Y45542D01*
G01D02*
X202088Y48429D01*
G01X196314D02*
X199201Y45542D01*
G01D02*
X202088Y42655D01*
G01X216314Y52655D02*
X219201Y55542D01*
G01D02*
X222088Y58429D01*
G01X216314D02*
X219201Y55542D01*
G01D02*
X222088Y52655D01*
G01X236314Y42655D02*
X239201Y45542D01*
G01D02*
X242088Y48429D01*
G01X236314D02*
X239201Y45542D01*
G01D02*
X242088Y42655D01*
G01X196314Y72655D02*
X199201Y75542D01*
G01D02*
X202088Y78429D01*
G01X196314D02*
X199201Y75542D01*
G01D02*
X202088Y72655D01*
G01X196314Y82655D02*
X199201Y85542D01*
G01D02*
X202088Y88429D01*
G01X196314D02*
X199201Y85542D01*
G01D02*
X202088Y82655D01*
G01X216314D02*
X219201Y85542D01*
G01D02*
X222088Y88429D01*
G01X216314D02*
X219201Y85542D01*
G01D02*
X222088Y82655D01*
G01X239201Y75542D02*
X242088Y78429D01*
G01X236314D02*
X239201Y75542D01*
G01X277551Y207379D02*
X280474Y210302D01*
G01D02*
X283396Y213224D01*
G01X277551D02*
X280474Y210302D01*
G01D02*
X283396Y207379D01*
G01X271296Y179943D02*
X274774Y183422D01*
G01D02*
X278254Y186901D01*
G01X271296D02*
X274774Y183422D01*
G01D02*
X278254Y179943D01*
G01X277551Y232979D02*
X280474Y235902D01*
G01D02*
X283396Y238824D01*
G01X277551D02*
X280474Y235902D01*
G01D02*
X283396Y232979D01*
G54D33*
X207345Y241060D03*
G54D15*
X67394Y50691D03*
X94559D03*
G54D24*
X98819Y155000D03*
X201181D03*
G54D43*
G01X29469Y54986D02*
X24745D01*
X21595Y58136D01*
Y62860D01*
X24745Y66010D01*
X29469D01*
X32619Y62860D01*
Y58136D01*
X29469Y54986D01*
G01X25017Y246482D02*
X29741D01*
X32891Y243332D01*
Y238608D01*
X29741Y235458D01*
X25017D01*
X21867Y238608D01*
Y243332D01*
X25017Y246482D01*
G01X278123Y63085D02*
X273399D01*
X270249Y66235D01*
Y70959D01*
X273399Y74109D01*
X278123D01*
X281273Y70959D01*
Y66235D01*
X278123Y63085D01*
G54D34*
X262774Y210302D03*
G54D16*
X67830Y26575D03*
X274774Y163422D03*
G54D25*
X98819Y150472D03*
X201181D03*
G54D44*
G01X110630Y169173D02*
X109055D01*
X106693Y171535D01*
G01X165748Y159724D02*
X167323D01*
X169685Y162087D01*
G01X153937Y180984D02*
X156299Y183346D01*
X157874D01*
G01X165748Y178622D02*
X167323D01*
X169685Y180984D01*
G54D17*
X67394Y71813D03*
X85898D03*
G54D26*
X126378Y164449D03*
X118504D03*
X110630D03*
X126378Y159724D03*
X118504D03*
X110630D03*
X126378Y155000D03*
X118504D03*
X110630D03*
X126378Y150276D03*
X118504D03*
X110630D03*
X126378Y145551D03*
X118504D03*
X110630D03*
X126378Y140827D03*
X118504D03*
X110630D03*
X126378Y136102D03*
X118504D03*
X110630D03*
X126378Y131378D03*
X118504D03*
X110630D03*
X126378Y126654D03*
X118504D03*
X110630D03*
X126378Y183346D03*
X118504D03*
X110630D03*
X126378Y178622D03*
X118504D03*
X110630D03*
X126378Y173898D03*
X118504D03*
X110630D03*
X126378Y169173D03*
X118504D03*
X110630D03*
X181496Y164449D03*
X173622D03*
X165748D03*
X157874D03*
X150000D03*
X142126D03*
X134252D03*
X181496Y159724D03*
X173622D03*
X165748D03*
X157874D03*
X150000D03*
X142126D03*
X134252D03*
X181496Y155000D03*
X173622D03*
X165748D03*
X157874D03*
X150000D03*
X142126D03*
X134252D03*
X181496Y150276D03*
X173622D03*
X165748D03*
X157874D03*
X150000D03*
X142126D03*
X134252D03*
X181496Y145551D03*
X173622D03*
X165748D03*
X157874D03*
X150000D03*
X142126D03*
X134252D03*
X181496Y140827D03*
X173622D03*
X165748D03*
X157874D03*
X150000D03*
X142126D03*
X134252D03*
X181496Y136102D03*
X173622D03*
X165748D03*
X157874D03*
X150000D03*
X142126D03*
X134252D03*
X181496Y131378D03*
X173622D03*
X165748D03*
X157874D03*
X150000D03*
X142126D03*
X134252D03*
X181496Y126654D03*
X173622D03*
X165748D03*
X157874D03*
X150000D03*
X142126D03*
X134252D03*
X181496Y183346D03*
X173622D03*
X165748D03*
X157874D03*
X150000D03*
X142126D03*
X134252D03*
X181496Y178622D03*
X173622D03*
X165748D03*
X157874D03*
X150000D03*
X142126D03*
X134252D03*
X181496Y173898D03*
X173622D03*
X165748D03*
X157874D03*
X150000D03*
X142126D03*
X134252D03*
X181496Y169173D03*
X173622D03*
X165748D03*
X157874D03*
X150000D03*
X142126D03*
X134252D03*
X189370Y164449D03*
Y159724D03*
Y155000D03*
Y150276D03*
Y145551D03*
Y140827D03*
Y136102D03*
Y131378D03*
Y126654D03*
Y183346D03*
Y178622D03*
Y173898D03*
Y169173D03*
G54D35*
X280474Y210302D03*
X262774Y235902D03*
X280474D03*
G54D36*
G01X-143139Y-71300D02*
X-143889Y-70800D01*
X-144764Y-70467D01*
X-145764D01*
X-146889Y-70967D01*
X-147764Y-71800D01*
X-148389Y-72800D01*
X-148889Y-74467D01*
X-149014Y-75967D01*
X-148764Y-77467D01*
X-148389Y-78467D01*
X-147639Y-79467D01*
X-146764Y-80134D01*
X-145889Y-80467D01*
X-145014D01*
X-144139Y-80134D01*
X-143389Y-79634D01*
X-142764Y-78967D01*
G01X-139014Y-80467D02*
X-135889Y-70467D01*
X-132764Y-80467D01*
G01X-133889Y-76967D02*
X-137889D01*
G01X-128389Y-80467D02*
Y-70467D01*
X-125264D01*
X-124264Y-70967D01*
X-123639Y-71634D01*
X-123389Y-72967D01*
X-123639Y-74300D01*
X-124389Y-75134D01*
X-125264Y-75634D01*
X-128389D01*
G01X-125264D02*
X-123389Y-80467D01*
G01X-118639D02*
Y-70467D01*
X-116139D01*
X-115139Y-70967D01*
X-114389Y-71634D01*
X-113764Y-72634D01*
X-113264Y-73800D01*
X-113139Y-75467D01*
X-113264Y-77134D01*
X-113764Y-78300D01*
X-114389Y-79301D01*
X-115139Y-79967D01*
X-116139Y-80467D01*
X-118639D01*
G01X-98389D02*
Y-70467D01*
X-95264D01*
X-94264Y-70967D01*
X-93639Y-71634D01*
X-93389Y-72967D01*
X-93639Y-74300D01*
X-94389Y-75134D01*
X-95264Y-75634D01*
X-98389D01*
G01X-95264D02*
X-93389Y-80467D01*
G01X-83389D02*
X-88389D01*
Y-70467D01*
X-83389D01*
G01X-85389Y-75300D02*
X-88389D01*
G01X-78264Y-80467D02*
Y-70467D01*
X-73514D01*
G01X-75264Y-75300D02*
X-78264D01*
G01X-65889Y-80800D02*
X-66139Y-80634D01*
Y-80300D01*
X-65889Y-80134D01*
X-65639Y-80300D01*
Y-80634D01*
X-65889Y-80800D01*
G01Y-76301D02*
X-66139Y-76134D01*
Y-75800D01*
X-65889Y-75634D01*
X-65639Y-75800D01*
Y-76134D01*
X-65889Y-76301D01*
G01X-55889Y-80467D02*
X-56889Y-80300D01*
X-57764Y-79634D01*
X-58514Y-78634D01*
X-59014Y-77467D01*
X-59264Y-76134D01*
Y-74800D01*
X-59014Y-73467D01*
X-58514Y-72300D01*
X-57764Y-71300D01*
X-56889Y-70634D01*
X-55889Y-70467D01*
X-54889Y-70634D01*
X-54014Y-71300D01*
X-53264Y-72300D01*
X-52764Y-73467D01*
X-52514Y-74800D01*
Y-76134D01*
X-52764Y-77467D01*
X-53264Y-78634D01*
X-54014Y-79634D01*
X-54889Y-80300D01*
X-55889Y-80467D01*
G01X-48389D02*
Y-70467D01*
X-45389D01*
X-44389Y-70967D01*
X-43639Y-72134D01*
X-43389Y-73467D01*
X-43639Y-74800D01*
X-44264Y-75800D01*
X-45389Y-76301D01*
X-48389D01*
G01X-33389Y-80467D02*
X-38389D01*
Y-70467D01*
X-33389D01*
G01X-35389Y-75300D02*
X-38389D01*
G01X-28764Y-80467D02*
Y-70467D01*
X-23014Y-80467D01*
Y-70467D01*
G01X-13139Y-71300D02*
X-13889Y-70800D01*
X-14764Y-70467D01*
X-15764D01*
X-16889Y-70967D01*
X-17764Y-71800D01*
X-18389Y-72800D01*
X-18889Y-74467D01*
X-19014Y-75967D01*
X-18764Y-77467D01*
X-18389Y-78467D01*
X-17639Y-79467D01*
X-16764Y-80134D01*
X-15889Y-80467D01*
X-15014D01*
X-14139Y-80134D01*
X-13389Y-79634D01*
X-12764Y-78967D01*
G01X-3389Y-80467D02*
X-8389D01*
Y-70467D01*
X-3389D01*
G01X-5389Y-75300D02*
X-8389D01*
G01X1611Y-70467D02*
Y-80467D01*
X6611D01*
G01X11611Y-70467D02*
Y-80467D01*
X16611D01*
G01X21361Y-70467D02*
Y-77634D01*
X21861Y-79134D01*
X22861Y-80134D01*
X24111Y-80467D01*
X25361Y-80134D01*
X26361Y-79134D01*
X26861Y-77634D01*
Y-70467D01*
G01X31611D02*
Y-80467D01*
X36611D01*
G01X40986D02*
X44111Y-70467D01*
X47236Y-80467D01*
G01X46111Y-76967D02*
X42111D01*
G01X51611Y-80467D02*
Y-70467D01*
X54736D01*
X55736Y-70967D01*
X56361Y-71634D01*
X56611Y-72967D01*
X56361Y-74300D01*
X55611Y-75134D01*
X54736Y-75634D01*
X51611D01*
G01X54736D02*
X56611Y-80467D01*
G01X74111D02*
Y-70467D01*
G01X86861Y-71300D02*
X86111Y-70800D01*
X85236Y-70467D01*
X84236D01*
X83111Y-70967D01*
X82236Y-71800D01*
X81611Y-72800D01*
X81111Y-74467D01*
X80986Y-75967D01*
X81236Y-77467D01*
X81611Y-78467D01*
X82361Y-79467D01*
X83236Y-80134D01*
X84111Y-80467D01*
X84986D01*
X85861Y-80134D01*
X86611Y-79634D01*
X87236Y-78967D01*
G01X94111Y-80467D02*
X93111Y-80300D01*
X92236Y-79634D01*
X91486Y-78634D01*
X90986Y-77467D01*
X90736Y-76134D01*
Y-74800D01*
X90986Y-73467D01*
X91486Y-72300D01*
X92236Y-71300D01*
X93111Y-70634D01*
X94111Y-70467D01*
X95111Y-70634D01*
X95986Y-71300D01*
X96736Y-72300D01*
X97236Y-73467D01*
X97486Y-74800D01*
Y-76134D01*
X97236Y-77467D01*
X96736Y-78634D01*
X95986Y-79634D01*
X95111Y-80300D01*
X94111Y-80467D01*
G01X101236D02*
Y-70467D01*
X106986Y-80467D01*
Y-70467D01*
G01X111236Y-80467D02*
Y-70467D01*
X116986Y-80467D01*
Y-70467D01*
G01X126611Y-80467D02*
X121611D01*
Y-70467D01*
X126611D01*
G01X124611Y-75300D02*
X121611D01*
G01X136861Y-71300D02*
X136111Y-70800D01*
X135236Y-70467D01*
X134236D01*
X133111Y-70967D01*
X132236Y-71800D01*
X131611Y-72800D01*
X131111Y-74467D01*
X130986Y-75967D01*
X131236Y-77467D01*
X131611Y-78467D01*
X132361Y-79467D01*
X133236Y-80134D01*
X134111Y-80467D01*
X134986D01*
X135861Y-80134D01*
X136611Y-79634D01*
X137236Y-78967D01*
G01X144111Y-70467D02*
Y-80467D01*
G01X141236Y-70467D02*
X146986D01*
G01X152486Y-77134D02*
X155736D01*
G01X164111Y-80467D02*
Y-70467D01*
X162611Y-72467D01*
G01Y-80467D02*
X165611D01*
G01X184111D02*
Y-70467D01*
G01X195111Y-75134D02*
X195611Y-74634D01*
X195986Y-73800D01*
X196236Y-72634D01*
X195986Y-71634D01*
X195486Y-70967D01*
X194611Y-70467D01*
X191236D01*
Y-80467D01*
X195361D01*
X196236Y-79800D01*
X196736Y-78800D01*
X196986Y-77634D01*
X196736Y-76467D01*
X195986Y-75467D01*
X195111Y-75134D01*
X191236D01*
G01X201611Y-80467D02*
Y-70467D01*
X204736D01*
X205736Y-70967D01*
X206361Y-71634D01*
X206611Y-72967D01*
X206361Y-74300D01*
X205611Y-75134D01*
X204736Y-75634D01*
X201611D01*
G01X204736D02*
X206611Y-80467D01*
G01X216611D02*
X211611D01*
Y-70467D01*
X216611D01*
G01X214611Y-75300D02*
X211611D01*
G01X220986Y-80467D02*
X224111Y-70467D01*
X227236Y-80467D01*
G01X226111Y-76967D02*
X222111D01*
G01X231361Y-80467D02*
Y-70467D01*
G01X236111D02*
X231361Y-76634D01*
G01X236861Y-80467D02*
X233486Y-73800D01*
G01X244111Y-80467D02*
X243111Y-80300D01*
X242236Y-79634D01*
X241486Y-78634D01*
X240986Y-77467D01*
X240736Y-76134D01*
Y-74800D01*
X240986Y-73467D01*
X241486Y-72300D01*
X242236Y-71300D01*
X243111Y-70634D01*
X244111Y-70467D01*
X245111Y-70634D01*
X245986Y-71300D01*
X246736Y-72300D01*
X247236Y-73467D01*
X247486Y-74800D01*
Y-76134D01*
X247236Y-77467D01*
X246736Y-78634D01*
X245986Y-79634D01*
X245111Y-80300D01*
X244111Y-80467D01*
G01X251361Y-70467D02*
Y-77634D01*
X251861Y-79134D01*
X252861Y-80134D01*
X254111Y-80467D01*
X255361Y-80134D01*
X256361Y-79134D01*
X256861Y-77634D01*
Y-70467D01*
G01X264111D02*
Y-80467D01*
G01X261236Y-70467D02*
X266986D01*
G01X285111Y-75134D02*
X285611Y-74634D01*
X285986Y-73800D01*
X286236Y-72634D01*
X285986Y-71634D01*
X285486Y-70967D01*
X284611Y-70467D01*
X281236D01*
Y-80467D01*
X285361D01*
X286236Y-79800D01*
X286736Y-78800D01*
X286986Y-77634D01*
X286736Y-76467D01*
X285986Y-75467D01*
X285111Y-75134D01*
X281236D01*
G01X294111Y-80467D02*
X293111Y-80300D01*
X292236Y-79634D01*
X291486Y-78634D01*
X290986Y-77467D01*
X290736Y-76134D01*
Y-74800D01*
X290986Y-73467D01*
X291486Y-72300D01*
X292236Y-71300D01*
X293111Y-70634D01*
X294111Y-70467D01*
X295111Y-70634D01*
X295986Y-71300D01*
X296736Y-72300D01*
X297236Y-73467D01*
X297486Y-74800D01*
Y-76134D01*
X297236Y-77467D01*
X296736Y-78634D01*
X295986Y-79634D01*
X295111Y-80300D01*
X294111Y-80467D01*
G01X300986D02*
X304111Y-70467D01*
X307236Y-80467D01*
G01X306111Y-76967D02*
X302111D01*
G01X311611Y-80467D02*
Y-70467D01*
X314736D01*
X315736Y-70967D01*
X316361Y-71634D01*
X316611Y-72967D01*
X316361Y-74300D01*
X315611Y-75134D01*
X314736Y-75634D01*
X311611D01*
G01X314736D02*
X316611Y-80467D01*
G01X321361D02*
Y-70467D01*
X323861D01*
X324861Y-70967D01*
X325611Y-71634D01*
X326236Y-72634D01*
X326736Y-73800D01*
X326861Y-75467D01*
X326736Y-77134D01*
X326236Y-78300D01*
X325611Y-79301D01*
X324861Y-79967D01*
X323861Y-80467D01*
X321361D01*
G01X-150564Y-101067D02*
Y-91067D01*
X-145814D01*
G01X-147564Y-95900D02*
X-150564D01*
G01X-139689Y-91067D02*
X-136689D01*
G01X-138189D02*
Y-101067D01*
G01X-139689D02*
X-136689D01*
G01X-130689Y-91067D02*
Y-101067D01*
X-125689D01*
G01X-121439D02*
Y-91067D01*
X-118189Y-99400D01*
X-114939Y-91067D01*
Y-101067D01*
G01X-100689Y-91067D02*
Y-101067D01*
X-95689D01*
G01X-91314D02*
X-88189Y-91067D01*
X-85064Y-101067D01*
G01X-86189Y-97567D02*
X-90189D01*
G01X-78189Y-101067D02*
Y-96567D01*
X-80689Y-91067D01*
G01X-75689D02*
X-78189Y-96567D01*
G01X-65689Y-101067D02*
X-70689D01*
Y-91067D01*
X-65689D01*
G01X-67689Y-95900D02*
X-70689D01*
G01X-60689Y-101067D02*
Y-91067D01*
X-57564D01*
X-56564Y-91567D01*
X-55939Y-92234D01*
X-55689Y-93567D01*
X-55939Y-94900D01*
X-56689Y-95734D01*
X-57564Y-96234D01*
X-60689D01*
G01X-57564D02*
X-55689Y-101067D01*
G01X-48189Y-101400D02*
X-48439Y-101234D01*
Y-100900D01*
X-48189Y-100734D01*
X-47939Y-100900D01*
Y-101234D01*
X-48189Y-101400D01*
G01Y-96901D02*
X-48439Y-96734D01*
Y-96400D01*
X-48189Y-96234D01*
X-47939Y-96400D01*
Y-96734D01*
X-48189Y-96901D01*
G01X-148639Y-60467D02*
Y-50467D01*
X-146139D01*
X-145139Y-50967D01*
X-144389Y-51634D01*
X-143764Y-52634D01*
X-143264Y-53800D01*
X-143139Y-55467D01*
X-143264Y-57134D01*
X-143764Y-58300D01*
X-144389Y-59301D01*
X-145139Y-59967D01*
X-146139Y-60467D01*
X-148639D01*
G01X-133389D02*
X-138389D01*
Y-50467D01*
X-133389D01*
G01X-135389Y-55300D02*
X-138389D01*
G01X-128514Y-59134D02*
X-127514Y-59967D01*
X-126389Y-60467D01*
X-125389D01*
X-124389Y-59967D01*
X-123639Y-59134D01*
X-123264Y-57967D01*
X-123514Y-56800D01*
X-124139Y-55800D01*
X-125264Y-55134D01*
X-126764Y-54800D01*
X-127639Y-54134D01*
X-128014Y-52967D01*
X-127764Y-51800D01*
X-127139Y-50967D01*
X-126264Y-50467D01*
X-125389D01*
X-124514Y-50800D01*
X-123764Y-51634D01*
G01X-117389Y-50467D02*
X-114389D01*
G01X-115889D02*
Y-60467D01*
G01X-117389D02*
X-114389D01*
G01X-105139Y-55467D02*
X-102639D01*
Y-58467D01*
X-103389Y-59467D01*
X-104264Y-60134D01*
X-105514Y-60467D01*
X-106764Y-60134D01*
X-107639Y-59467D01*
X-108389Y-58467D01*
X-108889Y-57300D01*
X-109139Y-55967D01*
Y-54800D01*
X-108889Y-53800D01*
X-108389Y-52634D01*
X-107639Y-51634D01*
X-106889Y-50967D01*
X-105889Y-50467D01*
X-105014D01*
X-104014Y-50800D01*
X-103264Y-51467D01*
G01X-98764Y-60467D02*
Y-50467D01*
X-93014Y-60467D01*
Y-50467D01*
G01X-83389Y-60467D02*
X-88389D01*
Y-50467D01*
X-83389D01*
G01X-85389Y-55300D02*
X-88389D01*
G01X-78639Y-60467D02*
Y-50467D01*
X-76139D01*
X-75139Y-50967D01*
X-74389Y-51634D01*
X-73764Y-52634D01*
X-73264Y-53800D01*
X-73139Y-55467D01*
X-73264Y-57134D01*
X-73764Y-58300D01*
X-74389Y-59301D01*
X-75139Y-59967D01*
X-76139Y-60467D01*
X-78639D01*
G01X-59014D02*
X-55889Y-50467D01*
X-52764Y-60467D01*
G01X-53889Y-56967D02*
X-57889D01*
G01X-45889Y-50467D02*
Y-60467D01*
G01X-48764Y-50467D02*
X-43014D01*
G01X-35889Y-60800D02*
X-36139Y-60634D01*
Y-60300D01*
X-35889Y-60134D01*
X-35639Y-60300D01*
Y-60634D01*
X-35889Y-60800D01*
G01Y-56301D02*
X-36139Y-56134D01*
Y-55800D01*
X-35889Y-55634D01*
X-35639Y-55800D01*
Y-56134D01*
X-35889Y-56301D01*
G01X-148439Y-41267D02*
Y-31267D01*
X-145939D01*
X-144939Y-31767D01*
X-144189Y-32434D01*
X-143564Y-33434D01*
X-143064Y-34600D01*
X-142939Y-36267D01*
X-143064Y-37934D01*
X-143564Y-39100D01*
X-144189Y-40101D01*
X-144939Y-40767D01*
X-145939Y-41267D01*
X-148439D01*
G01X-138814D02*
X-135689Y-31267D01*
X-132564Y-41267D01*
G01X-133689Y-37767D02*
X-137689D01*
G01X-125689Y-31267D02*
Y-41267D01*
G01X-128564Y-31267D02*
X-122814D01*
G01X-113189Y-41267D02*
X-118189D01*
Y-31267D01*
X-113189D01*
G01X-115189Y-36100D02*
X-118189D01*
G01X-105689Y-41600D02*
X-105939Y-41434D01*
Y-41100D01*
X-105689Y-40934D01*
X-105439Y-41100D01*
Y-41434D01*
X-105689Y-41600D01*
G01Y-37101D02*
X-105939Y-36934D01*
Y-36600D01*
X-105689Y-36434D01*
X-105439Y-36600D01*
Y-36934D01*
X-105689Y-37101D01*
G01X-95689Y-31267D02*
X-96689Y-31600D01*
X-97439Y-32434D01*
X-97939Y-33434D01*
X-98314Y-34767D01*
X-98439Y-36267D01*
X-98314Y-37767D01*
X-97939Y-39100D01*
X-97439Y-40101D01*
X-96689Y-40934D01*
X-95689Y-41267D01*
X-94689Y-40934D01*
X-93939Y-40101D01*
X-93439Y-39100D01*
X-93064Y-37767D01*
X-92939Y-36267D01*
X-93064Y-34767D01*
X-93439Y-33434D01*
X-93939Y-32434D01*
X-94689Y-31600D01*
X-95689Y-31267D01*
G01X-85689Y-41267D02*
Y-31267D01*
X-87189Y-33267D01*
G01Y-41267D02*
X-84189D01*
G01X-77314Y-37934D02*
X-74064D01*
G01X-65689Y-31267D02*
X-66689Y-31600D01*
X-67439Y-32434D01*
X-67939Y-33434D01*
X-68314Y-34767D01*
X-68439Y-36267D01*
X-68314Y-37767D01*
X-67939Y-39100D01*
X-67439Y-40101D01*
X-66689Y-40934D01*
X-65689Y-41267D01*
X-64689Y-40934D01*
X-63939Y-40101D01*
X-63439Y-39100D01*
X-63064Y-37767D01*
X-62939Y-36267D01*
X-63064Y-34767D01*
X-63439Y-33434D01*
X-63939Y-32434D01*
X-64689Y-31600D01*
X-65689Y-31267D01*
G01X-58439Y-39767D02*
X-57689Y-40600D01*
X-56814Y-41100D01*
X-55689Y-41267D01*
X-54564Y-40934D01*
X-53689Y-40267D01*
X-53064Y-39100D01*
X-52939Y-37767D01*
X-53189Y-36434D01*
X-53814Y-35600D01*
X-54689Y-34934D01*
X-55564Y-34767D01*
X-56439Y-34934D01*
X-57564Y-35600D01*
X-57189Y-31267D01*
X-53814D01*
G01X-47314Y-37934D02*
X-44064D01*
G01X-38064Y-32934D02*
X-37314Y-31934D01*
X-36439Y-31434D01*
X-35439Y-31267D01*
X-34189Y-31600D01*
X-33314Y-32434D01*
X-33064Y-33434D01*
X-33189Y-34434D01*
X-33689Y-35267D01*
X-36189Y-36934D01*
X-37314Y-38100D01*
X-38064Y-39767D01*
X-38314Y-41267D01*
X-33064D01*
G01X-25689Y-31267D02*
X-26689Y-31600D01*
X-27439Y-32434D01*
X-27939Y-33434D01*
X-28314Y-34767D01*
X-28439Y-36267D01*
X-28314Y-37767D01*
X-27939Y-39100D01*
X-27439Y-40101D01*
X-26689Y-40934D01*
X-25689Y-41267D01*
X-24689Y-40934D01*
X-23939Y-40101D01*
X-23439Y-39100D01*
X-23064Y-37767D01*
X-22939Y-36267D01*
X-23064Y-34767D01*
X-23439Y-33434D01*
X-23939Y-32434D01*
X-24689Y-31600D01*
X-25689Y-31267D01*
G01X-15689Y-41267D02*
Y-31267D01*
X-17189Y-33267D01*
G01Y-41267D02*
X-14189D01*
G01X-5939D02*
X-5689Y-39100D01*
X-5314Y-37267D01*
X-4814Y-35600D01*
X-4189Y-33767D01*
X-3189Y-31267D01*
X-8189D01*
G01X-15414Y-100134D02*
X-14414Y-100967D01*
X-13289Y-101467D01*
X-12289D01*
X-11289Y-100967D01*
X-10539Y-100134D01*
X-10164Y-98967D01*
X-10414Y-97800D01*
X-11039Y-96800D01*
X-12164Y-96134D01*
X-13664Y-95800D01*
X-14539Y-95134D01*
X-14914Y-93967D01*
X-14664Y-92800D01*
X-14039Y-91967D01*
X-13164Y-91467D01*
X-12289D01*
X-11414Y-91800D01*
X-10664Y-92634D01*
G01X-289Y-101467D02*
X-5289D01*
Y-91467D01*
X-289D01*
G01X-2289Y-96300D02*
X-5289D01*
G01X9961Y-92300D02*
X9211Y-91800D01*
X8336Y-91467D01*
X7336D01*
X6211Y-91967D01*
X5336Y-92800D01*
X4711Y-93800D01*
X4211Y-95467D01*
X4086Y-96967D01*
X4336Y-98467D01*
X4711Y-99467D01*
X5461Y-100467D01*
X6336Y-101134D01*
X7211Y-101467D01*
X8086D01*
X8961Y-101134D01*
X9711Y-100634D01*
X10336Y-99967D01*
G01X17211Y-101467D02*
X16211Y-101300D01*
X15336Y-100634D01*
X14586Y-99634D01*
X14086Y-98467D01*
X13836Y-97134D01*
Y-95800D01*
X14086Y-94467D01*
X14586Y-93300D01*
X15336Y-92300D01*
X16211Y-91634D01*
X17211Y-91467D01*
X18211Y-91634D01*
X19086Y-92300D01*
X19836Y-93300D01*
X20336Y-94467D01*
X20586Y-95800D01*
Y-97134D01*
X20336Y-98467D01*
X19836Y-99634D01*
X19086Y-100634D01*
X18211Y-101300D01*
X17211Y-101467D01*
G01X24336D02*
Y-91467D01*
X30086Y-101467D01*
Y-91467D01*
G01X34461Y-101467D02*
Y-91467D01*
X36961D01*
X37961Y-91967D01*
X38711Y-92634D01*
X39336Y-93634D01*
X39836Y-94800D01*
X39961Y-96467D01*
X39836Y-98134D01*
X39336Y-99300D01*
X38711Y-100301D01*
X37961Y-100967D01*
X36961Y-101467D01*
X34461D01*
G01X44086D02*
X47211Y-91467D01*
X50336Y-101467D01*
G01X49211Y-97967D02*
X45211D01*
G01X54711Y-101467D02*
Y-91467D01*
X57836D01*
X58836Y-91967D01*
X59461Y-92634D01*
X59711Y-93967D01*
X59461Y-95300D01*
X58711Y-96134D01*
X57836Y-96634D01*
X54711D01*
G01X57836D02*
X59711Y-101467D01*
G01X67211D02*
Y-96967D01*
X64711Y-91467D01*
G01X69711D02*
X67211Y-96967D01*
G01X84586Y-100134D02*
X85586Y-100967D01*
X86711Y-101467D01*
X87711D01*
X88711Y-100967D01*
X89461Y-100134D01*
X89836Y-98967D01*
X89586Y-97800D01*
X88961Y-96800D01*
X87836Y-96134D01*
X86336Y-95800D01*
X85461Y-95134D01*
X85086Y-93967D01*
X85336Y-92800D01*
X85961Y-91967D01*
X86836Y-91467D01*
X87711D01*
X88586Y-91800D01*
X89336Y-92634D01*
G01X95711Y-91467D02*
X98711D01*
G01X97211D02*
Y-101467D01*
G01X95711D02*
X98711D01*
G01X104461D02*
Y-91467D01*
X106961D01*
X107961Y-91967D01*
X108711Y-92634D01*
X109336Y-93634D01*
X109836Y-94800D01*
X109961Y-96467D01*
X109836Y-98134D01*
X109336Y-99300D01*
X108711Y-100301D01*
X107961Y-100967D01*
X106961Y-101467D01*
X104461D01*
G01X119711D02*
X114711D01*
Y-91467D01*
X119711D01*
G01X117711Y-96300D02*
X114711D01*
G01X105811Y-41267D02*
Y-31267D01*
X108811D01*
X109811Y-31767D01*
X110561Y-32934D01*
X110811Y-34267D01*
X110561Y-35600D01*
X109936Y-36600D01*
X108811Y-37101D01*
X105811D01*
G01X115186Y-41267D02*
X118311Y-31267D01*
X121436Y-41267D01*
G01X120311Y-37767D02*
X116311D01*
G01X125811Y-41267D02*
Y-31267D01*
X128936D01*
X129936Y-31767D01*
X130561Y-32434D01*
X130811Y-33767D01*
X130561Y-35100D01*
X129811Y-35934D01*
X128936Y-36434D01*
X125811D01*
G01X128936D02*
X130811Y-41267D01*
G01X138311Y-31267D02*
Y-41267D01*
G01X135436Y-31267D02*
X141186D01*
G01X155436Y-41267D02*
Y-31267D01*
X161186Y-41267D01*
Y-31267D01*
G01X165561D02*
Y-38434D01*
X166061Y-39934D01*
X167061Y-40934D01*
X168311Y-41267D01*
X169561Y-40934D01*
X170561Y-39934D01*
X171061Y-38434D01*
Y-31267D01*
G01X175061Y-41267D02*
Y-31267D01*
X178311Y-39600D01*
X181561Y-31267D01*
Y-41267D01*
G01X189311Y-35934D02*
X189811Y-35434D01*
X190186Y-34600D01*
X190436Y-33434D01*
X190186Y-32434D01*
X189686Y-31767D01*
X188811Y-31267D01*
X185436D01*
Y-41267D01*
X189561D01*
X190436Y-40600D01*
X190936Y-39600D01*
X191186Y-38434D01*
X190936Y-37267D01*
X190186Y-36267D01*
X189311Y-35934D01*
X185436D01*
G01X200811Y-41267D02*
X195811D01*
Y-31267D01*
X200811D01*
G01X198811Y-36100D02*
X195811D01*
G01X205811Y-41267D02*
Y-31267D01*
X208936D01*
X209936Y-31767D01*
X210561Y-32434D01*
X210811Y-33767D01*
X210561Y-35100D01*
X209811Y-35934D01*
X208936Y-36434D01*
X205811D01*
G01X208936D02*
X210811Y-41267D01*
G01X218311Y-41600D02*
X218061Y-41434D01*
Y-41100D01*
X218311Y-40934D01*
X218561Y-41100D01*
Y-41434D01*
X218311Y-41600D01*
G01Y-37101D02*
X218061Y-36934D01*
Y-36600D01*
X218311Y-36434D01*
X218561Y-36600D01*
Y-36934D01*
X218311Y-37101D01*
G01X225936Y-32934D02*
X226686Y-31934D01*
X227561Y-31434D01*
X228561Y-31267D01*
X229811Y-31600D01*
X230686Y-32434D01*
X230936Y-33434D01*
X230811Y-34434D01*
X230311Y-35267D01*
X227811Y-36934D01*
X226686Y-38100D01*
X225936Y-39767D01*
X225686Y-41267D01*
X230936D01*
G01X235561Y-39267D02*
X236311Y-40434D01*
X237311Y-41100D01*
X238436Y-41267D01*
X239436Y-41100D01*
X240436Y-40267D01*
X241061Y-39267D01*
X241186Y-38267D01*
X240936Y-37101D01*
X240061Y-36267D01*
X239186Y-35934D01*
X238061D01*
G01X239186D02*
X239936Y-35434D01*
X240561Y-34600D01*
X240811Y-33600D01*
X240561Y-32600D01*
X239936Y-31767D01*
X238811Y-31267D01*
X237686Y-31434D01*
X236561Y-32100D01*
G01X248311Y-41267D02*
Y-31267D01*
X246811Y-33267D01*
G01Y-41267D02*
X249811D01*
G01X256686Y-37934D02*
X259936D01*
G01X268311Y-31267D02*
X267311Y-31600D01*
X266561Y-32434D01*
X266061Y-33434D01*
X265686Y-34767D01*
X265561Y-36267D01*
X265686Y-37767D01*
X266061Y-39100D01*
X266561Y-40101D01*
X267311Y-40934D01*
X268311Y-41267D01*
X269311Y-40934D01*
X270061Y-40101D01*
X270561Y-39100D01*
X270936Y-37767D01*
X271061Y-36267D01*
X270936Y-34767D01*
X270561Y-33434D01*
X270061Y-32434D01*
X269311Y-31600D01*
X268311Y-31267D01*
G01X278311D02*
X277311Y-31600D01*
X276561Y-32434D01*
X276061Y-33434D01*
X275686Y-34767D01*
X275561Y-36267D01*
X275686Y-37767D01*
X276061Y-39100D01*
X276561Y-40101D01*
X277311Y-40934D01*
X278311Y-41267D01*
X279311Y-40934D01*
X280061Y-40101D01*
X280561Y-39100D01*
X280936Y-37767D01*
X281061Y-36267D01*
X280936Y-34767D01*
X280561Y-33434D01*
X280061Y-32434D01*
X279311Y-31600D01*
X278311Y-31267D01*
G01X288311D02*
X287311Y-31600D01*
X286561Y-32434D01*
X286061Y-33434D01*
X285686Y-34767D01*
X285561Y-36267D01*
X285686Y-37767D01*
X286061Y-39100D01*
X286561Y-40101D01*
X287311Y-40934D01*
X288311Y-41267D01*
X289311Y-40934D01*
X290061Y-40101D01*
X290561Y-39100D01*
X290936Y-37767D01*
X291061Y-36267D01*
X290936Y-34767D01*
X290561Y-33434D01*
X290061Y-32434D01*
X289311Y-31600D01*
X288311Y-31267D01*
G01X298311D02*
X297311Y-31600D01*
X296561Y-32434D01*
X296061Y-33434D01*
X295686Y-34767D01*
X295561Y-36267D01*
X295686Y-37767D01*
X296061Y-39100D01*
X296561Y-40101D01*
X297311Y-40934D01*
X298311Y-41267D01*
X299311Y-40934D01*
X300061Y-40101D01*
X300561Y-39100D01*
X300936Y-37767D01*
X301061Y-36267D01*
X300936Y-34767D01*
X300561Y-33434D01*
X300061Y-32434D01*
X299311Y-31600D01*
X298311Y-31267D01*
G01X308311Y-41267D02*
X309186Y-41100D01*
X310186Y-40600D01*
X310811Y-39767D01*
X311061Y-38600D01*
X310811Y-37434D01*
X310061Y-36434D01*
X308936Y-35934D01*
X307686D01*
X306936Y-35600D01*
X306311Y-34767D01*
X306061Y-33600D01*
X306436Y-32434D01*
X307311Y-31600D01*
X308311Y-31267D01*
X309311Y-31600D01*
X310186Y-32434D01*
X310561Y-33600D01*
X310311Y-34767D01*
X309686Y-35600D01*
X308936Y-35934D01*
X307686D01*
X306561Y-36434D01*
X305811Y-37434D01*
X305561Y-38600D01*
X305811Y-39767D01*
X306436Y-40600D01*
X307436Y-41100D01*
X308311Y-41267D01*
G01X318061D02*
X318311Y-39100D01*
X318686Y-37267D01*
X319186Y-35600D01*
X319811Y-33767D01*
X320811Y-31267D01*
X315811D01*
G01X482000Y-70833D02*
Y-80833D01*
X487000D01*
G01X493000Y-70833D02*
X496000D01*
G01X494500D02*
Y-80833D01*
G01X493000D02*
X496000D01*
G01X502125D02*
Y-70833D01*
X506875D01*
G01X505125Y-75667D02*
X502125D01*
G01X517000Y-80833D02*
X512000D01*
Y-70833D01*
X517000D01*
G01X515000Y-75667D02*
X512000D01*
G01X522875Y-77500D02*
X526125D01*
G01X531750Y-78834D02*
X532500Y-80000D01*
X533500Y-80667D01*
X534625Y-80833D01*
X535625Y-80667D01*
X536625Y-79834D01*
X537250Y-78834D01*
X537375Y-77833D01*
X537125Y-76667D01*
X536250Y-75834D01*
X535375Y-75500D01*
X534250D01*
G01X535375D02*
X536125Y-75000D01*
X536750Y-74167D01*
X537000Y-73167D01*
X536750Y-72167D01*
X536125Y-71334D01*
X535000Y-70833D01*
X533875Y-71000D01*
X532750Y-71667D01*
G01X0Y0D02*
X300000D01*
Y300000D01*
X0D01*
Y0D01*
G54D18*
X27107Y60498D03*
X27379Y240970D03*
X86417Y129409D03*
Y180590D03*
X213583Y129409D03*
Y180590D03*
X275761Y68597D03*
G54D27*
X127394Y259449D03*
X174796D03*
G54D37*
G01X110630Y126654D02*
X109055D01*
X106693Y124291D01*
G01X110630Y131378D02*
X109055D01*
X106693Y129016D01*
G01X126378Y145551D02*
X124803D01*
X122441Y143189D01*
G01X118504Y155000D02*
X116929D01*
X114567Y157362D01*
G01X118504Y126654D02*
X116929D01*
X114567Y124291D01*
G01X173622Y140827D02*
X175197D01*
X177559Y138464D01*
G01X157874Y145551D02*
X159449D01*
X161811Y143189D01*
G01X165748Y145551D02*
X167323D01*
X169685Y143189D01*
G01X173622Y178622D02*
X175197D01*
X177559Y180984D01*
G01X173622Y173898D02*
X175197D01*
X177559Y176260D01*
G54D28*
X156016Y240906D03*
Y248780D03*
X146174D03*
G54D19*
X58201Y167734D03*
X130387Y14851D03*
X100480Y271200D03*
X82061Y271601D03*
G54D38*
G01X134252Y131378D02*
X132390Y129516D01*
X131016D01*
X129500Y128000D01*
Y122326D01*
X128174Y121000D01*
G01X134252Y126654D02*
X132390Y128516D01*
X131430D01*
X130500Y127586D01*
Y122326D01*
X131826Y121000D01*
G01X157874Y159724D02*
X159449D01*
X161811Y162087D01*
G01X157874Y164449D02*
X159449D01*
X161811Y166811D01*
G01X173622Y164449D02*
X175197D01*
X177559Y166811D01*
G01X173622Y159724D02*
X175197D01*
X177559Y162087D01*
G01X143922Y121000D02*
X145248Y122326D01*
Y128000D01*
X146764Y129516D01*
X148138D01*
X150000Y131378D01*
G01X165748D02*
X167323D01*
X169685Y129016D01*
G01X165748Y126654D02*
X167323D01*
X169685Y124291D01*
G01X147574Y121000D02*
X146248Y122326D01*
Y127586D01*
X147178Y128516D01*
X148248D01*
X150000Y126764D01*
Y126654D01*
G01X135982Y220000D02*
X137308Y221326D01*
Y230087D01*
X134363Y233032D01*
G01X139634Y220000D02*
X138308Y221326D01*
Y230087D01*
X141252Y233032D01*
G01X167734Y210544D02*
X166408Y209218D01*
X164782D01*
X160000Y214000D01*
X155066D01*
X154066Y213000D01*
Y210135D01*
X152740Y208809D01*
G01X167734Y206892D02*
X166408Y208218D01*
X164368D01*
X159586Y213000D01*
X155480D01*
X155066Y212586D01*
Y210134D01*
X156391Y208809D01*
G01X165748Y183346D02*
X167323D01*
X169685Y185709D01*
G01X156016Y240906D02*
X159608Y244497D01*
X200172D01*
X200652Y244017D01*
Y241060D01*
G01X156016Y248780D02*
X159299Y245497D01*
X200172D01*
X200652Y245977D01*
Y248934D01*
G01X152739Y226266D02*
X154065Y224940D01*
Y223020D01*
X155586Y221500D01*
X162414D01*
X164882Y223968D01*
Y230087D01*
X167827Y233032D01*
G01X156391Y226266D02*
X155065Y224940D01*
Y223435D01*
X156000Y222500D01*
X162000D01*
X163882Y224382D01*
Y230087D01*
X160938Y233032D01*
G01X198715Y173951D02*
X200000Y175235D01*
Y176376D01*
X199409Y176967D01*
X196558D01*
X195500Y175909D01*
Y171500D01*
X194000Y170000D01*
Y163066D01*
X192934Y162000D01*
X192000D01*
X189724Y159724D01*
X189370D01*
G01X202367Y173951D02*
X201000Y175318D01*
Y176790D01*
X199823Y177967D01*
X196144D01*
X194500Y176323D01*
Y171914D01*
X193000Y170414D01*
Y163480D01*
X192520Y163000D01*
X192000D01*
X190551Y164449D01*
X189370D01*
G01X200652Y241060D02*
X197066D01*
G01X200652Y248934D02*
X197066D01*
G54D29*
X146174Y240906D03*
G54D39*
G01X126378Y159724D02*
X124803D01*
X122441Y162087D01*
G01X126378Y164449D02*
X124803D01*
X122441Y166811D01*
G01X118504Y164449D02*
X116929D01*
X114567Y166811D01*
G01X134252Y150276D02*
X132677D01*
X130315Y147913D01*
G01X126378Y150276D02*
X124803D01*
X122441Y147913D01*
G01X126378Y140827D02*
X124803D01*
X122441Y138464D01*
G01X126378Y136102D02*
X124803D01*
X122441Y133740D01*
G01X110630Y164449D02*
X108551D01*
X99000Y174000D01*
Y195500D01*
X103500Y200000D01*
X244500D01*
X257500Y187000D01*
Y73500D01*
X248500Y64500D01*
Y36500D01*
X242500Y30500D01*
X192000D01*
X188500Y34000D01*
Y56243D01*
X179201Y65542D01*
G01X239201Y35542D02*
X233458D01*
X229000Y40000D01*
Y62000D01*
X237000Y70000D01*
X245000D01*
X252000Y77000D01*
Y162500D01*
X245500Y169000D01*
Y188000D01*
X238500Y195000D01*
X107500D01*
X104000Y191500D01*
Y180500D01*
X105878Y178622D01*
X110630D01*
G01X126378Y173898D02*
X124803D01*
X122441Y176260D01*
G01X126378Y178622D02*
X124803D01*
X122441Y180984D01*
G01X100500Y202500D02*
X254972D01*
X262774Y210302D01*
G01X118504Y183346D02*
X116929D01*
X114567Y185709D01*
G01X134252Y183346D02*
X132677D01*
X130315Y185709D01*
G01X108000Y189000D02*
Y185000D01*
X109654Y183346D01*
X110630D01*
G01Y173898D02*
X105602D01*
X101500Y178000D01*
Y194000D01*
X105000Y197500D01*
X243500D01*
X255000Y186000D01*
Y75000D01*
X245542Y65542D01*
X239201D01*
G01X142126Y164449D02*
X140551D01*
X138189Y166811D01*
G01X142126Y159724D02*
X140551D01*
X138189Y162087D01*
G01X181496Y131378D02*
X183071D01*
X186000Y128449D01*
Y120800D01*
X187800Y119000D01*
X220500D01*
X239201Y100299D01*
Y85542D01*
G01X181496Y126654D02*
Y116504D01*
X184000Y114000D01*
X205500D01*
G01X157874Y140827D02*
X159449D01*
X161811Y138464D01*
G01X173622Y145551D02*
X175197D01*
X177559Y143189D01*
G01X142126Y136102D02*
X140551D01*
X138189Y133740D01*
G01X176271Y134202D02*
Y134363D01*
X174532Y136102D01*
X173622D01*
G01X181496D02*
X183071D01*
X185433Y133740D01*
G01X184145Y148375D02*
Y148536D01*
X182406Y150276D01*
X181496D01*
G01X142126D02*
X140551D01*
X138189Y147913D01*
G01X181496Y140827D02*
X183071D01*
X185433Y138464D01*
G01X165748Y140827D02*
X167323D01*
X169685Y138464D01*
G01X169000Y191000D02*
X180000D01*
X181496Y189504D01*
Y183346D01*
G01X150000D02*
X148425D01*
X146063Y185709D01*
G01X219201Y65542D02*
X230042D01*
X235590Y71090D01*
X241590D01*
X248500Y78000D01*
Y143000D01*
X245500Y146000D01*
G01X219201Y75542D02*
X229042D01*
X234500Y81000D01*
X243000D01*
X246000Y84000D01*
Y136500D01*
X239000Y143500D01*
G01X189370Y131378D02*
X200743D01*
G01X189370Y126654D02*
X204028D01*
G01X216000Y139000D02*
X213000Y136000D01*
X198500D01*
X193673Y140827D01*
X189370D01*
G01Y136102D02*
X194348D01*
G01X192019Y148375D02*
Y148536D01*
X190280Y150276D01*
X189370D01*
G01Y178622D02*
X190280D01*
X192178Y180520D01*
G01X189370Y173898D02*
X190280D01*
X192178Y175796D01*
M02*
