G04 ================== begin FILE IDENTIFICATION RECORD ==================*
G04 Layout Name:  OC_CONNECT-1_BREAKOUT_LIFE-3.brd*
G04 Film Name:    L3_PLANE*
G04 File Format:  Gerber RS274X*
G04 File Origin:  Cadence Allegro 16.6-2015-S065*
G04 Origin Date:  Thu Jan 05 18:33:40 2017*
G04 *
G04 Layer:  DRAWING FORMAT/L3*
G04 Layer:  DRAWING FORMAT/FILM_LABEL_OUTLINE*
G04 Layer:  VIA CLASS/L3_PLANE*
G04 Layer:  PIN/L3_PLANE*
G04 Layer:  ETCH/L3_PLANE*
G04 Layer:  DRAWING FORMAT/LAYER3*
G04 Layer:  DRAWING FORMAT/ETCH_ALL_LAYERS_TL*
G04 Layer:  DRAWING FORMAT/ALL_LAYERS_TL*
G04 Layer:  BOARD GEOMETRY/OUTLINE*
G04 Layer:  BOARD GEOMETRY/TOOLING_CORNERS*
G04 *
G04 Offset:    (0.000 0.000)*
G04 Mirror:    No*
G04 Mode:      Positive*
G04 Rotation:  0*
G04 FullContactRelief:  No*
G04 UndefLineWidth:     6.000*
G04 ================== end FILE IDENTIFICATION RECORD ====================*
%FSLAX25Y25*MOIN*%
%IR0*IPPOS*OFA0.00000B0.00000*MIA0B0*SFA1.00000B1.00000*%
%ADD12C,.128*%
%ADD16C,.114173*%
%ADD10C,.354331*%
%ADD11C,.024*%
%ADD14C,.062*%
%ADD13C,.063*%
%ADD19C,.051181*%
%ADD15C,.07874*%
%ADD20C,.062992*%
%ADD18C,.059843*%
%ADD17R,.059843X.059843*%
%ADD21C,.006*%
%ADD22C,.01*%
%ADD23C,.02*%
%ADD24C,.03*%
%ADD39C,.138004*%
%ADD38C,.148004*%
%ADD34C,.124178*%
%ADD29C,.072004*%
%ADD28C,.036004*%
%ADD33C,.073004*%
%ADD30C,.082004*%
%ADD32C,.083004*%
%ADD25C,.092523*%
%ADD35C,.061186*%
%ADD27C,.055438*%
%ADD26C,.072838*%
%ADD40C,.072839*%
%ADD31C,.088744*%
%ADD37C,.072996*%
%ADD36C,.082996*%
G75*
%LPD*%
G75*
G36*
G01X4000Y4000D02*
Y296000D01*
X296000D01*
Y4000D01*
X4000D01*
G37*
%LPC*%
G75*
G36*
G01X157786Y245201D02*
G03Y244484I177J-359D01*
G02X154246I-1770J-3579D01*
G03Y245201I-177J359D01*
G02X157786I1770J3578D01*
G37*
G36*
G01X164730Y231277D02*
G03X164034I-348J-197D01*
G02Y234786I-3097J1755D01*
G03X164730I348J197D01*
G02Y231277I3097J-1755D01*
G37*
G36*
G01X138156D02*
G03X137460I-348J-197D01*
G02Y234786I-3097J1755D01*
G03X138156I348J197D01*
G02Y231277I3097J-1755D01*
G37*
G36*
G01X203005Y155366D02*
G03Y154634I161J-366D01*
G02X199357I-1824J-4161D01*
G03Y155366I-161J366D01*
G02X203005I1824J4161D01*
G37*
G36*
G01X253500Y181868D02*
Y234293D01*
X227207Y260586D01*
G02X230035Y263414I1414J1414D01*
G01X257500Y235950D01*
Y183525D01*
X272996Y168029D01*
X273115Y168072D01*
G02X276775Y158908I1659J-4650D01*
G01Y92351D01*
X282702Y86424D01*
G02X279873Y83596I-1414J-1414D01*
G01X272774Y90694D01*
Y158908D01*
G02X270125Y165082I2000J4514D01*
G01X270167Y165201D01*
X253500Y181868D01*
G37*
G36*
G01X200209Y172946D02*
G02Y174955I-1494J1004D01*
G03X200873I332J223D01*
G02Y172946I1494J-1004D01*
G03X200209I-332J-223D01*
G37*
G36*
G01X168738Y208386D02*
G02X166730I-1004J-1494D01*
G03Y209050I-223J332D01*
G02X168738I1004J1494D01*
G03Y208386I223J-332D01*
G37*
G36*
G01X154234Y207804D02*
G02Y209813I-1494J1004D01*
G03X154897I332J223D01*
G02Y207804I1494J-1004D01*
G03X154234I-332J-223D01*
G37*
G36*
G01X137476Y218996D02*
G02Y221004I-1494J1004D01*
G03X138140I332J223D01*
G02Y218996I1494J-1004D01*
G03X137476I-332J-223D01*
G37*
G36*
G01X154233Y225262D02*
G02Y227270I-1494J1004D01*
G03X154897I332J223D01*
G02Y225262I1494J-1004D01*
G03X154233I-332J-223D01*
G37*
G36*
G01X150166Y236913D02*
X142181D01*
Y238905D01*
X140266D01*
X137000Y242172D01*
Y252828D01*
X142672Y258500D01*
X161829D01*
X168328Y252000D01*
X183172D01*
X188672Y257500D01*
X201172D01*
X206172Y262500D01*
X207202D01*
G02X208023Y258676I0J-2000D01*
G01X207990Y258661D01*
X202829Y253500D01*
X190328D01*
X184829Y248000D01*
X166672D01*
X160172Y254500D01*
X144329D01*
X141000Y251172D01*
Y243828D01*
X141498Y243330D01*
G03X142181Y243613I283J283D01*
G01Y244898D01*
X144433D01*
G03X144612Y245656I0J400D01*
G02X147735I1561J3124D01*
G03X147914Y244898I179J-358D01*
G01X150166D01*
Y236913D01*
G37*
G36*
G01X166476Y6531D02*
X126653D01*
X122973Y10211D01*
Y70699D01*
X119504Y74168D01*
G03X118821Y73885I-283J-283D01*
G01Y37700D01*
X112966Y31844D01*
X70016D01*
G03X69852Y31079I0J-400D01*
G02X65807I-2022J-4504D01*
G03X65644Y31844I-164J365D01*
G01X61413D01*
X52500Y40757D01*
Y52258D01*
X44258Y60500D01*
X24379D01*
X13500Y71379D01*
Y106121D01*
X17078Y109699D01*
X18714D01*
G03X18996Y110382I0J400D01*
G01X15500Y113879D01*
Y137121D01*
X19879Y141500D01*
X26500D01*
Y209828D01*
X32172Y215500D01*
X61412D01*
G03X61701Y216177I0J400D01*
G02X67623I2961J2836D01*
G03X67912Y215500I289J-277D01*
G01X99172D01*
X106000Y222328D01*
Y255828D01*
X122672Y272500D01*
X190829D01*
X198702Y264626D01*
Y260798D01*
G02X194702I-2000J0D01*
G01Y262970D01*
X189172Y268500D01*
X124329D01*
X110000Y254172D01*
Y220672D01*
X100829Y211500D01*
X33829D01*
X30500Y208171D01*
Y141500D01*
X31500D01*
Y208235D01*
X34230Y210965D01*
X69621D01*
X75500Y205086D01*
Y174621D01*
X81121Y169000D01*
X103121D01*
X107265Y164856D01*
X113010D01*
G03X113293Y165539I0J400D01*
G02X115841I1274J1272D01*
G03X116124Y164856I283J-283D01*
G01X120884D01*
G03X121167Y165539I0J400D01*
G02X123715I1274J1272D01*
G03X123998Y164856I283J-283D01*
G01X136632D01*
G03X136915Y165539I0J400D01*
G02X139463I1274J1272D01*
G03X139746Y164856I283J-283D01*
G01X154265D01*
X164121Y155000D01*
X178621D01*
X181500Y152121D01*
Y120879D01*
X175871Y115250D01*
X154500D01*
Y97371D01*
X155795Y96076D01*
X165046D01*
X171500Y89621D01*
Y11555D01*
X166476Y6531D01*
G37*
G54D34*
X127394Y259449D03*
X174796D03*
G54D29*
X64662Y229013D03*
Y269013D03*
X179201Y45542D03*
Y15542D03*
Y85542D03*
X239201Y45542D03*
X219201Y55542D03*
X199201Y45542D03*
Y15542D03*
X239201Y75542D03*
X219201Y85542D03*
X199201D03*
Y75542D03*
G54D28*
X100500Y202500D03*
X122441Y176260D03*
Y180984D03*
X114567Y185709D03*
X146063D03*
X130315D03*
X108000Y189000D03*
X200743Y131378D03*
X204028Y126654D03*
X205500Y114000D03*
X216000Y139000D03*
X194348Y136102D03*
X185433Y133740D03*
Y138464D03*
X161811Y162087D03*
Y166811D03*
X177559D03*
Y162087D03*
Y180984D03*
Y176260D03*
X192178Y180520D03*
Y175796D03*
X169685Y185709D03*
X169000Y191000D03*
X192019Y148375D03*
X184145D03*
X197066Y241060D03*
Y248934D03*
X245500Y146000D03*
X239000Y143500D03*
X240071Y225519D03*
X281154Y116733D03*
G54D33*
X100480Y271200D03*
Y251200D03*
X82061Y271601D03*
Y251601D03*
G54D30*
X64662Y239013D03*
Y249013D03*
Y259013D03*
Y279013D03*
Y289013D03*
X179201Y55542D03*
Y35542D03*
Y25542D03*
Y75542D03*
Y65542D03*
X239201Y55542D03*
Y35542D03*
Y25542D03*
Y15542D03*
X219201Y45542D03*
Y35542D03*
Y25542D03*
Y15542D03*
X199201Y55542D03*
Y35542D03*
Y25542D03*
X239201Y85542D03*
Y65542D03*
X219201Y75542D03*
Y65542D03*
X199201D03*
G54D32*
X100480Y241200D03*
Y261200D03*
X82061Y241601D03*
Y261601D03*
G54D25*
X86417Y180590D03*
G54D35*
X151095Y233032D03*
G54D27*
X17970Y161076D03*
Y221096D03*
Y190496D03*
X44742Y221096D03*
X261799Y99778D03*
X288571D03*
X261666Y131501D03*
X288438D03*
G54D26*
X213583Y129409D03*
Y180590D03*
G54D31*
X87830Y26575D03*
X274774Y183422D03*
G54D37*
X280474Y210302D03*
Y235902D03*
G54D36*
X262774Y210302D03*
Y235902D03*
%LPD*%
G75*
G36*
G01X62034Y33344D02*
X54000Y41378D01*
Y52879D01*
X44879Y62000D01*
X25000D01*
X15000Y72000D01*
Y105500D01*
X17699Y108199D01*
X115273D01*
X117000Y106472D01*
Y76672D01*
X117321Y76350D01*
Y72791D01*
X117165Y72755D01*
G03Y69245I399J-1755D01*
G01X117321Y69209D01*
Y38321D01*
X112344Y33344D01*
X62034D01*
G37*
G36*
G01X21076Y110424D02*
X17000Y114500D01*
Y136500D01*
X20500Y140000D01*
X107000D01*
X110459Y143459D01*
Y149154D01*
X112001Y150696D01*
X115569D01*
X117000Y149265D01*
Y110878D01*
X116546Y110424D01*
X21076D01*
G37*
G36*
G01X111379Y152196D02*
X108959Y149776D01*
Y144081D01*
X106379Y141500D01*
X33500D01*
X33000Y142000D01*
Y207614D01*
X34851Y209465D01*
X69000D01*
X74000Y204465D01*
Y174000D01*
X80500Y167500D01*
X102500D01*
X106644Y163356D01*
X112546D01*
G02X112913Y162798I0J-400D01*
G03X116221I1654J-711D01*
G02X116588Y163356I367J158D01*
G01X120420D01*
G02X120787Y162798I0J-400D01*
G03X124095I1654J-711D01*
G02X124462Y163356I367J158D01*
G01X128294D01*
G02X128661Y162798I0J-400D01*
G03X131969I1654J-711D01*
G02X132336Y163356I367J158D01*
G01X136168D01*
G02X136535Y162798I0J-400D01*
G03X139843I1654J-711D01*
G02X140210Y163356I367J158D01*
G01X144042D01*
G02X144409Y162798I0J-400D01*
G03X147717I1654J-711D01*
G02X148084Y163356I367J158D01*
G01X153644D01*
X160060Y156940D01*
X160074Y156888D01*
G03X161337Y155625I1737J474D01*
G01X161389Y155611D01*
X163500Y153500D01*
X178000D01*
X180000Y151500D01*
Y121500D01*
X175250Y116750D01*
X155250D01*
X154500Y117500D01*
Y143842D01*
X151621Y146721D01*
X140242D01*
G02X139868Y147265I0J400D01*
G03X136510I-1679J648D01*
G02X136136Y146721I-373J-144D01*
G01X132368D01*
G02X131994Y147265I0J400D01*
G03X128636I-1679J648D01*
G02X128262Y146721I-373J-144D01*
G01X127445D01*
X126954Y146230D01*
X124228D01*
G02X123903Y146863I0J400D01*
G03X120887Y148822I-1462J1050D01*
G02X120259Y148741I-345J202D01*
G01X116500Y152500D01*
X112000D01*
X111696Y152196D01*
X111379D01*
G37*
G36*
G01X127274Y8031D02*
X124473Y10832D01*
Y68716D01*
G02X124814Y68857I200J0D01*
G01X124941Y68731D01*
X129571D01*
X129573Y68730D01*
X129769D01*
G03X129782Y72731I0J2000D01*
G01X129763D01*
X129761Y72731D01*
X126598D01*
X124473Y74856D01*
Y141627D01*
X128067Y145221D01*
X151000D01*
X153000Y143221D01*
Y96749D01*
X155174Y94576D01*
X164424D01*
X170000Y89000D01*
Y12176D01*
X165855Y8031D01*
X127274D01*
G37*
G36*
G01X122973Y131544D02*
Y77322D01*
G02X122290Y77039I-400J0D01*
G01X121000Y78329D01*
Y131802D01*
G02X121589Y132154I400J0D01*
G03X122549Y131943I852J1586D01*
G02X122973Y131544I24J-399D01*
G37*
%LPC*%
G75*
G36*
G01X100643Y155366D02*
G03Y154634I161J-366D01*
G02X96995I-1824J-4161D01*
G03Y155366I-161J366D01*
G02X100643I1824J4161D01*
G37*
G36*
G01X146078Y119998D02*
G03X145418I-330J-226D01*
G02Y122002I-1496J1002D01*
G03X146078I330J226D01*
G02Y119998I1496J-1002D01*
G37*
G36*
G01X130330D02*
G03X129670I-330J-226D01*
G02Y122002I-1496J1002D01*
G03X130330I330J226D01*
G02Y119998I1496J-1002D01*
G37*
G54D39*
X26562Y99571D03*
Y118075D03*
G54D38*
Y81067D03*
G54D29*
X159201Y15542D03*
Y25542D03*
Y35542D03*
Y45542D03*
G54D28*
X95673Y71813D03*
X58307Y84850D03*
X44233D03*
X85898Y79479D03*
X106693Y129016D03*
Y124291D03*
X114567D03*
Y129016D03*
X106114Y154114D03*
X146063Y157362D03*
X122441D03*
X138189D03*
X130315D03*
X37458Y146308D03*
X114567Y157362D03*
X177559Y129016D03*
Y124291D03*
X169685Y133740D03*
X161811Y129016D03*
Y124291D03*
X177559Y138464D03*
X161811Y143189D03*
X169685D03*
X161811Y138464D03*
X177559Y143189D03*
X169685Y129016D03*
Y124291D03*
X176271Y134202D03*
X169685Y138464D03*
X130315Y133740D03*
X138189D03*
X146063D03*
X138189Y124291D03*
G54D30*
X159201Y55542D03*
Y85542D03*
Y75542D03*
Y65542D03*
G54D32*
X58201Y167734D03*
Y197734D03*
Y187734D03*
Y177734D03*
X130387Y24851D03*
Y34851D03*
Y14851D03*
Y44851D03*
G54D27*
X110281Y87515D03*
X44742Y161076D03*
Y190496D03*
X137053Y87515D03*
G54D40*
X86417Y129409D03*
%LPD*%
G75*
G54D10*
X25000Y25000D03*
Y275000D03*
X275000Y25000D03*
Y275000D03*
G54D20*
X280474Y210302D03*
Y235902D03*
G54D11*
X45500Y105000D03*
X50500D03*
Y101000D03*
X45500D03*
X25254Y146308D03*
Y175728D03*
X37458D03*
X25254Y206328D03*
X37458D03*
X102155Y55691D03*
Y50691D03*
Y45691D03*
X55000Y101000D03*
Y105000D03*
X129769Y70731D03*
X122441Y129016D03*
X122500Y125500D03*
X146063Y138464D03*
X138189D03*
X130315D03*
X114567D03*
Y133740D03*
X106693Y138464D03*
Y133740D03*
X153937Y180984D03*
X130315Y166811D03*
Y171535D03*
Y176260D03*
Y180984D03*
X114567Y171535D03*
X146063Y166811D03*
Y180984D03*
Y176260D03*
Y171535D03*
X114567Y176260D03*
X138189Y171535D03*
Y185709D03*
X114567Y180984D03*
X106693Y171535D03*
X122441Y185709D03*
Y171535D03*
X146063Y143189D03*
X130315D03*
X138189D03*
X114567D03*
Y147913D03*
X146063D03*
X151219Y220863D03*
Y211819D03*
X193307Y185709D03*
X185433Y180984D03*
Y176260D03*
Y171535D03*
Y166811D03*
Y162087D03*
Y143189D03*
Y157362D03*
X177559D03*
Y171535D03*
Y185709D03*
X169685Y180984D03*
Y176260D03*
Y171535D03*
Y166811D03*
Y162087D03*
Y157362D03*
X161811D03*
Y171535D03*
X177559Y147913D03*
X169685D03*
X161811D03*
X211500Y241060D03*
X196702Y291296D03*
X207202D03*
X196702Y260798D03*
X207202Y260500D03*
X269083Y85010D03*
X268950Y116733D03*
X249581Y172419D03*
X251349Y231652D03*
X217702Y291296D03*
X228621Y291379D03*
Y262000D03*
X281287Y85010D03*
G54D21*
G01X-143139Y-71300D02*
X-143889Y-70800D01*
X-144764Y-70467D01*
X-145764D01*
X-146889Y-70967D01*
X-147764Y-71800D01*
X-148389Y-72800D01*
X-148889Y-74467D01*
X-149014Y-75967D01*
X-148764Y-77467D01*
X-148389Y-78467D01*
X-147639Y-79467D01*
X-146764Y-80134D01*
X-145889Y-80467D01*
X-145014D01*
X-144139Y-80134D01*
X-143389Y-79634D01*
X-142764Y-78967D01*
G01X-139014Y-80467D02*
X-135889Y-70467D01*
X-132764Y-80467D01*
G01X-133889Y-76967D02*
X-137889D01*
G01X-128389Y-80467D02*
Y-70467D01*
X-125264D01*
X-124264Y-70967D01*
X-123639Y-71634D01*
X-123389Y-72967D01*
X-123639Y-74300D01*
X-124389Y-75134D01*
X-125264Y-75634D01*
X-128389D01*
G01X-125264D02*
X-123389Y-80467D01*
G01X-118639D02*
Y-70467D01*
X-116139D01*
X-115139Y-70967D01*
X-114389Y-71634D01*
X-113764Y-72634D01*
X-113264Y-73800D01*
X-113139Y-75467D01*
X-113264Y-77134D01*
X-113764Y-78300D01*
X-114389Y-79301D01*
X-115139Y-79967D01*
X-116139Y-80467D01*
X-118639D01*
G01X-98389D02*
Y-70467D01*
X-95264D01*
X-94264Y-70967D01*
X-93639Y-71634D01*
X-93389Y-72967D01*
X-93639Y-74300D01*
X-94389Y-75134D01*
X-95264Y-75634D01*
X-98389D01*
G01X-95264D02*
X-93389Y-80467D01*
G01X-83389D02*
X-88389D01*
Y-70467D01*
X-83389D01*
G01X-85389Y-75300D02*
X-88389D01*
G01X-78264Y-80467D02*
Y-70467D01*
X-73514D01*
G01X-75264Y-75300D02*
X-78264D01*
G01X-65889Y-80800D02*
X-66139Y-80634D01*
Y-80300D01*
X-65889Y-80134D01*
X-65639Y-80300D01*
Y-80634D01*
X-65889Y-80800D01*
G01Y-76301D02*
X-66139Y-76134D01*
Y-75800D01*
X-65889Y-75634D01*
X-65639Y-75800D01*
Y-76134D01*
X-65889Y-76301D01*
G01X-55889Y-80467D02*
X-56889Y-80300D01*
X-57764Y-79634D01*
X-58514Y-78634D01*
X-59014Y-77467D01*
X-59264Y-76134D01*
Y-74800D01*
X-59014Y-73467D01*
X-58514Y-72300D01*
X-57764Y-71300D01*
X-56889Y-70634D01*
X-55889Y-70467D01*
X-54889Y-70634D01*
X-54014Y-71300D01*
X-53264Y-72300D01*
X-52764Y-73467D01*
X-52514Y-74800D01*
Y-76134D01*
X-52764Y-77467D01*
X-53264Y-78634D01*
X-54014Y-79634D01*
X-54889Y-80300D01*
X-55889Y-80467D01*
G01X-48389D02*
Y-70467D01*
X-45389D01*
X-44389Y-70967D01*
X-43639Y-72134D01*
X-43389Y-73467D01*
X-43639Y-74800D01*
X-44264Y-75800D01*
X-45389Y-76301D01*
X-48389D01*
G01X-33389Y-80467D02*
X-38389D01*
Y-70467D01*
X-33389D01*
G01X-35389Y-75300D02*
X-38389D01*
G01X-28764Y-80467D02*
Y-70467D01*
X-23014Y-80467D01*
Y-70467D01*
G01X-13139Y-71300D02*
X-13889Y-70800D01*
X-14764Y-70467D01*
X-15764D01*
X-16889Y-70967D01*
X-17764Y-71800D01*
X-18389Y-72800D01*
X-18889Y-74467D01*
X-19014Y-75967D01*
X-18764Y-77467D01*
X-18389Y-78467D01*
X-17639Y-79467D01*
X-16764Y-80134D01*
X-15889Y-80467D01*
X-15014D01*
X-14139Y-80134D01*
X-13389Y-79634D01*
X-12764Y-78967D01*
G01X-3389Y-80467D02*
X-8389D01*
Y-70467D01*
X-3389D01*
G01X-5389Y-75300D02*
X-8389D01*
G01X1611Y-70467D02*
Y-80467D01*
X6611D01*
G01X11611Y-70467D02*
Y-80467D01*
X16611D01*
G01X21361Y-70467D02*
Y-77634D01*
X21861Y-79134D01*
X22861Y-80134D01*
X24111Y-80467D01*
X25361Y-80134D01*
X26361Y-79134D01*
X26861Y-77634D01*
Y-70467D01*
G01X31611D02*
Y-80467D01*
X36611D01*
G01X40986D02*
X44111Y-70467D01*
X47236Y-80467D01*
G01X46111Y-76967D02*
X42111D01*
G01X51611Y-80467D02*
Y-70467D01*
X54736D01*
X55736Y-70967D01*
X56361Y-71634D01*
X56611Y-72967D01*
X56361Y-74300D01*
X55611Y-75134D01*
X54736Y-75634D01*
X51611D01*
G01X54736D02*
X56611Y-80467D01*
G01X74111D02*
Y-70467D01*
G01X86861Y-71300D02*
X86111Y-70800D01*
X85236Y-70467D01*
X84236D01*
X83111Y-70967D01*
X82236Y-71800D01*
X81611Y-72800D01*
X81111Y-74467D01*
X80986Y-75967D01*
X81236Y-77467D01*
X81611Y-78467D01*
X82361Y-79467D01*
X83236Y-80134D01*
X84111Y-80467D01*
X84986D01*
X85861Y-80134D01*
X86611Y-79634D01*
X87236Y-78967D01*
G01X94111Y-80467D02*
X93111Y-80300D01*
X92236Y-79634D01*
X91486Y-78634D01*
X90986Y-77467D01*
X90736Y-76134D01*
Y-74800D01*
X90986Y-73467D01*
X91486Y-72300D01*
X92236Y-71300D01*
X93111Y-70634D01*
X94111Y-70467D01*
X95111Y-70634D01*
X95986Y-71300D01*
X96736Y-72300D01*
X97236Y-73467D01*
X97486Y-74800D01*
Y-76134D01*
X97236Y-77467D01*
X96736Y-78634D01*
X95986Y-79634D01*
X95111Y-80300D01*
X94111Y-80467D01*
G01X101236D02*
Y-70467D01*
X106986Y-80467D01*
Y-70467D01*
G01X111236Y-80467D02*
Y-70467D01*
X116986Y-80467D01*
Y-70467D01*
G01X126611Y-80467D02*
X121611D01*
Y-70467D01*
X126611D01*
G01X124611Y-75300D02*
X121611D01*
G01X136861Y-71300D02*
X136111Y-70800D01*
X135236Y-70467D01*
X134236D01*
X133111Y-70967D01*
X132236Y-71800D01*
X131611Y-72800D01*
X131111Y-74467D01*
X130986Y-75967D01*
X131236Y-77467D01*
X131611Y-78467D01*
X132361Y-79467D01*
X133236Y-80134D01*
X134111Y-80467D01*
X134986D01*
X135861Y-80134D01*
X136611Y-79634D01*
X137236Y-78967D01*
G01X144111Y-70467D02*
Y-80467D01*
G01X141236Y-70467D02*
X146986D01*
G01X152486Y-77134D02*
X155736D01*
G01X164111Y-80467D02*
Y-70467D01*
X162611Y-72467D01*
G01Y-80467D02*
X165611D01*
G01X184111D02*
Y-70467D01*
G01X195111Y-75134D02*
X195611Y-74634D01*
X195986Y-73800D01*
X196236Y-72634D01*
X195986Y-71634D01*
X195486Y-70967D01*
X194611Y-70467D01*
X191236D01*
Y-80467D01*
X195361D01*
X196236Y-79800D01*
X196736Y-78800D01*
X196986Y-77634D01*
X196736Y-76467D01*
X195986Y-75467D01*
X195111Y-75134D01*
X191236D01*
G01X201611Y-80467D02*
Y-70467D01*
X204736D01*
X205736Y-70967D01*
X206361Y-71634D01*
X206611Y-72967D01*
X206361Y-74300D01*
X205611Y-75134D01*
X204736Y-75634D01*
X201611D01*
G01X204736D02*
X206611Y-80467D01*
G01X216611D02*
X211611D01*
Y-70467D01*
X216611D01*
G01X214611Y-75300D02*
X211611D01*
G01X220986Y-80467D02*
X224111Y-70467D01*
X227236Y-80467D01*
G01X226111Y-76967D02*
X222111D01*
G01X231361Y-80467D02*
Y-70467D01*
G01X236111D02*
X231361Y-76634D01*
G01X236861Y-80467D02*
X233486Y-73800D01*
G01X244111Y-80467D02*
X243111Y-80300D01*
X242236Y-79634D01*
X241486Y-78634D01*
X240986Y-77467D01*
X240736Y-76134D01*
Y-74800D01*
X240986Y-73467D01*
X241486Y-72300D01*
X242236Y-71300D01*
X243111Y-70634D01*
X244111Y-70467D01*
X245111Y-70634D01*
X245986Y-71300D01*
X246736Y-72300D01*
X247236Y-73467D01*
X247486Y-74800D01*
Y-76134D01*
X247236Y-77467D01*
X246736Y-78634D01*
X245986Y-79634D01*
X245111Y-80300D01*
X244111Y-80467D01*
G01X251361Y-70467D02*
Y-77634D01*
X251861Y-79134D01*
X252861Y-80134D01*
X254111Y-80467D01*
X255361Y-80134D01*
X256361Y-79134D01*
X256861Y-77634D01*
Y-70467D01*
G01X264111D02*
Y-80467D01*
G01X261236Y-70467D02*
X266986D01*
G01X285111Y-75134D02*
X285611Y-74634D01*
X285986Y-73800D01*
X286236Y-72634D01*
X285986Y-71634D01*
X285486Y-70967D01*
X284611Y-70467D01*
X281236D01*
Y-80467D01*
X285361D01*
X286236Y-79800D01*
X286736Y-78800D01*
X286986Y-77634D01*
X286736Y-76467D01*
X285986Y-75467D01*
X285111Y-75134D01*
X281236D01*
G01X294111Y-80467D02*
X293111Y-80300D01*
X292236Y-79634D01*
X291486Y-78634D01*
X290986Y-77467D01*
X290736Y-76134D01*
Y-74800D01*
X290986Y-73467D01*
X291486Y-72300D01*
X292236Y-71300D01*
X293111Y-70634D01*
X294111Y-70467D01*
X295111Y-70634D01*
X295986Y-71300D01*
X296736Y-72300D01*
X297236Y-73467D01*
X297486Y-74800D01*
Y-76134D01*
X297236Y-77467D01*
X296736Y-78634D01*
X295986Y-79634D01*
X295111Y-80300D01*
X294111Y-80467D01*
G01X300986D02*
X304111Y-70467D01*
X307236Y-80467D01*
G01X306111Y-76967D02*
X302111D01*
G01X311611Y-80467D02*
Y-70467D01*
X314736D01*
X315736Y-70967D01*
X316361Y-71634D01*
X316611Y-72967D01*
X316361Y-74300D01*
X315611Y-75134D01*
X314736Y-75634D01*
X311611D01*
G01X314736D02*
X316611Y-80467D01*
G01X321361D02*
Y-70467D01*
X323861D01*
X324861Y-70967D01*
X325611Y-71634D01*
X326236Y-72634D01*
X326736Y-73800D01*
X326861Y-75467D01*
X326736Y-77134D01*
X326236Y-78300D01*
X325611Y-79301D01*
X324861Y-79967D01*
X323861Y-80467D01*
X321361D01*
G01X-150564Y-101067D02*
Y-91067D01*
X-145814D01*
G01X-147564Y-95900D02*
X-150564D01*
G01X-139689Y-91067D02*
X-136689D01*
G01X-138189D02*
Y-101067D01*
G01X-139689D02*
X-136689D01*
G01X-130689Y-91067D02*
Y-101067D01*
X-125689D01*
G01X-121439D02*
Y-91067D01*
X-118189Y-99400D01*
X-114939Y-91067D01*
Y-101067D01*
G01X-100689Y-91067D02*
Y-101067D01*
X-95689D01*
G01X-91314D02*
X-88189Y-91067D01*
X-85064Y-101067D01*
G01X-86189Y-97567D02*
X-90189D01*
G01X-78189Y-101067D02*
Y-96567D01*
X-80689Y-91067D01*
G01X-75689D02*
X-78189Y-96567D01*
G01X-65689Y-101067D02*
X-70689D01*
Y-91067D01*
X-65689D01*
G01X-67689Y-95900D02*
X-70689D01*
G01X-60689Y-101067D02*
Y-91067D01*
X-57564D01*
X-56564Y-91567D01*
X-55939Y-92234D01*
X-55689Y-93567D01*
X-55939Y-94900D01*
X-56689Y-95734D01*
X-57564Y-96234D01*
X-60689D01*
G01X-57564D02*
X-55689Y-101067D01*
G01X-48189Y-101400D02*
X-48439Y-101234D01*
Y-100900D01*
X-48189Y-100734D01*
X-47939Y-100900D01*
Y-101234D01*
X-48189Y-101400D01*
G01Y-96901D02*
X-48439Y-96734D01*
Y-96400D01*
X-48189Y-96234D01*
X-47939Y-96400D01*
Y-96734D01*
X-48189Y-96901D01*
G01X-148639Y-60467D02*
Y-50467D01*
X-146139D01*
X-145139Y-50967D01*
X-144389Y-51634D01*
X-143764Y-52634D01*
X-143264Y-53800D01*
X-143139Y-55467D01*
X-143264Y-57134D01*
X-143764Y-58300D01*
X-144389Y-59301D01*
X-145139Y-59967D01*
X-146139Y-60467D01*
X-148639D01*
G01X-133389D02*
X-138389D01*
Y-50467D01*
X-133389D01*
G01X-135389Y-55300D02*
X-138389D01*
G01X-128514Y-59134D02*
X-127514Y-59967D01*
X-126389Y-60467D01*
X-125389D01*
X-124389Y-59967D01*
X-123639Y-59134D01*
X-123264Y-57967D01*
X-123514Y-56800D01*
X-124139Y-55800D01*
X-125264Y-55134D01*
X-126764Y-54800D01*
X-127639Y-54134D01*
X-128014Y-52967D01*
X-127764Y-51800D01*
X-127139Y-50967D01*
X-126264Y-50467D01*
X-125389D01*
X-124514Y-50800D01*
X-123764Y-51634D01*
G01X-117389Y-50467D02*
X-114389D01*
G01X-115889D02*
Y-60467D01*
G01X-117389D02*
X-114389D01*
G01X-105139Y-55467D02*
X-102639D01*
Y-58467D01*
X-103389Y-59467D01*
X-104264Y-60134D01*
X-105514Y-60467D01*
X-106764Y-60134D01*
X-107639Y-59467D01*
X-108389Y-58467D01*
X-108889Y-57300D01*
X-109139Y-55967D01*
Y-54800D01*
X-108889Y-53800D01*
X-108389Y-52634D01*
X-107639Y-51634D01*
X-106889Y-50967D01*
X-105889Y-50467D01*
X-105014D01*
X-104014Y-50800D01*
X-103264Y-51467D01*
G01X-98764Y-60467D02*
Y-50467D01*
X-93014Y-60467D01*
Y-50467D01*
G01X-83389Y-60467D02*
X-88389D01*
Y-50467D01*
X-83389D01*
G01X-85389Y-55300D02*
X-88389D01*
G01X-78639Y-60467D02*
Y-50467D01*
X-76139D01*
X-75139Y-50967D01*
X-74389Y-51634D01*
X-73764Y-52634D01*
X-73264Y-53800D01*
X-73139Y-55467D01*
X-73264Y-57134D01*
X-73764Y-58300D01*
X-74389Y-59301D01*
X-75139Y-59967D01*
X-76139Y-60467D01*
X-78639D01*
G01X-59014D02*
X-55889Y-50467D01*
X-52764Y-60467D01*
G01X-53889Y-56967D02*
X-57889D01*
G01X-45889Y-50467D02*
Y-60467D01*
G01X-48764Y-50467D02*
X-43014D01*
G01X-35889Y-60800D02*
X-36139Y-60634D01*
Y-60300D01*
X-35889Y-60134D01*
X-35639Y-60300D01*
Y-60634D01*
X-35889Y-60800D01*
G01Y-56301D02*
X-36139Y-56134D01*
Y-55800D01*
X-35889Y-55634D01*
X-35639Y-55800D01*
Y-56134D01*
X-35889Y-56301D01*
G01X-148439Y-41267D02*
Y-31267D01*
X-145939D01*
X-144939Y-31767D01*
X-144189Y-32434D01*
X-143564Y-33434D01*
X-143064Y-34600D01*
X-142939Y-36267D01*
X-143064Y-37934D01*
X-143564Y-39100D01*
X-144189Y-40101D01*
X-144939Y-40767D01*
X-145939Y-41267D01*
X-148439D01*
G01X-138814D02*
X-135689Y-31267D01*
X-132564Y-41267D01*
G01X-133689Y-37767D02*
X-137689D01*
G01X-125689Y-31267D02*
Y-41267D01*
G01X-128564Y-31267D02*
X-122814D01*
G01X-113189Y-41267D02*
X-118189D01*
Y-31267D01*
X-113189D01*
G01X-115189Y-36100D02*
X-118189D01*
G01X-105689Y-41600D02*
X-105939Y-41434D01*
Y-41100D01*
X-105689Y-40934D01*
X-105439Y-41100D01*
Y-41434D01*
X-105689Y-41600D01*
G01Y-37101D02*
X-105939Y-36934D01*
Y-36600D01*
X-105689Y-36434D01*
X-105439Y-36600D01*
Y-36934D01*
X-105689Y-37101D01*
G01X-95689Y-31267D02*
X-96689Y-31600D01*
X-97439Y-32434D01*
X-97939Y-33434D01*
X-98314Y-34767D01*
X-98439Y-36267D01*
X-98314Y-37767D01*
X-97939Y-39100D01*
X-97439Y-40101D01*
X-96689Y-40934D01*
X-95689Y-41267D01*
X-94689Y-40934D01*
X-93939Y-40101D01*
X-93439Y-39100D01*
X-93064Y-37767D01*
X-92939Y-36267D01*
X-93064Y-34767D01*
X-93439Y-33434D01*
X-93939Y-32434D01*
X-94689Y-31600D01*
X-95689Y-31267D01*
G01X-85689Y-41267D02*
Y-31267D01*
X-87189Y-33267D01*
G01Y-41267D02*
X-84189D01*
G01X-77314Y-37934D02*
X-74064D01*
G01X-65689Y-31267D02*
X-66689Y-31600D01*
X-67439Y-32434D01*
X-67939Y-33434D01*
X-68314Y-34767D01*
X-68439Y-36267D01*
X-68314Y-37767D01*
X-67939Y-39100D01*
X-67439Y-40101D01*
X-66689Y-40934D01*
X-65689Y-41267D01*
X-64689Y-40934D01*
X-63939Y-40101D01*
X-63439Y-39100D01*
X-63064Y-37767D01*
X-62939Y-36267D01*
X-63064Y-34767D01*
X-63439Y-33434D01*
X-63939Y-32434D01*
X-64689Y-31600D01*
X-65689Y-31267D01*
G01X-58439Y-39767D02*
X-57689Y-40600D01*
X-56814Y-41100D01*
X-55689Y-41267D01*
X-54564Y-40934D01*
X-53689Y-40267D01*
X-53064Y-39100D01*
X-52939Y-37767D01*
X-53189Y-36434D01*
X-53814Y-35600D01*
X-54689Y-34934D01*
X-55564Y-34767D01*
X-56439Y-34934D01*
X-57564Y-35600D01*
X-57189Y-31267D01*
X-53814D01*
G01X-47314Y-37934D02*
X-44064D01*
G01X-38064Y-32934D02*
X-37314Y-31934D01*
X-36439Y-31434D01*
X-35439Y-31267D01*
X-34189Y-31600D01*
X-33314Y-32434D01*
X-33064Y-33434D01*
X-33189Y-34434D01*
X-33689Y-35267D01*
X-36189Y-36934D01*
X-37314Y-38100D01*
X-38064Y-39767D01*
X-38314Y-41267D01*
X-33064D01*
G01X-25689Y-31267D02*
X-26689Y-31600D01*
X-27439Y-32434D01*
X-27939Y-33434D01*
X-28314Y-34767D01*
X-28439Y-36267D01*
X-28314Y-37767D01*
X-27939Y-39100D01*
X-27439Y-40101D01*
X-26689Y-40934D01*
X-25689Y-41267D01*
X-24689Y-40934D01*
X-23939Y-40101D01*
X-23439Y-39100D01*
X-23064Y-37767D01*
X-22939Y-36267D01*
X-23064Y-34767D01*
X-23439Y-33434D01*
X-23939Y-32434D01*
X-24689Y-31600D01*
X-25689Y-31267D01*
G01X-15689Y-41267D02*
Y-31267D01*
X-17189Y-33267D01*
G01Y-41267D02*
X-14189D01*
G01X-5939D02*
X-5689Y-39100D01*
X-5314Y-37267D01*
X-4814Y-35600D01*
X-4189Y-33767D01*
X-3189Y-31267D01*
X-8189D01*
G01X-15989Y-90467D02*
Y-100467D01*
X-10989D01*
G01X-6614D02*
X-3489Y-90467D01*
X-364Y-100467D01*
G01X-1489Y-96967D02*
X-5489D01*
G01X6511Y-100467D02*
Y-95967D01*
X4011Y-90467D01*
G01X9011D02*
X6511Y-95967D01*
G01X19011Y-100467D02*
X14011D01*
Y-90467D01*
X19011D01*
G01X17011Y-95300D02*
X14011D01*
G01X24011Y-100467D02*
Y-90467D01*
X27136D01*
X28136Y-90967D01*
X28761Y-91634D01*
X29011Y-92967D01*
X28761Y-94300D01*
X28011Y-95134D01*
X27136Y-95634D01*
X24011D01*
G01X27136D02*
X29011Y-100467D01*
G01X33761Y-98467D02*
X34511Y-99634D01*
X35511Y-100300D01*
X36636Y-100467D01*
X37636Y-100300D01*
X38636Y-99467D01*
X39261Y-98467D01*
X39386Y-97467D01*
X39136Y-96301D01*
X38261Y-95467D01*
X37386Y-95134D01*
X36261D01*
G01X37386D02*
X38136Y-94634D01*
X38761Y-93800D01*
X39011Y-92800D01*
X38761Y-91800D01*
X38136Y-90967D01*
X37011Y-90467D01*
X35886Y-90634D01*
X34761Y-91300D01*
G01X105811Y-41267D02*
Y-31267D01*
X108811D01*
X109811Y-31767D01*
X110561Y-32934D01*
X110811Y-34267D01*
X110561Y-35600D01*
X109936Y-36600D01*
X108811Y-37101D01*
X105811D01*
G01X115186Y-41267D02*
X118311Y-31267D01*
X121436Y-41267D01*
G01X120311Y-37767D02*
X116311D01*
G01X125811Y-41267D02*
Y-31267D01*
X128936D01*
X129936Y-31767D01*
X130561Y-32434D01*
X130811Y-33767D01*
X130561Y-35100D01*
X129811Y-35934D01*
X128936Y-36434D01*
X125811D01*
G01X128936D02*
X130811Y-41267D01*
G01X138311Y-31267D02*
Y-41267D01*
G01X135436Y-31267D02*
X141186D01*
G01X155436Y-41267D02*
Y-31267D01*
X161186Y-41267D01*
Y-31267D01*
G01X165561D02*
Y-38434D01*
X166061Y-39934D01*
X167061Y-40934D01*
X168311Y-41267D01*
X169561Y-40934D01*
X170561Y-39934D01*
X171061Y-38434D01*
Y-31267D01*
G01X175061Y-41267D02*
Y-31267D01*
X178311Y-39600D01*
X181561Y-31267D01*
Y-41267D01*
G01X189311Y-35934D02*
X189811Y-35434D01*
X190186Y-34600D01*
X190436Y-33434D01*
X190186Y-32434D01*
X189686Y-31767D01*
X188811Y-31267D01*
X185436D01*
Y-41267D01*
X189561D01*
X190436Y-40600D01*
X190936Y-39600D01*
X191186Y-38434D01*
X190936Y-37267D01*
X190186Y-36267D01*
X189311Y-35934D01*
X185436D01*
G01X200811Y-41267D02*
X195811D01*
Y-31267D01*
X200811D01*
G01X198811Y-36100D02*
X195811D01*
G01X205811Y-41267D02*
Y-31267D01*
X208936D01*
X209936Y-31767D01*
X210561Y-32434D01*
X210811Y-33767D01*
X210561Y-35100D01*
X209811Y-35934D01*
X208936Y-36434D01*
X205811D01*
G01X208936D02*
X210811Y-41267D01*
G01X218311Y-41600D02*
X218061Y-41434D01*
Y-41100D01*
X218311Y-40934D01*
X218561Y-41100D01*
Y-41434D01*
X218311Y-41600D01*
G01Y-37101D02*
X218061Y-36934D01*
Y-36600D01*
X218311Y-36434D01*
X218561Y-36600D01*
Y-36934D01*
X218311Y-37101D01*
G01X225936Y-32934D02*
X226686Y-31934D01*
X227561Y-31434D01*
X228561Y-31267D01*
X229811Y-31600D01*
X230686Y-32434D01*
X230936Y-33434D01*
X230811Y-34434D01*
X230311Y-35267D01*
X227811Y-36934D01*
X226686Y-38100D01*
X225936Y-39767D01*
X225686Y-41267D01*
X230936D01*
G01X235561Y-39267D02*
X236311Y-40434D01*
X237311Y-41100D01*
X238436Y-41267D01*
X239436Y-41100D01*
X240436Y-40267D01*
X241061Y-39267D01*
X241186Y-38267D01*
X240936Y-37101D01*
X240061Y-36267D01*
X239186Y-35934D01*
X238061D01*
G01X239186D02*
X239936Y-35434D01*
X240561Y-34600D01*
X240811Y-33600D01*
X240561Y-32600D01*
X239936Y-31767D01*
X238811Y-31267D01*
X237686Y-31434D01*
X236561Y-32100D01*
G01X248311Y-41267D02*
Y-31267D01*
X246811Y-33267D01*
G01Y-41267D02*
X249811D01*
G01X256686Y-37934D02*
X259936D01*
G01X268311Y-31267D02*
X267311Y-31600D01*
X266561Y-32434D01*
X266061Y-33434D01*
X265686Y-34767D01*
X265561Y-36267D01*
X265686Y-37767D01*
X266061Y-39100D01*
X266561Y-40101D01*
X267311Y-40934D01*
X268311Y-41267D01*
X269311Y-40934D01*
X270061Y-40101D01*
X270561Y-39100D01*
X270936Y-37767D01*
X271061Y-36267D01*
X270936Y-34767D01*
X270561Y-33434D01*
X270061Y-32434D01*
X269311Y-31600D01*
X268311Y-31267D01*
G01X278311D02*
X277311Y-31600D01*
X276561Y-32434D01*
X276061Y-33434D01*
X275686Y-34767D01*
X275561Y-36267D01*
X275686Y-37767D01*
X276061Y-39100D01*
X276561Y-40101D01*
X277311Y-40934D01*
X278311Y-41267D01*
X279311Y-40934D01*
X280061Y-40101D01*
X280561Y-39100D01*
X280936Y-37767D01*
X281061Y-36267D01*
X280936Y-34767D01*
X280561Y-33434D01*
X280061Y-32434D01*
X279311Y-31600D01*
X278311Y-31267D01*
G01X288311D02*
X287311Y-31600D01*
X286561Y-32434D01*
X286061Y-33434D01*
X285686Y-34767D01*
X285561Y-36267D01*
X285686Y-37767D01*
X286061Y-39100D01*
X286561Y-40101D01*
X287311Y-40934D01*
X288311Y-41267D01*
X289311Y-40934D01*
X290061Y-40101D01*
X290561Y-39100D01*
X290936Y-37767D01*
X291061Y-36267D01*
X290936Y-34767D01*
X290561Y-33434D01*
X290061Y-32434D01*
X289311Y-31600D01*
X288311Y-31267D01*
G01X298311D02*
X297311Y-31600D01*
X296561Y-32434D01*
X296061Y-33434D01*
X295686Y-34767D01*
X295561Y-36267D01*
X295686Y-37767D01*
X296061Y-39100D01*
X296561Y-40101D01*
X297311Y-40934D01*
X298311Y-41267D01*
X299311Y-40934D01*
X300061Y-40101D01*
X300561Y-39100D01*
X300936Y-37767D01*
X301061Y-36267D01*
X300936Y-34767D01*
X300561Y-33434D01*
X300061Y-32434D01*
X299311Y-31600D01*
X298311Y-31267D01*
G01X308311Y-41267D02*
X309186Y-41100D01*
X310186Y-40600D01*
X310811Y-39767D01*
X311061Y-38600D01*
X310811Y-37434D01*
X310061Y-36434D01*
X308936Y-35934D01*
X307686D01*
X306936Y-35600D01*
X306311Y-34767D01*
X306061Y-33600D01*
X306436Y-32434D01*
X307311Y-31600D01*
X308311Y-31267D01*
X309311Y-31600D01*
X310186Y-32434D01*
X310561Y-33600D01*
X310311Y-34767D01*
X309686Y-35600D01*
X308936Y-35934D01*
X307686D01*
X306561Y-36434D01*
X305811Y-37434D01*
X305561Y-38600D01*
X305811Y-39767D01*
X306436Y-40600D01*
X307436Y-41100D01*
X308311Y-41267D01*
G01X318061D02*
X318311Y-39100D01*
X318686Y-37267D01*
X319186Y-35600D01*
X319811Y-33767D01*
X320811Y-31267D01*
X315811D01*
G01X482000Y-70833D02*
Y-80833D01*
X487000D01*
G01X493000Y-70833D02*
X496000D01*
G01X494500D02*
Y-80833D01*
G01X493000D02*
X496000D01*
G01X502125D02*
Y-70833D01*
X506875D01*
G01X505125Y-75667D02*
X502125D01*
G01X517000Y-80833D02*
X512000D01*
Y-70833D01*
X517000D01*
G01X515000Y-75667D02*
X512000D01*
G01X522875Y-77500D02*
X526125D01*
G01X531750Y-78834D02*
X532500Y-80000D01*
X533500Y-80667D01*
X534625Y-80833D01*
X535625Y-80667D01*
X536625Y-79834D01*
X537250Y-78834D01*
X537375Y-77833D01*
X537125Y-76667D01*
X536250Y-75834D01*
X535375Y-75500D01*
X534250D01*
G01X535375D02*
X536125Y-75000D01*
X536750Y-74167D01*
X537000Y-73167D01*
X536750Y-72167D01*
X536125Y-71334D01*
X535000Y-70833D01*
X533875Y-71000D01*
X532750Y-71667D01*
G01X0Y0D02*
X300000D01*
Y300000D01*
X0D01*
Y0D01*
G54D12*
X26562Y99571D03*
Y118075D03*
G54D22*
G01X-154139Y-105167D02*
X473761D01*
Y-85167D01*
G01X-154139Y-65167D02*
X548461D01*
G01X-154139Y-85167D02*
X548461D01*
G01X473761Y-105167D02*
X548461D01*
Y-25967D01*
X-154139D01*
Y-105167D01*
G01Y-45167D02*
X548461D01*
G01X473761Y-65167D02*
Y-45167D01*
G01Y-65167D02*
Y-85167D01*
G01Y-25967D02*
Y-45167D01*
G54D13*
X58201Y167734D03*
X130387Y14851D03*
X100480Y271200D03*
Y251200D03*
X82061Y271601D03*
Y251601D03*
G54D23*
G01X26562Y118075D02*
X28500Y120013D01*
Y209000D01*
X33000Y213500D01*
X100000D01*
X108000Y221500D01*
Y255000D01*
X123500Y270500D01*
X190000D01*
X196702Y263798D01*
Y260798D01*
G01X129769Y70731D02*
X129673D01*
X129671Y70731D01*
X125769D01*
X119000Y77500D01*
Y151500D01*
G01D02*
X120000D01*
G01X207202Y260500D02*
X207000D01*
X202000Y255500D01*
X189500D01*
X184000Y250000D01*
X167500D01*
X161000Y256500D01*
X143500D01*
X139000Y252000D01*
Y243000D01*
X141094Y240906D01*
X146174D01*
G01X274774Y163422D02*
X255500Y182696D01*
Y235121D01*
X228621Y262000D01*
G01X274774Y163422D02*
Y91523D01*
X281287Y85010D01*
G54D14*
X64662Y229013D03*
Y269013D03*
X159201Y45542D03*
Y35542D03*
Y25542D03*
Y15542D03*
X179201Y45542D03*
Y15542D03*
Y85542D03*
X239201Y45542D03*
X219201Y55542D03*
X199201Y45542D03*
Y15542D03*
X239201Y75542D03*
X219201Y85542D03*
X199201D03*
Y75542D03*
G54D24*
G01X21342Y94350D02*
X26562Y99571D01*
G01X21342Y104792D02*
X26562Y99571D01*
G01X21342Y112855D02*
X26562Y118075D01*
G01X21342Y123296D02*
X26562Y118075D01*
G01Y99571D02*
X31783Y104792D01*
G01X26562Y99571D02*
X31783Y94350D01*
G01X26562Y118075D02*
X31783Y112855D01*
G01X61775Y266126D02*
X64662Y269013D01*
G01D02*
X67549Y271900D01*
G01X61775D02*
X64662Y269013D01*
G01D02*
X67549Y266126D01*
G01X61775Y226126D02*
X64662Y229013D01*
G01D02*
X67549Y231900D01*
G01X61775D02*
X64662Y229013D01*
G01D02*
X67549Y226126D01*
G01X84351Y23096D02*
X87830Y26575D01*
G01D02*
X91309Y30054D01*
G01X84351D02*
X87830Y26575D01*
G01D02*
X91309Y23096D01*
G01X122662Y254717D02*
X127394Y259449D01*
G01D02*
X132126Y264181D01*
G01X122662D02*
X127394Y259449D01*
G01D02*
X132126Y254717D01*
G01X79138Y248678D02*
X82061Y251601D01*
G01D02*
X84984Y254524D01*
G01X79138D02*
X82061Y251601D01*
G01D02*
X84984Y248678D01*
G01X79138Y268678D02*
X82061Y271601D01*
G01D02*
X84984Y274524D01*
G01X79138D02*
X82061Y271601D01*
G01D02*
X84984Y268678D01*
G01X97558Y248278D02*
X100480Y251200D01*
G01D02*
X103403Y254122D01*
G01X97558D02*
X100480Y251200D01*
G01D02*
X103403Y248278D01*
G01X97558Y268278D02*
X100480Y271200D01*
G01D02*
X103403Y274122D01*
G01X97558D02*
X100480Y271200D01*
G01D02*
X103403Y268278D01*
G01X176314Y12655D02*
X179201Y15542D01*
G01D02*
X182088Y18429D01*
G01X176314D02*
X179201Y15542D01*
G01D02*
X182088Y12655D01*
G01X176314Y42655D02*
X179201Y45542D01*
G01D02*
X182088Y48429D01*
G01X176314D02*
X179201Y45542D01*
G01D02*
X182088Y42655D01*
G01X156314Y12655D02*
X159201Y15542D01*
G01D02*
X162088Y18429D01*
G01X156314D02*
X159201Y15542D01*
G01D02*
X162088Y12655D01*
G01X156314Y22655D02*
X159201Y25542D01*
G01D02*
X162088Y28429D01*
G01X156314D02*
X159201Y25542D01*
G01D02*
X162088Y22655D01*
G01X156314Y32655D02*
X159201Y35542D01*
G01D02*
X162088Y38429D01*
G01X156314D02*
X159201Y35542D01*
G01D02*
X162088Y32655D01*
G01X156314Y42655D02*
X159201Y45542D01*
G01D02*
X162088Y48429D01*
G01X156314D02*
X159201Y45542D01*
G01D02*
X162088Y42655D01*
G01X176314Y82655D02*
X179201Y85542D01*
G01D02*
X182088Y88429D01*
G01X176314D02*
X179201Y85542D01*
G01D02*
X182088Y82655D01*
G01X170064Y254717D02*
X174796Y259449D01*
G01D02*
X179528Y264181D01*
G01X170064D02*
X174796Y259449D01*
G01D02*
X179528Y254717D01*
G01X148590Y230527D02*
X151095Y233032D01*
G01D02*
X153600Y235536D01*
G01X151095Y233032D02*
X153600Y230527D01*
G01X146174Y248780D02*
X148985Y251590D01*
G01X143363D02*
X146174Y248780D01*
G01X196314Y12655D02*
X199201Y15542D01*
G01D02*
X202088Y18429D01*
G01X196314D02*
X199201Y15542D01*
G01D02*
X202088Y12655D01*
G01X196314Y42655D02*
X199201Y45542D01*
G01D02*
X202088Y48429D01*
G01X196314D02*
X199201Y45542D01*
G01D02*
X202088Y42655D01*
G01X216314Y52655D02*
X219201Y55542D01*
G01D02*
X222088Y58429D01*
G01X216314D02*
X219201Y55542D01*
G01D02*
X222088Y52655D01*
G01X236314Y42655D02*
X239201Y45542D01*
G01D02*
X242088Y48429D01*
G01X236314D02*
X239201Y45542D01*
G01D02*
X242088Y42655D01*
G01X196314Y72655D02*
X199201Y75542D01*
G01D02*
X202088Y78429D01*
G01X196314D02*
X199201Y75542D01*
G01D02*
X202088Y72655D01*
G01X196314Y82655D02*
X199201Y85542D01*
G01D02*
X202088Y88429D01*
G01X196314D02*
X199201Y85542D01*
G01D02*
X202088Y82655D01*
G01X216314D02*
X219201Y85542D01*
G01D02*
X222088Y88429D01*
G01X216314D02*
X219201Y85542D01*
G01D02*
X222088Y82655D01*
G01X236314Y72655D02*
X239201Y75542D01*
G01D02*
X242088Y78429D01*
G01X236314D02*
X239201Y75542D01*
G01D02*
X242088Y72655D01*
G01X277551Y207379D02*
X280474Y210302D01*
G01D02*
X283396Y213224D01*
G01X277551D02*
X280474Y210302D01*
G01D02*
X283396Y207379D01*
G01X271296Y179943D02*
X274774Y183422D01*
G01D02*
X278254Y186901D01*
G01X271296D02*
X274774Y183422D01*
G01D02*
X278254Y179943D01*
G01X277551Y232979D02*
X280474Y235902D01*
G01D02*
X283396Y238824D01*
G01X277551D02*
X280474Y235902D01*
G01D02*
X283396Y232979D01*
G54D15*
X87830Y26575D03*
X274774Y163422D03*
Y183422D03*
G54D16*
X127394Y259449D03*
X174796D03*
G54D17*
X146174Y240906D03*
G54D18*
Y248780D03*
G54D19*
X151095Y233032D03*
M02*
