M48
INCH,TZ
T01C.012
T02C.027559
T03C.035
T04C.03622
T05C.03937
T06C.04
T07C.051181
T08C.055118
T09C.09
T10C.090551
T11C.177165
T12C.035433
T13C.049213
T14C.068898
;LEADER: 12 
;HEADER: 
;CODE  : ASCII 
;FILE  : OC_CONNECT-1_BREAKOUT_LIFE-3-1-4.drl for  ... layers TOP and BOTTOM
;DESIGN: OC_CONNECT-1_BREAKOUT_LIFE-3.brd
;T01 Holesize 1. = 12.000000 Tolerance = +3.000000/-12.000000 PLATED MILS Quantity = 178
;T02 Holesize 2. = 27.559000 Tolerance = +3.000000/-3.000000 PLATED MILS Quantity = 5
;T03 Holesize 3. = 35.000000 Tolerance = +3.000000/-3.000000 PLATED MILS Quantity = 16
;T04 Holesize 4. = 36.220000 Tolerance = +3.000000/-3.000000 PLATED MILS Quantity = 4
;T05 Holesize 5. = 39.370000 Tolerance = +3.000000/-3.000000 PLATED MILS Quantity = 4
;T06 Holesize 6. = 40.000000 Tolerance = +3.000000/-3.000000 PLATED MILS Quantity = 48
;T07 Holesize 7. = 51.181000 Tolerance = +3.000000/-3.000000 PLATED MILS Quantity = 4
;T08 Holesize 8. = 55.118000 Tolerance = +3.000000/-3.000000 PLATED MILS Quantity = 4
;T09 Holesize 9. = 90.000000 Tolerance = +3.000000/-3.000000 PLATED MILS Quantity = 3
;T10 Holesize 10. = 90.551000 Tolerance = +3.000000/-3.000000 PLATED MILS Quantity = 2
;T11 Holesize 11. = 177.165000 Tolerance = +3.000000/-3.000000 PLATED MILS Quantity = 4
;T12 Holesize 12. = 35.433000 Tolerance = +2.000000/-2.000000 NON_PLATED MILS Quantity = 12
;T13 Holesize 13. = 49.213000 Tolerance = +2.000000/-2.000000 NON_PLATED MILS Quantity = 3
;T14 Holesize 14. = 68.898000 Tolerance = +2.000000/-2.000000 NON_PLATED MILS Quantity = 1
%
G90
T01
X156391Y226266
X152739Y226266
X169685Y138464
X185433Y138464
X138189Y147913
X184145Y148375
X185433Y133740
X176271Y134202
X108000Y189000
X130315Y185709
X146063Y185709
X169000Y191000
X114567Y185709
X169685Y185709
X169685Y129016
X161811Y147913
X169685Y147913
X177559Y147913
X146063Y147913
X122441Y133740
X138189Y133740
X177559Y143189
X161811Y138464
X122441Y138464
X122441Y147913
X130315Y147913
X45500Y101000
X50500Y101000
X50500Y105000
X55000Y105000
X55000Y101000
X45500Y105000
X177559Y176260
X177559Y180984
X167734Y206892
X156391Y208809
X167734Y210544
X152740Y208809
X139634Y220000
X177559Y162087
X135982Y220000
X177559Y166811
X114567Y157362
X169685Y143189
X161811Y143189
X122441Y143189
X177559Y138464
X106693Y129016
X114567Y147913
X106693Y133740
X106693Y138464
X114567Y133740
X114567Y138464
X114567Y143189
X138189Y162087
X100500Y202500
X114567Y166811
X122441Y166811
X122441Y180984
X138189Y166811
X122441Y162087
X122441Y176260
X130315Y138464
X138189Y143189
X130315Y143189
X138189Y138464
X146063Y143189
X146063Y138464
X161811Y166811
X161811Y162087
X44233Y84850
X58307Y84850
X85898Y79479
X151219Y211819
X151219Y220863
X122441Y171535
X130315Y133740
X122441Y185709
X106693Y171535
X114567Y180984
X130315Y157362
X114567Y129016
X138189Y185709
X138189Y171535
X138189Y157362
X114567Y176260
X122441Y157362
X146063Y171535
X146063Y176260
X146063Y180984
X161811Y171535
X161811Y129016
X161811Y157362
X169685Y157362
X169685Y133740
X169685Y162087
X169685Y166811
X169685Y171535
X169685Y176260
X169685Y180984
X177559Y185709
X177559Y171535
X177559Y129016
X177559Y157362
X185433Y157362
X185433Y143189
X185433Y162087
X185433Y166811
X185433Y171535
X185433Y176260
X185433Y180984
X122500Y125500
X122441Y129016
X114567Y162087
X146063Y166811
X146063Y162087
X114567Y171535
X146063Y133740
X146063Y157362
X130315Y180984
X130315Y176260
X130315Y171535
X130315Y166811
X130315Y162087
X153937Y180984
X106114Y154114
X147574Y121000
X169685Y124291
X131826Y121000
X128174Y121000
X143922Y121000
X37458Y206328
X37458Y175728
X129769Y70731
X102155Y45691
X102155Y50691
X102155Y55691
X114567Y124291
X106693Y124291
X37458Y146308
X95673Y71813
X25254Y206328
X25254Y175728
X25254Y146308
X117565Y71000
X138189Y124291
X161811Y124291
X177559Y124291
X281287Y85010
X205500Y114000
X281154Y116733
X268950Y116733
X269083Y85010
X239000Y143500
X245500Y146000
X192019Y148375
X194348Y136102
X216000Y139000
X192178Y175796
X192178Y180520
X202367Y173951
X198715Y173951
X204028Y126654
X200743Y131378
X249581Y172419
X193307Y185709
X228621Y262000
X207202Y260500
X196702Y260798
X240071Y225519
X197066Y248934
X197066Y241060
X251349Y231652
X228621Y291379
X217702Y291296
X207202Y291296
X196702Y291296
X211500Y241060
T02
X141252Y233032
X151095Y233032
X160938Y233032
X134363Y233032
X167827Y233032
T03
X100480Y261200
X100480Y251200
X100480Y271200
X100480Y241200
X130387Y34851
X130387Y44851
X58201Y177734
X58201Y187734
X58201Y167734
X58201Y197734
X130387Y24851
X130387Y14851
X82061Y261601
X82061Y251601
X82061Y271601
X82061Y241601
T04
X146174Y248780
X156016Y248780
X146174Y240906
X156016Y240906
T05
X280474Y210301
X262774Y210301
X280474Y235901
X262774Y235901
T06
X179201Y25542
X179201Y35542
X179201Y45542
X179201Y55542
X179201Y65542
X179201Y75542
X179201Y85542
X64662Y219013
X199201Y15542
X219201Y15542
X239201Y15542
X159201Y25542
X159201Y35542
X159201Y45542
X159201Y55542
X159201Y65542
X159201Y75542
X159201Y85542
X179201Y15542
X64662Y289013
X64662Y279013
X64662Y269013
X64662Y259013
X64662Y249013
X64662Y239013
X64662Y229013
X199201Y25542
X199201Y35542
X199201Y45542
X199201Y55542
X199201Y65542
X199201Y75542
X199201Y85542
X219201Y25542
X219201Y35542
X219201Y45542
X219201Y55542
X219201Y65542
X219201Y75542
X219201Y85542
X239201Y25542
X239201Y35542
X239201Y45542
X239201Y55542
X239201Y65542
X239201Y75542
X239201Y85542
X159201Y15542
T07
X98819Y150472
X98819Y159528
X201181Y150472
X201181Y159528
T08
X67830Y26575
X87830Y26575
X274774Y163422
X274774Y183422
T09
X26562Y81067
X26562Y99571
X26562Y118075
T10
X127394Y259449
X174796Y259449
T11
X25000Y25000
X275000Y25000
X25000Y275000
X275000Y275000
T12
X137053Y87515
X110281Y87515
X44742Y190496
X17970Y190496
X44742Y161076
X17970Y161076
X44742Y221096
X17970Y221096
X261799Y99778
X288571Y99778
X288438Y131501
X261666Y131501
T13
X86417Y129409
X213583Y129409
X213583Y180590
T14
X86417Y180590
M30
