G04 ================== begin FILE IDENTIFICATION RECORD ==================*
G04 Layout Name:  OC_CONNECT-1_BREAKOUT_LIFE-3.brd*
G04 Film Name:    PMT*
G04 File Format:  Gerber RS274X*
G04 File Origin:  Cadence Allegro 16.6-2015-S065*
G04 Origin Date:  Thu Jan 05 18:33:40 2017*
G04 *
G04 Layer:  PIN/PASTEMASK_TOP*
G04 Layer:  PACKAGE GEOMETRY/PASTEMASK_TOP*
G04 Layer:  DRAWING FORMAT/SPPR*
G04 Layer:  DRAWING FORMAT/FILM_LABEL_OUTLINE*
G04 Layer:  BOARD GEOMETRY/OUTLINE*
G04 *
G04 Offset:    (0.000 0.000)*
G04 Mirror:    No*
G04 Mode:      Positive*
G04 Rotation:  0*
G04 FullContactRelief:  No*
G04 UndefLineWidth:     6.000*
G04 ================== end FILE IDENTIFICATION RECORD ====================*
%FSLAX25Y25*MOIN*%
%IR0*IPPOS*OFA0.00000B0.00000*MIA0B0*SFA1.00000B1.00000*%
%ADD15R,.007874X.026575*%
%ADD14R,.04X.043*%
%ADD17R,.059X.051*%
%ADD13R,.021X.021*%
%ADD18R,.031X.031*%
%ADD11C,.03937*%
%ADD19R,.043307X.043307*%
%ADD16R,.015748X.061024*%
%ADD12R,.062992X.047244*%
%ADD10R,.047244X.062992*%
%ADD20C,.006*%
%ADD21C,.01*%
G75*
%LPD*%
G75*
G54D10*
X21514Y155564D03*
Y215584D03*
Y184984D03*
X31356Y166588D03*
X41199Y155564D03*
Y215584D03*
X31356Y196008D03*
X41199Y184984D03*
X31356Y226608D03*
X113824Y82003D03*
X123667Y93027D03*
X133510Y82003D03*
X265343Y94266D03*
X275185Y105290D03*
X285028Y94266D03*
X265209Y125989D03*
X275052Y137013D03*
X284894Y125989D03*
G54D20*
G01X-143139Y-71300D02*
X-143889Y-70800D01*
X-144764Y-70467D01*
X-145764D01*
X-146889Y-70967D01*
X-147764Y-71800D01*
X-148389Y-72800D01*
X-148889Y-74467D01*
X-149014Y-75967D01*
X-148764Y-77467D01*
X-148389Y-78467D01*
X-147639Y-79467D01*
X-146764Y-80134D01*
X-145889Y-80467D01*
X-145014D01*
X-144139Y-80134D01*
X-143389Y-79634D01*
X-142764Y-78967D01*
G01X-139014Y-80467D02*
X-135889Y-70467D01*
X-132764Y-80467D01*
G01X-133889Y-76967D02*
X-137889D01*
G01X-128389Y-80467D02*
Y-70467D01*
X-125264D01*
X-124264Y-70967D01*
X-123639Y-71634D01*
X-123389Y-72967D01*
X-123639Y-74300D01*
X-124389Y-75134D01*
X-125264Y-75634D01*
X-128389D01*
G01X-125264D02*
X-123389Y-80467D01*
G01X-118639D02*
Y-70467D01*
X-116139D01*
X-115139Y-70967D01*
X-114389Y-71634D01*
X-113764Y-72634D01*
X-113264Y-73800D01*
X-113139Y-75467D01*
X-113264Y-77134D01*
X-113764Y-78300D01*
X-114389Y-79301D01*
X-115139Y-79967D01*
X-116139Y-80467D01*
X-118639D01*
G01X-98389D02*
Y-70467D01*
X-95264D01*
X-94264Y-70967D01*
X-93639Y-71634D01*
X-93389Y-72967D01*
X-93639Y-74300D01*
X-94389Y-75134D01*
X-95264Y-75634D01*
X-98389D01*
G01X-95264D02*
X-93389Y-80467D01*
G01X-83389D02*
X-88389D01*
Y-70467D01*
X-83389D01*
G01X-85389Y-75300D02*
X-88389D01*
G01X-78264Y-80467D02*
Y-70467D01*
X-73514D01*
G01X-75264Y-75300D02*
X-78264D01*
G01X-65889Y-80800D02*
X-66139Y-80634D01*
Y-80300D01*
X-65889Y-80134D01*
X-65639Y-80300D01*
Y-80634D01*
X-65889Y-80800D01*
G01Y-76301D02*
X-66139Y-76134D01*
Y-75800D01*
X-65889Y-75634D01*
X-65639Y-75800D01*
Y-76134D01*
X-65889Y-76301D01*
G01X-55889Y-80467D02*
X-56889Y-80300D01*
X-57764Y-79634D01*
X-58514Y-78634D01*
X-59014Y-77467D01*
X-59264Y-76134D01*
Y-74800D01*
X-59014Y-73467D01*
X-58514Y-72300D01*
X-57764Y-71300D01*
X-56889Y-70634D01*
X-55889Y-70467D01*
X-54889Y-70634D01*
X-54014Y-71300D01*
X-53264Y-72300D01*
X-52764Y-73467D01*
X-52514Y-74800D01*
Y-76134D01*
X-52764Y-77467D01*
X-53264Y-78634D01*
X-54014Y-79634D01*
X-54889Y-80300D01*
X-55889Y-80467D01*
G01X-48389D02*
Y-70467D01*
X-45389D01*
X-44389Y-70967D01*
X-43639Y-72134D01*
X-43389Y-73467D01*
X-43639Y-74800D01*
X-44264Y-75800D01*
X-45389Y-76301D01*
X-48389D01*
G01X-33389Y-80467D02*
X-38389D01*
Y-70467D01*
X-33389D01*
G01X-35389Y-75300D02*
X-38389D01*
G01X-28764Y-80467D02*
Y-70467D01*
X-23014Y-80467D01*
Y-70467D01*
G01X-13139Y-71300D02*
X-13889Y-70800D01*
X-14764Y-70467D01*
X-15764D01*
X-16889Y-70967D01*
X-17764Y-71800D01*
X-18389Y-72800D01*
X-18889Y-74467D01*
X-19014Y-75967D01*
X-18764Y-77467D01*
X-18389Y-78467D01*
X-17639Y-79467D01*
X-16764Y-80134D01*
X-15889Y-80467D01*
X-15014D01*
X-14139Y-80134D01*
X-13389Y-79634D01*
X-12764Y-78967D01*
G01X-3389Y-80467D02*
X-8389D01*
Y-70467D01*
X-3389D01*
G01X-5389Y-75300D02*
X-8389D01*
G01X1611Y-70467D02*
Y-80467D01*
X6611D01*
G01X11611Y-70467D02*
Y-80467D01*
X16611D01*
G01X21361Y-70467D02*
Y-77634D01*
X21861Y-79134D01*
X22861Y-80134D01*
X24111Y-80467D01*
X25361Y-80134D01*
X26361Y-79134D01*
X26861Y-77634D01*
Y-70467D01*
G01X31611D02*
Y-80467D01*
X36611D01*
G01X40986D02*
X44111Y-70467D01*
X47236Y-80467D01*
G01X46111Y-76967D02*
X42111D01*
G01X51611Y-80467D02*
Y-70467D01*
X54736D01*
X55736Y-70967D01*
X56361Y-71634D01*
X56611Y-72967D01*
X56361Y-74300D01*
X55611Y-75134D01*
X54736Y-75634D01*
X51611D01*
G01X54736D02*
X56611Y-80467D01*
G01X74111D02*
Y-70467D01*
G01X86861Y-71300D02*
X86111Y-70800D01*
X85236Y-70467D01*
X84236D01*
X83111Y-70967D01*
X82236Y-71800D01*
X81611Y-72800D01*
X81111Y-74467D01*
X80986Y-75967D01*
X81236Y-77467D01*
X81611Y-78467D01*
X82361Y-79467D01*
X83236Y-80134D01*
X84111Y-80467D01*
X84986D01*
X85861Y-80134D01*
X86611Y-79634D01*
X87236Y-78967D01*
G01X94111Y-80467D02*
X93111Y-80300D01*
X92236Y-79634D01*
X91486Y-78634D01*
X90986Y-77467D01*
X90736Y-76134D01*
Y-74800D01*
X90986Y-73467D01*
X91486Y-72300D01*
X92236Y-71300D01*
X93111Y-70634D01*
X94111Y-70467D01*
X95111Y-70634D01*
X95986Y-71300D01*
X96736Y-72300D01*
X97236Y-73467D01*
X97486Y-74800D01*
Y-76134D01*
X97236Y-77467D01*
X96736Y-78634D01*
X95986Y-79634D01*
X95111Y-80300D01*
X94111Y-80467D01*
G01X101236D02*
Y-70467D01*
X106986Y-80467D01*
Y-70467D01*
G01X111236Y-80467D02*
Y-70467D01*
X116986Y-80467D01*
Y-70467D01*
G01X126611Y-80467D02*
X121611D01*
Y-70467D01*
X126611D01*
G01X124611Y-75300D02*
X121611D01*
G01X136861Y-71300D02*
X136111Y-70800D01*
X135236Y-70467D01*
X134236D01*
X133111Y-70967D01*
X132236Y-71800D01*
X131611Y-72800D01*
X131111Y-74467D01*
X130986Y-75967D01*
X131236Y-77467D01*
X131611Y-78467D01*
X132361Y-79467D01*
X133236Y-80134D01*
X134111Y-80467D01*
X134986D01*
X135861Y-80134D01*
X136611Y-79634D01*
X137236Y-78967D01*
G01X144111Y-70467D02*
Y-80467D01*
G01X141236Y-70467D02*
X146986D01*
G01X152486Y-77134D02*
X155736D01*
G01X164111Y-80467D02*
Y-70467D01*
X162611Y-72467D01*
G01Y-80467D02*
X165611D01*
G01X184111D02*
Y-70467D01*
G01X195111Y-75134D02*
X195611Y-74634D01*
X195986Y-73800D01*
X196236Y-72634D01*
X195986Y-71634D01*
X195486Y-70967D01*
X194611Y-70467D01*
X191236D01*
Y-80467D01*
X195361D01*
X196236Y-79800D01*
X196736Y-78800D01*
X196986Y-77634D01*
X196736Y-76467D01*
X195986Y-75467D01*
X195111Y-75134D01*
X191236D01*
G01X201611Y-80467D02*
Y-70467D01*
X204736D01*
X205736Y-70967D01*
X206361Y-71634D01*
X206611Y-72967D01*
X206361Y-74300D01*
X205611Y-75134D01*
X204736Y-75634D01*
X201611D01*
G01X204736D02*
X206611Y-80467D01*
G01X216611D02*
X211611D01*
Y-70467D01*
X216611D01*
G01X214611Y-75300D02*
X211611D01*
G01X220986Y-80467D02*
X224111Y-70467D01*
X227236Y-80467D01*
G01X226111Y-76967D02*
X222111D01*
G01X231361Y-80467D02*
Y-70467D01*
G01X236111D02*
X231361Y-76634D01*
G01X236861Y-80467D02*
X233486Y-73800D01*
G01X244111Y-80467D02*
X243111Y-80300D01*
X242236Y-79634D01*
X241486Y-78634D01*
X240986Y-77467D01*
X240736Y-76134D01*
Y-74800D01*
X240986Y-73467D01*
X241486Y-72300D01*
X242236Y-71300D01*
X243111Y-70634D01*
X244111Y-70467D01*
X245111Y-70634D01*
X245986Y-71300D01*
X246736Y-72300D01*
X247236Y-73467D01*
X247486Y-74800D01*
Y-76134D01*
X247236Y-77467D01*
X246736Y-78634D01*
X245986Y-79634D01*
X245111Y-80300D01*
X244111Y-80467D01*
G01X251361Y-70467D02*
Y-77634D01*
X251861Y-79134D01*
X252861Y-80134D01*
X254111Y-80467D01*
X255361Y-80134D01*
X256361Y-79134D01*
X256861Y-77634D01*
Y-70467D01*
G01X264111D02*
Y-80467D01*
G01X261236Y-70467D02*
X266986D01*
G01X285111Y-75134D02*
X285611Y-74634D01*
X285986Y-73800D01*
X286236Y-72634D01*
X285986Y-71634D01*
X285486Y-70967D01*
X284611Y-70467D01*
X281236D01*
Y-80467D01*
X285361D01*
X286236Y-79800D01*
X286736Y-78800D01*
X286986Y-77634D01*
X286736Y-76467D01*
X285986Y-75467D01*
X285111Y-75134D01*
X281236D01*
G01X294111Y-80467D02*
X293111Y-80300D01*
X292236Y-79634D01*
X291486Y-78634D01*
X290986Y-77467D01*
X290736Y-76134D01*
Y-74800D01*
X290986Y-73467D01*
X291486Y-72300D01*
X292236Y-71300D01*
X293111Y-70634D01*
X294111Y-70467D01*
X295111Y-70634D01*
X295986Y-71300D01*
X296736Y-72300D01*
X297236Y-73467D01*
X297486Y-74800D01*
Y-76134D01*
X297236Y-77467D01*
X296736Y-78634D01*
X295986Y-79634D01*
X295111Y-80300D01*
X294111Y-80467D01*
G01X300986D02*
X304111Y-70467D01*
X307236Y-80467D01*
G01X306111Y-76967D02*
X302111D01*
G01X311611Y-80467D02*
Y-70467D01*
X314736D01*
X315736Y-70967D01*
X316361Y-71634D01*
X316611Y-72967D01*
X316361Y-74300D01*
X315611Y-75134D01*
X314736Y-75634D01*
X311611D01*
G01X314736D02*
X316611Y-80467D01*
G01X321361D02*
Y-70467D01*
X323861D01*
X324861Y-70967D01*
X325611Y-71634D01*
X326236Y-72634D01*
X326736Y-73800D01*
X326861Y-75467D01*
X326736Y-77134D01*
X326236Y-78300D01*
X325611Y-79301D01*
X324861Y-79967D01*
X323861Y-80467D01*
X321361D01*
G01X-150564Y-101067D02*
Y-91067D01*
X-145814D01*
G01X-147564Y-95900D02*
X-150564D01*
G01X-139689Y-91067D02*
X-136689D01*
G01X-138189D02*
Y-101067D01*
G01X-139689D02*
X-136689D01*
G01X-130689Y-91067D02*
Y-101067D01*
X-125689D01*
G01X-121439D02*
Y-91067D01*
X-118189Y-99400D01*
X-114939Y-91067D01*
Y-101067D01*
G01X-100689Y-91067D02*
Y-101067D01*
X-95689D01*
G01X-91314D02*
X-88189Y-91067D01*
X-85064Y-101067D01*
G01X-86189Y-97567D02*
X-90189D01*
G01X-78189Y-101067D02*
Y-96567D01*
X-80689Y-91067D01*
G01X-75689D02*
X-78189Y-96567D01*
G01X-65689Y-101067D02*
X-70689D01*
Y-91067D01*
X-65689D01*
G01X-67689Y-95900D02*
X-70689D01*
G01X-60689Y-101067D02*
Y-91067D01*
X-57564D01*
X-56564Y-91567D01*
X-55939Y-92234D01*
X-55689Y-93567D01*
X-55939Y-94900D01*
X-56689Y-95734D01*
X-57564Y-96234D01*
X-60689D01*
G01X-57564D02*
X-55689Y-101067D01*
G01X-48189Y-101400D02*
X-48439Y-101234D01*
Y-100900D01*
X-48189Y-100734D01*
X-47939Y-100900D01*
Y-101234D01*
X-48189Y-101400D01*
G01Y-96901D02*
X-48439Y-96734D01*
Y-96400D01*
X-48189Y-96234D01*
X-47939Y-96400D01*
Y-96734D01*
X-48189Y-96901D01*
G01X-148639Y-60467D02*
Y-50467D01*
X-146139D01*
X-145139Y-50967D01*
X-144389Y-51634D01*
X-143764Y-52634D01*
X-143264Y-53800D01*
X-143139Y-55467D01*
X-143264Y-57134D01*
X-143764Y-58300D01*
X-144389Y-59301D01*
X-145139Y-59967D01*
X-146139Y-60467D01*
X-148639D01*
G01X-133389D02*
X-138389D01*
Y-50467D01*
X-133389D01*
G01X-135389Y-55300D02*
X-138389D01*
G01X-128514Y-59134D02*
X-127514Y-59967D01*
X-126389Y-60467D01*
X-125389D01*
X-124389Y-59967D01*
X-123639Y-59134D01*
X-123264Y-57967D01*
X-123514Y-56800D01*
X-124139Y-55800D01*
X-125264Y-55134D01*
X-126764Y-54800D01*
X-127639Y-54134D01*
X-128014Y-52967D01*
X-127764Y-51800D01*
X-127139Y-50967D01*
X-126264Y-50467D01*
X-125389D01*
X-124514Y-50800D01*
X-123764Y-51634D01*
G01X-117389Y-50467D02*
X-114389D01*
G01X-115889D02*
Y-60467D01*
G01X-117389D02*
X-114389D01*
G01X-105139Y-55467D02*
X-102639D01*
Y-58467D01*
X-103389Y-59467D01*
X-104264Y-60134D01*
X-105514Y-60467D01*
X-106764Y-60134D01*
X-107639Y-59467D01*
X-108389Y-58467D01*
X-108889Y-57300D01*
X-109139Y-55967D01*
Y-54800D01*
X-108889Y-53800D01*
X-108389Y-52634D01*
X-107639Y-51634D01*
X-106889Y-50967D01*
X-105889Y-50467D01*
X-105014D01*
X-104014Y-50800D01*
X-103264Y-51467D01*
G01X-98764Y-60467D02*
Y-50467D01*
X-93014Y-60467D01*
Y-50467D01*
G01X-83389Y-60467D02*
X-88389D01*
Y-50467D01*
X-83389D01*
G01X-85389Y-55300D02*
X-88389D01*
G01X-78639Y-60467D02*
Y-50467D01*
X-76139D01*
X-75139Y-50967D01*
X-74389Y-51634D01*
X-73764Y-52634D01*
X-73264Y-53800D01*
X-73139Y-55467D01*
X-73264Y-57134D01*
X-73764Y-58300D01*
X-74389Y-59301D01*
X-75139Y-59967D01*
X-76139Y-60467D01*
X-78639D01*
G01X-59014D02*
X-55889Y-50467D01*
X-52764Y-60467D01*
G01X-53889Y-56967D02*
X-57889D01*
G01X-45889Y-50467D02*
Y-60467D01*
G01X-48764Y-50467D02*
X-43014D01*
G01X-35889Y-60800D02*
X-36139Y-60634D01*
Y-60300D01*
X-35889Y-60134D01*
X-35639Y-60300D01*
Y-60634D01*
X-35889Y-60800D01*
G01Y-56301D02*
X-36139Y-56134D01*
Y-55800D01*
X-35889Y-55634D01*
X-35639Y-55800D01*
Y-56134D01*
X-35889Y-56301D01*
G01X-148439Y-41267D02*
Y-31267D01*
X-145939D01*
X-144939Y-31767D01*
X-144189Y-32434D01*
X-143564Y-33434D01*
X-143064Y-34600D01*
X-142939Y-36267D01*
X-143064Y-37934D01*
X-143564Y-39100D01*
X-144189Y-40101D01*
X-144939Y-40767D01*
X-145939Y-41267D01*
X-148439D01*
G01X-138814D02*
X-135689Y-31267D01*
X-132564Y-41267D01*
G01X-133689Y-37767D02*
X-137689D01*
G01X-125689Y-31267D02*
Y-41267D01*
G01X-128564Y-31267D02*
X-122814D01*
G01X-113189Y-41267D02*
X-118189D01*
Y-31267D01*
X-113189D01*
G01X-115189Y-36100D02*
X-118189D01*
G01X-105689Y-41600D02*
X-105939Y-41434D01*
Y-41100D01*
X-105689Y-40934D01*
X-105439Y-41100D01*
Y-41434D01*
X-105689Y-41600D01*
G01Y-37101D02*
X-105939Y-36934D01*
Y-36600D01*
X-105689Y-36434D01*
X-105439Y-36600D01*
Y-36934D01*
X-105689Y-37101D01*
G01X-95689Y-31267D02*
X-96689Y-31600D01*
X-97439Y-32434D01*
X-97939Y-33434D01*
X-98314Y-34767D01*
X-98439Y-36267D01*
X-98314Y-37767D01*
X-97939Y-39100D01*
X-97439Y-40101D01*
X-96689Y-40934D01*
X-95689Y-41267D01*
X-94689Y-40934D01*
X-93939Y-40101D01*
X-93439Y-39100D01*
X-93064Y-37767D01*
X-92939Y-36267D01*
X-93064Y-34767D01*
X-93439Y-33434D01*
X-93939Y-32434D01*
X-94689Y-31600D01*
X-95689Y-31267D01*
G01X-85689Y-41267D02*
Y-31267D01*
X-87189Y-33267D01*
G01Y-41267D02*
X-84189D01*
G01X-77314Y-37934D02*
X-74064D01*
G01X-65689Y-31267D02*
X-66689Y-31600D01*
X-67439Y-32434D01*
X-67939Y-33434D01*
X-68314Y-34767D01*
X-68439Y-36267D01*
X-68314Y-37767D01*
X-67939Y-39100D01*
X-67439Y-40101D01*
X-66689Y-40934D01*
X-65689Y-41267D01*
X-64689Y-40934D01*
X-63939Y-40101D01*
X-63439Y-39100D01*
X-63064Y-37767D01*
X-62939Y-36267D01*
X-63064Y-34767D01*
X-63439Y-33434D01*
X-63939Y-32434D01*
X-64689Y-31600D01*
X-65689Y-31267D01*
G01X-58439Y-39767D02*
X-57689Y-40600D01*
X-56814Y-41100D01*
X-55689Y-41267D01*
X-54564Y-40934D01*
X-53689Y-40267D01*
X-53064Y-39100D01*
X-52939Y-37767D01*
X-53189Y-36434D01*
X-53814Y-35600D01*
X-54689Y-34934D01*
X-55564Y-34767D01*
X-56439Y-34934D01*
X-57564Y-35600D01*
X-57189Y-31267D01*
X-53814D01*
G01X-47314Y-37934D02*
X-44064D01*
G01X-38064Y-32934D02*
X-37314Y-31934D01*
X-36439Y-31434D01*
X-35439Y-31267D01*
X-34189Y-31600D01*
X-33314Y-32434D01*
X-33064Y-33434D01*
X-33189Y-34434D01*
X-33689Y-35267D01*
X-36189Y-36934D01*
X-37314Y-38100D01*
X-38064Y-39767D01*
X-38314Y-41267D01*
X-33064D01*
G01X-25689Y-31267D02*
X-26689Y-31600D01*
X-27439Y-32434D01*
X-27939Y-33434D01*
X-28314Y-34767D01*
X-28439Y-36267D01*
X-28314Y-37767D01*
X-27939Y-39100D01*
X-27439Y-40101D01*
X-26689Y-40934D01*
X-25689Y-41267D01*
X-24689Y-40934D01*
X-23939Y-40101D01*
X-23439Y-39100D01*
X-23064Y-37767D01*
X-22939Y-36267D01*
X-23064Y-34767D01*
X-23439Y-33434D01*
X-23939Y-32434D01*
X-24689Y-31600D01*
X-25689Y-31267D01*
G01X-15689Y-41267D02*
Y-31267D01*
X-17189Y-33267D01*
G01Y-41267D02*
X-14189D01*
G01X-5939D02*
X-5689Y-39100D01*
X-5314Y-37267D01*
X-4814Y-35600D01*
X-4189Y-33767D01*
X-3189Y-31267D01*
X-8189D01*
G01X-16714Y-99134D02*
X-15714Y-99967D01*
X-14589Y-100467D01*
X-13589D01*
X-12589Y-99967D01*
X-11839Y-99134D01*
X-11464Y-97967D01*
X-11714Y-96800D01*
X-12339Y-95800D01*
X-13464Y-95134D01*
X-14964Y-94800D01*
X-15839Y-94134D01*
X-16214Y-92967D01*
X-15964Y-91800D01*
X-15339Y-90967D01*
X-14464Y-90467D01*
X-13589D01*
X-12714Y-90800D01*
X-11964Y-91634D01*
G01X-4089Y-100467D02*
X-5089Y-100300D01*
X-5964Y-99634D01*
X-6714Y-98634D01*
X-7214Y-97467D01*
X-7464Y-96134D01*
Y-94800D01*
X-7214Y-93467D01*
X-6714Y-92300D01*
X-5964Y-91300D01*
X-5089Y-90634D01*
X-4089Y-90467D01*
X-3089Y-90634D01*
X-2214Y-91300D01*
X-1464Y-92300D01*
X-964Y-93467D01*
X-714Y-94800D01*
Y-96134D01*
X-964Y-97467D01*
X-1464Y-98634D01*
X-2214Y-99634D01*
X-3089Y-100300D01*
X-4089Y-100467D01*
G01X3411Y-90467D02*
Y-100467D01*
X8411D01*
G01X13161D02*
Y-90467D01*
X15661D01*
X16661Y-90967D01*
X17411Y-91634D01*
X18036Y-92634D01*
X18536Y-93800D01*
X18661Y-95467D01*
X18536Y-97134D01*
X18036Y-98300D01*
X17411Y-99301D01*
X16661Y-99967D01*
X15661Y-100467D01*
X13161D01*
G01X28411D02*
X23411D01*
Y-90467D01*
X28411D01*
G01X26411Y-95300D02*
X23411D01*
G01X33411Y-100467D02*
Y-90467D01*
X36536D01*
X37536Y-90967D01*
X38161Y-91634D01*
X38411Y-92967D01*
X38161Y-94300D01*
X37411Y-95134D01*
X36536Y-95634D01*
X33411D01*
G01X36536D02*
X38411Y-100467D01*
G01X53411D02*
Y-90467D01*
X56411D01*
X57411Y-90967D01*
X58161Y-92134D01*
X58411Y-93467D01*
X58161Y-94800D01*
X57536Y-95800D01*
X56411Y-96301D01*
X53411D01*
G01X62786Y-100467D02*
X65911Y-90467D01*
X69036Y-100467D01*
G01X67911Y-96967D02*
X63911D01*
G01X73286Y-99134D02*
X74286Y-99967D01*
X75411Y-100467D01*
X76411D01*
X77411Y-99967D01*
X78161Y-99134D01*
X78536Y-97967D01*
X78286Y-96800D01*
X77661Y-95800D01*
X76536Y-95134D01*
X75036Y-94800D01*
X74161Y-94134D01*
X73786Y-92967D01*
X74036Y-91800D01*
X74661Y-90967D01*
X75536Y-90467D01*
X76411D01*
X77286Y-90800D01*
X78036Y-91634D01*
G01X85911Y-90467D02*
Y-100467D01*
G01X83036Y-90467D02*
X88786D01*
G01X98411Y-100467D02*
X93411D01*
Y-90467D01*
X98411D01*
G01X96411Y-95300D02*
X93411D01*
G01X115911Y-90467D02*
Y-100467D01*
G01X113036Y-90467D02*
X118786D01*
G01X125911Y-100467D02*
X124911Y-100300D01*
X124036Y-99634D01*
X123286Y-98634D01*
X122786Y-97467D01*
X122536Y-96134D01*
Y-94800D01*
X122786Y-93467D01*
X123286Y-92300D01*
X124036Y-91300D01*
X124911Y-90634D01*
X125911Y-90467D01*
X126911Y-90634D01*
X127786Y-91300D01*
X128536Y-92300D01*
X129036Y-93467D01*
X129286Y-94800D01*
Y-96134D01*
X129036Y-97467D01*
X128536Y-98634D01*
X127786Y-99634D01*
X126911Y-100300D01*
X125911Y-100467D01*
G01X133411D02*
Y-90467D01*
X136411D01*
X137411Y-90967D01*
X138161Y-92134D01*
X138411Y-93467D01*
X138161Y-94800D01*
X137536Y-95800D01*
X136411Y-96301D01*
X133411D01*
G01X105811Y-41267D02*
Y-31267D01*
X108811D01*
X109811Y-31767D01*
X110561Y-32934D01*
X110811Y-34267D01*
X110561Y-35600D01*
X109936Y-36600D01*
X108811Y-37101D01*
X105811D01*
G01X115186Y-41267D02*
X118311Y-31267D01*
X121436Y-41267D01*
G01X120311Y-37767D02*
X116311D01*
G01X125811Y-41267D02*
Y-31267D01*
X128936D01*
X129936Y-31767D01*
X130561Y-32434D01*
X130811Y-33767D01*
X130561Y-35100D01*
X129811Y-35934D01*
X128936Y-36434D01*
X125811D01*
G01X128936D02*
X130811Y-41267D01*
G01X138311Y-31267D02*
Y-41267D01*
G01X135436Y-31267D02*
X141186D01*
G01X155436Y-41267D02*
Y-31267D01*
X161186Y-41267D01*
Y-31267D01*
G01X165561D02*
Y-38434D01*
X166061Y-39934D01*
X167061Y-40934D01*
X168311Y-41267D01*
X169561Y-40934D01*
X170561Y-39934D01*
X171061Y-38434D01*
Y-31267D01*
G01X175061Y-41267D02*
Y-31267D01*
X178311Y-39600D01*
X181561Y-31267D01*
Y-41267D01*
G01X189311Y-35934D02*
X189811Y-35434D01*
X190186Y-34600D01*
X190436Y-33434D01*
X190186Y-32434D01*
X189686Y-31767D01*
X188811Y-31267D01*
X185436D01*
Y-41267D01*
X189561D01*
X190436Y-40600D01*
X190936Y-39600D01*
X191186Y-38434D01*
X190936Y-37267D01*
X190186Y-36267D01*
X189311Y-35934D01*
X185436D01*
G01X200811Y-41267D02*
X195811D01*
Y-31267D01*
X200811D01*
G01X198811Y-36100D02*
X195811D01*
G01X205811Y-41267D02*
Y-31267D01*
X208936D01*
X209936Y-31767D01*
X210561Y-32434D01*
X210811Y-33767D01*
X210561Y-35100D01*
X209811Y-35934D01*
X208936Y-36434D01*
X205811D01*
G01X208936D02*
X210811Y-41267D01*
G01X218311Y-41600D02*
X218061Y-41434D01*
Y-41100D01*
X218311Y-40934D01*
X218561Y-41100D01*
Y-41434D01*
X218311Y-41600D01*
G01Y-37101D02*
X218061Y-36934D01*
Y-36600D01*
X218311Y-36434D01*
X218561Y-36600D01*
Y-36934D01*
X218311Y-37101D01*
G01X225936Y-32934D02*
X226686Y-31934D01*
X227561Y-31434D01*
X228561Y-31267D01*
X229811Y-31600D01*
X230686Y-32434D01*
X230936Y-33434D01*
X230811Y-34434D01*
X230311Y-35267D01*
X227811Y-36934D01*
X226686Y-38100D01*
X225936Y-39767D01*
X225686Y-41267D01*
X230936D01*
G01X235561Y-39267D02*
X236311Y-40434D01*
X237311Y-41100D01*
X238436Y-41267D01*
X239436Y-41100D01*
X240436Y-40267D01*
X241061Y-39267D01*
X241186Y-38267D01*
X240936Y-37101D01*
X240061Y-36267D01*
X239186Y-35934D01*
X238061D01*
G01X239186D02*
X239936Y-35434D01*
X240561Y-34600D01*
X240811Y-33600D01*
X240561Y-32600D01*
X239936Y-31767D01*
X238811Y-31267D01*
X237686Y-31434D01*
X236561Y-32100D01*
G01X248311Y-41267D02*
Y-31267D01*
X246811Y-33267D01*
G01Y-41267D02*
X249811D01*
G01X256686Y-37934D02*
X259936D01*
G01X268311Y-31267D02*
X267311Y-31600D01*
X266561Y-32434D01*
X266061Y-33434D01*
X265686Y-34767D01*
X265561Y-36267D01*
X265686Y-37767D01*
X266061Y-39100D01*
X266561Y-40101D01*
X267311Y-40934D01*
X268311Y-41267D01*
X269311Y-40934D01*
X270061Y-40101D01*
X270561Y-39100D01*
X270936Y-37767D01*
X271061Y-36267D01*
X270936Y-34767D01*
X270561Y-33434D01*
X270061Y-32434D01*
X269311Y-31600D01*
X268311Y-31267D01*
G01X278311D02*
X277311Y-31600D01*
X276561Y-32434D01*
X276061Y-33434D01*
X275686Y-34767D01*
X275561Y-36267D01*
X275686Y-37767D01*
X276061Y-39100D01*
X276561Y-40101D01*
X277311Y-40934D01*
X278311Y-41267D01*
X279311Y-40934D01*
X280061Y-40101D01*
X280561Y-39100D01*
X280936Y-37767D01*
X281061Y-36267D01*
X280936Y-34767D01*
X280561Y-33434D01*
X280061Y-32434D01*
X279311Y-31600D01*
X278311Y-31267D01*
G01X288311D02*
X287311Y-31600D01*
X286561Y-32434D01*
X286061Y-33434D01*
X285686Y-34767D01*
X285561Y-36267D01*
X285686Y-37767D01*
X286061Y-39100D01*
X286561Y-40101D01*
X287311Y-40934D01*
X288311Y-41267D01*
X289311Y-40934D01*
X290061Y-40101D01*
X290561Y-39100D01*
X290936Y-37767D01*
X291061Y-36267D01*
X290936Y-34767D01*
X290561Y-33434D01*
X290061Y-32434D01*
X289311Y-31600D01*
X288311Y-31267D01*
G01X298311D02*
X297311Y-31600D01*
X296561Y-32434D01*
X296061Y-33434D01*
X295686Y-34767D01*
X295561Y-36267D01*
X295686Y-37767D01*
X296061Y-39100D01*
X296561Y-40101D01*
X297311Y-40934D01*
X298311Y-41267D01*
X299311Y-40934D01*
X300061Y-40101D01*
X300561Y-39100D01*
X300936Y-37767D01*
X301061Y-36267D01*
X300936Y-34767D01*
X300561Y-33434D01*
X300061Y-32434D01*
X299311Y-31600D01*
X298311Y-31267D01*
G01X308311Y-41267D02*
X309186Y-41100D01*
X310186Y-40600D01*
X310811Y-39767D01*
X311061Y-38600D01*
X310811Y-37434D01*
X310061Y-36434D01*
X308936Y-35934D01*
X307686D01*
X306936Y-35600D01*
X306311Y-34767D01*
X306061Y-33600D01*
X306436Y-32434D01*
X307311Y-31600D01*
X308311Y-31267D01*
X309311Y-31600D01*
X310186Y-32434D01*
X310561Y-33600D01*
X310311Y-34767D01*
X309686Y-35600D01*
X308936Y-35934D01*
X307686D01*
X306561Y-36434D01*
X305811Y-37434D01*
X305561Y-38600D01*
X305811Y-39767D01*
X306436Y-40600D01*
X307436Y-41100D01*
X308311Y-41267D01*
G01X318061D02*
X318311Y-39100D01*
X318686Y-37267D01*
X319186Y-35600D01*
X319811Y-33767D01*
X320811Y-31267D01*
X315811D01*
G01X482000Y-70833D02*
Y-80833D01*
X487000D01*
G01X493000Y-70833D02*
X496000D01*
G01X494500D02*
Y-80833D01*
G01X493000D02*
X496000D01*
G01X502125D02*
Y-70833D01*
X506875D01*
G01X505125Y-75667D02*
X502125D01*
G01X517000Y-80833D02*
X512000D01*
Y-70833D01*
X517000D01*
G01X515000Y-75667D02*
X512000D01*
G01X522875Y-77500D02*
X526125D01*
G01X531750Y-78834D02*
X532500Y-80000D01*
X533500Y-80667D01*
X534625Y-80833D01*
X535625Y-80667D01*
X536625Y-79834D01*
X537250Y-78834D01*
X537375Y-77833D01*
X537125Y-76667D01*
X536250Y-75834D01*
X535375Y-75500D01*
X534250D01*
G01X535375D02*
X536125Y-75000D01*
X536750Y-74167D01*
X537000Y-73167D01*
X536750Y-72167D01*
X536125Y-71334D01*
X535000Y-70833D01*
X533875Y-71000D01*
X532750Y-71667D01*
G01X0Y0D02*
X300000D01*
Y300000D01*
X0D01*
Y0D01*
G54D11*
X27107Y60498D03*
X27379Y240970D03*
X275761Y68597D03*
G54D21*
G01X-154139Y-105167D02*
X473761D01*
Y-85167D01*
G01X-154139Y-65167D02*
X548461D01*
G01X-154139Y-85167D02*
X548461D01*
G01X473761Y-105167D02*
X548461D01*
Y-25967D01*
X-154139D01*
Y-105167D01*
G01Y-45167D02*
X548461D01*
G01X473761Y-65167D02*
Y-45167D01*
G01Y-65167D02*
Y-85167D01*
G01Y-25967D02*
Y-45167D01*
G54D12*
X51426Y95480D03*
Y84850D03*
G54D13*
X25254Y149330D03*
X21514D03*
X41199D03*
X37458D03*
X25254Y178750D03*
X21514D03*
X41199Y209350D03*
X37458D03*
X41199Y178750D03*
X37458D03*
X25254Y209350D03*
X21514D03*
X117565Y75769D03*
X113824D03*
X129769D03*
X110630Y129902D03*
Y133642D03*
X118504Y154114D03*
Y150374D03*
X117504Y129902D03*
Y133642D03*
X110630Y154114D03*
Y150374D03*
X143116Y14936D03*
X146856D03*
X133510Y75769D03*
X149976Y134626D03*
Y138366D03*
X133878Y134724D03*
Y138464D03*
X177655Y206968D03*
X173915D03*
X177655Y210468D03*
X173915D03*
X203177Y181661D03*
Y177921D03*
X197677Y181661D03*
Y177921D03*
X269083Y88032D03*
X265343D03*
X285028D03*
X281287D03*
X268950Y119755D03*
X265209D03*
X284894D03*
X281154D03*
X249581Y168873D03*
X253321D03*
X248150Y231582D03*
Y235322D03*
X244450D03*
Y231582D03*
G54D14*
X154405Y158547D03*
Y152447D03*
X217702Y273058D03*
Y266958D03*
X207202Y273058D03*
Y266958D03*
X228621Y272997D03*
Y266897D03*
G54D15*
X146888Y218063D03*
X155550D03*
X146888Y214619D03*
X155550D03*
X148857Y218063D03*
X153581D03*
X148857Y214619D03*
X153581D03*
G54D16*
X151219Y216341D03*
G54D17*
X196702Y273945D03*
Y266071D03*
G54D18*
Y281512D03*
Y287418D03*
X207202Y281512D03*
Y287418D03*
X217702Y281512D03*
Y287418D03*
X228621Y281595D03*
Y287501D03*
G54D19*
X244450Y214495D03*
Y225519D03*
M02*
