G04 ================== begin FILE IDENTIFICATION RECORD ==================*
G04 Layout Name:  OC_CONNECT-1_BREAKOUT_LIFE-3.brd*
G04 Film Name:    SMT*
G04 File Format:  Gerber RS274X*
G04 File Origin:  Cadence Allegro 16.6-2015-S065*
G04 Origin Date:  Thu Jan 05 18:33:40 2017*
G04 *
G04 Layer:  VIA CLASS/SOLDERMASK_TOP*
G04 Layer:  PIN/SOLDERMASK_TOP*
G04 Layer:  PACKAGE GEOMETRY/SOLDERMASK_TOP*
G04 Layer:  DRAWING FORMAT/SMPR*
G04 Layer:  DRAWING FORMAT/FILM_LABEL_OUTLINE*
G04 Layer:  BOARD GEOMETRY/OUTLINE*
G04 Layer:  BOARD GEOMETRY/SOLDERMASK_TOP*
G04 *
G04 Offset:    (0.000 0.000)*
G04 Mirror:    No*
G04 Mode:      Positive*
G04 Rotation:  0*
G04 FullContactRelief:  No*
G04 UndefLineWidth:     6.000*
G04 ================== end FILE IDENTIFICATION RECORD ====================*
%FSLAX25Y25*MOIN*%
%IR0*IPPOS*OFA0.00000B0.00000*MIA0B0*SFA1.00000B1.00000*%
%ADD12C,.133*%
%ADD13R,.133X.133*%
%ADD28C,.114173*%
%ADD10C,.354331*%
%ADD30R,.007874X.026575*%
%ADD29R,.04X.043*%
%ADD35R,.059X.051*%
%ADD11C,.024*%
%ADD21C,.062*%
%ADD36R,.031X.031*%
%ADD20R,.025X.025*%
%ADD23R,.062X.062*%
%ADD22C,.069*%
%ADD34C,.051181*%
%ADD15C,.045433*%
%ADD26C,.059213*%
%ADD24C,.08374*%
%ADD19R,.069X.069*%
%ADD31R,.015748X.061024*%
%ADD17C,.07874*%
%ADD25C,.070866*%
%ADD39R,.047244X.047244*%
%ADD38C,.062992*%
%ADD32C,.059843*%
%ADD16R,.08374X.08374*%
%ADD37R,.062992X.062992*%
%ADD18R,.062992X.047244*%
%ADD33R,.059843X.059843*%
%ADD14R,.047244X.062992*%
%ADD27C,.078898*%
%ADD40C,.006*%
%ADD41C,.01*%
G75*
%LPD*%
G75*
G54D10*
X25000Y25000D03*
Y275000D03*
X275000Y25000D03*
Y275000D03*
G54D20*
X25254Y149330D03*
X21514D03*
X41199D03*
X37458D03*
X25254Y178750D03*
X21514D03*
X41199Y209350D03*
X37458D03*
X41199Y178750D03*
X37458D03*
X25254Y209350D03*
X21514D03*
X117565Y75769D03*
X113824D03*
X129769D03*
X110630Y129902D03*
Y133642D03*
X118504Y154114D03*
Y150374D03*
X117504Y129902D03*
Y133642D03*
X110630Y154114D03*
Y150374D03*
X143116Y14936D03*
X146856D03*
X133510Y75769D03*
X149976Y134626D03*
Y138366D03*
X133878Y134724D03*
Y138464D03*
X177655Y206968D03*
X173915D03*
X177655Y210468D03*
X173915D03*
X203177Y181661D03*
Y177921D03*
X197677Y181661D03*
Y177921D03*
X269083Y88032D03*
X265343D03*
X285028D03*
X281287D03*
X268950Y119755D03*
X265209D03*
X284894D03*
X281154D03*
X249581Y168873D03*
X253321D03*
X248150Y231582D03*
Y235322D03*
X244450D03*
Y231582D03*
G54D11*
X44233Y84850D03*
X45500Y105000D03*
X50500D03*
Y101000D03*
X45500D03*
X25254Y146308D03*
Y175728D03*
X37458Y146308D03*
Y175728D03*
X25254Y206328D03*
X37458D03*
X85898Y79479D03*
X95673Y71813D03*
X58307Y84850D03*
X102155Y55691D03*
Y50691D03*
Y45691D03*
X55000Y101000D03*
Y105000D03*
X106114Y154114D03*
X100500Y202500D03*
X117565Y71000D03*
X129769Y70731D03*
X146063Y133740D03*
X122441Y129016D03*
X122500Y125500D03*
X114567Y129016D03*
X138189Y124291D03*
X130315Y133740D03*
X146063Y138464D03*
X138189D03*
X130315D03*
X114567D03*
Y133740D03*
X106693Y138464D03*
Y133740D03*
Y124291D03*
Y129016D03*
X114567Y124291D03*
X122441Y138464D03*
X138189Y133740D03*
X122441D03*
X143922Y121000D03*
X128174D03*
X131826D03*
X147574D03*
X153937Y180984D03*
X130315Y162087D03*
Y166811D03*
Y171535D03*
Y176260D03*
Y180984D03*
X146063Y157362D03*
X114567Y171535D03*
X146063Y162087D03*
Y166811D03*
X114567Y162087D03*
X146063Y180984D03*
Y176260D03*
Y171535D03*
X122441Y157362D03*
X114567Y176260D03*
X138189Y157362D03*
Y171535D03*
Y185709D03*
X130315Y157362D03*
X114567Y180984D03*
X106693Y171535D03*
X122441Y185709D03*
Y171535D03*
X146063Y143189D03*
X130315D03*
X138189D03*
X122441Y176260D03*
Y162087D03*
X138189Y166811D03*
X122441Y180984D03*
Y166811D03*
X114567D03*
X138189Y162087D03*
X114567Y143189D03*
Y147913D03*
X122441Y143189D03*
X114567Y157362D03*
X130315Y147913D03*
X122441D03*
X146063D03*
X114567Y185709D03*
X146063D03*
X130315D03*
X108000Y189000D03*
X138189Y147913D03*
X151219Y220863D03*
Y211819D03*
X135982Y220000D03*
X139634D03*
X152740Y208809D03*
X152739Y226266D03*
X156391Y208809D03*
X156391Y226266D03*
X177559Y129016D03*
Y124291D03*
X169685Y133740D03*
X161811Y129016D03*
Y124291D03*
X200743Y131378D03*
X204028Y126654D03*
X205500Y114000D03*
X177559Y138464D03*
X216000Y139000D03*
X161811Y138464D03*
X169685Y129016D03*
Y124291D03*
X194348Y136102D03*
X176271Y134202D03*
X185433Y133740D03*
Y138464D03*
X169685D03*
X193307Y185709D03*
X185433Y180984D03*
Y176260D03*
Y171535D03*
Y166811D03*
Y162087D03*
Y143189D03*
Y157362D03*
X177559D03*
Y171535D03*
Y185709D03*
X169685Y180984D03*
Y176260D03*
Y171535D03*
Y166811D03*
Y162087D03*
Y157362D03*
X161811D03*
Y171535D03*
Y162087D03*
Y166811D03*
Y143189D03*
X169685D03*
X198715Y173951D03*
X202367D03*
X177559Y166811D03*
Y162087D03*
Y180984D03*
Y176260D03*
X192178Y180520D03*
Y175796D03*
X177559Y143189D03*
Y147913D03*
X169685D03*
X161811D03*
X169685Y185709D03*
X169000Y191000D03*
X192019Y148375D03*
X184145D03*
X211500Y241060D03*
X197066D03*
Y248934D03*
X167734Y210544D03*
Y206892D03*
X196702Y291296D03*
X207202D03*
X196702Y260798D03*
X207202Y260500D03*
X269083Y85010D03*
X268950Y116733D03*
X249581Y172419D03*
X245500Y146000D03*
X239000Y143500D03*
X251349Y231652D03*
X240071Y225519D03*
X217702Y291296D03*
X228621Y291379D03*
Y262000D03*
X281287Y85010D03*
X281154Y116733D03*
G54D21*
X64662Y219013D03*
Y229013D03*
Y239013D03*
Y249013D03*
Y259013D03*
Y269013D03*
Y279013D03*
X159201Y55542D03*
Y45542D03*
Y35542D03*
Y25542D03*
X179201Y55542D03*
Y45542D03*
Y35542D03*
Y25542D03*
X159201Y85542D03*
Y75542D03*
Y65542D03*
X179201Y85542D03*
Y75542D03*
Y65542D03*
X239201Y55542D03*
Y45542D03*
Y35542D03*
Y25542D03*
X219201Y55542D03*
Y45542D03*
Y35542D03*
Y25542D03*
X199201Y55542D03*
Y45542D03*
Y35542D03*
Y25542D03*
X239201Y85542D03*
Y75542D03*
Y65542D03*
X219201Y85542D03*
Y75542D03*
Y65542D03*
X199201Y85542D03*
Y75542D03*
Y65542D03*
G54D30*
X146888Y218063D03*
X155550D03*
X146888Y214619D03*
X155550D03*
X148857Y218063D03*
X153581D03*
X148857Y214619D03*
X153581D03*
G54D12*
X26562Y99571D03*
Y118075D03*
G54D40*
G01X-143139Y-71300D02*
X-143889Y-70800D01*
X-144764Y-70467D01*
X-145764D01*
X-146889Y-70967D01*
X-147764Y-71800D01*
X-148389Y-72800D01*
X-148889Y-74467D01*
X-149014Y-75967D01*
X-148764Y-77467D01*
X-148389Y-78467D01*
X-147639Y-79467D01*
X-146764Y-80134D01*
X-145889Y-80467D01*
X-145014D01*
X-144139Y-80134D01*
X-143389Y-79634D01*
X-142764Y-78967D01*
G01X-139014Y-80467D02*
X-135889Y-70467D01*
X-132764Y-80467D01*
G01X-133889Y-76967D02*
X-137889D01*
G01X-128389Y-80467D02*
Y-70467D01*
X-125264D01*
X-124264Y-70967D01*
X-123639Y-71634D01*
X-123389Y-72967D01*
X-123639Y-74300D01*
X-124389Y-75134D01*
X-125264Y-75634D01*
X-128389D01*
G01X-125264D02*
X-123389Y-80467D01*
G01X-118639D02*
Y-70467D01*
X-116139D01*
X-115139Y-70967D01*
X-114389Y-71634D01*
X-113764Y-72634D01*
X-113264Y-73800D01*
X-113139Y-75467D01*
X-113264Y-77134D01*
X-113764Y-78300D01*
X-114389Y-79301D01*
X-115139Y-79967D01*
X-116139Y-80467D01*
X-118639D01*
G01X-98389D02*
Y-70467D01*
X-95264D01*
X-94264Y-70967D01*
X-93639Y-71634D01*
X-93389Y-72967D01*
X-93639Y-74300D01*
X-94389Y-75134D01*
X-95264Y-75634D01*
X-98389D01*
G01X-95264D02*
X-93389Y-80467D01*
G01X-83389D02*
X-88389D01*
Y-70467D01*
X-83389D01*
G01X-85389Y-75300D02*
X-88389D01*
G01X-78264Y-80467D02*
Y-70467D01*
X-73514D01*
G01X-75264Y-75300D02*
X-78264D01*
G01X-65889Y-80800D02*
X-66139Y-80634D01*
Y-80300D01*
X-65889Y-80134D01*
X-65639Y-80300D01*
Y-80634D01*
X-65889Y-80800D01*
G01Y-76301D02*
X-66139Y-76134D01*
Y-75800D01*
X-65889Y-75634D01*
X-65639Y-75800D01*
Y-76134D01*
X-65889Y-76301D01*
G01X-55889Y-80467D02*
X-56889Y-80300D01*
X-57764Y-79634D01*
X-58514Y-78634D01*
X-59014Y-77467D01*
X-59264Y-76134D01*
Y-74800D01*
X-59014Y-73467D01*
X-58514Y-72300D01*
X-57764Y-71300D01*
X-56889Y-70634D01*
X-55889Y-70467D01*
X-54889Y-70634D01*
X-54014Y-71300D01*
X-53264Y-72300D01*
X-52764Y-73467D01*
X-52514Y-74800D01*
Y-76134D01*
X-52764Y-77467D01*
X-53264Y-78634D01*
X-54014Y-79634D01*
X-54889Y-80300D01*
X-55889Y-80467D01*
G01X-48389D02*
Y-70467D01*
X-45389D01*
X-44389Y-70967D01*
X-43639Y-72134D01*
X-43389Y-73467D01*
X-43639Y-74800D01*
X-44264Y-75800D01*
X-45389Y-76301D01*
X-48389D01*
G01X-33389Y-80467D02*
X-38389D01*
Y-70467D01*
X-33389D01*
G01X-35389Y-75300D02*
X-38389D01*
G01X-28764Y-80467D02*
Y-70467D01*
X-23014Y-80467D01*
Y-70467D01*
G01X-13139Y-71300D02*
X-13889Y-70800D01*
X-14764Y-70467D01*
X-15764D01*
X-16889Y-70967D01*
X-17764Y-71800D01*
X-18389Y-72800D01*
X-18889Y-74467D01*
X-19014Y-75967D01*
X-18764Y-77467D01*
X-18389Y-78467D01*
X-17639Y-79467D01*
X-16764Y-80134D01*
X-15889Y-80467D01*
X-15014D01*
X-14139Y-80134D01*
X-13389Y-79634D01*
X-12764Y-78967D01*
G01X-3389Y-80467D02*
X-8389D01*
Y-70467D01*
X-3389D01*
G01X-5389Y-75300D02*
X-8389D01*
G01X1611Y-70467D02*
Y-80467D01*
X6611D01*
G01X11611Y-70467D02*
Y-80467D01*
X16611D01*
G01X21361Y-70467D02*
Y-77634D01*
X21861Y-79134D01*
X22861Y-80134D01*
X24111Y-80467D01*
X25361Y-80134D01*
X26361Y-79134D01*
X26861Y-77634D01*
Y-70467D01*
G01X31611D02*
Y-80467D01*
X36611D01*
G01X40986D02*
X44111Y-70467D01*
X47236Y-80467D01*
G01X46111Y-76967D02*
X42111D01*
G01X51611Y-80467D02*
Y-70467D01*
X54736D01*
X55736Y-70967D01*
X56361Y-71634D01*
X56611Y-72967D01*
X56361Y-74300D01*
X55611Y-75134D01*
X54736Y-75634D01*
X51611D01*
G01X54736D02*
X56611Y-80467D01*
G01X74111D02*
Y-70467D01*
G01X86861Y-71300D02*
X86111Y-70800D01*
X85236Y-70467D01*
X84236D01*
X83111Y-70967D01*
X82236Y-71800D01*
X81611Y-72800D01*
X81111Y-74467D01*
X80986Y-75967D01*
X81236Y-77467D01*
X81611Y-78467D01*
X82361Y-79467D01*
X83236Y-80134D01*
X84111Y-80467D01*
X84986D01*
X85861Y-80134D01*
X86611Y-79634D01*
X87236Y-78967D01*
G01X94111Y-80467D02*
X93111Y-80300D01*
X92236Y-79634D01*
X91486Y-78634D01*
X90986Y-77467D01*
X90736Y-76134D01*
Y-74800D01*
X90986Y-73467D01*
X91486Y-72300D01*
X92236Y-71300D01*
X93111Y-70634D01*
X94111Y-70467D01*
X95111Y-70634D01*
X95986Y-71300D01*
X96736Y-72300D01*
X97236Y-73467D01*
X97486Y-74800D01*
Y-76134D01*
X97236Y-77467D01*
X96736Y-78634D01*
X95986Y-79634D01*
X95111Y-80300D01*
X94111Y-80467D01*
G01X101236D02*
Y-70467D01*
X106986Y-80467D01*
Y-70467D01*
G01X111236Y-80467D02*
Y-70467D01*
X116986Y-80467D01*
Y-70467D01*
G01X126611Y-80467D02*
X121611D01*
Y-70467D01*
X126611D01*
G01X124611Y-75300D02*
X121611D01*
G01X136861Y-71300D02*
X136111Y-70800D01*
X135236Y-70467D01*
X134236D01*
X133111Y-70967D01*
X132236Y-71800D01*
X131611Y-72800D01*
X131111Y-74467D01*
X130986Y-75967D01*
X131236Y-77467D01*
X131611Y-78467D01*
X132361Y-79467D01*
X133236Y-80134D01*
X134111Y-80467D01*
X134986D01*
X135861Y-80134D01*
X136611Y-79634D01*
X137236Y-78967D01*
G01X144111Y-70467D02*
Y-80467D01*
G01X141236Y-70467D02*
X146986D01*
G01X152486Y-77134D02*
X155736D01*
G01X164111Y-80467D02*
Y-70467D01*
X162611Y-72467D01*
G01Y-80467D02*
X165611D01*
G01X184111D02*
Y-70467D01*
G01X195111Y-75134D02*
X195611Y-74634D01*
X195986Y-73800D01*
X196236Y-72634D01*
X195986Y-71634D01*
X195486Y-70967D01*
X194611Y-70467D01*
X191236D01*
Y-80467D01*
X195361D01*
X196236Y-79800D01*
X196736Y-78800D01*
X196986Y-77634D01*
X196736Y-76467D01*
X195986Y-75467D01*
X195111Y-75134D01*
X191236D01*
G01X201611Y-80467D02*
Y-70467D01*
X204736D01*
X205736Y-70967D01*
X206361Y-71634D01*
X206611Y-72967D01*
X206361Y-74300D01*
X205611Y-75134D01*
X204736Y-75634D01*
X201611D01*
G01X204736D02*
X206611Y-80467D01*
G01X216611D02*
X211611D01*
Y-70467D01*
X216611D01*
G01X214611Y-75300D02*
X211611D01*
G01X220986Y-80467D02*
X224111Y-70467D01*
X227236Y-80467D01*
G01X226111Y-76967D02*
X222111D01*
G01X231361Y-80467D02*
Y-70467D01*
G01X236111D02*
X231361Y-76634D01*
G01X236861Y-80467D02*
X233486Y-73800D01*
G01X244111Y-80467D02*
X243111Y-80300D01*
X242236Y-79634D01*
X241486Y-78634D01*
X240986Y-77467D01*
X240736Y-76134D01*
Y-74800D01*
X240986Y-73467D01*
X241486Y-72300D01*
X242236Y-71300D01*
X243111Y-70634D01*
X244111Y-70467D01*
X245111Y-70634D01*
X245986Y-71300D01*
X246736Y-72300D01*
X247236Y-73467D01*
X247486Y-74800D01*
Y-76134D01*
X247236Y-77467D01*
X246736Y-78634D01*
X245986Y-79634D01*
X245111Y-80300D01*
X244111Y-80467D01*
G01X251361Y-70467D02*
Y-77634D01*
X251861Y-79134D01*
X252861Y-80134D01*
X254111Y-80467D01*
X255361Y-80134D01*
X256361Y-79134D01*
X256861Y-77634D01*
Y-70467D01*
G01X264111D02*
Y-80467D01*
G01X261236Y-70467D02*
X266986D01*
G01X285111Y-75134D02*
X285611Y-74634D01*
X285986Y-73800D01*
X286236Y-72634D01*
X285986Y-71634D01*
X285486Y-70967D01*
X284611Y-70467D01*
X281236D01*
Y-80467D01*
X285361D01*
X286236Y-79800D01*
X286736Y-78800D01*
X286986Y-77634D01*
X286736Y-76467D01*
X285986Y-75467D01*
X285111Y-75134D01*
X281236D01*
G01X294111Y-80467D02*
X293111Y-80300D01*
X292236Y-79634D01*
X291486Y-78634D01*
X290986Y-77467D01*
X290736Y-76134D01*
Y-74800D01*
X290986Y-73467D01*
X291486Y-72300D01*
X292236Y-71300D01*
X293111Y-70634D01*
X294111Y-70467D01*
X295111Y-70634D01*
X295986Y-71300D01*
X296736Y-72300D01*
X297236Y-73467D01*
X297486Y-74800D01*
Y-76134D01*
X297236Y-77467D01*
X296736Y-78634D01*
X295986Y-79634D01*
X295111Y-80300D01*
X294111Y-80467D01*
G01X300986D02*
X304111Y-70467D01*
X307236Y-80467D01*
G01X306111Y-76967D02*
X302111D01*
G01X311611Y-80467D02*
Y-70467D01*
X314736D01*
X315736Y-70967D01*
X316361Y-71634D01*
X316611Y-72967D01*
X316361Y-74300D01*
X315611Y-75134D01*
X314736Y-75634D01*
X311611D01*
G01X314736D02*
X316611Y-80467D01*
G01X321361D02*
Y-70467D01*
X323861D01*
X324861Y-70967D01*
X325611Y-71634D01*
X326236Y-72634D01*
X326736Y-73800D01*
X326861Y-75467D01*
X326736Y-77134D01*
X326236Y-78300D01*
X325611Y-79301D01*
X324861Y-79967D01*
X323861Y-80467D01*
X321361D01*
G01X-150564Y-101067D02*
Y-91067D01*
X-145814D01*
G01X-147564Y-95900D02*
X-150564D01*
G01X-139689Y-91067D02*
X-136689D01*
G01X-138189D02*
Y-101067D01*
G01X-139689D02*
X-136689D01*
G01X-130689Y-91067D02*
Y-101067D01*
X-125689D01*
G01X-121439D02*
Y-91067D01*
X-118189Y-99400D01*
X-114939Y-91067D01*
Y-101067D01*
G01X-100689Y-91067D02*
Y-101067D01*
X-95689D01*
G01X-91314D02*
X-88189Y-91067D01*
X-85064Y-101067D01*
G01X-86189Y-97567D02*
X-90189D01*
G01X-78189Y-101067D02*
Y-96567D01*
X-80689Y-91067D01*
G01X-75689D02*
X-78189Y-96567D01*
G01X-65689Y-101067D02*
X-70689D01*
Y-91067D01*
X-65689D01*
G01X-67689Y-95900D02*
X-70689D01*
G01X-60689Y-101067D02*
Y-91067D01*
X-57564D01*
X-56564Y-91567D01*
X-55939Y-92234D01*
X-55689Y-93567D01*
X-55939Y-94900D01*
X-56689Y-95734D01*
X-57564Y-96234D01*
X-60689D01*
G01X-57564D02*
X-55689Y-101067D01*
G01X-48189Y-101400D02*
X-48439Y-101234D01*
Y-100900D01*
X-48189Y-100734D01*
X-47939Y-100900D01*
Y-101234D01*
X-48189Y-101400D01*
G01Y-96901D02*
X-48439Y-96734D01*
Y-96400D01*
X-48189Y-96234D01*
X-47939Y-96400D01*
Y-96734D01*
X-48189Y-96901D01*
G01X-148639Y-60467D02*
Y-50467D01*
X-146139D01*
X-145139Y-50967D01*
X-144389Y-51634D01*
X-143764Y-52634D01*
X-143264Y-53800D01*
X-143139Y-55467D01*
X-143264Y-57134D01*
X-143764Y-58300D01*
X-144389Y-59301D01*
X-145139Y-59967D01*
X-146139Y-60467D01*
X-148639D01*
G01X-133389D02*
X-138389D01*
Y-50467D01*
X-133389D01*
G01X-135389Y-55300D02*
X-138389D01*
G01X-128514Y-59134D02*
X-127514Y-59967D01*
X-126389Y-60467D01*
X-125389D01*
X-124389Y-59967D01*
X-123639Y-59134D01*
X-123264Y-57967D01*
X-123514Y-56800D01*
X-124139Y-55800D01*
X-125264Y-55134D01*
X-126764Y-54800D01*
X-127639Y-54134D01*
X-128014Y-52967D01*
X-127764Y-51800D01*
X-127139Y-50967D01*
X-126264Y-50467D01*
X-125389D01*
X-124514Y-50800D01*
X-123764Y-51634D01*
G01X-117389Y-50467D02*
X-114389D01*
G01X-115889D02*
Y-60467D01*
G01X-117389D02*
X-114389D01*
G01X-105139Y-55467D02*
X-102639D01*
Y-58467D01*
X-103389Y-59467D01*
X-104264Y-60134D01*
X-105514Y-60467D01*
X-106764Y-60134D01*
X-107639Y-59467D01*
X-108389Y-58467D01*
X-108889Y-57300D01*
X-109139Y-55967D01*
Y-54800D01*
X-108889Y-53800D01*
X-108389Y-52634D01*
X-107639Y-51634D01*
X-106889Y-50967D01*
X-105889Y-50467D01*
X-105014D01*
X-104014Y-50800D01*
X-103264Y-51467D01*
G01X-98764Y-60467D02*
Y-50467D01*
X-93014Y-60467D01*
Y-50467D01*
G01X-83389Y-60467D02*
X-88389D01*
Y-50467D01*
X-83389D01*
G01X-85389Y-55300D02*
X-88389D01*
G01X-78639Y-60467D02*
Y-50467D01*
X-76139D01*
X-75139Y-50967D01*
X-74389Y-51634D01*
X-73764Y-52634D01*
X-73264Y-53800D01*
X-73139Y-55467D01*
X-73264Y-57134D01*
X-73764Y-58300D01*
X-74389Y-59301D01*
X-75139Y-59967D01*
X-76139Y-60467D01*
X-78639D01*
G01X-59014D02*
X-55889Y-50467D01*
X-52764Y-60467D01*
G01X-53889Y-56967D02*
X-57889D01*
G01X-45889Y-50467D02*
Y-60467D01*
G01X-48764Y-50467D02*
X-43014D01*
G01X-35889Y-60800D02*
X-36139Y-60634D01*
Y-60300D01*
X-35889Y-60134D01*
X-35639Y-60300D01*
Y-60634D01*
X-35889Y-60800D01*
G01Y-56301D02*
X-36139Y-56134D01*
Y-55800D01*
X-35889Y-55634D01*
X-35639Y-55800D01*
Y-56134D01*
X-35889Y-56301D01*
G01X-148439Y-41267D02*
Y-31267D01*
X-145939D01*
X-144939Y-31767D01*
X-144189Y-32434D01*
X-143564Y-33434D01*
X-143064Y-34600D01*
X-142939Y-36267D01*
X-143064Y-37934D01*
X-143564Y-39100D01*
X-144189Y-40101D01*
X-144939Y-40767D01*
X-145939Y-41267D01*
X-148439D01*
G01X-138814D02*
X-135689Y-31267D01*
X-132564Y-41267D01*
G01X-133689Y-37767D02*
X-137689D01*
G01X-125689Y-31267D02*
Y-41267D01*
G01X-128564Y-31267D02*
X-122814D01*
G01X-113189Y-41267D02*
X-118189D01*
Y-31267D01*
X-113189D01*
G01X-115189Y-36100D02*
X-118189D01*
G01X-105689Y-41600D02*
X-105939Y-41434D01*
Y-41100D01*
X-105689Y-40934D01*
X-105439Y-41100D01*
Y-41434D01*
X-105689Y-41600D01*
G01Y-37101D02*
X-105939Y-36934D01*
Y-36600D01*
X-105689Y-36434D01*
X-105439Y-36600D01*
Y-36934D01*
X-105689Y-37101D01*
G01X-95689Y-31267D02*
X-96689Y-31600D01*
X-97439Y-32434D01*
X-97939Y-33434D01*
X-98314Y-34767D01*
X-98439Y-36267D01*
X-98314Y-37767D01*
X-97939Y-39100D01*
X-97439Y-40101D01*
X-96689Y-40934D01*
X-95689Y-41267D01*
X-94689Y-40934D01*
X-93939Y-40101D01*
X-93439Y-39100D01*
X-93064Y-37767D01*
X-92939Y-36267D01*
X-93064Y-34767D01*
X-93439Y-33434D01*
X-93939Y-32434D01*
X-94689Y-31600D01*
X-95689Y-31267D01*
G01X-85689Y-41267D02*
Y-31267D01*
X-87189Y-33267D01*
G01Y-41267D02*
X-84189D01*
G01X-77314Y-37934D02*
X-74064D01*
G01X-65689Y-31267D02*
X-66689Y-31600D01*
X-67439Y-32434D01*
X-67939Y-33434D01*
X-68314Y-34767D01*
X-68439Y-36267D01*
X-68314Y-37767D01*
X-67939Y-39100D01*
X-67439Y-40101D01*
X-66689Y-40934D01*
X-65689Y-41267D01*
X-64689Y-40934D01*
X-63939Y-40101D01*
X-63439Y-39100D01*
X-63064Y-37767D01*
X-62939Y-36267D01*
X-63064Y-34767D01*
X-63439Y-33434D01*
X-63939Y-32434D01*
X-64689Y-31600D01*
X-65689Y-31267D01*
G01X-58439Y-39767D02*
X-57689Y-40600D01*
X-56814Y-41100D01*
X-55689Y-41267D01*
X-54564Y-40934D01*
X-53689Y-40267D01*
X-53064Y-39100D01*
X-52939Y-37767D01*
X-53189Y-36434D01*
X-53814Y-35600D01*
X-54689Y-34934D01*
X-55564Y-34767D01*
X-56439Y-34934D01*
X-57564Y-35600D01*
X-57189Y-31267D01*
X-53814D01*
G01X-47314Y-37934D02*
X-44064D01*
G01X-38064Y-32934D02*
X-37314Y-31934D01*
X-36439Y-31434D01*
X-35439Y-31267D01*
X-34189Y-31600D01*
X-33314Y-32434D01*
X-33064Y-33434D01*
X-33189Y-34434D01*
X-33689Y-35267D01*
X-36189Y-36934D01*
X-37314Y-38100D01*
X-38064Y-39767D01*
X-38314Y-41267D01*
X-33064D01*
G01X-25689Y-31267D02*
X-26689Y-31600D01*
X-27439Y-32434D01*
X-27939Y-33434D01*
X-28314Y-34767D01*
X-28439Y-36267D01*
X-28314Y-37767D01*
X-27939Y-39100D01*
X-27439Y-40101D01*
X-26689Y-40934D01*
X-25689Y-41267D01*
X-24689Y-40934D01*
X-23939Y-40101D01*
X-23439Y-39100D01*
X-23064Y-37767D01*
X-22939Y-36267D01*
X-23064Y-34767D01*
X-23439Y-33434D01*
X-23939Y-32434D01*
X-24689Y-31600D01*
X-25689Y-31267D01*
G01X-15689Y-41267D02*
Y-31267D01*
X-17189Y-33267D01*
G01Y-41267D02*
X-14189D01*
G01X-5939D02*
X-5689Y-39100D01*
X-5314Y-37267D01*
X-4814Y-35600D01*
X-4189Y-33767D01*
X-3189Y-31267D01*
X-8189D01*
G01X-13814Y-99634D02*
X-12814Y-100467D01*
X-11689Y-100967D01*
X-10689D01*
X-9689Y-100467D01*
X-8939Y-99634D01*
X-8564Y-98467D01*
X-8814Y-97300D01*
X-9439Y-96300D01*
X-10564Y-95634D01*
X-12064Y-95300D01*
X-12939Y-94634D01*
X-13314Y-93467D01*
X-13064Y-92300D01*
X-12439Y-91467D01*
X-11564Y-90967D01*
X-10689D01*
X-9814Y-91300D01*
X-9064Y-92134D01*
G01X-1189Y-100967D02*
X-2189Y-100800D01*
X-3064Y-100134D01*
X-3814Y-99134D01*
X-4314Y-97967D01*
X-4564Y-96634D01*
Y-95300D01*
X-4314Y-93967D01*
X-3814Y-92800D01*
X-3064Y-91800D01*
X-2189Y-91134D01*
X-1189Y-90967D01*
X-189Y-91134D01*
X686Y-91800D01*
X1436Y-92800D01*
X1936Y-93967D01*
X2186Y-95300D01*
Y-96634D01*
X1936Y-97967D01*
X1436Y-99134D01*
X686Y-100134D01*
X-189Y-100800D01*
X-1189Y-100967D01*
G01X6311Y-90967D02*
Y-100967D01*
X11311D01*
G01X16061D02*
Y-90967D01*
X18561D01*
X19561Y-91467D01*
X20311Y-92134D01*
X20936Y-93134D01*
X21436Y-94300D01*
X21561Y-95967D01*
X21436Y-97634D01*
X20936Y-98800D01*
X20311Y-99801D01*
X19561Y-100467D01*
X18561Y-100967D01*
X16061D01*
G01X31311D02*
X26311D01*
Y-90967D01*
X31311D01*
G01X29311Y-95800D02*
X26311D01*
G01X36311Y-100967D02*
Y-90967D01*
X39436D01*
X40436Y-91467D01*
X41061Y-92134D01*
X41311Y-93467D01*
X41061Y-94800D01*
X40311Y-95634D01*
X39436Y-96134D01*
X36311D01*
G01X39436D02*
X41311Y-100967D01*
G01X45561D02*
Y-90967D01*
X48811Y-99300D01*
X52061Y-90967D01*
Y-100967D01*
G01X55686D02*
X58811Y-90967D01*
X61936Y-100967D01*
G01X60811Y-97467D02*
X56811D01*
G01X66186Y-99634D02*
X67186Y-100467D01*
X68311Y-100967D01*
X69311D01*
X70311Y-100467D01*
X71061Y-99634D01*
X71436Y-98467D01*
X71186Y-97300D01*
X70561Y-96300D01*
X69436Y-95634D01*
X67936Y-95300D01*
X67061Y-94634D01*
X66686Y-93467D01*
X66936Y-92300D01*
X67561Y-91467D01*
X68436Y-90967D01*
X69311D01*
X70186Y-91300D01*
X70936Y-92134D01*
G01X76061Y-100967D02*
Y-90967D01*
G01X80811D02*
X76061Y-97134D01*
G01X81561Y-100967D02*
X78186Y-94300D01*
G01X98811Y-90967D02*
Y-100967D01*
G01X95936Y-90967D02*
X101686D01*
G01X108811Y-100967D02*
X107811Y-100800D01*
X106936Y-100134D01*
X106186Y-99134D01*
X105686Y-97967D01*
X105436Y-96634D01*
Y-95300D01*
X105686Y-93967D01*
X106186Y-92800D01*
X106936Y-91800D01*
X107811Y-91134D01*
X108811Y-90967D01*
X109811Y-91134D01*
X110686Y-91800D01*
X111436Y-92800D01*
X111936Y-93967D01*
X112186Y-95300D01*
Y-96634D01*
X111936Y-97967D01*
X111436Y-99134D01*
X110686Y-100134D01*
X109811Y-100800D01*
X108811Y-100967D01*
G01X116311D02*
Y-90967D01*
X119311D01*
X120311Y-91467D01*
X121061Y-92634D01*
X121311Y-93967D01*
X121061Y-95300D01*
X120436Y-96300D01*
X119311Y-96801D01*
X116311D01*
G01X105811Y-41267D02*
Y-31267D01*
X108811D01*
X109811Y-31767D01*
X110561Y-32934D01*
X110811Y-34267D01*
X110561Y-35600D01*
X109936Y-36600D01*
X108811Y-37101D01*
X105811D01*
G01X115186Y-41267D02*
X118311Y-31267D01*
X121436Y-41267D01*
G01X120311Y-37767D02*
X116311D01*
G01X125811Y-41267D02*
Y-31267D01*
X128936D01*
X129936Y-31767D01*
X130561Y-32434D01*
X130811Y-33767D01*
X130561Y-35100D01*
X129811Y-35934D01*
X128936Y-36434D01*
X125811D01*
G01X128936D02*
X130811Y-41267D01*
G01X138311Y-31267D02*
Y-41267D01*
G01X135436Y-31267D02*
X141186D01*
G01X155436Y-41267D02*
Y-31267D01*
X161186Y-41267D01*
Y-31267D01*
G01X165561D02*
Y-38434D01*
X166061Y-39934D01*
X167061Y-40934D01*
X168311Y-41267D01*
X169561Y-40934D01*
X170561Y-39934D01*
X171061Y-38434D01*
Y-31267D01*
G01X175061Y-41267D02*
Y-31267D01*
X178311Y-39600D01*
X181561Y-31267D01*
Y-41267D01*
G01X189311Y-35934D02*
X189811Y-35434D01*
X190186Y-34600D01*
X190436Y-33434D01*
X190186Y-32434D01*
X189686Y-31767D01*
X188811Y-31267D01*
X185436D01*
Y-41267D01*
X189561D01*
X190436Y-40600D01*
X190936Y-39600D01*
X191186Y-38434D01*
X190936Y-37267D01*
X190186Y-36267D01*
X189311Y-35934D01*
X185436D01*
G01X200811Y-41267D02*
X195811D01*
Y-31267D01*
X200811D01*
G01X198811Y-36100D02*
X195811D01*
G01X205811Y-41267D02*
Y-31267D01*
X208936D01*
X209936Y-31767D01*
X210561Y-32434D01*
X210811Y-33767D01*
X210561Y-35100D01*
X209811Y-35934D01*
X208936Y-36434D01*
X205811D01*
G01X208936D02*
X210811Y-41267D01*
G01X218311Y-41600D02*
X218061Y-41434D01*
Y-41100D01*
X218311Y-40934D01*
X218561Y-41100D01*
Y-41434D01*
X218311Y-41600D01*
G01Y-37101D02*
X218061Y-36934D01*
Y-36600D01*
X218311Y-36434D01*
X218561Y-36600D01*
Y-36934D01*
X218311Y-37101D01*
G01X225936Y-32934D02*
X226686Y-31934D01*
X227561Y-31434D01*
X228561Y-31267D01*
X229811Y-31600D01*
X230686Y-32434D01*
X230936Y-33434D01*
X230811Y-34434D01*
X230311Y-35267D01*
X227811Y-36934D01*
X226686Y-38100D01*
X225936Y-39767D01*
X225686Y-41267D01*
X230936D01*
G01X235561Y-39267D02*
X236311Y-40434D01*
X237311Y-41100D01*
X238436Y-41267D01*
X239436Y-41100D01*
X240436Y-40267D01*
X241061Y-39267D01*
X241186Y-38267D01*
X240936Y-37101D01*
X240061Y-36267D01*
X239186Y-35934D01*
X238061D01*
G01X239186D02*
X239936Y-35434D01*
X240561Y-34600D01*
X240811Y-33600D01*
X240561Y-32600D01*
X239936Y-31767D01*
X238811Y-31267D01*
X237686Y-31434D01*
X236561Y-32100D01*
G01X248311Y-41267D02*
Y-31267D01*
X246811Y-33267D01*
G01Y-41267D02*
X249811D01*
G01X256686Y-37934D02*
X259936D01*
G01X268311Y-31267D02*
X267311Y-31600D01*
X266561Y-32434D01*
X266061Y-33434D01*
X265686Y-34767D01*
X265561Y-36267D01*
X265686Y-37767D01*
X266061Y-39100D01*
X266561Y-40101D01*
X267311Y-40934D01*
X268311Y-41267D01*
X269311Y-40934D01*
X270061Y-40101D01*
X270561Y-39100D01*
X270936Y-37767D01*
X271061Y-36267D01*
X270936Y-34767D01*
X270561Y-33434D01*
X270061Y-32434D01*
X269311Y-31600D01*
X268311Y-31267D01*
G01X278311D02*
X277311Y-31600D01*
X276561Y-32434D01*
X276061Y-33434D01*
X275686Y-34767D01*
X275561Y-36267D01*
X275686Y-37767D01*
X276061Y-39100D01*
X276561Y-40101D01*
X277311Y-40934D01*
X278311Y-41267D01*
X279311Y-40934D01*
X280061Y-40101D01*
X280561Y-39100D01*
X280936Y-37767D01*
X281061Y-36267D01*
X280936Y-34767D01*
X280561Y-33434D01*
X280061Y-32434D01*
X279311Y-31600D01*
X278311Y-31267D01*
G01X288311D02*
X287311Y-31600D01*
X286561Y-32434D01*
X286061Y-33434D01*
X285686Y-34767D01*
X285561Y-36267D01*
X285686Y-37767D01*
X286061Y-39100D01*
X286561Y-40101D01*
X287311Y-40934D01*
X288311Y-41267D01*
X289311Y-40934D01*
X290061Y-40101D01*
X290561Y-39100D01*
X290936Y-37767D01*
X291061Y-36267D01*
X290936Y-34767D01*
X290561Y-33434D01*
X290061Y-32434D01*
X289311Y-31600D01*
X288311Y-31267D01*
G01X298311D02*
X297311Y-31600D01*
X296561Y-32434D01*
X296061Y-33434D01*
X295686Y-34767D01*
X295561Y-36267D01*
X295686Y-37767D01*
X296061Y-39100D01*
X296561Y-40101D01*
X297311Y-40934D01*
X298311Y-41267D01*
X299311Y-40934D01*
X300061Y-40101D01*
X300561Y-39100D01*
X300936Y-37767D01*
X301061Y-36267D01*
X300936Y-34767D01*
X300561Y-33434D01*
X300061Y-32434D01*
X299311Y-31600D01*
X298311Y-31267D01*
G01X308311Y-41267D02*
X309186Y-41100D01*
X310186Y-40600D01*
X310811Y-39767D01*
X311061Y-38600D01*
X310811Y-37434D01*
X310061Y-36434D01*
X308936Y-35934D01*
X307686D01*
X306936Y-35600D01*
X306311Y-34767D01*
X306061Y-33600D01*
X306436Y-32434D01*
X307311Y-31600D01*
X308311Y-31267D01*
X309311Y-31600D01*
X310186Y-32434D01*
X310561Y-33600D01*
X310311Y-34767D01*
X309686Y-35600D01*
X308936Y-35934D01*
X307686D01*
X306561Y-36434D01*
X305811Y-37434D01*
X305561Y-38600D01*
X305811Y-39767D01*
X306436Y-40600D01*
X307436Y-41100D01*
X308311Y-41267D01*
G01X318061D02*
X318311Y-39100D01*
X318686Y-37267D01*
X319186Y-35600D01*
X319811Y-33767D01*
X320811Y-31267D01*
X315811D01*
G01X482000Y-70833D02*
Y-80833D01*
X487000D01*
G01X493000Y-70833D02*
X496000D01*
G01X494500D02*
Y-80833D01*
G01X493000D02*
X496000D01*
G01X502125D02*
Y-70833D01*
X506875D01*
G01X505125Y-75667D02*
X502125D01*
G01X517000Y-80833D02*
X512000D01*
Y-70833D01*
X517000D01*
G01X515000Y-75667D02*
X512000D01*
G01X522875Y-77500D02*
X526125D01*
G01X531750Y-78834D02*
X532500Y-80000D01*
X533500Y-80667D01*
X534625Y-80833D01*
X535625Y-80667D01*
X536625Y-79834D01*
X537250Y-78834D01*
X537375Y-77833D01*
X537125Y-76667D01*
X536250Y-75834D01*
X535375Y-75500D01*
X534250D01*
G01X535375D02*
X536125Y-75000D01*
X536750Y-74167D01*
X537000Y-73167D01*
X536750Y-72167D01*
X536125Y-71334D01*
X535000Y-70833D01*
X533875Y-71000D01*
X532750Y-71667D01*
G01X0Y0D02*
X300000D01*
Y300000D01*
X0D01*
Y0D01*
G54D31*
X151219Y216341D03*
G54D22*
X58201Y197734D03*
Y187734D03*
Y177734D03*
X130387Y44851D03*
Y34851D03*
Y24851D03*
X100480Y241200D03*
Y251200D03*
Y261200D03*
X82061Y241601D03*
Y251601D03*
Y261601D03*
G54D13*
X26562Y81067D03*
G54D41*
G01X-154139Y-105167D02*
X473761D01*
Y-85167D01*
G01X-154139Y-65167D02*
X548461D01*
G01X-154139Y-85167D02*
X548461D01*
G01X473761Y-105167D02*
X548461D01*
Y-25967D01*
X-154139D01*
Y-105167D01*
G01Y-45167D02*
X548461D01*
G01X473761Y-65167D02*
Y-45167D01*
G01Y-65167D02*
Y-85167D01*
G01Y-25967D02*
Y-45167D01*
G54D14*
X21514Y155564D03*
Y215584D03*
Y184984D03*
X31356Y166588D03*
X41199Y155564D03*
Y215584D03*
X31356Y196008D03*
X41199Y184984D03*
X31356Y226608D03*
X113824Y82003D03*
X123667Y93027D03*
X133510Y82003D03*
X265343Y94266D03*
X275185Y105290D03*
X285028Y94266D03*
X265209Y125989D03*
X275052Y137013D03*
X284894Y125989D03*
G54D32*
X156016Y240906D03*
Y248780D03*
X146174D03*
G54D23*
X64662Y289013D03*
X159201Y15542D03*
X179201D03*
X239201D03*
X219201D03*
X199201D03*
G54D33*
X146174Y240906D03*
G54D24*
X87830Y26575D03*
X274774Y183422D03*
G54D15*
X17970Y161076D03*
Y221096D03*
Y190496D03*
X44742Y161076D03*
Y221096D03*
Y190496D03*
X110281Y87515D03*
X137053D03*
X261799Y99778D03*
X288571D03*
X261666Y131501D03*
X288438D03*
G54D16*
X67830Y26575D03*
X274774Y163422D03*
G54D25*
X98819Y159528D03*
Y150472D03*
X201181Y159528D03*
Y150472D03*
G54D34*
X167827Y233032D03*
X134363D03*
X160938D03*
X151095D03*
X141252D03*
G54D17*
X27107Y60498D03*
X27379Y240970D03*
X275761Y68597D03*
G54D26*
X86417Y129409D03*
X213583D03*
Y180590D03*
G54D35*
X196702Y273945D03*
Y266071D03*
G54D27*
X86417Y180590D03*
G54D18*
X51426Y95480D03*
Y84850D03*
G54D36*
X196702Y281512D03*
Y287418D03*
X207202Y281512D03*
Y287418D03*
X217702Y281512D03*
Y287418D03*
X228621Y281595D03*
Y287501D03*
G54D37*
X262774Y210302D03*
G54D19*
X58201Y167734D03*
X130387Y14851D03*
X100480Y271200D03*
X82061Y271601D03*
G54D28*
X127394Y259449D03*
X174796D03*
G54D38*
X280474Y210302D03*
X262774Y235902D03*
X280474D03*
G54D29*
X154405Y158547D03*
Y152447D03*
X217702Y273058D03*
Y266958D03*
X207202Y273058D03*
Y266958D03*
X228621Y272997D03*
Y266897D03*
G54D39*
X244450Y214495D03*
Y225519D03*
M02*
