M48
INCH,LZ
VER,1
FMAT,2
T01C0.008F1B1S6H2000
T02C0.01F1B1S6H2000
T03C0.012F1B1S6H2000
T04C0.02F1B1S6H2000
T05C0.0315F1B1S6H2000
T06C0.035F1B1S6H2000
T07C0.0354F1B1S6H2000
T08C0.0394F1B1S6H2000
T09C0.0402F1B1S6H2000
T10C0.0433F1B1S6H2000
T11C0.0618F1B1S6H2000
T12C0.0906F1B1S6H2000
T13C0.142F1B1S6H2000
DETECT,ON
ATC,ON
%
T01
X0159Y01261
X01618Y01259
X0422882Y0152053
Y0155253
Y0158076
Y0161276
Y01641
Y01673
X0425382Y0152053
Y0155253
Y0158076
Y0161276
Y01641
Y01673
X0428Y0152053
Y0155253
Y0158076
Y0161276
Y01641
Y01673
X04305Y0152053
Y0155253
Y0158076
Y0161276
Y01641
Y01673
X0232269Y015
X02366Y0147638
Y0152362
X0240931Y015
X0132997Y0161621
X0136737Y0159358
Y0163885
X0140477Y0161621
X0142358Y0123563
X0144621Y0119823
Y0127303
X0146885Y0123563
X0184856Y0082855
X0188596Y0080592
Y0085119
X0192337Y0082855
T02
X01336Y04808
X013391Y0478319
X0202969Y03886
X05425Y00883
X0574355Y007924
X0505706Y0411831
X05177Y02695
X01355Y01701
X043215Y014355
X05702Y00687
X05753Y00715
X04861Y02858
X01014Y04149
X01015Y04189
X01035Y04169
X01056Y04149
Y04189
X0129332Y02662
X01338Y0136
Y014
X01378Y0136
Y014
X01929Y03985
X01994Y0395169
X0212701Y0437576
Y0440376
X0215601Y0439053
X0216066Y0140266
X02175Y0355031
X0218301Y0437576
Y0440376
X02227Y00918
X0229365Y0436
Y04416
X0230842Y04387
X0231093Y04458
X0232165Y0436
Y04416
X024543Y04361
Y04416
X0246907Y04387
X024823Y04361
Y04416
X02548Y01388
X0262576Y0436699
Y0442299
X0264053Y0439399
X0265376Y0436699
Y0442299
X00294Y0460831
Y0463631
Y04837
Y04865
X0299066Y0261833
Y0265533
Y0269233
X0302766Y0261833
Y0265533
Y0269233
X0306466Y0261833
Y0265533
Y0269233
X03151Y03075
Y03116
X03171Y03095
X03191Y03074
Y03116
X00323Y0462309
Y0485177
X0035Y0460831
Y0463631
Y04837
Y04865
X03536Y0103
Y0107
Y0099
X03576Y0103
Y0107
Y0099
X03583Y02092
Y02136
X03616Y0103
Y0107
Y0099
X03618Y02114
X03653Y02092
Y02136
X0430738Y0102141
Y0106141
Y0110141
X0433738Y0102141
Y0106141
Y0110141
X0436738Y0102141
Y0106141
Y0110141
X0439738Y0102141
Y0106141
Y0110141
X04399Y04299
Y04355
X0441377Y04326
X04427Y04299
Y04355
X0442738Y0102141
Y0106141
Y0110141
X0456567Y04299
Y04355
X04566Y03504
X0458044Y04326
X0459367Y04299
Y04355
X0473233Y04299
Y04355
X047471Y04326
X0476033Y04299
Y04355
X04895Y04298
Y04354
X0490977Y04325
X04923Y04298
Y04354
X05103Y03847
X05426Y00836
X00547Y0287
X0587454Y0078346
X00639Y03031
Y03074
X0065931Y0278831
X006608Y03052
X0067131Y04354
Y0441
X00682Y0303
Y03074
X0068609Y04381
X0069931Y04354
Y0441
X0079159Y0383838
Y0386838
Y0389838
Y0392838
Y0395838
X00821Y02738
X0083159Y0383838
Y0386838
Y0389838
Y0392838
Y0395838
X00855Y04354
Y0441
X0086977Y04381
X0087159Y0383838
Y0386838
Y0389838
Y0392838
Y0395838
X00883Y04354
Y0441
X00897Y01565
X00944Y0387831
X0096Y03013
X05259Y0253801
X03631Y01169
X05172Y02726
X0485405Y02589
X02198Y03595
X02248Y03545
Y03595
X02346Y03312
Y03337
X008985Y040225
X0531626Y00944
X05318Y00896
X0568724Y011304
X05752Y0113
X0469094Y033605
X04661Y02907
X03606Y0119
X03608Y009
X03703Y00907
X01052Y03794
X00967Y03664
X03464Y00974
X056655Y005815
X0485373Y0251459
X0485636Y0282818
X0487308Y0261303
X01975Y0356
X01992Y03892
X02005Y0355652
X0063Y02957
X0127Y04653
Y04678
X05673Y00688
X05494Y01125
X05434Y01126
X05641Y01129
X05322Y00768
X05314Y00738
X055765Y01126
X00852Y02738
X0322818Y0086182
X0577Y00668
X0487007Y0044383
X0483442
X0496456
X0492891
X0505989Y0044645
X0502255
X0515354Y0044383
X0511788
X0487091Y0021967
X0223Y04396
Y04429
X0483357Y0021967
X049654Y0021867
X0492806
X0505989Y0021567
X0502255
X0515438Y0021667
X0511704
X0173069Y043983
Y044383
Y044783
X0177069Y043983
Y044383
Y044783
X0181069Y043983
Y044383
Y044783
X0185069Y043983
Y044383
Y044783
X0189069Y043983
Y044383
Y044783
X0327Y03134
X01035Y0361253
X03603Y0087
X03554Y00908
X00967Y03636
X0485171Y0255954
T03
X05192Y028
X01228Y02725
X0146154Y01636
X01971Y00903
X02002
X02012Y00933
X01279Y01098
X0148Y0108
X00613Y00901
X00644
X00688Y01081
Y01116
X0203765Y00793
X02039Y00745
X0038643Y00868
X0067Y00752
X0073295Y0100805
X01603Y0098863
X05355Y00264
X0540343Y00232
X02862Y01052
X02919Y01049
X02969Y01048
X03218Y00978
X03378Y00783
X03258Y00835
X00692Y02804
X02178Y00828
X02212Y00832
X02225Y00953
X04135Y02231
X04155Y022
X04165Y02165
X04429Y02771
X04461Y02769
X04495Y0277
X0453
X04615Y02695
X0461573Y0275976
X04616Y02728
X04026Y0216053
X0404093Y021877
X042099Y02035
X0421Y02066
Y02097
Y02128
Y02159
Y0219
X04215Y020042
X04246
X04696Y02909
X02001Y04062
X04097Y02436
X04198Y02886
X01035Y04
X02713Y00892
X04035Y01328
X04066
X04097
X04238Y01245
X02631Y0088735
X01643Y04504
X01677Y04344
X0195Y04567
X01093Y00895
X0124Y00927
X0126Y01065
X01451Y0094978
X01564Y01362
X01653Y00916
X017905Y040025
X0189069Y03831
X0211369Y00844
X02263Y00897
X02461Y01287
X025593Y009343
X02579Y00849
X0278613Y0306713
X02817Y01021
X02827Y02936
X02849Y01009
X00298Y00851
X0298469Y00617
X03102Y00784
X03108Y01021
X03145Y00797
X03189Y00774
X0319Y00939
X03229Y0316
X03241Y0265633
X03243Y0262533
Y0268733
X03245Y0259433
X03275Y00969
X03299Y01629
Y01679
Y01729
X03349Y01629
Y01679
Y01729
X03399Y01629
X03418Y00756
X03449Y01629
X0345876Y01035
X03573Y01152
X03668Y00917
X0369324Y01025
X03824Y01801
X03858Y01648
X0386Y01754
X03923Y02539
X04018Y00972
X04025Y02538
X04034Y00638
X04211Y01329
X04242
X04273
X00453Y0090791
X04571Y00739
X04669Y0052686
X04677Y01046
X0467731Y0096131
X0469491Y0339125
X04926Y05351
X04928Y041
X05024Y01054
X05042Y00743
X05207Y04172
X05543Y0057
X05545Y01125
X00576Y00954
X00843Y00924
X00861Y0148766
X00862Y03725
X0278384Y0077011
X0281584
X0359Y0316
X03688Y02058
X03726Y01961
X03728Y02004
X03979Y02085
X0544769Y0526469
X0389516Y0368016
X03348Y01511
X03352Y01465
X03353Y01424
X03392Y01511
X03438
X03693Y0152
X03828Y01415
X03972Y00846
X0501096Y0224596
X05043Y02465
X0117Y02384
X0128802Y0209402
X0346586Y0628414
X0108216Y0240584
X0075496Y0230876
X04958Y01966
X051455Y02458
X032515Y0620825
X03509Y06504
X0346816Y06505
X0359839Y0619739
X051835Y051765
X05255Y00555
X0196Y0384
X0551Y00984
X018655Y038795
X0258969Y00707
X0047933Y00844
X0561847Y0101282
X01917Y03873
X02625Y00674
X00528Y00828
X05624Y0119931
X0543458Y0507458
X055485Y04325
X055795
X0568143Y0507458
X00952Y03287
X00959Y03334
X02899Y0072295
X03338Y00979
X05659Y01016
X0582Y01209
X0090418Y0094145
X01662Y0104
X02696Y00817
X0044103Y0096438
X05448Y00814
X01274Y00992
X05811Y01136
X02332Y01019
X05546Y01234
X0087697Y01377
X0092Y01241
X01401Y0093958
X0172493Y0091793
X02391Y00843
X0560321Y0047
X00832Y00871
X01403Y0097959
X01773Y00916
X02394Y00884
X05631Y00449
X00771Y00911
X02902Y0075732
X03423Y00936
X04029Y00922
X05435Y00739
X00843Y01281
X03023Y00733
X0339061Y0094739
X0396569Y01024
X05213Y00724
X00897Y01274
X03429Y0628357
X037Y06013
X03735
X03775
X03345Y06018
Y06375
X0338Y06018
X0342
X04411Y0331595
Y0336795
X05037Y04074
X05207Y04118
X0499969Y0406769
X0556Y00765
X03686Y01751
X03935Y02436
X0570521Y01235
X0204608Y04058
X0227Y0385
X02915Y0251565
X0488Y02964
X05657Y03302
X0495Y04047
X05205Y0387
X0389469Y0203931
X0487Y01348
X0543063Y0096463
X03979Y02051
X05539Y03536
X01594Y0122969
X02371Y01203
X03754Y01174
X0189469Y0097891
X03937Y01305
X03099Y01122
X0122847Y02625
X02037Y01809
X03331Y01256
X039605Y0116
X04283Y01175
X03023Y0089969
X0397169Y01305
X04157Y01244
X0444069Y01455
X04563Y03455
X05257Y03343
X0566821Y012322
X00995Y03925
X03861Y0309
X03974Y02539
X0446Y0159
X00834Y02806
X03599Y03336
X03641Y03334
X04879Y02918
X0488Y02881
X01009Y0284
X01015Y04367
X0101974Y04407
X01027Y0388269
X0102746Y0142746
X01065Y00934
X0107Y04368
X0109287Y0452787
X01221Y02825
X01224Y02396
X01254Y01625
X01273Y01033
X01348Y02814
X01366Y01307
X01381Y01462
X01477Y02894
Y02944
Y02994
X01525Y0091041
X01557Y01412
X01569Y01671
X0159325Y0091625
X01657Y0155453
X017545Y0402
X01755Y03985
X0176Y0395
X01804Y0088175
X01881Y03656
Y03704
Y03752
X01896Y01969
X01921Y03656
Y03704
Y03752
X0193031Y0406
X01942Y00973
X01961Y03656
Y03704
Y03752
X0197853Y0065453
X02001Y03656
Y03704
Y03752
X02041Y03656
Y03704
Y03752
X0205Y04484
X02069Y00845
X02122Y01615
X02146Y01486
X0218498Y03354
X0221Y03818
X02248Y03778
X02312Y03771
X00233Y00796
X02335Y03952
X02379Y04465
X02402Y0174
X02475Y04458
X0247953Y0196953
X02524Y04322
X00253Y00909
X02551Y00882
X02561Y0078203
X02615Y04475
X0262318Y0099704
X0278384Y0098484
X0280914Y0285486
X0281584Y0098484
X0283531Y0350069
X02842Y02793
X02872Y02981
X00289Y05675
X02915Y0248165
X0297Y0313
X02972Y03075
X03011Y01117
X03021Y00691
X03024Y01045
X0304288Y03367
X03063Y00996
X03064Y00952
X031Y0247565
X0313066Y02945
X0314631Y0096669
X0318937Y0340863
X0318964Y0073764
X0321302Y0274902
X03221Y02566
X03245Y00942
X03315Y0107998
Y0313576
X03346Y01036
X0336126Y0196226
X0336267Y0192267
X03384Y00661
X033865Y003555
X03395Y01577
X03409Y01246
X0346Y01236
X03475Y0309
X03494Y02001
X03496Y01953
X03503Y01576
X03509Y01232
X0354105Y0286
X03559Y01232
X0356063Y00597
Y0070663
X03609Y01232
X03611Y01577
X03617Y02461
X03659Y01232
X03693Y02093
X03705Y01578
X03714Y01277
X03715Y01232
X03718Y01863
X03776
Y0192
X03777Y01232
Y01278
X03791Y01578
X03804Y02222
X03805Y0235
X03807Y0229331
X03821Y03087
X03822Y02073
X0387Y01578
X03909Y0158
X03923Y0183
X03931Y02083
X03959Y01579
X0395953Y02705
X03963Y0067431
X0397Y01829
X03974Y00906
X04021Y02355
X04022Y02284
X04032Y01578
X04036Y02037
X04059Y02319
X04089Y0115229
X04095Y02283
Y02353
X041Y02038
X04118Y01812
X0413257Y0145443
X04158Y0121
X04162Y00688
X04165Y02035
X04166Y00574
X04225Y04479
X04246Y01867
X0428Y0193
Y01965
X04296Y01867
X04315Y0193
Y01965
X0435Y0193
Y01965
X04359Y01318
X04385Y0193
Y01965
X04411Y03438
Y0349
X04415Y044
X0443Y01326
X0444Y01807
X04451Y01775
X04486Y011388
X04488Y0122969
X04493Y01814
X04496Y01342
X04509Y01578
X04529Y00829
X04536Y01814
X04544Y01342
X0456Y04408
X04567Y01577
X0458146Y0053854
X04593Y01814
X04596Y01342
X04617Y02656
X04619Y0261
X04622Y01578
X04623Y0279297
X0463Y01815
X04643Y01343
X04664Y04412
X04677Y0056
Y0091
X0467869Y0100069
X04679Y00488
Y00608
Y00645
X04682Y00711
Y0086
X04683Y0076
Y0081
X04699Y03459
X00472Y02743
Y02778
X00473Y02817
X0474137Y0287237
X0475208Y0271138
X04754Y0277
X04775Y02965
X04798Y00209
X048096Y02994
X048144Y023
Y02331
Y02362
Y02393
Y02424
X04815Y03332
X04866Y04405
X04869Y01042
X04898Y00296
X0489949Y00206
Y0042597
X04956Y02553
X04959Y0383131
X0496703Y0296603
X04968Y02935
X0496978Y04172
X04986Y02601
Y02671
Y02741
X0499398Y00186
Y0042597
X05Y03959
Y03996
X05021Y0065831
X05035Y0077994
X05056Y02601
Y02671
Y02741
X0506Y03959
Y03996
X05069Y00178
X05072Y00294
X0508721Y0101321
X05108Y01404
X0511Y04014
X0513Y00601
X05154Y01404
X05163Y00737
X05175Y0101513
X0518295Y0042597
X0519Y02958
X05195Y0054969
X05202Y00199
X05221Y03545
Y03579
X05226Y03619
X0523169Y0534931
X05234Y04616
X05235Y04663
X05238Y02959
X0052734Y01001
X05273Y00194
X0527744Y0042597
X05284Y04616
X05285Y04663
X0529102Y0532198
X05296Y02272
X05303Y05245
X05319Y00251
X05334Y04616
X05335Y04663
X05392Y04615
X05393Y04662
X0540343Y00198
Y0042597
X0543398Y0532198
X05446Y04611
X05447Y04658
X05493Y03387
X05494Y03423
X05531Y03387
X05533Y03423
X05538Y00715
X0554469Y0359969
X0556Y01
X05567Y0339
X05571Y03421
X05586Y00688
X05607Y03378
Y03413
X0561Y03307
X05614Y03343
X05638Y008
X05643Y03532
X05683Y00458
X05692Y0297
X0574677Y0096216
X05755Y03022
X005765Y0098801
X058Y03023
X05806Y01057
X05807Y03562
X05839Y03219
X05844Y03047
Y03094
Y03144
X05864Y0374469
X00684Y04473
X00706Y02842
X00783Y01025
X00792Y01075
X00802Y0551772
X0082604Y0564396
X00862Y03621
X00864Y013365
X00867Y02599
X0089954Y0447239
X00927Y0401
X0093169Y0409731
X0099095Y05405
X02095Y0388
X0075716Y0335016
X0299866Y0245566
X0321265Y0270965
X0472747Y0261647
X05309Y02835
Y02866
X01224Y02504
X01357Y02686
Y02718
X00724Y02603
X00745Y02385
X0308416Y0279054
X031365Y026025
X01895Y04054
X0190431Y0356036
X05212Y01026
X05495Y02553
X0556452Y0087952
X00702Y02385
Y0242
X00703Y02321
X04994Y02499
X0508694Y02782
X05561Y02565
X0588033Y0087136
X03888Y00855
X05191Y00589
X05254Y03244
X03995Y0116
X0508721Y01048
X05254Y03144
X00849Y03021
X00887Y03022
X00923
X0051Y02868
X00749Y0303231
X00751Y02856
Y02887
Y02918
Y02949
X0574692Y0088231
X01776Y04284
X05867Y00737
X02285Y0419
X0087237Y0376
X05636Y00837
X05863Y00841
X0527Y01103
X05318Y01002
X05628Y0115994
X0560581Y0122804
X0574677Y0099616
Y0092481
X04481Y04413
X04629Y0441481
X04335Y05445
X0443395Y05405
X0400986Y05442
X04309Y05225
X04062Y05528
X0477121Y0522732
X0464952Y05511
X04786Y05598
X02184Y05632
X0234547Y0527111
X0208145Y0560713
X0222356Y0528288
X0234Y05437
X02658Y0562282
X0241334Y0446174
X0254361Y0447639
X0065Y05495
X00797Y05294
X0051498Y0562202
X00627Y0564123
X01155Y055
X0097Y05636
X01093Y05647
X00977Y05517
X0083288Y04498
X00975Y0448
X05508Y00569
X0510471Y03885
X04556Y03421
X04662Y03403
X04653Y03356
X0459383Y0301583
X04689Y03295
X0479Y035
X03614Y02025
X00558Y00923
X00222Y0094291
X00276Y01021
X0048797Y0099897
X0274Y0097204
X02658Y0099704
X0268Y00699
X02641Y00704
X0389563Y0271
X03574Y02399
Y0243
X0278513Y02936
X04893Y04028
X0496591Y0413822
X05456Y00685
X0586244Y009543
X046164Y00741
X05747Y00829
X0503Y0383239
X0519Y03611
X0519976Y0406476
X05207Y03827
X0489Y03619
Y03654
Y03689
Y03724
Y03759
Y03794
Y03829
X04925Y03794
Y03829
X05087Y04065
X0519661Y0402539
X0230005Y0396591
X04753Y03501
X05625Y03564
X05856Y03309
X05857Y03359
Y03409
X0589Y03309
Y03359
Y03409
X0227Y0395
X05394Y03487
X05396Y03455
X05873Y03488
Y03538
Y03588
Y03638
Y03688
X0505521Y05646
X04317Y04417
X04794
X04955Y052
X04251Y05232
X04429Y05481
X04885Y0593
X0435Y05225
X04311Y0559
X04653Y05451
X045Y05597
X04743Y056
X0356Y0637
X0376079Y0645921
X0356Y06405
X03684Y0640469
X038Y03675
X04114Y03591
X04115Y038625
X0429Y0353
Y0359
X0382109Y0532709
X03948Y0368127
X04781Y03633
X04023Y03646
X03007Y03503
X0310969Y0328869
X0311063Y03379
X03855Y034
X0263453Y0431953
X0378Y0339747
X03795Y03635
X04135Y0407
X02528Y04231
X0311581Y0353051
X04061Y03584
X04049Y035275
X04668Y03608
X03059Y03645
X04022Y03591
X04115Y03645
X03015Y03395
X0367331Y0355831
X043105Y040295
X04325Y0409
Y04125
X03797Y03432
X0389Y034
X05173Y0242631
X05265Y03088
X05268Y03055
X05306Y03057
X05344Y0297
X05382Y02971
X05432Y02969
X0528Y02595
X05307Y0262
X0536Y02625
X05607Y03023
X05611Y03056
Y03129
X05613Y03089
X05628Y03225
X05629Y03182
X05666Y03229
X05672Y03182
X0537631Y02577
X04862Y02692
X05061Y02995
X04589Y02955
X04754Y02833
X04693Y02739
X0485408Y0274343
X03951Y02221
X0428212Y02565
X0435388Y02791
X0407169Y0256
X0447288Y0199488
X0454288Y0222388
X04334Y02569
X04385
X04627Y02245
X04589Y02303
X041855Y022535
X04437Y02222
X04488
X04217Y023
X04458Y02547
X04502
X04537Y02321
X03938Y0237
Y02305
X0447912Y0232388
X0454988Y0254688
X03976Y02433
X01805Y03254
X0203872Y0354349
X02095Y0361247
X00807Y03579
X00843Y0358
X0181Y038
X0179Y0405
X01809Y03852
X0185863Y038462
X0213Y0375
X02085Y03845
X01459Y03907
X01495Y03878
Y03935
X01528Y03908
X0189Y0345
X01894Y02628
X0178Y03735
X01955Y03875
X0208Y0405
X01749Y03116
X01467Y03044
X0193831Y0355996
X00615Y03145
X010895Y029365
Y029675
X011205Y029365
Y029675
X0075Y0307169
X0085504Y0317603
X0088604
X0091704
X0094804
X0107Y0307
X0076Y03185
X0048631Y0298031
X0101904Y03241
X01051Y0323653
X0107Y0311
X00685Y0315
X00986Y03243
X0107Y03145
X00651Y0315
X00717Y02958
X03235Y0278694
X0347Y0273984
X0361854
X0384382Y0270618
X0348969Y03058
X03137Y02645
X0190496Y01837
Y01869
X0194196Y01837
X02015Y02125
X02783Y02448
X0294355Y0272855
X03005Y02895
X0299116Y02779
X0194196Y02058
X0306Y02895
X0310636Y0276478
X02903Y02671
X0307687Y02545
X02761Y02857
X04315Y01332
X04168Y01723
X0440131Y01469
X0465Y01145
Y0121
Y01265
X04675Y01464
X04676Y01514
X04682Y01688
X04683Y01639
X0469Y0133
X04691Y01383
X04726Y01687
X04727Y01737
X04735Y01424
Y01465
X0476Y01711
X04786Y01738
X0436Y01445
X03792Y0173469
X0423216Y0175916
X04304Y01746
X02315Y01595
X02595Y01955
X0213Y0155
X02136Y01686
X02151Y01442
X02359Y01664
X0242Y014
X02515Y01975
X02545Y0196
Y01991
X0242722Y0159778
X02695Y0196
X0238369Y0129269
X02596Y01567
X0129778Y0156009
X01393Y0101974
X01175Y010695
X01065Y0101231
X01387Y01081
X0093434Y0104965
X00579Y01083
X0057569Y0103818
X0090742Y0107042
X0183659Y0072159
X01785Y00992
X014405Y010435
X0145109Y0100991
X02399Y00969
X02168Y01009
X02069Y00959
X0238673Y0100608
X02899Y006885
X03094Y00659
X0294351Y00616
X0095774Y01285
X0092756Y01601
X0096851Y0138438
X02045Y0454
X02235Y0447
X03085Y06082
X0308Y0556437
X0203149Y0554911
X02184Y0525
X02244Y05629
X02555Y05495
X02469Y05616
X02709Y05452
X02375Y05623
X02731Y05626
X0197863Y05231
X02841Y05116
X0198908Y05184
X0045277Y04505
X00649Y04487
X01596Y06448
X01115Y055
X0046502Y05564
X01142Y0564123
X00921Y05515
X00621Y0528594
X00981Y0529958
X00675Y05644
X00918Y05636
X00654Y0521
X00425Y05225
X00985Y05215
X0041Y0511
X01898Y01919
X02937Y02873
X0359647Y0305353
X0392631Y01021
X0388597Y0068303
X0392569Y0067431
X03883Y00993
X01671Y04782
X02038Y04175
X01885Y0458
X01971Y04817
X01985Y04779
X01987Y0471
Y0474268
X01998Y044305
X01641Y04394
X0191896Y04585
X01949Y04754
X01984Y04488
X01234Y0139
X01268Y0144
X0307869Y03103
X01716Y01066
X05751Y00574
X0561794Y0057647
X0550189Y0101711
X05867Y00703
X0564388Y0071
X0574619Y0076151
X0586473Y0090158
X0542654Y0078346
X053135Y006865
X02077Y0357593
X05558Y00463
X05094Y0074
X0521Y00904
X0107Y02342
X01166
X00832Y02708
X01225Y02573
X01343Y02773
X0086Y02634
X01237Y02658
X0109Y0284
X01799Y025955
X01792Y02526
X00871Y0282
X03154Y0109818
X0330635Y0067122
X0333857Y0066027
X03338Y00941
X0501Y00953
X0223131Y0419269
X04699Y03425
X05245Y03405
X05263Y00678
X040958Y0218966
X0410761Y02161
X0425063Y02847
X0460223Y03059
X0463723
X0467223
X04693Y03329
X0470723Y03059
X0474223
X0477722
X0481223Y030279
Y03059
X00914Y03781
X0443583Y0421846
X0439417
X04914Y04409
X04831Y04413
X0477083Y0421346
X0472917
X0460183Y0420317
X0456017
X04898Y05639
X05256Y00293
X0505504Y0594904
Y0614996
X0521445Y00291
X0234093Y0446664
X0227908Y0446941
X02195Y044695
X02135Y044725
X02677Y04488
X02581Y04473
X0251082Y044674
X0244501Y0447411
X0293996Y058804
X02976Y06101
X05257Y00232
X0294Y058
X05215Y00241
X01738Y03191
X0525937Y0081352
X0095989Y0423511
X01697Y03302
X052255Y008105
X0095911Y0418511
X0078164Y045
X0075Y04475
X0110754Y0449083
X0026006Y0493
X00305Y049305
X0110754Y0444917
X0026006Y04765
X00305
X0034006Y0471
X0038006
X00382Y0463
X00928Y04491
X0033506Y0453
X0036706
X008655Y044765
X04772Y0399831
X05228Y00589
X0376Y03635
X0398Y0344
X04005Y0342
X0400796Y03454
X0376Y036
X01642Y04443
X0167Y04259
X02041Y0439555
X0242Y01361
X04254Y01435
X05135Y00687
X0422Y01436
X05225Y00948
X03141Y02682
X0588856Y0093254
X01968Y04856
X03708Y03563
X03778Y05309
X0387Y03487
Y03587
X03905Y03537
X0394Y03487
Y03587
X0397Y03395
X04018Y03698
X04261Y04029
X04053Y02434
X05255Y0052
X05616Y03603
X05673Y00418
X01974Y04364
X00639Y0425
X0187959Y04313
X00641Y0418069
X02026Y04327
X05845Y005
X0187647Y0422247
X02011Y04365
X0123Y02772
X05548Y03461
X02906Y0263
X02915Y0255004
X03678Y03655
X05087Y02452
X05174Y02307
Y02355
X01295Y02177
X013125Y021495
X0133Y02177
X00426Y0256
X00427Y02522
X00466Y0256
X00467Y02522
X0071Y02267
X03185Y0601
X0322
X03333Y06414
X0342Y06505
X03515Y0601
X0355
X03585
X01174Y02774
X0294Y02577
X01024Y02068
X0108Y02066
X01135
X01192Y02067
X01261Y02309
X01293Y02277
Y02309
X0486966Y02488
X00675Y02127
X0071
X00826Y02356
X00882Y02362
X0093
X00979
X05007Y00868
X050051Y007591
X0504884Y0068084
X05438Y01016
X01065Y04035
X0151669Y0145069
X05884Y00987
X01Y04035
X01488Y01311
X0266Y02926
X0327Y03101
X05629Y00959
X01446Y0132531
X02671Y0288827
X03273Y03062
X05576Y00942
X00995Y04075
X0122Y02466
X01298Y02227
X03364Y06301
X0380329Y05945
X04973Y02108
X05202Y02565
X04917Y01871
X00711Y02177
X00866Y02465
X03268Y0634
X03445Y0594263
X03242Y06448
X0326326Y0594215
X0335Y06485
X0363Y05945
X0520469Y0051031
X05309Y00179
X05502Y0069
X0534043Y0022057
X03439Y00906
X04502Y00536
X05007Y00827
X0534043Y0043157
X05867Y00668
X05001Y0051
X0530894Y00445
X056299Y0076374
X0413294Y01329
X04137Y01743
X04144Y0169327
X04417Y01779
X01944Y05539
X0253Y05618
X0343036Y0636324
Y0641324
X0345536Y0638824
X0348036Y0636324
Y0641324
X04052Y05387
X04447Y05593
X04048Y05455
X038605Y036745
X04302Y03651
X05164Y02871
X05202Y0273753
X05309Y02966
X0116869Y02858
X012055Y02672
X0378Y0622
X0045577Y04398
X0051077Y04399
X0476878Y0655922
X0434278Y0655822
X0296478Y0656422
X0258278Y0656222
X0121178
X01429Y06208
X0092978Y0656322
X0142896Y0644
X0079178Y0656222
X0446078Y0655822
X0404978
X0270478Y0656222
X0228578
T04
X01525Y01126
X0157Y01125
X01615Y01124
X0274Y0152
X02791Y01305
X02836
X02881
X03016Y01273
X00304Y00749
Y008
X03066Y01273
X0457Y01098
X04819Y01943
X01409Y00809
Y00869
X01022Y01008
Y01058
X01544Y01604
X01613Y01653
X0041Y0099291
X00704Y00691
X01614Y01048
X0106Y00722
X0112Y00692
X0114041Y0089431
X03257Y01255
X03463Y00724
X03514Y00726
X03645Y00612
X0369Y00654
X03469Y0059
X03519
X00305Y02426
X0035
X00647Y01291
X00787Y01297
X0064Y01426
X00643Y01493
X00854Y01536
X04485Y0099
X04616Y01048
Y00997
X02275Y00838
X0159236Y05987
X0163936
X0168636
X00225Y0509
X00275
X00282Y0562202
X00759Y03637
X00812Y03636
X008795Y055155
X02545Y0375
X0257Y0371
X02595Y0375
X0273Y0365
Y03705
X0283531Y0334831
X0374004Y02325
X05124Y01609
Y01654
Y01699
Y01744
X05169Y01609
Y01654
Y01699
Y01744
X01173Y04045
X0123Y04047
X01286
X0134
X0320441Y0286
Y0291
Y0296
X0325041Y02861
Y02911
Y02961
X03975Y0283
X03998Y02673
X04133Y027985
Y028445
X04179Y027985
Y028445
X0463Y0255
X04638Y02311
X04683Y02551
X04705Y02242
X04758Y02311
X04813Y02112
Y02185
X04815Y02034
X00743Y04057
X0077Y0413
X01694Y01477
Y01527
X01744Y01477
Y01527
X01794Y01477
Y01527
X0192Y0215
Y02205
X0197Y0215
Y02205
X0260222Y0057778
X026079Y00627
X03381Y02345
Y02391
Y02437
X03427Y02345
X03843Y0286
Y02906
Y02952
Y02998
X03889Y0286
Y02906
X04135Y00985
X04265Y0099
X05055Y01107
Y01172
X05125Y01107
Y01172
X05195Y01107
Y01172
X0267Y00411
X01278Y04394
X02171Y04194
X0034631Y0447369
X00634Y04123
X0076Y04235
X0112Y04062
X01135Y0429
X0128Y01307
X01476Y01467
X01888Y04265
X02332Y03835
X02343Y02986
X02872Y04882
X02979Y04893
X03116Y030325
X03225Y01294
X04735Y04097
X04898Y03983
X05045Y05898
X05095Y04355
X0549Y0094
X058795Y01035
X00968Y0413537
X03209Y0059
X03243Y00625
X0304598Y00462
X032625Y003815
X033075
X03324Y00247
X03371Y00251
X0364Y03155
X01358Y05125
Y05245
X01359Y05184
X01396Y05216
X01481Y04789
X01532Y04792
X01581Y04793
X03237Y04805
X03421Y04803
X03919Y05247
X04049Y00814
X04059Y0068
X04193Y00815
X04242Y00813
X0221Y01998
X02213Y01912
X0222Y02366
X02222Y02307
X0223Y02129
X02278Y02362
X02718Y02394
X03734Y02382
X03735Y0244
X03771Y02573
X03772Y02628
X03785Y0239
Y0244
X01062Y06699
X01162
X01262
X01362
X01462
X01562
X00162
X01662
X01762
X01862
X01962
X02062
X02162
X02262
X02362
X02462
X02562
X00262
X02662
X02762
X02862
X02962
X03062
X03162
X03262
X03362
X03462
X03562
X00362
X03662
X03762
X03862
X03962
X04062
X04162
X04262
X04362
X04462
X04562
X00462
X04662
X04762
X04862
X04962
X05062
X05162
X05262Y05599
Y05699
Y05799
Y05899
Y05999
Y06099
Y06199
Y06299
Y06399
Y06499
Y06599
Y06699
X05363Y05577
X05463Y05576
X05563
X00562Y06699
X05663Y05576
X05763
X05863
X05963
X06044Y04154
Y04254
Y04354
Y04454
Y04554
Y04654
Y04754
Y04854
Y04954
Y05054
Y05154
Y05254
Y05354
Y05454
X00062Y03299
Y03399
Y03499
Y03599
Y03699
Y03799
Y03899
Y03999
Y04099
Y04199
Y04299
Y04399
Y04499
Y04599
Y04699
Y04799
Y04899
Y04999
Y05099
Y05199
Y05299
Y05399
Y05499
Y05599
Y05699
Y05799
Y05899
Y05999
Y06099
Y06199
Y06299
Y06399
Y06499
Y06599
Y06699
X00662
X00762
X00862
X00962
X01086Y00065
X01186
X01195Y00702
X01286Y00065
X01386
X01486
X01586
X01686
X01786
X01886
X01986
X02086
X02186
X02286
X02386
X0240033Y0063036
X02486Y00065
X02586
X02686
X02786
X00286
X02886
X02986
X03086
X03186
X03286
X03386
X03486
X03586
X03686
X03786
X00386
X03886
X03986
X04086
X04186
X04286
X04386
X04476Y00064
X00486Y00065
X00586
X00062Y0106
Y0116
Y0126
Y0136
Y0146
Y0156
Y0016
Y0166
Y0026
Y0036
Y0046
Y0056
Y0006
Y0066
Y0076
Y0086
Y0096
X00686Y00065
X00773Y00692
X00786Y00065
X00886
X00986
X0429Y05135
X04807Y05152
X04593Y03157
Y03207
X04656Y03157
Y03207
X04706Y03157
Y03207
X04756Y03157
Y03207
X04817Y03157
Y03207
X04923Y03519
X04926Y03569
X05006Y03548
X05054Y03546
X051
X04044Y03732
X04061Y03779
X01022Y02583
X0102447Y0340953
X01045Y03846
X01054Y02514
X01056Y02653
X01119Y02891
X01201Y02899
X01221Y01723
X01222Y0181
X01238Y01157
X0127202Y0332002
X01307Y00733
X01311Y01998
X01312Y01902
X01314Y0181
X01315Y01723
X01327Y00825
X01353Y03391
X01354Y029
X0138964Y0596959
X01412Y01724
X01417Y01807
X0143464Y0596959
X0147964
X01519Y01723
X0159Y02485
X01595Y0224
X01609Y01795
X01613Y01723
X01705Y01155
Y01225
X01725Y01953
X01729Y01898
X0173Y0184
X01761Y03483
X01764Y00731
Y00814
X0178Y01155
Y01225
X01785Y01055
X01805Y02776
X0183Y0184
Y0195
X01833Y01896
X01847Y02601
X01857Y02749
X01865Y02548
X0187698Y0339698
X01895Y0111
X0202398Y0421302
X02085Y0111
X021175Y040025
X00217Y05872
X02225Y01235
X02331Y04291
X02347Y03035
X0247053Y0369953
X02486Y03885
X02488Y03941
Y03998
X02515Y0128
X02517Y00822
X02519Y00746
X02526Y03206
X02531Y04275
X0254Y0123
X02565Y0128
X00261Y03602
X02617Y02939
X02629Y03206
X02645Y0196
Y02011
X0266898Y00236
X02696Y02011
X02721Y03205
X02748Y01933
X02864Y04823
X02902Y03036
X02913Y00422
X02929Y04792
X02955Y00465
X0298102Y0364202
X02982Y02038
X0304Y02039
X03044Y02155
X03045Y02094
X03278Y00328
X03295Y0136402
X03309Y0061
X03359
X03383Y02217
X03433Y0328007
X03497Y0338898
X03507Y02227
Y02301
X0351036Y0253036
X00355Y00612
Y00672
X00356Y0316554
Y0321654
X0358016Y0253016
X03645Y03095
X03808Y0065
X03827Y00602
X0387598Y0252802
Y0266898
X00407Y0316554
Y0321654
X04159Y03233
X0421Y02383
X04229Y03233
X04259Y00905
X04291Y03235
X04326Y00905
X04401Y00906
X04459Y0078
X04463Y00693
X04479Y00907
X0455784Y0401316
X00458Y0316554
Y0321654
X04894Y0171
X04954
Y05246
X05014Y0171
X0506Y05844
X05095Y0430169
X05121Y01454
X05172Y01498
Y01548
X05294Y0129
X05407Y03623
X0541Y04986
X05448Y0129
X05458Y0498954
X0548384Y00461
X0549821Y0073421
X05511Y04918
X0561Y01285
X05626Y02598
X05628Y02646
X0566Y01285
X00057Y01805
Y01905
Y02005
Y02105
Y02205
Y02305
Y02405
Y02505
Y02605
Y02705
Y02805
Y02905
Y03005
Y03105
Y03205
X05708Y00054
X05722Y0261
X0057308Y03643
X058Y01285
X05808Y00054
X05908
X05929Y02563
X0593Y02341
X05931Y02267
Y02484
X0604Y0108
Y0118
Y0128
Y0138
Y0148
Y0158
Y0168
Y0178
Y0018
Y0188
Y0198
Y0208
Y0218
Y0228
Y0238
Y0248
Y0258
Y0268
Y0278
Y0028
Y0288
Y0298
Y0308
Y0318
Y0328
Y0338
Y0348
Y0358
Y0368
Y0378
Y0038
Y0388
Y0398
Y0048
Y0058
Y0068
Y0078
Y0008
Y0088
Y0098
X00608Y03722
X0061Y03796
X00642Y02668
X00714Y01674
X00733Y01075
X00755Y03241
X00764Y01674
X0085734Y00646
X0090201Y00875
X00965Y035
Y03555
Y04295
X00972Y0344
X00989Y02515
Y02654
X01118Y03064
X01119Y0313
X014155Y03218
X01423Y03283
X01424Y03077
X01425Y03143
X01439Y03355
Y03423
X01935Y02614
X01981
X02028Y02615
X03361Y02126
X03407Y02051
Y02101
Y02151
X03463Y0205
Y021
Y0215
X03561Y0235
X00786Y01728
X00788Y0196
X00789Y01816
X00791Y02056
X00837Y02003
X00847Y01779
X00876Y02054
X00901Y01729
X00981Y02081
X052755Y0182
Y0187
X0532Y01795
Y0184
X00458Y0351
Y03581
X0374Y02225
Y02275
X0163936Y05361
X0168636
X01345Y05364
X01403Y05365
X0526Y0411
X05262Y0417
X0530908Y0410192
Y0416692
X05365Y0422
X0536908Y0410192
Y0416692
X044345Y0517832
X0466052Y05313
X0438436Y0517832
X0491Y05291
X04327Y05174
X04855Y05219
X04907
X0468436Y0519332
X04753Y05407
X04285Y05426
X04526Y05229
X0433621Y05399
X04576Y05223
X0473487Y052085
X04822Y05412
X03775Y0557
X03825
X03875
X03925
X03975
X0496469Y0200973
Y0206
X0500996Y0200973
X05092Y02168
Y02217
X051475Y02168
X0518Y02217
X05203Y02168
X0593491Y0209243
Y0214243
Y0219243
X0594291Y0173543
Y0178543
Y0183543
X05285Y02045
Y02095
X05335Y0216
X05345Y0224
X05475Y02285
Y0236
X0549Y0262
Y02671
X05556
X0556Y0262
X01387Y03719
X01974Y02492
X01975Y0255
X0201201Y0201256
X02024Y02492
X02025Y0255
X0203901Y0197256
X0206701Y0201256
X0209401Y0197256
X0212201Y0201256
X02648Y01718
Y017735
Y01829
X02687Y01744
Y017995
X0229361Y0521711
X0276924Y0544361
X0234263Y0521037
X0261924Y0544361
X02639Y05232
X0229424Y0544361
X0249361Y0521711
X0219239Y0544361
X0244347Y0521711
X02695Y0524723
X0252961Y05268
X01189Y05459
X007Y0523163
X01063Y054585
X00746Y052565
X01024Y05292
X0069139Y0546161
X00902Y05285
X01105Y05277
X0061Y05456
X00854Y05285
X01116Y05216
X01544Y05365
X01591
X00955Y05255
X01464Y0536541
X0047874Y0520481
X0081857Y0521571
X011585Y05241
X01021Y02344
X01112
X0135Y02323
X0135022Y0245614
X01351Y02376
X01364Y02131
X01368Y02193
X01435Y02188
X0136501Y02622
X014Y02763
Y028105
Y02858
X01667Y02479
X01729Y02203
X01778Y02204
X0427Y0289
X0429563Y02847
X0430784Y02382
Y02432
Y02482
X0434063Y02847
X0435284Y02382
Y02432
Y02482
X0439784Y02382
Y02432
Y02482
X0447Y02845
X04515
X0456
Y0289
X01486Y04651
X00765Y0429
X05386Y01226
X01278Y04577
X01281Y04526
X01322Y04182
X01386Y04186
X01666Y045726
X03242Y05185
X03431Y05203
X03563Y03598
X03728Y05252
X0378Y03345
X04115Y03545
X04201Y05001
X04202Y04866
X04206Y04936
X0421Y04816
X0425Y04407
X05525Y03676
Y03726
Y03776
X05592Y03694
Y03742
Y0379
X05647Y036955
Y03742
Y0379
X0577Y04375
Y04425
X0583Y04375
Y04425
X0589Y04375
Y04425
X0291134Y02406
X0295634
X0300134
X0071Y02227
X0463536Y0515
X04481Y05202
X0063Y01697
X00691Y0187
X00694Y01738
Y01811
X04924Y0179
X0496427Y01766
Y01816
X05092Y01926
Y01975
X051475Y01926
X0518Y01975
X05203Y01926
X00258Y02358
X00299Y02316
X00345Y02358
X01973Y0492
Y04985
X02054Y0518992
X02396Y05252
X01871Y05277
X01918Y05296
X01924Y05216
X0224361Y0520739
X02582Y05244
X03094Y05373
X03095Y05252
Y05315
X03157Y05373
X03158Y05315
X03159Y05252
X03343Y06225
X033845Y062055
X0351Y06215
X03555
X0356Y06495
X03585Y06455
X03615Y06495
X0364Y06455
X03665Y06495
X0369Y06215
X03735
X01894Y05539
X0233915Y054895
X0316Y0549
Y0555
Y05605
Y0566
X03215
X0369Y06325
X03745Y05655
Y06325
X038Y05655
X0385
X04552Y05569
X04092Y04562
X02771Y0434
X02776Y04406
Y04564
X00559Y04121
X0056346Y0406346
X0039806Y0439294
X03135Y0621
X03185Y06208
X03795Y0631
X03845
T05
X0519526Y0482052
X05274
X0519526Y0489926
X05274
X0519526Y04978
X05274
T06
X00351Y0417653
X00451Y0413637
X00351Y0409661
X00451Y0405645
X00351Y0401669
X00451Y0397653
X00351Y0393676
X00451Y0389661
X0025612Y0430645
Y0421629
Y0385645
Y0376629
T07
X0100872Y0627866
X0095872Y0617866
X0090872Y0627866
X0085872Y0617866
X0080872Y0627866
X0075872Y0617866
X0070872Y0627866
X0065872Y0617866
X0057683Y0643614
X0067683
X00991
X01091
X0278031Y0627866
X0273031Y0617866
X0268031Y0627866
X0263031Y0617866
X0258031Y0627866
X0253031Y0617866
X0248031Y0627866
X0243031Y0617866
X0234842Y0643614
X0244842
X027626
X028626
X0455197Y0627866
X0450197Y0617866
X0445197Y0627866
X0440197Y0617866
X0435197Y0627866
X0430197Y0617866
X0425197Y0627866
X0420197Y0617866
X0412008Y0643614
X0422008
X0453425
X0463425
T08
X0474201Y0027248G85X0474201Y0023311
X0546642Y0027248G85X0546642Y0023311
X0461898Y0036303G85X0461898Y0032366
X0558945Y0036303G85X0558945Y0032366
X0461898Y0017012G85X0461898Y0014256
X0558945Y0017012G85X0558945Y0014256
T09
X02405Y0024581
X0226721
X0212941
X02405Y0042692
X0226721
X0212941
X0159808Y0024581
X0146028
X0132249
X0118469
X010469
X009091
X0077131
X0063351
X0159808Y0042692
X0146028
X0132249
X0118469
X010469
X009091
X0077131
X0063351
X0577882Y046539
Y045161
X0559772Y046539
Y045161
X0027518Y012901
Y014279
X0045628Y012901
Y014279
X0419359Y0024581
X040558
X03918
X0378021
X0364241
X0419359Y0042692
X040558
X03918
X0378021
X0364241
T10
X05771Y0501157
Y0511
T11
X0031911Y0435684
Y0371669
T12
X0250343Y0037101
X0203098
X016965
X0053509
X0565362Y0475232
Y0441768
X0040038Y0119168
Y0152632
X0429202Y0037101
X0354399
T13
X05865Y05396
X0024
Y0024
X03053
X05865
Y02818
X0024
M30
