G04 CAM350 V10.0.1 (Build 314) Date:  Tue Jul 17 14:42:51 2018 *
G04 Database: D:\LGR\2018\JULY\REL50470_POWER SOURCE BOARD\REL50470_FINAL.cam *
G04 Layer 2: SMPR *
%FSLAX25Y25*%
%MOIN*%
%SFA1.000B1.000*%

%MIA0B0*%
%IPPOS*%
%AMrect15x29xr5*
4,1,56,-0.00767,0.00984,-0.00764,0.01041,-0.00754,0.01097,-0.00737,0.01152,-0.00713,0.01204,-0.00684,0.01253,-0.00649,0.01297,-0.00608,0.01338,-0.00564,0.01373,-0.00515,0.01402,-0.00463,0.01426,-0.00408,0.01443,-0.00352,0.01453,-0.00295,0.01456,0.00295,0.01456,0.00352,0.01453,0.00408,0.01443,0.00463,0.01426,0.00515,0.01402,0.00564,0.01373,0.00608,0.01338,0.00649,0.01297,0.00684,0.01253,0.00713,0.01204,0.00737,0.01152,0.00754,0.01097,0.00764,0.01041,0.00767,0.00984,0.00767,-0.00984,0.00764,-0.01041,0.00754,-0.01097,0.00737,-0.01152,0.00713,-0.01204,0.00684,-0.01253,0.00649,-0.01297,0.00608,-0.01338,0.00564,-0.01373,0.00515,-0.01402,0.00463,-0.01426,0.00408,-0.01443,0.00352,-0.01453,0.00295,-0.01456,-0.00295,-0.01456,-0.00352,-0.01453,-0.00408,-0.01443,-0.00463,-0.01426,-0.00515,-0.01402,-0.00564,-0.01373,-0.00608,-0.01338,-0.00649,-0.01297,-0.00684,-0.01253,-0.00713,-0.01204,-0.00737,-0.01152,-0.00754,-0.01097,-0.00764,-0.01041,-0.00767,-0.00984,-0.00767,0.00984,0.00000*
%
%AMrect29x15xr5*
4,1,56,-0.01456,0.00295,-0.01453,0.00352,-0.01443,0.00408,-0.01426,0.00463,-0.01402,0.00515,-0.01373,0.00564,-0.01338,0.00608,-0.01297,0.00649,-0.01253,0.00684,-0.01204,0.00713,-0.01152,0.00737,-0.01097,0.00754,-0.01041,0.00764,-0.00984,0.00767,0.00984,0.00767,0.01041,0.00764,0.01097,0.00754,0.01152,0.00737,0.01204,0.00713,0.01253,0.00684,0.01297,0.00649,0.01338,0.00608,0.01373,0.00564,0.01402,0.00515,0.01426,0.00463,0.01443,0.00408,0.01453,0.00352,0.01456,0.00295,0.01456,-0.00295,0.01453,-0.00352,0.01443,-0.00408,0.01426,-0.00463,0.01402,-0.00515,0.01373,-0.00564,0.01338,-0.00608,0.01297,-0.00649,0.01253,-0.00684,0.01204,-0.00713,0.01152,-0.00737,0.01097,-0.00754,0.01041,-0.00764,0.00984,-0.00767,-0.00984,-0.00767,-0.01041,-0.00764,-0.01097,-0.00754,-0.01152,-0.00737,-0.01204,-0.00713,-0.01253,-0.00684,-0.01297,-0.00649,-0.01338,-0.00608,-0.01373,-0.00564,-0.01402,-0.00515,-0.01426,-0.00463,-0.01443,-0.00408,-0.01453,-0.00352,-0.01456,-0.00295,-0.01456,0.00295,0.00000*
%
%ADD10C,0.00600*%
%ADD12C,0.01000*%
%ADD18R,0.04528X0.04331*%
%ADD19R,0.02400X0.03000*%
%ADD70R,0.03000X0.02400*%
%ADD71R,0.02362X0.04331*%
%ADD20R,0.07600X0.08000*%
%ADD21R,0.05100X0.05900*%
%ADD22R,0.05500X0.07500*%
%ADD23R,0.01890X0.01575*%
%ADD24R,0.02362X0.05984*%
%ADD25R,0.03347X0.00787*%
%ADD26R,0.00787X0.03347*%
%ADD27R,0.03100X0.03100*%
%ADD29R,0.05984X0.02362*%
%ADD72R,0.02800X0.04300*%
%ADD73R,0.05900X0.05100*%
%ADD30R,0.11000X0.05500*%
%ADD32R,0.01575X0.01890*%
%ADD33R,0.03543X0.02756*%
%ADD34R,0.03937X0.05906*%
%ADD35R,0.05500X0.11000*%
%ADD36R,0.05900X0.13800*%
%ADD37R,0.01575X0.08268*%
%ADD38R,0.07500X0.05500*%
%ADD39R,0.02000X0.08700*%
%ADD40R,0.22047X0.09055*%
%ADD41R,0.04016X0.12520*%
%ADD43R,0.08071X0.05709*%
%ADD45R,0.02756X0.03543*%
%ADD46C,0.00945*%
%ADD47R,0.04300X0.02800*%
%ADD48R,0.13800X0.05900*%
%ADD49R,0.00984X0.02461*%
%ADD50R,0.02461X0.00984*%
%ADD51R,0.03543X0.03150*%
%ADD52R,0.08268X0.07087*%
%ADD53R,0.04724X0.06299*%
%ADD54R,0.04331X0.04528*%
%ADD55R,0.17717X0.05118*%
%ADD57R,0.03150X0.03543*%
%ADD59R,0.03543X0.01968*%
%ADD60R,0.12992X0.06299*%
%ADD61R,0.03543X0.03740*%
%ADD62R,0.21654X0.03937*%
%ADD63R,0.08504X0.08898*%
%ADD64R,0.09449X0.12992*%
%ADD65R,0.12520X0.04016*%
%ADD66R,0.08898X0.08504*%
%ADD67R,0.03740X0.03543*%
%ADD68R,0.02756X0.01575*%
%ADD69R,0.12992X0.09449*%
%ADD74R,0.04488X0.19016*%
%ADD75R,0.19016X0.04488*%
%ADD76R,0.11811X0.06299*%
%ADD77C,0.04000*%
%ADD78C,0.05512*%
%ADD79C,0.06378*%
%ADD80R,0.06378X0.06378*%
%ADD81C,0.02400*%
%ADD82C,0.29500*%
%ADD83C,0.02000*%
%ADD84C,0.05600*%
%ADD85R,0.03543X0.01575*%
%ADD86C,0.11417*%
%ADD87rect15x29xr5*%
%ADD88C,0.05906*%
%ADD89C,0.05866*%
%ADD90R,0.05866X0.05866*%
%ADD91rect29x15xr5*%
%ADD92R,0.06102X0.02362*%
%ADD93R,0.05512X0.05512*%
%ADD94R,0.02362X0.02362*%
%ADD95R,0.05906X0.05906*%
%ADD96R,0.02756X0.02362*%
%ADD97C,0.06700*%
%ADD98R,0.10630X0.06693*%
%ADD99C,0.01800*%
%ADD100R,0.10433X0.10433*%
%ADD101R,0.06299X0.06299*%
%ADD102R,0.06700X0.06700*%
%ADD103O,0.05512X0.08268*%
%ADD104O,0.05512X0.09449*%
%ADD105C,0.08543*%
%ADD106C,0.07874*%
%ADD107C,0.12795*%
%ADD108C,0.08000*%
%LNSMPR*%
%LPD*%
G36*
X0Y5000D02*
G01Y670110D01*
X5000Y675110*
X526657*
X531657Y670110*
Y565448*
X531712Y565135*
X531814Y564834*
X531959Y564551*
X532145Y564294*
X532399Y564040*
X532727Y563837*
X533085Y563692*
X533463Y563610*
X605551*
X610551Y558610*
Y5000*
X605551Y0*
X567850*
Y16750*
X567800Y16800*
Y24100*
X567837Y25272*
X567948Y26439*
X568132Y27597*
X568388Y28741*
X568717Y29867*
X569115Y30969*
X569582Y32045*
X570116Y33089*
X570715Y34097*
X571376Y35065*
X572097Y35990*
X572874Y36868*
X573705Y37694*
X574587Y38467*
X575516Y39183*
X576488Y39839*
X577499Y40432*
X578546Y40960*
X579624Y41422*
X580728Y41814*
X581856Y42137*
X583001Y42387*
X584160Y42565*
X585328Y42669*
X586500Y42700*
X589800*
X590649Y42737*
X591491Y42847*
X592320Y43030*
X593131Y43283*
X593917Y43606*
X594671Y43996*
X595389Y44450*
X596065Y44964*
X596694Y45535*
X597272Y46158*
X597793Y46829*
X598254Y47542*
X598651Y48293*
X598982Y49075*
X599245Y49883*
X599436Y50711*
X599554Y51552*
X599600Y52400*
Y254100*
X599472Y254953*
X599271Y255793*
X598999Y256612*
X598657Y257404*
X598248Y258164*
X597776Y258886*
X597243Y259565*
X596653Y260195*
X596012Y260772*
X595323Y261292*
X594592Y261750*
X593824Y262144*
X593025Y262471*
X592201Y262727*
X591358Y262912*
X590502Y263023*
X589640Y263060*
X586350*
X585150Y263100*
X583954Y263218*
X582769Y263411*
X581599Y263680*
X580448Y264023*
X579321Y264440*
X578224Y264927*
X577160Y265484*
X576133Y266108*
X575149Y266797*
X574211Y267547*
X573323Y268355*
X572489Y269219*
X571711Y270134*
X570994Y271098*
X570340Y272105*
X569752Y273152*
X569232Y274235*
X568782Y275348*
X568405Y276489*
X568101Y277651*
X567873Y278830*
X567720Y280021*
X567644Y281219*
X567645Y282420*
X567723Y283619*
X567877Y284810*
X568108Y285989*
X568413Y287150*
X568792Y288290*
X569244Y289403*
X569766Y290485*
X570355Y291531*
X571011Y292537*
X571730Y293499*
X572509Y294413*
X573345Y295276*
X574234Y296083*
X575173Y296831*
X576159Y297518*
X577186Y298140*
X578251Y298696*
X579349Y299181*
X580476Y299596*
X581628Y299938*
X582799Y300205*
X583984Y300396*
X585180Y300512*
X586380Y300550*
X589990*
X590822Y300586*
X591648Y300693*
X592462Y300871*
X593257Y301119*
X594028Y301434*
X594769Y301814*
X595474Y302257*
X596139Y302759*
X596758Y303316*
X597327Y303925*
X597841Y304580*
X598297Y305277*
X598692Y306011*
X599021Y306776*
X599284Y307566*
X599477Y308376*
X599600Y309200*
Y510800*
X599562Y511680*
X599447Y512554*
X599256Y513414*
X598991Y514254*
X598654Y515068*
X598247Y515850*
X597773Y516593*
X597237Y517292*
X596642Y517942*
X595992Y518537*
X595293Y519073*
X594550Y519547*
X593768Y519954*
X592954Y520291*
X592114Y520556*
X591254Y520747*
X590380Y520862*
X589500Y520900*
X585500*
X584342Y520938*
X583190Y521051*
X582047Y521240*
X580919Y521503*
X579811Y521839*
X578727Y522247*
X577671Y522725*
X576650Y523271*
X575666Y523883*
X574725Y524558*
X573830Y525292*
X572984Y526084*
X572192Y526930*
X571458Y527825*
X570783Y528766*
X570171Y529750*
X569625Y530771*
X569147Y531827*
X568739Y532911*
X568403Y534019*
X568140Y535147*
X567951Y536290*
X567838Y537442*
X567800Y538600*
Y542800*
X567763Y543654*
X567651Y544502*
X567466Y545336*
X567209Y546152*
X566882Y546942*
X566487Y547700*
X566028Y548421*
X565507Y549099*
X564930Y549730*
X564299Y550307*
X563621Y550828*
X562900Y551287*
X562142Y551682*
X561352Y552009*
X560536Y552266*
X559702Y552451*
X558854Y552563*
X558000Y552600*
X530300*
X529450Y552679*
X528610Y552830*
X527785Y553051*
X526982Y553341*
X526206Y553697*
X525463Y554118*
X524758Y554600*
X524097Y555139*
X523483Y555733*
X522921Y556376*
X522416Y557064*
X521971Y557792*
X521588Y558556*
X521271Y559349*
X521023Y560165*
X520844Y561000*
X520736Y561847*
X520700Y562700*
Y654800*
X520591Y655681*
X520405Y656549*
X520143Y657397*
X519808Y658219*
X519402Y659008*
X518928Y659759*
X518390Y660465*
X517793Y661122*
X517140Y661723*
X516436Y662265*
X515688Y662742*
X514901Y663153*
X514081Y663492*
X513234Y663759*
X512367Y663950*
X511487Y664064*
X510600Y664100*
X20800*
X19957Y664064*
X19120Y663955*
X18295Y663774*
X17489Y663524*
X16707Y663205*
X15956Y662820*
X15241Y662371*
X14567Y661863*
X13939Y661299*
X13362Y660682*
X12841Y660019*
X12378Y659313*
X11978Y658570*
X11643Y657795*
X11376Y656994*
X11179Y656173*
X11053Y655338*
X11000Y654496*
Y568290*
X11039Y567408*
X11156Y566534*
X11350Y565673*
X11620Y564832*
X11963Y564019*
X12377Y563240*
X12858Y562500*
X13403Y561806*
X14008Y561162*
X14667Y560575*
X15375Y560049*
X16127Y559587*
X16918Y559194*
X17739Y558873*
X18587Y558625*
X19452Y558454*
X20330Y558360*
X24180*
X25381Y558321*
X26577Y558206*
X27763Y558014*
X28935Y557747*
X30087Y557405*
X31214Y556990*
X32313Y556504*
X33379Y555948*
X34406Y555325*
X35392Y554637*
X36331Y553888*
X37221Y553080*
X38057Y552217*
X38835Y551302*
X39554Y550339*
X40210Y549332*
X40799Y548285*
X41321Y547203*
X41772Y546089*
X42150Y544948*
X42455Y543786*
X42685Y542607*
X42838Y541415*
X42915Y540216*
Y539014*
X42838Y537815*
X42685Y536623*
X42455Y535444*
X42150Y534282*
X41772Y533141*
X41321Y532027*
X40799Y530945*
X40210Y529898*
X39554Y528891*
X38835Y527928*
X38057Y527013*
X37221Y526150*
X36331Y525342*
X35392Y524593*
X34406Y523905*
X33379Y523282*
X32313Y522726*
X31214Y522240*
X30087Y521825*
X28935Y521483*
X27763Y521216*
X26577Y521024*
X25381Y520909*
X24180Y520870*
X24170Y520860*
X20960*
X20099Y520823*
X19245Y520711*
X18403Y520526*
X17581Y520269*
X16783Y519942*
X16017Y519547*
X15288Y519088*
X14602Y518567*
X13963Y517989*
X13376Y517357*
X12847Y516678*
X12378Y515955*
X11973Y515194*
X11635Y514401*
X11367Y513582*
X11171Y512743*
X11049Y511890*
X11000Y511030*
Y310470*
X11036Y309624*
X11144Y308784*
X11323Y307957*
X11573Y307147*
X11890Y306362*
X12273Y305607*
X12719Y304887*
X13224Y304208*
X13786Y303575*
X14400Y302991*
X15061Y302462*
X15765Y301991*
X16506Y301582*
X17279Y301238*
X18080Y300961*
X18900Y300753*
X19736Y300616*
X20580Y300550*
X24160*
X25360Y300512*
X26555Y300396*
X27740Y300205*
X28910Y299938*
X30061Y299597*
X31188Y299183*
X32285Y298697*
X33350Y298143*
X34377Y297521*
X35362Y296835*
X36301Y296087*
X37190Y295281*
X38026Y294419*
X38805Y293506*
X39524Y292544*
X40180Y291539*
X40770Y290494*
X41292Y289413*
X41744Y288301*
X42123Y287162*
X42429Y286001*
X42660Y284823*
X42816Y283633*
X42894Y282435*
X42896Y281235*
X42821Y280037*
X42670Y278846*
X42443Y277667*
X42140Y276506*
X41764Y275366*
X41316Y274252*
X40797Y273169*
X40211Y272122*
X39558Y271115*
X38842Y270151*
X38066Y269235*
X37233Y268371*
X36346Y267562*
X35410Y266811*
X34427Y266122*
X33402Y265497*
X32339Y264939*
X31243Y264450*
X30118Y264032*
X28968Y263687*
X27799Y263416*
X26614Y263221*
X25420Y263102*
X24220Y263060*
X20920*
X20055Y263021*
X19196Y262906*
X18351Y262717*
X17526Y262455*
X16726Y262123*
X15958Y261722*
X15229Y261255*
X14542Y260727*
X13904Y260142*
X13320Y259503*
X12793Y258815*
X12328Y258084*
X11929Y257316*
X11598Y256516*
X11338Y255689*
X11151Y254844*
X11038Y253985*
X11000Y253120*
Y51451*
X11164Y50608*
X11397Y49781*
X11699Y48976*
X12067Y48200*
X12498Y47456*
X12990Y46752*
X13539Y46091*
X14142Y45478*
X14793Y44918*
X15489Y44414*
X16225Y43970*
X16995Y43589*
X17794Y43273*
X18617Y43025*
X19457Y42847*
X20310Y42740*
X23990*
X25167Y42703*
X26340Y42592*
X27503Y42408*
X28653Y42151*
X29784Y41822*
X30892Y41423*
X31973Y40956*
X33023Y40421*
X34037Y39821*
X35011Y39159*
X35942Y38437*
X36825Y37658*
X37658Y36825*
X38437Y35942*
X39159Y35011*
X39821Y34037*
X40421Y33023*
X40956Y31973*
X41423Y30892*
X41822Y29784*
X42151Y28653*
X42408Y27503*
X42592Y26340*
X42703Y25167*
X42740Y23990*
Y21040*
X42779Y20150*
X42897Y19268*
X43093Y18399*
X43364Y17551*
X43710Y16730*
X44126Y15943*
X44611Y15196*
X45160Y14495*
X45768Y13845*
X46432Y13251*
X47146Y12719*
X47903Y12251*
X48700Y11852*
X49528Y11526*
X50382Y11274*
X51255Y11098*
X52140Y11000*
X277310*
X278136Y11037*
X278955Y11148*
X279762Y11332*
X280548Y11587*
X281308Y11912*
X282037Y12304*
X282727Y12759*
X283374Y13274*
X283971Y13846*
X284516Y14468*
X285002Y15137*
X285426Y15847*
X285786Y16591*
X286077Y17365*
X286297Y18162*
X286445Y18976*
X286520Y19799*
Y24170*
X286559Y25371*
X286674Y26568*
X286866Y27754*
X287133Y28926*
X287475Y30078*
X287890Y31206*
X288377Y32305*
X288933Y33371*
X289556Y34399*
X290243Y35385*
X290993Y36324*
X291801Y37214*
X292664Y38050*
X293580Y38829*
X294543Y39548*
X295550Y40204*
X296597Y40794*
X297680Y41315*
X298794Y41766*
X299935Y42145*
X301098Y42450*
X302278Y42680*
X303470Y42833*
X304669Y42910*
X305871*
X307070Y42833*
X308262Y42680*
X309442Y42450*
X310605Y42145*
X311746Y41766*
X312860Y41315*
X313943Y40794*
X314990Y40204*
X315997Y39548*
X316960Y38829*
X317876Y38050*
X318739Y37214*
X319547Y36324*
X320297Y35385*
X320984Y34399*
X321607Y33371*
X322163Y32305*
X322650Y31206*
X323065Y30078*
X323407Y28926*
X323674Y27754*
X323866Y26568*
X323981Y25371*
X324020Y24170*
Y21000*
X324058Y20128*
X324171Y19263*
X324360Y18411*
X324621Y17578*
X324954Y16771*
X325355Y15996*
X325823Y15259*
X326352Y14565*
X326940Y13920*
X327581Y13328*
X328272Y12795*
X329006Y12323*
X329779Y11916*
X330583Y11579*
X331414Y11312*
X332265Y11119*
X333130Y11000*
X449800*
Y0*
X5000*
X0Y5000*
G37*
G54D18*
X509854Y417200D03*
Y410800D03*
G54D19*
X504069Y417200D03*
G54D70*
X461700Y49231D03*
X464100Y77731D03*
G54D71*
X461640Y69318D03*
G54D70*
X458600Y77831D03*
G54D20*
X415500Y458500D03*
G54D21*
X424437Y364500D03*
G54D22*
X279102Y30200D03*
G54D19*
X570531Y337700D03*
G54D23*
X561790Y351100D03*
Y346100D03*
G54D70*
X568400Y50031D03*
X557900Y356031D03*
G54D23*
X558010Y351100D03*
G54D19*
X570869Y80000D03*
G54D70*
X568400Y53969D03*
G54D71*
X454160Y59082D03*
G54D70*
X454300Y53469D03*
G54D19*
X347431Y89700D03*
G54D84*
X489600Y96600D03*
G54D24*
X483100Y89287D03*
G54D19*
X524931Y104100D03*
G54D24*
X473100Y67713D03*
G54D70*
X472600Y60269D03*
G54D24*
X483100Y67713D03*
G54D70*
X483700Y60269D03*
G54D24*
X478100Y67713D03*
G54D70*
Y60269D03*
G54D24*
Y89287D03*
G54D70*
X464100Y81669D03*
X478100Y96131D03*
X483600D03*
G54D84*
X531500Y113300D03*
G54D24*
X488100Y89287D03*
G54D25*
X349824Y99850D03*
Y101425D03*
Y106150D03*
G54D19*
X342769Y101400D03*
G54D26*
X352876Y95224D03*
G54D25*
X349824Y98276D03*
Y107724D03*
G54D19*
X342869Y109200D03*
G54D26*
X352876Y110776D03*
G54D19*
X342769Y114800D03*
G54D26*
X354450Y110776D03*
G54D19*
X354369Y117900D03*
G54D26*
X362324Y110776D03*
G54D19*
X367931Y116900D03*
G54D25*
X365376Y107724D03*
G54D19*
X372431Y110700D03*
G54D25*
X365376Y106150D03*
G54D19*
X382531Y110700D03*
G54D25*
X365376Y104575D03*
G54D19*
X372431Y104600D03*
G54D71*
X461640Y59082D03*
G54D70*
X461700Y53169D03*
G54D27*
X489300Y412253D03*
Y406347D03*
G54D26*
X354450Y95224D03*
G54D19*
X351369Y89700D03*
G54D26*
X359175Y95224D03*
Y110776D03*
G54D70*
X545500Y61031D03*
G54D19*
X98869Y375100D03*
G54D85*
X100931Y368959D03*
G54D19*
X94931Y375100D03*
G54D70*
X98800Y384331D03*
G54D85*
X100931Y366400D03*
G54D70*
X97300Y308919D03*
X102800Y304981D03*
G54D26*
X360750Y110776D03*
G54D70*
X527500Y91969D03*
G54D21*
X383137Y96400D03*
X384337Y87000D03*
G54D25*
X365376Y99850D03*
G54D19*
X382431Y104600D03*
G54D25*
X365376Y98276D03*
G54D21*
X375263Y96400D03*
G54D26*
X362324Y95224D03*
G54D21*
X376463Y87000D03*
G54D27*
X363947D03*
G54D26*
X360750Y95224D03*
G54D27*
X369853Y87000D03*
G54D19*
X556452Y83463D03*
X578852Y83963D03*
X582469Y95400D03*
G54D70*
X545500Y64969D03*
G54D29*
X250349Y303827D03*
G54D19*
X242687Y304848D03*
G54D29*
X271924Y298827D03*
G54D19*
X278613Y297352D03*
G54D29*
X250349Y298827D03*
G54D19*
X242587Y299048D03*
G54D29*
X250349Y293827D03*
G54D19*
X242587Y293548D03*
G54D72*
X285818Y249033D03*
G54D27*
X340600Y185847D03*
G54D73*
X340900Y179337D03*
G54D27*
Y133953D03*
G54D70*
Y139031D03*
G54D27*
X353900Y240047D03*
X242047Y190500D03*
G54D21*
X235737D03*
G54D27*
X110000Y335047D03*
G54D73*
Y327437D03*
G54D27*
X390047Y276000D03*
X251500Y364047D03*
G54D21*
X259063Y364000D03*
G54D27*
X461800Y290153D03*
G54D70*
X473500Y399831D03*
G54D30*
X308866Y233436D03*
X295334Y233569D03*
X322834Y233669D03*
G54D87*
X243490Y143504D03*
X235616Y156496D03*
X239553Y143504D03*
G54D19*
X52734Y90791D03*
X30797Y94291D03*
Y99291D03*
X48797Y95791D03*
G54D72*
X473557Y329407D03*
G54D70*
X410000Y212469D03*
G54D19*
X474031Y335200D03*
G54D70*
X465100Y344731D03*
G54D32*
X397400Y246810D03*
G54D19*
X477948Y346260D03*
X477969Y335200D03*
G54D72*
X464853Y329500D03*
G54D70*
X458900Y339769D03*
G54D19*
X578931Y73300D03*
G54D72*
X374600Y314100D03*
G54D32*
X392300Y250490D03*
X397400Y250590D03*
X402500Y250390D03*
G54D19*
X364231Y200000D03*
X361931Y205800D03*
G54D32*
X356400Y226810D03*
X368600D03*
X362700D03*
G54D33*
X570000Y351000D03*
G54D22*
X578602Y363000D03*
G54D70*
X495000Y396831D03*
X398000Y357169D03*
G54D21*
X361437Y353000D03*
G54D34*
X137491Y542300D03*
X166009Y542400D03*
X148909Y542300D03*
G54D72*
X80761Y515500D03*
X48167D03*
G54D34*
X154591Y542400D03*
G54D72*
X107261Y515500D03*
X75167D03*
G54D22*
X48302Y77300D03*
X53202Y67200D03*
G54D19*
X34734Y99291D03*
G54D22*
X277732Y49109D03*
G54D70*
X264800Y92231D03*
X266291Y74266D03*
X261291D03*
X264800Y96169D03*
X270300D03*
G54D84*
X427100Y137900D03*
G54D87*
X229710Y156496D03*
G54D19*
X229679Y163200D03*
G54D70*
X251900Y154069D03*
X479100Y246931D03*
G54D35*
X558098Y234300D03*
G54D30*
X537100Y152802D03*
G54D35*
X557898Y248000D03*
G54D70*
X479100Y255831D03*
G54D36*
X546508Y165400D03*
G54D37*
X521445Y36500D03*
G54D19*
X67746Y451000D03*
X213093Y450911D03*
X227156D03*
X222093D03*
X84131Y453100D03*
X98037Y451500D03*
Y444000D03*
G54D22*
X460202Y551100D03*
G54D38*
X412200Y552107D03*
G54D22*
X46480Y562202D03*
X94782Y557522D03*
X82568Y535622D03*
X94802Y545600D03*
G54D19*
X429719Y445632D03*
X434782D03*
X478982D03*
G54D39*
X214424Y534861D03*
Y555361D03*
G54D40*
X200624Y571944D03*
G54D70*
X550500Y61031D03*
G54D37*
X534043Y11697D03*
G54D70*
X550500Y64969D03*
G54D37*
X530894Y11697D03*
G54D39*
X120277Y536350D03*
Y556850D03*
G54D40*
X119477Y573433D03*
G54D37*
X511996Y11697D03*
G54D19*
X447419Y445632D03*
X458619D03*
X463882D03*
G54D37*
X515146Y11697D03*
Y36500D03*
X505697Y11697D03*
X511996Y36500D03*
X502547Y11697D03*
X505697Y36500D03*
X496248Y11697D03*
X502547Y36500D03*
X493098Y11697D03*
X496248Y36500D03*
X486799Y11697D03*
X493098Y36500D03*
X483650Y11697D03*
X486799Y36500D03*
G54D19*
X245056Y450911D03*
X255056D03*
X239993D03*
G54D41*
X293996Y568000D03*
G54D37*
X521445Y11697D03*
G54D41*
X293996Y596000D03*
G54D37*
X524594Y11697D03*
X483650Y36500D03*
G54D22*
X239151Y534111D03*
X239245Y544111D03*
X203127Y560713D03*
G54D37*
X524594Y36500D03*
G54D22*
X428329Y72300D03*
G54D70*
X393600Y76469D03*
X460000Y344731D03*
X567321Y65431D03*
X388400Y72231D03*
X392300Y89669D03*
X393600Y72531D03*
G54D91*
X245065Y147047D03*
G54D70*
X246100Y138669D03*
G54D19*
X528269Y72000D03*
X535352Y73963D03*
X527969Y77500D03*
G54D43*
X245516Y421502D03*
G54D19*
X539289Y78463D03*
G54D70*
X563821Y104994D03*
X555821Y119931D03*
G54D19*
X94033Y141150D03*
G54D70*
X226300Y98069D03*
X164965Y100459D03*
G54D19*
X266869Y84900D03*
X539289Y92363D03*
G54D70*
X41765Y93759D03*
G54D19*
X321069Y117200D03*
G54D70*
X333375Y80480D03*
X550321Y119931D03*
X563821Y108931D03*
G54D19*
X582789Y89963D03*
X582869Y73300D03*
X317131Y117200D03*
X312169Y117300D03*
G54D43*
X195416Y431498D03*
X159984D03*
G54D19*
X570889Y74463D03*
X86769Y96500D03*
G54D70*
X572821Y104994D03*
X124000Y99669D03*
G54D19*
X561289Y72463D03*
X535352Y78463D03*
G54D92*
X90840Y423511D03*
G54D38*
X73900Y149798D03*
G54D19*
X89596Y151650D03*
X524031Y77500D03*
G54D92*
X90840Y418511D03*
G54D19*
X304031Y62200D03*
G54D38*
X330500Y43498D03*
G54D70*
X306159Y73383D03*
G54D19*
X524331Y72000D03*
X539289Y73963D03*
X294531Y75700D03*
G54D70*
X581400Y67769D03*
G54D45*
X547100Y356436D03*
G54D32*
X402500Y246610D03*
G54D38*
X279984Y81645D03*
G54D46*
X290669Y81097D03*
X288701D03*
G54D70*
X542821Y108931D03*
G54D19*
X477942Y340740D03*
X135269Y96500D03*
G54D32*
X392300Y246710D03*
G54D43*
X210084Y421502D03*
G54D19*
X350431Y117900D03*
X189191Y93534D03*
G54D70*
X184159Y93503D03*
G54D19*
X135269Y91500D03*
G54D70*
X562821Y50094D03*
X112400Y267169D03*
Y271531D03*
G54D19*
X371869Y116900D03*
G54D70*
X155300Y122969D03*
X149900Y125969D03*
X548321Y108931D03*
G54D73*
X127500Y249937D03*
G54D19*
X130468Y275700D03*
G54D72*
X132353Y269600D03*
G54D19*
X376369Y110700D03*
G54D70*
X141800Y168169D03*
G54D19*
X147031Y167200D03*
X338831Y114800D03*
X126431Y262900D03*
G54D47*
X113400Y257153D03*
G54D19*
X376369Y104600D03*
X444069Y150300D03*
G54D70*
X550321Y115994D03*
G54D19*
X291969Y89400D03*
G54D46*
X292638Y83066D03*
G54D70*
X298800Y89969D03*
G54D19*
X386469Y110700D03*
X386369Y104600D03*
G54D84*
X152000Y279000D03*
G54D72*
X132153Y256900D03*
G54D48*
X144800Y270308D03*
G54D72*
X166647Y252600D03*
X166547Y259550D03*
G54D22*
X97398Y195100D03*
Y185600D03*
Y175700D03*
G54D84*
X488900Y50600D03*
G54D70*
X581400Y63831D03*
G54D37*
X534043Y36500D03*
G54D70*
X91300Y263368D03*
G54D22*
X233929Y79500D03*
G54D70*
X211200Y93031D03*
X562821Y54031D03*
G54D26*
X356025Y95224D03*
G54D19*
X566452Y92463D03*
G54D84*
X294700Y292602D03*
G54D29*
X271924Y288827D03*
G54D49*
X100547Y411339D03*
G54D50*
X141308Y135030D03*
X322661Y306547D03*
G54D85*
X100931Y363841D03*
G54D70*
X216700Y93131D03*
G54D19*
X499969Y410000D03*
X557352Y72463D03*
G54D84*
X104932Y281227D03*
G54D72*
X112347Y281650D03*
X172453Y259550D03*
G54D84*
X118300Y271300D03*
X495200Y50500D03*
G54D19*
X566952Y74463D03*
G54D37*
X530894Y36500D03*
G54D72*
X172553Y252600D03*
G54D26*
X357600Y95224D03*
G54D19*
X566452Y97963D03*
G54D84*
X294600Y299002D03*
G54D29*
X271924Y293827D03*
G54D19*
X147831Y134800D03*
G54D49*
X102516Y411339D03*
G54D50*
X141308Y136998D03*
X322661Y308516D03*
G54D85*
X92269Y363841D03*
G54D70*
X91300Y272268D03*
G54D19*
X389469Y207300D03*
X539289Y97363D03*
G54D51*
X389341Y213760D03*
G54D72*
X126447Y269600D03*
G54D19*
X78368Y280600D03*
X582789Y83963D03*
G54D70*
X567321Y61494D03*
X568321Y108931D03*
G54D21*
X77137Y268100D03*
G54D70*
X572821Y108931D03*
G54D19*
X578852Y89963D03*
G54D72*
X126247Y256900D03*
G54D19*
X535352Y92363D03*
G54D22*
X141298Y226700D03*
X141198Y236900D03*
G54D48*
X144800Y246292D03*
G54D19*
X338931Y109200D03*
G54D70*
X307400Y108069D03*
G54D19*
X570389Y92463D03*
G54D70*
X572321Y61494D03*
X112400Y275469D03*
G54D19*
X126531Y275700D03*
X560389Y83463D03*
G54D70*
X330566Y90116D03*
X568321Y104994D03*
X335683Y90116D03*
G54D92*
X69581Y423511D03*
G54D70*
X314600Y89531D03*
G54D22*
X173602Y492500D03*
G54D52*
X172939Y481000D03*
G54D92*
X69581Y418511D03*
G54D22*
X368594Y72102D03*
G54D70*
X327875Y80480D03*
X168600Y441969D03*
G54D19*
X329198Y70917D03*
G54D70*
X333375Y76543D03*
G54D36*
X183627Y465559D03*
G54D19*
X333135Y70917D03*
G54D70*
X327875Y76543D03*
G54D84*
X475800Y133379D03*
G54D38*
X451500Y163998D03*
Y151802D03*
G54D19*
X440050Y140860D03*
X440131Y150300D03*
X578531Y95400D03*
X151669Y141200D03*
G54D49*
X104484Y411339D03*
G54D50*
X141308Y138967D03*
X322661Y310484D03*
G54D19*
X570389Y97963D03*
G54D70*
X194300Y449231D03*
G54D19*
X156334Y105991D03*
G54D38*
X147400Y69498D03*
G54D22*
X157932Y77809D03*
G54D43*
X159984Y421302D03*
X210084Y431698D03*
G54D70*
X168600Y446731D03*
X194300Y440331D03*
G54D92*
X69581Y428511D03*
G54D53*
X148755Y472002D03*
G54D70*
X555821Y115994D03*
X566821D03*
X194300Y444269D03*
G54D19*
X528869Y104100D03*
G54D54*
X198400Y78654D03*
G54D38*
X147400Y81702D03*
G54D19*
X156334Y100991D03*
G54D21*
X199096Y70534D03*
G54D53*
X130645Y472002D03*
G54D70*
X572321Y65431D03*
G54D30*
X148200Y446298D03*
G54D70*
X168600Y450669D03*
X194300Y453169D03*
X168600Y438031D03*
G54D20*
X134900Y445100D03*
G54D92*
X69581Y413511D03*
G54D22*
X73529Y75600D03*
G54D19*
X65769Y101000D03*
G54D18*
X139654Y113000D03*
G54D19*
X65769Y106500D03*
G54D73*
X132300Y113563D03*
G54D19*
X570389Y86963D03*
X199031Y385500D03*
X566452Y86963D03*
X393131Y95000D03*
X535352Y97363D03*
G54D70*
X517921Y93994D03*
X566821Y119931D03*
X96800Y395331D03*
G54D22*
X112229Y76300D03*
G54D19*
X113469Y100200D03*
G54D37*
X537193Y11697D03*
Y36500D03*
G54D70*
X508921Y81931D03*
G54D22*
X34275Y562202D03*
X82577Y557522D03*
G54D18*
X152846Y155000D03*
G54D19*
X109531Y106200D03*
G54D73*
X160500Y159437D03*
G54D19*
X170397Y102491D03*
X89231Y405300D03*
X174334Y97491D03*
X87369Y379800D03*
X305069Y313000D03*
G54D50*
X311539Y312453D03*
G54D19*
X305069Y307500D03*
G54D50*
X311539Y308516D03*
G54D70*
X111800Y423269D03*
G54D49*
X106453Y422461D03*
G54D54*
X198400Y85346D03*
G54D18*
X146346Y113000D03*
X146154Y155000D03*
G54D22*
X36098Y77300D03*
G54D19*
X34734Y94291D03*
G54D70*
X268900Y150669D03*
G54D19*
X150969Y167200D03*
G54D70*
X155300Y119031D03*
G54D19*
X193128Y93534D03*
G54D72*
X263506Y152700D03*
G54D19*
X130631Y146200D03*
G54D50*
X130186Y140935D03*
Y136998D03*
G54D70*
X101500Y429431D03*
G54D49*
X102516Y422461D03*
G54D50*
X130186Y138967D03*
G54D22*
X161398Y492500D03*
G54D50*
X311539Y310484D03*
G54D70*
X107000Y429431D03*
G54D49*
X104484Y422461D03*
G54D70*
X382800Y144931D03*
X340900Y142969D03*
G54D19*
X373031Y152000D03*
G54D70*
X388400Y76169D03*
G54D55*
X357083Y151333D03*
G54D18*
X516546Y417200D03*
G54D25*
X349824Y103000D03*
G54D26*
X356025Y110776D03*
G54D25*
X365376Y103000D03*
G54D71*
X454160Y69318D03*
G54D24*
X473100Y89287D03*
G54D29*
X271924Y303827D03*
G54D70*
X452900Y74731D03*
X472600Y96131D03*
X86200Y369369D03*
G54D19*
X278613Y302852D03*
G54D70*
X382400Y176269D03*
G54D19*
X189069Y379900D03*
G54D70*
X314500Y76069D03*
G54D19*
X90096Y146150D03*
X341965Y70902D03*
G54D70*
X496300Y533469D03*
G54D19*
X498031Y578000D03*
G54D70*
X538100Y87369D03*
X553821Y108931D03*
G54D19*
X582469Y100900D03*
X578852Y79963D03*
G54D70*
X555821Y60994D03*
X111800Y410831D03*
G54D19*
X493969Y102500D03*
G54D73*
X549821Y87400D03*
G54D22*
X289445Y97316D03*
G54D38*
X315400Y124198D03*
G54D70*
X478100Y100069D03*
Y56331D03*
X483700D03*
X527500Y88031D03*
G54D19*
X238650Y293548D03*
Y299048D03*
X282550Y297352D03*
G54D70*
X41765Y89822D03*
G54D19*
X48797Y90791D03*
G54D70*
X382387Y163256D03*
G54D19*
X401131Y186400D03*
X496031Y410000D03*
G54D70*
X266291Y78203D03*
G54D19*
X262931Y84900D03*
X474005Y340740D03*
G54D70*
X473500Y403769D03*
X246100Y134731D03*
G54D19*
X90096Y141150D03*
X298469Y65700D03*
X231731Y88900D03*
X231631Y97200D03*
G54D70*
X226300Y94131D03*
G54D19*
X170397Y97491D03*
G54D70*
X164965Y96522D03*
G54D19*
X82831Y96500D03*
X131331Y106500D03*
G54D70*
X124000Y95731D03*
G54D19*
X131331Y96500D03*
Y91500D03*
G54D70*
X306159Y77320D03*
G54D19*
X298469Y75700D03*
X202969Y385500D03*
G54D70*
X330566Y86179D03*
X335683D03*
X314600Y93469D03*
G54D19*
X288031Y89400D03*
X397069Y95000D03*
G54D70*
X111800Y419331D03*
G54D19*
X147731Y141200D03*
X151769Y134800D03*
G54D70*
X494900Y87769D03*
Y74831D03*
X499500Y102469D03*
G54D73*
X340900Y171463D03*
X490200Y578063D03*
X495100Y539763D03*
G54D55*
X357083Y163833D03*
G54D46*
X290669Y83066D03*
X288701D03*
G54D49*
X106453Y411339D03*
G54D50*
X141308Y140935D03*
X322661Y312453D03*
G54D92*
X90840Y413511D03*
G54D85*
X92269Y368959D03*
G54D70*
X542821Y104994D03*
X494900Y69769D03*
Y78769D03*
X548321Y104994D03*
X494900Y83831D03*
X499500Y98531D03*
X270300Y92231D03*
G54D38*
X172900Y213202D03*
X183500Y213102D03*
G54D70*
X558321Y108931D03*
X561221Y60994D03*
X359647Y308631D03*
G54D47*
X352782Y307641D03*
G54D19*
X365869Y205800D03*
G54D70*
X359647Y312569D03*
G54D72*
X368694Y314100D03*
G54D70*
X196800Y399631D03*
X196100Y395169D03*
G54D33*
X226536Y390500D03*
G54D70*
X213500Y358969D03*
G54D45*
X574000Y321760D03*
G54D47*
X492300Y294853D03*
G54D72*
X488047Y301100D03*
G54D22*
X566398Y363000D03*
G54D70*
X495000Y400769D03*
G54D19*
X109531Y100200D03*
X135269Y101500D03*
Y106500D03*
X235669Y88900D03*
G54D70*
X211200Y96969D03*
G54D19*
X113469Y106200D03*
X235569Y97200D03*
G54D70*
X216700Y97069D03*
G54D94*
X537631Y254700D03*
G54D70*
X479100Y250869D03*
G54D40*
X448984Y599567D03*
G54D21*
X443437Y508500D03*
G54D72*
X449547D03*
G54D40*
X474000Y599567D03*
G54D19*
X574469Y337700D03*
G54D45*
X576559Y329240D03*
G54D39*
X471500Y530750D03*
Y551250D03*
G54D40*
X448984Y570433D03*
G54D19*
X523531Y283700D03*
G54D72*
X522847Y277500D03*
G54D45*
X544541Y348955D03*
G54D72*
X460547Y508500D03*
G54D73*
X495100Y547637D03*
G54D19*
X297065Y258134D03*
G54D22*
X460502Y529700D03*
G54D39*
X476500Y530750D03*
G54D72*
X279913Y249033D03*
G54D21*
X220563Y402100D03*
G54D33*
X219055Y393059D03*
G54D19*
X527469Y283700D03*
G54D47*
X581800Y370747D03*
G54D33*
X577480Y348441D03*
G54D73*
X495500Y507063D03*
G54D47*
X488000Y507047D03*
G54D30*
X525400Y244102D03*
G54D35*
X565998Y309700D03*
G54D72*
X509647Y296800D03*
G54D19*
X102969Y315500D03*
G54D40*
X424468Y599567D03*
G54D21*
X472563Y508500D03*
G54D72*
X466453D03*
G54D39*
X423500Y530750D03*
Y551250D03*
G54D40*
X399953Y570433D03*
G54D47*
X488000Y512953D03*
G54D19*
X99031Y315500D03*
G54D70*
X102800Y308919D03*
G54D22*
X460349Y539711D03*
G54D39*
X433500Y551250D03*
G54D19*
X467631Y295500D03*
G54D70*
X479100Y259769D03*
G54D19*
X66369Y299000D03*
X71531D03*
X132800Y156400D03*
G54D73*
X512400Y256963D03*
G54D72*
X528753Y277500D03*
G54D94*
X528969Y254700D03*
G54D19*
X64869Y310900D03*
G54D27*
X85553Y321600D03*
G54D21*
X80663Y310700D03*
G54D73*
X160500Y151563D03*
G54D27*
X162200Y141453D03*
G54D72*
X455453Y508500D03*
G54D70*
X513000Y275269D03*
G54D19*
X481069Y292600D03*
G54D21*
X67937Y290500D03*
G54D70*
X480700Y281069D03*
G54D21*
X60063Y290500D03*
G54D19*
X305731Y272800D03*
G54D40*
X399953Y599567D03*
G54D84*
X520000Y305300D03*
G54D72*
X493953Y301100D03*
X515553Y296800D03*
G54D35*
X227998Y201500D03*
G54D73*
X285200Y259463D03*
G54D21*
X227863Y190500D03*
X417137Y508000D03*
G54D72*
X423547D03*
G54D19*
X481169Y286900D03*
G54D39*
X486500Y530750D03*
Y551250D03*
G54D40*
X474000Y570433D03*
G54D70*
X416500Y212269D03*
G54D21*
X266937Y364000D03*
G54D32*
X368600Y230590D03*
G54D21*
X435563Y508500D03*
X480437D03*
G54D73*
X495500Y514937D03*
G54D21*
X409263Y508000D03*
G54D38*
X504900Y514898D03*
G54D57*
X309228Y282900D03*
G54D70*
X317967Y258597D03*
G54D19*
X310034Y258133D03*
G54D39*
X433500Y530750D03*
X438500Y551250D03*
Y530750D03*
G54D40*
X424468Y570433D03*
G54D22*
X251356Y534111D03*
X251449Y544111D03*
X447998Y551100D03*
G54D38*
X412200Y539903D03*
G54D22*
X448145Y539711D03*
X448298Y529700D03*
X251602Y555500D03*
X406702Y167200D03*
G54D39*
X476500Y551250D03*
G54D38*
X120100Y307902D03*
X135400Y307802D03*
X135300Y319798D03*
X120100D03*
G54D73*
X110000Y319563D03*
G54D32*
X356400Y230590D03*
G54D72*
X429453Y508000D03*
G54D22*
X190922Y560713D03*
G54D73*
X490200Y585937D03*
G54D72*
X263453Y427500D03*
X466047Y364800D03*
G54D47*
X382300Y528353D03*
G54D19*
X152397Y105991D03*
G54D70*
X183659Y76066D03*
X383500Y357231D03*
G54D21*
X191222Y70534D03*
G54D27*
X188247Y63700D03*
G54D70*
X406000Y363531D03*
G54D19*
X152397Y100991D03*
G54D72*
X367047Y337000D03*
G54D70*
X383500Y361169D03*
G54D19*
X320269Y332400D03*
G54D96*
X310937Y341760D03*
G54D20*
X292798Y332450D03*
Y347250D03*
G54D21*
X374437Y344500D03*
X416563Y364500D03*
G54D70*
X305500Y356531D03*
G54D96*
X303063Y345500D03*
G54D59*
X426421Y356000D03*
G54D96*
X310937Y349240D03*
G54D23*
X558010Y346100D03*
G54D19*
X316331Y332400D03*
X310969Y332300D03*
G54D72*
X397453Y363700D03*
X407247Y274900D03*
G54D19*
X459069Y250700D03*
G54D70*
X476300Y208369D03*
G54D22*
X399802Y259800D03*
G54D38*
X122100Y397902D03*
X111900D03*
G54D72*
X471953Y364800D03*
G54D70*
X305500Y360469D03*
G54D72*
X391547Y363700D03*
X382547Y335500D03*
G54D30*
X148200Y458502D03*
G54D70*
X376800Y526469D03*
X398000Y353231D03*
G54D22*
X418602Y347000D03*
G54D70*
X406000Y367469D03*
G54D19*
X369016Y331000D03*
X398469Y336000D03*
G54D20*
X415500Y443700D03*
X134900Y459900D03*
G54D36*
X159611Y465559D03*
G54D21*
X366563Y344500D03*
X353563Y353000D03*
G54D60*
X139700Y497198D03*
G54D53*
Y472002D03*
G54D52*
X190261Y481000D03*
G54D59*
X416579Y356000D03*
G54D19*
X372953Y331000D03*
G54D72*
Y337000D03*
X388453Y335500D03*
G54D61*
X386547Y344200D03*
G54D22*
X406398Y347000D03*
G54D19*
X436113Y140860D03*
X204131Y379900D03*
G54D32*
X75716Y337930D03*
G54D38*
X170000Y389398D03*
X160000D03*
G54D22*
X406702Y177300D03*
G54D19*
X405069Y186400D03*
X455131Y250700D03*
G54D72*
Y243400D03*
G54D94*
X453169Y236000D03*
G54D70*
X382800Y148869D03*
G54D19*
X376969Y152000D03*
G54D70*
X382887Y153956D03*
X196100Y391231D03*
X382400Y172331D03*
X375000Y161769D03*
X382387Y167193D03*
G54D40*
X200624Y601078D03*
G54D70*
X476300Y204431D03*
G54D47*
X469900Y204847D03*
G54D94*
X462600Y203569D03*
G54D47*
X211200Y364347D03*
G54D21*
X249424Y514011D03*
G54D72*
X243314D03*
G54D19*
X306097Y258133D03*
G54D39*
X271924Y534861D03*
G54D70*
X183300Y370631D03*
G54D21*
X219298Y514011D03*
G54D72*
X225908D03*
G54D47*
X211200Y370253D03*
G54D39*
X261924Y534861D03*
Y555361D03*
G54D40*
X250156Y571944D03*
G54D73*
X285200Y267337D03*
G54D19*
X287169Y274200D03*
G54D39*
X229424Y534861D03*
Y555361D03*
G54D40*
X225140Y571944D03*
G54D19*
X208069Y379900D03*
G54D41*
X311004Y596000D03*
G54D19*
X394531Y336000D03*
G54D61*
X392453Y344200D03*
G54D39*
X276924Y555361D03*
Y534861D03*
G54D40*
X275172Y571944D03*
G54D41*
X311004Y568000D03*
G54D19*
X75469Y299000D03*
G54D62*
X35221Y342651D03*
G54D63*
X55412Y353919D03*
G54D38*
X269966Y281136D03*
G54D70*
X277866Y278799D03*
G54D22*
X239398Y555500D03*
G54D39*
X271924Y555361D03*
G54D63*
X74704Y353919D03*
G54D57*
X300172Y282900D03*
G54D21*
X211424Y514011D03*
X257298D03*
G54D73*
X277947Y510774D03*
G54D38*
X205246Y524542D03*
G54D70*
X99064Y141181D03*
G54D18*
X516546Y410800D03*
G54D22*
X510602Y375400D03*
G54D30*
X529900Y346998D03*
X448686Y334550D03*
G54D70*
X458900Y335831D03*
G54D72*
X458947Y329500D03*
G54D32*
X362700Y230590D03*
G54D19*
X186031Y395500D03*
X95533Y133650D03*
G54D40*
X275172Y601078D03*
G54D41*
X564904Y420200D03*
G54D64*
X569392Y393500D03*
G54D65*
X63100Y337904D03*
G54D32*
X75716Y341710D03*
G54D62*
X35221Y334777D03*
G54D66*
X87300Y348946D03*
G54D19*
X93533Y151650D03*
G54D67*
X515800Y398847D03*
G54D19*
X186031Y401000D03*
G54D70*
X317967Y262534D03*
X202700Y391631D03*
X277866Y282736D03*
G54D40*
X250156Y601078D03*
G54D19*
X61831Y106500D03*
G54D73*
X277947Y518648D03*
G54D72*
X269814Y514011D03*
G54D22*
X230702Y341100D03*
G54D21*
X88537Y310700D03*
G54D19*
X86769Y107500D03*
G54D39*
X219424Y534861D03*
G54D70*
X202700Y395569D03*
G54D40*
X93477Y602567D03*
G54D72*
X198847Y361400D03*
G54D68*
X193500Y362278D03*
G54D27*
X125500Y126153D03*
G54D73*
X132300Y121437D03*
G54D19*
X86769Y102500D03*
G54D72*
X231814Y514011D03*
X263908D03*
G54D73*
X121300Y520137D03*
G54D21*
X54777Y515500D03*
X100651D03*
G54D38*
X48599Y526031D03*
G54D73*
X121300Y512263D03*
G54D72*
X113167Y515500D03*
G54D22*
X498398Y375400D03*
G54D72*
X188453Y360700D03*
G54D22*
X180602Y341500D03*
G54D68*
X193500Y359522D03*
G54D19*
X189969Y401000D03*
X61831Y101000D03*
G54D72*
X237408Y514011D03*
X204814D03*
X204753Y361400D03*
G54D39*
X219424Y555361D03*
G54D72*
X42261Y515500D03*
X198908Y514011D03*
G54D40*
X67477Y602567D03*
X225140Y601078D03*
G54D70*
X376800Y522531D03*
G54D47*
X382300Y522447D03*
G54D39*
X57777Y556850D03*
Y536350D03*
G54D40*
X41477Y573433D03*
G54D39*
X72777Y556850D03*
Y536350D03*
G54D40*
X67477Y573433D03*
G54D39*
X67777Y556850D03*
G54D40*
X119477Y602567D03*
G54D39*
X110277Y556850D03*
G54D40*
X41477Y602567D03*
G54D21*
X62651Y515500D03*
G54D72*
X69261D03*
G54D39*
X105277Y536350D03*
Y556850D03*
G54D40*
X93477Y573433D03*
G54D21*
X92777Y515500D03*
G54D72*
X86667D03*
G54D39*
X110277Y536350D03*
X67777D03*
G54D70*
X506800Y383231D03*
G54D19*
X307969Y62200D03*
X294531Y65700D03*
Y70700D03*
G54D47*
X469900Y210753D03*
G54D94*
X462600Y212231D03*
G54D51*
X381467Y217500D03*
G54D70*
X403600Y208031D03*
G54D72*
X407247Y267900D03*
G54D94*
X407169Y260600D03*
G54D70*
X403600Y211969D03*
G54D19*
X471569Y295500D03*
G54D36*
X522492Y165400D03*
G54D72*
X413153Y274900D03*
Y267900D03*
G54D94*
X415831Y260600D03*
G54D22*
X443798Y263500D03*
G54D38*
X433718Y217805D03*
G54D72*
X461037Y243400D03*
G54D94*
X461831Y236000D03*
G54D22*
X441102Y229000D03*
G54D69*
X524200Y426508D03*
G54D64*
X543408Y393500D03*
G54D74*
X556400Y420200D03*
X302500Y568000D03*
Y596000D03*
G54D75*
X63100Y329400D03*
G54D38*
X205246Y536747D03*
X504900Y527102D03*
G54D66*
X87300Y329654D03*
G54D38*
X48599Y538236D03*
G54D87*
X241521Y143504D03*
G54D70*
X239553Y166169D03*
G54D87*
X231679Y156496D03*
X233647D03*
G54D19*
X233616Y163200D03*
G54D70*
X263400Y142131D03*
X268900Y146731D03*
G54D87*
X241521Y156496D03*
G54D70*
X416500Y208331D03*
G54D87*
X239553Y156496D03*
G54D38*
X250500Y163398D03*
G54D70*
X239553Y162231D03*
G54D91*
X228135Y147047D03*
G54D19*
X222669Y143100D03*
Y148600D03*
G54D70*
X410000Y208532D03*
X229000Y133531D03*
G54D19*
X234431Y133000D03*
G54D87*
X229710Y143504D03*
G54D19*
X222669Y137600D03*
G54D87*
X235616Y143504D03*
G54D70*
X263400Y146069D03*
G54D19*
X238369Y138600D03*
Y133000D03*
G54D70*
X257600Y146069D03*
G54D72*
Y152700D03*
G54D84*
X209300Y168600D03*
G54D19*
X218731Y143100D03*
G54D72*
X216547Y155000D03*
G54D91*
X245065Y152953D03*
G54D70*
X251900Y145069D03*
Y150131D03*
G54D87*
X233647Y143504D03*
G54D70*
X229000Y137469D03*
G54D19*
X234431Y138600D03*
G54D87*
X231679Y143504D03*
G54D19*
X222669Y132100D03*
G54D91*
X228135Y152953D03*
G54D72*
X222453Y161500D03*
Y155000D03*
G54D76*
X26363Y317454D03*
G54D45*
X571441Y329240D03*
G54D70*
X496300Y529531D03*
G54D22*
X94772Y535622D03*
G54D33*
X577480Y353559D03*
G54D70*
X298800Y86031D03*
G54D46*
X292638Y81097D03*
G54D30*
X525400Y231898D03*
G54D98*
X236600Y150000D03*
G54D84*
X106100Y289100D03*
X280400Y193300D03*
G54D27*
X340900Y128047D03*
G54D84*
X510300Y135800D03*
G54D27*
X340600Y191753D03*
X247953Y190500D03*
X395953Y276000D03*
X110000Y340953D03*
X251500Y369953D03*
G54D100*
X357600Y103000D03*
G54D25*
X349824Y104575D03*
X365376Y101425D03*
G54D71*
X457900Y59082D03*
G54D43*
X195416Y421302D03*
X245516Y431698D03*
G54D24*
X488100Y67713D03*
G54D29*
X250349Y288827D03*
G54D87*
X237584Y156496D03*
Y143504D03*
X243490Y156496D03*
G54D41*
X547896Y420200D03*
G54D65*
X63100Y320896D03*
G54D47*
X581800Y376653D03*
G54D72*
X479463Y329407D03*
X182547Y360700D03*
X216547Y161500D03*
G54D35*
X570302Y234300D03*
G54D30*
X537100Y140598D03*
G54D35*
X570102Y248000D03*
X578202Y309700D03*
G54D30*
X529900Y359202D03*
G54D35*
X240202Y201500D03*
G54D30*
X308866Y221231D03*
X295334Y221364D03*
X322834Y221464D03*
X448686Y346755D03*
G54D19*
X500131Y417200D03*
G54D70*
X452900Y78669D03*
X472600Y100069D03*
X86200Y365431D03*
G54D19*
X282550Y302852D03*
G54D70*
X91300Y259431D03*
Y268331D03*
X112400Y263231D03*
G54D19*
X385531Y207300D03*
G54D70*
X480700Y277131D03*
X513000Y271331D03*
G54D19*
X477231Y286900D03*
X301002Y258134D03*
X474011Y346260D03*
X425782Y445632D03*
X438719D03*
X209156Y450911D03*
X231093D03*
X71683Y451000D03*
X482919Y445632D03*
X218156Y450911D03*
X185131Y379900D03*
G54D70*
X314500Y72131D03*
G54D19*
X94033Y146150D03*
X218731Y132100D03*
G54D70*
X251900Y141131D03*
G54D19*
X338028Y70902D03*
X88069Y453100D03*
X248993Y450911D03*
X443482Y445632D03*
X101974Y451500D03*
X258993Y450911D03*
X454682Y445632D03*
X467819D03*
X236056Y450911D03*
X101974Y444000D03*
X60931Y310900D03*
G54D70*
X97300Y304981D03*
X538100Y83431D03*
X508921Y77994D03*
X517921Y97931D03*
X553821Y104994D03*
X558321D03*
G54D19*
X578531Y100900D03*
X582789Y79963D03*
G54D70*
X561221Y64931D03*
X555821D03*
G54D19*
X83431Y379800D03*
G54D70*
X111800Y414769D03*
G54D19*
X490031Y102500D03*
G54D73*
X127500Y242063D03*
X512400Y264837D03*
X549821Y79526D03*
G54D38*
X269966Y268931D03*
G54D22*
X40998Y67200D03*
X109602Y195100D03*
Y185600D03*
Y175700D03*
X153502Y226700D03*
X153402Y236900D03*
G54D38*
X183500Y200898D03*
X172900Y200998D03*
G54D22*
X394498Y167200D03*
Y177300D03*
G54D38*
X451500Y176202D03*
Y139598D03*
G54D22*
X387598Y259800D03*
X428898Y229000D03*
X456002Y263500D03*
G54D38*
X433718Y205600D03*
X120100Y295698D03*
X135400Y295598D03*
X135300Y332002D03*
G54D22*
X218498Y341100D03*
X301650Y97316D03*
G54D38*
X279984Y93850D03*
X122100Y385698D03*
X111900D03*
X170000Y401602D03*
X160000D03*
X120100Y332002D03*
G54D22*
X168398Y341500D03*
G54D38*
X315400Y136402D03*
G54D22*
X289937Y49109D03*
G54D38*
X250500Y175602D03*
G54D22*
X266898Y30200D03*
X124434Y76300D03*
X85734Y75600D03*
X246134Y79500D03*
G54D38*
X330500Y55702D03*
G54D22*
X170137Y77809D03*
X440534Y72300D03*
X380799Y72102D03*
G54D70*
X458600Y81769D03*
G54D19*
X566931Y80000D03*
G54D70*
X454300Y49531D03*
X483600Y100069D03*
X472600Y56331D03*
G54D19*
X338831Y101400D03*
G54D70*
X557900Y359969D03*
G54D19*
X238750Y304848D03*
X52734Y95791D03*
X74431Y280600D03*
X130369Y262900D03*
G54D70*
X375000Y157831D03*
X382887Y157893D03*
G54D19*
X477131Y292600D03*
G54D70*
X506800Y387169D03*
G54D19*
X283231Y274200D03*
X309669Y272800D03*
X62431Y299000D03*
G54D70*
X261291Y78203D03*
G54D19*
X368169Y200000D03*
G54D70*
X465100Y348669D03*
X460000D03*
X183300Y374569D03*
G54D19*
X189969Y395500D03*
G54D70*
X213500Y355031D03*
X196800Y403569D03*
G54D19*
X218731Y148600D03*
Y137600D03*
G54D70*
X257600Y142131D03*
X184159Y89566D03*
G54D19*
X307031Y332300D03*
X91596Y133650D03*
G54D70*
X99064Y145118D03*
G54D19*
X298469Y70700D03*
X174334Y102491D03*
X82831Y102500D03*
Y107500D03*
X131331Y101500D03*
G54D70*
X392300Y85731D03*
G54D19*
X93169Y405300D03*
G54D70*
X98800Y388269D03*
X96800Y399269D03*
X107000Y433369D03*
X101500D03*
G54D19*
X301131Y313000D03*
Y307500D03*
X134569Y146200D03*
G54D70*
X307400Y104131D03*
G54D19*
X308231Y117300D03*
G54D70*
X494900Y65831D03*
G54D69*
X524200Y452492D03*
G54D47*
X113400Y251247D03*
G54D72*
X118253Y281650D03*
G54D47*
X492300Y288947D03*
G54D72*
X257547Y427500D03*
G54D47*
X352782Y313546D03*
G54D21*
X228437Y402100D03*
X69263Y268100D03*
G54D67*
X515800Y404753D03*
G54D55*
X357083Y128695D03*
Y186471D03*
G54D76*
X26363Y352100D03*
G54D62*
X35221Y326903D03*
G54D70*
X149900Y122031D03*
X183659Y80003D03*
G54D101*
X103500Y416900D03*
G54D49*
X100547Y422461D03*
G54D101*
X135747Y137983D03*
G54D50*
X130186Y135030D03*
G54D101*
X317100Y309500D03*
G54D50*
X311539Y306547D03*
G54D92*
X90840Y428511D03*
G54D38*
X73900Y162002D03*
G54D51*
X389341Y221240D03*
G54D19*
X501969Y578000D03*
X136737Y156400D03*
G54D70*
X141800Y164231D03*
G54D85*
X92269Y366400D03*
G54D27*
X194153Y63700D03*
X125500Y120247D03*
G54D33*
X219055Y387941D03*
G54D45*
X549659Y348955D03*
G54D27*
X79647Y321600D03*
X162200Y135547D03*
X461800Y284247D03*
X353900Y245953D03*
G54D22*
X82598Y545600D03*
G54D37*
X540343Y11697D03*
X527744D03*
X518295D03*
X508846D03*
X499398D03*
X489949D03*
X480500D03*
X540343Y36500D03*
X527744D03*
X518295D03*
X508846D03*
X499398D03*
X489949D03*
X480500D03*
G54D39*
X428500Y530750D03*
Y551250D03*
X62777Y536350D03*
Y556850D03*
X266924Y534861D03*
Y555361D03*
X115277Y556850D03*
Y536350D03*
X224424Y555361D03*
Y534861D03*
X481500Y551250D03*
Y530750D03*
G54D26*
X357600Y110776D03*
G54D108*
X553500Y535500D03*
X593000Y51000D03*
X28500D03*
G54D81*
X308500Y608200D03*
X293996Y588040D03*
X297600Y610100D03*
X525700Y23200D03*
X543458Y507458D03*
X554850Y432500D03*
X557950D03*
X568143Y507458D03*
X95200Y328700D03*
X95900Y333400D03*
G54D77*
X106200Y669900D03*
X116200D03*
X126200D03*
X136200D03*
X146200D03*
X156200D03*
X16200D03*
X166200D03*
X176200D03*
X186200D03*
X196200D03*
X206200D03*
X216200D03*
X226200D03*
X236200D03*
X246200D03*
X256200D03*
X26200D03*
X266200D03*
X276200D03*
X286200D03*
X296200D03*
X306200D03*
X316200D03*
X326200D03*
X336200D03*
X346200D03*
X356200D03*
X36200D03*
X366200D03*
X376200D03*
X386200D03*
X396200D03*
X406200D03*
X416200D03*
X426200D03*
X436200D03*
X446200D03*
X456200D03*
X46200D03*
X466200D03*
X476200D03*
X486200D03*
X496200D03*
X506200D03*
X516200D03*
X526200Y559900D03*
Y569900D03*
Y579900D03*
Y589900D03*
Y599900D03*
Y609900D03*
Y619900D03*
Y629900D03*
Y639900D03*
Y649900D03*
Y659900D03*
Y669900D03*
X536300Y557700D03*
X546300Y557600D03*
X556300D03*
X56200Y669900D03*
X566300Y557600D03*
X576300D03*
X586300D03*
X596300D03*
X604400Y415400D03*
Y425400D03*
Y435400D03*
Y445400D03*
Y455400D03*
Y465400D03*
Y475400D03*
Y485400D03*
Y495400D03*
Y505400D03*
Y515400D03*
Y525400D03*
Y535400D03*
Y545400D03*
X6200Y329900D03*
Y339900D03*
Y349900D03*
Y359900D03*
Y369900D03*
Y379900D03*
Y389900D03*
Y399900D03*
Y409900D03*
Y419900D03*
Y429900D03*
Y439900D03*
Y449900D03*
Y459900D03*
Y469900D03*
Y479900D03*
Y489900D03*
Y499900D03*
Y509900D03*
Y519900D03*
Y529900D03*
Y539900D03*
Y549900D03*
Y559900D03*
Y569900D03*
Y579900D03*
Y589900D03*
Y599900D03*
Y609900D03*
Y619900D03*
Y629900D03*
Y639900D03*
Y649900D03*
Y659900D03*
Y669900D03*
X66200D03*
X76200D03*
X86200D03*
X96200D03*
G54D81*
X42500Y522500D03*
X98500Y521500D03*
G54D77*
X115850Y524100D03*
G54D81*
X103500Y400000D03*
X271300Y89200D03*
X403500Y132800D03*
X406600D03*
X409700D03*
X423800Y124500D03*
G54D77*
X169400Y147700D03*
Y152700D03*
X174400Y147700D03*
Y152700D03*
X179400Y147700D03*
Y152700D03*
X192000Y215000D03*
Y220500D03*
X197000Y215000D03*
Y220500D03*
X260222Y57778D03*
X260790Y62700D03*
X338100Y234500D03*
Y239100D03*
Y243700D03*
X342700Y234500D03*
X384300Y286000D03*
Y290600D03*
Y295200D03*
Y299800D03*
X388900Y286000D03*
Y290600D03*
X413500Y98500D03*
X426500Y99000D03*
X505500Y110700D03*
Y117200D03*
X512500Y110700D03*
Y117200D03*
X519500Y110700D03*
Y117200D03*
G54D99*
X159000Y126100D03*
X161800Y125900D03*
X422882Y152053D03*
Y155253D03*
Y158076D03*
Y161276D03*
Y164100D03*
Y167300D03*
X425382Y152053D03*
Y155253D03*
Y158076D03*
Y161276D03*
Y164100D03*
Y167300D03*
X428000Y152053D03*
Y155253D03*
Y158076D03*
Y161276D03*
Y164100D03*
Y167300D03*
X430500Y152053D03*
Y155253D03*
Y158076D03*
Y161276D03*
Y164100D03*
Y167300D03*
G54D83*
X101400Y414900D03*
X101500Y418900D03*
X103500Y416900D03*
X105600Y414900D03*
Y418900D03*
X129332Y266200D03*
X133800Y136000D03*
Y140000D03*
X137800Y136000D03*
Y140000D03*
X192900Y398500D03*
X199400Y395169D03*
X212701Y437576D03*
Y440376D03*
X215601Y439053D03*
X216066Y140266D03*
X217500Y355031D03*
X218301Y437576D03*
Y440376D03*
X222700Y91800D03*
X229365Y436000D03*
Y441600D03*
X230842Y438700D03*
X231093Y445800D03*
X232165Y436000D03*
Y441600D03*
X245430Y436100D03*
Y441600D03*
X246907Y438700D03*
X248230Y436100D03*
Y441600D03*
X254800Y138800D03*
X262576Y436699D03*
Y442299D03*
X264053Y439399D03*
X265376Y436699D03*
Y442299D03*
X29400Y460831D03*
Y463631D03*
Y483700D03*
Y486500D03*
X299066Y261833D03*
Y265533D03*
Y269233D03*
X302766Y261833D03*
Y265533D03*
Y269233D03*
X306466Y261833D03*
Y265533D03*
Y269233D03*
X315100Y307500D03*
Y311600D03*
X317100Y309500D03*
X319100Y307400D03*
Y311600D03*
X32300Y462309D03*
Y485177D03*
X35000Y460831D03*
Y463631D03*
Y483700D03*
Y486500D03*
X353600Y103000D03*
Y107000D03*
Y99000D03*
X357600Y103000D03*
Y107000D03*
Y99000D03*
X358300Y209200D03*
Y213600D03*
X361600Y103000D03*
Y107000D03*
Y99000D03*
X361800Y211400D03*
X365300Y209200D03*
Y213600D03*
X430738Y102141D03*
Y106141D03*
Y110141D03*
X433738Y102141D03*
Y106141D03*
Y110141D03*
X436738Y102141D03*
Y106141D03*
Y110141D03*
X439738Y102141D03*
Y106141D03*
Y110141D03*
X439900Y429900D03*
Y435500D03*
X441377Y432600D03*
X442700Y429900D03*
Y435500D03*
X442738Y102141D03*
Y106141D03*
Y110141D03*
X456567Y429900D03*
Y435500D03*
X456600Y350400D03*
X458044Y432600D03*
X459367Y429900D03*
Y435500D03*
X473233Y429900D03*
Y435500D03*
X474710Y432600D03*
X476033Y429900D03*
Y435500D03*
X489500Y429800D03*
Y435400D03*
X490977Y432500D03*
X492300Y429800D03*
Y435400D03*
X510300Y384700D03*
X542600Y83600D03*
X54700Y287000D03*
X587454Y78346D03*
X63900Y303100D03*
Y307400D03*
X65931Y278831D03*
X66080Y305200D03*
X67131Y435400D03*
Y441000D03*
X68200Y303000D03*
Y307400D03*
X68609Y438100D03*
X69931Y435400D03*
Y441000D03*
X79159Y383838D03*
Y386838D03*
Y389838D03*
Y392838D03*
Y395838D03*
X82100Y273800D03*
X83159Y383838D03*
Y386838D03*
Y389838D03*
Y392838D03*
Y395838D03*
X85500Y435400D03*
Y441000D03*
X86977Y438100D03*
X87159Y383838D03*
Y386838D03*
Y389838D03*
Y392838D03*
Y395838D03*
X88300Y435400D03*
Y441000D03*
X89700Y156500D03*
X94400Y387831D03*
X96000Y301300D03*
G54D81*
X100900Y284000D03*
X101500Y436700D03*
X101974Y440700D03*
X102700Y388269D03*
X102746Y142746D03*
X106500Y93400D03*
X107000Y436800D03*
X109287Y452787D03*
X122100Y282500D03*
X122400Y239600D03*
X125400Y162500D03*
X127300Y103300D03*
X134800Y281400D03*
X136600Y130700D03*
X138100Y146200D03*
X147700Y289400D03*
Y294400D03*
Y299400D03*
X152500Y91041D03*
X155700Y141200D03*
X156900Y167100D03*
X159325Y91625D03*
X165700Y155453D03*
X175450Y402000D03*
X175500Y398500D03*
X176000Y395000D03*
X180400Y88175D03*
X188100Y365600D03*
Y370400D03*
Y375200D03*
X189600Y196900D03*
X192100Y365600D03*
Y370400D03*
Y375200D03*
X193031Y406000D03*
X194200Y97300D03*
X196100Y365600D03*
Y370400D03*
Y375200D03*
X197853Y65453D03*
X200100Y365600D03*
Y370400D03*
Y375200D03*
X204100Y365600D03*
Y370400D03*
Y375200D03*
X205000Y448400D03*
X206900Y84500D03*
X212200Y161500D03*
X214600Y148600D03*
X218498Y335400D03*
X221000Y381800D03*
X224800Y377800D03*
X231200Y377100D03*
X23300Y79600D03*
X233500Y395200D03*
X237900Y446500D03*
X240200Y174000D03*
X247500Y445800D03*
X247953Y196953D03*
X252400Y432200D03*
X25300Y90900D03*
X255100Y88200D03*
X256100Y78203D03*
X261500Y447500D03*
X262318Y99704D03*
X278384Y98484D03*
X280914Y285486D03*
X281584Y98484D03*
X283531Y350069D03*
X284200Y279300D03*
X287200Y298100D03*
X28900Y567500D03*
X291500Y248165D03*
X297000Y313000D03*
X297200Y307500D03*
X301100Y111700D03*
X302100Y69100D03*
X302400Y104500D03*
X304288Y336700D03*
X306300Y99600D03*
X306400Y95200D03*
X310000Y247565D03*
X313066Y294500D03*
X314631Y96669D03*
X318937Y340863D03*
X318964Y73764D03*
X321302Y274902D03*
X322100Y256600D03*
X324500Y94200D03*
X331500Y107998D03*
Y313576D03*
X334600Y103600D03*
X336126Y196226D03*
X336267Y192267D03*
X338400Y66100D03*
X338650Y35550D03*
X339500Y157700D03*
X340900Y124600D03*
X346000Y123600D03*
X347500Y309000D03*
X349400Y200100D03*
X349600Y195300D03*
X350300Y157600D03*
X350900Y123200D03*
X354105Y286000D03*
X355900Y123200D03*
X356063Y59700D03*
Y70663D03*
X360900Y123200D03*
X361100Y157700D03*
X361700Y246100D03*
X365900Y123200D03*
X369300Y209300D03*
X370500Y157800D03*
X371400Y127700D03*
X371500Y123200D03*
X371800Y186300D03*
X377600D03*
Y192000D03*
X377700Y123200D03*
Y127800D03*
X379100Y157800D03*
X380400Y222200D03*
X380500Y235000D03*
X380700Y229331D03*
X382100Y308700D03*
X382200Y207300D03*
X387000Y157800D03*
X390900Y158000D03*
X392300Y183000D03*
X393100Y208300D03*
X395900Y157900D03*
X395953Y270500D03*
X396300Y67431D03*
X397000Y182900D03*
X397400Y90600D03*
X402100Y235500D03*
X402200Y228400D03*
X403200Y157800D03*
X403600Y203700D03*
X405900Y231900D03*
X408900Y115229D03*
X409500Y228300D03*
Y235300D03*
X410000Y203800D03*
X411800Y181200D03*
X413257Y145443D03*
X415800Y121000D03*
X416200Y68800D03*
X416500Y203500D03*
X416600Y57400D03*
X422500Y447900D03*
X424600Y186700D03*
X428000Y193000D03*
Y196500D03*
X429600Y186700D03*
X431500Y193000D03*
Y196500D03*
X435000Y193000D03*
Y196500D03*
X435900Y131800D03*
X438500Y193000D03*
Y196500D03*
X441100Y343800D03*
Y349000D03*
X441500Y440000D03*
X443000Y132600D03*
X444000Y180700D03*
X445100Y177500D03*
X448600Y113880D03*
X448800Y122969D03*
X449300Y181400D03*
X449600Y134200D03*
X450900Y157800D03*
X452900Y82900D03*
X453600Y181400D03*
X454400Y134200D03*
X456000Y440800D03*
X456700Y157700D03*
X458146Y53854D03*
X459300Y181400D03*
X459600Y134200D03*
X461700Y265600D03*
X461900Y261000D03*
X462200Y157800D03*
X462300Y279297D03*
X463000Y181500D03*
X464300Y134300D03*
X466400Y441200D03*
X467700Y56000D03*
Y91000D03*
X467869Y100069D03*
X467900Y48800D03*
Y60800D03*
Y64500D03*
X468200Y71100D03*
Y86000D03*
X468300Y76000D03*
Y81000D03*
X469900Y345900D03*
X47200Y274300D03*
Y277800D03*
X47300Y281700D03*
X474137Y287237D03*
X475208Y271138D03*
X475400Y277000D03*
X477500Y296500D03*
X479800Y20900D03*
X480960Y299400D03*
X481440Y230000D03*
Y233100D03*
Y236200D03*
Y239300D03*
Y242400D03*
X481500Y333200D03*
X486600Y440500D03*
X486900Y104200D03*
X489800Y29600D03*
X489949Y20600D03*
Y42597D03*
X495600Y255300D03*
X495900Y383131D03*
X496703Y296603D03*
X496800Y293500D03*
X496978Y417200D03*
X498600Y260100D03*
Y267100D03*
Y274100D03*
X499398Y18600D03*
Y42597D03*
X500000Y395900D03*
Y399600D03*
X502100Y65831D03*
X503500Y77994D03*
X505600Y260100D03*
Y267100D03*
Y274100D03*
X506000Y395900D03*
Y399600D03*
X506900Y17800D03*
X507200Y29400D03*
X508721Y101321D03*
X510800Y140400D03*
X511000Y401400D03*
X513000Y60100D03*
X515400Y140400D03*
X516300Y73700D03*
X517500Y101513D03*
X518295Y42597D03*
X519000Y295800D03*
X519500Y54969D03*
X520200Y19900D03*
X522100Y354500D03*
Y357900D03*
X522600Y361900D03*
X523169Y534931D03*
X523400Y461600D03*
X523500Y466300D03*
X523800Y295900D03*
X52734Y100100D03*
X527300Y19400D03*
X527744Y42597D03*
X528400Y461600D03*
X528500Y466300D03*
X529102Y532198D03*
X529600Y227200D03*
X530300Y524500D03*
X531900Y25100D03*
X533400Y461600D03*
X533500Y466300D03*
X539200Y461500D03*
X539300Y466200D03*
X540343Y19800D03*
Y42597D03*
X543398Y532198D03*
X544600Y461100D03*
X544700Y465800D03*
X549300Y338700D03*
X549400Y342300D03*
X553100Y338700D03*
X553300Y342300D03*
X553800Y71500D03*
X554469Y359969D03*
X556000Y100000D03*
X556700Y339000D03*
X557100Y342100D03*
X558600Y68800D03*
X560700Y337800D03*
Y341300D03*
X561000Y330700D03*
X561400Y334300D03*
X563800Y80000D03*
X564300Y353200D03*
X568300Y45800D03*
X569200Y297000D03*
X574677Y96216D03*
X575500Y302200D03*
X57650Y98801D03*
X580000Y302300D03*
X580600Y105700D03*
X580700Y356200D03*
X583900Y321900D03*
X584400Y304700D03*
Y309400D03*
Y314400D03*
X586400Y374469D03*
X68400Y447300D03*
X70600Y284200D03*
X78300Y102500D03*
X79200Y107500D03*
X80200Y551772D03*
X82604Y564396D03*
X86200Y362100D03*
X86400Y133650D03*
X86700Y259900D03*
X89954Y447239D03*
X92700Y401000D03*
X93169Y409731D03*
X99095Y540500D03*
G54D77*
X102200Y258300D03*
X102447Y340953D03*
X104500Y384600D03*
X105400Y251400D03*
X105600Y265300D03*
X111900Y289100D03*
X120100Y289900D03*
X122100Y172300D03*
X122200Y181000D03*
X123800Y115700D03*
X127202Y332002D03*
X130700Y73300D03*
X131100Y199800D03*
X131200Y190200D03*
X131400Y181000D03*
X131500Y172300D03*
X132700Y82500D03*
X135300Y339100D03*
X135400Y290000D03*
X138964Y596959D03*
X141200Y172400D03*
X141700Y180700D03*
X143464Y596959D03*
X147964D03*
X151900Y172300D03*
X159000Y248500D03*
X159500Y224000D03*
X160900Y179500D03*
X161300Y172300D03*
X170500Y115500D03*
Y122500D03*
X172500Y195300D03*
X172900Y189800D03*
X173000Y184000D03*
X176100Y348300D03*
X176400Y73100D03*
Y81400D03*
X178000Y115500D03*
Y122500D03*
X178500Y105500D03*
X180500Y277600D03*
X183000Y184000D03*
Y195000D03*
X183300Y189600D03*
X184700Y260100D03*
X185700Y274900D03*
X186500Y254800D03*
X187698Y339698D03*
X189500Y111000D03*
X202398Y421302D03*
X208500Y111000D03*
X211750Y400250D03*
X21700Y587200D03*
X222500Y123500D03*
X233100Y429100D03*
X234700Y303500D03*
X247053Y369953D03*
X248600Y388500D03*
X248800Y394100D03*
Y399800D03*
X251500Y128000D03*
X251700Y82200D03*
X251900Y74600D03*
X252600Y320600D03*
X253100Y427500D03*
X254000Y123000D03*
X256500Y128000D03*
X26100Y360200D03*
X261700Y293900D03*
X262900Y320600D03*
X264500Y196000D03*
Y201100D03*
X266898Y23600D03*
X269600Y201100D03*
X272100Y320500D03*
X274800Y193300D03*
X286400Y482300D03*
X290200Y303600D03*
X291300Y42200D03*
X292900Y479200D03*
X295500Y46500D03*
X298102Y364202D03*
X298200Y203800D03*
X304000Y203900D03*
X304400Y215500D03*
X304500Y209400D03*
X327800Y32800D03*
X329500Y136402D03*
X330900Y61000D03*
X335900D03*
X338300Y221700D03*
X343300Y328007D03*
X349700Y338898D03*
X350700Y222700D03*
Y230100D03*
X351036Y253036D03*
X35500Y61200D03*
Y67200D03*
X35600Y316554D03*
Y321654D03*
X358016Y253016D03*
X364500Y309500D03*
X380800Y65000D03*
X382700Y60200D03*
X387598Y252802D03*
Y266898D03*
X40700Y316554D03*
Y321654D03*
X415900Y323300D03*
X421000Y238300D03*
X422900Y323300D03*
X425900Y90500D03*
X429100Y323500D03*
X432600Y90500D03*
X440100Y90600D03*
X445900Y78000D03*
X446300Y69300D03*
X447900Y90700D03*
X455784Y401316D03*
X45800Y316554D03*
Y321654D03*
X489400Y171000D03*
X495400D03*
Y524600D03*
X501400Y171000D03*
X506000Y584400D03*
X509500Y430169D03*
X512100Y145400D03*
X517200Y149800D03*
Y154800D03*
X529400Y129000D03*
X540700Y362300D03*
X541000Y498600D03*
X544800Y129000D03*
X545800Y498954D03*
X548384Y46100D03*
X549821Y73421D03*
X551100Y491800D03*
X561000Y128500D03*
X562600Y259800D03*
X562800Y264600D03*
X566000Y128500D03*
X5700Y180500D03*
Y190500D03*
Y200500D03*
Y210500D03*
Y220500D03*
Y230500D03*
Y240500D03*
Y250500D03*
Y260500D03*
Y270500D03*
Y280500D03*
Y290500D03*
Y300500D03*
Y310500D03*
Y320500D03*
X570800Y5400D03*
X572200Y261000D03*
X57308Y364300D03*
X580000Y128500D03*
X580800Y5400D03*
X590800D03*
X592900Y256300D03*
X593000Y234100D03*
X593100Y226700D03*
Y248400D03*
X604000Y108000D03*
Y118000D03*
Y128000D03*
Y138000D03*
Y148000D03*
Y158000D03*
Y168000D03*
Y178000D03*
Y18000D03*
Y188000D03*
Y198000D03*
Y208000D03*
Y218000D03*
Y228000D03*
Y238000D03*
Y248000D03*
Y258000D03*
Y268000D03*
Y278000D03*
Y28000D03*
Y288000D03*
Y298000D03*
Y308000D03*
Y318000D03*
Y328000D03*
Y338000D03*
Y348000D03*
Y358000D03*
Y368000D03*
Y378000D03*
Y38000D03*
Y388000D03*
Y398000D03*
Y48000D03*
Y58000D03*
Y68000D03*
Y78000D03*
Y8000D03*
Y88000D03*
Y98000D03*
X60800Y372200D03*
X61000Y379600D03*
X64200Y266800D03*
X71400Y167400D03*
X73300Y107500D03*
X75500Y324100D03*
X76400Y167400D03*
X85734Y64600D03*
X90201Y87500D03*
X96500Y350000D03*
Y355500D03*
Y429500D03*
X97200Y344000D03*
X98900Y251500D03*
Y265400D03*
G54D99*
X232269Y150000D03*
X236600Y147638D03*
Y152362D03*
X240931Y150000D03*
X132997Y161621D03*
X136737Y159358D03*
Y163885D03*
X140477Y161621D03*
X142358Y123563D03*
X144621Y119823D03*
Y127303D03*
X146885Y123563D03*
X184856Y82855D03*
X188596Y80592D03*
Y85119D03*
X192337Y82855D03*
G54D81*
X200100Y406200D03*
X409700Y243600D03*
X419800Y288600D03*
G54D77*
X117300Y404500D03*
X123000Y404700D03*
X128600D03*
X134000D03*
X320441Y286000D03*
Y291000D03*
Y296000D03*
X325041Y286100D03*
Y291100D03*
Y296100D03*
X397500Y283000D03*
X399800Y267300D03*
X413300Y279850D03*
Y284450D03*
X417900Y279850D03*
Y284450D03*
X463000Y255000D03*
X463800Y231100D03*
X468300Y255100D03*
X470500Y224200D03*
X475800Y231100D03*
X481300Y211200D03*
Y218500D03*
X481500Y203400D03*
X74300Y405700D03*
X77000Y413000D03*
G54D81*
X447288Y199488D03*
X454288Y222388D03*
G54D77*
X221000Y199800D03*
X221300Y191200D03*
X222000Y236600D03*
X222200Y230700D03*
X223000Y212900D03*
X227800Y236200D03*
X271800Y239400D03*
X373400Y238200D03*
X373500Y244000D03*
X377100Y257300D03*
X377200Y262800D03*
X378500Y239000D03*
Y244000D03*
G54D81*
X70200Y238500D03*
Y242000D03*
X70300Y232100D03*
G54D77*
X78600Y172800D03*
X78800Y196000D03*
X78900Y181600D03*
X79100Y205600D03*
X83700Y200300D03*
X84700Y177900D03*
X87600Y205400D03*
X90100Y172900D03*
X98100Y208100D03*
G54D81*
X416800Y172300D03*
G54D83*
X202969Y388600D03*
X542500Y88300D03*
X574355Y79240D03*
G54D81*
X109300Y89500D03*
X124000Y92700D03*
X126000Y106500D03*
X145100Y94978D03*
X156400Y136200D03*
X165300Y91600D03*
X179050Y400250D03*
X189069Y383100D03*
X211369Y84400D03*
X226300Y89700D03*
X246100Y128700D03*
X255930Y93430D03*
X257900Y84900D03*
X278613Y306713D03*
X281700Y102100D03*
X282700Y293600D03*
X284900Y100900D03*
X29800Y85100D03*
X298469Y61700D03*
X310200Y78400D03*
X310800Y102100D03*
X314500Y79700D03*
X318900Y77400D03*
X319000Y93900D03*
X322900Y316000D03*
X324100Y265633D03*
X324300Y262533D03*
Y268733D03*
X324500Y259433D03*
X327500Y96900D03*
X329900Y162900D03*
Y167900D03*
Y172900D03*
X334900Y162900D03*
Y167900D03*
Y172900D03*
X339900Y162900D03*
X341800Y75600D03*
X344900Y162900D03*
X345876Y103500D03*
X357300Y115200D03*
X366800Y91700D03*
X369324Y102500D03*
X382400Y180100D03*
X385800Y164800D03*
X386000Y175400D03*
X392300Y253900D03*
X401800Y97200D03*
X402500Y253800D03*
X403400Y63800D03*
X421100Y132900D03*
X424200D03*
X427300D03*
X45300Y90791D03*
X457100Y73900D03*
X466900Y52686D03*
X467700Y104600D03*
X467731Y96131D03*
X469491Y339125D03*
X492600Y535100D03*
X492800Y410000D03*
X502400Y105400D03*
X504200Y74300D03*
X520700Y417200D03*
X554300Y57000D03*
X554500Y112500D03*
X57600Y95400D03*
X84300Y92400D03*
X86100Y148766D03*
X86200Y372500D03*
G54D77*
X112000Y406200D03*
X113500Y429000D03*
X128000Y130700D03*
X147600Y146700D03*
X188800Y426500D03*
X233200Y383500D03*
X234300Y298600D03*
X287200Y488200D03*
X297900Y489300D03*
X311600Y303250D03*
X322500Y129400D03*
X473500Y409700D03*
X489800Y398300D03*
X504500Y589800D03*
X509500Y435500D03*
X549000Y94000D03*
X587950Y103500D03*
X96800Y413537D03*
G54D81*
X379200Y173469D03*
X423216Y175916D03*
X440131Y146900D03*
X465000Y114500D03*
Y121000D03*
Y126500D03*
X467500Y146400D03*
X467600Y151400D03*
X468200Y168800D03*
X468300Y163900D03*
X469000Y133000D03*
X469100Y138300D03*
X472600Y168700D03*
X472700Y173700D03*
X473500Y142400D03*
Y146500D03*
X476000Y171100D03*
X478600Y173800D03*
X413294Y132900D03*
X413700Y174300D03*
X414400Y169327D03*
X441700Y177900D03*
X251500Y197500D03*
X254500Y196000D03*
Y199100D03*
G54D77*
X264800Y171800D03*
Y177350D03*
Y182900D03*
X268700Y174400D03*
Y179950D03*
G54D81*
X334800Y151100D03*
X335200Y146500D03*
X335300Y142400D03*
X339200Y151100D03*
X343800D03*
X369300Y152000D03*
X382800Y141500D03*
X397200Y84600D03*
G54D77*
X404900Y81400D03*
X405900Y68000D03*
G54D81*
X430400Y174600D03*
G54D83*
X485405Y258900D03*
G54D81*
X499400Y249900D03*
G54D77*
X527550Y182000D03*
Y187000D03*
X532000Y179500D03*
Y184000D03*
G54D81*
X238369Y129269D03*
X259600Y156700D03*
X197863Y523100D03*
X284100Y511600D03*
G54D77*
X252961Y526800D03*
G54D81*
X286200Y105200D03*
X291900Y104900D03*
X296900Y104800D03*
X321800Y97800D03*
X337800Y78300D03*
G54D77*
X325700Y125500D03*
X346300Y72400D03*
X351400Y72600D03*
G54D81*
X315400Y109818D03*
G54D83*
X557650Y112600D03*
G54D81*
X555800Y46300D03*
X521000Y90400D03*
X278384Y77011D03*
X281584D03*
G54D77*
X320900Y59000D03*
X324300Y62500D03*
G54D81*
X509400Y74000D03*
X330635Y67122D03*
X333857Y66027D03*
G54D77*
X108600Y6500D03*
X118600D03*
X119500Y70200D03*
X128600Y6500D03*
X138600D03*
X148600D03*
X158600D03*
X168600D03*
X178600D03*
X188600D03*
X198600D03*
X208600D03*
X218600D03*
X228600D03*
X238600D03*
X240033Y63036D03*
X248600Y6500D03*
X258600D03*
X268600D03*
X278600D03*
X28600D03*
X288600D03*
X298600D03*
X308600D03*
X318600D03*
X328600D03*
X338600D03*
X348600D03*
X358600D03*
X368600D03*
X378600D03*
X38600D03*
X388600D03*
X398600D03*
X408600D03*
X418600D03*
X428600D03*
X438600D03*
X447600Y6400D03*
X48600Y6500D03*
X58600D03*
X6200Y106000D03*
Y116000D03*
Y126000D03*
Y136000D03*
Y146000D03*
Y156000D03*
Y16000D03*
Y166000D03*
Y26000D03*
Y36000D03*
Y46000D03*
Y56000D03*
Y6000D03*
Y66000D03*
Y76000D03*
Y86000D03*
Y96000D03*
X68600Y6500D03*
X77300Y69200D03*
X78600Y6500D03*
X88600D03*
X98600D03*
G54D81*
X404800Y545500D03*
G54D77*
X189400Y553900D03*
X233915Y548950D03*
X316000Y549000D03*
Y555000D03*
Y560500D03*
Y566000D03*
X321500D03*
X369000Y632500D03*
X374500Y565500D03*
Y632500D03*
X380000Y565500D03*
X385000D03*
X455200Y556900D03*
G54D81*
X194400Y553900D03*
X253000Y561800D03*
X343036Y636324D03*
Y641324D03*
X345536Y638824D03*
X348036Y636324D03*
Y641324D03*
X405200Y538700D03*
X444700Y559300D03*
G54D77*
X309400Y537300D03*
X309500Y525200D03*
Y531500D03*
X315700Y537300D03*
X315800Y531500D03*
X315900Y525200D03*
X334300Y622500D03*
X338450Y620550D03*
X351000Y621500D03*
X355500D03*
X356000Y649500D03*
X358500Y645500D03*
X361500Y649500D03*
X364000Y645500D03*
X366500Y649500D03*
X369000Y621500D03*
X373500D03*
G54D81*
X159600Y644800D03*
X505504Y594904D03*
Y614996D03*
X521445Y29100D03*
X488500Y593000D03*
X495500Y520000D03*
G54D77*
X432700Y517400D03*
G54D81*
X489800Y563900D03*
X525600Y29300D03*
X505521Y564600D03*
X198908Y518400D03*
X41000Y511000D03*
X554800Y346100D03*
X389516Y368016D03*
G54D77*
X135800Y512500D03*
Y524500D03*
X135900Y518400D03*
X139600Y521600D03*
X148100Y478900D03*
X153200Y479200D03*
X158100Y479300D03*
X323700Y480500D03*
X342100Y480300D03*
X391900Y524700D03*
G54D83*
X173069Y439830D03*
Y443830D03*
Y447830D03*
X177069Y439830D03*
Y443830D03*
Y447830D03*
X181069Y439830D03*
Y443830D03*
Y447830D03*
X185069Y439830D03*
Y443830D03*
Y447830D03*
X189069Y439830D03*
Y443830D03*
Y447830D03*
G54D81*
X196800Y485600D03*
X370800Y356300D03*
X377800Y530900D03*
X387000Y348700D03*
Y358700D03*
X390500Y353700D03*
X394000Y348700D03*
Y358700D03*
X397000Y339500D03*
X401800Y369800D03*
X426100Y402900D03*
G54D77*
X127800Y457700D03*
X128100Y452600D03*
X132200Y418200D03*
X138600Y418600D03*
X166600Y457260D03*
X324200Y518500D03*
X343100Y520300D03*
X356300Y359800D03*
X372800Y525200D03*
X378000Y334500D03*
X411500Y354500D03*
X420100Y500100D03*
X420200Y486600D03*
X420600Y493600D03*
X421000Y481600D03*
X425000Y440700D03*
G54D81*
X386050Y367450D03*
X430200Y365100D03*
G54D77*
X409200Y456200D03*
G54D83*
X133600Y480800D03*
X133910Y478319D03*
G54D81*
X164300Y450400D03*
X167700Y434400D03*
X195000Y456700D03*
G54D77*
X127800Y439400D03*
X217100Y419400D03*
X34631Y447369D03*
X63400Y412300D03*
X76000Y423500D03*
G54D81*
X164200Y444300D03*
X167000Y425900D03*
X204100Y439555D03*
G54D77*
X148600Y465100D03*
X76500Y429000D03*
G54D81*
X45277Y450500D03*
X64900Y448700D03*
X263453Y431953D03*
G54D77*
X277100Y434000D03*
X277600Y440600D03*
Y456400D03*
G54D81*
X145900Y390700D03*
X149500Y387800D03*
Y393500D03*
X152800Y390800D03*
G54D77*
X138700Y371900D03*
G54D81*
X195500Y387500D03*
X227000Y395000D03*
G54D83*
X219800Y359500D03*
X224800Y354500D03*
Y359500D03*
X234600Y331200D03*
Y333700D03*
G54D81*
X84900Y302100D03*
X88700Y302200D03*
X92300D03*
X305900Y364500D03*
X209500Y361247D03*
X539400Y348700D03*
X539600Y345500D03*
X441100Y331595D03*
Y336795D03*
X503700Y407400D03*
X520700Y411800D03*
G54D77*
X459300Y315700D03*
Y320700D03*
X465600Y315700D03*
Y320700D03*
X470600Y315700D03*
Y320700D03*
X475600Y315700D03*
Y320700D03*
X481700Y315700D03*
Y320700D03*
X492300Y351900D03*
X492600Y356900D03*
X500600Y354800D03*
X505400Y354600D03*
X510000D03*
G54D81*
X299866Y245566D03*
X321265Y270965D03*
G54D77*
X111800Y306400D03*
X111900Y313000D03*
X141550Y321800D03*
X142300Y328300D03*
X142400Y307700D03*
X142500Y314300D03*
X143900Y335500D03*
Y342300D03*
X193500Y261400D03*
X198100D03*
X202800Y261500D03*
X336100Y212600D03*
X340700Y205100D03*
Y210100D03*
Y215100D03*
X346300Y205000D03*
Y210000D03*
Y215000D03*
X356100Y235000D03*
G54D81*
X413500Y223100D03*
X415500Y220000D03*
X416500Y216500D03*
X442900Y277100D03*
X446100Y276900D03*
X449500Y277000D03*
X453000D03*
X461500Y269500D03*
X461573Y275976D03*
X461600Y272800D03*
G54D77*
X254500Y375000D03*
X257000Y371000D03*
X259500Y375000D03*
X273000Y365000D03*
Y370500D03*
X283531Y334831D03*
X374004Y232500D03*
G54D81*
X300700Y350300D03*
X167100Y478200D03*
X310969Y328869D03*
X459383Y301583D03*
X468900Y329500D03*
X585600Y330900D03*
X585700Y335900D03*
Y340900D03*
X589000Y330900D03*
Y335900D03*
Y340900D03*
X526500Y308800D03*
X526800Y305500D03*
X530600Y305700D03*
X534400Y297000D03*
X538200Y297100D03*
X543200Y296900D03*
X528000Y259500D03*
X530700Y262000D03*
X536000Y262500D03*
X560700Y302300D03*
X561100Y305600D03*
Y312900D03*
X561300Y308900D03*
X562800Y322500D03*
X562900Y318200D03*
X566600Y322900D03*
X567200Y318200D03*
G54D77*
X528500Y204500D03*
Y209500D03*
X533500Y216000D03*
X534500Y224000D03*
X547500Y228500D03*
Y236000D03*
X549000Y262000D03*
Y267100D03*
X555600D03*
X556000Y262000D03*
G54D81*
X409580Y218966D03*
X410761Y216100D03*
X425063Y284700D03*
X460223Y305900D03*
X463723D03*
X467223D03*
X469300Y332900D03*
X470723Y305900D03*
X474223D03*
X477722D03*
X481223Y302790D03*
Y305900D03*
G54D77*
X427000Y289000D03*
X429563Y284700D03*
X430784Y238200D03*
Y243200D03*
Y248200D03*
X434063Y284700D03*
X435284Y238200D03*
Y243200D03*
Y248200D03*
X439784Y238200D03*
Y243200D03*
Y248200D03*
X447000Y284500D03*
X451500D03*
X456000D03*
Y289000D03*
G54D81*
X83288Y449800D03*
X97500Y448000D03*
X308416Y279054D03*
X313650Y260250D03*
X276100Y285700D03*
X190496Y183700D03*
Y186900D03*
X194196Y183700D03*
X201500Y212500D03*
X278300Y244800D03*
X294355Y272855D03*
X300500Y289500D03*
G54D77*
X197400Y249200D03*
X197500Y255000D03*
X201201Y201256D03*
X202400Y249200D03*
X202500Y255000D03*
X203901Y197256D03*
X206701Y201256D03*
X209401Y197256D03*
X212201Y201256D03*
G54D81*
X299116Y277900D03*
X117400Y277400D03*
X290600Y263000D03*
G54D77*
X291134Y240600D03*
X295634D03*
X300134D03*
G54D81*
X486200Y269200D03*
G54D77*
X136501Y262200D03*
X140000Y276300D03*
Y281050D03*
Y285800D03*
X166700Y247900D03*
X172900Y220300D03*
X177800Y220400D03*
G54D81*
X291500Y255004D03*
X107000Y234200D03*
X116600D03*
G54D77*
X102100Y234400D03*
X111200D03*
X135000Y232300D03*
X135022Y245614D03*
X135100Y237600D03*
X136400Y213100D03*
X136800Y219300D03*
X143500Y218800D03*
G54D81*
X517300Y242631D03*
G54D77*
X496469Y200973D03*
Y206000D03*
X500996Y200973D03*
X509200Y216800D03*
Y221700D03*
X514750Y216800D03*
X518000Y221700D03*
X520300Y216800D03*
X593491Y209243D03*
Y214242D03*
Y219243D03*
X594291Y173543D03*
Y178543D03*
Y183543D03*
G54D81*
X67500Y212700D03*
X71000D03*
X82600Y235600D03*
X88200Y236200D03*
X93000D03*
X97900D03*
G54D77*
X25800Y235800D03*
X29900Y231600D03*
X34500Y235800D03*
G54D81*
X102400Y206800D03*
X108000Y206600D03*
X113500D03*
X119200Y206700D03*
X126100Y230900D03*
X129300Y227700D03*
Y230900D03*
G54D77*
X63000Y169700D03*
X69100Y187000D03*
X69400Y173800D03*
Y181100D03*
X374000Y222500D03*
Y227500D03*
G54D81*
X402600Y216053D03*
X404093Y218770D03*
X420990Y203500D03*
X421000Y206600D03*
Y209700D03*
Y212800D03*
Y215900D03*
Y219000D03*
X421500Y200420D03*
X424600D03*
X469600Y290900D03*
G54D77*
X512400Y160900D03*
Y165400D03*
Y169900D03*
Y174400D03*
X516900Y160900D03*
Y165400D03*
Y169900D03*
Y174400D03*
G54D81*
X359000Y316000D03*
X368800Y205800D03*
X372600Y196100D03*
X372800Y200400D03*
X397900Y208500D03*
X544769Y526469D03*
G54D77*
X364000Y315500D03*
G54D81*
X204500Y454000D03*
X223500Y447000D03*
X146154Y163600D03*
X197100Y90300D03*
X200200D03*
X201200Y93300D03*
G54D77*
X152500Y112600D03*
X157000Y112500D03*
X161500Y112400D03*
X274000Y152000D03*
X279100Y130500D03*
X283600D03*
X288100D03*
X301600Y127300D03*
X30400Y74900D03*
Y80000D03*
X306600Y127300D03*
X457000Y109800D03*
X481900Y194300D03*
G54D81*
X92756Y160100D03*
G54D77*
X64000Y142600D03*
X64300Y149300D03*
X85400Y153600D03*
G54D81*
X213000Y155000D03*
X213600Y168600D03*
X215100Y144200D03*
X241334Y446174D03*
X254361Y447639D03*
X57900Y108300D03*
X57569Y103818D03*
X117500Y106950D03*
X106500Y101231D03*
X144050Y104350D03*
X145109Y100991D03*
X274000Y97204D03*
X265800Y99704D03*
X22200Y94291D03*
X27600Y102100D03*
X216800Y100900D03*
X206900Y95900D03*
X535500Y26400D03*
X540343Y23200D03*
G54D77*
X106000Y72200D03*
X112000Y69200D03*
X114041Y89431D03*
G54D81*
X67000Y75200D03*
X73295Y100805D03*
G54D77*
X70400Y69100D03*
G54D81*
X160300Y98863D03*
G54D77*
X161400Y104800D03*
X419300Y81500D03*
X424200Y81300D03*
G54D81*
X325800Y83500D03*
G54D77*
X364500Y61200D03*
X369000Y65400D03*
G54D81*
X308000Y556437D03*
X294000Y580000D03*
X521500Y24100D03*
X221200Y83200D03*
X222500Y95300D03*
G54D77*
X227500Y83800D03*
G54D81*
X388597Y68303D03*
X392569Y67431D03*
X309400Y65900D03*
G54D77*
X346900Y59000D03*
X351900D03*
G54D81*
X425400Y143500D03*
X513500Y68700D03*
X38643Y86800D03*
G54D77*
X41000Y99291D03*
G54D81*
X263100Y88735D03*
G54D77*
X267000Y41100D03*
G54D81*
X431700Y441700D03*
X479400D03*
G54D77*
X304598Y46200D03*
X326250Y38150D03*
X330750D03*
X332400Y24700D03*
X337100Y25100D03*
G54D81*
X448100Y441300D03*
X462900Y441481D03*
G54D77*
X552500Y367600D03*
Y372600D03*
Y377600D03*
X559200Y369400D03*
Y374200D03*
Y379000D03*
X564700Y369550D03*
Y374200D03*
Y379000D03*
X577000Y437500D03*
Y442500D03*
X583000Y437500D03*
Y442500D03*
X589000Y437500D03*
Y442500D03*
G54D83*
X199200Y389200D03*
G54D81*
X208000Y405000D03*
G54D83*
X197500Y356000D03*
G54D81*
X180500Y325400D03*
X203872Y354349D03*
X189500Y405400D03*
X190431Y356036D03*
X519661Y402539D03*
X87237Y376000D03*
X587300Y348800D03*
Y353800D03*
Y358800D03*
Y363800D03*
Y368800D03*
X213000Y375000D03*
X402300Y364600D03*
X402200Y359100D03*
X376000Y363500D03*
X398000Y344000D03*
X400500Y342000D03*
X400796Y345400D03*
X479000Y350000D03*
X385500Y340000D03*
X65100Y315000D03*
G54D83*
X485636Y282818D03*
G54D81*
X475400Y283300D03*
X428212Y256500D03*
X435388Y279100D03*
X516400Y287100D03*
X520200Y273753D03*
X530900Y296600D03*
G54D83*
X85200Y273800D03*
G54D81*
X116869Y285800D03*
X120550Y267200D03*
X433400Y256900D03*
X438500D03*
X134300Y277300D03*
X86000Y263400D03*
G54D83*
X525900Y253801D03*
G54D81*
X472747Y261647D03*
X530900Y283500D03*
Y286600D03*
X294000Y257700D03*
G54D83*
X487308Y261303D03*
G54D81*
X458900Y295500D03*
X122500Y257300D03*
X447912Y232388D03*
X454988Y254688D03*
G54D83*
X485373Y251459D03*
G54D81*
X537631Y257700D03*
X486966Y248800D03*
G54D77*
X492400Y179000D03*
X496427Y176600D03*
Y181600D03*
X509200Y192600D03*
Y197500D03*
X514750Y192600D03*
X518000Y197500D03*
X520300Y192600D03*
G54D81*
X122400Y250400D03*
X135700Y268600D03*
Y271800D03*
X72400Y260300D03*
X74500Y238500D03*
X421700Y230000D03*
X445800Y254700D03*
X450200D03*
X453700Y232100D03*
X418550Y225350D03*
X443700Y222200D03*
X448800D03*
X389469Y203931D03*
X487000Y134800D03*
X543063Y96463D03*
G54D77*
X159236Y598700D03*
X163936D03*
X168636D03*
X22500Y509000D03*
X27500D03*
X28200Y562202D03*
X75900Y363700D03*
X81200Y363600D03*
X87950Y551550D03*
G54D81*
X217800Y82800D03*
G54D77*
X448500Y99000D03*
X461600Y104800D03*
Y99700D03*
X163936Y536100D03*
X168636D03*
G54D81*
X65400Y521000D03*
G54D77*
X111600Y521600D03*
X154400Y536500D03*
X159100D03*
X95500Y525500D03*
G54D81*
X51000Y286800D03*
X74900Y303231D03*
X75100Y285600D03*
Y288700D03*
Y291800D03*
Y294900D03*
G54D77*
X45800Y351000D03*
Y358100D03*
G54D81*
X80700Y357900D03*
X84300Y358000D03*
X561600Y360300D03*
X567300Y41800D03*
X230005Y396591D03*
X475300Y350100D03*
X562500Y356400D03*
X301500Y339500D03*
X209500Y388000D03*
X75716Y335016D03*
X389563Y271000D03*
X407169Y256000D03*
G54D77*
X146400Y536541D03*
X47874Y520481D03*
X81857Y521571D03*
X134500Y536400D03*
X140300Y536500D03*
G54D83*
X575300Y71500D03*
G54D81*
X386100Y309000D03*
X397400Y253900D03*
X446000Y159000D03*
X397600Y243300D03*
X368600Y175100D03*
X393500Y243600D03*
X570521Y123500D03*
X405300Y243400D03*
X525500Y52000D03*
X458900Y230300D03*
X462700Y224500D03*
G54D83*
X370300Y90700D03*
G54D81*
X356000Y637000D03*
X376079Y645921D03*
X411500Y386250D03*
G54D77*
X377500Y557000D03*
X382500D03*
X387500D03*
X392500D03*
X397500D03*
G54D83*
X127000Y465300D03*
Y467800D03*
G54D81*
X489300Y402800D03*
X496591Y413822D03*
G54D77*
X526000Y411000D03*
X526200Y417000D03*
X530908Y410192D03*
Y416692D03*
X536500Y422000D03*
X536908Y410192D03*
Y416692D03*
G54D81*
X376000Y360000D03*
X61500Y314500D03*
G54D83*
X466100Y290700D03*
G54D81*
X357400Y239900D03*
Y243000D03*
X429000Y353000D03*
Y359000D03*
G54D77*
X61000Y545600D03*
X85400Y528500D03*
G54D81*
X442900Y548100D03*
G54D77*
X490700Y521900D03*
X443450Y517832D03*
X466052Y531300D03*
X438436Y517832D03*
X491000Y529100D03*
X118900Y545900D03*
X70000Y523163D03*
X106300Y545850D03*
X74600Y525650D03*
X229361Y521711D03*
X276924Y544361D03*
X234263Y521037D03*
X261924Y544361D03*
X69139Y546161D03*
X90200Y528500D03*
X473487Y520850D03*
X482200Y541200D03*
X468436Y519332D03*
X475300Y540700D03*
X433621Y539900D03*
X457600Y522300D03*
X428500Y542600D03*
X452600Y522900D03*
X102400Y529200D03*
X110500Y527700D03*
X219239Y544361D03*
X244347Y521711D03*
X229424Y544361D03*
X249361Y521711D03*
X263900Y523200D03*
X269500Y524723D03*
G54D81*
X425100Y523200D03*
G54D77*
X485500Y521900D03*
G54D81*
X203765Y79300D03*
X203900Y74500D03*
G54D77*
X140900Y80900D03*
Y86900D03*
X102200Y100800D03*
Y105800D03*
X154400Y160400D03*
X161300Y165300D03*
G54D81*
X127900Y109800D03*
X148000Y108000D03*
X61300Y90100D03*
X64400D03*
X68800Y108100D03*
Y111600D03*
X228500Y419000D03*
X203800Y417500D03*
X177600Y428400D03*
X202600Y432700D03*
X584500Y50000D03*
X478100Y363300D03*
X477200Y399831D03*
X522800Y58900D03*
G54D83*
X483442Y44383D03*
G54D81*
X439417Y421846D03*
G54D83*
X223000Y439600D03*
Y442900D03*
X483357Y21967D03*
G54D81*
X227908Y446941D03*
G54D83*
X487007Y44383D03*
G54D81*
X443583Y421846D03*
G54D83*
X487091Y21967D03*
G54D81*
X234093Y446664D03*
G54D83*
X492891Y44383D03*
G54D81*
X483100Y441300D03*
G54D83*
X492806Y21867D03*
G54D81*
X213500Y447250D03*
G54D83*
X496456Y44383D03*
G54D81*
X491400Y440900D03*
G54D83*
X496540Y21867D03*
G54D81*
X219500Y446950D03*
G54D83*
X502255Y44645D03*
G54D81*
X472917Y421346D03*
G54D83*
X502255Y21567D03*
G54D81*
X258100Y447300D03*
G54D83*
X505989Y44645D03*
G54D81*
X477083Y421346D03*
G54D83*
X505989Y21567D03*
G54D81*
X267700Y448800D03*
G54D83*
X511788Y44383D03*
G54D81*
X456017Y420317D03*
G54D83*
X511704Y21667D03*
G54D81*
X244501Y447411D03*
G54D83*
X515354Y44383D03*
G54D81*
X460183Y420317D03*
G54D83*
X515438Y21667D03*
G54D81*
X251082Y446740D03*
X500100Y51000D03*
X530894Y44500D03*
X562990Y76374D03*
X520469Y51031D03*
X530900Y17900D03*
X550200Y69000D03*
X534043Y43157D03*
X586700Y66800D03*
X534043Y22057D03*
X501000Y95300D03*
X500700Y86800D03*
Y82700D03*
X500510Y75910D03*
X504884Y68084D03*
X543800Y101600D03*
X388800Y85500D03*
X519100Y58900D03*
X525400Y324400D03*
X399500Y116000D03*
X508721Y104800D03*
X525400Y314400D03*
X75000Y447500D03*
X78164Y450000D03*
X110754Y444917D03*
X26006Y476500D03*
X30500D03*
X110754Y449083D03*
X26006Y493000D03*
X30500Y493050D03*
X33506Y453000D03*
X36706D03*
X86550Y447650D03*
X34006Y471000D03*
X38006D03*
X38200Y463000D03*
X92800Y449100D03*
G54D77*
X197300Y492000D03*
Y498500D03*
X205400Y518992D03*
X239600Y525200D03*
X187100Y527700D03*
X191800Y529600D03*
X192400Y521600D03*
X224361Y520739D03*
X258200Y524400D03*
G54D81*
X519000Y361100D03*
X519976Y406476D03*
X520700Y382700D03*
X189800Y191900D03*
X293700Y287300D03*
X194196Y205800D03*
X306000Y289500D03*
G54D83*
X485171Y255954D03*
G54D81*
X491700Y187100D03*
X508700Y245200D03*
X517400Y230700D03*
Y235500D03*
X495800Y196600D03*
X514550Y245800D03*
X231500Y159500D03*
X259500Y195500D03*
X242722Y159778D03*
X269500Y196000D03*
X489000Y361900D03*
Y365400D03*
Y368900D03*
Y372400D03*
Y375900D03*
Y379400D03*
Y382900D03*
X492500Y379400D03*
Y382900D03*
X508700Y406500D03*
G54D83*
X200500Y355652D03*
G54D81*
X174900Y311600D03*
X146700Y304400D03*
X193831Y355996D03*
X122000Y246600D03*
X129800Y222700D03*
X129500Y217700D03*
X131250Y214950D03*
X133000Y217700D03*
X42600Y256000D03*
X42700Y252200D03*
X46600Y256000D03*
X46700Y252200D03*
X71000Y226700D03*
G54D77*
Y222700D03*
G54D81*
X117000Y238400D03*
X128802Y209402D03*
X71100Y217700D03*
X86600Y246500D03*
X108216Y240584D03*
X75496Y230876D03*
X497300Y210800D03*
X520200Y256500D03*
X501096Y224596D03*
X504300Y246500D03*
X334500Y601800D03*
Y637500D03*
X338000Y601800D03*
X342000D03*
G54D77*
X480700Y515200D03*
G54D81*
X325150Y620825D03*
X350900Y650400D03*
X318500Y601000D03*
X322000D03*
X333300Y641400D03*
G54D77*
X463536Y515000D03*
G54D81*
X342900Y628357D03*
X370000Y601300D03*
X373500D03*
X377500D03*
G54D77*
X429000Y513500D03*
G54D81*
X336400Y630100D03*
X380329Y594500D03*
X342000Y650500D03*
X351500Y601000D03*
X355000D03*
X358500D03*
G54D77*
X448100Y520200D03*
G54D81*
X335000Y648500D03*
X363000Y594500D03*
X326800Y634000D03*
X344500Y594263D03*
X324200Y644800D03*
X326326Y594215D03*
X382109Y532709D03*
X394800Y368127D03*
X188500Y458000D03*
X197100Y481700D03*
X198500Y477900D03*
X198700Y471000D03*
Y474268D03*
X191896Y458500D03*
X194900Y475400D03*
X367331Y355831D03*
X431050Y402950D03*
X432500Y409000D03*
Y412500D03*
X379500Y363500D03*
X413500Y407000D03*
X204608Y405800D03*
X227000Y385000D03*
X291500Y251565D03*
G54D83*
X505706Y411831D03*
G54D81*
X499969Y406769D03*
X556000Y76500D03*
X252800Y423100D03*
X311581Y353051D03*
X380000Y367500D03*
X411400Y359100D03*
X411500Y364500D03*
X311063Y337900D03*
X101904Y324100D03*
X105100Y323653D03*
X107000Y311000D03*
X68500Y315000D03*
X98600Y324300D03*
X107000Y314500D03*
Y307000D03*
X76000Y318500D03*
X108950Y293650D03*
Y296750D03*
X112050Y293650D03*
Y296750D03*
X75000Y307169D03*
X85504Y317603D03*
X88604D03*
X91704D03*
X94804D03*
X359647Y305353D03*
X361854Y273984D03*
X384382Y270618D03*
X323500Y278694D03*
X347000Y273984D03*
X189000Y345000D03*
X189400Y262800D03*
X397900Y205100D03*
X553900Y353600D03*
X343900Y90600D03*
X450200Y53600D03*
X461640Y74100D03*
G54D83*
X517700Y269500D03*
G54D81*
X488000Y296400D03*
X565700Y330200D03*
X395100Y222100D03*
X346586Y628414D03*
X346816Y650500D03*
X359839Y619739D03*
X519200Y280000D03*
X123000Y277200D03*
X290300Y267100D03*
X310636Y276478D03*
X122800Y272500D03*
X83200Y270800D03*
X122847Y262500D03*
X203700Y180900D03*
X333100Y125600D03*
X431100Y559000D03*
X465300Y545100D03*
X313700Y264500D03*
X109000Y284000D03*
X179900Y259550D03*
X307687Y254500D03*
X179200Y252600D03*
X87100Y282000D03*
X393800Y230500D03*
Y237000D03*
X65000Y549500D03*
X79700Y529400D03*
X361400Y202500D03*
G54D83*
X135500Y170100D03*
G54D81*
X393700Y130500D03*
X218400Y563200D03*
X234547Y527111D03*
X235900Y166400D03*
X242000Y140000D03*
X129778Y156009D03*
G54D83*
X432150Y143550D03*
G54D81*
X415700Y124400D03*
X444069Y145500D03*
X96851Y138438D03*
G54D83*
X327000Y313400D03*
G54D81*
X106500Y403500D03*
X151669Y145069D03*
X588400Y98700D03*
X233200Y101900D03*
X554600Y123400D03*
X87697Y137700D03*
X92000Y124100D03*
X436000Y144500D03*
X242000Y136100D03*
G54D77*
X538600Y122600D03*
G54D83*
X103500Y361253D03*
X360300Y87000D03*
G54D81*
X100000Y403500D03*
X148800Y131100D03*
X266000Y292600D03*
X327000Y310100D03*
X562900Y95900D03*
X95774Y128500D03*
X159400Y122969D03*
X237100Y120300D03*
X375400Y117400D03*
X550189Y101711D03*
X560581Y122804D03*
X566821Y123220D03*
X99500Y392500D03*
X562800Y115994D03*
X189469Y97891D03*
X302300Y89969D03*
X397169Y130500D03*
X309900Y112200D03*
X90742Y107042D03*
G54D83*
X543400Y112600D03*
X549400Y112500D03*
X564100Y112900D03*
G54D81*
X186550Y387950D03*
X258969Y70700D03*
X47933Y84400D03*
X561847Y101282D03*
X289900Y72295D03*
X333800Y97900D03*
X565900Y101600D03*
G54D83*
X568724Y113040D03*
G54D81*
X127400Y99200D03*
X581100Y113600D03*
G54D83*
X575200Y113000D03*
G54D81*
X138700Y108100D03*
X396050Y116000D03*
X428300Y117500D03*
X531800Y100200D03*
X93434Y104965D03*
X171600Y106600D03*
X139300Y101974D03*
X166200Y104000D03*
X269600Y81700D03*
X44103Y96438D03*
X544800Y81400D03*
X574677Y99616D03*
X178500Y99200D03*
G54D83*
X531626Y94400D03*
G54D81*
X51498Y562202D03*
X62700Y564123D03*
X238673Y100608D03*
X582000Y120900D03*
X90418Y94145D03*
X140300Y97959D03*
X177300Y91600D03*
X239400Y88400D03*
X563100Y44900D03*
X77100Y91100D03*
X48797Y99897D03*
X586244Y95430D03*
X392631Y102100D03*
G54D83*
X355400Y90800D03*
X96700Y363600D03*
G54D81*
X144600Y132531D03*
X267100Y288827D03*
X327300Y306200D03*
X557600Y94200D03*
X99500Y407500D03*
X574677Y92481D03*
G54D83*
X531800Y89600D03*
G54D81*
X140100Y93958D03*
X172493Y91793D03*
X239100Y84300D03*
X560321Y47000D03*
X83200Y87100D03*
G54D83*
X322818Y86182D03*
G54D81*
X55800Y92300D03*
G54D83*
X363100Y116900D03*
G54D81*
X521200Y102600D03*
X586473Y90158D03*
X314100Y268200D03*
X588856Y93254D03*
X239900Y96900D03*
X333800Y94100D03*
X388300Y99300D03*
X574692Y88231D03*
X196000Y384000D03*
X551000Y98400D03*
X586300Y84100D03*
X508694Y278200D03*
X556100Y256500D03*
X588033Y87136D03*
G54D83*
X517200Y272600D03*
G54D81*
X549500Y255300D03*
X556452Y87952D03*
X563600Y83700D03*
X574700Y82900D03*
X542654Y78346D03*
X173800Y319100D03*
X525937Y81352D03*
X95989Y423511D03*
X183659Y72159D03*
G54D83*
X532200Y76800D03*
G54D81*
X169700Y330200D03*
X522550Y81050D03*
X95911Y418511D03*
X264100Y70400D03*
X268000Y69900D03*
X290200Y75732D03*
X342300Y93600D03*
X402900Y92200D03*
X543500Y73900D03*
X84300Y128100D03*
X302300Y73300D03*
X339061Y94739D03*
X396569Y102400D03*
X521300Y72400D03*
X89700Y127400D03*
X574619Y76151D03*
G54D83*
X531400Y73800D03*
G54D81*
X586700Y73700D03*
X564388Y71000D03*
X531350Y68650D03*
X289900Y68850D03*
X586700Y70300D03*
X294351Y61600D03*
G54D83*
X567300Y68800D03*
X570200Y68700D03*
G54D81*
X456300Y345500D03*
X525700Y334300D03*
X575100Y57400D03*
G54D83*
X577000Y66800D03*
G54D81*
X223131Y419269D03*
X518350Y517650D03*
X525500Y55500D03*
X545600Y68500D03*
X550800Y56900D03*
X561794Y57647D03*
G54D83*
X566550Y58150D03*
G54D81*
X356000Y640500D03*
X368400Y640469D03*
X111500Y550000D03*
X46502Y556400D03*
X203149Y554911D03*
X218400Y525000D03*
X67500Y564400D03*
X91800Y563600D03*
X246900Y561600D03*
X270900Y545200D03*
X450000Y559700D03*
X474300Y560000D03*
X406200Y552800D03*
X477121Y522732D03*
X114200Y564123D03*
X92100Y551500D03*
X224400Y562900D03*
X255500Y549500D03*
X433500Y544500D03*
X443395Y540500D03*
X62100Y528594D03*
X98100Y529958D03*
X435000Y522500D03*
X198400Y448800D03*
X208145Y560713D03*
X222356Y528288D03*
X199800Y443050D03*
X187647Y422247D03*
X201100Y436500D03*
X197400Y436400D03*
X63900Y425000D03*
X164100Y439400D03*
X187959Y431300D03*
X64100Y418069D03*
G54D83*
X89850Y402250D03*
G54D81*
X179000Y405000D03*
X180900Y385200D03*
X191700Y387300D03*
X262500Y67400D03*
X52800Y82800D03*
X562400Y119931D03*
X495000Y404700D03*
X520500Y387000D03*
X503000Y383239D03*
X510471Y388500D03*
X455600Y342100D03*
X466200Y340300D03*
X348969Y305800D03*
X307869Y310300D03*
X48631Y298031D03*
X278513Y293600D03*
X506100Y299500D03*
G54D83*
X63000Y295700D03*
X486100Y285800D03*
G54D81*
X487900Y291800D03*
X488000Y288100D03*
X83400Y280600D03*
X69200Y280400D03*
G54D77*
X30500Y242600D03*
X35000D03*
X64700Y129100D03*
X78700Y129700D03*
G54D81*
X115500Y550000D03*
X97000Y563600D03*
X181000Y380000D03*
X126800Y144000D03*
X422000Y143600D03*
X522500Y94800D03*
X123400Y139000D03*
X185863Y384620D03*
G54D83*
X360600Y119000D03*
G54D81*
X527000Y110300D03*
G54D83*
X360800Y90000D03*
X346400Y97400D03*
G54D81*
X469900Y342500D03*
X524500Y340500D03*
X526300Y67800D03*
G54D83*
X105200Y379400D03*
X96700Y366400D03*
G54D81*
X237500Y562300D03*
X273100Y562600D03*
X91400Y378100D03*
X178000Y373500D03*
X406100Y358400D03*
X404900Y352750D03*
X466800Y360800D03*
X367800Y365500D03*
X464952Y551100D03*
X478600Y559800D03*
X207700Y357593D03*
X379700Y343200D03*
X389000Y340000D03*
X378000Y339747D03*
X359900Y333600D03*
X364100Y333400D03*
G54D77*
X404400Y373200D03*
X406100Y377900D03*
G54D81*
X400986Y544200D03*
X430900Y522500D03*
G54D83*
X469094Y336050D03*
G54D81*
X465300Y335600D03*
X109300Y564700D03*
X97700Y551700D03*
X71700Y295800D03*
X234000Y543700D03*
X265800Y562282D03*
X208500Y384500D03*
X431500Y133200D03*
X469300Y273900D03*
X485408Y274343D03*
X123700Y265800D03*
G54D80*
X419359Y24581D03*
G54D79*
X405580D03*
X391800D03*
X378021D03*
X364241D03*
X419359Y42692D03*
X405580D03*
X391800D03*
X378021D03*
X364241D03*
G54D86*
X429202Y37101D03*
X354399D03*
G54D80*
X240500Y24581D03*
G54D79*
X226720D03*
X212941D03*
X240500Y42692D03*
X226720D03*
X212941D03*
G54D86*
X250342Y37101D03*
X203098D03*
G54D104*
X474201Y25280D03*
X546642D03*
X461898Y34335D03*
X558945D03*
G54D103*
X461898Y15634D03*
X558945D03*
G54D80*
X577882Y465390D03*
G54D79*
Y451610D03*
X559772Y465390D03*
Y451610D03*
G54D86*
X565362Y475232D03*
Y441768D03*
G54D80*
X27518Y129010D03*
G54D79*
Y142790D03*
X45628Y129010D03*
Y142790D03*
G54D86*
X40038Y119168D03*
Y152632D03*
G54D95*
X278032Y627866D03*
G54D88*
X273032Y617866D03*
X268032Y627866D03*
X263032Y617866D03*
X258032Y627866D03*
X253032Y617866D03*
X248032Y627866D03*
X243032Y617866D03*
X234842Y643614D03*
X244842D03*
X276260D03*
X286260D03*
G54D106*
X280236Y659362D03*
X240866D03*
G54D95*
X100872Y627866D03*
G54D88*
X95872Y617866D03*
X90872Y627866D03*
X85872Y617866D03*
X80872Y627866D03*
X75872Y617866D03*
X70872Y627866D03*
X65872Y617866D03*
X57683Y643614D03*
X67683D03*
X99100D03*
X109100D03*
G54D106*
X103076Y659362D03*
X63706D03*
G54D95*
X455197Y627866D03*
G54D88*
X450197Y617866D03*
X445197Y627866D03*
X440197Y617866D03*
X435197Y627866D03*
X430197Y617866D03*
X425197Y627866D03*
X420197Y617866D03*
X412008Y643614D03*
X422008D03*
X453425D03*
X463425D03*
G54D106*
X457402Y659362D03*
X418031D03*
G54D102*
X577100Y501157D03*
G54D97*
Y511000D03*
G54D90*
X35100Y417653D03*
G54D89*
X45100Y413637D03*
X35100Y409661D03*
X45100Y405645D03*
X35100Y401669D03*
X45100Y397653D03*
X35100Y393676D03*
X45100Y389661D03*
X25612Y430645D03*
Y421629D03*
Y385645D03*
Y376629D03*
G54D107*
X48604Y378676D03*
Y428676D03*
G54D105*
X31911Y435684D03*
Y371669D03*
G54D80*
X159808Y24581D03*
G54D79*
X146028D03*
X132249D03*
X118469D03*
X104690D03*
X90910D03*
X77131D03*
X63351D03*
X159808Y42692D03*
X146028D03*
X132249D03*
X118469D03*
X104690D03*
X90910D03*
X77131D03*
X63351D03*
G54D86*
X169650Y37101D03*
X53509D03*
G54D82*
X24000Y281800D03*
X586500D03*
Y24000D03*
X305300D03*
X24000D03*
Y539600D03*
X586500D03*
G54D93*
X519526Y482052D03*
G54D78*
X527400D03*
X519526Y489926D03*
X527400D03*
X519526Y497800D03*
X527400D03*
G54D12*
X18600Y-131100D02*
G01X583950D01*
X18600Y-91900D02*
G01X584100D01*
X18600Y-111100D02*
G01X584050D01*
X18600Y-151100D02*
G01X584100D01*
Y-151100D02*
G01Y-150950D01*
X18600Y-91769D02*
G01Y-171100D01*
X584100Y-91864D02*
G01Y-171100D01*
Y-171100D02*
G01X18600D01*
G54D10*
X29600Y-137233D02*
G01X28850Y-136733D01*
Y-136733D02*
G01X27975Y-136400D01*
Y-136400D02*
G01X26975D01*
Y-136400D02*
G01X25850Y-136900D01*
Y-136900D02*
G01X24975Y-137733D01*
Y-137733D02*
G01X24350Y-138733D01*
Y-138733D02*
G01X23850Y-140400D01*
Y-140400D02*
G01X23725Y-141900D01*
Y-141900D02*
G01X23975Y-143400D01*
Y-143400D02*
G01X24350Y-144400D01*
Y-144400D02*
G01X25100Y-145400D01*
Y-145400D02*
G01X25975Y-146067D01*
Y-146067D02*
G01X26850Y-146400D01*
Y-146400D02*
G01X27725D01*
Y-146400D02*
G01X28600Y-146067D01*
Y-146067D02*
G01X29350Y-145567D01*
Y-145567D02*
G01X29975Y-144900D01*
X33725Y-146400D02*
G01X36850Y-136400D01*
Y-136400D02*
G01X39975Y-146400D01*
X38850Y-142900D02*
G01X34850D01*
X44350Y-146400D02*
G01Y-136400D01*
Y-136400D02*
G01X47475D01*
Y-136400D02*
G01X48475Y-136900D01*
Y-136900D02*
G01X49100Y-137567D01*
Y-137567D02*
G01X49350Y-138900D01*
Y-138900D02*
G01X49100Y-140233D01*
Y-140233D02*
G01X48350Y-141067D01*
Y-141067D02*
G01X47475Y-141567D01*
Y-141567D02*
G01X44350D01*
X47475D02*
G01X49350Y-146400D01*
X54100D02*
G01Y-136400D01*
Y-136400D02*
G01X56600D01*
Y-136400D02*
G01X57600Y-136900D01*
Y-136900D02*
G01X58350Y-137567D01*
Y-137567D02*
G01X58975Y-138567D01*
Y-138567D02*
G01X59475Y-139734D01*
Y-139734D02*
G01X59600Y-141400D01*
Y-141400D02*
G01X59475Y-143067D01*
Y-143067D02*
G01X58975Y-144233D01*
Y-144233D02*
G01X58350Y-145234D01*
Y-145234D02*
G01X57600Y-145900D01*
Y-145900D02*
G01X56600Y-146400D01*
Y-146400D02*
G01X54100D01*
X74350D02*
G01Y-136400D01*
Y-136400D02*
G01X77475D01*
Y-136400D02*
G01X78475Y-136900D01*
Y-136900D02*
G01X79100Y-137567D01*
Y-137567D02*
G01X79350Y-138900D01*
Y-138900D02*
G01X79100Y-140233D01*
Y-140233D02*
G01X78350Y-141067D01*
Y-141067D02*
G01X77475Y-141567D01*
Y-141567D02*
G01X74350D01*
X77475D02*
G01X79350Y-146400D01*
X89350D02*
G01X84350D01*
Y-146400D02*
G01Y-136400D01*
Y-136400D02*
G01X89350D01*
X87350Y-141233D02*
G01X84350D01*
X94475Y-146400D02*
G01Y-136400D01*
Y-136400D02*
G01X99225D01*
X97475Y-141233D02*
G01X94475D01*
X106850Y-146733D02*
G01X106600Y-146567D01*
Y-146567D02*
G01Y-146233D01*
Y-146233D02*
G01X106850Y-146067D01*
Y-146067D02*
G01X107100Y-146233D01*
Y-146233D02*
G01Y-146567D01*
Y-146567D02*
G01X106850Y-146733D01*
Y-142234D02*
G01X106600Y-142067D01*
Y-142067D02*
G01Y-141733D01*
Y-141733D02*
G01X106850Y-141567D01*
Y-141567D02*
G01X107100Y-141733D01*
Y-141733D02*
G01Y-142067D01*
Y-142067D02*
G01X106850Y-142234D01*
X114350Y-146400D02*
G01Y-136400D01*
Y-136400D02*
G01X117350D01*
Y-136400D02*
G01X118350Y-136900D01*
Y-136900D02*
G01X119100Y-138067D01*
Y-138067D02*
G01X119350Y-139400D01*
Y-139400D02*
G01X119100Y-140733D01*
Y-140733D02*
G01X118475Y-141733D01*
Y-141733D02*
G01X117350Y-142234D01*
Y-142234D02*
G01X114350D01*
X126850Y-146400D02*
G01X125850Y-146233D01*
Y-146233D02*
G01X124975Y-145567D01*
Y-145567D02*
G01X124225Y-144567D01*
Y-144567D02*
G01X123725Y-143400D01*
Y-143400D02*
G01X123475Y-142067D01*
Y-142067D02*
G01Y-140733D01*
Y-140733D02*
G01X123725Y-139400D01*
Y-139400D02*
G01X124225Y-138233D01*
Y-138233D02*
G01X124975Y-137233D01*
Y-137233D02*
G01X125850Y-136567D01*
Y-136567D02*
G01X126850Y-136400D01*
Y-136400D02*
G01X127850Y-136567D01*
Y-136567D02*
G01X128725Y-137233D01*
Y-137233D02*
G01X129475Y-138233D01*
Y-138233D02*
G01X129975Y-139400D01*
Y-139400D02*
G01X130225Y-140733D01*
Y-140733D02*
G01Y-142067D01*
Y-142067D02*
G01X129975Y-143400D01*
Y-143400D02*
G01X129475Y-144567D01*
Y-144567D02*
G01X128725Y-145567D01*
Y-145567D02*
G01X127850Y-146233D01*
Y-146233D02*
G01X126850Y-146400D01*
X133100Y-136400D02*
G01X134850Y-146400D01*
Y-146400D02*
G01X136850Y-136400D01*
Y-136400D02*
G01X138850Y-146400D01*
Y-146400D02*
G01X140600Y-136400D01*
X149350Y-146400D02*
G01X144350D01*
Y-146400D02*
G01Y-136400D01*
Y-136400D02*
G01X149350D01*
X147350Y-141233D02*
G01X144350D01*
X154350Y-146400D02*
G01Y-136400D01*
Y-136400D02*
G01X157475D01*
Y-136400D02*
G01X158475Y-136900D01*
Y-136900D02*
G01X159100Y-137567D01*
Y-137567D02*
G01X159350Y-138900D01*
Y-138900D02*
G01X159100Y-140233D01*
Y-140233D02*
G01X158350Y-141067D01*
Y-141067D02*
G01X157475Y-141567D01*
Y-141567D02*
G01X154350D01*
X157475D02*
G01X159350Y-146400D01*
X174225Y-145067D02*
G01X175225Y-145900D01*
Y-145900D02*
G01X176350Y-146400D01*
Y-146400D02*
G01X177350D01*
Y-146400D02*
G01X178350Y-145900D01*
Y-145900D02*
G01X179100Y-145067D01*
Y-145067D02*
G01X179475Y-143900D01*
Y-143900D02*
G01X179225Y-142734D01*
Y-142734D02*
G01X178600Y-141733D01*
Y-141733D02*
G01X177475Y-141067D01*
Y-141067D02*
G01X175975Y-140733D01*
Y-140733D02*
G01X175100Y-140067D01*
Y-140067D02*
G01X174725Y-138900D01*
Y-138900D02*
G01X174975Y-137733D01*
Y-137733D02*
G01X175600Y-136900D01*
Y-136900D02*
G01X176475Y-136400D01*
Y-136400D02*
G01X177350D01*
Y-136400D02*
G01X178225Y-136733D01*
Y-136733D02*
G01X178975Y-137567D01*
X186850Y-146400D02*
G01X185850Y-146233D01*
Y-146233D02*
G01X184975Y-145567D01*
Y-145567D02*
G01X184225Y-144567D01*
Y-144567D02*
G01X183725Y-143400D01*
Y-143400D02*
G01X183475Y-142067D01*
Y-142067D02*
G01Y-140733D01*
Y-140733D02*
G01X183725Y-139400D01*
Y-139400D02*
G01X184225Y-138233D01*
Y-138233D02*
G01X184975Y-137233D01*
Y-137233D02*
G01X185850Y-136567D01*
Y-136567D02*
G01X186850Y-136400D01*
Y-136400D02*
G01X187850Y-136567D01*
Y-136567D02*
G01X188725Y-137233D01*
Y-137233D02*
G01X189475Y-138233D01*
Y-138233D02*
G01X189975Y-139400D01*
Y-139400D02*
G01X190225Y-140733D01*
Y-140733D02*
G01Y-142067D01*
Y-142067D02*
G01X189975Y-143400D01*
Y-143400D02*
G01X189475Y-144567D01*
Y-144567D02*
G01X188725Y-145567D01*
Y-145567D02*
G01X187850Y-146233D01*
Y-146233D02*
G01X186850Y-146400D01*
X194100Y-136400D02*
G01Y-143567D01*
Y-143567D02*
G01X194600Y-145067D01*
Y-145067D02*
G01X195600Y-146067D01*
Y-146067D02*
G01X196850Y-146400D01*
Y-146400D02*
G01X198100Y-146067D01*
Y-146067D02*
G01X199100Y-145067D01*
Y-145067D02*
G01X199600Y-143567D01*
Y-143567D02*
G01Y-136400D01*
X204350Y-146400D02*
G01Y-136400D01*
Y-136400D02*
G01X207475D01*
Y-136400D02*
G01X208475Y-136900D01*
Y-136900D02*
G01X209100Y-137567D01*
Y-137567D02*
G01X209350Y-138900D01*
Y-138900D02*
G01X209100Y-140233D01*
Y-140233D02*
G01X208350Y-141067D01*
Y-141067D02*
G01X207475Y-141567D01*
Y-141567D02*
G01X204350D01*
X207475D02*
G01X209350Y-146400D01*
X219600Y-137233D02*
G01X218850Y-136733D01*
Y-136733D02*
G01X217975Y-136400D01*
Y-136400D02*
G01X216975D01*
Y-136400D02*
G01X215850Y-136900D01*
Y-136900D02*
G01X214975Y-137733D01*
Y-137733D02*
G01X214350Y-138733D01*
Y-138733D02*
G01X213850Y-140400D01*
Y-140400D02*
G01X213725Y-141900D01*
Y-141900D02*
G01X213975Y-143400D01*
Y-143400D02*
G01X214350Y-144400D01*
Y-144400D02*
G01X215100Y-145400D01*
Y-145400D02*
G01X215975Y-146067D01*
Y-146067D02*
G01X216850Y-146400D01*
Y-146400D02*
G01X217725D01*
Y-146400D02*
G01X218600Y-146067D01*
Y-146067D02*
G01X219350Y-145567D01*
Y-145567D02*
G01X219975Y-144900D01*
X229350Y-146400D02*
G01X224350D01*
Y-146400D02*
G01Y-136400D01*
Y-136400D02*
G01X229350D01*
X227350Y-141233D02*
G01X224350D01*
X249600Y-137233D02*
G01X248850Y-136733D01*
Y-136733D02*
G01X247975Y-136400D01*
Y-136400D02*
G01X246975D01*
Y-136400D02*
G01X245850Y-136900D01*
Y-136900D02*
G01X244975Y-137733D01*
Y-137733D02*
G01X244350Y-138733D01*
Y-138733D02*
G01X243850Y-140400D01*
Y-140400D02*
G01X243725Y-141900D01*
Y-141900D02*
G01X243975Y-143400D01*
Y-143400D02*
G01X244350Y-144400D01*
Y-144400D02*
G01X245100Y-145400D01*
Y-145400D02*
G01X245975Y-146067D01*
Y-146067D02*
G01X246850Y-146400D01*
Y-146400D02*
G01X247725D01*
Y-146400D02*
G01X248600Y-146067D01*
Y-146067D02*
G01X249350Y-145567D01*
Y-145567D02*
G01X249975Y-144900D01*
X253725Y-146400D02*
G01X256850Y-136400D01*
Y-136400D02*
G01X259975Y-146400D01*
X258850Y-142900D02*
G01X254850D01*
X264350Y-146400D02*
G01Y-136400D01*
Y-136400D02*
G01X267475D01*
Y-136400D02*
G01X268475Y-136900D01*
Y-136900D02*
G01X269100Y-137567D01*
Y-137567D02*
G01X269350Y-138900D01*
Y-138900D02*
G01X269100Y-140233D01*
Y-140233D02*
G01X268350Y-141067D01*
Y-141067D02*
G01X267475Y-141567D01*
Y-141567D02*
G01X264350D01*
X267475D02*
G01X269350Y-146400D01*
X274100D02*
G01Y-136400D01*
Y-136400D02*
G01X276600D01*
Y-136400D02*
G01X277600Y-136900D01*
Y-136900D02*
G01X278350Y-137567D01*
Y-137567D02*
G01X278975Y-138567D01*
Y-138567D02*
G01X279475Y-139734D01*
Y-139734D02*
G01X279600Y-141400D01*
Y-141400D02*
G01X279475Y-143067D01*
Y-143067D02*
G01X278975Y-144233D01*
Y-144233D02*
G01X278350Y-145234D01*
Y-145234D02*
G01X277600Y-145900D01*
Y-145900D02*
G01X276600Y-146400D01*
Y-146400D02*
G01X274100D01*
X24475Y-164900D02*
G01Y-154900D01*
Y-154900D02*
G01X29225D01*
X27475Y-159733D02*
G01X24475D01*
X35350Y-154900D02*
G01X38350D01*
X36850D02*
G01Y-164900D01*
X35350D02*
G01X38350D01*
X44350Y-154900D02*
G01Y-164900D01*
Y-164900D02*
G01X49350D01*
X53600D02*
G01Y-154900D01*
Y-154900D02*
G01X56850Y-163233D01*
Y-163233D02*
G01X60100Y-154900D01*
Y-154900D02*
G01Y-164900D01*
X74350Y-154900D02*
G01Y-164900D01*
Y-164900D02*
G01X79350D01*
X83725D02*
G01X86850Y-154900D01*
Y-154900D02*
G01X89975Y-164900D01*
X88850Y-161400D02*
G01X84850D01*
X96850Y-164900D02*
G01Y-160400D01*
Y-160400D02*
G01X94350Y-154900D01*
X99350D02*
G01X96850Y-160400D01*
X109350Y-164900D02*
G01X104350D01*
Y-164900D02*
G01Y-154900D01*
Y-154900D02*
G01X109350D01*
X107350Y-159733D02*
G01X104350D01*
X114350Y-164900D02*
G01Y-154900D01*
Y-154900D02*
G01X117475D01*
Y-154900D02*
G01X118475Y-155400D01*
Y-155400D02*
G01X119100Y-156067D01*
Y-156067D02*
G01X119350Y-157400D01*
Y-157400D02*
G01X119100Y-158733D01*
Y-158733D02*
G01X118350Y-159567D01*
Y-159567D02*
G01X117475Y-160067D01*
Y-160067D02*
G01X114350D01*
X117475D02*
G01X119350Y-164900D01*
X126850Y-165233D02*
G01X126600Y-165067D01*
Y-165067D02*
G01Y-164733D01*
Y-164733D02*
G01X126850Y-164567D01*
Y-164567D02*
G01X127100Y-164733D01*
Y-164733D02*
G01Y-165067D01*
Y-165067D02*
G01X126850Y-165233D01*
Y-160734D02*
G01X126600Y-160567D01*
Y-160567D02*
G01Y-160233D01*
Y-160233D02*
G01X126850Y-160067D01*
Y-160067D02*
G01X127100Y-160233D01*
Y-160233D02*
G01Y-160567D01*
Y-160567D02*
G01X126850Y-160734D01*
X24100Y-126400D02*
G01Y-116400D01*
Y-116400D02*
G01X26600D01*
Y-116400D02*
G01X27600Y-116900D01*
Y-116900D02*
G01X28350Y-117567D01*
Y-117567D02*
G01X28975Y-118567D01*
Y-118567D02*
G01X29475Y-119734D01*
Y-119734D02*
G01X29600Y-121400D01*
Y-121400D02*
G01X29475Y-123067D01*
Y-123067D02*
G01X28975Y-124233D01*
Y-124233D02*
G01X28350Y-125234D01*
Y-125234D02*
G01X27600Y-125900D01*
Y-125900D02*
G01X26600Y-126400D01*
Y-126400D02*
G01X24100D01*
X39350D02*
G01X34350D01*
Y-126400D02*
G01Y-116400D01*
Y-116400D02*
G01X39350D01*
X37350Y-121233D02*
G01X34350D01*
X44225Y-125067D02*
G01X45225Y-125900D01*
Y-125900D02*
G01X46350Y-126400D01*
Y-126400D02*
G01X47350D01*
Y-126400D02*
G01X48350Y-125900D01*
Y-125900D02*
G01X49100Y-125067D01*
Y-125067D02*
G01X49475Y-123900D01*
Y-123900D02*
G01X49225Y-122734D01*
Y-122734D02*
G01X48600Y-121733D01*
Y-121733D02*
G01X47475Y-121067D01*
Y-121067D02*
G01X45975Y-120733D01*
Y-120733D02*
G01X45100Y-120067D01*
Y-120067D02*
G01X44725Y-118900D01*
Y-118900D02*
G01X44975Y-117733D01*
Y-117733D02*
G01X45600Y-116900D01*
Y-116900D02*
G01X46475Y-116400D01*
Y-116400D02*
G01X47350D01*
Y-116400D02*
G01X48225Y-116733D01*
Y-116733D02*
G01X48975Y-117567D01*
X55350Y-116400D02*
G01X58350D01*
X56850D02*
G01Y-126400D01*
X55350D02*
G01X58350D01*
X67600Y-121400D02*
G01X70100D01*
Y-121400D02*
G01Y-124400D01*
Y-124400D02*
G01X69350Y-125400D01*
Y-125400D02*
G01X68475Y-126067D01*
Y-126067D02*
G01X67225Y-126400D01*
Y-126400D02*
G01X65975Y-126067D01*
Y-126067D02*
G01X65100Y-125400D01*
Y-125400D02*
G01X64350Y-124400D01*
Y-124400D02*
G01X63850Y-123233D01*
Y-123233D02*
G01X63600Y-121900D01*
Y-121900D02*
G01Y-120733D01*
Y-120733D02*
G01X63850Y-119734D01*
Y-119734D02*
G01X64350Y-118567D01*
Y-118567D02*
G01X65100Y-117567D01*
Y-117567D02*
G01X65850Y-116900D01*
Y-116900D02*
G01X66850Y-116400D01*
Y-116400D02*
G01X67725D01*
Y-116400D02*
G01X68725Y-116733D01*
Y-116733D02*
G01X69475Y-117400D01*
X73975Y-126400D02*
G01Y-116400D01*
Y-116400D02*
G01X79725Y-126400D01*
Y-126400D02*
G01Y-116400D01*
X89350Y-126400D02*
G01X84350D01*
Y-126400D02*
G01Y-116400D01*
Y-116400D02*
G01X89350D01*
X87350Y-121233D02*
G01X84350D01*
X94100Y-126400D02*
G01Y-116400D01*
Y-116400D02*
G01X96600D01*
Y-116400D02*
G01X97600Y-116900D01*
Y-116900D02*
G01X98350Y-117567D01*
Y-117567D02*
G01X98975Y-118567D01*
Y-118567D02*
G01X99475Y-119734D01*
Y-119734D02*
G01X99600Y-121400D01*
Y-121400D02*
G01X99475Y-123067D01*
Y-123067D02*
G01X98975Y-124233D01*
Y-124233D02*
G01X98350Y-125234D01*
Y-125234D02*
G01X97600Y-125900D01*
Y-125900D02*
G01X96600Y-126400D01*
Y-126400D02*
G01X94100D01*
X113725D02*
G01X116850Y-116400D01*
Y-116400D02*
G01X119975Y-126400D01*
X118850Y-122900D02*
G01X114850D01*
X126850Y-116400D02*
G01Y-126400D01*
X123975Y-116400D02*
G01X129725D01*
X136850Y-126733D02*
G01X136600Y-126567D01*
Y-126567D02*
G01Y-126233D01*
Y-126233D02*
G01X136850Y-126067D01*
Y-126067D02*
G01X137100Y-126233D01*
Y-126233D02*
G01Y-126567D01*
Y-126567D02*
G01X136850Y-126733D01*
Y-122234D02*
G01X136600Y-122067D01*
Y-122067D02*
G01Y-121733D01*
Y-121733D02*
G01X136850Y-121567D01*
Y-121567D02*
G01X137100Y-121733D01*
Y-121733D02*
G01Y-122067D01*
Y-122067D02*
G01X136850Y-122234D01*
X24100Y-106400D02*
G01Y-96400D01*
Y-96400D02*
G01X26600D01*
Y-96400D02*
G01X27600Y-96900D01*
Y-96900D02*
G01X28350Y-97567D01*
Y-97567D02*
G01X28975Y-98567D01*
Y-98567D02*
G01X29475Y-99734D01*
Y-99734D02*
G01X29600Y-101400D01*
Y-101400D02*
G01X29475Y-103067D01*
Y-103067D02*
G01X28975Y-104233D01*
Y-104233D02*
G01X28350Y-105234D01*
Y-105234D02*
G01X27600Y-105900D01*
Y-105900D02*
G01X26600Y-106400D01*
Y-106400D02*
G01X24100D01*
X33725D02*
G01X36850Y-96400D01*
Y-96400D02*
G01X39975Y-106400D01*
X38850Y-102900D02*
G01X34850D01*
X46850Y-96400D02*
G01Y-106400D01*
X43975Y-96400D02*
G01X49725D01*
X59350Y-106400D02*
G01X54350D01*
Y-106400D02*
G01Y-96400D01*
Y-96400D02*
G01X59350D01*
X57350Y-101233D02*
G01X54350D01*
X66850Y-106733D02*
G01X66600Y-106567D01*
Y-106567D02*
G01Y-106233D01*
Y-106233D02*
G01X66850Y-106067D01*
Y-106067D02*
G01X67100Y-106233D01*
Y-106233D02*
G01Y-106567D01*
Y-106567D02*
G01X66850Y-106733D01*
Y-102234D02*
G01X66600Y-102067D01*
Y-102067D02*
G01Y-101733D01*
Y-101733D02*
G01X66850Y-101567D01*
Y-101567D02*
G01X67100Y-101733D01*
Y-101733D02*
G01Y-102067D01*
Y-102067D02*
G01X66850Y-102234D01*
X76850Y-96400D02*
G01X75850Y-96733D01*
Y-96733D02*
G01X75100Y-97567D01*
Y-97567D02*
G01X74600Y-98567D01*
Y-98567D02*
G01X74225Y-99900D01*
Y-99900D02*
G01X74100Y-101400D01*
Y-101400D02*
G01X74225Y-102900D01*
Y-102900D02*
G01X74600Y-104233D01*
Y-104233D02*
G01X75100Y-105234D01*
Y-105234D02*
G01X75850Y-106067D01*
Y-106067D02*
G01X76850Y-106400D01*
Y-106400D02*
G01X77850Y-106067D01*
Y-106067D02*
G01X78600Y-105234D01*
Y-105234D02*
G01X79100Y-104233D01*
Y-104233D02*
G01X79475Y-102900D01*
Y-102900D02*
G01X79600Y-101400D01*
Y-101400D02*
G01X79475Y-99900D01*
Y-99900D02*
G01X79100Y-98567D01*
Y-98567D02*
G01X78600Y-97567D01*
Y-97567D02*
G01X77850Y-96733D01*
Y-96733D02*
G01X76850Y-96400D01*
X86600Y-106400D02*
G01X86850Y-104233D01*
Y-104233D02*
G01X87225Y-102400D01*
Y-102400D02*
G01X87725Y-100733D01*
Y-100733D02*
G01X88350Y-98900D01*
Y-98900D02*
G01X89350Y-96400D01*
Y-96400D02*
G01X84350D01*
X95225Y-103067D02*
G01X98475D01*
X106850Y-106400D02*
G01Y-96400D01*
Y-96400D02*
G01X105350Y-98400D01*
Y-106400D02*
G01X108350D01*
X116600D02*
G01X116850Y-104233D01*
Y-104233D02*
G01X117225Y-102400D01*
Y-102400D02*
G01X117725Y-100733D01*
Y-100733D02*
G01X118350Y-98900D01*
Y-98900D02*
G01X119350Y-96400D01*
Y-96400D02*
G01X114350D01*
X125225Y-103067D02*
G01X128475D01*
X134475Y-98067D02*
G01X135225Y-97067D01*
Y-97067D02*
G01X136100Y-96567D01*
Y-96567D02*
G01X137100Y-96400D01*
Y-96400D02*
G01X138350Y-96733D01*
Y-96733D02*
G01X139225Y-97567D01*
Y-97567D02*
G01X139475Y-98567D01*
Y-98567D02*
G01X139350Y-99567D01*
Y-99567D02*
G01X138850Y-100400D01*
Y-100400D02*
G01X136350Y-102067D01*
Y-102067D02*
G01X135225Y-103233D01*
Y-103233D02*
G01X134475Y-104900D01*
Y-104900D02*
G01X134225Y-106400D01*
Y-106400D02*
G01X139475D01*
X146850Y-96400D02*
G01X145850Y-96733D01*
Y-96733D02*
G01X145100Y-97567D01*
Y-97567D02*
G01X144600Y-98567D01*
Y-98567D02*
G01X144225Y-99900D01*
Y-99900D02*
G01X144100Y-101400D01*
Y-101400D02*
G01X144225Y-102900D01*
Y-102900D02*
G01X144600Y-104233D01*
Y-104233D02*
G01X145100Y-105234D01*
Y-105234D02*
G01X145850Y-106067D01*
Y-106067D02*
G01X146850Y-106400D01*
Y-106400D02*
G01X147850Y-106067D01*
Y-106067D02*
G01X148600Y-105234D01*
Y-105234D02*
G01X149100Y-104233D01*
Y-104233D02*
G01X149475Y-102900D01*
Y-102900D02*
G01X149600Y-101400D01*
Y-101400D02*
G01X149475Y-99900D01*
Y-99900D02*
G01X149100Y-98567D01*
Y-98567D02*
G01X148600Y-97567D01*
Y-97567D02*
G01X147850Y-96733D01*
Y-96733D02*
G01X146850Y-96400D01*
X156850Y-106400D02*
G01Y-96400D01*
Y-96400D02*
G01X155350Y-98400D01*
Y-106400D02*
G01X158350D01*
X166850D02*
G01X167725Y-106233D01*
Y-106233D02*
G01X168725Y-105733D01*
Y-105733D02*
G01X169350Y-104900D01*
Y-104900D02*
G01X169600Y-103733D01*
Y-103733D02*
G01X169350Y-102567D01*
Y-102567D02*
G01X168600Y-101567D01*
Y-101567D02*
G01X167475Y-101067D01*
Y-101067D02*
G01X166225D01*
Y-101067D02*
G01X165475Y-100733D01*
Y-100733D02*
G01X164850Y-99900D01*
Y-99900D02*
G01X164600Y-98733D01*
Y-98733D02*
G01X164975Y-97567D01*
Y-97567D02*
G01X165850Y-96733D01*
Y-96733D02*
G01X166850Y-96400D01*
Y-96400D02*
G01X167850Y-96733D01*
Y-96733D02*
G01X168725Y-97567D01*
Y-97567D02*
G01X169100Y-98733D01*
Y-98733D02*
G01X168850Y-99900D01*
Y-99900D02*
G01X168225Y-100733D01*
Y-100733D02*
G01X167475Y-101067D01*
Y-101067D02*
G01X166225D01*
Y-101067D02*
G01X165100Y-101567D01*
Y-101567D02*
G01X164350Y-102567D01*
Y-102567D02*
G01X164100Y-103733D01*
Y-103733D02*
G01X164350Y-104900D01*
Y-104900D02*
G01X164975Y-105733D01*
Y-105733D02*
G01X165975Y-106233D01*
Y-106233D02*
G01X166850Y-106400D01*
X135725Y-163167D02*
G01X136725Y-164000D01*
Y-164000D02*
G01X137850Y-164500D01*
Y-164500D02*
G01X138850D01*
Y-164500D02*
G01X139850Y-164000D01*
Y-164000D02*
G01X140600Y-163167D01*
Y-163167D02*
G01X140975Y-162000D01*
Y-162000D02*
G01X140725Y-160834D01*
Y-160834D02*
G01X140100Y-159833D01*
Y-159833D02*
G01X138975Y-159167D01*
Y-159167D02*
G01X137475Y-158833D01*
Y-158833D02*
G01X136600Y-158167D01*
Y-158167D02*
G01X136225Y-157000D01*
Y-157000D02*
G01X136475Y-155833D01*
Y-155833D02*
G01X137100Y-155000D01*
Y-155000D02*
G01X137975Y-154500D01*
Y-154500D02*
G01X138850D01*
Y-154500D02*
G01X139725Y-154833D01*
Y-154833D02*
G01X140475Y-155667D01*
X148350Y-164500D02*
G01X147350Y-164333D01*
Y-164333D02*
G01X146475Y-163667D01*
Y-163667D02*
G01X145725Y-162667D01*
Y-162667D02*
G01X145225Y-161500D01*
Y-161500D02*
G01X144975Y-160167D01*
Y-160167D02*
G01Y-158833D01*
Y-158833D02*
G01X145225Y-157500D01*
Y-157500D02*
G01X145725Y-156333D01*
Y-156333D02*
G01X146475Y-155333D01*
Y-155333D02*
G01X147350Y-154667D01*
Y-154667D02*
G01X148350Y-154500D01*
Y-154500D02*
G01X149350Y-154667D01*
Y-154667D02*
G01X150225Y-155333D01*
Y-155333D02*
G01X150975Y-156333D01*
Y-156333D02*
G01X151475Y-157500D01*
Y-157500D02*
G01X151725Y-158833D01*
Y-158833D02*
G01Y-160167D01*
Y-160167D02*
G01X151475Y-161500D01*
Y-161500D02*
G01X150975Y-162667D01*
Y-162667D02*
G01X150225Y-163667D01*
Y-163667D02*
G01X149350Y-164333D01*
Y-164333D02*
G01X148350Y-164500D01*
X155850Y-154500D02*
G01Y-164500D01*
Y-164500D02*
G01X160850D01*
X165600D02*
G01Y-154500D01*
Y-154500D02*
G01X168100D01*
Y-154500D02*
G01X169100Y-155000D01*
Y-155000D02*
G01X169850Y-155667D01*
Y-155667D02*
G01X170475Y-156667D01*
Y-156667D02*
G01X170975Y-157834D01*
Y-157834D02*
G01X171100Y-159500D01*
Y-159500D02*
G01X170975Y-161167D01*
Y-161167D02*
G01X170475Y-162333D01*
Y-162333D02*
G01X169850Y-163334D01*
Y-163334D02*
G01X169100Y-164000D01*
Y-164000D02*
G01X168100Y-164500D01*
Y-164500D02*
G01X165600D01*
X180850D02*
G01X175850D01*
Y-164500D02*
G01Y-154500D01*
Y-154500D02*
G01X180850D01*
X178850Y-159333D02*
G01X175850D01*
X185850Y-164500D02*
G01Y-154500D01*
Y-154500D02*
G01X188975D01*
Y-154500D02*
G01X189975Y-155000D01*
Y-155000D02*
G01X190600Y-155667D01*
Y-155667D02*
G01X190850Y-157000D01*
Y-157000D02*
G01X190600Y-158333D01*
Y-158333D02*
G01X189850Y-159167D01*
Y-159167D02*
G01X188975Y-159667D01*
Y-159667D02*
G01X185850D01*
X188975D02*
G01X190850Y-164500D01*
X195100D02*
G01Y-154500D01*
Y-154500D02*
G01X198350Y-162833D01*
Y-162833D02*
G01X201600Y-154500D01*
Y-154500D02*
G01Y-164500D01*
X205225D02*
G01X208350Y-154500D01*
Y-154500D02*
G01X211475Y-164500D01*
X210350Y-161000D02*
G01X206350D01*
X215725Y-163167D02*
G01X216725Y-164000D01*
Y-164000D02*
G01X217850Y-164500D01*
Y-164500D02*
G01X218850D01*
Y-164500D02*
G01X219850Y-164000D01*
Y-164000D02*
G01X220600Y-163167D01*
Y-163167D02*
G01X220975Y-162000D01*
Y-162000D02*
G01X220725Y-160834D01*
Y-160834D02*
G01X220100Y-159833D01*
Y-159833D02*
G01X218975Y-159167D01*
Y-159167D02*
G01X217475Y-158833D01*
Y-158833D02*
G01X216600Y-158167D01*
Y-158167D02*
G01X216225Y-157000D01*
Y-157000D02*
G01X216475Y-155833D01*
Y-155833D02*
G01X217100Y-155000D01*
Y-155000D02*
G01X217975Y-154500D01*
Y-154500D02*
G01X218850D01*
Y-154500D02*
G01X219725Y-154833D01*
Y-154833D02*
G01X220475Y-155667D01*
X225600Y-164500D02*
G01Y-154500D01*
X230350D02*
G01X225600Y-160667D01*
X231100Y-164500D02*
G01X227725Y-157834D01*
X248350Y-154500D02*
G01Y-164500D01*
X245475Y-154500D02*
G01X251225D01*
X258350Y-164500D02*
G01X257350Y-164333D01*
Y-164333D02*
G01X256475Y-163667D01*
Y-163667D02*
G01X255725Y-162667D01*
Y-162667D02*
G01X255225Y-161500D01*
Y-161500D02*
G01X254975Y-160167D01*
Y-160167D02*
G01Y-158833D01*
Y-158833D02*
G01X255225Y-157500D01*
Y-157500D02*
G01X255725Y-156333D01*
Y-156333D02*
G01X256475Y-155333D01*
Y-155333D02*
G01X257350Y-154667D01*
Y-154667D02*
G01X258350Y-154500D01*
Y-154500D02*
G01X259350Y-154667D01*
Y-154667D02*
G01X260225Y-155333D01*
Y-155333D02*
G01X260975Y-156333D01*
Y-156333D02*
G01X261475Y-157500D01*
Y-157500D02*
G01X261725Y-158833D01*
Y-158833D02*
G01Y-160167D01*
Y-160167D02*
G01X261475Y-161500D01*
Y-161500D02*
G01X260975Y-162667D01*
Y-162667D02*
G01X260225Y-163667D01*
Y-163667D02*
G01X259350Y-164333D01*
Y-164333D02*
G01X258350Y-164500D01*
X265850D02*
G01Y-154500D01*
Y-154500D02*
G01X268850D01*
Y-154500D02*
G01X269850Y-155000D01*
Y-155000D02*
G01X270600Y-156167D01*
Y-156167D02*
G01X270850Y-157500D01*
Y-157500D02*
G01X270600Y-158833D01*
Y-158833D02*
G01X269975Y-159833D01*
Y-159833D02*
G01X268850Y-160334D01*
Y-160334D02*
G01X265850D01*
X219350Y-106400D02*
G01Y-96400D01*
Y-96400D02*
G01X222350D01*
Y-96400D02*
G01X223350Y-96900D01*
Y-96900D02*
G01X224100Y-98067D01*
Y-98067D02*
G01X224350Y-99400D01*
Y-99400D02*
G01X224100Y-100733D01*
Y-100733D02*
G01X223475Y-101733D01*
Y-101733D02*
G01X222350Y-102234D01*
Y-102234D02*
G01X219350D01*
X228725Y-106400D02*
G01X231850Y-96400D01*
Y-96400D02*
G01X234975Y-106400D01*
X233850Y-102900D02*
G01X229850D01*
X239350Y-106400D02*
G01Y-96400D01*
Y-96400D02*
G01X242475D01*
Y-96400D02*
G01X243475Y-96900D01*
Y-96900D02*
G01X244100Y-97567D01*
Y-97567D02*
G01X244350Y-98900D01*
Y-98900D02*
G01X244100Y-100233D01*
Y-100233D02*
G01X243350Y-101067D01*
Y-101067D02*
G01X242475Y-101567D01*
Y-101567D02*
G01X239350D01*
X242475D02*
G01X244350Y-106400D01*
X251850Y-96400D02*
G01Y-106400D01*
X248975Y-96400D02*
G01X254725D01*
X268975Y-106400D02*
G01Y-96400D01*
Y-96400D02*
G01X274725Y-106400D01*
Y-106400D02*
G01Y-96400D01*
X279100D02*
G01Y-103567D01*
Y-103567D02*
G01X279600Y-105067D01*
Y-105067D02*
G01X280600Y-106067D01*
Y-106067D02*
G01X281850Y-106400D01*
Y-106400D02*
G01X283100Y-106067D01*
Y-106067D02*
G01X284100Y-105067D01*
Y-105067D02*
G01X284600Y-103567D01*
Y-103567D02*
G01Y-96400D01*
X288600Y-106400D02*
G01Y-96400D01*
Y-96400D02*
G01X291850Y-104733D01*
Y-104733D02*
G01X295100Y-96400D01*
Y-96400D02*
G01Y-106400D01*
X302850Y-101067D02*
G01X303350Y-100567D01*
Y-100567D02*
G01X303725Y-99734D01*
Y-99734D02*
G01X303975Y-98567D01*
Y-98567D02*
G01X303725Y-97567D01*
Y-97567D02*
G01X303225Y-96900D01*
Y-96900D02*
G01X302350Y-96400D01*
Y-96400D02*
G01X298975D01*
Y-96400D02*
G01Y-106400D01*
Y-106400D02*
G01X303100D01*
Y-106400D02*
G01X303975Y-105733D01*
Y-105733D02*
G01X304475Y-104733D01*
Y-104733D02*
G01X304725Y-103567D01*
Y-103567D02*
G01X304475Y-102400D01*
Y-102400D02*
G01X303725Y-101400D01*
Y-101400D02*
G01X302850Y-101067D01*
Y-101067D02*
G01X298975D01*
X314350Y-106400D02*
G01X309350D01*
Y-106400D02*
G01Y-96400D01*
Y-96400D02*
G01X314350D01*
X312350Y-101233D02*
G01X309350D01*
X319350Y-106400D02*
G01Y-96400D01*
Y-96400D02*
G01X322475D01*
Y-96400D02*
G01X323475Y-96900D01*
Y-96900D02*
G01X324100Y-97567D01*
Y-97567D02*
G01X324350Y-98900D01*
Y-98900D02*
G01X324100Y-100233D01*
Y-100233D02*
G01X323350Y-101067D01*
Y-101067D02*
G01X322475Y-101567D01*
Y-101567D02*
G01X319350D01*
X322475D02*
G01X324350Y-106400D01*
X331850Y-106733D02*
G01X331600Y-106567D01*
Y-106567D02*
G01Y-106233D01*
Y-106233D02*
G01X331850Y-106067D01*
Y-106067D02*
G01X332100Y-106233D01*
Y-106233D02*
G01Y-106567D01*
Y-106567D02*
G01X331850Y-106733D01*
Y-102234D02*
G01X331600Y-102067D01*
Y-102067D02*
G01Y-101733D01*
Y-101733D02*
G01X331850Y-101567D01*
Y-101567D02*
G01X332100Y-101733D01*
Y-101733D02*
G01Y-102067D01*
Y-102067D02*
G01X331850Y-102234D01*
X516350Y-136150D02*
G01Y-146150D01*
Y-146150D02*
G01X521350D01*
X527350Y-136150D02*
G01X530350D01*
X528850D02*
G01Y-146150D01*
X527350D02*
G01X530350D01*
X536475D02*
G01Y-136150D01*
Y-136150D02*
G01X541225D01*
X539475Y-140983D02*
G01X536475D01*
X551350Y-146150D02*
G01X546350D01*
Y-146150D02*
G01Y-136150D01*
Y-136150D02*
G01X551350D01*
X549350Y-140983D02*
G01X546350D01*
X557225Y-142817D02*
G01X560475D01*
X568850Y-146150D02*
G01Y-136150D01*
Y-136150D02*
G01X567350Y-138150D01*
Y-146150D02*
G01X570350D01*
X0Y5000D02*
G01Y670110D01*
Y670110D02*
G01X5000Y675110D01*
Y675110D02*
G01X526657D01*
Y675110D02*
G01X531657Y670110D01*
Y670110D02*
G01Y565610D01*
Y565610D02*
G75*
G03X533657Y563610I2000D01*
Y563610D02*
G01X605551D01*
Y563610D02*
G01X610551Y558610D01*
Y558610D02*
G01Y5000D01*
Y5000D02*
G01X605551Y0D01*
Y0D02*
G01X5000D01*
Y0D02*
G01X0Y5000D01*
M02*
