G04 CAM350 V10.0.1 (Build 314) Date:  Tue Jul 17 14:43:05 2018 *
G04 Database: D:\LGR\2018\JULY\REL50470_POWER SOURCE BOARD\REL50470_FINAL.cam *
G04 Layer 11: SMSE *
%FSLAX25Y25*%
%MOIN*%
%SFA1.000B1.000*%

%MIA0B0*%
%IPPOS*%
%AMrect10x24xr2*
4,1,36,-0.00492,0.00984,-0.00488,0.01022,-0.00477,0.01059,-0.00459,0.01093,-0.00434,0.01123,-0.00404,0.01148,-0.00370,0.01166,-0.00333,0.01177,-0.00295,0.01181,0.00295,0.01181,0.00333,0.01177,0.00370,0.01166,0.00404,0.01148,0.00434,0.01123,0.00459,0.01093,0.00477,0.01059,0.00488,0.01022,0.00492,0.00984,0.00492,-0.00984,0.00488,-0.01022,0.00477,-0.01059,0.00459,-0.01093,0.00434,-0.01123,0.00404,-0.01148,0.00370,-0.01166,0.00333,-0.01177,0.00295,-0.01181,-0.00295,-0.01181,-0.00333,-0.01177,-0.00370,-0.01166,-0.00404,-0.01148,-0.00434,-0.01123,-0.00459,-0.01093,-0.00477,-0.01059,-0.00488,-0.01022,-0.00492,-0.00984,-0.00492,0.00984,0.00000*
%
%AMrect24x10xr2*
4,1,36,-0.01181,0.00295,-0.01177,0.00333,-0.01166,0.00370,-0.01148,0.00404,-0.01123,0.00434,-0.01093,0.00459,-0.01059,0.00477,-0.01022,0.00488,-0.00984,0.00492,0.00984,0.00492,0.01022,0.00488,0.01059,0.00477,0.01093,0.00459,0.01123,0.00434,0.01148,0.00404,0.01166,0.00370,0.01177,0.00333,0.01181,0.00295,0.01181,-0.00295,0.01177,-0.00333,0.01166,-0.00370,0.01148,-0.00404,0.01123,-0.00434,0.01093,-0.00459,0.01059,-0.00477,0.01022,-0.00488,0.00984,-0.00492,-0.00984,-0.00492,-0.01022,-0.00488,-0.01059,-0.00477,-0.01093,-0.00459,-0.01123,-0.00434,-0.01148,-0.00404,-0.01166,-0.00370,-0.01177,-0.00333,-0.01181,-0.00295,-0.01181,0.00295,0.00000*
%
%AMu444_452*
4,1,16,-0.08740,-0.08898,-0.08740,-0.06102,-0.06417,-0.06102,-0.06417,-0.03898,-0.08740,-0.03898,-0.08740,-0.01102,-0.06417,-0.01102,-0.06417,0.01102,-0.08740,0.01102,-0.08740,0.03898,-0.06417,0.03898,-0.06417,0.06102,-0.08740,0.06102,-0.08740,0.08898,0.08740,0.08898,0.08740,-0.08898,-0.08740,-0.08898,0.00000*
%
%AMu381_391p4r115_120*
4,1,8,-0.04882,-0.08199,-0.08898,-0.08199,-0.08898,-0.05797,-0.06102,-0.05797,-0.06102,0.08199,0.08898,0.08199,0.08898,-0.07195,-0.04882,-0.07195,-0.04882,-0.08199,0.00000*
%
%AMu258_484_r*
4,1,14,0.05069,-0.05039,0.03120,-0.05039,0.03120,-0.09528,0.00167,-0.09528,0.00167,-0.07323,-0.02116,-0.07323,-0.02116,-0.09528,-0.05069,-0.09528,-0.05069,0.09528,0.05069,0.09528,0.05069,0.04016,0.03120,0.04016,0.03120,0.00472,0.05069,0.00472,0.05069,-0.05039,0.00000*
%
%AMu258_484_r+1*
4,1,14,0.05039,0.05069,0.05039,0.03120,0.09528,0.03120,0.09528,0.00167,0.07323,0.00167,0.07323,-0.02116,0.09528,-0.02116,0.09528,-0.05069,-0.09528,-0.05069,-0.09528,0.05069,-0.04016,0.05069,-0.04016,0.03120,-0.00472,0.03120,-0.00472,0.05069,0.05039,0.05069,0.00000*
%
%AMu258_484_l*
4,1,14,0.05039,-0.05069,-0.00472,-0.05069,-0.00472,-0.03120,-0.04016,-0.03120,-0.04016,-0.05069,-0.09528,-0.05069,-0.09528,0.05069,0.09528,0.05069,0.09528,0.02116,0.07323,0.02116,0.07323,-0.00167,0.09528,-0.00167,0.09528,-0.03120,0.05039,-0.03120,0.05039,-0.05069,0.00000*
%
%AMu258_484_r+2*
4,1,14,-0.05039,-0.05069,-0.05039,-0.03120,-0.09528,-0.03120,-0.09528,-0.00167,-0.07323,-0.00167,-0.07323,0.02116,-0.09528,0.02116,-0.09528,0.05069,0.09528,0.05069,0.09528,-0.05069,0.04016,-0.05069,0.04016,-0.03120,0.00472,-0.03120,0.00472,-0.05069,-0.05039,-0.05069,0.00000*
%
%AMu258_484_l+1*
4,1,14,-0.05039,0.05069,0.00472,0.05069,0.00472,0.03120,0.04016,0.03120,0.04016,0.05069,0.09528,0.05069,0.09528,-0.05069,-0.09528,-0.05069,-0.09528,-0.02116,-0.07323,-0.02116,-0.07323,0.00167,-0.09528,0.00167,-0.09528,0.03120,-0.05039,0.03120,-0.05039,0.05069,0.00000*
%
%AMu250_265np*
4,1,20,-0.05216,0.04921,0.05216,0.04921,0.05216,-0.03740,0.04626,-0.03740,0.04626,-0.04921,0.03051,-0.04921,0.03051,-0.03740,0.02067,-0.03740,0.02067,-0.04921,0.00492,-0.04921,0.00492,-0.03740,-0.00492,-0.03740,-0.00492,-0.04921,-0.02067,-0.04921,-0.02067,-0.03740,-0.03051,-0.03740,-0.03051,-0.04921,-0.04626,-0.04921,-0.04626,-0.03740,-0.05216,-0.03740,-0.05216,0.04921,0.00000*
%
%AMu381_391p4r115_120+1*
4,1,8,0.08199,-0.04882,0.08199,-0.08898,0.05797,-0.08898,0.05797,-0.06102,-0.08199,-0.06102,-0.08199,0.08898,0.07195,0.08898,0.07195,-0.04882,0.08199,-0.04882,0.00000*
%
%AMu381_391p4r115_120+2*
4,1,8,-0.08199,0.04882,-0.08199,0.08898,-0.05797,0.08898,-0.05797,0.06102,0.08199,0.06102,0.08199,-0.08898,-0.07195,-0.08898,-0.07195,0.04882,-0.08199,0.04882,0.00000*
%
%AMu500_203p0*
4,1,8,0.09843,0.04006,0.09843,-0.04006,-0.09842,-0.04006,-0.09842,-0.01250,-0.07874,-0.01250,-0.07874,0.01250,-0.09842,0.01250,-0.09842,0.04006,0.09843,0.04006,0.00000*
%
%AMu381_391p4r115_120+3*
4,1,8,0.04882,0.08199,0.08898,0.08199,0.08898,0.05797,0.06102,0.05797,0.06102,-0.08199,-0.08898,-0.08199,-0.08898,0.07195,0.04882,0.07195,0.04882,0.08199,0.00000*
%
%AMu250_265np+1*
4,1,20,0.05217,-0.04921,-0.05216,-0.04921,-0.05216,0.03740,-0.04626,0.03740,-0.04626,0.04921,-0.03051,0.04921,-0.03051,0.03740,-0.02067,0.03740,-0.02067,0.04921,-0.00492,0.04921,-0.00492,0.03740,0.00492,0.03740,0.00492,0.04921,0.02067,0.04921,0.02067,0.03740,0.03051,0.03740,0.03051,0.04921,0.04626,0.04921,0.04626,0.03740,0.05217,0.03740,0.05217,-0.04921,0.00000*
%
%AMu455_441p4s150*
4,1,6,0.08681,0.08957,0.08681,-0.08957,-0.08681,-0.08957,-0.08681,0.05807,0.06319,0.05807,0.06319,0.08957,0.08681,0.08957,0.00000*
%
%AMu455_441p4s150+1*
4,1,6,0.08957,-0.08681,-0.08957,-0.08681,-0.08957,0.08681,0.05807,0.08681,0.05807,-0.06319,0.08957,-0.06319,0.08957,-0.08681,0.00000*
%
%AMu455_441p4s150+2*
4,1,6,-0.08957,0.08681,0.08957,0.08681,0.08957,-0.08681,-0.05807,-0.08681,-0.05807,0.06319,-0.08957,0.06319,-0.08957,0.08681,0.00000*
%
%AMu444_452+1*
4,1,16,0.08740,0.08898,0.08740,0.06102,0.06417,0.06102,0.06417,0.03898,0.08740,0.03898,0.08740,0.01102,0.06417,0.01102,0.06417,-0.01102,0.08740,-0.01102,0.08740,-0.03898,0.06417,-0.03898,0.06417,-0.06102,0.08740,-0.06102,0.08740,-0.08898,-0.08740,-0.08898,-0.08740,0.08898,0.08740,0.08898,0.00000*
%
%AMu258_484_l+2*
4,1,14,-0.05069,-0.05039,-0.05069,0.00472,-0.03120,0.00472,-0.03120,0.04016,-0.05069,0.04016,-0.05069,0.09528,0.05069,0.09528,0.05069,-0.09528,0.02116,-0.09528,0.02116,-0.07323,-0.00167,-0.07323,-0.00167,-0.09528,-0.03120,-0.09528,-0.03120,-0.05039,-0.05069,-0.05039,0.00000*
%
%AMrect35x15xr7x23*
4,1,35,-0.01771,0.00000,-0.01768,0.00073,-0.01757,0.00146,-0.01739,0.00217,-0.01715,0.00286,-0.01683,0.00353,-0.01645,0.00416,-0.01602,0.00475,-0.01552,0.00529,-0.01498,0.00578,-0.01439,0.00622,-0.01376,0.00660,-0.01310,0.00691,-0.01241,0.00716,-0.01169,0.00734,-0.01097,0.00744,-0.01023,0.00748,0.01771,0.00748,0.01771,-0.00748,-0.01023,-0.00748,-0.01097,-0.00744,-0.01169,-0.00734,-0.01241,-0.00716,-0.01310,-0.00691,-0.01376,-0.00660,-0.01439,-0.00622,-0.01498,-0.00578,-0.01552,-0.00529,-0.01602,-0.00475,-0.01645,-0.00416,-0.01683,-0.00353,-0.01715,-0.00286,-0.01739,-0.00217,-0.01757,-0.00146,-0.01768,-0.00073,-0.01771,0.00000,0.00000*
%
%AMrect15x35xr7x34*
4,1,35,-0.00748,0.01771,0.00748,0.01771,0.00748,-0.01023,0.00744,-0.01097,0.00734,-0.01169,0.00716,-0.01241,0.00691,-0.01310,0.00660,-0.01376,0.00622,-0.01439,0.00578,-0.01498,0.00529,-0.01552,0.00475,-0.01602,0.00416,-0.01645,0.00353,-0.01683,0.00286,-0.01715,0.00217,-0.01739,0.00146,-0.01757,0.00073,-0.01768,0.00000,-0.01771,-0.00073,-0.01768,-0.00146,-0.01757,-0.00217,-0.01739,-0.00286,-0.01715,-0.00353,-0.01683,-0.00416,-0.01645,-0.00475,-0.01602,-0.00529,-0.01552,-0.00578,-0.01498,-0.00622,-0.01439,-0.00660,-0.01376,-0.00691,-0.01310,-0.00716,-0.01241,-0.00734,-0.01169,-0.00744,-0.01097,-0.00748,-0.01023,-0.00748,0.01771,0.00000*
%
%AMrect35x15xr7x14*
4,1,35,-0.01771,0.00748,0.01023,0.00748,0.01097,0.00744,0.01169,0.00734,0.01241,0.00716,0.01310,0.00691,0.01376,0.00660,0.01439,0.00622,0.01498,0.00578,0.01552,0.00529,0.01602,0.00475,0.01645,0.00416,0.01683,0.00353,0.01715,0.00286,0.01739,0.00217,0.01757,0.00146,0.01768,0.00073,0.01771,0.00000,0.01768,-0.00073,0.01757,-0.00146,0.01739,-0.00217,0.01715,-0.00286,0.01683,-0.00353,0.01645,-0.00416,0.01602,-0.00475,0.01552,-0.00529,0.01498,-0.00578,0.01439,-0.00622,0.01376,-0.00660,0.01310,-0.00691,0.01241,-0.00716,0.01169,-0.00734,0.01097,-0.00744,0.01023,-0.00748,-0.01771,-0.00748,-0.01771,0.00748,0.00000*
%
%AMrect15x35xr7x12*
4,1,35,-0.00748,0.01023,-0.00744,0.01097,-0.00734,0.01169,-0.00716,0.01241,-0.00691,0.01310,-0.00660,0.01376,-0.00622,0.01439,-0.00578,0.01498,-0.00529,0.01552,-0.00475,0.01602,-0.00416,0.01645,-0.00353,0.01683,-0.00286,0.01715,-0.00217,0.01739,-0.00146,0.01757,-0.00073,0.01768,0.00000,0.01771,0.00073,0.01768,0.00146,0.01757,0.00217,0.01739,0.00286,0.01715,0.00353,0.01683,0.00416,0.01645,0.00475,0.01602,0.00529,0.01552,0.00578,0.01498,0.00622,0.01439,0.00660,0.01376,0.00691,0.01310,0.00716,0.01241,0.00734,0.01169,0.00744,0.01097,0.00748,0.01023,0.00748,-0.01771,-0.00748,-0.01771,-0.00748,0.01023,0.00000*
%
%AMu354_179m340_165c5_np*
4,1,116,-0.04724,-0.00492,-0.04724,0.00492,-0.06496,0.00492,-0.06535,0.00496,-0.06571,0.00507,-0.06605,0.00525,-0.06635,0.00550,-0.06660,0.00580,-0.06678,0.00614,-0.06689,0.00651,-0.06693,0.00689,-0.06693,0.01280,-0.06689,0.01318,-0.06678,0.01355,-0.06660,0.01389,-0.06635,0.01419,-0.06605,0.01443,-0.06571,0.01461,-0.06535,0.01473,-0.06496,0.01476,-0.04724,0.01476,-0.04724,0.03051,-0.04721,0.03090,-0.04709,0.03127,-0.04691,0.03161,-0.04667,0.03190,-0.04637,0.03215,-0.04603,0.03233,-0.04566,0.03244,-0.04528,0.03248,0.04528,0.03248,0.04566,0.03244,0.04603,0.03233,0.04637,0.03215,0.04667,0.03190,0.04691,0.03161,0.04709,0.03127,0.04721,0.03090,0.04724,0.03051,0.04724,0.01476,0.06496,0.01476,0.06535,0.01473,0.06571,0.01461,0.06605,0.01443,0.06635,0.01419,0.06660,0.01389,0.06678,0.01355,0.06689,0.01318,0.06693,0.01280,0.06693,0.00689,0.06689,0.00651,0.06678,0.00614,0.06660,0.00580,0.06635,0.00550,0.06605,0.00525,0.06571,0.00507,0.06535,0.00496,0.06496,0.00492,0.04724,0.00492,0.04724,-0.00492,0.06496,-0.00492,0.06535,-0.00496,0.06571,-0.00507,0.06605,-0.00525,0.06635,-0.00550,0.06660,-0.00580,0.06678,-0.00614,0.06689,-0.00651,0.06693,-0.00689,0.06693,-0.01279,0.06689,-0.01318,0.06678,-0.01355,0.06660,-0.01389,0.06635,-0.01419,0.06605,-0.01443,0.06571,-0.01461,0.06535,-0.01473,0.06496,-0.01476,0.04724,-0.01476,0.04724,-0.03051,0.04721,-0.03090,0.04709,-0.03127,0.04691,-0.03161,0.04667,-0.03190,0.04637,-0.03215,0.04603,-0.03233,0.04566,-0.03244,0.04528,-0.03248,-0.04528,-0.03248,-0.04566,-0.03244,-0.04603,-0.03233,-0.04637,-0.03215,-0.04667,-0.03190,-0.04691,-0.03161,-0.04709,-0.03127,-0.04721,-0.03090,-0.04724,-0.03051,-0.04724,-0.01476,-0.06496,-0.01476,-0.06535,-0.01473,-0.06571,-0.01461,-0.06605,-0.01443,-0.06635,-0.01419,-0.06660,-0.01389,-0.06678,-0.01355,-0.06689,-0.01318,-0.06693,-0.01279,-0.06693,-0.00689,-0.06689,-0.00651,-0.06678,-0.00614,-0.06660,-0.00580,-0.06635,-0.00550,-0.06605,-0.00525,-0.06571,-0.00507,-0.06535,-0.00496,-0.06496,-0.00492,-0.04724,-0.00492,0.00000*
%
%AMu354_179m340_165c5_np+2*
4,1,116,-0.00492,0.04724,0.00492,0.04724,0.00492,0.06496,0.00496,0.06535,0.00507,0.06571,0.00525,0.06605,0.00550,0.06635,0.00580,0.06660,0.00614,0.06678,0.00651,0.06689,0.00689,0.06693,0.01279,0.06693,0.01318,0.06689,0.01355,0.06678,0.01389,0.06660,0.01419,0.06635,0.01443,0.06605,0.01461,0.06571,0.01473,0.06535,0.01476,0.06496,0.01476,0.04724,0.03051,0.04724,0.03090,0.04721,0.03127,0.04709,0.03161,0.04691,0.03190,0.04667,0.03215,0.04637,0.03233,0.04603,0.03244,0.04566,0.03248,0.04528,0.03248,-0.04528,0.03244,-0.04566,0.03233,-0.04603,0.03215,-0.04637,0.03190,-0.04667,0.03161,-0.04691,0.03127,-0.04709,0.03090,-0.04721,0.03051,-0.04724,0.01476,-0.04724,0.01476,-0.06496,0.01473,-0.06534,0.01461,-0.06571,0.01443,-0.06605,0.01419,-0.06635,0.01389,-0.06660,0.01355,-0.06678,0.01318,-0.06689,0.01279,-0.06693,0.00689,-0.06693,0.00651,-0.06689,0.00614,-0.06678,0.00580,-0.06660,0.00550,-0.06635,0.00525,-0.06605,0.00507,-0.06571,0.00496,-0.06534,0.00492,-0.06496,0.00492,-0.04724,-0.00492,-0.04724,-0.00492,-0.06496,-0.00496,-0.06534,-0.00507,-0.06571,-0.00525,-0.06605,-0.00550,-0.06635,-0.00580,-0.06660,-0.00614,-0.06678,-0.00651,-0.06689,-0.00689,-0.06693,-0.01279,-0.06693,-0.01318,-0.06689,-0.01355,-0.06678,-0.01389,-0.06660,-0.01419,-0.06635,-0.01443,-0.06605,-0.01461,-0.06571,-0.01473,-0.06534,-0.01476,-0.06496,-0.01476,-0.04724,-0.03051,-0.04724,-0.03090,-0.04721,-0.03127,-0.04709,-0.03161,-0.04691,-0.03190,-0.04667,-0.03215,-0.04637,-0.03233,-0.04603,-0.03244,-0.04566,-0.03248,-0.04528,-0.03248,0.04528,-0.03244,0.04566,-0.03233,0.04603,-0.03215,0.04637,-0.03190,0.04667,-0.03161,0.04691,-0.03127,0.04709,-0.03090,0.04721,-0.03051,0.04724,-0.01476,0.04724,-0.01476,0.06496,-0.01473,0.06535,-0.01461,0.06571,-0.01443,0.06605,-0.01419,0.06635,-0.01389,0.06660,-0.01355,0.06678,-0.01318,0.06689,-0.01279,0.06693,-0.00689,0.06693,-0.00651,0.06689,-0.00614,0.06678,-0.00580,0.06660,-0.00550,0.06635,-0.00525,0.06605,-0.00507,0.06571,-0.00496,0.06535,-0.00492,0.06496,-0.00492,0.04724,0.00000*
%
%ADD10C,0.00600*%
%ADD12C,0.01000*%
%ADD18R,0.04528X0.04331*%
%ADD19R,0.02400X0.03000*%
%ADD70R,0.03000X0.02400*%
%ADD20R,0.07600X0.08000*%
%ADD21R,0.05100X0.05900*%
%ADD22R,0.05500X0.07500*%
%ADD72R,0.02800X0.04300*%
%ADD73R,0.05900X0.05100*%
%ADD30R,0.11000X0.05500*%
%ADD31rect10x24xr2*%
%ADD33R,0.03543X0.02756*%
%ADD35R,0.05500X0.11000*%
%ADD36R,0.05900X0.13800*%
%ADD38R,0.07500X0.05500*%
%ADD39R,0.02000X0.08700*%
%ADD40R,0.22047X0.09055*%
%ADD41R,0.04016X0.12520*%
%ADD42rect24x10xr2*%
%ADD47R,0.04300X0.02800*%
%ADD48R,0.13800X0.05900*%
%ADD51R,0.03543X0.03150*%
%ADD52R,0.08268X0.07087*%
%ADD54R,0.04331X0.04528*%
%ADD55R,0.17717X0.05118*%
%ADD57R,0.03150X0.03543*%
%ADD63R,0.08504X0.08898*%
%ADD64R,0.09449X0.12992*%
%ADD65R,0.12520X0.04016*%
%ADD66R,0.08898X0.08504*%
%ADD68R,0.02756X0.01575*%
%ADD74R,0.04488X0.19016*%
%ADD75R,0.19016X0.04488*%
%ADD77C,0.04000*%
%ADD78C,0.05512*%
%ADD79C,0.06378*%
%ADD80R,0.06378X0.06378*%
%ADD81C,0.02400*%
%ADD82C,0.29500*%
%ADD83C,0.02000*%
%ADD84C,0.05600*%
%ADD86C,0.11417*%
%ADD88C,0.05906*%
%ADD89C,0.05866*%
%ADD90R,0.05866X0.05866*%
%ADD93R,0.05512X0.05512*%
%ADD94R,0.02362X0.02362*%
%ADD95R,0.05906X0.05906*%
%ADD96R,0.02756X0.02362*%
%ADD97C,0.06700*%
%ADD99C,0.01800*%
%ADD102R,0.06700X0.06700*%
%ADD103O,0.05512X0.08268*%
%ADD104O,0.05512X0.09449*%
%ADD105C,0.08543*%
%ADD106C,0.07874*%
%ADD107C,0.12795*%
%ADD108C,0.08000*%
%ADD122R,0.02362X0.03150*%
%ADD123R,0.03150X0.02362*%
%ADD124R,0.03900X0.05500*%
%ADD125R,0.00984X0.02756*%
%ADD126R,0.10000X0.07992*%
%ADD127R,0.10630X0.14173*%
%ADD128R,0.04488X0.07992*%
%ADD129R,0.07992X0.04488*%
%ADD132R,0.03347X0.01968*%
%ADD135R,0.04134X0.01260*%
%ADD138R,0.02756X0.00984*%
%ADD139R,0.12795X0.19685*%
%ADD140R,0.14961X0.09055*%
%ADD141R,0.05709X0.08071*%
%ADD143u444_452*%
%ADD144R,0.02323X0.02795*%
%ADD145R,0.13779X0.09843*%
%ADD146R,0.07874X0.15748*%
%ADD147R,0.05709X0.01181*%
%ADD148R,0.01968X0.03347*%
%ADD149u381_391p4r115_120*%
%ADD150R,0.04016X0.02402*%
%ADD151R,0.00984X0.02658*%
%ADD152R,0.10630X0.12598*%
%ADD153R,0.01575X0.07008*%
%ADD154R,0.04000X0.10000*%
%ADD155R,0.01181X0.05709*%
%ADD156R,0.19685X0.12795*%
%ADD157R,0.00394X0.00394*%
%ADD158u258_484_r*%
%ADD159R,0.02953X0.03937*%
%ADD160u258_484_r+1*%
%ADD161R,0.03937X0.02953*%
%ADD162u258_484_l*%
%ADD163R,0.01200X0.02500*%
%ADD164R,0.02500X0.01200*%
%ADD165R,0.01181X0.05512*%
%ADD166R,0.14961X0.03937*%
%ADD167R,0.11004X0.02913*%
%ADD168R,0.03937X0.02756*%
%ADD169R,0.10000X0.04000*%
%ADD170R,0.03937X0.14961*%
%ADD171R,0.15748X0.07874*%
%ADD172u258_484_r+2*%
%ADD173u258_484_l+1*%
%ADD174u250_265np*%
%ADD175R,0.01575X0.01181*%
%ADD176R,0.12598X0.10630*%
%ADD177R,0.01575X0.01575*%
%ADD178R,0.09843X0.13779*%
%ADD179R,0.02756X0.04724*%
%ADD180R,0.04700X0.07100*%
%ADD181R,0.06299X0.07480*%
%ADD182u381_391p4r115_120+1*%
%ADD183R,0.02402X0.04016*%
%ADD184u381_391p4r115_120+2*%
%ADD185R,0.02835X0.01181*%
%ADD186R,0.04724X0.02559*%
%ADD187u500_203p0*%
%ADD188R,0.01968X0.02756*%
%ADD189R,0.01181X0.02835*%
%ADD190R,0.13779X0.13976*%
%ADD191u381_391p4r115_120+3*%
%ADD192R,0.07480X0.06299*%
%ADD193R,0.08465X0.08465*%
%ADD194R,0.02402X0.05000*%
%ADD195R,0.01968X0.03543*%
%ADD196R,0.02559X0.04724*%
%ADD197R,0.18504X0.17717*%
%ADD198R,0.02756X0.01968*%
%ADD199R,0.17717X0.18504*%
%ADD200u250_265np+1*%
%ADD201R,0.05512X0.14016*%
%ADD202R,0.10433X0.14370*%
%ADD203R,0.20276X0.12402*%
%ADD204R,0.05402X0.02795*%
%ADD205R,0.05000X0.02402*%
%ADD206R,0.16142X0.13779*%
%ADD207u455_441p4s150*%
%ADD208u455_441p4s150+1*%
%ADD209u455_441p4s150+2*%
%ADD210u444_452+1*%
%ADD211R,0.01575X0.02756*%
%ADD212u258_484_l+2*%
%ADD213R,0.02559X0.01968*%
%ADD214R,0.05000X0.08100*%
%ADD215R,0.08100X0.05000*%
%ADD216R,0.09646X0.09646*%
%ADD217R,0.14370X0.10433*%
%ADD218R,0.09370X0.06496*%
%ADD219R,0.10787X0.18701*%
%ADD220R,0.06496X0.06496*%
%ADD221R,0.01968X0.02559*%
%ADD224R,0.04331X0.05236*%
%ADD225R,0.01476X0.01476*%
%ADD226R,0.06693X0.01575*%
%ADD227R,0.01575X0.06693*%
%ADD228rect35x15xr7x23*%
%ADD229rect15x35xr7x34*%
%ADD230rect35x15xr7x14*%
%ADD231rect15x35xr7x12*%
%ADD232u354_179m340_165c5_np*%
%ADD233u354_179m340_165c5_np+2*%
%LNSMSE*%
%LPD*%
G36*
X333819Y31816D02*
G01Y33784D01*
X336181*
Y31816*
X333819*
G37*
G36*
X355079Y63981D02*
G01Y66343D01*
X357047*
Y63981*
X355079*
G37*
G36*
X415616Y61919D02*
G01Y64281D01*
X417584*
Y61919*
X415616*
G37*
G36*
X0Y5000D02*
G01Y670110D01*
X5000Y675110*
X526657*
X531657Y670110*
Y565448*
X531712Y565135*
X531814Y564834*
X531959Y564551*
X532145Y564294*
X532399Y564040*
X532727Y563837*
X533085Y563692*
X533463Y563610*
X605551*
X610551Y558610*
Y5000*
X605551Y0*
X567850*
Y16750*
X567800Y16800*
Y24100*
X567837Y25272*
X567948Y26439*
X568132Y27597*
X568388Y28741*
X568717Y29867*
X569115Y30969*
X569582Y32045*
X570116Y33089*
X570715Y34097*
X571376Y35065*
X572097Y35990*
X572874Y36868*
X573705Y37694*
X574587Y38467*
X575516Y39183*
X576488Y39839*
X577499Y40432*
X578546Y40960*
X579624Y41422*
X580728Y41814*
X581856Y42137*
X583001Y42387*
X584160Y42565*
X585328Y42669*
X586500Y42700*
X589800*
X590649Y42737*
X591491Y42847*
X592320Y43030*
X593131Y43283*
X593917Y43606*
X594671Y43996*
X595389Y44450*
X596065Y44964*
X596694Y45535*
X597272Y46158*
X597793Y46829*
X598254Y47542*
X598651Y48293*
X598982Y49075*
X599245Y49883*
X599436Y50711*
X599554Y51552*
X599600Y52400*
Y254100*
X599472Y254953*
X599271Y255793*
X598999Y256612*
X598657Y257404*
X598248Y258164*
X597776Y258886*
X597243Y259565*
X596653Y260195*
X596012Y260772*
X595323Y261292*
X594592Y261750*
X593824Y262144*
X593025Y262471*
X592201Y262727*
X591358Y262912*
X590502Y263023*
X589640Y263060*
X586350*
X585150Y263100*
X583954Y263218*
X582769Y263411*
X581599Y263680*
X580448Y264023*
X579321Y264440*
X578224Y264927*
X577160Y265484*
X576133Y266108*
X575149Y266797*
X574211Y267547*
X573323Y268355*
X572489Y269219*
X571711Y270134*
X570994Y271098*
X570340Y272105*
X569752Y273152*
X569232Y274235*
X568782Y275348*
X568405Y276489*
X568101Y277651*
X567873Y278830*
X567720Y280021*
X567644Y281219*
X567645Y282420*
X567723Y283619*
X567877Y284810*
X568108Y285989*
X568413Y287150*
X568792Y288290*
X569244Y289403*
X569766Y290485*
X570355Y291531*
X571011Y292537*
X571730Y293499*
X572509Y294413*
X573345Y295276*
X574234Y296083*
X575173Y296831*
X576159Y297518*
X577186Y298140*
X578251Y298696*
X579349Y299181*
X580476Y299596*
X581628Y299938*
X582799Y300205*
X583984Y300396*
X585180Y300512*
X586380Y300550*
X589990*
X590822Y300586*
X591648Y300693*
X592462Y300871*
X593257Y301119*
X594028Y301434*
X594769Y301814*
X595474Y302257*
X596139Y302759*
X596758Y303316*
X597327Y303925*
X597841Y304580*
X598297Y305277*
X598692Y306011*
X599021Y306776*
X599284Y307566*
X599477Y308376*
X599600Y309200*
Y510800*
X599562Y511680*
X599447Y512554*
X599256Y513414*
X598991Y514254*
X598654Y515068*
X598247Y515850*
X597773Y516593*
X597237Y517292*
X596642Y517942*
X595992Y518537*
X595293Y519073*
X594550Y519547*
X593768Y519954*
X592954Y520291*
X592114Y520556*
X591254Y520747*
X590380Y520862*
X589500Y520900*
X585500*
X584342Y520938*
X583190Y521051*
X582047Y521240*
X580919Y521503*
X579811Y521839*
X578727Y522247*
X577671Y522725*
X576650Y523271*
X575666Y523883*
X574725Y524558*
X573830Y525292*
X572984Y526084*
X572192Y526930*
X571458Y527825*
X570783Y528766*
X570171Y529750*
X569625Y530771*
X569147Y531827*
X568739Y532911*
X568403Y534019*
X568140Y535147*
X567951Y536290*
X567838Y537442*
X567800Y538600*
Y542800*
X567763Y543654*
X567651Y544502*
X567466Y545336*
X567209Y546152*
X566882Y546942*
X566487Y547700*
X566028Y548421*
X565507Y549099*
X564930Y549730*
X564299Y550307*
X563621Y550828*
X562900Y551287*
X562142Y551682*
X561352Y552009*
X560536Y552266*
X559702Y552451*
X558854Y552563*
X558000Y552600*
X530300*
X529450Y552679*
X528610Y552830*
X527785Y553051*
X526982Y553341*
X526206Y553697*
X525463Y554118*
X524758Y554600*
X524097Y555139*
X523483Y555733*
X522921Y556376*
X522416Y557064*
X521971Y557792*
X521588Y558556*
X521271Y559349*
X521023Y560165*
X520844Y561000*
X520736Y561847*
X520700Y562700*
Y654800*
X520591Y655681*
X520405Y656549*
X520143Y657397*
X519808Y658219*
X519402Y659008*
X518928Y659759*
X518390Y660465*
X517793Y661122*
X517140Y661723*
X516436Y662265*
X515688Y662742*
X514901Y663153*
X514081Y663492*
X513234Y663759*
X512367Y663950*
X511487Y664064*
X510600Y664100*
X20800*
X19957Y664064*
X19120Y663955*
X18295Y663774*
X17489Y663524*
X16707Y663205*
X15956Y662820*
X15241Y662371*
X14567Y661863*
X13939Y661299*
X13362Y660682*
X12841Y660019*
X12378Y659313*
X11978Y658570*
X11643Y657795*
X11376Y656994*
X11179Y656173*
X11053Y655338*
X11000Y654496*
Y568290*
X11039Y567408*
X11156Y566534*
X11350Y565673*
X11620Y564832*
X11963Y564019*
X12377Y563240*
X12858Y562500*
X13403Y561806*
X14008Y561162*
X14667Y560575*
X15375Y560049*
X16127Y559587*
X16918Y559194*
X17739Y558873*
X18587Y558625*
X19452Y558454*
X20330Y558360*
X24180*
X25381Y558321*
X26577Y558206*
X27763Y558014*
X28935Y557747*
X30087Y557405*
X31214Y556990*
X32313Y556504*
X33379Y555948*
X34406Y555325*
X35392Y554637*
X36331Y553888*
X37221Y553080*
X38057Y552217*
X38835Y551302*
X39554Y550339*
X40210Y549332*
X40799Y548285*
X41321Y547203*
X41772Y546089*
X42150Y544948*
X42455Y543786*
X42685Y542607*
X42838Y541415*
X42915Y540216*
Y539014*
X42838Y537815*
X42685Y536623*
X42455Y535444*
X42150Y534282*
X41772Y533141*
X41321Y532027*
X40799Y530945*
X40210Y529898*
X39554Y528891*
X38835Y527928*
X38057Y527013*
X37221Y526150*
X36331Y525342*
X35392Y524593*
X34406Y523905*
X33379Y523282*
X32313Y522726*
X31214Y522240*
X30087Y521825*
X28935Y521483*
X27763Y521216*
X26577Y521024*
X25381Y520909*
X24180Y520870*
X24170Y520860*
X20960*
X20099Y520823*
X19245Y520711*
X18403Y520526*
X17581Y520269*
X16783Y519942*
X16017Y519547*
X15288Y519088*
X14602Y518567*
X13963Y517989*
X13376Y517357*
X12847Y516678*
X12378Y515955*
X11973Y515194*
X11635Y514401*
X11367Y513582*
X11171Y512743*
X11049Y511890*
X11000Y511030*
Y310470*
X11036Y309624*
X11144Y308784*
X11323Y307957*
X11573Y307147*
X11890Y306362*
X12273Y305607*
X12719Y304887*
X13224Y304208*
X13786Y303575*
X14400Y302991*
X15061Y302462*
X15765Y301991*
X16506Y301582*
X17279Y301238*
X18080Y300961*
X18900Y300753*
X19736Y300616*
X20580Y300550*
X24160*
X25360Y300512*
X26555Y300396*
X27740Y300205*
X28910Y299938*
X30061Y299597*
X31188Y299183*
X32285Y298697*
X33350Y298143*
X34377Y297521*
X35362Y296835*
X36301Y296087*
X37190Y295281*
X38026Y294419*
X38805Y293506*
X39524Y292544*
X40180Y291539*
X40770Y290494*
X41292Y289413*
X41744Y288301*
X42123Y287162*
X42429Y286001*
X42660Y284823*
X42816Y283633*
X42894Y282435*
X42896Y281235*
X42821Y280037*
X42670Y278846*
X42443Y277667*
X42140Y276506*
X41764Y275366*
X41316Y274252*
X40797Y273169*
X40211Y272122*
X39558Y271115*
X38842Y270151*
X38066Y269235*
X37233Y268371*
X36346Y267562*
X35410Y266811*
X34427Y266122*
X33402Y265497*
X32339Y264939*
X31243Y264450*
X30118Y264032*
X28968Y263687*
X27799Y263416*
X26614Y263221*
X25420Y263102*
X24220Y263060*
X20920*
X20055Y263021*
X19196Y262906*
X18351Y262717*
X17526Y262455*
X16726Y262123*
X15958Y261722*
X15229Y261255*
X14542Y260727*
X13904Y260142*
X13320Y259503*
X12793Y258815*
X12328Y258084*
X11929Y257316*
X11598Y256516*
X11338Y255689*
X11151Y254844*
X11038Y253985*
X11000Y253120*
Y51451*
X11164Y50608*
X11397Y49781*
X11699Y48976*
X12067Y48200*
X12498Y47456*
X12990Y46752*
X13539Y46091*
X14142Y45478*
X14793Y44918*
X15489Y44414*
X16225Y43970*
X16995Y43589*
X17794Y43273*
X18617Y43025*
X19457Y42847*
X20310Y42740*
X23990*
X25167Y42703*
X26340Y42592*
X27503Y42408*
X28653Y42151*
X29784Y41822*
X30892Y41423*
X31973Y40956*
X33023Y40421*
X34037Y39821*
X35011Y39159*
X35942Y38437*
X36825Y37658*
X37658Y36825*
X38437Y35942*
X39159Y35011*
X39821Y34037*
X40421Y33023*
X40956Y31973*
X41423Y30892*
X41822Y29784*
X42151Y28653*
X42408Y27503*
X42592Y26340*
X42703Y25167*
X42740Y23990*
Y21040*
X42779Y20150*
X42897Y19268*
X43093Y18399*
X43364Y17551*
X43710Y16730*
X44126Y15943*
X44611Y15196*
X45160Y14495*
X45768Y13845*
X46432Y13251*
X47146Y12719*
X47903Y12251*
X48700Y11852*
X49528Y11526*
X50382Y11274*
X51255Y11098*
X52140Y11000*
X277310*
X278136Y11037*
X278955Y11148*
X279762Y11332*
X280548Y11587*
X281308Y11912*
X282037Y12304*
X282727Y12759*
X283374Y13274*
X283971Y13846*
X284516Y14468*
X285002Y15137*
X285426Y15847*
X285786Y16591*
X286077Y17365*
X286297Y18162*
X286445Y18976*
X286520Y19799*
Y24170*
X286559Y25371*
X286674Y26568*
X286866Y27754*
X287133Y28926*
X287475Y30078*
X287890Y31206*
X288377Y32305*
X288933Y33371*
X289556Y34399*
X290243Y35385*
X290993Y36324*
X291801Y37214*
X292664Y38050*
X293580Y38829*
X294543Y39548*
X295550Y40204*
X296597Y40794*
X297680Y41315*
X298794Y41766*
X299935Y42145*
X301098Y42450*
X302278Y42680*
X303470Y42833*
X304669Y42910*
X305871*
X307070Y42833*
X308262Y42680*
X309442Y42450*
X310605Y42145*
X311746Y41766*
X312860Y41315*
X313943Y40794*
X314990Y40204*
X315997Y39548*
X316960Y38829*
X317876Y38050*
X318739Y37214*
X319547Y36324*
X320297Y35385*
X320984Y34399*
X321607Y33371*
X322163Y32305*
X322650Y31206*
X323065Y30078*
X323407Y28926*
X323674Y27754*
X323866Y26568*
X323981Y25371*
X324020Y24170*
Y21000*
X324058Y20128*
X324171Y19263*
X324360Y18411*
X324621Y17578*
X324954Y16771*
X325355Y15996*
X325823Y15259*
X326352Y14565*
X326940Y13920*
X327581Y13328*
X328272Y12795*
X329006Y12323*
X329779Y11916*
X330583Y11579*
X331414Y11312*
X332265Y11119*
X333130Y11000*
X449800*
Y0*
X5000*
X0Y5000*
G37*
G54D122*
X412663Y63100D03*
G54D123*
X335000Y28863D03*
G54D122*
X352126Y65162D03*
G54D124*
X458000Y67850D03*
G54D70*
X447800Y62769D03*
G54D125*
X387547Y363149D03*
G54D35*
X402598Y485000D03*
Y498900D03*
G54D70*
X419600Y459169D03*
X413500D03*
G54D126*
X402896Y447822D03*
Y463570D03*
G54D127*
X390039Y498900D03*
G54D128*
X374695Y78662D03*
Y70670D03*
G54D129*
X77896Y155700D03*
X69904D03*
G54D128*
X240033Y77533D03*
Y69540D03*
X163935Y81706D03*
Y73713D03*
X46325Y65939D03*
Y57946D03*
G54D129*
X334733Y48899D03*
G54D128*
X434600Y70904D03*
Y78896D03*
G54D129*
X326740Y48899D03*
G54D128*
X284235Y45913D03*
Y53906D03*
X77300Y76004D03*
Y83996D03*
X119500Y76704D03*
Y84696D03*
G54D19*
X572931Y358400D03*
X226469Y402100D03*
G54D70*
X558500Y355869D03*
G54D226*
X581094Y82283D03*
G54D70*
X568300Y53969D03*
G54D227*
X563969Y63189D03*
X565937D03*
G54D124*
X461750Y59150D03*
G54D70*
X526400Y73031D03*
G54D19*
X524952Y103963D03*
G54D124*
X454250Y59150D03*
G54D70*
X447800Y58831D03*
X574800Y49531D03*
G54D19*
X349831Y95400D03*
G54D132*
X524392Y377700D03*
Y372700D03*
Y367700D03*
X515417Y366100D03*
Y371100D03*
Y376100D03*
G54D33*
X503760Y415000D03*
G54D73*
X523000Y423063D03*
G54D70*
X510500Y422531D03*
X516000D03*
G54D33*
X511240Y417559D03*
G54D19*
X358831Y95400D03*
X361131Y110800D03*
G54D57*
X518360Y522637D03*
G54D19*
X519231Y528700D03*
G54D70*
X512100Y522669D03*
G54D57*
X522100Y514763D03*
G54D19*
X531531Y514600D03*
G54D70*
X512100Y518731D03*
G54D228*
X91174Y383894D03*
G54D19*
X524631Y98300D03*
G54D54*
X69500Y399654D03*
X63000D03*
G54D229*
X81331Y399643D03*
X79363D03*
G54D38*
X68000Y392102D03*
G54D19*
X79431Y405100D03*
X370169Y87400D03*
G54D135*
X513025Y273006D03*
Y271037D03*
G54D226*
X581094Y92126D03*
G54D70*
X536500Y56469D03*
G54D227*
X546252Y63189D03*
X548220D03*
G54D230*
X75426Y383894D03*
G54D229*
X85268Y399643D03*
G54D228*
X91174Y389800D03*
G54D230*
X75426Y385863D03*
G54D231*
X85268Y379957D03*
G54D230*
X75426Y387831D03*
Y389800D03*
Y391768D03*
Y393737D03*
Y395706D03*
G54D231*
X83300Y379957D03*
G54D19*
X278613Y297352D03*
G54D70*
X287100Y254869D03*
G54D138*
X295285Y260612D03*
G54D139*
X260146Y266000D03*
G54D70*
X287100Y259831D03*
G54D140*
X276200Y272633D03*
G54D21*
X352537Y241500D03*
X389563Y276000D03*
X464563Y296000D03*
G54D141*
X471798Y401316D03*
G54D70*
X536500Y52531D03*
G54D19*
X167131Y360100D03*
G54D143*
X154634Y374000D03*
G54D144*
X147055Y381500D03*
Y376500D03*
Y371500D03*
G54D140*
X156600Y356933D03*
G54D138*
X295285Y262581D03*
G54D145*
X320700Y239105D03*
G54D70*
X287100Y263769D03*
G54D47*
X288000Y270547D03*
G54D70*
X287100Y250931D03*
G54D146*
X284600Y236176D03*
G54D140*
X276200Y251767D03*
G54D147*
X50893Y94132D03*
G54D70*
X25700Y94331D03*
G54D147*
X33570Y96100D03*
G54D70*
X25700Y98269D03*
G54D147*
X33570Y94132D03*
X50893Y96100D03*
G54D148*
X468000Y301583D03*
X473000D03*
X478000D03*
G54D149*
X433386Y242698D03*
G54D150*
X426496Y240700D03*
Y245700D03*
Y250700D03*
G54D125*
X408853Y224420D03*
G54D47*
X410000Y212953D03*
G54D146*
X440500Y290024D03*
G54D19*
X469469Y349500D03*
G54D147*
X460439Y339705D03*
G54D125*
X402947Y239380D03*
G54D70*
X397400Y246631D03*
G54D147*
X477761Y341674D03*
Y337736D03*
G54D148*
X463000Y301583D03*
G54D19*
X474231Y329800D03*
G54D147*
X477761Y335768D03*
X460439D03*
G54D19*
X465531Y349500D03*
G54D147*
X460439Y341674D03*
G54D51*
X378088Y314340D03*
G54D151*
X362784Y205839D03*
X364753Y216961D03*
G54D35*
X368602Y226100D03*
G54D70*
X506800Y387176D03*
G54D125*
X504969Y391998D03*
G54D138*
X397980Y358621D03*
G54D152*
X143464Y545640D03*
X163936D03*
G54D153*
X80714Y515550D03*
X50714D03*
X95714D03*
X65714D03*
G54D147*
X33570Y92163D03*
G54D154*
X52329Y61943D03*
X278231Y49909D03*
G54D38*
X267000Y47298D03*
G54D155*
X262663Y93430D03*
X266600Y76107D03*
X264632D03*
G54D19*
X270921Y101655D03*
G54D155*
X264632Y93430D03*
G54D19*
X274858Y101655D03*
G54D155*
X266600Y93430D03*
G54D125*
X427684Y148283D03*
G54D156*
X301000Y181646D03*
G54D157*
X264264Y167894D03*
G54D158*
X267856Y176555D03*
G54D159*
X254500Y191004D03*
G54D151*
X360816Y205839D03*
X362784Y216961D03*
X360816D03*
X358847D03*
G54D135*
X491175Y251352D03*
G54D139*
X543254Y196400D03*
G54D157*
X524106Y191364D03*
G54D160*
X515445Y194956D03*
G54D161*
X500996Y181600D03*
Y186600D03*
G54D135*
X491175Y257258D03*
G54D36*
X510108Y236400D03*
G54D135*
X491175Y263163D03*
G54D161*
X500996Y191600D03*
X501096Y215800D03*
G54D135*
X513025Y249384D03*
G54D161*
X500996Y196600D03*
G54D146*
X537100Y161376D03*
X573000D03*
G54D162*
X515445Y183244D03*
G54D157*
X524106Y186836D03*
G54D135*
X491175Y259226D03*
X513025Y251352D03*
G54D161*
X501096Y220800D03*
G54D70*
X521000Y242631D03*
G54D135*
X513025Y255289D03*
G54D139*
X587546Y196400D03*
G54D157*
X524206Y215564D03*
G54D160*
X515545Y219156D03*
G54D161*
X501096Y205800D03*
G54D135*
X513025Y259226D03*
G54D161*
X501096Y210800D03*
G54D41*
X505504Y604000D03*
G54D68*
X401400Y655822D03*
G54D163*
X32077Y467231D03*
X34077D03*
X36077D03*
G54D153*
X90714Y454450D03*
G54D163*
X32077Y457231D03*
X34077D03*
X36077D03*
G54D153*
X85714Y454450D03*
G54D163*
X32077Y490100D03*
X30077D03*
X28077D03*
G54D153*
X105714Y454450D03*
G54D163*
X32077Y480100D03*
X30077D03*
X28077D03*
G54D153*
X100714Y454450D03*
G54D164*
X73609Y438100D03*
Y436100D03*
Y434100D03*
G54D153*
X60714Y454450D03*
G54D164*
X63609Y438100D03*
Y436100D03*
Y434100D03*
G54D153*
X55714Y454450D03*
G54D164*
X91977Y438100D03*
Y440100D03*
Y442100D03*
G54D153*
X75714Y454450D03*
G54D164*
X81977Y438100D03*
Y440100D03*
Y442100D03*
G54D153*
X70714Y454450D03*
G54D70*
X45277Y447369D03*
X50600D03*
G54D153*
X50714Y454450D03*
X65714D03*
X209361Y452961D03*
X224361D03*
X80714Y454450D03*
X95714D03*
G54D39*
X229424Y555361D03*
Y534861D03*
G54D40*
X225140Y571944D03*
G54D153*
X219361Y514061D03*
G54D22*
X448151Y539711D03*
G54D39*
X433500Y551250D03*
X476500D03*
G54D38*
X412200Y552107D03*
G54D39*
X476500Y530750D03*
X433500D03*
X67777Y556850D03*
X110277Y536350D03*
X67777D03*
X110277Y556850D03*
G54D153*
X433450Y447082D03*
X478450D03*
X244361Y514061D03*
G54D227*
X552157Y63189D03*
G54D70*
X541821Y54431D03*
G54D227*
X550189Y63189D03*
G54D70*
X509500Y51031D03*
X541821Y50494D03*
X515500Y51031D03*
G54D153*
X105714Y515550D03*
G54D39*
X72777Y536350D03*
Y556850D03*
G54D40*
X67477Y573433D03*
G54D153*
X60714Y515550D03*
G54D164*
X241854Y438801D03*
Y440801D03*
Y442801D03*
G54D153*
X244361Y452961D03*
X448450Y447082D03*
X463450D03*
G54D164*
X251854Y438801D03*
Y440801D03*
Y442801D03*
G54D153*
X249361Y452961D03*
G54D164*
X463017Y430632D03*
Y428632D03*
Y432632D03*
G54D153*
X458450Y447082D03*
G54D164*
X269000Y439500D03*
Y437500D03*
Y435500D03*
G54D153*
X264361Y452961D03*
G54D164*
X453017Y428632D03*
Y432632D03*
Y430632D03*
G54D153*
X453450Y447082D03*
G54D164*
X259000Y435500D03*
Y437500D03*
Y439500D03*
G54D153*
X259361Y452961D03*
G54D164*
X479684Y436632D03*
Y434632D03*
Y432632D03*
G54D153*
X473450Y447082D03*
G54D163*
X215500Y444000D03*
X217500D03*
X219500D03*
G54D153*
X219361Y452961D03*
G54D164*
X469684Y432632D03*
Y436632D03*
Y434632D03*
G54D153*
X468450Y447082D03*
G54D163*
X215500Y434000D03*
X217500D03*
X219500D03*
G54D153*
X214361Y452961D03*
G54D164*
X495850Y430632D03*
Y432632D03*
Y428632D03*
G54D153*
X488450Y447082D03*
G54D164*
X235789Y438801D03*
Y440801D03*
Y442801D03*
G54D153*
X234361Y452961D03*
G54D164*
X485850Y428632D03*
Y432632D03*
Y430632D03*
G54D153*
X483450Y447082D03*
G54D164*
X225789Y438801D03*
Y440801D03*
Y442801D03*
G54D153*
X229361Y452961D03*
G54D164*
X446350Y432632D03*
Y434632D03*
Y436632D03*
G54D153*
X443450Y447082D03*
X239361Y452961D03*
X254361D03*
G54D68*
X225000Y656222D03*
X266900D03*
G54D164*
X436350Y432632D03*
Y436632D03*
Y434632D03*
G54D153*
X438450Y447082D03*
G54D39*
X219424Y555361D03*
X266924D03*
X219424Y534861D03*
G54D41*
X488513Y574000D03*
G54D68*
X442500Y655822D03*
G54D22*
X251356Y534111D03*
G54D39*
X266924Y534861D03*
G54D164*
X479684Y430632D03*
Y428632D03*
X469684D03*
Y430632D03*
X453017Y434632D03*
Y436632D03*
X463017D03*
Y434632D03*
X251854Y436801D03*
Y434801D03*
X241854D03*
Y436801D03*
X63609Y440100D03*
Y442100D03*
X73609D03*
Y440100D03*
G54D39*
X428500Y530750D03*
Y551250D03*
X481500D03*
Y530750D03*
X271924Y555361D03*
Y534861D03*
X115277Y556850D03*
Y536350D03*
X224424Y555361D03*
Y534861D03*
X62777Y536350D03*
Y556850D03*
G54D164*
X259000Y441500D03*
Y443500D03*
X269000D03*
Y441500D03*
X91977Y436100D03*
Y434100D03*
X81977D03*
Y436100D03*
G54D165*
X358042Y291307D03*
G54D70*
X530800Y56369D03*
G54D227*
X544283Y63189D03*
G54D22*
X419702Y74500D03*
G54D154*
X428596Y74900D03*
G54D155*
X394600Y79339D03*
G54D122*
X420537Y63100D03*
G54D147*
X460439Y343642D03*
G54D19*
X388631Y72000D03*
G54D155*
X390663Y79339D03*
G54D19*
X529469Y63800D03*
G54D226*
X537000Y70472D03*
G54D155*
X390663Y96661D03*
G54D70*
X422100Y140269D03*
G54D19*
X524952Y91963D03*
G54D125*
X423747Y148283D03*
G54D19*
X392569Y72000D03*
G54D155*
X392631Y79339D03*
G54D70*
X552221Y120131D03*
G54D226*
X537000Y72441D03*
Y74409D03*
Y76378D03*
G54D19*
X227069Y422600D03*
G54D70*
X566821Y119931D03*
G54D155*
X260695Y76107D03*
G54D147*
X50893Y90195D03*
G54D125*
X193147Y379849D03*
G54D70*
X190500Y391531D03*
G54D226*
X537000Y78346D03*
G54D155*
X258726Y76107D03*
G54D147*
X50893Y88226D03*
G54D125*
X191179Y379849D03*
G54D70*
X185500Y391531D03*
G54D155*
X93805Y133620D03*
G54D147*
X234873Y94105D03*
G54D70*
X566821Y115994D03*
G54D227*
X565937Y107283D03*
G54D147*
X172493Y98863D03*
G54D155*
X262663Y76107D03*
G54D147*
X50893Y92163D03*
G54D166*
X290900Y109676D03*
G54D22*
X349298Y79000D03*
G54D19*
X318569Y100600D03*
G54D38*
X325300Y120202D03*
G54D19*
X317169Y106400D03*
G54D167*
X492500Y86000D03*
G54D227*
X563969Y107283D03*
G54D226*
X581094Y90158D03*
Y72441D03*
G54D166*
X290900Y119124D03*
G54D168*
X306082Y120740D03*
G54D19*
X313231Y106400D03*
G54D168*
X316318Y113260D03*
G54D70*
X197000Y431869D03*
X580400Y49431D03*
G54D47*
X182600Y428153D03*
G54D226*
X581094Y76378D03*
G54D70*
X577900Y120669D03*
G54D147*
X85173Y100805D03*
X133873Y100005D03*
G54D226*
X581094Y74409D03*
G54D19*
X91969Y425000D03*
G54D38*
X71750Y142038D03*
G54D169*
X73900Y149696D03*
G54D155*
X93805Y150943D03*
G54D19*
X91969Y419500D03*
G54D22*
X304598Y52500D03*
G54D147*
X314019Y71795D03*
G54D169*
X330736Y42895D03*
G54D123*
X335000Y36737D03*
G54D147*
X296696Y73764D03*
G54D155*
X396569Y96661D03*
X339061Y88201D03*
X91836Y133620D03*
X398537Y96661D03*
X341030Y88201D03*
G54D147*
X296696Y75732D03*
G54D155*
X89868Y133620D03*
G54D226*
X581094Y70472D03*
G54D125*
X402947Y224420D03*
G54D70*
X397900Y215669D03*
G54D125*
X404916Y239380D03*
G54D70*
X402500Y246631D03*
X530800Y52431D03*
G54D22*
X316802Y52500D03*
G54D19*
X311531Y61600D03*
G54D227*
X544283Y107283D03*
G54D19*
X525531Y63800D03*
G54D147*
X477761Y339705D03*
X85173Y98836D03*
X133873Y98036D03*
G54D70*
X562800Y50031D03*
G54D147*
X234873Y92136D03*
X172493Y96895D03*
G54D125*
X400979Y239380D03*
G54D70*
X392300Y246631D03*
X572400Y120569D03*
G54D19*
X209931Y422900D03*
G54D138*
X194455Y443830D03*
G54D31*
X186628Y88367D03*
G54D147*
X85173Y96868D03*
X133873Y96068D03*
X234873Y90168D03*
X172493Y94926D03*
G54D70*
X546721Y116194D03*
G54D227*
X546252Y107283D03*
G54D19*
X116869Y281800D03*
G54D135*
X113125Y266174D03*
G54D42*
X150133Y125531D03*
G54D227*
X548220Y107283D03*
G54D72*
X75947Y260450D03*
X132453Y269500D03*
G54D135*
X113125Y252394D03*
G54D94*
X77100Y234369D03*
X130731Y243100D03*
G54D31*
X134769Y167133D03*
G54D19*
X126431Y262900D03*
G54D135*
X113125Y260269D03*
G54D47*
X443000Y141953D03*
G54D125*
X429653Y148283D03*
G54D227*
X550189Y107283D03*
G54D229*
X432801Y114015D03*
G54D70*
X428300Y120831D03*
X433900D03*
X562800Y53969D03*
G54D227*
X560031Y63189D03*
G54D170*
X175576Y236300D03*
G54D19*
X130369Y262900D03*
G54D171*
X147624Y268500D03*
G54D135*
X113125Y258300D03*
G54D70*
X79700Y248131D03*
G54D36*
X64718Y237800D03*
G54D171*
X89224Y189000D03*
G54D135*
X91275Y250426D03*
G54D162*
X89945Y214344D03*
G54D157*
X98606Y217936D03*
G54D19*
X130369Y275600D03*
G54D72*
X81853Y260450D03*
G54D135*
X91275Y264206D03*
G54D154*
X234029Y73536D03*
G54D22*
X225602Y76900D03*
G54D147*
X217550Y94105D03*
G54D19*
X69868Y275100D03*
X75131D03*
G54D227*
X562000Y63189D03*
G54D19*
X130769Y235700D03*
G54D135*
X113125Y248458D03*
G54D94*
X122069Y243100D03*
G54D70*
X141400Y134931D03*
G54D135*
X113125Y240584D03*
G54D161*
X75496Y227700D03*
G54D22*
X213398Y76900D03*
G54D228*
X446580Y104172D03*
Y102203D03*
G54D38*
X455300Y102302D03*
G54D125*
X501031Y403218D03*
G54D33*
X511240Y412441D03*
G54D19*
X112931Y281800D03*
G54D135*
X113125Y276016D03*
G54D229*
X440675Y114015D03*
G54D70*
X439500Y119031D03*
G54D135*
X113125Y264206D03*
G54D70*
X79700Y252069D03*
X74100D03*
G54D135*
X91275Y252394D03*
G54D72*
X90898Y282000D03*
G54D135*
X91275Y276016D03*
G54D19*
X126831Y235700D03*
G54D135*
X113125Y246489D03*
G54D156*
X41800Y177954D03*
G54D157*
X102394Y217936D03*
G54D172*
X111055Y214344D03*
G54D161*
X125504Y227700D03*
G54D229*
X442643Y114015D03*
G54D70*
X444500Y119031D03*
G54D19*
X79069Y275100D03*
G54D135*
X91275Y272079D03*
G54D19*
X389469Y207300D03*
X126431Y275600D03*
G54D135*
X113125Y270111D03*
G54D72*
X349194Y301223D03*
G54D165*
X350168Y291307D03*
G54D72*
X79353Y280600D03*
G54D135*
X91275Y274048D03*
G54D84*
X68200Y262900D03*
G54D135*
X91275Y266174D03*
G54D226*
X581094Y84252D03*
G54D229*
X430832Y114015D03*
G54D19*
X422969Y121000D03*
G54D84*
X69200Y269300D03*
G54D19*
X74631Y269100D03*
G54D135*
X91275Y268143D03*
G54D227*
X567906Y63189D03*
G54D135*
X113125Y242552D03*
G54D161*
X125504Y212700D03*
G54D227*
X567906Y107283D03*
G54D135*
X91275Y270111D03*
G54D227*
X571843Y107283D03*
G54D138*
X310246Y268486D03*
G54D19*
X316997Y265633D03*
G54D135*
X113125Y250426D03*
G54D161*
X125504Y222700D03*
G54D19*
X528889Y91963D03*
G54D226*
X537000Y92126D03*
G54D228*
X446580Y110078D03*
G54D70*
X452423Y109943D03*
G54D135*
X91275Y248458D03*
G54D161*
X75496Y217700D03*
G54D70*
X552221Y116194D03*
G54D227*
X552157Y107283D03*
G54D70*
X574800Y53469D03*
G54D227*
X569874Y63189D03*
G54D19*
X126131Y256300D03*
G54D135*
X113125Y256331D03*
G54D70*
X572400Y116631D03*
G54D227*
X569874Y107283D03*
G54D48*
X55900Y254292D03*
G54D135*
X91275Y254363D03*
G54D161*
X125504Y217700D03*
X75496Y222700D03*
G54D226*
X537000Y90158D03*
G54D72*
X126547Y269500D03*
G54D135*
X113125Y268143D03*
G54D70*
X577900Y116731D03*
G54D227*
X573811Y107283D03*
G54D230*
X426895Y106141D03*
G54D70*
X421500Y110531D03*
G54D19*
X416669Y110200D03*
G54D22*
X141298Y246000D03*
X141198Y226900D03*
X141298Y236400D03*
G54D19*
X130069Y256300D03*
G54D146*
X151600Y212976D03*
G54D135*
X113125Y254363D03*
G54D173*
X111055Y226056D03*
G54D157*
X102394Y222464D03*
G54D70*
X305900Y107069D03*
G54D168*
X306082Y113260D03*
G54D226*
X581094Y94094D03*
G54D230*
X426895Y110078D03*
G54D19*
X416596Y115229D03*
G54D70*
X421500Y114469D03*
G54D227*
X571843Y63189D03*
G54D70*
X83700Y242869D03*
G54D135*
X91275Y244521D03*
G54D94*
X77100Y243031D03*
G54D19*
X126631Y281400D03*
G54D135*
X113125Y274048D03*
Y272079D03*
G54D70*
X83700Y238931D03*
G54D135*
X91275Y242552D03*
G54D156*
X41800Y222246D03*
G54D157*
X98606Y222464D03*
G54D160*
X89945Y226056D03*
G54D161*
X75496Y212700D03*
G54D70*
X580400Y53369D03*
G54D227*
X573811Y63189D03*
G54D226*
X581094Y86221D03*
G54D147*
X296696Y71795D03*
G54D155*
X394600Y96661D03*
X337093Y88201D03*
X335124D03*
G54D70*
X69300Y426969D03*
G54D138*
X194455Y437924D03*
G54D155*
X333156Y88201D03*
G54D174*
X188500Y468531D03*
G54D175*
X184661Y464201D03*
X187221D03*
X189779D03*
G54D176*
X144740Y492764D03*
G54D52*
X172461Y471400D03*
G54D138*
X194455Y449735D03*
G54D70*
X69300Y418069D03*
G54D125*
X191896Y434381D03*
X187959D03*
G54D22*
X361502Y79000D03*
G54D154*
X368691Y74666D03*
G54D155*
X337093Y70878D03*
G54D122*
X360000Y65162D03*
G54D138*
X167684Y439893D03*
G54D155*
X333156Y70878D03*
G54D177*
X189779Y476602D03*
X187221D03*
X184661D03*
G54D125*
X189928Y453278D03*
G54D155*
X335124Y70878D03*
G54D177*
X192339Y476602D03*
G54D125*
X191896Y453278D03*
G54D178*
X473095Y119000D03*
G54D47*
X441400Y167453D03*
Y150847D03*
G54D38*
X451500Y163998D03*
Y151702D03*
X461700Y151802D03*
X462100Y164098D03*
G54D171*
X478224Y152700D03*
G54D138*
X434180Y154779D03*
Y156747D03*
Y160684D03*
Y162653D03*
G54D226*
X581094Y100000D03*
G54D138*
X194455Y447767D03*
G54D19*
X528889Y103963D03*
G54D226*
X537000Y100000D03*
G54D154*
X157931Y77709D03*
G54D147*
X155170Y98863D03*
G54D70*
X39806Y443431D03*
G54D19*
X141769Y470100D03*
G54D125*
X174180Y434381D03*
G54D138*
X167684Y441861D03*
Y443830D03*
Y445798D03*
G54D227*
X560031Y107283D03*
X562000D03*
G54D138*
X194455Y441861D03*
G54D226*
X537000Y98031D03*
G54D54*
X199900Y79154D03*
G54D31*
X192533Y77344D03*
X190565D03*
X188596D03*
G54D19*
X176380Y422241D03*
G54D47*
X182600Y422247D03*
G54D138*
X194455Y439893D03*
G54D19*
X137731Y464300D03*
G54D179*
X130700Y465016D03*
G54D19*
X223131Y428100D03*
Y422600D03*
G54D70*
X39806Y447369D03*
G54D19*
X137831Y470100D03*
X172443Y422241D03*
G54D70*
X69300Y414131D03*
Y423031D03*
G54D19*
X213869Y422900D03*
G54D72*
X137847Y476300D03*
G54D179*
X130700Y479584D03*
G54D138*
X167684Y437924D03*
Y447767D03*
G54D154*
X71296Y80000D03*
G54D38*
X60800Y73398D03*
G54D147*
X67850Y100805D03*
G54D18*
X140454Y112700D03*
G54D38*
X60800Y85602D03*
G54D42*
X139109Y119626D03*
Y121594D03*
Y123563D03*
G54D226*
X581094Y88189D03*
G54D125*
X195116Y379849D03*
G54D19*
X528889Y86663D03*
G54D226*
X537000Y86221D03*
G54D155*
X392631Y96661D03*
G54D226*
X537000Y94094D03*
G54D19*
X524952Y86663D03*
G54D180*
X518121Y95963D03*
G54D228*
X91174Y393737D03*
G54D70*
X103500Y393031D03*
G54D19*
X528569Y98300D03*
G54D226*
X537000Y96063D03*
G54D154*
X113496Y80700D03*
G54D38*
X98500Y80598D03*
G54D147*
X116550Y100005D03*
G54D19*
X534669Y31200D03*
G54D226*
X537000Y84252D03*
G54D180*
X508721Y79963D03*
G54D231*
X81331Y379957D03*
X79363D03*
G54D22*
X79402Y370700D03*
G54D152*
X163936Y588160D03*
G54D22*
X82598Y545600D03*
X82504Y535600D03*
G54D228*
X91174Y395706D03*
G54D70*
X96800Y395331D03*
G54D54*
X149200Y152754D03*
G54D38*
X98500Y92802D03*
G54D31*
X140674Y156109D03*
X138706D03*
X136737D03*
G54D229*
X83300Y399643D03*
G54D19*
X93169Y405300D03*
X83369Y405100D03*
G54D147*
X172493Y102800D03*
G54D228*
X91174Y385863D03*
G54D70*
X98800Y384331D03*
G54D36*
X40702Y237800D03*
G54D38*
X71750Y129833D03*
G54D70*
X103750Y148467D03*
G54D72*
X73447Y280600D03*
G54D70*
X74100Y248131D03*
G54D229*
X87237Y399643D03*
G54D19*
X89231Y405300D03*
G54D147*
X172493Y100832D03*
G54D231*
X87237Y379957D03*
G54D70*
X526400Y76969D03*
G54D226*
X537000Y80315D03*
G54D54*
X199900Y85846D03*
G54D18*
X147146Y112700D03*
G54D54*
X149200Y159446D03*
G54D156*
X301000Y137354D03*
G54D19*
X149031Y167000D03*
G54D70*
X156000Y117031D03*
G54D19*
X197128Y93534D03*
G54D38*
X269500Y146102D03*
X259500D03*
X249500D03*
G54D19*
X535469Y514600D03*
G54D31*
X188596Y88367D03*
X190565D03*
X192533D03*
G54D42*
X150133Y123563D03*
Y121594D03*
Y119626D03*
G54D31*
X136737Y167133D03*
X138706D03*
X140674D03*
G54D70*
X509500Y66169D03*
X427300Y140269D03*
G54D167*
X492500Y61000D03*
G54D125*
X425716Y148283D03*
G54D19*
X126831Y135200D03*
Y140100D03*
G54D177*
X388153Y532709D03*
X390711D03*
X393271D03*
G54D176*
X144740Y513236D03*
G54D146*
X146666Y452633D03*
G54D72*
X143753Y476300D03*
G54D178*
X332900Y486505D03*
G54D127*
X357361Y498900D03*
G54D52*
X155139Y471400D03*
G54D125*
X389516Y363149D03*
G54D70*
X311600Y311469D03*
G54D22*
X407498Y74500D03*
G54D73*
X341066Y143833D03*
G54D38*
X374500Y144902D03*
G54D55*
X357083Y151333D03*
G54D181*
X390429Y145233D03*
G54D70*
X365500Y103769D03*
X349900Y102131D03*
G54D19*
X356069Y110900D03*
G54D70*
X25900Y86369D03*
G54D19*
X320722Y90235D03*
G54D70*
X110000Y92731D03*
X61300Y94031D03*
X148335Y94978D03*
G54D19*
X211369Y87869D03*
X401069Y72000D03*
G54D70*
X88000Y414469D03*
X281400Y487769D03*
X292900D03*
G54D19*
X147831Y141200D03*
G54D70*
X322900Y312069D03*
G54D73*
X341000Y171363D03*
G54D38*
X374500Y168198D03*
G54D19*
X366231Y87400D03*
G54D70*
X516000Y426469D03*
X422100Y136331D03*
X427300D03*
X392300Y250569D03*
X397400D03*
X402500D03*
G54D19*
X320934Y265633D03*
G54D70*
X185500Y395469D03*
X190500D03*
G54D19*
X88031Y419500D03*
Y425000D03*
G54D70*
X197000Y427931D03*
X311600Y307531D03*
X141400Y138869D03*
X305900Y103131D03*
G54D73*
X523000Y430937D03*
X292900Y494363D03*
X281400D03*
G54D227*
X556094Y63189D03*
X554126Y107283D03*
G54D226*
X581094Y80315D03*
X537000Y88189D03*
X581094Y98031D03*
G54D55*
X357083Y163833D03*
G54D181*
X390429Y170333D03*
G54D147*
X33570Y88226D03*
G54D155*
X258726Y93430D03*
X89868Y150943D03*
G54D147*
X314019Y75732D03*
X155170Y94926D03*
X217550Y90168D03*
X67850Y96868D03*
X116550Y96068D03*
G54D155*
X398537Y79339D03*
X341030Y70878D03*
G54D168*
X316318Y120740D03*
G54D125*
X189210Y379849D03*
G54D167*
X492500Y66000D03*
G54D70*
X546721Y120131D03*
G54D167*
X492500Y76000D03*
Y81000D03*
Y96000D03*
G54D38*
X267000Y59502D03*
G54D19*
X412731Y110200D03*
G54D38*
X418900Y103502D03*
G54D230*
X426895Y102203D03*
Y104172D03*
G54D38*
X514300Y122798D03*
G54D178*
X497505Y119000D03*
G54D38*
X175500Y141102D03*
G54D178*
X175495Y168400D03*
G54D70*
X428300Y124769D03*
G54D170*
X185024Y236300D03*
G54D182*
X336268Y255592D03*
G54D183*
X338266Y248702D03*
X333266D03*
X328266D03*
G54D184*
X372264Y293320D03*
G54D183*
X370266Y300210D03*
X375266D03*
X380266D03*
G54D47*
X351036Y263330D03*
G54D21*
X344663Y241500D03*
G54D165*
X354105Y273984D03*
G54D54*
X63000Y406346D03*
G54D70*
X103500Y396969D03*
X429600Y179731D03*
G54D125*
X427684Y171117D03*
G54D21*
X556237Y51800D03*
G54D227*
X558063Y63189D03*
Y107283D03*
G54D70*
X424600Y179731D03*
G54D125*
X425716Y171117D03*
G54D51*
X370214Y310600D03*
G54D70*
X359647Y308631D03*
G54D165*
X356073Y291307D03*
G54D47*
X352753Y307670D03*
G54D72*
X355100Y301223D03*
G54D165*
X352136Y291307D03*
G54D151*
X364753Y205839D03*
G54D35*
X367102Y196000D03*
G54D70*
X549500Y526469D03*
X397900Y211731D03*
G54D125*
X299813Y258053D03*
G54D70*
X295000Y252502D03*
X299866D03*
X196700Y399631D03*
G54D125*
X204958Y360951D03*
G54D19*
X484669Y296000D03*
G54D135*
X513025Y269069D03*
G54D73*
X515100Y384863D03*
G54D125*
X499063Y403218D03*
G54D167*
X492500Y71000D03*
Y56000D03*
Y51000D03*
X476500Y96000D03*
X492500Y91000D03*
G54D70*
X110000Y101231D03*
G54D147*
X116550Y101974D03*
X133873D03*
Y103942D03*
X234873Y96074D03*
G54D70*
X210669Y93131D03*
G54D147*
X217550Y96074D03*
G54D70*
X110000Y105169D03*
G54D147*
X116550Y103942D03*
X234873Y98042D03*
G54D70*
X210669Y97069D03*
G54D147*
X217550Y98042D03*
G54D70*
X290466Y286902D03*
G54D161*
X194196Y191900D03*
G54D135*
X491175Y253321D03*
G54D70*
X521000Y246569D03*
G54D135*
X513025Y257258D03*
G54D94*
X520369Y252900D03*
G54D72*
X522847Y277500D03*
G54D135*
X513025Y276943D03*
G54D39*
X438500Y530750D03*
Y551250D03*
G54D40*
X424500Y570433D03*
G54D153*
X458450Y508182D03*
G54D47*
X492200Y290698D03*
X502100Y291147D03*
G54D135*
X491175Y284816D03*
G54D47*
X578300Y330853D03*
G54D21*
X579037Y337600D03*
G54D153*
X443450Y508182D03*
G54D135*
X513025Y278911D03*
G54D47*
X541100Y352347D03*
G54D70*
X558500Y351931D03*
G54D73*
X548300Y350063D03*
G54D185*
X338391Y640104D03*
G54D174*
X320000Y608630D03*
G54D175*
X316161Y604299D03*
X318721D03*
X321279D03*
G54D177*
Y594263D03*
X318721D03*
X316161D03*
G54D153*
X463450Y508182D03*
G54D19*
X523531Y283700D03*
G54D135*
X513025Y280879D03*
G54D41*
X505521Y574000D03*
G54D68*
X473300Y655922D03*
G54D40*
X449000Y599567D03*
G54D125*
X297844Y258053D03*
G54D47*
X522800Y264447D03*
G54D70*
X528900Y265331D03*
G54D135*
X513025Y265131D03*
G54D138*
X295285Y270455D03*
G54D139*
X215854Y266000D03*
G54D70*
X300500Y285969D03*
G54D157*
X217306Y196664D03*
G54D160*
X208645Y200256D03*
G54D161*
X194196Y186900D03*
G54D47*
X222500Y395453D03*
G54D19*
X222531Y402100D03*
X482469Y271800D03*
G54D47*
X477500Y266153D03*
G54D135*
X491175Y273006D03*
G54D19*
X576869Y358400D03*
G54D21*
X578837Y348400D03*
G54D35*
X551398Y276700D03*
Y290700D03*
X565998Y309600D03*
G54D70*
X528900Y269269D03*
G54D171*
X559124Y241000D03*
G54D48*
X539500Y267692D03*
G54D135*
X513025Y263163D03*
G54D162*
X515545Y207444D03*
G54D157*
X524206Y211036D03*
G54D84*
X507900Y290300D03*
G54D19*
X513031D03*
G54D72*
X509647Y296750D03*
G54D135*
X513025Y284816D03*
G54D186*
X102526Y315653D03*
G54D39*
X486500Y551250D03*
Y530750D03*
G54D40*
X474000Y570433D03*
G54D153*
X473450Y508182D03*
G54D84*
X466900Y264900D03*
G54D135*
X491175Y274974D03*
G54D187*
X87762Y318399D03*
G54D188*
X78904Y321027D03*
G54D36*
X104108Y293650D03*
G54D138*
X71592Y305200D03*
G54D72*
X65453Y287000D03*
G54D70*
X70756Y288029D03*
G54D153*
X483450Y508182D03*
G54D73*
X469300Y278463D03*
G54D135*
X491175Y278911D03*
G54D186*
X102526Y310653D03*
Y320653D03*
G54D125*
X68049Y310712D03*
G54D174*
X338000Y608630D03*
G54D175*
X334161Y604299D03*
X336721D03*
X339279D03*
G54D177*
Y594263D03*
X336721D03*
X334161D03*
G54D185*
X338391Y637545D03*
G54D153*
X478450Y508182D03*
G54D70*
X52500Y301969D03*
Y307031D03*
G54D138*
X60568Y303231D03*
G54D186*
X102526Y305653D03*
G54D138*
X71592Y307169D03*
G54D19*
X126369Y167400D03*
G54D31*
X132800Y167133D03*
G54D135*
X491175Y261194D03*
G54D125*
X68049Y299688D03*
G54D31*
X132800Y156109D03*
G54D40*
X474000Y599567D03*
G54D19*
X527469Y283700D03*
G54D47*
X477500Y260247D03*
G54D72*
X528753Y277500D03*
G54D135*
X513025Y261194D03*
G54D94*
X529031Y252900D03*
G54D125*
X66080Y310712D03*
G54D84*
X471100Y269300D03*
G54D19*
X482669Y277500D03*
G54D135*
X491175Y276943D03*
G54D125*
X64111Y310712D03*
G54D174*
X356000Y608630D03*
G54D175*
X352161Y604299D03*
X354721D03*
X357279D03*
G54D177*
X357283Y594263D03*
X354724D03*
X352164D03*
G54D189*
X344257Y645970D03*
G54D153*
X448450Y508182D03*
G54D19*
X516969Y290300D03*
G54D70*
X527600Y294569D03*
G54D135*
X513025Y274974D03*
G54D70*
X52500Y310969D03*
G54D138*
X60568Y305200D03*
G54D39*
X471500Y551250D03*
Y530750D03*
G54D40*
X449000Y570433D03*
G54D153*
X468450Y508182D03*
G54D72*
X484653Y289600D03*
G54D135*
X491175Y282848D03*
G54D19*
X61511Y292700D03*
G54D125*
X66080Y299688D03*
G54D19*
X478731Y283900D03*
G54D70*
X52500Y298031D03*
G54D125*
X64111Y299688D03*
X305718Y273014D03*
G54D47*
X522800Y270353D03*
G54D48*
X539500Y291708D03*
G54D190*
X503500Y308682D03*
G54D146*
X543100Y306724D03*
G54D47*
X502100Y297053D03*
G54D135*
X513025Y267100D03*
G54D47*
X358016Y263330D03*
G54D182*
X373468Y255992D03*
G54D183*
X375466Y249102D03*
X370466D03*
X365466D03*
G54D35*
X228098Y195900D03*
Y182300D03*
G54D171*
X230224Y220800D03*
G54D165*
X356073Y273984D03*
G54D162*
X208645Y188544D03*
G54D157*
X217306Y192136D03*
G54D19*
X482669Y283900D03*
G54D135*
X491175Y280879D03*
G54D153*
X438450Y508182D03*
G54D191*
X450014Y267902D03*
G54D150*
X456904Y269900D03*
Y264900D03*
Y259900D03*
G54D125*
X410821Y224420D03*
G54D47*
X416500Y212953D03*
G54D19*
X283531Y339500D03*
G54D146*
X263000Y360476D03*
G54D192*
X266500Y379429D03*
G54D125*
X303750Y273014D03*
G54D138*
X310246Y262581D03*
G54D73*
X313066Y281696D03*
G54D39*
X423500Y530750D03*
Y551250D03*
G54D40*
X400000Y570433D03*
G54D153*
X453450Y508182D03*
G54D22*
X448298Y529600D03*
G54D153*
X488450Y508182D03*
G54D177*
X321279Y616701D03*
X318721D03*
X316161D03*
X339279D03*
X336721D03*
X334161D03*
X357279D03*
X354721D03*
X352161D03*
X375279D03*
X372721D03*
X370161D03*
G54D22*
X190944Y560745D03*
G54D193*
X345536Y638824D03*
G54D185*
X352682Y642663D03*
G54D176*
X325740Y533764D03*
G54D47*
X361000Y639953D03*
G54D19*
X415631Y178200D03*
X438669Y177900D03*
X413294Y136329D03*
G54D138*
X419220Y166590D03*
G54D22*
X447998Y551100D03*
G54D72*
X180347Y349600D03*
G54D138*
X310246Y270455D03*
G54D194*
X194400Y267488D03*
X199400D03*
X204400D03*
G54D145*
X320700Y214695D03*
G54D72*
X177347Y342400D03*
G54D30*
X327200Y204802D03*
X313500D03*
G54D70*
X317066Y270965D03*
G54D38*
X135300Y319798D03*
X120100Y307902D03*
X135400Y307802D03*
X120100Y319798D03*
X169200Y335298D03*
G54D70*
X299866Y248565D03*
G54D19*
X171069Y354100D03*
G54D125*
X185273Y360951D03*
G54D143*
X153584Y319100D03*
G54D144*
X146005Y326600D03*
Y321600D03*
Y316600D03*
G54D140*
X156600Y336067D03*
G54D174*
X374000Y608630D03*
G54D175*
X370161Y604299D03*
X372721D03*
X375279D03*
G54D177*
X375283Y594263D03*
X372724D03*
X370164D03*
G54D189*
X344257Y631679D03*
G54D153*
X433450Y508182D03*
G54D174*
X338000Y586192D03*
G54D175*
X334161Y581861D03*
X336721D03*
X339279D03*
G54D174*
X356003Y586192D03*
G54D175*
X352164Y581861D03*
X354724D03*
X357283D03*
G54D174*
X374003Y586192D03*
G54D175*
X370164Y581861D03*
X372724D03*
X375283D03*
G54D174*
X320000Y586192D03*
G54D175*
X316161Y581861D03*
X318721D03*
X321279D03*
G54D22*
X239151Y534111D03*
X460355Y539711D03*
G54D38*
X412200Y539903D03*
G54D22*
X460502Y529600D03*
X460202Y551100D03*
X239245Y555500D03*
Y544111D03*
G54D185*
X352682Y634986D03*
G54D176*
X325740Y554236D03*
G54D47*
X361000Y634047D03*
G54D70*
X372500Y636531D03*
X386000D03*
G54D195*
X379500Y636079D03*
G54D41*
X488496Y604000D03*
G54D68*
X430700Y655822D03*
G54D40*
X400000Y599567D03*
X424500D03*
G54D138*
X397980Y354684D03*
G54D73*
X421500Y373063D03*
G54D72*
X269547Y427500D03*
X263453D03*
G54D19*
X367531Y352500D03*
G54D36*
X441508Y395000D03*
G54D196*
X418500Y411878D03*
X423500D03*
X428500D03*
G54D138*
X397980Y352716D03*
G54D125*
X391484Y363149D03*
G54D177*
X385593Y532709D03*
G54D70*
X148445Y100321D03*
G54D147*
X155170Y100832D03*
G54D138*
X383020Y346810D03*
G54D72*
X372953Y341500D03*
G54D31*
X184659Y77344D03*
G54D94*
X371331Y362000D03*
G54D138*
X383020Y356653D03*
G54D19*
X186259Y94067D03*
G54D31*
X184659Y88367D03*
G54D138*
X397980Y356653D03*
G54D70*
X148445Y104258D03*
G54D147*
X155170Y102800D03*
G54D126*
X402896Y384830D03*
G54D22*
X285898Y357500D03*
G54D126*
X284904Y416326D03*
Y400578D03*
Y384830D03*
G54D192*
X266500Y395571D03*
G54D196*
X413500Y411878D03*
G54D96*
X311063Y341760D03*
G54D70*
X413500Y441131D03*
G54D197*
X421000Y425658D03*
G54D198*
X413126Y435500D03*
X418374D03*
X423622D03*
X428874D03*
G54D126*
X402896Y416326D03*
Y432074D03*
G54D125*
X393453Y344251D03*
G54D19*
X393031Y335500D03*
G54D73*
X295500Y337563D03*
G54D72*
X275453Y427500D03*
G54D199*
X263957Y412300D03*
G54D188*
X273800Y420174D03*
Y414926D03*
Y409678D03*
Y404426D03*
G54D126*
X284904Y463570D03*
Y447822D03*
Y432074D03*
G54D200*
X389432Y540779D03*
G54D175*
X393271Y545110D03*
X390711D03*
X388153D03*
G54D176*
X368260Y554236D03*
G54D20*
X410500Y528700D03*
G54D73*
X413000Y380937D03*
G54D125*
X389516Y344251D03*
G54D138*
X383020Y350747D03*
G54D70*
X376800Y351869D03*
G54D19*
X371469Y352500D03*
G54D125*
X391484Y344251D03*
G54D19*
X386969Y335500D03*
G54D51*
X416563Y363740D03*
G54D138*
X383020Y352716D03*
G54D19*
X287469Y345500D03*
Y339500D03*
G54D73*
X295500Y345437D03*
G54D51*
X424437Y360000D03*
G54D201*
X426748Y342500D03*
G54D96*
X311063Y349240D03*
G54D186*
X250178Y419800D03*
G54D70*
X549500Y522531D03*
G54D65*
X554900Y515961D03*
G54D68*
X554800Y522522D03*
G54D19*
X316331Y332400D03*
G54D94*
X311331D03*
G54D125*
X395421Y363149D03*
G54D73*
X413000Y373063D03*
G54D54*
X69500Y406346D03*
G54D191*
X468914Y211702D03*
G54D150*
X475804Y213700D03*
Y208700D03*
Y203700D03*
G54D191*
X469614Y243802D03*
G54D150*
X476504Y245800D03*
Y240800D03*
Y235800D03*
G54D149*
X413586Y266998D03*
G54D150*
X406696Y265000D03*
Y270000D03*
Y275000D03*
G54D184*
X335198Y293320D03*
G54D183*
X333200Y300210D03*
X338200D03*
X343200D03*
G54D178*
X112595Y387900D03*
G54D125*
X410821Y239380D03*
G54D72*
X340953Y313576D03*
G54D22*
X399802Y259800D03*
G54D70*
X196700Y403569D03*
G54D146*
X404900Y288624D03*
G54D47*
X352753Y313576D03*
G54D21*
X397437Y276000D03*
G54D165*
X352136Y273984D03*
G54D141*
X471798Y365884D03*
G54D22*
X306398Y358300D03*
G54D70*
X413500Y445069D03*
X419600Y455231D03*
X413500D03*
G54D138*
X383020Y348779D03*
G54D70*
X376800Y347931D03*
G54D19*
X371469Y347500D03*
G54D22*
X318602Y358300D03*
G54D129*
X328000Y359150D03*
G54D70*
X410500Y188469D03*
G54D19*
X415631Y188200D03*
G54D94*
X362669Y362000D03*
G54D202*
X390500Y353700D03*
G54D138*
X383020Y354684D03*
X397980Y360590D03*
G54D176*
X368260Y533764D03*
G54D35*
X414802Y485000D03*
Y498900D03*
G54D19*
X383031Y335500D03*
G54D38*
X358000Y351102D03*
G54D19*
X367531Y347500D03*
X396969Y335500D03*
X141669Y464300D03*
G54D146*
X146666Y424680D03*
G54D20*
X410500Y513900D03*
G54D36*
X417492Y395000D03*
G54D141*
X461602Y365884D03*
G54D72*
X367047Y341500D03*
G54D73*
X421500Y380937D03*
G54D178*
X332900Y512095D03*
G54D129*
X348000Y359150D03*
G54D126*
X402896Y400578D03*
G54D125*
X174180Y453278D03*
X180085D03*
X182054D03*
X184022D03*
G54D138*
X167684Y449735D03*
G54D203*
X181069Y443830D03*
G54D19*
X320269Y332400D03*
G54D129*
X328000Y332650D03*
G54D70*
X414100Y161731D03*
G54D181*
X406571Y170333D03*
G54D138*
X419220Y162653D03*
Y160684D03*
G54D125*
X385579Y344251D03*
X387547D03*
G54D70*
X414100Y165669D03*
G54D138*
X419220Y164621D03*
G54D125*
X385579Y363149D03*
G54D51*
X416563Y356260D03*
G54D70*
X522100Y289031D03*
X527600Y290631D03*
G54D135*
X513025Y282848D03*
G54D138*
X383020Y358621D03*
G54D125*
X395421Y344251D03*
G54D138*
X397980Y346810D03*
Y348779D03*
Y350747D03*
G54D201*
X405252Y342500D03*
G54D47*
X435900Y140853D03*
G54D125*
X431621Y148283D03*
G54D19*
X439631Y173100D03*
G54D138*
X434180Y168558D03*
G54D70*
X414100Y155169D03*
G54D181*
X406571Y145233D03*
G54D138*
X419220Y156747D03*
Y154779D03*
G54D19*
X434731Y182900D03*
Y177900D03*
Y187900D03*
G54D125*
X431621Y171117D03*
G54D19*
X419569Y183200D03*
Y178200D03*
Y188200D03*
G54D125*
X421779Y171117D03*
G54D19*
X186031Y401000D03*
G54D125*
X185273Y379849D03*
G54D70*
X414100Y151231D03*
G54D138*
X419220Y152810D03*
G54D70*
X213600Y390831D03*
G54D125*
X204958Y379849D03*
G54D70*
X444000Y187969D03*
G54D19*
X438669Y187900D03*
G54D178*
X137005Y387900D03*
G54D38*
X159000Y389898D03*
X169000D03*
G54D171*
X135276Y354600D03*
G54D138*
X182714Y370400D03*
G54D204*
X170406Y371500D03*
Y376500D03*
Y381500D03*
G54D125*
X199053Y360951D03*
G54D204*
X169356Y311600D03*
G54D138*
X419220Y168558D03*
G54D205*
X448012Y235700D03*
X454988Y250800D03*
G54D70*
X208000Y391531D03*
G54D125*
X202990Y379849D03*
G54D19*
X417194Y141929D03*
X417231Y136329D03*
G54D125*
X421779Y148283D03*
G54D19*
X216931Y377800D03*
G54D138*
X209486Y376306D03*
G54D125*
X429653Y171117D03*
X297844Y273014D03*
G54D70*
X290466Y282965D03*
X196000Y391231D03*
G54D125*
X199053Y379849D03*
X423747Y171117D03*
G54D205*
X447192Y203678D03*
X454288Y218700D03*
G54D184*
X196398Y282114D03*
G54D183*
X194400Y289004D03*
X199400D03*
X204400D03*
G54D206*
X224001Y313700D03*
G54D70*
X213500Y355031D03*
G54D36*
X207692Y343100D03*
G54D125*
X206927Y360951D03*
X307687Y258053D03*
G54D70*
X306566Y251502D03*
X177000Y365819D03*
G54D19*
X171069Y360100D03*
G54D138*
X182714Y366463D03*
G54D39*
X261924Y555361D03*
Y534861D03*
G54D40*
X250156Y571944D03*
G54D153*
X234361Y514061D03*
G54D72*
X186253Y349600D03*
G54D125*
X187242Y360951D03*
G54D22*
X251449Y555500D03*
G54D138*
X182714Y372369D03*
X209486D03*
G54D153*
X259361Y514061D03*
G54D138*
X182714Y368431D03*
G54D204*
X170406Y366500D03*
G54D138*
X295285Y264549D03*
G54D40*
X200624Y601078D03*
G54D125*
X195116Y360951D03*
G54D204*
X152144Y304400D03*
G54D30*
X196200Y351102D03*
G54D125*
X202990Y360951D03*
G54D153*
X249361Y514061D03*
G54D125*
X206927Y379849D03*
G54D73*
X281400Y502237D03*
G54D68*
X292900Y656422D03*
G54D194*
X189400Y267488D03*
G54D125*
X189210Y360951D03*
G54D153*
X264361Y514061D03*
G54D47*
X223500Y371953D03*
X217000D03*
G54D138*
X209486Y370400D03*
G54D70*
X306000Y285969D03*
G54D161*
X194196Y201900D03*
G54D73*
X292900Y502237D03*
G54D68*
X254700Y656222D03*
G54D84*
X51000Y292000D03*
G54D70*
X70756Y291966D03*
G54D19*
X65449Y292700D03*
G54D36*
X80092Y293650D03*
G54D138*
X71592Y303231D03*
G54D63*
X72646Y353500D03*
G54D66*
X86900Y351646D03*
G54D125*
X299813Y273014D03*
G54D70*
X300500Y282031D03*
G54D21*
X197863Y528700D03*
G54D155*
X97742Y133620D03*
G54D40*
X250156Y601078D03*
G54D207*
X470500Y317134D03*
G54D122*
X463000Y324516D03*
X468000D03*
X473000D03*
G54D190*
X503500Y343918D03*
G54D30*
X531300Y346998D03*
X448760Y334566D03*
G54D125*
X503000Y403218D03*
G54D147*
X460439Y337736D03*
G54D125*
X187242Y379849D03*
G54D155*
X95774Y133620D03*
G54D73*
X515100Y392737D03*
G54D208*
X539943Y375200D03*
G54D123*
X547325Y382700D03*
Y377700D03*
Y372700D03*
G54D125*
X506937Y391998D03*
G54D19*
X95596Y158150D03*
G54D155*
X95774Y150943D03*
G54D70*
X515570Y402539D03*
G54D138*
X182714Y376306D03*
X310246Y266518D03*
G54D19*
X317197Y260333D03*
X99533Y158150D03*
G54D70*
X103750Y152404D03*
G54D155*
X97742Y150943D03*
G54D47*
X223500Y366047D03*
X217000D03*
G54D138*
X209486Y368431D03*
G54D70*
X202700Y391631D03*
G54D125*
X201021Y379849D03*
G54D138*
X295285Y266518D03*
G54D70*
X284866Y283065D03*
X180500Y391531D03*
G54D138*
X182714Y374337D03*
G54D70*
X61300Y106469D03*
G54D147*
X67850Y104742D03*
G54D187*
X87762Y307907D03*
G54D188*
X78904Y310535D03*
G54D70*
X213500Y358969D03*
G54D38*
X231500Y356698D03*
G54D36*
X231708Y343100D03*
G54D138*
X209486Y366463D03*
Y364494D03*
G54D147*
X85173Y104742D03*
G54D22*
X203149Y560745D03*
G54D19*
X202531Y400700D03*
G54D70*
X156000Y129969D03*
G54D42*
X150133Y127500D03*
G54D40*
X275172Y601078D03*
G54D125*
X197084Y360951D03*
G54D39*
X214424Y555361D03*
Y534861D03*
G54D40*
X200624Y571944D03*
G54D153*
X214361Y514061D03*
G54D125*
X301781Y273014D03*
G54D70*
X306000Y282031D03*
G54D147*
X85173Y102774D03*
G54D176*
X187260Y513236D03*
G54D153*
X254361Y514061D03*
X224361D03*
G54D73*
X36100Y518137D03*
G54D70*
X132500Y126031D03*
G54D42*
X139109Y127500D03*
G54D209*
X499866Y368600D03*
G54D123*
X492484Y361100D03*
Y366100D03*
Y371100D03*
G54D125*
X504969Y403218D03*
X193147Y360951D03*
X191179D03*
G54D19*
X189969Y401000D03*
G54D70*
X61300Y102531D03*
G54D147*
X67850Y102774D03*
G54D176*
X187260Y492764D03*
G54D153*
X239361Y514061D03*
X209361D03*
G54D39*
X57777Y536350D03*
Y556850D03*
G54D40*
X41477Y573433D03*
G54D153*
X55714Y515550D03*
G54D70*
X177000Y361881D03*
G54D38*
X169200Y347502D03*
G54D19*
X167131Y354100D03*
G54D138*
X182714Y364494D03*
G54D40*
X119477Y602567D03*
G54D206*
X186599Y313700D03*
G54D125*
X201021Y360951D03*
G54D210*
X167916Y296900D03*
G54D144*
X175495Y289400D03*
Y294400D03*
Y299400D03*
G54D204*
X169356Y316600D03*
Y321600D03*
Y326600D03*
G54D22*
X251449Y544111D03*
G54D73*
X36100Y510263D03*
G54D21*
X205737Y528700D03*
G54D132*
X524392Y382700D03*
X515417Y361100D03*
G54D70*
X515570Y406476D03*
G54D125*
X506937Y403218D03*
G54D40*
X41477Y602567D03*
X225140Y601078D03*
G54D153*
X85714Y515550D03*
G54D39*
X276924Y555361D03*
Y534861D03*
G54D40*
X275172Y571944D03*
G54D153*
X229361Y514061D03*
G54D39*
X105277Y556850D03*
Y536350D03*
G54D40*
X93477Y573433D03*
G54D153*
X75714Y515550D03*
G54D41*
X159904Y632566D03*
Y612000D03*
G54D68*
X89400Y656322D03*
G54D153*
X90714Y515550D03*
G54D22*
X94809Y557600D03*
X94802Y545600D03*
G54D41*
X142896Y632566D03*
G54D68*
X75600Y656222D03*
G54D177*
X341839Y594263D03*
G54D185*
X338391Y634986D03*
G54D70*
X499300Y387069D03*
G54D125*
X501031Y391998D03*
G54D185*
X352682Y637545D03*
G54D70*
X386000Y640469D03*
G54D195*
X379500Y645921D03*
G54D177*
X377842Y594263D03*
G54D189*
X341698Y631679D03*
G54D153*
X100714Y515550D03*
G54D177*
X359839Y616701D03*
G54D189*
X346816Y645970D03*
G54D40*
X67477Y602567D03*
G54D177*
X323839Y594263D03*
G54D185*
X338391Y642663D03*
G54D41*
X142896Y612000D03*
G54D68*
X117600Y656222D03*
G54D185*
X352682Y640104D03*
G54D70*
X372500Y640469D03*
G54D39*
X120277Y556850D03*
Y536350D03*
G54D40*
X119477Y573433D03*
G54D153*
X70714Y515550D03*
G54D177*
X359842Y594263D03*
G54D189*
X341698Y645970D03*
G54D177*
X341839Y616701D03*
G54D189*
X349375Y631679D03*
G54D40*
X93477Y602567D03*
G54D189*
X346816Y631679D03*
G54D177*
X377839Y616701D03*
G54D22*
X46502Y562234D03*
G54D177*
X323839Y616701D03*
G54D189*
X349375Y645970D03*
G54D22*
X94709Y535600D03*
G54D70*
X506800Y383239D03*
G54D125*
X503000Y391998D03*
G54D70*
X321300Y70669D03*
G54D147*
X314019Y69826D03*
X296696Y67858D03*
G54D70*
X321300Y66731D03*
G54D19*
X315469Y61600D03*
G54D147*
X314019Y67858D03*
X296696Y69826D03*
G54D138*
X413380Y228947D03*
G54D194*
X375466Y270618D03*
X370466D03*
X365466D03*
X370266Y278694D03*
X375266D03*
X380266D03*
G54D138*
X398420Y226979D03*
G54D70*
X389800Y221031D03*
G54D194*
X343266Y270218D03*
X328200Y278694D03*
G54D165*
X350168Y273984D03*
G54D138*
X413380Y236821D03*
X398420Y228947D03*
G54D70*
X384600Y224969D03*
X389800D03*
G54D194*
X338266Y270218D03*
X333266D03*
X328266D03*
X333200Y278694D03*
X338200D03*
X343200D03*
X380466Y270618D03*
X365266Y278694D03*
G54D165*
X358042Y273984D03*
G54D149*
X432566Y210676D03*
G54D150*
X425676Y208678D03*
Y213678D03*
Y218678D03*
G54D125*
X406884Y224420D03*
G54D47*
X403600Y212953D03*
G54D72*
X478747Y289600D03*
G54D21*
X472437Y296000D03*
G54D205*
X435388Y274900D03*
X428212Y260000D03*
X435388Y269900D03*
Y264900D03*
Y259900D03*
X428212Y265000D03*
Y270000D03*
Y275000D03*
G54D138*
X413380Y234853D03*
G54D205*
X447192Y208678D03*
Y213678D03*
Y218678D03*
X454288Y213700D03*
Y208700D03*
Y203700D03*
G54D138*
X413380Y226979D03*
Y232884D03*
G54D205*
X448012Y240700D03*
Y245700D03*
Y250700D03*
X454988Y245800D03*
Y240800D03*
Y235800D03*
G54D138*
X413380Y230916D03*
G54D64*
X545708Y414900D03*
G54D68*
X225000Y658978D03*
X401400Y658578D03*
X430700D03*
X442500D03*
X473300Y658678D03*
X254700Y658978D03*
X266900D03*
X292900Y659178D03*
X75600Y658978D03*
X89400Y659078D03*
X117600Y658978D03*
G54D211*
X557678Y491800D03*
G54D68*
X554800Y525278D03*
G54D74*
X497017Y574000D03*
X151400Y632566D03*
Y612000D03*
X497000Y604000D03*
G54D75*
X554900Y507458D03*
G54D38*
X22600Y605802D03*
X535700Y544402D03*
G54D64*
X571692Y414900D03*
G54D66*
X86900Y332354D03*
G54D159*
X259500Y191004D03*
G54D125*
X400979Y224420D03*
G54D70*
X392400Y215669D03*
G54D159*
X269500Y191004D03*
G54D138*
X398420Y234853D03*
G54D70*
X389800Y237731D03*
G54D138*
X398420Y236821D03*
G54D70*
X389800Y241669D03*
X384200D03*
G54D138*
X398420Y230916D03*
G54D70*
X389800Y229331D03*
G54D138*
X398420Y232884D03*
G54D70*
X389800Y233269D03*
X384600D03*
G54D178*
X199905Y168400D03*
G54D38*
X232000Y142402D03*
G54D146*
X199200Y144776D03*
G54D212*
X256144Y176555D03*
G54D157*
X259736Y167894D03*
G54D51*
X378088Y306860D03*
G54D213*
X337461Y32800D03*
G54D36*
X486092Y236400D03*
G54D48*
X55900Y278308D03*
G54D214*
X458017Y432632D03*
X441350D03*
X490850D03*
X474684D03*
G54D215*
X32077Y462231D03*
G54D214*
X68609Y438100D03*
X86977D03*
G54D215*
X215500Y439000D03*
G54D214*
X264000Y439500D03*
X246854Y438801D03*
X230789D03*
G54D215*
X32077Y485100D03*
G54D84*
X564700Y339700D03*
G54D216*
X302766Y265533D03*
G54D125*
X307687Y273014D03*
X301781Y258053D03*
X303750D03*
X305718D03*
G54D154*
X125504Y80700D03*
X83304Y80000D03*
G54D169*
X330736Y54903D03*
G54D154*
X440604Y74900D03*
X169939Y77709D03*
X246036Y73536D03*
X380699Y74666D03*
X40321Y61943D03*
X290239Y49909D03*
G54D141*
X461602Y401316D03*
G54D211*
X554922Y491800D03*
G54D217*
X436738Y106141D03*
G54D229*
X434769Y114015D03*
X438706D03*
G54D202*
X83300Y389800D03*
G54D228*
X91174Y391768D03*
Y387831D03*
G54D57*
X525840Y522637D03*
G54D216*
X405900Y231900D03*
G54D125*
X406884Y239380D03*
G54D22*
X34297Y562234D03*
G54D218*
X361800Y211400D03*
G54D151*
X358847Y205839D03*
G54D65*
X554900Y498954D03*
G54D47*
X288000Y276453D03*
X578300Y324947D03*
X222500Y389547D03*
X541100Y358253D03*
X441400Y161547D03*
Y156753D03*
X403600Y207047D03*
X410000D03*
X416500D03*
G54D72*
X59547Y287000D03*
X183253Y342400D03*
X335047Y313576D03*
G54D47*
X351036Y257424D03*
X358016D03*
G54D35*
X563602Y276700D03*
Y290700D03*
X578202Y309600D03*
G54D30*
X531300Y359202D03*
G54D35*
X240302Y195900D03*
Y182300D03*
G54D30*
X327200Y192598D03*
X313500D03*
X448760Y346771D03*
G54D35*
X356398Y226100D03*
X354898Y196000D03*
G54D30*
X196200Y338898D03*
G54D70*
X365500Y99831D03*
X349900Y106069D03*
G54D19*
X352131Y110900D03*
X530731Y31200D03*
G54D70*
X509500Y62231D03*
X25900Y82431D03*
G54D19*
X65931Y275100D03*
X130569Y281400D03*
X415631Y183200D03*
G54D70*
X410500Y184531D03*
G54D19*
X438669Y182900D03*
G54D70*
X444000Y184031D03*
X429600Y183669D03*
X424600D03*
X452423Y113880D03*
G54D19*
X478531Y271800D03*
G54D70*
X522100Y292969D03*
X499300Y383131D03*
X284866Y287002D03*
X317066Y274902D03*
G54D19*
X283531Y345500D03*
X324659Y90235D03*
X478169Y329800D03*
G54D70*
X45277Y443431D03*
X50600D03*
X196000Y395169D03*
X202700Y395569D03*
X156000Y126031D03*
G54D19*
X182322Y94067D03*
X152969Y167000D03*
G54D70*
X110000Y96669D03*
X156000Y120969D03*
X61300Y97969D03*
G54D19*
X193191Y93534D03*
G54D70*
X148335Y91041D03*
G54D19*
X207431Y87869D03*
X397131Y72000D03*
G54D70*
X88000Y410531D03*
G54D19*
X314631Y100600D03*
X151769Y141200D03*
G54D70*
X322900Y308131D03*
G54D73*
X341066Y135959D03*
X341000Y179237D03*
X313066Y289570D03*
G54D21*
X548363Y51800D03*
G54D22*
X153502Y246000D03*
X153402Y226900D03*
X153502Y236400D03*
G54D38*
X374500Y132698D03*
Y180402D03*
X451500Y176202D03*
Y139498D03*
X455300Y90098D03*
X418900Y91298D03*
X461700Y139598D03*
X462100Y176302D03*
X514300Y135002D03*
G54D22*
X387598Y259800D03*
G54D38*
X135300Y332002D03*
X120100Y295698D03*
X135400Y295598D03*
X120100Y332002D03*
X231500Y368902D03*
X175500Y128898D03*
X159000Y402102D03*
X169000D03*
X68000Y379898D03*
G54D22*
X67198Y370700D03*
G54D38*
X232000Y130198D03*
X269500Y133898D03*
X259500D03*
X249500D03*
X325300Y107998D03*
G54D22*
X298102Y357500D03*
G54D38*
X358000Y338898D03*
X22600Y593598D03*
X535700Y532198D03*
G54D70*
X568300Y50031D03*
G54D19*
X365069Y110800D03*
X362769Y95400D03*
X523169Y528700D03*
X353769Y95400D03*
G54D70*
X510500Y426469D03*
G54D19*
X282550Y297352D03*
X78569Y269100D03*
X443569Y173100D03*
X413257Y141929D03*
G54D70*
X439500Y122969D03*
X444500D03*
G54D19*
X419031Y121000D03*
G54D70*
X433900Y124769D03*
G54D19*
X412659Y115229D03*
G54D70*
X384600Y221031D03*
X392400Y211731D03*
X384600Y229331D03*
G54D19*
X385531Y207300D03*
G54D70*
X384200Y237731D03*
G54D19*
X478731Y277500D03*
X480731Y296000D03*
G54D70*
X295000Y248565D03*
G54D19*
X321134Y260333D03*
G54D70*
X306566Y247565D03*
G54D19*
X227069Y428100D03*
G54D70*
X180500Y395469D03*
G54D19*
X220869Y377800D03*
X206469Y400700D03*
G54D70*
X208000Y395469D03*
X359647Y312569D03*
X132500Y129969D03*
X213600Y394769D03*
X515500Y54969D03*
X509500D03*
X98800Y388269D03*
X96800Y399269D03*
G54D19*
X130769Y140100D03*
Y135200D03*
G54D171*
X117176Y189000D03*
G54D146*
X151600Y185024D03*
G54D171*
X175577Y268500D03*
X506176Y152700D03*
G54D146*
X537100Y133424D03*
X573000D03*
X440500Y317976D03*
X404900Y316576D03*
G54D171*
X587076Y241000D03*
G54D146*
X543100Y334676D03*
G54D171*
X258176Y220800D03*
G54D146*
X284600Y208224D03*
X263000Y332524D03*
G54D171*
X107324Y354600D03*
G54D146*
X199200Y116824D03*
G54D72*
X96803Y282000D03*
G54D47*
X435900Y134947D03*
X443000Y136047D03*
X492200Y296603D03*
G54D72*
X515553Y296750D03*
X257547Y427500D03*
G54D21*
X570963Y348400D03*
X571163Y337600D03*
G54D73*
X548300Y357937D03*
X469300Y286337D03*
G54D227*
X554126Y63189D03*
X556094Y107283D03*
G54D226*
X581094Y78346D03*
X537000Y82283D03*
X581094Y96063D03*
G54D55*
X357083Y128695D03*
Y186471D03*
G54D219*
X102200Y258300D03*
G54D135*
X91275Y260269D03*
Y258300D03*
Y256331D03*
Y240584D03*
X113125Y244521D03*
G54D219*
X502100Y267100D03*
G54D135*
X491175Y269069D03*
Y267100D03*
Y265131D03*
Y249384D03*
X513025Y253321D03*
G54D96*
X318937Y345500D03*
G54D218*
X503000Y397608D03*
G54D125*
X499063Y391998D03*
G54D186*
X250178Y414800D03*
Y409800D03*
Y404800D03*
G54D94*
X302669Y332400D03*
G54D129*
X348000Y332650D03*
G54D220*
X66080Y305200D03*
G54D138*
X60568Y307169D03*
G54D147*
X33570Y90195D03*
G54D155*
X260695Y93430D03*
G54D147*
X477761Y343642D03*
G54D155*
X91836Y150943D03*
G54D147*
X314019Y73764D03*
X155170Y96895D03*
X217550Y92136D03*
X67850Y98836D03*
X116550Y98036D03*
G54D155*
X396569Y79339D03*
X339061Y70878D03*
G54D165*
X354105Y291307D03*
G54D168*
X306082Y117000D03*
G54D221*
X416600Y60639D03*
Y65561D03*
X356063Y62701D03*
Y67623D03*
G54D213*
X332539Y32800D03*
G54D180*
X518121Y79963D03*
X508721Y95963D03*
G54D161*
X194196Y196900D03*
G54D159*
X264500Y191004D03*
G54D125*
X197084Y379849D03*
G54D138*
X209486Y374337D03*
G54D203*
X196100Y370400D03*
G54D232*
X188596Y82855D03*
G54D233*
X144621Y123563D03*
G54D232*
X136737Y161621D03*
G54D204*
X152144Y299400D03*
Y294400D03*
Y289400D03*
G54D169*
X73900Y161704D03*
G54D70*
X281400Y483831D03*
X292900D03*
G54D22*
X82604Y557600D03*
G54D63*
X53354Y353500D03*
G54D19*
X122431Y167400D03*
G54D152*
X143464Y588160D03*
G54D167*
X476500Y51000D03*
Y56000D03*
Y61000D03*
Y66000D03*
Y71000D03*
Y76000D03*
Y81000D03*
Y86000D03*
Y91000D03*
G54D224*
X424141Y153676D03*
X429259D03*
X424141Y159700D03*
X429259D03*
X424141Y165724D03*
X429259D03*
G54D138*
X434180Y150842D03*
Y166590D03*
G54D164*
X436350Y430632D03*
Y428632D03*
X446350D03*
Y430632D03*
X495850Y434632D03*
Y436632D03*
X485850D03*
Y434632D03*
G54D163*
X30077Y467231D03*
X28077D03*
Y457231D03*
X30077D03*
X213500Y444000D03*
X211500D03*
Y434000D03*
X213500D03*
X34077Y480100D03*
X36077D03*
Y490100D03*
X34077D03*
G54D164*
X225789Y436801D03*
Y434801D03*
X235789D03*
Y436801D03*
G54D135*
X491175Y271037D03*
Y255289D03*
G54D31*
X186628Y77344D03*
G54D42*
X139109Y125531D03*
G54D31*
X134769Y156109D03*
G54D125*
X189928Y434381D03*
X176148D03*
X172211D03*
X170243D03*
Y453278D03*
X172211D03*
X176148D03*
X178117D03*
X185991D03*
X187959D03*
G54D138*
X194455Y445798D03*
G54D125*
X178117Y434381D03*
X185991D03*
X184022D03*
X182054D03*
X180085D03*
G54D135*
X91275Y262237D03*
Y246489D03*
X113125Y262237D03*
G54D125*
X404916Y224420D03*
X408853Y239380D03*
G54D228*
X446580Y106141D03*
G54D231*
X430832Y98266D03*
X432801D03*
X434769D03*
X436738D03*
X438706D03*
G54D228*
X446580Y108109D03*
G54D231*
X440675Y98266D03*
G54D229*
X436738Y114015D03*
G54D230*
X426895Y108109D03*
G54D231*
X442643Y98266D03*
G54D225*
X419564Y148627D03*
X433836D03*
X419564Y170773D03*
X433836D03*
G54D138*
X419220Y150842D03*
G54D125*
X393453Y363149D03*
G54D138*
X383020Y360590D03*
X295285Y268486D03*
X310246Y260612D03*
Y264549D03*
G54D108*
X553500Y535500D03*
X593000Y51000D03*
X28500D03*
G54D106*
X535978Y108305D03*
X582116Y62167D03*
G54D81*
X308500Y608200D03*
X293996Y588040D03*
X297600Y610100D03*
X525700Y23200D03*
X543458Y507458D03*
X554850Y432500D03*
X557950D03*
X568143Y507458D03*
X95200Y328700D03*
X95900Y333400D03*
G54D77*
X106200Y669900D03*
X116200D03*
X126200D03*
X136200D03*
X146200D03*
X156200D03*
X16200D03*
X166200D03*
X176200D03*
X186200D03*
X196200D03*
X206200D03*
X216200D03*
X226200D03*
X236200D03*
X246200D03*
X256200D03*
X26200D03*
X266200D03*
X276200D03*
X286200D03*
X296200D03*
X306200D03*
X316200D03*
X326200D03*
X336200D03*
X346200D03*
X356200D03*
X36200D03*
X366200D03*
X376200D03*
X386200D03*
X396200D03*
X406200D03*
X416200D03*
X426200D03*
X436200D03*
X446200D03*
X456200D03*
X46200D03*
X466200D03*
X476200D03*
X486200D03*
X496200D03*
X506200D03*
X516200D03*
X526200Y559900D03*
Y569900D03*
Y579900D03*
Y589900D03*
Y599900D03*
Y609900D03*
Y619900D03*
Y629900D03*
Y639900D03*
Y649900D03*
Y659900D03*
Y669900D03*
X536300Y557700D03*
X546300Y557600D03*
X556300D03*
X56200Y669900D03*
X566300Y557600D03*
X576300D03*
X586300D03*
X596300D03*
X604400Y415400D03*
Y425400D03*
Y435400D03*
Y445400D03*
Y455400D03*
Y465400D03*
Y475400D03*
Y485400D03*
Y495400D03*
Y505400D03*
Y515400D03*
Y525400D03*
Y535400D03*
Y545400D03*
X6200Y329900D03*
Y339900D03*
Y349900D03*
Y359900D03*
Y369900D03*
Y379900D03*
Y389900D03*
Y399900D03*
Y409900D03*
Y419900D03*
Y429900D03*
Y439900D03*
Y449900D03*
Y459900D03*
Y469900D03*
Y479900D03*
Y489900D03*
Y499900D03*
Y509900D03*
Y519900D03*
Y529900D03*
Y539900D03*
Y549900D03*
Y559900D03*
Y569900D03*
Y579900D03*
Y589900D03*
Y599900D03*
Y609900D03*
Y619900D03*
Y629900D03*
Y639900D03*
Y649900D03*
Y659900D03*
Y669900D03*
X66200D03*
X76200D03*
X86200D03*
X96200D03*
G54D81*
X42500Y522500D03*
X98500Y521500D03*
G54D77*
X115850Y524100D03*
G54D81*
X103500Y400000D03*
X271300Y89200D03*
X403500Y132800D03*
X406600D03*
X409700D03*
X423800Y124500D03*
G54D77*
X169400Y147700D03*
Y152700D03*
X174400Y147700D03*
Y152700D03*
X179400Y147700D03*
Y152700D03*
X192000Y215000D03*
Y220500D03*
X197000Y215000D03*
Y220500D03*
X260222Y57778D03*
X260790Y62700D03*
X338100Y234500D03*
Y239100D03*
Y243700D03*
X342700Y234500D03*
X384300Y286000D03*
Y290600D03*
Y295200D03*
Y299800D03*
X388900Y286000D03*
Y290600D03*
X413500Y98500D03*
X426500Y99000D03*
X505500Y110700D03*
Y117200D03*
X512500Y110700D03*
Y117200D03*
X519500Y110700D03*
Y117200D03*
G54D99*
X159000Y126100D03*
X161800Y125900D03*
X422882Y152053D03*
Y155253D03*
Y158076D03*
Y161276D03*
Y164100D03*
Y167300D03*
X425382Y152053D03*
Y155253D03*
Y158076D03*
Y161276D03*
Y164100D03*
Y167300D03*
X428000Y152053D03*
Y155253D03*
Y158076D03*
Y161276D03*
Y164100D03*
Y167300D03*
X430500Y152053D03*
Y155253D03*
Y158076D03*
Y161276D03*
Y164100D03*
Y167300D03*
G54D83*
X101400Y414900D03*
X101500Y418900D03*
X103500Y416900D03*
X105600Y414900D03*
Y418900D03*
X129332Y266200D03*
X133800Y136000D03*
Y140000D03*
X137800Y136000D03*
Y140000D03*
X192900Y398500D03*
X199400Y395169D03*
X212701Y437576D03*
Y440376D03*
X215601Y439053D03*
X216066Y140266D03*
X217500Y355031D03*
X218301Y437576D03*
Y440376D03*
X222700Y91800D03*
X229365Y436000D03*
Y441600D03*
X230842Y438700D03*
X231093Y445800D03*
X232165Y436000D03*
Y441600D03*
X245430Y436100D03*
Y441600D03*
X246907Y438700D03*
X248230Y436100D03*
Y441600D03*
X254800Y138800D03*
X262576Y436699D03*
Y442299D03*
X264053Y439399D03*
X265376Y436699D03*
Y442299D03*
X29400Y460831D03*
Y463631D03*
Y483700D03*
Y486500D03*
X299066Y261833D03*
Y265533D03*
Y269233D03*
X302766Y261833D03*
Y265533D03*
Y269233D03*
X306466Y261833D03*
Y265533D03*
Y269233D03*
X315100Y307500D03*
Y311600D03*
X317100Y309500D03*
X319100Y307400D03*
Y311600D03*
X32300Y462309D03*
Y485177D03*
X35000Y460831D03*
Y463631D03*
Y483700D03*
Y486500D03*
X353600Y103000D03*
Y107000D03*
Y99000D03*
X357600Y103000D03*
Y107000D03*
Y99000D03*
X358300Y209200D03*
Y213600D03*
X361600Y103000D03*
Y107000D03*
Y99000D03*
X361800Y211400D03*
X365300Y209200D03*
Y213600D03*
X430738Y102141D03*
Y106141D03*
Y110141D03*
X433738Y102141D03*
Y106141D03*
Y110141D03*
X436738Y102141D03*
Y106141D03*
Y110141D03*
X439738Y102141D03*
Y106141D03*
Y110141D03*
X439900Y429900D03*
Y435500D03*
X441377Y432600D03*
X442700Y429900D03*
Y435500D03*
X442738Y102141D03*
Y106141D03*
Y110141D03*
X456567Y429900D03*
Y435500D03*
X456600Y350400D03*
X458044Y432600D03*
X459367Y429900D03*
Y435500D03*
X473233Y429900D03*
Y435500D03*
X474710Y432600D03*
X476033Y429900D03*
Y435500D03*
X489500Y429800D03*
Y435400D03*
X490977Y432500D03*
X492300Y429800D03*
Y435400D03*
X510300Y384700D03*
X542600Y83600D03*
X54700Y287000D03*
X587454Y78346D03*
X63900Y303100D03*
Y307400D03*
X65931Y278831D03*
X66080Y305200D03*
X67131Y435400D03*
Y441000D03*
X68200Y303000D03*
Y307400D03*
X68609Y438100D03*
X69931Y435400D03*
Y441000D03*
X79159Y383838D03*
Y386838D03*
Y389838D03*
Y392838D03*
Y395838D03*
X82100Y273800D03*
X83159Y383838D03*
Y386838D03*
Y389838D03*
Y392838D03*
Y395838D03*
X85500Y435400D03*
Y441000D03*
X86977Y438100D03*
X87159Y383838D03*
Y386838D03*
Y389838D03*
Y392838D03*
Y395838D03*
X88300Y435400D03*
Y441000D03*
X89700Y156500D03*
X94400Y387831D03*
X96000Y301300D03*
G54D81*
X100900Y284000D03*
X101500Y436700D03*
X101974Y440700D03*
X102700Y388269D03*
X102746Y142746D03*
X106500Y93400D03*
X107000Y436800D03*
X109287Y452787D03*
X122100Y282500D03*
X122400Y239600D03*
X125400Y162500D03*
X127300Y103300D03*
X134800Y281400D03*
X136600Y130700D03*
X138100Y146200D03*
X147700Y289400D03*
Y294400D03*
Y299400D03*
X152500Y91041D03*
X155700Y141200D03*
X156900Y167100D03*
X159325Y91625D03*
X165700Y155453D03*
X175450Y402000D03*
X175500Y398500D03*
X176000Y395000D03*
X180400Y88175D03*
X188100Y365600D03*
Y370400D03*
Y375200D03*
X189600Y196900D03*
X192100Y365600D03*
Y370400D03*
Y375200D03*
X193031Y406000D03*
X194200Y97300D03*
X196100Y365600D03*
Y370400D03*
Y375200D03*
X197853Y65453D03*
X200100Y365600D03*
Y370400D03*
Y375200D03*
X204100Y365600D03*
Y370400D03*
Y375200D03*
X205000Y448400D03*
X206900Y84500D03*
X212200Y161500D03*
X214600Y148600D03*
X218498Y335400D03*
X221000Y381800D03*
X224800Y377800D03*
X231200Y377100D03*
X23300Y79600D03*
X233500Y395200D03*
X237900Y446500D03*
X240200Y174000D03*
X247500Y445800D03*
X247953Y196953D03*
X252400Y432200D03*
X25300Y90900D03*
X255100Y88200D03*
X256100Y78203D03*
X261500Y447500D03*
X262318Y99704D03*
X278384Y98484D03*
X280914Y285486D03*
X281584Y98484D03*
X283531Y350069D03*
X284200Y279300D03*
X287200Y298100D03*
X28900Y567500D03*
X291500Y248165D03*
X297000Y313000D03*
X297200Y307500D03*
X301100Y111700D03*
X302100Y69100D03*
X302400Y104500D03*
X304288Y336700D03*
X306300Y99600D03*
X306400Y95200D03*
X310000Y247565D03*
X313066Y294500D03*
X314631Y96669D03*
X318937Y340863D03*
X318964Y73764D03*
X321302Y274902D03*
X322100Y256600D03*
X324500Y94200D03*
X331500Y107998D03*
Y313576D03*
X334600Y103600D03*
X336126Y196226D03*
X336267Y192267D03*
X338400Y66100D03*
X338650Y35550D03*
X339500Y157700D03*
X340900Y124600D03*
X346000Y123600D03*
X347500Y309000D03*
X349400Y200100D03*
X349600Y195300D03*
X350300Y157600D03*
X350900Y123200D03*
X354105Y286000D03*
X355900Y123200D03*
X356063Y59700D03*
Y70663D03*
X360900Y123200D03*
X361100Y157700D03*
X361700Y246100D03*
X365900Y123200D03*
X369300Y209300D03*
X370500Y157800D03*
X371400Y127700D03*
X371500Y123200D03*
X371800Y186300D03*
X377600D03*
Y192000D03*
X377700Y123200D03*
Y127800D03*
X379100Y157800D03*
X380400Y222200D03*
X380500Y235000D03*
X380700Y229331D03*
X382100Y308700D03*
X382200Y207300D03*
X387000Y157800D03*
X390900Y158000D03*
X392300Y183000D03*
X393100Y208300D03*
X395900Y157900D03*
X395953Y270500D03*
X396300Y67431D03*
X397000Y182900D03*
X397400Y90600D03*
X402100Y235500D03*
X402200Y228400D03*
X403200Y157800D03*
X403600Y203700D03*
X405900Y231900D03*
X408900Y115229D03*
X409500Y228300D03*
Y235300D03*
X410000Y203800D03*
X411800Y181200D03*
X413257Y145443D03*
X415800Y121000D03*
X416200Y68800D03*
X416500Y203500D03*
X416600Y57400D03*
X422500Y447900D03*
X424600Y186700D03*
X428000Y193000D03*
Y196500D03*
X429600Y186700D03*
X431500Y193000D03*
Y196500D03*
X435000Y193000D03*
Y196500D03*
X435900Y131800D03*
X438500Y193000D03*
Y196500D03*
X441100Y343800D03*
Y349000D03*
X441500Y440000D03*
X443000Y132600D03*
X444000Y180700D03*
X445100Y177500D03*
X448600Y113880D03*
X448800Y122969D03*
X449300Y181400D03*
X449600Y134200D03*
X450900Y157800D03*
X452900Y82900D03*
X453600Y181400D03*
X454400Y134200D03*
X456000Y440800D03*
X456700Y157700D03*
X458146Y53854D03*
X459300Y181400D03*
X459600Y134200D03*
X461700Y265600D03*
X461900Y261000D03*
X462200Y157800D03*
X462300Y279297D03*
X463000Y181500D03*
X464300Y134300D03*
X466400Y441200D03*
X467700Y56000D03*
Y91000D03*
X467869Y100069D03*
X467900Y48800D03*
Y60800D03*
Y64500D03*
X468200Y71100D03*
Y86000D03*
X468300Y76000D03*
Y81000D03*
X469900Y345900D03*
X47200Y274300D03*
Y277800D03*
X47300Y281700D03*
X474137Y287237D03*
X475208Y271138D03*
X475400Y277000D03*
X477500Y296500D03*
X479800Y20900D03*
X480960Y299400D03*
X481440Y230000D03*
Y233100D03*
Y236200D03*
Y239300D03*
Y242400D03*
X481500Y333200D03*
X486600Y440500D03*
X486900Y104200D03*
X489800Y29600D03*
X489949Y20600D03*
Y42597D03*
X495600Y255300D03*
X495900Y383131D03*
X496703Y296603D03*
X496800Y293500D03*
X496978Y417200D03*
X498600Y260100D03*
Y267100D03*
Y274100D03*
X499398Y18600D03*
Y42597D03*
X500000Y395900D03*
Y399600D03*
X502100Y65831D03*
X503500Y77994D03*
X505600Y260100D03*
Y267100D03*
Y274100D03*
X506000Y395900D03*
Y399600D03*
X506900Y17800D03*
X507200Y29400D03*
X508721Y101321D03*
X510800Y140400D03*
X511000Y401400D03*
X513000Y60100D03*
X515400Y140400D03*
X516300Y73700D03*
X517500Y101513D03*
X518295Y42597D03*
X519000Y295800D03*
X519500Y54969D03*
X520200Y19900D03*
X522100Y354500D03*
Y357900D03*
X522600Y361900D03*
X523169Y534931D03*
X523400Y461600D03*
X523500Y466300D03*
X523800Y295900D03*
X52734Y100100D03*
X527300Y19400D03*
X527744Y42597D03*
X528400Y461600D03*
X528500Y466300D03*
X529102Y532198D03*
X529600Y227200D03*
X530300Y524500D03*
X531900Y25100D03*
X533400Y461600D03*
X533500Y466300D03*
X539200Y461500D03*
X539300Y466200D03*
X540343Y19800D03*
Y42597D03*
X543398Y532198D03*
X544600Y461100D03*
X544700Y465800D03*
X549300Y338700D03*
X549400Y342300D03*
X553100Y338700D03*
X553300Y342300D03*
X553800Y71500D03*
X554469Y359969D03*
X556000Y100000D03*
X556700Y339000D03*
X557100Y342100D03*
X558600Y68800D03*
X560700Y337800D03*
Y341300D03*
X561000Y330700D03*
X561400Y334300D03*
X563800Y80000D03*
X564300Y353200D03*
X568300Y45800D03*
X569200Y297000D03*
X574677Y96216D03*
X575500Y302200D03*
X57650Y98801D03*
X580000Y302300D03*
X580600Y105700D03*
X580700Y356200D03*
X583900Y321900D03*
X584400Y304700D03*
Y309400D03*
Y314400D03*
X586400Y374469D03*
X68400Y447300D03*
X70600Y284200D03*
X78300Y102500D03*
X79200Y107500D03*
X80200Y551772D03*
X82604Y564396D03*
X86200Y362100D03*
X86400Y133650D03*
X86700Y259900D03*
X89954Y447239D03*
X92700Y401000D03*
X93169Y409731D03*
X99095Y540500D03*
G54D77*
X102200Y258300D03*
X102447Y340953D03*
X104500Y384600D03*
X105400Y251400D03*
X105600Y265300D03*
X111900Y289100D03*
X120100Y289900D03*
X122100Y172300D03*
X122200Y181000D03*
X123800Y115700D03*
X127202Y332002D03*
X130700Y73300D03*
X131100Y199800D03*
X131200Y190200D03*
X131400Y181000D03*
X131500Y172300D03*
X132700Y82500D03*
X135300Y339100D03*
X135400Y290000D03*
X138964Y596959D03*
X141200Y172400D03*
X141700Y180700D03*
X143464Y596959D03*
X147964D03*
X151900Y172300D03*
X159000Y248500D03*
X159500Y224000D03*
X160900Y179500D03*
X161300Y172300D03*
X170500Y115500D03*
Y122500D03*
X172500Y195300D03*
X172900Y189800D03*
X173000Y184000D03*
X176100Y348300D03*
X176400Y73100D03*
Y81400D03*
X178000Y115500D03*
Y122500D03*
X178500Y105500D03*
X180500Y277600D03*
X183000Y184000D03*
Y195000D03*
X183300Y189600D03*
X184700Y260100D03*
X185700Y274900D03*
X186500Y254800D03*
X187698Y339698D03*
X189500Y111000D03*
X202398Y421302D03*
X208500Y111000D03*
X211750Y400250D03*
X21700Y587200D03*
X222500Y123500D03*
X233100Y429100D03*
X234700Y303500D03*
X247053Y369953D03*
X248600Y388500D03*
X248800Y394100D03*
Y399800D03*
X251500Y128000D03*
X251700Y82200D03*
X251900Y74600D03*
X252600Y320600D03*
X253100Y427500D03*
X254000Y123000D03*
X256500Y128000D03*
X26100Y360200D03*
X261700Y293900D03*
X262900Y320600D03*
X264500Y196000D03*
Y201100D03*
X266898Y23600D03*
X269600Y201100D03*
X272100Y320500D03*
X274800Y193300D03*
X286400Y482300D03*
X290200Y303600D03*
X291300Y42200D03*
X292900Y479200D03*
X295500Y46500D03*
X298102Y364202D03*
X298200Y203800D03*
X304000Y203900D03*
X304400Y215500D03*
X304500Y209400D03*
X327800Y32800D03*
X329500Y136402D03*
X330900Y61000D03*
X335900D03*
X338300Y221700D03*
X343300Y328007D03*
X349700Y338898D03*
X350700Y222700D03*
Y230100D03*
X351036Y253036D03*
X35500Y61200D03*
Y67200D03*
X35600Y316554D03*
Y321654D03*
X358016Y253016D03*
X364500Y309500D03*
X380800Y65000D03*
X382700Y60200D03*
X387598Y252802D03*
Y266898D03*
X40700Y316554D03*
Y321654D03*
X415900Y323300D03*
X421000Y238300D03*
X422900Y323300D03*
X425900Y90500D03*
X429100Y323500D03*
X432600Y90500D03*
X440100Y90600D03*
X445900Y78000D03*
X446300Y69300D03*
X447900Y90700D03*
X455784Y401316D03*
X45800Y316554D03*
Y321654D03*
X489400Y171000D03*
X495400D03*
Y524600D03*
X501400Y171000D03*
X506000Y584400D03*
X509500Y430169D03*
X512100Y145400D03*
X517200Y149800D03*
Y154800D03*
X529400Y129000D03*
X540700Y362300D03*
X541000Y498600D03*
X544800Y129000D03*
X545800Y498954D03*
X548384Y46100D03*
X549821Y73421D03*
X551100Y491800D03*
X561000Y128500D03*
X562600Y259800D03*
X562800Y264600D03*
X566000Y128500D03*
X5700Y180500D03*
Y190500D03*
Y200500D03*
Y210500D03*
Y220500D03*
Y230500D03*
Y240500D03*
Y250500D03*
Y260500D03*
Y270500D03*
Y280500D03*
Y290500D03*
Y300500D03*
Y310500D03*
Y320500D03*
X570800Y5400D03*
X572200Y261000D03*
X57308Y364300D03*
X580000Y128500D03*
X580800Y5400D03*
X590800D03*
X592900Y256300D03*
X593000Y234100D03*
X593100Y226700D03*
Y248400D03*
X604000Y108000D03*
Y118000D03*
Y128000D03*
Y138000D03*
Y148000D03*
Y158000D03*
Y168000D03*
Y178000D03*
Y18000D03*
Y188000D03*
Y198000D03*
Y208000D03*
Y218000D03*
Y228000D03*
Y238000D03*
Y248000D03*
Y258000D03*
Y268000D03*
Y278000D03*
Y28000D03*
Y288000D03*
Y298000D03*
Y308000D03*
Y318000D03*
Y328000D03*
Y338000D03*
Y348000D03*
Y358000D03*
Y368000D03*
Y378000D03*
Y38000D03*
Y388000D03*
Y398000D03*
Y48000D03*
Y58000D03*
Y68000D03*
Y78000D03*
Y8000D03*
Y88000D03*
Y98000D03*
X60800Y372200D03*
X61000Y379600D03*
X64200Y266800D03*
X71400Y167400D03*
X73300Y107500D03*
X75500Y324100D03*
X76400Y167400D03*
X85734Y64600D03*
X90201Y87500D03*
X96500Y350000D03*
Y355500D03*
Y429500D03*
X97200Y344000D03*
X98900Y251500D03*
Y265400D03*
G54D99*
X232269Y150000D03*
X236600Y147638D03*
Y152362D03*
X240931Y150000D03*
X132997Y161621D03*
X136737Y159358D03*
Y163885D03*
X140477Y161621D03*
X142358Y123563D03*
X144621Y119823D03*
Y127303D03*
X146885Y123563D03*
X184856Y82855D03*
X188596Y80592D03*
Y85119D03*
X192337Y82855D03*
G54D81*
X200100Y406200D03*
X409700Y243600D03*
X419800Y288600D03*
G54D77*
X117300Y404500D03*
X123000Y404700D03*
X128600D03*
X134000D03*
X320441Y286000D03*
Y291000D03*
Y296000D03*
X325041Y286100D03*
Y291100D03*
Y296100D03*
X397500Y283000D03*
X399800Y267300D03*
X413300Y279850D03*
Y284450D03*
X417900Y279850D03*
Y284450D03*
X463000Y255000D03*
X463800Y231100D03*
X468300Y255100D03*
X470500Y224200D03*
X475800Y231100D03*
X481300Y211200D03*
Y218500D03*
X481500Y203400D03*
X74300Y405700D03*
X77000Y413000D03*
G54D81*
X447288Y199488D03*
X454288Y222388D03*
G54D77*
X221000Y199800D03*
X221300Y191200D03*
X222000Y236600D03*
X222200Y230700D03*
X223000Y212900D03*
X227800Y236200D03*
X271800Y239400D03*
X373400Y238200D03*
X373500Y244000D03*
X377100Y257300D03*
X377200Y262800D03*
X378500Y239000D03*
Y244000D03*
G54D81*
X70200Y238500D03*
Y242000D03*
X70300Y232100D03*
G54D77*
X78600Y172800D03*
X78800Y196000D03*
X78900Y181600D03*
X79100Y205600D03*
X83700Y200300D03*
X84700Y177900D03*
X87600Y205400D03*
X90100Y172900D03*
X98100Y208100D03*
G54D81*
X416800Y172300D03*
G54D83*
X202969Y388600D03*
X542500Y88300D03*
X574355Y79240D03*
G54D81*
X109300Y89500D03*
X124000Y92700D03*
X126000Y106500D03*
X145100Y94978D03*
X156400Y136200D03*
X165300Y91600D03*
X179050Y400250D03*
X189069Y383100D03*
X211369Y84400D03*
X226300Y89700D03*
X246100Y128700D03*
X255930Y93430D03*
X257900Y84900D03*
X278613Y306713D03*
X281700Y102100D03*
X282700Y293600D03*
X284900Y100900D03*
X29800Y85100D03*
X298469Y61700D03*
X310200Y78400D03*
X310800Y102100D03*
X314500Y79700D03*
X318900Y77400D03*
X319000Y93900D03*
X322900Y316000D03*
X324100Y265633D03*
X324300Y262533D03*
Y268733D03*
X324500Y259433D03*
X327500Y96900D03*
X329900Y162900D03*
Y167900D03*
Y172900D03*
X334900Y162900D03*
Y167900D03*
Y172900D03*
X339900Y162900D03*
X341800Y75600D03*
X344900Y162900D03*
X345876Y103500D03*
X357300Y115200D03*
X366800Y91700D03*
X369324Y102500D03*
X382400Y180100D03*
X385800Y164800D03*
X386000Y175400D03*
X392300Y253900D03*
X401800Y97200D03*
X402500Y253800D03*
X403400Y63800D03*
X421100Y132900D03*
X424200D03*
X427300D03*
X45300Y90791D03*
X457100Y73900D03*
X466900Y52686D03*
X467700Y104600D03*
X467731Y96131D03*
X469491Y339125D03*
X492600Y535100D03*
X492800Y410000D03*
X502400Y105400D03*
X504200Y74300D03*
X520700Y417200D03*
X554300Y57000D03*
X554500Y112500D03*
X57600Y95400D03*
X84300Y92400D03*
X86100Y148766D03*
X86200Y372500D03*
G54D77*
X112000Y406200D03*
X113500Y429000D03*
X128000Y130700D03*
X147600Y146700D03*
X188800Y426500D03*
X233200Y383500D03*
X234300Y298600D03*
X287200Y488200D03*
X297900Y489300D03*
X311600Y303250D03*
X322500Y129400D03*
X473500Y409700D03*
X489800Y398300D03*
X504500Y589800D03*
X509500Y435500D03*
X549000Y94000D03*
X587950Y103500D03*
X96800Y413537D03*
G54D81*
X379200Y173469D03*
X423216Y175916D03*
X440131Y146900D03*
X465000Y114500D03*
Y121000D03*
Y126500D03*
X467500Y146400D03*
X467600Y151400D03*
X468200Y168800D03*
X468300Y163900D03*
X469000Y133000D03*
X469100Y138300D03*
X472600Y168700D03*
X472700Y173700D03*
X473500Y142400D03*
Y146500D03*
X476000Y171100D03*
X478600Y173800D03*
X413294Y132900D03*
X413700Y174300D03*
X414400Y169327D03*
X441700Y177900D03*
X251500Y197500D03*
X254500Y196000D03*
Y199100D03*
G54D77*
X264800Y171800D03*
Y177350D03*
Y182900D03*
X268700Y174400D03*
Y179950D03*
G54D81*
X334800Y151100D03*
X335200Y146500D03*
X335300Y142400D03*
X339200Y151100D03*
X343800D03*
X369300Y152000D03*
X382800Y141500D03*
X397200Y84600D03*
G54D77*
X404900Y81400D03*
X405900Y68000D03*
G54D81*
X430400Y174600D03*
G54D83*
X485405Y258900D03*
G54D81*
X499400Y249900D03*
G54D77*
X527550Y182000D03*
Y187000D03*
X532000Y179500D03*
Y184000D03*
G54D81*
X238369Y129269D03*
X259600Y156700D03*
X197863Y523100D03*
X284100Y511600D03*
G54D77*
X252961Y526800D03*
G54D81*
X286200Y105200D03*
X291900Y104900D03*
X296900Y104800D03*
X321800Y97800D03*
X337800Y78300D03*
G54D77*
X325700Y125500D03*
X346300Y72400D03*
X351400Y72600D03*
G54D81*
X315400Y109818D03*
G54D83*
X557650Y112600D03*
G54D81*
X555800Y46300D03*
X521000Y90400D03*
X278384Y77011D03*
X281584D03*
G54D77*
X320900Y59000D03*
X324300Y62500D03*
G54D81*
X509400Y74000D03*
X330635Y67122D03*
X333857Y66027D03*
G54D77*
X108600Y6500D03*
X118600D03*
X119500Y70200D03*
X128600Y6500D03*
X138600D03*
X148600D03*
X158600D03*
X168600D03*
X178600D03*
X188600D03*
X198600D03*
X208600D03*
X218600D03*
X228600D03*
X238600D03*
X240033Y63036D03*
X248600Y6500D03*
X258600D03*
X268600D03*
X278600D03*
X28600D03*
X288600D03*
X298600D03*
X308600D03*
X318600D03*
X328600D03*
X338600D03*
X348600D03*
X358600D03*
X368600D03*
X378600D03*
X38600D03*
X388600D03*
X398600D03*
X408600D03*
X418600D03*
X428600D03*
X438600D03*
X447600Y6400D03*
X48600Y6500D03*
X58600D03*
X6200Y106000D03*
Y116000D03*
Y126000D03*
Y136000D03*
Y146000D03*
Y156000D03*
Y16000D03*
Y166000D03*
Y26000D03*
Y36000D03*
Y46000D03*
Y56000D03*
Y6000D03*
Y66000D03*
Y76000D03*
Y86000D03*
Y96000D03*
X68600Y6500D03*
X77300Y69200D03*
X78600Y6500D03*
X88600D03*
X98600D03*
G54D81*
X404800Y545500D03*
G54D77*
X189400Y553900D03*
X233915Y548950D03*
X316000Y549000D03*
Y555000D03*
Y560500D03*
Y566000D03*
X321500D03*
X369000Y632500D03*
X374500Y565500D03*
Y632500D03*
X380000Y565500D03*
X385000D03*
X455200Y556900D03*
G54D81*
X194400Y553900D03*
X253000Y561800D03*
X343036Y636324D03*
Y641324D03*
X345536Y638824D03*
X348036Y636324D03*
Y641324D03*
X405200Y538700D03*
X444700Y559300D03*
G54D77*
X309400Y537300D03*
X309500Y525200D03*
Y531500D03*
X315700Y537300D03*
X315800Y531500D03*
X315900Y525200D03*
X334300Y622500D03*
X338450Y620550D03*
X351000Y621500D03*
X355500D03*
X356000Y649500D03*
X358500Y645500D03*
X361500Y649500D03*
X364000Y645500D03*
X366500Y649500D03*
X369000Y621500D03*
X373500D03*
G54D81*
X159600Y644800D03*
X505504Y594904D03*
Y614996D03*
X521445Y29100D03*
X488500Y593000D03*
X495500Y520000D03*
G54D77*
X432700Y517400D03*
G54D81*
X489800Y563900D03*
X525600Y29300D03*
X505521Y564600D03*
X198908Y518400D03*
X41000Y511000D03*
X554800Y346100D03*
X389516Y368016D03*
G54D77*
X135800Y512500D03*
Y524500D03*
X135900Y518400D03*
X139600Y521600D03*
X148100Y478900D03*
X153200Y479200D03*
X158100Y479300D03*
X323700Y480500D03*
X342100Y480300D03*
X391900Y524700D03*
G54D83*
X173069Y439830D03*
Y443830D03*
Y447830D03*
X177069Y439830D03*
Y443830D03*
Y447830D03*
X181069Y439830D03*
Y443830D03*
Y447830D03*
X185069Y439830D03*
Y443830D03*
Y447830D03*
X189069Y439830D03*
Y443830D03*
Y447830D03*
G54D81*
X196800Y485600D03*
X370800Y356300D03*
X377800Y530900D03*
X387000Y348700D03*
Y358700D03*
X390500Y353700D03*
X394000Y348700D03*
Y358700D03*
X397000Y339500D03*
X401800Y369800D03*
X426100Y402900D03*
G54D77*
X127800Y457700D03*
X128100Y452600D03*
X132200Y418200D03*
X138600Y418600D03*
X166600Y457260D03*
X324200Y518500D03*
X343100Y520300D03*
X356300Y359800D03*
X372800Y525200D03*
X378000Y334500D03*
X411500Y354500D03*
X420100Y500100D03*
X420200Y486600D03*
X420600Y493600D03*
X421000Y481600D03*
X425000Y440700D03*
G54D81*
X386050Y367450D03*
X430200Y365100D03*
G54D77*
X409200Y456200D03*
G54D83*
X133600Y480800D03*
X133910Y478319D03*
G54D81*
X164300Y450400D03*
X167700Y434400D03*
X195000Y456700D03*
G54D77*
X127800Y439400D03*
X217100Y419400D03*
X34631Y447369D03*
X63400Y412300D03*
X76000Y423500D03*
G54D81*
X164200Y444300D03*
X167000Y425900D03*
X204100Y439555D03*
G54D77*
X148600Y465100D03*
X76500Y429000D03*
G54D81*
X45277Y450500D03*
X64900Y448700D03*
X263453Y431953D03*
G54D77*
X277100Y434000D03*
X277600Y440600D03*
Y456400D03*
G54D81*
X145900Y390700D03*
X149500Y387800D03*
Y393500D03*
X152800Y390800D03*
G54D77*
X138700Y371900D03*
G54D81*
X195500Y387500D03*
X227000Y395000D03*
G54D83*
X219800Y359500D03*
X224800Y354500D03*
Y359500D03*
X234600Y331200D03*
Y333700D03*
G54D81*
X84900Y302100D03*
X88700Y302200D03*
X92300D03*
X305900Y364500D03*
X209500Y361247D03*
X539400Y348700D03*
X539600Y345500D03*
X441100Y331595D03*
Y336795D03*
X503700Y407400D03*
X520700Y411800D03*
G54D77*
X459300Y315700D03*
Y320700D03*
X465600Y315700D03*
Y320700D03*
X470600Y315700D03*
Y320700D03*
X475600Y315700D03*
Y320700D03*
X481700Y315700D03*
Y320700D03*
X492300Y351900D03*
X492600Y356900D03*
X500600Y354800D03*
X505400Y354600D03*
X510000D03*
G54D81*
X299866Y245566D03*
X321265Y270965D03*
G54D77*
X111800Y306400D03*
X111900Y313000D03*
X141550Y321800D03*
X142300Y328300D03*
X142400Y307700D03*
X142500Y314300D03*
X143900Y335500D03*
Y342300D03*
X193500Y261400D03*
X198100D03*
X202800Y261500D03*
X336100Y212600D03*
X340700Y205100D03*
Y210100D03*
Y215100D03*
X346300Y205000D03*
Y210000D03*
Y215000D03*
X356100Y235000D03*
G54D81*
X413500Y223100D03*
X415500Y220000D03*
X416500Y216500D03*
X442900Y277100D03*
X446100Y276900D03*
X449500Y277000D03*
X453000D03*
X461500Y269500D03*
X461573Y275976D03*
X461600Y272800D03*
G54D77*
X254500Y375000D03*
X257000Y371000D03*
X259500Y375000D03*
X273000Y365000D03*
Y370500D03*
X283531Y334831D03*
X374004Y232500D03*
G54D81*
X300700Y350300D03*
X167100Y478200D03*
X310969Y328869D03*
X459383Y301583D03*
X468900Y329500D03*
X585600Y330900D03*
X585700Y335900D03*
Y340900D03*
X589000Y330900D03*
Y335900D03*
Y340900D03*
X526500Y308800D03*
X526800Y305500D03*
X530600Y305700D03*
X534400Y297000D03*
X538200Y297100D03*
X543200Y296900D03*
X528000Y259500D03*
X530700Y262000D03*
X536000Y262500D03*
X560700Y302300D03*
X561100Y305600D03*
Y312900D03*
X561300Y308900D03*
X562800Y322500D03*
X562900Y318200D03*
X566600Y322900D03*
X567200Y318200D03*
G54D77*
X528500Y204500D03*
Y209500D03*
X533500Y216000D03*
X534500Y224000D03*
X547500Y228500D03*
Y236000D03*
X549000Y262000D03*
Y267100D03*
X555600D03*
X556000Y262000D03*
G54D81*
X409580Y218966D03*
X410761Y216100D03*
X425063Y284700D03*
X460223Y305900D03*
X463723D03*
X467223D03*
X469300Y332900D03*
X470723Y305900D03*
X474223D03*
X477722D03*
X481223Y302790D03*
Y305900D03*
G54D77*
X427000Y289000D03*
X429563Y284700D03*
X430784Y238200D03*
Y243200D03*
Y248200D03*
X434063Y284700D03*
X435284Y238200D03*
Y243200D03*
Y248200D03*
X439784Y238200D03*
Y243200D03*
Y248200D03*
X447000Y284500D03*
X451500D03*
X456000D03*
Y289000D03*
G54D81*
X83288Y449800D03*
X97500Y448000D03*
X308416Y279054D03*
X313650Y260250D03*
X276100Y285700D03*
X190496Y183700D03*
Y186900D03*
X194196Y183700D03*
X201500Y212500D03*
X278300Y244800D03*
X294355Y272855D03*
X300500Y289500D03*
G54D77*
X197400Y249200D03*
X197500Y255000D03*
X201201Y201256D03*
X202400Y249200D03*
X202500Y255000D03*
X203901Y197256D03*
X206701Y201256D03*
X209401Y197256D03*
X212201Y201256D03*
G54D81*
X299116Y277900D03*
X117400Y277400D03*
X290600Y263000D03*
G54D77*
X291134Y240600D03*
X295634D03*
X300134D03*
G54D81*
X486200Y269200D03*
G54D77*
X136501Y262200D03*
X140000Y276300D03*
Y281050D03*
Y285800D03*
X166700Y247900D03*
X172900Y220300D03*
X177800Y220400D03*
G54D81*
X291500Y255004D03*
X107000Y234200D03*
X116600D03*
G54D77*
X102100Y234400D03*
X111200D03*
X135000Y232300D03*
X135022Y245614D03*
X135100Y237600D03*
X136400Y213100D03*
X136800Y219300D03*
X143500Y218800D03*
G54D81*
X517300Y242631D03*
G54D77*
X496469Y200973D03*
Y206000D03*
X500996Y200973D03*
X509200Y216800D03*
Y221700D03*
X514750Y216800D03*
X518000Y221700D03*
X520300Y216800D03*
X593491Y209243D03*
Y214242D03*
Y219243D03*
X594291Y173543D03*
Y178543D03*
Y183543D03*
G54D81*
X67500Y212700D03*
X71000D03*
X82600Y235600D03*
X88200Y236200D03*
X93000D03*
X97900D03*
G54D77*
X25800Y235800D03*
X29900Y231600D03*
X34500Y235800D03*
G54D81*
X102400Y206800D03*
X108000Y206600D03*
X113500D03*
X119200Y206700D03*
X126100Y230900D03*
X129300Y227700D03*
Y230900D03*
G54D77*
X63000Y169700D03*
X69100Y187000D03*
X69400Y173800D03*
Y181100D03*
X374000Y222500D03*
Y227500D03*
G54D81*
X402600Y216053D03*
X404093Y218770D03*
X420990Y203500D03*
X421000Y206600D03*
Y209700D03*
Y212800D03*
Y215900D03*
Y219000D03*
X421500Y200420D03*
X424600D03*
X469600Y290900D03*
G54D77*
X512400Y160900D03*
Y165400D03*
Y169900D03*
Y174400D03*
X516900Y160900D03*
Y165400D03*
Y169900D03*
Y174400D03*
G54D81*
X359000Y316000D03*
X368800Y205800D03*
X372600Y196100D03*
X372800Y200400D03*
X397900Y208500D03*
X544769Y526469D03*
G54D77*
X364000Y315500D03*
G54D81*
X204500Y454000D03*
X223500Y447000D03*
X146154Y163600D03*
X197100Y90300D03*
X200200D03*
X201200Y93300D03*
G54D77*
X152500Y112600D03*
X157000Y112500D03*
X161500Y112400D03*
X274000Y152000D03*
X279100Y130500D03*
X283600D03*
X288100D03*
X301600Y127300D03*
X30400Y74900D03*
Y80000D03*
X306600Y127300D03*
X457000Y109800D03*
X481900Y194300D03*
G54D81*
X92756Y160100D03*
G54D77*
X64000Y142600D03*
X64300Y149300D03*
X85400Y153600D03*
G54D81*
X213000Y155000D03*
X213600Y168600D03*
X215100Y144200D03*
X241334Y446174D03*
X254361Y447639D03*
X57900Y108300D03*
X57569Y103818D03*
X117500Y106950D03*
X106500Y101231D03*
X144050Y104350D03*
X145109Y100991D03*
X274000Y97204D03*
X265800Y99704D03*
X22200Y94291D03*
X27600Y102100D03*
X216800Y100900D03*
X206900Y95900D03*
X535500Y26400D03*
X540343Y23200D03*
G54D77*
X106000Y72200D03*
X112000Y69200D03*
X114041Y89431D03*
G54D81*
X67000Y75200D03*
X73295Y100805D03*
G54D77*
X70400Y69100D03*
G54D81*
X160300Y98863D03*
G54D77*
X161400Y104800D03*
X419300Y81500D03*
X424200Y81300D03*
G54D81*
X325800Y83500D03*
G54D77*
X364500Y61200D03*
X369000Y65400D03*
G54D81*
X308000Y556437D03*
X294000Y580000D03*
X521500Y24100D03*
X221200Y83200D03*
X222500Y95300D03*
G54D77*
X227500Y83800D03*
G54D81*
X388597Y68303D03*
X392569Y67431D03*
X309400Y65900D03*
G54D77*
X346900Y59000D03*
X351900D03*
G54D81*
X425400Y143500D03*
X513500Y68700D03*
X38643Y86800D03*
G54D77*
X41000Y99291D03*
G54D81*
X263100Y88735D03*
G54D77*
X267000Y41100D03*
G54D81*
X431700Y441700D03*
X479400D03*
G54D77*
X304598Y46200D03*
X326250Y38150D03*
X330750D03*
X332400Y24700D03*
X337100Y25100D03*
G54D81*
X448100Y441300D03*
X462900Y441481D03*
G54D77*
X552500Y367600D03*
Y372600D03*
Y377600D03*
X559200Y369400D03*
Y374200D03*
Y379000D03*
X564700Y369550D03*
Y374200D03*
Y379000D03*
X577000Y437500D03*
Y442500D03*
X583000Y437500D03*
Y442500D03*
X589000Y437500D03*
Y442500D03*
G54D83*
X199200Y389200D03*
G54D81*
X208000Y405000D03*
G54D83*
X197500Y356000D03*
G54D81*
X180500Y325400D03*
X203872Y354349D03*
X189500Y405400D03*
X190431Y356036D03*
X519661Y402539D03*
X87237Y376000D03*
X587300Y348800D03*
Y353800D03*
Y358800D03*
Y363800D03*
Y368800D03*
X213000Y375000D03*
X402300Y364600D03*
X402200Y359100D03*
X376000Y363500D03*
X398000Y344000D03*
X400500Y342000D03*
X400796Y345400D03*
X479000Y350000D03*
X385500Y340000D03*
X65100Y315000D03*
G54D83*
X485636Y282818D03*
G54D81*
X475400Y283300D03*
X428212Y256500D03*
X435388Y279100D03*
X516400Y287100D03*
X520200Y273753D03*
X530900Y296600D03*
G54D83*
X85200Y273800D03*
G54D81*
X116869Y285800D03*
X120550Y267200D03*
X433400Y256900D03*
X438500D03*
X134300Y277300D03*
X86000Y263400D03*
G54D83*
X525900Y253801D03*
G54D81*
X472747Y261647D03*
X530900Y283500D03*
Y286600D03*
X294000Y257700D03*
G54D83*
X487308Y261303D03*
G54D81*
X458900Y295500D03*
X122500Y257300D03*
X447912Y232388D03*
X454988Y254688D03*
G54D83*
X485373Y251459D03*
G54D81*
X537631Y257700D03*
X486966Y248800D03*
G54D77*
X492400Y179000D03*
X496427Y176600D03*
Y181600D03*
X509200Y192600D03*
Y197500D03*
X514750Y192600D03*
X518000Y197500D03*
X520300Y192600D03*
G54D81*
X122400Y250400D03*
X135700Y268600D03*
Y271800D03*
X72400Y260300D03*
X74500Y238500D03*
X421700Y230000D03*
X445800Y254700D03*
X450200D03*
X453700Y232100D03*
X418550Y225350D03*
X443700Y222200D03*
X448800D03*
X389469Y203931D03*
X487000Y134800D03*
X543063Y96463D03*
G54D77*
X159236Y598700D03*
X163936D03*
X168636D03*
X22500Y509000D03*
X27500D03*
X28200Y562202D03*
X75900Y363700D03*
X81200Y363600D03*
X87950Y551550D03*
G54D81*
X217800Y82800D03*
G54D77*
X448500Y99000D03*
X461600Y104800D03*
Y99700D03*
X163936Y536100D03*
X168636D03*
G54D81*
X65400Y521000D03*
G54D77*
X111600Y521600D03*
X154400Y536500D03*
X159100D03*
X95500Y525500D03*
G54D81*
X51000Y286800D03*
X74900Y303231D03*
X75100Y285600D03*
Y288700D03*
Y291800D03*
Y294900D03*
G54D77*
X45800Y351000D03*
Y358100D03*
G54D81*
X80700Y357900D03*
X84300Y358000D03*
X561600Y360300D03*
X567300Y41800D03*
X230005Y396591D03*
X475300Y350100D03*
X562500Y356400D03*
X301500Y339500D03*
X209500Y388000D03*
X75716Y335016D03*
X389563Y271000D03*
X407169Y256000D03*
G54D77*
X146400Y536541D03*
X47874Y520481D03*
X81857Y521571D03*
X134500Y536400D03*
X140300Y536500D03*
G54D83*
X575300Y71500D03*
G54D81*
X386100Y309000D03*
X397400Y253900D03*
X446000Y159000D03*
X397600Y243300D03*
X368600Y175100D03*
X393500Y243600D03*
X570521Y123500D03*
X405300Y243400D03*
X525500Y52000D03*
X458900Y230300D03*
X462700Y224500D03*
G54D83*
X370300Y90700D03*
G54D81*
X356000Y637000D03*
X376079Y645921D03*
X411500Y386250D03*
G54D77*
X377500Y557000D03*
X382500D03*
X387500D03*
X392500D03*
X397500D03*
G54D83*
X127000Y465300D03*
Y467800D03*
G54D81*
X489300Y402800D03*
X496591Y413822D03*
G54D77*
X526000Y411000D03*
X526200Y417000D03*
X530908Y410192D03*
Y416692D03*
X536500Y422000D03*
X536908Y410192D03*
Y416692D03*
G54D81*
X376000Y360000D03*
X61500Y314500D03*
G54D83*
X466100Y290700D03*
G54D81*
X357400Y239900D03*
Y243000D03*
X429000Y353000D03*
Y359000D03*
G54D77*
X61000Y545600D03*
X85400Y528500D03*
G54D81*
X442900Y548100D03*
G54D77*
X490700Y521900D03*
X443450Y517832D03*
X466052Y531300D03*
X438436Y517832D03*
X491000Y529100D03*
X118900Y545900D03*
X70000Y523163D03*
X106300Y545850D03*
X74600Y525650D03*
X229361Y521711D03*
X276924Y544361D03*
X234263Y521037D03*
X261924Y544361D03*
X69139Y546161D03*
X90200Y528500D03*
X473487Y520850D03*
X482200Y541200D03*
X468436Y519332D03*
X475300Y540700D03*
X433621Y539900D03*
X457600Y522300D03*
X428500Y542600D03*
X452600Y522900D03*
X102400Y529200D03*
X110500Y527700D03*
X219239Y544361D03*
X244347Y521711D03*
X229424Y544361D03*
X249361Y521711D03*
X263900Y523200D03*
X269500Y524723D03*
G54D81*
X425100Y523200D03*
G54D77*
X485500Y521900D03*
G54D81*
X203765Y79300D03*
X203900Y74500D03*
G54D77*
X140900Y80900D03*
Y86900D03*
X102200Y100800D03*
Y105800D03*
X154400Y160400D03*
X161300Y165300D03*
G54D81*
X127900Y109800D03*
X148000Y108000D03*
X61300Y90100D03*
X64400D03*
X68800Y108100D03*
Y111600D03*
X228500Y419000D03*
X203800Y417500D03*
X177600Y428400D03*
X202600Y432700D03*
X584500Y50000D03*
X478100Y363300D03*
X477200Y399831D03*
X522800Y58900D03*
G54D83*
X483442Y44383D03*
G54D81*
X439417Y421846D03*
G54D83*
X223000Y439600D03*
Y442900D03*
X483357Y21967D03*
G54D81*
X227908Y446941D03*
G54D83*
X487007Y44383D03*
G54D81*
X443583Y421846D03*
G54D83*
X487091Y21967D03*
G54D81*
X234093Y446664D03*
G54D83*
X492891Y44383D03*
G54D81*
X483100Y441300D03*
G54D83*
X492806Y21867D03*
G54D81*
X213500Y447250D03*
G54D83*
X496456Y44383D03*
G54D81*
X491400Y440900D03*
G54D83*
X496540Y21867D03*
G54D81*
X219500Y446950D03*
G54D83*
X502255Y44645D03*
G54D81*
X472917Y421346D03*
G54D83*
X502255Y21567D03*
G54D81*
X258100Y447300D03*
G54D83*
X505989Y44645D03*
G54D81*
X477083Y421346D03*
G54D83*
X505989Y21567D03*
G54D81*
X267700Y448800D03*
G54D83*
X511788Y44383D03*
G54D81*
X456017Y420317D03*
G54D83*
X511704Y21667D03*
G54D81*
X244501Y447411D03*
G54D83*
X515354Y44383D03*
G54D81*
X460183Y420317D03*
G54D83*
X515438Y21667D03*
G54D81*
X251082Y446740D03*
X500100Y51000D03*
X530894Y44500D03*
X562990Y76374D03*
X520469Y51031D03*
X530900Y17900D03*
X550200Y69000D03*
X534043Y43157D03*
X586700Y66800D03*
X534043Y22057D03*
X501000Y95300D03*
X500700Y86800D03*
Y82700D03*
X500510Y75910D03*
X504884Y68084D03*
X543800Y101600D03*
X388800Y85500D03*
X519100Y58900D03*
X525400Y324400D03*
X399500Y116000D03*
X508721Y104800D03*
X525400Y314400D03*
X75000Y447500D03*
X78164Y450000D03*
X110754Y444917D03*
X26006Y476500D03*
X30500D03*
X110754Y449083D03*
X26006Y493000D03*
X30500Y493050D03*
X33506Y453000D03*
X36706D03*
X86550Y447650D03*
X34006Y471000D03*
X38006D03*
X38200Y463000D03*
X92800Y449100D03*
G54D77*
X197300Y492000D03*
Y498500D03*
X205400Y518992D03*
X239600Y525200D03*
X187100Y527700D03*
X191800Y529600D03*
X192400Y521600D03*
X224361Y520739D03*
X258200Y524400D03*
G54D81*
X519000Y361100D03*
X519976Y406476D03*
X520700Y382700D03*
X189800Y191900D03*
X293700Y287300D03*
X194196Y205800D03*
X306000Y289500D03*
G54D83*
X485171Y255954D03*
G54D81*
X491700Y187100D03*
X508700Y245200D03*
X517400Y230700D03*
Y235500D03*
X495800Y196600D03*
X514550Y245800D03*
X231500Y159500D03*
X259500Y195500D03*
X242722Y159778D03*
X269500Y196000D03*
X489000Y361900D03*
Y365400D03*
Y368900D03*
Y372400D03*
Y375900D03*
Y379400D03*
Y382900D03*
X492500Y379400D03*
Y382900D03*
X508700Y406500D03*
G54D83*
X200500Y355652D03*
G54D81*
X174900Y311600D03*
X146700Y304400D03*
X193831Y355996D03*
X122000Y246600D03*
X129800Y222700D03*
X129500Y217700D03*
X131250Y214950D03*
X133000Y217700D03*
X42600Y256000D03*
X42700Y252200D03*
X46600Y256000D03*
X46700Y252200D03*
X71000Y226700D03*
G54D77*
Y222700D03*
G54D81*
X117000Y238400D03*
X128802Y209402D03*
X71100Y217700D03*
X86600Y246500D03*
X108216Y240584D03*
X75496Y230876D03*
X497300Y210800D03*
X520200Y256500D03*
X501096Y224596D03*
X504300Y246500D03*
X334500Y601800D03*
Y637500D03*
X338000Y601800D03*
X342000D03*
G54D77*
X480700Y515200D03*
G54D81*
X325150Y620825D03*
X350900Y650400D03*
X318500Y601000D03*
X322000D03*
X333300Y641400D03*
G54D77*
X463536Y515000D03*
G54D81*
X342900Y628357D03*
X370000Y601300D03*
X373500D03*
X377500D03*
G54D77*
X429000Y513500D03*
G54D81*
X336400Y630100D03*
X380329Y594500D03*
X342000Y650500D03*
X351500Y601000D03*
X355000D03*
X358500D03*
G54D77*
X448100Y520200D03*
G54D81*
X335000Y648500D03*
X363000Y594500D03*
X326800Y634000D03*
X344500Y594263D03*
X324200Y644800D03*
X326326Y594215D03*
X382109Y532709D03*
X394800Y368127D03*
X188500Y458000D03*
X197100Y481700D03*
X198500Y477900D03*
X198700Y471000D03*
Y474268D03*
X191896Y458500D03*
X194900Y475400D03*
X367331Y355831D03*
X431050Y402950D03*
X432500Y409000D03*
Y412500D03*
X379500Y363500D03*
X413500Y407000D03*
X204608Y405800D03*
X227000Y385000D03*
X291500Y251565D03*
G54D83*
X505706Y411831D03*
G54D81*
X499969Y406769D03*
X556000Y76500D03*
X252800Y423100D03*
X311581Y353051D03*
X380000Y367500D03*
X411400Y359100D03*
X411500Y364500D03*
X311063Y337900D03*
X101904Y324100D03*
X105100Y323653D03*
X107000Y311000D03*
X68500Y315000D03*
X98600Y324300D03*
X107000Y314500D03*
Y307000D03*
X76000Y318500D03*
X108950Y293650D03*
Y296750D03*
X112050Y293650D03*
Y296750D03*
X75000Y307169D03*
X85504Y317603D03*
X88604D03*
X91704D03*
X94804D03*
X359647Y305353D03*
X361854Y273984D03*
X384382Y270618D03*
X323500Y278694D03*
X347000Y273984D03*
X189000Y345000D03*
X189400Y262800D03*
X397900Y205100D03*
X553900Y353600D03*
X343900Y90600D03*
X450200Y53600D03*
X461640Y74100D03*
G54D83*
X517700Y269500D03*
G54D81*
X488000Y296400D03*
X565700Y330200D03*
X395100Y222100D03*
X346586Y628414D03*
X346816Y650500D03*
X359839Y619739D03*
X519200Y280000D03*
X123000Y277200D03*
X290300Y267100D03*
X310636Y276478D03*
X122800Y272500D03*
X83200Y270800D03*
X122847Y262500D03*
X203700Y180900D03*
X333100Y125600D03*
X431100Y559000D03*
X465300Y545100D03*
X313700Y264500D03*
X109000Y284000D03*
X179900Y259550D03*
X307687Y254500D03*
X179200Y252600D03*
X87100Y282000D03*
X393800Y230500D03*
Y237000D03*
X65000Y549500D03*
X79700Y529400D03*
X361400Y202500D03*
G54D83*
X135500Y170100D03*
G54D81*
X393700Y130500D03*
X218400Y563200D03*
X234547Y527111D03*
X235900Y166400D03*
X242000Y140000D03*
X129778Y156009D03*
G54D83*
X432150Y143550D03*
G54D81*
X415700Y124400D03*
X444069Y145500D03*
X96851Y138438D03*
G54D83*
X327000Y313400D03*
G54D81*
X106500Y403500D03*
X151669Y145069D03*
X588400Y98700D03*
X233200Y101900D03*
X554600Y123400D03*
X87697Y137700D03*
X92000Y124100D03*
X436000Y144500D03*
X242000Y136100D03*
G54D77*
X538600Y122600D03*
G54D83*
X103500Y361253D03*
X360300Y87000D03*
G54D81*
X100000Y403500D03*
X148800Y131100D03*
X266000Y292600D03*
X327000Y310100D03*
X562900Y95900D03*
X95774Y128500D03*
X159400Y122969D03*
X237100Y120300D03*
X375400Y117400D03*
X550189Y101711D03*
X560581Y122804D03*
X566821Y123220D03*
X99500Y392500D03*
X562800Y115994D03*
X189469Y97891D03*
X302300Y89969D03*
X397169Y130500D03*
X309900Y112200D03*
X90742Y107042D03*
G54D83*
X543400Y112600D03*
X549400Y112500D03*
X564100Y112900D03*
G54D81*
X186550Y387950D03*
X258969Y70700D03*
X47933Y84400D03*
X561847Y101282D03*
X289900Y72295D03*
X333800Y97900D03*
X565900Y101600D03*
G54D83*
X568724Y113040D03*
G54D81*
X127400Y99200D03*
X581100Y113600D03*
G54D83*
X575200Y113000D03*
G54D81*
X138700Y108100D03*
X396050Y116000D03*
X428300Y117500D03*
X531800Y100200D03*
X93434Y104965D03*
X171600Y106600D03*
X139300Y101974D03*
X166200Y104000D03*
X269600Y81700D03*
X44103Y96438D03*
X544800Y81400D03*
X574677Y99616D03*
X178500Y99200D03*
G54D83*
X531626Y94400D03*
G54D81*
X51498Y562202D03*
X62700Y564123D03*
X238673Y100608D03*
X582000Y120900D03*
X90418Y94145D03*
X140300Y97959D03*
X177300Y91600D03*
X239400Y88400D03*
X563100Y44900D03*
X77100Y91100D03*
X48797Y99897D03*
X586244Y95430D03*
X392631Y102100D03*
G54D83*
X355400Y90800D03*
X96700Y363600D03*
G54D81*
X144600Y132531D03*
X267100Y288827D03*
X327300Y306200D03*
X557600Y94200D03*
X99500Y407500D03*
X574677Y92481D03*
G54D83*
X531800Y89600D03*
G54D81*
X140100Y93958D03*
X172493Y91793D03*
X239100Y84300D03*
X560321Y47000D03*
X83200Y87100D03*
G54D83*
X322818Y86182D03*
G54D81*
X55800Y92300D03*
G54D83*
X363100Y116900D03*
G54D81*
X521200Y102600D03*
X586473Y90158D03*
X314100Y268200D03*
X588856Y93254D03*
X239900Y96900D03*
X333800Y94100D03*
X388300Y99300D03*
X574692Y88231D03*
X196000Y384000D03*
X551000Y98400D03*
X586300Y84100D03*
X508694Y278200D03*
X556100Y256500D03*
X588033Y87136D03*
G54D83*
X517200Y272600D03*
G54D81*
X549500Y255300D03*
X556452Y87952D03*
X563600Y83700D03*
X574700Y82900D03*
X542654Y78346D03*
X173800Y319100D03*
X525937Y81352D03*
X95989Y423511D03*
X183659Y72159D03*
G54D83*
X532200Y76800D03*
G54D81*
X169700Y330200D03*
X522550Y81050D03*
X95911Y418511D03*
X264100Y70400D03*
X268000Y69900D03*
X290200Y75732D03*
X342300Y93600D03*
X402900Y92200D03*
X543500Y73900D03*
X84300Y128100D03*
X302300Y73300D03*
X339061Y94739D03*
X396569Y102400D03*
X521300Y72400D03*
X89700Y127400D03*
X574619Y76151D03*
G54D83*
X531400Y73800D03*
G54D81*
X586700Y73700D03*
X564388Y71000D03*
X531350Y68650D03*
X289900Y68850D03*
X586700Y70300D03*
X294351Y61600D03*
G54D83*
X567300Y68800D03*
X570200Y68700D03*
G54D81*
X456300Y345500D03*
X525700Y334300D03*
X575100Y57400D03*
G54D83*
X577000Y66800D03*
G54D81*
X223131Y419269D03*
X518350Y517650D03*
X525500Y55500D03*
X545600Y68500D03*
X550800Y56900D03*
X561794Y57647D03*
G54D83*
X566550Y58150D03*
G54D81*
X356000Y640500D03*
X368400Y640469D03*
X111500Y550000D03*
X46502Y556400D03*
X203149Y554911D03*
X218400Y525000D03*
X67500Y564400D03*
X91800Y563600D03*
X246900Y561600D03*
X270900Y545200D03*
X450000Y559700D03*
X474300Y560000D03*
X406200Y552800D03*
X477121Y522732D03*
X114200Y564123D03*
X92100Y551500D03*
X224400Y562900D03*
X255500Y549500D03*
X433500Y544500D03*
X443395Y540500D03*
X62100Y528594D03*
X98100Y529958D03*
X435000Y522500D03*
X198400Y448800D03*
X208145Y560713D03*
X222356Y528288D03*
X199800Y443050D03*
X187647Y422247D03*
X201100Y436500D03*
X197400Y436400D03*
X63900Y425000D03*
X164100Y439400D03*
X187959Y431300D03*
X64100Y418069D03*
G54D83*
X89850Y402250D03*
G54D81*
X179000Y405000D03*
X180900Y385200D03*
X191700Y387300D03*
X262500Y67400D03*
X52800Y82800D03*
X562400Y119931D03*
X495000Y404700D03*
X520500Y387000D03*
X503000Y383239D03*
X510471Y388500D03*
X455600Y342100D03*
X466200Y340300D03*
X348969Y305800D03*
X307869Y310300D03*
X48631Y298031D03*
X278513Y293600D03*
X506100Y299500D03*
G54D83*
X63000Y295700D03*
X486100Y285800D03*
G54D81*
X487900Y291800D03*
X488000Y288100D03*
X83400Y280600D03*
X69200Y280400D03*
G54D77*
X30500Y242600D03*
X35000D03*
X64700Y129100D03*
X78700Y129700D03*
G54D81*
X115500Y550000D03*
X97000Y563600D03*
X181000Y380000D03*
X126800Y144000D03*
X422000Y143600D03*
X522500Y94800D03*
X123400Y139000D03*
X185863Y384620D03*
G54D83*
X360600Y119000D03*
G54D81*
X527000Y110300D03*
G54D83*
X360800Y90000D03*
X346400Y97400D03*
G54D81*
X469900Y342500D03*
X524500Y340500D03*
X526300Y67800D03*
G54D83*
X105200Y379400D03*
X96700Y366400D03*
G54D81*
X237500Y562300D03*
X273100Y562600D03*
X91400Y378100D03*
X178000Y373500D03*
X406100Y358400D03*
X404900Y352750D03*
X466800Y360800D03*
X367800Y365500D03*
X464952Y551100D03*
X478600Y559800D03*
X207700Y357593D03*
X379700Y343200D03*
X389000Y340000D03*
X378000Y339747D03*
X359900Y333600D03*
X364100Y333400D03*
G54D77*
X404400Y373200D03*
X406100Y377900D03*
G54D81*
X400986Y544200D03*
X430900Y522500D03*
G54D83*
X469094Y336050D03*
G54D81*
X465300Y335600D03*
X109300Y564700D03*
X97700Y551700D03*
X71700Y295800D03*
X234000Y543700D03*
X265800Y562282D03*
X208500Y384500D03*
X431500Y133200D03*
X469300Y273900D03*
X485408Y274343D03*
X123700Y265800D03*
G54D80*
X419359Y24581D03*
G54D79*
X405580D03*
X391800D03*
X378021D03*
X364241D03*
X419359Y42692D03*
X405580D03*
X391800D03*
X378021D03*
X364241D03*
G54D86*
X429202Y37101D03*
X354399D03*
G54D80*
X240500Y24581D03*
G54D79*
X226720D03*
X212941D03*
X240500Y42692D03*
X226720D03*
X212941D03*
G54D86*
X250342Y37101D03*
X203098D03*
G54D104*
X474201Y25280D03*
X546642D03*
X461898Y34335D03*
X558945D03*
G54D103*
X461898Y15634D03*
X558945D03*
G54D80*
X577882Y465390D03*
G54D79*
Y451610D03*
X559772Y465390D03*
Y451610D03*
G54D86*
X565362Y475232D03*
Y441768D03*
G54D80*
X27518Y129010D03*
G54D79*
Y142790D03*
X45628Y129010D03*
Y142790D03*
G54D86*
X40038Y119168D03*
Y152632D03*
G54D95*
X278032Y627866D03*
G54D88*
X273032Y617866D03*
X268032Y627866D03*
X263032Y617866D03*
X258032Y627866D03*
X253032Y617866D03*
X248032Y627866D03*
X243032Y617866D03*
X234842Y643614D03*
X244842D03*
X276260D03*
X286260D03*
G54D106*
X280236Y659362D03*
X240866D03*
G54D95*
X100872Y627866D03*
G54D88*
X95872Y617866D03*
X90872Y627866D03*
X85872Y617866D03*
X80872Y627866D03*
X75872Y617866D03*
X70872Y627866D03*
X65872Y617866D03*
X57683Y643614D03*
X67683D03*
X99100D03*
X109100D03*
G54D106*
X103076Y659362D03*
X63706D03*
G54D95*
X455197Y627866D03*
G54D88*
X450197Y617866D03*
X445197Y627866D03*
X440197Y617866D03*
X435197Y627866D03*
X430197Y617866D03*
X425197Y627866D03*
X420197Y617866D03*
X412008Y643614D03*
X422008D03*
X453425D03*
X463425D03*
G54D106*
X457402Y659362D03*
X418031D03*
G54D102*
X577100Y501157D03*
G54D97*
Y511000D03*
G54D90*
X35100Y417653D03*
G54D89*
X45100Y413637D03*
X35100Y409661D03*
X45100Y405645D03*
X35100Y401669D03*
X45100Y397653D03*
X35100Y393676D03*
X45100Y389661D03*
X25612Y430645D03*
Y421629D03*
Y385645D03*
Y376629D03*
G54D107*
X48604Y378676D03*
Y428676D03*
G54D105*
X31911Y435684D03*
Y371669D03*
G54D80*
X159808Y24581D03*
G54D79*
X146028D03*
X132249D03*
X118469D03*
X104690D03*
X90910D03*
X77131D03*
X63351D03*
X159808Y42692D03*
X146028D03*
X132249D03*
X118469D03*
X104690D03*
X90910D03*
X77131D03*
X63351D03*
G54D86*
X169650Y37101D03*
X53509D03*
G54D82*
X24000Y281800D03*
X586500D03*
Y24000D03*
X305300D03*
X24000D03*
Y539600D03*
X586500D03*
G54D93*
X519526Y482052D03*
G54D78*
X527400D03*
X519526Y489926D03*
X527400D03*
X519526Y497800D03*
X527400D03*
G54D12*
X18600Y-131100D02*
G01X583950D01*
X18600Y-91900D02*
G01X584100D01*
X18600Y-111100D02*
G01X584050D01*
X18600Y-151100D02*
G01X584100D01*
Y-151100D02*
G01Y-150950D01*
X18600Y-91769D02*
G01Y-171100D01*
X584100Y-91864D02*
G01Y-171100D01*
Y-171100D02*
G01X18600D01*
G54D10*
X29600Y-137233D02*
G01X28850Y-136733D01*
Y-136733D02*
G01X27975Y-136400D01*
Y-136400D02*
G01X26975D01*
Y-136400D02*
G01X25850Y-136900D01*
Y-136900D02*
G01X24975Y-137733D01*
Y-137733D02*
G01X24350Y-138733D01*
Y-138733D02*
G01X23850Y-140400D01*
Y-140400D02*
G01X23725Y-141900D01*
Y-141900D02*
G01X23975Y-143400D01*
Y-143400D02*
G01X24350Y-144400D01*
Y-144400D02*
G01X25100Y-145400D01*
Y-145400D02*
G01X25975Y-146067D01*
Y-146067D02*
G01X26850Y-146400D01*
Y-146400D02*
G01X27725D01*
Y-146400D02*
G01X28600Y-146067D01*
Y-146067D02*
G01X29350Y-145567D01*
Y-145567D02*
G01X29975Y-144900D01*
X33725Y-146400D02*
G01X36850Y-136400D01*
Y-136400D02*
G01X39975Y-146400D01*
X38850Y-142900D02*
G01X34850D01*
X44350Y-146400D02*
G01Y-136400D01*
Y-136400D02*
G01X47475D01*
Y-136400D02*
G01X48475Y-136900D01*
Y-136900D02*
G01X49100Y-137567D01*
Y-137567D02*
G01X49350Y-138900D01*
Y-138900D02*
G01X49100Y-140233D01*
Y-140233D02*
G01X48350Y-141067D01*
Y-141067D02*
G01X47475Y-141567D01*
Y-141567D02*
G01X44350D01*
X47475D02*
G01X49350Y-146400D01*
X54100D02*
G01Y-136400D01*
Y-136400D02*
G01X56600D01*
Y-136400D02*
G01X57600Y-136900D01*
Y-136900D02*
G01X58350Y-137567D01*
Y-137567D02*
G01X58975Y-138567D01*
Y-138567D02*
G01X59475Y-139734D01*
Y-139734D02*
G01X59600Y-141400D01*
Y-141400D02*
G01X59475Y-143067D01*
Y-143067D02*
G01X58975Y-144233D01*
Y-144233D02*
G01X58350Y-145234D01*
Y-145234D02*
G01X57600Y-145900D01*
Y-145900D02*
G01X56600Y-146400D01*
Y-146400D02*
G01X54100D01*
X74350D02*
G01Y-136400D01*
Y-136400D02*
G01X77475D01*
Y-136400D02*
G01X78475Y-136900D01*
Y-136900D02*
G01X79100Y-137567D01*
Y-137567D02*
G01X79350Y-138900D01*
Y-138900D02*
G01X79100Y-140233D01*
Y-140233D02*
G01X78350Y-141067D01*
Y-141067D02*
G01X77475Y-141567D01*
Y-141567D02*
G01X74350D01*
X77475D02*
G01X79350Y-146400D01*
X89350D02*
G01X84350D01*
Y-146400D02*
G01Y-136400D01*
Y-136400D02*
G01X89350D01*
X87350Y-141233D02*
G01X84350D01*
X94475Y-146400D02*
G01Y-136400D01*
Y-136400D02*
G01X99225D01*
X97475Y-141233D02*
G01X94475D01*
X106850Y-146733D02*
G01X106600Y-146567D01*
Y-146567D02*
G01Y-146233D01*
Y-146233D02*
G01X106850Y-146067D01*
Y-146067D02*
G01X107100Y-146233D01*
Y-146233D02*
G01Y-146567D01*
Y-146567D02*
G01X106850Y-146733D01*
Y-142234D02*
G01X106600Y-142067D01*
Y-142067D02*
G01Y-141733D01*
Y-141733D02*
G01X106850Y-141567D01*
Y-141567D02*
G01X107100Y-141733D01*
Y-141733D02*
G01Y-142067D01*
Y-142067D02*
G01X106850Y-142234D01*
X114350Y-146400D02*
G01Y-136400D01*
Y-136400D02*
G01X117350D01*
Y-136400D02*
G01X118350Y-136900D01*
Y-136900D02*
G01X119100Y-138067D01*
Y-138067D02*
G01X119350Y-139400D01*
Y-139400D02*
G01X119100Y-140733D01*
Y-140733D02*
G01X118475Y-141733D01*
Y-141733D02*
G01X117350Y-142234D01*
Y-142234D02*
G01X114350D01*
X126850Y-146400D02*
G01X125850Y-146233D01*
Y-146233D02*
G01X124975Y-145567D01*
Y-145567D02*
G01X124225Y-144567D01*
Y-144567D02*
G01X123725Y-143400D01*
Y-143400D02*
G01X123475Y-142067D01*
Y-142067D02*
G01Y-140733D01*
Y-140733D02*
G01X123725Y-139400D01*
Y-139400D02*
G01X124225Y-138233D01*
Y-138233D02*
G01X124975Y-137233D01*
Y-137233D02*
G01X125850Y-136567D01*
Y-136567D02*
G01X126850Y-136400D01*
Y-136400D02*
G01X127850Y-136567D01*
Y-136567D02*
G01X128725Y-137233D01*
Y-137233D02*
G01X129475Y-138233D01*
Y-138233D02*
G01X129975Y-139400D01*
Y-139400D02*
G01X130225Y-140733D01*
Y-140733D02*
G01Y-142067D01*
Y-142067D02*
G01X129975Y-143400D01*
Y-143400D02*
G01X129475Y-144567D01*
Y-144567D02*
G01X128725Y-145567D01*
Y-145567D02*
G01X127850Y-146233D01*
Y-146233D02*
G01X126850Y-146400D01*
X133100Y-136400D02*
G01X134850Y-146400D01*
Y-146400D02*
G01X136850Y-136400D01*
Y-136400D02*
G01X138850Y-146400D01*
Y-146400D02*
G01X140600Y-136400D01*
X149350Y-146400D02*
G01X144350D01*
Y-146400D02*
G01Y-136400D01*
Y-136400D02*
G01X149350D01*
X147350Y-141233D02*
G01X144350D01*
X154350Y-146400D02*
G01Y-136400D01*
Y-136400D02*
G01X157475D01*
Y-136400D02*
G01X158475Y-136900D01*
Y-136900D02*
G01X159100Y-137567D01*
Y-137567D02*
G01X159350Y-138900D01*
Y-138900D02*
G01X159100Y-140233D01*
Y-140233D02*
G01X158350Y-141067D01*
Y-141067D02*
G01X157475Y-141567D01*
Y-141567D02*
G01X154350D01*
X157475D02*
G01X159350Y-146400D01*
X174225Y-145067D02*
G01X175225Y-145900D01*
Y-145900D02*
G01X176350Y-146400D01*
Y-146400D02*
G01X177350D01*
Y-146400D02*
G01X178350Y-145900D01*
Y-145900D02*
G01X179100Y-145067D01*
Y-145067D02*
G01X179475Y-143900D01*
Y-143900D02*
G01X179225Y-142734D01*
Y-142734D02*
G01X178600Y-141733D01*
Y-141733D02*
G01X177475Y-141067D01*
Y-141067D02*
G01X175975Y-140733D01*
Y-140733D02*
G01X175100Y-140067D01*
Y-140067D02*
G01X174725Y-138900D01*
Y-138900D02*
G01X174975Y-137733D01*
Y-137733D02*
G01X175600Y-136900D01*
Y-136900D02*
G01X176475Y-136400D01*
Y-136400D02*
G01X177350D01*
Y-136400D02*
G01X178225Y-136733D01*
Y-136733D02*
G01X178975Y-137567D01*
X186850Y-146400D02*
G01X185850Y-146233D01*
Y-146233D02*
G01X184975Y-145567D01*
Y-145567D02*
G01X184225Y-144567D01*
Y-144567D02*
G01X183725Y-143400D01*
Y-143400D02*
G01X183475Y-142067D01*
Y-142067D02*
G01Y-140733D01*
Y-140733D02*
G01X183725Y-139400D01*
Y-139400D02*
G01X184225Y-138233D01*
Y-138233D02*
G01X184975Y-137233D01*
Y-137233D02*
G01X185850Y-136567D01*
Y-136567D02*
G01X186850Y-136400D01*
Y-136400D02*
G01X187850Y-136567D01*
Y-136567D02*
G01X188725Y-137233D01*
Y-137233D02*
G01X189475Y-138233D01*
Y-138233D02*
G01X189975Y-139400D01*
Y-139400D02*
G01X190225Y-140733D01*
Y-140733D02*
G01Y-142067D01*
Y-142067D02*
G01X189975Y-143400D01*
Y-143400D02*
G01X189475Y-144567D01*
Y-144567D02*
G01X188725Y-145567D01*
Y-145567D02*
G01X187850Y-146233D01*
Y-146233D02*
G01X186850Y-146400D01*
X194100Y-136400D02*
G01Y-143567D01*
Y-143567D02*
G01X194600Y-145067D01*
Y-145067D02*
G01X195600Y-146067D01*
Y-146067D02*
G01X196850Y-146400D01*
Y-146400D02*
G01X198100Y-146067D01*
Y-146067D02*
G01X199100Y-145067D01*
Y-145067D02*
G01X199600Y-143567D01*
Y-143567D02*
G01Y-136400D01*
X204350Y-146400D02*
G01Y-136400D01*
Y-136400D02*
G01X207475D01*
Y-136400D02*
G01X208475Y-136900D01*
Y-136900D02*
G01X209100Y-137567D01*
Y-137567D02*
G01X209350Y-138900D01*
Y-138900D02*
G01X209100Y-140233D01*
Y-140233D02*
G01X208350Y-141067D01*
Y-141067D02*
G01X207475Y-141567D01*
Y-141567D02*
G01X204350D01*
X207475D02*
G01X209350Y-146400D01*
X219600Y-137233D02*
G01X218850Y-136733D01*
Y-136733D02*
G01X217975Y-136400D01*
Y-136400D02*
G01X216975D01*
Y-136400D02*
G01X215850Y-136900D01*
Y-136900D02*
G01X214975Y-137733D01*
Y-137733D02*
G01X214350Y-138733D01*
Y-138733D02*
G01X213850Y-140400D01*
Y-140400D02*
G01X213725Y-141900D01*
Y-141900D02*
G01X213975Y-143400D01*
Y-143400D02*
G01X214350Y-144400D01*
Y-144400D02*
G01X215100Y-145400D01*
Y-145400D02*
G01X215975Y-146067D01*
Y-146067D02*
G01X216850Y-146400D01*
Y-146400D02*
G01X217725D01*
Y-146400D02*
G01X218600Y-146067D01*
Y-146067D02*
G01X219350Y-145567D01*
Y-145567D02*
G01X219975Y-144900D01*
X229350Y-146400D02*
G01X224350D01*
Y-146400D02*
G01Y-136400D01*
Y-136400D02*
G01X229350D01*
X227350Y-141233D02*
G01X224350D01*
X249600Y-137233D02*
G01X248850Y-136733D01*
Y-136733D02*
G01X247975Y-136400D01*
Y-136400D02*
G01X246975D01*
Y-136400D02*
G01X245850Y-136900D01*
Y-136900D02*
G01X244975Y-137733D01*
Y-137733D02*
G01X244350Y-138733D01*
Y-138733D02*
G01X243850Y-140400D01*
Y-140400D02*
G01X243725Y-141900D01*
Y-141900D02*
G01X243975Y-143400D01*
Y-143400D02*
G01X244350Y-144400D01*
Y-144400D02*
G01X245100Y-145400D01*
Y-145400D02*
G01X245975Y-146067D01*
Y-146067D02*
G01X246850Y-146400D01*
Y-146400D02*
G01X247725D01*
Y-146400D02*
G01X248600Y-146067D01*
Y-146067D02*
G01X249350Y-145567D01*
Y-145567D02*
G01X249975Y-144900D01*
X253725Y-146400D02*
G01X256850Y-136400D01*
Y-136400D02*
G01X259975Y-146400D01*
X258850Y-142900D02*
G01X254850D01*
X264350Y-146400D02*
G01Y-136400D01*
Y-136400D02*
G01X267475D01*
Y-136400D02*
G01X268475Y-136900D01*
Y-136900D02*
G01X269100Y-137567D01*
Y-137567D02*
G01X269350Y-138900D01*
Y-138900D02*
G01X269100Y-140233D01*
Y-140233D02*
G01X268350Y-141067D01*
Y-141067D02*
G01X267475Y-141567D01*
Y-141567D02*
G01X264350D01*
X267475D02*
G01X269350Y-146400D01*
X274100D02*
G01Y-136400D01*
Y-136400D02*
G01X276600D01*
Y-136400D02*
G01X277600Y-136900D01*
Y-136900D02*
G01X278350Y-137567D01*
Y-137567D02*
G01X278975Y-138567D01*
Y-138567D02*
G01X279475Y-139734D01*
Y-139734D02*
G01X279600Y-141400D01*
Y-141400D02*
G01X279475Y-143067D01*
Y-143067D02*
G01X278975Y-144233D01*
Y-144233D02*
G01X278350Y-145234D01*
Y-145234D02*
G01X277600Y-145900D01*
Y-145900D02*
G01X276600Y-146400D01*
Y-146400D02*
G01X274100D01*
X24475Y-164900D02*
G01Y-154900D01*
Y-154900D02*
G01X29225D01*
X27475Y-159733D02*
G01X24475D01*
X35350Y-154900D02*
G01X38350D01*
X36850D02*
G01Y-164900D01*
X35350D02*
G01X38350D01*
X44350Y-154900D02*
G01Y-164900D01*
Y-164900D02*
G01X49350D01*
X53600D02*
G01Y-154900D01*
Y-154900D02*
G01X56850Y-163233D01*
Y-163233D02*
G01X60100Y-154900D01*
Y-154900D02*
G01Y-164900D01*
X74350Y-154900D02*
G01Y-164900D01*
Y-164900D02*
G01X79350D01*
X83725D02*
G01X86850Y-154900D01*
Y-154900D02*
G01X89975Y-164900D01*
X88850Y-161400D02*
G01X84850D01*
X96850Y-164900D02*
G01Y-160400D01*
Y-160400D02*
G01X94350Y-154900D01*
X99350D02*
G01X96850Y-160400D01*
X109350Y-164900D02*
G01X104350D01*
Y-164900D02*
G01Y-154900D01*
Y-154900D02*
G01X109350D01*
X107350Y-159733D02*
G01X104350D01*
X114350Y-164900D02*
G01Y-154900D01*
Y-154900D02*
G01X117475D01*
Y-154900D02*
G01X118475Y-155400D01*
Y-155400D02*
G01X119100Y-156067D01*
Y-156067D02*
G01X119350Y-157400D01*
Y-157400D02*
G01X119100Y-158733D01*
Y-158733D02*
G01X118350Y-159567D01*
Y-159567D02*
G01X117475Y-160067D01*
Y-160067D02*
G01X114350D01*
X117475D02*
G01X119350Y-164900D01*
X126850Y-165233D02*
G01X126600Y-165067D01*
Y-165067D02*
G01Y-164733D01*
Y-164733D02*
G01X126850Y-164567D01*
Y-164567D02*
G01X127100Y-164733D01*
Y-164733D02*
G01Y-165067D01*
Y-165067D02*
G01X126850Y-165233D01*
Y-160734D02*
G01X126600Y-160567D01*
Y-160567D02*
G01Y-160233D01*
Y-160233D02*
G01X126850Y-160067D01*
Y-160067D02*
G01X127100Y-160233D01*
Y-160233D02*
G01Y-160567D01*
Y-160567D02*
G01X126850Y-160734D01*
X24100Y-126400D02*
G01Y-116400D01*
Y-116400D02*
G01X26600D01*
Y-116400D02*
G01X27600Y-116900D01*
Y-116900D02*
G01X28350Y-117567D01*
Y-117567D02*
G01X28975Y-118567D01*
Y-118567D02*
G01X29475Y-119734D01*
Y-119734D02*
G01X29600Y-121400D01*
Y-121400D02*
G01X29475Y-123067D01*
Y-123067D02*
G01X28975Y-124233D01*
Y-124233D02*
G01X28350Y-125234D01*
Y-125234D02*
G01X27600Y-125900D01*
Y-125900D02*
G01X26600Y-126400D01*
Y-126400D02*
G01X24100D01*
X39350D02*
G01X34350D01*
Y-126400D02*
G01Y-116400D01*
Y-116400D02*
G01X39350D01*
X37350Y-121233D02*
G01X34350D01*
X44225Y-125067D02*
G01X45225Y-125900D01*
Y-125900D02*
G01X46350Y-126400D01*
Y-126400D02*
G01X47350D01*
Y-126400D02*
G01X48350Y-125900D01*
Y-125900D02*
G01X49100Y-125067D01*
Y-125067D02*
G01X49475Y-123900D01*
Y-123900D02*
G01X49225Y-122734D01*
Y-122734D02*
G01X48600Y-121733D01*
Y-121733D02*
G01X47475Y-121067D01*
Y-121067D02*
G01X45975Y-120733D01*
Y-120733D02*
G01X45100Y-120067D01*
Y-120067D02*
G01X44725Y-118900D01*
Y-118900D02*
G01X44975Y-117733D01*
Y-117733D02*
G01X45600Y-116900D01*
Y-116900D02*
G01X46475Y-116400D01*
Y-116400D02*
G01X47350D01*
Y-116400D02*
G01X48225Y-116733D01*
Y-116733D02*
G01X48975Y-117567D01*
X55350Y-116400D02*
G01X58350D01*
X56850D02*
G01Y-126400D01*
X55350D02*
G01X58350D01*
X67600Y-121400D02*
G01X70100D01*
Y-121400D02*
G01Y-124400D01*
Y-124400D02*
G01X69350Y-125400D01*
Y-125400D02*
G01X68475Y-126067D01*
Y-126067D02*
G01X67225Y-126400D01*
Y-126400D02*
G01X65975Y-126067D01*
Y-126067D02*
G01X65100Y-125400D01*
Y-125400D02*
G01X64350Y-124400D01*
Y-124400D02*
G01X63850Y-123233D01*
Y-123233D02*
G01X63600Y-121900D01*
Y-121900D02*
G01Y-120733D01*
Y-120733D02*
G01X63850Y-119734D01*
Y-119734D02*
G01X64350Y-118567D01*
Y-118567D02*
G01X65100Y-117567D01*
Y-117567D02*
G01X65850Y-116900D01*
Y-116900D02*
G01X66850Y-116400D01*
Y-116400D02*
G01X67725D01*
Y-116400D02*
G01X68725Y-116733D01*
Y-116733D02*
G01X69475Y-117400D01*
X73975Y-126400D02*
G01Y-116400D01*
Y-116400D02*
G01X79725Y-126400D01*
Y-126400D02*
G01Y-116400D01*
X89350Y-126400D02*
G01X84350D01*
Y-126400D02*
G01Y-116400D01*
Y-116400D02*
G01X89350D01*
X87350Y-121233D02*
G01X84350D01*
X94100Y-126400D02*
G01Y-116400D01*
Y-116400D02*
G01X96600D01*
Y-116400D02*
G01X97600Y-116900D01*
Y-116900D02*
G01X98350Y-117567D01*
Y-117567D02*
G01X98975Y-118567D01*
Y-118567D02*
G01X99475Y-119734D01*
Y-119734D02*
G01X99600Y-121400D01*
Y-121400D02*
G01X99475Y-123067D01*
Y-123067D02*
G01X98975Y-124233D01*
Y-124233D02*
G01X98350Y-125234D01*
Y-125234D02*
G01X97600Y-125900D01*
Y-125900D02*
G01X96600Y-126400D01*
Y-126400D02*
G01X94100D01*
X113725D02*
G01X116850Y-116400D01*
Y-116400D02*
G01X119975Y-126400D01*
X118850Y-122900D02*
G01X114850D01*
X126850Y-116400D02*
G01Y-126400D01*
X123975Y-116400D02*
G01X129725D01*
X136850Y-126733D02*
G01X136600Y-126567D01*
Y-126567D02*
G01Y-126233D01*
Y-126233D02*
G01X136850Y-126067D01*
Y-126067D02*
G01X137100Y-126233D01*
Y-126233D02*
G01Y-126567D01*
Y-126567D02*
G01X136850Y-126733D01*
Y-122234D02*
G01X136600Y-122067D01*
Y-122067D02*
G01Y-121733D01*
Y-121733D02*
G01X136850Y-121567D01*
Y-121567D02*
G01X137100Y-121733D01*
Y-121733D02*
G01Y-122067D01*
Y-122067D02*
G01X136850Y-122234D01*
X24100Y-106400D02*
G01Y-96400D01*
Y-96400D02*
G01X26600D01*
Y-96400D02*
G01X27600Y-96900D01*
Y-96900D02*
G01X28350Y-97567D01*
Y-97567D02*
G01X28975Y-98567D01*
Y-98567D02*
G01X29475Y-99734D01*
Y-99734D02*
G01X29600Y-101400D01*
Y-101400D02*
G01X29475Y-103067D01*
Y-103067D02*
G01X28975Y-104233D01*
Y-104233D02*
G01X28350Y-105234D01*
Y-105234D02*
G01X27600Y-105900D01*
Y-105900D02*
G01X26600Y-106400D01*
Y-106400D02*
G01X24100D01*
X33725D02*
G01X36850Y-96400D01*
Y-96400D02*
G01X39975Y-106400D01*
X38850Y-102900D02*
G01X34850D01*
X46850Y-96400D02*
G01Y-106400D01*
X43975Y-96400D02*
G01X49725D01*
X59350Y-106400D02*
G01X54350D01*
Y-106400D02*
G01Y-96400D01*
Y-96400D02*
G01X59350D01*
X57350Y-101233D02*
G01X54350D01*
X66850Y-106733D02*
G01X66600Y-106567D01*
Y-106567D02*
G01Y-106233D01*
Y-106233D02*
G01X66850Y-106067D01*
Y-106067D02*
G01X67100Y-106233D01*
Y-106233D02*
G01Y-106567D01*
Y-106567D02*
G01X66850Y-106733D01*
Y-102234D02*
G01X66600Y-102067D01*
Y-102067D02*
G01Y-101733D01*
Y-101733D02*
G01X66850Y-101567D01*
Y-101567D02*
G01X67100Y-101733D01*
Y-101733D02*
G01Y-102067D01*
Y-102067D02*
G01X66850Y-102234D01*
X76850Y-96400D02*
G01X75850Y-96733D01*
Y-96733D02*
G01X75100Y-97567D01*
Y-97567D02*
G01X74600Y-98567D01*
Y-98567D02*
G01X74225Y-99900D01*
Y-99900D02*
G01X74100Y-101400D01*
Y-101400D02*
G01X74225Y-102900D01*
Y-102900D02*
G01X74600Y-104233D01*
Y-104233D02*
G01X75100Y-105234D01*
Y-105234D02*
G01X75850Y-106067D01*
Y-106067D02*
G01X76850Y-106400D01*
Y-106400D02*
G01X77850Y-106067D01*
Y-106067D02*
G01X78600Y-105234D01*
Y-105234D02*
G01X79100Y-104233D01*
Y-104233D02*
G01X79475Y-102900D01*
Y-102900D02*
G01X79600Y-101400D01*
Y-101400D02*
G01X79475Y-99900D01*
Y-99900D02*
G01X79100Y-98567D01*
Y-98567D02*
G01X78600Y-97567D01*
Y-97567D02*
G01X77850Y-96733D01*
Y-96733D02*
G01X76850Y-96400D01*
X86600Y-106400D02*
G01X86850Y-104233D01*
Y-104233D02*
G01X87225Y-102400D01*
Y-102400D02*
G01X87725Y-100733D01*
Y-100733D02*
G01X88350Y-98900D01*
Y-98900D02*
G01X89350Y-96400D01*
Y-96400D02*
G01X84350D01*
X95225Y-103067D02*
G01X98475D01*
X106850Y-106400D02*
G01Y-96400D01*
Y-96400D02*
G01X105350Y-98400D01*
Y-106400D02*
G01X108350D01*
X116600D02*
G01X116850Y-104233D01*
Y-104233D02*
G01X117225Y-102400D01*
Y-102400D02*
G01X117725Y-100733D01*
Y-100733D02*
G01X118350Y-98900D01*
Y-98900D02*
G01X119350Y-96400D01*
Y-96400D02*
G01X114350D01*
X125225Y-103067D02*
G01X128475D01*
X134475Y-98067D02*
G01X135225Y-97067D01*
Y-97067D02*
G01X136100Y-96567D01*
Y-96567D02*
G01X137100Y-96400D01*
Y-96400D02*
G01X138350Y-96733D01*
Y-96733D02*
G01X139225Y-97567D01*
Y-97567D02*
G01X139475Y-98567D01*
Y-98567D02*
G01X139350Y-99567D01*
Y-99567D02*
G01X138850Y-100400D01*
Y-100400D02*
G01X136350Y-102067D01*
Y-102067D02*
G01X135225Y-103233D01*
Y-103233D02*
G01X134475Y-104900D01*
Y-104900D02*
G01X134225Y-106400D01*
Y-106400D02*
G01X139475D01*
X146850Y-96400D02*
G01X145850Y-96733D01*
Y-96733D02*
G01X145100Y-97567D01*
Y-97567D02*
G01X144600Y-98567D01*
Y-98567D02*
G01X144225Y-99900D01*
Y-99900D02*
G01X144100Y-101400D01*
Y-101400D02*
G01X144225Y-102900D01*
Y-102900D02*
G01X144600Y-104233D01*
Y-104233D02*
G01X145100Y-105234D01*
Y-105234D02*
G01X145850Y-106067D01*
Y-106067D02*
G01X146850Y-106400D01*
Y-106400D02*
G01X147850Y-106067D01*
Y-106067D02*
G01X148600Y-105234D01*
Y-105234D02*
G01X149100Y-104233D01*
Y-104233D02*
G01X149475Y-102900D01*
Y-102900D02*
G01X149600Y-101400D01*
Y-101400D02*
G01X149475Y-99900D01*
Y-99900D02*
G01X149100Y-98567D01*
Y-98567D02*
G01X148600Y-97567D01*
Y-97567D02*
G01X147850Y-96733D01*
Y-96733D02*
G01X146850Y-96400D01*
X156850Y-106400D02*
G01Y-96400D01*
Y-96400D02*
G01X155350Y-98400D01*
Y-106400D02*
G01X158350D01*
X166850D02*
G01X167725Y-106233D01*
Y-106233D02*
G01X168725Y-105733D01*
Y-105733D02*
G01X169350Y-104900D01*
Y-104900D02*
G01X169600Y-103733D01*
Y-103733D02*
G01X169350Y-102567D01*
Y-102567D02*
G01X168600Y-101567D01*
Y-101567D02*
G01X167475Y-101067D01*
Y-101067D02*
G01X166225D01*
Y-101067D02*
G01X165475Y-100733D01*
Y-100733D02*
G01X164850Y-99900D01*
Y-99900D02*
G01X164600Y-98733D01*
Y-98733D02*
G01X164975Y-97567D01*
Y-97567D02*
G01X165850Y-96733D01*
Y-96733D02*
G01X166850Y-96400D01*
Y-96400D02*
G01X167850Y-96733D01*
Y-96733D02*
G01X168725Y-97567D01*
Y-97567D02*
G01X169100Y-98733D01*
Y-98733D02*
G01X168850Y-99900D01*
Y-99900D02*
G01X168225Y-100733D01*
Y-100733D02*
G01X167475Y-101067D01*
Y-101067D02*
G01X166225D01*
Y-101067D02*
G01X165100Y-101567D01*
Y-101567D02*
G01X164350Y-102567D01*
Y-102567D02*
G01X164100Y-103733D01*
Y-103733D02*
G01X164350Y-104900D01*
Y-104900D02*
G01X164975Y-105733D01*
Y-105733D02*
G01X165975Y-106233D01*
Y-106233D02*
G01X166850Y-106400D01*
X135725Y-163167D02*
G01X136725Y-164000D01*
Y-164000D02*
G01X137850Y-164500D01*
Y-164500D02*
G01X138850D01*
Y-164500D02*
G01X139850Y-164000D01*
Y-164000D02*
G01X140600Y-163167D01*
Y-163167D02*
G01X140975Y-162000D01*
Y-162000D02*
G01X140725Y-160834D01*
Y-160834D02*
G01X140100Y-159833D01*
Y-159833D02*
G01X138975Y-159167D01*
Y-159167D02*
G01X137475Y-158833D01*
Y-158833D02*
G01X136600Y-158167D01*
Y-158167D02*
G01X136225Y-157000D01*
Y-157000D02*
G01X136475Y-155833D01*
Y-155833D02*
G01X137100Y-155000D01*
Y-155000D02*
G01X137975Y-154500D01*
Y-154500D02*
G01X138850D01*
Y-154500D02*
G01X139725Y-154833D01*
Y-154833D02*
G01X140475Y-155667D01*
X148350Y-164500D02*
G01X147350Y-164333D01*
Y-164333D02*
G01X146475Y-163667D01*
Y-163667D02*
G01X145725Y-162667D01*
Y-162667D02*
G01X145225Y-161500D01*
Y-161500D02*
G01X144975Y-160167D01*
Y-160167D02*
G01Y-158833D01*
Y-158833D02*
G01X145225Y-157500D01*
Y-157500D02*
G01X145725Y-156333D01*
Y-156333D02*
G01X146475Y-155333D01*
Y-155333D02*
G01X147350Y-154667D01*
Y-154667D02*
G01X148350Y-154500D01*
Y-154500D02*
G01X149350Y-154667D01*
Y-154667D02*
G01X150225Y-155333D01*
Y-155333D02*
G01X150975Y-156333D01*
Y-156333D02*
G01X151475Y-157500D01*
Y-157500D02*
G01X151725Y-158833D01*
Y-158833D02*
G01Y-160167D01*
Y-160167D02*
G01X151475Y-161500D01*
Y-161500D02*
G01X150975Y-162667D01*
Y-162667D02*
G01X150225Y-163667D01*
Y-163667D02*
G01X149350Y-164333D01*
Y-164333D02*
G01X148350Y-164500D01*
X155850Y-154500D02*
G01Y-164500D01*
Y-164500D02*
G01X160850D01*
X165600D02*
G01Y-154500D01*
Y-154500D02*
G01X168100D01*
Y-154500D02*
G01X169100Y-155000D01*
Y-155000D02*
G01X169850Y-155667D01*
Y-155667D02*
G01X170475Y-156667D01*
Y-156667D02*
G01X170975Y-157834D01*
Y-157834D02*
G01X171100Y-159500D01*
Y-159500D02*
G01X170975Y-161167D01*
Y-161167D02*
G01X170475Y-162333D01*
Y-162333D02*
G01X169850Y-163334D01*
Y-163334D02*
G01X169100Y-164000D01*
Y-164000D02*
G01X168100Y-164500D01*
Y-164500D02*
G01X165600D01*
X180850D02*
G01X175850D01*
Y-164500D02*
G01Y-154500D01*
Y-154500D02*
G01X180850D01*
X178850Y-159333D02*
G01X175850D01*
X185850Y-164500D02*
G01Y-154500D01*
Y-154500D02*
G01X188975D01*
Y-154500D02*
G01X189975Y-155000D01*
Y-155000D02*
G01X190600Y-155667D01*
Y-155667D02*
G01X190850Y-157000D01*
Y-157000D02*
G01X190600Y-158333D01*
Y-158333D02*
G01X189850Y-159167D01*
Y-159167D02*
G01X188975Y-159667D01*
Y-159667D02*
G01X185850D01*
X188975D02*
G01X190850Y-164500D01*
X195100D02*
G01Y-154500D01*
Y-154500D02*
G01X198350Y-162833D01*
Y-162833D02*
G01X201600Y-154500D01*
Y-154500D02*
G01Y-164500D01*
X205225D02*
G01X208350Y-154500D01*
Y-154500D02*
G01X211475Y-164500D01*
X210350Y-161000D02*
G01X206350D01*
X215725Y-163167D02*
G01X216725Y-164000D01*
Y-164000D02*
G01X217850Y-164500D01*
Y-164500D02*
G01X218850D01*
Y-164500D02*
G01X219850Y-164000D01*
Y-164000D02*
G01X220600Y-163167D01*
Y-163167D02*
G01X220975Y-162000D01*
Y-162000D02*
G01X220725Y-160834D01*
Y-160834D02*
G01X220100Y-159833D01*
Y-159833D02*
G01X218975Y-159167D01*
Y-159167D02*
G01X217475Y-158833D01*
Y-158833D02*
G01X216600Y-158167D01*
Y-158167D02*
G01X216225Y-157000D01*
Y-157000D02*
G01X216475Y-155833D01*
Y-155833D02*
G01X217100Y-155000D01*
Y-155000D02*
G01X217975Y-154500D01*
Y-154500D02*
G01X218850D01*
Y-154500D02*
G01X219725Y-154833D01*
Y-154833D02*
G01X220475Y-155667D01*
X225600Y-164500D02*
G01Y-154500D01*
X230350D02*
G01X225600Y-160667D01*
X231100Y-164500D02*
G01X227725Y-157834D01*
X249350Y-159167D02*
G01X249850Y-158667D01*
Y-158667D02*
G01X250225Y-157834D01*
Y-157834D02*
G01X250475Y-156667D01*
Y-156667D02*
G01X250225Y-155667D01*
Y-155667D02*
G01X249725Y-155000D01*
Y-155000D02*
G01X248850Y-154500D01*
Y-154500D02*
G01X245475D01*
Y-154500D02*
G01Y-164500D01*
Y-164500D02*
G01X249600D01*
Y-164500D02*
G01X250475Y-163833D01*
Y-163833D02*
G01X250975Y-162833D01*
Y-162833D02*
G01X251225Y-161667D01*
Y-161667D02*
G01X250975Y-160500D01*
Y-160500D02*
G01X250225Y-159500D01*
Y-159500D02*
G01X249350Y-159167D01*
Y-159167D02*
G01X245475D01*
X258350Y-164500D02*
G01X257350Y-164333D01*
Y-164333D02*
G01X256475Y-163667D01*
Y-163667D02*
G01X255725Y-162667D01*
Y-162667D02*
G01X255225Y-161500D01*
Y-161500D02*
G01X254975Y-160167D01*
Y-160167D02*
G01Y-158833D01*
Y-158833D02*
G01X255225Y-157500D01*
Y-157500D02*
G01X255725Y-156333D01*
Y-156333D02*
G01X256475Y-155333D01*
Y-155333D02*
G01X257350Y-154667D01*
Y-154667D02*
G01X258350Y-154500D01*
Y-154500D02*
G01X259350Y-154667D01*
Y-154667D02*
G01X260225Y-155333D01*
Y-155333D02*
G01X260975Y-156333D01*
Y-156333D02*
G01X261475Y-157500D01*
Y-157500D02*
G01X261725Y-158833D01*
Y-158833D02*
G01Y-160167D01*
Y-160167D02*
G01X261475Y-161500D01*
Y-161500D02*
G01X260975Y-162667D01*
Y-162667D02*
G01X260225Y-163667D01*
Y-163667D02*
G01X259350Y-164333D01*
Y-164333D02*
G01X258350Y-164500D01*
X268350Y-154500D02*
G01Y-164500D01*
X265475Y-154500D02*
G01X271225D01*
X278350D02*
G01Y-164500D01*
X275475Y-154500D02*
G01X281225D01*
X288350Y-164500D02*
G01X287350Y-164333D01*
Y-164333D02*
G01X286475Y-163667D01*
Y-163667D02*
G01X285725Y-162667D01*
Y-162667D02*
G01X285225Y-161500D01*
Y-161500D02*
G01X284975Y-160167D01*
Y-160167D02*
G01Y-158833D01*
Y-158833D02*
G01X285225Y-157500D01*
Y-157500D02*
G01X285725Y-156333D01*
Y-156333D02*
G01X286475Y-155333D01*
Y-155333D02*
G01X287350Y-154667D01*
Y-154667D02*
G01X288350Y-154500D01*
Y-154500D02*
G01X289350Y-154667D01*
Y-154667D02*
G01X290225Y-155333D01*
Y-155333D02*
G01X290975Y-156333D01*
Y-156333D02*
G01X291475Y-157500D01*
Y-157500D02*
G01X291725Y-158833D01*
Y-158833D02*
G01Y-160167D01*
Y-160167D02*
G01X291475Y-161500D01*
Y-161500D02*
G01X290975Y-162667D01*
Y-162667D02*
G01X290225Y-163667D01*
Y-163667D02*
G01X289350Y-164333D01*
Y-164333D02*
G01X288350Y-164500D01*
X295100D02*
G01Y-154500D01*
Y-154500D02*
G01X298350Y-162833D01*
Y-162833D02*
G01X301600Y-154500D01*
Y-154500D02*
G01Y-164500D01*
X219350Y-106400D02*
G01Y-96400D01*
Y-96400D02*
G01X222350D01*
Y-96400D02*
G01X223350Y-96900D01*
Y-96900D02*
G01X224100Y-98067D01*
Y-98067D02*
G01X224350Y-99400D01*
Y-99400D02*
G01X224100Y-100733D01*
Y-100733D02*
G01X223475Y-101733D01*
Y-101733D02*
G01X222350Y-102234D01*
Y-102234D02*
G01X219350D01*
X228725Y-106400D02*
G01X231850Y-96400D01*
Y-96400D02*
G01X234975Y-106400D01*
X233850Y-102900D02*
G01X229850D01*
X239350Y-106400D02*
G01Y-96400D01*
Y-96400D02*
G01X242475D01*
Y-96400D02*
G01X243475Y-96900D01*
Y-96900D02*
G01X244100Y-97567D01*
Y-97567D02*
G01X244350Y-98900D01*
Y-98900D02*
G01X244100Y-100233D01*
Y-100233D02*
G01X243350Y-101067D01*
Y-101067D02*
G01X242475Y-101567D01*
Y-101567D02*
G01X239350D01*
X242475D02*
G01X244350Y-106400D01*
X251850Y-96400D02*
G01Y-106400D01*
X248975Y-96400D02*
G01X254725D01*
X268975Y-106400D02*
G01Y-96400D01*
Y-96400D02*
G01X274725Y-106400D01*
Y-106400D02*
G01Y-96400D01*
X279100D02*
G01Y-103567D01*
Y-103567D02*
G01X279600Y-105067D01*
Y-105067D02*
G01X280600Y-106067D01*
Y-106067D02*
G01X281850Y-106400D01*
Y-106400D02*
G01X283100Y-106067D01*
Y-106067D02*
G01X284100Y-105067D01*
Y-105067D02*
G01X284600Y-103567D01*
Y-103567D02*
G01Y-96400D01*
X288600Y-106400D02*
G01Y-96400D01*
Y-96400D02*
G01X291850Y-104733D01*
Y-104733D02*
G01X295100Y-96400D01*
Y-96400D02*
G01Y-106400D01*
X302850Y-101067D02*
G01X303350Y-100567D01*
Y-100567D02*
G01X303725Y-99734D01*
Y-99734D02*
G01X303975Y-98567D01*
Y-98567D02*
G01X303725Y-97567D01*
Y-97567D02*
G01X303225Y-96900D01*
Y-96900D02*
G01X302350Y-96400D01*
Y-96400D02*
G01X298975D01*
Y-96400D02*
G01Y-106400D01*
Y-106400D02*
G01X303100D01*
Y-106400D02*
G01X303975Y-105733D01*
Y-105733D02*
G01X304475Y-104733D01*
Y-104733D02*
G01X304725Y-103567D01*
Y-103567D02*
G01X304475Y-102400D01*
Y-102400D02*
G01X303725Y-101400D01*
Y-101400D02*
G01X302850Y-101067D01*
Y-101067D02*
G01X298975D01*
X314350Y-106400D02*
G01X309350D01*
Y-106400D02*
G01Y-96400D01*
Y-96400D02*
G01X314350D01*
X312350Y-101233D02*
G01X309350D01*
X319350Y-106400D02*
G01Y-96400D01*
Y-96400D02*
G01X322475D01*
Y-96400D02*
G01X323475Y-96900D01*
Y-96900D02*
G01X324100Y-97567D01*
Y-97567D02*
G01X324350Y-98900D01*
Y-98900D02*
G01X324100Y-100233D01*
Y-100233D02*
G01X323350Y-101067D01*
Y-101067D02*
G01X322475Y-101567D01*
Y-101567D02*
G01X319350D01*
X322475D02*
G01X324350Y-106400D01*
X331850Y-106733D02*
G01X331600Y-106567D01*
Y-106567D02*
G01Y-106233D01*
Y-106233D02*
G01X331850Y-106067D01*
Y-106067D02*
G01X332100Y-106233D01*
Y-106233D02*
G01Y-106567D01*
Y-106567D02*
G01X331850Y-106733D01*
Y-102234D02*
G01X331600Y-102067D01*
Y-102067D02*
G01Y-101733D01*
Y-101733D02*
G01X331850Y-101567D01*
Y-101567D02*
G01X332100Y-101733D01*
Y-101733D02*
G01Y-102067D01*
Y-102067D02*
G01X331850Y-102234D01*
X516350Y-136150D02*
G01Y-146150D01*
Y-146150D02*
G01X521350D01*
X527350Y-136150D02*
G01X530350D01*
X528850D02*
G01Y-146150D01*
X527350D02*
G01X530350D01*
X536475D02*
G01Y-136150D01*
Y-136150D02*
G01X541225D01*
X539475Y-140983D02*
G01X536475D01*
X551350Y-146150D02*
G01X546350D01*
Y-146150D02*
G01Y-136150D01*
Y-136150D02*
G01X551350D01*
X549350Y-140983D02*
G01X546350D01*
X557225Y-142817D02*
G01X560475D01*
X568850Y-146150D02*
G01Y-136150D01*
Y-136150D02*
G01X567350Y-138150D01*
Y-146150D02*
G01X570350D01*
X0Y5000D02*
G01Y670110D01*
Y670110D02*
G01X5000Y675110D01*
Y675110D02*
G01X526657D01*
Y675110D02*
G01X531657Y670110D01*
Y670110D02*
G01Y565610D01*
Y565610D02*
G75*
G03X533657Y563610I2000D01*
Y563610D02*
G01X605551D01*
Y563610D02*
G01X610551Y558610D01*
Y558610D02*
G01Y5000D01*
Y5000D02*
G01X605551Y0D01*
Y0D02*
G01X5000D01*
Y0D02*
G01X0Y5000D01*
M02*
